<?xml version="1.0" encoding="iso-8859-1"?>
<!-- Generator: Adobe Illustrator 19.2.1, SVG Export Plug-In . SVG Version: 6.00 Build 0)  -->
<svg version="1.1" xmlns="http://www.w3.org/2000/svg" xmlns:xlink="http://www.w3.org/1999/xlink" x="0px" y="0px"
	 viewBox="0 0 24 24" style="enable-background:new 0 0 24 24;" xml:space="preserve">
<g id="Cad_1">
</g>
<g id="Cad_2">
</g>
<g id="Cad_Pencil">
</g>
<g id="Cad_Compasses">
</g>
<g id="Tools_1">
</g>
<g id="Tools_2">
</g>
<g id="Ruler_1">
</g>
<g id="Ruler_2">
</g>
<g id="Workspace_1">
</g>
<g id="Workspace_2">
</g>
<g id="Cad_3">
</g>
<g id="_x33_D_Box">
	<g>
		<g>
			<path d="M11.505,22c-0.085,0-0.171-0.022-0.248-0.066l-7-4c-0.156-0.089-0.252-0.255-0.252-0.434v-8
				c0-0.179,0.096-0.345,0.252-0.434l7-4c0.153-0.088,0.343-0.088,0.496,0l7,4c0.156,0.089,0.252,0.255,0.252,0.434v8
				c0,0.179-0.096,0.345-0.252,0.434l-7,4C11.677,21.978,11.591,22,11.505,22z M5.005,17.21l6.5,3.714l6.5-3.714V9.79l-6.5-3.714
				l-6.5,3.714V17.21z"/>
		</g>
		<g>
			<path d="M11.505,22c-0.276,0-0.5-0.224-0.5-0.5v-7.71L4.257,9.934C4.096,9.842,4.005,9.673,4.005,9.5
				c0-0.084,0.021-0.169,0.066-0.248c0.137-0.24,0.442-0.324,0.682-0.186l6.752,3.858l6.752-3.858
				c0.239-0.138,0.544-0.054,0.682,0.186c0.137,0.24,0.054,0.545-0.186,0.682l-6.748,3.856v7.71C12.005,21.776,11.782,22,11.505,22z
				"/>
		</g>
		<g>
			<path d="M11.509,4c-0.276,0-0.5-0.224-0.5-0.5V1.707l-0.146,0.146c-0.195,0.195-0.512,0.195-0.707,0
				c-0.098-0.098-0.146-0.226-0.146-0.354s0.049-0.256,0.146-0.354l1-1c0.09-0.09,0.207-0.139,0.325-0.146l0,0c0,0,0,0,0,0
				C11.511,0,11.539,0,11.568,0.003c0,0,0,0,0.001,0l0,0c0.095,0.012,0.187,0.05,0.263,0.115l0,0c0,0,0,0,0,0
				c0.011,0.01,0.022,0.02,0.032,0.03l0.997,0.997c0.195,0.195,0.195,0.512,0,0.707s-0.512,0.195-0.707,0l-0.146-0.146V3.5
				C12.009,3.776,11.785,4,11.509,4z"/>
		</g>
		<g>
			<path d="M21.136,20.675c-0.219,0-0.42-0.146-0.481-0.367c-0.073-0.266,0.083-0.542,0.349-0.615l0.2-0.055l-1.239-0.704
				c-0.24-0.136-0.324-0.441-0.188-0.682c0.135-0.24,0.44-0.325,0.682-0.188l1.239,0.704l-0.055-0.199
				c-0.012-0.044-0.018-0.089-0.018-0.132c0-0.22,0.145-0.421,0.367-0.482c0.263-0.075,0.542,0.083,0.615,0.349l0.375,1.363
				c0,0,0,0.001,0,0.001v0c0,0,0,0,0,0.001v0v0c0.032,0.121,0.018,0.243-0.033,0.347c-0.015,0.029-0.032,0.058-0.052,0.084
				c-0.057,0.075-0.135,0.135-0.229,0.168c-0.013,0.004-0.026,0.009-0.04,0.012l-1.359,0.375
				C21.225,20.669,21.18,20.675,21.136,20.675z"/>
		</g>
		<g>
			<path d="M1.873,20.675c-0.044,0-0.089-0.006-0.133-0.018L0.38,20.283c-0.015-0.004-0.029-0.009-0.043-0.014
				c-0.093-0.034-0.17-0.093-0.227-0.167c-0.02-0.026-0.037-0.055-0.052-0.084c-0.05-0.104-0.065-0.227-0.033-0.347v0v0
				c0,0,0-0.001,0-0.001v0c0,0,0-0.001,0-0.001l0.375-1.363c0.073-0.267,0.348-0.423,0.615-0.349
				c0.222,0.061,0.368,0.263,0.367,0.482c0,0.043-0.006,0.088-0.018,0.132l-0.055,0.199l1.239-0.704
				c0.242-0.136,0.546-0.052,0.682,0.188c0.137,0.24,0.053,0.545-0.188,0.682l-1.239,0.704l0.2,0.055
				c0.266,0.073,0.422,0.349,0.349,0.615C2.293,20.53,2.092,20.675,1.873,20.675z"/>
		</g>
	</g>
</g>
<g id="Section_Symbol_1_">
</g>
<g id="Outlet_Symbol_1_">
</g>
<g id="Cad_File">
</g>
<g id="Blueprint">
</g>
<g id="Construction_Plan">
</g>
<g id="Roof_Plan">
</g>
<g id="House_Construction">
</g>
<g id="Building_Construction">
</g>
<g id="Work_Table">
</g>
<g id="Table_Cad">
</g>
<g id="House_Plan">
</g>
<g id="Tape_Measure">
</g>
<g id="Cad_Paper">
</g>
<g id="Cad_Papers">
</g>
<g id="Stairs">
</g>
<g id="Pillar">
</g>
<g id="Bricks">
</g>
<g id="Pantheon">
</g>
<g id="House">
</g>
<g id="Skyscraper_1_">
</g>
<g id="Building">
</g>
</svg>
