<?xml version="1.0" encoding="iso-8859-1"?>
<!-- Generator: Adobe Illustrator 19.2.1, SVG Export Plug-In . SVG Version: 6.00 Build 0)  -->
<svg version="1.1" xmlns="http://www.w3.org/2000/svg" xmlns:xlink="http://www.w3.org/1999/xlink" x="0px" y="0px"
	 viewBox="0 0 24 24" style="enable-background:new 0 0 24 24;" xml:space="preserve">
<g id="Cad_1">
</g>
<g id="Cad_2">
</g>
<g id="Cad_Pencil">
</g>
<g id="Cad_Compasses">
</g>
<g id="Tools_1">
</g>
<g id="Tools_2">
</g>
<g id="Ruler_1">
</g>
<g id="Ruler_2">
</g>
<g id="Workspace_1">
</g>
<g id="Workspace_2">
</g>
<g id="Cad_3">
</g>
<g id="_x33_D_Box">
</g>
<g id="Section_Symbol_1_">
</g>
<g id="Outlet_Symbol_1_">
</g>
<g id="Cad_File">
</g>
<g id="Blueprint">
	<g>
		<g>
			<g>
				<path d="M6.5,14C6.224,14,6,13.776,6,13.5v-1C6,12.224,6.224,12,6.5,12S7,12.224,7,12.5v1C7,13.776,6.776,14,6.5,14z"/>
			</g>
			<g>
				<path d="M6.5,17.333c-0.276,0-0.5-0.224-0.5-0.5v-1.667c0-0.276,0.224-0.5,0.5-0.5S7,14.89,7,15.167v1.667
					C7,17.109,6.776,17.333,6.5,17.333z"/>
			</g>
			<g>
				<path d="M7.5,20h-1C6.224,20,6,19.776,6,19.5v-1C6,18.224,6.224,18,6.5,18S7,18.224,7,18.5V19h0.5C7.776,19,8,19.224,8,19.5
					S7.776,20,7.5,20z"/>
			</g>
			<g>
				<path d="M14.7,20h-1.801c-0.276,0-0.5-0.224-0.5-0.5s0.224-0.5,0.5-0.5H14.7c0.276,0,0.5,0.224,0.5,0.5S14.977,20,14.7,20z
					 M11.1,20H9.3c-0.276,0-0.5-0.224-0.5-0.5S9.023,19,9.3,19h1.8c0.276,0,0.5,0.224,0.5,0.5S11.376,20,11.1,20z"/>
			</g>
			<g>
				<path d="M17.5,20h-1c-0.276,0-0.5-0.224-0.5-0.5s0.224-0.5,0.5-0.5H17v-0.5c0-0.276,0.224-0.5,0.5-0.5s0.5,0.224,0.5,0.5v1
					C18,19.776,17.776,20,17.5,20z"/>
			</g>
			<g>
				<path d="M17.5,17.333c-0.276,0-0.5-0.224-0.5-0.5v-1.667c0-0.276,0.224-0.5,0.5-0.5s0.5,0.224,0.5,0.5v1.667
					C18,17.11,17.776,17.333,17.5,17.333z"/>
			</g>
			<g>
				<path d="M17.5,14c-0.276,0-0.5-0.224-0.5-0.5v-1c0-0.276,0.224-0.5,0.5-0.5s0.5,0.224,0.5,0.5v1C18,13.776,17.776,14,17.5,14z"
					/>
			</g>
		</g>
		<g>
			<g>
				<path d="M12.684,4.729c-0.134,0-0.267-0.053-0.365-0.158L12,4.231l-0.318,0.34c-0.188,0.202-0.505,0.211-0.707,0.023
					c-0.201-0.189-0.212-0.505-0.023-0.707l0.684-0.729c0.189-0.202,0.541-0.202,0.73,0l0.684,0.729
					c0.188,0.201,0.178,0.518-0.023,0.707C12.929,4.685,12.807,4.729,12.684,4.729z"/>
			</g>
			<g>
				<path d="M6.41,9.962c-0.123,0-0.245-0.045-0.342-0.135C5.867,9.638,5.856,9.321,6.046,9.12l1.227-1.308
					C7.46,7.61,7.777,7.602,7.979,7.789C8.18,7.978,8.19,8.294,8.001,8.496L6.774,9.804C6.677,9.909,6.543,9.962,6.41,9.962z
					 M8.863,7.346c-0.123,0-0.245-0.045-0.342-0.135C8.32,7.021,8.31,6.705,8.499,6.504l1.227-1.308
					c0.188-0.203,0.505-0.211,0.706-0.023c0.201,0.189,0.212,0.505,0.022,0.707L9.228,7.188C9.13,7.292,8.996,7.346,8.863,7.346z"/>
			</g>
			<g>
				<path d="M5.5,12h-1c-0.199,0-0.38-0.118-0.459-0.301c-0.079-0.183-0.042-0.395,0.094-0.541l0.684-0.729
					c0.189-0.202,0.505-0.211,0.707-0.023c0.171,0.16,0.204,0.413,0.095,0.609C5.838,11.068,6,11.265,6,11.5
					C6,11.776,5.776,12,5.5,12z"/>
			</g>
			<g>
				<path d="M16.644,12h-1.857c-0.276,0-0.5-0.224-0.5-0.5s0.224-0.5,0.5-0.5h1.857c0.276,0,0.5,0.224,0.5,0.5S16.92,12,16.644,12z
					 M12.929,12h-1.857c-0.276,0-0.5-0.224-0.5-0.5s0.224-0.5,0.5-0.5h1.857c0.276,0,0.5,0.224,0.5,0.5S13.205,12,12.929,12z
					 M9.215,12H7.357c-0.276,0-0.5-0.224-0.5-0.5s0.224-0.5,0.5-0.5h1.857c0.276,0,0.5,0.224,0.5,0.5S9.491,12,9.215,12z"/>
			</g>
			<g>
				<path d="M19.5,12h-1c-0.276,0-0.5-0.224-0.5-0.5c0-0.235,0.162-0.432,0.38-0.485c-0.109-0.196-0.076-0.449,0.095-0.609
					c0.203-0.188,0.518-0.179,0.707,0.023l0.684,0.729c0.136,0.146,0.173,0.358,0.094,0.541C19.88,11.882,19.699,12,19.5,12z"/>
			</g>
			<g>
				<path d="M17.59,9.962c-0.133,0-0.267-0.053-0.364-0.158l-1.227-1.308C15.81,8.295,15.82,7.979,16.021,7.79
					c0.201-0.188,0.518-0.18,0.706,0.023l1.227,1.308c0.189,0.201,0.179,0.518-0.022,0.707C17.835,9.917,17.713,9.962,17.59,9.962z
					 M15.137,7.346c-0.133,0-0.267-0.053-0.364-0.158L13.546,5.88c-0.189-0.201-0.179-0.518,0.022-0.707
					c0.201-0.188,0.519-0.179,0.706,0.023l1.227,1.308c0.189,0.201,0.179,0.518-0.022,0.707C15.382,7.301,15.26,7.346,15.137,7.346z
					"/>
			</g>
		</g>
		<g>
			<path d="M10.857,2.493c-0.136,0-0.271-0.055-0.37-0.164L9.13,0.836C8.944,0.632,8.959,0.316,9.164,0.13
				C9.368-0.054,9.685-0.04,9.87,0.164l1.357,1.493c0.186,0.205,0.171,0.521-0.034,0.707C11.098,2.45,10.978,2.493,10.857,2.493z"/>
		</g>
		<g>
			<path d="M13.143,2.493c-0.12,0-0.24-0.043-0.336-0.13c-0.205-0.186-0.22-0.502-0.034-0.707l1.357-1.493
				c0.187-0.203,0.502-0.218,0.706-0.034c0.205,0.186,0.22,0.502,0.034,0.707L13.513,2.33C13.414,2.438,13.278,2.493,13.143,2.493z"
				/>
		</g>
		<g>
			<path d="M23.5,12h-2c-0.276,0-0.5-0.224-0.5-0.5s0.224-0.5,0.5-0.5h2c0.276,0,0.5,0.224,0.5,0.5S23.776,12,23.5,12z"/>
		</g>
		<g>
			<path d="M17.5,24c-0.276,0-0.5-0.224-0.5-0.5v-2c0-0.276,0.224-0.5,0.5-0.5s0.5,0.224,0.5,0.5v2C18,23.776,17.776,24,17.5,24z"/>
		</g>
		<g>
			<path d="M6.5,24C6.224,24,6,23.776,6,23.5v-2C6,21.224,6.224,21,6.5,21S7,21.224,7,21.5v2C7,23.776,6.776,24,6.5,24z"/>
		</g>
		<g>
			<path d="M23.5,20h-2c-0.276,0-0.5-0.224-0.5-0.5s0.224-0.5,0.5-0.5h2c0.276,0,0.5,0.224,0.5,0.5S23.776,20,23.5,20z"/>
		</g>
		<g>
			<path d="M2.5,20h-2C0.224,20,0,19.776,0,19.5S0.224,19,0.5,19h2C2.776,19,3,19.224,3,19.5S2.776,20,2.5,20z"/>
		</g>
		<g>
			<path d="M2.5,12h-2C0.224,12,0,11.776,0,11.5S0.224,11,0.5,11h2C2.776,11,3,11.224,3,11.5S2.776,12,2.5,12z"/>
		</g>
	</g>
</g>
<g id="Construction_Plan">
</g>
<g id="Roof_Plan">
</g>
<g id="House_Construction">
</g>
<g id="Building_Construction">
</g>
<g id="Work_Table">
</g>
<g id="Table_Cad">
</g>
<g id="House_Plan">
</g>
<g id="Tape_Measure">
</g>
<g id="Cad_Paper">
</g>
<g id="Cad_Papers">
</g>
<g id="Stairs">
</g>
<g id="Pillar">
</g>
<g id="Bricks">
</g>
<g id="Pantheon">
</g>
<g id="House">
</g>
<g id="Skyscraper_1_">
</g>
<g id="Building">
</g>
</svg>
