<?xml version="1.0" encoding="iso-8859-1"?>
<!-- Generator: Adobe Illustrator 19.2.1, SVG Export Plug-In . SVG Version: 6.00 Build 0)  -->
<svg version="1.1" xmlns="http://www.w3.org/2000/svg" xmlns:xlink="http://www.w3.org/1999/xlink" x="0px" y="0px"
	 viewBox="0 0 24 24" style="enable-background:new 0 0 24 24;" xml:space="preserve">
<g id="Cad_1">
</g>
<g id="Cad_2">
</g>
<g id="Cad_Pencil">
</g>
<g id="Cad_Compasses">
</g>
<g id="Tools_1">
</g>
<g id="Tools_2">
</g>
<g id="Ruler_1">
</g>
<g id="Ruler_2">
</g>
<g id="Workspace_1">
</g>
<g id="Workspace_2">
</g>
<g id="Cad_3">
</g>
<g id="_x33_D_Box">
</g>
<g id="Section_Symbol_1_">
</g>
<g id="Outlet_Symbol_1_">
</g>
<g id="Cad_File">
</g>
<g id="Blueprint">
</g>
<g id="Construction_Plan">
</g>
<g id="Roof_Plan">
</g>
<g id="House_Construction">
</g>
<g id="Building_Construction">
</g>
<g id="Work_Table">
</g>
<g id="Table_Cad">
</g>
<g id="House_Plan">
</g>
<g id="Tape_Measure">
</g>
<g id="Cad_Paper">
</g>
<g id="Cad_Papers">
</g>
<g id="Stairs">
</g>
<g id="Pillar">
</g>
<g id="Bricks">
	<g>
		<g>
			<path d="M7.5,20h-7C0.224,20,0,19.776,0,19.5v-3C0,16.224,0.224,16,0.5,16h7C7.776,16,8,16.224,8,16.5v3
				C8,19.776,7.776,20,7.5,20z M1,19h6v-2H1V19z"/>
		</g>
		<g>
			<path d="M14.5,20h-7C7.224,20,7,19.776,7,19.5v-3C7,16.224,7.224,16,7.5,16h7c0.276,0,0.5,0.224,0.5,0.5v3
				C15,19.776,14.776,20,14.5,20z M8,19h6v-2H8V19z"/>
		</g>
		<g>
			<path d="M21.5,20h-7c-0.276,0-0.5-0.224-0.5-0.5v-3c0-0.276,0.224-0.5,0.5-0.5h7c0.276,0,0.5,0.224,0.5,0.5v3
				C22,19.776,21.776,20,21.5,20z M15,19h6v-2h-6V19z"/>
		</g>
		<g>
			<path d="M9.5,17h-7C2.224,17,2,16.776,2,16.5v-3C2,13.224,2.224,13,2.5,13h7c0.276,0,0.5,0.224,0.5,0.5v3
				C10,16.776,9.776,17,9.5,17z M3,16h6v-2H3V16z"/>
		</g>
		<g>
			<path d="M16.5,17h-7C9.224,17,9,16.776,9,16.5v-3C9,13.224,9.224,13,9.5,13h7c0.276,0,0.5,0.224,0.5,0.5v3
				C17,16.776,16.776,17,16.5,17z M10,16h6v-2h-6V16z"/>
		</g>
		<g>
			<path d="M23.5,17h-7c-0.276,0-0.5-0.224-0.5-0.5v-3c0-0.276,0.224-0.5,0.5-0.5h7c0.276,0,0.5,0.224,0.5,0.5v3
				C24,16.776,23.776,17,23.5,17z M17,16h6v-2h-6V16z"/>
		</g>
		<g>
			<path d="M14.5,14h-7C7.224,14,7,13.776,7,13.5v-3C7,10.224,7.224,10,7.5,10h7c0.276,0,0.5,0.224,0.5,0.5v3
				C15,13.776,14.776,14,14.5,14z M8,13h6v-2H8V13z"/>
		</g>
		<g>
			<path d="M21.5,14h-7c-0.276,0-0.5-0.224-0.5-0.5v-3c0-0.276,0.224-0.5,0.5-0.5h7c0.276,0,0.5,0.224,0.5,0.5v3
				C22,13.776,21.776,14,21.5,14z M15,13h6v-2h-6V13z"/>
		</g>
		<g>
			<path d="M9.5,11h-7C2.224,11,2,10.776,2,10.5v-3C2,7.224,2.224,7,2.5,7h7C9.776,7,10,7.224,10,7.5v3C10,10.776,9.776,11,9.5,11z
				 M3,10h6V8H3V10z"/>
		</g>
		<g>
			<path d="M14.5,8h-7C7.224,8,7,7.776,7,7.5v-3C7,4.224,7.224,4,7.5,4h7C14.776,4,15,4.224,15,4.5v3C15,7.776,14.776,8,14.5,8z
				 M8,7h6V5H8V7z"/>
		</g>
		<g>
			<path d="M16.5,11h-7C9.224,11,9,10.776,9,10.5v-3C9,7.224,9.224,7,9.5,7h7C16.776,7,17,7.224,17,7.5v3
				C17,10.776,16.776,11,16.5,11z M10,10h6V8h-6V10z"/>
		</g>
	</g>
</g>
<g id="Pantheon">
</g>
<g id="House">
</g>
<g id="Skyscraper_1_">
</g>
<g id="Building">
</g>
</svg>
