<?xml version="1.0" encoding="iso-8859-1"?>
<!-- Generator: Adobe Illustrator 19.2.1, SVG Export Plug-In . SVG Version: 6.00 Build 0)  -->
<svg version="1.1" xmlns="http://www.w3.org/2000/svg" xmlns:xlink="http://www.w3.org/1999/xlink" x="0px" y="0px"
	 viewBox="0 0 24 24" style="enable-background:new 0 0 24 24;" xml:space="preserve">
<g id="Cad_1">
</g>
<g id="Cad_2">
</g>
<g id="Cad_Pencil">
</g>
<g id="Cad_Compasses">
</g>
<g id="Tools_1">
</g>
<g id="Tools_2">
</g>
<g id="Ruler_1">
</g>
<g id="Ruler_2">
</g>
<g id="Workspace_1">
</g>
<g id="Workspace_2">
</g>
<g id="Cad_3">
</g>
<g id="_x33_D_Box">
</g>
<g id="Section_Symbol_1_">
</g>
<g id="Outlet_Symbol_1_">
</g>
<g id="Cad_File">
</g>
<g id="Blueprint">
</g>
<g id="Construction_Plan">
</g>
<g id="Roof_Plan">
</g>
<g id="House_Construction">
</g>
<g id="Building_Construction">
</g>
<g id="Work_Table">
</g>
<g id="Table_Cad">
</g>
<g id="House_Plan">
</g>
<g id="Tape_Measure">
</g>
<g id="Cad_Paper">
</g>
<g id="Cad_Papers">
</g>
<g id="Stairs">
</g>
<g id="Pillar">
</g>
<g id="Bricks">
</g>
<g id="Pantheon">
</g>
<g id="House">
</g>
<g id="Skyscraper_1_">
</g>
<g id="Building">
	<g>
		<g>
			<path d="M18.5,24h-13C5.224,24,5,23.776,5,23.5v-21C5,2.224,5.224,2,5.5,2h13C18.776,2,19,2.224,19,2.5v21
				C19,23.776,18.776,24,18.5,24z M6,23h12V3H6V23z"/>
		</g>
		<g>
			<path d="M16.5,24h-3c-0.276,0-0.5-0.224-0.5-0.5v-3c0-0.276,0.224-0.5,0.5-0.5h3c0.276,0,0.5,0.224,0.5,0.5v3
				C17,23.776,16.776,24,16.5,24z M14,23h2v-2h-2V23z"/>
		</g>
		<g>
			<path d="M7.5,6C7.224,6,7,5.776,7,5.5v-1C7,4.224,7.224,4,7.5,4S8,4.224,8,4.5v1C8,5.776,7.776,6,7.5,6z"/>
		</g>
		<g>
			<path d="M10.5,6C10.224,6,10,5.776,10,5.5v-1C10,4.224,10.224,4,10.5,4S11,4.224,11,4.5v1C11,5.776,10.776,6,10.5,6z"/>
		</g>
		<g>
			<path d="M13.5,6C13.224,6,13,5.776,13,5.5v-1C13,4.224,13.224,4,13.5,4S14,4.224,14,4.5v1C14,5.776,13.776,6,13.5,6z"/>
		</g>
		<g>
			<path d="M16.5,6C16.224,6,16,5.776,16,5.5v-1C16,4.224,16.224,4,16.5,4S17,4.224,17,4.5v1C17,5.776,16.776,6,16.5,6z"/>
		</g>
		<g>
			<path d="M7.5,10C7.224,10,7,9.776,7,9.5v-1C7,8.224,7.224,8,7.5,8S8,8.224,8,8.5v1C8,9.776,7.776,10,7.5,10z"/>
		</g>
		<g>
			<path d="M10.5,10C10.224,10,10,9.776,10,9.5v-1C10,8.224,10.224,8,10.5,8S11,8.224,11,8.5v1C11,9.776,10.776,10,10.5,10z"/>
		</g>
		<g>
			<path d="M13.5,10C13.224,10,13,9.776,13,9.5v-1C13,8.224,13.224,8,13.5,8S14,8.224,14,8.5v1C14,9.776,13.776,10,13.5,10z"/>
		</g>
		<g>
			<path d="M16.5,10C16.224,10,16,9.776,16,9.5v-1C16,8.224,16.224,8,16.5,8S17,8.224,17,8.5v1C17,9.776,16.776,10,16.5,10z"/>
		</g>
		<g>
			<path d="M7.5,14C7.224,14,7,13.776,7,13.5v-1C7,12.224,7.224,12,7.5,12S8,12.224,8,12.5v1C8,13.776,7.776,14,7.5,14z"/>
		</g>
		<g>
			<path d="M10.5,14c-0.276,0-0.5-0.224-0.5-0.5v-1c0-0.276,0.224-0.5,0.5-0.5s0.5,0.224,0.5,0.5v1C11,13.776,10.776,14,10.5,14z"/>
		</g>
		<g>
			<path d="M13.5,14c-0.276,0-0.5-0.224-0.5-0.5v-1c0-0.276,0.224-0.5,0.5-0.5s0.5,0.224,0.5,0.5v1C14,13.776,13.776,14,13.5,14z"/>
		</g>
		<g>
			<path d="M16.5,14c-0.276,0-0.5-0.224-0.5-0.5v-1c0-0.276,0.224-0.5,0.5-0.5s0.5,0.224,0.5,0.5v1C17,13.776,16.776,14,16.5,14z"/>
		</g>
		<g>
			<path d="M7.5,18C7.224,18,7,17.776,7,17.5v-1C7,16.224,7.224,16,7.5,16S8,16.224,8,16.5v1C8,17.776,7.776,18,7.5,18z"/>
		</g>
		<g>
			<path d="M10.5,18c-0.276,0-0.5-0.224-0.5-0.5v-1c0-0.276,0.224-0.5,0.5-0.5s0.5,0.224,0.5,0.5v1C11,17.776,10.776,18,10.5,18z"/>
		</g>
		<g>
			<path d="M13.5,18c-0.276,0-0.5-0.224-0.5-0.5v-1c0-0.276,0.224-0.5,0.5-0.5s0.5,0.224,0.5,0.5v1C14,17.776,13.776,18,13.5,18z"/>
		</g>
		<g>
			<path d="M16.5,18c-0.276,0-0.5-0.224-0.5-0.5v-1c0-0.276,0.224-0.5,0.5-0.5s0.5,0.224,0.5,0.5v1C17,17.776,16.776,18,16.5,18z"/>
		</g>
		<g>
			<path d="M7.5,22C7.224,22,7,21.776,7,21.5v-1C7,20.224,7.224,20,7.5,20S8,20.224,8,20.5v1C8,21.776,7.776,22,7.5,22z"/>
		</g>
		<g>
			<path d="M10.5,22c-0.276,0-0.5-0.224-0.5-0.5v-1c0-0.276,0.224-0.5,0.5-0.5s0.5,0.224,0.5,0.5v1C11,21.776,10.776,22,10.5,22z"/>
		</g>
		<g>
			<path d="M17.5,3h-11C6.224,3,6,2.776,6,2.5v-2C6,0.224,6.224,0,6.5,0h11C17.776,0,18,0.224,18,0.5v2C18,2.776,17.776,3,17.5,3z
				 M7,2h10V1H7V2z"/>
		</g>
	</g>
</g>
</svg>
