<?xml version="1.0" encoding="iso-8859-1"?>
<!-- Generator: Adobe Illustrator 19.2.1, SVG Export Plug-In . SVG Version: 6.00 Build 0)  -->
<svg version="1.1" xmlns="http://www.w3.org/2000/svg" xmlns:xlink="http://www.w3.org/1999/xlink" x="0px" y="0px"
	 viewBox="0 0 24 24" style="enable-background:new 0 0 24 24;" xml:space="preserve">
<g id="Cad_1">
</g>
<g id="Cad_2">
</g>
<g id="Cad_Pencil">
</g>
<g id="Cad_Compasses">
</g>
<g id="Tools_1">
</g>
<g id="Tools_2">
</g>
<g id="Ruler_1">
</g>
<g id="Ruler_2">
</g>
<g id="Workspace_1">
</g>
<g id="Workspace_2">
</g>
<g id="Cad_3">
</g>
<g id="_x33_D_Box">
</g>
<g id="Section_Symbol_1_">
</g>
<g id="Outlet_Symbol_1_">
</g>
<g id="Cad_File">
</g>
<g id="Blueprint">
</g>
<g id="Construction_Plan">
</g>
<g id="Roof_Plan">
</g>
<g id="House_Construction">
</g>
<g id="Building_Construction">
	<g>
		<g>
			<path d="M19.5,23h-8c-0.276,0-0.5-0.224-0.5-0.5s0.224-0.5,0.5-0.5H19V2h-7.5C11.224,2,11,1.776,11,1.5S11.224,1,11.5,1h8
				C19.776,1,20,1.224,20,1.5v21C20,22.776,19.776,23,19.5,23z"/>
		</g>
		<g>
			<path d="M11.5,24c-0.276,0-0.5-0.224-0.5-0.5v-23C11,0.224,11.224,0,11.5,0S12,0.224,12,0.5v23C12,23.776,11.776,24,11.5,24z"/>
		</g>
		<g>
			<path d="M13.5,5C13.224,5,13,4.776,13,4.5v-1C13,3.224,13.224,3,13.5,3S14,3.224,14,3.5v1C14,4.776,13.776,5,13.5,5z"/>
		</g>
		<g>
			<path d="M15.5,5C15.224,5,15,4.776,15,4.5v-1C15,3.224,15.224,3,15.5,3S16,3.224,16,3.5v1C16,4.776,15.776,5,15.5,5z"/>
		</g>
		<g>
			<path d="M17.5,5C17.224,5,17,4.776,17,4.5v-1C17,3.224,17.224,3,17.5,3S18,3.224,18,3.5v1C18,4.776,17.776,5,17.5,5z"/>
		</g>
		<g>
			<path d="M13.5,9C13.224,9,13,8.776,13,8.5v-1C13,7.224,13.224,7,13.5,7S14,7.224,14,7.5v1C14,8.776,13.776,9,13.5,9z"/>
		</g>
		<g>
			<path d="M15.5,9C15.224,9,15,8.776,15,8.5v-1C15,7.224,15.224,7,15.5,7S16,7.224,16,7.5v1C16,8.776,15.776,9,15.5,9z"/>
		</g>
		<g>
			<path d="M17.5,9C17.224,9,17,8.776,17,8.5v-1C17,7.224,17.224,7,17.5,7S18,7.224,18,7.5v1C18,8.776,17.776,9,17.5,9z"/>
		</g>
		<g>
			<path d="M13.5,13c-0.276,0-0.5-0.224-0.5-0.5v-1c0-0.276,0.224-0.5,0.5-0.5s0.5,0.224,0.5,0.5v1C14,12.776,13.776,13,13.5,13z"/>
		</g>
		<g>
			<path d="M15.5,13c-0.276,0-0.5-0.224-0.5-0.5v-1c0-0.276,0.224-0.5,0.5-0.5s0.5,0.224,0.5,0.5v1C16,12.776,15.776,13,15.5,13z"/>
		</g>
		<g>
			<path d="M17.5,13c-0.276,0-0.5-0.224-0.5-0.5v-1c0-0.276,0.224-0.5,0.5-0.5s0.5,0.224,0.5,0.5v1C18,12.776,17.776,13,17.5,13z"/>
		</g>
		<g>
			<path d="M13.5,17c-0.276,0-0.5-0.224-0.5-0.5v-1c0-0.276,0.224-0.5,0.5-0.5s0.5,0.224,0.5,0.5v1C14,16.776,13.776,17,13.5,17z"/>
		</g>
		<g>
			<path d="M13.5,21c-0.276,0-0.5-0.224-0.5-0.5v-1c0-0.276,0.224-0.5,0.5-0.5s0.5,0.224,0.5,0.5v1C14,20.776,13.776,21,13.5,21z"/>
		</g>
		<g>
			<path d="M15.5,17c-0.276,0-0.5-0.224-0.5-0.5v-1c0-0.276,0.224-0.5,0.5-0.5s0.5,0.224,0.5,0.5v1C16,16.776,15.776,17,15.5,17z"/>
		</g>
		<g>
			<path d="M17.5,17c-0.276,0-0.5-0.224-0.5-0.5v-1c0-0.276,0.224-0.5,0.5-0.5s0.5,0.224,0.5,0.5v1C18,16.776,17.776,17,17.5,17z"/>
		</g>
		<g>
			<path d="M17.5,23c-0.276,0-0.5-0.224-0.5-0.5V20h-1v2.5c0,0.276-0.224,0.5-0.5,0.5S15,22.776,15,22.5v-3
				c0-0.276,0.224-0.5,0.5-0.5h2c0.276,0,0.5,0.224,0.5,0.5v3C18,22.776,17.776,23,17.5,23z"/>
		</g>
		<g>
			<g>
				<path d="M11.5,2h-1C10.224,2,10,1.776,10,1.5S10.224,1,10.5,1h1C11.776,1,12,1.224,12,1.5S11.776,2,11.5,2z"/>
			</g>
			<g>
				<path d="M8.5,2h-2C6.224,2,6,1.776,6,1.5S6.224,1,6.5,1h2C8.776,1,9,1.224,9,1.5S8.776,2,8.5,2z"/>
			</g>
			<g>
				<path d="M3.5,3C3.224,3,3,2.776,3,2.5v-1C3,1.224,3.224,1,3.5,1h1C4.776,1,5,1.224,5,1.5S4.776,2,4.5,2H4v0.5
					C4,2.776,3.776,3,3.5,3z"/>
			</g>
			<g>
				<path d="M3.5,19.889c-0.276,0-0.5-0.224-0.5-0.5v-2.111c0-0.276,0.224-0.5,0.5-0.5s0.5,0.224,0.5,0.5v2.111
					C4,19.666,3.776,19.889,3.5,19.889z M3.5,15.667c-0.276,0-0.5-0.224-0.5-0.5v-2.111c0-0.276,0.224-0.5,0.5-0.5
					s0.5,0.224,0.5,0.5v2.111C4,15.443,3.776,15.667,3.5,15.667z M3.5,11.445c-0.276,0-0.5-0.224-0.5-0.5V8.833
					c0-0.276,0.224-0.5,0.5-0.5S4,8.557,4,8.833v2.111C4,11.221,3.776,11.445,3.5,11.445z M3.5,7.223c-0.276,0-0.5-0.224-0.5-0.5
					V4.611c0-0.276,0.224-0.5,0.5-0.5S4,4.335,4,4.611v2.111C4,6.999,3.776,7.223,3.5,7.223z"/>
			</g>
			<g>
				<path d="M4.5,23h-1C3.224,23,3,22.776,3,22.5v-1C3,21.224,3.224,21,3.5,21S4,21.224,4,21.5V22h0.5C4.776,22,5,22.224,5,22.5
					S4.776,23,4.5,23z"/>
			</g>
			<g>
				<path d="M8.5,23h-2C6.224,23,6,22.776,6,22.5S6.224,22,6.5,22h2C8.776,22,9,22.224,9,22.5S8.776,23,8.5,23z"/>
			</g>
			<g>
				<path d="M11.5,23h-1c-0.276,0-0.5-0.224-0.5-0.5s0.224-0.5,0.5-0.5h1c0.276,0,0.5,0.224,0.5,0.5S11.776,23,11.5,23z"/>
			</g>
		</g>
	</g>
</g>
<g id="Work_Table">
</g>
<g id="Table_Cad">
</g>
<g id="House_Plan">
</g>
<g id="Tape_Measure">
</g>
<g id="Cad_Paper">
</g>
<g id="Cad_Papers">
</g>
<g id="Stairs">
</g>
<g id="Pillar">
</g>
<g id="Bricks">
</g>
<g id="Pantheon">
</g>
<g id="House">
</g>
<g id="Skyscraper_1_">
</g>
<g id="Building">
</g>
</svg>
