<?xml version="1.0" encoding="iso-8859-1"?>
<!-- Generator: Adobe Illustrator 19.2.1, SVG Export Plug-In . SVG Version: 6.00 Build 0)  -->
<svg version="1.1" xmlns="http://www.w3.org/2000/svg" xmlns:xlink="http://www.w3.org/1999/xlink" x="0px" y="0px"
	 viewBox="0 0 24 24" style="enable-background:new 0 0 24 24;" xml:space="preserve">
<g id="Cad_1">
</g>
<g id="Cad_2">
</g>
<g id="Cad_Pencil">
</g>
<g id="Cad_Compasses">
</g>
<g id="Tools_1">
</g>
<g id="Tools_2">
</g>
<g id="Ruler_1">
</g>
<g id="Ruler_2">
</g>
<g id="Workspace_1">
</g>
<g id="Workspace_2">
</g>
<g id="Cad_3">
	<g>
		<g>
			<path d="M5.5,24h-5C0.224,24,0,23.776,0,23.5v-2C0,21.224,0.224,21,0.5,21h5C5.776,21,6,21.224,6,21.5v2
				C6,23.776,5.776,24,5.5,24z M1,23h4v-1H1V23z"/>
		</g>
		<g>
			<path d="M23.5,24h-9c-0.276,0-0.5-0.224-0.5-0.5v-2c0-0.276,0.224-0.5,0.5-0.5h9c0.276,0,0.5,0.224,0.5,0.5v2
				C24,23.776,23.776,24,23.5,24z M15,23h8v-1h-8V23z"/>
		</g>
		<g>
			<path d="M5.5,24C5.224,24,5,23.776,5,23.5v-11C5,12.224,5.224,12,5.5,12S6,12.224,6,12.5v11C6,23.776,5.776,24,5.5,24z"/>
		</g>
		<g>
			<g>
				<path d="M6.5,13.055c-0.018,0-0.037-0.001-0.055-0.003C6.134,13.018,5.819,13,5.5,13C5.224,13,5,12.776,5,12.5S5.224,12,5.5,12
					c0.356,0,0.708,0.02,1.054,0.058c0.274,0.03,0.473,0.277,0.442,0.552C6.968,12.865,6.751,13.055,6.5,13.055z"/>
			</g>
			<g>
				<path d="M14.089,19.304c-0.213,0-0.41-0.137-0.477-0.351c-0.163-0.519-0.377-1.024-0.638-1.504
					c-0.132-0.243-0.042-0.546,0.201-0.678c0.242-0.131,0.546-0.042,0.678,0.201c0.292,0.536,0.531,1.103,0.713,1.683
					c0.083,0.264-0.064,0.544-0.328,0.626C14.189,19.297,14.139,19.304,14.089,19.304z M12.447,16.277
					c-0.145,0-0.288-0.062-0.386-0.182c-0.346-0.419-0.735-0.809-1.157-1.156c-0.213-0.176-0.243-0.491-0.067-0.704
					c0.174-0.212,0.491-0.244,0.704-0.067c0.471,0.388,0.905,0.823,1.292,1.292c0.176,0.213,0.146,0.528-0.068,0.704
					C12.671,16.24,12.559,16.277,12.447,16.277z M9.787,14.085c-0.081,0-0.162-0.02-0.238-0.061c-0.48-0.26-0.986-0.475-1.505-0.637
					c-0.264-0.083-0.41-0.363-0.328-0.626c0.082-0.264,0.361-0.412,0.626-0.328c0.58,0.182,1.146,0.421,1.683,0.712
					c0.243,0.132,0.333,0.435,0.201,0.678C10.137,13.99,9.964,14.085,9.787,14.085z"/>
			</g>
			<g>
				<path d="M14.5,22c-0.276,0-0.5-0.224-0.5-0.5c0-0.319-0.018-0.634-0.052-0.944c-0.03-0.274,0.168-0.521,0.442-0.552
					c0.278-0.032,0.521,0.168,0.552,0.442C14.98,20.792,15,21.144,15,21.5C15,21.776,14.776,22,14.5,22z"/>
			</g>
		</g>
		<g>
			<path d="M3.5,24C3.224,24,3,23.776,3,23.5v-2C3,21.224,3.224,21,3.5,21S4,21.224,4,21.5v2C4,23.776,3.776,24,3.5,24z"/>
		</g>
		<g>
			<path d="M16.5,24c-0.276,0-0.5-0.224-0.5-0.5v-2c0-0.276,0.224-0.5,0.5-0.5s0.5,0.224,0.5,0.5v2C17,23.776,16.776,24,16.5,24z"/>
		</g>
		<g>
			<path d="M19.5,8h-2C16.673,8,16,7.327,16,6.5v-2C16,3.673,16.673,3,17.5,3h2C20.327,3,21,3.673,21,4.5v2
				C21,7.327,20.327,8,19.5,8z M17.5,4C17.224,4,17,4.224,17,4.5v2C17,6.776,17.224,7,17.5,7h2C19.776,7,20,6.776,20,6.5v-2
				C20,4.224,19.776,4,19.5,4H17.5z"/>
		</g>
		<g>
			<path d="M18.5,22c-0.276,0-0.5-0.224-0.5-0.5v-14C18,7.224,18.224,7,18.5,7S19,7.224,19,7.5v14C19,21.776,18.776,22,18.5,22z"/>
		</g>
		<g>
			<path d="M16.5,6h-16C0.224,6,0,5.776,0,5.5S0.224,5,0.5,5h16C16.776,5,17,5.224,17,5.5S16.776,6,16.5,6z"/>
		</g>
		<g>
			<path d="M18.5,4C18.224,4,18,3.776,18,3.5v-3C18,0.224,18.224,0,18.5,0S19,0.224,19,0.5v3C19,3.776,18.776,4,18.5,4z"/>
		</g>
		<g>
			<path d="M23.5,6h-3C20.224,6,20,5.776,20,5.5S20.224,5,20.5,5h3C23.776,5,24,5.224,24,5.5S23.776,6,23.5,6z"/>
		</g>
	</g>
</g>
<g id="_x33_D_Box">
</g>
<g id="Section_Symbol_1_">
</g>
<g id="Outlet_Symbol_1_">
</g>
<g id="Cad_File">
</g>
<g id="Blueprint">
</g>
<g id="Construction_Plan">
</g>
<g id="Roof_Plan">
</g>
<g id="House_Construction">
</g>
<g id="Building_Construction">
</g>
<g id="Work_Table">
</g>
<g id="Table_Cad">
</g>
<g id="House_Plan">
</g>
<g id="Tape_Measure">
</g>
<g id="Cad_Paper">
</g>
<g id="Cad_Papers">
</g>
<g id="Stairs">
</g>
<g id="Pillar">
</g>
<g id="Bricks">
</g>
<g id="Pantheon">
</g>
<g id="House">
</g>
<g id="Skyscraper_1_">
</g>
<g id="Building">
</g>
</svg>
