<?xml version="1.0" encoding="iso-8859-1"?>
<!-- Generator: Adobe Illustrator 19.2.1, SVG Export Plug-In . SVG Version: 6.00 Build 0)  -->
<svg version="1.1" xmlns="http://www.w3.org/2000/svg" xmlns:xlink="http://www.w3.org/1999/xlink" x="0px" y="0px"
	 viewBox="0 0 24 24" style="enable-background:new 0 0 24 24;" xml:space="preserve">
<g id="Cad_1">
</g>
<g id="Cad_2">
</g>
<g id="Cad_Pencil">
</g>
<g id="Cad_Compasses">
</g>
<g id="Tools_1">
</g>
<g id="Tools_2">
</g>
<g id="Ruler_1">
</g>
<g id="Ruler_2">
</g>
<g id="Workspace_1">
</g>
<g id="Workspace_2">
</g>
<g id="Cad_3">
</g>
<g id="_x33_D_Box">
</g>
<g id="Section_Symbol_1_">
</g>
<g id="Outlet_Symbol_1_">
</g>
<g id="Cad_File">
</g>
<g id="Blueprint">
</g>
<g id="Construction_Plan">
</g>
<g id="Roof_Plan">
</g>
<g id="House_Construction">
</g>
<g id="Building_Construction">
</g>
<g id="Work_Table">
</g>
<g id="Table_Cad">
</g>
<g id="House_Plan">
</g>
<g id="Tape_Measure">
</g>
<g id="Cad_Paper">
</g>
<g id="Cad_Papers">
	<g>
		<g>
			<g>
				<path d="M8.497,24c-0.005,0-0.01,0-0.016,0c-1.962-0.006-3.497-1.108-3.493-2.509L5,4.498c0-0.002,0-0.005,0-0.007
					c0.001-0.276,0.225-0.499,0.5-0.499h0.001C5.776,3.992,6,4.217,6,4.492v0.001c0,0.001,0,0.001,0,0.002v0.001
					C6,5.205,6.873,5.82,7.996,5.967l0.003-1.01C7.105,4.801,6.499,4.234,6.5,3.499c0.001-0.353,0.14-0.677,0.401-0.938
					C7.266,2.199,7.825,2,8.479,2C8.482,2,8.486,2,8.49,2c1.979,0.007,3.514,1.109,3.51,2.51c0,0,0,0,0,0.001l-0.012,16.998
					c-0.002,0.708-0.395,1.357-1.106,1.828C10.236,23.765,9.39,24,8.497,24z M5.999,6.261L5.988,21.492
					C5.986,22.306,7.13,22.996,8.485,23c0.004,0,0.008,0,0.012,0c0.699,0,1.35-0.176,1.833-0.496
					c0.245-0.163,0.657-0.509,0.658-0.996l0.011-15.243c-0.034,0.024-0.069,0.049-0.104,0.072C10.249,6.765,9.402,7,8.509,7
					c-0.005,0-0.01,0-0.016,0C7.507,6.997,6.628,6.717,5.999,6.261z M8.49,3.001c-0.391,0-0.714,0.101-0.884,0.269
					C7.535,3.342,7.5,3.417,7.5,3.501C7.5,3.774,7.949,3.998,8.502,4C8.777,4.001,9.001,4.226,9,4.501l-0.004,1.47
					c0.511-0.063,0.977-0.223,1.346-0.467C10.587,5.341,10.999,4.995,11,4.508c0.002-0.813-1.142-1.503-2.497-1.507
					C8.499,3.001,8.495,3.001,8.49,3.001z"/>
			</g>
			<g>
				<path d="M7,6.729c-0.276,0-0.5-0.224-0.5-0.5V3.5C6.5,3.224,6.724,3,7,3s0.5,0.224,0.5,0.5v2.729C7.5,6.506,7.276,6.729,7,6.729
					z"/>
			</g>
		</g>
		<g>
			<g>
				<path d="M14.497,22c-0.005,0-0.01,0-0.016,0c-1.962-0.006-3.497-1.108-3.493-2.509L11,2.498c0-0.002,0-0.005,0-0.007
					c0.001-0.276,0.225-0.499,0.5-0.499h0.001c0.275,0,0.499,0.225,0.499,0.5v0.001c0,0.001,0,0.001,0,0.002v0.001
					c0,0.709,0.873,1.324,1.996,1.471l0.003-1.01c-0.894-0.156-1.5-0.723-1.499-1.458c0.001-0.353,0.14-0.677,0.401-0.938
					C13.266,0.199,13.825,0,14.479,0c0.003,0,0.007,0,0.011,0c1.979,0.007,3.514,1.109,3.51,2.51c0,0,0,0,0,0.001l-0.012,16.998
					c-0.002,0.708-0.395,1.357-1.106,1.828C16.236,21.765,15.39,22,14.497,22z M11.999,4.261l-0.011,15.231
					c-0.002,0.813,1.142,1.504,2.497,1.508c0.728,0.014,1.358-0.174,1.845-0.496c0.245-0.163,0.657-0.509,0.658-0.996l0.011-15.243
					c-0.034,0.024-0.069,0.049-0.104,0.072C16.249,4.765,15.402,5,14.509,5c-0.005,0-0.01,0-0.016,0
					C13.507,4.997,12.628,4.717,11.999,4.261z M14.49,1.001c-0.391,0-0.714,0.101-0.884,0.269C13.535,1.342,13.5,1.417,13.5,1.501
					c0,0.273,0.449,0.497,1.002,0.499C14.777,2.001,15.001,2.226,15,2.501l-0.004,1.47c0.511-0.063,0.977-0.223,1.346-0.467
					C16.587,3.341,16.999,2.995,17,2.508c0.002-0.813-1.142-1.503-2.497-1.507C14.499,1.001,14.495,1.001,14.49,1.001z"/>
			</g>
			<g>
				<path d="M13,4.729c-0.276,0-0.5-0.224-0.5-0.5V1.5C12.5,1.224,12.724,1,13,1s0.5,0.224,0.5,0.5v2.729
					C13.5,4.506,13.276,4.729,13,4.729z"/>
			</g>
		</g>
	</g>
</g>
<g id="Stairs">
</g>
<g id="Pillar">
</g>
<g id="Bricks">
</g>
<g id="Pantheon">
</g>
<g id="House">
</g>
<g id="Skyscraper_1_">
</g>
<g id="Building">
</g>
</svg>
