<?xml version="1.0" encoding="iso-8859-1"?>
<!-- Generator: Adobe Illustrator 19.2.1, SVG Export Plug-In . SVG Version: 6.00 Build 0)  -->
<svg version="1.1" xmlns="http://www.w3.org/2000/svg" xmlns:xlink="http://www.w3.org/1999/xlink" x="0px" y="0px"
	 viewBox="0 0 24 24" style="enable-background:new 0 0 24 24;" xml:space="preserve">
<g id="Cad_1">
</g>
<g id="Cad_2">
	<g>
		<g>
			<path d="M11.5,15c-0.276,0-0.5-0.224-0.5-0.5v-14C11,0.224,11.224,0,11.5,0S12,0.224,12,0.5v14C12,14.776,11.776,15,11.5,15z"/>
		</g>
		<g>
			<path d="M22.5,11h-4c-0.276,0-0.5-0.224-0.5-0.5s0.224-0.5,0.5-0.5h4c0.276,0,0.5,0.224,0.5,0.5S22.776,11,22.5,11z"/>
		</g>
		<g>
			<path d="M14.5,11h-6C8.224,11,8,10.776,8,10.5S8.224,10,8.5,10h6c0.276,0,0.5,0.224,0.5,0.5S14.776,11,14.5,11z"/>
		</g>
		<g>
			<path d="M4.5,11h-4C0.224,11,0,10.776,0,10.5S0.224,10,0.5,10h4C4.776,10,5,10.224,5,10.5S4.776,11,4.5,11z"/>
		</g>
		<g>
			<path d="M11.5,23c-0.276,0-0.5-0.224-0.5-0.5v-4c0-0.276,0.224-0.5,0.5-0.5s0.5,0.224,0.5,0.5v4C12,22.776,11.776,23,11.5,23z"/>
		</g>
		<g>
			<path d="M22.5,23h-22C0.224,23,0,22.776,0,22.5v-4C0,18.224,0.224,18,0.5,18h1C1.776,18,2,18.224,2,18.5S1.776,19,1.5,19H1v3h21
				V1H1v13l0.5,0C1.776,14,2,14.224,2,14.5C2,14.776,1.776,15,1.5,15l0,0l-1,0C0.224,15,0,14.775,0,14.5v-14C0,0.224,0.224,0,0.5,0
				h22C22.776,0,23,0.224,23,0.5v22C23,22.776,22.776,23,22.5,23z"/>
		</g>
		<g>
			<path d="M12.5,15h-2c-0.276,0-0.5-0.224-0.5-0.5s0.224-0.5,0.5-0.5h2c0.276,0,0.5,0.224,0.5,0.5S12.776,15,12.5,15z"/>
		</g>
		<g>
			<path d="M12.5,19h-2c-0.276,0-0.5-0.224-0.5-0.5s0.224-0.5,0.5-0.5h2c0.276,0,0.5,0.224,0.5,0.5S12.776,19,12.5,19z"/>
		</g>
		<g>
			<path d="M4.5,12C4.224,12,4,11.776,4,11.5v-2C4,9.224,4.224,9,4.5,9S5,9.224,5,9.5v2C5,11.776,4.776,12,4.5,12z"/>
		</g>
		<g>
			<path d="M8.5,12C8.224,12,8,11.776,8,11.5v-2C8,9.224,8.224,9,8.5,9S9,9.224,9,9.5v2C9,11.776,8.776,12,8.5,12z"/>
		</g>
		<g>
			<path d="M14.5,12c-0.276,0-0.5-0.224-0.5-0.5v-2C14,9.224,14.224,9,14.5,9S15,9.224,15,9.5v2C15,11.776,14.776,12,14.5,12z"/>
		</g>
		<g>
			<path d="M18.5,12c-0.276,0-0.5-0.224-0.5-0.5v-2C18,9.224,18.224,9,18.5,9S19,9.224,19,9.5v2C19,11.776,18.776,12,18.5,12z"/>
		</g>
	</g>
</g>
<g id="Cad_Pencil">
</g>
<g id="Cad_Compasses">
</g>
<g id="Tools_1">
</g>
<g id="Tools_2">
</g>
<g id="Ruler_1">
</g>
<g id="Ruler_2">
</g>
<g id="Workspace_1">
</g>
<g id="Workspace_2">
</g>
<g id="Cad_3">
</g>
<g id="_x33_D_Box">
</g>
<g id="Section_Symbol_1_">
</g>
<g id="Outlet_Symbol_1_">
</g>
<g id="Cad_File">
</g>
<g id="Blueprint">
</g>
<g id="Construction_Plan">
</g>
<g id="Roof_Plan">
</g>
<g id="House_Construction">
</g>
<g id="Building_Construction">
</g>
<g id="Work_Table">
</g>
<g id="Table_Cad">
</g>
<g id="House_Plan">
</g>
<g id="Tape_Measure">
</g>
<g id="Cad_Paper">
</g>
<g id="Cad_Papers">
</g>
<g id="Stairs">
</g>
<g id="Pillar">
</g>
<g id="Bricks">
</g>
<g id="Pantheon">
</g>
<g id="House">
</g>
<g id="Skyscraper_1_">
</g>
<g id="Building">
</g>
</svg>
