<?xml version="1.0" encoding="iso-8859-1"?>
<!-- Generator: Adobe Illustrator 19.2.1, SVG Export Plug-In . SVG Version: 6.00 Build 0)  -->
<svg version="1.1" xmlns="http://www.w3.org/2000/svg" xmlns:xlink="http://www.w3.org/1999/xlink" x="0px" y="0px"
	 viewBox="0 0 24 24" style="enable-background:new 0 0 24 24;" xml:space="preserve">
<g id="Cad_1">
</g>
<g id="Cad_2">
</g>
<g id="Cad_Pencil">
</g>
<g id="Cad_Compasses">
</g>
<g id="Tools_1">
</g>
<g id="Tools_2">
</g>
<g id="Ruler_1">
</g>
<g id="Ruler_2">
</g>
<g id="Workspace_1">
</g>
<g id="Workspace_2">
</g>
<g id="Cad_3">
</g>
<g id="_x33_D_Box">
</g>
<g id="Section_Symbol_1_">
</g>
<g id="Outlet_Symbol_1_">
</g>
<g id="Cad_File">
</g>
<g id="Blueprint">
</g>
<g id="Construction_Plan">
</g>
<g id="Roof_Plan">
</g>
<g id="House_Construction">
</g>
<g id="Building_Construction">
</g>
<g id="Work_Table">
</g>
<g id="Table_Cad">
</g>
<g id="House_Plan">
</g>
<g id="Tape_Measure">
</g>
<g id="Cad_Paper">
	<g>
		<g>
			<path d="M3.909,23.994c-0.201,0-0.413-0.026-0.632-0.078c-0.701-0.165-1.417-0.586-2.016-1.185
				c-1.319-1.319-1.654-3.052-0.763-3.944L18.791,0.156c0.193-0.197,0.51-0.2,0.707-0.006c0.197,0.193,0.2,0.51,0.007,0.707
				L1.209,19.491c-0.421,0.421-0.211,1.563,0.759,2.533c0.462,0.463,1.023,0.798,1.538,0.919c0.253,0.058,0.718,0.118,0.993-0.156
				L22.791,4.156c0.194-0.197,0.51-0.2,0.707-0.006c0.197,0.193,0.2,0.51,0.007,0.707L5.209,23.491
				C4.877,23.823,4.428,23.994,3.909,23.994z"/>
		</g>
		<g>
			<path d="M22.199,5.359c-0.839,0-1.821-0.44-2.643-1.262c-1.32-1.319-1.654-3.052-0.762-3.944c0.195-0.195,0.512-0.195,0.707,0
				s0.195,0.512,0,0.707c-0.274,0.274-0.216,0.74-0.156,0.993c0.089,0.377,0.292,0.779,0.578,1.149l0.476-0.477
				c-0.262-0.376-0.41-0.791-0.41-1.172c0-0.34,0.115-0.634,0.332-0.851c0.296-0.297,0.748-0.401,1.235-0.285
				c0.411,0.097,0.827,0.34,1.172,0.686c1.33,1.331,1.666,3.063,0.773,3.956C23.165,5.197,22.708,5.359,22.199,5.359z M20.626,3.713
				c0.877,0.691,1.8,0.808,2.168,0.44c0.418-0.418,0.208-1.561-0.763-2.53c-0.224-0.225-0.477-0.377-0.705-0.431
				c-0.155-0.039-0.263-0.017-0.299,0.019c-0.035,0.035-0.039,0.112-0.039,0.145c0,0.188,0.115,0.524,0.439,0.849
				c0.094,0.094,0.146,0.221,0.146,0.354s-0.053,0.26-0.146,0.354L20.626,3.713z"/>
		</g>
		<g>
			<path d="M19.047,2.984c-0.128,0-0.256-0.049-0.354-0.146c-0.195-0.195-0.195-0.512,0-0.707l1.627-1.627
				c0.195-0.195,0.512-0.195,0.707,0s0.195,0.512,0,0.707L19.4,2.838C19.303,2.936,19.175,2.984,19.047,2.984z"/>
		</g>
	</g>
</g>
<g id="Cad_Papers">
</g>
<g id="Stairs">
</g>
<g id="Pillar">
</g>
<g id="Bricks">
</g>
<g id="Pantheon">
</g>
<g id="House">
</g>
<g id="Skyscraper_1_">
</g>
<g id="Building">
</g>
</svg>
