<?xml version="1.0" encoding="iso-8859-1"?>
<!-- Generator: Adobe Illustrator 19.2.1, SVG Export Plug-In . SVG Version: 6.00 Build 0)  -->
<svg version="1.1" xmlns="http://www.w3.org/2000/svg" xmlns:xlink="http://www.w3.org/1999/xlink" x="0px" y="0px"
	 viewBox="0 0 24 24" style="enable-background:new 0 0 24 24;" xml:space="preserve">
<g id="Cad_1">
	<g>
		<g>
			<path d="M11.5,15c-0.276,0-0.5-0.224-0.5-0.5v-14C11,0.224,11.224,0,11.5,0S12,0.224,12,0.5v14C12,14.776,11.776,15,11.5,15z"/>
		</g>
		<g>
			<path d="M22.5,11h-4c-0.276,0-0.5-0.224-0.5-0.5s0.224-0.5,0.5-0.5h4c0.276,0,0.5,0.224,0.5,0.5S22.776,11,22.5,11z"/>
		</g>
		<g>
			<path d="M14.5,11h-6C8.224,11,8,10.776,8,10.5S8.224,10,8.5,10h6c0.276,0,0.5,0.224,0.5,0.5S14.776,11,14.5,11z"/>
		</g>
		<g>
			<path d="M4.5,11h-4C0.224,11,0,10.776,0,10.5S0.224,10,0.5,10h4C4.776,10,5,10.224,5,10.5S4.776,11,4.5,11z"/>
		</g>
		<g>
			<path d="M11.5,23c-0.276,0-0.5-0.224-0.5-0.5v-4c0-0.276,0.224-0.5,0.5-0.5s0.5,0.224,0.5,0.5v4C12,22.776,11.776,23,11.5,23z"/>
		</g>
		<g>
			<path d="M22.5,23h-22C0.224,23,0,22.776,0,22.5v-4C0,18.224,0.224,18,0.5,18S1,18.224,1,18.5V22h21V1H1v13.5
				C1,14.776,0.776,15,0.5,15S0,14.776,0,14.5v-14C0,0.224,0.224,0,0.5,0h22C22.776,0,23,0.224,23,0.5v22
				C23,22.776,22.776,23,22.5,23z"/>
		</g>
		<g>
			<g>
				<path d="M1.492,15.124c-0.041,0-0.083-0.005-0.124-0.016C1.086,15.036,0.794,15,0.5,15C0.224,15,0,14.776,0,14.5
					S0.224,14,0.5,14c0.377,0,0.752,0.047,1.114,0.139c0.268,0.068,0.43,0.34,0.361,0.607C1.918,14.973,1.715,15.124,1.492,15.124z"
					/>
			</g>
			<g>
				<path d="M3.784,16.715c-0.158,0-0.313-0.075-0.411-0.214c-0.239-0.344-0.535-0.639-0.877-0.877
					c-0.227-0.158-0.283-0.469-0.125-0.696c0.157-0.228,0.469-0.283,0.696-0.125c0.441,0.306,0.82,0.685,1.127,1.126
					c0.158,0.227,0.103,0.539-0.124,0.696C3.982,16.686,3.883,16.715,3.784,16.715z"/>
			</g>
			<g>
				<path d="M4.5,19C4.224,19,4,18.776,4,18.5c0-0.294-0.036-0.586-0.108-0.868c-0.068-0.268,0.094-0.54,0.361-0.607
					c0.263-0.068,0.54,0.093,0.607,0.361C4.953,17.748,5,18.123,5,18.5C5,18.776,4.776,19,4.5,19z"/>
			</g>
		</g>
		<g>
			<g>
				<path d="M14.5,11c-0.276,0-0.5-0.224-0.5-0.5c0-0.377,0.047-0.752,0.139-1.114c0.067-0.269,0.342-0.431,0.607-0.361
					c0.268,0.068,0.43,0.34,0.361,0.607C15.036,9.914,15,10.206,15,10.5C15,10.776,14.776,11,14.5,11z"/>
			</g>
			<g>
				<path d="M15.213,8.719c-0.099,0-0.198-0.029-0.285-0.089c-0.227-0.158-0.283-0.469-0.125-0.696
					c0.306-0.441,0.685-0.82,1.126-1.127c0.228-0.158,0.538-0.102,0.696,0.124c0.158,0.227,0.103,0.539-0.124,0.696
					c-0.344,0.239-0.639,0.535-0.877,0.877C15.527,8.644,15.372,8.719,15.213,8.719z"/>
			</g>
			<g>
				<path d="M17.508,7.124c-0.223,0-0.427-0.15-0.484-0.377c-0.068-0.268,0.094-0.54,0.361-0.607C17.748,6.047,18.123,6,18.5,6
					C18.776,6,19,6.224,19,6.5S18.776,7,18.5,7c-0.294,0-0.586,0.036-0.868,0.108C17.591,7.119,17.549,7.124,17.508,7.124z"/>
			</g>
		</g>
		<g>
			<g>
				<path d="M4.5,11C4.224,11,4,10.776,4,10.5c0-0.377,0.047-0.752,0.139-1.114c0.067-0.269,0.342-0.431,0.607-0.361
					c0.268,0.068,0.43,0.34,0.361,0.607C5.036,9.914,5,10.206,5,10.5C5,10.776,4.776,11,4.5,11z"/>
			</g>
			<g>
				<path d="M5.213,8.719c-0.099,0-0.198-0.029-0.285-0.089C4.702,8.472,4.646,8.16,4.803,7.934c0.306-0.441,0.685-0.82,1.126-1.127
					C6.157,6.648,6.468,6.704,6.625,6.93c0.158,0.227,0.103,0.539-0.124,0.696C6.158,7.866,5.863,8.161,5.625,8.504
					C5.527,8.644,5.372,8.719,5.213,8.719z"/>
			</g>
			<g>
				<path d="M7.508,7.124c-0.223,0-0.427-0.15-0.484-0.377c-0.068-0.268,0.094-0.54,0.361-0.607C7.748,6.047,8.123,6,8.5,6
					C8.776,6,9,6.224,9,6.5S8.776,7,8.5,7C8.206,7,7.914,7.036,7.632,7.108C7.591,7.119,7.549,7.124,7.508,7.124z"/>
			</g>
		</g>
		<g>
			<path d="M18.5,11c-0.276,0-0.5-0.224-0.5-0.5v-4C18,6.224,18.224,6,18.5,6S19,6.224,19,6.5v4C19,10.776,18.776,11,18.5,11z"/>
		</g>
		<g>
			<path d="M8.5,11C8.224,11,8,10.776,8,10.5v-4C8,6.224,8.224,6,8.5,6S9,6.224,9,6.5v4C9,10.776,8.776,11,8.5,11z"/>
		</g>
		<g>
			<path d="M4.5,19h-4C0.224,19,0,18.776,0,18.5S0.224,18,0.5,18h4C4.776,18,5,18.224,5,18.5S4.776,19,4.5,19z"/>
		</g>
	</g>
</g>
<g id="Cad_2">
</g>
<g id="Cad_Pencil">
</g>
<g id="Cad_Compasses">
</g>
<g id="Tools_1">
</g>
<g id="Tools_2">
</g>
<g id="Ruler_1">
</g>
<g id="Ruler_2">
</g>
<g id="Workspace_1">
</g>
<g id="Workspace_2">
</g>
<g id="Cad_3">
</g>
<g id="_x33_D_Box">
</g>
<g id="Section_Symbol_1_">
</g>
<g id="Outlet_Symbol_1_">
</g>
<g id="Cad_File">
</g>
<g id="Blueprint">
</g>
<g id="Construction_Plan">
</g>
<g id="Roof_Plan">
</g>
<g id="House_Construction">
</g>
<g id="Building_Construction">
</g>
<g id="Work_Table">
</g>
<g id="Table_Cad">
</g>
<g id="House_Plan">
</g>
<g id="Tape_Measure">
</g>
<g id="Cad_Paper">
</g>
<g id="Cad_Papers">
</g>
<g id="Stairs">
</g>
<g id="Pillar">
</g>
<g id="Bricks">
</g>
<g id="Pantheon">
</g>
<g id="House">
</g>
<g id="Skyscraper_1_">
</g>
<g id="Building">
</g>
</svg>
