<?xml version="1.0" encoding="iso-8859-1"?>
<!-- Generator: Adobe Illustrator 19.2.1, SVG Export Plug-In . SVG Version: 6.00 Build 0)  -->
<svg version="1.1" xmlns="http://www.w3.org/2000/svg" xmlns:xlink="http://www.w3.org/1999/xlink" x="0px" y="0px"
	 viewBox="0 0 24 24" style="enable-background:new 0 0 24 24;" xml:space="preserve">
<g id="Cad_1">
</g>
<g id="Cad_2">
</g>
<g id="Cad_Pencil">
</g>
<g id="Cad_Compasses">
	<g>
		<g>
			<path d="M7.5,17C7.224,17,7,16.776,7,16.5v-7C7,9.224,7.224,9,7.5,9S8,9.224,8,9.5v7C8,16.776,7.776,17,7.5,17z"/>
		</g>
		<g>
			<path d="M2.5,17h-2C0.224,17,0,16.776,0,16.5S0.224,16,0.5,16h2C2.776,16,3,16.224,3,16.5S2.776,17,2.5,17z"/>
		</g>
		<g>
			<path d="M9.5,17h-4C5.224,17,5,16.776,5,16.5S5.224,16,5.5,16h4c0.276,0,0.5,0.224,0.5,0.5S9.776,17,9.5,17z"/>
		</g>
		<g>
			<path d="M14.5,17h-2c-0.276,0-0.5-0.224-0.5-0.5s0.224-0.5,0.5-0.5h2c0.276,0,0.5,0.224,0.5,0.5S14.776,17,14.5,17z"/>
		</g>
		<g>
			<path d="M7.5,24C7.224,24,7,23.776,7,23.5v-2C7,21.224,7.224,21,7.5,21S8,21.224,8,21.5v2C8,23.776,7.776,24,7.5,24z"/>
		</g>
		<g>
			<path d="M7.5,19C7.224,19,7,18.776,7,18.5v-2C7,16.224,7.224,16,7.5,16S8,16.224,8,16.5v2C8,18.776,7.776,19,7.5,19z"/>
		</g>
		<g>
			<path d="M16.5,7C15.122,7,14,5.878,14,4.5S15.122,2,16.5,2S19,3.122,19,4.5S17.878,7,16.5,7z M16.5,3C15.673,3,15,3.673,15,4.5
				S15.673,6,16.5,6S18,5.327,18,4.5S17.327,3,16.5,3z"/>
		</g>
		<g>
			<path d="M14.5,24h-14C0.224,24,0,23.776,0,23.5v-2C0,21.223,0.224,21,0.5,21S1,21.223,1,21.5V23h13V12.5
				c0-0.276,0.224-0.5,0.5-0.5s0.5,0.224,0.5,0.5v11C15,23.776,14.776,24,14.5,24z"/>
		</g>
		<g>
			<path d="M0.5,19C0.224,19,0,18.776,0,18.5v-9C0,9.224,0.224,9,0.5,9h9.411c0.276,0,0.5,0.224,0.5,0.5s-0.224,0.5-0.5,0.5H1v8.5
				C1,18.776,0.776,19,0.5,19z"/>
		</g>
		<g>
			<path d="M22.5,15c-0.154,0-0.304-0.072-0.4-0.2l-5.6-7.466L10.9,14.8c-0.128,0.172-0.352,0.244-0.558,0.174
				C10.138,14.906,10,14.715,10,14.5v-2c0-0.087,0.023-0.172,0.066-0.248l4-7c0.136-0.24,0.441-0.325,0.682-0.186
				c0.24,0.137,0.323,0.442,0.186,0.682L11,12.633V13l5.1-6.8c0.188-0.252,0.611-0.252,0.8,0L22,13v-0.367l-3.934-6.885
				c-0.137-0.24-0.054-0.545,0.186-0.682c0.239-0.139,0.544-0.054,0.682,0.186l4,7C22.977,12.328,23,12.413,23,12.5v2
				c0,0.215-0.138,0.406-0.342,0.474C22.606,14.992,22.553,15,22.5,15z"/>
		</g>
		<g>
			<path d="M16.5,3C16.224,3,16,2.776,16,2.5v-2C16,0.224,16.224,0,16.5,0S17,0.224,17,0.5v2C17,2.776,16.776,3,16.5,3z"/>
		</g>
	</g>
</g>
<g id="Tools_1">
</g>
<g id="Tools_2">
</g>
<g id="Ruler_1">
</g>
<g id="Ruler_2">
</g>
<g id="Workspace_1">
</g>
<g id="Workspace_2">
</g>
<g id="Cad_3">
</g>
<g id="_x33_D_Box">
</g>
<g id="Section_Symbol_1_">
</g>
<g id="Outlet_Symbol_1_">
</g>
<g id="Cad_File">
</g>
<g id="Blueprint">
</g>
<g id="Construction_Plan">
</g>
<g id="Roof_Plan">
</g>
<g id="House_Construction">
</g>
<g id="Building_Construction">
</g>
<g id="Work_Table">
</g>
<g id="Table_Cad">
</g>
<g id="House_Plan">
</g>
<g id="Tape_Measure">
</g>
<g id="Cad_Paper">
</g>
<g id="Cad_Papers">
</g>
<g id="Stairs">
</g>
<g id="Pillar">
</g>
<g id="Bricks">
</g>
<g id="Pantheon">
</g>
<g id="House">
</g>
<g id="Skyscraper_1_">
</g>
<g id="Building">
</g>
</svg>
