<?xml version="1.0" encoding="iso-8859-1"?>
<!-- Generator: Adobe Illustrator 19.2.1, SVG Export Plug-In . SVG Version: 6.00 Build 0)  -->
<svg version="1.1" xmlns="http://www.w3.org/2000/svg" xmlns:xlink="http://www.w3.org/1999/xlink" x="0px" y="0px"
	 viewBox="0 0 24 24" style="enable-background:new 0 0 24 24;" xml:space="preserve">
<g id="Cad_1">
</g>
<g id="Cad_2">
</g>
<g id="Cad_Pencil">
	<g>
		<g>
			<path d="M14.499,24.001h-14c-0.276,0-0.5-0.224-0.5-0.5v-2c0-0.276,0.224-0.5,0.5-0.5s0.5,0.224,0.5,0.5v1.5h13v-8.438
				c0-0.276,0.224-0.5,0.5-0.5s0.5,0.224,0.5,0.5v8.938C14.999,23.777,14.775,24.001,14.499,24.001z"/>
		</g>
		<g>
			<path d="M0.499,19.001c-0.276,0-0.5-0.224-0.5-0.5v-9c0-0.276,0.224-0.5,0.5-0.5h8.938c0.276,0,0.5,0.224,0.5,0.5
				s-0.224,0.5-0.5,0.5H0.999v8.5C0.999,18.777,0.775,19.001,0.499,19.001z"/>
		</g>
		<g>
			<path d="M10.499,14.001c-0.131,0-0.259-0.052-0.354-0.146c-0.124-0.124-0.174-0.304-0.131-0.475l0.933-3.731
				c0.066-0.264,0.202-0.505,0.395-0.697l8.513-8.513c0.584-0.584,1.536-0.585,2.121,0c0,0,0,0,0,0l1.586,1.586
				c0.584,0.585,0.584,1.537,0,2.121l-8.513,8.513c-0.192,0.192-0.433,0.329-0.697,0.395l-3.731,0.933
				C10.58,13.996,10.54,14.001,10.499,14.001z M20.915,1c-0.128,0-0.256,0.049-0.354,0.146l-8.513,8.513
				c-0.064,0.064-0.11,0.145-0.132,0.232l-0.731,2.923l2.923-0.731c0.088-0.022,0.168-0.068,0.232-0.132l8.513-8.513
				c0.195-0.195,0.195-0.512,0-0.707l-1.585-1.585C21.171,1.048,21.043,1,20.915,1z"/>
		</g>
		<g>
			<path d="M14.472,12.973c-0.128,0-0.256-0.049-0.354-0.146l-2.945-2.944c-0.195-0.195-0.195-0.512,0-0.707s0.512-0.195,0.707,0
				l2.945,2.944c0.195,0.195,0.195,0.512,0,0.707C14.728,12.924,14.6,12.973,14.472,12.973z"/>
		</g>
		<g>
			<path d="M7.499,17.001c-0.276,0-0.5-0.224-0.5-0.5v-7c0-0.276,0.224-0.5,0.5-0.5s0.5,0.224,0.5,0.5v7
				C7.999,16.777,7.775,17.001,7.499,17.001z"/>
		</g>
		<g>
			<path d="M2.499,17.001h-2c-0.276,0-0.5-0.224-0.5-0.5s0.224-0.5,0.5-0.5h2c0.276,0,0.5,0.224,0.5,0.5S2.775,17.001,2.499,17.001z
				"/>
		</g>
		<g>
			<path d="M9.499,17.001h-4c-0.276,0-0.5-0.224-0.5-0.5s0.224-0.5,0.5-0.5h4c0.276,0,0.5,0.224,0.5,0.5S9.775,17.001,9.499,17.001z
				"/>
		</g>
		<g>
			<path d="M14.499,17.001h-2c-0.276,0-0.5-0.224-0.5-0.5s0.224-0.5,0.5-0.5h2c0.276,0,0.5,0.224,0.5,0.5
				S14.775,17.001,14.499,17.001z"/>
		</g>
		<g>
			<path d="M7.499,24.001c-0.276,0-0.5-0.224-0.5-0.5v-2c0-0.276,0.224-0.5,0.5-0.5s0.5,0.224,0.5,0.5v2
				C7.999,23.777,7.775,24.001,7.499,24.001z"/>
		</g>
		<g>
			<path d="M7.499,19.001c-0.276,0-0.5-0.224-0.5-0.5v-2c0-0.276,0.224-0.5,0.5-0.5s0.5,0.224,0.5,0.5v2
				C7.999,18.777,7.775,19.001,7.499,19.001z"/>
		</g>
	</g>
</g>
<g id="Cad_Compasses">
</g>
<g id="Tools_1">
</g>
<g id="Tools_2">
</g>
<g id="Ruler_1">
</g>
<g id="Ruler_2">
</g>
<g id="Workspace_1">
</g>
<g id="Workspace_2">
</g>
<g id="Cad_3">
</g>
<g id="_x33_D_Box">
</g>
<g id="Section_Symbol_1_">
</g>
<g id="Outlet_Symbol_1_">
</g>
<g id="Cad_File">
</g>
<g id="Blueprint">
</g>
<g id="Construction_Plan">
</g>
<g id="Roof_Plan">
</g>
<g id="House_Construction">
</g>
<g id="Building_Construction">
</g>
<g id="Work_Table">
</g>
<g id="Table_Cad">
</g>
<g id="House_Plan">
</g>
<g id="Tape_Measure">
</g>
<g id="Cad_Paper">
</g>
<g id="Cad_Papers">
</g>
<g id="Stairs">
</g>
<g id="Pillar">
</g>
<g id="Bricks">
</g>
<g id="Pantheon">
</g>
<g id="House">
</g>
<g id="Skyscraper_1_">
</g>
<g id="Building">
</g>
</svg>
