<?xml version="1.0" encoding="iso-8859-1"?>
<!-- Generator: Adobe Illustrator 19.2.1, SVG Export Plug-In . SVG Version: 6.00 Build 0)  -->
<svg version="1.1" xmlns="http://www.w3.org/2000/svg" xmlns:xlink="http://www.w3.org/1999/xlink" x="0px" y="0px"
	 viewBox="0 0 24 24" style="enable-background:new 0 0 24 24;" xml:space="preserve">
<g id="Cad_1">
</g>
<g id="Cad_2">
</g>
<g id="Cad_Pencil">
</g>
<g id="Cad_Compasses">
</g>
<g id="Tools_1">
</g>
<g id="Tools_2">
</g>
<g id="Ruler_1">
</g>
<g id="Ruler_2">
</g>
<g id="Workspace_1">
</g>
<g id="Workspace_2">
</g>
<g id="Cad_3">
</g>
<g id="_x33_D_Box">
</g>
<g id="Section_Symbol_1_">
</g>
<g id="Outlet_Symbol_1_">
</g>
<g id="Cad_File">
</g>
<g id="Blueprint">
</g>
<g id="Construction_Plan">
	<g>
		<g>
			<path d="M21.5,19h-14C7.224,19,7,18.776,7,18.5v-9C7,9.224,7.224,9,7.5,9S8,9.224,8,9.5V18h13V9.5C21,9.224,21.224,9,21.5,9
				S22,9.224,22,9.5v9C22,18.776,21.776,19,21.5,19z"/>
		</g>
		<g>
			<path d="M23.5,10h-18c-0.202,0-0.385-0.122-0.462-0.309S5.004,9.29,5.146,9.146l9-9c0.195-0.195,0.512-0.195,0.707,0l9,9
				c0.143,0.143,0.186,0.358,0.108,0.545S23.702,10,23.5,10z M6.707,9h15.586L14.5,1.207L6.707,9z"/>
		</g>
		<g>
			<path d="M20.5,24c-0.128,0-0.256-0.049-0.354-0.146c-0.195-0.195-0.195-0.512,0-0.707L20.293,23H8.707l0.146,0.146
				c0.195,0.195,0.195,0.512,0,0.707s-0.512,0.195-0.707,0l-0.997-0.997c-0.011-0.01-0.021-0.021-0.03-0.032v0l0,0
				c-0.065-0.077-0.104-0.169-0.115-0.264C7,22.53,6.999,22.501,7.001,22.472v0c0,0,0,0,0,0c0.007-0.117,0.055-0.231,0.143-0.321
				c0,0,0,0,0,0c0.001,0,0.001,0,0.001,0s0,0,0.001,0v0c0,0,0.001,0,0.001-0.001l1-1c0.195-0.195,0.512-0.195,0.707,0
				C8.951,21.244,9,21.372,9,21.5s-0.049,0.256-0.146,0.354L8.707,22h11.586l-0.146-0.146C20.049,21.756,20,21.628,20,21.5
				s0.049-0.256,0.146-0.354c0.195-0.195,0.512-0.195,0.707,0l1,1c0,0,0.001,0,0.001,0.001v0c0.001,0,0.001,0,0.001,0s0,0,0.001,0
				c0,0,0,0,0,0c0.088,0.09,0.136,0.205,0.143,0.321c0,0,0,0,0,0v0c0.002,0.029,0.001,0.059-0.003,0.088
				c-0.011,0.095-0.05,0.187-0.115,0.264l0,0v0c-0.01,0.011-0.02,0.022-0.03,0.032l-0.997,0.997C20.756,23.951,20.628,24,20.5,24z"
				/>
		</g>
		<g>
			<path d="M1.5,19c-0.02,0-0.04-0.001-0.06-0.003H1.439l0,0c-0.095-0.012-0.187-0.05-0.263-0.115l0,0c-0.001,0-0.001,0-0.001,0
				c-0.012-0.01-0.022-0.02-0.032-0.03l-0.997-0.997c-0.195-0.195-0.195-0.512,0-0.707s0.512-0.195,0.707,0L1,17.293v-5.586
				l-0.146,0.146c-0.195,0.195-0.512,0.195-0.707,0C0.049,11.756,0,11.628,0,11.5s0.049-0.256,0.146-0.354l1-1
				c0.09-0.09,0.206-0.139,0.324-0.146h0.001l0,0C1.5,10,1.529,10,1.56,10.003h0.001l0,0c0.095,0.012,0.187,0.05,0.263,0.115l0,0
				c0.001,0,0.001,0,0.001,0c0.012,0.01,0.022,0.02,0.032,0.03l0.997,0.997c0.195,0.195,0.195,0.512,0,0.707s-0.512,0.195-0.707,0
				L2,11.707v5.586l0.146-0.146c0.195-0.195,0.512-0.195,0.707,0C2.951,17.244,3,17.372,3,17.5s-0.049,0.256-0.146,0.354l-1,1
				c-0.09,0.09-0.206,0.139-0.324,0.146H1.528l0,0C1.519,19,1.51,19,1.5,19z"/>
		</g>
		<g>
			<path d="M1.5,10c-0.02,0-0.04-0.001-0.06-0.003H1.439l0,0c-0.095-0.012-0.187-0.05-0.263-0.115l0,0c-0.001,0-0.001,0-0.001,0
				c-0.012-0.01-0.022-0.02-0.032-0.03L0.146,8.854c-0.195-0.195-0.195-0.512,0-0.707s0.512-0.195,0.707,0L1,8.293V1.707
				L0.854,1.854c-0.195,0.195-0.512,0.195-0.707,0C0.049,1.756,0,1.628,0,1.5s0.049-0.256,0.146-0.354l1-1
				c0.09-0.09,0.206-0.139,0.324-0.146h0.001l0,0C1.5-0.001,1.529,0,1.56,0.003h0.001l0,0c0.095,0.012,0.187,0.05,0.263,0.115l0,0
				c0.001,0,0.001,0,0.001,0c0.012,0.01,0.022,0.02,0.032,0.03l0.997,0.997c0.195,0.195,0.195,0.512,0,0.707s-0.512,0.195-0.707,0
				L2,1.707v6.586l0.146-0.146c0.195-0.195,0.512-0.195,0.707,0C2.951,8.244,3,8.372,3,8.5S2.951,8.756,2.854,8.854l-1,1
				c-0.09,0.09-0.206,0.139-0.324,0.146H1.528l0,0C1.519,10,1.51,10,1.5,10z"/>
		</g>
		<g>
			<path d="M18.5,19h-3c-0.276,0-0.5-0.224-0.5-0.5v-5c0-0.276,0.224-0.5,0.5-0.5h3c0.276,0,0.5,0.224,0.5,0.5v5
				C19,18.776,18.776,19,18.5,19z M16,18h2v-4h-2V18z"/>
		</g>
		<g>
			<path d="M12.5,15h-2c-0.276,0-0.5-0.224-0.5-0.5v-2c0-0.276,0.224-0.5,0.5-0.5h2c0.276,0,0.5,0.224,0.5,0.5v2
				C13,14.776,12.776,15,12.5,15z M11,14h1v-1h-1V14z"/>
		</g>
	</g>
</g>
<g id="Roof_Plan">
</g>
<g id="House_Construction">
</g>
<g id="Building_Construction">
</g>
<g id="Work_Table">
</g>
<g id="Table_Cad">
</g>
<g id="House_Plan">
</g>
<g id="Tape_Measure">
</g>
<g id="Cad_Paper">
</g>
<g id="Cad_Papers">
</g>
<g id="Stairs">
</g>
<g id="Pillar">
</g>
<g id="Bricks">
</g>
<g id="Pantheon">
</g>
<g id="House">
</g>
<g id="Skyscraper_1_">
</g>
<g id="Building">
</g>
</svg>
