<?xml version="1.0" encoding="iso-8859-1"?>
<!-- Generator: Adobe Illustrator 19.2.1, SVG Export Plug-In . SVG Version: 6.00 Build 0)  -->
<svg version="1.1" xmlns="http://www.w3.org/2000/svg" xmlns:xlink="http://www.w3.org/1999/xlink" x="0px" y="0px"
	 viewBox="0 0 24 24" style="enable-background:new 0 0 24 24;" xml:space="preserve">
<g id="Cad_1">
</g>
<g id="Cad_2">
</g>
<g id="Cad_Pencil">
</g>
<g id="Cad_Compasses">
</g>
<g id="Tools_1">
</g>
<g id="Tools_2">
</g>
<g id="Ruler_1">
</g>
<g id="Ruler_2">
</g>
<g id="Workspace_1">
</g>
<g id="Workspace_2">
</g>
<g id="Cad_3">
</g>
<g id="_x33_D_Box">
</g>
<g id="Section_Symbol_1_">
</g>
<g id="Outlet_Symbol_1_">
</g>
<g id="Cad_File">
</g>
<g id="Blueprint">
</g>
<g id="Construction_Plan">
</g>
<g id="Roof_Plan">
</g>
<g id="House_Construction">
</g>
<g id="Building_Construction">
</g>
<g id="Work_Table">
</g>
<g id="Table_Cad">
</g>
<g id="House_Plan">
	<g>
		<g>
			<g>
				<path d="M21.5,11c-0.276,0-0.5-0.224-0.5-0.5v-1C21,9.224,21.224,9,21.5,9S22,9.224,22,9.5v1C22,10.776,21.776,11,21.5,11z"/>
			</g>
			<g>
				<path d="M21.5,14.334c-0.276,0-0.5-0.224-0.5-0.5v-1.667c0-0.276,0.224-0.5,0.5-0.5s0.5,0.224,0.5,0.5v1.667
					C22,14.11,21.776,14.334,21.5,14.334z"/>
			</g>
			<g>
				<path d="M21.5,17h-1c-0.276,0-0.5-0.224-0.5-0.5s0.224-0.5,0.5-0.5H21v-0.5c0-0.276,0.224-0.5,0.5-0.5s0.5,0.224,0.5,0.5v1
					C22,16.776,21.776,17,21.5,17z"/>
			</g>
			<g>
				<path d="M18.333,17h-2.167c-0.276,0-0.5-0.224-0.5-0.5s0.224-0.5,0.5-0.5h2.167c0.276,0,0.5,0.224,0.5,0.5S18.61,17,18.333,17z"
					/>
			</g>
			<g>
				<path d="M14,17h-1c-0.276,0-0.5-0.224-0.5-0.5S12.724,16,13,16h1c0.276,0,0.5,0.224,0.5,0.5S14.276,17,14,17z"/>
			</g>
		</g>
		<g>
			<g>
				<path d="M16.684,1.729c-0.133,0-0.266-0.053-0.365-0.158L16,1.23l-0.319,0.341c-0.19,0.202-0.506,0.212-0.707,0.022
					c-0.202-0.188-0.212-0.505-0.023-0.706l0.684-0.729c0.189-0.201,0.54-0.201,0.729,0l0.684,0.729
					c0.189,0.201,0.179,0.518-0.023,0.706C16.93,1.685,16.807,1.729,16.684,1.729z"/>
			</g>
			<g>
				<path d="M21.59,6.963c-0.133,0-0.267-0.053-0.365-0.158l-1.227-1.309c-0.189-0.201-0.179-0.518,0.023-0.707
					c0.201-0.188,0.519-0.178,0.707,0.023l1.227,1.309c0.189,0.201,0.179,0.518-0.023,0.707C21.835,6.918,21.712,6.963,21.59,6.963z
					 M19.137,4.347c-0.133,0-0.267-0.053-0.365-0.158L17.545,2.88c-0.189-0.201-0.179-0.518,0.023-0.707
					c0.202-0.187,0.519-0.179,0.707,0.023l1.227,1.309c0.189,0.201,0.179,0.518-0.023,0.707C19.382,4.302,19.259,4.347,19.137,4.347
					z"/>
			</g>
			<g>
				<path d="M23.5,9h-1C22.224,9,22,8.776,22,8.5c0-0.234,0.162-0.432,0.379-0.485c-0.11-0.196-0.077-0.448,0.095-0.608
					c0.201-0.188,0.518-0.18,0.707,0.022l0.684,0.729c0.136,0.146,0.173,0.357,0.094,0.541C23.879,8.882,23.699,9,23.5,9z"/>
			</g>
			<g>
				<path d="M20.643,9h-1.857c-0.276,0-0.5-0.224-0.5-0.5S18.51,8,18.786,8h1.857c0.276,0,0.5,0.224,0.5,0.5S20.919,9,20.643,9z
					 M16.929,9h-1.857c-0.276,0-0.5-0.224-0.5-0.5s0.224-0.5,0.5-0.5h1.857c0.276,0,0.5,0.224,0.5,0.5S17.205,9,16.929,9z M13.214,9
					h-1.857c-0.276,0-0.5-0.224-0.5-0.5s0.224-0.5,0.5-0.5h1.857c0.276,0,0.5,0.224,0.5,0.5S13.491,9,13.214,9z"/>
			</g>
			<g>
				<path d="M9.5,9h-1C8.301,9,8.121,8.882,8.041,8.699C7.962,8.516,7.999,8.304,8.135,8.158l0.684-0.729
					c0.189-0.203,0.505-0.212,0.707-0.022c0.171,0.16,0.205,0.412,0.095,0.608C9.838,8.068,10,8.266,10,8.5C10,8.776,9.776,9,9.5,9z
					"/>
			</g>
			<g>
				<path d="M10.41,6.962c-0.123,0-0.246-0.045-0.342-0.135C9.867,6.638,9.856,6.321,10.045,6.12l1.227-1.309
					c0.188-0.203,0.505-0.212,0.707-0.023c0.202,0.189,0.212,0.506,0.023,0.707l-1.227,1.309C10.677,6.909,10.543,6.962,10.41,6.962
					z M12.863,4.346c-0.123,0-0.246-0.045-0.342-0.135c-0.202-0.189-0.212-0.506-0.023-0.707l1.227-1.309
					c0.188-0.203,0.506-0.211,0.707-0.023c0.202,0.189,0.212,0.506,0.023,0.707l-1.227,1.309C13.13,4.293,12.997,4.346,12.863,4.346
					z"/>
			</g>
		</g>
		<g>
			<path d="M2,24c-0.049,0-0.099-0.007-0.146-0.021c-0.131-0.041-0.24-0.133-0.301-0.255l-1.5-3
				c-0.119-0.238-0.03-0.528,0.202-0.659l7.677-4.318c0.312-0.176,0.677-0.233,1.029-0.164l2.137,0.428
				c0.146,0.029,0.271,0.121,0.341,0.252c0.071,0.131,0.08,0.286,0.025,0.424l-0.869,2.173c-0.125,0.315-0.359,0.582-0.656,0.75
				l-7.694,4.327C2.169,23.979,2.085,24,2,24z M1.16,20.702l1.052,2.104l7.235-4.069c0.099-0.057,0.177-0.145,0.219-0.25
				l0.646-1.615l-1.547-0.31c-0.118-0.024-0.239-0.004-0.342,0.055L1.16,20.702z"/>
		</g>
		<g>
			<path d="M9.758,19.644c-0.184,0-0.36-0.102-0.448-0.276l-1.5-3c-0.124-0.247-0.023-0.547,0.224-0.671
				c0.247-0.125,0.547-0.022,0.671,0.224l1.5,3c0.124,0.247,0.023,0.547-0.224,0.671C9.909,19.627,9.833,19.644,9.758,19.644z"/>
		</g>
		<g>
			<g>
				<path d="M0.5,18.705c-0.276,0-0.5-0.224-0.5-0.5V0.5C0,0.224,0.224,0,0.5,0h4C4.776,0,5,0.224,5,0.5v15.455
					c0,0.276-0.224,0.5-0.5,0.5S4,16.231,4,15.955V1H1v17.205C1,18.481,0.776,18.705,0.5,18.705z"/>
			</g>
			<g>
				<path d="M23.5,24H6.08c-0.276,0-0.5-0.224-0.5-0.5S5.803,23,6.08,23H23v-3H11.945c-0.276,0-0.5-0.224-0.5-0.5s0.224-0.5,0.5-0.5
					H23.5c0.276,0,0.5,0.224,0.5,0.5v4C24,23.776,23.776,24,23.5,24z"/>
			</g>
		</g>
		<g>
			<path d="M4.5,16.455c-0.261,0-0.475-0.2-0.498-0.455H3.5C3.224,16,3,15.776,3,15.5S3.224,15,3.5,15H4v-2H3.5
				C3.224,13,3,12.776,3,12.5S3.224,12,3.5,12H4v-2H2.5C2.224,10,2,9.776,2,9.5S2.224,9,2.5,9H4V7H3.5C3.224,7,3,6.776,3,6.5
				S3.224,6,3.5,6H4V4H3.5C3.224,4,3,3.776,3,3.5S3.224,3,3.5,3h1C4.776,3,5,3.224,5,3.5v12.455C5,16.231,4.776,16.455,4.5,16.455z"
				/>
		</g>
		<g>
			<path d="M14.5,22c-0.276,0-0.5-0.224-0.5-0.5V20h-2.055c-0.276,0-0.5-0.224-0.5-0.5s0.224-0.5,0.5-0.5H20.5
				c0.276,0,0.5,0.224,0.5,0.5v1c0,0.276-0.224,0.5-0.5,0.5S20,20.776,20,20.5V20h-2v0.5c0,0.276-0.224,0.5-0.5,0.5
				S17,20.776,17,20.5V20h-2v1.5C15,21.776,14.776,22,14.5,22z"/>
		</g>
	</g>
</g>
<g id="Tape_Measure">
</g>
<g id="Cad_Paper">
</g>
<g id="Cad_Papers">
</g>
<g id="Stairs">
</g>
<g id="Pillar">
</g>
<g id="Bricks">
</g>
<g id="Pantheon">
</g>
<g id="House">
</g>
<g id="Skyscraper_1_">
</g>
<g id="Building">
</g>
</svg>
