<?xml version="1.0" encoding="iso-8859-1"?>
<!-- Generator: Adobe Illustrator 19.2.1, SVG Export Plug-In . SVG Version: 6.00 Build 0)  -->
<svg version="1.1" xmlns="http://www.w3.org/2000/svg" xmlns:xlink="http://www.w3.org/1999/xlink" x="0px" y="0px"
	 viewBox="0 0 24 24" style="enable-background:new 0 0 24 24;" xml:space="preserve">
<g id="Cad_1">
</g>
<g id="Cad_2">
</g>
<g id="Cad_Pencil">
</g>
<g id="Cad_Compasses">
</g>
<g id="Tools_1">
</g>
<g id="Tools_2">
</g>
<g id="Ruler_1">
</g>
<g id="Ruler_2">
</g>
<g id="Workspace_1">
</g>
<g id="Workspace_2">
</g>
<g id="Cad_3">
</g>
<g id="_x33_D_Box">
</g>
<g id="Section_Symbol_1_">
</g>
<g id="Outlet_Symbol_1_">
</g>
<g id="Cad_File">
</g>
<g id="Blueprint">
</g>
<g id="Construction_Plan">
</g>
<g id="Roof_Plan">
</g>
<g id="House_Construction">
</g>
<g id="Building_Construction">
</g>
<g id="Work_Table">
</g>
<g id="Table_Cad">
</g>
<g id="House_Plan">
</g>
<g id="Tape_Measure">
</g>
<g id="Cad_Paper">
</g>
<g id="Cad_Papers">
</g>
<g id="Stairs">
</g>
<g id="Pillar">
</g>
<g id="Bricks">
</g>
<g id="Pantheon">
</g>
<g id="House">
	<g>
		<g>
			<path d="M20.5,24h-17C3.224,24,3,23.776,3,23.5v-12C3,11.224,3.224,11,3.5,11S4,11.224,4,11.5V23h16V11.5
				c0-0.276,0.224-0.5,0.5-0.5s0.5,0.224,0.5,0.5v12C21,23.776,20.776,24,20.5,24z"/>
		</g>
		<g>
			<path d="M23.5,12h-23c-0.204,0-0.388-0.124-0.464-0.313c-0.076-0.189-0.029-0.406,0.118-0.548l11.5-11
				c0.193-0.186,0.498-0.186,0.691,0l11.5,11c0.147,0.142,0.194,0.358,0.118,0.548C23.888,11.876,23.704,12,23.5,12z M1.746,11
				h20.508L12,1.192L1.746,11z"/>
		</g>
		<g>
			<path d="M17.5,24h-4c-0.276,0-0.5-0.224-0.5-0.5v-8c0-0.276,0.224-0.5,0.5-0.5h4c0.276,0,0.5,0.224,0.5,0.5v8
				C18,23.776,17.776,24,17.5,24z M14,23h3v-7h-3V23z"/>
		</g>
		<g>
			<path d="M9.5,19h-3C6.224,19,6,18.776,6,18.5v-3C6,15.224,6.224,15,6.5,15h3c0.276,0,0.5,0.224,0.5,0.5v3
				C10,18.776,9.776,19,9.5,19z M7,18h2v-2H7V18z"/>
		</g>
	</g>
</g>
<g id="Skyscraper_1_">
</g>
<g id="Building">
</g>
</svg>
