<?xml version="1.0" encoding="iso-8859-1"?>
<!-- Generator: Adobe Illustrator 19.2.1, SVG Export Plug-In . SVG Version: 6.00 Build 0)  -->
<svg version="1.1" xmlns="http://www.w3.org/2000/svg" xmlns:xlink="http://www.w3.org/1999/xlink" x="0px" y="0px"
	 viewBox="0 0 24 24" style="enable-background:new 0 0 24 24;" xml:space="preserve">
<g id="Cad_1">
</g>
<g id="Cad_2">
</g>
<g id="Cad_Pencil">
</g>
<g id="Cad_Compasses">
</g>
<g id="Tools_1">
</g>
<g id="Tools_2">
</g>
<g id="Ruler_1">
</g>
<g id="Ruler_2">
</g>
<g id="Workspace_1">
</g>
<g id="Workspace_2">
</g>
<g id="Cad_3">
</g>
<g id="_x33_D_Box">
</g>
<g id="Section_Symbol_1_">
</g>
<g id="Outlet_Symbol_1_">
</g>
<g id="Cad_File">
</g>
<g id="Blueprint">
</g>
<g id="Construction_Plan">
</g>
<g id="Roof_Plan">
</g>
<g id="House_Construction">
	<g>
		<g>
			<path d="M19.5,23h-8c-0.276,0-0.5-0.224-0.5-0.5s0.224-0.5,0.5-0.5H19V11.5c0-0.276,0.224-0.5,0.5-0.5s0.5,0.224,0.5,0.5v11
				C20,22.776,19.776,23,19.5,23z"/>
		</g>
		<g>
			<path d="M11.5,23h-1c-0.276,0-0.5-0.224-0.5-0.5s0.224-0.5,0.5-0.5h1c0.276,0,0.5,0.224,0.5,0.5S11.776,23,11.5,23z M8.5,23h-2
				C6.224,23,6,22.776,6,22.5S6.224,22,6.5,22h2C8.776,22,9,22.224,9,22.5S8.776,23,8.5,23z M4.5,23h-1C3.224,23,3,22.776,3,22.5v-1
				C3,21.224,3.224,21,3.5,21S4,21.224,4,21.5V22h0.5C4.776,22,5,22.224,5,22.5S4.776,23,4.5,23z M3.5,20C3.224,20,3,19.776,3,19.5
				v-2C3,17.224,3.224,17,3.5,17S4,17.224,4,17.5v2C4,19.776,3.776,20,3.5,20z M3.5,16C3.224,16,3,15.776,3,15.5v-2
				C3,13.224,3.224,13,3.5,13S4,13.224,4,13.5v2C4,15.776,3.776,16,3.5,16z"/>
		</g>
		<g>
			<path d="M21.5,12h-10c-0.276,0-0.5-0.224-0.5-0.5s0.224-0.5,0.5-0.5h8.793l-9.146-9.146c-0.195-0.195-0.195-0.512,0-0.707
				s0.512-0.195,0.707,0l10,10c0.143,0.143,0.186,0.358,0.108,0.545S21.702,12,21.5,12z"/>
		</g>
		<g>
			<g>
				<path d="M10.793,2.707c-0.128,0-0.256-0.049-0.354-0.146c-0.195-0.195-0.195-0.512,0-0.707l0.707-0.707
					c0.195-0.195,0.512-0.195,0.707,0s0.195,0.512,0,0.707l-0.707,0.707C11.049,2.658,10.921,2.707,10.793,2.707z"/>
			</g>
			<g>
				<path d="M3.434,10.066c-0.128,0-0.256-0.049-0.354-0.146c-0.195-0.195-0.195-0.512,0-0.707l1.227-1.227
					c0.195-0.195,0.512-0.195,0.707,0s0.195,0.512,0,0.707L3.787,9.92C3.689,10.018,3.562,10.066,3.434,10.066z M5.887,7.613
					c-0.128,0-0.256-0.049-0.354-0.146c-0.195-0.195-0.195-0.512,0-0.707L6.76,5.533c0.195-0.195,0.512-0.195,0.707,0
					s0.195,0.512,0,0.707L6.24,7.467C6.143,7.564,6.015,7.613,5.887,7.613z M8.34,5.16c-0.128,0-0.256-0.049-0.354-0.146
					c-0.195-0.195-0.195-0.512,0-0.707L9.213,3.08c0.195-0.195,0.512-0.195,0.707,0s0.195,0.512,0,0.707L8.693,5.014
					C8.596,5.111,8.468,5.16,8.34,5.16z"/>
			</g>
			<g>
				<path d="M2.5,12h-1c-0.202,0-0.385-0.122-0.462-0.309s-0.034-0.402,0.108-0.545l0.707-0.707c0.195-0.195,0.512-0.195,0.707,0
					c0.158,0.158,0.188,0.396,0.091,0.584C2.854,11.087,3,11.276,3,11.5C3,11.776,2.776,12,2.5,12z"/>
			</g>
			<g>
				<path d="M8.899,12H7.3c-0.276,0-0.5-0.224-0.5-0.5S7.023,11,7.3,11h1.6c0.276,0,0.5,0.224,0.5,0.5S9.176,12,8.899,12z M5.699,12
					H4.1c-0.276,0-0.5-0.224-0.5-0.5S3.823,11,4.1,11h1.6c0.276,0,0.5,0.224,0.5,0.5S5.976,12,5.699,12z"/>
			</g>
			<g>
				<path d="M11.5,12h-1c-0.276,0-0.5-0.224-0.5-0.5s0.224-0.5,0.5-0.5h1c0.276,0,0.5,0.224,0.5,0.5S11.776,12,11.5,12z"/>
			</g>
		</g>
		<g>
			<path d="M11.5,24c-0.276,0-0.5-0.224-0.5-0.5v-23C11,0.224,11.224,0,11.5,0S12,0.224,12,0.5v23C12,23.776,11.776,24,11.5,24z"/>
		</g>
	</g>
</g>
<g id="Building_Construction">
</g>
<g id="Work_Table">
</g>
<g id="Table_Cad">
</g>
<g id="House_Plan">
</g>
<g id="Tape_Measure">
</g>
<g id="Cad_Paper">
</g>
<g id="Cad_Papers">
</g>
<g id="Stairs">
</g>
<g id="Pillar">
</g>
<g id="Bricks">
</g>
<g id="Pantheon">
</g>
<g id="House">
</g>
<g id="Skyscraper_1_">
</g>
<g id="Building">
</g>
</svg>
