<?xml version="1.0" encoding="iso-8859-1"?>
<!-- Generator: Adobe Illustrator 19.2.1, SVG Export Plug-In . SVG Version: 6.00 Build 0)  -->
<svg version="1.1" xmlns="http://www.w3.org/2000/svg" xmlns:xlink="http://www.w3.org/1999/xlink" x="0px" y="0px"
	 viewBox="0 0 24 24" style="enable-background:new 0 0 24 24;" xml:space="preserve">
<g id="Cad_1">
</g>
<g id="Cad_2">
</g>
<g id="Cad_Pencil">
</g>
<g id="Cad_Compasses">
</g>
<g id="Tools_1">
</g>
<g id="Tools_2">
</g>
<g id="Ruler_1">
</g>
<g id="Ruler_2">
</g>
<g id="Workspace_1">
</g>
<g id="Workspace_2">
</g>
<g id="Cad_3">
</g>
<g id="_x33_D_Box">
</g>
<g id="Section_Symbol_1_">
</g>
<g id="Outlet_Symbol_1_">
	<g id="Outlet_Symbol">
		<g>
			<path d="M11.5,17C6.813,17,3,13.187,3,8.5S6.813,0,11.5,0S20,3.813,20,8.5S16.187,17,11.5,17z M11.5,1C7.364,1,4,4.364,4,8.5
				S7.364,16,11.5,16S19,12.636,19,8.5S15.636,1,11.5,1z"/>
		</g>
		<g>
			<path d="M11.5,24c-0.276,0-0.5-0.224-0.5-0.5v-23C11,0.224,11.224,0,11.5,0S12,0.224,12,0.5v23C12,23.776,11.776,24,11.5,24z"/>
		</g>
		<g>
			<path d="M7.5,24C7.224,24,7,23.776,7,23.5V1.57c0-0.276,0.224-0.5,0.5-0.5S8,1.294,8,1.57V23.5C8,23.776,7.776,24,7.5,24z"/>
		</g>
		<g>
			<path d="M15.5,24c-0.276,0-0.5-0.224-0.5-0.5V1.57c0-0.276,0.224-0.5,0.5-0.5S16,1.294,16,1.57V23.5C16,23.776,15.776,24,15.5,24
				z"/>
		</g>
	</g>
</g>
<g id="Cad_File">
</g>
<g id="Blueprint">
</g>
<g id="Construction_Plan">
</g>
<g id="Roof_Plan">
</g>
<g id="House_Construction">
</g>
<g id="Building_Construction">
</g>
<g id="Work_Table">
</g>
<g id="Table_Cad">
</g>
<g id="House_Plan">
</g>
<g id="Tape_Measure">
</g>
<g id="Cad_Paper">
</g>
<g id="Cad_Papers">
</g>
<g id="Stairs">
</g>
<g id="Pillar">
</g>
<g id="Bricks">
</g>
<g id="Pantheon">
</g>
<g id="House">
</g>
<g id="Skyscraper_1_">
</g>
<g id="Building">
</g>
</svg>
