<?xml version="1.0" encoding="iso-8859-1"?>
<!-- Generator: Adobe Illustrator 19.2.1, SVG Export Plug-In . SVG Version: 6.00 Build 0)  -->
<svg version="1.1" xmlns="http://www.w3.org/2000/svg" xmlns:xlink="http://www.w3.org/1999/xlink" x="0px" y="0px"
	 viewBox="0 0 24 24" style="enable-background:new 0 0 24 24;" xml:space="preserve">
<g id="Cad_1">
</g>
<g id="Cad_2">
</g>
<g id="Cad_Pencil">
</g>
<g id="Cad_Compasses">
</g>
<g id="Tools_1">
</g>
<g id="Tools_2">
</g>
<g id="Ruler_1">
</g>
<g id="Ruler_2">
</g>
<g id="Workspace_1">
</g>
<g id="Workspace_2">
</g>
<g id="Cad_3">
</g>
<g id="_x33_D_Box">
</g>
<g id="Section_Symbol_1_">
</g>
<g id="Outlet_Symbol_1_">
</g>
<g id="Cad_File">
</g>
<g id="Blueprint">
</g>
<g id="Construction_Plan">
</g>
<g id="Roof_Plan">
</g>
<g id="House_Construction">
</g>
<g id="Building_Construction">
</g>
<g id="Work_Table">
</g>
<g id="Table_Cad">
</g>
<g id="House_Plan">
</g>
<g id="Tape_Measure">
</g>
<g id="Cad_Paper">
</g>
<g id="Cad_Papers">
</g>
<g id="Stairs">
</g>
<g id="Pillar">
</g>
<g id="Bricks">
</g>
<g id="Pantheon">
	<g>
		<g>
			<path d="M23.5,24h-23C0.224,24,0,23.776,0,23.5v-2C0,21.224,0.224,21,0.5,21h23c0.276,0,0.5,0.224,0.5,0.5v2
				C24,23.776,23.776,24,23.5,24z M1,23h22v-1H1V23z"/>
		</g>
		<g>
			<path d="M22.5,22h-21C1.224,22,1,21.776,1,21.5v-2C1,19.224,1.224,19,1.5,19h21c0.276,0,0.5,0.224,0.5,0.5v2
				C23,21.776,22.776,22,22.5,22z M2,21h20v-1H2V21z"/>
		</g>
		<g>
			<path d="M5.5,20h-2C3.224,20,3,19.776,3,19.5v-10C3,9.224,3.224,9,3.5,9h2C5.776,9,6,9.224,6,9.5v10C6,19.776,5.776,20,5.5,20z
				 M4,19h1v-9H4V19z"/>
		</g>
		<g>
			<path d="M10.5,20h-2C8.224,20,8,19.776,8,19.5v-10C8,9.224,8.224,9,8.5,9h2C10.776,9,11,9.224,11,9.5v10
				C11,19.776,10.776,20,10.5,20z M9,19h1v-9H9V19z"/>
		</g>
		<g>
			<path d="M15.5,20h-2c-0.276,0-0.5-0.224-0.5-0.5v-10C13,9.224,13.224,9,13.5,9h2C15.776,9,16,9.224,16,9.5v10
				C16,19.776,15.776,20,15.5,20z M14,19h1v-9h-1V19z"/>
		</g>
		<g>
			<path d="M20.5,20h-2c-0.276,0-0.5-0.224-0.5-0.5v-10C18,9.224,18.224,9,18.5,9h2C20.776,9,21,9.224,21,9.5v10
				C21,19.776,20.776,20,20.5,20z M19,19h1v-9h-1V19z"/>
		</g>
		<g>
			<path d="M23.5,8h-23C0.277,8,0.082,7.854,0.02,7.64c-0.062-0.213,0.024-0.442,0.212-0.562l11-7c0.157-0.1,0.357-0.105,0.521-0.01
				l12,7c0.195,0.113,0.29,0.344,0.23,0.563C23.924,7.849,23.726,8,23.5,8z M2.217,7H21.65L11.512,1.086L2.217,7z"/>
		</g>
		<g>
			<path d="M21.5,10h-19C2.224,10,2,9.776,2,9.5v-2C2,7.224,2.224,7,2.5,7h19C21.776,7,22,7.224,22,7.5v2
				C22,9.776,21.776,10,21.5,10z M3,9h18V8H3V9z"/>
		</g>
		<g>
			<path d="M20.071,8c-0.086,0-0.173-0.021-0.252-0.068l-8.308-4.846L3.911,7.922c-0.23,0.147-0.541,0.08-0.69-0.153
				c-0.148-0.233-0.079-0.542,0.153-0.69l7.857-5c0.157-0.1,0.357-0.104,0.521-0.01l8.571,5c0.238,0.139,0.319,0.445,0.18,0.684
				C20.41,7.911,20.243,8,20.071,8z"/>
		</g>
	</g>
</g>
<g id="House">
</g>
<g id="Skyscraper_1_">
</g>
<g id="Building">
</g>
</svg>
