<?xml version="1.0" encoding="iso-8859-1"?>
<!-- Generator: Adobe Illustrator 19.2.1, SVG Export Plug-In . SVG Version: 6.00 Build 0)  -->
<svg version="1.1" xmlns="http://www.w3.org/2000/svg" xmlns:xlink="http://www.w3.org/1999/xlink" x="0px" y="0px"
	 viewBox="0 0 24 24" style="enable-background:new 0 0 24 24;" xml:space="preserve">
<g id="Cad_1">
</g>
<g id="Cad_2">
</g>
<g id="Cad_Pencil">
</g>
<g id="Cad_Compasses">
</g>
<g id="Tools_1">
</g>
<g id="Tools_2">
</g>
<g id="Ruler_1">
</g>
<g id="Ruler_2">
</g>
<g id="Workspace_1">
</g>
<g id="Workspace_2">
</g>
<g id="Cad_3">
</g>
<g id="_x33_D_Box">
</g>
<g id="Section_Symbol_1_">
</g>
<g id="Outlet_Symbol_1_">
</g>
<g id="Cad_File">
</g>
<g id="Blueprint">
</g>
<g id="Construction_Plan">
</g>
<g id="Roof_Plan">
</g>
<g id="House_Construction">
</g>
<g id="Building_Construction">
</g>
<g id="Work_Table">
</g>
<g id="Table_Cad">
</g>
<g id="House_Plan">
</g>
<g id="Tape_Measure">
</g>
<g id="Cad_Paper">
</g>
<g id="Cad_Papers">
</g>
<g id="Stairs">
</g>
<g id="Pillar">
	<g>
		<g>
			<path d="M20,3H4C3.771,3,3.57,2.844,3.515,2.621l-0.5-2C2.978,0.472,3.011,0.313,3.105,0.192S3.346,0,3.5,0h17
				c0.154,0,0.3,0.071,0.395,0.192s0.128,0.279,0.091,0.429l-0.5,2C20.43,2.844,20.229,3,20,3z M4.391,2h15.219l0.25-1H4.141
				L4.391,2z"/>
		</g>
		<g>
			<path d="M4.5,24C4.224,24,4,23.776,4,23.5v-14C4,9.224,4.224,9,4.5,9S5,9.224,5,9.5v14C5,23.776,4.776,24,4.5,24z"/>
		</g>
		<g>
			<path d="M19.5,24c-0.276,0-0.5-0.224-0.5-0.5v-14C19,9.224,19.224,9,19.5,9S20,9.224,20,9.5v14C20,23.776,19.776,24,19.5,24z"/>
		</g>
		<g>
			<path d="M7.5,24C7.224,24,7,23.776,7,23.5v-12C7,11.224,7.224,11,7.5,11S8,11.224,8,11.5v12C8,23.776,7.776,24,7.5,24z"/>
		</g>
		<g>
			<path d="M10.5,24c-0.276,0-0.5-0.224-0.5-0.5v-12c0-0.276,0.224-0.5,0.5-0.5s0.5,0.224,0.5,0.5v12C11,23.776,10.776,24,10.5,24z"
				/>
		</g>
		<g>
			<path d="M13.5,24c-0.276,0-0.5-0.224-0.5-0.5v-12c0-0.276,0.224-0.5,0.5-0.5s0.5,0.224,0.5,0.5v12C14,23.776,13.776,24,13.5,24z"
				/>
		</g>
		<g>
			<path d="M16.5,24c-0.276,0-0.5-0.224-0.5-0.5v-12c0-0.276,0.224-0.5,0.5-0.5s0.5,0.224,0.5,0.5v12C17,23.776,16.776,24,16.5,24z"
				/>
		</g>
		<g>
			<path d="M4,10c-2.206,0-4-1.794-4-4s1.794-4,4-4c0.276,0,0.5,0.224,0.5,0.5S4.276,3,4,3C2.346,3,1,4.346,1,6s1.346,3,3,3
				s3-1.346,3-3c0-0.276,0.224-0.5,0.5-0.5S8,5.724,8,6C8,8.206,6.206,10,4,10z"/>
		</g>
		<g>
			<path d="M20,10c-2.206,0-4-1.794-4-4c0-0.276,0.224-0.5,0.5-0.5S17,5.724,17,6c0,1.654,1.346,3,3,3s3-1.346,3-3s-1.346-3-3-3
				c-0.276,0-0.5-0.224-0.5-0.5S19.724,2,20,2c2.206,0,4,1.794,4,4S22.206,10,20,10z"/>
		</g>
		<g>
			<path d="M4,8C2.897,8,2,7.103,2,6s0.897-2,2-2s2,0.897,2,2S5.103,8,4,8z M4,5C3.448,5,3,5.448,3,6s0.448,1,1,1s1-0.448,1-1
				S4.552,5,4,5z"/>
		</g>
		<g>
			<path d="M20,8c-1.103,0-2-0.897-2-2s0.897-2,2-2s2,0.897,2,2S21.103,8,20,8z M20,5c-0.552,0-1,0.448-1,1s0.448,1,1,1s1-0.448,1-1
				S20.552,5,20,5z"/>
		</g>
		<g>
			<path d="M14.5,7h-5C9.224,7,9,6.776,9,6.5S9.224,6,9.5,6h5C14.776,6,15,6.224,15,6.5S14.776,7,14.5,7z"/>
		</g>
		<g>
			<path d="M15.5,9h-7C8.224,9,8,8.776,8,8.5S8.224,8,8.5,8h7C15.776,8,16,8.224,16,8.5S15.776,9,15.5,9z"/>
		</g>
	</g>
</g>
<g id="Bricks">
</g>
<g id="Pantheon">
</g>
<g id="House">
</g>
<g id="Skyscraper_1_">
</g>
<g id="Building">
</g>
</svg>
