<?xml version="1.0" encoding="iso-8859-1"?>
<!-- Generator: Adobe Illustrator 19.2.1, SVG Export Plug-In . SVG Version: 6.00 Build 0)  -->
<svg version="1.1" xmlns="http://www.w3.org/2000/svg" xmlns:xlink="http://www.w3.org/1999/xlink" x="0px" y="0px"
	 viewBox="0 0 24 24" style="enable-background:new 0 0 24 24;" xml:space="preserve">
<g id="Cad_1">
</g>
<g id="Cad_2">
</g>
<g id="Cad_Pencil">
</g>
<g id="Cad_Compasses">
</g>
<g id="Tools_1">
</g>
<g id="Tools_2">
</g>
<g id="Ruler_1">
</g>
<g id="Ruler_2">
</g>
<g id="Workspace_1">
</g>
<g id="Workspace_2">
</g>
<g id="Cad_3">
</g>
<g id="_x33_D_Box">
</g>
<g id="Section_Symbol_1_">
</g>
<g id="Outlet_Symbol_1_">
</g>
<g id="Cad_File">
</g>
<g id="Blueprint">
</g>
<g id="Construction_Plan">
</g>
<g id="Roof_Plan">
	<g>
		<g>
			<path d="M20.5,24h-17C3.224,24,3,23.776,3,23.5v-12C3,11.224,3.224,11,3.5,11S4,11.224,4,11.5V23h16V11.5
				c0-0.276,0.224-0.5,0.5-0.5s0.5,0.224,0.5,0.5v12C21,23.776,20.776,24,20.5,24z"/>
		</g>
		<g>
			<g>
				<path d="M23.5,12h-1c-0.276,0-0.5-0.224-0.5-0.5c0-0.216,0.137-0.4,0.329-0.47c-0.091-0.184-0.063-0.411,0.087-0.567
					c0.192-0.198,0.508-0.207,0.707-0.016l0.723,0.691c0.147,0.141,0.194,0.358,0.118,0.547C23.888,11.876,23.704,12,23.5,12z"/>
			</g>
			<g>
				<path d="M21.341,9.935c-0.124,0-0.249-0.046-0.346-0.139l-1.437-1.374c-0.199-0.191-0.206-0.507-0.016-0.707
					c0.191-0.198,0.508-0.206,0.707-0.016l1.437,1.374c0.199,0.191,0.206,0.507,0.016,0.707C21.604,9.883,21.473,9.935,21.341,9.935
					z M18.468,7.187c-0.124,0-0.249-0.046-0.346-0.139l-1.437-1.374c-0.199-0.191-0.206-0.507-0.016-0.707
					c0.192-0.198,0.508-0.207,0.707-0.016l1.437,1.374c0.199,0.191,0.206,0.507,0.016,0.707C18.73,7.135,18.6,7.187,18.468,7.187z
					 M15.595,4.439c-0.124,0-0.249-0.046-0.346-0.139l-1.436-1.374c-0.199-0.191-0.206-0.507-0.016-0.707
					c0.191-0.199,0.508-0.207,0.707-0.016l1.436,1.374c0.199,0.191,0.206,0.507,0.016,0.707C15.857,4.388,15.727,4.439,15.595,4.439
					z"/>
			</g>
			<g>
				<path d="M12.723,1.691c-0.124,0-0.249-0.046-0.346-0.139L12,1.192l-0.377,0.361c-0.199,0.191-0.516,0.183-0.707-0.016
					c-0.19-0.2-0.184-0.516,0.016-0.707l0.723-0.691c0.193-0.185,0.498-0.185,0.691,0l0.723,0.691
					c0.199,0.191,0.206,0.507,0.016,0.707C12.985,1.64,12.854,1.691,12.723,1.691z"/>
			</g>
			<g>
				<path d="M2.659,9.935c-0.132,0-0.263-0.052-0.361-0.154c-0.19-0.2-0.184-0.516,0.016-0.707l1.436-1.374
					c0.199-0.191,0.516-0.183,0.707,0.016c0.19,0.2,0.184,0.516-0.016,0.707L3.005,9.796C2.908,9.889,2.783,9.935,2.659,9.935z
					 M5.531,7.187c-0.132,0-0.263-0.052-0.361-0.154c-0.19-0.2-0.184-0.516,0.016-0.707l1.437-1.374
					c0.199-0.191,0.516-0.183,0.707,0.016c0.19,0.2,0.184,0.516-0.016,0.707L5.877,7.048C5.78,7.141,5.655,7.187,5.531,7.187z
					 M8.404,4.439c-0.132,0-0.263-0.052-0.361-0.154c-0.19-0.2-0.184-0.516,0.016-0.707l1.437-1.374
					c0.2-0.192,0.515-0.184,0.707,0.016c0.19,0.2,0.184,0.516-0.016,0.707L8.75,4.3C8.653,4.393,8.528,4.439,8.404,4.439z"/>
			</g>
			<g>
				<path d="M1.5,12h-1c-0.204,0-0.388-0.124-0.464-0.314c-0.076-0.189-0.029-0.406,0.118-0.547l0.723-0.691
					c0.199-0.191,0.516-0.183,0.707,0.016c0.149,0.156,0.178,0.384,0.087,0.567C1.863,11.1,2,11.284,2,11.5
					C2,11.776,1.776,12,1.5,12z"/>
			</g>
			<g>
				<path d="M20.591,12h-1.909c-0.276,0-0.5-0.224-0.5-0.5s0.224-0.5,0.5-0.5h1.909c0.276,0,0.5,0.224,0.5,0.5S20.867,12,20.591,12z
					 M16.772,12h-1.909c-0.276,0-0.5-0.224-0.5-0.5s0.224-0.5,0.5-0.5h1.909c0.276,0,0.5,0.224,0.5,0.5S17.049,12,16.772,12z
					 M12.955,12h-1.909c-0.276,0-0.5-0.224-0.5-0.5s0.224-0.5,0.5-0.5h1.909c0.276,0,0.5,0.224,0.5,0.5S13.231,12,12.955,12z
					 M9.137,12H7.228c-0.276,0-0.5-0.224-0.5-0.5s0.224-0.5,0.5-0.5h1.909c0.276,0,0.5,0.224,0.5,0.5S9.413,12,9.137,12z M5.318,12
					H3.409c-0.276,0-0.5-0.224-0.5-0.5s0.224-0.5,0.5-0.5h1.909c0.276,0,0.5,0.224,0.5,0.5S5.595,12,5.318,12z"/>
			</g>
		</g>
		<g>
			<path d="M14.5,24h-5C9.224,24,9,23.776,9,23.5v-7C9,16.224,9.224,16,9.5,16h5c0.276,0,0.5,0.224,0.5,0.5v7
				C15,23.776,14.776,24,14.5,24z M10,23h4v-6h-4V23z"/>
		</g>
	</g>
</g>
<g id="House_Construction">
</g>
<g id="Building_Construction">
</g>
<g id="Work_Table">
</g>
<g id="Table_Cad">
</g>
<g id="House_Plan">
</g>
<g id="Tape_Measure">
</g>
<g id="Cad_Paper">
</g>
<g id="Cad_Papers">
</g>
<g id="Stairs">
</g>
<g id="Pillar">
</g>
<g id="Bricks">
</g>
<g id="Pantheon">
</g>
<g id="House">
</g>
<g id="Skyscraper_1_">
</g>
<g id="Building">
</g>
</svg>
