<?xml version="1.0" encoding="iso-8859-1"?>
<!-- Generator: Adobe Illustrator 19.2.1, SVG Export Plug-In . SVG Version: 6.00 Build 0)  -->
<svg version="1.1" xmlns="http://www.w3.org/2000/svg" xmlns:xlink="http://www.w3.org/1999/xlink" x="0px" y="0px"
	 viewBox="0 0 24 24" style="enable-background:new 0 0 24 24;" xml:space="preserve">
<g id="Cad_1">
</g>
<g id="Cad_2">
</g>
<g id="Cad_Pencil">
</g>
<g id="Cad_Compasses">
</g>
<g id="Tools_1">
</g>
<g id="Tools_2">
</g>
<g id="Ruler_1">
	<g>
		<g>
			<path d="M12.46,15.96c-0.128,0-0.256-0.049-0.354-0.146l-3.92-3.92c-0.195-0.195-0.195-0.512,0-0.707s0.512-0.195,0.707,0
				l3.92,3.92c0.195,0.195,0.195,0.512,0,0.707C12.716,15.911,12.588,15.96,12.46,15.96z"/>
		</g>
		<g>
			<path d="M23.5,24h-23C0.224,24,0,23.776,0,23.5v-5C0,18.224,0.224,18,0.5,18h23c0.276,0,0.5,0.224,0.5,0.5v5
				C24,23.776,23.776,24,23.5,24z M1,23h22v-4H1V23z"/>
		</g>
		<g>
			<path d="M17.5,22c-0.276,0-0.5-0.224-0.5-0.5V19h-2v1.5c0,0.276-0.224,0.5-0.5,0.5S14,20.776,14,20.5V19h-2v1.5
				c0,0.276-0.224,0.5-0.5,0.5S11,20.776,11,20.5V19H9v2.5C9,21.776,8.776,22,8.5,22S8,21.776,8,21.5V19H6v1.5
				C6,20.776,5.776,21,5.5,21S5,20.776,5,20.5V19H3v1.5C3,20.776,2.776,21,2.5,21S2,20.776,2,20.5v-2C2,18.224,2.224,18,2.5,18h18
				c0.276,0,0.5,0.224,0.5,0.5v2c0,0.276-0.224,0.5-0.5,0.5S20,20.776,20,20.5V19h-2v2.5C18,21.776,17.776,22,17.5,22z"/>
		</g>
		<g>
			<path d="M7.5,17c-0.132,0-0.259-0.052-0.354-0.146c-0.116-0.117-0.168-0.283-0.138-0.445l0.851-4.552
				c0.14-0.434,0.349-0.771,0.621-1.043L18.854,0.439c0.584-0.585,1.537-0.585,2.121,0l2.586,2.586C23.844,3.308,24,3.685,24,4.086
				c0,0.4-0.156,0.777-0.439,1.061L13.188,15.52c-0.273,0.273-0.611,0.482-0.978,0.604l-4.618,0.868C7.562,16.997,7.53,17,7.5,17z
				 M19.914,1c-0.128,0-0.256,0.048-0.354,0.146L9.188,11.52c-0.163,0.164-0.289,0.367-0.363,0.587l-0.699,3.768l3.835-0.717
				c0.153-0.056,0.356-0.181,0.521-0.345L22.854,4.439C22.948,4.345,23,4.219,23,4.086c0-0.134-0.052-0.259-0.146-0.353
				l-2.586-2.586C20.17,1.049,20.042,1,19.914,1z"/>
		</g>
	</g>
</g>
<g id="Ruler_2">
</g>
<g id="Workspace_1">
</g>
<g id="Workspace_2">
</g>
<g id="Cad_3">
</g>
<g id="_x33_D_Box">
</g>
<g id="Section_Symbol_1_">
</g>
<g id="Outlet_Symbol_1_">
</g>
<g id="Cad_File">
</g>
<g id="Blueprint">
</g>
<g id="Construction_Plan">
</g>
<g id="Roof_Plan">
</g>
<g id="House_Construction">
</g>
<g id="Building_Construction">
</g>
<g id="Work_Table">
</g>
<g id="Table_Cad">
</g>
<g id="House_Plan">
</g>
<g id="Tape_Measure">
</g>
<g id="Cad_Paper">
</g>
<g id="Cad_Papers">
</g>
<g id="Stairs">
</g>
<g id="Pillar">
</g>
<g id="Bricks">
</g>
<g id="Pantheon">
</g>
<g id="House">
</g>
<g id="Skyscraper_1_">
</g>
<g id="Building">
</g>
</svg>
