<?xml version="1.0" encoding="iso-8859-1"?>
<!-- Generator: Adobe Illustrator 19.2.1, SVG Export Plug-In . SVG Version: 6.00 Build 0)  -->
<svg version="1.1" xmlns="http://www.w3.org/2000/svg" xmlns:xlink="http://www.w3.org/1999/xlink" x="0px" y="0px"
	 viewBox="0 0 24 24" style="enable-background:new 0 0 24 24;" xml:space="preserve">
<g id="Cad_1">
</g>
<g id="Cad_2">
</g>
<g id="Cad_Pencil">
</g>
<g id="Cad_Compasses">
</g>
<g id="Tools_1">
</g>
<g id="Tools_2">
</g>
<g id="Ruler_1">
</g>
<g id="Ruler_2">
	<g>
		<g>
			<path d="M4.499,24h-4c-0.276,0-0.5-0.224-0.5-0.5v-23c0-0.276,0.224-0.5,0.5-0.5h4c0.276,0,0.5,0.224,0.5,0.5v19
				c0,0.276-0.224,0.5-0.5,0.5s-0.5-0.224-0.5-0.5V1h-3v22h3.5c0.276,0,0.5,0.224,0.5,0.5S4.775,24,4.499,24z"/>
		</g>
		<g>
			<path d="M23.499,24h-19c-0.276,0-0.5-0.224-0.5-0.5s0.224-0.5,0.5-0.5h18.5v-3h-18.5c-0.276,0-0.5-0.224-0.5-0.5
				s0.224-0.5,0.5-0.5h19c0.276,0,0.5,0.224,0.5,0.5v4C23.999,23.776,23.775,24,23.499,24z"/>
		</g>
		<g>
			<path d="M4.499,19h-2c-0.276,0-0.5-0.224-0.5-0.5s0.224-0.5,0.5-0.5h1.5v-2h-0.5c-0.276,0-0.5-0.224-0.5-0.5s0.224-0.5,0.5-0.5
				h0.5v-2h-0.5c-0.276,0-0.5-0.224-0.5-0.5s0.224-0.5,0.5-0.5h0.5v-2h-1.5c-0.276,0-0.5-0.224-0.5-0.5S2.223,9,2.499,9h1.5V7h-0.5
				c-0.276,0-0.5-0.224-0.5-0.5S3.223,6,3.499,6h0.5V4h-0.5c-0.276,0-0.5-0.224-0.5-0.5S3.223,3,3.499,3h1
				c0.276,0,0.5,0.224,0.5,0.5v15C4.999,18.776,4.775,19,4.499,19z"/>
		</g>
		<g>
			<path d="M14.499,22c-0.276,0-0.5-0.224-0.5-0.5V20h-2v0.5c0,0.276-0.224,0.5-0.5,0.5s-0.5-0.224-0.5-0.5V20h-2v0.5
				c0,0.276-0.224,0.5-0.5,0.5s-0.5-0.224-0.5-0.5V20h-2v1.5c0,0.276-0.224,0.5-0.5,0.5s-0.5-0.224-0.5-0.5v-2
				c0-0.276,0.224-0.5,0.5-0.5h15c0.276,0,0.5,0.224,0.5,0.5v1c0,0.276-0.224,0.5-0.5,0.5s-0.5-0.224-0.5-0.5V20h-2v0.5
				c0,0.276-0.224,0.5-0.5,0.5s-0.5-0.224-0.5-0.5V20h-2v1.5C14.999,21.776,14.775,22,14.499,22z"/>
		</g>
		<g>
			<path d="M10.499,18.001c-0.131,0-0.259-0.052-0.354-0.146c-0.124-0.124-0.174-0.304-0.132-0.475l0.933-3.731
				c0.066-0.263,0.203-0.504,0.396-0.697l8.513-8.513c0.584-0.585,1.537-0.585,2.121,0l1.586,1.586
				c0.283,0.283,0.439,0.66,0.439,1.061c0,0.4-0.156,0.777-0.439,1.061l-8.513,8.513c-0.192,0.192-0.434,0.329-0.697,0.395
				l-3.731,0.933C10.58,17.997,10.539,18.001,10.499,18.001z M20.915,5c-0.128,0-0.256,0.048-0.354,0.146l-8.513,8.513
				c-0.064,0.065-0.11,0.145-0.132,0.232l-0.73,2.923l2.923-0.73c0.088-0.022,0.168-0.068,0.232-0.132l8.513-8.513
				c0.095-0.095,0.146-0.22,0.146-0.354c0-0.134-0.052-0.259-0.146-0.353l-1.586-1.586C21.171,5.049,21.043,5,20.915,5z"/>
		</g>
		<g>
			<path d="M14.472,16.974c-0.128,0-0.256-0.049-0.354-0.146l-2.944-2.944c-0.195-0.195-0.195-0.512,0-0.707s0.512-0.195,0.707,0
				l2.944,2.944c0.195,0.195,0.195,0.512,0,0.707C14.728,16.925,14.6,16.974,14.472,16.974z"/>
		</g>
	</g>
</g>
<g id="Workspace_1">
</g>
<g id="Workspace_2">
</g>
<g id="Cad_3">
</g>
<g id="_x33_D_Box">
</g>
<g id="Section_Symbol_1_">
</g>
<g id="Outlet_Symbol_1_">
</g>
<g id="Cad_File">
</g>
<g id="Blueprint">
</g>
<g id="Construction_Plan">
</g>
<g id="Roof_Plan">
</g>
<g id="House_Construction">
</g>
<g id="Building_Construction">
</g>
<g id="Work_Table">
</g>
<g id="Table_Cad">
</g>
<g id="House_Plan">
</g>
<g id="Tape_Measure">
</g>
<g id="Cad_Paper">
</g>
<g id="Cad_Papers">
</g>
<g id="Stairs">
</g>
<g id="Pillar">
</g>
<g id="Bricks">
</g>
<g id="Pantheon">
</g>
<g id="House">
</g>
<g id="Skyscraper_1_">
</g>
<g id="Building">
</g>
</svg>
