<?xml version="1.0" encoding="iso-8859-1"?>
<!-- Generator: Adobe Illustrator 19.2.1, SVG Export Plug-In . SVG Version: 6.00 Build 0)  -->
<svg version="1.1" xmlns="http://www.w3.org/2000/svg" xmlns:xlink="http://www.w3.org/1999/xlink" x="0px" y="0px"
	 viewBox="0 0 24 24" style="enable-background:new 0 0 24 24;" xml:space="preserve">
<g id="Cad_1">
</g>
<g id="Cad_2">
</g>
<g id="Cad_Pencil">
</g>
<g id="Cad_Compasses">
</g>
<g id="Tools_1">
</g>
<g id="Tools_2">
</g>
<g id="Ruler_1">
</g>
<g id="Ruler_2">
</g>
<g id="Workspace_1">
</g>
<g id="Workspace_2">
</g>
<g id="Cad_3">
</g>
<g id="_x33_D_Box">
</g>
<g id="Section_Symbol_1_">
	<g id="Section_Symbol">
		<g>
			<path d="M12,24c-4.687,0-8.5-3.813-8.5-8.5S7.313,7,12,7s8.5,3.813,8.5,8.5S16.687,24,12,24z M12,8c-4.136,0-7.5,3.364-7.5,7.5
				S7.864,23,12,23s7.5-3.364,7.5-7.5S16.136,8,12,8z"/>
		</g>
		<g>
			<path d="M23,16H1c-0.188,0-0.361-0.106-0.446-0.274c-0.085-0.168-0.069-0.37,0.042-0.522l11-15c0.188-0.257,0.618-0.257,0.807,0
				l11,15c0.111,0.152,0.128,0.354,0.042,0.522C23.361,15.894,23.188,16,23,16z M1.987,15h20.026L12,1.346L1.987,15z"/>
		</g>
		<g>
			<path d="M12,24c-0.276,0-0.5-0.224-0.5-0.5v-8c0-0.276,0.224-0.5,0.5-0.5s0.5,0.224,0.5,0.5v8C12.5,23.776,12.276,24,12,24z"/>
		</g>
	</g>
</g>
<g id="Outlet_Symbol_1_">
</g>
<g id="Cad_File">
</g>
<g id="Blueprint">
</g>
<g id="Construction_Plan">
</g>
<g id="Roof_Plan">
</g>
<g id="House_Construction">
</g>
<g id="Building_Construction">
</g>
<g id="Work_Table">
</g>
<g id="Table_Cad">
</g>
<g id="House_Plan">
</g>
<g id="Tape_Measure">
</g>
<g id="Cad_Paper">
</g>
<g id="Cad_Papers">
</g>
<g id="Stairs">
</g>
<g id="Pillar">
</g>
<g id="Bricks">
</g>
<g id="Pantheon">
</g>
<g id="House">
</g>
<g id="Skyscraper_1_">
</g>
<g id="Building">
</g>
</svg>
