<?xml version="1.0" encoding="iso-8859-1"?>
<!-- Generator: Adobe Illustrator 19.2.1, SVG Export Plug-In . SVG Version: 6.00 Build 0)  -->
<svg version="1.1" xmlns="http://www.w3.org/2000/svg" xmlns:xlink="http://www.w3.org/1999/xlink" x="0px" y="0px"
	 viewBox="0 0 24 24" style="enable-background:new 0 0 24 24;" xml:space="preserve">
<g id="Cad_1">
</g>
<g id="Cad_2">
</g>
<g id="Cad_Pencil">
</g>
<g id="Cad_Compasses">
</g>
<g id="Tools_1">
</g>
<g id="Tools_2">
</g>
<g id="Ruler_1">
</g>
<g id="Ruler_2">
</g>
<g id="Workspace_1">
</g>
<g id="Workspace_2">
</g>
<g id="Cad_3">
</g>
<g id="_x33_D_Box">
</g>
<g id="Section_Symbol_1_">
</g>
<g id="Outlet_Symbol_1_">
</g>
<g id="Cad_File">
</g>
<g id="Blueprint">
</g>
<g id="Construction_Plan">
</g>
<g id="Roof_Plan">
</g>
<g id="House_Construction">
</g>
<g id="Building_Construction">
</g>
<g id="Work_Table">
</g>
<g id="Table_Cad">
</g>
<g id="House_Plan">
</g>
<g id="Tape_Measure">
</g>
<g id="Cad_Paper">
</g>
<g id="Cad_Papers">
</g>
<g id="Stairs">
</g>
<g id="Pillar">
</g>
<g id="Bricks">
</g>
<g id="Pantheon">
</g>
<g id="House">
</g>
<g id="Skyscraper_1_">
	<g id="Skyscraper">
		<g>
			<path d="M14.5,22h-6C8.224,22,8,21.776,8,21.5v-11C8,10.224,8.224,10,8.5,10h6c0.276,0,0.5,0.224,0.5,0.5v11
				C15,21.776,14.776,22,14.5,22z M9,21h5V11H9V21z"/>
		</g>
		<g>
			<path d="M15.5,24h-8C7.224,24,7,23.776,7,23.5v-2C7,21.224,7.224,21,7.5,21h8c0.276,0,0.5,0.224,0.5,0.5v2
				C16,23.776,15.776,24,15.5,24z M8,23h7v-1H8V23z"/>
		</g>
		<g>
			<path d="M13.5,11h-4C9.224,11,9,10.776,9,10.5v-6C9,4.224,9.224,4,9.5,4h4C13.776,4,14,4.224,14,4.5v6
				C14,10.776,13.776,11,13.5,11z M10,10h3V5h-3V10z"/>
		</g>
		<g>
			<path d="M12.5,5h-2C10.224,5,10,4.776,10,4.5v-4C10,0.224,10.224,0,10.5,0h2C12.776,0,13,0.224,13,0.5v4
				C13,4.776,12.776,5,12.5,5z M11,4h1V1h-1V4z"/>
		</g>
		<g>
			<path d="M10.5,14c-0.276,0-0.5-0.224-0.5-0.5v-1c0-0.276,0.224-0.5,0.5-0.5s0.5,0.224,0.5,0.5v1C11,13.776,10.776,14,10.5,14z"/>
		</g>
		<g>
			<path d="M11.5,11c-0.276,0-0.5-0.224-0.5-0.5v-4C11,6.224,11.224,6,11.5,6S12,6.224,12,6.5v4C12,10.776,11.776,11,11.5,11z"/>
		</g>
		<g>
			<path d="M12.5,14c-0.276,0-0.5-0.224-0.5-0.5v-1c0-0.276,0.224-0.5,0.5-0.5s0.5,0.224,0.5,0.5v1C13,13.776,12.776,14,12.5,14z"/>
		</g>
		<g>
			<path d="M10.5,17c-0.276,0-0.5-0.224-0.5-0.5v-1c0-0.276,0.224-0.5,0.5-0.5s0.5,0.224,0.5,0.5v1C11,16.776,10.776,17,10.5,17z"/>
		</g>
		<g>
			<path d="M12.5,17c-0.276,0-0.5-0.224-0.5-0.5v-1c0-0.276,0.224-0.5,0.5-0.5s0.5,0.224,0.5,0.5v1C13,16.776,12.776,17,12.5,17z"/>
		</g>
		<g>
			<path d="M10.5,20c-0.276,0-0.5-0.224-0.5-0.5v-1c0-0.276,0.224-0.5,0.5-0.5s0.5,0.224,0.5,0.5v1C11,19.776,10.776,20,10.5,20z"/>
		</g>
		<g>
			<path d="M12.5,20c-0.276,0-0.5-0.224-0.5-0.5v-1c0-0.276,0.224-0.5,0.5-0.5s0.5,0.224,0.5,0.5v1C13,19.776,12.776,20,12.5,20z"/>
		</g>
	</g>
</g>
<g id="Building">
</g>
</svg>
