<?xml version="1.0" encoding="iso-8859-1"?>
<!-- Generator: Adobe Illustrator 19.2.1, SVG Export Plug-In . SVG Version: 6.00 Build 0)  -->
<svg version="1.1" xmlns="http://www.w3.org/2000/svg" xmlns:xlink="http://www.w3.org/1999/xlink" x="0px" y="0px"
	 viewBox="0 0 24 24" style="enable-background:new 0 0 24 24;" xml:space="preserve">
<g id="Cad_1">
</g>
<g id="Cad_2">
</g>
<g id="Cad_Pencil">
</g>
<g id="Cad_Compasses">
</g>
<g id="Tools_1">
</g>
<g id="Tools_2">
</g>
<g id="Ruler_1">
</g>
<g id="Ruler_2">
</g>
<g id="Workspace_1">
</g>
<g id="Workspace_2">
</g>
<g id="Cad_3">
</g>
<g id="_x33_D_Box">
</g>
<g id="Section_Symbol_1_">
</g>
<g id="Outlet_Symbol_1_">
</g>
<g id="Cad_File">
</g>
<g id="Blueprint">
</g>
<g id="Construction_Plan">
</g>
<g id="Roof_Plan">
</g>
<g id="House_Construction">
</g>
<g id="Building_Construction">
</g>
<g id="Work_Table">
</g>
<g id="Table_Cad">
</g>
<g id="House_Plan">
</g>
<g id="Tape_Measure">
</g>
<g id="Cad_Paper">
</g>
<g id="Cad_Papers">
</g>
<g id="Stairs">
	<g>
		<g>
			<path d="M23.5,23.125c-0.276,0-0.5-0.224-0.5-0.5v-11.5h-4v2.5c0,0.276-0.224,0.5-0.5,0.5H13v2.5c0,0.276-0.224,0.5-0.5,0.5H7
				v2.5c0,0.276-0.224,0.5-0.5,0.5H1v2.5c0,0.276-0.224,0.5-0.5,0.5S0,22.901,0,22.625v-3c0-0.276,0.224-0.5,0.5-0.5H6v-2.5
				c0-0.276,0.224-0.5,0.5-0.5H12v-2.5c0-0.276,0.224-0.5,0.5-0.5H18v-2.5c0-0.276,0.224-0.5,0.5-0.5h5c0.276,0,0.5,0.224,0.5,0.5
				v12C24,22.901,23.776,23.125,23.5,23.125z"/>
		</g>
		<g>
			<path d="M21.5,11.125c-0.276,0-0.5-0.224-0.5-0.5v-9c0-0.276,0.224-0.5,0.5-0.5s0.5,0.224,0.5,0.5v9
				C22,10.901,21.776,11.125,21.5,11.125z"/>
		</g>
		<g>
			<path d="M2.5,20.125c-0.276,0-0.5-0.224-0.5-0.5v-8c0-0.276,0.224-0.5,0.5-0.5s0.5,0.224,0.5,0.5v8
				C3,19.901,2.776,20.125,2.5,20.125z"/>
		</g>
		<g>
			<path d="M0.5,15.125c-0.276,0-0.5-0.224-0.5-0.5v-0.132c0-1.303,0.716-2.489,1.867-3.096L21.437,1.078
				c0.548-0.288,1.191-0.269,1.719,0.051C23.685,1.448,24,2.007,24,2.625c0,0.276-0.224,0.5-0.5,0.5S23,2.901,23,2.625
				c0-0.269-0.132-0.502-0.361-0.641c-0.23-0.138-0.498-0.146-0.735-0.021L2.334,12.282C1.511,12.716,1,13.563,1,14.493v0.132
				C1,14.901,0.776,15.125,0.5,15.125z"/>
		</g>
	</g>
</g>
<g id="Pillar">
</g>
<g id="Bricks">
</g>
<g id="Pantheon">
</g>
<g id="House">
</g>
<g id="Skyscraper_1_">
</g>
<g id="Building">
</g>
</svg>
