<?xml version="1.0" encoding="iso-8859-1"?>
<!-- Generator: Adobe Illustrator 19.2.1, SVG Export Plug-In . SVG Version: 6.00 Build 0)  -->
<svg version="1.1" xmlns="http://www.w3.org/2000/svg" xmlns:xlink="http://www.w3.org/1999/xlink" x="0px" y="0px"
	 viewBox="0 0 24 24" style="enable-background:new 0 0 24 24;" xml:space="preserve">
<g id="Cad_1">
</g>
<g id="Cad_2">
</g>
<g id="Cad_Pencil">
</g>
<g id="Cad_Compasses">
</g>
<g id="Tools_1">
</g>
<g id="Tools_2">
</g>
<g id="Ruler_1">
</g>
<g id="Ruler_2">
</g>
<g id="Workspace_1">
</g>
<g id="Workspace_2">
</g>
<g id="Cad_3">
</g>
<g id="_x33_D_Box">
</g>
<g id="Section_Symbol_1_">
</g>
<g id="Outlet_Symbol_1_">
</g>
<g id="Cad_File">
</g>
<g id="Blueprint">
</g>
<g id="Construction_Plan">
</g>
<g id="Roof_Plan">
</g>
<g id="House_Construction">
</g>
<g id="Building_Construction">
</g>
<g id="Work_Table">
</g>
<g id="Table_Cad">
	<g>
		<g>
			<path d="M22.5,13h-22c-0.161,0-0.312-0.077-0.406-0.208c-0.094-0.13-0.12-0.298-0.068-0.45l4-12C4.094,0.138,4.285,0,4.5,0h14
				c0.215,0,0.406,0.138,0.474,0.342l4,12c0.051,0.152,0.025,0.32-0.068,0.45C22.812,12.923,22.661,13,22.5,13z M1.194,12h20.612
				L18.14,1H4.86L1.194,12z"/>
		</g>
		<g>
			<path d="M5.5,24C5.224,24,5,23.776,5,23.5v-11C5,12.224,5.224,12,5.5,12S6,12.224,6,12.5v11C6,23.776,5.776,24,5.5,24z"/>
		</g>
		<g>
			<path d="M17.5,24c-0.276,0-0.5-0.224-0.5-0.5v-11c0-0.276,0.224-0.5,0.5-0.5s0.5,0.224,0.5,0.5v11C18,23.776,17.776,24,17.5,24z"
				/>
		</g>
		<g>
			<path d="M17.5,10h-12c-0.161,0-0.312-0.077-0.406-0.208C5,9.662,4.975,9.494,5.025,9.342l0.336-1.01
				c0.087-0.262,0.37-0.405,0.632-0.316c0.262,0.087,0.404,0.37,0.317,0.633L6.193,9h10.613L15.14,4H7.86L6.974,6.658
				C6.887,6.92,6.605,7.063,6.342,6.975C6.08,6.887,5.938,6.604,6.026,6.342l1-3C7.094,3.138,7.285,3,7.5,3h8
				c0.215,0,0.406,0.138,0.474,0.342l2,6c0.051,0.152,0.025,0.32-0.068,0.45C17.812,9.923,17.661,10,17.5,10z"/>
		</g>
		<g>
			<path d="M11.5,10C11.224,10,11,9.776,11,9.5v-1C11,8.224,11.224,8,11.5,8S12,8.224,12,8.5v1C12,9.776,11.776,10,11.5,10z"/>
		</g>
		<g>
			<path d="M11.5,7C11.224,7,11,6.776,11,6.5v-3C11,3.224,11.224,3,11.5,3S12,3.224,12,3.5v3C12,6.776,11.776,7,11.5,7z"/>
		</g>
		<g>
			<path d="M16.5,7h-2C14.224,7,14,6.776,14,6.5S14.224,6,14.5,6h2C16.776,6,17,6.224,17,6.5S16.776,7,16.5,7z"/>
		</g>
		<g>
			<path d="M12.5,7h-2C10.224,7,10,6.776,10,6.5S10.224,6,10.5,6h2C12.777,6,13,6.224,13,6.5S12.777,7,12.5,7z"/>
		</g>
		<g>
			<path d="M8.5,7h-2C6.224,7,6,6.776,6,6.5S6.224,6,6.5,6h2C8.776,6,9,6.224,9,6.5S8.776,7,8.5,7z"/>
		</g>
		<g>
			<path d="M17.5,19h-12C5.224,19,5,18.776,5,18.5S5.224,18,5.5,18h12c0.276,0,0.5,0.224,0.5,0.5S17.776,19,17.5,19z"/>
		</g>
	</g>
</g>
<g id="House_Plan">
</g>
<g id="Tape_Measure">
</g>
<g id="Cad_Paper">
</g>
<g id="Cad_Papers">
</g>
<g id="Stairs">
</g>
<g id="Pillar">
</g>
<g id="Bricks">
</g>
<g id="Pantheon">
</g>
<g id="House">
</g>
<g id="Skyscraper_1_">
</g>
<g id="Building">
</g>
</svg>
