<?xml version="1.0" encoding="iso-8859-1"?>
<!-- Generator: Adobe Illustrator 19.2.1, SVG Export Plug-In . SVG Version: 6.00 Build 0)  -->
<svg version="1.1" xmlns="http://www.w3.org/2000/svg" xmlns:xlink="http://www.w3.org/1999/xlink" x="0px" y="0px"
	 viewBox="0 0 24 24" style="enable-background:new 0 0 24 24;" xml:space="preserve">
<g id="Cad_1">
</g>
<g id="Cad_2">
</g>
<g id="Cad_Pencil">
</g>
<g id="Cad_Compasses">
</g>
<g id="Tools_1">
</g>
<g id="Tools_2">
</g>
<g id="Ruler_1">
</g>
<g id="Ruler_2">
</g>
<g id="Workspace_1">
</g>
<g id="Workspace_2">
</g>
<g id="Cad_3">
</g>
<g id="_x33_D_Box">
</g>
<g id="Section_Symbol_1_">
</g>
<g id="Outlet_Symbol_1_">
</g>
<g id="Cad_File">
</g>
<g id="Blueprint">
</g>
<g id="Construction_Plan">
</g>
<g id="Roof_Plan">
</g>
<g id="House_Construction">
</g>
<g id="Building_Construction">
</g>
<g id="Work_Table">
</g>
<g id="Table_Cad">
</g>
<g id="House_Plan">
</g>
<g id="Tape_Measure">
	<g>
		<g>
			<path d="M14.5,19h-7C3.364,19,0,15.636,0,11.5S3.364,4,7.5,4S15,7.364,15,11.5v7C15,18.776,14.776,19,14.5,19z M7.5,5
				C3.916,5,1,7.916,1,11.5S3.916,18,7.5,18H14v-6.5C14,7.916,11.084,5,7.5,5z"/>
		</g>
		<g>
			<path d="M23.5,20c-0.276,0-0.5-0.224-0.5-0.5V18h-8.5c-0.276,0-0.5-0.224-0.5-0.5s0.224-0.5,0.5-0.5h9c0.276,0,0.5,0.224,0.5,0.5
				v2C24,19.776,23.776,20,23.5,20z"/>
		</g>
		<g>
			<path d="M7.5,17C4.467,17,2,14.532,2,11.5S4.467,6,7.5,6S13,8.468,13,11.5S10.533,17,7.5,17z M7.5,7C5.019,7,3,9.019,3,11.5
				S5.019,16,7.5,16s4.5-2.019,4.5-4.5S9.981,7,7.5,7z"/>
		</g>
		<g>
			<path d="M16.5,14h-2c-0.276,0-0.5-0.224-0.5-0.5s0.224-0.5,0.5-0.5H16v-3h-1.5C14.224,10,14,9.776,14,9.5S14.224,9,14.5,9h2
				C16.776,9,17,9.224,17,9.5v4C17,13.776,16.776,14,16.5,14z"/>
		</g>
		<g>
			<path d="M7.5,14h-1C6.224,14,6,13.776,6,13.5S6.224,13,6.5,13h1C7.776,13,8,12.775,8,12.5S7.776,12,7.5,12h-1
				C6.224,12,6,11.776,6,11.5v-2C6,9.224,6.224,9,6.5,9h2C8.776,9,9,9.224,9,9.5S8.776,10,8.5,10H7v1h0.5C8.327,11,9,11.673,9,12.5
				S8.327,14,7.5,14z"/>
		</g>
	</g>
</g>
<g id="Cad_Paper">
</g>
<g id="Cad_Papers">
</g>
<g id="Stairs">
</g>
<g id="Pillar">
</g>
<g id="Bricks">
</g>
<g id="Pantheon">
</g>
<g id="House">
</g>
<g id="Skyscraper_1_">
</g>
<g id="Building">
</g>
</svg>
