<?xml version="1.0" encoding="iso-8859-1"?>
<!-- Generator: Adobe Illustrator 19.2.1, SVG Export Plug-In . SVG Version: 6.00 Build 0)  -->
<svg version="1.1" xmlns="http://www.w3.org/2000/svg" xmlns:xlink="http://www.w3.org/1999/xlink" x="0px" y="0px"
	 viewBox="0 0 24 24" style="enable-background:new 0 0 24 24;" xml:space="preserve">
<g id="Cad_1">
</g>
<g id="Cad_2">
</g>
<g id="Cad_Pencil">
</g>
<g id="Cad_Compasses">
</g>
<g id="Tools_1">
	<g>
		<g>
			<path d="M23.5,23.954h-23c-0.203,0-0.385-0.122-0.462-0.309c-0.078-0.187-0.034-0.402,0.109-0.545l23-22.908
				c0.144-0.143,0.358-0.184,0.545-0.107C23.878,0.162,24,0.344,24,0.546v22.908C24,23.73,23.776,23.954,23.5,23.954z M1.71,22.954
				H23V1.75L1.71,22.954z"/>
		</g>
		<g>
			<path d="M23.5,11.954h-1c-0.276,0-0.5-0.224-0.5-0.5s0.224-0.5,0.5-0.5h1c0.276,0,0.5,0.224,0.5,0.5S23.776,11.954,23.5,11.954z"
				/>
		</g>
		<g>
			<path d="M23.5,9.954h-1c-0.276,0-0.5-0.224-0.5-0.5s0.224-0.5,0.5-0.5h1c0.276,0,0.5,0.224,0.5,0.5S23.776,9.954,23.5,9.954z"/>
		</g>
		<g>
			<path d="M23.5,7.954h-1c-0.276,0-0.5-0.224-0.5-0.5s0.224-0.5,0.5-0.5h1c0.276,0,0.5,0.224,0.5,0.5S23.776,7.954,23.5,7.954z"/>
		</g>
		<g>
			<path d="M23.5,5.954h-1c-0.276,0-0.5-0.224-0.5-0.5s0.224-0.5,0.5-0.5h1c0.276,0,0.5,0.224,0.5,0.5S23.776,5.954,23.5,5.954z"/>
		</g>
		<g>
			<path d="M23.5,3.954h-1c-0.276,0-0.5-0.224-0.5-0.5s0.224-0.5,0.5-0.5h1c0.276,0,0.5,0.224,0.5,0.5S23.776,3.954,23.5,3.954z"/>
		</g>
		<g>
			<path d="M23.5,13.954h-1c-0.267,0-0.487-0.21-0.5-0.477c-0.012-0.267,0.187-0.496,0.453-0.521
				c1.134-0.105,1.241-0.007,1.378,0.117C23.935,13.167,24,13.313,24,13.454C24,13.73,23.776,13.954,23.5,13.954z"/>
		</g>
		<g>
			<path d="M23.5,15.954h-1c-0.276,0-0.5-0.224-0.5-0.5s0.224-0.5,0.5-0.5h1c0.276,0,0.5,0.224,0.5,0.5S23.776,15.954,23.5,15.954z"
				/>
		</g>
		<g>
			<path d="M23.5,17.954h-1c-0.276,0-0.5-0.224-0.5-0.5s0.224-0.5,0.5-0.5h1c0.276,0,0.5,0.224,0.5,0.5S23.776,17.954,23.5,17.954z"
				/>
		</g>
		<g>
			<path d="M23.5,19.954h-1c-0.276,0-0.5-0.224-0.5-0.5s0.224-0.5,0.5-0.5h1c0.276,0,0.5,0.224,0.5,0.5S23.776,19.954,23.5,19.954z"
				/>
		</g>
		<g>
			<path d="M23.5,21.954h-1c-0.276,0-0.5-0.224-0.5-0.5s0.224-0.5,0.5-0.5h1c0.276,0,0.5,0.224,0.5,0.5S23.776,21.954,23.5,21.954z"
				/>
		</g>
		<g>
			<path d="M19.5,19.954h-9c-0.202,0-0.385-0.122-0.462-0.309c-0.078-0.187-0.035-0.402,0.108-0.545l9-9
				c0.144-0.143,0.357-0.187,0.545-0.108C19.878,10.069,20,10.252,20,10.454v9C20,19.73,19.776,19.954,19.5,19.954z M11.707,18.954
				H19v-7.293L11.707,18.954z"/>
		</g>
	</g>
</g>
<g id="Tools_2">
</g>
<g id="Ruler_1">
</g>
<g id="Ruler_2">
</g>
<g id="Workspace_1">
</g>
<g id="Workspace_2">
</g>
<g id="Cad_3">
</g>
<g id="_x33_D_Box">
</g>
<g id="Section_Symbol_1_">
</g>
<g id="Outlet_Symbol_1_">
</g>
<g id="Cad_File">
</g>
<g id="Blueprint">
</g>
<g id="Construction_Plan">
</g>
<g id="Roof_Plan">
</g>
<g id="House_Construction">
</g>
<g id="Building_Construction">
</g>
<g id="Work_Table">
</g>
<g id="Table_Cad">
</g>
<g id="House_Plan">
</g>
<g id="Tape_Measure">
</g>
<g id="Cad_Paper">
</g>
<g id="Cad_Papers">
</g>
<g id="Stairs">
</g>
<g id="Pillar">
</g>
<g id="Bricks">
</g>
<g id="Pantheon">
</g>
<g id="House">
</g>
<g id="Skyscraper_1_">
</g>
<g id="Building">
</g>
</svg>
