<?xml version="1.0" encoding="iso-8859-1"?>
<!-- Generator: Adobe Illustrator 19.2.1, SVG Export Plug-In . SVG Version: 6.00 Build 0)  -->
<svg version="1.1" xmlns="http://www.w3.org/2000/svg" xmlns:xlink="http://www.w3.org/1999/xlink" x="0px" y="0px"
	 viewBox="0 0 24 24" style="enable-background:new 0 0 24 24;" xml:space="preserve">
<g id="Cad_1">
</g>
<g id="Cad_2">
</g>
<g id="Cad_Pencil">
</g>
<g id="Cad_Compasses">
</g>
<g id="Tools_1">
</g>
<g id="Tools_2">
	<g>
		<g>
			<path d="M23.5,21c-0.175,0-0.341-0.092-0.432-0.248L16.5,9.492l-1.606,2.754c-0.14,0.239-0.447,0.318-0.684,0.18
				c-0.238-0.139-0.319-0.445-0.18-0.684l2.038-3.495c0.178-0.308,0.684-0.308,0.863,0L23,18.65v-1.043L18.459,7.484
				c-0.113-0.252-0.001-0.548,0.251-0.661c0.251-0.114,0.548-0.001,0.661,0.251l4.585,10.22C23.985,17.36,24,17.43,24,17.5v3
				c0,0.226-0.151,0.424-0.369,0.483C23.587,20.995,23.543,21,23.5,21z"/>
		</g>
		<g>
			<path d="M12.446,11.495c-0.069,0-0.14-0.014-0.206-0.044c-0.252-0.114-0.363-0.41-0.249-0.662l1.666-3.679
				c0.113-0.252,0.412-0.363,0.661-0.25c0.252,0.114,0.363,0.41,0.249,0.662l-1.666,3.679
				C12.818,11.386,12.637,11.495,12.446,11.495z"/>
		</g>
		<g>
			<path d="M16.5,3C16.224,3,16,2.776,16,2.5v-2C16,0.224,16.224,0,16.5,0S17,0.224,17,0.5v2C17,2.776,16.776,3,16.5,3z"/>
		</g>
		<g>
			<path d="M18.5,24h-18C0.224,24,0,23.776,0,23.5v-4C0,19.224,0.224,19,0.5,19h1.517c0.258-3.903,3.516-7,7.483-7
				s7.226,3.097,7.483,7H18.5c0.276,0,0.5,0.224,0.5,0.5v4C19,23.776,18.776,24,18.5,24z M1,23h17v-3h-1.5
				c-0.276,0-0.5-0.224-0.5-0.5c0-3.584-2.916-6.5-6.5-6.5S3,15.916,3,19.5C3,19.776,2.776,20,2.5,20H1V23z M17,19.5h0.01H17z"/>
		</g>
		<g>
			<path d="M12.5,20h-6C6.224,20,6,19.776,6,19.5C6,17.57,7.57,16,9.5,16s3.5,1.57,3.5,3.5C13,19.776,12.776,20,12.5,20z M7.05,19
				h4.9c-0.232-1.14-1.243-2-2.45-2S7.282,17.86,7.05,19z"/>
		</g>
		<g>
			<path d="M16.5,9C14.57,9,13,7.43,13,5.5S14.57,2,16.5,2S20,3.57,20,5.5S18.43,9,16.5,9z M16.5,3C15.121,3,14,4.122,14,5.5
				S15.121,8,16.5,8S19,6.878,19,5.5S17.879,3,16.5,3z"/>
		</g>
		<g>
			<path d="M16.5,6.5c-0.552,0-1-0.449-1-1s0.448-1,1-1s1,0.449,1,1S17.052,6.5,16.5,6.5z M16.5,5.499C16.5,5.5,16.5,5.5,16.5,5.499
				L17,5.5L16.5,5.499z"/>
		</g>
		<g>
			<path d="M16.5,24h-14C2.224,24,2,23.776,2,23.5v-1C2,22.224,2.224,22,2.5,22S3,22.224,3,22.5V23h1v-1.5C4,21.224,4.224,21,4.5,21
				S5,21.224,5,21.5V23h1v-0.5C6,22.224,6.224,22,6.5,22S7,22.224,7,22.5V23h1v-0.5C8,22.224,8.224,22,8.5,22S9,22.224,9,22.5V23h1
				v-1.5c0-0.276,0.224-0.5,0.5-0.5s0.5,0.224,0.5,0.5V23h1v-0.5c0-0.276,0.224-0.5,0.5-0.5s0.5,0.224,0.5,0.5V23h1v-0.5
				c0-0.276,0.224-0.5,0.5-0.5s0.5,0.224,0.5,0.5V23h1v-1.5c0-0.276,0.224-0.5,0.5-0.5s0.5,0.224,0.5,0.5v2
				C17,23.776,16.776,24,16.5,24z"/>
		</g>
	</g>
</g>
<g id="Ruler_1">
</g>
<g id="Ruler_2">
</g>
<g id="Workspace_1">
</g>
<g id="Workspace_2">
</g>
<g id="Cad_3">
</g>
<g id="_x33_D_Box">
</g>
<g id="Section_Symbol_1_">
</g>
<g id="Outlet_Symbol_1_">
</g>
<g id="Cad_File">
</g>
<g id="Blueprint">
</g>
<g id="Construction_Plan">
</g>
<g id="Roof_Plan">
</g>
<g id="House_Construction">
</g>
<g id="Building_Construction">
</g>
<g id="Work_Table">
</g>
<g id="Table_Cad">
</g>
<g id="House_Plan">
</g>
<g id="Tape_Measure">
</g>
<g id="Cad_Paper">
</g>
<g id="Cad_Papers">
</g>
<g id="Stairs">
</g>
<g id="Pillar">
</g>
<g id="Bricks">
</g>
<g id="Pantheon">
</g>
<g id="House">
</g>
<g id="Skyscraper_1_">
</g>
<g id="Building">
</g>
</svg>
