<?xml version="1.0" encoding="iso-8859-1"?>
<!-- Generator: Adobe Illustrator 19.2.1, SVG Export Plug-In . SVG Version: 6.00 Build 0)  -->
<svg version="1.1" xmlns="http://www.w3.org/2000/svg" xmlns:xlink="http://www.w3.org/1999/xlink" x="0px" y="0px"
	 viewBox="0 0 24 24" style="enable-background:new 0 0 24 24;" xml:space="preserve">
<g id="Cad_1">
</g>
<g id="Cad_2">
</g>
<g id="Cad_Pencil">
</g>
<g id="Cad_Compasses">
</g>
<g id="Tools_1">
</g>
<g id="Tools_2">
</g>
<g id="Ruler_1">
</g>
<g id="Ruler_2">
</g>
<g id="Workspace_1">
</g>
<g id="Workspace_2">
</g>
<g id="Cad_3">
</g>
<g id="_x33_D_Box">
</g>
<g id="Section_Symbol_1_">
</g>
<g id="Outlet_Symbol_1_">
</g>
<g id="Cad_File">
</g>
<g id="Blueprint">
</g>
<g id="Construction_Plan">
</g>
<g id="Roof_Plan">
</g>
<g id="House_Construction">
</g>
<g id="Building_Construction">
</g>
<g id="Work_Table">
	<g>
		<g>
			<path d="M22.5,13h-22c-0.161,0-0.312-0.077-0.406-0.208c-0.094-0.13-0.12-0.298-0.068-0.45l4-12C4.094,0.138,4.285,0,4.5,0h14
				c0.215,0,0.406,0.138,0.474,0.342l4,12c0.051,0.152,0.025,0.32-0.068,0.45C22.812,12.923,22.661,13,22.5,13z M1.194,12h20.612
				L18.14,1H4.86L1.194,12z"/>
		</g>
		<g>
			<path d="M5.5,24C5.224,24,5,23.776,5,23.5v-11C5,12.224,5.224,12,5.5,12S6,12.224,6,12.5v11C6,23.776,5.776,24,5.5,24z"/>
		</g>
		<g>
			<path d="M17.5,24c-0.276,0-0.5-0.224-0.5-0.5v-11c0-0.276,0.224-0.5,0.5-0.5s0.5,0.224,0.5,0.5v11C18,23.776,17.776,24,17.5,24z"
				/>
		</g>
		<g>
			<path d="M17.5,19h-12C5.224,19,5,18.776,5,18.5S5.224,18,5.5,18h12c0.276,0,0.5,0.224,0.5,0.5S17.776,19,17.5,19z"/>
		</g>
		<g>
			<path d="M18.5,11h-5.764c-0.231,0-0.463-0.055-0.67-0.158l-1.789-0.895C10.107,9.862,10,9.689,10,9.5s0.107-0.362,0.276-0.447
				l1.789-0.895C12.272,8.055,12.504,8,12.736,8H18.5C18.776,8,19,8.224,19,8.5v2C19,10.776,18.776,11,18.5,11z M11.618,9.5
				l0.895,0.447C12.582,9.981,12.659,10,12.736,10H18V9h-5.264c-0.077,0-0.154,0.019-0.223,0.053L11.618,9.5z"/>
		</g>
		<g>
			<path d="M7.5,11h-3c-0.154,0-0.299-0.071-0.394-0.192s-0.128-0.279-0.091-0.429l2-8C6.071,2.156,6.271,2,6.5,2h3
				c0.154,0,0.299,0.071,0.394,0.192s0.128,0.279,0.091,0.429l-2,8C7.929,10.844,7.729,11,7.5,11z M5.141,10h1.969l1.75-7H6.891
				L5.141,10z"/>
		</g>
		<g>
			<path d="M8,9H6.5C6.224,9,6,8.776,6,8.5S6.224,8,6.5,8h1.109l0.25-1H7C6.724,7,6.5,6.776,6.5,6.5S6.724,6,7,6h1.109l0.25-1H7.5
				C7.224,5,7,4.776,7,4.5S7.224,4,7.5,4H9c0.154,0,0.299,0.071,0.394,0.192s0.128,0.279,0.091,0.429l-1,4C8.429,8.844,8.229,9,8,9z
				"/>
		</g>
	</g>
</g>
<g id="Table_Cad">
</g>
<g id="House_Plan">
</g>
<g id="Tape_Measure">
</g>
<g id="Cad_Paper">
</g>
<g id="Cad_Papers">
</g>
<g id="Stairs">
</g>
<g id="Pillar">
</g>
<g id="Bricks">
</g>
<g id="Pantheon">
</g>
<g id="House">
</g>
<g id="Skyscraper_1_">
</g>
<g id="Building">
</g>
</svg>
