<?xml version="1.0" encoding="iso-8859-1"?>
<!-- Generator: Adobe Illustrator 19.2.1, SVG Export Plug-In . SVG Version: 6.00 Build 0)  -->
<svg version="1.1" xmlns="http://www.w3.org/2000/svg" xmlns:xlink="http://www.w3.org/1999/xlink" x="0px" y="0px"
	 viewBox="0 0 24 24" style="enable-background:new 0 0 24 24;" xml:space="preserve">
<g id="Armchair_1">
</g>
<g id="Armchair_2">
</g>
<g id="Armchair_3">
	<g id="XMLID_65_">
		<g id="XMLID_66_">
			<path d="M12,21c-4.187,0-7-2.411-7-6c0-0.276,0.224-0.5,0.5-0.5S6,14.724,6,15c0,3.69,3.232,5,6,5s6-1.31,6-5
				c0-0.276,0.224-0.5,0.5-0.5S19,14.724,19,15C19,18.589,16.187,21,12,21z"/>
		</g>
		<g id="XMLID_67_">
			<path d="M20,22c-1.856,0-2-3.316-2-8c0-3.309-2.691-6-6-6s-6,2.691-6,6c0,4.684-0.144,8-2,8c-3.516,0-4-3.845-4-8
				C0,7.383,5.383,2,12,2s12,5.383,12,12C24,18.155,23.516,22,20,22z M12,7c3.86,0,7,3.14,7,7c0,2.095,0,7,1,7c2.159,0,3-1.962,3-7
				c0-6.065-4.935-11-11-11S1,7.935,1,14c0,5.038,0.841,7,3,7c1,0,1-4.905,1-7C5,10.14,8.14,7,12,7z"/>
		</g>
	</g>
</g>
<g id="Armchair_4">
</g>
<g id="Sofa_1">
</g>
<g id="Sofa_2">
</g>
<g id="Sofa_3">
</g>
<g id="Sofa_4">
</g>
<g id="Sofa_5">
</g>
<g id="Sofa_6">
</g>
<g id="Desk_1">
</g>
<g id="Desk_2">
</g>
<g id="Desk_3">
</g>
<g id="Lamp">
</g>
<g id="Bed_1">
</g>
<g id="Bunk_Beds">
</g>
<g id="Bed_2">
</g>
<g id="Bed_3">
</g>
<g id="Bed_4">
</g>
<g id="Bed_5">
</g>
<g id="Table_1">
</g>
<g id="Table_2">
</g>
<g id="Table_3">
</g>
<g id="Table_4">
</g>
<g id="Rug_1">
</g>
<g id="Rug_2">
</g>
<g id="Rug_3">
</g>
<g id="Tub_1">
</g>
<g id="Tub_2">
</g>
<g id="Jacuzzi">
</g>
<g id="Corner_Tub">
</g>
<g id="Shower_Tray">
</g>
<g id="Sink_1">
</g>
<g id="Sink_2">
</g>
<g id="Toilette">
</g>
<g id="Stove">
</g>
<g id="Kitchen_Sink">
</g>
<g id="Island">
</g>
<g id="Eat-in_Kitchen">
</g>
<g id="Tv_Stand">
</g>
</svg>
