<?xml version="1.0" encoding="iso-8859-1"?>
<!-- Generator: Adobe Illustrator 19.2.1, SVG Export Plug-In . SVG Version: 6.00 Build 0)  -->
<svg version="1.1" xmlns="http://www.w3.org/2000/svg" xmlns:xlink="http://www.w3.org/1999/xlink" x="0px" y="0px"
	 viewBox="0 0 24 24" style="enable-background:new 0 0 24 24;" xml:space="preserve">
<g id="Armchair_1">
	<g id="XMLID_55_">
		<g id="XMLID_56_">
			<path d="M12,9C7.892,9,4.372,8.608,2.142,8.28C0.901,8.097,0,7.056,0,5.805v-1.61c0-1.251,0.901-2.292,2.143-2.474
				C4.376,1.392,7.899,1,12,1c4.143,0,7.649,0.391,9.861,0.718C23.101,1.902,24,2.943,24,4.192v1.614c0,1.25-0.9,2.291-2.141,2.474
				C19.635,8.608,16.119,9,12,9z M12,2C7.747,2,4.089,2.445,2.288,2.71C1.542,2.82,1,3.444,1,4.195v1.61
				c0,0.75,0.542,1.375,1.288,1.485C4.484,7.614,7.953,8,12,8c4.058,0,7.522-0.386,9.713-0.709C22.458,7.181,23,6.556,23,5.806
				V4.192c0-0.75-0.541-1.375-1.286-1.485C19.536,2.385,16.082,2,12,2z"/>
		</g>
		<g id="XMLID_57_">
			<path d="M3.566,23H2.414c-0.951,0-1.771-0.729-1.909-1.696C0.261,19.59,0,17.51,0,14.5c0-3.18,0.311-5.36,0.516-6.803
				c0.03-0.216,0.1-0.431,0.208-0.639c0.125-0.246,0.428-0.343,0.673-0.215c0.246,0.126,0.342,0.428,0.215,0.673
				C1.556,7.625,1.521,7.73,1.506,7.837C1.304,9.253,1,11.391,1,14.5c0,2.944,0.255,4.983,0.495,6.663
				C1.564,21.648,1.951,22,2.414,22h1.152c0.463,0,0.85-0.352,0.919-0.836C4.705,19.631,5,17.569,5,14.5
				c0-2.892-0.264-4.86-0.457-6.298C4.506,7.929,4.698,7.677,4.972,7.64c0.272-0.039,0.525,0.156,0.562,0.429
				C5.731,9.535,6,11.542,6,14.5c0,3.141-0.313,5.33-0.521,6.778C5.335,22.287,4.532,23,3.566,23z"/>
		</g>
		<g id="XMLID_58_">
			<path d="M21.566,23h-1.153c-0.965,0-1.768-0.713-1.909-1.695C18.261,19.598,18,17.522,18,14.5c0-2.958,0.269-4.965,0.466-6.431
				c0.037-0.273,0.285-0.468,0.562-0.429c0.274,0.037,0.466,0.289,0.429,0.562C19.264,9.64,19,11.608,19,14.5
				c0,2.957,0.255,4.99,0.495,6.664C19.564,21.648,19.951,22,20.414,22h1.153c0.463,0,0.85-0.352,0.919-0.837
				C22.705,19.624,23,17.554,23,14.5c0-3.117-0.304-5.25-0.506-6.662c-0.015-0.108-0.05-0.213-0.106-0.322
				c-0.126-0.246-0.03-0.547,0.215-0.673c0.244-0.128,0.547-0.031,0.673,0.215c0.107,0.208,0.177,0.423,0.208,0.64
				C23.689,9.137,24,11.312,24,14.5c0,3.125-0.313,5.323-0.521,6.776C23.335,22.287,22.532,23,21.566,23z"/>
		</g>
		<g id="XMLID_59_">
			<path d="M12,23c-2.304,0-4.676-0.38-7.051-1.131c-0.264-0.083-0.41-0.364-0.326-0.627c0.083-0.263,0.366-0.41,0.627-0.326
				c4.568,1.442,8.973,1.436,13.519-0.003c0.266-0.084,0.544,0.063,0.627,0.326c0.083,0.263-0.063,0.544-0.326,0.627
				C16.694,22.619,14.315,23,12,23z"/>
		</g>
	</g>
</g>
<g id="Armchair_2">
</g>
<g id="Armchair_3">
</g>
<g id="Armchair_4">
</g>
<g id="Sofa_1">
</g>
<g id="Sofa_2">
</g>
<g id="Sofa_3">
</g>
<g id="Sofa_4">
</g>
<g id="Sofa_5">
</g>
<g id="Sofa_6">
</g>
<g id="Desk_1">
</g>
<g id="Desk_2">
</g>
<g id="Desk_3">
</g>
<g id="Lamp">
</g>
<g id="Bed_1">
</g>
<g id="Bunk_Beds">
</g>
<g id="Bed_2">
</g>
<g id="Bed_3">
</g>
<g id="Bed_4">
</g>
<g id="Bed_5">
</g>
<g id="Table_1">
</g>
<g id="Table_2">
</g>
<g id="Table_3">
</g>
<g id="Table_4">
</g>
<g id="Rug_1">
</g>
<g id="Rug_2">
</g>
<g id="Rug_3">
</g>
<g id="Tub_1">
</g>
<g id="Tub_2">
</g>
<g id="Jacuzzi">
</g>
<g id="Corner_Tub">
</g>
<g id="Shower_Tray">
</g>
<g id="Sink_1">
</g>
<g id="Sink_2">
</g>
<g id="Toilette">
</g>
<g id="Stove">
</g>
<g id="Kitchen_Sink">
</g>
<g id="Island">
</g>
<g id="Eat-in_Kitchen">
</g>
<g id="Tv_Stand">
</g>
</svg>
