<?xml version="1.0" encoding="iso-8859-1"?>
<!-- Generator: Adobe Illustrator 19.2.1, SVG Export Plug-In . SVG Version: 6.00 Build 0)  -->
<svg version="1.1" xmlns="http://www.w3.org/2000/svg" xmlns:xlink="http://www.w3.org/1999/xlink" x="0px" y="0px"
	 viewBox="0 0 24 24" style="enable-background:new 0 0 24 24;" xml:space="preserve">
<g id="Armchair_1">
</g>
<g id="Armchair_2">
	<g id="XMLID_60_">
		<g id="XMLID_61_">
			<path d="M3.5,23h-1C1.122,23,0,21.878,0,20.5v-14C0,6.224,0.224,6,0.5,6S1,6.224,1,6.5v14C1,21.327,1.673,22,2.5,22h1
				C4.327,22,5,21.327,5,20.5v-12C5,8.224,5.224,8,5.5,8S6,8.224,6,8.5v12C6,21.878,4.878,23,3.5,23z"/>
		</g>
		<g id="XMLID_62_">
			<path d="M21.5,23h-1c-1.378,0-2.5-1.122-2.5-2.5v-12C18,8.224,18.224,8,18.5,8S19,8.224,19,8.5v12c0,0.827,0.673,1.5,1.5,1.5h1
				c0.827,0,1.5-0.673,1.5-1.5v-14C23,6.224,23.224,6,23.5,6S24,6.224,24,6.5v14C24,21.878,22.878,23,21.5,23z"/>
		</g>
		<g id="XMLID_63_">
			<path d="M21.5,9h-19C1.122,9,0,7.878,0,6.5v-3C0,2.122,1.122,1,2.5,1h19C22.878,1,24,2.122,24,3.5v3C24,7.878,22.878,9,21.5,9z
				 M2.5,2C1.673,2,1,2.673,1,3.5v3C1,7.327,1.673,8,2.5,8h19C22.327,8,23,7.327,23,6.5v-3C23,2.673,22.327,2,21.5,2H2.5z"/>
		</g>
		<g id="XMLID_64_">
			<path d="M18.5,22h-13C5.224,22,5,21.776,5,21.5S5.224,21,5.5,21h13c0.276,0,0.5,0.224,0.5,0.5S18.776,22,18.5,22z"/>
		</g>
	</g>
</g>
<g id="Armchair_3">
</g>
<g id="Armchair_4">
</g>
<g id="Sofa_1">
</g>
<g id="Sofa_2">
</g>
<g id="Sofa_3">
</g>
<g id="Sofa_4">
</g>
<g id="Sofa_5">
</g>
<g id="Sofa_6">
</g>
<g id="Desk_1">
</g>
<g id="Desk_2">
</g>
<g id="Desk_3">
</g>
<g id="Lamp">
</g>
<g id="Bed_1">
</g>
<g id="Bunk_Beds">
</g>
<g id="Bed_2">
</g>
<g id="Bed_3">
</g>
<g id="Bed_4">
</g>
<g id="Bed_5">
</g>
<g id="Table_1">
</g>
<g id="Table_2">
</g>
<g id="Table_3">
</g>
<g id="Table_4">
</g>
<g id="Rug_1">
</g>
<g id="Rug_2">
</g>
<g id="Rug_3">
</g>
<g id="Tub_1">
</g>
<g id="Tub_2">
</g>
<g id="Jacuzzi">
</g>
<g id="Corner_Tub">
</g>
<g id="Shower_Tray">
</g>
<g id="Sink_1">
</g>
<g id="Sink_2">
</g>
<g id="Toilette">
</g>
<g id="Stove">
</g>
<g id="Kitchen_Sink">
</g>
<g id="Island">
</g>
<g id="Eat-in_Kitchen">
</g>
<g id="Tv_Stand">
</g>
</svg>
