<?xml version="1.0" encoding="iso-8859-1"?>
<!-- Generator: Adobe Illustrator 19.2.1, SVG Export Plug-In . SVG Version: 6.00 Build 0)  -->
<svg version="1.1" xmlns="http://www.w3.org/2000/svg" xmlns:xlink="http://www.w3.org/1999/xlink" x="0px" y="0px"
	 viewBox="0 0 24 24" style="enable-background:new 0 0 24 24;" xml:space="preserve">
<g id="Armchair_1">
</g>
<g id="Armchair_2">
</g>
<g id="Armchair_3">
</g>
<g id="Armchair_4">
	<g id="XMLID_68_">
		<g id="XMLID_69_">
			<path d="M23.5,9h-23C0.224,9,0,8.776,0,8.5v-6C0,1.673,0.673,1,1.5,1h21C23.327,1,24,1.673,24,2.5v6C24,8.776,23.776,9,23.5,9z
				 M1,8h22V2.5C23,2.224,22.776,2,22.5,2h-21C1.224,2,1,2.224,1,2.5V8z"/>
		</g>
		<g id="XMLID_70_">
			<path d="M4.5,22h-3C0.673,22,0,21.327,0,20.5v-12C0,8.224,0.224,8,0.5,8h5C5.776,8,6,8.224,6,8.5v12C6,21.327,5.327,22,4.5,22z
				 M1,9v11.5C1,20.776,1.224,21,1.5,21h3C4.776,21,5,20.776,5,20.5V9H1z"/>
		</g>
		<g id="XMLID_71_">
			<path d="M22.5,22h-3c-0.827,0-1.5-0.673-1.5-1.5v-12C18,8.224,18.224,8,18.5,8h5C23.776,8,24,8.224,24,8.5v12
				C24,21.327,23.327,22,22.5,22z M19,9v11.5c0,0.276,0.224,0.5,0.5,0.5h3c0.276,0,0.5-0.224,0.5-0.5V9H19z"/>
		</g>
		<g id="XMLID_72_">
			<path d="M17.5,23h-11C5.673,23,5,22.327,5,21.5v-1C5,20.224,5.224,20,5.5,20S6,20.224,6,20.5v1C6,21.776,6.224,22,6.5,22h11
				c0.276,0,0.5-0.224,0.5-0.5v-1c0-0.276,0.224-0.5,0.5-0.5s0.5,0.224,0.5,0.5v1C19,22.327,18.327,23,17.5,23z"/>
		</g>
	</g>
</g>
<g id="Sofa_1">
</g>
<g id="Sofa_2">
</g>
<g id="Sofa_3">
</g>
<g id="Sofa_4">
</g>
<g id="Sofa_5">
</g>
<g id="Sofa_6">
</g>
<g id="Desk_1">
</g>
<g id="Desk_2">
</g>
<g id="Desk_3">
</g>
<g id="Lamp">
</g>
<g id="Bed_1">
</g>
<g id="Bunk_Beds">
</g>
<g id="Bed_2">
</g>
<g id="Bed_3">
</g>
<g id="Bed_4">
</g>
<g id="Bed_5">
</g>
<g id="Table_1">
</g>
<g id="Table_2">
</g>
<g id="Table_3">
</g>
<g id="Table_4">
</g>
<g id="Rug_1">
</g>
<g id="Rug_2">
</g>
<g id="Rug_3">
</g>
<g id="Tub_1">
</g>
<g id="Tub_2">
</g>
<g id="Jacuzzi">
</g>
<g id="Corner_Tub">
</g>
<g id="Shower_Tray">
</g>
<g id="Sink_1">
</g>
<g id="Sink_2">
</g>
<g id="Toilette">
</g>
<g id="Stove">
</g>
<g id="Kitchen_Sink">
</g>
<g id="Island">
</g>
<g id="Eat-in_Kitchen">
</g>
<g id="Tv_Stand">
</g>
</svg>
