<?xml version="1.0" encoding="iso-8859-1"?>
<!-- Generator: Adobe Illustrator 19.2.1, SVG Export Plug-In . SVG Version: 6.00 Build 0)  -->
<svg version="1.1" xmlns="http://www.w3.org/2000/svg" xmlns:xlink="http://www.w3.org/1999/xlink" x="0px" y="0px"
	 viewBox="0 0 24 24" style="enable-background:new 0 0 24 24;" xml:space="preserve">
<g id="Armchair_1">
</g>
<g id="Armchair_2">
</g>
<g id="Armchair_3">
</g>
<g id="Armchair_4">
</g>
<g id="Sofa_1">
</g>
<g id="Sofa_2">
</g>
<g id="Sofa_3">
</g>
<g id="Sofa_4">
</g>
<g id="Sofa_5">
</g>
<g id="Sofa_6">
</g>
<g id="Desk_1">
</g>
<g id="Desk_2">
</g>
<g id="Desk_3">
</g>
<g id="Lamp">
</g>
<g id="Bed_1">
</g>
<g id="Bunk_Beds">
</g>
<g id="Bed_2">
</g>
<g id="Bed_3">
</g>
<g id="Bed_4">
</g>
<g id="Bed_5">
	<g id="XMLID_156_">
		<path d="M9.5,7h-6C2.673,7,2,6.327,2,5.5v-4C2,0.673,2.673,0,3.5,0h6C10.327,0,11,0.673,11,1.5v4C11,6.327,10.327,7,9.5,7z M3.5,1
			C3.225,1,3,1.224,3,1.5v4C3,5.776,3.225,6,3.5,6h6C9.775,6,10,5.776,10,5.5v-4C10,1.224,9.775,1,9.5,1H3.5z"/>
	</g>
	<g id="XMLID_154_">
		<path d="M19.5,7h-6C12.673,7,12,6.327,12,5.5v-4C12,0.673,12.673,0,13.5,0h6C20.327,0,21,0.673,21,1.5v4C21,6.327,20.327,7,19.5,7
			z M13.5,1C13.225,1,13,1.224,13,1.5v4C13,5.776,13.225,6,13.5,6h6C19.775,6,20,5.776,20,5.5v-4C20,1.224,19.775,1,19.5,1H13.5z"/>
	</g>
	<g>
		<path d="M20.5,24h-18C1.673,24,1,23.327,1,22.5v-13C1,8.673,1.673,8,2.5,8h18C21.327,8,22,8.673,22,9.5v13
			C22,23.327,21.327,24,20.5,24z M2.5,9C2.225,9,2,9.224,2,9.5v13C2,22.776,2.225,23,2.5,23h18c0.275,0,0.5-0.224,0.5-0.5v-13
			C21,9.224,20.775,9,20.5,9H2.5z"/>
	</g>
</g>
<g id="Table_1">
</g>
<g id="Table_2">
</g>
<g id="Table_3">
</g>
<g id="Table_4">
</g>
<g id="Rug_1">
</g>
<g id="Rug_2">
</g>
<g id="Rug_3">
</g>
<g id="Tub_1">
</g>
<g id="Tub_2">
</g>
<g id="Jacuzzi">
</g>
<g id="Corner_Tub">
</g>
<g id="Shower_Tray">
</g>
<g id="Sink_1">
</g>
<g id="Sink_2">
</g>
<g id="Toilette">
</g>
<g id="Stove">
</g>
<g id="Kitchen_Sink">
</g>
<g id="Island">
</g>
<g id="Eat-in_Kitchen">
</g>
<g id="Tv_Stand">
</g>
</svg>
