<?xml version="1.0" encoding="iso-8859-1"?>
<!-- Generator: Adobe Illustrator 19.2.1, SVG Export Plug-In . SVG Version: 6.00 Build 0)  -->
<svg version="1.1" xmlns="http://www.w3.org/2000/svg" xmlns:xlink="http://www.w3.org/1999/xlink" x="0px" y="0px"
	 viewBox="0 0 24 24" style="enable-background:new 0 0 24 24;" xml:space="preserve">
<g id="Armchair_1">
</g>
<g id="Armchair_2">
</g>
<g id="Armchair_3">
</g>
<g id="Armchair_4">
</g>
<g id="Sofa_1">
</g>
<g id="Sofa_2">
</g>
<g id="Sofa_3">
</g>
<g id="Sofa_4">
</g>
<g id="Sofa_5">
</g>
<g id="Sofa_6">
</g>
<g id="Desk_1">
</g>
<g id="Desk_2">
</g>
<g id="Desk_3">
</g>
<g id="Lamp">
</g>
<g id="Bed_1">
</g>
<g id="Bunk_Beds">
</g>
<g id="Bed_2">
</g>
<g id="Bed_3">
</g>
<g id="Bed_4">
	<g id="XMLID_147_">
		<g id="XMLID_148_">
			<path d="M18.5,21h-14C4.224,21,4,20.776,4,20.5v-17C4,3.224,4.224,3,4.5,3h14C18.776,3,19,3.224,19,3.5v17
				C19,20.776,18.776,21,18.5,21z M5,20h13V4H5V20z"/>
		</g>
		<g id="XMLID_149_">
			<path d="M4.5,8h-4C0.224,8,0,7.776,0,7.5v-4C0,3.224,0.224,3,0.5,3h4C4.776,3,5,3.224,5,3.5v4C5,7.776,4.776,8,4.5,8z M1,7h3V4H1
				V7z"/>
		</g>
		<g id="XMLID_150_">
			<path d="M22.5,8h-4C18.224,8,18,7.776,18,7.5v-4C18,3.224,18.224,3,18.5,3h4C22.776,3,23,3.224,23,3.5v4
				C23,7.776,22.776,8,22.5,8z M19,7h3V4h-3V7z"/>
		</g>
		<g id="XMLID_151_">
			<path d="M16.5,19h-10C6.224,19,6,18.776,6,18.5v-8C6,10.224,6.224,10,6.5,10h10c0.276,0,0.5,0.224,0.5,0.5v8
				C17,18.776,16.776,19,16.5,19z M7,18h9v-7H7V18z"/>
		</g>
		<g id="XMLID_152_">
			<path d="M10.5,9h-3C6.673,9,6,8.327,6,7.5v-1C6,5.673,6.673,5,7.5,5h3C11.327,5,12,5.673,12,6.5v1C12,8.327,11.327,9,10.5,9z
				 M7.5,6C7.225,6,7,6.224,7,6.5v1C7,7.776,7.225,8,7.5,8h3C10.775,8,11,7.776,11,7.5v-1C11,6.224,10.775,6,10.5,6H7.5z"/>
		</g>
		<g id="XMLID_153_">
			<path d="M15.5,9h-3C11.673,9,11,8.327,11,7.5v-1C11,5.673,11.673,5,12.5,5h3C16.327,5,17,5.673,17,6.5v1
				C17,8.327,16.327,9,15.5,9z M12.5,6C12.225,6,12,6.224,12,6.5v1C12,7.776,12.225,8,12.5,8h3C15.775,8,16,7.776,16,7.5v-1
				C16,6.224,15.775,6,15.5,6H12.5z"/>
		</g>
	</g>
</g>
<g id="Bed_5">
</g>
<g id="Table_1">
</g>
<g id="Table_2">
</g>
<g id="Table_3">
</g>
<g id="Table_4">
</g>
<g id="Rug_1">
</g>
<g id="Rug_2">
</g>
<g id="Rug_3">
</g>
<g id="Tub_1">
</g>
<g id="Tub_2">
</g>
<g id="Jacuzzi">
</g>
<g id="Corner_Tub">
</g>
<g id="Shower_Tray">
</g>
<g id="Sink_1">
</g>
<g id="Sink_2">
</g>
<g id="Toilette">
</g>
<g id="Stove">
</g>
<g id="Kitchen_Sink">
</g>
<g id="Island">
</g>
<g id="Eat-in_Kitchen">
</g>
<g id="Tv_Stand">
</g>
</svg>
