<?xml version="1.0" encoding="iso-8859-1"?>
<!-- Generator: Adobe Illustrator 19.2.1, SVG Export Plug-In . SVG Version: 6.00 Build 0)  -->
<svg version="1.1" xmlns="http://www.w3.org/2000/svg" xmlns:xlink="http://www.w3.org/1999/xlink" x="0px" y="0px"
	 viewBox="0 0 24 24" style="enable-background:new 0 0 24 24;" xml:space="preserve">
<g id="Armchair_1">
</g>
<g id="Armchair_2">
</g>
<g id="Armchair_3">
</g>
<g id="Armchair_4">
</g>
<g id="Sofa_1">
</g>
<g id="Sofa_2">
</g>
<g id="Sofa_3">
</g>
<g id="Sofa_4">
</g>
<g id="Sofa_5">
</g>
<g id="Sofa_6">
</g>
<g id="Desk_1">
</g>
<g id="Desk_2">
</g>
<g id="Desk_3">
</g>
<g id="Lamp">
</g>
<g id="Bed_1">
</g>
<g id="Bunk_Beds">
</g>
<g id="Bed_2">
	<g id="XMLID_134_">
		<g id="XMLID_135_">
			<path d="M21.5,24h-11C9.673,24,9,23.327,9,22.5v-21C9,0.673,9.673,0,10.5,0h11C22.327,0,23,0.673,23,1.5v21
				C23,23.327,22.327,24,21.5,24z M10.5,1C10.225,1,10,1.224,10,1.5v21c0,0.276,0.225,0.5,0.5,0.5h11c0.275,0,0.5-0.224,0.5-0.5v-21
				C22,1.224,21.775,1,21.5,1H10.5z"/>
		</g>
		<g id="XMLID_136_">
			<path d="M8.5,9h-6C1.673,9,1,8.327,1,7.5v-6C1,0.673,1.673,0,2.5,0h6C9.327,0,10,0.673,10,1.5v6C10,8.327,9.327,9,8.5,9z M2.5,1
				C2.225,1,2,1.224,2,1.5v6C2,7.776,2.225,8,2.5,8h6C8.775,8,9,7.776,9,7.5v-6C9,1.224,8.775,1,8.5,1H2.5z"/>
		</g>
		<g id="XMLID_137_">
			<path d="M22.5,3h-13C9.224,3,9,2.776,9,2.5S9.224,2,9.5,2h13C22.776,2,23,2.224,23,2.5S22.776,3,22.5,3z"/>
		</g>
		<g id="XMLID_138_">
			<path d="M18.5,10h-5C12.121,10,11,8.878,11,7.5v-1C11,5.122,12.121,4,13.5,4h5C19.879,4,21,5.122,21,6.5v1
				C21,8.878,19.879,10,18.5,10z M13.5,5C12.673,5,12,5.673,12,6.5v1C12,8.327,12.673,9,13.5,9h5C19.327,9,20,8.327,20,7.5v-1
				C20,5.673,19.327,5,18.5,5H13.5z"/>
		</g>
		<g id="XMLID_139_">
			<path d="M20.5,22h-9c-0.276,0-0.5-0.224-0.5-0.5v-12C11,9.224,11.224,9,11.5,9h9C20.776,9,21,9.224,21,9.5v12
				C21,21.776,20.776,22,20.5,22z M12,21h8V10h-8V21z"/>
		</g>
		<g id="XMLID_140_">
			<path d="M5.5,7C4.121,7,3,5.878,3,4.5S4.121,2,5.5,2S8,3.122,8,4.5S6.879,7,5.5,7z M5.5,3C4.673,3,4,3.673,4,4.5S4.673,6,5.5,6
				S7,5.327,7,4.5S6.327,3,5.5,3z"/>
		</g>
		<g id="XMLID_141_">
			<circle cx="5.5" cy="4.5" r="0.5"/>
		</g>
	</g>
</g>
<g id="Bed_3">
</g>
<g id="Bed_4">
</g>
<g id="Bed_5">
</g>
<g id="Table_1">
</g>
<g id="Table_2">
</g>
<g id="Table_3">
</g>
<g id="Table_4">
</g>
<g id="Rug_1">
</g>
<g id="Rug_2">
</g>
<g id="Rug_3">
</g>
<g id="Tub_1">
</g>
<g id="Tub_2">
</g>
<g id="Jacuzzi">
</g>
<g id="Corner_Tub">
</g>
<g id="Shower_Tray">
</g>
<g id="Sink_1">
</g>
<g id="Sink_2">
</g>
<g id="Toilette">
</g>
<g id="Stove">
</g>
<g id="Kitchen_Sink">
</g>
<g id="Island">
</g>
<g id="Eat-in_Kitchen">
</g>
<g id="Tv_Stand">
</g>
</svg>
