<?xml version="1.0" encoding="iso-8859-1"?>
<!-- Generator: Adobe Illustrator 19.2.1, SVG Export Plug-In . SVG Version: 6.00 Build 0)  -->
<svg version="1.1" xmlns="http://www.w3.org/2000/svg" xmlns:xlink="http://www.w3.org/1999/xlink" x="0px" y="0px"
	 viewBox="0 0 24 24" style="enable-background:new 0 0 24 24;" xml:space="preserve">
<g id="Armchair_1">
</g>
<g id="Armchair_2">
</g>
<g id="Armchair_3">
</g>
<g id="Armchair_4">
</g>
<g id="Sofa_1">
</g>
<g id="Sofa_2">
</g>
<g id="Sofa_3">
</g>
<g id="Sofa_4">
</g>
<g id="Sofa_5">
</g>
<g id="Sofa_6">
</g>
<g id="Desk_1">
</g>
<g id="Desk_2">
</g>
<g id="Desk_3">
</g>
<g id="Lamp">
</g>
<g id="Bed_1">
</g>
<g id="Bunk_Beds">
	<g id="XMLID_128_">
		<g id="XMLID_129_">
			<path d="M19.5,24h-11C7.673,24,7,23.327,7,22.5v-21C7,0.673,7.673,0,8.5,0h11C20.327,0,21,0.673,21,1.5v21
				C21,23.327,20.327,24,19.5,24z M8.5,1C8.225,1,8,1.224,8,1.5v21C8,22.776,8.225,23,8.5,23h11c0.275,0,0.5-0.224,0.5-0.5v-21
				C20,1.224,19.775,1,19.5,1H8.5z"/>
		</g>
		<g id="XMLID_130_">
			<path d="M16.5,8h-5C10.121,8,9,6.878,9,5.5v-1C9,3.122,10.121,2,11.5,2h5C17.879,2,19,3.122,19,4.5v1C19,6.878,17.879,8,16.5,8z
				 M11.5,3C10.673,3,10,3.673,10,4.5v1C10,6.327,10.673,7,11.5,7h5C17.327,7,18,6.327,18,5.5v-1C18,3.673,17.327,3,16.5,3H11.5z"/>
		</g>
		<g id="XMLID_131_">
			<path d="M18.5,22h-9C9.224,22,9,21.776,9,21.5v-14C9,7.224,9.224,7,9.5,7h9C18.776,7,19,7.224,19,7.5v14
				C19,21.776,18.776,22,18.5,22z M10,21h8V8h-8V21z"/>
		</g>
		<g id="XMLID_132_">
			<path d="M8,20H3.5C3.224,20,3,19.776,3,19.5v-6C3,13.224,3.224,13,3.5,13H8c0.276,0,0.5,0.224,0.5,0.5S8.276,14,8,14H4v5h4
				c0.276,0,0.5,0.224,0.5,0.5S8.276,20,8,20z"/>
		</g>
		<g id="XMLID_133_">
			<path d="M5.5,20C5.224,20,5,19.776,5,19.5v-6C5,13.224,5.224,13,5.5,13S6,13.224,6,13.5v6C6,19.776,5.776,20,5.5,20z"/>
		</g>
	</g>
</g>
<g id="Bed_2">
</g>
<g id="Bed_3">
</g>
<g id="Bed_4">
</g>
<g id="Bed_5">
</g>
<g id="Table_1">
</g>
<g id="Table_2">
</g>
<g id="Table_3">
</g>
<g id="Table_4">
</g>
<g id="Rug_1">
</g>
<g id="Rug_2">
</g>
<g id="Rug_3">
</g>
<g id="Tub_1">
</g>
<g id="Tub_2">
</g>
<g id="Jacuzzi">
</g>
<g id="Corner_Tub">
</g>
<g id="Shower_Tray">
</g>
<g id="Sink_1">
</g>
<g id="Sink_2">
</g>
<g id="Toilette">
</g>
<g id="Stove">
</g>
<g id="Kitchen_Sink">
</g>
<g id="Island">
</g>
<g id="Eat-in_Kitchen">
</g>
<g id="Tv_Stand">
</g>
</svg>
