<?xml version="1.0" encoding="iso-8859-1"?>
<!-- Generator: Adobe Illustrator 19.2.1, SVG Export Plug-In . SVG Version: 6.00 Build 0)  -->
<svg version="1.1" xmlns="http://www.w3.org/2000/svg" xmlns:xlink="http://www.w3.org/1999/xlink" x="0px" y="0px"
	 viewBox="0 0 24 24" style="enable-background:new 0 0 24 24;" xml:space="preserve">
<g id="Armchair_1">
</g>
<g id="Armchair_2">
</g>
<g id="Armchair_3">
</g>
<g id="Armchair_4">
</g>
<g id="Sofa_1">
</g>
<g id="Sofa_2">
</g>
<g id="Sofa_3">
</g>
<g id="Sofa_4">
</g>
<g id="Sofa_5">
</g>
<g id="Sofa_6">
</g>
<g id="Desk_1">
</g>
<g id="Desk_2">
</g>
<g id="Desk_3">
</g>
<g id="Lamp">
</g>
<g id="Bed_1">
</g>
<g id="Bunk_Beds">
</g>
<g id="Bed_2">
</g>
<g id="Bed_3">
</g>
<g id="Bed_4">
</g>
<g id="Bed_5">
</g>
<g id="Table_1">
</g>
<g id="Table_2">
</g>
<g id="Table_3">
</g>
<g id="Table_4">
</g>
<g id="Rug_1">
</g>
<g id="Rug_2">
</g>
<g id="Rug_3">
</g>
<g id="Tub_1">
</g>
<g id="Tub_2">
</g>
<g id="Jacuzzi">
</g>
<g id="Corner_Tub">
	<g id="XMLID_299_">
		<g id="XMLID_300_">
			<path d="M22.506,23.989c-0.021,0-0.043-0.001-0.064-0.001c-12.048-0.529-21.9-10.381-22.429-22.43
				c-0.018-0.402,0.127-0.786,0.409-1.08c0.284-0.297,0.683-0.468,1.093-0.468h21.975c0.276,0,0.5,0.224,0.5,0.5v21.975
				c0,0.41-0.17,0.809-0.467,1.093C23.244,23.845,22.885,23.989,22.506,23.989z M1.515,1.011c-0.139,0-0.274,0.058-0.371,0.159
				C1.053,1.265,1.005,1.388,1.011,1.515c0,0,0,0,0,0.001c0.506,11.535,9.939,20.967,21.474,21.473
				c0.129,0.019,0.25-0.041,0.346-0.133c0.101-0.097,0.159-0.231,0.159-0.37V1.011H1.515z"/>
		</g>
		<g id="XMLID_301_">
			<path d="M18.488,20.281c-0.234,0-0.471-0.033-0.704-0.101C11.104,18.246,5.753,12.896,3.82,6.215
				C3.599,5.451,3.746,4.647,4.225,4.011c0.478-0.636,1.208-1,2.001-1h12.263c1.378,0,2.5,1.121,2.5,2.5v12.264
				c0,0.794-0.365,1.523-1,2.001C19.546,20.108,19.022,20.281,18.488,20.281z M6.226,4.011c-0.477,0-0.915,0.219-1.202,0.602
				C4.736,4.995,4.647,5.478,4.781,5.938c1.838,6.354,6.927,11.443,13.282,13.282c0.459,0.135,0.942,0.045,1.326-0.244
				c0.382-0.287,0.601-0.725,0.601-1.201V5.511c0-0.827-0.673-1.5-1.5-1.5H6.226z"/>
		</g>
		<g id="XMLID_302_">
			<circle cx="18.489" cy="5.511" r="0.5"/>
		</g>
	</g>
</g>
<g id="Shower_Tray">
</g>
<g id="Sink_1">
</g>
<g id="Sink_2">
</g>
<g id="Toilette">
</g>
<g id="Stove">
</g>
<g id="Kitchen_Sink">
</g>
<g id="Island">
</g>
<g id="Eat-in_Kitchen">
</g>
<g id="Tv_Stand">
</g>
</svg>
