<?xml version="1.0" encoding="iso-8859-1"?>
<!-- Generator: Adobe Illustrator 19.2.1, SVG Export Plug-In . SVG Version: 6.00 Build 0)  -->
<svg version="1.1" xmlns="http://www.w3.org/2000/svg" xmlns:xlink="http://www.w3.org/1999/xlink" x="0px" y="0px"
	 viewBox="0 0 24 24" style="enable-background:new 0 0 24 24;" xml:space="preserve">
<g id="Armchair_1">
</g>
<g id="Armchair_2">
</g>
<g id="Armchair_3">
</g>
<g id="Armchair_4">
</g>
<g id="Sofa_1">
</g>
<g id="Sofa_2">
</g>
<g id="Sofa_3">
</g>
<g id="Sofa_4">
</g>
<g id="Sofa_5">
</g>
<g id="Sofa_6">
</g>
<g id="Desk_1">
</g>
<g id="Desk_2">
</g>
<g id="Desk_3">
	<g id="XMLID_100_">
		<g id="XMLID_101_">
			<path d="M23.5,21h-7c-0.276,0-0.5-0.224-0.5-0.5v-7c0-0.827-0.673-1.5-1.5-1.5h-14C0.224,12,0,11.776,0,11.5v-9
				C0,2.224,0.224,2,0.5,2h23C23.776,2,24,2.224,24,2.5v18C24,20.776,23.776,21,23.5,21z M17,20h6V3H1v8h13.5
				c1.378,0,2.5,1.122,2.5,2.5V20z"/>
		</g>
		<g id="XMLID_102_">
			<path d="M10.5,22h-5C4.122,22,3,20.878,3,19.5v-4C3,14.673,3.673,14,4.5,14S6,14.673,6,15.5v3C6,18.776,6.224,19,6.5,19h3
				c0.276,0,0.5-0.224,0.5-0.5v-3c0-0.827,0.673-1.5,1.5-1.5s1.5,0.673,1.5,1.5v4C13,20.878,11.878,22,10.5,22z M4.5,15
				C4.224,15,4,15.224,4,15.5v4C4,20.327,4.673,21,5.5,21h5c0.827,0,1.5-0.673,1.5-1.5v-4c0-0.276-0.224-0.5-0.5-0.5
				S11,15.224,11,15.5v3c0,0.827-0.673,1.5-1.5,1.5h-3C5.673,20,5,19.327,5,18.5v-3C5,15.224,4.776,15,4.5,15z"/>
		</g>
		<g id="XMLID_103_">
			<path d="M10.5,16h-5C5.224,16,5,15.776,5,15.5S5.224,15,5.5,15h5c0.276,0,0.5,0.224,0.5,0.5S10.776,16,10.5,16z"/>
		</g>
	</g>
</g>
<g id="Lamp">
</g>
<g id="Bed_1">
</g>
<g id="Bunk_Beds">
</g>
<g id="Bed_2">
</g>
<g id="Bed_3">
</g>
<g id="Bed_4">
</g>
<g id="Bed_5">
</g>
<g id="Table_1">
</g>
<g id="Table_2">
</g>
<g id="Table_3">
</g>
<g id="Table_4">
</g>
<g id="Rug_1">
</g>
<g id="Rug_2">
</g>
<g id="Rug_3">
</g>
<g id="Tub_1">
</g>
<g id="Tub_2">
</g>
<g id="Jacuzzi">
</g>
<g id="Corner_Tub">
</g>
<g id="Shower_Tray">
</g>
<g id="Sink_1">
</g>
<g id="Sink_2">
</g>
<g id="Toilette">
</g>
<g id="Stove">
</g>
<g id="Kitchen_Sink">
</g>
<g id="Island">
</g>
<g id="Eat-in_Kitchen">
</g>
<g id="Tv_Stand">
</g>
</svg>
