<?xml version="1.0" encoding="iso-8859-1"?>
<!-- Generator: Adobe Illustrator 19.2.1, SVG Export Plug-In . SVG Version: 6.00 Build 0)  -->
<svg version="1.1" xmlns="http://www.w3.org/2000/svg" xmlns:xlink="http://www.w3.org/1999/xlink" x="0px" y="0px"
	 viewBox="0 0 24 24" style="enable-background:new 0 0 24 24;" xml:space="preserve">
<g id="Armchair_1">
</g>
<g id="Armchair_2">
</g>
<g id="Armchair_3">
</g>
<g id="Armchair_4">
</g>
<g id="Sofa_1">
</g>
<g id="Sofa_2">
</g>
<g id="Sofa_3">
</g>
<g id="Sofa_4">
</g>
<g id="Sofa_5">
</g>
<g id="Sofa_6">
</g>
<g id="Desk_1">
	<g id="XMLID_91_">
		<g id="XMLID_92_">
			<path d="M23.5,15h-23C0.224,15,0,14.776,0,14.5v-11C0,3.224,0.224,3,0.5,3h23C23.776,3,24,3.224,24,3.5v11
				C24,14.776,23.776,15,23.5,15z M1,14h22V4H1V14z"/>
		</g>
		<g id="XMLID_93_">
			<path d="M14.58,21H9.42c-0.774,0-1.431-0.604-1.494-1.375l-0.424-5.083c-0.023-0.275,0.181-0.517,0.457-0.54
				c0.275-0.028,0.517,0.182,0.54,0.457l0.424,5.083C8.944,19.803,9.158,20,9.42,20h5.16c0.262,0,0.476-0.197,0.498-0.458
				l0.424-5.083c0.022-0.275,0.262-0.484,0.54-0.457c0.275,0.023,0.479,0.265,0.457,0.54l-0.424,5.083
				C16.011,20.396,15.354,21,14.58,21z"/>
		</g>
		<g id="XMLID_94_">
			<path d="M15.5,19h-7C8.224,19,8,18.776,8,18.5S8.224,18,8.5,18h7c0.276,0,0.5,0.224,0.5,0.5S15.776,19,15.5,19z"/>
		</g>
	</g>
</g>
<g id="Desk_2">
</g>
<g id="Desk_3">
</g>
<g id="Lamp">
</g>
<g id="Bed_1">
</g>
<g id="Bunk_Beds">
</g>
<g id="Bed_2">
</g>
<g id="Bed_3">
</g>
<g id="Bed_4">
</g>
<g id="Bed_5">
</g>
<g id="Table_1">
</g>
<g id="Table_2">
</g>
<g id="Table_3">
</g>
<g id="Table_4">
</g>
<g id="Rug_1">
</g>
<g id="Rug_2">
</g>
<g id="Rug_3">
</g>
<g id="Tub_1">
</g>
<g id="Tub_2">
</g>
<g id="Jacuzzi">
</g>
<g id="Corner_Tub">
</g>
<g id="Shower_Tray">
</g>
<g id="Sink_1">
</g>
<g id="Sink_2">
</g>
<g id="Toilette">
</g>
<g id="Stove">
</g>
<g id="Kitchen_Sink">
</g>
<g id="Island">
</g>
<g id="Eat-in_Kitchen">
</g>
<g id="Tv_Stand">
</g>
</svg>
