<?xml version="1.0" encoding="iso-8859-1"?>
<!-- Generator: Adobe Illustrator 19.2.1, SVG Export Plug-In . SVG Version: 6.00 Build 0)  -->
<svg version="1.1" xmlns="http://www.w3.org/2000/svg" xmlns:xlink="http://www.w3.org/1999/xlink" x="0px" y="0px"
	 viewBox="0 0 24 24" style="enable-background:new 0 0 24 24;" xml:space="preserve">
<g id="Armchair_1">
</g>
<g id="Armchair_2">
</g>
<g id="Armchair_3">
</g>
<g id="Armchair_4">
</g>
<g id="Sofa_1">
</g>
<g id="Sofa_2">
</g>
<g id="Sofa_3">
</g>
<g id="Sofa_4">
</g>
<g id="Sofa_5">
</g>
<g id="Sofa_6">
</g>
<g id="Desk_1">
</g>
<g id="Desk_2">
	<g id="XMLID_95_">
		<g id="XMLID_96_">
			<path d="M22.5,13h-21C0.673,13,0,12.327,0,11.5v-9C0,1.673,0.673,1,1.5,1h21C23.327,1,24,1.673,24,2.5v9
				C24,12.327,23.327,13,22.5,13z M1.5,2C1.224,2,1,2.224,1,2.5v9C1,11.776,1.224,12,1.5,12h21c0.276,0,0.5-0.224,0.5-0.5v-9
				C23,2.224,22.776,2,22.5,2H1.5z"/>
		</g>
		<g id="XMLID_97_">
			<path d="M12.004,23c-2.253,0-4.156-1.68-4.434-3.907l-0.566-4.531c-0.034-0.274,0.16-0.524,0.434-0.558
				c0.273-0.033,0.523,0.16,0.558,0.434l0.566,4.531C8.778,20.697,10.254,22,11.996,22c1.75,0,3.226-1.303,3.442-3.031l0.566-4.531
				c0.034-0.274,0.284-0.467,0.558-0.434c0.274,0.034,0.468,0.284,0.434,0.558l-0.566,4.531C16.151,21.32,14.249,23,12.004,23z"/>
		</g>
		<g id="XMLID_98_">
			<path d="M16,16H8c-0.276,0-0.5-0.224-0.5-0.5S7.724,15,8,15h8c0.276,0,0.5,0.224,0.5,0.5S16.276,16,16,16z"/>
		</g>
		<g id="XMLID_99_">
			<path d="M12,21c-1.928,0-3.705-1.128-4.526-2.873c-0.117-0.25-0.01-0.548,0.24-0.666s0.547-0.01,0.666,0.24
				C9.036,19.098,10.458,20,12,20c1.542,0,2.964-0.902,3.622-2.298c0.117-0.25,0.414-0.359,0.665-0.239
				c0.25,0.118,0.357,0.416,0.239,0.665C15.704,19.873,13.927,21,12,21z"/>
		</g>
	</g>
</g>
<g id="Desk_3">
</g>
<g id="Lamp">
</g>
<g id="Bed_1">
</g>
<g id="Bunk_Beds">
</g>
<g id="Bed_2">
</g>
<g id="Bed_3">
</g>
<g id="Bed_4">
</g>
<g id="Bed_5">
</g>
<g id="Table_1">
</g>
<g id="Table_2">
</g>
<g id="Table_3">
</g>
<g id="Table_4">
</g>
<g id="Rug_1">
</g>
<g id="Rug_2">
</g>
<g id="Rug_3">
</g>
<g id="Tub_1">
</g>
<g id="Tub_2">
</g>
<g id="Jacuzzi">
</g>
<g id="Corner_Tub">
</g>
<g id="Shower_Tray">
</g>
<g id="Sink_1">
</g>
<g id="Sink_2">
</g>
<g id="Toilette">
</g>
<g id="Stove">
</g>
<g id="Kitchen_Sink">
</g>
<g id="Island">
</g>
<g id="Eat-in_Kitchen">
</g>
<g id="Tv_Stand">
</g>
</svg>
