<?xml version="1.0" encoding="iso-8859-1"?>
<!-- Generator: Adobe Illustrator 19.2.1, SVG Export Plug-In . SVG Version: 6.00 Build 0)  -->
<svg version="1.1" xmlns="http://www.w3.org/2000/svg" xmlns:xlink="http://www.w3.org/1999/xlink" x="0px" y="0px"
	 viewBox="0 0 24 24" style="enable-background:new 0 0 24 24;" xml:space="preserve">
<g id="Armchair_1">
</g>
<g id="Armchair_2">
</g>
<g id="Armchair_3">
</g>
<g id="Armchair_4">
</g>
<g id="Sofa_1">
</g>
<g id="Sofa_2">
</g>
<g id="Sofa_3">
</g>
<g id="Sofa_4">
</g>
<g id="Sofa_5">
</g>
<g id="Sofa_6">
</g>
<g id="Desk_1">
</g>
<g id="Desk_2">
</g>
<g id="Desk_3">
</g>
<g id="Lamp">
</g>
<g id="Bed_1">
</g>
<g id="Bunk_Beds">
</g>
<g id="Bed_2">
</g>
<g id="Bed_3">
</g>
<g id="Bed_4">
</g>
<g id="Bed_5">
</g>
<g id="Table_1">
</g>
<g id="Table_2">
</g>
<g id="Table_3">
</g>
<g id="Table_4">
</g>
<g id="Rug_1">
</g>
<g id="Rug_2">
</g>
<g id="Rug_3">
</g>
<g id="Tub_1">
</g>
<g id="Tub_2">
</g>
<g id="Jacuzzi">
</g>
<g id="Corner_Tub">
</g>
<g id="Shower_Tray">
</g>
<g id="Sink_1">
</g>
<g id="Sink_2">
</g>
<g id="Toilette">
</g>
<g id="Stove">
</g>
<g id="Kitchen_Sink">
</g>
<g id="Island">
</g>
<g id="Eat-in_Kitchen">
	<g id="XMLID_353_">
		<g id="XMLID_354_">
			<path d="M16.5,22h-16C0.224,22,0,21.776,0,21.5v-19C0,2.224,0.224,2,0.5,2h23C23.776,2,24,2.224,24,2.5v6
				C24,8.776,23.776,9,23.5,9h-15C7.673,9,7,9.673,7,10.5V15h9.5c0.276,0,0.5,0.224,0.5,0.5v6C17,21.776,16.776,22,16.5,22z M1,21
				h15v-5H6.5C6.224,16,6,15.776,6,15.5v-5C6,9.121,7.121,8,8.5,8H23V3H1V21z"/>
		</g>
		<g id="XMLID_355_">
			<path d="M14,19.5c-0.552,0-1-0.448-1-1s0.448-1,1-1s1,0.448,1,1S14.552,19.5,14,19.5z M14,18.499L14,18.499l0.5,0.001L14,18.499z
				"/>
		</g>
		<g id="XMLID_356_">
			<path d="M14,19H6.5C6.224,19,6,18.776,6,18.5S6.224,18,6.5,18H14c0.276,0,0.5,0.224,0.5,0.5S14.276,19,14,19z"/>
		</g>
		<g id="XMLID_357_">
			<path d="M6.5,22C6.224,22,6,21.776,6,21.5v-6C6,15.224,6.224,15,6.5,15S7,15.224,7,15.5v6C7,21.776,6.776,22,6.5,22z"/>
		</g>
	</g>
</g>
<g id="Tv_Stand">
</g>
</svg>
