<?xml version="1.0" encoding="iso-8859-1"?>
<!-- Generator: Adobe Illustrator 19.2.1, SVG Export Plug-In . SVG Version: 6.00 Build 0)  -->
<svg version="1.1" xmlns="http://www.w3.org/2000/svg" xmlns:xlink="http://www.w3.org/1999/xlink" x="0px" y="0px"
	 viewBox="0 0 24 24" style="enable-background:new 0 0 24 24;" xml:space="preserve">
<g id="Armchair_1">
</g>
<g id="Armchair_2">
</g>
<g id="Armchair_3">
</g>
<g id="Armchair_4">
</g>
<g id="Sofa_1">
</g>
<g id="Sofa_2">
</g>
<g id="Sofa_3">
</g>
<g id="Sofa_4">
</g>
<g id="Sofa_5">
</g>
<g id="Sofa_6">
</g>
<g id="Desk_1">
</g>
<g id="Desk_2">
</g>
<g id="Desk_3">
</g>
<g id="Lamp">
</g>
<g id="Bed_1">
</g>
<g id="Bunk_Beds">
</g>
<g id="Bed_2">
</g>
<g id="Bed_3">
</g>
<g id="Bed_4">
</g>
<g id="Bed_5">
</g>
<g id="Table_1">
</g>
<g id="Table_2">
</g>
<g id="Table_3">
</g>
<g id="Table_4">
</g>
<g id="Rug_1">
</g>
<g id="Rug_2">
</g>
<g id="Rug_3">
</g>
<g id="Tub_1">
</g>
<g id="Tub_2">
</g>
<g id="Jacuzzi">
</g>
<g id="Corner_Tub">
</g>
<g id="Shower_Tray">
</g>
<g id="Sink_1">
</g>
<g id="Sink_2">
</g>
<g id="Toilette">
</g>
<g id="Stove">
</g>
<g id="Kitchen_Sink">
</g>
<g id="Island">
	<g id="XMLID_155_">
		<g id="XMLID_173_">
			<path d="M23.5,16h-23C0.224,16,0,15.776,0,15.5v-13C0,2.224,0.224,2,0.5,2h23C23.776,2,24,2.224,24,2.5v13
				C24,15.776,23.776,16,23.5,16z M1,15h22V3H1V15z"/>
		</g>
		<g id="XMLID_167_">
			<path d="M17.365,22h-0.73c-1.006,0-1.872-0.786-2.106-1.912l-0.518-2.486c-0.031-0.146,0.007-0.3,0.102-0.417S14.35,17,14.5,17h5
				c0.15,0,0.293,0.067,0.388,0.185s0.133,0.271,0.102,0.417l-0.518,2.485C19.237,21.214,18.371,22,17.365,22z M15.115,18
				l0.392,1.884C15.645,20.541,16.107,21,16.635,21h0.73c0.527,0,0.99-0.459,1.128-1.117L18.885,18H15.115z"/>
		</g>
		<g id="XMLID_159_">
			<path d="M6.365,22h-0.73c-1.006,0-1.872-0.786-2.106-1.912l-0.518-2.486c-0.031-0.146,0.007-0.3,0.102-0.417S3.35,17,3.5,17h5
				c0.15,0,0.293,0.067,0.388,0.185s0.133,0.271,0.102,0.417l-0.518,2.485C8.237,21.214,7.371,22,6.365,22z M4.115,18l0.392,1.884
				C4.645,20.541,5.107,21,5.635,21h0.73c0.527,0,0.99-0.459,1.128-1.117L7.885,18H4.115z"/>
		</g>
		<g>
			<path d="M6,11c-1.103,0-2-0.897-2-2s0.897-2,2-2s2,0.897,2,2S7.103,11,6,11z M6,8C5.448,8,5,8.448,5,9s0.448,1,1,1s1-0.448,1-1
				S6.552,8,6,8z"/>
		</g>
		<g>
			<path d="M12,11c-1.103,0-2-0.897-2-2s0.897-2,2-2s2,0.897,2,2S13.103,11,12,11z M12,8c-0.552,0-1,0.448-1,1s0.448,1,1,1
				s1-0.448,1-1S12.552,8,12,8z"/>
		</g>
		<g>
			<path d="M18,11c-1.103,0-2-0.897-2-2s0.897-2,2-2s2,0.897,2,2S19.103,11,18,11z M18,8c-0.552,0-1,0.448-1,1s0.448,1,1,1
				s1-0.448,1-1S18.552,8,18,8z"/>
		</g>
	</g>
</g>
<g id="Eat-in_Kitchen">
</g>
<g id="Tv_Stand">
</g>
</svg>
