<?xml version="1.0" encoding="iso-8859-1"?>
<!-- Generator: Adobe Illustrator 19.2.1, SVG Export Plug-In . SVG Version: 6.00 Build 0)  -->
<svg version="1.1" xmlns="http://www.w3.org/2000/svg" xmlns:xlink="http://www.w3.org/1999/xlink" x="0px" y="0px"
	 viewBox="0 0 24 24" style="enable-background:new 0 0 24 24;" xml:space="preserve">
<g id="Armchair_1">
</g>
<g id="Armchair_2">
</g>
<g id="Armchair_3">
</g>
<g id="Armchair_4">
</g>
<g id="Sofa_1">
</g>
<g id="Sofa_2">
</g>
<g id="Sofa_3">
</g>
<g id="Sofa_4">
</g>
<g id="Sofa_5">
</g>
<g id="Sofa_6">
</g>
<g id="Desk_1">
</g>
<g id="Desk_2">
</g>
<g id="Desk_3">
</g>
<g id="Lamp">
</g>
<g id="Bed_1">
</g>
<g id="Bunk_Beds">
</g>
<g id="Bed_2">
</g>
<g id="Bed_3">
</g>
<g id="Bed_4">
</g>
<g id="Bed_5">
</g>
<g id="Table_1">
</g>
<g id="Table_2">
</g>
<g id="Table_3">
</g>
<g id="Table_4">
</g>
<g id="Rug_1">
</g>
<g id="Rug_2">
</g>
<g id="Rug_3">
</g>
<g id="Tub_1">
</g>
<g id="Tub_2">
</g>
<g id="Jacuzzi">
	<g id="XMLID_280_">
		<g id="XMLID_281_">
			<path d="M18.674,23H4.326C1.94,23,0,21.06,0,18.674V4.326C0,1.94,1.94,0,4.326,0h14.348C21.06,0,23,1.94,23,4.326v14.348
				C23,21.06,21.06,23,18.674,23z M4.326,1C2.492,1,1,2.492,1,4.326v14.348C1,20.508,2.492,22,4.326,22h14.348
				C20.508,22,22,20.508,22,18.674V4.326C22,2.492,20.508,1,18.674,1H4.326z"/>
		</g>
		<g id="XMLID_282_">
			<path d="M11.5,20C6.813,20,3,16.187,3,11.5S6.813,3,11.5,3S20,6.813,20,11.5S16.187,20,11.5,20z M11.5,4C7.364,4,4,7.364,4,11.5
				S7.364,19,11.5,19s7.5-3.364,7.5-7.5S15.636,4,11.5,4z"/>
		</g>
		<g id="XMLID_283_">
			<circle cx="6.5" cy="10.5" r="0.5"/>
		</g>
		<g id="XMLID_284_">
			<circle cx="7.5" cy="11.5" r="0.5"/>
		</g>
		<g id="XMLID_285_">
			<circle cx="5.5" cy="11.5" r="0.5"/>
		</g>
		<g id="XMLID_286_">
			<circle cx="6.5" cy="12.5" r="0.5"/>
		</g>
		<g id="XMLID_287_">
			<circle cx="16.5" cy="10.5" r="0.5"/>
		</g>
		<g id="XMLID_288_">
			<circle cx="17.5" cy="11.5" r="0.5"/>
		</g>
		<g id="XMLID_289_">
			<circle cx="15.5" cy="11.5" r="0.5"/>
		</g>
		<g id="XMLID_290_">
			<circle cx="16.5" cy="12.5" r="0.5"/>
		</g>
		<g id="XMLID_291_">
			<circle cx="11.5" cy="5.5" r="0.5"/>
		</g>
		<g id="XMLID_292_">
			<circle cx="12.5" cy="6.5" r="0.5"/>
		</g>
		<g id="XMLID_293_">
			<circle cx="10.5" cy="6.5" r="0.5"/>
		</g>
		<g id="XMLID_294_">
			<circle cx="11.5" cy="7.5" r="0.5"/>
		</g>
		<g id="XMLID_295_">
			<circle cx="11.5" cy="15.5" r="0.5"/>
		</g>
		<g id="XMLID_296_">
			<circle cx="12.5" cy="16.5" r="0.5"/>
		</g>
		<g id="XMLID_297_">
			<circle cx="10.5" cy="16.5" r="0.5"/>
		</g>
		<g id="XMLID_298_">
			<circle cx="11.5" cy="17.5" r="0.5"/>
		</g>
	</g>
</g>
<g id="Corner_Tub">
</g>
<g id="Shower_Tray">
</g>
<g id="Sink_1">
</g>
<g id="Sink_2">
</g>
<g id="Toilette">
</g>
<g id="Stove">
</g>
<g id="Kitchen_Sink">
</g>
<g id="Island">
</g>
<g id="Eat-in_Kitchen">
</g>
<g id="Tv_Stand">
</g>
</svg>
