<?xml version="1.0" encoding="iso-8859-1"?>
<!-- Generator: Adobe Illustrator 19.2.1, SVG Export Plug-In . SVG Version: 6.00 Build 0)  -->
<svg version="1.1" xmlns="http://www.w3.org/2000/svg" xmlns:xlink="http://www.w3.org/1999/xlink" x="0px" y="0px"
	 viewBox="0 0 24 24" style="enable-background:new 0 0 24 24;" xml:space="preserve">
<g id="Armchair_1">
</g>
<g id="Armchair_2">
</g>
<g id="Armchair_3">
</g>
<g id="Armchair_4">
</g>
<g id="Sofa_1">
</g>
<g id="Sofa_2">
</g>
<g id="Sofa_3">
</g>
<g id="Sofa_4">
</g>
<g id="Sofa_5">
</g>
<g id="Sofa_6">
</g>
<g id="Desk_1">
</g>
<g id="Desk_2">
</g>
<g id="Desk_3">
</g>
<g id="Lamp">
	<g id="XMLID_114_">
		<g id="XMLID_115_">
			<path d="M12,24C5.383,24,0,18.617,0,12S5.383,0,12,0s12,5.383,12,12S18.617,24,12,24z M12,1C5.935,1,1,5.935,1,12s4.935,11,11,11
				s11-4.935,11-11S18.065,1,12,1z"/>
		</g>
		<g id="XMLID_116_">
			<path d="M12,17c-2.757,0-5-2.243-5-5s2.243-5,5-5s5,2.243,5,5S14.757,17,12,17z M12,8c-2.206,0-4,1.794-4,4s1.794,4,4,4
				s4-1.794,4-4S14.206,8,12,8z"/>
		</g>
		<g id="XMLID_117_">
			<path d="M12,13c-0.551,0-1-0.449-1-1s0.449-1,1-1s1,0.449,1,1S12.551,13,12,13z M12,11.999C12,12,12,12,12,11.999L12.5,12
				L12,11.999z"/>
		</g>
		<g id="XMLID_118_">
			<path d="M9,15.5c-0.128,0-0.256-0.049-0.354-0.146c-0.195-0.195-0.195-0.512,0-0.707l6-6c0.195-0.195,0.512-0.195,0.707,0
				s0.195,0.512,0,0.707l-6,6C9.256,15.451,9.128,15.5,9,15.5z"/>
		</g>
		<g id="XMLID_119_">
			<path d="M15,15.5c-0.128,0-0.256-0.049-0.354-0.146l-6-6c-0.195-0.195-0.195-0.512,0-0.707s0.512-0.195,0.707,0l6,6
				c0.195,0.195,0.195,0.512,0,0.707C15.256,15.451,15.128,15.5,15,15.5z"/>
		</g>
		<g id="XMLID_120_">
			<path d="M20.5,4c-0.128,0-0.256-0.049-0.354-0.146c-0.195-0.195-0.195-0.512,0-0.707l1-1c0.195-0.195,0.512-0.195,0.707,0
				s0.195,0.512,0,0.707l-1,1C20.756,3.951,20.628,4,20.5,4z"/>
		</g>
		<g id="XMLID_121_">
			<path d="M21.5,22c-0.128,0-0.256-0.049-0.354-0.146l-1-1c-0.195-0.195-0.195-0.512,0-0.707s0.512-0.195,0.707,0l1,1
				c0.195,0.195,0.195,0.512,0,0.707C21.756,21.951,21.628,22,21.5,22z"/>
		</g>
		<g id="XMLID_122_">
			<path d="M2.5,22c-0.128,0-0.256-0.049-0.354-0.146c-0.195-0.195-0.195-0.512,0-0.707l1-1c0.195-0.195,0.512-0.195,0.707,0
				s0.195,0.512,0,0.707l-1,1C2.756,21.951,2.628,22,2.5,22z"/>
		</g>
		<g id="XMLID_123_">
			<path d="M3.5,4C3.372,4,3.244,3.951,3.146,3.854l-1-1c-0.195-0.195-0.195-0.512,0-0.707s0.512-0.195,0.707,0l1,1
				c0.195,0.195,0.195,0.512,0,0.707C3.756,3.951,3.628,4,3.5,4z"/>
		</g>
	</g>
</g>
<g id="Bed_1">
</g>
<g id="Bunk_Beds">
</g>
<g id="Bed_2">
</g>
<g id="Bed_3">
</g>
<g id="Bed_4">
</g>
<g id="Bed_5">
</g>
<g id="Table_1">
</g>
<g id="Table_2">
</g>
<g id="Table_3">
</g>
<g id="Table_4">
</g>
<g id="Rug_1">
</g>
<g id="Rug_2">
</g>
<g id="Rug_3">
</g>
<g id="Tub_1">
</g>
<g id="Tub_2">
</g>
<g id="Jacuzzi">
</g>
<g id="Corner_Tub">
</g>
<g id="Shower_Tray">
</g>
<g id="Sink_1">
</g>
<g id="Sink_2">
</g>
<g id="Toilette">
</g>
<g id="Stove">
</g>
<g id="Kitchen_Sink">
</g>
<g id="Island">
</g>
<g id="Eat-in_Kitchen">
</g>
<g id="Tv_Stand">
</g>
</svg>
