<?xml version="1.0" encoding="iso-8859-1"?>
<!-- Generator: Adobe Illustrator 19.2.1, SVG Export Plug-In . SVG Version: 6.00 Build 0)  -->
<svg version="1.1" xmlns="http://www.w3.org/2000/svg" xmlns:xlink="http://www.w3.org/1999/xlink" x="0px" y="0px"
	 viewBox="0 0 24 24" style="enable-background:new 0 0 24 24;" xml:space="preserve">
<g id="Armchair_1">
</g>
<g id="Armchair_2">
</g>
<g id="Armchair_3">
</g>
<g id="Armchair_4">
</g>
<g id="Sofa_1">
</g>
<g id="Sofa_2">
</g>
<g id="Sofa_3">
</g>
<g id="Sofa_4">
</g>
<g id="Sofa_5">
</g>
<g id="Sofa_6">
</g>
<g id="Desk_1">
</g>
<g id="Desk_2">
</g>
<g id="Desk_3">
</g>
<g id="Lamp">
</g>
<g id="Bed_1">
</g>
<g id="Bunk_Beds">
</g>
<g id="Bed_2">
</g>
<g id="Bed_3">
</g>
<g id="Bed_4">
</g>
<g id="Bed_5">
</g>
<g id="Table_1">
</g>
<g id="Table_2">
</g>
<g id="Table_3">
</g>
<g id="Table_4">
</g>
<g id="Rug_1">
</g>
<g id="Rug_2">
	<g id="XMLID_245_">
		<g id="XMLID_246_">
			<path d="M12,23.986c-0.466,0-0.932-0.09-1.365-0.27l-0.42-0.174c-0.313-0.13-0.643-0.195-0.982-0.195H8.778
				c-0.954,0-1.851-0.371-2.523-1.046l-0.32-0.319c-0.241-0.241-0.521-0.429-0.834-0.559l-0.42-0.174
				c-0.868-0.358-1.572-1.063-1.931-1.932l-0.174-0.419c-0.13-0.313-0.317-0.593-0.558-0.833l-0.321-0.322
				c-0.674-0.672-1.045-1.568-1.045-2.522v-0.454c0-0.34-0.065-0.67-0.195-0.982l-0.174-0.42c-0.36-0.867-0.36-1.863,0-2.73
				l0.174-0.42c0.13-0.313,0.195-0.643,0.195-0.982V8.778c0-0.954,0.371-1.851,1.046-2.523l0.319-0.32
				c0.241-0.241,0.429-0.521,0.559-0.834l0.174-0.42C3.108,3.813,3.813,3.108,4.682,2.75l0.419-0.174
				c0.313-0.13,0.593-0.317,0.833-0.558l0.322-0.321c0.672-0.674,1.568-1.045,2.522-1.045h0.454c0.34,0,0.67-0.065,0.982-0.195
				l0.42-0.174c0.867-0.359,1.863-0.359,2.73,0l0.42,0.174c0.313,0.13,0.643,0.195,0.982,0.195h0.454
				c0.954,0,1.851,0.371,2.523,1.046l0.32,0.319c0.241,0.241,0.521,0.429,0.834,0.559l0.42,0.174
				c0.868,0.358,1.572,1.063,1.931,1.932l0.174,0.419c0.13,0.313,0.317,0.593,0.558,0.833l0.321,0.322
				c0.674,0.672,1.045,1.568,1.045,2.522v0.454c0,0.34,0.065,0.67,0.195,0.982l0.174,0.42c0.36,0.867,0.36,1.863,0,2.73l-0.174,0.42
				c-0.13,0.313-0.195,0.643-0.195,0.982v0.454c0,0.954-0.371,1.851-1.046,2.523l-0.319,0.32c-0.241,0.241-0.429,0.521-0.559,0.834
				l-0.174,0.42c-0.358,0.868-1.063,1.572-1.932,1.931l-0.419,0.174c-0.313,0.13-0.593,0.317-0.833,0.558l-0.322,0.321
				c-0.672,0.674-1.568,1.045-2.522,1.045h-0.454c-0.34,0-0.67,0.065-0.982,0.195l-0.42,0.174
				C12.932,23.896,12.466,23.986,12,23.986z M8.778,1.652c-0.687,0-1.331,0.268-1.816,0.753L6.64,2.727
				C6.307,3.06,5.918,3.32,5.483,3.5l-0.42,0.174c-0.625,0.258-1.132,0.765-1.39,1.389L3.5,5.483C3.32,5.918,3.06,6.307,2.726,6.641
				l-0.319,0.32C1.92,7.447,1.652,8.092,1.652,8.778v0.454c0,0.472-0.092,0.931-0.271,1.365l-0.174,0.42
				c-0.259,0.624-0.259,1.341,0,1.965l0.174,0.42c0.18,0.435,0.271,0.894,0.271,1.365v0.454c0,0.687,0.268,1.331,0.753,1.816
				l0.321,0.322C3.06,17.693,3.32,18.082,3.5,18.517l0.174,0.42c0.258,0.625,0.765,1.132,1.389,1.39L5.483,20.5
				c0.435,0.18,0.823,0.44,1.157,0.774l0.32,0.319c0.486,0.486,1.131,0.754,1.817,0.754h0.454c0.472,0,0.931,0.092,1.365,0.271
				l0.42,0.174c0.625,0.26,1.34,0.26,1.965,0l0.42-0.174c0.435-0.18,0.894-0.271,1.365-0.271h0.454c0.687,0,1.331-0.268,1.816-0.753
				l0.322-0.321c0.333-0.333,0.722-0.594,1.156-0.773l0.42-0.174c0.625-0.258,1.132-0.765,1.39-1.389l0.174-0.421
				c0.18-0.435,0.44-0.823,0.774-1.157l0.319-0.32c0.486-0.486,0.754-1.131,0.754-1.817v-0.454c0-0.472,0.092-0.931,0.271-1.365
				l0.174-0.42c0.259-0.624,0.259-1.341,0-1.965l-0.174-0.42c-0.18-0.435-0.271-0.894-0.271-1.365V8.778
				c0-0.687-0.268-1.331-0.753-1.816L21.273,6.64C20.94,6.307,20.68,5.918,20.5,5.483l-0.174-0.42
				c-0.258-0.625-0.765-1.132-1.389-1.39L18.517,3.5c-0.435-0.18-0.823-0.44-1.157-0.774l-0.32-0.319
				c-0.486-0.486-1.131-0.754-1.817-0.754h-0.454c-0.472,0-0.931-0.092-1.365-0.271l-0.42-0.174l0,0c-0.625-0.26-1.34-0.26-1.965,0
				l-0.42,0.174c-0.435,0.18-0.894,0.271-1.365,0.271H8.778z"/>
		</g>
		<g id="XMLID_247_">
			<path d="M12,21c-4.963,0-9-4.037-9-9s4.037-9,9-9s9,4.037,9,9S16.963,21,12,21z M12,4c-4.411,0-8,3.589-8,8s3.589,8,8,8
				s8-3.589,8-8S16.411,4,12,4z"/>
		</g>
		<g id="XMLID_248_">
			<path d="M12,17c-2.757,0-5-2.243-5-5s2.243-5,5-5s5,2.243,5,5S14.757,17,12,17z M12,8c-2.206,0-4,1.794-4,4s1.794,4,4,4
				s4-1.794,4-4S14.206,8,12,8z"/>
		</g>
	</g>
</g>
<g id="Rug_3">
</g>
<g id="Tub_1">
</g>
<g id="Tub_2">
</g>
<g id="Jacuzzi">
</g>
<g id="Corner_Tub">
</g>
<g id="Shower_Tray">
</g>
<g id="Sink_1">
</g>
<g id="Sink_2">
</g>
<g id="Toilette">
</g>
<g id="Stove">
</g>
<g id="Kitchen_Sink">
</g>
<g id="Island">
</g>
<g id="Eat-in_Kitchen">
</g>
<g id="Tv_Stand">
</g>
</svg>
