<?xml version="1.0" encoding="iso-8859-1"?>
<!-- Generator: Adobe Illustrator 19.2.1, SVG Export Plug-In . SVG Version: 6.00 Build 0)  -->
<svg version="1.1" xmlns="http://www.w3.org/2000/svg" xmlns:xlink="http://www.w3.org/1999/xlink" x="0px" y="0px"
	 viewBox="0 0 24 24" style="enable-background:new 0 0 24 24;" xml:space="preserve">
<g id="Armchair_1">
</g>
<g id="Armchair_2">
</g>
<g id="Armchair_3">
</g>
<g id="Armchair_4">
</g>
<g id="Sofa_1">
</g>
<g id="Sofa_2">
</g>
<g id="Sofa_3">
</g>
<g id="Sofa_4">
</g>
<g id="Sofa_5">
</g>
<g id="Sofa_6">
</g>
<g id="Desk_1">
</g>
<g id="Desk_2">
</g>
<g id="Desk_3">
</g>
<g id="Lamp">
</g>
<g id="Bed_1">
</g>
<g id="Bunk_Beds">
</g>
<g id="Bed_2">
</g>
<g id="Bed_3">
</g>
<g id="Bed_4">
</g>
<g id="Bed_5">
</g>
<g id="Table_1">
</g>
<g id="Table_2">
</g>
<g id="Table_3">
</g>
<g id="Table_4">
</g>
<g id="Rug_1">
	<g>
		<path d="M18.5,22h-14C4.224,22,4,21.776,4,21.5v-19C4,2.224,4.224,2,4.5,2h14C18.776,2,19,2.224,19,2.5v19
			C19,21.776,18.776,22,18.5,22z M5,21h13V3H5V21z"/>
	</g>
	<g>
		<path d="M11.5,19c-0.174,0-0.335-0.09-0.426-0.238l-4-6.5c-0.099-0.16-0.099-0.363,0-0.523l4-6.5c0.182-0.297,0.67-0.297,0.852,0
			l4,6.5c0.099,0.16,0.099,0.363,0,0.523l-4,6.5C11.835,18.91,11.674,19,11.5,19z M8.087,12l3.413,5.546L14.913,12L11.5,6.454
			L8.087,12z"/>
	</g>
	<g>
		<path d="M4.5,3C4.224,3,4,2.776,4,2.5v-2C4,0.224,4.224,0,4.5,0S5,0.224,5,0.5v2C5,2.776,4.776,3,4.5,3z"/>
	</g>
	<g>
		<path d="M6.5,3C6.224,3,6,2.776,6,2.5v-2C6,0.224,6.224,0,6.5,0S7,0.224,7,0.5v2C7,2.776,6.776,3,6.5,3z"/>
	</g>
	<g>
		<path d="M8.5,3C8.224,3,8,2.776,8,2.5v-2C8,0.224,8.224,0,8.5,0S9,0.224,9,0.5v2C9,2.776,8.776,3,8.5,3z"/>
	</g>
	<g>
		<path d="M10.5,3C10.224,3,10,2.776,10,2.5v-2C10,0.224,10.224,0,10.5,0S11,0.224,11,0.5v2C11,2.776,10.776,3,10.5,3z"/>
	</g>
	<g>
		<path d="M12.5,3C12.224,3,12,2.776,12,2.5v-2C12,0.224,12.224,0,12.5,0S13,0.224,13,0.5v2C13,2.776,12.776,3,12.5,3z"/>
	</g>
	<g>
		<path d="M14.5,3C14.224,3,14,2.776,14,2.5v-2C14,0.224,14.224,0,14.5,0S15,0.224,15,0.5v2C15,2.776,14.776,3,14.5,3z"/>
	</g>
	<g>
		<path d="M16.5,3C16.224,3,16,2.776,16,2.5v-2C16,0.224,16.224,0,16.5,0S17,0.224,17,0.5v2C17,2.776,16.776,3,16.5,3z"/>
	</g>
	<g>
		<path d="M18.5,3C18.224,3,18,2.776,18,2.5v-2C18,0.224,18.224,0,18.5,0S19,0.224,19,0.5v2C19,2.776,18.776,3,18.5,3z"/>
	</g>
	<g>
		<path d="M4.5,24C4.224,24,4,23.776,4,23.5v-2C4,21.224,4.224,21,4.5,21S5,21.224,5,21.5v2C5,23.776,4.776,24,4.5,24z"/>
	</g>
	<g>
		<path d="M6.5,24C6.224,24,6,23.776,6,23.5v-2C6,21.224,6.224,21,6.5,21S7,21.224,7,21.5v2C7,23.776,6.776,24,6.5,24z"/>
	</g>
	<g>
		<path d="M8.5,24C8.224,24,8,23.776,8,23.5v-2C8,21.224,8.224,21,8.5,21S9,21.224,9,21.5v2C9,23.776,8.776,24,8.5,24z"/>
	</g>
	<g>
		<path d="M10.5,24c-0.276,0-0.5-0.224-0.5-0.5v-2c0-0.276,0.224-0.5,0.5-0.5s0.5,0.224,0.5,0.5v2C11,23.776,10.776,24,10.5,24z"/>
	</g>
	<g>
		<path d="M12.5,24c-0.276,0-0.5-0.224-0.5-0.5v-2c0-0.276,0.224-0.5,0.5-0.5s0.5,0.224,0.5,0.5v2C13,23.776,12.776,24,12.5,24z"/>
	</g>
	<g>
		<path d="M14.5,24c-0.276,0-0.5-0.224-0.5-0.5v-2c0-0.276,0.224-0.5,0.5-0.5s0.5,0.224,0.5,0.5v2C15,23.776,14.776,24,14.5,24z"/>
	</g>
	<g>
		<path d="M16.5,24c-0.276,0-0.5-0.224-0.5-0.5v-2c0-0.276,0.224-0.5,0.5-0.5s0.5,0.224,0.5,0.5v2C17,23.776,16.776,24,16.5,24z"/>
	</g>
	<g>
		<path d="M18.5,24c-0.276,0-0.5-0.224-0.5-0.5v-2c0-0.276,0.224-0.5,0.5-0.5s0.5,0.224,0.5,0.5v2C19,23.776,18.776,24,18.5,24z"/>
	</g>
</g>
<g id="Rug_2">
</g>
<g id="Rug_3">
</g>
<g id="Tub_1">
</g>
<g id="Tub_2">
</g>
<g id="Jacuzzi">
</g>
<g id="Corner_Tub">
</g>
<g id="Shower_Tray">
</g>
<g id="Sink_1">
</g>
<g id="Sink_2">
</g>
<g id="Toilette">
</g>
<g id="Stove">
</g>
<g id="Kitchen_Sink">
</g>
<g id="Island">
</g>
<g id="Eat-in_Kitchen">
</g>
<g id="Tv_Stand">
</g>
</svg>
