<?xml version="1.0" encoding="iso-8859-1"?>
<!-- Generator: Adobe Illustrator 19.2.1, SVG Export Plug-In . SVG Version: 6.00 Build 0)  -->
<svg version="1.1" xmlns="http://www.w3.org/2000/svg" xmlns:xlink="http://www.w3.org/1999/xlink" x="0px" y="0px"
	 viewBox="0 0 24 24" style="enable-background:new 0 0 24 24;" xml:space="preserve">
<g id="Armchair_1">
</g>
<g id="Armchair_2">
</g>
<g id="Armchair_3">
</g>
<g id="Armchair_4">
</g>
<g id="Sofa_1">
</g>
<g id="Sofa_2">
</g>
<g id="Sofa_3">
</g>
<g id="Sofa_4">
</g>
<g id="Sofa_5">
</g>
<g id="Sofa_6">
</g>
<g id="Desk_1">
</g>
<g id="Desk_2">
</g>
<g id="Desk_3">
</g>
<g id="Lamp">
</g>
<g id="Bed_1">
</g>
<g id="Bunk_Beds">
</g>
<g id="Bed_2">
</g>
<g id="Bed_3">
</g>
<g id="Bed_4">
</g>
<g id="Bed_5">
</g>
<g id="Table_1">
</g>
<g id="Table_2">
</g>
<g id="Table_3">
</g>
<g id="Table_4">
</g>
<g id="Rug_1">
</g>
<g id="Rug_2">
</g>
<g id="Rug_3">
</g>
<g id="Tub_1">
</g>
<g id="Tub_2">
</g>
<g id="Jacuzzi">
</g>
<g id="Corner_Tub">
</g>
<g id="Shower_Tray">
	<g id="XMLID_303_">
		<g id="XMLID_304_">
			<path d="M22.5,24h-21C0.673,24,0,23.327,0,22.5v-21C0,0.673,0.673,0,1.5,0h21C23.327,0,24,0.673,24,1.5v21
				C24,23.327,23.327,24,22.5,24z M1.5,1C1.224,1,1,1.225,1,1.5v21C1,22.775,1.224,23,1.5,23h21c0.276,0,0.5-0.225,0.5-0.5v-21
				C23,1.225,22.776,1,22.5,1H1.5z"/>
		</g>
		<g id="XMLID_305_">
			<path d="M17.5,21h-11C4.57,21,3,19.43,3,17.5v-11C3,4.57,4.57,3,6.5,3h11C19.43,3,21,4.57,21,6.5v11C21,19.43,19.43,21,17.5,21z
				 M6.5,4C5.122,4,4,5.121,4,6.5v11C4,18.879,5.122,20,6.5,20h11c1.378,0,2.5-1.121,2.5-2.5v-11C20,5.121,18.878,4,17.5,4H6.5z"/>
		</g>
		<g id="XMLID_306_">
			<path d="M5.5,17c-0.128,0-0.256-0.049-0.354-0.146c-0.195-0.195-0.195-0.512,0-0.707l1-1c0.195-0.195,0.512-0.195,0.707,0
				s0.195,0.512,0,0.707l-1,1C5.756,16.951,5.628,17,5.5,17z"/>
		</g>
		<g id="XMLID_307_">
			<path d="M6.5,18c-0.128,0-0.256-0.049-0.354-0.146c-0.195-0.195-0.195-0.512,0-0.707l1-1c0.195-0.195,0.512-0.195,0.707,0
				s0.195,0.512,0,0.707l-1,1C6.756,17.951,6.628,18,6.5,18z"/>
		</g>
		<g id="XMLID_308_">
			<path d="M7.5,19c-0.128,0-0.256-0.049-0.354-0.146c-0.195-0.195-0.195-0.512,0-0.707l1-1c0.195-0.195,0.512-0.195,0.707,0
				s0.195,0.512,0,0.707l-1,1C7.756,18.951,7.628,19,7.5,19z"/>
		</g>
	</g>
</g>
<g id="Sink_1">
</g>
<g id="Sink_2">
</g>
<g id="Toilette">
</g>
<g id="Stove">
</g>
<g id="Kitchen_Sink">
</g>
<g id="Island">
</g>
<g id="Eat-in_Kitchen">
</g>
<g id="Tv_Stand">
</g>
</svg>
