<?xml version="1.0" encoding="iso-8859-1"?>
<!-- Generator: Adobe Illustrator 19.2.1, SVG Export Plug-In . SVG Version: 6.00 Build 0)  -->
<svg version="1.1" xmlns="http://www.w3.org/2000/svg" xmlns:xlink="http://www.w3.org/1999/xlink" x="0px" y="0px"
	 viewBox="0 0 24 24" style="enable-background:new 0 0 24 24;" xml:space="preserve">
<g id="Armchair_1">
</g>
<g id="Armchair_2">
</g>
<g id="Armchair_3">
</g>
<g id="Armchair_4">
</g>
<g id="Sofa_1">
</g>
<g id="Sofa_2">
</g>
<g id="Sofa_3">
</g>
<g id="Sofa_4">
</g>
<g id="Sofa_5">
</g>
<g id="Sofa_6">
</g>
<g id="Desk_1">
</g>
<g id="Desk_2">
</g>
<g id="Desk_3">
</g>
<g id="Lamp">
</g>
<g id="Bed_1">
</g>
<g id="Bunk_Beds">
</g>
<g id="Bed_2">
</g>
<g id="Bed_3">
</g>
<g id="Bed_4">
</g>
<g id="Bed_5">
</g>
<g id="Table_1">
</g>
<g id="Table_2">
</g>
<g id="Table_3">
</g>
<g id="Table_4">
</g>
<g id="Rug_1">
</g>
<g id="Rug_2">
</g>
<g id="Rug_3">
</g>
<g id="Tub_1">
</g>
<g id="Tub_2">
</g>
<g id="Jacuzzi">
</g>
<g id="Corner_Tub">
</g>
<g id="Shower_Tray">
</g>
<g id="Sink_1">
</g>
<g id="Sink_2">
	<g id="XMLID_316_">
		<g id="XMLID_317_">
			<path d="M22.5,21h-22C0.224,21,0,20.776,0,20.5v-17C0,3.224,0.224,3,0.5,3h6C6.776,3,7,3.224,7,3.5S6.776,4,6.5,4H1v16h21V4h-5.5
				C16.224,4,16,3.776,16,3.5S16.224,3,16.5,3h6C22.776,3,23,3.224,23,3.5v17C23,20.776,22.776,21,22.5,21z"/>
		</g>
		<g id="XMLID_318_">
			<path d="M11.5,10C11.224,10,11,9.776,11,9.5v-5C11,4.224,11.224,4,11.5,4S12,4.224,12,4.5v5C12,9.776,11.776,10,11.5,10z"/>
		</g>
		<g id="XMLID_319_">
			<path d="M13.5,5h-4C8.673,5,8,4.327,8,3.5C8,3.224,8.224,3,8.5,3S9,3.224,9,3.5C9,3.775,9.224,4,9.5,4h4
				C13.776,4,14,3.775,14,3.5C14,3.224,14.224,3,14.5,3S15,3.224,15,3.5C15,4.327,14.327,5,13.5,5z"/>
		</g>
		<g id="XMLID_320_">
			<path d="M13.5,6.5c-0.551,0-1-0.448-1-1s0.449-1,1-1s1,0.448,1,1S14.051,6.5,13.5,6.5z M13.5,5.499
				C13.5,5.499,13.5,5.5,13.5,5.499L14,5.5L13.5,5.499z"/>
		</g>
		<g id="XMLID_321_">
			<path d="M9.5,6.5c-0.551,0-1-0.448-1-1s0.449-1,1-1s1,0.448,1,1S10.051,6.5,9.5,6.5z M9.5,5.499C9.5,5.499,9.5,5.5,9.5,5.499
				L10,5.5L9.5,5.499z"/>
		</g>
		<g id="XMLID_322_">
			<path d="M19.5,19h-16C2.673,19,2,18.327,2,17.5v-9C2,7.673,2.673,7,3.5,7h4.516c0.276,0,0.5,0.224,0.5,0.5S8.292,8,8.016,8H3.5
				C3.224,8,3,8.225,3,8.5v9C3,17.775,3.224,18,3.5,18h16c0.276,0,0.5-0.225,0.5-0.5v-9C20,8.225,19.776,8,19.5,8h-4.516
				c-0.276,0-0.5-0.224-0.5-0.5s0.224-0.5,0.5-0.5H19.5C20.327,7,21,7.673,21,8.5v9C21,18.327,20.327,19,19.5,19z"/>
		</g>
	</g>
</g>
<g id="Toilette">
</g>
<g id="Stove">
</g>
<g id="Kitchen_Sink">
</g>
<g id="Island">
</g>
<g id="Eat-in_Kitchen">
</g>
<g id="Tv_Stand">
</g>
</svg>
