<?xml version="1.0" encoding="iso-8859-1"?>
<!-- Generator: Adobe Illustrator 19.2.1, SVG Export Plug-In . SVG Version: 6.00 Build 0)  -->
<svg version="1.1" xmlns="http://www.w3.org/2000/svg" xmlns:xlink="http://www.w3.org/1999/xlink" x="0px" y="0px"
	 viewBox="0 0 24 24" style="enable-background:new 0 0 24 24;" xml:space="preserve">
<g id="Armchair_1">
</g>
<g id="Armchair_2">
</g>
<g id="Armchair_3">
</g>
<g id="Armchair_4">
</g>
<g id="Sofa_1">
</g>
<g id="Sofa_2">
</g>
<g id="Sofa_3">
</g>
<g id="Sofa_4">
</g>
<g id="Sofa_5">
</g>
<g id="Sofa_6">
</g>
<g id="Desk_1">
</g>
<g id="Desk_2">
</g>
<g id="Desk_3">
</g>
<g id="Lamp">
</g>
<g id="Bed_1">
</g>
<g id="Bunk_Beds">
</g>
<g id="Bed_2">
</g>
<g id="Bed_3">
</g>
<g id="Bed_4">
</g>
<g id="Bed_5">
</g>
<g id="Table_1">
</g>
<g id="Table_2">
</g>
<g id="Table_3">
</g>
<g id="Table_4">
</g>
<g id="Rug_1">
</g>
<g id="Rug_2">
</g>
<g id="Rug_3">
</g>
<g id="Tub_1">
</g>
<g id="Tub_2">
</g>
<g id="Jacuzzi">
</g>
<g id="Corner_Tub">
</g>
<g id="Shower_Tray">
</g>
<g id="Sink_1">
	<g id="XMLID_309_">
		<g id="XMLID_310_">
			<path d="M11.5,10.59c-0.276,0-0.5-0.224-0.5-0.5v-5c0-0.276,0.224-0.5,0.5-0.5S12,4.813,12,5.09v5
				C12,10.366,11.776,10.59,11.5,10.59z"/>
		</g>
		<g id="XMLID_311_">
			<path d="M13.5,5.59h-4C8.673,5.59,8,4.917,8,4.09v-1c0-0.276,0.224-0.5,0.5-0.5S9,2.813,9,3.09v1c0,0.275,0.224,0.5,0.5,0.5h4
				c0.276,0,0.5-0.225,0.5-0.5v-1c0-0.276,0.224-0.5,0.5-0.5S15,2.813,15,3.09v1C15,4.917,14.327,5.59,13.5,5.59z"/>
		</g>
		<g id="XMLID_312_">
			<path d="M13.5,7.09c-0.551,0-1-0.448-1-1s0.449-1,1-1s1,0.448,1,1S14.051,7.09,13.5,7.09z M13.5,6.09
				C13.5,6.09,13.5,6.09,13.5,6.09H14H13.5z"/>
		</g>
		<g id="XMLID_313_">
			<path d="M11.5,21.41c-0.688,0-1.375-0.062-2.057-0.186C3.971,20.229,0,15.471,0,9.91V4.09c0-0.827,0.673-1.5,1.5-1.5h5
				c0.276,0,0.5,0.224,0.5,0.5s-0.224,0.5-0.5,0.5h-5C1.224,3.59,1,3.814,1,4.09v5.82c0,5.077,3.626,9.422,8.622,10.33
				c1.246,0.227,2.511,0.227,3.757,0C18.374,19.332,22,14.987,22,9.91V4.09c0-0.275-0.224-0.5-0.5-0.5h-5
				c-0.276,0-0.5-0.224-0.5-0.5s0.224-0.5,0.5-0.5h5c0.827,0,1.5,0.673,1.5,1.5v5.82c0,5.561-3.971,10.319-9.443,11.314
				C12.875,21.349,12.188,21.41,11.5,21.41z"/>
		</g>
		<g id="XMLID_314_">
			<path d="M11.501,19.412c-0.868,0-1.737-0.121-2.601-0.363C4.837,17.907,2,14.024,2,9.606V9.499C2,7.895,3.305,6.59,4.908,6.59
				h2.304c0.276,0,0.5,0.224,0.5,0.5s-0.224,0.5-0.5,0.5H4.908C3.856,7.59,3,8.446,3,9.499v0.107c0,3.972,2.538,7.458,6.171,8.479
				c1.568,0.44,3.154,0.435,4.714-0.017C17.485,17.028,20,13.541,20,9.59c0-1.138-0.856-2-1.908-2h-2.304
				c-0.276,0-0.5-0.224-0.5-0.5s0.224-0.5,0.5-0.5h2.304C19.695,6.59,21,7.901,21,9.513c0,4.471-2.812,8.354-6.838,9.518
				C13.28,19.285,12.391,19.412,11.501,19.412z"/>
		</g>
		<g id="XMLID_315_">
			<path d="M9.5,7.09c-0.551,0-1-0.448-1-1s0.449-1,1-1s1,0.448,1,1S10.051,7.09,9.5,7.09z M9.5,6.09C9.5,6.09,9.5,6.09,9.5,6.09H10
				H9.5z"/>
		</g>
	</g>
</g>
<g id="Sink_2">
</g>
<g id="Toilette">
</g>
<g id="Stove">
</g>
<g id="Kitchen_Sink">
</g>
<g id="Island">
</g>
<g id="Eat-in_Kitchen">
</g>
<g id="Tv_Stand">
</g>
</svg>
