<?xml version="1.0" encoding="iso-8859-1"?>
<!-- Generator: Adobe Illustrator 19.2.1, SVG Export Plug-In . SVG Version: 6.00 Build 0)  -->
<svg version="1.1" xmlns="http://www.w3.org/2000/svg" xmlns:xlink="http://www.w3.org/1999/xlink" x="0px" y="0px"
	 viewBox="0 0 24 24" style="enable-background:new 0 0 24 24;" xml:space="preserve">
<g id="Armchair_1">
</g>
<g id="Armchair_2">
</g>
<g id="Armchair_3">
</g>
<g id="Armchair_4">
</g>
<g id="Sofa_1">
</g>
<g id="Sofa_2">
</g>
<g id="Sofa_3">
</g>
<g id="Sofa_4">
</g>
<g id="Sofa_5">
	<g id="XMLID_107_">
		<g id="XMLID_108_">
			<path d="M4.454,23.955H2.553c-0.707,0-1.386-0.3-1.863-0.823c-0.466-0.511-0.696-1.195-0.634-1.875
				c1.043-11.24,9.959-20.156,21.2-21.2c0.682-0.061,1.365,0.169,1.875,0.634c0.523,0.477,0.823,1.156,0.823,1.863v1.902
				c0,0.276-0.224,0.5-0.5,0.5c-10.201,0-18.5,8.299-18.5,18.5C4.954,23.731,4.73,23.955,4.454,23.955z M21.482,1.045
				c-0.044,0-0.09,0.002-0.135,0.006C10.586,2.051,2.051,10.587,1.052,21.348c-0.038,0.407,0.096,0.801,0.377,1.109
				c0.288,0.316,0.697,0.497,1.124,0.497H3.96C4.223,12.599,12.599,4.223,22.954,3.961V2.552c0-0.426-0.181-0.836-0.497-1.124
				C22.184,1.179,21.842,1.045,21.482,1.045z"/>
		</g>
		<g id="XMLID_109_">
			<path d="M9.599,23.955H4.454c-0.276,0-0.5-0.224-0.5-0.5s0.224-0.5,0.5-0.5h5.145c0.743,0,1.377-0.531,1.476-1.234
				c0.375-2.706,1.6-5.163,3.541-7.104c1.942-1.942,4.399-3.167,7.105-3.542c0.703-0.098,1.233-0.732,1.233-1.476V4.455
				c0-0.276,0.224-0.5,0.5-0.5s0.5,0.224,0.5,0.5v5.144c0,1.24-0.901,2.3-2.096,2.466c-2.489,0.345-4.749,1.472-6.536,3.258
				c-1.786,1.787-2.912,4.046-3.258,6.535C11.897,23.053,10.838,23.955,9.599,23.955z"/>
		</g>
	</g>
</g>
<g id="Sofa_6">
</g>
<g id="Desk_1">
</g>
<g id="Desk_2">
</g>
<g id="Desk_3">
</g>
<g id="Lamp">
</g>
<g id="Bed_1">
</g>
<g id="Bunk_Beds">
</g>
<g id="Bed_2">
</g>
<g id="Bed_3">
</g>
<g id="Bed_4">
</g>
<g id="Bed_5">
</g>
<g id="Table_1">
</g>
<g id="Table_2">
</g>
<g id="Table_3">
</g>
<g id="Table_4">
</g>
<g id="Rug_1">
</g>
<g id="Rug_2">
</g>
<g id="Rug_3">
</g>
<g id="Tub_1">
</g>
<g id="Tub_2">
</g>
<g id="Jacuzzi">
</g>
<g id="Corner_Tub">
</g>
<g id="Shower_Tray">
</g>
<g id="Sink_1">
</g>
<g id="Sink_2">
</g>
<g id="Toilette">
</g>
<g id="Stove">
</g>
<g id="Kitchen_Sink">
</g>
<g id="Island">
</g>
<g id="Eat-in_Kitchen">
</g>
<g id="Tv_Stand">
</g>
</svg>
