<?xml version="1.0" encoding="iso-8859-1"?>
<!-- Generator: Adobe Illustrator 19.2.1, SVG Export Plug-In . SVG Version: 6.00 Build 0)  -->
<svg version="1.1" xmlns="http://www.w3.org/2000/svg" xmlns:xlink="http://www.w3.org/1999/xlink" x="0px" y="0px"
	 viewBox="0 0 24 24" style="enable-background:new 0 0 24 24;" xml:space="preserve">
<g id="Armchair_1">
</g>
<g id="Armchair_2">
</g>
<g id="Armchair_3">
</g>
<g id="Armchair_4">
</g>
<g id="Sofa_1">
</g>
<g id="Sofa_2">
</g>
<g id="Sofa_3">
</g>
<g id="Sofa_4">
</g>
<g id="Sofa_5">
</g>
<g id="Sofa_6">
	<g id="XMLID_110_">
		<g id="XMLID_111_">
			<path d="M2.366,13.72c-0.061,0-0.122-0.011-0.18-0.034l-1.866-0.72c-0.124-0.047-0.224-0.143-0.277-0.264
				s-0.058-0.259-0.01-0.383C1.983,7.266,6.681,4,12,4c5.312,0,10.009,3.254,11.966,8.292c0.101,0.257-0.027,0.547-0.285,0.647
				l-1.864,0.725c-0.122,0.048-0.262,0.045-0.382-0.008c-0.122-0.053-0.217-0.153-0.265-0.276C19.664,9.504,16.064,7,12,7
				c-4.069,0-7.668,2.512-9.167,6.399c-0.048,0.124-0.143,0.224-0.264,0.277C2.505,13.706,2.436,13.72,2.366,13.72z M1.155,12.217
				l0.935,0.36C3.84,8.565,7.678,6,12,6c4.316,0,8.154,2.556,9.91,6.554l0.934-0.363C20.936,7.806,16.731,5,12,5
				C7.262,5,3.057,7.816,1.155,12.217z"/>
		</g>
		<g id="XMLID_112_">
			<path d="M5.043,14.74c-0.187,0-0.377-0.036-0.561-0.109l-4.168-1.667c-0.257-0.103-0.381-0.394-0.278-0.65
				c0.103-0.257,0.394-0.383,0.649-0.279l4.168,1.667c0.222,0.088,0.476,0.01,0.597-0.191C6.781,11.313,9.23,10,12,10
				c2.765,0,5.213,1.308,6.548,3.499c0.122,0.201,0.373,0.278,0.597,0.189l4.169-1.679c0.253-0.102,0.548,0.021,0.65,0.277
				c0.104,0.256-0.021,0.548-0.277,0.651l-4.169,1.679c-0.678,0.273-1.446,0.023-1.823-0.597C16.542,12.129,14.413,11,12,11
				c-2.417,0-4.546,1.133-5.694,3.03C6.03,14.483,5.548,14.74,5.043,14.74z"/>
		</g>
		<g id="XMLID_113_">
			<path d="M12,20c-1.654,0-3-1.346-3-3s1.346-3,3-3s3,1.346,3,3S13.654,20,12,20z M12,15c-1.103,0-2,0.897-2,2s0.897,2,2,2
				s2-0.897,2-2S13.103,15,12,15z"/>
		</g>
	</g>
</g>
<g id="Desk_1">
</g>
<g id="Desk_2">
</g>
<g id="Desk_3">
</g>
<g id="Lamp">
</g>
<g id="Bed_1">
</g>
<g id="Bunk_Beds">
</g>
<g id="Bed_2">
</g>
<g id="Bed_3">
</g>
<g id="Bed_4">
</g>
<g id="Bed_5">
</g>
<g id="Table_1">
</g>
<g id="Table_2">
</g>
<g id="Table_3">
</g>
<g id="Table_4">
</g>
<g id="Rug_1">
</g>
<g id="Rug_2">
</g>
<g id="Rug_3">
</g>
<g id="Tub_1">
</g>
<g id="Tub_2">
</g>
<g id="Jacuzzi">
</g>
<g id="Corner_Tub">
</g>
<g id="Shower_Tray">
</g>
<g id="Sink_1">
</g>
<g id="Sink_2">
</g>
<g id="Toilette">
</g>
<g id="Stove">
</g>
<g id="Kitchen_Sink">
</g>
<g id="Island">
</g>
<g id="Eat-in_Kitchen">
</g>
<g id="Tv_Stand">
</g>
</svg>
