<?xml version="1.0" encoding="iso-8859-1"?>
<!-- Generator: Adobe Illustrator 19.2.1, SVG Export Plug-In . SVG Version: 6.00 Build 0)  -->
<svg version="1.1" xmlns="http://www.w3.org/2000/svg" xmlns:xlink="http://www.w3.org/1999/xlink" x="0px" y="0px"
	 viewBox="0 0 24 24" style="enable-background:new 0 0 24 24;" xml:space="preserve">
<g id="Armchair_1">
</g>
<g id="Armchair_2">
</g>
<g id="Armchair_3">
</g>
<g id="Armchair_4">
</g>
<g id="Sofa_1">
</g>
<g id="Sofa_2">
</g>
<g id="Sofa_3">
</g>
<g id="Sofa_4">
	<g id="XMLID_104_">
		<g id="XMLID_105_">
			<path d="M8.5,20h-6C2.224,20,2,19.776,2,19.5S2.224,19,2.5,19h6C8.775,19,9,18.776,9,18.5v-4c0-1.378,1.121-2.5,2.5-2.5h11
				c0.275,0,0.5-0.224,0.5-0.5v-6C23,5.224,23.224,5,23.5,5S24,5.224,24,5.5v6c0,0.827-0.673,1.5-1.5,1.5h-11
				c-0.827,0-1.5,0.673-1.5,1.5v4C10,19.327,9.327,20,8.5,20z"/>
		</g>
		<g id="XMLID_106_">
			<path d="M2.5,20h-1C0.673,20,0,19.327,0,18.5v-6C0,7.262,4.262,3,9.5,3h13C23.327,3,24,3.673,24,4.5v1C24,6.327,23.327,7,22.5,7
				h-13C6.468,7,4,9.467,4,12.5v6C4,19.327,3.327,20,2.5,20z M9.5,4C4.813,4,1,7.813,1,12.5v6C1,18.776,1.225,19,1.5,19h1
				C2.775,19,3,18.776,3,18.5v-6C3,8.916,5.916,6,9.5,6h13C22.775,6,23,5.776,23,5.5v-1C23,4.224,22.775,4,22.5,4H9.5z"/>
		</g>
	</g>
</g>
<g id="Sofa_5">
</g>
<g id="Sofa_6">
</g>
<g id="Desk_1">
</g>
<g id="Desk_2">
</g>
<g id="Desk_3">
</g>
<g id="Lamp">
</g>
<g id="Bed_1">
</g>
<g id="Bunk_Beds">
</g>
<g id="Bed_2">
</g>
<g id="Bed_3">
</g>
<g id="Bed_4">
</g>
<g id="Bed_5">
</g>
<g id="Table_1">
</g>
<g id="Table_2">
</g>
<g id="Table_3">
</g>
<g id="Table_4">
</g>
<g id="Rug_1">
</g>
<g id="Rug_2">
</g>
<g id="Rug_3">
</g>
<g id="Tub_1">
</g>
<g id="Tub_2">
</g>
<g id="Jacuzzi">
</g>
<g id="Corner_Tub">
</g>
<g id="Shower_Tray">
</g>
<g id="Sink_1">
</g>
<g id="Sink_2">
</g>
<g id="Toilette">
</g>
<g id="Stove">
</g>
<g id="Kitchen_Sink">
</g>
<g id="Island">
</g>
<g id="Eat-in_Kitchen">
</g>
<g id="Tv_Stand">
</g>
</svg>
