<?xml version="1.0" encoding="iso-8859-1"?>
<!-- Generator: Adobe Illustrator 19.2.1, SVG Export Plug-In . SVG Version: 6.00 Build 0)  -->
<svg version="1.1" xmlns="http://www.w3.org/2000/svg" xmlns:xlink="http://www.w3.org/1999/xlink" x="0px" y="0px"
	 viewBox="0 0 24 24" style="enable-background:new 0 0 24 24;" xml:space="preserve">
<g id="Armchair_1">
</g>
<g id="Armchair_2">
</g>
<g id="Armchair_3">
</g>
<g id="Armchair_4">
</g>
<g id="Sofa_1">
</g>
<g id="Sofa_2">
</g>
<g id="Sofa_3">
	<g id="XMLID_84_">
		<g id="XMLID_85_">
			<path d="M23.5,11h-23C0.224,11,0,10.776,0,10.5v-3C0,7.224,0.224,7,0.5,7h23C23.776,7,24,7.224,24,7.5v3
				C24,10.776,23.776,11,23.5,11z M1,10h22V8H1V10z"/>
		</g>
		<g id="XMLID_86_">
			<path d="M2.5,16h-2C0.224,16,0,15.776,0,15.5v-5C0,10.224,0.224,10,0.5,10S1,10.224,1,10.5V15h1.5C2.776,15,3,15.224,3,15.5
				S2.776,16,2.5,16z"/>
		</g>
		<g id="XMLID_87_">
			<path d="M23.5,16h-2c-0.276,0-0.5-0.224-0.5-0.5s0.224-0.5,0.5-0.5H23v-4.5c0-0.276,0.224-0.5,0.5-0.5s0.5,0.224,0.5,0.5v5
				C24,15.776,23.776,16,23.5,16z"/>
		</g>
		<g id="XMLID_88_">
			<path d="M21,17h-5c-0.133,0-0.26-0.053-0.354-0.146L15.5,16.707l-0.146,0.146C15.26,16.947,15.133,17,15,17H9
				c-0.133,0-0.26-0.053-0.354-0.146L8.5,16.707l-0.146,0.146C8.26,16.947,8.133,17,8,17H3c-0.133,0-0.26-0.053-0.354-0.146
				l-0.5-0.5C2.053,16.26,2,16.133,2,16v-5.5C2,10.224,2.224,10,2.5,10S3,10.224,3,10.5v5.293L3.207,16h4.586l0.354-0.354
				c0.195-0.195,0.512-0.195,0.707,0L9.207,16h5.586l0.354-0.354c0.195-0.195,0.512-0.195,0.707,0L16.207,16h4.586L21,15.793V10.5
				c0-0.276,0.224-0.5,0.5-0.5s0.5,0.224,0.5,0.5V16c0,0.133-0.053,0.26-0.146,0.354l-0.5,0.5C21.26,16.947,21.133,17,21,17z"/>
		</g>
		<g id="XMLID_89_">
			<path d="M8.5,16.5C8.224,16.5,8,16.276,8,16v-5.5C8,10.224,8.224,10,8.5,10S9,10.224,9,10.5V16C9,16.276,8.776,16.5,8.5,16.5z"/>
		</g>
		<g id="XMLID_90_">
			<path d="M15.5,16.5c-0.276,0-0.5-0.224-0.5-0.5v-5.5c0-0.276,0.224-0.5,0.5-0.5s0.5,0.224,0.5,0.5V16
				C16,16.276,15.776,16.5,15.5,16.5z"/>
		</g>
	</g>
</g>
<g id="Sofa_4">
</g>
<g id="Sofa_5">
</g>
<g id="Sofa_6">
</g>
<g id="Desk_1">
</g>
<g id="Desk_2">
</g>
<g id="Desk_3">
</g>
<g id="Lamp">
</g>
<g id="Bed_1">
</g>
<g id="Bunk_Beds">
</g>
<g id="Bed_2">
</g>
<g id="Bed_3">
</g>
<g id="Bed_4">
</g>
<g id="Bed_5">
</g>
<g id="Table_1">
</g>
<g id="Table_2">
</g>
<g id="Table_3">
</g>
<g id="Table_4">
</g>
<g id="Rug_1">
</g>
<g id="Rug_2">
</g>
<g id="Rug_3">
</g>
<g id="Tub_1">
</g>
<g id="Tub_2">
</g>
<g id="Jacuzzi">
</g>
<g id="Corner_Tub">
</g>
<g id="Shower_Tray">
</g>
<g id="Sink_1">
</g>
<g id="Sink_2">
</g>
<g id="Toilette">
</g>
<g id="Stove">
</g>
<g id="Kitchen_Sink">
</g>
<g id="Island">
</g>
<g id="Eat-in_Kitchen">
</g>
<g id="Tv_Stand">
</g>
</svg>
