<?xml version="1.0" encoding="iso-8859-1"?>
<!-- Generator: Adobe Illustrator 19.2.1, SVG Export Plug-In . SVG Version: 6.00 Build 0)  -->
<svg version="1.1" xmlns="http://www.w3.org/2000/svg" xmlns:xlink="http://www.w3.org/1999/xlink" x="0px" y="0px"
	 viewBox="0 0 24 24" style="enable-background:new 0 0 24 24;" xml:space="preserve">
<g id="Armchair_1">
</g>
<g id="Armchair_2">
</g>
<g id="Armchair_3">
</g>
<g id="Armchair_4">
</g>
<g id="Sofa_1">
</g>
<g id="Sofa_2">
</g>
<g id="Sofa_3">
</g>
<g id="Sofa_4">
</g>
<g id="Sofa_5">
</g>
<g id="Sofa_6">
</g>
<g id="Desk_1">
</g>
<g id="Desk_2">
</g>
<g id="Desk_3">
</g>
<g id="Lamp">
</g>
<g id="Bed_1">
</g>
<g id="Bunk_Beds">
</g>
<g id="Bed_2">
</g>
<g id="Bed_3">
</g>
<g id="Bed_4">
</g>
<g id="Bed_5">
</g>
<g id="Table_1">
</g>
<g id="Table_2">
</g>
<g id="Table_3">
</g>
<g id="Table_4">
</g>
<g id="Rug_1">
</g>
<g id="Rug_2">
</g>
<g id="Rug_3">
</g>
<g id="Tub_1">
</g>
<g id="Tub_2">
</g>
<g id="Jacuzzi">
</g>
<g id="Corner_Tub">
</g>
<g id="Shower_Tray">
</g>
<g id="Sink_1">
</g>
<g id="Sink_2">
</g>
<g id="Toilette">
</g>
<g id="Stove">
	<g id="XMLID_328_">
		<g id="XMLID_329_">
			<path d="M22.5,23h-22C0.224,23,0,22.776,0,22.5v-22C0,0.224,0.224,0,0.5,0h22C22.776,0,23,0.224,23,0.5v22
				C23,22.776,22.776,23,22.5,23z M1,22h21V1H1V22z"/>
		</g>
		<g id="XMLID_330_">
			<path d="M7,11c-2.206,0-4-1.794-4-4s1.794-4,4-4s4,1.794,4,4S9.206,11,7,11z M7,4C5.346,4,4,5.346,4,7s1.346,3,3,3s3-1.346,3-3
				S8.654,4,7,4z"/>
		</g>
		<g id="XMLID_331_">
			<path d="M17,10c-1.654,0-3-1.346-3-3s1.346-3,3-3s3,1.346,3,3S18.654,10,17,10z M17,5c-1.103,0-2,0.897-2,2s0.897,2,2,2
				s2-0.897,2-2S18.103,5,17,5z"/>
		</g>
		<g id="XMLID_332_">
			<path d="M7,20c-1.654,0-3-1.346-3-3s1.346-3,3-3s3,1.346,3,3S8.654,20,7,20z M7,15c-1.103,0-2,0.897-2,2s0.897,2,2,2s2-0.897,2-2
				S8.103,15,7,15z"/>
		</g>
		<g id="XMLID_333_">
			<path d="M17,19c-1.103,0-2-0.897-2-2s0.897-2,2-2s2,0.897,2,2S18.103,19,17,19z M17,16c-0.552,0-1,0.448-1,1s0.448,1,1,1
				s1-0.448,1-1S17.552,16,17,16z"/>
		</g>
	</g>
</g>
<g id="Kitchen_Sink">
</g>
<g id="Island">
</g>
<g id="Eat-in_Kitchen">
</g>
<g id="Tv_Stand">
</g>
</svg>
