<?xml version="1.0" encoding="iso-8859-1"?>
<!-- Generator: Adobe Illustrator 19.2.1, SVG Export Plug-In . SVG Version: 6.00 Build 0)  -->
<svg version="1.1" xmlns="http://www.w3.org/2000/svg" xmlns:xlink="http://www.w3.org/1999/xlink" x="0px" y="0px"
	 viewBox="0 0 24 24" style="enable-background:new 0 0 24 24;" xml:space="preserve">
<g id="Armchair_1">
</g>
<g id="Armchair_2">
</g>
<g id="Armchair_3">
</g>
<g id="Armchair_4">
</g>
<g id="Sofa_1">
</g>
<g id="Sofa_2">
</g>
<g id="Sofa_3">
</g>
<g id="Sofa_4">
</g>
<g id="Sofa_5">
</g>
<g id="Sofa_6">
</g>
<g id="Desk_1">
</g>
<g id="Desk_2">
</g>
<g id="Desk_3">
</g>
<g id="Lamp">
</g>
<g id="Bed_1">
</g>
<g id="Bunk_Beds">
</g>
<g id="Bed_2">
</g>
<g id="Bed_3">
</g>
<g id="Bed_4">
</g>
<g id="Bed_5">
</g>
<g id="Table_1">
	<g id="XMLID_160_">
		<g id="XMLID_161_">
			<path d="M19.5,17h-15C4.224,17,4,16.776,4,16.5v-9C4,7.224,4.224,7,4.5,7h15C19.776,7,20,7.224,20,7.5v9
				C20,16.776,19.776,17,19.5,17z M5,16h14V8H5V16z"/>
		</g>
		<g id="XMLID_162_">
			<path d="M19.5,15c-0.114,0-0.226-0.039-0.315-0.112C19.068,14.793,19,14.65,19,14.5v-5c0-0.15,0.068-0.293,0.185-0.388
				s0.27-0.13,0.417-0.102l2.485,0.518C23.213,9.763,24,10.629,24,11.635v0.73c0,1.006-0.787,1.872-1.913,2.106l-2.485,0.518
				C19.568,14.996,19.534,15,19.5,15z M20,10.115v3.77l1.883-0.392C22.541,13.355,23,12.893,23,12.365v-0.73
				c0-0.527-0.459-0.99-1.117-1.128L20,10.115z"/>
		</g>
		<g id="XMLID_163_">
			<path d="M4.5,15c-0.034,0-0.068-0.004-0.102-0.011l-2.485-0.518C0.787,14.237,0,13.371,0,12.365v-0.73
				c0-1.006,0.787-1.872,1.913-2.106l2.485-0.518c0.147-0.028,0.301,0.007,0.417,0.102S5,9.35,5,9.5v5
				c0,0.15-0.068,0.293-0.185,0.388C4.726,14.961,4.614,15,4.5,15z M4,10.115l-1.883,0.392C1.459,10.645,1,11.107,1,11.635v0.73
				c0,0.527,0.459,0.99,1.117,1.128L4,13.885V10.115z"/>
		</g>
		<g id="XMLID_166_">
			<path d="M15.365,21h-0.73c-1.005,0-1.872-0.786-2.106-1.912l-0.518-2.486c-0.031-0.146,0.006-0.3,0.102-0.417
				C12.207,16.067,12.35,16,12.5,16h5c0.15,0,0.293,0.067,0.388,0.185c0.095,0.117,0.132,0.271,0.102,0.417l-0.518,2.485
				C17.237,20.214,16.371,21,15.365,21z M13.115,17l0.392,1.884C13.644,19.541,14.108,20,14.635,20h0.73
				c0.527,0,0.991-0.459,1.128-1.117L16.885,17H13.115z"/>
		</g>
		<g id="XMLID_168_">
			<path d="M9.365,21h-0.73c-1.005,0-1.872-0.786-2.106-1.912l-0.518-2.486c-0.031-0.146,0.006-0.3,0.102-0.417
				C6.207,16.067,6.35,16,6.5,16h5c0.15,0,0.293,0.067,0.388,0.185c0.095,0.117,0.132,0.271,0.102,0.417l-0.518,2.485
				C11.237,20.214,10.371,21,9.365,21z M7.115,17l0.392,1.884C7.644,19.541,8.108,20,8.635,20h0.73c0.527,0,0.991-0.459,1.128-1.117
				L10.885,17H7.115z"/>
		</g>
		<g id="XMLID_170_">
			<path d="M11.5,8h-5C6.35,8,6.207,7.933,6.112,7.815C6.017,7.698,5.98,7.545,6.011,7.398l0.518-2.485C6.763,3.786,7.629,3,8.635,3
				h0.73c1.005,0,1.872,0.786,2.106,1.912l0.518,2.486c0.031,0.146-0.006,0.3-0.102,0.417C11.793,7.933,11.65,8,11.5,8z M7.115,7
				h3.771l-0.392-1.884C10.356,4.459,9.892,4,9.365,4h-0.73C8.108,4,7.644,4.459,7.507,5.117L7.115,7z"/>
		</g>
		<g id="XMLID_172_">
			<path d="M17.5,8h-5c-0.15,0-0.293-0.067-0.388-0.185c-0.095-0.117-0.132-0.271-0.102-0.417l0.518-2.485
				C12.763,3.786,13.629,3,14.635,3h0.73c1.005,0,1.872,0.786,2.106,1.912l0.518,2.486c0.031,0.146-0.006,0.3-0.102,0.417
				C17.793,7.933,17.65,8,17.5,8z M13.115,7h3.771l-0.392-1.884C16.356,4.459,15.892,4,15.365,4h-0.73
				c-0.527,0-0.991,0.459-1.128,1.117L13.115,7z"/>
		</g>
	</g>
</g>
<g id="Table_2">
</g>
<g id="Table_3">
</g>
<g id="Table_4">
</g>
<g id="Rug_1">
</g>
<g id="Rug_2">
</g>
<g id="Rug_3">
</g>
<g id="Tub_1">
</g>
<g id="Tub_2">
</g>
<g id="Jacuzzi">
</g>
<g id="Corner_Tub">
</g>
<g id="Shower_Tray">
</g>
<g id="Sink_1">
</g>
<g id="Sink_2">
</g>
<g id="Toilette">
</g>
<g id="Stove">
</g>
<g id="Kitchen_Sink">
</g>
<g id="Island">
</g>
<g id="Eat-in_Kitchen">
</g>
<g id="Tv_Stand">
</g>
</svg>
