<?xml version="1.0" encoding="iso-8859-1"?>
<!-- Generator: Adobe Illustrator 19.2.1, SVG Export Plug-In . SVG Version: 6.00 Build 0)  -->
<svg version="1.1" xmlns="http://www.w3.org/2000/svg" xmlns:xlink="http://www.w3.org/1999/xlink" x="0px" y="0px"
	 viewBox="0 0 24 24" style="enable-background:new 0 0 24 24;" xml:space="preserve">
<g id="Armchair_1">
</g>
<g id="Armchair_2">
</g>
<g id="Armchair_3">
</g>
<g id="Armchair_4">
</g>
<g id="Sofa_1">
</g>
<g id="Sofa_2">
</g>
<g id="Sofa_3">
</g>
<g id="Sofa_4">
</g>
<g id="Sofa_5">
</g>
<g id="Sofa_6">
</g>
<g id="Desk_1">
</g>
<g id="Desk_2">
</g>
<g id="Desk_3">
</g>
<g id="Lamp">
</g>
<g id="Bed_1">
</g>
<g id="Bunk_Beds">
</g>
<g id="Bed_2">
</g>
<g id="Bed_3">
</g>
<g id="Bed_4">
</g>
<g id="Bed_5">
</g>
<g id="Table_1">
</g>
<g id="Table_2">
</g>
<g id="Table_3">
</g>
<g id="Table_4">
	<g id="XMLID_218_">
		<g id="XMLID_219_">
			<path d="M15.5,17h-8C6.673,17,6,16.327,6,15.5v-8C6,6.673,6.673,6,7.5,6h8C16.327,6,17,6.673,17,7.5v8
				C17,16.327,16.327,17,15.5,17z M7.5,7C7.224,7,7,7.225,7,7.5v8C7,15.775,7.224,16,7.5,16h8c0.276,0,0.5-0.225,0.5-0.5v-8
				C16,7.225,15.776,7,15.5,7H7.5z"/>
		</g>
		<g id="XMLID_220_">
			<path d="M2.5,14C1.122,14,0,12.879,0,11.5S1.122,9,2.5,9S5,10.121,5,11.5S3.878,14,2.5,14z M2.5,10C1.673,10,1,10.673,1,11.5
				S1.673,13,2.5,13S4,12.327,4,11.5S3.327,10,2.5,10z"/>
		</g>
		<g id="XMLID_221_">
			<path d="M20.5,14c-1.378,0-2.5-1.121-2.5-2.5S19.122,9,20.5,9s2.5,1.121,2.5,2.5S21.878,14,20.5,14z M20.5,10
				c-0.827,0-1.5,0.673-1.5,1.5s0.673,1.5,1.5,1.5s1.5-0.673,1.5-1.5S21.327,10,20.5,10z"/>
		</g>
		<g id="XMLID_222_">
			<path d="M11.5,5C10.122,5,9,3.879,9,2.5S10.122,0,11.5,0S14,1.121,14,2.5S12.878,5,11.5,5z M11.5,1C10.673,1,10,1.673,10,2.5
				S10.673,4,11.5,4S13,3.327,13,2.5S12.327,1,11.5,1z"/>
		</g>
		<g id="XMLID_223_">
			<path d="M11.5,23C10.122,23,9,21.879,9,20.5s1.122-2.5,2.5-2.5s2.5,1.121,2.5,2.5S12.878,23,11.5,23z M11.5,19
				c-0.827,0-1.5,0.673-1.5,1.5s0.673,1.5,1.5,1.5s1.5-0.673,1.5-1.5S12.327,19,11.5,19z"/>
		</g>
	</g>
</g>
<g id="Rug_1">
</g>
<g id="Rug_2">
</g>
<g id="Rug_3">
</g>
<g id="Tub_1">
</g>
<g id="Tub_2">
</g>
<g id="Jacuzzi">
</g>
<g id="Corner_Tub">
</g>
<g id="Shower_Tray">
</g>
<g id="Sink_1">
</g>
<g id="Sink_2">
</g>
<g id="Toilette">
</g>
<g id="Stove">
</g>
<g id="Kitchen_Sink">
</g>
<g id="Island">
</g>
<g id="Eat-in_Kitchen">
</g>
<g id="Tv_Stand">
</g>
</svg>
