<?xml version="1.0" encoding="iso-8859-1"?>
<!-- Generator: Adobe Illustrator 19.2.1, SVG Export Plug-In . SVG Version: 6.00 Build 0)  -->
<svg version="1.1" xmlns="http://www.w3.org/2000/svg" xmlns:xlink="http://www.w3.org/1999/xlink" x="0px" y="0px"
	 viewBox="0 0 24 24" style="enable-background:new 0 0 24 24;" xml:space="preserve">
<g id="Armchair_1">
</g>
<g id="Armchair_2">
</g>
<g id="Armchair_3">
</g>
<g id="Armchair_4">
</g>
<g id="Sofa_1">
</g>
<g id="Sofa_2">
</g>
<g id="Sofa_3">
</g>
<g id="Sofa_4">
</g>
<g id="Sofa_5">
</g>
<g id="Sofa_6">
</g>
<g id="Desk_1">
</g>
<g id="Desk_2">
</g>
<g id="Desk_3">
</g>
<g id="Lamp">
</g>
<g id="Bed_1">
</g>
<g id="Bunk_Beds">
</g>
<g id="Bed_2">
</g>
<g id="Bed_3">
</g>
<g id="Bed_4">
</g>
<g id="Bed_5">
</g>
<g id="Table_1">
</g>
<g id="Table_2">
	<g id="XMLID_174_">
		<g id="XMLID_175_">
			<path d="M12,17.001c-3.86,0-7-2.243-7-5s3.14-5,7-5s7,2.243,7,5S15.86,17.001,12,17.001z M12,8.001c-3.309,0-6,1.794-6,4
				s2.691,4,6,4s6-1.794,6-4S15.309,8.001,12,8.001z"/>
		</g>
		<g id="XMLID_184_">
			<path d="M4.5,15.001c-0.04,0-0.081-0.005-0.122-0.015l-4-1C0.156,13.931,0,13.73,0,13.501v-3c0-0.229,0.156-0.43,0.379-0.485l4-1
				C4.646,8.95,4.918,9.112,4.985,9.38c0.067,0.268-0.096,0.539-0.364,0.606L1,10.892v2.219l3.621,0.905
				c0.268,0.067,0.431,0.339,0.364,0.606C4.928,14.85,4.725,15.001,4.5,15.001z"/>
		</g>
		<g id="XMLID_186_">
			<path d="M4.5,10.001h-3c-0.276,0-0.5-0.224-0.5-0.5s0.224-0.5,0.5-0.5h3c0.276,0,0.5,0.224,0.5,0.5S4.776,10.001,4.5,10.001z"/>
		</g>
		<g id="XMLID_188_">
			<path d="M4.5,15.001h-3c-0.276,0-0.5-0.224-0.5-0.5s0.224-0.5,0.5-0.5h3c0.276,0,0.5,0.224,0.5,0.5S4.776,15.001,4.5,15.001z"/>
		</g>
		<g id="XMLID_178_">
			<path d="M19.5,15.001c-0.224,0-0.428-0.151-0.484-0.379c-0.067-0.268,0.096-0.539,0.364-0.606L23,13.11v-2.219l-3.621-0.905
				c-0.268-0.067-0.431-0.339-0.364-0.606c0.067-0.269,0.336-0.431,0.606-0.364l4,1C23.844,10.071,24,10.271,24,10.501v3
				c0,0.229-0.156,0.43-0.379,0.485l-4,1C19.581,14.996,19.54,15.001,19.5,15.001z"/>
		</g>
		<g id="XMLID_177_">
			<path d="M22.5,15.001h-3c-0.276,0-0.5-0.224-0.5-0.5s0.224-0.5,0.5-0.5h3c0.276,0,0.5,0.224,0.5,0.5S22.776,15.001,22.5,15.001z"
				/>
		</g>
		<g id="XMLID_176_">
			<path d="M22.5,10.001h-3c-0.276,0-0.5-0.224-0.5-0.5s0.224-0.5,0.5-0.5h3c0.276,0,0.5,0.224,0.5,0.5S22.776,10.001,22.5,10.001z"
				/>
		</g>
		<g id="XMLID_181_">
			<path d="M8.493,22.001c-0.063,0-0.126-0.012-0.187-0.036l-2.783-1.119c-0.213-0.086-0.34-0.305-0.309-0.532l0.563-4.084
				c0.037-0.272,0.281-0.462,0.563-0.427c0.273,0.037,0.465,0.29,0.427,0.563l-0.51,3.697l2.059,0.828l2.19-3.022
				c0.162-0.226,0.474-0.273,0.698-0.112c0.224,0.162,0.273,0.475,0.111,0.698l-2.419,3.339C8.802,21.927,8.65,22.001,8.493,22.001z
				"/>
		</g>
		<g id="XMLID_180_">
			<path d="M5.155,19.581c-0.062,0-0.125-0.012-0.187-0.036c-0.256-0.103-0.38-0.395-0.277-0.65l1.119-2.783
				c0.103-0.257,0.394-0.381,0.65-0.277c0.256,0.103,0.38,0.395,0.277,0.65l-1.119,2.783C5.541,19.463,5.353,19.581,5.155,19.581z"
				/>
		</g>
		<g id="XMLID_179_">
			<path d="M9.794,21.445c-0.062,0-0.125-0.012-0.187-0.036c-0.256-0.103-0.38-0.395-0.277-0.65l1.119-2.783
				c0.103-0.257,0.394-0.379,0.65-0.277c0.256,0.103,0.38,0.395,0.277,0.65l-1.119,2.783C10.18,21.327,9.992,21.445,9.794,21.445z"
				/>
		</g>
		<g id="XMLID_185_">
			<path d="M15.551,22.001c-0.157,0-0.309-0.073-0.405-0.206l-2.42-3.339c-0.162-0.224-0.112-0.537,0.111-0.699
				c0.225-0.16,0.537-0.111,0.698,0.111l2.191,3.023l2.059-0.829l-0.511-3.697c-0.038-0.273,0.153-0.525,0.427-0.563
				c0.272-0.036,0.525,0.154,0.563,0.427l0.564,4.084c0.032,0.228-0.096,0.446-0.309,0.532l-2.783,1.12
				C15.677,21.989,15.613,22.001,15.551,22.001z"/>
		</g>
		<g id="XMLID_183_">
			<path d="M14.25,21.446c-0.198,0-0.385-0.118-0.464-0.313l-1.12-2.784c-0.103-0.256,0.021-0.548,0.277-0.65
				c0.253-0.101,0.547,0.021,0.65,0.277l1.12,2.784c0.103,0.256-0.021,0.548-0.277,0.65C14.375,21.435,14.313,21.446,14.25,21.446z"
				/>
		</g>
		<g id="XMLID_182_">
			<path d="M18.889,19.58c-0.198,0-0.385-0.118-0.464-0.313l-1.119-2.783c-0.103-0.256,0.021-0.548,0.277-0.65
				c0.255-0.103,0.547,0.021,0.65,0.277l1.119,2.783c0.103,0.256-0.021,0.548-0.277,0.65C19.014,19.568,18.951,19.58,18.889,19.58z"
				/>
		</g>
		<g id="XMLID_187_">
			<path d="M3.5,14.501c-0.276,0-0.5-0.224-0.5-0.5v-4c0-0.276,0.224-0.5,0.5-0.5S4,9.725,4,10.001v4
				C4,14.277,3.776,14.501,3.5,14.501z"/>
		</g>
		<g id="XMLID_189_">
			<path d="M20.5,14.501c-0.276,0-0.5-0.224-0.5-0.5v-4c0-0.276,0.224-0.5,0.5-0.5s0.5,0.224,0.5,0.5v4
				C21,14.277,20.776,14.501,20.5,14.501z"/>
		</g>
		<g id="XMLID_190_">
			<path d="M10.076,19.403c-0.062,0-0.125-0.012-0.187-0.036l-3.712-1.491c-0.256-0.103-0.38-0.394-0.277-0.65
				c0.103-0.257,0.393-0.381,0.65-0.277l3.712,1.491c0.256,0.103,0.38,0.394,0.277,0.65C10.462,19.285,10.274,19.403,10.076,19.403z
				"/>
		</g>
		<g id="XMLID_191_">
			<path d="M13.968,19.403c-0.198,0-0.385-0.118-0.464-0.313c-0.103-0.256,0.021-0.548,0.277-0.65l3.711-1.492
				c0.256-0.104,0.547,0.021,0.65,0.277c0.103,0.256-0.021,0.548-0.277,0.65l-3.711,1.492C14.093,19.392,14.03,19.403,13.968,19.403
				z"/>
		</g>
		<g id="XMLID_198_">
			<path d="M17.771,8.202c-0.022,0-0.046-0.002-0.069-0.005c-0.273-0.037-0.465-0.29-0.427-0.563l0.51-3.697l-2.059-0.828
				l-2.19,3.022c-0.162,0.224-0.475,0.271-0.698,0.112c-0.224-0.162-0.273-0.475-0.111-0.698l2.419-3.339
				c0.134-0.186,0.378-0.258,0.591-0.171l2.784,1.119c0.213,0.086,0.34,0.305,0.309,0.532l-0.564,4.084
				C18.231,8.021,18.017,8.202,17.771,8.202z"/>
		</g>
		<g id="XMLID_197_">
			<path d="M17.77,8.202c-0.062,0-0.125-0.012-0.187-0.036c-0.256-0.103-0.38-0.395-0.277-0.65l1.119-2.783
				c0.103-0.257,0.395-0.38,0.65-0.277c0.256,0.103,0.38,0.395,0.277,0.65l-1.119,2.783C18.156,8.084,17.968,8.202,17.77,8.202z"/>
		</g>
		<g id="XMLID_196_">
			<path d="M13.131,6.338c-0.062,0-0.125-0.012-0.187-0.036c-0.256-0.103-0.38-0.395-0.277-0.65l1.119-2.783
				c0.103-0.257,0.395-0.379,0.65-0.277c0.256,0.103,0.38,0.395,0.277,0.65l-1.119,2.783C13.517,6.22,13.329,6.338,13.131,6.338z"/>
		</g>
		<g id="XMLID_195_">
			<path d="M6.274,8.203c-0.246,0-0.46-0.182-0.495-0.432L5.214,3.688C5.183,3.46,5.31,3.241,5.523,3.155l2.783-1.12
				c0.211-0.087,0.457-0.016,0.591,0.17l2.42,3.339c0.162,0.224,0.112,0.537-0.111,0.699c-0.224,0.16-0.537,0.111-0.698-0.111
				L8.317,3.108L6.258,3.938L6.77,7.635C6.808,7.908,6.617,8.16,6.343,8.198C6.32,8.201,6.296,8.203,6.274,8.203z"/>
		</g>
		<g id="XMLID_194_">
			<path d="M10.913,6.338c-0.198,0-0.385-0.118-0.464-0.313L9.33,3.24C9.227,2.984,9.351,2.692,9.607,2.59
				c0.254-0.102,0.547,0.021,0.65,0.277l1.12,2.784c0.103,0.256-0.021,0.548-0.277,0.65C11.039,6.326,10.975,6.338,10.913,6.338z"/>
		</g>
		<g id="XMLID_193_">
			<path d="M6.274,8.203c-0.198,0-0.385-0.118-0.464-0.313l-1.12-2.783C4.588,4.851,4.712,4.56,4.968,4.456
				c0.254-0.102,0.547,0.021,0.65,0.277l1.12,2.783c0.103,0.256-0.021,0.547-0.277,0.65C6.4,8.191,6.337,8.203,6.274,8.203z"/>
		</g>
		<g id="XMLID_192_">
			<path d="M17.679,7.088c-0.062,0-0.125-0.012-0.187-0.036l-3.711-1.491c-0.256-0.103-0.38-0.394-0.277-0.65
				c0.103-0.257,0.395-0.38,0.65-0.277l3.711,1.491c0.256,0.103,0.38,0.395,0.277,0.65C18.065,6.97,17.877,7.088,17.679,7.088z"/>
		</g>
		<g id="XMLID_199_">
			<path d="M6.365,7.089c-0.198,0-0.385-0.118-0.464-0.313C5.798,6.52,5.922,6.228,6.178,6.125L9.89,4.633
				c0.256-0.103,0.547,0.021,0.65,0.277c0.103,0.256-0.021,0.548-0.277,0.65L6.551,7.053C6.49,7.077,6.427,7.089,6.365,7.089z"/>
		</g>
	</g>
</g>
<g id="Table_3">
</g>
<g id="Table_4">
</g>
<g id="Rug_1">
</g>
<g id="Rug_2">
</g>
<g id="Rug_3">
</g>
<g id="Tub_1">
</g>
<g id="Tub_2">
</g>
<g id="Jacuzzi">
</g>
<g id="Corner_Tub">
</g>
<g id="Shower_Tray">
</g>
<g id="Sink_1">
</g>
<g id="Sink_2">
</g>
<g id="Toilette">
</g>
<g id="Stove">
</g>
<g id="Kitchen_Sink">
</g>
<g id="Island">
</g>
<g id="Eat-in_Kitchen">
</g>
<g id="Tv_Stand">
</g>
</svg>
