<?xml version="1.0" encoding="iso-8859-1"?>
<!-- Generator: Adobe Illustrator 19.2.1, SVG Export Plug-In . SVG Version: 6.00 Build 0)  -->
<svg version="1.1" xmlns="http://www.w3.org/2000/svg" xmlns:xlink="http://www.w3.org/1999/xlink" x="0px" y="0px"
	 viewBox="0 0 24 24" style="enable-background:new 0 0 24 24;" xml:space="preserve">
<g id="Armchair_1">
</g>
<g id="Armchair_2">
</g>
<g id="Armchair_3">
</g>
<g id="Armchair_4">
</g>
<g id="Sofa_1">
</g>
<g id="Sofa_2">
</g>
<g id="Sofa_3">
</g>
<g id="Sofa_4">
</g>
<g id="Sofa_5">
</g>
<g id="Sofa_6">
</g>
<g id="Desk_1">
</g>
<g id="Desk_2">
</g>
<g id="Desk_3">
</g>
<g id="Lamp">
</g>
<g id="Bed_1">
</g>
<g id="Bunk_Beds">
</g>
<g id="Bed_2">
</g>
<g id="Bed_3">
</g>
<g id="Bed_4">
</g>
<g id="Bed_5">
</g>
<g id="Table_1">
</g>
<g id="Table_2">
</g>
<g id="Table_3">
</g>
<g id="Table_4">
</g>
<g id="Rug_1">
</g>
<g id="Rug_2">
</g>
<g id="Rug_3">
</g>
<g id="Tub_1">
</g>
<g id="Tub_2">
</g>
<g id="Jacuzzi">
</g>
<g id="Corner_Tub">
</g>
<g id="Shower_Tray">
</g>
<g id="Sink_1">
</g>
<g id="Sink_2">
</g>
<g id="Toilette">
	<g id="XMLID_323_">
		<g id="XMLID_324_">
			<path d="M12,24c-4.411,0-8-4.64-8-10.342c0-2.847,0.879-5.5,2.475-7.473C6.569,6.068,6.712,6,6.863,6h10.273
				c0.151,0,0.294,0.068,0.389,0.186C19.121,8.158,20,10.812,20,13.658C20,19.36,16.411,24,12,24z M7.106,7
				C5.746,8.775,5,11.129,5,13.658C5,18.81,8.14,23,12,23s7-4.19,7-9.342c0-2.529-0.746-4.883-2.106-6.658H7.106z"/>
		</g>
		<g id="XMLID_325_">
			<path d="M20.5,7h-17C2.673,7,2,6.327,2,5.5v-4C2,0.673,2.673,0,3.5,0h17C21.327,0,22,0.673,22,1.5v4C22,6.327,21.327,7,20.5,7z
				 M3.5,1C3.224,1,3,1.225,3,1.5v4C3,5.775,3.224,6,3.5,6h17C20.776,6,21,5.775,21,5.5v-4C21,1.225,20.776,1,20.5,1H3.5z"/>
		</g>
		<g id="XMLID_326_">
			<path d="M12,22c-3.309,0-6-3.141-6-7s2.691-7,6-7s6,3.141,6,7S15.309,22,12,22z M12,9c-2.757,0-5,2.691-5,6s2.243,6,5,6
				s5-2.691,5-6S14.757,9,12,9z"/>
		</g>
		<g id="XMLID_327_">
			<path d="M12,20c-1.103,0-2-0.897-2-2v-0.5c0-0.276,0.224-0.5,0.5-0.5h3c0.276,0,0.5,0.224,0.5,0.5V18C14,19.103,13.103,20,12,20z
				 M11,18c0,0.552,0.449,1,1,1s1-0.448,1-1H11z"/>
		</g>
	</g>
</g>
<g id="Stove">
</g>
<g id="Kitchen_Sink">
</g>
<g id="Island">
</g>
<g id="Eat-in_Kitchen">
</g>
<g id="Tv_Stand">
</g>
</svg>
