<?xml version="1.0" encoding="iso-8859-1"?>
<!-- Generator: Adobe Illustrator 19.2.1, SVG Export Plug-In . SVG Version: 6.00 Build 0)  -->
<svg version="1.1" xmlns="http://www.w3.org/2000/svg" xmlns:xlink="http://www.w3.org/1999/xlink" x="0px" y="0px"
	 viewBox="0 0 24 24" style="enable-background:new 0 0 24 24;" xml:space="preserve">
<g id="Armchair_1">
</g>
<g id="Armchair_2">
</g>
<g id="Armchair_3">
</g>
<g id="Armchair_4">
</g>
<g id="Sofa_1">
</g>
<g id="Sofa_2">
</g>
<g id="Sofa_3">
</g>
<g id="Sofa_4">
</g>
<g id="Sofa_5">
</g>
<g id="Sofa_6">
</g>
<g id="Desk_1">
</g>
<g id="Desk_2">
</g>
<g id="Desk_3">
</g>
<g id="Lamp">
</g>
<g id="Bed_1">
</g>
<g id="Bunk_Beds">
</g>
<g id="Bed_2">
</g>
<g id="Bed_3">
</g>
<g id="Bed_4">
</g>
<g id="Bed_5">
</g>
<g id="Table_1">
</g>
<g id="Table_2">
</g>
<g id="Table_3">
</g>
<g id="Table_4">
</g>
<g id="Rug_1">
</g>
<g id="Rug_2">
</g>
<g id="Rug_3">
</g>
<g id="Tub_1">
</g>
<g id="Tub_2">
	<g id="XMLID_261_">
		<g id="XMLID_262_">
			<g id="XMLID_263_">
				<path d="M11.5,5C11.224,5,11,4.776,11,4.5v-4C11,0.224,11.224,0,11.5,0S12,0.224,12,0.5v4C12,4.776,11.776,5,11.5,5z"/>
			</g>
			<g id="XMLID_264_">
				<path d="M12,2h-1c-0.276,0-0.5-0.224-0.5-0.5v-1C10.5,0.224,10.724,0,11,0h1c0.276,0,0.5,0.224,0.5,0.5v1
					C12.5,1.776,12.276,2,12,2z"/>
			</g>
			<g id="XMLID_265_">
				<path d="M13.5,3C13.224,3,13,2.776,13,2.5c0-0.457-0.389-0.498-0.508-0.5H10.5C10.375,2.013,10,2.088,10,2.5
					C10,2.776,9.776,3,9.5,3S9,2.776,9,2.5c0-1.032,0.878-1.462,1.469-1.499L12.5,1C13.107,1.01,14,1.417,14,2.5
					C14,2.776,13.776,3,13.5,3z"/>
			</g>
			<g id="XMLID_266_">
				<path d="M11.5,24C7.916,24,5,21.084,5,17.5v-13c0-1.545,1.001-2.886,2.491-3.337c0.262-0.079,0.543,0.069,0.623,0.334
					C8.194,1.761,8.045,2.04,7.78,2.12C6.716,2.442,6,3.398,6,4.5v13c0,3.032,2.468,5.5,5.5,5.5s5.5-2.468,5.5-5.5v-13
					c0-1.098-0.713-2.053-1.773-2.377c-0.264-0.081-0.412-0.36-0.332-0.625c0.081-0.263,0.358-0.411,0.625-0.332
					C17.003,1.62,18,2.96,18,4.5v13C18,21.084,15.084,24,11.5,24z"/>
			</g>
			<g id="XMLID_267_">
				<path d="M12.5,2h-2C10.224,2,10,1.776,10,1.5v-1C10,0.224,10.224,0,10.5,0h2C12.776,0,13,0.224,13,0.5v1
					C13,1.776,12.776,2,12.5,2z M11,1h1H11z"/>
			</g>
		</g>
		<g id="XMLID_268_">
			<circle cx="11.5" cy="6.5" r="0.5"/>
		</g>
		<g id="XMLID_269_">
			<circle cx="12.5" cy="7.5" r="0.5"/>
		</g>
		<g id="XMLID_270_">
			<circle cx="10.5" cy="7.5" r="0.5"/>
		</g>
		<g id="XMLID_271_">
			<circle cx="11.5" cy="8.5" r="0.5"/>
		</g>
		<g id="XMLID_272_">
			<path d="M17,2.5c-0.128,0-0.256-0.049-0.354-0.146c-0.195-0.195-0.195-0.512,0-0.707l0.5-0.5c0.195-0.195,0.512-0.195,0.707,0
				s0.195,0.512,0,0.707l-0.5,0.5C17.256,2.451,17.128,2.5,17,2.5z"/>
		</g>
		<g id="XMLID_273_">
			<path d="M17.521,2.353c-0.237,0-0.457-0.081-0.624-0.249c-0.403-0.403-0.308-1.106,0.222-1.636
				c0.528-0.528,1.231-0.627,1.635-0.223c0.404,0.404,0.309,1.107-0.221,1.637C18.223,2.191,17.854,2.353,17.521,2.353z"/>
		</g>
		<g id="XMLID_274_">
			<path d="M6,2.5c-0.128,0-0.256-0.049-0.354-0.146l-0.5-0.5c-0.195-0.195-0.195-0.512,0-0.707s0.512-0.195,0.707,0l0.5,0.5
				c0.195,0.195,0.195,0.512,0,0.707C6.256,2.451,6.128,2.5,6,2.5z"/>
		</g>
		<g id="XMLID_275_">
			<path d="M5.481,2.348c-0.335,0-0.706-0.158-1.009-0.461C3.945,1.359,3.852,0.658,4.255,0.255s1.106-0.308,1.632,0.218
				C6.405,0.99,6.5,1.707,6.104,2.104C5.938,2.269,5.719,2.348,5.481,2.348z"/>
		</g>
		<g id="XMLID_276_">
			<path d="M5.5,23c-0.128,0-0.256-0.049-0.354-0.146c-0.195-0.195-0.195-0.512,0-0.707l1-1c0.195-0.195,0.512-0.195,0.707,0
				s0.195,0.512,0,0.707l-1,1C5.756,22.951,5.628,23,5.5,23z"/>
		</g>
		<g id="XMLID_277_">
			<path d="M4.87,24.003c-0.236,0-0.456-0.081-0.623-0.248c-0.403-0.405-0.308-1.108,0.221-1.637
				c0.529-0.53,1.234-0.626,1.636-0.222c0.159,0.159,0.247,0.381,0.247,0.624c-0.001,0.347-0.172,0.716-0.47,1.013
				C5.572,23.842,5.204,24.003,4.87,24.003z M5.481,22.65h0.01H5.481z"/>
		</g>
		<g id="XMLID_278_">
			<path d="M17.5,23c-0.128,0-0.256-0.049-0.354-0.146l-1-1c-0.195-0.195-0.195-0.512,0-0.707s0.512-0.195,0.707,0l1,1
				c0.195,0.195,0.195,0.512,0,0.707C17.756,22.951,17.628,23,17.5,23z"/>
		</g>
		<g id="XMLID_279_">
			<path d="M18.119,23.994c-0.332,0-0.699-0.16-1.006-0.467c-0.519-0.518-0.613-1.234-0.217-1.631
				c0.397-0.397,1.113-0.3,1.631,0.217c0.527,0.527,0.621,1.229,0.218,1.632C18.577,23.913,18.356,23.994,18.119,23.994z"/>
		</g>
	</g>
</g>
<g id="Jacuzzi">
</g>
<g id="Corner_Tub">
</g>
<g id="Shower_Tray">
</g>
<g id="Sink_1">
</g>
<g id="Sink_2">
</g>
<g id="Toilette">
</g>
<g id="Stove">
</g>
<g id="Kitchen_Sink">
</g>
<g id="Island">
</g>
<g id="Eat-in_Kitchen">
</g>
<g id="Tv_Stand">
</g>
</svg>
