<?xml version="1.0" encoding="iso-8859-1"?>
<!-- Generator: Adobe Illustrator 19.2.1, SVG Export Plug-In . SVG Version: 6.00 Build 0)  -->
<svg version="1.1" xmlns="http://www.w3.org/2000/svg" xmlns:xlink="http://www.w3.org/1999/xlink" x="0px" y="0px"
	 viewBox="0 0 24 24" style="enable-background:new 0 0 24 24;" xml:space="preserve">
<g id="Armchair_1">
</g>
<g id="Armchair_2">
</g>
<g id="Armchair_3">
</g>
<g id="Armchair_4">
</g>
<g id="Sofa_1">
</g>
<g id="Sofa_2">
</g>
<g id="Sofa_3">
</g>
<g id="Sofa_4">
</g>
<g id="Sofa_5">
</g>
<g id="Sofa_6">
</g>
<g id="Desk_1">
</g>
<g id="Desk_2">
</g>
<g id="Desk_3">
</g>
<g id="Lamp">
</g>
<g id="Bed_1">
</g>
<g id="Bunk_Beds">
</g>
<g id="Bed_2">
</g>
<g id="Bed_3">
</g>
<g id="Bed_4">
</g>
<g id="Bed_5">
</g>
<g id="Table_1">
</g>
<g id="Table_2">
</g>
<g id="Table_3">
</g>
<g id="Table_4">
</g>
<g id="Rug_1">
</g>
<g id="Rug_2">
</g>
<g id="Rug_3">
</g>
<g id="Tub_1">
	<g id="XMLID_253_">
		<g id="XMLID_254_">
			<circle cx="11.5" cy="6.5" r="0.5"/>
		</g>
		<g id="XMLID_255_">
			<path d="M11.5,5C11.224,5,11,4.776,11,4.5v-4C11,0.224,11.224,0,11.5,0S12,0.224,12,0.5v4C12,4.776,11.776,5,11.5,5z"/>
		</g>
		<g id="XMLID_256_">
			<path d="M12,2h-1c-0.276,0-0.5-0.224-0.5-0.5v-1C10.5,0.224,10.724,0,11,0h1c0.276,0,0.5,0.224,0.5,0.5v1
				C12.5,1.776,12.276,2,12,2z"/>
		</g>
		<g id="XMLID_257_">
			<path d="M13.5,3C13.224,3,13,2.776,13,2.5c0-0.457-0.389-0.498-0.508-0.5H10.5C10.375,2.013,10,2.088,10,2.5
				C10,2.776,9.776,3,9.5,3S9,2.776,9,2.5c0-1.032,0.878-1.462,1.469-1.499L12.5,1C13.107,1.01,14,1.417,14,2.5
				C14,2.776,13.776,3,13.5,3z"/>
		</g>
		<g id="XMLID_258_">
			<path d="M17.5,24h-12C4.673,24,4,23.327,4,22.5v-21C4,0.673,4.673,0,5.5,0h3C8.776,0,9,0.224,9,0.5S8.776,1,8.5,1h-3
				C5.225,1,5,1.225,5,1.5v21C5,22.775,5.225,23,5.5,23h12c0.275,0,0.5-0.225,0.5-0.5v-21C18,1.225,17.775,1,17.5,1h-3
				C14.224,1,14,0.776,14,0.5S14.224,0,14.5,0h3C18.327,0,19,0.673,19,1.5v21C19,23.327,18.327,24,17.5,24z"/>
		</g>
		<g id="XMLID_259_">
			<path d="M11.5,22C8.468,22,6,19.532,6,16.5v-11c0-1.051,0.478-2.04,1.31-2.712c0.215-0.175,0.529-0.141,0.703,0.074
				s0.141,0.53-0.074,0.703C7.342,4.047,7,4.752,7,5.5v11c0,2.481,2.019,4.5,4.5,4.5s4.5-2.019,4.5-4.5v-11
				c0-0.748-0.342-1.453-0.938-1.935c-0.215-0.173-0.248-0.488-0.074-0.703s0.488-0.249,0.703-0.074C16.522,3.46,17,4.449,17,5.5v11
				C17,19.532,14.532,22,11.5,22z"/>
		</g>
		<g id="XMLID_260_">
			<path d="M12.5,2h-2C10.224,2,10,1.776,10,1.5v-1C10,0.224,10.224,0,10.5,0h2C12.776,0,13,0.224,13,0.5v1
				C13,1.776,12.776,2,12.5,2z M11,1h1H11z"/>
		</g>
	</g>
</g>
<g id="Tub_2">
</g>
<g id="Jacuzzi">
</g>
<g id="Corner_Tub">
</g>
<g id="Shower_Tray">
</g>
<g id="Sink_1">
</g>
<g id="Sink_2">
</g>
<g id="Toilette">
</g>
<g id="Stove">
</g>
<g id="Kitchen_Sink">
</g>
<g id="Island">
</g>
<g id="Eat-in_Kitchen">
</g>
<g id="Tv_Stand">
</g>
</svg>
