<?xml version="1.0" encoding="iso-8859-1"?>
<!-- Generator: Adobe Illustrator 19.2.1, SVG Export Plug-In . SVG Version: 6.00 Build 0)  -->
<svg version="1.1" xmlns="http://www.w3.org/2000/svg" xmlns:xlink="http://www.w3.org/1999/xlink" x="0px" y="0px"
	 viewBox="0 0 24 24" style="enable-background:new 0 0 24 24;" xml:space="preserve">
<g id="Armchair_1">
</g>
<g id="Armchair_2">
</g>
<g id="Armchair_3">
</g>
<g id="Armchair_4">
</g>
<g id="Sofa_1">
</g>
<g id="Sofa_2">
</g>
<g id="Sofa_3">
</g>
<g id="Sofa_4">
</g>
<g id="Sofa_5">
</g>
<g id="Sofa_6">
</g>
<g id="Desk_1">
</g>
<g id="Desk_2">
</g>
<g id="Desk_3">
</g>
<g id="Lamp">
</g>
<g id="Bed_1">
</g>
<g id="Bunk_Beds">
</g>
<g id="Bed_2">
</g>
<g id="Bed_3">
</g>
<g id="Bed_4">
</g>
<g id="Bed_5">
</g>
<g id="Table_1">
</g>
<g id="Table_2">
</g>
<g id="Table_3">
</g>
<g id="Table_4">
</g>
<g id="Rug_1">
</g>
<g id="Rug_2">
</g>
<g id="Rug_3">
</g>
<g id="Tub_1">
</g>
<g id="Tub_2">
</g>
<g id="Jacuzzi">
</g>
<g id="Corner_Tub">
</g>
<g id="Shower_Tray">
</g>
<g id="Sink_1">
</g>
<g id="Sink_2">
</g>
<g id="Toilette">
</g>
<g id="Stove">
</g>
<g id="Kitchen_Sink">
</g>
<g id="Island">
</g>
<g id="Eat-in_Kitchen">
</g>
<g id="Tv_Stand">
	<g id="XMLID_358_">
		<g id="XMLID_359_">
			<path d="M23.5,16h-23C0.224,16,0,15.776,0,15.5v-8C0,7.224,0.224,7,0.5,7h23C23.776,7,24,7.224,24,7.5v8
				C24,15.776,23.776,16,23.5,16z M1,15h22V8H1V15z"/>
		</g>
		<g id="XMLID_360_">
			<path d="M20.5,12h-17C3.224,12,3,11.776,3,11.5S3.224,11,3.5,11h17c0.276,0,0.5,0.224,0.5,0.5S20.776,12,20.5,12z"/>
		</g>
		<g id="XMLID_361_">
			<path d="M15.5,13c-0.085,0-0.17-0.021-0.248-0.065L12,11.076l-3.252,1.858c-0.237,0.132-0.545,0.054-0.683-0.187
				c-0.137-0.239-0.054-0.545,0.187-0.683l3.5-2c0.154-0.088,0.342-0.088,0.496,0l3.5,2c0.24,0.138,0.323,0.443,0.187,0.683
				C15.842,12.909,15.673,13,15.5,13z"/>
		</g>
		<g id="XMLID_362_">
			<path d="M10,17c-0.552,0-1-0.448-1-1s0.448-1,1-1s1,0.448,1,1S10.552,17,10,17z M10,15.999L10,15.999L10.5,16L10,15.999z"/>
		</g>
		<g id="XMLID_363_">
			<path d="M14,17c-0.552,0-1-0.448-1-1s0.448-1,1-1s1,0.448,1,1S14.552,17,14,17z M14,15.999L14,15.999L14.5,16L14,15.999z"/>
		</g>
	</g>
</g>
</svg>
