<?xml version="1.0" encoding="iso-8859-1"?>
<!-- Generator: Adobe Illustrator 19.2.1, SVG Export Plug-In . SVG Version: 6.00 Build 0)  -->
<svg version="1.1" xmlns="http://www.w3.org/2000/svg" xmlns:xlink="http://www.w3.org/1999/xlink" x="0px" y="0px"
	 viewBox="0 0 24 24" style="enable-background:new 0 0 24 24;" xml:space="preserve">
<g id="Event">
</g>
<g id="Event_2">
</g>
<g id="Add_Event">
</g>
<g id="Remove_Event">
</g>
<g id="Event_Reminder">
</g>
<g id="Wine_Glass">
</g>
<g id="Toast">
</g>
<g id="Champagne">
</g>
<g id="Champagne_Open">
</g>
<g id="Alcohol_Drink">
</g>
<g id="Beer_Glass">
</g>
<g id="Party_Cake">
</g>
<g id="Pizza_Food">
</g>
<g id="Disco_Ball">
</g>
<g id="Equalizer">
</g>
<g id="DJ">
</g>
<g id="Tent">
</g>
<g id="Firework_1">
</g>
<g id="Firework_2">
</g>
<g id="Party_Glasses">
</g>
<g id="Barbeque">
	<g>
		<g>
			<path d="M11.5,15C6.813,15,3,11.187,3,6.5C3,6.224,3.224,6,3.5,6S4,6.224,4,6.5c0,4.136,3.364,7.5,7.5,7.5S19,10.636,19,6.5
				C19,6.224,19.224,6,19.5,6S20,6.224,20,6.5C20,11.187,16.187,15,11.5,15z"/>
		</g>
		<g>
			<path d="M6,24c-1.103,0-2-0.897-2-2s0.897-2,2-2s2,0.897,2,2S7.103,24,6,24z M6,21c-0.551,0-1,0.448-1,1s0.449,1,1,1s1-0.448,1-1
				S6.551,21,6,21z"/>
		</g>
		<g>
			<path d="M6.364,21.046c-0.04,0-0.081-0.005-0.122-0.015c-0.268-0.067-0.431-0.339-0.364-0.606l1.636-6.546
				c0.066-0.269,0.336-0.43,0.606-0.364c0.268,0.067,0.431,0.339,0.364,0.606l-1.636,6.546C6.792,20.895,6.588,21.046,6.364,21.046z
				"/>
		</g>
		<g>
			<path d="M17.5,24c-0.222,0-0.424-0.148-0.483-0.373l-2.5-9.5c-0.07-0.267,0.089-0.54,0.356-0.61
				c0.268-0.071,0.541,0.089,0.611,0.356l2.5,9.5c0.07,0.267-0.089,0.54-0.356,0.61C17.584,23.995,17.542,24,17.5,24z"/>
		</g>
		<g>
			<path d="M16,19H7c-0.276,0-0.5-0.224-0.5-0.5S6.724,18,7,18h9c0.276,0,0.5,0.224,0.5,0.5S16.276,19,16,19z"/>
		</g>
		<g>
			<path d="M20.5,7h-18C2.224,7,2,6.776,2,6.5S2.224,6,2.5,6h18C20.776,6,21,6.224,21,6.5S20.776,7,20.5,7z"/>
		</g>
		<g>
			<path d="M21.5,10H19c-0.276,0-0.5-0.224-0.5-0.5S18.724,9,19,9h2.5C21.776,9,22,9.224,22,9.5S21.776,10,21.5,10z"/>
		</g>
		<g>
			<path d="M8.5,5C8.224,5,8,4.776,8,4.5c0-0.87-0.442-1.768-0.447-1.776C7.53,2.679,7,1.607,7,0.5C7,0.224,7.224,0,7.5,0
				S8,0.224,8,0.5c0,0.866,0.443,1.768,0.447,1.776C8.469,2.32,9,3.389,9,4.5C9,4.776,8.776,5,8.5,5z"/>
		</g>
		<g>
			<path d="M11.5,5C11.224,5,11,4.776,11,4.5c0-0.87-0.442-1.768-0.447-1.776C10.53,2.679,10,1.607,10,0.5C10,0.224,10.224,0,10.5,0
				S11,0.224,11,0.5c0,0.866,0.443,1.768,0.447,1.776C11.469,2.32,12,3.389,12,4.5C12,4.776,11.776,5,11.5,5z"/>
		</g>
		<g>
			<path d="M14.5,5C14.224,5,14,4.776,14,4.5c0-0.87-0.442-1.768-0.447-1.776C13.53,2.679,13,1.607,13,0.5C13,0.224,13.224,0,13.5,0
				S14,0.224,14,0.5c0,0.866,0.443,1.768,0.447,1.776C14.469,2.32,15,3.389,15,4.5C15,4.776,14.776,5,14.5,5z"/>
		</g>
	</g>
</g>
<g id="Horn">
</g>
<g id="Speaker">
</g>
<g id="VIP">
</g>
<g id="Event_Ticket">
</g>
<g id="VIP_Ticket">
</g>
<g id="Popcorn">
</g>
<g id="Cord">
</g>
<g id="Invitation_1">
</g>
<g id="Invitation_2">
</g>
</svg>
