<?xml version="1.0" encoding="iso-8859-1"?>
<!-- Generator: Adobe Illustrator 19.2.1, SVG Export Plug-In . SVG Version: 6.00 Build 0)  -->
<svg version="1.1" xmlns="http://www.w3.org/2000/svg" xmlns:xlink="http://www.w3.org/1999/xlink" x="0px" y="0px"
	 viewBox="0 0 24 24" style="enable-background:new 0 0 24 24;" xml:space="preserve">
<g id="Event">
</g>
<g id="Event_2">
</g>
<g id="Add_Event">
</g>
<g id="Remove_Event">
</g>
<g id="Event_Reminder">
</g>
<g id="Wine_Glass">
</g>
<g id="Toast">
</g>
<g id="Champagne">
</g>
<g id="Champagne_Open">
</g>
<g id="Alcohol_Drink">
</g>
<g id="Beer_Glass">
	<g>
		<g>
			<path d="M12.5,24h-8C2.019,24,0,21.981,0,19.5v-18C0,0.673,0.673,0,1.5,0h14C16.327,0,17,0.673,17,1.5v18
				C17,21.981,14.981,24,12.5,24z M1.5,1C1.224,1,1,1.224,1,1.5v18C1,21.43,2.57,23,4.5,23h8c1.93,0,3.5-1.57,3.5-3.5v-18
				C16,1.224,15.776,1,15.5,1H1.5z"/>
		</g>
		<g>
			<path d="M4.5,19C4.224,19,4,18.776,4,18.5v-13C4,5.224,4.224,5,4.5,5S5,5.224,5,5.5v13C5,18.776,4.776,19,4.5,19z"/>
		</g>
		<g>
			<path d="M8.5,19C8.224,19,8,18.776,8,18.5v-13C8,5.224,8.224,5,8.5,5S9,5.224,9,5.5v13C9,18.776,8.776,19,8.5,19z"/>
		</g>
		<g>
			<path d="M12.5,19c-0.276,0-0.5-0.224-0.5-0.5v-13C12,5.224,12.224,5,12.5,5S13,5.224,13,5.5v13C13,18.776,12.776,19,12.5,19z"/>
		</g>
		<g>
			<path d="M16.5,18c-0.196,0-0.382-0.115-0.462-0.308c-0.106-0.255,0.014-0.547,0.269-0.654C16.375,17.011,23,14.188,23,9.5
				c0-1.564-0.415-2.611-1.232-3.11c-1.489-0.907-4.141,0.093-5.039,0.554c-0.246,0.127-0.548,0.03-0.673-0.215
				c-0.126-0.246-0.03-0.547,0.215-0.673c0.153-0.078,3.751-1.901,6.017-0.519C23.424,6.229,24,7.563,24,9.5
				c0,5.354-7.009,8.337-7.308,8.462C16.629,17.987,16.564,18,16.5,18z"/>
		</g>
	</g>
</g>
<g id="Party_Cake">
</g>
<g id="Pizza_Food">
</g>
<g id="Disco_Ball">
</g>
<g id="Equalizer">
</g>
<g id="DJ">
</g>
<g id="Tent">
</g>
<g id="Firework_1">
</g>
<g id="Firework_2">
</g>
<g id="Party_Glasses">
</g>
<g id="Barbeque">
</g>
<g id="Horn">
</g>
<g id="Speaker">
</g>
<g id="VIP">
</g>
<g id="Event_Ticket">
</g>
<g id="VIP_Ticket">
</g>
<g id="Popcorn">
</g>
<g id="Cord">
</g>
<g id="Invitation_1">
</g>
<g id="Invitation_2">
</g>
</svg>
