<?xml version="1.0" encoding="iso-8859-1"?>
<!-- Generator: Adobe Illustrator 19.2.1, SVG Export Plug-In . SVG Version: 6.00 Build 0)  -->
<svg version="1.1" xmlns="http://www.w3.org/2000/svg" xmlns:xlink="http://www.w3.org/1999/xlink" x="0px" y="0px"
	 viewBox="0 0 24 24" style="enable-background:new 0 0 24 24;" xml:space="preserve">
<g id="Event">
</g>
<g id="Event_2">
</g>
<g id="Add_Event">
</g>
<g id="Remove_Event">
</g>
<g id="Event_Reminder">
</g>
<g id="Wine_Glass">
</g>
<g id="Toast">
</g>
<g id="Champagne">
</g>
<g id="Champagne_Open">
	<g>
		<g>
			<path d="M5.035,24c-0.4,0-0.777-0.156-1.061-0.439l-3.535-3.536C0.156,19.742,0,19.365,0,18.965c0-0.401,0.156-0.778,0.439-1.061
				l4.949-4.949c1.387-1.386,2.744-2.101,4.182-2.858c1.563-0.823,3.179-1.674,5.011-3.506l2.122-2.121
				c0.584-0.585,1.537-0.585,2.121,0l0.707,0.707c0.585,0.585,0.585,1.536,0,2.121L17.41,9.419
				c-1.813,1.813-2.669,3.434-3.498,5.001c-0.765,1.446-1.486,2.811-2.866,4.191l-4.95,4.95C5.813,23.844,5.438,24,5.035,24
				C5.036,24,5.036,24,5.035,24z M17.764,5.03c-0.128,0-0.256,0.048-0.354,0.146l-2.122,2.121c-1.938,1.939-3.699,2.866-5.252,3.684
				c-1.368,0.721-2.661,1.402-3.94,2.681l-4.949,4.95C1.052,18.706,1,18.831,1,18.965c0,0.133,0.052,0.259,0.146,0.354l0,0
				l3.535,3.536C4.776,22.948,4.901,23,5.035,23h0.001c0.133,0,0.258-0.052,0.353-0.146l4.95-4.95
				c1.273-1.274,1.961-2.575,2.689-3.952c0.823-1.557,1.756-3.322,3.675-5.241l2.121-2.122c0.195-0.195,0.195-0.512,0-0.707
				l-0.707-0.707C18.02,5.079,17.892,5.03,17.764,5.03z"/>
		</g>
		<g>
			<path d="M9.985,19.465c-0.128,0-0.256-0.049-0.354-0.146c-0.179-0.179-0.194-0.459-0.045-0.655
				c0.004-0.285-0.484-1.288-1.723-2.527c-1.284-1.284-2.329-1.752-2.555-1.72c-0.194,0.196-0.472,0.172-0.668-0.023
				c-0.194-0.195-0.155-0.536,0.04-0.731c1.03-1.029,3.601,1.479,3.89,1.768c0.289,0.29,2.798,2.858,1.768,3.889
				C10.241,19.416,10.113,19.465,9.985,19.465z"/>
		</g>
		<g>
			<path d="M7.157,22.293c-0.128,0-0.256-0.049-0.354-0.146l-4.95-4.95c-0.195-0.195-0.195-0.512,0-0.707s0.512-0.195,0.707,0
				l4.95,4.95c0.195,0.195,0.195,0.512,0,0.707C7.413,22.244,7.285,22.293,7.157,22.293z"/>
		</g>
		<g>
			<path d="M19.501,3c-0.021,0-0.04-0.001-0.06-0.003c-0.274-0.033-0.47-0.28-0.438-0.553l0,0c0.006-0.047,0.118-1.162-0.686-1.478
				c-0.257-0.101-0.384-0.391-0.283-0.648c0.102-0.256,0.393-0.382,0.648-0.282c1.524,0.599,1.323,2.446,1.313,2.524
				C19.966,2.813,19.75,3,19.501,3z"/>
		</g>
		<g>
			<path d="M23.5,6.01c-0.199,0-0.388-0.12-0.465-0.317c-0.316-0.804-1.433-0.692-1.479-0.687c-0.28,0.037-0.521-0.167-0.552-0.44
				c-0.031-0.273,0.163-0.521,0.437-0.553c0.073-0.01,1.925-0.209,2.523,1.313c0.102,0.257-0.024,0.547-0.282,0.648
				C23.623,5.999,23.561,6.01,23.5,6.01z"/>
		</g>
		<g>
			<path d="M21.5,3c-0.128,0-0.256-0.049-0.354-0.146c-0.195-0.195-0.195-0.512,0-0.707l2-2c0.195-0.195,0.512-0.195,0.707,0
				s0.195,0.512,0,0.707l-2,2C21.756,2.951,21.628,3,21.5,3z"/>
		</g>
	</g>
</g>
<g id="Alcohol_Drink">
</g>
<g id="Beer_Glass">
</g>
<g id="Party_Cake">
</g>
<g id="Pizza_Food">
</g>
<g id="Disco_Ball">
</g>
<g id="Equalizer">
</g>
<g id="DJ">
</g>
<g id="Tent">
</g>
<g id="Firework_1">
</g>
<g id="Firework_2">
</g>
<g id="Party_Glasses">
</g>
<g id="Barbeque">
</g>
<g id="Horn">
</g>
<g id="Speaker">
</g>
<g id="VIP">
</g>
<g id="Event_Ticket">
</g>
<g id="VIP_Ticket">
</g>
<g id="Popcorn">
</g>
<g id="Cord">
</g>
<g id="Invitation_1">
</g>
<g id="Invitation_2">
</g>
</svg>
