<?xml version="1.0" encoding="iso-8859-1"?>
<!-- Generator: Adobe Illustrator 19.2.1, SVG Export Plug-In . SVG Version: 6.00 Build 0)  -->
<svg version="1.1" xmlns="http://www.w3.org/2000/svg" xmlns:xlink="http://www.w3.org/1999/xlink" x="0px" y="0px"
	 viewBox="0 0 24 24" style="enable-background:new 0 0 24 24;" xml:space="preserve">
<g id="Event">
</g>
<g id="Event_2">
</g>
<g id="Add_Event">
</g>
<g id="Remove_Event">
</g>
<g id="Event_Reminder">
</g>
<g id="Wine_Glass">
</g>
<g id="Toast">
</g>
<g id="Champagne">
</g>
<g id="Champagne_Open">
</g>
<g id="Alcohol_Drink">
</g>
<g id="Beer_Glass">
</g>
<g id="Party_Cake">
</g>
<g id="Pizza_Food">
</g>
<g id="Disco_Ball">
</g>
<g id="Equalizer">
</g>
<g id="DJ">
</g>
<g id="Tent">
</g>
<g id="Firework_1">
</g>
<g id="Firework_2">
</g>
<g id="Party_Glasses">
</g>
<g id="Barbeque">
</g>
<g id="Horn">
</g>
<g id="Speaker">
</g>
<g id="VIP">
</g>
<g id="Event_Ticket">
</g>
<g id="VIP_Ticket">
</g>
<g id="Popcorn">
</g>
<g id="Cord">
	<g>
		<g>
			<path d="M6.5,22h-6C0.224,22,0,21.776,0,21.5C0,20.121,1.121,19,2.5,19h2C5.879,19,7,20.121,7,21.5C7,21.776,6.776,22,6.5,22z
				 M1.086,21h4.828c-0.206-0.582-0.762-1-1.414-1h-2C1.848,20,1.292,20.418,1.086,21z"/>
		</g>
		<g>
			<path d="M23.5,22h-6c-0.276,0-0.5-0.224-0.5-0.5c0-1.379,1.121-2.5,2.5-2.5h2c1.379,0,2.5,1.121,2.5,2.5
				C24,21.776,23.776,22,23.5,22z M18.086,21h4.828c-0.206-0.582-0.762-1-1.414-1h-2C18.848,20,18.292,20.418,18.086,21z"/>
		</g>
		<g>
			<path d="M4.5,20h-2C2.224,20,2,19.776,2,19.5v-12C2,6.673,2.673,6,3.5,6S5,6.673,5,7.5v12C5,19.776,4.776,20,4.5,20z M3,19h1V7.5
				C4,7.225,3.775,7,3.5,7S3,7.225,3,7.5V19z"/>
		</g>
		<g>
			<path d="M3.5,7C2.121,7,1,5.879,1,4.5S2.121,2,3.5,2S6,3.121,6,4.5S4.879,7,3.5,7z M3.5,3C2.673,3,2,3.673,2,4.5S2.673,6,3.5,6
				S5,5.327,5,4.5S4.327,3,3.5,3z"/>
		</g>
		<g>
			<path d="M20.5,7C19.121,7,18,5.879,18,4.5S19.121,2,20.5,2S23,3.121,23,4.5S21.879,7,20.5,7z M20.5,3C19.673,3,19,3.673,19,4.5
				S19.673,6,20.5,6S22,5.327,22,4.5S21.327,3,20.5,3z"/>
		</g>
		<g>
			<path d="M21.5,20h-2c-0.276,0-0.5-0.224-0.5-0.5v-12C19,6.673,19.673,6,20.5,6S22,6.673,22,7.5v12C22,19.776,21.776,20,21.5,20z
				 M20,19h1V7.5C21,7.225,20.775,7,20.5,7S20,7.225,20,7.5V19z"/>
		</g>
		<g>
			<path d="M12,12c-3.469,0-6.967-2.273-8.318-5.406C3.572,6.34,3.689,6.046,3.942,5.937C4.195,5.825,4.49,5.944,4.6,6.197
				C5.96,9.351,9.352,11,12,11c3.045,0,6.228-2.064,7.4-4.803c0.109-0.255,0.404-0.371,0.657-0.263
				c0.254,0.109,0.371,0.403,0.263,0.657C18.977,9.726,15.478,12,12,12z"/>
		</g>
	</g>
</g>
<g id="Invitation_1">
</g>
<g id="Invitation_2">
</g>
</svg>
