<?xml version="1.0" encoding="iso-8859-1"?>
<!-- Generator: Adobe Illustrator 19.2.1, SVG Export Plug-In . SVG Version: 6.00 Build 0)  -->
<svg version="1.1" xmlns="http://www.w3.org/2000/svg" xmlns:xlink="http://www.w3.org/1999/xlink" x="0px" y="0px"
	 viewBox="0 0 24 24" style="enable-background:new 0 0 24 24;" xml:space="preserve">
<g id="Event">
</g>
<g id="Event_2">
</g>
<g id="Add_Event">
</g>
<g id="Remove_Event">
</g>
<g id="Event_Reminder">
</g>
<g id="Wine_Glass">
</g>
<g id="Toast">
</g>
<g id="Champagne">
</g>
<g id="Champagne_Open">
</g>
<g id="Alcohol_Drink">
</g>
<g id="Beer_Glass">
</g>
<g id="Party_Cake">
</g>
<g id="Pizza_Food">
</g>
<g id="Disco_Ball">
	<g>
		<g>
			<path d="M11.5,20C6.813,20,3,16.187,3,11.5C3,6.813,6.813,3,11.5,3S20,6.813,20,11.5C20,16.187,16.187,20,11.5,20z M11.5,4
				C7.364,4,4,7.364,4,11.5S7.364,19,11.5,19s7.5-3.364,7.5-7.5S15.636,4,11.5,4z"/>
		</g>
		<g>
			<path d="M11.5,4C11.224,4,11,3.776,11,3.5v-3C11,0.224,11.224,0,11.5,0S12,0.224,12,0.5v3C12,3.776,11.776,4,11.5,4z"/>
		</g>
		<g>
			<path d="M11.5,20C9.227,20,8,15.62,8,11.5C8,7.379,9.227,3,11.5,3S15,7.379,15,11.5C15,15.62,13.773,20,11.5,20z M11.5,4
				C10.32,4,9,7.208,9,11.5c0,4.293,1.32,7.5,2.5,7.5s2.5-3.207,2.5-7.5C14,7.208,12.68,4,11.5,4z"/>
		</g>
		<g>
			<path d="M11.5,15C7.379,15,3,13.773,3,11.5S7.379,8,11.5,8S20,9.227,20,11.5S15.621,15,11.5,15z M11.5,9C7.208,9,4,10.32,4,11.5
				S7.208,14,11.5,14s7.5-1.32,7.5-2.5S15.792,9,11.5,9z"/>
		</g>
		<g>
			<path d="M1.5,12h-1C0.224,12,0,11.776,0,11.5S0.224,11,0.5,11h1C1.776,11,2,11.224,2,11.5S1.776,12,1.5,12z"/>
		</g>
		<g>
			<path d="M22.5,12h-1c-0.276,0-0.5-0.224-0.5-0.5s0.224-0.5,0.5-0.5h1c0.276,0,0.5,0.224,0.5,0.5S22.776,12,22.5,12z"/>
		</g>
		<g>
			<path d="M11.5,23c-0.276,0-0.5-0.224-0.5-0.5v-1c0-0.276,0.224-0.5,0.5-0.5s0.5,0.224,0.5,0.5v1C12,22.776,11.776,23,11.5,23z"/>
		</g>
		<g>
			<path d="M3.5,20c-0.128,0-0.256-0.049-0.354-0.146c-0.195-0.195-0.195-0.512,0-0.707l1-1c0.195-0.195,0.512-0.195,0.707,0
				s0.195,0.512,0,0.707l-1,1C3.756,19.951,3.628,20,3.5,20z"/>
		</g>
		<g>
			<path d="M18.5,5c-0.128,0-0.256-0.049-0.354-0.146c-0.195-0.195-0.195-0.512,0-0.707l1-1c0.195-0.195,0.512-0.195,0.707,0
				s0.195,0.512,0,0.707l-1,1C18.756,4.951,18.628,5,18.5,5z"/>
		</g>
		<g>
			<path d="M19.5,20c-0.128,0-0.256-0.049-0.354-0.146l-1-1c-0.195-0.195-0.195-0.512,0-0.707s0.512-0.195,0.707,0l1,1
				c0.195,0.195,0.195,0.512,0,0.707C19.756,19.951,19.628,20,19.5,20z"/>
		</g>
		<g>
			<path d="M4.5,5C4.372,5,4.244,4.951,4.146,4.854l-1-1c-0.195-0.195-0.195-0.512,0-0.707s0.512-0.195,0.707,0l1,1
				c0.195,0.195,0.195,0.512,0,0.707C4.756,4.951,4.628,5,4.5,5z"/>
		</g>
		<g>
			<path d="M1.5,12h-1C0.224,12,0,11.776,0,11.5S0.224,11,0.5,11h1C1.776,11,2,11.224,2,11.5S1.776,12,1.5,12z"/>
		</g>
		<g>
			<path d="M22.5,12h-1c-0.276,0-0.5-0.224-0.5-0.5s0.224-0.5,0.5-0.5h1c0.276,0,0.5,0.224,0.5,0.5S22.776,12,22.5,12z"/>
		</g>
		<g>
			<path d="M11.5,23c-0.276,0-0.5-0.224-0.5-0.5v-1c0-0.276,0.224-0.5,0.5-0.5s0.5,0.224,0.5,0.5v1C12,22.776,11.776,23,11.5,23z"/>
		</g>
		<g>
			<path d="M3.5,20c-0.128,0-0.256-0.049-0.354-0.146c-0.195-0.195-0.195-0.512,0-0.707l1-1c0.195-0.195,0.512-0.195,0.707,0
				s0.195,0.512,0,0.707l-1,1C3.756,19.951,3.628,20,3.5,20z"/>
		</g>
		<g>
			<path d="M18.5,5c-0.128,0-0.256-0.049-0.354-0.146c-0.195-0.195-0.195-0.512,0-0.707l1-1c0.195-0.195,0.512-0.195,0.707,0
				s0.195,0.512,0,0.707l-1,1C18.756,4.951,18.628,5,18.5,5z"/>
		</g>
		<g>
			<path d="M19.5,20c-0.128,0-0.256-0.049-0.354-0.146l-1-1c-0.195-0.195-0.195-0.512,0-0.707s0.512-0.195,0.707,0l1,1
				c0.195,0.195,0.195,0.512,0,0.707C19.756,19.951,19.628,20,19.5,20z"/>
		</g>
		<g>
			<path d="M4.5,5C4.372,5,4.244,4.951,4.146,4.854l-1-1c-0.195-0.195-0.195-0.512,0-0.707s0.512-0.195,0.707,0l1,1
				c0.195,0.195,0.195,0.512,0,0.707C4.756,4.951,4.628,5,4.5,5z"/>
		</g>
	</g>
</g>
<g id="Equalizer">
</g>
<g id="DJ">
</g>
<g id="Tent">
</g>
<g id="Firework_1">
</g>
<g id="Firework_2">
</g>
<g id="Party_Glasses">
</g>
<g id="Barbeque">
</g>
<g id="Horn">
</g>
<g id="Speaker">
</g>
<g id="VIP">
</g>
<g id="Event_Ticket">
</g>
<g id="VIP_Ticket">
</g>
<g id="Popcorn">
</g>
<g id="Cord">
</g>
<g id="Invitation_1">
</g>
<g id="Invitation_2">
</g>
</svg>
