<?xml version="1.0" encoding="iso-8859-1"?>
<!-- Generator: Adobe Illustrator 19.2.1, SVG Export Plug-In . SVG Version: 6.00 Build 0)  -->
<svg version="1.1" xmlns="http://www.w3.org/2000/svg" xmlns:xlink="http://www.w3.org/1999/xlink" x="0px" y="0px"
	 viewBox="0 0 24 24" style="enable-background:new 0 0 24 24;" xml:space="preserve">
<g id="Event">
</g>
<g id="Event_2">
</g>
<g id="Add_Event">
</g>
<g id="Remove_Event">
</g>
<g id="Event_Reminder">
</g>
<g id="Wine_Glass">
</g>
<g id="Toast">
</g>
<g id="Champagne">
</g>
<g id="Champagne_Open">
</g>
<g id="Alcohol_Drink">
</g>
<g id="Beer_Glass">
</g>
<g id="Party_Cake">
</g>
<g id="Pizza_Food">
</g>
<g id="Disco_Ball">
</g>
<g id="Equalizer">
</g>
<g id="DJ">
	<g>
		<g>
			<path d="M19.5,24h-1.188c-2.159,0-4.019-1.539-4.421-3.66l-0.864-4.557c-0.052-0.271,0.127-0.532,0.398-0.584
				c0.268-0.05,0.532,0.126,0.584,0.398l0.864,4.556C15.188,21.803,16.634,23,18.313,23H19.5c1.93,0,3.5-1.57,3.5-3.5v-6
				c0-0.275-0.225-0.5-0.5-0.5S22,13.225,22,13.5c0,0.276-0.224,0.5-0.5,0.5S21,13.776,21,13.5c0-0.827,0.673-1.5,1.5-1.5
				s1.5,0.673,1.5,1.5v6C24,21.981,21.981,24,19.5,24z"/>
		</g>
		<g>
			<path d="M19.5,17c-0.276,0-0.5-0.224-0.5-0.5v-6c0-0.276-0.225-0.5-0.5-0.5S18,10.224,18,10.5v6c0,0.276-0.224,0.5-0.5,0.5
				S17,16.776,17,16.5v-6C17,9.673,17.673,9,18.5,9S20,9.673,20,10.5v6C20,16.776,19.776,17,19.5,17z"/>
		</g>
		<g>
			<path d="M15.5,17c-0.276,0-0.5-0.224-0.5-0.5v-5c0-0.827,0.673-1.5,1.5-1.5s1.5,0.673,1.5,1.5c0,0.276-0.224,0.5-0.5,0.5
				S17,11.776,17,11.5c0-0.276-0.225-0.5-0.5-0.5S16,11.224,16,11.5v5C16,16.776,15.776,17,15.5,17z"/>
		</g>
		<g>
			<path d="M21.5,17c-0.276,0-0.5-0.224-0.5-0.5v-5c0-0.276-0.225-0.5-0.5-0.5S20,11.224,20,11.5c0,0.276-0.224,0.5-0.5,0.5
				S19,11.776,19,11.5c0-0.827,0.673-1.5,1.5-1.5s1.5,0.673,1.5,1.5v5C22,16.776,21.776,17,21.5,17z"/>
		</g>
		<g>
			<path d="M13.492,16.148c-0.223,0-0.416-0.128-0.463-0.357C13.01,15.698,13,15.601,13,15.5c0-0.827,0.673-1.5,1.5-1.5
				s1.5,0.673,1.5,1.5c0,0.276-0.224,0.5-0.5,0.5S15,15.776,15,15.5c0-0.275-0.225-0.5-0.5-0.5S14,15.225,14,15.5
				c0.056,0.271-0.114,0.58-0.385,0.636C13.574,16.144,13.532,16.148,13.492,16.148z"/>
		</g>
		<g>
			<path d="M11,22C4.935,22,0,17.065,0,11S4.935,0,11,0s11,4.935,11,11c0,0.137-0.002,0.272-0.007,0.408
				c-0.011,0.275-0.247,0.5-0.519,0.48c-0.276-0.01-0.491-0.242-0.481-0.519C20.998,11.247,21,11.124,21,11c0-5.514-4.486-10-10-10
				S1,5.486,1,11c0,5.514,4.486,10,10,10c1.165,0,2.305-0.198,3.389-0.589c0.262-0.09,0.547,0.042,0.641,0.301
				c0.094,0.26-0.041,0.547-0.301,0.641C13.535,21.782,12.28,22,11,22z"/>
		</g>
		<g>
			<path d="M11,12c-0.552,0-1-0.449-1-1s0.448-1,1-1s1,0.449,1,1S11.552,12,11,12z M11,10.999C11,11,11,11,11,10.999L11.5,11
				L11,10.999z"/>
		</g>
		<g>
			<path d="M11,14c-1.654,0-3-1.346-3-3s1.346-3,3-3s3,1.346,3,3S12.654,14,11,14z M11,9c-1.103,0-2,0.897-2,2s0.897,2,2,2
				s2-0.897,2-2S12.103,9,11,9z"/>
		</g>
		<g>
			<path d="M4.5,11.5C4.224,11.5,4,11.276,4,11c0-3.86,3.141-7,7-7c0.276,0,0.5,0.224,0.5,0.5S11.276,5,11,5c-3.309,0-6,2.691-6,6
				C5,11.276,4.776,11.5,4.5,11.5z"/>
		</g>
		<g>
			<path d="M2.5,11.5C2.224,11.5,2,11.276,2,11c0-4.962,4.037-9,9-9c0.276,0,0.5,0.224,0.5,0.5S11.276,3,11,3c-4.411,0-8,3.589-8,8
				C3,11.276,2.776,11.5,2.5,11.5z"/>
		</g>
		<g>
			<path d="M11,18c-0.276,0-0.5-0.224-0.5-0.5S10.724,17,11,17c0.886,0,1.738-0.188,2.535-0.561
				c0.252-0.118,0.548-0.009,0.665,0.241c0.117,0.251,0.009,0.548-0.241,0.665C13.028,17.78,12.033,18,11,18z"/>
		</g>
		<g>
			<path d="M11,20c-0.276,0-0.5-0.224-0.5-0.5S10.724,19,11,19c1.017,0,2.008-0.188,2.944-0.56c0.257-0.104,0.547,0.023,0.649,0.28
				c0.102,0.257-0.024,0.548-0.28,0.649C13.258,19.788,12.144,20,11,20z"/>
		</g>
	</g>
</g>
<g id="Tent">
</g>
<g id="Firework_1">
</g>
<g id="Firework_2">
</g>
<g id="Party_Glasses">
</g>
<g id="Barbeque">
</g>
<g id="Horn">
</g>
<g id="Speaker">
</g>
<g id="VIP">
</g>
<g id="Event_Ticket">
</g>
<g id="VIP_Ticket">
</g>
<g id="Popcorn">
</g>
<g id="Cord">
</g>
<g id="Invitation_1">
</g>
<g id="Invitation_2">
</g>
</svg>
