<?xml version="1.0" encoding="iso-8859-1"?>
<!-- Generator: Adobe Illustrator 19.2.1, SVG Export Plug-In . SVG Version: 6.00 Build 0)  -->
<svg version="1.1" xmlns="http://www.w3.org/2000/svg" xmlns:xlink="http://www.w3.org/1999/xlink" x="0px" y="0px"
	 viewBox="0 0 24 24" style="enable-background:new 0 0 24 24;" xml:space="preserve">
<g id="Event">
</g>
<g id="Event_2">
</g>
<g id="Add_Event">
</g>
<g id="Remove_Event">
</g>
<g id="Event_Reminder">
</g>
<g id="Wine_Glass">
</g>
<g id="Toast">
</g>
<g id="Champagne">
</g>
<g id="Champagne_Open">
</g>
<g id="Alcohol_Drink">
</g>
<g id="Beer_Glass">
</g>
<g id="Party_Cake">
</g>
<g id="Pizza_Food">
</g>
<g id="Disco_Ball">
</g>
<g id="Equalizer">
	<g>
		<g>
			<path d="M6.5,18h-5C1.224,18,1,17.776,1,17.5S1.224,17,1.5,17h5C6.776,17,7,17.224,7,17.5S6.776,18,6.5,18z"/>
		</g>
		<g>
			<path d="M14.5,18h-5C9.224,18,9,17.776,9,17.5S9.224,17,9.5,17h5c0.276,0,0.5,0.224,0.5,0.5S14.776,18,14.5,18z"/>
		</g>
		<g>
			<path d="M22.5,18h-5c-0.276,0-0.5-0.224-0.5-0.5s0.224-0.5,0.5-0.5h5c0.276,0,0.5,0.224,0.5,0.5S22.776,18,22.5,18z"/>
		</g>
		<g>
			<path d="M6.5,16h-5C1.224,16,1,15.776,1,15.5S1.224,15,1.5,15h5C6.776,15,7,15.224,7,15.5S6.776,16,6.5,16z"/>
		</g>
		<g>
			<path d="M14.5,16h-5C9.224,16,9,15.776,9,15.5S9.224,15,9.5,15h5c0.276,0,0.5,0.224,0.5,0.5S14.776,16,14.5,16z"/>
		</g>
		<g>
			<path d="M22.5,16h-5c-0.276,0-0.5-0.224-0.5-0.5s0.224-0.5,0.5-0.5h5c0.276,0,0.5,0.224,0.5,0.5S22.776,16,22.5,16z"/>
		</g>
		<g>
			<path d="M6.5,14h-5C1.224,14,1,13.776,1,13.5S1.224,13,1.5,13h5C6.776,13,7,13.224,7,13.5S6.776,14,6.5,14z"/>
		</g>
		<g>
			<path d="M14.5,14h-5C9.224,14,9,13.776,9,13.5S9.224,13,9.5,13h5c0.276,0,0.5,0.224,0.5,0.5S14.776,14,14.5,14z"/>
		</g>
		<g>
			<path d="M6.5,12h-5C1.224,12,1,11.776,1,11.5S1.224,11,1.5,11h5C6.776,11,7,11.224,7,11.5S6.776,12,6.5,12z"/>
		</g>
		<g>
			<path d="M14.5,12h-5C9.224,12,9,11.776,9,11.5S9.224,11,9.5,11h5c0.276,0,0.5,0.224,0.5,0.5S14.776,12,14.5,12z"/>
		</g>
		<g>
			<path d="M6.5,10h-5C1.224,10,1,9.776,1,9.5S1.224,9,1.5,9h5C6.776,9,7,9.224,7,9.5S6.776,10,6.5,10z"/>
		</g>
		<g>
			<path d="M6.5,8h-5C1.224,8,1,7.776,1,7.5S1.224,7,1.5,7h5C6.776,7,7,7.224,7,7.5S6.776,8,6.5,8z"/>
		</g>
		<g>
			<path d="M6.5,6h-5C1.224,6,1,5.776,1,5.5S1.224,5,1.5,5h5C6.776,5,7,5.224,7,5.5S6.776,6,6.5,6z"/>
		</g>
		<g>
			<path d="M14.5,10h-5C9.224,10,9,9.776,9,9.5S9.224,9,9.5,9h5C14.776,9,15,9.224,15,9.5S14.776,10,14.5,10z"/>
		</g>
		<g>
			<path d="M22.5,14h-5c-0.276,0-0.5-0.224-0.5-0.5s0.224-0.5,0.5-0.5h5c0.276,0,0.5,0.224,0.5,0.5S22.776,14,22.5,14z"/>
		</g>
	</g>
</g>
<g id="DJ">
</g>
<g id="Tent">
</g>
<g id="Firework_1">
</g>
<g id="Firework_2">
</g>
<g id="Party_Glasses">
</g>
<g id="Barbeque">
</g>
<g id="Horn">
</g>
<g id="Speaker">
</g>
<g id="VIP">
</g>
<g id="Event_Ticket">
</g>
<g id="VIP_Ticket">
</g>
<g id="Popcorn">
</g>
<g id="Cord">
</g>
<g id="Invitation_1">
</g>
<g id="Invitation_2">
</g>
</svg>
