<?xml version="1.0" encoding="iso-8859-1"?>
<!-- Generator: Adobe Illustrator 19.2.1, SVG Export Plug-In . SVG Version: 6.00 Build 0)  -->
<svg version="1.1" xmlns="http://www.w3.org/2000/svg" xmlns:xlink="http://www.w3.org/1999/xlink" x="0px" y="0px"
	 viewBox="0 0 24 24" style="enable-background:new 0 0 24 24;" xml:space="preserve">
<g id="Event">
</g>
<g id="Event_2">
</g>
<g id="Add_Event">
</g>
<g id="Remove_Event">
</g>
<g id="Event_Reminder">
	<g>
		<g>
			<path d="M5.5,3C5.224,3,5,2.776,5,2.5v-2C5,0.224,5.224,0,5.5,0S6,0.224,6,0.5v2C6,2.776,5.776,3,5.5,3z"/>
		</g>
		<g>
			<path d="M13.5,3C13.224,3,13,2.776,13,2.5v-2C13,0.224,13.224,0,13.5,0S14,0.224,14,0.5v2C14,2.776,13.776,3,13.5,3z"/>
		</g>
		<g>
			<path d="M11.5,2h-4C7.224,2,7,1.776,7,1.5S7.224,1,7.5,1h4C11.776,1,12,1.224,12,1.5S11.776,2,11.5,2z"/>
		</g>
		<g>
			<path d="M18.5,5h-18C0.224,5,0,4.776,0,4.5S0.224,4,0.5,4h18C18.776,4,19,4.224,19,4.5S18.776,5,18.5,5z"/>
		</g>
		<g>
			<path d="M12.566,19H3.5C1.57,19,0,17.43,0,15.5v-11C0,2.57,1.57,1,3.5,1h12C17.43,1,19,2.57,19,4.5v9c0,0.276-0.224,0.5-0.5,0.5
				S18,13.776,18,13.5v-9C18,3.122,16.878,2,15.5,2h-12C2.122,2,1,3.122,1,4.5v11C1,16.878,2.122,18,3.5,18h9.066
				c0.276,0,0.5,0.224,0.5,0.5S12.842,19,12.566,19z"/>
		</g>
		<g>
			<path d="M18.5,24c-2.481,0-4.5-2.019-4.5-4.5s2.019-4.5,4.5-4.5s4.5,2.019,4.5,4.5S20.981,24,18.5,24z M18.5,16
				c-1.93,0-3.5,1.57-3.5,3.5s1.57,3.5,3.5,3.5s3.5-1.57,3.5-3.5S20.43,16,18.5,16z"/>
		</g>
		<g>
			<path d="M13.5,17c-0.128,0-0.256-0.049-0.354-0.146c-0.195-0.195-0.195-0.512,0-0.707l2.5-2.5c0.195-0.195,0.512-0.195,0.707,0
				s0.195,0.512,0,0.707l-2.5,2.5C13.756,16.951,13.628,17,13.5,17z"/>
		</g>
		<g>
			<path d="M23.5,17c-0.128,0-0.256-0.049-0.354-0.146l-2.5-2.5c-0.195-0.195-0.195-0.512,0-0.707s0.512-0.195,0.707,0l2.5,2.5
				c0.195,0.195,0.195,0.512,0,0.707C23.756,16.951,23.628,17,23.5,17z"/>
		</g>
		<g>
			<path d="M19.5,21c-0.128,0-0.256-0.049-0.354-0.146l-1-1C18.053,19.76,18,19.633,18,19.5v-2c0-0.276,0.224-0.5,0.5-0.5
				s0.5,0.224,0.5,0.5v1.793l0.854,0.854c0.195,0.195,0.195,0.512,0,0.707C19.756,20.951,19.628,21,19.5,21z"/>
		</g>
		<g>
			<path d="M9.5,13C8.122,13,7,11.878,7,10.5c0-1.221,0.541-2.203,0.563-2.244C7.652,8.098,7.819,8,8,8h3
				c0.181,0,0.348,0.098,0.437,0.256C11.459,8.297,12,9.279,12,10.5C12,11.878,10.878,13,9.5,13z M8.318,9
				C8.188,9.311,8,9.872,8,10.5C8,11.327,8.673,12,9.5,12s1.5-0.673,1.5-1.5c0-0.626-0.189-1.188-0.318-1.5H8.318z"/>
		</g>
		<g>
			<path d="M9.5,15C9.224,15,9,14.776,9,14.5v-2C9,12.224,9.224,12,9.5,12s0.5,0.224,0.5,0.5v2C10,14.776,9.776,15,9.5,15z"/>
		</g>
		<g>
			<path d="M10.5,15h-2C8.224,15,8,14.776,8,14.5S8.224,14,8.5,14h2c0.276,0,0.5,0.224,0.5,0.5S10.776,15,10.5,15z"/>
		</g>
	</g>
</g>
<g id="Wine_Glass">
</g>
<g id="Toast">
</g>
<g id="Champagne">
</g>
<g id="Champagne_Open">
</g>
<g id="Alcohol_Drink">
</g>
<g id="Beer_Glass">
</g>
<g id="Party_Cake">
</g>
<g id="Pizza_Food">
</g>
<g id="Disco_Ball">
</g>
<g id="Equalizer">
</g>
<g id="DJ">
</g>
<g id="Tent">
</g>
<g id="Firework_1">
</g>
<g id="Firework_2">
</g>
<g id="Party_Glasses">
</g>
<g id="Barbeque">
</g>
<g id="Horn">
</g>
<g id="Speaker">
</g>
<g id="VIP">
</g>
<g id="Event_Ticket">
</g>
<g id="VIP_Ticket">
</g>
<g id="Popcorn">
</g>
<g id="Cord">
</g>
<g id="Invitation_1">
</g>
<g id="Invitation_2">
</g>
</svg>
