<?xml version="1.0" encoding="iso-8859-1"?>
<!-- Generator: Adobe Illustrator 19.2.1, SVG Export Plug-In . SVG Version: 6.00 Build 0)  -->
<svg version="1.1" xmlns="http://www.w3.org/2000/svg" xmlns:xlink="http://www.w3.org/1999/xlink" x="0px" y="0px"
	 viewBox="0 0 24 24" style="enable-background:new 0 0 24 24;" xml:space="preserve">
<g id="Event">
	<g id="Calendar_1_">
		<g>
			<path d="M18.5,23h-14C2.019,23,0,20.981,0,18.5v-12C0,4.019,2.019,2,4.5,2C4.776,2,5,2.224,5,2.5S4.776,3,4.5,3
				C2.57,3,1,4.57,1,6.5v12C1,20.43,2.57,22,4.5,22h14c1.93,0,3.5-1.57,3.5-3.5v-12C22,4.57,20.43,3,18.5,3
				C18.224,3,18,2.776,18,2.5S18.224,2,18.5,2C20.981,2,23,4.019,23,6.5v12C23,20.981,20.981,23,18.5,23z"/>
		</g>
		<g>
			<path d="M14.5,3h-6C8.224,3,8,2.776,8,2.5S8.224,2,8.5,2h6C14.776,2,15,2.224,15,2.5S14.776,3,14.5,3z"/>
		</g>
		<g>
			<path d="M22.5,8h-22C0.224,8,0,7.776,0,7.5S0.224,7,0.5,7h22C22.776,7,23,7.224,23,7.5S22.776,8,22.5,8z"/>
		</g>
		<g>
			<path d="M6.5,5C6.224,5,6,4.776,6,4.5v-4C6,0.224,6.224,0,6.5,0S7,0.224,7,0.5v4C7,4.776,6.776,5,6.5,5z"/>
		</g>
		<g>
			<path d="M16.5,5C16.224,5,16,4.776,16,4.5v-4C16,0.224,16.224,0,16.5,0S17,0.224,17,0.5v4C17,4.776,16.776,5,16.5,5z"/>
		</g>
		<g>
			<path d="M11.5,21c-0.827,0-1.5-0.673-1.5-1.5s0.673-1.5,1.5-1.5s1.5,0.673,1.5,1.5S12.327,21,11.5,21z M11.5,19
				c-0.276,0-0.5,0.224-0.5,0.5s0.224,0.5,0.5,0.5s0.5-0.224,0.5-0.5S11.776,19,11.5,19z"/>
		</g>
		<g>
			<path d="M11.504,17h-0.008c-0.819,0-1.507-0.641-1.565-1.458l-0.353-4.935c-0.03-0.414,0.115-0.825,0.398-1.129
				S10.659,9,11.074,9h0.852c0.415,0,0.815,0.174,1.098,0.478s0.428,0.715,0.398,1.129l-0.353,4.935
				C13.011,16.359,12.323,17,11.504,17z M11.074,10c-0.141,0-0.271,0.057-0.366,0.159s-0.143,0.236-0.133,0.376l0.353,4.935
				C10.949,15.768,11.199,16,11.496,16h0.008c0.297,0,0.547-0.232,0.568-0.529l0.353-4.935c0.01-0.14-0.037-0.274-0.133-0.376
				S12.066,10,11.926,10H11.074z"/>
		</g>
	</g>
</g>
<g id="Event_2">
</g>
<g id="Add_Event">
</g>
<g id="Remove_Event">
</g>
<g id="Event_Reminder">
</g>
<g id="Wine_Glass">
</g>
<g id="Toast">
</g>
<g id="Champagne">
</g>
<g id="Champagne_Open">
</g>
<g id="Alcohol_Drink">
</g>
<g id="Beer_Glass">
</g>
<g id="Party_Cake">
</g>
<g id="Pizza_Food">
</g>
<g id="Disco_Ball">
</g>
<g id="Equalizer">
</g>
<g id="DJ">
</g>
<g id="Tent">
</g>
<g id="Firework_1">
</g>
<g id="Firework_2">
</g>
<g id="Party_Glasses">
</g>
<g id="Barbeque">
</g>
<g id="Horn">
</g>
<g id="Speaker">
</g>
<g id="VIP">
</g>
<g id="Event_Ticket">
</g>
<g id="VIP_Ticket">
</g>
<g id="Popcorn">
</g>
<g id="Cord">
</g>
<g id="Invitation_1">
</g>
<g id="Invitation_2">
</g>
</svg>
