<?xml version="1.0" encoding="iso-8859-1"?>
<!-- Generator: Adobe Illustrator 19.2.1, SVG Export Plug-In . SVG Version: 6.00 Build 0)  -->
<svg version="1.1" xmlns="http://www.w3.org/2000/svg" xmlns:xlink="http://www.w3.org/1999/xlink" x="0px" y="0px"
	 viewBox="0 0 24 24" style="enable-background:new 0 0 24 24;" xml:space="preserve">
<g id="Event">
</g>
<g id="Event_2">
</g>
<g id="Add_Event">
</g>
<g id="Remove_Event">
</g>
<g id="Event_Reminder">
</g>
<g id="Wine_Glass">
</g>
<g id="Toast">
</g>
<g id="Champagne">
</g>
<g id="Champagne_Open">
</g>
<g id="Alcohol_Drink">
</g>
<g id="Beer_Glass">
</g>
<g id="Party_Cake">
</g>
<g id="Pizza_Food">
</g>
<g id="Disco_Ball">
</g>
<g id="Equalizer">
</g>
<g id="DJ">
</g>
<g id="Tent">
</g>
<g id="Firework_1">
</g>
<g id="Firework_2">
</g>
<g id="Party_Glasses">
</g>
<g id="Barbeque">
</g>
<g id="Horn">
</g>
<g id="Speaker">
</g>
<g id="VIP">
</g>
<g id="Event_Ticket">
	<g>
		<g>
			<path d="M22.5,19h-22C0.224,19,0,18.776,0,18.5v-4C0,14.224,0.224,14,0.5,14C1.327,14,2,13.327,2,12.5S1.327,11,0.5,11
				C0.224,11,0,10.776,0,10.5v-4C0,6.224,0.224,6,0.5,6h22C22.776,6,23,6.224,23,6.5v4c0,0.276-0.224,0.5-0.5,0.5
				c-0.827,0-1.5,0.673-1.5,1.5s0.673,1.5,1.5,1.5c0.276,0,0.5,0.224,0.5,0.5v4C23,18.776,22.776,19,22.5,19z M1,18h21v-3.05
				c-1.14-0.232-2-1.243-2-2.45s0.86-2.218,2-2.45V7H1v3.05c1.14,0.232,2,1.243,2,2.45s-0.86,2.218-2,2.45V18z"/>
		</g>
		<g>
			<path d="M17.5,11h-12C5.224,11,5,10.776,5,10.5S5.224,10,5.5,10h12c0.276,0,0.5,0.224,0.5,0.5S17.776,11,17.5,11z"/>
		</g>
		<g>
			<path d="M17.5,13h-12C5.224,13,5,12.776,5,12.5S5.224,12,5.5,12h12c0.276,0,0.5,0.224,0.5,0.5S17.776,13,17.5,13z"/>
		</g>
		<g>
			<path d="M17.5,15h-12C5.224,15,5,14.776,5,14.5S5.224,14,5.5,14h12c0.276,0,0.5,0.224,0.5,0.5S17.776,15,17.5,15z"/>
		</g>
	</g>
</g>
<g id="VIP_Ticket">
</g>
<g id="Popcorn">
</g>
<g id="Cord">
</g>
<g id="Invitation_1">
</g>
<g id="Invitation_2">
</g>
</svg>
