<?xml version="1.0" encoding="iso-8859-1"?>
<!-- Generator: Adobe Illustrator 19.2.1, SVG Export Plug-In . SVG Version: 6.00 Build 0)  -->
<svg version="1.1" xmlns="http://www.w3.org/2000/svg" xmlns:xlink="http://www.w3.org/1999/xlink" x="0px" y="0px"
	 viewBox="0 0 24 24" style="enable-background:new 0 0 24 24;" xml:space="preserve">
<g id="Event">
</g>
<g id="Event_2">
	<g id="Calendar_3_">
		<g>
			<path d="M18.5,23h-14C2.019,23,0,20.981,0,18.5v-12C0,4.019,2.019,2,4.5,2C4.776,2,5,2.224,5,2.5S4.776,3,4.5,3
				C2.57,3,1,4.57,1,6.5v12C1,20.43,2.57,22,4.5,22h14c1.93,0,3.5-1.57,3.5-3.5v-12C22,4.57,20.43,3,18.5,3
				C18.224,3,18,2.776,18,2.5S18.224,2,18.5,2C20.981,2,23,4.019,23,6.5v12C23,20.981,20.981,23,18.5,23z"/>
		</g>
		<g>
			<path d="M14.5,3h-6C8.224,3,8,2.776,8,2.5S8.224,2,8.5,2h6C14.776,2,15,2.224,15,2.5S14.776,3,14.5,3z"/>
		</g>
		<g>
			<path d="M22.5,8h-22C0.224,8,0,7.776,0,7.5S0.224,7,0.5,7h22C22.776,7,23,7.224,23,7.5S22.776,8,22.5,8z"/>
		</g>
		<g>
			<path d="M6.5,5C6.224,5,6,4.776,6,4.5v-4C6,0.224,6.224,0,6.5,0S7,0.224,7,0.5v4C7,4.776,6.776,5,6.5,5z"/>
		</g>
		<g>
			<path d="M16.5,5C16.224,5,16,4.776,16,4.5v-4C16,0.224,16.224,0,16.5,0S17,0.224,17,0.5v4C17,4.776,16.776,5,16.5,5z"/>
		</g>
		<g>
			<path d="M11.5,17C9.57,17,8,15.43,8,13.5c0-1.432,1.026-3.181,1.07-3.255C9.16,10.093,9.323,10,9.5,10h4
				c0.177,0,0.341,0.094,0.431,0.247C13.975,10.321,15,12.081,15,13.5C15,15.43,13.43,17,11.5,17z M9.795,11
				C9.538,11.49,9,12.616,9,13.5c0,1.378,1.122,2.5,2.5,2.5s2.5-1.122,2.5-2.5c0-0.815-0.49-1.921-0.795-2.5H9.795z"/>
		</g>
		<g>
			<path d="M11.5,20c-0.276,0-0.5-0.224-0.5-0.5v-3c0-0.276,0.224-0.5,0.5-0.5s0.5,0.224,0.5,0.5v3C12,19.776,11.776,20,11.5,20z"/>
		</g>
		<g>
			<path d="M13.5,20h-4C9.224,20,9,19.776,9,19.5S9.224,19,9.5,19h4c0.276,0,0.5,0.224,0.5,0.5S13.776,20,13.5,20z"/>
		</g>
	</g>
</g>
<g id="Add_Event">
</g>
<g id="Remove_Event">
</g>
<g id="Event_Reminder">
</g>
<g id="Wine_Glass">
</g>
<g id="Toast">
</g>
<g id="Champagne">
</g>
<g id="Champagne_Open">
</g>
<g id="Alcohol_Drink">
</g>
<g id="Beer_Glass">
</g>
<g id="Party_Cake">
</g>
<g id="Pizza_Food">
</g>
<g id="Disco_Ball">
</g>
<g id="Equalizer">
</g>
<g id="DJ">
</g>
<g id="Tent">
</g>
<g id="Firework_1">
</g>
<g id="Firework_2">
</g>
<g id="Party_Glasses">
</g>
<g id="Barbeque">
</g>
<g id="Horn">
</g>
<g id="Speaker">
</g>
<g id="VIP">
</g>
<g id="Event_Ticket">
</g>
<g id="VIP_Ticket">
</g>
<g id="Popcorn">
</g>
<g id="Cord">
</g>
<g id="Invitation_1">
</g>
<g id="Invitation_2">
</g>
</svg>
