<?xml version="1.0" encoding="iso-8859-1"?>
<!-- Generator: Adobe Illustrator 19.2.1, SVG Export Plug-In . SVG Version: 6.00 Build 0)  -->
<svg version="1.1" xmlns="http://www.w3.org/2000/svg" xmlns:xlink="http://www.w3.org/1999/xlink" x="0px" y="0px"
	 viewBox="0 0 24 24" style="enable-background:new 0 0 24 24;" xml:space="preserve">
<g id="Event">
</g>
<g id="Event_2">
</g>
<g id="Add_Event">
</g>
<g id="Remove_Event">
</g>
<g id="Event_Reminder">
</g>
<g id="Wine_Glass">
</g>
<g id="Toast">
</g>
<g id="Champagne">
</g>
<g id="Champagne_Open">
</g>
<g id="Alcohol_Drink">
</g>
<g id="Beer_Glass">
</g>
<g id="Party_Cake">
</g>
<g id="Pizza_Food">
</g>
<g id="Disco_Ball">
</g>
<g id="Equalizer">
</g>
<g id="DJ">
</g>
<g id="Tent">
</g>
<g id="Firework_1">
	<g>
		<g>
			<path d="M23.5,11c-0.13,0-0.258-0.051-0.354-0.146l-10-10c-0.143-0.143-0.186-0.358-0.108-0.545S13.298,0,13.5,0h10
				C23.776,0,24,0.224,24,0.5v10c0,0.202-0.122,0.385-0.309,0.462C23.63,10.988,23.564,11,23.5,11z M14.707,1L23,9.293V1H14.707z"/>
		</g>
		<g>
			<path d="M8.677,20.993c-0.64,0-1.28-0.243-1.768-0.73l-3.172-3.172c-0.975-0.976-0.974-2.562,0-3.535L15.146,2.146
				c0.195-0.195,0.512-0.195,0.707,0s0.195,0.512,0,0.707L4.444,14.263c-0.584,0.584-0.584,1.536,0,2.121l3.172,3.172
				c0.587,0.584,1.538,0.583,2.121,0L21.146,8.146c0.195-0.195,0.512-0.195,0.707,0s0.195,0.512,0,0.707L10.444,20.263
				C9.957,20.75,9.317,20.993,8.677,20.993z"/>
		</g>
		<g>
			<path d="M1.5,24c-0.128,0-0.256-0.049-0.354-0.146c-0.195-0.196-0.195-0.513,0-0.707l4.683-4.671
				c0.195-0.195,0.512-0.195,0.707,0c0.195,0.196,0.195,0.513,0,0.707l-4.683,4.671C1.756,23.951,1.628,24,1.5,24z"/>
		</g>
		<g>
			<path d="M1.5,20c-0.128,0-0.256-0.049-0.354-0.146l-1-1c-0.195-0.195-0.195-0.512,0-0.707s0.512-0.195,0.707,0l1,1
				c0.195,0.195,0.195,0.512,0,0.707C1.756,19.951,1.628,20,1.5,20z"/>
		</g>
		<g>
			<path d="M0.5,20c-0.128,0-0.256-0.049-0.354-0.146c-0.195-0.195-0.195-0.512,0-0.707l1-1c0.195-0.195,0.512-0.195,0.707,0
				s0.195,0.512,0,0.707l-1,1C0.756,19.951,0.628,20,0.5,20z"/>
		</g>
		<g>
			<path d="M1.303,19.521c-0.14,0-0.269-0.01-0.38-0.027c-0.273-0.043-0.46-0.299-0.417-0.571c0.043-0.273,0.302-0.459,0.571-0.417
				c0.068,0.009,1.739,0.226,2.455-1.682c0.097-0.258,0.387-0.392,0.644-0.292c0.259,0.097,0.39,0.385,0.292,0.644
				C3.766,19.048,2.258,19.521,1.303,19.521z"/>
		</g>
		<g>
			<path d="M15.5,15H3.664c-0.276,0-0.5-0.224-0.5-0.5s0.224-0.5,0.5-0.5H15.5c0.276,0,0.5,0.224,0.5,0.5S15.776,15,15.5,15z"/>
		</g>
		<g>
			<path d="M12.5,18H4.854c-0.276,0-0.5-0.224-0.5-0.5s0.224-0.5,0.5-0.5H12.5c0.276,0,0.5,0.224,0.5,0.5S12.776,18,12.5,18z"/>
		</g>
		<g>
			<path d="M18.5,12h-12C6.224,12,6,11.776,6,11.5S6.224,11,6.5,11h12c0.276,0,0.5,0.224,0.5,0.5S18.776,12,18.5,12z"/>
		</g>
		<g>
			<path d="M21,9H9.5C9.224,9,9,8.776,9,8.5S9.224,8,9.5,8H21c0.276,0,0.5,0.224,0.5,0.5S21.276,9,21,9z"/>
		</g>
		<g>
			<path d="M18.5,6h-6C12.224,6,12,5.776,12,5.5S12.224,5,12.5,5h6C18.776,5,19,5.224,19,5.5S18.776,6,18.5,6z"/>
		</g>
	</g>
</g>
<g id="Firework_2">
</g>
<g id="Party_Glasses">
</g>
<g id="Barbeque">
</g>
<g id="Horn">
</g>
<g id="Speaker">
</g>
<g id="VIP">
</g>
<g id="Event_Ticket">
</g>
<g id="VIP_Ticket">
</g>
<g id="Popcorn">
</g>
<g id="Cord">
</g>
<g id="Invitation_1">
</g>
<g id="Invitation_2">
</g>
</svg>
