<?xml version="1.0" encoding="iso-8859-1"?>
<!-- Generator: Adobe Illustrator 19.2.1, SVG Export Plug-In . SVG Version: 6.00 Build 0)  -->
<svg version="1.1" xmlns="http://www.w3.org/2000/svg" xmlns:xlink="http://www.w3.org/1999/xlink" x="0px" y="0px"
	 viewBox="0 0 24 24" style="enable-background:new 0 0 24 24;" xml:space="preserve">
<g id="Event">
</g>
<g id="Event_2">
</g>
<g id="Add_Event">
</g>
<g id="Remove_Event">
</g>
<g id="Event_Reminder">
</g>
<g id="Wine_Glass">
</g>
<g id="Toast">
</g>
<g id="Champagne">
</g>
<g id="Champagne_Open">
</g>
<g id="Alcohol_Drink">
</g>
<g id="Beer_Glass">
</g>
<g id="Party_Cake">
</g>
<g id="Pizza_Food">
</g>
<g id="Disco_Ball">
</g>
<g id="Equalizer">
</g>
<g id="DJ">
</g>
<g id="Tent">
</g>
<g id="Firework_1">
</g>
<g id="Firework_2">
</g>
<g id="Party_Glasses">
</g>
<g id="Barbeque">
</g>
<g id="Horn">
	<g>
		<g>
			<path d="M0.5,24c-0.13,0-0.258-0.051-0.354-0.146c-0.138-0.138-0.183-0.343-0.116-0.525L6.082,6.78
				c0.095-0.259,0.382-0.393,0.642-0.298c0.259,0.095,0.393,0.382,0.298,0.642L1.339,22.661l15.593-5.701
				c0.258-0.094,0.546,0.039,0.642,0.298c0.095,0.26-0.039,0.547-0.298,0.642L0.672,23.97C0.616,23.99,0.558,24,0.5,24z"/>
		</g>
		<g>
			<path d="M16.8,17.973c-1.573,0-4.306-2.006-6.537-4.236c-2.725-2.725-5.114-6.2-3.92-7.394c1.19-1.196,4.668,1.195,7.393,3.921
				c2.725,2.725,5.114,6.2,3.92,7.394C17.44,17.874,17.149,17.973,16.8,17.973z M7.227,7C7.143,7,7.083,7.017,7.05,7.05
				c-0.299,0.299,0.705,2.764,3.92,5.979c3.216,3.216,5.678,4.223,5.979,3.921c0.299-0.299-0.705-2.764-3.92-5.979
				C10.169,8.11,7.902,7,7.227,7z"/>
		</g>
		<g>
			<path d="M8,5C7.98,5,7.959,4.999,7.938,4.996C7.664,4.962,7.47,4.712,7.504,4.438l0.248-1.984C7.786,2.18,8.038,1.98,8.31,2.02
				c0.274,0.034,0.468,0.284,0.434,0.559L8.496,4.563C8.464,4.815,8.249,5,8,5z M8.495,1.016c-0.019,0-0.039-0.001-0.059-0.004
				C8.162,0.978,7.966,0.743,8,0.469l0.004-0.031c0.034-0.273,0.283-0.475,0.558-0.434C8.836,0.038,9.03,0.288,8.996,0.563
				C8.964,0.816,8.745,1.016,8.495,1.016z"/>
		</g>
		<g>
			<path d="M19.5,16.5c-0.249,0-0.464-0.185-0.496-0.438c-0.034-0.274,0.16-0.524,0.434-0.559l1.984-0.248
				c0.279-0.041,0.523,0.16,0.558,0.434c0.034,0.274-0.16,0.524-0.434,0.559l-1.984,0.248C19.541,16.499,19.52,16.5,19.5,16.5z
				 M23.499,16c-0.25,0-0.478-0.183-0.51-0.436c-0.035-0.273,0.144-0.521,0.417-0.557l0.031-0.004
				c0.274-0.035,0.524,0.159,0.559,0.433c0.035,0.274-0.159,0.524-0.433,0.56C23.542,15.999,23.52,16,23.499,16z"/>
		</g>
		<g>
			<g>
				<path d="M13.111,1.921c-0.065,0-0.131-0.013-0.194-0.039c-0.254-0.107-0.374-0.401-0.266-0.655l0.389-0.921
					c0.107-0.255,0.402-0.372,0.655-0.267c0.254,0.107,0.374,0.401,0.266,0.655l-0.389,0.921
					C13.491,1.807,13.306,1.921,13.111,1.921z"/>
			</g>
			<g>
				<path d="M11.592,5.521c-0.065,0-0.131-0.013-0.195-0.039c-0.254-0.107-0.373-0.401-0.266-0.655l0.389-0.921
					c0.107-0.256,0.399-0.372,0.655-0.267c0.254,0.107,0.373,0.401,0.266,0.655l-0.389,0.921
					C11.972,5.406,11.787,5.521,11.592,5.521z"/>
			</g>
		</g>
		<g>
			<path d="M14.5,7.5c-0.111,0-0.223-0.037-0.316-0.113c-0.214-0.175-0.246-0.489-0.071-0.703l0.633-0.774
				c0.175-0.214,0.49-0.245,0.704-0.07c0.214,0.175,0.246,0.489,0.071,0.703l-0.633,0.774C14.788,7.438,14.645,7.5,14.5,7.5z
				 M16.399,5.178c-0.111,0-0.223-0.037-0.316-0.113c-0.214-0.175-0.246-0.489-0.071-0.703l0.633-0.773
				c0.175-0.214,0.49-0.246,0.704-0.07c0.214,0.175,0.246,0.489,0.071,0.703l-0.633,0.773C16.688,5.115,16.544,5.178,16.399,5.178z
				 M18.299,2.856c-0.111,0-0.223-0.037-0.316-0.113c-0.214-0.175-0.246-0.489-0.071-0.703l0.633-0.774
				c0.175-0.214,0.49-0.245,0.704-0.07c0.214,0.175,0.246,0.489,0.071,0.703l-0.633,0.774C18.587,2.794,18.444,2.856,18.299,2.856z"
				/>
		</g>
		<g>
			<path d="M17.083,9.933c-0.145,0-0.289-0.063-0.388-0.184c-0.175-0.214-0.143-0.528,0.071-0.703l0.774-0.633
				c0.213-0.177,0.528-0.144,0.704,0.07c0.175,0.214,0.143,0.528-0.071,0.703l-0.774,0.633C17.306,9.896,17.194,9.933,17.083,9.933z
				 M19.405,8.033c-0.145,0-0.289-0.063-0.387-0.184c-0.175-0.213-0.144-0.528,0.07-0.703l0.774-0.634
				c0.215-0.176,0.529-0.145,0.704,0.07c0.175,0.213,0.144,0.528-0.07,0.703L19.721,7.92C19.628,7.996,19.516,8.033,19.405,8.033z
				 M21.727,6.133c-0.145,0-0.289-0.063-0.388-0.184c-0.175-0.214-0.143-0.528,0.071-0.703l0.774-0.633
				c0.213-0.176,0.527-0.145,0.704,0.07c0.175,0.214,0.143,0.528-0.071,0.703L22.042,6.02C21.95,6.096,21.838,6.133,21.727,6.133z"
				/>
		</g>
		<g>
			<g>
				<path d="M22.544,11.295c-0.214,0-0.412-0.138-0.478-0.353c-0.082-0.264,0.066-0.544,0.33-0.625l0.956-0.295
					c0.265-0.082,0.544,0.066,0.625,0.33c0.082,0.264-0.066,0.544-0.33,0.625l-0.956,0.295
					C22.643,11.288,22.593,11.295,22.544,11.295z"/>
			</g>
			<g>
				<path d="M18.982,12.396c-0.214,0-0.412-0.138-0.478-0.353c-0.082-0.264,0.066-0.544,0.33-0.625l0.956-0.295
					c0.265-0.082,0.544,0.066,0.625,0.33c0.082,0.264-0.066,0.544-0.33,0.625l-0.956,0.295
					C19.08,12.389,19.031,12.396,18.982,12.396z"/>
			</g>
		</g>
	</g>
</g>
<g id="Speaker">
</g>
<g id="VIP">
</g>
<g id="Event_Ticket">
</g>
<g id="VIP_Ticket">
</g>
<g id="Popcorn">
</g>
<g id="Cord">
</g>
<g id="Invitation_1">
</g>
<g id="Invitation_2">
</g>
</svg>
