<?xml version="1.0" encoding="iso-8859-1"?>
<!-- Generator: Adobe Illustrator 19.2.1, SVG Export Plug-In . SVG Version: 6.00 Build 0)  -->
<svg version="1.1" xmlns="http://www.w3.org/2000/svg" xmlns:xlink="http://www.w3.org/1999/xlink" x="0px" y="0px"
	 viewBox="0 0 24 24" style="enable-background:new 0 0 24 24;" xml:space="preserve">
<g id="Event">
</g>
<g id="Event_2">
</g>
<g id="Add_Event">
</g>
<g id="Remove_Event">
</g>
<g id="Event_Reminder">
</g>
<g id="Wine_Glass">
</g>
<g id="Toast">
</g>
<g id="Champagne">
</g>
<g id="Champagne_Open">
</g>
<g id="Alcohol_Drink">
</g>
<g id="Beer_Glass">
</g>
<g id="Party_Cake">
</g>
<g id="Pizza_Food">
</g>
<g id="Disco_Ball">
</g>
<g id="Equalizer">
</g>
<g id="DJ">
</g>
<g id="Tent">
</g>
<g id="Firework_1">
</g>
<g id="Firework_2">
</g>
<g id="Party_Glasses">
	<g>
		<g>
			<path d="M19.488,16h-1.266c-2.614,0-4.963-1.759-5.984-4.48c-0.414-1.103-0.271-2.32,0.383-3.263
				c0.063-0.09,0.128-0.176,0.197-0.257h-1.637c0.069,0.081,0.135,0.167,0.197,0.257c0.653,0.942,0.797,2.16,0.384,3.258
				C10.74,14.241,8.392,16,5.777,16H4.512c-2.229,0-4.146-1.876-4.457-4.363l-0.021-0.161c-0.153-1.228,0.204-2.436,0.981-3.315
				C1.676,7.412,2.559,7,3.501,7h16.998c0.942,0,1.825,0.412,2.485,1.161c0.777,0.879,1.135,2.087,0.981,3.314l-0.021,0.163
				C23.634,14.124,21.718,16,19.488,16z M14.92,8c-0.575,0-1.113,0.301-1.478,0.827c-0.458,0.663-0.562,1.558-0.27,2.337
				C14.048,13.496,16.029,15,18.223,15h1.266c1.727,0,3.216-1.499,3.465-3.487l0.021-0.163c0.117-0.941-0.151-1.863-0.738-2.528
				C21.767,8.292,21.15,8,20.499,8H14.92z M3.501,8C2.85,8,2.233,8.292,1.765,8.823c-0.587,0.665-0.855,1.586-0.738,2.529
				l0.021,0.161C1.296,13.501,2.785,15,4.512,15h1.266c2.193,0,4.175-1.504,5.049-3.832c0.293-0.784,0.189-1.679-0.269-2.342
				C10.193,8.301,9.655,8,9.08,8H3.501z"/>
		</g>
		<g>
			<path d="M11.399,10H0.772c-0.276,0-0.5-0.224-0.5-0.5S0.496,9,0.772,9h10.627c0.276,0,0.5,0.224,0.5,0.5S11.676,10,11.399,10z"/>
		</g>
		<g>
			<path d="M11.233,12H0.542c-0.276,0-0.5-0.224-0.5-0.5s0.224-0.5,0.5-0.5h10.691c0.276,0,0.5,0.224,0.5,0.5S11.51,12,11.233,12z"
				/>
		</g>
		<g>
			<path d="M9.996,14H1.203c-0.276,0-0.5-0.224-0.5-0.5s0.224-0.5,0.5-0.5h8.793c0.276,0,0.5,0.224,0.5,0.5S10.272,14,9.996,14z"/>
		</g>
		<g>
			<path d="M23.228,10H12.601c-0.276,0-0.5-0.224-0.5-0.5s0.224-0.5,0.5-0.5h10.627c0.276,0,0.5,0.224,0.5,0.5S23.504,10,23.228,10z
				"/>
		</g>
		<g>
			<path d="M23.458,12H12.767c-0.276,0-0.5-0.224-0.5-0.5s0.224-0.5,0.5-0.5h10.691c0.276,0,0.5,0.224,0.5,0.5S23.734,12,23.458,12z
				"/>
		</g>
		<g>
			<path d="M22.797,14h-8.8c-0.276,0-0.5-0.224-0.5-0.5s0.224-0.5,0.5-0.5h8.8c0.276,0,0.5,0.224,0.5,0.5S23.073,14,22.797,14z"/>
		</g>
	</g>
</g>
<g id="Barbeque">
</g>
<g id="Horn">
</g>
<g id="Speaker">
</g>
<g id="VIP">
</g>
<g id="Event_Ticket">
</g>
<g id="VIP_Ticket">
</g>
<g id="Popcorn">
</g>
<g id="Cord">
</g>
<g id="Invitation_1">
</g>
<g id="Invitation_2">
</g>
</svg>
