<?xml version="1.0" encoding="iso-8859-1"?>
<!-- Generator: Adobe Illustrator 19.2.1, SVG Export Plug-In . SVG Version: 6.00 Build 0)  -->
<svg version="1.1" xmlns="http://www.w3.org/2000/svg" xmlns:xlink="http://www.w3.org/1999/xlink" x="0px" y="0px"
	 viewBox="0 0 24 24" style="enable-background:new 0 0 24 24;" xml:space="preserve">
<g id="Event">
</g>
<g id="Event_2">
</g>
<g id="Add_Event">
</g>
<g id="Remove_Event">
</g>
<g id="Event_Reminder">
</g>
<g id="Wine_Glass">
</g>
<g id="Toast">
</g>
<g id="Champagne">
</g>
<g id="Champagne_Open">
</g>
<g id="Alcohol_Drink">
</g>
<g id="Beer_Glass">
</g>
<g id="Party_Cake">
	<g>
		<g>
			<path d="M21,8c-1.032,0-1.983-0.542-2.525-1.396C18.025,6.862,17.518,7,17,7c-1.032,0-1.983-0.542-2.525-1.396
				C14.025,5.862,13.518,6,13,6c-1.654,0-3-1.346-3-3s1.346-3,3-3c1.032,0,1.983,0.542,2.525,1.396C15.975,1.138,16.482,1,17,1
				c1.032,0,1.983,0.542,2.525,1.396C19.975,2.138,20.482,2,21,2c1.654,0,3,1.346,3,3S22.654,8,21,8z M18.66,5.356
				c0.041,0,0.081,0.005,0.121,0.015c0.161,0.04,0.292,0.157,0.349,0.313C19.418,6.471,20.169,7,21,7c1.103,0,2-0.897,2-2
				s-0.897-2-2-2c-0.483,0-0.955,0.184-1.327,0.516c-0.124,0.111-0.294,0.154-0.455,0.112c-0.161-0.04-0.292-0.157-0.349-0.313
				C18.582,2.529,17.831,2,17,2c-0.483,0-0.955,0.184-1.327,0.516c-0.124,0.111-0.294,0.154-0.455,0.112
				c-0.161-0.04-0.292-0.157-0.349-0.313C14.582,1.529,13.831,1,13,1c-1.103,0-2,0.897-2,2s0.897,2,2,2
				c0.483,0,0.955-0.184,1.327-0.516c0.124-0.111,0.294-0.154,0.455-0.112c0.161,0.04,0.292,0.157,0.349,0.313
				C15.418,5.471,16.169,6,17,6c0.483,0,0.955-0.184,1.327-0.516C18.419,5.401,18.539,5.356,18.66,5.356z"/>
		</g>
		<g>
			<path d="M0.5,24c-0.101,0-0.202-0.031-0.287-0.091C0.08,23.816,0,23.663,0,23.5V15c0-0.137,0.056-0.268,0.155-0.362l10.5-10
				c0.199-0.19,0.516-0.184,0.707,0.018c0.19,0.2,0.183,0.516-0.018,0.707L1,15.214v7.572l21-7.637V7c0-0.276,0.224-0.5,0.5-0.5
				S23,6.724,23,7v8.5c0,0.21-0.131,0.398-0.329,0.47l-22,8C0.615,23.99,0.558,24,0.5,24z"/>
		</g>
		<g>
			<path d="M0.5,15.5c-0.202,0-0.393-0.124-0.468-0.324c-0.097-0.259,0.034-0.547,0.292-0.644l20-7.5
				c0.258-0.096,0.547,0.034,0.644,0.292c0.097,0.259-0.034,0.547-0.292,0.644l-20,7.5C0.618,15.49,0.559,15.5,0.5,15.5z"/>
		</g>
		<g>
			<path d="M0.5,19.5c-0.204,0-0.396-0.126-0.47-0.329c-0.095-0.26,0.04-0.547,0.299-0.641l22-8c0.261-0.095,0.546,0.04,0.641,0.299
				c0.095,0.26-0.04,0.546-0.299,0.641l-22,8C0.614,19.49,0.557,19.5,0.5,19.5z"/>
		</g>
	</g>
</g>
<g id="Pizza_Food">
</g>
<g id="Disco_Ball">
</g>
<g id="Equalizer">
</g>
<g id="DJ">
</g>
<g id="Tent">
</g>
<g id="Firework_1">
</g>
<g id="Firework_2">
</g>
<g id="Party_Glasses">
</g>
<g id="Barbeque">
</g>
<g id="Horn">
</g>
<g id="Speaker">
</g>
<g id="VIP">
</g>
<g id="Event_Ticket">
</g>
<g id="VIP_Ticket">
</g>
<g id="Popcorn">
</g>
<g id="Cord">
</g>
<g id="Invitation_1">
</g>
<g id="Invitation_2">
</g>
</svg>
