<?xml version="1.0" encoding="iso-8859-1"?>
<!-- Generator: Adobe Illustrator 19.2.1, SVG Export Plug-In . SVG Version: 6.00 Build 0)  -->
<svg version="1.1" xmlns="http://www.w3.org/2000/svg" xmlns:xlink="http://www.w3.org/1999/xlink" x="0px" y="0px"
	 viewBox="0 0 24 24" style="enable-background:new 0 0 24 24;" xml:space="preserve">
<g id="Event">
</g>
<g id="Event_2">
</g>
<g id="Add_Event">
</g>
<g id="Remove_Event">
</g>
<g id="Event_Reminder">
</g>
<g id="Wine_Glass">
</g>
<g id="Toast">
</g>
<g id="Champagne">
</g>
<g id="Champagne_Open">
</g>
<g id="Alcohol_Drink">
</g>
<g id="Beer_Glass">
</g>
<g id="Party_Cake">
</g>
<g id="Pizza_Food">
	<g>
		<g>
			<path d="M21.349,11.878c-0.216,0-0.416-0.141-0.479-0.359c-0.078-0.265,0.073-0.542,0.338-0.621C22.263,10.587,23,9.601,23,8.5
				C23,7.122,21.878,6,20.5,6c-0.618,0-1.215,0.236-1.683,0.664c-0.142,0.13-0.345,0.167-0.523,0.096
				c-0.178-0.071-0.3-0.238-0.313-0.43C17.891,5.023,16.801,4,15.5,4c-0.618,0-1.215,0.236-1.683,0.664
				c-0.141,0.13-0.346,0.166-0.523,0.096c-0.178-0.071-0.3-0.238-0.313-0.43C12.891,3.023,11.801,2,10.5,2C9.122,2,8,3.122,8,4.5
				c0,0.549,0.175,1.071,0.506,1.508c0.167,0.22,0.123,0.534-0.097,0.701C8.188,6.874,7.875,6.83,7.708,6.611
				C7.245,5.999,7,5.269,7,4.5C7,2.57,8.57,1,10.5,1c1.54,0,2.868,1.02,3.321,2.437C14.334,3.152,14.91,3,15.5,3
				c1.54,0,2.868,1.02,3.321,2.437C19.334,5.152,19.91,5,20.5,5C22.43,5,24,6.57,24,8.5c0,1.542-1.032,2.922-2.51,3.357
				C21.443,11.872,21.396,11.878,21.349,11.878z"/>
		</g>
		<g>
			<path d="M0.5,22c-0.131,0-0.26-0.052-0.356-0.148c-0.15-0.152-0.187-0.384-0.091-0.575L7.66,6.085
				c0.125-0.247,0.422-0.347,0.671-0.224c0.247,0.124,0.347,0.424,0.223,0.671L1.606,20.407l19.524-9.479
				c0.249-0.12,0.548-0.017,0.668,0.231c0.121,0.249,0.017,0.547-0.231,0.668L0.718,21.95C0.649,21.983,0.574,22,0.5,22z"/>
		</g>
		<g>
			<path d="M11.465,16.677c-0.062,0-0.124-0.012-0.185-0.035L11,16.53c-1.251-0.649-2-1.803-2-3.03c0-1.93,1.794-3.5,4-3.5
				s4,1.57,4,3.5l-0.026,0.316c-0.041,0.273-0.286,0.467-0.569,0.42c-0.273-0.04-0.461-0.295-0.42-0.568l0.019-0.124
				C16,12.122,14.654,11,13,11s-3,1.122-3,2.5c0,0.867,0.529,1.66,1.416,2.122l0.234,0.09c0.256,0.103,0.382,0.394,0.279,0.649
				C11.852,16.558,11.664,16.677,11.465,16.677z"/>
		</g>
		<g>
			<path d="M3.922,16.903c-0.314,0-0.627-0.032-0.929-0.096c-0.271-0.057-0.443-0.321-0.387-0.592
				c0.057-0.27,0.321-0.445,0.592-0.387c0.235,0.049,0.479,0.074,0.724,0.074c1.654,0,3-1.121,3-2.5
				c0-0.841-0.505-1.622-1.351-2.088c-0.242-0.133-0.33-0.438-0.197-0.679c0.134-0.242,0.438-0.33,0.679-0.197
				c1.17,0.645,1.869,1.753,1.869,2.964C7.922,15.333,6.127,16.903,3.922,16.903z"/>
		</g>
		<g>
			<path d="M20.5,12c-0.064,0-0.13-0.012-0.193-0.039L7.914,6.771c-0.254-0.107-0.375-0.4-0.268-0.655
				C7.753,5.862,8.044,5.742,8.3,5.848l12.393,5.19c0.254,0.107,0.375,0.4,0.268,0.655C20.881,11.885,20.695,12,20.5,12z"/>
		</g>
	</g>
</g>
<g id="Disco_Ball">
</g>
<g id="Equalizer">
</g>
<g id="DJ">
</g>
<g id="Tent">
</g>
<g id="Firework_1">
</g>
<g id="Firework_2">
</g>
<g id="Party_Glasses">
</g>
<g id="Barbeque">
</g>
<g id="Horn">
</g>
<g id="Speaker">
</g>
<g id="VIP">
</g>
<g id="Event_Ticket">
</g>
<g id="VIP_Ticket">
</g>
<g id="Popcorn">
</g>
<g id="Cord">
</g>
<g id="Invitation_1">
</g>
<g id="Invitation_2">
</g>
</svg>
