<?xml version="1.0" encoding="iso-8859-1"?>
<!-- Generator: Adobe Illustrator 19.2.1, SVG Export Plug-In . SVG Version: 6.00 Build 0)  -->
<svg version="1.1" xmlns="http://www.w3.org/2000/svg" xmlns:xlink="http://www.w3.org/1999/xlink" x="0px" y="0px"
	 viewBox="0 0 24 24" style="enable-background:new 0 0 24 24;" xml:space="preserve">
<g id="Event">
</g>
<g id="Event_2">
</g>
<g id="Add_Event">
</g>
<g id="Remove_Event">
</g>
<g id="Event_Reminder">
</g>
<g id="Wine_Glass">
</g>
<g id="Toast">
</g>
<g id="Champagne">
</g>
<g id="Champagne_Open">
</g>
<g id="Alcohol_Drink">
</g>
<g id="Beer_Glass">
</g>
<g id="Party_Cake">
</g>
<g id="Pizza_Food">
</g>
<g id="Disco_Ball">
</g>
<g id="Equalizer">
</g>
<g id="DJ">
</g>
<g id="Tent">
</g>
<g id="Firework_1">
</g>
<g id="Firework_2">
</g>
<g id="Party_Glasses">
</g>
<g id="Barbeque">
</g>
<g id="Horn">
</g>
<g id="Speaker">
</g>
<g id="VIP">
</g>
<g id="Event_Ticket">
</g>
<g id="VIP_Ticket">
</g>
<g id="Popcorn">
	<g>
		<g>
			<path d="M15.798,24H7.202c-0.733,0-1.346-0.575-1.425-1.338L4.003,6.555c-0.016-0.142,0.03-0.282,0.125-0.389
				C4.223,6.061,4.357,6,4.5,6h14c0.143,0,0.277,0.061,0.372,0.166c0.095,0.106,0.141,0.247,0.125,0.389l-1.774,16.11
				C17.144,23.425,16.531,24,15.798,24z M5.058,7l1.714,15.556C6.798,22.811,6.983,23,7.202,23h8.596
				c0.219,0,0.404-0.189,0.431-0.441L17.942,7H5.058z"/>
		</g>
		<g>
			<path d="M17.954,7c-0.051,0-0.104-0.008-0.154-0.024c-0.263-0.085-0.406-0.367-0.321-0.63C17.515,6.234,17.533,6.118,17.533,6
				c0-0.563-0.556-1-1.033-1C16.224,5,16,4.776,16,4.5C16,4.219,15.731,4,15.5,4C15.224,4,15,3.776,15,3.5
				c0-0.265-0.17-0.49-0.38-0.516c-0.026,0.006-0.053,0.012-0.068,0.013c-0.265,0.027-0.503-0.155-0.545-0.417
				c-0.07-0.432-0.146-0.456-0.396-0.535c-0.135-0.043-0.246-0.142-0.305-0.271c-0.058-0.129-0.059-0.277-0.002-0.407
				c0.021-0.045,0.029-0.082,0.029-0.117c0-0.21-0.252-0.276-0.335-0.167c-0.088,0.113-0.221,0.183-0.363,0.191
				c-0.157,0.009-0.284-0.045-0.385-0.146C12.191,1.07,12.095,1,11.967,1c-0.239,0-0.434,0.225-0.434,0.5c0,0.276-0.224,0.5-0.5,0.5
				c-0.116,0-0.21,0.066-0.269,0.122c-0.176,0.166-0.446,0.185-0.64,0.041C9.664,1.828,8.978,2.084,8.791,2.669
				C8.72,2.895,8.516,3.046,8.263,3.015C8.248,3.014,8.224,3.009,8.2,3.004C8.153,3.015,8.104,3.049,8.063,3.099
				C7.995,3.183,7.968,3.294,7.989,3.396c0.005,0.025,0.019,0.104,0.02,0.13c0.009,0.17-0.069,0.333-0.207,0.433
				C7.662,4.058,7.484,4.08,7.325,4.018C7.116,4,6.996,4.071,6.988,4.108C6.951,4.276,6.829,4.414,6.666,4.472
				C6.299,4.602,6,5.063,6,5.5c0.02,0.191-0.062,0.471-0.227,0.57C5.621,6.164,5.467,6.332,5.467,6.5c0,0.276-0.224,0.5-0.5,0.5
				s-0.5-0.224-0.5-0.5c0-0.462,0.247-0.843,0.535-1.098c0.036-0.748,0.481-1.451,1.11-1.777c0.171-0.314,0.503-0.538,0.903-0.604
				c0.046-0.196,0.138-0.387,0.271-0.552c0.184-0.227,0.427-0.38,0.691-0.44c0.455-0.865,1.548-1.262,2.413-0.862
				c0.064-0.035,0.132-0.064,0.199-0.089C10.767,0.455,11.316,0,11.967,0c0.214,0,0.422,0.051,0.612,0.146
				C12.749,0.052,12.938,0,13.134,0c0.661,0,1.199,0.561,1.199,1.25c0,0.009,0,0.018,0,0.026c0.276,0.168,0.455,0.404,0.567,0.745
				c0.498,0.122,0.897,0.527,1.041,1.048c0.462,0.147,0.835,0.519,0.986,0.979C17.821,4.254,18.533,5.078,18.533,6
				c0,0.223-0.035,0.443-0.104,0.654C18.361,6.866,18.165,7,17.954,7z"/>
		</g>
		<g>
			<path d="M11.5,13c-0.276,0-0.5-0.224-0.5-0.5v-4C11,8.224,11.224,8,11.5,8S12,8.224,12,8.5v4C12,12.776,11.776,13,11.5,13z"/>
		</g>
		<g>
			<path d="M7.914,14.391c-0.258,0-0.478-0.199-0.497-0.462L7.002,8.538C6.98,8.263,7.187,8.022,7.462,8.002
				c0.258-0.037,0.516,0.184,0.536,0.46l0.415,5.391c0.021,0.275-0.185,0.516-0.46,0.536C7.94,14.391,7.928,14.391,7.914,14.391z"/>
		</g>
		<g>
			<path d="M8.499,22c-0.259,0-0.478-0.199-0.497-0.462l-0.398-5.182c-0.021-0.275,0.185-0.516,0.46-0.536
				c0.249-0.04,0.516,0.184,0.536,0.46l0.398,5.182c0.021,0.275-0.185,0.516-0.46,0.536C8.525,22,8.513,22,8.499,22z"/>
		</g>
		<g>
			<path d="M15.086,14.391c-0.014,0-0.026,0-0.039-0.002c-0.275-0.021-0.481-0.261-0.46-0.536l0.415-5.391
				c0.021-0.276,0.289-0.498,0.536-0.46c0.275,0.021,0.481,0.261,0.46,0.536l-0.415,5.391
				C15.563,14.191,15.344,14.391,15.086,14.391z"/>
		</g>
		<g>
			<path d="M14.501,22c-0.014,0-0.026,0-0.039-0.002c-0.275-0.021-0.481-0.261-0.46-0.536L14.4,16.28
				c0.021-0.276,0.289-0.502,0.536-0.46c0.275,0.021,0.481,0.261,0.46,0.536l-0.398,5.182C14.979,21.801,14.759,22,14.501,22z"/>
		</g>
		<g>
			<path d="M11.5,18C8.977,18,7,16.683,7,15s1.977-3,4.5-3s4.5,1.317,4.5,3S14.023,18,11.5,18z M11.5,13C9.603,13,8,13.916,8,15
				s1.603,2,3.5,2s3.5-0.916,3.5-2S13.397,13,11.5,13z"/>
		</g>
		<g>
			<path d="M11.5,22c-0.276,0-0.5-0.224-0.5-0.5v-4c0-0.276,0.224-0.5,0.5-0.5s0.5,0.224,0.5,0.5v4C12,21.776,11.776,22,11.5,22z"/>
		</g>
	</g>
</g>
<g id="Cord">
</g>
<g id="Invitation_1">
</g>
<g id="Invitation_2">
</g>
</svg>
