<?xml version="1.0" encoding="iso-8859-1"?>
<!-- Generator: Adobe Illustrator 19.2.1, SVG Export Plug-In . SVG Version: 6.00 Build 0)  -->
<svg version="1.1" xmlns="http://www.w3.org/2000/svg" xmlns:xlink="http://www.w3.org/1999/xlink" x="0px" y="0px"
	 viewBox="0 0 24 24" style="enable-background:new 0 0 24 24;" xml:space="preserve">
<g id="Event">
</g>
<g id="Event_2">
</g>
<g id="Add_Event">
</g>
<g id="Remove_Event">
</g>
<g id="Event_Reminder">
</g>
<g id="Wine_Glass">
</g>
<g id="Toast">
</g>
<g id="Champagne">
</g>
<g id="Champagne_Open">
</g>
<g id="Alcohol_Drink">
</g>
<g id="Beer_Glass">
</g>
<g id="Party_Cake">
</g>
<g id="Pizza_Food">
</g>
<g id="Disco_Ball">
</g>
<g id="Equalizer">
</g>
<g id="DJ">
</g>
<g id="Tent">
</g>
<g id="Firework_1">
</g>
<g id="Firework_2">
</g>
<g id="Party_Glasses">
</g>
<g id="Barbeque">
</g>
<g id="Horn">
</g>
<g id="Speaker">
	<g>
		<g>
			<path d="M17.5,23.5h-12C4.673,23.5,4,22.827,4,22V2c0-0.827,0.673-1.5,1.5-1.5h12C18.327,0.5,19,1.173,19,2v20
				C19,22.827,18.327,23.5,17.5,23.5z M5.5,1.5C5.224,1.5,5,1.725,5,2v20c0,0.275,0.224,0.5,0.5,0.5h12c0.276,0,0.5-0.225,0.5-0.5V2
				c0-0.275-0.224-0.5-0.5-0.5H5.5z"/>
		</g>
		<g>
			<path d="M11.5,21.5C8.467,21.5,6,19.032,6,16s2.467-5.5,5.5-5.5S17,12.968,17,16S14.533,21.5,11.5,21.5z M11.5,11.5
				C9.019,11.5,7,13.519,7,16s2.019,4.5,4.5,4.5S16,18.481,16,16S13.981,11.5,11.5,11.5z"/>
		</g>
		<g>
			<path d="M11.5,9.5C9.57,9.5,8,7.93,8,6s1.57-3.5,3.5-3.5S15,4.07,15,6S13.43,9.5,11.5,9.5z M11.5,3.5C10.122,3.5,9,4.621,9,6
				s1.122,2.5,2.5,2.5S14,7.379,14,6S12.878,3.5,11.5,3.5z"/>
		</g>
		<g>
			<path d="M11.5,18.5C10.122,18.5,9,17.379,9,16s1.122-2.5,2.5-2.5S14,14.621,14,16S12.878,18.5,11.5,18.5z M11.5,14.5
				c-0.827,0-1.5,0.673-1.5,1.5s0.673,1.5,1.5,1.5S13,16.827,13,16S12.327,14.5,11.5,14.5z"/>
		</g>
		<g>
			<path d="M11.5,7c-0.551,0-1-0.448-1-1s0.449-1,1-1s1,0.448,1,1S12.051,7,11.5,7z M11.5,5.999C11.5,5.999,11.5,6,11.5,5.999L12,6
				L11.5,5.999z"/>
		</g>
	</g>
</g>
<g id="VIP">
</g>
<g id="Event_Ticket">
</g>
<g id="VIP_Ticket">
</g>
<g id="Popcorn">
</g>
<g id="Cord">
</g>
<g id="Invitation_1">
</g>
<g id="Invitation_2">
</g>
</svg>
