<?xml version="1.0" encoding="iso-8859-1"?>
<!-- Generator: Adobe Illustrator 19.2.1, SVG Export Plug-In . SVG Version: 6.00 Build 0)  -->
<svg version="1.1" xmlns="http://www.w3.org/2000/svg" xmlns:xlink="http://www.w3.org/1999/xlink" x="0px" y="0px"
	 viewBox="0 0 24 24" style="enable-background:new 0 0 24 24;" xml:space="preserve">
<g id="Event">
</g>
<g id="Event_2">
</g>
<g id="Add_Event">
</g>
<g id="Remove_Event">
</g>
<g id="Event_Reminder">
</g>
<g id="Wine_Glass">
</g>
<g id="Toast">
</g>
<g id="Champagne">
</g>
<g id="Champagne_Open">
</g>
<g id="Alcohol_Drink">
</g>
<g id="Beer_Glass">
</g>
<g id="Party_Cake">
</g>
<g id="Pizza_Food">
</g>
<g id="Disco_Ball">
</g>
<g id="Equalizer">
</g>
<g id="DJ">
</g>
<g id="Tent">
	<g>
		<g>
			<path d="M22.5,9h-22C0.253,9,0.044,8.82,0.006,8.576C-0.031,8.333,0.114,8.098,0.35,8.023C0.428,7.999,8.18,5.5,11.062,0.259
				C11.149,0.099,11.317,0,11.5,0c0.001,0,0.002,0,0.003,0c0.183,0.001,0.351,0.102,0.438,0.264
				c2.839,5.289,10.628,7.734,10.706,7.758c0.237,0.073,0.385,0.308,0.348,0.552C22.958,8.819,22.747,9,22.5,9z M3.126,8h16.711
				c-2.494-1.121-6.231-3.236-8.342-6.523C9.354,4.748,5.609,6.874,3.126,8z"/>
		</g>
		<g>
			<path d="M3.5,12C3.224,12,3,11.776,3,11.5S3.224,11,3.5,11C4.327,11,5,10.327,5,9.5v-1C5,8.224,5.224,8,5.5,8S6,8.224,6,8.5v1
				C6,10.878,4.879,12,3.5,12z"/>
		</g>
		<g>
			<path d="M19.5,12c-1.379,0-2.5-1.122-2.5-2.5v-1C17,8.224,17.224,8,17.5,8S18,8.224,18,8.5v1c0,0.827,0.673,1.5,1.5,1.5
				c0.276,0,0.5,0.224,0.5,0.5S19.776,12,19.5,12z"/>
		</g>
		<g>
			<path d="M15.5,12c-1.379,0-2.5-1.122-2.5-2.5v-1C13,8.224,13.224,8,13.5,8S14,8.224,14,8.5v1c0,0.827,0.673,1.5,1.5,1.5
				S17,10.327,17,9.5v-1C17,8.224,17.224,8,17.5,8S18,8.224,18,8.5v1C18,10.878,16.879,12,15.5,12z"/>
		</g>
		<g>
			<path d="M11.5,12C10.121,12,9,10.878,9,9.5v-1C9,8.224,9.224,8,9.5,8S10,8.224,10,8.5v1c0,0.827,0.673,1.5,1.5,1.5
				S13,10.327,13,9.5v-1C13,8.224,13.224,8,13.5,8S14,8.224,14,8.5v1C14,10.878,12.879,12,11.5,12z"/>
		</g>
		<g>
			<path d="M7.5,12C6.121,12,5,10.878,5,9.5v-1C5,8.224,5.224,8,5.5,8S6,8.224,6,8.5v1C6,10.327,6.673,11,7.5,11S9,10.327,9,9.5v-1
				C9,8.224,9.224,8,9.5,8S10,8.224,10,8.5v1C10,10.878,8.879,12,7.5,12z"/>
		</g>
		<g>
			<path d="M1.5,24h-1C0.224,24,0,23.776,0,23.5v-15C0,8.224,0.224,8,0.5,8h3C3.776,8,4,8.224,4,8.5
				c0,8.446-2.002,15.08-2.021,15.146C1.914,23.856,1.72,24,1.5,24z M1,23h0.123c0.394-1.431,1.809-7.039,1.875-14H1V23z"/>
		</g>
		<g>
			<path d="M22.5,24h-1c-0.22,0-0.414-0.144-0.479-0.354C21.002,23.58,19,16.946,19,8.5C19,8.224,19.224,8,19.5,8h3
				C22.776,8,23,8.224,23,8.5v15C23,23.776,22.776,24,22.5,24z M21.877,23H22V9h-1.998C20.068,15.967,21.483,21.57,21.877,23z"/>
		</g>
	</g>
</g>
<g id="Firework_1">
</g>
<g id="Firework_2">
</g>
<g id="Party_Glasses">
</g>
<g id="Barbeque">
</g>
<g id="Horn">
</g>
<g id="Speaker">
</g>
<g id="VIP">
</g>
<g id="Event_Ticket">
</g>
<g id="VIP_Ticket">
</g>
<g id="Popcorn">
</g>
<g id="Cord">
</g>
<g id="Invitation_1">
</g>
<g id="Invitation_2">
</g>
</svg>
