<?xml version="1.0" encoding="iso-8859-1"?>
<!-- Generator: Adobe Illustrator 19.2.1, SVG Export Plug-In . SVG Version: 6.00 Build 0)  -->
<svg version="1.1" xmlns="http://www.w3.org/2000/svg" xmlns:xlink="http://www.w3.org/1999/xlink" x="0px" y="0px"
	 viewBox="0 0 24 24" style="enable-background:new 0 0 24 24;" xml:space="preserve">
<g id="Event">
</g>
<g id="Event_2">
</g>
<g id="Add_Event">
</g>
<g id="Remove_Event">
</g>
<g id="Event_Reminder">
</g>
<g id="Wine_Glass">
</g>
<g id="Toast">
	<g>
		<g>
			<path d="M6.5,15.465c-1.654,0-3-1.346-3-3c0-0.676,0.231-1.339,0.651-1.867c0.174-0.216,0.488-0.251,0.703-0.08
				c0.216,0.172,0.252,0.487,0.08,0.703C4.65,11.578,4.5,12.008,4.5,12.465c0,1.103,0.897,2,2,2c0.777,0,1.49-0.456,1.816-1.162
				c0.116-0.251,0.413-0.36,0.664-0.244c0.251,0.116,0.359,0.413,0.244,0.664C8.734,14.781,7.665,15.465,6.5,15.465z"/>
		</g>
		<g>
			<path d="M2.764,19.508c-0.085,0-0.171-0.021-0.25-0.067c-0.239-0.138-0.321-0.444-0.184-0.683l2.517-4.361
				c0.137-0.239,0.441-0.321,0.683-0.183c0.239,0.138,0.321,0.444,0.184,0.683l-2.517,4.361C3.104,19.418,2.937,19.508,2.764,19.508
				z"/>
		</g>
		<g>
			<path d="M8.771,14.013c-0.074,0-0.149-0.016-0.22-0.051c-0.248-0.122-0.351-0.421-0.229-0.669l2.026-4.134L7.631,7.535
				l-2.686,3.67c-0.163,0.223-0.476,0.272-0.698,0.108c-0.224-0.163-0.271-0.476-0.108-0.699l2.954-4.037
				c0.151-0.208,0.442-0.265,0.659-0.134l3.504,2.092c0.224,0.133,0.308,0.416,0.193,0.649l-2.229,4.548
				C9.134,13.91,8.956,14.013,8.771,14.013z"/>
		</g>
		<g>
			<path d="M4.5,20.535c-0.087,0-0.175-0.022-0.255-0.07l-3.5-2.07c-0.237-0.141-0.316-0.447-0.176-0.685
				c0.142-0.238,0.447-0.317,0.686-0.176l3.5,2.07c0.237,0.141,0.316,0.447,0.176,0.685C4.837,20.447,4.671,20.535,4.5,20.535z"/>
		</g>
		<g>
			<path d="M17.5,15.464c-1.166,0-2.235-0.684-2.725-1.742c-0.115-0.251-0.007-0.548,0.244-0.664
				c0.251-0.117,0.547-0.007,0.664,0.244c0.326,0.706,1.039,1.162,1.816,1.162c1.103,0,2-0.897,2-2c0-0.457-0.15-0.887-0.435-1.244
				c-0.172-0.216-0.136-0.531,0.08-0.703c0.216-0.17,0.529-0.137,0.703,0.08c0.42,0.528,0.651,1.191,0.651,1.867
				C20.5,14.118,19.154,15.464,17.5,15.464z"/>
		</g>
		<g>
			<path d="M21.236,19.507c-0.173,0-0.341-0.09-0.434-0.25l-2.516-4.361c-0.138-0.239-0.056-0.545,0.184-0.683
				c0.24-0.139,0.545-0.056,0.684,0.183l2.516,4.361c0.138,0.239,0.056,0.545-0.184,0.683
				C21.407,19.486,21.321,19.507,21.236,19.507z"/>
		</g>
		<g>
			<path d="M15.229,14.012c-0.185,0-0.362-0.103-0.449-0.28l-2.229-4.548c-0.114-0.234-0.03-0.516,0.193-0.649l3.504-2.092
				c0.221-0.131,0.508-0.075,0.659,0.134l2.954,4.037c0.163,0.223,0.115,0.536-0.108,0.699c-0.222,0.162-0.536,0.115-0.698-0.108
				l-2.686-3.67l-2.718,1.623l2.026,4.135c0.121,0.248,0.019,0.548-0.229,0.669C15.378,13.996,15.303,14.012,15.229,14.012z"/>
		</g>
		<g>
			<path d="M19.5,20.535c-0.171,0-0.337-0.087-0.431-0.246c-0.141-0.237-0.062-0.544,0.176-0.685l3.5-2.071
				c0.237-0.141,0.544-0.063,0.686,0.176c0.141,0.237,0.062,0.544-0.176,0.685l-3.5,2.071C19.675,20.512,19.587,20.535,19.5,20.535z
				"/>
		</g>
		<g>
			<path d="M11,6.465c-0.225,0-0.429-0.151-0.485-0.379l-0.5-2C9.948,3.818,10.11,3.547,10.379,3.48
				c0.264-0.068,0.539,0.095,0.606,0.364l0.5,2c0.066,0.268-0.096,0.539-0.364,0.606C11.081,6.46,11.04,6.465,11,6.465z"/>
		</g>
		<g>
			<path d="M13,6.465c-0.04,0-0.08-0.005-0.121-0.015c-0.269-0.067-0.431-0.338-0.364-0.606l0.5-2
				c0.066-0.269,0.334-0.432,0.606-0.364c0.269,0.067,0.431,0.338,0.364,0.606l-0.5,2C13.429,6.313,13.225,6.465,13,6.465z"/>
		</g>
		<g>
			<path d="M13.5,15.465c-0.225,0-0.429-0.151-0.485-0.379l-0.5-2c-0.066-0.268,0.096-0.539,0.364-0.606
				c0.262-0.07,0.539,0.095,0.606,0.364l0.5,2c0.066,0.268-0.096,0.539-0.364,0.606C13.581,15.46,13.54,15.465,13.5,15.465z"/>
		</g>
		<g>
			<path d="M10.5,15.465c-0.04,0-0.08-0.005-0.121-0.015c-0.269-0.067-0.431-0.338-0.364-0.606l0.5-2
				c0.066-0.268,0.336-0.434,0.606-0.364c0.269,0.067,0.431,0.338,0.364,0.606l-0.5,2C10.929,15.313,10.725,15.465,10.5,15.465z"/>
		</g>
	</g>
</g>
<g id="Champagne">
</g>
<g id="Champagne_Open">
</g>
<g id="Alcohol_Drink">
</g>
<g id="Beer_Glass">
</g>
<g id="Party_Cake">
</g>
<g id="Pizza_Food">
</g>
<g id="Disco_Ball">
</g>
<g id="Equalizer">
</g>
<g id="DJ">
</g>
<g id="Tent">
</g>
<g id="Firework_1">
</g>
<g id="Firework_2">
</g>
<g id="Party_Glasses">
</g>
<g id="Barbeque">
</g>
<g id="Horn">
</g>
<g id="Speaker">
</g>
<g id="VIP">
</g>
<g id="Event_Ticket">
</g>
<g id="VIP_Ticket">
</g>
<g id="Popcorn">
</g>
<g id="Cord">
</g>
<g id="Invitation_1">
</g>
<g id="Invitation_2">
</g>
</svg>
