<?xml version="1.0" encoding="iso-8859-1"?>
<!-- Generator: Adobe Illustrator 19.2.1, SVG Export Plug-In . SVG Version: 6.00 Build 0)  -->
<svg version="1.1" xmlns="http://www.w3.org/2000/svg" xmlns:xlink="http://www.w3.org/1999/xlink" x="0px" y="0px"
	 viewBox="0 0 24 24" style="enable-background:new 0 0 24 24;" xml:space="preserve">
<g id="Event">
</g>
<g id="Event_2">
</g>
<g id="Add_Event">
</g>
<g id="Remove_Event">
</g>
<g id="Event_Reminder">
</g>
<g id="Wine_Glass">
</g>
<g id="Toast">
</g>
<g id="Champagne">
</g>
<g id="Champagne_Open">
</g>
<g id="Alcohol_Drink">
</g>
<g id="Beer_Glass">
</g>
<g id="Party_Cake">
</g>
<g id="Pizza_Food">
</g>
<g id="Disco_Ball">
</g>
<g id="Equalizer">
</g>
<g id="DJ">
</g>
<g id="Tent">
</g>
<g id="Firework_1">
</g>
<g id="Firework_2">
</g>
<g id="Party_Glasses">
</g>
<g id="Barbeque">
</g>
<g id="Horn">
</g>
<g id="Speaker">
</g>
<g id="VIP">
</g>
<g id="Event_Ticket">
</g>
<g id="VIP_Ticket">
	<g>
		<g>
			<path d="M22.5,19h-22C0.224,19,0,18.776,0,18.5v-4C0,14.224,0.224,14,0.5,14C1.327,14,2,13.327,2,12.5S1.327,11,0.5,11
				C0.224,11,0,10.776,0,10.5v-4C0,6.224,0.224,6,0.5,6h22C22.776,6,23,6.224,23,6.5v4c0,0.276-0.224,0.5-0.5,0.5
				c-0.827,0-1.5,0.673-1.5,1.5s0.673,1.5,1.5,1.5c0.276,0,0.5,0.224,0.5,0.5v4C23,18.776,22.776,19,22.5,19z M1,18h21v-3.05
				c-1.14-0.232-2-1.243-2-2.45s0.86-2.218,2-2.45V7H1v3.05c1.14,0.232,2,1.243,2,2.45s-0.86,2.218-2,2.45V18z"/>
		</g>
		<g>
			<path d="M8.5,15c-0.229,0-0.43-0.156-0.485-0.379l-1-4c-0.066-0.268,0.096-0.539,0.364-0.606
				c0.265-0.064,0.539,0.096,0.606,0.364l0.515,2.06l0.515-2.06c0.066-0.269,0.333-0.428,0.606-0.364
				c0.269,0.067,0.431,0.339,0.364,0.606l-1,4C8.93,14.844,8.729,15,8.5,15z"/>
		</g>
		<g>
			<path d="M11.5,15c-0.276,0-0.5-0.224-0.5-0.5v-4c0-0.276,0.224-0.5,0.5-0.5s0.5,0.224,0.5,0.5v4C12,14.776,11.776,15,11.5,15z"/>
		</g>
		<g>
			<path d="M13.5,15c-0.276,0-0.5-0.224-0.5-0.5v-4c0-0.276,0.224-0.5,0.5-0.5h1c0.827,0,1.5,0.673,1.5,1.5S15.327,13,14.5,13H14
				v1.5C14,14.776,13.776,15,13.5,15z M14,12h0.5c0.275,0,0.5-0.225,0.5-0.5S14.775,11,14.5,11H14V12z"/>
		</g>
	</g>
</g>
<g id="Popcorn">
</g>
<g id="Cord">
</g>
<g id="Invitation_1">
</g>
<g id="Invitation_2">
</g>
</svg>
