<?xml version="1.0" encoding="iso-8859-1"?>
<!-- Generator: Adobe Illustrator 19.2.1, SVG Export Plug-In . SVG Version: 6.00 Build 0)  -->
<svg version="1.1" xmlns="http://www.w3.org/2000/svg" xmlns:xlink="http://www.w3.org/1999/xlink" x="0px" y="0px"
	 viewBox="0 0 24 24" style="enable-background:new 0 0 24 24;" xml:space="preserve">
<g id="Event">
</g>
<g id="Event_2">
</g>
<g id="Add_Event">
</g>
<g id="Remove_Event">
</g>
<g id="Event_Reminder">
</g>
<g id="Wine_Glass">
</g>
<g id="Toast">
</g>
<g id="Champagne">
</g>
<g id="Champagne_Open">
</g>
<g id="Alcohol_Drink">
</g>
<g id="Beer_Glass">
</g>
<g id="Party_Cake">
</g>
<g id="Pizza_Food">
</g>
<g id="Disco_Ball">
</g>
<g id="Equalizer">
</g>
<g id="DJ">
</g>
<g id="Tent">
</g>
<g id="Firework_1">
</g>
<g id="Firework_2">
</g>
<g id="Party_Glasses">
</g>
<g id="Barbeque">
</g>
<g id="Horn">
</g>
<g id="Speaker">
</g>
<g id="VIP">
	<g>
		<g>
			<path d="M16.5,24h-10C5.122,24,4,22.879,4,21.5v-14C4,6.121,5.122,5,6.5,5h10C17.878,5,19,6.121,19,7.5v14
				C19,22.879,17.878,24,16.5,24z M6.5,6C5.673,6,5,6.673,5,7.5v14C5,22.327,5.673,23,6.5,23h10c0.827,0,1.5-0.673,1.5-1.5v-14
				C18,6.673,17.327,6,16.5,6H6.5z"/>
		</g>
		<g>
			<path d="M8.5,19c-0.229,0-0.429-0.156-0.485-0.379l-1-4c-0.067-0.268,0.096-0.539,0.364-0.606
				c0.267-0.065,0.539,0.096,0.606,0.364l0.515,2.06l0.515-2.06c0.067-0.269,0.337-0.431,0.606-0.364
				c0.268,0.067,0.431,0.339,0.364,0.606l-1,4C8.929,18.844,8.729,19,8.5,19z"/>
		</g>
		<g>
			<path d="M11.5,19c-0.276,0-0.5-0.224-0.5-0.5v-4c0-0.276,0.224-0.5,0.5-0.5s0.5,0.224,0.5,0.5v4C12,18.776,11.776,19,11.5,19z"/>
		</g>
		<g>
			<path d="M13.5,19c-0.276,0-0.5-0.224-0.5-0.5v-4c0-0.276,0.224-0.5,0.5-0.5h1c0.827,0,1.5,0.673,1.5,1.5S15.327,17,14.5,17H14
				v1.5C14,18.776,13.776,19,13.5,19z M14,16h0.5c0.276,0,0.5-0.225,0.5-0.5S14.776,15,14.5,15H14V16z"/>
		</g>
		<g>
			<path d="M16.5,13h-10C6.224,13,6,12.776,6,12.5S6.224,12,6.5,12h10c0.276,0,0.5,0.224,0.5,0.5S16.776,13,16.5,13z"/>
		</g>
		<g>
			<path d="M16.5,21h-10C6.224,21,6,20.776,6,20.5S6.224,20,6.5,20h10c0.276,0,0.5,0.224,0.5,0.5S16.776,21,16.5,21z"/>
		</g>
		<g>
			<path d="M11.5,10C10.673,10,10,9.327,10,8.5S10.673,7,11.5,7S13,7.673,13,8.5S12.327,10,11.5,10z M11.5,8
				C11.224,8,11,8.225,11,8.5S11.224,9,11.5,9S12,8.775,12,8.5S11.776,8,11.5,8z"/>
		</g>
		<g>
			<path d="M11.5,9c-0.075,0-0.151-0.017-0.223-0.053c-0.247-0.124-0.347-0.424-0.224-0.671l4-8
				c0.124-0.246,0.424-0.349,0.671-0.224c0.247,0.124,0.347,0.424,0.224,0.671l-4,8C11.859,8.898,11.683,9,11.5,9z"/>
		</g>
		<g>
			<path d="M10,6c-0.184,0-0.36-0.102-0.448-0.276l-2.5-5C6.929,0.477,7.029,0.177,7.276,0.053C7.523-0.072,7.824,0.03,7.947,0.276
				l2.5,5c0.124,0.247,0.023,0.547-0.224,0.671C10.152,5.983,10.076,6,10,6z"/>
		</g>
	</g>
</g>
<g id="Event_Ticket">
</g>
<g id="VIP_Ticket">
</g>
<g id="Popcorn">
</g>
<g id="Cord">
</g>
<g id="Invitation_1">
</g>
<g id="Invitation_2">
</g>
</svg>
