<?xml version="1.0" encoding="iso-8859-1"?>
<!-- Generator: Adobe Illustrator 19.2.1, SVG Export Plug-In . SVG Version: 6.00 Build 0)  -->
<svg version="1.1" xmlns="http://www.w3.org/2000/svg" xmlns:xlink="http://www.w3.org/1999/xlink" x="0px" y="0px"
	 viewBox="0 0 24 24" style="enable-background:new 0 0 24 24;" xml:space="preserve">
<g id="Event">
</g>
<g id="Event_2">
</g>
<g id="Add_Event">
</g>
<g id="Remove_Event">
</g>
<g id="Event_Reminder">
</g>
<g id="Wine_Glass">
	<g>
		<g>
			<path d="M11.5,22c-0.276,0-0.5-0.224-0.5-0.5v-7c0-0.276,0.224-0.5,0.5-0.5s0.5,0.224,0.5,0.5v7C12,21.776,11.776,22,11.5,22z"/>
		</g>
		<g>
			<path d="M15.5,24h-8C7.224,24,7,23.776,7,23.5c0-1.425,1.935-2.5,4.5-2.5s4.5,1.075,4.5,2.5C16,23.776,15.776,24,15.5,24z
				 M8.233,23h6.533c-0.495-0.536-1.732-1-3.267-1S8.729,22.464,8.233,23z"/>
		</g>
		<g>
			<path d="M14,9H9C8.724,9,8.5,8.776,8.5,8.5S8.724,8,9,8h5c0.276,0,0.5,0.224,0.5,0.5S14.276,9,14,9z"/>
		</g>
		<g>
			<path d="M11.5,15C9.57,15,8,13.43,8,11.5C8,9.836,8.962,0.83,9.003,0.447C9.03,0.193,9.244,0,9.5,0h4
				c0.256,0,0.47,0.193,0.497,0.447C14.038,0.83,15,9.836,15,11.5C15,13.43,13.43,15,11.5,15z M9.95,1C9.752,2.878,9,10.094,9,11.5
				c0,1.378,1.121,2.5,2.5,2.5s2.5-1.122,2.5-2.5c0-1.406-0.752-8.622-0.95-10.5H9.95z"/>
		</g>
	</g>
</g>
<g id="Toast">
</g>
<g id="Champagne">
</g>
<g id="Champagne_Open">
</g>
<g id="Alcohol_Drink">
</g>
<g id="Beer_Glass">
</g>
<g id="Party_Cake">
</g>
<g id="Pizza_Food">
</g>
<g id="Disco_Ball">
</g>
<g id="Equalizer">
</g>
<g id="DJ">
</g>
<g id="Tent">
</g>
<g id="Firework_1">
</g>
<g id="Firework_2">
</g>
<g id="Party_Glasses">
</g>
<g id="Barbeque">
</g>
<g id="Horn">
</g>
<g id="Speaker">
</g>
<g id="VIP">
</g>
<g id="Event_Ticket">
</g>
<g id="VIP_Ticket">
</g>
<g id="Popcorn">
</g>
<g id="Cord">
</g>
<g id="Invitation_1">
</g>
<g id="Invitation_2">
</g>
</svg>
