<?xml version="1.0" encoding="iso-8859-1"?>
<!-- Generator: Adobe Illustrator 19.2.1, SVG Export Plug-In . SVG Version: 6.00 Build 0)  -->
<svg version="1.1" xmlns="http://www.w3.org/2000/svg" xmlns:xlink="http://www.w3.org/1999/xlink" x="0px" y="0px"
	 viewBox="0 0 24 24" style="enable-background:new 0 0 24 24;" xml:space="preserve">
<g id="Snowflake_1">
</g>
<g id="Snowflake_2">
</g>
<g id="Snowflake_3">
</g>
<g id="Snowflake_4">
</g>
<g id="Winter_Cap_1">
</g>
<g id="Winter_Cap_2">
</g>
<g id="Glowes">
</g>
<g id="Sweater_1">
</g>
<g id="Sweater_2">
</g>
<g id="Sweater_3">
</g>
<g id="Scarf">
</g>
<g id="Winter_Socks">
</g>
<g id="Winter_Sock">
</g>
<g id="Winter_Coat">
</g>
<g id="Winter_Calendar">
</g>
<g id="Thermometer_1">
</g>
<g id="Thermometer_2">
</g>
<g id="Cold">
	<g>
		<g>
			<path d="M11.5,24c-0.276,0-0.5-0.224-0.5-0.5v-23C11,0.224,11.224,0,11.5,0S12,0.224,12,0.5v23C12,23.776,11.776,24,11.5,24z"/>
		</g>
		<g>
			<path d="M17.5,15.8c-0.082,0-0.164-0.02-0.241-0.062l-16-8.8c-0.242-0.133-0.33-0.437-0.197-0.679
				c0.135-0.243,0.438-0.329,0.68-0.197l16,8.8c0.242,0.133,0.33,0.437,0.197,0.679C17.847,15.706,17.676,15.8,17.5,15.8z"/>
		</g>
		<g>
			<path d="M1.5,18c-0.176,0-0.347-0.094-0.438-0.259c-0.133-0.242-0.045-0.546,0.197-0.679l16-8.8
				c0.243-0.133,0.545-0.045,0.68,0.197c0.133,0.242,0.045,0.546-0.197,0.679l-16,8.8C1.664,17.98,1.582,18,1.5,18z"/>
		</g>
		<g>
			<path d="M11.5,6c-0.128,0-0.256-0.049-0.354-0.146l-4-4c-0.195-0.195-0.195-0.512,0-0.707s0.512-0.195,0.707,0L11.5,4.793
				l3.646-3.646c0.195-0.195,0.512-0.195,0.707,0s0.195,0.512,0,0.707l-4,4C11.756,5.951,11.628,6,11.5,6z"/>
		</g>
		<g>
			<path d="M15.5,23c-0.128,0-0.256-0.049-0.354-0.146L11.5,19.207l-3.646,3.646c-0.195,0.195-0.512,0.195-0.707,0
				s-0.195-0.512,0-0.707l4-4c0.195-0.195,0.512-0.195,0.707,0l4,4c0.195,0.195,0.195,0.512,0,0.707
				C15.756,22.951,15.628,23,15.5,23z"/>
		</g>
		<g>
			<path d="M4.242,21.078c-0.046,0-0.092-0.006-0.139-0.02c-0.266-0.077-0.418-0.354-0.342-0.619l1.432-4.964l-4.841-1.497
				c-0.264-0.082-0.412-0.361-0.33-0.625c0.081-0.264,0.36-0.414,0.625-0.33l5.31,1.642c0.261,0.081,0.408,0.354,0.333,0.616
				l-1.567,5.436C4.659,20.935,4.46,21.078,4.242,21.078z"/>
		</g>
		<g>
			<path d="M0.5,11c-0.214,0-0.411-0.138-0.478-0.352c-0.082-0.264,0.066-0.544,0.33-0.625l4.841-1.497L3.762,3.561
				C3.686,3.295,3.838,3.019,4.104,2.942c0.27-0.077,0.542,0.077,0.619,0.342L6.29,8.719c0.075,0.262-0.072,0.536-0.333,0.616
				l-5.31,1.642C0.599,10.993,0.549,11,0.5,11z"/>
		</g>
		<g>
			<g>
				<path d="M20.493,23.999c-0.214,0-0.431-0.019-0.646-0.059c-1.393-0.253-2.51-1.357-2.779-2.746
					c-0.292-1.504,0.373-2.965,1.696-3.721C18.909,17.391,19,17.23,19,17.056V5.5C19,4.673,19.673,4,20.5,4S22,4.673,22,5.5v11.555
					c0,0.173,0.097,0.337,0.254,0.429l0,0C23.331,18.108,24,19.264,24,20.5c0,1.041-0.459,2.021-1.259,2.688
					C22.107,23.717,21.313,23.999,20.493,23.999z M20.5,5C20.225,5,20,5.224,20,5.5v11.556c0,0.532-0.283,1.025-0.74,1.287
					c-0.945,0.54-1.42,1.585-1.21,2.662c0.188,0.973,1.001,1.775,1.977,1.953c0.762,0.138,1.494-0.053,2.074-0.536
					C22.672,21.944,23,21.244,23,20.5c0-0.894-0.467-1.698-1.248-2.151l0,0C21.288,18.08,21,17.584,21,17.055V5.5
					C21,5.224,20.775,5,20.5,5z"/>
			</g>
			<g>
				<path d="M23.5,16h-4c-0.276,0-0.5-0.224-0.5-0.5s0.224-0.5,0.5-0.5h4c0.276,0,0.5,0.224,0.5,0.5S23.776,16,23.5,16z"/>
			</g>
			<g>
				<path d="M23.5,12h-2c-0.276,0-0.5-0.224-0.5-0.5s0.224-0.5,0.5-0.5h2c0.276,0,0.5,0.224,0.5,0.5S23.776,12,23.5,12z"/>
			</g>
			<g>
				<path d="M23.5,8h-2C21.224,8,21,7.776,21,7.5S21.224,7,21.5,7h2C23.776,7,24,7.224,24,7.5S23.776,8,23.5,8z"/>
			</g>
		</g>
	</g>
</g>
<g id="Icicle">
</g>
<g id="Snowing">
</g>
<g id="Snow_Shoes_1">
</g>
<g id="Snow_Shoes_2">
</g>
<g id="Sledge">
</g>
<g id="Snow_Boots">
</g>
<g id="Snowcapped_Mountains">
</g>
<g id="Skis">
</g>
<g id="Sky_Glasses">
</g>
<g id="Snowboard">
</g>
<g id="Ice_Skate">
</g>
<g id="Wooden_House">
</g>
<g id="Snowcapped_House">
</g>
<g id="Hot_Drink">
</g>
<g id="Hot_Chocolate">
</g>
<g id="Lantern">
</g>
<g id="Snow_Shovel">
</g>
<g id="Snowman">
</g>
<g id="Reindeer">
</g>
<g id="Snowmobile">
</g>
<g id="Snow_Chain">
</g>
<g id="Slippery_Road">
</g>
</svg>
