<?xml version="1.0" encoding="iso-8859-1"?>
<!-- Generator: Adobe Illustrator 19.2.1, SVG Export Plug-In . SVG Version: 6.00 Build 0)  -->
<svg version="1.1" xmlns="http://www.w3.org/2000/svg" xmlns:xlink="http://www.w3.org/1999/xlink" x="0px" y="0px"
	 viewBox="0 0 24 24" style="enable-background:new 0 0 24 24;" xml:space="preserve">
<g id="Snowflake_1">
</g>
<g id="Snowflake_2">
</g>
<g id="Snowflake_3">
</g>
<g id="Snowflake_4">
</g>
<g id="Winter_Cap_1">
</g>
<g id="Winter_Cap_2">
</g>
<g id="Glowes">
	<g>
		<g>
			<path d="M21.5,24h-14C6.673,24,6,23.327,6,22.5v-3C6,18.673,6.673,18,7.5,18h14c0.827,0,1.5,0.673,1.5,1.5v3
				C23,23.327,22.327,24,21.5,24z M7.5,19C7.225,19,7,19.224,7,19.5v3C7,22.776,7.225,23,7.5,23h14c0.275,0,0.5-0.224,0.5-0.5v-3
				c0-0.276-0.225-0.5-0.5-0.5H7.5z"/>
		</g>
		<g>
			<path d="M7.5,19c-0.217,0-0.417-0.142-0.48-0.361c-1.014-3.5-4.673-5.909-4.899-6.055c-0.009-0.005-0.017-0.01-0.024-0.015
				C1.409,12.102,1,11.329,1,10.5C1,9.122,2.121,8,3.5,8c0.442,0,0.877,0.117,1.258,0.339C4.77,8.346,4.781,8.354,4.792,8.361
				L7,9.634V7.5C7,3.364,10.364,0,14.5,0S22,3.364,22,7.5v11c0,0.276-0.224,0.5-0.5,0.5S21,18.776,21,18.5v-11
				C21,3.916,18.084,1,14.5,1S8,3.916,8,7.5v3c0,0.179-0.096,0.344-0.25,0.433c-0.154,0.089-0.346,0.089-0.5,0L4.253,9.205
				C4.242,9.198,4.23,9.191,4.22,9.184C4,9.063,3.752,9,3.5,9C2.673,9,2,9.673,2,10.5c0,0.493,0.242,0.954,0.647,1.234
				c0.249,0.158,4.196,2.703,5.333,6.626c0.076,0.265-0.076,0.542-0.341,0.62C7.593,18.994,7.546,19,7.5,19z"/>
		</g>
		<g>
			<path d="M8.5,22C8.224,22,8,21.776,8,21.5v-1C8,20.224,8.224,20,8.5,20S9,20.224,9,20.5v1C9,21.776,8.776,22,8.5,22z"/>
		</g>
		<g>
			<path d="M14.5,22c-0.276,0-0.5-0.224-0.5-0.5v-1c0-0.276,0.224-0.5,0.5-0.5s0.5,0.224,0.5,0.5v1C15,21.776,14.776,22,14.5,22z"/>
		</g>
		<g>
			<path d="M11.5,22c-0.276,0-0.5-0.224-0.5-0.5v-1c0-0.276,0.224-0.5,0.5-0.5s0.5,0.224,0.5,0.5v1C12,21.776,11.776,22,11.5,22z"/>
		</g>
		<g>
			<path d="M17.5,22c-0.276,0-0.5-0.224-0.5-0.5v-1c0-0.276,0.224-0.5,0.5-0.5s0.5,0.224,0.5,0.5v1C18,21.776,17.776,22,17.5,22z"/>
		</g>
		<g>
			<path d="M20.5,22c-0.276,0-0.5-0.224-0.5-0.5v-1c0-0.276,0.224-0.5,0.5-0.5s0.5,0.224,0.5,0.5v1C21,21.776,20.776,22,20.5,22z"/>
		</g>
	</g>
</g>
<g id="Sweater_1">
</g>
<g id="Sweater_2">
</g>
<g id="Sweater_3">
</g>
<g id="Scarf">
</g>
<g id="Winter_Socks">
</g>
<g id="Winter_Sock">
</g>
<g id="Winter_Coat">
</g>
<g id="Winter_Calendar">
</g>
<g id="Thermometer_1">
</g>
<g id="Thermometer_2">
</g>
<g id="Cold">
</g>
<g id="Icicle">
</g>
<g id="Snowing">
</g>
<g id="Snow_Shoes_1">
</g>
<g id="Snow_Shoes_2">
</g>
<g id="Sledge">
</g>
<g id="Snow_Boots">
</g>
<g id="Snowcapped_Mountains">
</g>
<g id="Skis">
</g>
<g id="Sky_Glasses">
</g>
<g id="Snowboard">
</g>
<g id="Ice_Skate">
</g>
<g id="Wooden_House">
</g>
<g id="Snowcapped_House">
</g>
<g id="Hot_Drink">
</g>
<g id="Hot_Chocolate">
</g>
<g id="Lantern">
</g>
<g id="Snow_Shovel">
</g>
<g id="Snowman">
</g>
<g id="Reindeer">
</g>
<g id="Snowmobile">
</g>
<g id="Snow_Chain">
</g>
<g id="Slippery_Road">
</g>
</svg>
