<?xml version="1.0" encoding="iso-8859-1"?>
<!-- Generator: Adobe Illustrator 19.2.1, SVG Export Plug-In . SVG Version: 6.00 Build 0)  -->
<svg version="1.1" xmlns="http://www.w3.org/2000/svg" xmlns:xlink="http://www.w3.org/1999/xlink" x="0px" y="0px"
	 viewBox="0 0 24 24" style="enable-background:new 0 0 24 24;" xml:space="preserve">
<g id="Snowflake_1">
</g>
<g id="Snowflake_2">
</g>
<g id="Snowflake_3">
</g>
<g id="Snowflake_4">
</g>
<g id="Winter_Cap_1">
</g>
<g id="Winter_Cap_2">
</g>
<g id="Glowes">
</g>
<g id="Sweater_1">
</g>
<g id="Sweater_2">
</g>
<g id="Sweater_3">
</g>
<g id="Scarf">
</g>
<g id="Winter_Socks">
</g>
<g id="Winter_Sock">
</g>
<g id="Winter_Coat">
</g>
<g id="Winter_Calendar">
</g>
<g id="Thermometer_1">
</g>
<g id="Thermometer_2">
</g>
<g id="Cold">
</g>
<g id="Icicle">
</g>
<g id="Snowing">
</g>
<g id="Snow_Shoes_1">
</g>
<g id="Snow_Shoes_2">
</g>
<g id="Sledge">
</g>
<g id="Snow_Boots">
</g>
<g id="Snowcapped_Mountains">
</g>
<g id="Skis">
</g>
<g id="Sky_Glasses">
</g>
<g id="Snowboard">
</g>
<g id="Ice_Skate">
</g>
<g id="Wooden_House">
</g>
<g id="Snowcapped_House">
</g>
<g id="Hot_Drink">
	<g>
		<g>
			<path d="M19.5,22.999h-16c-1.06,0-1.699-0.493-2.232-1.025l-1.121-1.121c-0.143-0.143-0.186-0.358-0.108-0.545
				c0.077-0.187,0.26-0.309,0.462-0.309h22c0.202,0,0.385,0.122,0.462,0.309c0.078,0.187,0.035,0.402-0.108,0.545l-1.121,1.121
				C21.199,22.506,20.56,22.999,19.5,22.999z M1.707,20.999l0.268,0.268c0.541,0.541,0.94,0.732,1.525,0.732h16
				c0.585,0,0.984-0.191,1.525-0.732l0.268-0.268H1.707z"/>
		</g>
		<g>
			<path d="M15.125,20.999c-0.146,0-0.291-0.063-0.39-0.187c-0.173-0.215-0.139-0.53,0.076-0.703c2.026-1.631,3.188-4.04,3.188-6.61
				v-3c0-0.275-0.224-0.5-0.5-0.5h-12c-0.276,0-0.5,0.225-0.5,0.5v3c0,2.571,1.162,4.98,3.188,6.61
				c0.215,0.173,0.249,0.488,0.076,0.703c-0.172,0.216-0.487,0.249-0.703,0.076C5.298,19.067,4,16.374,4,13.499v-3
				c0-0.827,0.673-1.5,1.5-1.5h12c0.827,0,1.5,0.673,1.5,1.5v3c0,2.875-1.298,5.568-3.562,7.39
				C15.346,20.963,15.235,20.999,15.125,20.999z"/>
		</g>
		<g>
			<path d="M15.002,7.999c-0.147,0-0.292-0.064-0.391-0.188c-0.813-1.016-0.813-2.607,0-3.623c0.516-0.646,0.516-1.731,0.001-2.375
				c-0.172-0.216-0.137-0.53,0.078-0.703c0.216-0.172,0.53-0.136,0.703,0.078c0.813,1.016,0.813,2.607,0,3.623
				c-0.517,0.646-0.517,1.731-0.002,2.375c0.173,0.216,0.138,0.53-0.078,0.703C15.222,7.963,15.111,7.999,15.002,7.999z"/>
		</g>
		<g>
			<path d="M11.998,7.999c-0.147,0-0.292-0.064-0.391-0.188c-0.813-1.016-0.813-2.607,0-3.623c0.517-0.646,0.517-1.731,0.002-2.375
				c-0.173-0.216-0.138-0.53,0.078-0.703c0.216-0.172,0.531-0.136,0.703,0.078c0.813,1.016,0.813,2.607,0,3.623
				c-0.516,0.646-0.516,1.731-0.001,2.375c0.172,0.216,0.137,0.53-0.078,0.703C12.217,7.963,12.107,7.999,11.998,7.999z"/>
		</g>
		<g>
			<path d="M9.002,7.999c-0.147,0-0.292-0.064-0.391-0.188c-0.813-1.016-0.813-2.607,0-3.623c0.516-0.646,0.516-1.731,0.001-2.375
				C8.44,1.598,8.475,1.283,8.69,1.11c0.217-0.172,0.53-0.136,0.703,0.078c0.813,1.016,0.813,2.607,0,3.623
				C8.877,5.457,8.877,6.543,9.392,7.187c0.173,0.216,0.138,0.53-0.078,0.703C9.222,7.963,9.111,7.999,9.002,7.999z"/>
		</g>
		<g>
			<path d="M21,15.999c-1.654,0-3-1.346-3-3s1.346-3,3-3s3,1.346,3,3S22.654,15.999,21,15.999z M21,10.999c-1.103,0-2,0.897-2,2
				s0.897,2,2,2s2-0.897,2-2S22.103,10.999,21,10.999z"/>
		</g>
	</g>
</g>
<g id="Hot_Chocolate">
</g>
<g id="Lantern">
</g>
<g id="Snow_Shovel">
</g>
<g id="Snowman">
</g>
<g id="Reindeer">
</g>
<g id="Snowmobile">
</g>
<g id="Snow_Chain">
</g>
<g id="Slippery_Road">
</g>
</svg>
