<?xml version="1.0" encoding="iso-8859-1"?>
<!-- Generator: Adobe Illustrator 19.2.1, SVG Export Plug-In . SVG Version: 6.00 Build 0)  -->
<svg version="1.1" xmlns="http://www.w3.org/2000/svg" xmlns:xlink="http://www.w3.org/1999/xlink" x="0px" y="0px"
	 viewBox="0 0 24 24" style="enable-background:new 0 0 24 24;" xml:space="preserve">
<g id="Snowflake_1">
</g>
<g id="Snowflake_2">
</g>
<g id="Snowflake_3">
</g>
<g id="Snowflake_4">
</g>
<g id="Winter_Cap_1">
</g>
<g id="Winter_Cap_2">
</g>
<g id="Glowes">
</g>
<g id="Sweater_1">
</g>
<g id="Sweater_2">
</g>
<g id="Sweater_3">
</g>
<g id="Scarf">
</g>
<g id="Winter_Socks">
</g>
<g id="Winter_Sock">
</g>
<g id="Winter_Coat">
</g>
<g id="Winter_Calendar">
</g>
<g id="Thermometer_1">
</g>
<g id="Thermometer_2">
</g>
<g id="Cold">
</g>
<g id="Icicle">
</g>
<g id="Snowing">
</g>
<g id="Snow_Shoes_1">
</g>
<g id="Snow_Shoes_2">
</g>
<g id="Sledge">
</g>
<g id="Snow_Boots">
</g>
<g id="Snowcapped_Mountains">
</g>
<g id="Skis">
</g>
<g id="Sky_Glasses">
</g>
<g id="Snowboard">
</g>
<g id="Ice_Skate">
</g>
<g id="Wooden_House">
</g>
<g id="Snowcapped_House">
</g>
<g id="Hot_Drink">
</g>
<g id="Hot_Chocolate">
	<g>
		<g>
			<path d="M13.497,6c-0.131,0-0.263-0.052-0.361-0.153c-0.844-0.88-0.844-2.313,0-3.192c0.48-0.5,0.48-1.31,0.001-1.808
				c-0.191-0.199-0.185-0.516,0.015-0.707c0.199-0.192,0.516-0.185,0.707,0.014c0.845,0.88,0.845,2.313,0,3.192
				c-0.479,0.5-0.479,1.31-0.001,1.808c0.191,0.2,0.185,0.517-0.015,0.707C13.747,5.954,13.622,6,13.497,6z"/>
		</g>
		<g>
			<path d="M10.493,6c-0.131,0-0.262-0.052-0.361-0.153c-0.845-0.88-0.845-2.313,0-3.192c0.48-0.5,0.48-1.31,0.001-1.808
				C9.943,0.647,9.949,0.331,10.148,0.14c0.199-0.192,0.516-0.185,0.707,0.014c0.845,0.88,0.845,2.313,0,3.192
				c-0.48,0.5-0.48,1.31-0.001,1.808c0.191,0.199,0.185,0.516-0.015,0.707C10.743,5.954,10.618,6,10.493,6z"/>
		</g>
		<g>
			<path d="M7.497,6C7.366,6,7.234,5.948,7.136,5.847c-0.844-0.88-0.844-2.313,0-3.192c0.48-0.5,0.48-1.31,0.001-1.808
				C6.947,0.647,6.953,0.331,7.152,0.14c0.199-0.192,0.516-0.185,0.707,0.014c0.845,0.88,0.845,2.313,0,3.192
				c-0.479,0.5-0.479,1.31-0.001,1.808c0.191,0.2,0.185,0.517-0.015,0.707C7.747,5.954,7.622,6,7.497,6z"/>
		</g>
		<g>
			<path d="M14.117,24H6.883c-0.755,0-1.395-0.564-1.488-1.313L3.504,7.563C3.486,7.42,3.53,7.276,3.625,7.169
				C3.72,7.062,3.856,7,4,7h13c0.144,0,0.28,0.062,0.375,0.169c0.095,0.107,0.139,0.251,0.121,0.394l-1.891,15.124
				C15.512,23.436,14.872,24,14.117,24z M4.566,8l1.82,14.562C6.418,22.812,6.631,23,6.883,23h7.234
				c0.251,0,0.465-0.188,0.496-0.438L16.434,8H4.566z"/>
		</g>
		<g>
			<path d="M15.733,18.13c-0.195,0-0.38-0.115-0.461-0.306c-0.107-0.255,0.012-0.548,0.267-0.655
				c0.535-0.226,5.223-2.278,4.949-4.889c-0.098-0.932-0.486-1.116-0.614-1.177c-0.869-0.415-2.573,0.479-3.102,0.824
				c-0.231,0.15-0.542,0.085-0.692-0.146c-0.151-0.231-0.086-0.541,0.145-0.692c0.257-0.166,2.548-1.613,4.078-0.891
				c0.679,0.323,1.076,0.987,1.179,1.977c0.334,3.178-4.167,5.331-5.555,5.915C15.864,18.117,15.798,18.13,15.733,18.13z"/>
		</g>
	</g>
</g>
<g id="Lantern">
</g>
<g id="Snow_Shovel">
</g>
<g id="Snowman">
</g>
<g id="Reindeer">
</g>
<g id="Snowmobile">
</g>
<g id="Snow_Chain">
</g>
<g id="Slippery_Road">
</g>
</svg>
