<?xml version="1.0" encoding="iso-8859-1"?>
<!-- Generator: Adobe Illustrator 19.2.1, SVG Export Plug-In . SVG Version: 6.00 Build 0)  -->
<svg version="1.1" xmlns="http://www.w3.org/2000/svg" xmlns:xlink="http://www.w3.org/1999/xlink" x="0px" y="0px"
	 viewBox="0 0 24 24" style="enable-background:new 0 0 24 24;" xml:space="preserve">
<g id="Snowflake_1">
</g>
<g id="Snowflake_2">
</g>
<g id="Snowflake_3">
</g>
<g id="Snowflake_4">
</g>
<g id="Winter_Cap_1">
</g>
<g id="Winter_Cap_2">
</g>
<g id="Glowes">
</g>
<g id="Sweater_1">
</g>
<g id="Sweater_2">
</g>
<g id="Sweater_3">
</g>
<g id="Scarf">
</g>
<g id="Winter_Socks">
</g>
<g id="Winter_Sock">
</g>
<g id="Winter_Coat">
</g>
<g id="Winter_Calendar">
</g>
<g id="Thermometer_1">
</g>
<g id="Thermometer_2">
</g>
<g id="Cold">
</g>
<g id="Icicle">
</g>
<g id="Snowing">
</g>
<g id="Snow_Shoes_1">
</g>
<g id="Snow_Shoes_2">
</g>
<g id="Sledge">
</g>
<g id="Snow_Boots">
</g>
<g id="Snowcapped_Mountains">
</g>
<g id="Skis">
</g>
<g id="Sky_Glasses">
</g>
<g id="Snowboard">
</g>
<g id="Ice_Skate">
	<g>
		<g>
			<path d="M22.5,18H2.982c-0.276,0-0.5-0.224-0.5-0.5s0.224-0.5,0.5-0.5H22.5c0.276,0,0.5,0.224,0.5,0.5S22.776,18,22.5,18z"/>
		</g>
		<g>
			<path d="M18.5,24c-0.276,0-0.5-0.224-0.5-0.5v-4c0-0.276,0.224-0.5,0.5-0.5s0.5,0.224,0.5,0.5v4C19,23.776,18.776,24,18.5,24z"/>
		</g>
		<g>
			<path d="M7.5,24C7.224,24,7,23.776,7,23.5v-4C7,19.224,7.224,19,7.5,19S8,19.224,8,19.5v4C8,23.776,7.776,24,7.5,24z"/>
		</g>
		<g>
			<path d="M23.5,24h-20C1.57,24,0,22.43,0,20.5C0,20.224,0.224,20,0.5,20S1,20.224,1,20.5C1,21.879,2.121,23,3.5,23h20
				c0.276,0,0.5,0.224,0.5,0.5S23.776,24,23.5,24z"/>
		</g>
		<g>
			<path d="M16,5h-1c-0.276,0-0.5-0.224-0.5-0.5S14.724,4,15,4h1c0.276,0,0.5,0.224,0.5,0.5S16.276,5,16,5z"/>
		</g>
		<g>
			<path d="M15.5,7H14c-0.276,0-0.5-0.224-0.5-0.5S13.724,6,14,6h1.5C15.776,6,16,6.224,16,6.5S15.776,7,15.5,7z"/>
		</g>
		<g>
			<path d="M15,9h-1.5C13.224,9,13,8.776,13,8.5S13.224,8,13.5,8H15c0.276,0,0.5,0.224,0.5,0.5S15.276,9,15,9z"/>
		</g>
		<g>
			<path d="M14,11h-1.5c-0.276,0-0.5-0.224-0.5-0.5s0.224-0.5,0.5-0.5H14c0.276,0,0.5,0.224,0.5,0.5S14.276,11,14,11z"/>
		</g>
		<g>
			<path d="M12.5,13H11c-0.276,0-0.5-0.224-0.5-0.5S10.724,12,11,12h1.5c0.276,0,0.5,0.224,0.5,0.5S12.776,13,12.5,13z"/>
		</g>
		<g>
			<path d="M21.5,3h-6C15.224,3,15,2.776,15,2.5S15.224,2,15.5,2h6C21.776,2,22,2.224,22,2.5S21.776,3,21.5,3z"/>
		</g>
		<g>
			<path d="M21,20H4.772c-1.188,0-1.904-0.189-2.325-0.614c-0.451-0.455-0.445-1.038-0.44-1.603
				c0.002-0.161,0.004-0.328-0.006-0.501C2,15.995,2.866,14.899,4.106,14.589l3.125-0.781c4.036-1.008,5.511-4.914,6.897-9.534
				l0.661-2.204C14.789,2.07,14.789,2.07,14.789,2.07s0.022-0.076,0.053-0.176c0.056-0.179,0.148-0.464,0.171-0.592
				c0.001-0.005,0.001-0.011,0.002-0.016C15.119,0.553,15.758,0,16.5,0h4C21.327,0,22,0.673,22,1.5V10
				c0,0.653,0.167,1.874,0.477,2.849C22.707,13.575,23,15.205,23,16v2C23,19.103,22.103,20,21,20z M16.008,1.41
				c-0.001,0.004-0.001,0.007-0.002,0.011c-0.019,0.144-0.088,0.382-0.209,0.771l-0.711,2.369
				c-1.201,4.005-2.696,8.989-7.612,10.218L4.349,15.56C3.567,15.755,3,16.468,3,17.254c0.011,0.167,0.009,0.356,0.007,0.539
				c-0.004,0.452,0.001,0.737,0.15,0.889C3.302,18.827,3.698,19,4.772,19H21c0.552,0,1-0.448,1-1v-2
				c0-0.682-0.272-2.207-0.477-2.849C21.18,12.068,21,10.747,21,10V1.5C21,1.225,20.775,1,20.5,1h-4
				C16.259,1,16.05,1.175,16.008,1.41z"/>
		</g>
	</g>
</g>
<g id="Wooden_House">
</g>
<g id="Snowcapped_House">
</g>
<g id="Hot_Drink">
</g>
<g id="Hot_Chocolate">
</g>
<g id="Lantern">
</g>
<g id="Snow_Shovel">
</g>
<g id="Snowman">
</g>
<g id="Reindeer">
</g>
<g id="Snowmobile">
</g>
<g id="Snow_Chain">
</g>
<g id="Slippery_Road">
</g>
</svg>
