<?xml version="1.0" encoding="iso-8859-1"?>
<!-- Generator: Adobe Illustrator 19.2.1, SVG Export Plug-In . SVG Version: 6.00 Build 0)  -->
<svg version="1.1" xmlns="http://www.w3.org/2000/svg" xmlns:xlink="http://www.w3.org/1999/xlink" x="0px" y="0px"
	 viewBox="0 0 24 24" style="enable-background:new 0 0 24 24;" xml:space="preserve">
<g id="Snowflake_1">
</g>
<g id="Snowflake_2">
</g>
<g id="Snowflake_3">
</g>
<g id="Snowflake_4">
</g>
<g id="Winter_Cap_1">
</g>
<g id="Winter_Cap_2">
</g>
<g id="Glowes">
</g>
<g id="Sweater_1">
</g>
<g id="Sweater_2">
</g>
<g id="Sweater_3">
</g>
<g id="Scarf">
</g>
<g id="Winter_Socks">
</g>
<g id="Winter_Sock">
</g>
<g id="Winter_Coat">
</g>
<g id="Winter_Calendar">
</g>
<g id="Thermometer_1">
</g>
<g id="Thermometer_2">
</g>
<g id="Cold">
</g>
<g id="Icicle">
	<g>
		<path d="M11.5,24c-0.003,0-0.007,0-0.01,0c-0.254-0.005-0.464-0.2-0.488-0.453L9.4,6.731l-1.405,9.84
			C7.96,16.815,7.752,16.997,7.506,17c-0.238,0.035-0.459-0.174-0.499-0.418L5.338,6.568l-0.363,1.09
			C4.903,7.873,4.716,8.003,4.469,7.999C4.242,7.985,4.054,7.82,4.01,7.598L3.5,5.049l-1.51,7.549
			c-0.049,0.244-0.245,0.418-0.519,0.401c-0.249-0.014-0.449-0.209-0.47-0.458l-1-12c-0.023-0.275,0.182-0.517,0.456-0.54
			c0.271-0.027,0.517,0.18,0.54,0.457L1.704,8.93L3.01,2.402C3.057,2.168,3.262,2,3.5,2s0.443,0.168,0.49,0.402l0.631,3.154
			l0.404-1.214c0.072-0.217,0.289-0.355,0.514-0.34c0.229,0.018,0.416,0.19,0.454,0.417l1.469,8.813L9.005,2.429
			C9.04,2.179,9.277,2.014,9.512,2c0.253,0.006,0.462,0.201,0.486,0.453l1.59,16.7l2.417-17.72C14.037,1.19,14.24,1.008,14.484,1
			c0.281,0.003,0.457,0.163,0.506,0.402l1.51,7.549l1.51-7.549c0.042-0.209,0.212-0.369,0.424-0.397
			c0.221-0.028,0.418,0.082,0.514,0.272L20.5,4.382l0.553-1.105c0.093-0.187,0.285-0.297,0.502-0.273
			c0.208,0.023,0.38,0.173,0.431,0.376l0.381,1.523l0.639-4.473c0.039-0.273,0.296-0.462,0.565-0.424
			c0.273,0.039,0.464,0.292,0.425,0.566l-1,7c-0.034,0.237-0.23,0.416-0.47,0.429c-0.237,0.005-0.452-0.146-0.511-0.378
			l-0.672-2.688l-0.396,0.791c-0.17,0.339-0.725,0.339-0.895,0l-1.349-2.697l-1.714,8.571C16.943,11.832,16.738,12,16.5,12
			s-0.443-0.168-0.49-0.402l-1.416-7.082l-2.599,19.051C11.962,23.816,11.75,24,11.5,24z"/>
	</g>
</g>
<g id="Snowing">
</g>
<g id="Snow_Shoes_1">
</g>
<g id="Snow_Shoes_2">
</g>
<g id="Sledge">
</g>
<g id="Snow_Boots">
</g>
<g id="Snowcapped_Mountains">
</g>
<g id="Skis">
</g>
<g id="Sky_Glasses">
</g>
<g id="Snowboard">
</g>
<g id="Ice_Skate">
</g>
<g id="Wooden_House">
</g>
<g id="Snowcapped_House">
</g>
<g id="Hot_Drink">
</g>
<g id="Hot_Chocolate">
</g>
<g id="Lantern">
</g>
<g id="Snow_Shovel">
</g>
<g id="Snowman">
</g>
<g id="Reindeer">
</g>
<g id="Snowmobile">
</g>
<g id="Snow_Chain">
</g>
<g id="Slippery_Road">
</g>
</svg>
