<?xml version="1.0" encoding="iso-8859-1"?>
<!-- Generator: Adobe Illustrator 19.2.1, SVG Export Plug-In . SVG Version: 6.00 Build 0)  -->
<svg version="1.1" xmlns="http://www.w3.org/2000/svg" xmlns:xlink="http://www.w3.org/1999/xlink" x="0px" y="0px"
	 viewBox="0 0 24 24" style="enable-background:new 0 0 24 24;" xml:space="preserve">
<g id="Snowflake_1">
</g>
<g id="Snowflake_2">
</g>
<g id="Snowflake_3">
</g>
<g id="Snowflake_4">
</g>
<g id="Winter_Cap_1">
</g>
<g id="Winter_Cap_2">
</g>
<g id="Glowes">
</g>
<g id="Sweater_1">
</g>
<g id="Sweater_2">
</g>
<g id="Sweater_3">
</g>
<g id="Scarf">
</g>
<g id="Winter_Socks">
</g>
<g id="Winter_Sock">
</g>
<g id="Winter_Coat">
</g>
<g id="Winter_Calendar">
</g>
<g id="Thermometer_1">
</g>
<g id="Thermometer_2">
</g>
<g id="Cold">
</g>
<g id="Icicle">
</g>
<g id="Snowing">
</g>
<g id="Snow_Shoes_1">
</g>
<g id="Snow_Shoes_2">
</g>
<g id="Sledge">
</g>
<g id="Snow_Boots">
</g>
<g id="Snowcapped_Mountains">
</g>
<g id="Skis">
</g>
<g id="Sky_Glasses">
</g>
<g id="Snowboard">
</g>
<g id="Ice_Skate">
</g>
<g id="Wooden_House">
</g>
<g id="Snowcapped_House">
</g>
<g id="Hot_Drink">
</g>
<g id="Hot_Chocolate">
</g>
<g id="Lantern">
	<g>
		<g>
			<path d="M19.5,24h-16C3.224,24,3,23.776,3,23.5v-1C3,21.673,3.673,21,4.5,21h14c0.827,0,1.5,0.673,1.5,1.5v1
				C20,23.776,19.776,24,19.5,24z M4,23h15v-0.5c0-0.275-0.224-0.5-0.5-0.5h-14C4.224,22,4,22.225,4,22.5V23z"/>
		</g>
		<g>
			<path d="M17.5,22h-12C5.224,22,5,21.776,5,21.5v-14C5,7.224,5.224,7,5.5,7h12C17.776,7,18,7.224,18,7.5v14
				C18,21.776,17.776,22,17.5,22z M6,21h11V8H6V21z"/>
		</g>
		<g>
			<path d="M19.5,8h-16C3.277,8,3.081,7.853,3.02,7.638C2.958,7.424,3.046,7.194,3.235,7.076l8-5c0.162-0.102,0.368-0.102,0.53,0
				l8,5c0.189,0.118,0.277,0.348,0.215,0.562C19.919,7.853,19.723,8,19.5,8z M5.243,7h12.514L11.5,3.09L5.243,7z"/>
		</g>
		<g>
			<path d="M11.5,3C10.673,3,10,2.327,10,1.5S10.673,0,11.5,0S13,0.673,13,1.5S12.327,3,11.5,3z M11.5,1C11.224,1,11,1.225,11,1.5
				S11.224,2,11.5,2S12,1.775,12,1.5S11.776,1,11.5,1z"/>
		</g>
		<g>
			<path d="M17.5,22c-0.141,0-0.281-0.06-0.379-0.175l-12-14C4.94,7.616,4.965,7.3,5.175,7.12c0.21-0.177,0.526-0.154,0.705,0.055
				l12,14c0.18,0.209,0.156,0.525-0.054,0.705C17.731,21.96,17.615,22,17.5,22z"/>
		</g>
		<g>
			<path d="M5.5,22c-0.115,0-0.231-0.039-0.325-0.12c-0.21-0.18-0.234-0.496-0.054-0.705l12-14c0.18-0.209,0.496-0.234,0.705-0.055
				c0.21,0.18,0.234,0.496,0.054,0.705l-12,14C5.781,21.94,5.641,22,5.5,22z"/>
		</g>
	</g>
</g>
<g id="Snow_Shovel">
</g>
<g id="Snowman">
</g>
<g id="Reindeer">
</g>
<g id="Snowmobile">
</g>
<g id="Snow_Chain">
</g>
<g id="Slippery_Road">
</g>
</svg>
