<?xml version="1.0" encoding="iso-8859-1"?>
<!-- Generator: Adobe Illustrator 19.2.1, SVG Export Plug-In . SVG Version: 6.00 Build 0)  -->
<svg version="1.1" xmlns="http://www.w3.org/2000/svg" xmlns:xlink="http://www.w3.org/1999/xlink" x="0px" y="0px"
	 viewBox="0 0 24 24" style="enable-background:new 0 0 24 24;" xml:space="preserve">
<g id="Snowflake_1">
</g>
<g id="Snowflake_2">
</g>
<g id="Snowflake_3">
</g>
<g id="Snowflake_4">
</g>
<g id="Winter_Cap_1">
</g>
<g id="Winter_Cap_2">
</g>
<g id="Glowes">
</g>
<g id="Sweater_1">
</g>
<g id="Sweater_2">
</g>
<g id="Sweater_3">
</g>
<g id="Scarf">
</g>
<g id="Winter_Socks">
</g>
<g id="Winter_Sock">
</g>
<g id="Winter_Coat">
</g>
<g id="Winter_Calendar">
</g>
<g id="Thermometer_1">
</g>
<g id="Thermometer_2">
</g>
<g id="Cold">
</g>
<g id="Icicle">
</g>
<g id="Snowing">
</g>
<g id="Snow_Shoes_1">
</g>
<g id="Snow_Shoes_2">
</g>
<g id="Sledge">
</g>
<g id="Snow_Boots">
</g>
<g id="Snowcapped_Mountains">
</g>
<g id="Skis">
</g>
<g id="Sky_Glasses">
</g>
<g id="Snowboard">
</g>
<g id="Ice_Skate">
</g>
<g id="Wooden_House">
</g>
<g id="Snowcapped_House">
</g>
<g id="Hot_Drink">
</g>
<g id="Hot_Chocolate">
</g>
<g id="Lantern">
</g>
<g id="Snow_Shovel">
</g>
<g id="Snowman">
</g>
<g id="Reindeer">
	<g>
		<g>
			<path d="M11.5,24C7.916,24,5,21.084,5,17.5c0-0.548,0.068-1.092,0.204-1.618l1.971-5.563C7.684,8.381,9.467,7,11.5,7
				s3.816,1.381,4.337,3.358l1.947,5.481c0.005,0.014,0.008,0.028,0.012,0.042C17.932,16.408,18,16.952,18,17.5
				C18,21.084,15.084,24,11.5,24z M11.5,8c-1.579,0-2.965,1.074-3.37,2.612l-1.971,5.562C6.058,16.577,6,17.038,6,17.5
				c0,3.032,2.468,5.5,5.5,5.5s5.5-2.468,5.5-5.5c0-0.456-0.057-0.909-0.167-1.348l-1.951-5.5C14.465,9.074,13.079,8,11.5,8z"/>
		</g>
		<g>
			<path d="M8.442,9.456c-0.057,0-0.114-0.01-0.17-0.03C4.521,8.068,2,4.481,2,0.5C2,0.224,2.224,0,2.5,0S3,0.224,3,0.5
				c0,3.562,2.256,6.771,5.612,7.986c0.26,0.094,0.395,0.38,0.3,0.64C8.839,9.33,8.646,9.456,8.442,9.456z"/>
		</g>
		<g>
			<path d="M14.558,9.456c-0.204,0-0.396-0.126-0.47-0.33c-0.095-0.26,0.04-0.546,0.3-0.64C17.744,7.271,20,4.062,20,0.5
				C20,0.224,20.224,0,20.5,0S21,0.224,21,0.5c0,3.981-2.521,7.568-6.272,8.926C14.672,9.446,14.614,9.456,14.558,9.456z"/>
		</g>
		<g>
			<path d="M17.927,7.288c-0.088,0-0.177-0.023-0.258-0.071C15.998,6.211,15,4.447,15,2.5C15,2.224,15.224,2,15.5,2S16,2.224,16,2.5
				c0,1.594,0.816,3.036,2.185,3.859c0.236,0.143,0.313,0.45,0.171,0.687C18.262,7.202,18.096,7.288,17.927,7.288z"/>
		</g>
		<g>
			<path d="M5.071,7.289c-0.169,0-0.335-0.086-0.429-0.242C4.5,6.811,4.577,6.503,4.813,6.36C6.183,5.537,7,4.094,7,2.5
				C7,2.224,7.224,2,7.5,2S8,2.224,8,2.5c0,1.948-0.998,3.712-2.671,4.718C5.248,7.266,5.159,7.289,5.071,7.289z"/>
		</g>
		<g>
			<circle cx="9.5" cy="12.5" r="0.5"/>
		</g>
		<g>
			<circle cx="13.5" cy="12.5" r="0.5"/>
		</g>
		<g>
			<path d="M15.426,19.379c-0.063,0-0.127-0.012-0.189-0.037c-0.255-0.104-0.378-0.396-0.273-0.652
				c0.104-0.255-0.019-0.548-0.274-0.652c-0.123-0.052-0.258-0.049-0.382,0.002c-0.123,0.052-0.219,0.148-0.27,0.272
				c-0.104,0.256-0.396,0.377-0.652,0.273c-0.255-0.104-0.378-0.396-0.273-0.652c0.151-0.371,0.438-0.66,0.808-0.815
				c0.371-0.156,0.777-0.158,1.148-0.006c0.766,0.313,1.134,1.19,0.821,1.957C15.81,19.262,15.623,19.379,15.426,19.379z"/>
		</g>
		<g>
			<path d="M7.574,19.379c-0.197,0-0.384-0.117-0.463-0.311c-0.313-0.767,0.056-1.645,0.821-1.957
				c0.372-0.152,0.778-0.15,1.148,0.006c0.369,0.155,0.656,0.444,0.808,0.815c0.104,0.256-0.019,0.548-0.273,0.652
				c-0.257,0.104-0.548-0.018-0.652-0.273c-0.051-0.124-0.146-0.221-0.27-0.272c-0.123-0.051-0.259-0.054-0.382-0.002
				c-0.256,0.104-0.379,0.397-0.274,0.652c0.104,0.256-0.019,0.548-0.273,0.652C7.701,19.367,7.638,19.379,7.574,19.379z"/>
		</g>
		<g>
			<path d="M17.501,18.401c-0.155,0-0.31-0.073-0.407-0.21C16.145,16.86,13.948,16,11.5,16c-2.446,0-4.642,0.859-5.595,2.19
				c-0.161,0.226-0.476,0.274-0.697,0.115c-0.225-0.16-0.276-0.473-0.115-0.697C6.227,16.023,8.742,15,11.5,15
				c2.761,0,5.276,1.024,6.408,2.611c0.16,0.225,0.108,0.537-0.117,0.697C17.703,18.371,17.602,18.401,17.501,18.401z"/>
		</g>
		<g>
			<path d="M16.499,13c-0.247,0-0.462-0.184-0.495-0.436c-0.035-0.273,0.157-0.524,0.432-0.561c0.643-0.084,1.055-0.561,1.296-0.978
				c-0.449,0.044-1.023,0.153-1.489,0.411c-0.238,0.133-0.545,0.046-0.68-0.195c-0.134-0.241-0.046-0.546,0.195-0.68
				c1.159-0.642,2.704-0.566,2.77-0.562c0.15,0.008,0.289,0.084,0.377,0.205c0.089,0.122,0.117,0.277,0.079,0.423
				c-0.023,0.087-0.588,2.128-2.419,2.367C16.543,12.999,16.521,13,16.499,13z"/>
		</g>
		<g>
			<path d="M6.501,13.004c-0.021,0-0.044-0.001-0.065-0.004c-1.831-0.239-2.396-2.28-2.419-2.367
				c-0.038-0.146-0.01-0.301,0.079-0.423c0.088-0.121,0.227-0.197,0.377-0.205c0.064-0.004,1.61-0.081,2.77,0.562
				c0.241,0.134,0.329,0.438,0.195,0.68c-0.135,0.242-0.44,0.327-0.68,0.195c-0.465-0.258-1.037-0.366-1.485-0.411
				c0.243,0.418,0.656,0.895,1.292,0.978c0.274,0.036,0.467,0.287,0.432,0.561C6.963,12.82,6.748,13.004,6.501,13.004z"/>
		</g>
	</g>
</g>
<g id="Snowmobile">
</g>
<g id="Snow_Chain">
</g>
<g id="Slippery_Road">
</g>
</svg>
