<?xml version="1.0" encoding="iso-8859-1"?>
<!-- Generator: Adobe Illustrator 19.2.1, SVG Export Plug-In . SVG Version: 6.00 Build 0)  -->
<svg version="1.1" xmlns="http://www.w3.org/2000/svg" xmlns:xlink="http://www.w3.org/1999/xlink" x="0px" y="0px"
	 viewBox="0 0 24 24" style="enable-background:new 0 0 24 24;" xml:space="preserve">
<g id="Snowflake_1">
</g>
<g id="Snowflake_2">
</g>
<g id="Snowflake_3">
</g>
<g id="Snowflake_4">
</g>
<g id="Winter_Cap_1">
</g>
<g id="Winter_Cap_2">
</g>
<g id="Glowes">
</g>
<g id="Sweater_1">
</g>
<g id="Sweater_2">
</g>
<g id="Sweater_3">
</g>
<g id="Scarf">
	<g>
		<g>
			<path d="M18.5,20c-0.077,0-0.153-0.018-0.224-0.053l-4-2c-0.235-0.118-0.339-0.398-0.237-0.641l5.136-12.253
				c0.186-0.468,0.131-0.976-0.152-1.394C18.739,3.24,18.286,3,17.78,3H6.22C5.714,3,5.261,3.24,4.977,3.659
				c-0.283,0.419-0.338,0.928-0.15,1.398l5.134,12.25c0.102,0.243-0.002,0.523-0.237,0.641l-4,2
				c-0.123,0.061-0.266,0.07-0.394,0.023c-0.129-0.047-0.233-0.144-0.288-0.27L0.196,8.633C-0.112,7.895-0.05,7.055,0.356,6.377
				l1.315-2.192C2.48,2.837,3.959,2,5.53,2H18.47c1.571,0,3.05,0.837,3.859,2.185l1.315,2.192c0.407,0.678,0.468,1.519,0.164,2.248
				l-4.85,11.076c-0.055,0.125-0.159,0.223-0.288,0.27C18.615,19.99,18.558,20,18.5,20z M3.996,3.357
				c-0.6,0.293-1.115,0.756-1.467,1.342L1.214,6.891C0.97,7.298,0.933,7.802,1.115,8.24l4.632,10.578l3.111-1.556L3.901,5.436
				C3.627,4.752,3.667,3.997,3.996,3.357z M15.142,17.262l3.111,1.556l4.635-10.586c0.179-0.429,0.142-0.934-0.102-1.34
				l-1.315-2.192c-0.352-0.586-0.867-1.049-1.467-1.342c0.33,0.64,0.369,1.394,0.098,2.071c-0.001,0.003-0.002,0.005-0.003,0.008
				L15.142,17.262z M19.638,5.243h0.01H19.638z"/>
		</g>
		<g>
			<path d="M18.665,8H5.296c-0.276,0-0.5-0.224-0.5-0.5S5.02,7,5.296,7h13.369c0.276,0,0.5,0.224,0.5,0.5S18.941,8,18.665,8z"/>
		</g>
		<g>
			<path d="M10.5,20.5c-0.198,0-0.386-0.119-0.464-0.314l-1-2.5c-0.103-0.256,0.022-0.547,0.279-0.65
				c0.254-0.102,0.547,0.021,0.65,0.279l1,2.5c0.103,0.256-0.022,0.547-0.279,0.65C10.625,20.489,10.562,20.5,10.5,20.5z"/>
		</g>
		<g>
			<path d="M8.5,21.5c-0.198,0-0.386-0.119-0.464-0.314l-1-2.5c-0.103-0.256,0.022-0.547,0.279-0.65
				c0.254-0.102,0.547,0.021,0.65,0.279l1,2.5c0.103,0.256-0.022,0.547-0.279,0.65C8.625,21.489,8.562,21.5,8.5,21.5z"/>
		</g>
		<g>
			<path d="M6.5,22.5c-0.198,0-0.386-0.119-0.464-0.314l-1-2.5c-0.103-0.256,0.022-0.547,0.279-0.65
				c0.254-0.102,0.547,0.021,0.65,0.279l1,2.5c0.103,0.256-0.022,0.547-0.279,0.65C6.625,22.489,6.562,22.5,6.5,22.5z"/>
		</g>
		<g>
			<path d="M13.5,20.5c-0.062,0-0.125-0.011-0.186-0.036c-0.256-0.103-0.381-0.394-0.279-0.65l1-2.5
				c0.103-0.257,0.396-0.381,0.65-0.279c0.256,0.103,0.381,0.394,0.279,0.65l-1,2.5C13.886,20.381,13.698,20.5,13.5,20.5z"/>
		</g>
		<g>
			<path d="M15.5,21.5c-0.062,0-0.125-0.011-0.186-0.036c-0.256-0.103-0.381-0.394-0.279-0.65l1-2.5
				c0.103-0.257,0.396-0.381,0.65-0.279c0.256,0.103,0.381,0.394,0.279,0.65l-1,2.5C15.886,21.381,15.698,21.5,15.5,21.5z"/>
		</g>
		<g>
			<path d="M17.5,22.5c-0.062,0-0.125-0.011-0.186-0.036c-0.256-0.103-0.381-0.394-0.279-0.65l1-2.5
				c0.102-0.257,0.396-0.381,0.65-0.279c0.256,0.103,0.381,0.394,0.279,0.65l-1,2.5C17.886,22.381,17.698,22.5,17.5,22.5z"/>
		</g>
	</g>
</g>
<g id="Winter_Socks">
</g>
<g id="Winter_Sock">
</g>
<g id="Winter_Coat">
</g>
<g id="Winter_Calendar">
</g>
<g id="Thermometer_1">
</g>
<g id="Thermometer_2">
</g>
<g id="Cold">
</g>
<g id="Icicle">
</g>
<g id="Snowing">
</g>
<g id="Snow_Shoes_1">
</g>
<g id="Snow_Shoes_2">
</g>
<g id="Sledge">
</g>
<g id="Snow_Boots">
</g>
<g id="Snowcapped_Mountains">
</g>
<g id="Skis">
</g>
<g id="Sky_Glasses">
</g>
<g id="Snowboard">
</g>
<g id="Ice_Skate">
</g>
<g id="Wooden_House">
</g>
<g id="Snowcapped_House">
</g>
<g id="Hot_Drink">
</g>
<g id="Hot_Chocolate">
</g>
<g id="Lantern">
</g>
<g id="Snow_Shovel">
</g>
<g id="Snowman">
</g>
<g id="Reindeer">
</g>
<g id="Snowmobile">
</g>
<g id="Snow_Chain">
</g>
<g id="Slippery_Road">
</g>
</svg>
