<?xml version="1.0" encoding="iso-8859-1"?>
<!-- Generator: Adobe Illustrator 19.2.1, SVG Export Plug-In . SVG Version: 6.00 Build 0)  -->
<svg version="1.1" xmlns="http://www.w3.org/2000/svg" xmlns:xlink="http://www.w3.org/1999/xlink" x="0px" y="0px"
	 viewBox="0 0 24 24" style="enable-background:new 0 0 24 24;" xml:space="preserve">
<g id="Snowflake_1">
</g>
<g id="Snowflake_2">
</g>
<g id="Snowflake_3">
</g>
<g id="Snowflake_4">
</g>
<g id="Winter_Cap_1">
</g>
<g id="Winter_Cap_2">
</g>
<g id="Glowes">
</g>
<g id="Sweater_1">
</g>
<g id="Sweater_2">
</g>
<g id="Sweater_3">
</g>
<g id="Scarf">
</g>
<g id="Winter_Socks">
</g>
<g id="Winter_Sock">
</g>
<g id="Winter_Coat">
</g>
<g id="Winter_Calendar">
</g>
<g id="Thermometer_1">
</g>
<g id="Thermometer_2">
</g>
<g id="Cold">
</g>
<g id="Icicle">
</g>
<g id="Snowing">
</g>
<g id="Snow_Shoes_1">
</g>
<g id="Snow_Shoes_2">
</g>
<g id="Sledge">
</g>
<g id="Snow_Boots">
</g>
<g id="Snowcapped_Mountains">
</g>
<g id="Skis">
	<g>
		<g>
			<path d="M21.447,4.995h-1.942c-0.276,0-0.5-0.224-0.5-0.5V2.554c0-0.276,0.224-0.5,0.5-0.5s0.5,0.224,0.5,0.5v1.441h1.442
				c0.276,0,0.5,0.224,0.5,0.5S21.724,4.995,21.447,4.995z"/>
		</g>
		<g>
			<path d="M3.505,22.995c-0.276,0-0.5-0.224-0.5-0.5v-1.5h-1.5c-0.276,0-0.5-0.224-0.5-0.5s0.224-0.5,0.5-0.5h2
				c0.276,0,0.5,0.224,0.5,0.5v2C4.005,22.771,3.781,22.995,3.505,22.995z"/>
		</g>
		<g>
			<path d="M21.919,24.005c-0.4,0-0.777-0.156-1.061-0.439L2.642,5.349c-1.581-1.581-2.58-4.57-2.621-4.697
				c-0.06-0.18-0.013-0.377,0.122-0.511c0.133-0.134,0.331-0.178,0.511-0.12c0.127,0.043,3.13,1.056,4.695,2.621l18.217,18.217
				c0.283,0.283,0.439,0.66,0.439,1.061s-0.156,0.777-0.439,1.061l-0.586,0.586C22.696,23.849,22.319,24.005,21.919,24.005z
				 M1.365,1.367c0.409,0.97,1.109,2.399,1.983,3.274l18.217,18.217c0.195,0.195,0.512,0.195,0.707,0l0.586-0.586
				c0.195-0.195,0.195-0.512,0-0.707L4.642,3.349C3.773,2.48,2.338,1.778,1.365,1.367z"/>
		</g>
		<g>
			<path d="M21.919,24.005c-0.4,0-0.777-0.156-1.061-0.439L2.642,5.349c-1.581-1.581-2.58-4.57-2.621-4.697
				c-0.06-0.18-0.013-0.377,0.122-0.511c0.133-0.134,0.331-0.178,0.511-0.12c0.127,0.043,3.13,1.056,4.695,2.621l18.217,18.217
				c0.283,0.283,0.439,0.66,0.439,1.061s-0.156,0.777-0.439,1.061l-0.586,0.586C22.696,23.849,22.319,24.005,21.919,24.005z
				 M1.365,1.367c0.409,0.97,1.109,2.399,1.983,3.274l18.217,18.217c0.195,0.195,0.512,0.195,0.707,0l0.586-0.586
				c0.195-0.195,0.195-0.512,0-0.707L4.642,3.349C3.773,2.48,2.338,1.778,1.365,1.367z"/>
		</g>
		<g>
			<g>
				<path d="M15.505,10.995c-0.128,0-0.256-0.049-0.354-0.146c-0.195-0.195-0.195-0.512,0-0.707l5.5-5.5
					c0.876-0.876,1.575-2.306,1.983-3.274c-0.973,0.411-2.409,1.114-3.276,1.981l-5.5,5.5c-0.195,0.195-0.512,0.195-0.707,0
					s-0.195-0.512,0-0.707l5.5-5.5c1.565-1.565,4.568-2.578,4.695-2.621c0.181-0.056,0.378-0.013,0.511,0.12
					c0.135,0.134,0.182,0.331,0.122,0.511c-0.041,0.127-1.04,3.116-2.621,4.697l-5.5,5.5C15.761,10.946,15.633,10.995,15.505,10.995
					z"/>
			</g>
			<g>
				<path d="M2.081,24.004c-0.384,0-0.769-0.146-1.061-0.438l-0.586-0.586c-0.585-0.585-0.585-1.536,0-2.121l7.717-7.717
					c0.195-0.195,0.512-0.195,0.707,0s0.195,0.512,0,0.707l-7.717,7.717c-0.195,0.195-0.195,0.512,0,0.707l0.586,0.586
					c0.195,0.195,0.512,0.195,0.707,0l7.717-7.717c0.195-0.195,0.512-0.195,0.707,0s0.195,0.512,0,0.707l-7.717,7.717
					C2.85,23.857,2.465,24.004,2.081,24.004z"/>
			</g>
		</g>
		<g>
			<path d="M13.261,15.495c-0.276,0-0.5-0.224-0.5-0.5s0.224-0.5,0.5-0.5c0.565,0,1.234-0.644,1.234-1.188
				c0-0.276,0.224-0.5,0.5-0.5s0.5,0.224,0.5,0.5C15.495,14.411,14.389,15.495,13.261,15.495z"/>
		</g>
		<g>
			<path d="M10.995,13.495c-0.128,0-0.256-0.049-0.354-0.146c-0.698-0.697-1.221-2.485-0.5-3.207c0.721-0.719,2.51-0.197,3.207,0.5
				c0.195,0.195,0.195,0.512,0,0.707s-0.512,0.195-0.707,0c-0.487-0.487-1.604-0.663-1.794-0.499
				c-0.162,0.189,0.014,1.305,0.501,1.792c0.195,0.195,0.195,0.512,0,0.707C11.251,13.446,11.123,13.495,10.995,13.495z"/>
		</g>
		<g>
			<path d="M4.495,4.995H2.553c-0.276,0-0.5-0.224-0.5-0.5s0.224-0.5,0.5-0.5h1.442V2.554c0-0.276,0.224-0.5,0.5-0.5
				s0.5,0.224,0.5,0.5v1.941C4.995,4.771,4.771,4.995,4.495,4.995z"/>
		</g>
		<g>
			<path d="M20.495,22.995c-0.276,0-0.5-0.224-0.5-0.5v-2c0-0.276,0.224-0.5,0.5-0.5h2c0.276,0,0.5,0.224,0.5,0.5
				s-0.224,0.5-0.5,0.5h-1.5v1.5C20.995,22.771,20.771,22.995,20.495,22.995z"/>
		</g>
	</g>
</g>
<g id="Sky_Glasses">
</g>
<g id="Snowboard">
</g>
<g id="Ice_Skate">
</g>
<g id="Wooden_House">
</g>
<g id="Snowcapped_House">
</g>
<g id="Hot_Drink">
</g>
<g id="Hot_Chocolate">
</g>
<g id="Lantern">
</g>
<g id="Snow_Shovel">
</g>
<g id="Snowman">
</g>
<g id="Reindeer">
</g>
<g id="Snowmobile">
</g>
<g id="Snow_Chain">
</g>
<g id="Slippery_Road">
</g>
</svg>
