<?xml version="1.0" encoding="iso-8859-1"?>
<!-- Generator: Adobe Illustrator 19.2.1, SVG Export Plug-In . SVG Version: 6.00 Build 0)  -->
<svg version="1.1" xmlns="http://www.w3.org/2000/svg" xmlns:xlink="http://www.w3.org/1999/xlink" x="0px" y="0px"
	 viewBox="0 0 24 24" style="enable-background:new 0 0 24 24;" xml:space="preserve">
<g id="Snowflake_1">
</g>
<g id="Snowflake_2">
</g>
<g id="Snowflake_3">
</g>
<g id="Snowflake_4">
</g>
<g id="Winter_Cap_1">
</g>
<g id="Winter_Cap_2">
</g>
<g id="Glowes">
</g>
<g id="Sweater_1">
</g>
<g id="Sweater_2">
</g>
<g id="Sweater_3">
</g>
<g id="Scarf">
</g>
<g id="Winter_Socks">
</g>
<g id="Winter_Sock">
</g>
<g id="Winter_Coat">
</g>
<g id="Winter_Calendar">
</g>
<g id="Thermometer_1">
</g>
<g id="Thermometer_2">
</g>
<g id="Cold">
</g>
<g id="Icicle">
</g>
<g id="Snowing">
</g>
<g id="Snow_Shoes_1">
</g>
<g id="Snow_Shoes_2">
</g>
<g id="Sledge">
</g>
<g id="Snow_Boots">
</g>
<g id="Snowcapped_Mountains">
</g>
<g id="Skis">
</g>
<g id="Sky_Glasses">
	<g>
		<g>
			<path d="M19.5,21h-2.709c-0.958,0-1.884-0.398-2.542-1.094l-1.612-1.703C12.521,18.065,12.38,18,12.231,18h-0.463
				c-0.148,0-0.289,0.065-0.385,0.181l-1.633,1.726C9.093,20.602,8.167,21,7.209,21H4.5C2.019,21,0,18.981,0,16.5v-1.917
				c0-1.828,1.084-3.459,2.761-4.153C5.053,9.481,8.161,9,12,9c3.833,0,6.94,0.482,9.236,1.434C22.915,11.129,24,12.76,24,14.588
				V16.5C24,18.981,21.981,21,19.5,21z M11.769,17h0.463c0.445,0,0.865,0.196,1.152,0.538l1.592,1.681
				C15.445,19.715,16.106,20,16.791,20H19.5c1.93,0,3.5-1.57,3.5-3.5v-1.912c0-1.422-0.843-2.69-2.146-3.23
				C19.359,10.738,16.61,10,12,10c-4.617,0-7.365,0.736-8.856,1.354C1.842,11.893,1,13.16,1,14.583V16.5C1,18.43,2.57,20,4.5,20
				h2.709c0.685,0,1.346-0.285,1.815-0.781l1.612-1.703C10.903,17.196,11.323,17,11.769,17z"/>
		</g>
		<g>
			<path d="M19.5,19h-2.709c-0.411,0-0.808-0.171-1.09-0.469l-1.58-1.669C13.635,16.31,12.95,16,12.231,16h-0.464
				c-0.718,0-1.402,0.31-1.877,0.849l-1.592,1.683C8.019,18.829,7.621,19,7.209,19H4.5C3.121,19,2,17.879,2,16.5v-1.918
				c0-1.017,0.599-1.922,1.525-2.305C4.933,11.694,7.545,11,12,11s7.067,0.694,8.475,1.277C21.401,12.662,22,13.566,22,14.583V16.5
				C22,17.879,20.879,19,19.5,19z M11.768,15h0.464c1.006,0,1.964,0.434,2.628,1.188l1.568,1.655C16.521,17.941,16.656,18,16.791,18
				H19.5c0.827,0,1.5-0.673,1.5-1.5v-1.917c0-0.61-0.356-1.153-0.908-1.382C18.769,12.653,16.291,12,12,12s-6.769,0.653-8.092,1.201
				C3.356,13.43,3,13.972,3,14.582V16.5C3,17.327,3.673,18,4.5,18h2.709c0.138,0,0.27-0.057,0.362-0.155l1.581-1.67
				C9.805,15.434,10.762,15,11.768,15z"/>
		</g>
		<g>
			<path d="M19.5,21c-0.276,0-0.5-0.224-0.5-0.5s0.224-0.5,0.5-0.5c1.93,0,3.5-1.57,3.5-3.5v-1.912c0-1.422-0.843-2.69-2.146-3.23
				C19.359,10.738,16.61,10,12,10c-4.617,0-7.365,0.736-8.856,1.354C1.842,11.893,1,13.16,1,14.583V16.5C1,18.43,2.57,20,4.5,20
				h2.709c0.685,0,1.346-0.285,1.815-0.781l1.612-1.703C10.903,17.196,11.323,17,11.769,17h0.463c0.445,0,0.865,0.196,1.152,0.538
				l1.592,1.681c0.189,0.2,0.181,0.517-0.02,0.707s-0.517,0.18-0.707-0.02l-1.612-1.703C12.521,18.065,12.38,18,12.231,18h-0.463
				c-0.148,0-0.289,0.065-0.385,0.181l-1.633,1.726C9.093,20.602,8.167,21,7.209,21H4.5C2.019,21,0,18.981,0,16.5v-1.917
				c0-1.828,1.084-3.459,2.761-4.153C5.053,9.481,8.161,9,12,9c3.833,0,6.94,0.482,9.236,1.434C22.915,11.129,24,12.76,24,14.588
				V16.5C24,18.981,21.981,21,19.5,21z"/>
		</g>
		<g>
			<path d="M0.5,15C0.224,15,0,14.776,0,14.5c0-3.677,3.168-8.636,5.235-9.925c1.272-0.793,3.128-1.327,5.223-1.504
				c0.265-0.021,0.518,0.18,0.54,0.456c0.023,0.275-0.181,0.517-0.456,0.54c-1.94,0.164-3.637,0.646-4.777,1.356
				C3.97,6.543,1,11.248,1,14.5C1,14.776,0.776,15,0.5,15z"/>
		</g>
		<g>
			<path d="M23.5,15c-0.276,0-0.5-0.224-0.5-0.5c0-3.249-2.97-7.955-4.765-9.076c-1.139-0.711-2.835-1.192-4.776-1.356
				c-0.275-0.023-0.479-0.265-0.456-0.54s0.27-0.47,0.54-0.456c2.097,0.177,3.951,0.711,5.222,1.505C20.832,5.867,24,10.827,24,14.5
				C24,14.776,23.776,15,23.5,15z"/>
		</g>
		<g>
			<path d="M1.921,12.057c-0.077,0-0.154-0.018-0.228-0.055c-0.246-0.125-0.344-0.427-0.218-0.673
				c1.082-2.12,2.593-4.033,3.76-4.761c3.355-2.09,10.184-2.091,13.529,0.001c1.151,0.72,2.649,2.608,3.728,4.701
				c0.127,0.245,0.03,0.547-0.216,0.673c-0.244,0.128-0.546,0.031-0.673-0.216c-0.987-1.915-2.372-3.688-3.368-4.311
				C15.208,5.526,8.8,5.525,5.765,7.418c-1.01,0.629-2.407,2.425-3.398,4.366C2.278,11.957,2.103,12.057,1.921,12.057z"/>
		</g>
		<g>
			<path d="M13.5,6.063c-0.276,0-0.5-0.224-0.5-0.5V4h-2v1.563c0,0.276-0.224,0.5-0.5,0.5S10,5.839,10,5.563V3.5
				C10,3.224,10.224,3,10.5,3h3C13.776,3,14,3.224,14,3.5v2.063C14,5.839,13.776,6.063,13.5,6.063z"/>
		</g>
	</g>
</g>
<g id="Snowboard">
</g>
<g id="Ice_Skate">
</g>
<g id="Wooden_House">
</g>
<g id="Snowcapped_House">
</g>
<g id="Hot_Drink">
</g>
<g id="Hot_Chocolate">
</g>
<g id="Lantern">
</g>
<g id="Snow_Shovel">
</g>
<g id="Snowman">
</g>
<g id="Reindeer">
</g>
<g id="Snowmobile">
</g>
<g id="Snow_Chain">
</g>
<g id="Slippery_Road">
</g>
</svg>
