<?xml version="1.0" encoding="iso-8859-1"?>
<!-- Generator: Adobe Illustrator 19.2.1, SVG Export Plug-In . SVG Version: 6.00 Build 0)  -->
<svg version="1.1" xmlns="http://www.w3.org/2000/svg" xmlns:xlink="http://www.w3.org/1999/xlink" x="0px" y="0px"
	 viewBox="0 0 24 24" style="enable-background:new 0 0 24 24;" xml:space="preserve">
<g id="Snowflake_1">
</g>
<g id="Snowflake_2">
</g>
<g id="Snowflake_3">
</g>
<g id="Snowflake_4">
</g>
<g id="Winter_Cap_1">
</g>
<g id="Winter_Cap_2">
</g>
<g id="Glowes">
</g>
<g id="Sweater_1">
</g>
<g id="Sweater_2">
</g>
<g id="Sweater_3">
</g>
<g id="Scarf">
</g>
<g id="Winter_Socks">
</g>
<g id="Winter_Sock">
</g>
<g id="Winter_Coat">
</g>
<g id="Winter_Calendar">
</g>
<g id="Thermometer_1">
</g>
<g id="Thermometer_2">
</g>
<g id="Cold">
</g>
<g id="Icicle">
</g>
<g id="Snowing">
</g>
<g id="Snow_Shoes_1">
</g>
<g id="Snow_Shoes_2">
</g>
<g id="Sledge">
	<g>
		<g>
			<path d="M20.5,11h-13C6.673,11,6,10.327,6,9.5S6.673,8,7.5,8h13C21.327,8,22,8.673,22,9.5S21.327,11,20.5,11z M7.5,9
				C7.224,9,7,9.225,7,9.5S7.224,10,7.5,10h13c0.276,0,0.5-0.225,0.5-0.5S20.776,9,20.5,9H7.5z"/>
		</g>
		<g>
			<path d="M18.5,16c-0.276,0-0.5-0.224-0.5-0.5v-5c0-0.276,0.224-0.5,0.5-0.5s0.5,0.224,0.5,0.5v5C19,15.776,18.776,16,18.5,16z"/>
		</g>
		<g>
			<path d="M9.5,16C9.224,16,9,15.776,9,15.5v-5C9,10.224,9.224,10,9.5,10s0.5,0.224,0.5,0.5v5C10,15.776,9.776,16,9.5,16z"/>
		</g>
		<g>
			<path d="M23.5,16h-19C2.019,16,0,13.981,0,11.5c0-1.598,0.859-3.09,2.243-3.894c0.241-0.139,0.544-0.058,0.684,0.182
				c0.139,0.238,0.057,0.545-0.182,0.684C1.669,9.097,1,10.257,1,11.5C1,13.43,2.57,15,4.5,15h19c0.276,0,0.5,0.224,0.5,0.5
				S23.776,16,23.5,16z"/>
		</g>
	</g>
</g>
<g id="Snow_Boots">
</g>
<g id="Snowcapped_Mountains">
</g>
<g id="Skis">
</g>
<g id="Sky_Glasses">
</g>
<g id="Snowboard">
</g>
<g id="Ice_Skate">
</g>
<g id="Wooden_House">
</g>
<g id="Snowcapped_House">
</g>
<g id="Hot_Drink">
</g>
<g id="Hot_Chocolate">
</g>
<g id="Lantern">
</g>
<g id="Snow_Shovel">
</g>
<g id="Snowman">
</g>
<g id="Reindeer">
</g>
<g id="Snowmobile">
</g>
<g id="Snow_Chain">
</g>
<g id="Slippery_Road">
</g>
</svg>
