<?xml version="1.0" encoding="iso-8859-1"?>
<!-- Generator: Adobe Illustrator 19.2.1, SVG Export Plug-In . SVG Version: 6.00 Build 0)  -->
<svg version="1.1" xmlns="http://www.w3.org/2000/svg" xmlns:xlink="http://www.w3.org/1999/xlink" x="0px" y="0px"
	 viewBox="0 0 24 24" style="enable-background:new 0 0 24 24;" xml:space="preserve">
<g id="Snowflake_1">
</g>
<g id="Snowflake_2">
</g>
<g id="Snowflake_3">
</g>
<g id="Snowflake_4">
</g>
<g id="Winter_Cap_1">
</g>
<g id="Winter_Cap_2">
</g>
<g id="Glowes">
</g>
<g id="Sweater_1">
</g>
<g id="Sweater_2">
</g>
<g id="Sweater_3">
</g>
<g id="Scarf">
</g>
<g id="Winter_Socks">
</g>
<g id="Winter_Sock">
</g>
<g id="Winter_Coat">
</g>
<g id="Winter_Calendar">
</g>
<g id="Thermometer_1">
</g>
<g id="Thermometer_2">
</g>
<g id="Cold">
</g>
<g id="Icicle">
</g>
<g id="Snowing">
</g>
<g id="Snow_Shoes_1">
</g>
<g id="Snow_Shoes_2">
</g>
<g id="Sledge">
</g>
<g id="Snow_Boots">
</g>
<g id="Snowcapped_Mountains">
</g>
<g id="Skis">
</g>
<g id="Sky_Glasses">
</g>
<g id="Snowboard">
</g>
<g id="Ice_Skate">
</g>
<g id="Wooden_House">
</g>
<g id="Snowcapped_House">
</g>
<g id="Hot_Drink">
</g>
<g id="Hot_Chocolate">
</g>
<g id="Lantern">
</g>
<g id="Snow_Shovel">
</g>
<g id="Snowman">
</g>
<g id="Reindeer">
</g>
<g id="Snowmobile">
</g>
<g id="Snow_Chain">
</g>
<g id="Slippery_Road">
	<g>
		<g>
			<path d="M21.243,24H2.757c-0.955,0-1.825-0.485-2.327-1.298c-0.504-0.814-0.549-1.812-0.121-2.669L9.557,2.5
				C10.019,1.575,10.956,0.995,12,0.995s1.981,0.58,2.448,1.515l9.238,17.514c0.433,0.867,0.388,1.864-0.116,2.679
				C23.068,23.515,22.198,24,21.243,24z M12,1.995c-0.672,0-1.253,0.359-1.554,0.962L1.198,20.49
				c-0.267,0.534-0.238,1.168,0.082,1.686C1.599,22.692,2.151,23,2.757,23h18.486c0.605,0,1.158-0.308,1.477-0.824
				c0.32-0.518,0.349-1.151,0.077-1.695L13.559,2.967C13.253,2.354,12.672,1.995,12,1.995z"/>
		</g>
		<g>
			<path d="M15.501,14h-7c-0.276,0-0.5-0.224-0.5-0.5v-1c0-0.827,0.673-1.5,1.5-1.5h5c0.827,0,1.5,0.673,1.5,1.5v1
				C16.001,13.776,15.777,14,15.501,14z M9.001,13h6v-0.5c0-0.275-0.225-0.5-0.5-0.5h-5c-0.275,0-0.5,0.225-0.5,0.5V13z"/>
		</g>
		<g>
			<path d="M14.501,12h-5c-0.154,0-0.3-0.071-0.395-0.192s-0.128-0.279-0.091-0.429l0.5-2C9.571,9.156,9.771,9,10.001,9h4
				c0.229,0,0.43,0.156,0.485,0.379l0.5,2c0.037,0.149,0.004,0.308-0.091,0.429S14.655,12,14.501,12z M10.142,11h3.719l-0.25-1
				h-3.219L10.142,11z"/>
		</g>
		<g>
			<path d="M9.501,15c-0.276,0-0.5-0.224-0.5-0.5v-1c0-0.276,0.224-0.5,0.5-0.5s0.5,0.224,0.5,0.5v1
				C10.001,14.776,9.777,15,9.501,15z"/>
		</g>
		<g>
			<path d="M14.501,15c-0.276,0-0.5-0.224-0.5-0.5v-1c0-0.276,0.224-0.5,0.5-0.5s0.5,0.224,0.5,0.5v1
				C15.001,14.776,14.777,15,14.501,15z"/>
		</g>
		<g>
			<path d="M14.502,22c-0.026,0-0.053-0.002-0.08-0.006c-0.272-0.044-0.458-0.3-0.415-0.573l0,0c0,0,0.051-0.396-0.198-0.597
				c-0.299-0.24-0.719-0.347-1.125-0.449c-0.71-0.18-1.683-0.426-1.683-1.617c0-1.207,0.973-1.453,1.683-1.633
				c0.406-0.103,0.826-0.209,1.126-0.45c0.248-0.2,0.198-0.592,0.197-0.596c-0.043-0.273,0.143-0.529,0.415-0.573
				c0.276-0.041,0.528,0.142,0.573,0.415c0.057,0.356,0.003,1.08-0.558,1.532c-0.47,0.379-1.021,0.519-1.509,0.642
				c-0.798,0.202-0.928,0.293-0.928,0.647c0,0.37,0.13,0.461,0.928,0.663c0.487,0.123,1.039,0.263,1.508,0.641
				c0.562,0.453,0.615,1.177,0.559,1.533C14.955,21.825,14.743,22,14.502,22z"/>
		</g>
		<g>
			<path d="M9.492,22c-0.026,0-0.053-0.002-0.08-0.006c-0.272-0.044-0.458-0.3-0.415-0.573l0,0c0,0,0.051-0.396-0.198-0.596
				c-0.3-0.241-0.72-0.348-1.126-0.45c-0.71-0.18-1.682-0.426-1.682-1.617c0-1.207,0.972-1.453,1.682-1.633
				c0.406-0.103,0.826-0.209,1.126-0.45c0.249-0.2,0.198-0.598,0.198-0.602c-0.037-0.271,0.15-0.524,0.422-0.564
				c0.27-0.041,0.522,0.143,0.566,0.412c0.057,0.356,0.003,1.08-0.56,1.533c-0.469,0.378-1.021,0.518-1.508,0.641
				c-0.797,0.202-0.927,0.292-0.927,0.647c0,0.371,0.13,0.461,0.927,0.663c0.487,0.123,1.039,0.263,1.508,0.641
				c0.563,0.453,0.616,1.177,0.56,1.533C9.945,21.825,9.733,22,9.492,22z"/>
		</g>
	</g>
</g>
</svg>
