<?xml version="1.0" encoding="iso-8859-1"?>
<!-- Generator: Adobe Illustrator 19.2.1, SVG Export Plug-In . SVG Version: 6.00 Build 0)  -->
<svg version="1.1" xmlns="http://www.w3.org/2000/svg" xmlns:xlink="http://www.w3.org/1999/xlink" x="0px" y="0px"
	 viewBox="0 0 24 24" style="enable-background:new 0 0 24 24;" xml:space="preserve">
<g id="Snowflake_1">
</g>
<g id="Snowflake_2">
</g>
<g id="Snowflake_3">
</g>
<g id="Snowflake_4">
</g>
<g id="Winter_Cap_1">
</g>
<g id="Winter_Cap_2">
</g>
<g id="Glowes">
</g>
<g id="Sweater_1">
</g>
<g id="Sweater_2">
</g>
<g id="Sweater_3">
</g>
<g id="Scarf">
</g>
<g id="Winter_Socks">
</g>
<g id="Winter_Sock">
</g>
<g id="Winter_Coat">
</g>
<g id="Winter_Calendar">
</g>
<g id="Thermometer_1">
</g>
<g id="Thermometer_2">
</g>
<g id="Cold">
</g>
<g id="Icicle">
</g>
<g id="Snowing">
</g>
<g id="Snow_Shoes_1">
</g>
<g id="Snow_Shoes_2">
</g>
<g id="Sledge">
</g>
<g id="Snow_Boots">
</g>
<g id="Snowcapped_Mountains">
</g>
<g id="Skis">
</g>
<g id="Sky_Glasses">
</g>
<g id="Snowboard">
</g>
<g id="Ice_Skate">
</g>
<g id="Wooden_House">
</g>
<g id="Snowcapped_House">
</g>
<g id="Hot_Drink">
</g>
<g id="Hot_Chocolate">
</g>
<g id="Lantern">
</g>
<g id="Snow_Shovel">
	<g>
		<g>
			<path d="M8.085,23.999c-0.384,0-0.768-0.146-1.061-0.438l-6.586-6.585l0,0c-0.585-0.585-0.585-1.537,0-2.122l4.708-4.707
				c0.195-0.195,0.512-0.195,0.707,0l8,8C13.948,18.24,14,18.367,14,18.5s-0.053,0.26-0.146,0.354l-4.708,4.707
				C8.854,23.853,8.47,23.999,8.085,23.999z M1.146,16.269l6.586,6.585c0.195,0.195,0.512,0.195,0.707,0l4.354-4.354L5.5,11.207
				l-4.354,4.354C0.951,15.756,0.951,16.073,1.146,16.269L1.146,16.269z"/>
		</g>
		<g>
			<path d="M9.5,15c-0.128,0-0.256-0.049-0.354-0.146c-0.195-0.195-0.195-0.512,0-0.707l10.5-10.5c0.195-0.195,0.512-0.195,0.707,0
				s0.195,0.512,0,0.707l-10.5,10.5C9.756,14.951,9.628,15,9.5,15z"/>
		</g>
		<g>
			<path d="M21.5,5.17c-0.641,0-1.281-0.244-1.768-0.731l-0.171-0.17c-0.976-0.976-0.976-2.563,0-3.537l0.586-0.585
				c0.194-0.195,0.511-0.195,0.707,0l3,3C23.948,3.24,24,3.367,24,3.5s-0.053,0.26-0.147,0.354l-0.586,0.585
				C22.781,4.926,22.141,5.17,21.5,5.17z M20.5,1.207l-0.232,0.231c-0.584,0.585-0.584,1.537,0,2.122l0.171,0.17
				c0.586,0.586,1.537,0.585,2.122,0.001L22.793,3.5L20.5,1.207z"/>
		</g>
		<g>
			<path d="M3.585,16.415c-0.128,0-0.256-0.049-0.354-0.146c-0.195-0.195-0.195-0.512,0-0.707l1.915-1.915
				c0.195-0.195,0.512-0.195,0.707,0s0.195,0.512,0,0.707l-1.915,1.915C3.841,16.366,3.713,16.415,3.585,16.415z"/>
		</g>
		<g>
			<path d="M8.085,20.915c-0.128,0-0.256-0.049-0.354-0.146c-0.195-0.195-0.195-0.512,0-0.707l1.915-1.915
				c0.195-0.195,0.512-0.195,0.707,0s0.195,0.512,0,0.707l-1.915,1.915C8.341,20.866,8.213,20.915,8.085,20.915z"/>
		</g>
		<g>
			<path d="M6.585,19.415c-0.128,0-0.256-0.049-0.354-0.146c-0.195-0.195-0.195-0.512,0-0.707l1.915-1.915
				c0.195-0.195,0.512-0.195,0.707,0s0.195,0.512,0,0.707l-1.915,1.915C6.841,19.366,6.713,19.415,6.585,19.415z"/>
		</g>
		<g>
			<path d="M5.085,17.915c-0.128,0-0.256-0.049-0.354-0.146c-0.195-0.195-0.195-0.512,0-0.707l1.915-1.915
				c0.195-0.195,0.512-0.195,0.707,0s0.195,0.512,0,0.707l-1.915,1.915C5.341,17.866,5.213,17.915,5.085,17.915z"/>
		</g>
	</g>
</g>
<g id="Snowman">
</g>
<g id="Reindeer">
</g>
<g id="Snowmobile">
</g>
<g id="Snow_Chain">
</g>
<g id="Slippery_Road">
</g>
</svg>
