<?xml version="1.0" encoding="iso-8859-1"?>
<!-- Generator: Adobe Illustrator 19.2.1, SVG Export Plug-In . SVG Version: 6.00 Build 0)  -->
<svg version="1.1" xmlns="http://www.w3.org/2000/svg" xmlns:xlink="http://www.w3.org/1999/xlink" x="0px" y="0px"
	 viewBox="0 0 24 24" style="enable-background:new 0 0 24 24;" xml:space="preserve">
<g id="Snowflake_1">
</g>
<g id="Snowflake_2">
</g>
<g id="Snowflake_3">
</g>
<g id="Snowflake_4">
</g>
<g id="Winter_Cap_1">
</g>
<g id="Winter_Cap_2">
</g>
<g id="Glowes">
</g>
<g id="Sweater_1">
</g>
<g id="Sweater_2">
</g>
<g id="Sweater_3">
</g>
<g id="Scarf">
</g>
<g id="Winter_Socks">
</g>
<g id="Winter_Sock">
</g>
<g id="Winter_Coat">
</g>
<g id="Winter_Calendar">
</g>
<g id="Thermometer_1">
</g>
<g id="Thermometer_2">
</g>
<g id="Cold">
</g>
<g id="Icicle">
</g>
<g id="Snowing">
</g>
<g id="Snow_Shoes_1">
	<g>
		<g>
			<path d="M17.5,18c-0.005,0-0.011,0-0.016,0c-0.345-0.012-8.5-0.323-12.923-4.747c-1.912-1.911-3.408-4.286-4.106-6.515
				C-0.305,4.313-0.064,2.32,1.132,1.125c1.199-1.2,3.18-1.453,5.582-0.708c2.219,0.688,4.604,2.195,6.546,4.137l0,0l0,0
				c4.424,4.424,4.729,12.585,4.74,12.931c0.004,0.138-0.048,0.271-0.146,0.369C17.759,17.947,17.632,18,17.5,18z M4.197,0.996
				c-0.996,0-1.803,0.281-2.358,0.836c-0.906,0.906-1.063,2.586-0.43,4.607c0.651,2.08,2.058,4.306,3.859,6.106
				c3.509,3.509,9.807,4.268,11.698,4.419c-0.15-1.892-0.903-8.194-4.413-11.704l0,0c-1.831-1.83-4.066-3.248-6.135-3.889
				C5.607,1.121,4.86,0.996,4.197,0.996z"/>
		</g>
		<g>
			<path d="M23.5,24c-0.128,0-0.256-0.049-0.354-0.146l-6-6c-0.195-0.195-0.195-0.512,0-0.707s0.512-0.195,0.707,0l6,6
				c0.195,0.195,0.195,0.512,0,0.707C23.756,23.951,23.628,24,23.5,24z"/>
		</g>
		<g>
			<path d="M4.5,13C4.224,13,4,12.776,4,12.5v-12C4,0.224,4.224,0,4.5,0S5,0.224,5,0.5v12C5,12.776,4.776,13,4.5,13z"/>
		</g>
		<g>
			<path d="M12.5,5h-12C0.224,5,0,4.776,0,4.5S0.224,4,0.5,4h12C12.776,4,13,4.224,13,4.5S12.776,5,12.5,5z"/>
		</g>
		<g>
			<path d="M9.5,7.271c-0.276,0-0.5-0.224-0.5-0.5V2.235c0-0.276,0.224-0.5,0.5-0.5s0.5,0.224,0.5,0.5v4.535
				C10,7.047,9.776,7.271,9.5,7.271z"/>
		</g>
		<g>
			<path d="M6.774,10H2.231c-0.276,0-0.5-0.224-0.5-0.5S1.955,9,2.231,9h4.542c0.276,0,0.5,0.224,0.5,0.5S7.05,10,6.774,10z"/>
		</g>
		<g>
			<path d="M14.5,17.66c-0.276,0-0.5-0.224-0.5-0.5V6.922c0-0.276,0.224-0.5,0.5-0.5s0.5,0.224,0.5,0.5V17.16
				C15,17.437,14.776,17.66,14.5,17.66z"/>
		</g>
		<g>
			<path d="M17.167,15H6.947c-0.276,0-0.5-0.224-0.5-0.5s0.224-0.5,0.5-0.5h10.219c0.276,0,0.5,0.224,0.5,0.5S17.443,15,17.167,15z"
				/>
		</g>
		<g>
			<path d="M11.5,13c-0.287,0-0.568-0.094-0.836-0.277c-1.053-1.041-1.715-1.299-2.354-1.548c-0.378-0.147-0.768-0.299-1.176-0.587
				l0.189-0.442l-0.004-0.005l-0.272,0.388l-0.092-0.064c-0.039-0.027-0.073-0.06-0.102-0.095C6.31,9.891,6,9.215,6,8.5
				C6,7.121,7.122,6,8.5,6c0.828,0,1.594,0.406,2.062,1.091c0.017,0.02,0.032,0.041,0.045,0.063l2.118,3.514
				c0.005,0.008,0.009,0.016,0.014,0.023l-0.442,0.234l0.481-0.159C12.897,10.988,13,11.18,13,11.5C13,12.327,12.327,13,11.5,13z
				 M7.607,9.7l0.014,0.01c0,0,0.089,0.062,0.089,0.062c0.307,0.217,0.61,0.335,0.961,0.472c0.667,0.26,1.498,0.583,2.628,1.714
				C11.362,11.989,11.448,12,11.5,12c0.276,0,0.5-0.225,0.5-0.5c0-0.062-0.004-0.076-0.103-0.261l0.399-0.313l-0.428,0.258
				L9.779,7.718c-0.008-0.01-0.015-0.021-0.022-0.031C9.478,7.257,9.008,7,8.5,7C7.673,7,7,7.673,7,8.5
				c0,0.447,0.206,0.87,0.564,1.16C7.579,9.673,7.594,9.687,7.607,9.7z"/>
		</g>
		<g>
			<path d="M9.5,16.287c-0.276,0-0.5-0.224-0.5-0.5V11.17c0-0.276,0.224-0.5,0.5-0.5s0.5,0.224,0.5,0.5v4.617
				C10,16.063,9.776,16.287,9.5,16.287z"/>
		</g>
		<g>
			<path d="M15.794,10h-4.357c-0.276,0-0.5-0.224-0.5-0.5s0.224-0.5,0.5-0.5h4.357c0.276,0,0.5,0.224,0.5,0.5S16.071,10,15.794,10z"
				/>
		</g>
	</g>
</g>
<g id="Snow_Shoes_2">
</g>
<g id="Sledge">
</g>
<g id="Snow_Boots">
</g>
<g id="Snowcapped_Mountains">
</g>
<g id="Skis">
</g>
<g id="Sky_Glasses">
</g>
<g id="Snowboard">
</g>
<g id="Ice_Skate">
</g>
<g id="Wooden_House">
</g>
<g id="Snowcapped_House">
</g>
<g id="Hot_Drink">
</g>
<g id="Hot_Chocolate">
</g>
<g id="Lantern">
</g>
<g id="Snow_Shovel">
</g>
<g id="Snowman">
</g>
<g id="Reindeer">
</g>
<g id="Snowmobile">
</g>
<g id="Snow_Chain">
</g>
<g id="Slippery_Road">
</g>
</svg>
