<?xml version="1.0" encoding="iso-8859-1"?>
<!-- Generator: Adobe Illustrator 19.2.1, SVG Export Plug-In . SVG Version: 6.00 Build 0)  -->
<svg version="1.1" xmlns="http://www.w3.org/2000/svg" xmlns:xlink="http://www.w3.org/1999/xlink" x="0px" y="0px"
	 viewBox="0 0 24 24" style="enable-background:new 0 0 24 24;" xml:space="preserve">
<g id="Snowflake_1">
</g>
<g id="Snowflake_2">
	<g>
		<g>
			<g>
				<path d="M11.5,24c-0.276,0-0.5-0.224-0.5-0.5v-23C11,0.224,11.224,0,11.5,0S12,0.224,12,0.5v23C12,23.776,11.776,24,11.5,24z"/>
			</g>
			<g>
				<path d="M21.5,18c-0.082,0-0.164-0.02-0.24-0.062l-20-11C1.017,6.805,0.929,6.501,1.062,6.259
					c0.133-0.242,0.437-0.331,0.679-0.197l20,11c0.242,0.133,0.331,0.437,0.197,0.679C21.847,17.906,21.676,18,21.5,18z"/>
			</g>
			<g>
				<path d="M1.5,18c-0.176,0-0.348-0.093-0.438-0.259c-0.133-0.242-0.045-0.546,0.197-0.679l20-11
					c0.241-0.133,0.545-0.045,0.679,0.197c0.133,0.242,0.045,0.546-0.197,0.679l-20,11C1.665,17.98,1.582,18,1.5,18z"/>
			</g>
		</g>
		<g>
			<path d="M11.5,17.041c-0.089,0-0.178-0.023-0.256-0.071l-4.001-2.391c-0.151-0.09-0.244-0.253-0.244-0.429V9.748
				c0-0.181,0.098-0.347,0.255-0.436l4.001-2.248c0.152-0.085,0.338-0.085,0.49,0l4.001,2.248c0.157,0.089,0.255,0.255,0.255,0.436
				v4.402c0,0.176-0.092,0.339-0.244,0.429l-4.001,2.391C11.678,17.018,11.589,17.041,11.5,17.041z M7.999,13.866l3.501,2.092
				l3.501-2.092v-3.826L11.5,8.074l-3.501,1.967V13.866z"/>
		</g>
		<g>
			<path d="M11.5,6C9.57,6,8,4.43,8,2.5C8,2.224,8.224,2,8.5,2S9,2.224,9,2.5C9,3.878,10.122,5,11.5,5S14,3.878,14,2.5
				C14,2.224,14.224,2,14.5,2S15,2.224,15,2.5C15,4.43,13.43,6,11.5,6z"/>
		</g>
		<g>
			<path d="M14.5,22c-0.276,0-0.5-0.224-0.5-0.5c0-1.378-1.122-2.5-2.5-2.5S9,20.122,9,21.5C9,21.776,8.776,22,8.5,22
				S8,21.776,8,21.5c0-1.93,1.57-3.5,3.5-3.5s3.5,1.57,3.5,3.5C15,21.776,14.776,22,14.5,22z"/>
		</g>
		<g>
			<path d="M19.801,10.87c-1.229,0-2.422-0.647-3.062-1.793c-0.94-1.686-0.334-3.822,1.351-4.762
				c0.241-0.134,0.546-0.049,0.68,0.193c0.135,0.241,0.048,0.545-0.193,0.68c-1.204,0.672-1.636,2.198-0.965,3.402
				c0.672,1.204,2.197,1.637,3.401,0.964c0.242-0.135,0.546-0.048,0.68,0.193c0.135,0.241,0.048,0.545-0.193,0.68
				C20.962,10.727,20.378,10.87,19.801,10.87z"/>
		</g>
		<g>
			<path d="M4.667,19.75c-0.175,0-0.346-0.092-0.437-0.256c-0.135-0.241-0.048-0.545,0.193-0.68
				c1.204-0.672,1.636-2.198,0.965-3.402s-2.197-1.636-3.401-0.964c-0.241,0.134-0.546,0.048-0.68-0.193
				c-0.135-0.241-0.048-0.545,0.193-0.68c1.685-0.942,3.821-0.335,4.762,1.35c0.94,1.686,0.334,3.822-1.351,4.762
				C4.833,19.729,4.75,19.75,4.667,19.75z"/>
		</g>
		<g>
			<path d="M3.199,10.87c-0.577,0-1.161-0.143-1.7-0.443c-0.241-0.135-0.328-0.439-0.193-0.68c0.134-0.241,0.438-0.329,0.68-0.193
				c1.204,0.673,2.73,0.239,3.401-0.964s0.239-2.73-0.965-3.402C4.182,5.052,4.095,4.748,4.23,4.507
				c0.134-0.242,0.438-0.328,0.68-0.193c1.685,0.94,2.291,3.077,1.351,4.762C5.621,10.223,4.427,10.87,3.199,10.87z"/>
		</g>
		<g>
			<path d="M18.333,19.75c-0.083,0-0.166-0.021-0.243-0.063c-1.685-0.94-2.291-3.077-1.351-4.762
				c0.941-1.685,3.077-2.291,4.762-1.35c0.241,0.135,0.328,0.439,0.193,0.68c-0.135,0.241-0.439,0.326-0.68,0.193
				c-1.205-0.671-2.729-0.239-3.401,0.964c-0.671,1.204-0.239,2.73,0.965,3.402c0.241,0.135,0.328,0.439,0.193,0.68
				C18.679,19.657,18.508,19.75,18.333,19.75z"/>
		</g>
	</g>
</g>
<g id="Snowflake_3">
</g>
<g id="Snowflake_4">
</g>
<g id="Winter_Cap_1">
</g>
<g id="Winter_Cap_2">
</g>
<g id="Glowes">
</g>
<g id="Sweater_1">
</g>
<g id="Sweater_2">
</g>
<g id="Sweater_3">
</g>
<g id="Scarf">
</g>
<g id="Winter_Socks">
</g>
<g id="Winter_Sock">
</g>
<g id="Winter_Coat">
</g>
<g id="Winter_Calendar">
</g>
<g id="Thermometer_1">
</g>
<g id="Thermometer_2">
</g>
<g id="Cold">
</g>
<g id="Icicle">
</g>
<g id="Snowing">
</g>
<g id="Snow_Shoes_1">
</g>
<g id="Snow_Shoes_2">
</g>
<g id="Sledge">
</g>
<g id="Snow_Boots">
</g>
<g id="Snowcapped_Mountains">
</g>
<g id="Skis">
</g>
<g id="Sky_Glasses">
</g>
<g id="Snowboard">
</g>
<g id="Ice_Skate">
</g>
<g id="Wooden_House">
</g>
<g id="Snowcapped_House">
</g>
<g id="Hot_Drink">
</g>
<g id="Hot_Chocolate">
</g>
<g id="Lantern">
</g>
<g id="Snow_Shovel">
</g>
<g id="Snowman">
</g>
<g id="Reindeer">
</g>
<g id="Snowmobile">
</g>
<g id="Snow_Chain">
</g>
<g id="Slippery_Road">
</g>
</svg>
