<?xml version="1.0" encoding="iso-8859-1"?>
<!-- Generator: Adobe Illustrator 19.2.1, SVG Export Plug-In . SVG Version: 6.00 Build 0)  -->
<svg version="1.1" xmlns="http://www.w3.org/2000/svg" xmlns:xlink="http://www.w3.org/1999/xlink" x="0px" y="0px"
	 viewBox="0 0 24 24" style="enable-background:new 0 0 24 24;" xml:space="preserve">
<g id="Snowflake_1">
</g>
<g id="Snowflake_2">
</g>
<g id="Snowflake_3">
</g>
<g id="Snowflake_4">
</g>
<g id="Winter_Cap_1">
</g>
<g id="Winter_Cap_2">
</g>
<g id="Glowes">
</g>
<g id="Sweater_1">
</g>
<g id="Sweater_2">
</g>
<g id="Sweater_3">
</g>
<g id="Scarf">
</g>
<g id="Winter_Socks">
</g>
<g id="Winter_Sock">
</g>
<g id="Winter_Coat">
</g>
<g id="Winter_Calendar">
</g>
<g id="Thermometer_1">
</g>
<g id="Thermometer_2">
</g>
<g id="Cold">
</g>
<g id="Icicle">
</g>
<g id="Snowing">
	<g>
		<g>
			<path d="M7.496,16.5c-0.276,0-0.5-0.224-0.5-0.5v-4c0-0.276,0.224-0.5,0.5-0.5s0.5,0.224,0.5,0.5v4
				C7.996,16.276,7.772,16.5,7.496,16.5z"/>
		</g>
		<g>
			<path d="M9.225,15.508c-0.086,0-0.173-0.022-0.252-0.068l-3.456-2.016c-0.238-0.139-0.319-0.445-0.18-0.684
				c0.139-0.239,0.445-0.318,0.684-0.18l3.456,2.016c0.238,0.139,0.319,0.445,0.18,0.684C9.563,15.419,9.396,15.508,9.225,15.508z"
				/>
		</g>
		<g>
			<path d="M7.496,12.5L7.496,12.5c-0.134,0-0.261-0.053-0.354-0.147l-0.498-0.5c-0.194-0.196-0.194-0.512,0.002-0.707
				c0.195-0.195,0.512-0.195,0.707,0.001l0.145,0.146l0.148-0.147c0.195-0.195,0.512-0.195,0.707,0.001
				c0.194,0.196,0.194,0.512-0.002,0.707l-0.502,0.5C7.755,12.448,7.628,12.5,7.496,12.5z"/>
		</g>
		<g>
			<path d="M7.998,17c-0.128,0-0.255-0.048-0.353-0.146l-0.148-0.147l-0.145,0.146c-0.195,0.195-0.512,0.196-0.707,0.001
				c-0.196-0.195-0.196-0.511-0.002-0.707l0.498-0.5C7.235,15.553,7.362,15.5,7.495,15.5h0.001c0.132,0,0.259,0.052,0.353,0.146
				l0.502,0.5c0.196,0.195,0.196,0.511,0.002,0.707C8.255,16.951,8.126,17,7.998,17z"/>
		</g>
		<g>
			<path d="M9.911,13.674c-0.042,0-0.085-0.005-0.128-0.017l-0.686-0.182c-0.129-0.034-0.238-0.118-0.305-0.232
				s-0.085-0.251-0.051-0.379l0.182-0.682c0.07-0.267,0.341-0.427,0.612-0.355c0.267,0.071,0.426,0.345,0.354,0.612l-0.053,0.199
				l0.201,0.054c0.268,0.071,0.426,0.345,0.355,0.612C10.335,13.526,10.133,13.674,9.911,13.674z"/>
		</g>
		<g>
			<path d="M5.59,16.19c-0.042,0-0.084-0.005-0.127-0.016c-0.267-0.07-0.427-0.344-0.356-0.611l0.053-0.201L4.96,15.31
				c-0.268-0.07-0.428-0.343-0.357-0.61c0.069-0.267,0.34-0.426,0.61-0.357l0.683,0.179c0.129,0.034,0.238,0.117,0.306,0.231
				c0.067,0.114,0.086,0.251,0.052,0.379l-0.18,0.686C6.015,16.042,5.812,16.19,5.59,16.19z"/>
		</g>
		<g>
			<path d="M9.404,16.194c-0.223,0-0.425-0.149-0.483-0.374l-0.179-0.686c-0.034-0.128-0.015-0.265,0.053-0.379
				c0.066-0.114,0.177-0.197,0.305-0.23l0.684-0.177c0.276-0.073,0.541,0.092,0.61,0.358c0.069,0.267-0.092,0.54-0.358,0.609
				l-0.199,0.052l0.052,0.202c0.07,0.267-0.09,0.54-0.357,0.61C9.488,16.188,9.445,16.194,9.404,16.194z"/>
		</g>
		<g>
			<path d="M5.088,13.669c-0.222,0-0.425-0.148-0.483-0.373c-0.07-0.267,0.089-0.541,0.356-0.611l0.201-0.053l-0.053-0.199
				c-0.07-0.267,0.089-0.541,0.355-0.611c0.271-0.071,0.54,0.089,0.611,0.355l0.181,0.683c0.034,0.128,0.016,0.265-0.052,0.379
				c-0.066,0.115-0.176,0.198-0.305,0.232l-0.686,0.181C5.173,13.664,5.13,13.669,5.088,13.669z"/>
		</g>
		<g>
			<path d="M5.769,15.508c-0.172,0-0.339-0.089-0.432-0.248c-0.14-0.239-0.059-0.545,0.18-0.684l3.456-2.016
				c0.237-0.138,0.544-0.059,0.684,0.18s0.059,0.545-0.18,0.684L6.021,15.44C5.941,15.486,5.854,15.508,5.769,15.508z"/>
		</g>
		<g>
			<path d="M3.503,23.5c-0.276,0-0.5-0.224-0.5-0.5v-4c0-0.276,0.224-0.5,0.5-0.5s0.5,0.224,0.5,0.5v4
				C4.003,23.276,3.779,23.5,3.503,23.5z"/>
		</g>
		<g>
			<path d="M5.23,22.508c-0.086,0-0.173-0.022-0.252-0.068l-3.455-2.016c-0.238-0.139-0.319-0.445-0.18-0.684
				c0.139-0.239,0.445-0.319,0.684-0.18l3.455,2.016c0.238,0.139,0.319,0.445,0.18,0.684C5.569,22.419,5.402,22.508,5.23,22.508z"/>
		</g>
		<g>
			<path d="M3.503,19.5L3.503,19.5c-0.134,0-0.261-0.053-0.354-0.147l-0.498-0.5c-0.194-0.196-0.194-0.512,0.002-0.707
				c0.195-0.195,0.512-0.195,0.707,0.001l0.145,0.146l0.148-0.147c0.195-0.195,0.512-0.195,0.707,0.001
				c0.194,0.196,0.194,0.512-0.002,0.707l-0.502,0.5C3.762,19.448,3.635,19.5,3.503,19.5z"/>
		</g>
		<g>
			<path d="M4.005,24c-0.128,0-0.255-0.048-0.353-0.146l-0.148-0.147l-0.145,0.146c-0.195,0.195-0.512,0.196-0.707,0.001
				c-0.196-0.195-0.196-0.511-0.002-0.707l0.498-0.5C3.242,22.553,3.369,22.5,3.502,22.5h0.001c0.132,0,0.259,0.052,0.353,0.146
				l0.502,0.5c0.196,0.195,0.196,0.511,0.002,0.707C4.262,23.951,4.133,24,4.005,24z"/>
		</g>
		<g>
			<path d="M5.917,20.674c-0.042,0-0.086-0.005-0.129-0.017l-0.685-0.182c-0.267-0.071-0.425-0.345-0.354-0.611l0.181-0.682
				c0.071-0.267,0.341-0.424,0.611-0.355c0.267,0.071,0.426,0.344,0.355,0.611l-0.053,0.199l0.202,0.054
				c0.267,0.071,0.425,0.345,0.354,0.612C6.341,20.527,6.139,20.674,5.917,20.674z"/>
		</g>
		<g>
			<path d="M1.596,23.19c-0.042,0-0.084-0.005-0.127-0.016c-0.267-0.07-0.427-0.344-0.356-0.611l0.053-0.202L0.966,22.31
				c-0.267-0.07-0.427-0.343-0.356-0.61c0.069-0.267,0.339-0.425,0.61-0.357l0.683,0.179c0.128,0.034,0.237,0.117,0.305,0.231
				c0.067,0.115,0.086,0.251,0.052,0.379l-0.18,0.686C2.021,23.042,1.817,23.19,1.596,23.19z"/>
		</g>
		<g>
			<path d="M5.41,23.194c-0.223,0-0.425-0.149-0.483-0.374l-0.179-0.686c-0.034-0.128-0.015-0.265,0.053-0.379
				c0.066-0.114,0.177-0.197,0.305-0.23l0.684-0.177c0.277-0.073,0.541,0.091,0.61,0.358s-0.092,0.54-0.358,0.609l-0.199,0.052
				l0.052,0.202c0.07,0.267-0.09,0.54-0.357,0.61C5.494,23.188,5.451,23.194,5.41,23.194z"/>
		</g>
		<g>
			<path d="M1.094,20.669c-0.222,0-0.425-0.148-0.483-0.373c-0.07-0.267,0.089-0.541,0.356-0.611l0.201-0.053l-0.053-0.199
				c-0.07-0.267,0.089-0.541,0.355-0.611c0.271-0.071,0.541,0.089,0.611,0.355l0.181,0.683c0.034,0.128,0.016,0.265-0.052,0.379
				c-0.066,0.115-0.176,0.198-0.305,0.232l-0.686,0.181C1.179,20.664,1.136,20.669,1.094,20.669z"/>
		</g>
		<g>
			<path d="M1.775,22.508c-0.172,0-0.339-0.089-0.432-0.248c-0.14-0.239-0.059-0.545,0.18-0.684l3.455-2.016
				c0.236-0.139,0.544-0.06,0.684,0.18c0.14,0.239,0.059,0.545-0.18,0.684l-3.455,2.016C1.948,22.486,1.861,22.508,1.775,22.508z"/>
		</g>
		<g>
			<path d="M15.5,16.5c-0.276,0-0.5-0.224-0.5-0.5v-4c0-0.276,0.224-0.5,0.5-0.5S16,11.724,16,12v4C16,16.276,15.776,16.5,15.5,16.5
				z"/>
		</g>
		<g>
			<path d="M17.228,15.508c-0.086,0-0.173-0.022-0.252-0.068l-3.455-2.016c-0.238-0.139-0.319-0.445-0.18-0.684
				c0.139-0.239,0.445-0.319,0.684-0.18l3.455,2.016c0.238,0.139,0.319,0.445,0.18,0.684C17.566,15.419,17.399,15.508,17.228,15.508
				z"/>
		</g>
		<g>
			<path d="M15.5,12.5L15.5,12.5c-0.134,0-0.261-0.053-0.354-0.147l-0.498-0.5c-0.194-0.196-0.194-0.512,0.002-0.707
				c0.195-0.195,0.512-0.195,0.707,0.001l0.145,0.146l0.148-0.147c0.195-0.195,0.512-0.195,0.707,0.001
				c0.194,0.196,0.194,0.512-0.002,0.707l-0.502,0.5C15.759,12.448,15.632,12.5,15.5,12.5z"/>
		</g>
		<g>
			<path d="M16.002,17c-0.128,0-0.255-0.048-0.353-0.146l-0.148-0.147l-0.145,0.146c-0.195,0.195-0.512,0.196-0.707,0.001
				c-0.196-0.195-0.196-0.511-0.002-0.707l0.498-0.5c0.094-0.094,0.221-0.146,0.354-0.147H15.5c0.132,0,0.259,0.052,0.353,0.146
				l0.502,0.5c0.196,0.195,0.196,0.511,0.002,0.707C16.259,16.951,16.13,17,16.002,17z"/>
		</g>
		<g>
			<path d="M17.914,13.674c-0.042,0-0.086-0.005-0.129-0.017l-0.685-0.182c-0.128-0.034-0.237-0.118-0.304-0.233
				s-0.085-0.251-0.051-0.379l0.182-0.682c0.071-0.267,0.343-0.427,0.612-0.355c0.267,0.071,0.426,0.345,0.354,0.612l-0.053,0.199
				l0.201,0.053c0.267,0.071,0.425,0.345,0.354,0.612C18.338,13.527,18.136,13.674,17.914,13.674z"/>
		</g>
		<g>
			<path d="M13.593,16.19c-0.042,0-0.084-0.005-0.127-0.016c-0.267-0.07-0.427-0.344-0.356-0.611l0.053-0.202l-0.199-0.052
				c-0.267-0.07-0.427-0.343-0.356-0.61s0.34-0.426,0.61-0.357l0.683,0.179c0.128,0.034,0.237,0.117,0.305,0.231
				c0.067,0.115,0.086,0.251,0.052,0.379l-0.18,0.686C14.018,16.042,13.814,16.19,13.593,16.19z"/>
		</g>
		<g>
			<path d="M17.407,16.194c-0.223,0-0.426-0.149-0.484-0.375l-0.178-0.686c-0.069-0.267,0.092-0.54,0.358-0.609l0.683-0.177
				c0.271-0.073,0.541,0.092,0.61,0.358c0.069,0.267-0.092,0.54-0.358,0.609l-0.199,0.052l0.053,0.202
				c0.069,0.268-0.092,0.54-0.359,0.609C17.49,16.189,17.448,16.194,17.407,16.194z"/>
		</g>
		<g>
			<path d="M13.092,13.669c-0.222,0-0.424-0.148-0.483-0.373c-0.07-0.267,0.089-0.541,0.355-0.611l0.202-0.053l-0.053-0.199
				c-0.07-0.267,0.089-0.541,0.356-0.611c0.263-0.071,0.541,0.089,0.61,0.356l0.18,0.683c0.07,0.267-0.089,0.541-0.355,0.611
				l-0.685,0.181C13.177,13.664,13.134,13.669,13.092,13.669z"/>
		</g>
		<g>
			<path d="M13.772,15.508c-0.172,0-0.339-0.089-0.432-0.248c-0.14-0.239-0.059-0.545,0.18-0.684l3.455-2.016
				c0.236-0.14,0.544-0.059,0.684,0.18s0.059,0.545-0.18,0.684l-3.455,2.016C13.945,15.486,13.858,15.508,13.772,15.508z"/>
		</g>
		<g>
			<path d="M11.495,23.5c-0.276,0-0.5-0.224-0.5-0.5v-4c0-0.276,0.224-0.5,0.5-0.5s0.5,0.224,0.5,0.5v4
				C11.995,23.276,11.771,23.5,11.495,23.5z"/>
		</g>
		<g>
			<path d="M13.223,22.508c-0.086,0-0.173-0.022-0.252-0.068l-3.455-2.016c-0.238-0.139-0.319-0.445-0.18-0.684
				c0.139-0.239,0.445-0.319,0.684-0.18l3.455,2.016c0.238,0.139,0.319,0.445,0.18,0.684C13.562,22.419,13.395,22.508,13.223,22.508
				z"/>
		</g>
		<g>
			<path d="M11.495,19.5L11.495,19.5c-0.134,0-0.261-0.053-0.354-0.147l-0.498-0.5c-0.194-0.196-0.194-0.512,0.002-0.707
				c0.195-0.195,0.512-0.195,0.707,0.001l0.145,0.146l0.148-0.147c0.195-0.195,0.512-0.195,0.707,0.001
				c0.194,0.196,0.194,0.512-0.002,0.707l-0.502,0.5C11.754,19.448,11.627,19.5,11.495,19.5z"/>
		</g>
		<g>
			<path d="M11.997,24c-0.128,0-0.255-0.048-0.353-0.146l-0.148-0.147l-0.145,0.146c-0.195,0.195-0.512,0.196-0.707,0.001
				c-0.196-0.195-0.196-0.511-0.002-0.707l0.498-0.5c0.094-0.094,0.221-0.146,0.354-0.147h0.001c0.132,0,0.259,0.052,0.353,0.146
				l0.502,0.5c0.196,0.195,0.196,0.511,0.002,0.707C12.254,23.951,12.125,24,11.997,24z"/>
		</g>
		<g>
			<path d="M13.909,20.674c-0.042,0-0.086-0.005-0.129-0.017l-0.685-0.182c-0.128-0.034-0.237-0.118-0.304-0.233
				s-0.085-0.251-0.051-0.379l0.182-0.682c0.071-0.267,0.344-0.424,0.612-0.355c0.267,0.071,0.426,0.345,0.354,0.612l-0.053,0.199
				l0.201,0.053c0.267,0.071,0.425,0.345,0.354,0.612C14.333,20.527,14.131,20.674,13.909,20.674z"/>
		</g>
		<g>
			<path d="M9.588,23.19c-0.042,0-0.084-0.005-0.127-0.016c-0.267-0.07-0.427-0.344-0.356-0.611l0.053-0.202L8.958,22.31
				c-0.267-0.07-0.427-0.343-0.356-0.61c0.069-0.267,0.338-0.425,0.61-0.357l0.683,0.179c0.128,0.034,0.237,0.117,0.305,0.231
				c0.067,0.115,0.086,0.251,0.052,0.379l-0.18,0.686C10.013,23.042,9.81,23.19,9.588,23.19z"/>
		</g>
		<g>
			<path d="M13.403,23.194c-0.223,0-0.425-0.149-0.483-0.374l-0.179-0.686c-0.034-0.128-0.015-0.265,0.053-0.379
				c0.066-0.114,0.177-0.197,0.305-0.23l0.684-0.177c0.276-0.073,0.541,0.091,0.61,0.358s-0.092,0.54-0.358,0.609l-0.199,0.052
				l0.052,0.202c0.07,0.267-0.09,0.54-0.357,0.61C13.487,23.188,13.444,23.194,13.403,23.194z"/>
		</g>
		<g>
			<path d="M9.087,20.669c-0.222,0-0.424-0.148-0.483-0.373c-0.07-0.267,0.089-0.541,0.355-0.611l0.202-0.053l-0.053-0.199
				c-0.07-0.267,0.089-0.541,0.356-0.611c0.263-0.071,0.541,0.089,0.61,0.356l0.18,0.683c0.07,0.267-0.089,0.541-0.355,0.611
				l-0.685,0.181C9.172,20.664,9.129,20.669,9.087,20.669z"/>
		</g>
		<g>
			<path d="M9.768,22.508c-0.172,0-0.339-0.089-0.432-0.248c-0.14-0.239-0.059-0.545,0.18-0.684l3.455-2.016
				c0.236-0.139,0.544-0.06,0.684,0.18c0.14,0.239,0.059,0.545-0.18,0.684l-3.455,2.016C9.94,22.486,9.854,22.508,9.768,22.508z"/>
		</g>
		<g>
			<path d="M19.836,14.796c-0.219,0-0.42-0.145-0.481-0.366c-0.074-0.266,0.081-0.542,0.348-0.616C21.644,13.274,23,11.5,23,9.5
				C23,7.019,20.981,5,18.5,5c-0.436,0-0.893,0.081-1.397,0.246c-0.243,0.082-0.514-0.041-0.615-0.28C15.466,2.557,13.116,1,10.5,1
				C7.233,1,4.463,3.444,4.057,6.685C4.031,6.891,3.88,7.06,3.678,7.108C2.102,7.49,1,8.885,1,10.5c0,1.471,0.94,2.792,2.341,3.286
				c0.261,0.092,0.397,0.378,0.306,0.638c-0.092,0.261-0.379,0.396-0.638,0.305C1.209,14.094,0,12.394,0,10.5
				c0-1.964,1.264-3.674,3.113-4.271C3.724,2.655,6.842,0,10.5,0c2.869,0,5.46,1.623,6.722,4.169C17.666,4.056,18.088,4,18.5,4
				C21.532,4,24,6.467,24,9.5c0,2.447-1.657,4.617-4.03,5.278C19.925,14.791,19.88,14.796,19.836,14.796z"/>
		</g>
	</g>
</g>
<g id="Snow_Shoes_1">
</g>
<g id="Snow_Shoes_2">
</g>
<g id="Sledge">
</g>
<g id="Snow_Boots">
</g>
<g id="Snowcapped_Mountains">
</g>
<g id="Skis">
</g>
<g id="Sky_Glasses">
</g>
<g id="Snowboard">
</g>
<g id="Ice_Skate">
</g>
<g id="Wooden_House">
</g>
<g id="Snowcapped_House">
</g>
<g id="Hot_Drink">
</g>
<g id="Hot_Chocolate">
</g>
<g id="Lantern">
</g>
<g id="Snow_Shovel">
</g>
<g id="Snowman">
</g>
<g id="Reindeer">
</g>
<g id="Snowmobile">
</g>
<g id="Snow_Chain">
</g>
<g id="Slippery_Road">
</g>
</svg>
