<?xml version="1.0" encoding="iso-8859-1"?>
<!-- Generator: Adobe Illustrator 19.2.1, SVG Export Plug-In . SVG Version: 6.00 Build 0)  -->
<svg version="1.1" xmlns="http://www.w3.org/2000/svg" xmlns:xlink="http://www.w3.org/1999/xlink" x="0px" y="0px"
	 viewBox="0 0 24 24" style="enable-background:new 0 0 24 24;" xml:space="preserve">
<g id="Snowflake_1">
</g>
<g id="Snowflake_2">
</g>
<g id="Snowflake_3">
</g>
<g id="Snowflake_4">
</g>
<g id="Winter_Cap_1">
</g>
<g id="Winter_Cap_2">
</g>
<g id="Glowes">
</g>
<g id="Sweater_1">
</g>
<g id="Sweater_2">
</g>
<g id="Sweater_3">
</g>
<g id="Scarf">
</g>
<g id="Winter_Socks">
</g>
<g id="Winter_Sock">
</g>
<g id="Winter_Coat">
</g>
<g id="Winter_Calendar">
</g>
<g id="Thermometer_1">
</g>
<g id="Thermometer_2">
</g>
<g id="Cold">
</g>
<g id="Icicle">
</g>
<g id="Snowing">
</g>
<g id="Snow_Shoes_1">
</g>
<g id="Snow_Shoes_2">
</g>
<g id="Sledge">
</g>
<g id="Snow_Boots">
</g>
<g id="Snowcapped_Mountains">
	<g>
		<g>
			<path d="M0.5,20c-0.085,0-0.172-0.021-0.251-0.068c-0.238-0.139-0.319-0.445-0.18-0.684L6.195,8.744C6.467,8.277,6.951,8,7.491,8
				c0.002,0,0.005,0,0.007,0c0.542,0.002,1.027,0.285,1.295,0.756l3.141,5.496c0.137,0.239,0.054,0.545-0.186,0.683
				c-0.241,0.134-0.546,0.052-0.682-0.187L7.925,9.252C7.795,9.023,7.601,9.026,7.491,9C7.403,9,7.189,9.024,7.06,9.248
				L0.932,19.752C0.839,19.911,0.671,20,0.5,20z"/>
		</g>
		<g>
			<path d="M23.5,20c-0.193,0-0.376-0.112-0.458-0.3L16.958,5.794c-0.122-0.277-0.381-0.299-0.458-0.299s-0.336,0.021-0.458,0.299
				L9.958,19.7c-0.11,0.252-0.407,0.366-0.658,0.258c-0.253-0.11-0.369-0.405-0.258-0.658l6.084-13.906
				c0.243-0.555,0.769-0.898,1.374-0.898s1.131,0.344,1.374,0.898L23.958,19.3c0.111,0.253-0.004,0.548-0.258,0.658
				C23.635,19.986,23.567,20,23.5,20z"/>
		</g>
		<g>
			<path d="M9.5,14c-0.825,0-1.147-0.624-1.361-1.038C7.928,12.555,7.866,12.5,7.729,12.5c-0.083,0-0.137,0.035-0.284,0.143
				C7.253,12.785,6.961,13,6.5,13c-0.699,0-1.395-0.974-1.661-1.393c-0.148-0.232-0.08-0.542,0.153-0.69
				c0.232-0.148,0.541-0.079,0.69,0.153c0.277,0.434,0.689,0.887,0.847,0.933c0.098-0.003,0.167-0.05,0.324-0.165
				C7.046,11.695,7.311,11.5,7.729,11.5c0.78,0,1.091,0.604,1.298,1.003C9.243,12.921,9.318,13,9.5,13
				c0.279,0,0.298-0.601,0.298-0.606c0.003-0.274,0.212-0.488,0.503-0.496c0.275,0.002,0.497,0.224,0.497,0.499
				C10.798,13.169,10.392,14,9.5,14z"/>
		</g>
		<g>
			<path d="M15.246,12c-0.747,0-1.159-0.54-1.49-0.974c-0.153-0.2-0.297-0.39-0.455-0.511c-0.219-0.169-0.259-0.482-0.091-0.701
				c0.167-0.219,0.482-0.259,0.701-0.092c0.262,0.202,0.462,0.465,0.64,0.696C14.852,10.814,15.019,11,15.246,11
				c0.784,0,1.227-0.243,1.696-0.501C17.388,10.254,17.85,10,18.528,10c0.54,0,0.877,0.061,1.101,0.101
				c0.271,0.048,0.486,0.313,0.438,0.585s-0.278,0.461-0.544,0.411C19.241,11.047,18.979,11,18.528,11
				c-0.421,0-0.723,0.166-1.104,0.375C16.917,11.653,16.286,12,15.246,12z"/>
		</g>
	</g>
</g>
<g id="Skis">
</g>
<g id="Sky_Glasses">
</g>
<g id="Snowboard">
</g>
<g id="Ice_Skate">
</g>
<g id="Wooden_House">
</g>
<g id="Snowcapped_House">
</g>
<g id="Hot_Drink">
</g>
<g id="Hot_Chocolate">
</g>
<g id="Lantern">
</g>
<g id="Snow_Shovel">
</g>
<g id="Snowman">
</g>
<g id="Reindeer">
</g>
<g id="Snowmobile">
</g>
<g id="Snow_Chain">
</g>
<g id="Slippery_Road">
</g>
</svg>
