<?xml version="1.0" encoding="iso-8859-1"?>
<!-- Generator: Adobe Illustrator 19.2.1, SVG Export Plug-In . SVG Version: 6.00 Build 0)  -->
<svg version="1.1" xmlns="http://www.w3.org/2000/svg" xmlns:xlink="http://www.w3.org/1999/xlink" x="0px" y="0px"
	 viewBox="0 0 24 24" style="enable-background:new 0 0 24 24;" xml:space="preserve">
<g id="Snowflake_1">
</g>
<g id="Snowflake_2">
</g>
<g id="Snowflake_3">
</g>
<g id="Snowflake_4">
</g>
<g id="Winter_Cap_1">
</g>
<g id="Winter_Cap_2">
</g>
<g id="Glowes">
</g>
<g id="Sweater_1">
</g>
<g id="Sweater_2">
</g>
<g id="Sweater_3">
</g>
<g id="Scarf">
</g>
<g id="Winter_Socks">
</g>
<g id="Winter_Sock">
</g>
<g id="Winter_Coat">
</g>
<g id="Winter_Calendar">
</g>
<g id="Thermometer_1">
</g>
<g id="Thermometer_2">
</g>
<g id="Cold">
</g>
<g id="Icicle">
</g>
<g id="Snowing">
</g>
<g id="Snow_Shoes_1">
</g>
<g id="Snow_Shoes_2">
</g>
<g id="Sledge">
</g>
<g id="Snow_Boots">
</g>
<g id="Snowcapped_Mountains">
</g>
<g id="Skis">
</g>
<g id="Sky_Glasses">
</g>
<g id="Snowboard">
</g>
<g id="Ice_Skate">
</g>
<g id="Wooden_House">
</g>
<g id="Snowcapped_House">
</g>
<g id="Hot_Drink">
</g>
<g id="Hot_Chocolate">
</g>
<g id="Lantern">
</g>
<g id="Snow_Shovel">
</g>
<g id="Snowman">
</g>
<g id="Reindeer">
</g>
<g id="Snowmobile">
	<g>
		<g>
			<path d="M17.195,15.997c-0.199,0-0.398-0.005-0.599-0.016L0.47,14.999c-0.168-0.01-0.319-0.104-0.403-0.249
				c-0.083-0.146-0.089-0.323-0.014-0.474l1-2c0.124-0.246,0.424-0.347,0.671-0.224c0.247,0.124,0.347,0.424,0.224,0.671
				l-0.662,1.323l15.368,0.937c1.806,0.095,3.623-0.283,5.244-1.095l0.856-0.521l-1.843-2.304C19.862,9.752,18.297,9,16.616,9
				h-0.973l-3.879,2.424c-0.231,0.147-0.542,0.077-0.688-0.159c-0.146-0.233-0.075-0.542,0.159-0.688l4-2.5
				C15.314,8.026,15.406,8,15.5,8h1.116c1.986,0,3.836,0.89,5.076,2.439l2.198,2.748c0.09,0.112,0.127,0.258,0.102,0.399
				s-0.11,0.266-0.233,0.341l-1.379,0.836C20.752,15.58,18.979,15.997,17.195,15.997z"/>
		</g>
		<g>
			<path d="M9.09,19H1.69C0.759,19,0,18.241,0,17.31c0-0.699,0.417-1.314,1.063-1.572l3.591-1.437
				c0.256-0.104,0.547,0.022,0.649,0.278s-0.021,0.547-0.278,0.649l-3.591,1.437C1.17,16.771,1,17.022,1,17.306
				C1,17.69,1.31,18,1.69,18H9.09C9.592,18,10,17.592,10,17.09c0-0.249-0.095-0.478-0.267-0.649l-1.067-1.067
				c-0.195-0.195-0.195-0.512,0-0.707s0.512-0.195,0.707,0l1.067,1.067c0.361,0.36,0.56,0.841,0.56,1.351
				C11,18.144,10.144,19,9.09,19z"/>
		</g>
		<g>
			<path d="M10.5,13h-9C0.673,13,0,12.327,0,11.5S0.673,10,1.5,10h9c0.827,0,1.5,0.673,1.5,1.5S11.327,13,10.5,13z M1.5,11
				C1.225,11,1,11.225,1,11.5S1.225,12,1.5,12h9c0.275,0,0.5-0.225,0.5-0.5S10.775,11,10.5,11H1.5z"/>
		</g>
		<g>
			<path d="M20,10c-0.176,0-0.346-0.093-0.438-0.258c-1.057-1.905-2.557-2.487-3.402-2.665l0.325,1.302
				c0.066,0.268-0.096,0.539-0.364,0.606c-0.268,0.063-0.54-0.096-0.606-0.364l-0.5-2c-0.036-0.146-0.005-0.303,0.087-0.424
				c0.092-0.12,0.233-0.193,0.385-0.197c0.136,0.006,3.118-0.048,4.951,3.258c0.134,0.241,0.047,0.546-0.195,0.68
				C20.166,9.979,20.082,10,20,10z"/>
		</g>
		<g>
			<path d="M7.5,17h-3C4.224,17,4,16.776,4,16.5S4.224,16,4.5,16h2.065l-0.481-0.723c-0.153-0.229-0.091-0.54,0.139-0.693
				c0.228-0.153,0.538-0.092,0.693,0.139l1,1.5c0.103,0.153,0.112,0.351,0.024,0.514C7.854,16.898,7.685,17,7.5,17z"/>
		</g>
		<g>
			<path d="M21.5,19c-0.128,0-0.256-0.049-0.354-0.146l-3-3c-0.195-0.195-0.195-0.512,0-0.707s0.512-0.195,0.707,0l3,3
				c0.195,0.195,0.195,0.512,0,0.707C21.756,18.951,21.628,19,21.5,19z"/>
		</g>
		<g>
			<path d="M14.5,9.5c-0.161,0-0.319-0.078-0.416-0.223L13.232,8H12.5C12.224,8,12,7.776,12,7.5S12.224,7,12.5,7h1
				c0.167,0,0.323,0.084,0.416,0.223l1,1.5c0.153,0.229,0.091,0.54-0.139,0.693C14.692,9.473,14.596,9.5,14.5,9.5z"/>
		</g>
		<g>
			<path d="M22.382,19H18.5c-0.276,0-0.5-0.224-0.5-0.5s0.224-0.5,0.5-0.5h3.882c0.191,0,0.362-0.105,0.447-0.275l0.224-0.448
				c0.124-0.246,0.425-0.347,0.671-0.224c0.247,0.124,0.347,0.424,0.224,0.671l-0.224,0.447C23.469,18.682,22.954,19,22.382,19z"/>
		</g>
	</g>
</g>
<g id="Snow_Chain">
</g>
<g id="Slippery_Road">
</g>
</svg>
