<?xml version="1.0" encoding="iso-8859-1"?>
<!-- Generator: Adobe Illustrator 19.2.1, SVG Export Plug-In . SVG Version: 6.00 Build 0)  -->
<svg version="1.1" xmlns="http://www.w3.org/2000/svg" xmlns:xlink="http://www.w3.org/1999/xlink" x="0px" y="0px"
	 viewBox="0 0 24 24" style="enable-background:new 0 0 24 24;" xml:space="preserve">
<g id="Snowflake_1">
</g>
<g id="Snowflake_2">
</g>
<g id="Snowflake_3">
</g>
<g id="Snowflake_4">
</g>
<g id="Winter_Cap_1">
</g>
<g id="Winter_Cap_2">
</g>
<g id="Glowes">
</g>
<g id="Sweater_1">
</g>
<g id="Sweater_2">
</g>
<g id="Sweater_3">
</g>
<g id="Scarf">
</g>
<g id="Winter_Socks">
</g>
<g id="Winter_Sock">
</g>
<g id="Winter_Coat">
</g>
<g id="Winter_Calendar">
</g>
<g id="Thermometer_1">
</g>
<g id="Thermometer_2">
</g>
<g id="Cold">
</g>
<g id="Icicle">
</g>
<g id="Snowing">
</g>
<g id="Snow_Shoes_1">
</g>
<g id="Snow_Shoes_2">
</g>
<g id="Sledge">
</g>
<g id="Snow_Boots">
	<g>
		<g>
			<path d="M22.5,7h-11C10.672,7,10,6.327,10,5.5v-3C10,1.121,11.121,0,12.5,0h9C22.878,0,24,1.121,24,2.5v3
				C24,6.327,23.327,7,22.5,7z M12.5,1C11.672,1,11,1.673,11,2.5v3C11,5.775,11.224,6,11.5,6h11C22.775,6,23,5.775,23,5.5v-3
				C23,1.673,22.327,1,21.5,1H12.5z"/>
		</g>
		<g>
			<path d="M22.729,21H1.26c-0.167,0-0.322-0.083-0.416-0.222c-0.75-1.119-1.012-2.478-0.737-3.825
				c0.398-1.957,1.997-3.512,3.979-3.87c0.878-0.158,1.739-0.091,2.563,0.199c1.196,0.425,2.458,0.355,3.556-0.193
				C11.312,12.535,12,11.422,12,10.183V6.5C12,6.224,12.223,6,12.5,6h9C21.776,6,22,6.224,22,6.5v3.296
				c0,2.247,0.451,4.172,1.34,5.721c0.571,0.994,0.777,2.128,0.599,3.28c-0.108,0.694-0.375,1.362-0.795,1.983
				C23.05,20.918,22.895,21,22.729,21z M1.537,20h20.917c0.257-0.434,0.423-0.889,0.496-1.356c0.144-0.926-0.021-1.834-0.478-2.629
				C21.495,14.312,21,12.22,21,9.796V7h-8v3.183c0,1.62-0.9,3.077-2.349,3.801c-1.344,0.671-2.883,0.756-4.337,0.242
				c-0.655-0.232-1.345-0.285-2.05-0.158c-1.583,0.286-2.859,1.525-3.177,3.085C0.884,18.148,1.043,19.149,1.537,20z"/>
		</g>
		<g>
			<path d="M22.5,24h-6c-0.219,0-0.412-0.143-0.477-0.351l-0.115-0.367c-0.071-0.174-0.286-0.294-0.513-0.274l-5.324,0.79
				C9.197,23.937,6.268,24,5.5,24h-4C0.673,24,0,23.327,0,22.5v-1C0,20.673,0.673,20,1.5,20h21c0.827,0,1.5,0.673,1.5,1.5v1
				C24,23.327,23.327,24,22.5,24z M16.866,23H22.5c0.276,0,0.5-0.225,0.5-0.5v-1c0-0.275-0.224-0.5-0.5-0.5h-21
				C1.224,21,1,21.225,1,21.5v1C1,22.775,1.224,23,1.5,23h4c0.827,0,3.632-0.065,4.42-0.19l5.342-0.792
				c0.686-0.082,1.335,0.299,1.587,0.93L16.866,23z"/>
		</g>
		<g>
			<path d="M13,13.5c-0.184,0-0.36-0.102-0.448-0.276l-0.5-1c-0.124-0.247-0.023-0.547,0.224-0.671
				c0.248-0.124,0.547-0.022,0.671,0.224l0.5,1c0.124,0.247,0.023,0.547-0.224,0.671C13.152,13.483,13.076,13.5,13,13.5z"/>
		</g>
		<g>
			<path d="M10.5,15.5c-0.276,0-0.5-0.224-0.5-0.5v-1.5c0-0.185,0.102-0.354,0.264-0.44c0.163-0.088,0.36-0.077,0.513,0.024l1.5,1
				c0.23,0.153,0.292,0.464,0.139,0.693s-0.463,0.29-0.693,0.139L11,14.435V15C11,15.276,10.776,15.5,10.5,15.5z"/>
		</g>
		<g>
			<path d="M12.5,12.5c-0.209,0-0.404-0.133-0.474-0.342c-0.087-0.262,0.054-0.545,0.316-0.633l1.5-0.5
				c0.264-0.088,0.545,0.056,0.632,0.316c0.087,0.262-0.054,0.545-0.316,0.633l-1.5,0.5C12.605,12.492,12.552,12.5,12.5,12.5z"/>
		</g>
		<g>
			<path d="M15.849,21c-0.206,0-0.398-0.128-0.471-0.333C15.127,19.96,15,19.23,15,18.5c0-3.584,2.916-6.5,6.5-6.5
				c0.065,0,0.129,0.004,0.193,0.009c0.273,0.019,0.524,0.257,0.509,0.53s-0.188,0.52-0.479,0.473c-0.003,0-0.095-0.006-0.098-0.006
				L21.5,13c-3.033,0-5.5,2.468-5.5,5.5c0,0.617,0.107,1.233,0.32,1.833c0.092,0.261-0.044,0.546-0.304,0.639
				C15.96,20.991,15.904,21,15.849,21z"/>
		</g>
	</g>
</g>
<g id="Snowcapped_Mountains">
</g>
<g id="Skis">
</g>
<g id="Sky_Glasses">
</g>
<g id="Snowboard">
</g>
<g id="Ice_Skate">
</g>
<g id="Wooden_House">
</g>
<g id="Snowcapped_House">
</g>
<g id="Hot_Drink">
</g>
<g id="Hot_Chocolate">
</g>
<g id="Lantern">
</g>
<g id="Snow_Shovel">
</g>
<g id="Snowman">
</g>
<g id="Reindeer">
</g>
<g id="Snowmobile">
</g>
<g id="Snow_Chain">
</g>
<g id="Slippery_Road">
</g>
</svg>
