<?xml version="1.0" encoding="iso-8859-1"?>
<!-- Generator: Adobe Illustrator 19.2.1, SVG Export Plug-In . SVG Version: 6.00 Build 0)  -->
<svg version="1.1" xmlns="http://www.w3.org/2000/svg" xmlns:xlink="http://www.w3.org/1999/xlink" x="0px" y="0px"
	 viewBox="0 0 24 24" style="enable-background:new 0 0 24 24;" xml:space="preserve">
<g id="Snowflake_1">
</g>
<g id="Snowflake_2">
</g>
<g id="Snowflake_3">
</g>
<g id="Snowflake_4">
</g>
<g id="Winter_Cap_1">
</g>
<g id="Winter_Cap_2">
</g>
<g id="Glowes">
</g>
<g id="Sweater_1">
</g>
<g id="Sweater_2">
</g>
<g id="Sweater_3">
</g>
<g id="Scarf">
</g>
<g id="Winter_Socks">
</g>
<g id="Winter_Sock">
</g>
<g id="Winter_Coat">
</g>
<g id="Winter_Calendar">
</g>
<g id="Thermometer_1">
</g>
<g id="Thermometer_2">
</g>
<g id="Cold">
</g>
<g id="Icicle">
</g>
<g id="Snowing">
</g>
<g id="Snow_Shoes_1">
</g>
<g id="Snow_Shoes_2">
</g>
<g id="Sledge">
</g>
<g id="Snow_Boots">
</g>
<g id="Snowcapped_Mountains">
</g>
<g id="Skis">
</g>
<g id="Sky_Glasses">
</g>
<g id="Snowboard">
</g>
<g id="Ice_Skate">
</g>
<g id="Wooden_House">
</g>
<g id="Snowcapped_House">
</g>
<g id="Hot_Drink">
</g>
<g id="Hot_Chocolate">
</g>
<g id="Lantern">
</g>
<g id="Snow_Shovel">
</g>
<g id="Snowman">
</g>
<g id="Reindeer">
</g>
<g id="Snowmobile">
</g>
<g id="Snow_Chain">
	<g>
		<g>
			<path d="M14.961,24H9.039c-0.276,0-0.5-0.224-0.5-0.5s0.224-0.5,0.5-0.5h5.922c3.874,0,7.026-4.935,7.026-11S18.835,1,14.961,1
				H9.039c-0.276,0-0.5-0.224-0.5-0.5S8.763,0,9.039,0h5.922c4.426,0,8.026,5.383,8.026,12S19.387,24,14.961,24z"/>
		</g>
		<g>
			<path d="M9.039,24c-4.426,0-8.026-5.383-8.026-12S4.613,0,9.039,0c4.472,0,7.974,5.271,7.974,12S13.511,24,9.039,24z M9.039,1
				C5.165,1,2.013,5.935,2.013,12s3.152,11,7.026,11c3.846,0,6.974-4.935,6.974-11S12.885,1,9.039,1z"/>
		</g>
		<g>
			<path d="M9.025,19c-2.25,0-4.013-3.075-4.013-7s1.763-7,4.013-7c2.236,0,3.987,3.075,3.987,7S11.262,19,9.025,19z M9.025,6
				c-1.633,0-3.013,2.748-3.013,6s1.38,6,3.013,6c1.619,0,2.987-2.748,2.987-6S10.645,6,9.025,6z"/>
		</g>
		<g>
			<path d="M10.551,23.767c-0.225,0-0.429-0.151-0.485-0.379c-0.066-0.269,0.097-0.539,0.364-0.606l6.894-1.718l-2.983-0.572
				c-0.223-0.043-0.389-0.229-0.405-0.454s0.12-0.435,0.334-0.509l5.98-2.097l-4.201-1.979c-0.175-0.082-0.286-0.257-0.287-0.45
				c-0.001-0.192,0.109-0.369,0.283-0.452L21.336,12l-5.291-2.55c-0.174-0.084-0.284-0.26-0.283-0.452
				c0.001-0.193,0.112-0.368,0.287-0.45l4.218-1.982l-5.921-2.094c-0.212-0.075-0.348-0.283-0.332-0.507
				c0.017-0.225,0.181-0.411,0.401-0.455l2.834-0.566l-6.821-1.727c-0.268-0.067-0.43-0.339-0.361-0.607
				c0.066-0.267,0.329-0.432,0.607-0.361l8.962,2.268c0.227,0.057,0.383,0.264,0.377,0.497S19.84,3.444,19.61,3.49l-3.219,0.644
				l5.356,1.895c0.19,0.068,0.322,0.244,0.332,0.447c0.011,0.202-0.103,0.391-0.286,0.477l-4.369,2.054l5.279,2.544
				c0.173,0.083,0.283,0.258,0.283,0.45s-0.11,0.367-0.283,0.45l-5.281,2.545l4.356,2.053c0.184,0.086,0.297,0.275,0.286,0.478
				c-0.01,0.203-0.143,0.379-0.334,0.446l-5.382,1.887l3.391,0.65c0.23,0.044,0.399,0.243,0.406,0.478
				c0.006,0.234-0.151,0.442-0.379,0.499l-9.096,2.267C10.631,23.762,10.591,23.767,10.551,23.767z"/>
		</g>
		<g>
			<path d="M9.013,14c-0.737,0-1-1.033-1-2s0.263-2,1-2s1,1.033,1,2S9.75,14,9.013,14z"/>
		</g>
	</g>
</g>
<g id="Slippery_Road">
</g>
</svg>
