<?xml version="1.0" encoding="iso-8859-1"?>
<!-- Generator: Adobe Illustrator 19.2.1, SVG Export Plug-In . SVG Version: 6.00 Build 0)  -->
<svg version="1.1" xmlns="http://www.w3.org/2000/svg" xmlns:xlink="http://www.w3.org/1999/xlink" x="0px" y="0px"
	 viewBox="0 0 24 24" style="enable-background:new 0 0 24 24;" xml:space="preserve">
<g id="Snowflake_1">
</g>
<g id="Snowflake_2">
</g>
<g id="Snowflake_3">
	<g>
		<g>
			<path d="M11.5,21c-0.276,0-0.5-0.224-0.5-0.5v-18C11,2.224,11.224,2,11.5,2S12,2.224,12,2.5v18C12,20.776,11.776,21,11.5,21z"/>
		</g>
		<g>
			<path d="M20.5,12h-18C2.224,12,2,11.776,2,11.5S2.224,11,2.5,11h18c0.276,0,0.5,0.224,0.5,0.5S20.776,12,20.5,12z"/>
		</g>
		<g>
			<path d="M17.864,18.364c-0.128,0-0.256-0.049-0.354-0.146L4.783,5.49c-0.195-0.195-0.195-0.512,0-0.707s0.512-0.195,0.707,0
				L18.217,17.51c0.195,0.195,0.195,0.512,0,0.707C18.12,18.315,17.992,18.364,17.864,18.364z"/>
		</g>
		<g>
			<path d="M5.136,18.364c-0.128,0-0.256-0.049-0.354-0.146c-0.195-0.195-0.195-0.512,0-0.707L17.51,4.783
				c0.195-0.195,0.512-0.195,0.707,0s0.195,0.512,0,0.707L5.49,18.217C5.392,18.315,5.264,18.364,5.136,18.364z"/>
		</g>
		<g>
			<path d="M14.5,19c-0.066,0-0.132-0.013-0.195-0.04l-2.833-1.197l-2.774,1.196c-0.127,0.054-0.271,0.055-0.397,0
				c-0.127-0.055-0.225-0.16-0.271-0.29l-0.985-2.751l-2.708-0.945c-0.13-0.045-0.236-0.143-0.292-0.27
				c-0.056-0.126-0.057-0.27-0.003-0.397l1.197-2.833L4.041,8.698c-0.055-0.126-0.055-0.271,0-0.397
				c0.055-0.127,0.16-0.225,0.29-0.271l2.751-0.985l0.945-2.708c0.045-0.13,0.143-0.236,0.27-0.292s0.27-0.057,0.397-0.003
				l2.833,1.197l2.774-1.196c0.126-0.055,0.27-0.056,0.397,0c0.127,0.055,0.225,0.16,0.271,0.29l0.985,2.751l2.708,0.945
				c0.13,0.045,0.236,0.143,0.292,0.27c0.056,0.126,0.057,0.27,0.003,0.397l-1.197,2.833l1.196,2.774
				c0.055,0.126,0.055,0.271,0,0.397c-0.055,0.127-0.16,0.225-0.29,0.271l-2.751,0.985l-0.945,2.708
				c-0.045,0.13-0.143,0.236-0.27,0.292C14.638,18.986,14.569,19,14.5,19z M11.47,16.72c0.066,0,0.132,0.013,0.195,0.04l2.539,1.073
				l0.848-2.431c0.05-0.143,0.162-0.255,0.304-0.306l2.475-0.886l-1.069-2.481c-0.054-0.125-0.055-0.267-0.001-0.393l1.073-2.539
				l-2.431-0.848c-0.143-0.05-0.255-0.162-0.306-0.304L14.209,5.17l-2.481,1.069c-0.125,0.054-0.267,0.054-0.393,0.001L8.796,5.168
				L7.949,7.599c-0.05,0.143-0.162,0.255-0.304,0.306L5.17,8.791l1.069,2.481c0.054,0.125,0.055,0.267,0.001,0.393l-1.073,2.539
				l2.431,0.848c0.143,0.05,0.255,0.162,0.306,0.304l0.886,2.475l2.481-1.069C11.335,16.733,11.403,16.72,11.47,16.72z"/>
		</g>
		<g>
			<path d="M11.5,3C10.122,3,9,1.878,9,0.5C9,0.224,9.224,0,9.5,0S10,0.224,10,0.5C10,1.327,10.673,2,11.5,2S13,1.327,13,0.5
				C13,0.224,13.224,0,13.5,0S14,0.224,14,0.5C14,1.878,12.878,3,11.5,3z"/>
		</g>
		<g>
			<path d="M13.5,23c-0.276,0-0.5-0.224-0.5-0.5c0-0.827-0.673-1.5-1.5-1.5S10,21.673,10,22.5c0,0.276-0.224,0.5-0.5,0.5
				S9,22.776,9,22.5c0-1.378,1.122-2.5,2.5-2.5s2.5,1.122,2.5,2.5C14,22.776,13.776,23,13.5,23z"/>
		</g>
		<g>
			<path d="M0.5,14C0.224,14,0,13.776,0,13.5S0.224,13,0.5,13C1.327,13,2,12.327,2,11.5S1.327,10,0.5,10C0.224,10,0,9.776,0,9.5
				S0.224,9,0.5,9C1.878,9,3,10.122,3,11.5S1.878,14,0.5,14z"/>
		</g>
		<g>
			<path d="M22.5,14c-1.378,0-2.5-1.122-2.5-2.5S21.122,9,22.5,9C22.776,9,23,9.224,23,9.5S22.776,10,22.5,10
				c-0.827,0-1.5,0.673-1.5,1.5s0.673,1.5,1.5,1.5c0.276,0,0.5,0.224,0.5,0.5S22.776,14,22.5,14z"/>
		</g>
		<g>
			<path d="M3.722,6.221c-0.64,0-1.28-0.244-1.768-0.731c-0.195-0.195-0.195-0.512,0-0.707s0.512-0.195,0.707,0
				c0.584,0.584,1.536,0.584,2.122,0c0.584-0.585,0.584-1.537,0-2.122c-0.195-0.195-0.195-0.512,0-0.707
				c0.195-0.195,0.512-0.195,0.707,0c0.974,0.975,0.974,2.561,0,3.536C5.002,5.977,4.362,6.22,3.722,6.221z"/>
		</g>
		<g>
			<path d="M17.864,21.192c-0.128,0-0.256-0.049-0.354-0.146c-0.974-0.975-0.974-2.561,0-3.536s2.561-0.975,3.536,0
				c0.195,0.195,0.195,0.512,0,0.707s-0.512,0.195-0.707,0c-0.585-0.583-1.537-0.584-2.122,0c-0.584,0.585-0.584,1.537,0,2.122
				c0.195,0.195,0.195,0.512,0,0.707C18.12,21.144,17.992,21.192,17.864,21.192z"/>
		</g>
		<g>
			<path d="M5.136,21.192c-0.128,0-0.256-0.049-0.354-0.146c-0.195-0.195-0.195-0.512,0-0.707c0.584-0.585,0.584-1.537,0-2.122
				c-0.585-0.584-1.537-0.583-2.122,0c-0.195,0.195-0.512,0.195-0.707,0s-0.195-0.512,0-0.707c0.975-0.975,2.561-0.975,3.536,0
				c0.974,0.975,0.974,2.561,0,3.536C5.392,21.144,5.264,21.192,5.136,21.192z"/>
		</g>
		<g>
			<path d="M19.278,6.221c-0.64,0-1.28-0.244-1.768-0.731c-0.974-0.975-0.974-2.561,0-3.536c0.195-0.195,0.512-0.195,0.707,0
				c0.195,0.195,0.195,0.512,0,0.707c-0.584,0.585-0.584,1.537,0,2.122c0.585,0.584,1.537,0.584,2.122,0
				c0.195-0.195,0.512-0.195,0.707,0s0.195,0.512,0,0.707C20.559,5.977,19.918,6.221,19.278,6.221z"/>
		</g>
	</g>
</g>
<g id="Snowflake_4">
</g>
<g id="Winter_Cap_1">
</g>
<g id="Winter_Cap_2">
</g>
<g id="Glowes">
</g>
<g id="Sweater_1">
</g>
<g id="Sweater_2">
</g>
<g id="Sweater_3">
</g>
<g id="Scarf">
</g>
<g id="Winter_Socks">
</g>
<g id="Winter_Sock">
</g>
<g id="Winter_Coat">
</g>
<g id="Winter_Calendar">
</g>
<g id="Thermometer_1">
</g>
<g id="Thermometer_2">
</g>
<g id="Cold">
</g>
<g id="Icicle">
</g>
<g id="Snowing">
</g>
<g id="Snow_Shoes_1">
</g>
<g id="Snow_Shoes_2">
</g>
<g id="Sledge">
</g>
<g id="Snow_Boots">
</g>
<g id="Snowcapped_Mountains">
</g>
<g id="Skis">
</g>
<g id="Sky_Glasses">
</g>
<g id="Snowboard">
</g>
<g id="Ice_Skate">
</g>
<g id="Wooden_House">
</g>
<g id="Snowcapped_House">
</g>
<g id="Hot_Drink">
</g>
<g id="Hot_Chocolate">
</g>
<g id="Lantern">
</g>
<g id="Snow_Shovel">
</g>
<g id="Snowman">
</g>
<g id="Reindeer">
</g>
<g id="Snowmobile">
</g>
<g id="Snow_Chain">
</g>
<g id="Slippery_Road">
</g>
</svg>
