<?xml version="1.0" encoding="iso-8859-1"?>
<!-- Generator: Adobe Illustrator 19.2.1, SVG Export Plug-In . SVG Version: 6.00 Build 0)  -->
<svg version="1.1" xmlns="http://www.w3.org/2000/svg" xmlns:xlink="http://www.w3.org/1999/xlink" x="0px" y="0px"
	 viewBox="0 0 24 24" style="enable-background:new 0 0 24 24;" xml:space="preserve">
<g id="Snowflake_1">
</g>
<g id="Snowflake_2">
</g>
<g id="Snowflake_3">
</g>
<g id="Snowflake_4">
</g>
<g id="Winter_Cap_1">
</g>
<g id="Winter_Cap_2">
</g>
<g id="Glowes">
</g>
<g id="Sweater_1">
</g>
<g id="Sweater_2">
</g>
<g id="Sweater_3">
</g>
<g id="Scarf">
</g>
<g id="Winter_Socks">
</g>
<g id="Winter_Sock">
</g>
<g id="Winter_Coat">
</g>
<g id="Winter_Calendar">
</g>
<g id="Thermometer_1">
</g>
<g id="Thermometer_2">
</g>
<g id="Cold">
</g>
<g id="Icicle">
</g>
<g id="Snowing">
</g>
<g id="Snow_Shoes_1">
</g>
<g id="Snow_Shoes_2">
</g>
<g id="Sledge">
</g>
<g id="Snow_Boots">
</g>
<g id="Snowcapped_Mountains">
</g>
<g id="Skis">
</g>
<g id="Sky_Glasses">
</g>
<g id="Snowboard">
	<g>
		<g>
			<path d="M19.95,23.983c-1.033,0-2.066-0.393-2.854-1.18c-0.075-0.089-4.045-5.01-7.465-8.43C5.218,9.96,1.287,6.979,1.248,6.949
				C-0.377,5.33-0.377,2.77,1.196,1.196c1.574-1.574,4.133-1.574,5.707,0c0.077,0.091,4.034,5.034,7.453,8.453
				c4.409,4.409,8.354,7.371,8.394,7.4c1.627,1.62,1.627,4.181,0.054,5.754C22.017,23.591,20.983,23.983,19.95,23.983z M1.903,6.196
				c0.008,0,3.984,3.02,8.436,7.471c3.459,3.458,7.461,8.42,7.501,8.47c1.147,1.144,3.074,1.143,4.257-0.04
				c1.184-1.184,1.184-3.109,0-4.293l0,0c-0.008,0-3.997-2.997-8.447-7.447c-3.459-3.459-7.45-8.444-7.49-8.494
				C5.014,0.72,3.086,0.722,1.903,1.903C0.72,3.087,0.72,5.013,1.903,6.196L1.903,6.196z"/>
		</g>
		<g>
			<path d="M7.362,10.999c-0.387,0-0.728-0.121-0.979-0.373C5.656,9.898,6.021,8.438,7.229,7.229
				c1.208-1.206,2.67-1.573,3.397-0.846C11.353,7.11,10.988,8.571,9.78,9.78l0,0C8.99,10.569,8.093,10.999,7.362,10.999z
				 M9.648,7.007c-0.389,0-1.066,0.283-1.713,0.929C7.086,8.786,6.864,9.692,7.09,9.919c0.229,0.228,1.134,0.003,1.983-0.846
				c0.85-0.851,1.071-1.757,0.846-1.983C9.864,7.035,9.771,7.007,9.648,7.007z M9.427,9.427h0.01H9.427z"/>
		</g>
		<g>
			<path d="M14.362,18.004c-0.393,0-0.728-0.126-0.975-0.374c-0.385-0.384-0.477-0.979-0.258-1.673
				c0.184-0.583,0.575-1.195,1.104-1.724s1.141-0.92,1.724-1.104c0.694-0.22,1.289-0.127,1.673,0.258
				c0.385,0.384,0.477,0.979,0.258,1.673c-0.184,0.583-0.575,1.195-1.104,1.724s-1.141,0.92-1.724,1.104
				C14.813,17.966,14.579,18.004,14.362,18.004z M16.651,14.016c-0.113,0-0.249,0.022-0.395,0.068
				c-0.426,0.134-0.906,0.446-1.316,0.856s-0.723,0.891-0.856,1.316c-0.096,0.303-0.091,0.564,0.011,0.666
				c0.101,0.101,0.363,0.105,0.666,0.011c0.426-0.134,0.906-0.446,1.316-0.856s0.723-0.891,0.856-1.316
				c0.096-0.303,0.091-0.564-0.011-0.666C16.87,14.042,16.773,14.016,16.651,14.016z"/>
		</g>
	</g>
</g>
<g id="Ice_Skate">
</g>
<g id="Wooden_House">
</g>
<g id="Snowcapped_House">
</g>
<g id="Hot_Drink">
</g>
<g id="Hot_Chocolate">
</g>
<g id="Lantern">
</g>
<g id="Snow_Shovel">
</g>
<g id="Snowman">
</g>
<g id="Reindeer">
</g>
<g id="Snowmobile">
</g>
<g id="Snow_Chain">
</g>
<g id="Slippery_Road">
</g>
</svg>
