<?xml version="1.0" encoding="iso-8859-1"?>
<!-- Generator: Adobe Illustrator 19.2.1, SVG Export Plug-In . SVG Version: 6.00 Build 0)  -->
<svg version="1.1" xmlns="http://www.w3.org/2000/svg" xmlns:xlink="http://www.w3.org/1999/xlink" x="0px" y="0px"
	 viewBox="0 0 24 24" style="enable-background:new 0 0 24 24;" xml:space="preserve">
<g id="Snowflake_1">
</g>
<g id="Snowflake_2">
</g>
<g id="Snowflake_3">
</g>
<g id="Snowflake_4">
</g>
<g id="Winter_Cap_1">
</g>
<g id="Winter_Cap_2">
</g>
<g id="Glowes">
</g>
<g id="Sweater_1">
</g>
<g id="Sweater_2">
</g>
<g id="Sweater_3">
</g>
<g id="Scarf">
</g>
<g id="Winter_Socks">
</g>
<g id="Winter_Sock">
</g>
<g id="Winter_Coat">
</g>
<g id="Winter_Calendar">
</g>
<g id="Thermometer_1">
</g>
<g id="Thermometer_2">
</g>
<g id="Cold">
</g>
<g id="Icicle">
</g>
<g id="Snowing">
</g>
<g id="Snow_Shoes_1">
</g>
<g id="Snow_Shoes_2">
	<g>
		<g>
			<path d="M6.5,18c-0.155,0-0.301-0.071-0.396-0.194C5.937,17.589,2,12.45,2,8c0-3.863,1.808-8,4.5-8S11,4.137,11,8
				c0,4.45-3.937,9.589-4.104,9.806C6.801,17.929,6.655,18,6.5,18z M6.5,1C4.668,1,3,4.337,3,8c0,3.312,2.509,7.229,3.5,8.648
				C7.491,15.229,10,11.312,10,8C10,4.337,8.332,1,6.5,1z"/>
		</g>
		<g>
			<path d="M6.5,24C6.224,24,6,23.776,6,23.5v-6C6,17.224,6.224,17,6.5,17S7,17.224,7,17.5v6C7,23.776,6.776,24,6.5,24z"/>
		</g>
		<g>
			<path d="M10.5,8c-0.128,0-0.256-0.049-0.354-0.146L4.178,1.886c-0.195-0.195-0.195-0.512,0-0.707s0.512-0.195,0.707,0
				l5.968,5.968c0.195,0.195,0.195,0.512,0,0.707C10.756,7.951,10.628,8,10.5,8z"/>
		</g>
		<g>
			<path d="M2.5,8C2.372,8,2.244,7.951,2.146,7.854c-0.195-0.195-0.195-0.512,0-0.707L8.123,1.17c0.195-0.195,0.512-0.195,0.707,0
				s0.195,0.512,0,0.707L2.854,7.854C2.756,7.951,2.628,8,2.5,8z"/>
		</g>
		<g>
			<path d="M9.727,12.228c-0.128,0-0.256-0.049-0.354-0.146L6.99,9.697c-0.195-0.195-0.195-0.512,0-0.707s0.512-0.195,0.707,0
				l2.383,2.384c0.195,0.195,0.195,0.512,0,0.707C9.983,12.179,9.855,12.228,9.727,12.228z"/>
		</g>
		<g>
			<path d="M5,7.501c-0.128,0-0.256-0.049-0.354-0.146L2.536,5.243c-0.195-0.195-0.195-0.512,0-0.707s0.512-0.195,0.707,0
				l2.111,2.111c0.195,0.195,0.195,0.512,0,0.707C5.256,7.452,5.128,7.501,5,7.501z"/>
		</g>
		<g>
			<path d="M3.271,12.229c-0.128,0-0.256-0.049-0.354-0.146c-0.195-0.195-0.195-0.512,0-0.707l2.199-2.199
				c0.195-0.195,0.512-0.195,0.707,0s0.195,0.512,0,0.707l-2.199,2.199C3.526,12.181,3.398,12.229,3.271,12.229z"/>
		</g>
		<g>
			<path d="M8,7.499c-0.128,0-0.256-0.049-0.354-0.146c-0.195-0.195-0.195-0.512,0-0.707L9.76,4.533
				c0.195-0.195,0.512-0.195,0.707,0s0.195,0.512,0,0.707L8.354,7.353C8.256,7.45,8.128,7.499,8,7.499z"/>
		</g>
		<g>
			<path d="M8.098,15.598c-0.128,0-0.256-0.049-0.354-0.146L2.31,10.018c-0.195-0.195-0.195-0.512,0-0.707s0.512-0.195,0.707,0
				l5.434,5.434c0.195,0.195,0.195,0.512,0,0.707C8.354,15.549,8.226,15.598,8.098,15.598z"/>
		</g>
		<g>
			<path d="M4.906,15.594c-0.128,0-0.256-0.049-0.354-0.146c-0.195-0.195-0.195-0.512,0-0.707l5.419-5.419
				c0.195-0.195,0.512-0.195,0.707,0s0.195,0.512,0,0.707L5.26,15.447C5.162,15.545,5.034,15.594,4.906,15.594z"/>
		</g>
		<g>
			<path d="M6.501,12c-0.451,0-1.032-0.198-1.238-1.144l-0.144-0.639C4.893,9.217,4.582,7.845,4.503,7.049
				C4.454,6.551,4.62,6.063,4.97,5.677C5.354,5.253,5.926,5,6.501,5c1.103,0,2,0.897,2,2c0,0.465-0.136,0.784-0.28,1.121
				c-0.209,0.491-0.47,1.102-0.47,2.629C7.751,11.439,7.19,12,6.501,12z M6.501,6c-0.297,0-0.592,0.13-0.79,0.348
				c-0.112,0.124-0.24,0.329-0.213,0.604c0.073,0.733,0.375,2.07,0.596,3.046l0.145,0.646C6.317,11,6.398,11,6.501,11
				c0.138,0,0.25-0.112,0.25-0.25c0-1.731,0.318-2.477,0.55-3.021c0.125-0.291,0.2-0.468,0.2-0.729C7.501,6.448,7.052,6,6.501,6z"/>
		</g>
		<g>
			<path d="M17.5,18c-0.155,0-0.301-0.071-0.396-0.194C16.937,17.589,13,12.45,13,8c0-3.863,1.808-8,4.5-8S22,4.137,22,8
				c0,4.45-3.937,9.589-4.104,9.806C17.801,17.929,17.655,18,17.5,18z M17.5,1C15.668,1,14,4.337,14,8
				c0,3.312,2.509,7.229,3.5,8.648C18.491,15.229,21,11.312,21,8C21,4.337,19.332,1,17.5,1z"/>
		</g>
		<g>
			<path d="M17.5,24c-0.276,0-0.5-0.224-0.5-0.5v-6c0-0.276,0.224-0.5,0.5-0.5s0.5,0.224,0.5,0.5v6C18,23.776,17.776,24,17.5,24z"/>
		</g>
		<g>
			<path d="M13.5,8c-0.128,0-0.256-0.049-0.354-0.146c-0.195-0.195-0.195-0.512,0-0.707l5.968-5.968
				c0.195-0.195,0.512-0.195,0.707,0s0.195,0.512,0,0.707l-5.968,5.968C13.756,7.951,13.628,8,13.5,8z"/>
		</g>
		<g>
			<path d="M21.5,8c-0.128,0-0.256-0.049-0.354-0.146L15.17,1.877c-0.195-0.195-0.195-0.512,0-0.707s0.512-0.195,0.707,0
				l5.976,5.977c0.195,0.195,0.195,0.512,0,0.707C21.756,7.951,21.628,8,21.5,8z"/>
		</g>
		<g>
			<path d="M14.273,12.228c-0.128,0-0.256-0.049-0.354-0.146c-0.195-0.195-0.195-0.512,0-0.707l2.383-2.384
				c0.195-0.195,0.512-0.195,0.707,0s0.195,0.512,0,0.707l-2.383,2.384C14.529,12.179,14.401,12.228,14.273,12.228z"/>
		</g>
		<g>
			<path d="M19,7.501c-0.128,0-0.256-0.049-0.354-0.146c-0.195-0.195-0.195-0.512,0-0.707l2.111-2.111
				c0.195-0.195,0.512-0.195,0.707,0s0.195,0.512,0,0.707l-2.111,2.111C19.255,7.452,19.127,7.501,19,7.501z"/>
		</g>
		<g>
			<path d="M20.729,12.229c-0.128,0-0.256-0.049-0.354-0.146l-2.199-2.199c-0.195-0.195-0.195-0.512,0-0.707s0.512-0.195,0.707,0
				l2.199,2.199c0.195,0.195,0.195,0.512,0,0.707C20.985,12.181,20.857,12.229,20.729,12.229z"/>
		</g>
		<g>
			<path d="M16,7.499c-0.128,0-0.256-0.049-0.354-0.146L13.533,5.24c-0.195-0.195-0.195-0.512,0-0.707s0.512-0.195,0.707,0
				l2.113,2.112c0.195,0.195,0.195,0.512,0,0.707C16.255,7.45,16.127,7.499,16,7.499z"/>
		</g>
		<g>
			<path d="M15.902,15.598c-0.128,0-0.256-0.049-0.354-0.146c-0.195-0.195-0.195-0.512,0-0.707l5.434-5.434
				c0.195-0.195,0.512-0.195,0.707,0s0.195,0.512,0,0.707l-5.434,5.434C16.158,15.549,16.03,15.598,15.902,15.598z"/>
		</g>
		<g>
			<path d="M19.094,15.594c-0.128,0-0.256-0.049-0.354-0.146l-5.419-5.419c-0.195-0.195-0.195-0.512,0-0.707s0.512-0.195,0.707,0
				l5.419,5.419c0.195,0.195,0.195,0.512,0,0.707C19.35,15.545,19.222,15.594,19.094,15.594z"/>
		</g>
		<g>
			<path d="M17.499,12c-0.689,0-1.25-0.561-1.25-1.25c0-1.527-0.261-2.138-0.47-2.629c-0.144-0.337-0.28-0.656-0.28-1.121
				c0-1.103,0.897-2,2-2c0.575,0,1.147,0.253,1.531,0.677c0.35,0.387,0.516,0.874,0.467,1.372c-0.079,0.796-0.389,2.168-0.616,3.169
				l-0.144,0.639C18.531,11.802,17.95,12,17.499,12z M17.499,6c-0.551,0-1,0.448-1,1c0,0.261,0.075,0.438,0.2,0.729
				c0.232,0.545,0.55,1.29,0.55,3.021c0,0.138,0.112,0.25,0.25,0.25c0.103,0,0.184,0,0.262-0.356l0.145-0.646
				c0.221-0.976,0.523-2.313,0.596-3.046c0.027-0.274-0.101-0.479-0.213-0.604C18.091,6.13,17.796,6,17.499,6z"/>
		</g>
	</g>
</g>
<g id="Sledge">
</g>
<g id="Snow_Boots">
</g>
<g id="Snowcapped_Mountains">
</g>
<g id="Skis">
</g>
<g id="Sky_Glasses">
</g>
<g id="Snowboard">
</g>
<g id="Ice_Skate">
</g>
<g id="Wooden_House">
</g>
<g id="Snowcapped_House">
</g>
<g id="Hot_Drink">
</g>
<g id="Hot_Chocolate">
</g>
<g id="Lantern">
</g>
<g id="Snow_Shovel">
</g>
<g id="Snowman">
</g>
<g id="Reindeer">
</g>
<g id="Snowmobile">
</g>
<g id="Snow_Chain">
</g>
<g id="Slippery_Road">
</g>
</svg>
