<?xml version="1.0" encoding="iso-8859-1"?>
<!-- Generator: Adobe Illustrator 19.2.1, SVG Export Plug-In . SVG Version: 6.00 Build 0)  -->
<svg version="1.1" xmlns="http://www.w3.org/2000/svg" xmlns:xlink="http://www.w3.org/1999/xlink" x="0px" y="0px"
	 viewBox="0 0 24 24" style="enable-background:new 0 0 24 24;" xml:space="preserve">
<g id="Snowflake_1">
	<g>
		<g>
			<path d="M11.5,24c-0.276,0-0.5-0.224-0.5-0.5v-23C11,0.224,11.224,0,11.5,0S12,0.224,12,0.5v23C12,23.776,11.776,24,11.5,24z"/>
		</g>
		<g>
			<path d="M21.5,18c-0.082,0-0.164-0.02-0.24-0.062l-20-11C1.017,6.805,0.929,6.501,1.062,6.259C1.195,6.017,1.5,5.929,1.741,6.062
				l20,11c0.242,0.133,0.331,0.437,0.197,0.679C21.847,17.906,21.676,18,21.5,18z"/>
		</g>
		<g>
			<path d="M1.5,18c-0.176,0-0.348-0.093-0.438-0.259c-0.133-0.242-0.045-0.546,0.197-0.679l20-11
				c0.24-0.133,0.546-0.045,0.679,0.197c0.133,0.242,0.045,0.546-0.197,0.679l-20,11C1.665,17.98,1.582,18,1.5,18z"/>
		</g>
		<g>
			<path d="M11.5,6c-0.128,0-0.256-0.049-0.354-0.146l-4-4c-0.195-0.195-0.195-0.512,0-0.707s0.512-0.195,0.707,0L11.5,4.793
				l3.646-3.646c0.195-0.195,0.512-0.195,0.707,0s0.195,0.512,0,0.707l-4,4C11.756,5.951,11.628,6,11.5,6z"/>
		</g>
		<g>
			<path d="M15.5,23c-0.128,0-0.256-0.049-0.354-0.146L11.5,19.207l-3.646,3.646c-0.195,0.195-0.512,0.195-0.707,0
				s-0.195-0.512,0-0.707l4-4c0.195-0.195,0.512-0.195,0.707,0l4,4c0.195,0.195,0.195,0.512,0,0.707
				C15.756,22.951,15.628,23,15.5,23z"/>
		</g>
		<g>
			<path d="M22.5,11c-0.049,0-0.099-0.007-0.148-0.022l-5.31-1.642c-0.26-0.081-0.408-0.354-0.333-0.616l1.568-5.436
				c0.077-0.265,0.352-0.417,0.619-0.342c0.265,0.077,0.418,0.354,0.342,0.619l-1.432,4.964l4.842,1.497
				c0.264,0.082,0.411,0.361,0.33,0.625C22.911,10.862,22.713,11,22.5,11z"/>
		</g>
		<g>
			<path d="M4.242,21.078c-0.046,0-0.092-0.006-0.139-0.02c-0.265-0.077-0.418-0.354-0.342-0.619l1.432-4.964l-4.842-1.497
				c-0.264-0.082-0.411-0.361-0.33-0.625c0.082-0.263,0.362-0.412,0.625-0.33l5.31,1.642c0.26,0.081,0.408,0.354,0.333,0.616
				l-1.568,5.436C4.66,20.935,4.459,21.078,4.242,21.078z"/>
		</g>
		<g>
			<path d="M0.5,11c-0.214,0-0.411-0.138-0.478-0.352c-0.082-0.264,0.066-0.544,0.33-0.625l4.842-1.497L3.762,3.561
				C3.685,3.295,3.838,3.019,4.104,2.942c0.27-0.074,0.542,0.078,0.619,0.342l1.568,5.436c0.076,0.262-0.072,0.536-0.333,0.616
				l-5.31,1.642C0.599,10.993,0.549,11,0.5,11z"/>
		</g>
		<g>
			<path d="M18.758,21.078c-0.217,0-0.417-0.143-0.48-0.361l-1.568-5.436c-0.076-0.262,0.072-0.536,0.333-0.616l5.31-1.642
				c0.265-0.082,0.544,0.066,0.625,0.33c0.082,0.264-0.066,0.544-0.33,0.625l-4.842,1.497l1.432,4.964
				c0.077,0.266-0.077,0.542-0.342,0.619C18.85,21.071,18.803,21.078,18.758,21.078z"/>
		</g>
	</g>
</g>
<g id="Snowflake_2">
</g>
<g id="Snowflake_3">
</g>
<g id="Snowflake_4">
</g>
<g id="Winter_Cap_1">
</g>
<g id="Winter_Cap_2">
</g>
<g id="Glowes">
</g>
<g id="Sweater_1">
</g>
<g id="Sweater_2">
</g>
<g id="Sweater_3">
</g>
<g id="Scarf">
</g>
<g id="Winter_Socks">
</g>
<g id="Winter_Sock">
</g>
<g id="Winter_Coat">
</g>
<g id="Winter_Calendar">
</g>
<g id="Thermometer_1">
</g>
<g id="Thermometer_2">
</g>
<g id="Cold">
</g>
<g id="Icicle">
</g>
<g id="Snowing">
</g>
<g id="Snow_Shoes_1">
</g>
<g id="Snow_Shoes_2">
</g>
<g id="Sledge">
</g>
<g id="Snow_Boots">
</g>
<g id="Snowcapped_Mountains">
</g>
<g id="Skis">
</g>
<g id="Sky_Glasses">
</g>
<g id="Snowboard">
</g>
<g id="Ice_Skate">
</g>
<g id="Wooden_House">
</g>
<g id="Snowcapped_House">
</g>
<g id="Hot_Drink">
</g>
<g id="Hot_Chocolate">
</g>
<g id="Lantern">
</g>
<g id="Snow_Shovel">
</g>
<g id="Snowman">
</g>
<g id="Reindeer">
</g>
<g id="Snowmobile">
</g>
<g id="Snow_Chain">
</g>
<g id="Slippery_Road">
</g>
</svg>
