<?xml version="1.0" encoding="iso-8859-1"?>
<!-- Generator: Adobe Illustrator 19.2.1, SVG Export Plug-In . SVG Version: 6.00 Build 0)  -->
<svg version="1.1" xmlns="http://www.w3.org/2000/svg" xmlns:xlink="http://www.w3.org/1999/xlink" x="0px" y="0px"
	 viewBox="0 0 24 24" style="enable-background:new 0 0 24 24;" xml:space="preserve">
<g id="Snowflake_1">
</g>
<g id="Snowflake_2">
</g>
<g id="Snowflake_3">
</g>
<g id="Snowflake_4">
</g>
<g id="Winter_Cap_1">
</g>
<g id="Winter_Cap_2">
</g>
<g id="Glowes">
</g>
<g id="Sweater_1">
</g>
<g id="Sweater_2">
</g>
<g id="Sweater_3">
</g>
<g id="Scarf">
</g>
<g id="Winter_Socks">
</g>
<g id="Winter_Sock">
</g>
<g id="Winter_Coat">
</g>
<g id="Winter_Calendar">
</g>
<g id="Thermometer_1">
</g>
<g id="Thermometer_2">
</g>
<g id="Cold">
</g>
<g id="Icicle">
</g>
<g id="Snowing">
</g>
<g id="Snow_Shoes_1">
</g>
<g id="Snow_Shoes_2">
</g>
<g id="Sledge">
</g>
<g id="Snow_Boots">
</g>
<g id="Snowcapped_Mountains">
</g>
<g id="Skis">
</g>
<g id="Sky_Glasses">
</g>
<g id="Snowboard">
</g>
<g id="Ice_Skate">
</g>
<g id="Wooden_House">
</g>
<g id="Snowcapped_House">
	<g>
		<path d="M22.964,15.007c-0.379,0-0.661-0.318-1.261-1.099c-0.112-0.146-0.205-0.271-0.258-0.324
			c-0.221-0.21-0.454-0.248-0.775-0.301c-0.383-0.063-0.859-0.142-1.306-0.567c-0.342-0.325-0.674-0.928-1.025-1.564
			c-0.284-0.517-0.606-1.103-0.837-1.322c-0.031-0.029-0.034-0.032-0.196-0.033c-0.42-0.004-0.884-0.058-1.539-0.655
			c-0.492-0.449-0.726-0.981-0.932-1.451c-0.213-0.485-0.398-0.905-0.833-1.185c-0.018,0.002-0.126,0.066-0.205,0.113
			c-0.279,0.168-0.701,0.421-1.357,0.421c-0.689,0-0.956-0.646-1.133-1.074c-0.063-0.153-0.18-0.437-0.255-0.484
			c-0.251,0.106-0.629,0.855-0.833,1.258C9.96,7.25,9.737,7.691,9.47,7.946C9.088,8.31,8.57,8.53,8.069,8.744
			C7.63,8.931,7.216,9.107,6.965,9.347c-0.18,0.171-0.345,0.974-0.416,1.316C6.524,10.79,6.5,10.904,6.479,10.998
			c-0.278,1.172-1.283,1-1.711,0.927c-0.136-0.022-0.363-0.062-0.426-0.036c-0.358,0.218-0.855,0.889-1.294,1.479
			c-0.756,1.018-1.211,1.594-1.768,1.594c-0.482,0-1.29-0.213-1.29-1.641c0-0.554,0.084-1.563,0.651-2.102l10.306-9.807
			c0.579-0.553,1.488-0.555,2.069,0.001l10.5,9.999c0.593,0.564,0.515,1.378,0.463,1.917C23.917,13.957,23.817,15.007,22.964,15.007
			z M23.134,14.048h0.01H23.134z M11.98,1.999c-0.124,0-0.248,0.046-0.344,0.138L1.329,11.944c-0.207,0.196-0.34,0.737-0.34,1.377
			c0,0.641,0.161,0.641,0.29,0.641c0.137-0.075,0.635-0.746,0.964-1.189c0.518-0.697,1.053-1.418,1.582-1.74
			c0.362-0.22,0.778-0.149,1.11-0.093c0.507,0.087,0.51,0.076,0.57-0.172l0.065-0.306c0.164-0.795,0.329-1.481,0.706-1.84
			c0.382-0.363,0.9-0.584,1.401-0.798C8.116,7.638,8.53,7.461,8.781,7.222c0.142-0.135,0.366-0.578,0.545-0.935
			c0.399-0.789,0.776-1.535,1.354-1.732c0.981-0.34,1.368,0.584,1.551,1.027C12.295,5.738,12.403,6,12.473,6.05
			c0.346-0.011,0.571-0.146,0.81-0.289c0.291-0.174,0.729-0.438,1.258-0.098c0.691,0.442,0.966,1.07,1.21,1.624
			c0.183,0.416,0.355,0.809,0.691,1.115c0.426,0.39,0.634,0.392,0.874,0.394c0.222,0.002,0.556,0.005,0.876,0.31
			c0.342,0.326,0.673,0.927,1.023,1.563c0.285,0.518,0.608,1.104,0.839,1.323c0.223,0.213,0.456,0.251,0.777,0.304
			c0.383,0.063,0.858,0.141,1.304,0.565c0.07,0.067,0.204,0.235,0.36,0.438c0.1,0.13,0.264,0.344,0.407,0.512
			c0.026-0.127,0.054-0.311,0.08-0.576c0.047-0.492,0.065-0.885-0.157-1.097l-10.5-10C12.228,2.045,12.104,1.999,11.98,1.999z"/>
	</g>
	<g>
		<path d="M21.479,23.001h-19c-0.276,0-0.5-0.224-0.5-0.5v-9c0-0.276,0.224-0.5,0.5-0.5s0.5,0.224,0.5,0.5v8.5h18v-9
			c0-0.276,0.224-0.5,0.5-0.5s0.5,0.224,0.5,0.5v9.5C21.979,22.777,21.756,23.001,21.479,23.001z"/>
	</g>
	<g>
		<path d="M18.511,23.001h-5c-0.276,0-0.5-0.224-0.5-0.5v-8c0-0.276,0.224-0.5,0.5-0.5h5c0.276,0,0.5,0.224,0.5,0.5v8
			C19.011,22.777,18.788,23.001,18.511,23.001z M14.011,22.001h4v-7h-4V22.001z"/>
	</g>
	<g>
		<path d="M10.511,19.001h-5c-0.276,0-0.5-0.224-0.5-0.5v-4c0-0.276,0.224-0.5,0.5-0.5h5c0.276,0,0.5,0.224,0.5,0.5v4
			C11.011,18.777,10.788,19.001,10.511,19.001z M6.011,18.001h4v-3h-4V18.001z"/>
	</g>
</g>
<g id="Hot_Drink">
</g>
<g id="Hot_Chocolate">
</g>
<g id="Lantern">
</g>
<g id="Snow_Shovel">
</g>
<g id="Snowman">
</g>
<g id="Reindeer">
</g>
<g id="Snowmobile">
</g>
<g id="Snow_Chain">
</g>
<g id="Slippery_Road">
</g>
</svg>
