<?xml version="1.0" encoding="iso-8859-1"?>
<!-- Generator: Adobe Illustrator 19.2.1, SVG Export Plug-In . SVG Version: 6.00 Build 0)  -->
<svg version="1.1" xmlns="http://www.w3.org/2000/svg" xmlns:xlink="http://www.w3.org/1999/xlink" x="0px" y="0px"
	 viewBox="0 0 24 24" style="enable-background:new 0 0 24 24;" xml:space="preserve">
<g id="Snowflake_1">
</g>
<g id="Snowflake_2">
</g>
<g id="Snowflake_3">
</g>
<g id="Snowflake_4">
</g>
<g id="Winter_Cap_1">
</g>
<g id="Winter_Cap_2">
</g>
<g id="Glowes">
</g>
<g id="Sweater_1">
</g>
<g id="Sweater_2">
</g>
<g id="Sweater_3">
</g>
<g id="Scarf">
</g>
<g id="Winter_Socks">
</g>
<g id="Winter_Sock">
</g>
<g id="Winter_Coat">
</g>
<g id="Winter_Calendar">
</g>
<g id="Thermometer_1">
</g>
<g id="Thermometer_2">
</g>
<g id="Cold">
</g>
<g id="Icicle">
</g>
<g id="Snowing">
</g>
<g id="Snow_Shoes_1">
</g>
<g id="Snow_Shoes_2">
</g>
<g id="Sledge">
</g>
<g id="Snow_Boots">
</g>
<g id="Snowcapped_Mountains">
</g>
<g id="Skis">
</g>
<g id="Sky_Glasses">
</g>
<g id="Snowboard">
</g>
<g id="Ice_Skate">
</g>
<g id="Wooden_House">
</g>
<g id="Snowcapped_House">
</g>
<g id="Hot_Drink">
</g>
<g id="Hot_Chocolate">
</g>
<g id="Lantern">
</g>
<g id="Snow_Shovel">
</g>
<g id="Snowman">
	<g>
		<g>
			<path d="M11.5,24C7.916,24,5,21.084,5,17.5c0-2.689,1.695-5.133,4.218-6.08c0.257-0.1,0.547,0.034,0.644,0.292
				c0.098,0.259-0.033,0.547-0.292,0.644C7.435,13.157,6,15.225,6,17.5c0,3.032,2.468,5.5,5.5,5.5s5.5-2.468,5.5-5.5
				c0-2.275-1.435-4.343-3.569-5.145c-0.259-0.097-0.39-0.385-0.292-0.644c0.097-0.258,0.386-0.393,0.644-0.292
				C16.305,12.367,18,14.811,18,17.5C18,21.084,15.084,24,11.5,24z"/>
		</g>
		<g>
			<circle cx="11.5" cy="15.5" r="0.5"/>
		</g>
		<g>
			<circle cx="11.5" cy="17.5" r="0.5"/>
		</g>
		<g>
			<circle cx="11.5" cy="19.5" r="0.5"/>
		</g>
		<g>
			<path d="M7.5,16c-0.104,0-0.21-0.032-0.3-0.1L3.333,13H0.5C0.224,13,0,12.776,0,12.5S0.224,12,0.5,12h3
				c0.108,0,0.214,0.035,0.3,0.1l4,3c0.221,0.166,0.266,0.479,0.101,0.7C7.802,15.931,7.651,16,7.5,16z"/>
		</g>
		<g>
			<path d="M3.5,13c-0.128,0-0.256-0.049-0.354-0.146l-2-2c-0.195-0.195-0.195-0.512,0-0.707s0.512-0.195,0.707,0l2,2
				c0.195,0.195,0.195,0.512,0,0.707C3.756,12.951,3.628,13,3.5,13z"/>
		</g>
		<g>
			<path d="M15.5,16c-0.151,0-0.302-0.069-0.4-0.2c-0.165-0.221-0.12-0.534,0.101-0.7l4-3c0.086-0.064,0.191-0.1,0.3-0.1h3
				c0.276,0,0.5,0.224,0.5,0.5S22.776,13,22.5,13h-2.833L15.8,15.9C15.71,15.968,15.604,16,15.5,16z"/>
		</g>
		<g>
			<path d="M19.5,13c-0.128,0-0.256-0.049-0.354-0.146c-0.195-0.195-0.195-0.512,0-0.707l2-2c0.195-0.195,0.512-0.195,0.707,0
				s0.195,0.512,0,0.707l-2,2C19.756,12.951,19.628,13,19.5,13z"/>
		</g>
		<g>
			<path d="M15.27,7.713c-0.181,0-0.354-0.098-0.443-0.27c-0.128-0.245-0.032-0.547,0.213-0.674C15.649,6.451,16,6.08,16,5.75
				C16,4.924,14.075,4,11.5,4S7,4.924,7,5.75c0,0.33,0.351,0.701,0.961,1.02c0.245,0.127,0.341,0.429,0.213,0.674
				C8.047,7.69,7.742,7.782,7.5,7.656C6.26,7.012,6,6.264,6,5.75C6,4.183,8.364,3,11.5,3S17,4.183,17,5.75
				c0,0.514-0.26,1.262-1.5,1.906C15.427,7.694,15.348,7.713,15.27,7.713z"/>
		</g>
		<g>
			<path d="M8.51,4.447c-0.027,0-0.056-0.002-0.083-0.007C8.154,4.396,7.97,4.138,8.016,3.865L8.418,1.45
				C8.512,0.89,8.896,0.439,9.42,0.274C9.999,0.093,10.699,0,11.5,0c0.854,0,1.585,0.165,2.048,0.305
				c0.548,0.166,0.946,0.621,1.041,1.189l0.396,2.371c0.046,0.272-0.139,0.529-0.411,0.575c-0.266,0.048-0.529-0.139-0.575-0.411
				l-0.396-2.371c-0.031-0.19-0.163-0.342-0.343-0.396C12.862,1.143,12.233,1,11.5,1c-0.87,0-1.448,0.124-1.78,0.229
				C9.559,1.279,9.436,1.431,9.404,1.615L9.002,4.029C8.961,4.274,8.749,4.447,8.51,4.447z"/>
		</g>
		<g>
			<path d="M11.5,13C9.019,13,7,10.981,7,8.5c0-0.971,0.328-1.91,0.949-2.718c0.048-0.062,0.108-0.111,0.179-0.146
				c1.672-0.809,5.072-0.809,6.744,0c0.07,0.034,0.131,0.084,0.179,0.146C15.672,6.59,16,7.529,16,8.5C16,10.981,13.981,13,11.5,13z
				 M8.671,6.487C8.231,7.096,8,7.789,8,8.5c0,1.93,1.57,3.5,3.5,3.5S15,10.43,15,8.5c0-0.711-0.231-1.404-0.671-2.013
				C12.935,5.876,10.065,5.876,8.671,6.487z"/>
		</g>
		<g>
			<circle cx="10.5" cy="7.5" r="0.5"/>
		</g>
		<g>
			<circle cx="12.5" cy="7.5" r="0.5"/>
		</g>
		<g>
			<path d="M11.5,11.5c-0.215,0-0.406-0.138-0.475-0.342l-0.5-1.5c-0.087-0.262,0.055-0.545,0.316-0.633
				c0.262-0.087,0.545,0.055,0.633,0.316L11.5,9.419l0.025-0.077c0.088-0.262,0.371-0.402,0.633-0.316
				c0.262,0.088,0.403,0.371,0.316,0.633l-0.5,1.5C11.906,11.362,11.715,11.5,11.5,11.5z"/>
		</g>
	</g>
</g>
<g id="Reindeer">
</g>
<g id="Snowmobile">
</g>
<g id="Snow_Chain">
</g>
<g id="Slippery_Road">
</g>
</svg>
