<?xml version="1.0" encoding="iso-8859-1"?>
<!-- Generator: Adobe Illustrator 19.2.1, SVG Export Plug-In . SVG Version: 6.00 Build 0)  -->
<svg version="1.1" xmlns="http://www.w3.org/2000/svg" xmlns:xlink="http://www.w3.org/1999/xlink" x="0px" y="0px"
	 viewBox="0 0 24 24" style="enable-background:new 0 0 24 24;" xml:space="preserve">
<g id="Snowflake_1">
</g>
<g id="Snowflake_2">
</g>
<g id="Snowflake_3">
</g>
<g id="Snowflake_4">
</g>
<g id="Winter_Cap_1">
</g>
<g id="Winter_Cap_2">
</g>
<g id="Glowes">
</g>
<g id="Sweater_1">
</g>
<g id="Sweater_2">
</g>
<g id="Sweater_3">
	<g>
		<g>
			<path d="M7.5,22C7.224,22,7,21.776,7,21.5v-1C7,20.224,7.224,20,7.5,20S8,20.224,8,20.5v1C8,21.776,7.776,22,7.5,22z"/>
		</g>
		<g>
			<path d="M9.5,22C9.224,22,9,21.776,9,21.5v-1C9,20.224,9.224,20,9.5,20s0.5,0.224,0.5,0.5v1C10,21.776,9.776,22,9.5,22z"/>
		</g>
		<g>
			<path d="M11.5,22c-0.276,0-0.5-0.224-0.5-0.5v-1c0-0.276,0.224-0.5,0.5-0.5s0.5,0.224,0.5,0.5v1C12,21.776,11.776,22,11.5,22z"/>
		</g>
		<g>
			<path d="M13.5,22c-0.276,0-0.5-0.224-0.5-0.5v-1c0-0.276,0.224-0.5,0.5-0.5s0.5,0.224,0.5,0.5v1C14,21.776,13.776,22,13.5,22z"/>
		</g>
		<g>
			<path d="M15.5,22c-0.276,0-0.5-0.224-0.5-0.5v-1c0-0.276,0.224-0.5,0.5-0.5s0.5,0.224,0.5,0.5v1C16,21.776,15.776,22,15.5,22z"/>
		</g>
		<g>
			<path d="M16.5,22h-10C5.673,22,5,21.327,5,20.5v-7.175l-0.938,4.474c-0.158,0.794-0.911,1.314-1.716,1.181l-1.093-0.182
				c-0.802-0.133-1.347-0.869-1.241-1.674L1.457,6.811C1.8,4.071,4.146,2,6.914,2H7.5c0.189,0,0.362,0.107,0.447,0.276
				c0.241,0.482,2.003,1.246,3.554,1.703c1.545-0.45,3.305-1.212,3.553-1.704C15.139,2.106,15.311,2,15.5,2h0.586
				c2.767,0,5.112,2.069,5.458,4.814l1.442,10.305c0.106,0.81-0.438,1.545-1.24,1.678l-1.093,0.182
				c-0.806,0.133-1.558-0.387-1.717-1.186L18,13.324V20.5C18,21.327,17.327,22,16.5,22z M5.5,8c0.017,0,0.034,0.001,0.052,0.002
				C5.807,8.029,6,8.244,6,8.5v12C6,20.776,6.225,21,6.5,21h10c0.275,0,0.5-0.224,0.5-0.5v-12c0-0.256,0.193-0.471,0.448-0.498
				c0.265-0.022,0.489,0.145,0.541,0.395l1.927,9.196c0.054,0.271,0.3,0.446,0.573,0.4l1.093-0.182
				c0.268-0.044,0.449-0.289,0.413-0.557L20.553,6.949c0-0.002-0.001-0.005-0.001-0.007C20.271,4.695,18.351,3,16.086,3h-0.327
				c-0.88,1.025-3.556,1.821-4.123,1.981c-0.09,0.024-0.184,0.025-0.273,0C10.794,4.818,8.118,4.012,7.242,3H6.914
				C4.649,3,2.729,4.695,2.448,6.942L1.004,17.258c-0.035,0.264,0.146,0.509,0.414,0.553l1.093,0.182
				c0.268,0.046,0.519-0.129,0.572-0.395l1.928-9.201C5.06,8.164,5.266,8,5.5,8z"/>
		</g>
		<g>
			<path d="M13.5,7c-0.132,0-0.259-0.052-0.354-0.146L11.5,5.207L9.854,6.854C9.74,6.967,9.578,7.021,9.42,6.994
				c-0.158-0.026-0.295-0.126-0.367-0.27l-2-4C6.93,2.477,7.029,2.176,7.276,2.053c0.248-0.122,0.547-0.023,0.671,0.224l1.689,3.379
				l1.51-1.509c0.195-0.195,0.512-0.195,0.707,0l1.51,1.509l1.689-3.379c0.125-0.247,0.424-0.345,0.671-0.224
				c0.247,0.124,0.347,0.424,0.224,0.671l-2,4c-0.072,0.144-0.209,0.244-0.367,0.27C13.554,6.998,13.526,7,13.5,7z"/>
		</g>
		<g>
			<path d="M11.5,19C9.57,19,8,17.43,8,15.5c0-0.362,0.063-0.734,0.189-1.105c0.004-0.032,0.012-0.064,0.022-0.095l0.94-2.659
				c0.011-0.031,0.025-0.061,0.041-0.088C9.576,10.62,10.492,10,11.5,10c1.005,0,1.922,0.619,2.306,1.548
				c0.017,0.027,0.03,0.056,0.041,0.087l0.941,2.664c0.011,0.032,0.02,0.065,0.023,0.098C14.937,14.768,15,15.139,15,15.5
				C15,17.43,13.43,19,11.5,19z M9.188,14.538c-0.005,0.034-0.013,0.068-0.025,0.101C9.054,14.937,9,15.219,9,15.5
				c0,1.378,1.121,2.5,2.5,2.5s2.5-1.122,2.5-2.5c0-0.281-0.054-0.563-0.163-0.861c-0.013-0.034-0.021-0.069-0.026-0.104
				l-0.882-2.494c-0.011-0.02-0.021-0.042-0.028-0.063C12.678,11.383,12.128,11,11.5,11c-0.62,0-1.183,0.394-1.4,0.98
				c-0.009,0.023-0.019,0.045-0.03,0.066L9.188,14.538z"/>
		</g>
		<g>
			<path d="M9.563,12.479c-0.083,0-0.167-0.021-0.244-0.063C7.889,11.617,7,10.117,7,8.5C7,8.224,7.224,8,7.5,8S8,8.224,8,8.5
				c0,1.255,0.692,2.42,1.807,3.042c0.24,0.135,0.327,0.439,0.192,0.68C9.907,12.387,9.737,12.479,9.563,12.479z"/>
		</g>
		<g>
			<path d="M13.438,12.479c-0.175,0-0.345-0.092-0.437-0.256c-0.135-0.241-0.048-0.545,0.192-0.68C14.308,10.92,15,9.755,15,8.5
				C15,8.224,15.224,8,15.5,8S16,8.224,16,8.5c0,1.617-0.889,3.117-2.318,3.916C13.604,12.458,13.521,12.479,13.438,12.479z"/>
		</g>
		<g>
			<path d="M14.616,11.492c-0.109,0-0.22-0.036-0.312-0.109C13.451,10.703,13,9.878,13,9c0-0.276,0.224-0.5,0.5-0.5S14,8.724,14,9
				c0,0.712,0.505,1.264,0.928,1.601c0.216,0.172,0.252,0.487,0.079,0.703C14.908,11.428,14.763,11.492,14.616,11.492z"/>
		</g>
		<g>
			<path d="M8.386,11.491c-0.146,0-0.292-0.064-0.391-0.188c-0.173-0.216-0.138-0.53,0.078-0.703C8.496,10.263,9,9.711,9,9
				c0-0.276,0.224-0.5,0.5-0.5S10,8.724,10,9c0,0.877-0.45,1.701-1.302,2.381C8.605,11.455,8.495,11.491,8.386,11.491z"/>
		</g>
		<g>
			<circle cx="10.5" cy="13.5" r="0.5"/>
		</g>
		<g>
			<circle cx="12.5" cy="13.5" r="0.5"/>
		</g>
		<g>
			<path d="M14.101,17.503c-0.172,0-0.341-0.09-0.433-0.25C13.222,16.48,12.391,16,11.5,16c-0.89,0-1.72,0.479-2.166,1.25
				c-0.138,0.24-0.445,0.32-0.683,0.183c-0.239-0.139-0.321-0.444-0.183-0.684C9.093,15.67,10.254,15,11.5,15
				c1.247,0,2.409,0.672,3.033,1.753c0.139,0.239,0.057,0.545-0.183,0.683C14.271,17.481,14.186,17.503,14.101,17.503z"/>
		</g>
		<g>
			<path d="M14,13.5c-0.183,0-0.359-0.101-0.447-0.276c-0.123-0.247-0.023-0.547,0.224-0.671l1-0.5
				c0.248-0.123,0.547-0.024,0.671,0.224c0.123,0.247,0.023,0.547-0.224,0.671l-1,0.5C14.151,13.483,14.075,13.5,14,13.5z"/>
		</g>
		<g>
			<path d="M9,13.5c-0.075,0-0.151-0.017-0.224-0.053l-1-0.5c-0.247-0.124-0.347-0.424-0.224-0.671
				c0.125-0.248,0.424-0.345,0.671-0.224l1,0.5c0.247,0.124,0.347,0.424,0.224,0.671C9.359,13.399,9.183,13.5,9,13.5z"/>
		</g>
	</g>
</g>
<g id="Scarf">
</g>
<g id="Winter_Socks">
</g>
<g id="Winter_Sock">
</g>
<g id="Winter_Coat">
</g>
<g id="Winter_Calendar">
</g>
<g id="Thermometer_1">
</g>
<g id="Thermometer_2">
</g>
<g id="Cold">
</g>
<g id="Icicle">
</g>
<g id="Snowing">
</g>
<g id="Snow_Shoes_1">
</g>
<g id="Snow_Shoes_2">
</g>
<g id="Sledge">
</g>
<g id="Snow_Boots">
</g>
<g id="Snowcapped_Mountains">
</g>
<g id="Skis">
</g>
<g id="Sky_Glasses">
</g>
<g id="Snowboard">
</g>
<g id="Ice_Skate">
</g>
<g id="Wooden_House">
</g>
<g id="Snowcapped_House">
</g>
<g id="Hot_Drink">
</g>
<g id="Hot_Chocolate">
</g>
<g id="Lantern">
</g>
<g id="Snow_Shovel">
</g>
<g id="Snowman">
</g>
<g id="Reindeer">
</g>
<g id="Snowmobile">
</g>
<g id="Snow_Chain">
</g>
<g id="Slippery_Road">
</g>
</svg>
