<?xml version="1.0" encoding="iso-8859-1"?>
<!-- Generator: Adobe Illustrator 19.2.1, SVG Export Plug-In . SVG Version: 6.00 Build 0)  -->
<svg version="1.1" xmlns="http://www.w3.org/2000/svg" xmlns:xlink="http://www.w3.org/1999/xlink" x="0px" y="0px"
	 viewBox="0 0 24 24" style="enable-background:new 0 0 24 24;" xml:space="preserve">
<g id="Snowflake_1">
</g>
<g id="Snowflake_2">
</g>
<g id="Snowflake_3">
</g>
<g id="Snowflake_4">
</g>
<g id="Winter_Cap_1">
</g>
<g id="Winter_Cap_2">
</g>
<g id="Glowes">
</g>
<g id="Sweater_1">
	<g>
		<g>
			<path d="M7.5,22C7.224,22,7,21.776,7,21.5v-1C7,20.224,7.224,20,7.5,20S8,20.224,8,20.5v1C8,21.776,7.776,22,7.5,22z"/>
		</g>
		<g>
			<path d="M9.5,22C9.224,22,9,21.776,9,21.5v-1C9,20.224,9.224,20,9.5,20s0.5,0.224,0.5,0.5v1C10,21.776,9.776,22,9.5,22z"/>
		</g>
		<g>
			<path d="M11.5,22c-0.276,0-0.5-0.224-0.5-0.5v-1c0-0.276,0.224-0.5,0.5-0.5s0.5,0.224,0.5,0.5v1C12,21.776,11.776,22,11.5,22z"/>
		</g>
		<g>
			<path d="M13.5,22c-0.276,0-0.5-0.224-0.5-0.5v-1c0-0.276,0.224-0.5,0.5-0.5s0.5,0.224,0.5,0.5v1C14,21.776,13.776,22,13.5,22z"/>
		</g>
		<g>
			<path d="M15.5,22c-0.276,0-0.5-0.224-0.5-0.5v-1c0-0.276,0.224-0.5,0.5-0.5s0.5,0.224,0.5,0.5v1C16,21.776,15.776,22,15.5,22z"/>
		</g>
		<g>
			<path d="M19.499,17c-0.233,0-0.441-0.164-0.489-0.402c-0.055-0.271,0.121-0.534,0.393-0.588l2.5-0.5
				c0.258-0.054,0.533,0.12,0.588,0.392c0.055,0.271-0.121,0.534-0.393,0.588l-2.5,0.5C19.565,16.997,19.532,17,19.499,17z"/>
		</g>
		<g>
			<path d="M17.5,19h-12C5.224,19,5,18.776,5,18.5S5.224,18,5.5,18h12c0.276,0,0.5,0.224,0.5,0.5S17.776,19,17.5,19z"/>
		</g>
		<g>
			<path d="M3.501,17c-0.033,0-0.066-0.003-0.099-0.01l-2.5-0.5c-0.271-0.054-0.447-0.317-0.393-0.588
				c0.055-0.272,0.331-0.446,0.588-0.392l2.5,0.5c0.271,0.054,0.447,0.317,0.393,0.588C3.942,16.836,3.734,17,3.501,17z"/>
		</g>
		<g>
			<path d="M16.5,22h-10C5.673,22,5,21.327,5,20.5v-7.175l-0.938,4.474c-0.158,0.794-0.91,1.314-1.716,1.181l-1.093-0.182
				c-0.802-0.133-1.347-0.869-1.241-1.674L1.457,6.811C1.8,4.071,4.146,2,6.914,2H7.5C7.776,2,8,2.224,8,2.5C8,3.208,9.497,4,11.5,4
				S15,3.208,15,2.5C15,2.224,15.224,2,15.5,2h0.586c2.767,0,5.112,2.069,5.458,4.814l1.442,10.305
				c0.106,0.81-0.438,1.545-1.24,1.678l-1.093,0.182c-0.806,0.133-1.558-0.387-1.717-1.186L18,13.324V20.5
				C18,21.327,17.327,22,16.5,22z M5.5,8c0.017,0,0.034,0.001,0.052,0.002C5.807,8.029,6,8.244,6,8.5v12C6,20.776,6.225,21,6.5,21
				h10c0.275,0,0.5-0.224,0.5-0.5v-12c0-0.256,0.193-0.471,0.448-0.498c0.266-0.022,0.489,0.145,0.541,0.395l1.927,9.196
				c0.054,0.271,0.301,0.446,0.573,0.4l1.093-0.182c0.268-0.044,0.449-0.289,0.413-0.557L20.553,6.949
				c0-0.002-0.001-0.005-0.001-0.007C20.271,4.695,18.351,3,16.086,3h-0.168c-0.395,1.169-2.162,2-4.418,2S7.477,4.169,7.082,3
				H6.914C4.649,3,2.729,4.695,2.448,6.942L1.004,17.258c-0.035,0.264,0.146,0.509,0.414,0.553l1.093,0.182
				c0.269,0.046,0.519-0.129,0.572-0.395l1.928-9.201C5.06,8.164,5.266,8,5.5,8z"/>
		</g>
	</g>
</g>
<g id="Sweater_2">
</g>
<g id="Sweater_3">
</g>
<g id="Scarf">
</g>
<g id="Winter_Socks">
</g>
<g id="Winter_Sock">
</g>
<g id="Winter_Coat">
</g>
<g id="Winter_Calendar">
</g>
<g id="Thermometer_1">
</g>
<g id="Thermometer_2">
</g>
<g id="Cold">
</g>
<g id="Icicle">
</g>
<g id="Snowing">
</g>
<g id="Snow_Shoes_1">
</g>
<g id="Snow_Shoes_2">
</g>
<g id="Sledge">
</g>
<g id="Snow_Boots">
</g>
<g id="Snowcapped_Mountains">
</g>
<g id="Skis">
</g>
<g id="Sky_Glasses">
</g>
<g id="Snowboard">
</g>
<g id="Ice_Skate">
</g>
<g id="Wooden_House">
</g>
<g id="Snowcapped_House">
</g>
<g id="Hot_Drink">
</g>
<g id="Hot_Chocolate">
</g>
<g id="Lantern">
</g>
<g id="Snow_Shovel">
</g>
<g id="Snowman">
</g>
<g id="Reindeer">
</g>
<g id="Snowmobile">
</g>
<g id="Snow_Chain">
</g>
<g id="Slippery_Road">
</g>
</svg>
