<?xml version="1.0" encoding="iso-8859-1"?>
<!-- Generator: Adobe Illustrator 19.2.1, SVG Export Plug-In . SVG Version: 6.00 Build 0)  -->
<svg version="1.1" xmlns="http://www.w3.org/2000/svg" xmlns:xlink="http://www.w3.org/1999/xlink" x="0px" y="0px"
	 viewBox="0 0 24 24" style="enable-background:new 0 0 24 24;" xml:space="preserve">
<g id="Snowflake_1">
</g>
<g id="Snowflake_2">
</g>
<g id="Snowflake_3">
</g>
<g id="Snowflake_4">
</g>
<g id="Winter_Cap_1">
</g>
<g id="Winter_Cap_2">
</g>
<g id="Glowes">
</g>
<g id="Sweater_1">
</g>
<g id="Sweater_2">
</g>
<g id="Sweater_3">
</g>
<g id="Scarf">
</g>
<g id="Winter_Socks">
</g>
<g id="Winter_Sock">
</g>
<g id="Winter_Coat">
</g>
<g id="Winter_Calendar">
</g>
<g id="Thermometer_1">
</g>
<g id="Thermometer_2">
	<g>
		<g>
			<path d="M14.5,14h-4c-0.276,0-0.5-0.224-0.5-0.5s0.224-0.5,0.5-0.5h4c0.276,0,0.5,0.224,0.5,0.5S14.776,14,14.5,14z"/>
		</g>
		<g>
			<path d="M14.5,9h-2C12.224,9,12,8.776,12,8.5S12.224,8,12.5,8h2C14.776,8,15,8.224,15,8.5S14.776,9,14.5,9z"/>
		</g>
		<g>
			<path d="M14.5,4h-2C12.224,4,12,3.776,12,3.5S12.224,3,12.5,3h2C14.776,3,15,3.224,15,3.5S14.776,4,14.5,4z"/>
		</g>
		<g>
			<path d="M11.494,23.999c-0.352,0-0.707-0.04-1.061-0.122c-1.635-0.377-2.935-1.679-3.312-3.315
				c-0.498-2.167,0.563-4.293,2.581-5.173C9.884,15.311,10,15.134,10,14.938V1.5C10,0.673,10.673,0,11.5,0S13,0.673,13,1.5v13.438
				c0,0.195,0.116,0.372,0.296,0.45C14.938,16.104,16,17.718,16,19.5c0,1.379-0.62,2.664-1.7,3.523
				C13.496,23.663,12.511,23.999,11.494,23.999z M11.5,1C11.225,1,11,1.224,11,1.5v13.438c0,0.593-0.353,1.13-0.897,1.367
				c-1.569,0.684-2.395,2.342-2.006,4.031c0.287,1.247,1.316,2.278,2.562,2.565c1.077,0.25,2.177,0.008,3.019-0.662
				C14.518,21.572,15,20.573,15,19.5c0-1.384-0.825-2.638-2.103-3.194C12.353,16.068,12,15.532,12,14.938V1.5
				C12,1.224,11.775,1,11.5,1z"/>
		</g>
	</g>
</g>
<g id="Cold">
</g>
<g id="Icicle">
</g>
<g id="Snowing">
</g>
<g id="Snow_Shoes_1">
</g>
<g id="Snow_Shoes_2">
</g>
<g id="Sledge">
</g>
<g id="Snow_Boots">
</g>
<g id="Snowcapped_Mountains">
</g>
<g id="Skis">
</g>
<g id="Sky_Glasses">
</g>
<g id="Snowboard">
</g>
<g id="Ice_Skate">
</g>
<g id="Wooden_House">
</g>
<g id="Snowcapped_House">
</g>
<g id="Hot_Drink">
</g>
<g id="Hot_Chocolate">
</g>
<g id="Lantern">
</g>
<g id="Snow_Shovel">
</g>
<g id="Snowman">
</g>
<g id="Reindeer">
</g>
<g id="Snowmobile">
</g>
<g id="Snow_Chain">
</g>
<g id="Slippery_Road">
</g>
</svg>
