<?xml version="1.0" encoding="iso-8859-1"?>
<!-- Generator: Adobe Illustrator 19.2.1, SVG Export Plug-In . SVG Version: 6.00 Build 0)  -->
<svg version="1.1" xmlns="http://www.w3.org/2000/svg" xmlns:xlink="http://www.w3.org/1999/xlink" x="0px" y="0px"
	 viewBox="0 0 24 24" style="enable-background:new 0 0 24 24;" xml:space="preserve">
<g id="Snowflake_1">
</g>
<g id="Snowflake_2">
</g>
<g id="Snowflake_3">
</g>
<g id="Snowflake_4">
</g>
<g id="Winter_Cap_1">
</g>
<g id="Winter_Cap_2">
</g>
<g id="Glowes">
</g>
<g id="Sweater_1">
</g>
<g id="Sweater_2">
</g>
<g id="Sweater_3">
</g>
<g id="Scarf">
</g>
<g id="Winter_Socks">
</g>
<g id="Winter_Sock">
	<g>
		<g>
			<path d="M18.5,6h-9C8.673,6,8,5.327,8,4.5v-3C8,0.673,8.673,0,9.5,0h9C19.327,0,20,0.673,20,1.5v3C20,5.327,19.327,6,18.5,6z
				 M9.5,1C9.224,1,9,1.224,9,1.5v3C9,4.776,9.224,5,9.5,5h9C18.776,5,19,4.776,19,4.5v-3C19,1.224,18.776,1,18.5,1H9.5z"/>
		</g>
		<g>
			<path d="M8.744,24C6.126,24,4,21.874,4,19.26c0-1.27,0.493-2.46,1.388-3.355l3.465-3.465C8.947,12.346,9,12.217,9,12.086V5.5
				C9,5.224,9.224,5,9.5,5S10,5.224,10,5.5v6.586c0,0.4-0.156,0.777-0.439,1.061l-3.465,3.465C5.389,17.318,5,18.257,5,19.256
				C5,21.322,6.678,23,8.74,23c1.002,0,1.941-0.389,2.648-1.095l5.879-5.879C17.74,15.553,18,14.925,18,14.257V5.5
				C18,5.224,18.224,5,18.5,5S19,5.224,19,5.5v8.757c0,0.935-0.364,1.814-1.025,2.475l-5.879,5.879C11.2,23.507,10.01,24,8.744,24z"
				/>
		</g>
		<g>
			<path d="M14,16c-1.654,0-3-1.167-3-2.6c0-0.262,0.049-0.521,0.151-0.791c0.004-0.024,0.011-0.049,0.019-0.073l0.79-2.276
				c0.02-0.057,0.049-0.108,0.085-0.153C12.398,9.431,13.15,9,14,9c0.854,0,1.609,0.435,1.959,1.117
				c0.035,0.042,0.063,0.091,0.081,0.144l0.799,2.298c0.01,0.028,0.017,0.057,0.021,0.086C16.954,12.903,17,13.152,17,13.4
				C17,14.833,15.654,16,14,16z M12.147,12.771c-0.005,0.042-0.017,0.084-0.034,0.124C12.037,13.076,12,13.241,12,13.4
				c0,0.882,0.897,1.6,2,1.6s2-0.718,2-1.6c0-0.151-0.035-0.311-0.108-0.489c-0.017-0.041-0.028-0.084-0.033-0.127l-0.726-2.089
				c-0.015-0.022-0.028-0.046-0.039-0.071C14.932,10.25,14.492,10,14,10s-0.932,0.25-1.094,0.624
				c-0.011,0.026-0.024,0.051-0.04,0.074L12.147,12.771z"/>
		</g>
		<g>
			<path d="M14.5,12c-0.13,0-0.26-0.05-0.35-0.15c-0.05-0.04-0.09-0.1-0.11-0.16C14.01,11.63,14,11.57,14,11.5
				c0-0.06,0.01-0.13,0.04-0.19c0.02-0.06,0.06-0.12,0.11-0.16c0.14-0.14,0.36-0.19,0.54-0.11c0.06,0.02,0.12,0.06,0.16,0.11
				c0.05,0.04,0.09,0.1,0.11,0.16C14.99,11.37,15,11.44,15,11.5c0,0.07-0.01,0.13-0.04,0.19c-0.02,0.06-0.06,0.12-0.11,0.16
				c-0.04,0.05-0.1,0.09-0.16,0.11C14.63,11.99,14.56,12,14.5,12z"/>
		</g>
		<g>
			<path d="M13.5,12c-0.06,0-0.13-0.01-0.19-0.04c-0.06-0.02-0.12-0.06-0.16-0.11c-0.05-0.04-0.09-0.1-0.11-0.16
				C13.01,11.63,13,11.57,13,11.5c0-0.07,0.01-0.13,0.04-0.19c0.02-0.06,0.06-0.12,0.11-0.16c0.04-0.05,0.1-0.09,0.16-0.11
				c0.18-0.08,0.41-0.03,0.54,0.11c0.05,0.04,0.09,0.1,0.11,0.16C13.99,11.37,14,11.43,14,11.5c0,0.07-0.01,0.13-0.04,0.19
				c-0.02,0.06-0.06,0.12-0.11,0.16C13.76,11.95,13.63,12,13.5,12z"/>
		</g>
		<g>
			<path d="M14.996,10.292c-0.193,0-0.377-0.112-0.459-0.3c-0.11-0.253,0.006-0.548,0.259-0.658C15.527,9.015,16,8.295,16,7.5
				C16,7.224,16.224,7,16.5,7S17,7.224,17,7.5c0,1.193-0.708,2.272-1.805,2.75C15.13,10.278,15.063,10.292,14.996,10.292z"/>
		</g>
		<g>
			<path d="M16.072,9.396c-0.097,0-0.195-0.028-0.281-0.086C15.281,8.962,15,8.498,15,8c0-0.276,0.224-0.5,0.5-0.5S16,7.724,16,8
				c0,0.21,0.222,0.393,0.354,0.482c0.229,0.155,0.288,0.466,0.132,0.695C16.389,9.319,16.232,9.396,16.072,9.396z"/>
		</g>
		<g>
			<path d="M11.928,9.396c-0.16,0-0.317-0.077-0.414-0.219c-0.155-0.229-0.096-0.54,0.132-0.695C11.778,8.393,12,8.21,12,8
				c0-0.276,0.224-0.5,0.5-0.5S13,7.724,13,8c0,0.498-0.281,0.962-0.791,1.31C12.123,9.368,12.025,9.396,11.928,9.396z"/>
		</g>
		<g>
			<path d="M13.004,10.292c-0.066,0-0.134-0.013-0.199-0.042C11.708,9.772,11,8.693,11,7.5C11,7.224,11.224,7,11.5,7
				S12,7.224,12,7.5c0,0.795,0.473,1.515,1.204,1.833c0.253,0.11,0.369,0.405,0.259,0.658
				C13.381,10.179,13.197,10.292,13.004,10.292z"/>
		</g>
		<g>
			<path d="M16.063,15.087c-0.159,0-0.316-0.076-0.413-0.217C15.276,14.325,14.66,14,14,14s-1.276,0.325-1.65,0.87
				c-0.155,0.229-0.466,0.287-0.695,0.129c-0.228-0.156-0.286-0.467-0.129-0.695C12.085,13.487,13.011,13,14,13
				s1.915,0.487,2.475,1.304c0.156,0.228,0.099,0.539-0.129,0.695C16.259,15.059,16.161,15.087,16.063,15.087z"/>
		</g>
		<g>
			<path d="M12.039,22.456c-0.214,0-0.412-0.138-0.478-0.353c-0.368-1.197-1.145-2.431-2.188-3.475
				c-1.044-1.043-2.278-1.821-3.475-2.188c-0.264-0.081-0.412-0.361-0.331-0.625c0.082-0.263,0.362-0.412,0.625-0.331
				c1.35,0.415,2.731,1.281,3.888,2.438c1.157,1.157,2.022,2.538,2.438,3.888c0.081,0.264-0.067,0.544-0.331,0.625
				C12.137,22.449,12.087,22.456,12.039,22.456z"/>
		</g>
		<g>
			<path d="M16,11.5c-0.128,0-0.256-0.049-0.354-0.146c-0.195-0.195-0.195-0.512,0-0.707l0.5-0.5c0.195-0.195,0.512-0.195,0.707,0
				s0.195,0.512,0,0.707l-0.5,0.5C16.256,11.451,16.128,11.5,16,11.5z"/>
		</g>
		<g>
			<path d="M12,11.5c-0.128,0-0.256-0.049-0.354-0.146l-0.5-0.5c-0.195-0.195-0.195-0.512,0-0.707s0.512-0.195,0.707,0l0.5,0.5
				c0.195,0.195,0.195,0.512,0,0.707C12.256,11.451,12.128,11.5,12,11.5z"/>
		</g>
	</g>
</g>
<g id="Winter_Coat">
</g>
<g id="Winter_Calendar">
</g>
<g id="Thermometer_1">
</g>
<g id="Thermometer_2">
</g>
<g id="Cold">
</g>
<g id="Icicle">
</g>
<g id="Snowing">
</g>
<g id="Snow_Shoes_1">
</g>
<g id="Snow_Shoes_2">
</g>
<g id="Sledge">
</g>
<g id="Snow_Boots">
</g>
<g id="Snowcapped_Mountains">
</g>
<g id="Skis">
</g>
<g id="Sky_Glasses">
</g>
<g id="Snowboard">
</g>
<g id="Ice_Skate">
</g>
<g id="Wooden_House">
</g>
<g id="Snowcapped_House">
</g>
<g id="Hot_Drink">
</g>
<g id="Hot_Chocolate">
</g>
<g id="Lantern">
</g>
<g id="Snow_Shovel">
</g>
<g id="Snowman">
</g>
<g id="Reindeer">
</g>
<g id="Snowmobile">
</g>
<g id="Snow_Chain">
</g>
<g id="Slippery_Road">
</g>
</svg>
