<?xml version="1.0" encoding="iso-8859-1"?>
<!-- Generator: Adobe Illustrator 19.2.1, SVG Export Plug-In . SVG Version: 6.00 Build 0)  -->
<svg version="1.1" xmlns="http://www.w3.org/2000/svg" xmlns:xlink="http://www.w3.org/1999/xlink" x="0px" y="0px"
	 viewBox="0 0 24 24" style="enable-background:new 0 0 24 24;" xml:space="preserve">
<g id="Snowflake_1">
</g>
<g id="Snowflake_2">
</g>
<g id="Snowflake_3">
</g>
<g id="Snowflake_4">
</g>
<g id="Winter_Cap_1">
</g>
<g id="Winter_Cap_2">
	<g>
		<g>
			<path d="M17.491,13h-11c-0.827,0-1.5-0.673-1.5-1.5v-2c0-0.827,0.673-1.5,1.5-1.5h11c0.827,0,1.5,0.673,1.5,1.5v2
				C18.991,12.327,18.318,13,17.491,13z M6.491,9c-0.275,0-0.5,0.224-0.5,0.5v2c0,0.276,0.225,0.5,0.5,0.5h11
				c0.275,0,0.5-0.224,0.5-0.5v-2c0-0.276-0.225-0.5-0.5-0.5H6.491z"/>
		</g>
		<g>
			<path d="M20.991,19c-2.972,0-3.898-5.77-3.995-6.428c-0.039-0.273,0.149-0.527,0.423-0.567c0.266-0.038,0.526,0.148,0.567,0.422
				C18.197,13.874,19.204,18,20.991,18c0.083-0.156-0.212-1.048-0.473-1.835C19.91,14.329,18.991,11.553,18.991,8
				c0-3.857-3.136-6.996-6.991-7C8.145,1.004,5.009,4.143,5.009,8c0,3.508-0.915,6.286-1.521,8.124
				c-0.265,0.804-0.565,1.715-0.489,1.938C4.796,18,5.803,13.874,6.014,12.428c0.041-0.274,0.295-0.46,0.567-0.422
				c0.273,0.04,0.462,0.293,0.423,0.567C6.907,13.23,5.98,19,3.009,19c-0.464,0-0.709-0.204-0.832-0.375
				c-0.389-0.537-0.122-1.346,0.361-2.814C3.124,14.033,4.009,11.347,4.009,8c0-4.403,3.576-7.987,7.977-8C11.99,0,11.995,0,12,0
				s0.011,0,0.015,0c4.4,0.013,7.977,3.597,7.977,8c0,3.392,0.889,6.075,1.477,7.851c0.479,1.446,0.742,2.242,0.357,2.774
				C21.702,18.796,21.457,19,20.991,19z"/>
		</g>
		<g>
			<path d="M20.491,24c-0.276,0-0.5-0.224-0.5-0.5v-5c0-0.276,0.224-0.5,0.5-0.5s0.5,0.224,0.5,0.5v5
				C20.991,23.776,20.768,24,20.491,24z"/>
		</g>
		<g>
			<path d="M3.491,24c-0.276,0-0.5-0.224-0.5-0.5v-5c0-0.276,0.224-0.5,0.5-0.5s0.5,0.224,0.5,0.5v5C3.991,23.776,3.768,24,3.491,24
				z"/>
		</g>
		<g>
			<path d="M3.991,23h-1c-0.276,0-0.5-0.224-0.5-0.5s0.224-0.5,0.5-0.5h1c0.276,0,0.5,0.224,0.5,0.5S4.268,23,3.991,23z"/>
		</g>
		<g>
			<path d="M20.991,23h-1c-0.276,0-0.5-0.224-0.5-0.5s0.224-0.5,0.5-0.5h1c0.276,0,0.5,0.224,0.5,0.5S21.268,23,20.991,23z"/>
		</g>
	</g>
</g>
<g id="Glowes">
</g>
<g id="Sweater_1">
</g>
<g id="Sweater_2">
</g>
<g id="Sweater_3">
</g>
<g id="Scarf">
</g>
<g id="Winter_Socks">
</g>
<g id="Winter_Sock">
</g>
<g id="Winter_Coat">
</g>
<g id="Winter_Calendar">
</g>
<g id="Thermometer_1">
</g>
<g id="Thermometer_2">
</g>
<g id="Cold">
</g>
<g id="Icicle">
</g>
<g id="Snowing">
</g>
<g id="Snow_Shoes_1">
</g>
<g id="Snow_Shoes_2">
</g>
<g id="Sledge">
</g>
<g id="Snow_Boots">
</g>
<g id="Snowcapped_Mountains">
</g>
<g id="Skis">
</g>
<g id="Sky_Glasses">
</g>
<g id="Snowboard">
</g>
<g id="Ice_Skate">
</g>
<g id="Wooden_House">
</g>
<g id="Snowcapped_House">
</g>
<g id="Hot_Drink">
</g>
<g id="Hot_Chocolate">
</g>
<g id="Lantern">
</g>
<g id="Snow_Shovel">
</g>
<g id="Snowman">
</g>
<g id="Reindeer">
</g>
<g id="Snowmobile">
</g>
<g id="Snow_Chain">
</g>
<g id="Slippery_Road">
</g>
</svg>
