<?xml version="1.0" encoding="iso-8859-1"?>
<!-- Generator: Adobe Illustrator 19.2.1, SVG Export Plug-In . SVG Version: 6.00 Build 0)  -->
<svg version="1.1" xmlns="http://www.w3.org/2000/svg" xmlns:xlink="http://www.w3.org/1999/xlink" x="0px" y="0px"
	 viewBox="0 0 24 24" style="enable-background:new 0 0 24 24;" xml:space="preserve">
<g id="Snowflake_1">
</g>
<g id="Snowflake_2">
</g>
<g id="Snowflake_3">
</g>
<g id="Snowflake_4">
</g>
<g id="Winter_Cap_1">
	<g>
		<g>
			<path d="M20.5,24h-18C1.122,24,0,22.878,0,21.5v-3C0,17.673,0.673,17,1.5,17h20c0.827,0,1.5,0.673,1.5,1.5v3
				C23,22.878,21.878,24,20.5,24z M1.5,18C1.224,18,1,18.224,1,18.5v3C1,22.327,1.673,23,2.5,23h18c0.827,0,1.5-0.673,1.5-1.5v-3
				c0-0.276-0.224-0.5-0.5-0.5H1.5z"/>
		</g>
		<g>
			<path d="M11.5,7C9.57,7,8,5.43,8,3.5S9.57,0,11.5,0S15,1.57,15,3.5S13.43,7,11.5,7z M11.5,1C10.122,1,9,2.122,9,3.5
				S10.122,6,11.5,6S14,4.878,14,3.5S12.878,1,11.5,1z"/>
		</g>
		<g>
			<path d="M2.5,22C2.224,22,2,21.776,2,21.5v-2C2,19.224,2.224,19,2.5,19S3,19.224,3,19.5v2C3,21.776,2.776,22,2.5,22z"/>
		</g>
		<g>
			<path d="M5.5,22C5.224,22,5,21.776,5,21.5v-2C5,19.224,5.224,19,5.5,19S6,19.224,6,19.5v2C6,21.776,5.776,22,5.5,22z"/>
		</g>
		<g>
			<path d="M8.5,22C8.224,22,8,21.776,8,21.5v-2C8,19.224,8.224,19,8.5,19S9,19.224,9,19.5v2C9,21.776,8.776,22,8.5,22z"/>
		</g>
		<g>
			<path d="M14.5,22c-0.276,0-0.5-0.224-0.5-0.5v-2c0-0.276,0.224-0.5,0.5-0.5s0.5,0.224,0.5,0.5v2C15,21.776,14.776,22,14.5,22z"/>
		</g>
		<g>
			<path d="M17.5,22c-0.276,0-0.5-0.224-0.5-0.5v-2c0-0.276,0.224-0.5,0.5-0.5s0.5,0.224,0.5,0.5v2C18,21.776,17.776,22,17.5,22z"/>
		</g>
		<g>
			<path d="M20.5,22c-0.276,0-0.5-0.224-0.5-0.5v-2c0-0.276,0.224-0.5,0.5-0.5s0.5,0.224,0.5,0.5v2C21,21.776,20.776,22,20.5,22z"/>
		</g>
		<g>
			<path d="M11.5,22c-0.276,0-0.5-0.224-0.5-0.5v-2c0-0.276,0.224-0.5,0.5-0.5s0.5,0.224,0.5,0.5v2C12,21.776,11.776,22,11.5,22z"/>
		</g>
		<g>
			<path d="M21.5,18h-20C1.224,18,1,17.776,1,17.5v-3C1,9.794,4.171,5.635,8.711,4.386c0.264-0.073,0.541,0.083,0.615,0.349
				C9.399,5.001,9.243,5.276,8.977,5.35C4.869,6.48,2,10.243,2,14.5V17h19v-2.5c0-4.257-2.869-8.02-6.977-9.15
				c-0.266-0.073-0.422-0.348-0.349-0.615c0.073-0.266,0.347-0.422,0.615-0.349C18.829,5.635,22,9.794,22,14.5v3
				C22,17.776,21.776,18,21.5,18z"/>
		</g>
	</g>
</g>
<g id="Winter_Cap_2">
</g>
<g id="Glowes">
</g>
<g id="Sweater_1">
</g>
<g id="Sweater_2">
</g>
<g id="Sweater_3">
</g>
<g id="Scarf">
</g>
<g id="Winter_Socks">
</g>
<g id="Winter_Sock">
</g>
<g id="Winter_Coat">
</g>
<g id="Winter_Calendar">
</g>
<g id="Thermometer_1">
</g>
<g id="Thermometer_2">
</g>
<g id="Cold">
</g>
<g id="Icicle">
</g>
<g id="Snowing">
</g>
<g id="Snow_Shoes_1">
</g>
<g id="Snow_Shoes_2">
</g>
<g id="Sledge">
</g>
<g id="Snow_Boots">
</g>
<g id="Snowcapped_Mountains">
</g>
<g id="Skis">
</g>
<g id="Sky_Glasses">
</g>
<g id="Snowboard">
</g>
<g id="Ice_Skate">
</g>
<g id="Wooden_House">
</g>
<g id="Snowcapped_House">
</g>
<g id="Hot_Drink">
</g>
<g id="Hot_Chocolate">
</g>
<g id="Lantern">
</g>
<g id="Snow_Shovel">
</g>
<g id="Snowman">
</g>
<g id="Reindeer">
</g>
<g id="Snowmobile">
</g>
<g id="Snow_Chain">
</g>
<g id="Slippery_Road">
</g>
</svg>
