<?xml version="1.0" encoding="iso-8859-1"?>
<!-- Generator: Adobe Illustrator 19.2.1, SVG Export Plug-In . SVG Version: 6.00 Build 0)  -->
<svg version="1.1" xmlns="http://www.w3.org/2000/svg" xmlns:xlink="http://www.w3.org/1999/xlink" x="0px" y="0px"
	 viewBox="0 0 24 24" style="enable-background:new 0 0 24 24;" xml:space="preserve">
<g id="Snowflake_1">
</g>
<g id="Snowflake_2">
</g>
<g id="Snowflake_3">
</g>
<g id="Snowflake_4">
</g>
<g id="Winter_Cap_1">
</g>
<g id="Winter_Cap_2">
</g>
<g id="Glowes">
</g>
<g id="Sweater_1">
</g>
<g id="Sweater_2">
</g>
<g id="Sweater_3">
</g>
<g id="Scarf">
</g>
<g id="Winter_Socks">
	<g>
		<g>
			<path d="M10.5,8h-6C3.673,8,3,7.327,3,6.5v-2C3,3.673,3.673,3,4.5,3h6C11.327,3,12,3.673,12,4.5v2C12,7.327,11.327,8,10.5,8z
				 M4.5,4C4.224,4,4,4.224,4,4.5v2C4,6.776,4.224,7,4.5,7h6C10.776,7,11,6.776,11,6.5v-2C11,4.224,10.776,4,10.5,4H4.5z"/>
		</g>
		<g>
			<path d="M3.329,21C1.493,21,0,19.507,0,17.671c0-0.889,0.346-1.725,0.975-2.354l2.878-2.878C3.947,12.346,4,12.217,4,12.086V7.5
				C4,7.224,4.224,7,4.5,7S5,7.224,5,7.5v4.586c0,0.4-0.156,0.777-0.439,1.061l-2.878,2.878C1.242,16.465,1,17.049,1,17.671
				C1,18.956,2.044,20,3.329,20c0.622,0,1.207-0.242,1.646-0.682l4.292-4.292C9.74,14.553,10,13.925,10,13.257V7.5
				C10,7.224,10.224,7,10.5,7S11,7.224,11,7.5v5.757c0,0.935-0.364,1.814-1.025,2.475l-4.292,4.292C5.053,20.654,4.218,21,3.329,21z
				"/>
		</g>
		<g>
			<path d="M5.337,20.163c-0.209,0-0.404-0.132-0.474-0.342C4.62,19.092,4.1,18.304,3.398,17.602
				c-0.703-0.703-1.493-1.224-2.223-1.466c-0.262-0.087-0.404-0.37-0.317-0.632c0.087-0.262,0.371-0.403,0.632-0.317
				c0.875,0.291,1.803,0.897,2.615,1.708c0.81,0.81,1.416,1.736,1.706,2.609c0.087,0.262-0.054,0.545-0.316,0.632
				C5.442,20.154,5.389,20.163,5.337,20.163z"/>
		</g>
		<g>
			<path d="M8.38,17.123c-0.128,0-0.256-0.049-0.353-0.146C7.365,16.316,7,15.436,7,14.5c0-1.93,1.57-3.5,3.5-3.5
				c0.276,0,0.5,0.224,0.5,0.5S10.776,12,10.5,12C9.122,12,8,13.122,8,14.5c0,0.668,0.261,1.297,0.733,1.769
				c0.196,0.195,0.196,0.512,0.001,0.707C8.637,17.074,8.508,17.123,8.38,17.123z"/>
		</g>
		<g>
			<path d="M22.5,8h-6C15.673,8,15,7.327,15,6.5v-2C15,3.673,15.673,3,16.5,3h6C23.327,3,24,3.673,24,4.5v2
				C24,7.327,23.327,8,22.5,8z M16.5,4C16.224,4,16,4.224,16,4.5v2C16,6.776,16.224,7,16.5,7h6C22.776,7,23,6.776,23,6.5v-2
				C23,4.224,22.776,4,22.5,4H16.5z"/>
		</g>
		<g>
			<path d="M15.329,21C13.493,21,12,19.507,12,17.671c0-0.889,0.346-1.725,0.975-2.354l2.878-2.878
				C15.947,12.346,16,12.217,16,12.086V7.5C16,7.224,16.224,7,16.5,7S17,7.224,17,7.5v4.586c0,0.4-0.156,0.777-0.439,1.061
				l-2.878,2.878C13.242,16.465,13,17.049,13,17.671C13,18.956,14.044,20,15.329,20c0.622,0,1.207-0.242,1.646-0.682l4.292-4.292
				C21.74,14.553,22,13.925,22,13.257V7.5C22,7.224,22.224,7,22.5,7S23,7.224,23,7.5v5.757c0,0.935-0.364,1.814-1.025,2.475
				l-4.292,4.292C17.053,20.654,16.218,21,15.329,21z"/>
		</g>
		<g>
			<path d="M17.337,20.163c-0.209,0-0.404-0.132-0.474-0.342c-0.243-0.729-0.763-1.517-1.465-2.219
				c-0.703-0.703-1.493-1.224-2.223-1.466c-0.262-0.087-0.404-0.37-0.317-0.632c0.087-0.262,0.371-0.403,0.632-0.317
				c0.875,0.291,1.803,0.897,2.615,1.708c0.81,0.81,1.416,1.736,1.706,2.609c0.087,0.262-0.054,0.545-0.316,0.632
				C17.442,20.154,17.389,20.163,17.337,20.163z"/>
		</g>
		<g>
			<path d="M20.38,17.123c-0.128,0-0.256-0.049-0.353-0.146C19.365,16.316,19,15.436,19,14.5c0-1.93,1.57-3.5,3.5-3.5
				c0.276,0,0.5,0.224,0.5,0.5S22.776,12,22.5,12c-1.378,0-2.5,1.122-2.5,2.5c0,0.668,0.261,1.297,0.733,1.769
				c0.196,0.195,0.196,0.512,0.001,0.707C20.637,17.074,20.508,17.123,20.38,17.123z"/>
		</g>
	</g>
</g>
<g id="Winter_Sock">
</g>
<g id="Winter_Coat">
</g>
<g id="Winter_Calendar">
</g>
<g id="Thermometer_1">
</g>
<g id="Thermometer_2">
</g>
<g id="Cold">
</g>
<g id="Icicle">
</g>
<g id="Snowing">
</g>
<g id="Snow_Shoes_1">
</g>
<g id="Snow_Shoes_2">
</g>
<g id="Sledge">
</g>
<g id="Snow_Boots">
</g>
<g id="Snowcapped_Mountains">
</g>
<g id="Skis">
</g>
<g id="Sky_Glasses">
</g>
<g id="Snowboard">
</g>
<g id="Ice_Skate">
</g>
<g id="Wooden_House">
</g>
<g id="Snowcapped_House">
</g>
<g id="Hot_Drink">
</g>
<g id="Hot_Chocolate">
</g>
<g id="Lantern">
</g>
<g id="Snow_Shovel">
</g>
<g id="Snowman">
</g>
<g id="Reindeer">
</g>
<g id="Snowmobile">
</g>
<g id="Snow_Chain">
</g>
<g id="Slippery_Road">
</g>
</svg>
