<?xml version="1.0" encoding="iso-8859-1"?>
<!-- Generator: Adobe Illustrator 19.2.1, SVG Export Plug-In . SVG Version: 6.00 Build 0)  -->
<svg version="1.1" xmlns="http://www.w3.org/2000/svg" xmlns:xlink="http://www.w3.org/1999/xlink" x="0px" y="0px"
	 viewBox="0 0 24 24" style="enable-background:new 0 0 24 24;" xml:space="preserve">
<g id="Snowflake_1">
</g>
<g id="Snowflake_2">
</g>
<g id="Snowflake_3">
</g>
<g id="Snowflake_4">
</g>
<g id="Winter_Cap_1">
</g>
<g id="Winter_Cap_2">
</g>
<g id="Glowes">
</g>
<g id="Sweater_1">
</g>
<g id="Sweater_2">
</g>
<g id="Sweater_3">
</g>
<g id="Scarf">
</g>
<g id="Winter_Socks">
</g>
<g id="Winter_Sock">
</g>
<g id="Winter_Coat">
	<g>
		<g>
			<path d="M16.5,24h-9C6.673,24,6,23.327,6,22.5v-5.688L5.06,20.81c-0.157,0.783-0.914,1.306-1.714,1.169l-1.093-0.182
				c-0.8-0.133-1.346-0.868-1.241-1.673c0.018-0.094,1.191-5.802,1.494-7.703C2.877,10.091,3.462,8,6.5,8h0.9
				c0.276,0,0.5,0.224,0.5,0.5S7.677,9,7.4,9H6.5c-2.084,0-2.612,1.104-3.006,3.579c-0.306,1.923-1.447,7.475-1.496,7.71
				c-0.029,0.232,0.153,0.478,0.419,0.522l1.093,0.182c0.27,0.044,0.519-0.129,0.573-0.396l1.93-8.212
				c0.058-0.248,0.289-0.416,0.544-0.382C6.81,12.033,7,12.246,7,12.5v10C7,22.776,7.224,23,7.5,23h9c0.276,0,0.5-0.224,0.5-0.5v-10
				c0-0.254,0.19-0.467,0.442-0.497c0.257-0.028,0.487,0.135,0.544,0.382l1.927,8.196c0.056,0.282,0.306,0.456,0.576,0.412
				l1.093-0.182c0.267-0.044,0.449-0.29,0.414-0.558c-0.042-0.2-1.183-5.752-1.489-7.675C20.112,10.104,19.584,9,17.5,9h-0.793
				c-0.276,0-0.5-0.224-0.5-0.5s0.224-0.5,0.5-0.5H17.5c3.038,0,3.623,2.091,3.994,4.421c0.303,1.9,1.476,7.609,1.487,7.667
				c0.111,0.841-0.434,1.576-1.235,1.709l-1.092,0.182c-0.804,0.133-1.559-0.387-1.717-1.186L18,16.811V22.5
				C18,23.327,17.327,24,16.5,24z"/>
		</g>
		<g>
			<path d="M13.5,10H12c-3.8,0-6-0.671-6-4.1C6,3.171,8.621,0,12,0s6,3.171,6,5.9c0,3.071-1.083,3.562-4.154,3.961
				C13.756,9.947,13.634,10,13.5,10z M12,1C9.23,1,7,3.681,7,5.9C7,8.305,8.122,9,12,9h1V7.7c0-0.276,0.224-0.5,0.5-0.5
				S14,7.424,14,7.7v1.131c2.678-0.369,3-0.775,3-2.932C17,3.681,14.77,1,12,1z"/>
		</g>
		<g>
			<path d="M12,8C9.533,8,8,7.042,8,5.5C8,3.881,9.747,2,12,2s4,1.881,4,3.5C16,7.042,14.467,8,12,8z M12,3c-1.616,0-3,1.375-3,2.5
				C9,6.606,10.55,7,12,7s3-0.394,3-1.5C15,4.375,13.616,3,12,3z"/>
		</g>
		<g>
			<path d="M12.5,24c-0.276,0-0.5-0.224-0.5-0.5v-14C12,9.224,12.224,9,12.5,9S13,9.224,13,9.5v14C13,23.776,12.776,24,12.5,24z"/>
		</g>
		<g>
			<path d="M12.5,12h-1c-0.276,0-0.5-0.224-0.5-0.5s0.224-0.5,0.5-0.5h1c0.276,0,0.5,0.224,0.5,0.5S12.776,12,12.5,12z"/>
		</g>
		<g>
			<path d="M12.5,14h-1c-0.276,0-0.5-0.224-0.5-0.5s0.224-0.5,0.5-0.5h1c0.276,0,0.5,0.224,0.5,0.5S12.776,14,12.5,14z"/>
		</g>
		<g>
			<path d="M12.5,16h-1c-0.276,0-0.5-0.224-0.5-0.5s0.224-0.5,0.5-0.5h1c0.276,0,0.5,0.224,0.5,0.5S12.776,16,12.5,16z"/>
		</g>
		<g>
			<path d="M12.5,18h-1c-0.276,0-0.5-0.224-0.5-0.5s0.224-0.5,0.5-0.5h1c0.276,0,0.5,0.224,0.5,0.5S12.776,18,12.5,18z"/>
		</g>
		<g>
			<path d="M12.5,20h-1c-0.276,0-0.5-0.224-0.5-0.5s0.224-0.5,0.5-0.5h1c0.276,0,0.5,0.224,0.5,0.5S12.776,20,12.5,20z"/>
		</g>
		<g>
			<path d="M12.5,22h-1c-0.276,0-0.5-0.224-0.5-0.5s0.224-0.5,0.5-0.5h1c0.276,0,0.5,0.224,0.5,0.5S12.776,22,12.5,22z"/>
		</g>
	</g>
</g>
<g id="Winter_Calendar">
</g>
<g id="Thermometer_1">
</g>
<g id="Thermometer_2">
</g>
<g id="Cold">
</g>
<g id="Icicle">
</g>
<g id="Snowing">
</g>
<g id="Snow_Shoes_1">
</g>
<g id="Snow_Shoes_2">
</g>
<g id="Sledge">
</g>
<g id="Snow_Boots">
</g>
<g id="Snowcapped_Mountains">
</g>
<g id="Skis">
</g>
<g id="Sky_Glasses">
</g>
<g id="Snowboard">
</g>
<g id="Ice_Skate">
</g>
<g id="Wooden_House">
</g>
<g id="Snowcapped_House">
</g>
<g id="Hot_Drink">
</g>
<g id="Hot_Chocolate">
</g>
<g id="Lantern">
</g>
<g id="Snow_Shovel">
</g>
<g id="Snowman">
</g>
<g id="Reindeer">
</g>
<g id="Snowmobile">
</g>
<g id="Snow_Chain">
</g>
<g id="Slippery_Road">
</g>
</svg>
