<?xml version="1.0" encoding="iso-8859-1"?>
<!-- Generator: Adobe Illustrator 19.2.1, SVG Export Plug-In . SVG Version: 6.00 Build 0)  -->
<svg version="1.1" xmlns="http://www.w3.org/2000/svg" xmlns:xlink="http://www.w3.org/1999/xlink" x="0px" y="0px"
	 viewBox="0 0 24 24" style="enable-background:new 0 0 24 24;" xml:space="preserve">
<g id="Snowflake_1">
</g>
<g id="Snowflake_2">
</g>
<g id="Snowflake_3">
</g>
<g id="Snowflake_4">
</g>
<g id="Winter_Cap_1">
</g>
<g id="Winter_Cap_2">
</g>
<g id="Glowes">
</g>
<g id="Sweater_1">
</g>
<g id="Sweater_2">
</g>
<g id="Sweater_3">
</g>
<g id="Scarf">
</g>
<g id="Winter_Socks">
</g>
<g id="Winter_Sock">
</g>
<g id="Winter_Coat">
</g>
<g id="Winter_Calendar">
	<g>
		<g>
			<path d="M5.5,5.5C4.673,5.5,4,4.827,4,4V2c0-0.827,0.673-1.5,1.5-1.5S7,1.173,7,2v2C7,4.827,6.327,5.5,5.5,5.5z M5.5,1.5
				C5.224,1.5,5,1.724,5,2v2c0,0.276,0.224,0.5,0.5,0.5S6,4.276,6,4V2C6,1.724,5.776,1.5,5.5,1.5z"/>
		</g>
		<g>
			<path d="M17.5,5.5C16.673,5.5,16,4.827,16,4V2c0-0.827,0.673-1.5,1.5-1.5S19,1.173,19,2v2C19,4.827,18.327,5.5,17.5,5.5z
				 M17.5,1.5C17.224,1.5,17,1.724,17,2v2c0,0.276,0.224,0.5,0.5,0.5S18,4.276,18,4V2C18,1.724,17.776,1.5,17.5,1.5z"/>
		</g>
		<g>
			<path d="M16.5,3.5h-10C6.224,3.5,6,3.276,6,3s0.224-0.5,0.5-0.5h10C16.776,2.5,17,2.724,17,3S16.776,3.5,16.5,3.5z"/>
		</g>
		<g>
			<path d="M19.5,23.5h-16C1.57,23.5,0,21.93,0,20V6c0-1.93,1.57-3.5,3.5-3.5h1C4.776,2.5,5,2.724,5,3S4.776,3.5,4.5,3.5h-1
				C2.122,3.5,1,4.622,1,6v14c0,1.378,1.122,2.5,2.5,2.5h16c1.378,0,2.5-1.122,2.5-2.5V6c0-1.378-1.122-2.5-2.5-2.5h-1
				C18.224,3.5,18,3.276,18,3s0.224-0.5,0.5-0.5h1C21.43,2.5,23,4.07,23,6v14C23,21.93,21.43,23.5,19.5,23.5z"/>
		</g>
		<g>
			<path d="M22.5,8.5h-22C0.224,8.5,0,8.276,0,8s0.224-0.5,0.5-0.5h22C22.776,7.5,23,7.724,23,8S22.776,8.5,22.5,8.5z"/>
		</g>
		<g>
			<path d="M11.5,20.5c-0.276,0-0.5-0.224-0.5-0.5v-9c0-0.276,0.224-0.5,0.5-0.5S12,10.724,12,11v9C12,20.276,11.776,20.5,11.5,20.5
				z"/>
		</g>
		<g>
			<path d="M7.5,18.5c-0.167,0-0.33-0.083-0.424-0.235c-0.146-0.234-0.075-0.543,0.159-0.689l8-5
				c0.234-0.148,0.543-0.076,0.689,0.159c0.146,0.234,0.075,0.543-0.159,0.689l-8,5C7.683,18.476,7.591,18.5,7.5,18.5z"/>
		</g>
		<g>
			<path d="M15.5,18.5c-0.09,0-0.182-0.024-0.265-0.076l-8-5c-0.234-0.146-0.305-0.455-0.159-0.689
				c0.146-0.234,0.454-0.307,0.689-0.159l8,5c0.234,0.146,0.305,0.455,0.159,0.689C15.829,18.417,15.666,18.5,15.5,18.5z"/>
		</g>
		<g>
			<path d="M11.5,13.5c-0.128,0-0.256-0.049-0.354-0.146l-1-1c-0.195-0.195-0.195-0.512,0-0.707s0.512-0.195,0.707,0l0.646,0.646
				l0.646-0.646c0.195-0.195,0.512-0.195,0.707,0s0.195,0.512,0,0.707l-1,1C11.756,13.451,11.628,13.5,11.5,13.5z"/>
		</g>
		<g>
			<path d="M12.5,19.5c-0.128,0-0.256-0.049-0.354-0.146L11.5,18.707l-0.646,0.646c-0.195,0.195-0.512,0.195-0.707,0
				s-0.195-0.512,0-0.707l1-1c0.195-0.195,0.512-0.195,0.707,0l1,1c0.195,0.195,0.195,0.512,0,0.707
				C12.756,19.451,12.628,19.5,12.5,19.5z"/>
		</g>
		<g>
			<path d="M15,14.997c-0.038,0-0.075-0.004-0.113-0.013l-1.378-0.319c-0.269-0.063-0.437-0.331-0.375-0.6l0.319-1.378
				c0.063-0.269,0.333-0.437,0.6-0.375c0.269,0.063,0.437,0.331,0.375,0.6l-0.207,0.891l0.891,0.206
				c0.269,0.063,0.437,0.331,0.375,0.6C15.433,14.84,15.227,14.997,15,14.997z"/>
		</g>
		<g>
			<path d="M9.06,18.701c-0.038,0-0.075-0.004-0.113-0.013c-0.269-0.063-0.437-0.331-0.375-0.6l0.207-0.891l-0.891-0.206
				c-0.269-0.063-0.437-0.331-0.375-0.6c0.063-0.27,0.333-0.436,0.6-0.375l1.378,0.319c0.269,0.063,0.437,0.331,0.375,0.6
				l-0.319,1.378C9.493,18.544,9.288,18.701,9.06,18.701z"/>
		</g>
		<g>
			<path d="M8,14.997c-0.228,0-0.433-0.156-0.487-0.387c-0.062-0.269,0.105-0.538,0.375-0.6l0.891-0.206l-0.207-0.891
				c-0.062-0.269,0.105-0.538,0.375-0.6c0.271-0.061,0.538,0.105,0.6,0.375l0.319,1.378c0.062,0.269-0.105,0.538-0.375,0.6
				l-1.378,0.319C8.076,14.993,8.038,14.997,8,14.997z"/>
		</g>
		<g>
			<path d="M13.94,18.701c-0.228,0-0.433-0.156-0.487-0.387l-0.319-1.378c-0.062-0.269,0.105-0.538,0.375-0.6l1.378-0.319
				c0.271-0.06,0.538,0.106,0.6,0.375c0.062,0.269-0.105,0.538-0.375,0.6l-0.891,0.206l0.207,0.891
				c0.062,0.269-0.105,0.538-0.375,0.6C14.015,18.697,13.978,18.701,13.94,18.701z"/>
		</g>
	</g>
</g>
<g id="Thermometer_1">
</g>
<g id="Thermometer_2">
</g>
<g id="Cold">
</g>
<g id="Icicle">
</g>
<g id="Snowing">
</g>
<g id="Snow_Shoes_1">
</g>
<g id="Snow_Shoes_2">
</g>
<g id="Sledge">
</g>
<g id="Snow_Boots">
</g>
<g id="Snowcapped_Mountains">
</g>
<g id="Skis">
</g>
<g id="Sky_Glasses">
</g>
<g id="Snowboard">
</g>
<g id="Ice_Skate">
</g>
<g id="Wooden_House">
</g>
<g id="Snowcapped_House">
</g>
<g id="Hot_Drink">
</g>
<g id="Hot_Chocolate">
</g>
<g id="Lantern">
</g>
<g id="Snow_Shovel">
</g>
<g id="Snowman">
</g>
<g id="Reindeer">
</g>
<g id="Snowmobile">
</g>
<g id="Snow_Chain">
</g>
<g id="Slippery_Road">
</g>
</svg>
