<?xml version="1.0" encoding="iso-8859-1"?>
<!-- Generator: Adobe Illustrator 19.2.1, SVG Export Plug-In . SVG Version: 6.00 Build 0)  -->
<svg version="1.1" xmlns="http://www.w3.org/2000/svg" xmlns:xlink="http://www.w3.org/1999/xlink" x="0px" y="0px"
	 viewBox="0 0 24 24" style="enable-background:new 0 0 24 24;" xml:space="preserve">
<g id="Snowflake_1">
</g>
<g id="Snowflake_2">
</g>
<g id="Snowflake_3">
</g>
<g id="Snowflake_4">
</g>
<g id="Winter_Cap_1">
</g>
<g id="Winter_Cap_2">
</g>
<g id="Glowes">
</g>
<g id="Sweater_1">
</g>
<g id="Sweater_2">
</g>
<g id="Sweater_3">
</g>
<g id="Scarf">
</g>
<g id="Winter_Socks">
</g>
<g id="Winter_Sock">
</g>
<g id="Winter_Coat">
</g>
<g id="Winter_Calendar">
</g>
<g id="Thermometer_1">
</g>
<g id="Thermometer_2">
</g>
<g id="Cold">
</g>
<g id="Icicle">
</g>
<g id="Snowing">
</g>
<g id="Snow_Shoes_1">
</g>
<g id="Snow_Shoes_2">
</g>
<g id="Sledge">
</g>
<g id="Snow_Boots">
</g>
<g id="Snowcapped_Mountains">
</g>
<g id="Skis">
</g>
<g id="Sky_Glasses">
</g>
<g id="Snowboard">
</g>
<g id="Ice_Skate">
</g>
<g id="Wooden_House">
	<g>
		<g>
			<path d="M1.498,22c-0.275,0-0.547-0.076-0.787-0.226c-0.702-0.434-0.922-1.359-0.487-2.063l10.5-17
				c0.263-0.426,0.739-0.68,1.276-0.68s1.014,0.254,1.276,0.681l10.5,16.999c0.435,0.704,0.215,1.63-0.488,2.064
				c-0.683,0.424-1.645,0.193-2.064-0.489L12,6.446L2.775,21.288c-0.21,0.34-0.54,0.579-0.931,0.671C1.729,21.986,1.613,22,1.498,22
				z M12,3.031c-0.145,0-0.332,0.054-0.425,0.204l-10.5,17.001c-0.146,0.234-0.072,0.543,0.162,0.688
				c0.113,0.071,0.248,0.092,0.378,0.063c0.13-0.031,0.239-0.11,0.31-0.225l9.65-15.526c0.184-0.295,0.666-0.295,0.85,0
				l9.649,15.525c0.141,0.229,0.458,0.305,0.688,0.164c0.234-0.146,0.308-0.454,0.162-0.688l-10.5-17
				C12.332,3.085,12.145,3.031,12,3.031z"/>
		</g>
		<g>
			<path d="M21.5,23.999h-19c-0.276,0-0.5-0.224-0.5-0.5v-2.5c0-0.276,0.224-0.5,0.5-0.5s0.5,0.224,0.5,0.5v2h18v-2
				c0-0.276,0.224-0.5,0.5-0.5s0.5,0.224,0.5,0.5v2.5C22,23.775,21.776,23.999,21.5,23.999z"/>
		</g>
		<g>
			<path d="M14.5,23.999h-5c-0.276,0-0.5-0.224-0.5-0.5v-7c0-0.276,0.224-0.5,0.5-0.5h5c0.276,0,0.5,0.224,0.5,0.5v7
				C15,23.775,14.776,23.999,14.5,23.999z M10,22.999h4v-6h-4V22.999z"/>
		</g>
		<g>
			<path d="M18.5,12.499c-0.276,0-0.5-0.224-0.5-0.5v-6h-1v2.5c0,0.276-0.224,0.5-0.5,0.5S16,8.775,16,8.499v-3
				c0-0.276,0.224-0.5,0.5-0.5h2c0.276,0,0.5,0.224,0.5,0.5v6.5C19,12.275,18.776,12.499,18.5,12.499z"/>
		</g>
		<g>
			<path d="M17.501,3.999c-0.091,0-0.183-0.024-0.265-0.076c-0.466-0.29-0.732-0.718-0.732-1.174c0-0.455,0.267-0.883,0.732-1.173
				C17.401,1.473,17.5,1.352,17.5,1.25c0-0.101-0.098-0.223-0.262-0.325c-0.234-0.146-0.306-0.454-0.159-0.688
				c0.147-0.235,0.457-0.305,0.688-0.159c0.466,0.29,0.732,0.718,0.732,1.174c0,0.455-0.267,0.883-0.732,1.173
				c-0.165,0.104-0.264,0.225-0.264,0.326c0,0.101,0.098,0.223,0.262,0.325C18,3.221,18.071,3.529,17.925,3.764
				C17.83,3.916,17.667,3.999,17.501,3.999z"/>
		</g>
	</g>
</g>
<g id="Snowcapped_House">
</g>
<g id="Hot_Drink">
</g>
<g id="Hot_Chocolate">
</g>
<g id="Lantern">
</g>
<g id="Snow_Shovel">
</g>
<g id="Snowman">
</g>
<g id="Reindeer">
</g>
<g id="Snowmobile">
</g>
<g id="Snow_Chain">
</g>
<g id="Slippery_Road">
</g>
</svg>
