<?xml version="1.0" encoding="iso-8859-1"?>
<!-- Generator: Adobe Illustrator 19.2.1, SVG Export Plug-In . SVG Version: 6.00 Build 0)  -->
<svg version="1.1" xmlns="http://www.w3.org/2000/svg" xmlns:xlink="http://www.w3.org/1999/xlink" x="0px" y="0px"
	 viewBox="0 0 24 24" style="enable-background:new 0 0 24 24;" xml:space="preserve">
<g id="Sun_Light">
</g>
<g id="Sunglasses">
</g>
<g id="T-Shirt_1">
</g>
<g id="T-Shirt_2">
</g>
<g id="Mini_Dress">
</g>
<g id="Flip-Flops">
</g>
<g id="Temperature">
</g>
<g id="Hot_Temperature">
</g>
<g id="Ice_Lolly">
</g>
<g id="Icecream">
</g>
<g id="Limonade_1">
</g>
<g id="Limonade_2">
</g>
<g id="Hat">
</g>
<g id="Straw_Hat">
</g>
<g id="Deckchair">
</g>
<g id="Sunshade">
</g>
<g id="Suncream">
</g>
<g id="Suntan_Oil">
</g>
<g id="Swimming_Trunks">
</g>
<g id="Bikini">
</g>
<g id="Pool">
</g>
<g id="Pool_Ladder">
</g>
<g id="Grill">
</g>
<g id="Kite_1">
</g>
<g id="Kite_2">
</g>
<g id="Badminton">
	<g id="XMLID_198_">
		<g id="XMLID_199_">
			<path d="M17.45,12C14.14,12,12,9.861,12,6.55C12,2.921,16.186,0,19.65,0C22.049,0,24,1.952,24,4.35C24,7.888,21.139,12,17.45,12z
				 M19.65,1C16.657,1,13,3.561,13,6.55C13,9.295,14.705,11,17.45,11C20.576,11,23,7.425,23,4.35C23,2.503,21.497,1,19.65,1z"/>
		</g>
		<g id="XMLID_200_">
			<path d="M5,19.5c-0.128,0-0.256-0.049-0.354-0.146c-0.195-0.195-0.195-0.512,0-0.707l8.838-8.837
				c0.195-0.195,0.512-0.195,0.707,0s0.195,0.512,0,0.707l-8.838,8.837C5.256,19.451,5.128,19.5,5,19.5z"/>
		</g>
		<g id="XMLID_201_">
			<path d="M1.5,24c-0.128,0-0.256-0.049-0.354-0.146l-1-1c-0.195-0.195-0.195-0.512,0-0.707l3.5-3.5
				c0.471-0.471,1.236-0.471,1.707,0s0.471,1.236,0,1.707l-3.5,3.5C1.756,23.951,1.628,24,1.5,24z M1.207,22.5L1.5,22.793
				l3.146-3.146c0.081-0.081,0.081-0.212,0-0.293c-0.08-0.08-0.213-0.08-0.293,0L1.207,22.5z"/>
		</g>
		<g id="XMLID_202_">
			<path d="M22.985,7.485c-0.128,0-0.256-0.049-0.354-0.146l-5.966-5.966c-0.195-0.195-0.195-0.512,0-0.707s0.512-0.195,0.707,0
				l5.966,5.966c0.195,0.195,0.195,0.512,0,0.707C23.241,7.437,23.113,7.485,22.985,7.485z"/>
		</g>
		<g id="XMLID_203_">
			<path d="M21.486,9.987c-0.128,0-0.256-0.049-0.354-0.146l-6.934-6.935c-0.195-0.195-0.195-0.512,0-0.707s0.512-0.195,0.707,0
				l6.934,6.935c0.195,0.195,0.195,0.512,0,0.707C21.742,9.938,21.614,9.987,21.486,9.987z"/>
		</g>
		<g id="XMLID_204_">
			<path d="M19.173,11.673c-0.128,0-0.256-0.049-0.354-0.146l-6.313-6.314c-0.195-0.195-0.195-0.512,0-0.707s0.512-0.195,0.707,0
				l6.313,6.314c0.195,0.195,0.195,0.512,0,0.707C19.429,11.624,19.301,11.673,19.173,11.673z"/>
		</g>
		<g id="XMLID_205_">
			<path d="M15,11.5c-0.128,0-0.256-0.049-0.354-0.146c-0.195-0.195-0.195-0.512,0-0.707l8.186-8.186
				c0.195-0.195,0.512-0.195,0.707,0s0.195,0.512,0,0.707l-8.186,8.186C15.256,11.451,15.128,11.5,15,11.5z"/>
		</g>
		<g id="XMLID_206_">
			<path d="M13,9.5c-0.128,0-0.256-0.049-0.354-0.146c-0.195-0.195-0.195-0.512,0-0.707l8.203-8.203
				c0.195-0.195,0.512-0.195,0.707,0s0.195,0.512,0,0.707l-8.203,8.203C13.256,9.451,13.128,9.5,13,9.5z"/>
		</g>
	</g>
</g>
<g id="Cooler">
</g>
<g id="Strand_Bag">
</g>
<g id="Towel">
</g>
<g id="Strand_Ball">
</g>
<g id="Beach_Sign">
</g>
<g id="Toos">
</g>
<g id="Bucket">
</g>
<g id="Sand_Castle">
</g>
<g id="Shell_1">
</g>
<g id="Shell_2">
</g>
<g id="Surf_Board">
</g>
<g id="Float">
</g>
<g id="Vacation_Photo">
</g>
<g id="Summer_Time">
</g>
<g id="Boat">
</g>
<g id="Lifebuoy">
</g>
<g id="Lighthouse">
</g>
<g id="Sunset">
</g>
<g id="Dolphin">
</g>
<g id="Starfish">
</g>
<g id="Diving_Mask">
</g>
<g id="Sailboat">
</g>
<g id="Captin_Hat">
</g>
<g id="Eudder">
</g>
</svg>
