<?xml version="1.0" encoding="iso-8859-1"?>
<!-- Generator: Adobe Illustrator 19.2.1, SVG Export Plug-In . SVG Version: 6.00 Build 0)  -->
<svg version="1.1" xmlns="http://www.w3.org/2000/svg" xmlns:xlink="http://www.w3.org/1999/xlink" x="0px" y="0px"
	 viewBox="0 0 24 24" style="enable-background:new 0 0 24 24;" xml:space="preserve">
<g id="Sun_Light">
</g>
<g id="Sunglasses">
</g>
<g id="T-Shirt_1">
</g>
<g id="T-Shirt_2">
</g>
<g id="Mini_Dress">
</g>
<g id="Flip-Flops">
</g>
<g id="Temperature">
</g>
<g id="Hot_Temperature">
</g>
<g id="Ice_Lolly">
</g>
<g id="Icecream">
</g>
<g id="Limonade_1">
</g>
<g id="Limonade_2">
</g>
<g id="Hat">
</g>
<g id="Straw_Hat">
</g>
<g id="Deckchair">
</g>
<g id="Sunshade">
</g>
<g id="Suncream">
</g>
<g id="Suntan_Oil">
</g>
<g id="Swimming_Trunks">
</g>
<g id="Bikini">
</g>
<g id="Pool">
</g>
<g id="Pool_Ladder">
</g>
<g id="Grill">
</g>
<g id="Kite_1">
</g>
<g id="Kite_2">
</g>
<g id="Badminton">
</g>
<g id="Cooler">
</g>
<g id="Strand_Bag">
</g>
<g id="Towel">
</g>
<g id="Strand_Ball">
</g>
<g id="Beach_Sign">
	<g id="XMLID_251_">
		<g id="XMLID_252_">
			<path d="M21.5,21h-19C1.122,21,0,19.879,0,18.5v-13C0,4.121,1.122,3,2.5,3h19C22.878,3,24,4.121,24,5.5v13
				C24,19.879,22.878,21,21.5,21z M2.5,4C1.673,4,1,4.673,1,5.5v13C1,19.327,1.673,20,2.5,20h19c0.827,0,1.5-0.673,1.5-1.5v-13
				C23,4.673,22.327,4,21.5,4H2.5z"/>
		</g>
		<g id="XMLID_253_">
			<path d="M3.5,12h-1C2.224,12,2,11.776,2,11.5v-4C2,7.224,2.224,7,2.5,7h1C4.327,7,5,7.673,5,8.5c0,0.384-0.145,0.734-0.383,1
				C4.855,9.766,5,10.116,5,10.5C5,11.327,4.327,12,3.5,12z M3,11h0.5C3.776,11,4,10.775,4,10.5S3.776,10,3.5,10
				C3.224,10,3,9.776,3,9.5V11z M3,9.5h0.01H3z M3,8v1.5C3,9.224,3.224,9,3.5,9C3.776,9,4,8.775,4,8.5S3.776,8,3.5,8H3z"/>
		</g>
		<g id="XMLID_254_">
			<path d="M3.5,10h-1C2.224,10,2,9.776,2,9.5S2.224,9,2.5,9h1C3.776,9,4,9.224,4,9.5S3.776,10,3.5,10z"/>
		</g>
		<g id="XMLID_255_">
			<path d="M8.5,12h-2C6.224,12,6,11.776,6,11.5v-4C6,7.224,6.224,7,6.5,7h2C8.776,7,9,7.224,9,7.5S8.776,8,8.5,8H7v3h1.5
				C8.776,11,9,11.224,9,11.5S8.776,12,8.5,12z"/>
		</g>
		<g id="XMLID_256_">
			<path d="M8,10H6.5C6.224,10,6,9.776,6,9.5S6.224,9,6.5,9H8c0.276,0,0.5,0.224,0.5,0.5S8.276,10,8,10z"/>
		</g>
		<g id="XMLID_257_">
			<path d="M13.5,12c-0.202,0-0.393-0.124-0.468-0.324L12,8.924l-1.032,2.752c-0.097,0.259-0.386,0.392-0.644,0.292
				c-0.258-0.097-0.389-0.385-0.292-0.644l1.5-4c0.146-0.391,0.79-0.391,0.937,0l1.5,4c0.097,0.259-0.034,0.547-0.292,0.644
				C13.618,11.99,13.559,12,13.5,12z"/>
		</g>
		<g id="XMLID_258_">
			<path d="M13,11h-2c-0.276,0-0.5-0.224-0.5-0.5S10.724,10,11,10h2c0.276,0,0.5,0.224,0.5,0.5S13.276,11,13,11z"/>
		</g>
		<g id="XMLID_259_">
			<path d="M17.5,12c-1.378,0-2.5-1.121-2.5-2.5S16.122,7,17.5,7C17.776,7,18,7.224,18,7.5S17.776,8,17.5,8
				C16.673,8,16,8.673,16,9.5s0.673,1.5,1.5,1.5c0.276,0,0.5,0.224,0.5,0.5S17.776,12,17.5,12z"/>
		</g>
		<g id="XMLID_260_">
			<path d="M19.5,12c-0.276,0-0.5-0.224-0.5-0.5v-4C19,7.224,19.224,7,19.5,7S20,7.224,20,7.5v4C20,11.776,19.776,12,19.5,12z"/>
		</g>
		<g id="XMLID_261_">
			<path d="M21.5,12c-0.276,0-0.5-0.224-0.5-0.5v-4C21,7.224,21.224,7,21.5,7S22,7.224,22,7.5v4C22,11.776,21.776,12,21.5,12z"/>
		</g>
		<g id="XMLID_262_">
			<path d="M21.5,10h-2C19.224,10,19,9.776,19,9.5S19.224,9,19.5,9h2C21.776,9,22,9.224,22,9.5S21.776,10,21.5,10z"/>
		</g>
		<g id="XMLID_263_">
			<path d="M21.5,16h-18C3.224,16,3,15.776,3,15.5S3.224,15,3.5,15h18c0.276,0,0.5,0.224,0.5,0.5S21.776,16,21.5,16z"/>
		</g>
		<g id="XMLID_264_">
			<path d="M19.5,17c-0.184,0-0.36-0.102-0.448-0.276c-0.124-0.247-0.023-0.547,0.224-0.671l1.105-0.553l-1.105-0.553
				c-0.247-0.124-0.347-0.424-0.224-0.671c0.124-0.246,0.424-0.349,0.671-0.224l2,1C21.893,15.138,22,15.311,22,15.5
				s-0.107,0.362-0.276,0.447l-2,1C19.652,16.983,19.576,17,19.5,17z"/>
		</g>
		<g id="XMLID_265_">
			<path d="M2.5,17c-0.128,0-0.256-0.049-0.354-0.146c-0.195-0.195-0.195-0.512,0-0.707L2.793,15.5l-0.646-0.646
				c-0.195-0.195-0.195-0.512,0-0.707s0.512-0.195,0.707,0l1,1c0.195,0.195,0.195,0.512,0,0.707l-1,1C2.756,16.951,2.628,17,2.5,17z
				"/>
		</g>
		<g id="XMLID_266_">
			<path d="M4.5,17c-0.128,0-0.256-0.049-0.354-0.146c-0.195-0.195-0.195-0.512,0-0.707L4.793,15.5l-0.646-0.646
				c-0.195-0.195-0.195-0.512,0-0.707s0.512-0.195,0.707,0l1,1c0.195,0.195,0.195,0.512,0,0.707l-1,1C4.756,16.951,4.628,17,4.5,17z
				"/>
		</g>
	</g>
</g>
<g id="Toos">
</g>
<g id="Bucket">
</g>
<g id="Sand_Castle">
</g>
<g id="Shell_1">
</g>
<g id="Shell_2">
</g>
<g id="Surf_Board">
</g>
<g id="Float">
</g>
<g id="Vacation_Photo">
</g>
<g id="Summer_Time">
</g>
<g id="Boat">
</g>
<g id="Lifebuoy">
</g>
<g id="Lighthouse">
</g>
<g id="Sunset">
</g>
<g id="Dolphin">
</g>
<g id="Starfish">
</g>
<g id="Diving_Mask">
</g>
<g id="Sailboat">
</g>
<g id="Captin_Hat">
</g>
<g id="Eudder">
</g>
</svg>
