<?xml version="1.0" encoding="iso-8859-1"?>
<!-- Generator: Adobe Illustrator 19.2.1, SVG Export Plug-In . SVG Version: 6.00 Build 0)  -->
<svg version="1.1" xmlns="http://www.w3.org/2000/svg" xmlns:xlink="http://www.w3.org/1999/xlink" x="0px" y="0px"
	 viewBox="0 0 24 24" style="enable-background:new 0 0 24 24;" xml:space="preserve">
<g id="Sun_Light">
</g>
<g id="Sunglasses">
</g>
<g id="T-Shirt_1">
</g>
<g id="T-Shirt_2">
</g>
<g id="Mini_Dress">
</g>
<g id="Flip-Flops">
</g>
<g id="Temperature">
</g>
<g id="Hot_Temperature">
</g>
<g id="Ice_Lolly">
</g>
<g id="Icecream">
</g>
<g id="Limonade_1">
</g>
<g id="Limonade_2">
</g>
<g id="Hat">
</g>
<g id="Straw_Hat">
</g>
<g id="Deckchair">
</g>
<g id="Sunshade">
</g>
<g id="Suncream">
</g>
<g id="Suntan_Oil">
</g>
<g id="Swimming_Trunks">
</g>
<g id="Bikini">
	<g id="XMLID_158_">
		<g>
			<path d="M12.5,24h-1c-0.276,0-0.5-0.224-0.5-0.5c0-1.993-1.477-4.488-5.62-5.515c-0.136-0.034-0.251-0.122-0.318-0.244
				c-0.066-0.122-0.08-0.267-0.036-0.399l0.5-1.5c0.082-0.247,0.331-0.389,0.595-0.327l1.101,0.276
				C9.146,16.278,10.026,16.5,12,16.5s2.854-0.222,4.779-0.709l1.101-0.276c0.264-0.062,0.513,0.08,0.595,0.327l0.5,1.5
				c0.044,0.132,0.03,0.277-0.036,0.399c-0.067,0.122-0.183,0.21-0.318,0.244C14.477,19.012,13,21.507,13,23.5
				C13,23.776,12.776,24,12.5,24z M11.976,23h0.049c0.213-2.179,1.837-4.688,5.833-5.845l-0.186-0.557l-0.647,0.162
				C15.076,17.252,14.099,17.5,12,17.5s-3.076-0.248-5.024-0.74l-0.647-0.162l-0.186,0.557C10.139,18.313,11.763,20.821,11.976,23z"
				/>
		</g>
		<g>
			<path d="M17,8c-1.966,0-3.302-1.436-3.75-2h-2.5C10.302,6.564,8.966,8,7,8C5.794,8,4,7.201,4,5c0-1.5,1.867-4.44,2.08-4.771
				C6.175,0.081,6.346-0.006,6.517,0c0.176,0.006,0.336,0.104,0.421,0.257C6.954,0.288,8.579,3.198,10.683,5h2.635
				c2.106-1.805,3.729-4.712,3.745-4.742C17.147,0.104,17.308,0.006,17.483,0c0.188-0.005,0.342,0.081,0.437,0.229
				C18.133,0.56,20,3.5,20,5C20,7.201,18.206,8,17,8z M14.191,5.563C14.652,6.081,15.66,7,17,7c0.691,0,2-0.418,2-2
				c0-0.81-0.867-2.466-1.494-3.533C16.894,2.445,15.685,4.216,14.191,5.563z M6.494,1.467C5.867,2.534,5,4.19,5,5
				c0,1.582,1.309,2,2,2c1.35,0,2.353-0.918,2.811-1.436C8.315,4.217,7.106,2.445,6.494,1.467z"/>
		</g>
	</g>
</g>
<g id="Pool">
</g>
<g id="Pool_Ladder">
</g>
<g id="Grill">
</g>
<g id="Kite_1">
</g>
<g id="Kite_2">
</g>
<g id="Badminton">
</g>
<g id="Cooler">
</g>
<g id="Strand_Bag">
</g>
<g id="Towel">
</g>
<g id="Strand_Ball">
</g>
<g id="Beach_Sign">
</g>
<g id="Toos">
</g>
<g id="Bucket">
</g>
<g id="Sand_Castle">
</g>
<g id="Shell_1">
</g>
<g id="Shell_2">
</g>
<g id="Surf_Board">
</g>
<g id="Float">
</g>
<g id="Vacation_Photo">
</g>
<g id="Summer_Time">
</g>
<g id="Boat">
</g>
<g id="Lifebuoy">
</g>
<g id="Lighthouse">
</g>
<g id="Sunset">
</g>
<g id="Dolphin">
</g>
<g id="Starfish">
</g>
<g id="Diving_Mask">
</g>
<g id="Sailboat">
</g>
<g id="Captin_Hat">
</g>
<g id="Eudder">
</g>
</svg>
