<?xml version="1.0" encoding="iso-8859-1"?>
<!-- Generator: Adobe Illustrator 19.2.1, SVG Export Plug-In . SVG Version: 6.00 Build 0)  -->
<svg version="1.1" xmlns="http://www.w3.org/2000/svg" xmlns:xlink="http://www.w3.org/1999/xlink" x="0px" y="0px"
	 viewBox="0 0 24 24" style="enable-background:new 0 0 24 24;" xml:space="preserve">
<g id="Sun_Light">
</g>
<g id="Sunglasses">
</g>
<g id="T-Shirt_1">
</g>
<g id="T-Shirt_2">
</g>
<g id="Mini_Dress">
</g>
<g id="Flip-Flops">
</g>
<g id="Temperature">
</g>
<g id="Hot_Temperature">
</g>
<g id="Ice_Lolly">
</g>
<g id="Icecream">
</g>
<g id="Limonade_1">
</g>
<g id="Limonade_2">
</g>
<g id="Hat">
</g>
<g id="Straw_Hat">
</g>
<g id="Deckchair">
</g>
<g id="Sunshade">
</g>
<g id="Suncream">
</g>
<g id="Suntan_Oil">
</g>
<g id="Swimming_Trunks">
</g>
<g id="Bikini">
</g>
<g id="Pool">
</g>
<g id="Pool_Ladder">
</g>
<g id="Grill">
</g>
<g id="Kite_1">
</g>
<g id="Kite_2">
</g>
<g id="Badminton">
</g>
<g id="Cooler">
</g>
<g id="Strand_Bag">
</g>
<g id="Towel">
</g>
<g id="Strand_Ball">
</g>
<g id="Beach_Sign">
</g>
<g id="Toos">
</g>
<g id="Bucket">
</g>
<g id="Sand_Castle">
</g>
<g id="Shell_1">
</g>
<g id="Shell_2">
</g>
<g id="Surf_Board">
</g>
<g id="Float">
</g>
<g id="Vacation_Photo">
</g>
<g id="Summer_Time">
</g>
<g id="Boat">
	<g id="XMLID_299_">
		<g id="XMLID_300_">
			<path d="M14.5,24h-6c-0.709,0-1.327-0.5-1.469-1.189C6.721,21.31,6,17.494,6,14.5c0-8.376,4.915-14.09,5.124-14.329
				c0.19-0.217,0.563-0.217,0.753,0C12.085,0.41,17,6.124,17,14.5c0,2.96-0.721,6.797-1.031,8.31C15.828,23.499,15.21,24,14.5,24z
				 M11.5,1.304C10.356,2.821,7,7.84,7,14.5c0,2.983,0.773,6.961,1.011,8.108C8.058,22.836,8.263,23,8.5,23h6
				c0.237,0,0.443-0.165,0.49-0.392C15.293,21.126,16,17.369,16,14.5C16,7.84,12.644,2.821,11.5,1.304z"/>
		</g>
		<g id="XMLID_301_">
			<path d="M14.946,7H8.05c-0.276,0-0.5-0.224-0.5-0.5S7.774,6,8.05,6h6.896c0.276,0,0.5,0.224,0.5,0.5S15.222,7,14.946,7z"/>
		</g>
		<g id="XMLID_302_">
			<path d="M14.067,5H8.969c-0.276,0-0.5-0.224-0.5-0.5S8.692,4,8.969,4h5.098c0.276,0,0.5,0.224,0.5,0.5S14.343,5,14.067,5z"/>
		</g>
		<g id="XMLID_303_">
			<path d="M15.896,21H7.114c-0.276,0-0.5-0.224-0.5-0.5s0.224-0.5,0.5-0.5h8.782c0.276,0,0.5,0.224,0.5,0.5S16.172,21,15.896,21z"
				/>
		</g>
		<g id="XMLID_304_">
			<path d="M16.5,16h-10C6.224,16,6,15.776,6,15.5S6.224,15,6.5,15h10c0.276,0,0.5,0.224,0.5,0.5S16.776,16,16.5,16z"/>
		</g>
		<g id="XMLID_305_">
			<path d="M16.476,14H6.524c-0.276,0-0.5-0.224-0.5-0.5s0.224-0.5,0.5-0.5h9.951c0.276,0,0.5,0.224,0.5,0.5S16.752,14,16.476,14z"
				/>
		</g>
		<g id="XMLID_306_">
			<path d="M22.5,16c-0.075,0-0.151-0.017-0.223-0.053l-8-4c-0.247-0.124-0.347-0.424-0.224-0.671
				c0.124-0.246,0.425-0.348,0.671-0.224l8,4c0.247,0.124,0.347,0.424,0.224,0.671C22.859,15.898,22.683,16,22.5,16z"/>
		</g>
		<g id="XMLID_307_">
			<path d="M0.5,16c-0.184,0-0.36-0.102-0.448-0.276c-0.124-0.247-0.023-0.547,0.224-0.671l8-4c0.247-0.124,0.547-0.022,0.671,0.224
				c0.124,0.247,0.023,0.547-0.224,0.671l-8,4C0.652,15.983,0.576,16,0.5,16z"/>
		</g>
	</g>
</g>
<g id="Lifebuoy">
</g>
<g id="Lighthouse">
</g>
<g id="Sunset">
</g>
<g id="Dolphin">
</g>
<g id="Starfish">
</g>
<g id="Diving_Mask">
</g>
<g id="Sailboat">
</g>
<g id="Captin_Hat">
</g>
<g id="Eudder">
</g>
</svg>
