<?xml version="1.0" encoding="iso-8859-1"?>
<!-- Generator: Adobe Illustrator 19.2.1, SVG Export Plug-In . SVG Version: 6.00 Build 0)  -->
<svg version="1.1" xmlns="http://www.w3.org/2000/svg" xmlns:xlink="http://www.w3.org/1999/xlink" x="0px" y="0px"
	 viewBox="0 0 24 24" style="enable-background:new 0 0 24 24;" xml:space="preserve">
<g id="Sun_Light">
</g>
<g id="Sunglasses">
</g>
<g id="T-Shirt_1">
</g>
<g id="T-Shirt_2">
</g>
<g id="Mini_Dress">
</g>
<g id="Flip-Flops">
</g>
<g id="Temperature">
</g>
<g id="Hot_Temperature">
</g>
<g id="Ice_Lolly">
</g>
<g id="Icecream">
</g>
<g id="Limonade_1">
</g>
<g id="Limonade_2">
</g>
<g id="Hat">
</g>
<g id="Straw_Hat">
</g>
<g id="Deckchair">
</g>
<g id="Sunshade">
</g>
<g id="Suncream">
</g>
<g id="Suntan_Oil">
</g>
<g id="Swimming_Trunks">
</g>
<g id="Bikini">
</g>
<g id="Pool">
</g>
<g id="Pool_Ladder">
</g>
<g id="Grill">
</g>
<g id="Kite_1">
</g>
<g id="Kite_2">
</g>
<g id="Badminton">
</g>
<g id="Cooler">
</g>
<g id="Strand_Bag">
</g>
<g id="Towel">
</g>
<g id="Strand_Ball">
</g>
<g id="Beach_Sign">
</g>
<g id="Toos">
</g>
<g id="Bucket">
	<g id="XMLID_271_">
		<g id="XMLID_272_">
			<path d="M12,11c-3.853,0-8-0.782-8-2.5S8.147,6,12,6s8,0.782,8,2.5S15.853,11,12,11z M12,7C7.381,7,5,8.052,5,8.5S7.381,10,12,10
				s7-1.052,7-1.5S16.619,7,12,7z"/>
		</g>
		<g id="XMLID_273_">
			<path d="M12,14c-3.853,0-8-0.782-8-2.5v-3C4,8.224,4.224,8,4.5,8S5,8.224,5,8.5v3c0,0.448,2.381,1.5,7,1.5s7-1.052,7-1.5v-3
				C19,8.224,19.224,8,19.5,8S20,8.224,20,8.5v3C20,13.218,15.853,14,12,14z"/>
		</g>
		<g id="XMLID_274_">
			<path d="M12,24c-1.151,0-4.859-0.104-4.996-1.424l-2.49-10.239c-0.065-0.269,0.1-0.539,0.368-0.604
				c0.267-0.06,0.539,0.1,0.604,0.368l2.5,10.281c0,0.003,0.001,0.005,0.002,0.008C8.265,22.61,9.67,23,12,23s3.735-0.39,4.012-0.61
				c0.001-0.003,0.001-0.005,0.002-0.008l2.5-10.281c0.065-0.268,0.335-0.427,0.604-0.368c0.268,0.065,0.433,0.336,0.368,0.604
				l-2.49,10.239C16.859,23.896,13.151,24,12,24z M16,22.499L16,22.499L16,22.499z M8,22.499L8,22.499L8,22.499z"/>
		</g>
		<g id="XMLID_275_">
			<path d="M19.5,9C19.224,9,19,8.776,19,8.5V8c0-3.859-3.14-7-7-7S5,4.141,5,8v0.5C5,8.776,4.776,9,4.5,9S4,8.776,4,8.5V8
				c0-4.411,3.589-8,8-8s8,3.589,8,8v0.5C20,8.776,19.776,9,19.5,9z"/>
		</g>
	</g>
</g>
<g id="Sand_Castle">
</g>
<g id="Shell_1">
</g>
<g id="Shell_2">
</g>
<g id="Surf_Board">
</g>
<g id="Float">
</g>
<g id="Vacation_Photo">
</g>
<g id="Summer_Time">
</g>
<g id="Boat">
</g>
<g id="Lifebuoy">
</g>
<g id="Lighthouse">
</g>
<g id="Sunset">
</g>
<g id="Dolphin">
</g>
<g id="Starfish">
</g>
<g id="Diving_Mask">
</g>
<g id="Sailboat">
</g>
<g id="Captin_Hat">
</g>
<g id="Eudder">
</g>
</svg>
