<?xml version="1.0" encoding="iso-8859-1"?>
<!-- Generator: Adobe Illustrator 19.2.1, SVG Export Plug-In . SVG Version: 6.00 Build 0)  -->
<svg version="1.1" xmlns="http://www.w3.org/2000/svg" xmlns:xlink="http://www.w3.org/1999/xlink" x="0px" y="0px"
	 viewBox="0 0 24 24" style="enable-background:new 0 0 24 24;" xml:space="preserve">
<g id="Sun_Light">
</g>
<g id="Sunglasses">
</g>
<g id="T-Shirt_1">
</g>
<g id="T-Shirt_2">
</g>
<g id="Mini_Dress">
</g>
<g id="Flip-Flops">
</g>
<g id="Temperature">
</g>
<g id="Hot_Temperature">
</g>
<g id="Ice_Lolly">
</g>
<g id="Icecream">
</g>
<g id="Limonade_1">
</g>
<g id="Limonade_2">
</g>
<g id="Hat">
</g>
<g id="Straw_Hat">
</g>
<g id="Deckchair">
</g>
<g id="Sunshade">
</g>
<g id="Suncream">
</g>
<g id="Suntan_Oil">
</g>
<g id="Swimming_Trunks">
</g>
<g id="Bikini">
</g>
<g id="Pool">
</g>
<g id="Pool_Ladder">
</g>
<g id="Grill">
</g>
<g id="Kite_1">
</g>
<g id="Kite_2">
</g>
<g id="Badminton">
</g>
<g id="Cooler">
</g>
<g id="Strand_Bag">
</g>
<g id="Towel">
</g>
<g id="Strand_Ball">
</g>
<g id="Beach_Sign">
</g>
<g id="Toos">
</g>
<g id="Bucket">
</g>
<g id="Sand_Castle">
</g>
<g id="Shell_1">
</g>
<g id="Shell_2">
</g>
<g id="Surf_Board">
</g>
<g id="Float">
</g>
<g id="Vacation_Photo">
</g>
<g id="Summer_Time">
</g>
<g id="Boat">
</g>
<g id="Lifebuoy">
</g>
<g id="Lighthouse">
</g>
<g id="Sunset">
</g>
<g id="Dolphin">
</g>
<g id="Starfish">
</g>
<g id="Diving_Mask">
</g>
<g id="Sailboat">
</g>
<g id="Captin_Hat">
	<g id="XMLID_384_">
		<g id="XMLID_414_">
			<path d="M20,12.545c-0.191,0-0.374-0.11-0.457-0.296c-0.112-0.253,0.001-0.548,0.253-0.661C21.515,10.821,22.5,9.878,22.5,9
				c0-1.429-7.817-4-10.5-4C9.451,5,1.5,7.598,1.5,9c0,0.864,0.987,1.803,2.71,2.575c0.252,0.113,0.364,0.409,0.251,0.661
				c-0.113,0.251-0.405,0.366-0.661,0.251C1.672,11.533,0.5,10.294,0.5,9c0-2.631,9.383-5,11.5-5s11.5,2.369,11.5,5
				c0,1.31-1.171,2.553-3.296,3.502C20.138,12.531,20.068,12.545,20,12.545z"/>
		</g>
		<g id="XMLID_413_">
			<path d="M13.052,15.002c-0.149,0-0.301,0-0.454-0.001L11.602,15c-4.852-0.021-7.586-0.2-8.061-1.302
				C3.514,13.636,3.5,13.568,3.5,13.5V12c0-0.25,0.186-0.462,0.434-0.495C3.971,11.499,7.725,11,12,11c4.32,0,8.03,0.5,8.067,0.505
				C20.315,11.538,20.5,11.75,20.5,12v1.5c0,0.071-0.016,0.142-0.045,0.206C19.968,14.783,17.574,15.002,13.052,15.002z M12,14
				l0.601,0.001c1.572,0.008,6.277,0.019,6.899-0.646v-0.914C18.411,12.313,15.397,12,12,12c-3.366,0-6.403,0.314-7.5,0.442v0.91
				c0.649,0.655,5.471,0.649,7.101,0.647H12z M20,13.5h0.01H20z"/>
		</g>
		<g id="XMLID_412_">
			<path d="M12,20c-4.273,0-6.87-0.723-7.938-2.21c-0.917-1.275-0.431-2.721-0.169-3.497c0.052-0.156,0.099-0.284,0.114-0.378
				c0.047-0.272,0.3-0.457,0.578-0.408c0.271,0.047,0.454,0.306,0.408,0.578c-0.022,0.129-0.08,0.31-0.153,0.527
				c-0.232,0.69-0.584,1.735,0.033,2.594C5.461,18.024,7.175,19,12,19c4.827,0,6.54-0.971,7.128-1.784
				c0.612-0.851,0.265-1.896,0.035-2.587c-0.075-0.224-0.134-0.411-0.156-0.547c-0.046-0.272,0.139-0.53,0.411-0.575
				c0.268-0.05,0.529,0.138,0.575,0.411c0.017,0.098,0.064,0.232,0.119,0.396c0.258,0.776,0.739,2.222-0.174,3.487
				C18.871,19.28,16.274,20,12,20z"/>
		</g>
		<g id="XMLID_411_">
			<path d="M12,10c-0.276,0-0.5-0.224-0.5-0.5v-3C11.5,6.224,11.724,6,12,6s0.5,0.224,0.5,0.5v3C12.5,9.776,12.276,10,12,10z"/>
		</g>
		<g id="XMLID_386_">
			<path d="M12,10c-1.425,0-2.5-0.645-2.5-1.5C9.5,8.224,9.724,8,10,8s0.5,0.224,0.5,0.5C10.5,8.624,11.032,9,12,9
				s1.5-0.376,1.5-0.5C13.5,8.224,13.724,8,14,8s0.5,0.224,0.5,0.5C14.5,9.355,13.425,10,12,10z"/>
		</g>
		<g id="XMLID_385_">
			<path d="M12.5,7.5h-1C11.224,7.5,11,7.276,11,7s0.224-0.5,0.5-0.5h1C12.776,6.5,13,6.724,13,7S12.776,7.5,12.5,7.5z"/>
		</g>
	</g>
</g>
<g id="Eudder">
</g>
</svg>
