<?xml version="1.0" encoding="iso-8859-1"?>
<!-- Generator: Adobe Illustrator 19.2.1, SVG Export Plug-In . SVG Version: 6.00 Build 0)  -->
<svg version="1.1" xmlns="http://www.w3.org/2000/svg" xmlns:xlink="http://www.w3.org/1999/xlink" x="0px" y="0px"
	 viewBox="0 0 24 24" style="enable-background:new 0 0 24 24;" xml:space="preserve">
<g id="Sun_Light">
</g>
<g id="Sunglasses">
</g>
<g id="T-Shirt_1">
</g>
<g id="T-Shirt_2">
</g>
<g id="Mini_Dress">
</g>
<g id="Flip-Flops">
</g>
<g id="Temperature">
</g>
<g id="Hot_Temperature">
</g>
<g id="Ice_Lolly">
</g>
<g id="Icecream">
</g>
<g id="Limonade_1">
</g>
<g id="Limonade_2">
</g>
<g id="Hat">
</g>
<g id="Straw_Hat">
</g>
<g id="Deckchair">
</g>
<g id="Sunshade">
</g>
<g id="Suncream">
</g>
<g id="Suntan_Oil">
</g>
<g id="Swimming_Trunks">
</g>
<g id="Bikini">
</g>
<g id="Pool">
</g>
<g id="Pool_Ladder">
</g>
<g id="Grill">
</g>
<g id="Kite_1">
</g>
<g id="Kite_2">
</g>
<g id="Badminton">
</g>
<g id="Cooler">
	<g id="XMLID_207_">
		<g id="XMLID_208_">
			<path d="M12,14.997c-1.654,0-3-1.346-3-3s1.346-3,3-3s3,1.346,3,3S13.654,14.997,12,14.997z M12,9.997c-1.103,0-2,0.897-2,2
				c0,1.103,0.897,2,2,2s2-0.897,2-2C14,10.894,13.103,9.997,12,9.997z"/>
		</g>
		<g id="XMLID_209_">
			<path d="M10.304,23.999c-1.12,0-2.206-0.175-2.995-0.575C6.227,22.875,6,22.076,6,21.503c0-1.043,0.621-1.497,1.34-2.024
				c1.021-0.747,2.418-1.771,3.549-5.229c0.083-0.252,0.349-0.4,0.603-0.328c0.475,0.123,0.78,0.093,1.181-0.051
				c0.189-0.069,0.4-0.017,0.537,0.13c1.244,1.344,2.98,4.411,2.757,6.729c-0.091,0.943-0.484,1.676-1.171,2.177
				C13.887,23.571,12.054,23.999,10.304,23.999z M11.697,14.979c-1.21,3.436-2.74,4.556-3.767,5.308C7.239,20.792,7,20.993,7,21.503
				c0,0.159,0,0.643,0.761,1.028c1.636,0.83,5.237,0.451,6.444-0.432c0.452-0.331,0.702-0.811,0.766-1.466
				c0.175-1.814-1.161-4.378-2.291-5.722C12.351,14.995,12.037,15.02,11.697,14.979z"/>
		</g>
		<g id="XMLID_210_">
			<path d="M3.688,15.997c-0.142,0-0.28-0.007-0.418-0.02c-0.943-0.091-1.677-0.485-2.179-1.172
				c-1.09-1.489-1.544-5.463-0.518-7.486c0.549-1.082,1.348-1.309,1.921-1.309c1.043,0,1.498,0.621,2.024,1.34
				c0.747,1.021,1.77,2.417,5.225,3.548c0.251,0.082,0.395,0.345,0.329,0.6C10.022,11.689,10,11.847,10,11.997
				c0,0.221,0.042,0.444,0.129,0.681c0.069,0.189,0.018,0.401-0.13,0.538C8.736,14.388,5.946,15.997,3.688,15.997z M2.494,7.011
				c-0.159,0-0.643,0-1.028,0.761c-0.83,1.635-0.451,5.236,0.432,6.444c0.331,0.452,0.812,0.703,1.468,0.767
				c1.804,0.163,4.38-1.162,5.722-2.294C9.029,12.456,9,12.224,9,11.997c0-0.095,0.005-0.191,0.017-0.289
				c-3.434-1.21-4.555-2.741-5.306-3.767C3.205,7.25,3.004,7.011,2.494,7.011z"/>
		</g>
		<g id="XMLID_211_">
			<path d="M11.154,10.154c-0.137,0-0.271-0.056-0.367-0.161C9.544,8.649,7.81,5.583,8.034,3.269
				C8.125,2.327,8.52,1.595,9.205,1.093l0,0c1.489-1.088,5.464-1.542,7.486-0.517C17.773,1.125,18,1.924,18,2.497
				c0,1.043-0.621,1.498-1.341,2.024c-1.02,0.747-2.417,1.77-3.547,5.223c-0.083,0.25-0.349,0.394-0.603,0.328
				c-0.476-0.125-0.782-0.094-1.186,0.052C11.269,10.144,11.211,10.154,11.154,10.154z M13.711,1.007
				c-1.535,0-3.176,0.352-3.916,0.894l0,0c-0.451,0.33-0.702,0.81-0.766,1.465c-0.176,1.811,1.159,4.373,2.288,5.716
				c0.33-0.082,0.647-0.106,0.986-0.067c1.21-3.431,2.74-4.55,3.766-5.301C16.761,3.208,17,3.007,17,2.497
				c0-0.159,0-0.642-0.761-1.028C15.606,1.147,14.68,1.007,13.711,1.007z M9.5,1.497h0.01H9.5z"/>
		</g>
		<g id="XMLID_212_">
			<path d="M21.506,17.997c-1.043,0-1.497-0.621-2.024-1.34c-0.747-1.021-1.771-2.419-5.229-3.55
				c-0.252-0.082-0.396-0.346-0.328-0.603C13.976,12.31,14,12.148,14,11.997c0-0.217-0.041-0.437-0.126-0.673
				c-0.067-0.189-0.016-0.399,0.131-0.536c1.343-1.244,4.413-2.977,6.727-2.758c0.943,0.091,1.677,0.485,2.178,1.171
				c1.09,1.489,1.544,5.463,0.518,7.486C22.878,17.771,22.079,17.997,21.506,17.997z M14.981,12.299
				c3.436,1.211,4.556,2.741,5.308,3.768c0.506,0.691,0.707,0.931,1.217,0.931c0.159,0,0.643,0,1.028-0.761
				c0.83-1.636,0.451-5.237-0.432-6.444c0,0,0,0,0,0c-0.331-0.452-0.811-0.703-1.467-0.766c-1.813-0.18-4.379,1.162-5.72,2.292
				C14.973,11.547,15,11.771,15,11.997C15,12.096,14.994,12.196,14.981,12.299z"/>
		</g>
	</g>
</g>
<g id="Strand_Bag">
</g>
<g id="Towel">
</g>
<g id="Strand_Ball">
</g>
<g id="Beach_Sign">
</g>
<g id="Toos">
</g>
<g id="Bucket">
</g>
<g id="Sand_Castle">
</g>
<g id="Shell_1">
</g>
<g id="Shell_2">
</g>
<g id="Surf_Board">
</g>
<g id="Float">
</g>
<g id="Vacation_Photo">
</g>
<g id="Summer_Time">
</g>
<g id="Boat">
</g>
<g id="Lifebuoy">
</g>
<g id="Lighthouse">
</g>
<g id="Sunset">
</g>
<g id="Dolphin">
</g>
<g id="Starfish">
</g>
<g id="Diving_Mask">
</g>
<g id="Sailboat">
</g>
<g id="Captin_Hat">
</g>
<g id="Eudder">
</g>
</svg>
