<?xml version="1.0" encoding="iso-8859-1"?>
<!-- Generator: Adobe Illustrator 19.2.1, SVG Export Plug-In . SVG Version: 6.00 Build 0)  -->
<svg version="1.1" xmlns="http://www.w3.org/2000/svg" xmlns:xlink="http://www.w3.org/1999/xlink" x="0px" y="0px"
	 viewBox="0 0 24 24" style="enable-background:new 0 0 24 24;" xml:space="preserve">
<g id="Sun_Light">
</g>
<g id="Sunglasses">
</g>
<g id="T-Shirt_1">
</g>
<g id="T-Shirt_2">
</g>
<g id="Mini_Dress">
</g>
<g id="Flip-Flops">
</g>
<g id="Temperature">
</g>
<g id="Hot_Temperature">
</g>
<g id="Ice_Lolly">
</g>
<g id="Icecream">
</g>
<g id="Limonade_1">
</g>
<g id="Limonade_2">
</g>
<g id="Hat">
</g>
<g id="Straw_Hat">
</g>
<g id="Deckchair">
	<g id="XMLID_136_">
		<g id="XMLID_137_">
			<path d="M5.662,21.993c-0.228,0-0.457-0.051-0.67-0.157l-4.17-2.085c-0.407-0.204-0.697-0.576-0.794-1.02
				c-0.097-0.445,0.01-0.903,0.294-1.259l3.795-4.308c0.047-0.054,0.106-0.097,0.172-0.126l8.841-3.929L16.96,1.82
				c0.174-0.349,0.482-0.616,0.862-0.743c0.381-0.125,0.788-0.097,1.146,0.082l4.211,2.105c0.358,0.179,0.625,0.487,0.752,0.867
				c0.126,0.38,0.098,0.787-0.082,1.146c-0.001,0.003-0.003,0.006-0.005,0.009l-3.912,7.44c-0.052,0.099-0.137,0.178-0.239,0.224
				l-8.899,3.955l-3.976,4.542C6.539,21.799,6.105,21.993,5.662,21.993z M4.794,13.906l-3.708,4.208
				c-0.08,0.1-0.115,0.253-0.083,0.401c0.032,0.148,0.129,0.272,0.265,0.34l4.17,2.085c0.208,0.105,0.467,0.048,0.614-0.135
				l4.063-4.642c0.047-0.055,0.106-0.098,0.173-0.128l8.841-3.929l3.828-7.281c0.058-0.119,0.067-0.253,0.025-0.378
				c-0.042-0.126-0.131-0.229-0.251-0.289l-4.211-2.105c-0.248-0.122-0.547-0.023-0.671,0.224l-3.917,7.45
				c-0.052,0.099-0.137,0.178-0.239,0.224L4.794,13.906z M23.403,5.053h0.01H23.403z"/>
		</g>
		<g id="XMLID_138_">
			<path d="M11.491,19.994c-0.076,0-0.153-0.018-0.224-0.053L8.746,18.68c-0.247-0.124-0.347-0.424-0.224-0.671
				s0.425-0.346,0.671-0.224l1.442,0.721l-0.618-1.854c-0.087-0.262,0.054-0.545,0.316-0.632c0.265-0.089,0.545,0.055,0.632,0.316
				l1,3c0.064,0.192,0.006,0.403-0.146,0.536C11.726,19.952,11.609,19.994,11.491,19.994z"/>
		</g>
		<g id="XMLID_139_">
			<path d="M20.491,15.994c-0.076,0-0.153-0.017-0.224-0.053l-3.647-1.823c-0.247-0.124-0.347-0.424-0.224-0.671
				s0.424-0.346,0.671-0.224l2.567,1.284l-0.618-1.855c-0.087-0.262,0.054-0.545,0.316-0.632c0.264-0.088,0.545,0.054,0.632,0.316
				l1,3c0.064,0.192,0.006,0.403-0.146,0.536C20.726,15.952,20.609,15.994,20.491,15.994z"/>
		</g>
	</g>
</g>
<g id="Sunshade">
</g>
<g id="Suncream">
</g>
<g id="Suntan_Oil">
</g>
<g id="Swimming_Trunks">
</g>
<g id="Bikini">
</g>
<g id="Pool">
</g>
<g id="Pool_Ladder">
</g>
<g id="Grill">
</g>
<g id="Kite_1">
</g>
<g id="Kite_2">
</g>
<g id="Badminton">
</g>
<g id="Cooler">
</g>
<g id="Strand_Bag">
</g>
<g id="Towel">
</g>
<g id="Strand_Ball">
</g>
<g id="Beach_Sign">
</g>
<g id="Toos">
</g>
<g id="Bucket">
</g>
<g id="Sand_Castle">
</g>
<g id="Shell_1">
</g>
<g id="Shell_2">
</g>
<g id="Surf_Board">
</g>
<g id="Float">
</g>
<g id="Vacation_Photo">
</g>
<g id="Summer_Time">
</g>
<g id="Boat">
</g>
<g id="Lifebuoy">
</g>
<g id="Lighthouse">
</g>
<g id="Sunset">
</g>
<g id="Dolphin">
</g>
<g id="Starfish">
</g>
<g id="Diving_Mask">
</g>
<g id="Sailboat">
</g>
<g id="Captin_Hat">
</g>
<g id="Eudder">
</g>
</svg>
