<?xml version="1.0" encoding="iso-8859-1"?>
<!-- Generator: Adobe Illustrator 19.2.1, SVG Export Plug-In . SVG Version: 6.00 Build 0)  -->
<svg version="1.1" xmlns="http://www.w3.org/2000/svg" xmlns:xlink="http://www.w3.org/1999/xlink" x="0px" y="0px"
	 viewBox="0 0 24 24" style="enable-background:new 0 0 24 24;" xml:space="preserve">
<g id="Sun_Light">
</g>
<g id="Sunglasses">
</g>
<g id="T-Shirt_1">
</g>
<g id="T-Shirt_2">
</g>
<g id="Mini_Dress">
</g>
<g id="Flip-Flops">
</g>
<g id="Temperature">
</g>
<g id="Hot_Temperature">
</g>
<g id="Ice_Lolly">
</g>
<g id="Icecream">
</g>
<g id="Limonade_1">
</g>
<g id="Limonade_2">
</g>
<g id="Hat">
</g>
<g id="Straw_Hat">
</g>
<g id="Deckchair">
</g>
<g id="Sunshade">
</g>
<g id="Suncream">
</g>
<g id="Suntan_Oil">
</g>
<g id="Swimming_Trunks">
</g>
<g id="Bikini">
</g>
<g id="Pool">
</g>
<g id="Pool_Ladder">
</g>
<g id="Grill">
</g>
<g id="Kite_1">
</g>
<g id="Kite_2">
</g>
<g id="Badminton">
</g>
<g id="Cooler">
</g>
<g id="Strand_Bag">
</g>
<g id="Towel">
</g>
<g id="Strand_Ball">
</g>
<g id="Beach_Sign">
</g>
<g id="Toos">
</g>
<g id="Bucket">
</g>
<g id="Sand_Castle">
</g>
<g id="Shell_1">
</g>
<g id="Shell_2">
</g>
<g id="Surf_Board">
</g>
<g id="Float">
</g>
<g id="Vacation_Photo">
</g>
<g id="Summer_Time">
</g>
<g id="Boat">
</g>
<g id="Lifebuoy">
</g>
<g id="Lighthouse">
</g>
<g id="Sunset">
</g>
<g id="Dolphin">
</g>
<g id="Starfish">
</g>
<g id="Diving_Mask">
	<g id="XMLID_422_">
		<g id="XMLID_440_">
			<path d="M18,14h-1.352c-0.886,0-1.713-0.476-2.159-1.24l-2.057-3.513C12.302,9.022,12.086,8.998,12,8.998
				s-0.302,0.024-0.433,0.249l-2.057,3.514C9.064,13.524,8.237,14,7.352,14H6c-3.309,0-6-2.691-6-6s2.691-6,6-6h12
				c3.309,0,6,2.691,6,6S21.309,14,18,14z M12,7.998c0.539,0,1.023,0.278,1.296,0.743l2.057,3.514C15.62,12.715,16.117,13,16.648,13
				H18c2.757,0,5-2.243,5-5s-2.243-5-5-5H6C3.243,3,1,5.243,1,8s2.243,5,5,5h1.352c0.531,0,1.028-0.285,1.296-0.744l2.057-3.515
				C10.977,8.276,11.461,7.998,12,7.998z"/>
		</g>
		<g id="XMLID_439_">
			<path d="M2.5,8.5C2.224,8.5,2,8.276,2,8c0-2.206,1.794-4,4-4h1.5C7.776,4,8,4.224,8,4.5S7.776,5,7.5,5H6C4.346,5,3,6.346,3,8
				C3,8.276,2.776,8.5,2.5,8.5z"/>
		</g>
		<g id="XMLID_438_">
			<path d="M18,14h-1.352c-0.886,0-1.713-0.476-2.159-1.24l-2.057-3.513c-0.14-0.238-0.06-0.545,0.179-0.685
				c0.24-0.138,0.546-0.06,0.685,0.179l2.057,3.514C15.62,12.715,16.117,13,16.648,13H18c2.757,0,5-2.243,5-5s-2.243-5-5-5H6
				C3.243,3,1,5.243,1,8s2.243,5,5,5h1.352c0.531,0,1.028-0.285,1.296-0.744c0.139-0.239,0.445-0.321,0.684-0.18
				c0.238,0.139,0.319,0.445,0.18,0.684C9.064,13.524,8.237,14,7.352,14H6c-3.309,0-6-2.691-6-6s2.691-6,6-6h12c3.309,0,6,2.691,6,6
				S21.309,14,18,14z"/>
		</g>
		<g id="XMLID_430_">
			<path d="M9.081,13.015c-0.063,0-0.127-0.013-0.189-0.037c-0.257-0.101-0.379-0.402-0.278-0.66C8.666,12.183,9.21,11,12,11
				c2.76,0,3.327,1.175,3.383,1.309c0.105,0.255-0.016,0.547-0.271,0.653c-0.253,0.105-0.547-0.015-0.653-0.271v0.001
				C14.456,12.692,14.032,12,12,12c-2.066,0-2.462,0.7-2.466,0.707C9.458,12.901,9.276,13.015,9.081,13.015z"/>
		</g>
		<g id="XMLID_429_">
			<path d="M16.215,22.021c-0.149,0-0.296-0.029-0.438-0.092c-1.166-0.511-0.914-2.75-0.063-4.697
				c0.429-0.979,0.982-1.842,1.559-2.429c0.933-0.949,1.612-0.853,1.935-0.713c0.321,0.141,0.852,0.575,0.788,1.904
				c-0.04,0.822-0.298,1.813-0.727,2.792l0,0C18.521,20.498,17.294,22.021,16.215,22.021z M18.766,15
				c-0.115,0-0.393,0.11-0.779,0.504c-0.486,0.495-0.98,1.271-1.356,2.129c-0.853,1.951-0.702,3.271-0.452,3.381
				c0.234,0.115,1.32-0.673,2.175-2.627l0,0c0.375-0.857,0.609-1.747,0.644-2.44c0.03-0.634-0.115-0.906-0.19-0.939
				C18.796,15.003,18.782,15,18.766,15z"/>
		</g>
		<g id="XMLID_428_">
			<path d="M16.021,21.999c-0.076,0-0.153-0.018-0.226-0.054l-2.027-1.027c-1.142-0.5-0.89-2.738-0.037-4.686
				c0.428-0.979,0.981-1.842,1.559-2.429c0.933-0.949,1.613-0.854,1.934-0.713l2.053,1.039c0.247,0.125,0.346,0.426,0.221,0.672
				c-0.126,0.247-0.428,0.344-0.672,0.221l-2.027-1.027c-0.051-0.021-0.347,0.054-0.795,0.509c-0.486,0.495-0.98,1.271-1.355,2.129
				c-0.854,1.951-0.703,3.271-0.452,3.381l2.052,1.039c0.247,0.125,0.346,0.426,0.221,0.672
				C16.379,21.898,16.203,21.999,16.021,21.999z"/>
		</g>
		<g id="XMLID_427_">
			<path d="M7.788,22.046c-0.366,0-0.876-0.168-1.498-0.802c-0.577-0.587-1.131-1.449-1.559-2.429
				c-0.429-0.979-0.687-1.971-0.727-2.793c-0.063-1.329,0.467-1.764,0.789-1.904c0.318-0.142,0.998-0.238,1.934,0.713
				c0.576,0.587,1.13,1.449,1.559,2.429s0.686,1.971,0.726,2.793c0.064,1.329-0.466,1.764-0.788,1.904
				C8.116,22.004,7.97,22.046,7.788,22.046z M5.234,15.027c-0.017,0-0.03,0.003-0.039,0.007c-0.076,0.033-0.222,0.306-0.191,0.939
				c0.034,0.694,0.269,1.584,0.644,2.441l0,0c0.375,0.857,0.869,1.633,1.355,2.128c0.444,0.451,0.743,0.532,0.82,0.498
				c0.075-0.033,0.221-0.306,0.189-0.939c-0.033-0.693-0.268-1.583-0.643-2.441c-0.376-0.857-0.87-1.633-1.356-2.128
				C5.626,15.138,5.35,15.027,5.234,15.027z"/>
		</g>
		<g id="XMLID_426_">
			<path d="M8.023,21.999c-0.182,0-0.357-0.101-0.446-0.274c-0.125-0.246-0.026-0.547,0.221-0.672l2.027-1.027
				c0.274-0.121,0.425-1.441-0.428-3.393c-0.376-0.857-0.87-1.634-1.356-2.129c-0.446-0.454-0.754-0.528-0.818-0.497L5.22,15.022
				c-0.243,0.124-0.545,0.026-0.672-0.221c-0.125-0.246-0.026-0.547,0.221-0.672l2.027-1.027c0.346-0.151,1.025-0.248,1.959,0.701
				c0.576,0.587,1.13,1.449,1.559,2.429c0.852,1.947,1.104,4.187-0.062,4.697l-2.003,1.016C8.177,21.981,8.1,21.999,8.023,21.999z"
				/>
		</g>
		<g id="XMLID_425_">
			<path d="M12,21c-0.971,0-1.81-0.563-1.845-0.587c-0.228-0.154-0.286-0.464-0.133-0.692c0.155-0.229,0.468-0.286,0.693-0.135
				C10.723,19.59,11.343,20,12,20c0.727,0,1.314-0.404,1.32-0.408c0.224-0.158,0.537-0.104,0.695,0.121
				c0.159,0.225,0.107,0.535-0.117,0.694C13.864,20.432,13.054,21,12,21z"/>
		</g>
		<g id="XMLID_424_">
			<path d="M20.061,18h-0.85c-0.276,0-0.5-0.224-0.5-0.5s0.224-0.5,0.5-0.5h0.85c0.451,0,0.874-0.2,1.16-0.549
				c0.286-0.35,0.399-0.803,0.311-1.245l-0.567-2.827c-0.055-0.271,0.121-0.534,0.392-0.589c0.266-0.056,0.534,0.121,0.589,0.392
				l0.567,2.827c0.147,0.738-0.041,1.494-0.518,2.076C21.518,17.666,20.813,18,20.061,18z"/>
		</g>
		<g id="XMLID_423_">
			<path d="M4.78,18H4.001c-0.752,0-1.457-0.333-1.934-0.915c-0.477-0.581-0.666-1.338-0.519-2.075l0.558-2.786
				c0.055-0.272,0.329-0.446,0.588-0.393c0.271,0.054,0.447,0.317,0.393,0.588l-0.558,2.786c-0.088,0.443,0.025,0.897,0.312,1.246
				S3.55,17,4.001,17H4.78c0.276,0,0.5,0.224,0.5,0.5S5.057,18,4.78,18z"/>
		</g>
	</g>
</g>
<g id="Sailboat">
</g>
<g id="Captin_Hat">
</g>
<g id="Eudder">
</g>
</svg>
