<?xml version="1.0" encoding="iso-8859-1"?>
<!-- Generator: Adobe Illustrator 19.2.1, SVG Export Plug-In . SVG Version: 6.00 Build 0)  -->
<svg version="1.1" xmlns="http://www.w3.org/2000/svg" xmlns:xlink="http://www.w3.org/1999/xlink" x="0px" y="0px"
	 viewBox="0 0 24 24" style="enable-background:new 0 0 24 24;" xml:space="preserve">
<g id="Sun_Light">
</g>
<g id="Sunglasses">
</g>
<g id="T-Shirt_1">
</g>
<g id="T-Shirt_2">
</g>
<g id="Mini_Dress">
</g>
<g id="Flip-Flops">
</g>
<g id="Temperature">
</g>
<g id="Hot_Temperature">
</g>
<g id="Ice_Lolly">
</g>
<g id="Icecream">
</g>
<g id="Limonade_1">
</g>
<g id="Limonade_2">
</g>
<g id="Hat">
</g>
<g id="Straw_Hat">
</g>
<g id="Deckchair">
</g>
<g id="Sunshade">
</g>
<g id="Suncream">
</g>
<g id="Suntan_Oil">
</g>
<g id="Swimming_Trunks">
</g>
<g id="Bikini">
</g>
<g id="Pool">
</g>
<g id="Pool_Ladder">
</g>
<g id="Grill">
</g>
<g id="Kite_1">
</g>
<g id="Kite_2">
</g>
<g id="Badminton">
</g>
<g id="Cooler">
</g>
<g id="Strand_Bag">
</g>
<g id="Towel">
</g>
<g id="Strand_Ball">
</g>
<g id="Beach_Sign">
</g>
<g id="Toos">
</g>
<g id="Bucket">
</g>
<g id="Sand_Castle">
</g>
<g id="Shell_1">
</g>
<g id="Shell_2">
</g>
<g id="Surf_Board">
</g>
<g id="Float">
</g>
<g id="Vacation_Photo">
</g>
<g id="Summer_Time">
</g>
<g id="Boat">
</g>
<g id="Lifebuoy">
</g>
<g id="Lighthouse">
</g>
<g id="Sunset">
</g>
<g id="Dolphin">
	<g id="XMLID_470_">
		<g id="XMLID_472_">
			<path d="M12.5,14c-0.158,0-0.308-0.074-0.403-0.204c-0.112-0.153-0.128-0.356-0.041-0.525C12.318,12.762,13,11.271,13,10.5
				c0-0.276,0.224-0.5,0.5-0.5s0.5,0.224,0.5,0.5c0,0.664-0.314,1.564-0.602,2.25C14.46,12.409,16,11.707,16,10.5
				c0-0.276,0.224-0.5,0.5-0.5s0.5,0.224,0.5,0.5c0,2.702-4.235,3.462-4.415,3.493C12.557,13.998,12.528,14,12.5,14z"/>
		</g>
		<g id="XMLID_471_">
			<path d="M0.5,18c-0.105,0-0.209-0.033-0.296-0.097C0.076,17.809,0,17.659,0,17.5c0-2.155,1.173-3.629,2.33-4.334
				c0.024-0.069,0.044-0.125,0.087-0.229c0.985-2.37,3.376-4.634,6.17-5.872L8.036,5.686c-0.06-0.15-0.043-0.321,0.045-0.457
				C8.168,5.092,8.317,5.007,8.479,5c0.104,0.001,2.411-0.083,3.829,1.069C12.744,6.022,13.127,6,13.5,6
				c4.585,0,7.263,1.476,8.404,4.639C23.63,11.498,24,12.661,24,13.5c0,0.275-0.222,0.498-0.497,0.5l-0.341,0.002
				c-0.002,0-0.005,0-0.007,0c-0.291,0-0.579-0.089-0.832-0.258c-1.333-0.889-3.422-1.443-6.208-1.647
				c-0.275-0.021-0.482-0.26-0.462-0.535c0.02-0.276,0.252-0.48,0.535-0.463c3.001,0.221,5.189,0.813,6.688,1.813
				c0.008,0.006,0.017,0.011,0.025,0.017c-0.207-0.585-0.747-1.079-1.611-1.474c-0.126-0.058-0.223-0.166-0.267-0.297
				C20.432,9.373,19.005,7,13.5,7c-0.394,0-0.805,0.028-1.293,0.088c-0.15,0.021-0.296-0.03-0.405-0.133
				c-0.654-0.62-1.761-0.855-2.554-0.93l0.45,1.124C9.748,7.272,9.746,7.41,9.693,7.532C9.641,7.654,9.542,7.751,9.418,7.8
				c-2.751,1.091-5.137,3.258-6.077,5.521c-0.041,0.097-0.055,0.139-0.08,0.213l-0.048,0.139c-0.041,0.116-0.124,0.214-0.232,0.272
				c-0.779,0.426-1.671,1.384-1.916,2.791c0.315-0.146,0.698-0.348,1.069-0.605c0.15-0.105,0.346-0.118,0.509-0.037
				c0.164,0.081,0.27,0.246,0.276,0.429c0,0.01,0.001,0.021,0.001,0.03c0.637-0.561,1.509-1.536,1.63-2.75
				c0.014-0.144,0.091-0.275,0.209-0.358c2.112-1.491,5.308-2.402,8.551-2.437c0.002,0,0.004,0,0.005,0
				c0.274,0,0.497,0.221,0.5,0.495c0.003,0.275-0.219,0.502-0.495,0.505c-3.452,0.036-6.256,1.103-7.806,2.131
				c-0.368,2.292-2.647,3.726-2.748,3.787c-0.144,0.089-0.322,0.099-0.475,0.028c-0.153-0.071-0.259-0.215-0.283-0.382
				C2,17.511,1.992,17.451,1.985,17.393c-0.712,0.386-1.303,0.574-1.335,0.584C0.601,17.992,0.55,18,0.5,18z"/>
		</g>
	</g>
</g>
<g id="Starfish">
</g>
<g id="Diving_Mask">
</g>
<g id="Sailboat">
</g>
<g id="Captin_Hat">
</g>
<g id="Eudder">
</g>
</svg>
