<?xml version="1.0" encoding="iso-8859-1"?>
<!-- Generator: Adobe Illustrator 19.2.1, SVG Export Plug-In . SVG Version: 6.00 Build 0)  -->
<svg version="1.1" xmlns="http://www.w3.org/2000/svg" xmlns:xlink="http://www.w3.org/1999/xlink" x="0px" y="0px"
	 viewBox="0 0 24 24" style="enable-background:new 0 0 24 24;" xml:space="preserve">
<g id="Sun_Light">
</g>
<g id="Sunglasses">
</g>
<g id="T-Shirt_1">
</g>
<g id="T-Shirt_2">
</g>
<g id="Mini_Dress">
</g>
<g id="Flip-Flops">
</g>
<g id="Temperature">
</g>
<g id="Hot_Temperature">
</g>
<g id="Ice_Lolly">
</g>
<g id="Icecream">
</g>
<g id="Limonade_1">
</g>
<g id="Limonade_2">
</g>
<g id="Hat">
</g>
<g id="Straw_Hat">
</g>
<g id="Deckchair">
</g>
<g id="Sunshade">
</g>
<g id="Suncream">
</g>
<g id="Suntan_Oil">
</g>
<g id="Swimming_Trunks">
</g>
<g id="Bikini">
</g>
<g id="Pool">
</g>
<g id="Pool_Ladder">
</g>
<g id="Grill">
</g>
<g id="Kite_1">
</g>
<g id="Kite_2">
</g>
<g id="Badminton">
</g>
<g id="Cooler">
</g>
<g id="Strand_Bag">
</g>
<g id="Towel">
</g>
<g id="Strand_Ball">
</g>
<g id="Beach_Sign">
</g>
<g id="Toos">
</g>
<g id="Bucket">
</g>
<g id="Sand_Castle">
</g>
<g id="Shell_1">
</g>
<g id="Shell_2">
</g>
<g id="Surf_Board">
</g>
<g id="Float">
</g>
<g id="Vacation_Photo">
</g>
<g id="Summer_Time">
</g>
<g id="Boat">
</g>
<g id="Lifebuoy">
</g>
<g id="Lighthouse">
</g>
<g id="Sunset">
</g>
<g id="Dolphin">
</g>
<g id="Starfish">
</g>
<g id="Diving_Mask">
</g>
<g id="Sailboat">
</g>
<g id="Captin_Hat">
</g>
<g id="Eudder">
	<g id="XMLID_387_">
		<g id="XMLID_415_">
			<path d="M11.5,14C10.121,14,9,12.879,9,11.5S10.121,9,11.5,9s2.5,1.121,2.5,2.5S12.879,14,11.5,14z M11.5,10
				c-0.827,0-1.5,0.673-1.5,1.5s0.673,1.5,1.5,1.5s1.5-0.673,1.5-1.5S12.327,10,11.5,10z"/>
		</g>
		<g id="XMLID_404_">
			<path d="M11.5,19C7.364,19,4,15.636,4,11.5S7.364,4,11.5,4S19,7.364,19,11.5S15.636,19,11.5,19z M11.5,5C7.916,5,5,7.916,5,11.5
				S7.916,18,11.5,18s6.5-2.916,6.5-6.5S15.084,5,11.5,5z"/>
		</g>
		<g id="XMLID_403_">
			<path d="M11.5,10C11.224,10,11,9.776,11,9.5v-7C11,2.224,11.224,2,11.5,2S12,2.224,12,2.5v7C12,9.776,11.776,10,11.5,10z"/>
		</g>
		<g id="XMLID_402_">
			<path d="M11.5,21c-0.276,0-0.5-0.224-0.5-0.5v-7c0-0.276,0.224-0.5,0.5-0.5s0.5,0.224,0.5,0.5v7C12,20.776,11.776,21,11.5,21z"/>
		</g>
		<g id="XMLID_401_">
			<path d="M9.5,12h-7C2.224,12,2,11.776,2,11.5S2.224,11,2.5,11h7c0.276,0,0.5,0.224,0.5,0.5S9.776,12,9.5,12z"/>
		</g>
		<g id="XMLID_400_">
			<path d="M20.5,12h-7c-0.276,0-0.5-0.224-0.5-0.5s0.224-0.5,0.5-0.5h7c0.276,0,0.5,0.224,0.5,0.5S20.776,12,20.5,12z"/>
		</g>
		<g id="XMLID_399_">
			<path d="M11.5,3c-0.552,0-1-0.448-1-1V1c0-0.552,0.448-1,1-1s1,0.448,1,1v1C12.5,2.552,12.052,3,11.5,3z M11.5,0.5L11.499,1H11.5
				V0.5z"/>
		</g>
		<g id="XMLID_398_">
			<path d="M11.5,23c-0.552,0-1-0.448-1-1v-1c0-0.552,0.448-1,1-1s1,0.448,1,1v1C12.5,22.552,12.052,23,11.5,23z M11.5,20.5
				L11.499,21H11.5V20.5z"/>
		</g>
		<g id="XMLID_397_">
			<path d="M22,12.5h-1c-0.552,0-1-0.448-1-1s0.448-1,1-1h1c0.552,0,1,0.448,1,1S22.552,12.5,22,12.5z M22,11.5h0.5H22L22,11.5z"/>
		</g>
		<g id="XMLID_396_">
			<path d="M2,12.5H1c-0.552,0-1-0.448-1-1s0.448-1,1-1h1c0.552,0,1,0.448,1,1S2.552,12.5,2,12.5z M2,11.5h0.5H2L2,11.5z"/>
		</g>
		<g id="XMLID_395_">
			<path d="M10.086,10.586c-0.128,0-0.256-0.049-0.354-0.146l-4.95-4.95c-0.195-0.195-0.195-0.512,0-0.707s0.512-0.195,0.707,0
				l4.95,4.95c0.195,0.195,0.195,0.512,0,0.707C10.342,10.537,10.214,10.586,10.086,10.586z"/>
		</g>
		<g id="XMLID_394_">
			<path d="M17.864,18.364c-0.128,0-0.256-0.049-0.354-0.146l-4.95-4.95c-0.195-0.195-0.195-0.512,0-0.707s0.512-0.195,0.707,0
				l4.95,4.95c0.195,0.195,0.195,0.512,0,0.707C18.12,18.315,17.992,18.364,17.864,18.364z"/>
		</g>
		<g id="XMLID_393_">
			<path d="M5.136,18.364c-0.128,0-0.256-0.049-0.354-0.146c-0.195-0.195-0.195-0.512,0-0.707l4.95-4.95
				c0.195-0.195,0.512-0.195,0.707,0s0.195,0.512,0,0.707l-4.95,4.95C5.392,18.315,5.264,18.364,5.136,18.364z"/>
		</g>
		<g id="XMLID_392_">
			<path d="M12.914,10.586c-0.128,0-0.256-0.049-0.354-0.146c-0.195-0.195-0.195-0.512,0-0.707l4.95-4.95
				c0.195-0.195,0.512-0.195,0.707,0s0.195,0.512,0,0.707l-4.95,4.95C13.17,10.537,13.042,10.586,12.914,10.586z"/>
		</g>
		<g id="XMLID_391_">
			<path d="M4.782,5.781c-0.256,0-0.512-0.097-0.707-0.292L3.368,4.782c-0.39-0.39-0.39-1.024,0-1.414
				c0.391-0.391,1.023-0.391,1.414,0l0.707,0.707c0.39,0.39,0.39,1.024,0,1.414C5.294,5.685,5.038,5.781,4.782,5.781z M3.722,3.722
				l0.354,0.354c0-0.001,0-0.001,0-0.001L3.722,3.722z"/>
		</g>
		<g id="XMLID_390_">
			<path d="M18.925,19.924c-0.256,0-0.512-0.097-0.707-0.292l-0.707-0.707c-0.39-0.39-0.39-1.024,0-1.414
				c0.391-0.391,1.023-0.391,1.414,0l0.707,0.707c0.39,0.39,0.39,1.024,0,1.414C19.437,19.827,19.181,19.924,18.925,19.924z
				 M17.864,17.864l0.354,0.354c0-0.001,0-0.001,0-0.001L17.864,17.864z"/>
		</g>
		<g id="XMLID_389_">
			<path d="M18.218,5.781c-0.256,0-0.512-0.097-0.707-0.292c-0.39-0.39-0.39-1.024,0-1.414l0.707-0.707
				c0.391-0.391,1.023-0.391,1.414,0c0.39,0.39,0.39,1.024,0,1.414l-0.707,0.707C18.729,5.685,18.474,5.781,18.218,5.781z
				 M19.278,3.722l-0.354,0.354c0.001,0,0.001,0,0.001,0L19.278,3.722z"/>
		</g>
		<g id="XMLID_388_">
			<path d="M4.075,19.924c-0.256,0-0.512-0.097-0.707-0.292c-0.39-0.39-0.39-1.024,0-1.414l0.707-0.707
				c0.391-0.391,1.023-0.391,1.414,0c0.39,0.39,0.39,1.024,0,1.414l-0.707,0.707C4.587,19.827,4.331,19.924,4.075,19.924z
				 M5.136,17.864l-0.354,0.354c0.001,0,0.001,0,0.001,0L5.136,17.864z"/>
		</g>
	</g>
</g>
</svg>
