<?xml version="1.0" encoding="iso-8859-1"?>
<!-- Generator: Adobe Illustrator 19.2.1, SVG Export Plug-In . SVG Version: 6.00 Build 0)  -->
<svg version="1.1" xmlns="http://www.w3.org/2000/svg" xmlns:xlink="http://www.w3.org/1999/xlink" x="0px" y="0px"
	 viewBox="0 0 24 24" style="enable-background:new 0 0 24 24;" xml:space="preserve">
<g id="Sun_Light">
</g>
<g id="Sunglasses">
</g>
<g id="T-Shirt_1">
</g>
<g id="T-Shirt_2">
</g>
<g id="Mini_Dress">
</g>
<g id="Flip-Flops">
	<g id="XMLID_81_">
		<g id="XMLID_82_">
			<path d="M6,24c-2.168,0-4-1.832-4-4c0-3.125-0.319-5.679-0.602-7.933C1.185,10.355,1,8.877,1,7.5C1,3.461,4.024,0,6.5,0
				C8.897,0,11,2.57,11,5.5c0,2.104-0.267,3.47-0.524,4.791C10.231,11.543,10,12.727,10,14.5V20C10,22.206,8.206,24,6,24z M6.5,1
				C4.517,1,2,4.061,2,7.5c0,1.315,0.182,2.765,0.391,4.443C2.677,14.226,3,16.813,3,20c0,1.626,1.374,3,3,3c1.654,0,3-1.346,3-3
				v-5.5c0-1.87,0.251-3.157,0.494-4.401C9.743,8.825,10,7.508,10,5.5C10,3.145,8.332,1,6.5,1z"/>
		</g>
		<g id="XMLID_83_">
			<path d="M1.953,13c-0.273,0-0.496-0.219-0.5-0.493C1.371,6.556,6.31,5.035,6.359,5.021c0.059-0.018,0.119-0.024,0.182-0.019
				c0.146,0.012,3.573,0.376,3.573,7.463c0,0.276-0.224,0.5-0.5,0.5s-0.5-0.224-0.5-0.5c0-5.471-2.131-6.33-2.581-6.449
				c-0.679,0.241-4.146,1.707-4.08,6.478C2.457,12.769,2.236,12.996,1.96,13C1.958,13,1.955,13,1.953,13z"/>
		</g>
		<g id="XMLID_84_">
			<path d="M1.953,13c-0.061,0-0.123-0.011-0.183-0.035c-0.257-0.101-0.384-0.391-0.283-0.648C3.488,7.217,6.353,7.007,6.474,7
				c0.247-0.004,2.547,0.078,3.631,5.364c0.055,0.271-0.119,0.535-0.39,0.59c-0.267,0.054-0.535-0.118-0.591-0.389
				C8.213,8.116,6.517,8,6.499,8c0.011,0.001-2.338,0.24-4.08,4.683C2.341,12.88,2.152,13,1.953,13z"/>
		</g>
		<g id="XMLID_85_">
			<path d="M6.5,6C6.224,6,6,5.776,6,5.5v-2C6,3.224,6.224,3,6.5,3S7,3.224,7,3.5v2C7,5.776,6.776,6,6.5,6z"/>
		</g>
		<g>
			<path d="M18,24c-2.206,0-4-1.794-4-4v-5.5c0-1.773-0.231-2.957-0.476-4.209C13.267,8.97,13,7.604,13,5.5C13,2.57,15.103,0,17.5,0
				C19.976,0,23,3.461,23,7.5c0,1.377-0.185,2.855-0.398,4.567C22.319,14.321,22,16.875,22,20C22,22.168,20.168,24,18,24z M17.5,1
				C15.668,1,14,3.145,14,5.5c0,2.008,0.257,3.325,0.506,4.599C14.749,11.343,15,12.63,15,14.5V20c0,1.654,1.346,3,3,3
				c1.626,0,3-1.374,3-3c0-3.187,0.323-5.774,0.609-8.057C21.818,10.265,22,8.815,22,7.5C22,4.061,19.483,1,17.5,1z"/>
		</g>
		<g>
			<path d="M22.047,13c-0.002,0-0.005,0-0.007,0c-0.276-0.004-0.497-0.231-0.493-0.507c0.066-4.774-3.406-6.239-4.082-6.478
				c-0.435,0.115-2.579,0.961-2.579,6.45c0,0.276-0.224,0.5-0.5,0.5s-0.5-0.224-0.5-0.5c0-7.087,3.428-7.451,3.573-7.463
				c0.061-0.005,0.122,0.001,0.182,0.019c0.05,0.015,4.988,1.535,4.906,7.486C22.543,12.781,22.32,13,22.047,13z"/>
		</g>
		<g>
			<path d="M22.047,13c-0.199,0-0.388-0.12-0.466-0.317c-1.742-4.443-4.091-4.682-4.114-4.684c0.017,0.001-1.68,0.117-2.591,4.566
				c-0.056,0.271-0.325,0.442-0.591,0.389c-0.271-0.055-0.444-0.32-0.39-0.59c1.083-5.282,3.327-5.395,3.62-5.364
				c0.132,0.007,2.996,0.217,4.997,5.317c0.101,0.257-0.026,0.547-0.283,0.648C22.17,12.989,22.107,13,22.047,13z"/>
		</g>
		<g>
			<path d="M17.5,6C17.224,6,17,5.776,17,5.5v-2C17,3.224,17.224,3,17.5,3S18,3.224,18,3.5v2C18,5.776,17.776,6,17.5,6z"/>
		</g>
	</g>
</g>
<g id="Temperature">
</g>
<g id="Hot_Temperature">
</g>
<g id="Ice_Lolly">
</g>
<g id="Icecream">
</g>
<g id="Limonade_1">
</g>
<g id="Limonade_2">
</g>
<g id="Hat">
</g>
<g id="Straw_Hat">
</g>
<g id="Deckchair">
</g>
<g id="Sunshade">
</g>
<g id="Suncream">
</g>
<g id="Suntan_Oil">
</g>
<g id="Swimming_Trunks">
</g>
<g id="Bikini">
</g>
<g id="Pool">
</g>
<g id="Pool_Ladder">
</g>
<g id="Grill">
</g>
<g id="Kite_1">
</g>
<g id="Kite_2">
</g>
<g id="Badminton">
</g>
<g id="Cooler">
</g>
<g id="Strand_Bag">
</g>
<g id="Towel">
</g>
<g id="Strand_Ball">
</g>
<g id="Beach_Sign">
</g>
<g id="Toos">
</g>
<g id="Bucket">
</g>
<g id="Sand_Castle">
</g>
<g id="Shell_1">
</g>
<g id="Shell_2">
</g>
<g id="Surf_Board">
</g>
<g id="Float">
</g>
<g id="Vacation_Photo">
</g>
<g id="Summer_Time">
</g>
<g id="Boat">
</g>
<g id="Lifebuoy">
</g>
<g id="Lighthouse">
</g>
<g id="Sunset">
</g>
<g id="Dolphin">
</g>
<g id="Starfish">
</g>
<g id="Diving_Mask">
</g>
<g id="Sailboat">
</g>
<g id="Captin_Hat">
</g>
<g id="Eudder">
</g>
</svg>
