<?xml version="1.0" encoding="iso-8859-1"?>
<!-- Generator: Adobe Illustrator 19.2.1, SVG Export Plug-In . SVG Version: 6.00 Build 0)  -->
<svg version="1.1" xmlns="http://www.w3.org/2000/svg" xmlns:xlink="http://www.w3.org/1999/xlink" x="0px" y="0px"
	 viewBox="0 0 24 24" style="enable-background:new 0 0 24 24;" xml:space="preserve">
<g id="Sun_Light">
</g>
<g id="Sunglasses">
</g>
<g id="T-Shirt_1">
</g>
<g id="T-Shirt_2">
</g>
<g id="Mini_Dress">
</g>
<g id="Flip-Flops">
</g>
<g id="Temperature">
</g>
<g id="Hot_Temperature">
</g>
<g id="Ice_Lolly">
</g>
<g id="Icecream">
</g>
<g id="Limonade_1">
</g>
<g id="Limonade_2">
</g>
<g id="Hat">
</g>
<g id="Straw_Hat">
</g>
<g id="Deckchair">
</g>
<g id="Sunshade">
</g>
<g id="Suncream">
</g>
<g id="Suntan_Oil">
</g>
<g id="Swimming_Trunks">
</g>
<g id="Bikini">
</g>
<g id="Pool">
</g>
<g id="Pool_Ladder">
</g>
<g id="Grill">
	<g id="XMLID_172_">
		<g id="XMLID_173_">
			<path d="M6,24c-1.103,0-2-0.897-2-2s0.897-2,2-2s2,0.897,2,2S7.103,24,6,24z M6,21c-0.551,0-1,0.448-1,1s0.449,1,1,1s1-0.448,1-1
				S6.551,21,6,21z"/>
		</g>
		<g id="XMLID_174_">
			<path d="M6.364,21.046c-0.061,0-0.122-0.011-0.182-0.034c-0.257-0.101-0.384-0.391-0.284-0.647l2.251-5.775
				c0.101-0.257,0.391-0.384,0.647-0.284c0.257,0.101,0.384,0.391,0.284,0.647L6.83,20.728C6.752,20.925,6.563,21.046,6.364,21.046z
				"/>
		</g>
		<g id="XMLID_175_">
			<path d="M17.5,24c-0.207,0-0.399-0.129-0.472-0.334l-3.077-8.76c-0.092-0.261,0.045-0.546,0.306-0.638s0.545,0.046,0.637,0.306
				l3.077,8.76c0.092,0.261-0.045,0.546-0.306,0.638C17.611,23.991,17.555,24,17.5,24z"/>
		</g>
		<g id="XMLID_176_">
			<path d="M15.735,19H7.126c-0.276,0-0.5-0.224-0.5-0.5S6.85,18,7.126,18h8.609c0.276,0,0.5,0.224,0.5,0.5S16.012,19,15.735,19z"/>
		</g>
		<g id="XMLID_179_">
			<path d="M11.5,16c-3.646,0-6.502-2.856-6.502-6.504c0-0.133,0.053-0.26,0.146-0.354s0.221-0.146,0.354-0.146l0,0L17.5,9
				C17.776,9,18,9.224,18,9.5C18,13.084,15.084,16,11.5,16z M6.019,9.996C6.264,12.84,8.583,15,11.5,15c2.864,0,5.224-2.201,5.478-5
				L6.019,9.996z"/>
		</g>
		<g id="XMLID_180_">
			<path d="M5.5,10c-0.163,0-0.322-0.08-0.418-0.225C4.371,8.693,4.024,7.622,4.024,6.5c0-3.645,2.855-6.5,6.5-6.5
				c2.27,0,4.407,1.21,5.577,3.159c0.068,0.114,0.088,0.25,0.056,0.379s-0.114,0.239-0.228,0.308L5.757,9.929
				C5.676,9.977,5.588,10,5.5,10z M10.524,1c-3.084,0-5.5,2.416-5.5,5.5c0,0.783,0.211,1.544,0.644,2.316l9.298-5.561
				C13.933,1.834,12.306,1,10.524,1z"/>
		</g>
		<g id="XMLID_181_">
			<path d="M15.673,3.916c-0.167,0-0.33-0.083-0.425-0.235c-0.146-0.234-0.075-0.542,0.16-0.689
				c0.882-0.551,1.553-1.204,1.596-1.553c0.034-0.274,0.281-0.475,0.557-0.435c0.274,0.034,0.469,0.283,0.435,0.557
				c-0.115,0.936-1.339,1.83-2.059,2.279C15.855,3.892,15.763,3.916,15.673,3.916z"/>
		</g>
	</g>
</g>
<g id="Kite_1">
</g>
<g id="Kite_2">
</g>
<g id="Badminton">
</g>
<g id="Cooler">
</g>
<g id="Strand_Bag">
</g>
<g id="Towel">
</g>
<g id="Strand_Ball">
</g>
<g id="Beach_Sign">
</g>
<g id="Toos">
</g>
<g id="Bucket">
</g>
<g id="Sand_Castle">
</g>
<g id="Shell_1">
</g>
<g id="Shell_2">
</g>
<g id="Surf_Board">
</g>
<g id="Float">
</g>
<g id="Vacation_Photo">
</g>
<g id="Summer_Time">
</g>
<g id="Boat">
</g>
<g id="Lifebuoy">
</g>
<g id="Lighthouse">
</g>
<g id="Sunset">
</g>
<g id="Dolphin">
</g>
<g id="Starfish">
</g>
<g id="Diving_Mask">
</g>
<g id="Sailboat">
</g>
<g id="Captin_Hat">
</g>
<g id="Eudder">
</g>
</svg>
