<?xml version="1.0" encoding="iso-8859-1"?>
<!-- Generator: Adobe Illustrator 19.2.1, SVG Export Plug-In . SVG Version: 6.00 Build 0)  -->
<svg version="1.1" xmlns="http://www.w3.org/2000/svg" xmlns:xlink="http://www.w3.org/1999/xlink" x="0px" y="0px"
	 viewBox="0 0 24 24" style="enable-background:new 0 0 24 24;" xml:space="preserve">
<g id="Sun_Light">
</g>
<g id="Sunglasses">
</g>
<g id="T-Shirt_1">
</g>
<g id="T-Shirt_2">
</g>
<g id="Mini_Dress">
</g>
<g id="Flip-Flops">
</g>
<g id="Temperature">
</g>
<g id="Hot_Temperature">
</g>
<g id="Ice_Lolly">
</g>
<g id="Icecream">
</g>
<g id="Limonade_1">
</g>
<g id="Limonade_2">
</g>
<g id="Hat">
	<g id="XMLID_130_">
		<g>
			<path d="M10.994,12.993c-1.583,0-3.935-0.184-3.991-1.271l-0.011-0.486c-0.14-2.738,1.979-5.092,4.724-5.232
				c1.334-0.068,2.614,0.387,3.606,1.282c0.991,0.895,1.574,2.122,1.643,3.456l0.025,0.47c0.037,0.731-0.922,1.082-1.646,1.282
				c-0.874,0.242-2.035,0.409-3.271,0.473C11.817,12.979,11.436,12.993,10.994,12.993z M8,11.572
				c0.321,0.207,1.734,0.513,4.022,0.395c2.292-0.117,3.67-0.566,3.964-0.804l-0.02-0.368c0,0,0-0.001,0-0.001
				c-0.054-1.067-0.521-2.049-1.314-2.765c-0.793-0.716-1.812-1.091-2.885-1.025C9.573,7.115,7.879,8.997,7.992,11.2L8,11.572z
				 M15.991,11.264h0.01H15.991z"/>
		</g>
		<g>
			<path d="M9.458,16.996c-4.851,0-9.284-0.979-9.447-3.112c-0.196-2.56,5.595-3.908,7.375-4.261C7.394,9.621,7.492,9.606,7.5,9.605
				c0.274-0.038,0.527,0.147,0.569,0.42c0.041,0.273-0.147,0.527-0.42,0.569c-4.43,0.873-6.709,2.304-6.64,3.213
				c0.094,1.221,4.404,2.603,11.216,2.082c6.81-0.522,10.861-2.546,10.768-3.767c-0.069-0.895-2.376-1.92-6.653-2.148l-0.141-0.002
				c-0.276-0.004-0.497-0.231-0.492-0.508c0.004-0.273,0.227-0.492,0.5-0.492c0.002,0,0.005,0,0.008,0l0.16,0.002
				c4.646,0.248,7.486,1.395,7.615,3.071c0.195,2.548-5.877,4.396-11.688,4.841C11.356,16.958,10.399,16.996,9.458,16.996z"/>
		</g>
	</g>
</g>
<g id="Straw_Hat">
</g>
<g id="Deckchair">
</g>
<g id="Sunshade">
</g>
<g id="Suncream">
</g>
<g id="Suntan_Oil">
</g>
<g id="Swimming_Trunks">
</g>
<g id="Bikini">
</g>
<g id="Pool">
</g>
<g id="Pool_Ladder">
</g>
<g id="Grill">
</g>
<g id="Kite_1">
</g>
<g id="Kite_2">
</g>
<g id="Badminton">
</g>
<g id="Cooler">
</g>
<g id="Strand_Bag">
</g>
<g id="Towel">
</g>
<g id="Strand_Ball">
</g>
<g id="Beach_Sign">
</g>
<g id="Toos">
</g>
<g id="Bucket">
</g>
<g id="Sand_Castle">
</g>
<g id="Shell_1">
</g>
<g id="Shell_2">
</g>
<g id="Surf_Board">
</g>
<g id="Float">
</g>
<g id="Vacation_Photo">
</g>
<g id="Summer_Time">
</g>
<g id="Boat">
</g>
<g id="Lifebuoy">
</g>
<g id="Lighthouse">
</g>
<g id="Sunset">
</g>
<g id="Dolphin">
</g>
<g id="Starfish">
</g>
<g id="Diving_Mask">
</g>
<g id="Sailboat">
</g>
<g id="Captin_Hat">
</g>
<g id="Eudder">
</g>
</svg>
