<?xml version="1.0" encoding="iso-8859-1"?>
<!-- Generator: Adobe Illustrator 19.2.1, SVG Export Plug-In . SVG Version: 6.00 Build 0)  -->
<svg version="1.1" xmlns="http://www.w3.org/2000/svg" xmlns:xlink="http://www.w3.org/1999/xlink" x="0px" y="0px"
	 viewBox="0 0 24 24" style="enable-background:new 0 0 24 24;" xml:space="preserve">
<g id="Sun_Light">
</g>
<g id="Sunglasses">
</g>
<g id="T-Shirt_1">
</g>
<g id="T-Shirt_2">
</g>
<g id="Mini_Dress">
</g>
<g id="Flip-Flops">
</g>
<g id="Temperature">
</g>
<g id="Hot_Temperature">
	<g id="XMLID_92_">
		<g id="XMLID_93_">
			<path d="M11.5,18C7.916,18,5,15.084,5,11.5S7.916,5,11.5,5S18,7.916,18,11.5S15.084,18,11.5,18z M11.5,6C8.468,6,6,8.467,6,11.5
				S8.468,17,11.5,17s5.5-2.467,5.5-5.5S14.532,6,11.5,6z"/>
		</g>
		<g id="XMLID_94_">
			<path d="M11.5,4C11.224,4,11,3.776,11,3.5v-3C11,0.224,11.224,0,11.5,0S12,0.224,12,0.5v3C12,3.776,11.776,4,11.5,4z"/>
		</g>
		<g id="XMLID_95_">
			<path d="M11.5,23c-0.276,0-0.5-0.224-0.5-0.5v-3c0-0.276,0.224-0.5,0.5-0.5s0.5,0.224,0.5,0.5v3C12,22.776,11.776,23,11.5,23z"/>
		</g>
		<g id="XMLID_96_">
			<path d="M3.5,12h-3C0.224,12,0,11.776,0,11.5S0.224,11,0.5,11h3C3.776,11,4,11.224,4,11.5S3.776,12,3.5,12z"/>
		</g>
		<g id="XMLID_97_">
			<path d="M23.5,12h-4c-0.276,0-0.5-0.224-0.5-0.5s0.224-0.5,0.5-0.5h4c0.276,0,0.5,0.224,0.5,0.5S23.776,12,23.5,12z"/>
		</g>
		<g>
			<path d="M5.843,6.343c-0.128,0-0.256-0.049-0.354-0.146L3.368,4.075c-0.195-0.195-0.195-0.512,0-0.707s0.512-0.195,0.707,0
				L6.196,5.49c0.195,0.195,0.195,0.512,0,0.707C6.099,6.294,5.971,6.343,5.843,6.343z"/>
		</g>
		<g>
			<path d="M3.722,19.778c-0.128,0-0.256-0.049-0.354-0.146c-0.195-0.195-0.195-0.512,0-0.707l2.121-2.122
				c0.195-0.195,0.512-0.195,0.707,0s0.195,0.512,0,0.707l-2.121,2.122C3.978,19.729,3.85,19.778,3.722,19.778z"/>
		</g>
		<g>
			<path d="M17.157,6.343c-0.128,0-0.256-0.049-0.354-0.146c-0.195-0.195-0.195-0.512,0-0.707l2.121-2.122
				c0.195-0.195,0.512-0.195,0.707,0s0.195,0.512,0,0.707l-2.121,2.122C17.413,6.294,17.285,6.343,17.157,6.343z"/>
		</g>
		<g id="XMLID_98_">
			<path d="M20.493,23.999c-0.214,0-0.431-0.019-0.646-0.059c-1.393-0.253-2.51-1.357-2.779-2.746
				c-0.292-1.504,0.373-2.965,1.696-3.721C18.909,17.391,19,17.23,19,17.056V6.5C19,5.673,19.673,5,20.5,5S22,5.673,22,6.5v10.555
				c0,0.173,0.097,0.337,0.254,0.429l0,0C23.331,18.108,24,19.264,24,20.5c0,1.041-0.459,2.021-1.259,2.688
				C22.107,23.717,21.313,23.999,20.493,23.999z M20.5,6C20.225,6,20,6.224,20,6.5v10.556c0,0.532-0.283,1.025-0.74,1.287
				c-0.945,0.54-1.42,1.585-1.21,2.662c0.188,0.973,1.001,1.775,1.977,1.953c0.762,0.139,1.494-0.053,2.074-0.536
				C22.672,21.944,23,21.244,23,20.5c0-0.894-0.467-1.698-1.248-2.151l0,0C21.288,18.08,21,17.584,21,17.055V6.5
				C21,6.224,20.775,6,20.5,6z"/>
		</g>
		<g id="XMLID_99_">
			<path d="M23.5,16h-2c-0.276,0-0.5-0.224-0.5-0.5s0.224-0.5,0.5-0.5h2c0.276,0,0.5,0.224,0.5,0.5S23.776,16,23.5,16z"/>
		</g>
		<g id="XMLID_100_">
			<path d="M23.5,8h-2C21.224,8,21,7.776,21,7.5S21.224,7,21.5,7h2C23.776,7,24,7.224,24,7.5S23.776,8,23.5,8z"/>
		</g>
	</g>
</g>
<g id="Ice_Lolly">
</g>
<g id="Icecream">
</g>
<g id="Limonade_1">
</g>
<g id="Limonade_2">
</g>
<g id="Hat">
</g>
<g id="Straw_Hat">
</g>
<g id="Deckchair">
</g>
<g id="Sunshade">
</g>
<g id="Suncream">
</g>
<g id="Suntan_Oil">
</g>
<g id="Swimming_Trunks">
</g>
<g id="Bikini">
</g>
<g id="Pool">
</g>
<g id="Pool_Ladder">
</g>
<g id="Grill">
</g>
<g id="Kite_1">
</g>
<g id="Kite_2">
</g>
<g id="Badminton">
</g>
<g id="Cooler">
</g>
<g id="Strand_Bag">
</g>
<g id="Towel">
</g>
<g id="Strand_Ball">
</g>
<g id="Beach_Sign">
</g>
<g id="Toos">
</g>
<g id="Bucket">
</g>
<g id="Sand_Castle">
</g>
<g id="Shell_1">
</g>
<g id="Shell_2">
</g>
<g id="Surf_Board">
</g>
<g id="Float">
</g>
<g id="Vacation_Photo">
</g>
<g id="Summer_Time">
</g>
<g id="Boat">
</g>
<g id="Lifebuoy">
</g>
<g id="Lighthouse">
</g>
<g id="Sunset">
</g>
<g id="Dolphin">
</g>
<g id="Starfish">
</g>
<g id="Diving_Mask">
</g>
<g id="Sailboat">
</g>
<g id="Captin_Hat">
</g>
<g id="Eudder">
</g>
</svg>
