<?xml version="1.0" encoding="iso-8859-1"?>
<!-- Generator: Adobe Illustrator 19.2.1, SVG Export Plug-In . SVG Version: 6.00 Build 0)  -->
<svg version="1.1" xmlns="http://www.w3.org/2000/svg" xmlns:xlink="http://www.w3.org/1999/xlink" x="0px" y="0px"
	 viewBox="0 0 24 24" style="enable-background:new 0 0 24 24;" xml:space="preserve">
<g id="Sun_Light">
</g>
<g id="Sunglasses">
</g>
<g id="T-Shirt_1">
</g>
<g id="T-Shirt_2">
</g>
<g id="Mini_Dress">
</g>
<g id="Flip-Flops">
</g>
<g id="Temperature">
</g>
<g id="Hot_Temperature">
</g>
<g id="Ice_Lolly">
	<g id="XMLID_101_">
		<g>
			<path d="M12,24c-1.103,0-2-0.897-2-2v-4.5c0-0.276,0.224-0.5,0.5-0.5h3c0.276,0,0.5,0.224,0.5,0.5V22C14,23.103,13.103,24,12,24z
				 M11,18v4c0,0.551,0.448,1,1,1s1-0.449,1-1v-4H11z"/>
		</g>
		<g>
			<path d="M16.5,18h-9C6.673,18,6,17.327,6,16.5L7.657,3.042C7.888,1.306,9.38,0,11.127,0h1.746c1.747,0,3.239,1.306,3.47,3.038
				l1.653,13.401C18,17.327,17.327,18,16.5,18z M11.127,1C9.879,1,8.813,1.933,8.649,3.169L6.996,16.561C7,16.776,7.225,17,7.5,17h9
				c0.275,0,0.5-0.224,0.5-0.5L15.351,3.165C15.187,1.933,14.121,1,12.873,1H11.127z"/>
		</g>
		<g id="XMLID_102_">
			<path d="M10,15c-0.008,0-0.017,0-0.025,0c-0.275-0.014-0.487-0.249-0.474-0.524l0.5-10C10.014,4.2,10.213,3.983,10.525,4
				c0.275,0.014,0.487,0.249,0.474,0.524l-0.5,10C10.486,14.792,10.265,15,10,15z"/>
		</g>
		<g id="XMLID_103_">
			<path d="M14,15c-0.265,0-0.486-0.208-0.499-0.475l-0.5-10C12.987,4.249,13.199,4.015,13.475,4
				c0.313-0.019,0.512,0.199,0.524,0.475l0.5,10c0.014,0.276-0.198,0.51-0.474,0.524C14.017,15,14.008,15,14,15z"/>
		</g>
	</g>
</g>
<g id="Icecream">
</g>
<g id="Limonade_1">
</g>
<g id="Limonade_2">
</g>
<g id="Hat">
</g>
<g id="Straw_Hat">
</g>
<g id="Deckchair">
</g>
<g id="Sunshade">
</g>
<g id="Suncream">
</g>
<g id="Suntan_Oil">
</g>
<g id="Swimming_Trunks">
</g>
<g id="Bikini">
</g>
<g id="Pool">
</g>
<g id="Pool_Ladder">
</g>
<g id="Grill">
</g>
<g id="Kite_1">
</g>
<g id="Kite_2">
</g>
<g id="Badminton">
</g>
<g id="Cooler">
</g>
<g id="Strand_Bag">
</g>
<g id="Towel">
</g>
<g id="Strand_Ball">
</g>
<g id="Beach_Sign">
</g>
<g id="Toos">
</g>
<g id="Bucket">
</g>
<g id="Sand_Castle">
</g>
<g id="Shell_1">
</g>
<g id="Shell_2">
</g>
<g id="Surf_Board">
</g>
<g id="Float">
</g>
<g id="Vacation_Photo">
</g>
<g id="Summer_Time">
</g>
<g id="Boat">
</g>
<g id="Lifebuoy">
</g>
<g id="Lighthouse">
</g>
<g id="Sunset">
</g>
<g id="Dolphin">
</g>
<g id="Starfish">
</g>
<g id="Diving_Mask">
</g>
<g id="Sailboat">
</g>
<g id="Captin_Hat">
</g>
<g id="Eudder">
</g>
</svg>
