<?xml version="1.0" encoding="iso-8859-1"?>
<!-- Generator: Adobe Illustrator 19.2.1, SVG Export Plug-In . SVG Version: 6.00 Build 0)  -->
<svg version="1.1" xmlns="http://www.w3.org/2000/svg" xmlns:xlink="http://www.w3.org/1999/xlink" x="0px" y="0px"
	 viewBox="0 0 24 24" style="enable-background:new 0 0 24 24;" xml:space="preserve">
<g id="Sun_Light">
</g>
<g id="Sunglasses">
</g>
<g id="T-Shirt_1">
</g>
<g id="T-Shirt_2">
</g>
<g id="Mini_Dress">
</g>
<g id="Flip-Flops">
</g>
<g id="Temperature">
</g>
<g id="Hot_Temperature">
</g>
<g id="Ice_Lolly">
</g>
<g id="Icecream">
	<g id="XMLID_104_">
		<g id="XMLID_105_">
			<path d="M12,24.002c-0.218,0-0.41-0.141-0.477-0.348L7.56,11.268c-0.084-0.263,0.062-0.544,0.324-0.628
				c0.262-0.085,0.544,0.06,0.629,0.324L12,21.861l3.486-10.896c0.085-0.264,0.366-0.406,0.629-0.324
				c0.263,0.084,0.408,0.365,0.324,0.628l-3.963,12.384C12.41,23.861,12.218,24.002,12,24.002z"/>
		</g>
		<g>
			<path d="M16.74,12.009c-0.56,0-1.054-0.46-1.341-0.728c-0.144-0.133-0.292-0.271-0.405-0.341
				c-0.387-0.236-0.848-0.293-1.27-0.152c-0.03,0.019-0.122,0.084-0.224,0.154c-0.348,0.236-0.823,0.561-1.501,0.561
				c-0.024,0-0.049-0.002-0.072-0.005c-0.64-0.021-1.094-0.331-1.429-0.559c-0.102-0.069-0.193-0.135-0.282-0.178
				c-0.362-0.115-0.824-0.061-1.21,0.176c-0.114,0.07-0.263,0.208-0.406,0.341c-0.433,0.404-1.332,1.241-2.223,0.292
				c-0.536-0.571-0.308-1.226-0.142-1.703c0.126-0.36,0.245-0.701,0.15-1.057C6.371,8.768,6.335,8.678,6.296,8.58
				C6.157,8.235,6,7.844,6,7.498c0-1.373,0.794-2.599,2.015-3.17C8.005,4.219,8,4.11,8,3.998c0-2.206,1.794-4,4-4
				c0.022,0,0.045,0.001,0.067,0.004C14.242,0.039,16,1.819,16,4.002c0,0.112-0.005,0.221-0.015,0.33
				C17.206,4.903,18,6.129,18,7.502c0,0.347-0.157,0.738-0.296,1.083c-0.039,0.098-0.075,0.187-0.102,0.262
				c-0.084,0.323,0.035,0.663,0.161,1.024c0.166,0.478,0.395,1.132-0.142,1.703C17.323,11.892,17.023,12.009,16.74,12.009z
				 M14.211,9.718c0.462,0,0.907,0.126,1.304,0.368c0.2,0.122,0.387,0.295,0.566,0.463c0.602,0.561,0.658,0.5,0.813,0.339
				c0.102-0.109,0.09-0.218-0.074-0.689c-0.154-0.441-0.347-0.991-0.173-1.644c0.041-0.122,0.083-0.229,0.13-0.344
				C16.86,8.003,17,7.655,17,7.502c0-1.083-0.691-2.038-1.721-2.376c-0.239-0.079-0.383-0.324-0.335-0.571
				C14.98,4.372,15,4.195,15,4.002c0-1.654-1.346-3-3-3c-0.02,0-0.039-0.001-0.059-0.003C10.314,1.03,9,2.363,9,3.998
				c0,0.193,0.02,0.37,0.055,0.553C9.104,4.798,8.96,5.043,8.721,5.122C7.691,5.46,7,6.416,7,7.498c0,0.153,0.14,0.501,0.224,0.709
				C7.271,8.323,7.313,8.43,7.343,8.519c0.185,0.686-0.008,1.235-0.162,1.677c-0.164,0.471-0.176,0.58-0.074,0.689
				c0.154,0.163,0.211,0.223,0.813-0.339c0.18-0.168,0.366-0.342,0.567-0.464c0.639-0.389,1.406-0.479,2.105-0.246
				c0.188,0.086,0.323,0.176,0.47,0.275c0.294,0.2,0.607,0.365,0.99,0.39c0.345-0.017,0.62-0.204,0.887-0.386
				c0.146-0.1,0.282-0.189,0.411-0.251C13.638,9.765,13.928,9.718,14.211,9.718z"/>
		</g>
		<g id="XMLID_106_">
			<path d="M15.436,5.151c-0.052,0-0.104-0.008-0.156-0.025c-0.25-0.083-0.512-0.124-0.779-0.124c-0.276,0-0.5-0.224-0.5-0.5
				s0.224-0.5,0.5-0.5c0.373,0,0.741,0.059,1.092,0.174c0.263,0.086,0.405,0.369,0.318,0.631
				C15.841,5.018,15.646,5.151,15.436,5.151z"/>
		</g>
		<g>
			<path d="M8.564,5.151c-0.21,0-0.405-0.133-0.475-0.344C8.003,4.545,8.146,4.262,8.408,4.176C8.759,4.061,9.127,4.002,9.5,4.002
				c0.276,0,0.5,0.224,0.5,0.5s-0.224,0.5-0.5,0.5c-0.268,0-0.529,0.042-0.779,0.124C8.669,5.143,8.616,5.151,8.564,5.151z"/>
		</g>
		<g id="XMLID_107_">
			<path d="M15,14.502c-0.037,0-0.074-0.004-0.112-0.013l-6.5-1.5c-0.27-0.062-0.437-0.331-0.375-0.6
				c0.063-0.269,0.327-0.438,0.6-0.375l6.5,1.5c0.27,0.062,0.437,0.331,0.375,0.6C15.434,14.346,15.228,14.502,15,14.502z"/>
		</g>
		<g id="XMLID_108_">
			<path d="M14.144,17.304c-0.037,0-0.074-0.004-0.112-0.013l-4.629-1.068c-0.27-0.062-0.437-0.331-0.375-0.6
				c0.063-0.269,0.327-0.437,0.6-0.375l4.629,1.068c0.27,0.062,0.437,0.331,0.375,0.6C14.577,17.148,14.372,17.304,14.144,17.304z"
				/>
		</g>
		<g id="XMLID_109_">
			<path d="M13.249,20.098c-0.037,0-0.074-0.004-0.112-0.013l-2.697-0.623c-0.27-0.062-0.437-0.331-0.375-0.6
				c0.063-0.269,0.33-0.438,0.6-0.375l2.697,0.623c0.27,0.062,0.437,0.331,0.375,0.6C13.683,19.941,13.478,20.098,13.249,20.098z"/>
		</g>
	</g>
</g>
<g id="Limonade_1">
</g>
<g id="Limonade_2">
</g>
<g id="Hat">
</g>
<g id="Straw_Hat">
</g>
<g id="Deckchair">
</g>
<g id="Sunshade">
</g>
<g id="Suncream">
</g>
<g id="Suntan_Oil">
</g>
<g id="Swimming_Trunks">
</g>
<g id="Bikini">
</g>
<g id="Pool">
</g>
<g id="Pool_Ladder">
</g>
<g id="Grill">
</g>
<g id="Kite_1">
</g>
<g id="Kite_2">
</g>
<g id="Badminton">
</g>
<g id="Cooler">
</g>
<g id="Strand_Bag">
</g>
<g id="Towel">
</g>
<g id="Strand_Ball">
</g>
<g id="Beach_Sign">
</g>
<g id="Toos">
</g>
<g id="Bucket">
</g>
<g id="Sand_Castle">
</g>
<g id="Shell_1">
</g>
<g id="Shell_2">
</g>
<g id="Surf_Board">
</g>
<g id="Float">
</g>
<g id="Vacation_Photo">
</g>
<g id="Summer_Time">
</g>
<g id="Boat">
</g>
<g id="Lifebuoy">
</g>
<g id="Lighthouse">
</g>
<g id="Sunset">
</g>
<g id="Dolphin">
</g>
<g id="Starfish">
</g>
<g id="Diving_Mask">
</g>
<g id="Sailboat">
</g>
<g id="Captin_Hat">
</g>
<g id="Eudder">
</g>
</svg>
