<?xml version="1.0" encoding="iso-8859-1"?>
<!-- Generator: Adobe Illustrator 19.2.1, SVG Export Plug-In . SVG Version: 6.00 Build 0)  -->
<svg version="1.1" xmlns="http://www.w3.org/2000/svg" xmlns:xlink="http://www.w3.org/1999/xlink" x="0px" y="0px"
	 viewBox="0 0 24 24" style="enable-background:new 0 0 24 24;" xml:space="preserve">
<g id="Sun_Light">
</g>
<g id="Sunglasses">
</g>
<g id="T-Shirt_1">
</g>
<g id="T-Shirt_2">
</g>
<g id="Mini_Dress">
</g>
<g id="Flip-Flops">
</g>
<g id="Temperature">
</g>
<g id="Hot_Temperature">
</g>
<g id="Ice_Lolly">
</g>
<g id="Icecream">
</g>
<g id="Limonade_1">
</g>
<g id="Limonade_2">
</g>
<g id="Hat">
</g>
<g id="Straw_Hat">
</g>
<g id="Deckchair">
</g>
<g id="Sunshade">
</g>
<g id="Suncream">
</g>
<g id="Suntan_Oil">
</g>
<g id="Swimming_Trunks">
</g>
<g id="Bikini">
</g>
<g id="Pool">
</g>
<g id="Pool_Ladder">
</g>
<g id="Grill">
</g>
<g id="Kite_1">
</g>
<g id="Kite_2">
	<g id="XMLID_189_">
		<g id="XMLID_190_">
			<path d="M23.5,24c-0.208,0-0.398-0.13-0.47-0.331C23,23.587,20.067,15.51,16.261,13.439c-2.446-1.332-5.472,0.47-5.502,0.488
				c-0.197,0.119-0.448,0.089-0.612-0.074c-0.163-0.162-0.193-0.415-0.075-0.612c0.019-0.03,1.814-3.067,0.489-5.502
				C8.49,3.933,0.413,1,0.331,0.971C0.103,0.889-0.034,0.654,0.007,0.415C0.049,0.175,0.257,0,0.5,0
				c12.415,0,21.029,1.993,21.115,2.013c0.185,0.043,0.329,0.188,0.372,0.373C22.007,2.472,24,11.117,24,23.5
				c0,0.243-0.175,0.451-0.415,0.492C23.557,23.998,23.528,24,23.5,24z M14.225,11.946c0.82,0,1.686,0.164,2.514,0.615
				c2.769,1.505,5.012,5.657,6.232,8.346c-0.216-9.616-1.571-16.49-1.891-17.988C19.585,2.6,12.729,1.245,3.092,1.029
				c2.69,1.22,6.841,3.463,8.347,6.232c1.015,1.865,0.573,3.918,0.091,5.208C12.247,12.202,13.2,11.946,14.225,11.946z"/>
		</g>
		<g id="XMLID_191_">
			<path d="M10.5,14c-0.128,0-0.256-0.049-0.354-0.146c-0.195-0.195-0.195-0.512,0-0.707l11-11c0.195-0.195,0.512-0.195,0.707,0
				s0.195,0.512,0,0.707l-11,11C10.756,13.951,10.628,14,10.5,14z"/>
		</g>
		<g id="XMLID_192_">
			<path d="M22.5,9c-0.128,0-0.256-0.049-0.354-0.146l-7-7c-0.195-0.195-0.195-0.512,0-0.707s0.512-0.195,0.707,0l7,7
				c0.195,0.195,0.195,0.512,0,0.707C22.756,8.951,22.628,9,22.5,9z"/>
		</g>
		<g id="XMLID_193_">
			<path d="M23.294,17.294c-0.128,0-0.256-0.049-0.354-0.146L6.821,1.028c-0.195-0.195-0.195-0.512,0-0.707s0.512-0.195,0.707,0
				l16.12,16.12c0.195,0.195,0.195,0.512,0,0.707C23.55,17.245,23.422,17.294,23.294,17.294z"/>
		</g>
		<g id="XMLID_194_">
			<path d="M10.035,21.466c-0.128,0-0.256-0.049-0.354-0.146c-0.195-0.195-0.195-0.512,0-0.707l8.715-8.716
				c0.195-0.195,0.512-0.195,0.707,0s0.195,0.512,0,0.707l-8.715,8.716C10.291,21.417,10.163,21.466,10.035,21.466z"/>
		</g>
		<g id="XMLID_195_">
			<path d="M9.5,24c-0.128,0-0.256-0.049-0.354-0.146l-2-2c-0.195-0.195-0.195-0.512,0-0.707l0.707-0.707
				C8.137,20.156,8.514,20,8.914,20C10.064,20,11,20.936,11,22.086c0,0.395-0.16,0.781-0.439,1.061l-0.707,0.707
				C9.756,23.951,9.628,24,9.5,24z M8.207,21.5L9.5,22.793l0.354-0.354C9.947,22.347,10,22.218,10,22.086
				C10,21.487,9.513,21,8.914,21c-0.131,0-0.26,0.054-0.354,0.146L8.207,21.5z"/>
		</g>
		<g id="XMLID_196_">
			<path d="M3.035,14.466c-0.128,0-0.256-0.049-0.354-0.146c-0.195-0.195-0.195-0.512,0-0.707l8.715-8.716
				c0.195-0.195,0.512-0.195,0.707,0s0.195,0.512,0,0.707l-8.715,8.716C3.291,14.417,3.163,14.466,3.035,14.466z"/>
		</g>
		<g id="XMLID_197_">
			<path d="M2.5,17c-0.128,0-0.256-0.049-0.354-0.146l-2-2c-0.195-0.195-0.195-0.512,0-0.707l0.707-0.707
				C1.137,13.156,1.514,13,1.914,13C3.064,13,4,13.936,4,15.086c0,0.395-0.16,0.781-0.439,1.061l-0.707,0.707
				C2.756,16.951,2.628,17,2.5,17z M1.207,14.5L2.5,15.793l0.354-0.354C2.947,15.347,3,15.218,3,15.086C3,14.487,2.513,14,1.914,14
				c-0.131,0-0.26,0.054-0.354,0.146L1.207,14.5z"/>
		</g>
	</g>
</g>
<g id="Badminton">
</g>
<g id="Cooler">
</g>
<g id="Strand_Bag">
</g>
<g id="Towel">
</g>
<g id="Strand_Ball">
</g>
<g id="Beach_Sign">
</g>
<g id="Toos">
</g>
<g id="Bucket">
</g>
<g id="Sand_Castle">
</g>
<g id="Shell_1">
</g>
<g id="Shell_2">
</g>
<g id="Surf_Board">
</g>
<g id="Float">
</g>
<g id="Vacation_Photo">
</g>
<g id="Summer_Time">
</g>
<g id="Boat">
</g>
<g id="Lifebuoy">
</g>
<g id="Lighthouse">
</g>
<g id="Sunset">
</g>
<g id="Dolphin">
</g>
<g id="Starfish">
</g>
<g id="Diving_Mask">
</g>
<g id="Sailboat">
</g>
<g id="Captin_Hat">
</g>
<g id="Eudder">
</g>
</svg>
