<?xml version="1.0" encoding="iso-8859-1"?>
<!-- Generator: Adobe Illustrator 19.2.1, SVG Export Plug-In . SVG Version: 6.00 Build 0)  -->
<svg version="1.1" xmlns="http://www.w3.org/2000/svg" xmlns:xlink="http://www.w3.org/1999/xlink" x="0px" y="0px"
	 viewBox="0 0 24 24" style="enable-background:new 0 0 24 24;" xml:space="preserve">
<g id="Sun_Light">
</g>
<g id="Sunglasses">
</g>
<g id="T-Shirt_1">
</g>
<g id="T-Shirt_2">
</g>
<g id="Mini_Dress">
</g>
<g id="Flip-Flops">
</g>
<g id="Temperature">
</g>
<g id="Hot_Temperature">
</g>
<g id="Ice_Lolly">
</g>
<g id="Icecream">
</g>
<g id="Limonade_1">
</g>
<g id="Limonade_2">
</g>
<g id="Hat">
</g>
<g id="Straw_Hat">
</g>
<g id="Deckchair">
</g>
<g id="Sunshade">
</g>
<g id="Suncream">
</g>
<g id="Suntan_Oil">
</g>
<g id="Swimming_Trunks">
</g>
<g id="Bikini">
</g>
<g id="Pool">
</g>
<g id="Pool_Ladder">
</g>
<g id="Grill">
</g>
<g id="Kite_1">
	<g id="XMLID_182_">
		<g id="XMLID_183_">
			<path d="M7.5,17c-0.131,0-0.259-0.052-0.354-0.146c-0.124-0.124-0.174-0.305-0.131-0.475l4-16c0.06-0.239,0.282-0.402,0.53-0.377
				l11,1c0.24,0.022,0.431,0.212,0.453,0.453l1,11c0.022,0.246-0.138,0.471-0.377,0.53l-16,4C7.581,16.995,7.541,17,7.5,17z
				 M11.881,1.037L8.187,15.813l14.776-3.694L22.04,1.96L11.881,1.037z"/>
		</g>
		<g id="XMLID_184_">
			<path d="M23.5,13c-0.128,0-0.256-0.049-0.354-0.146l-12-12c-0.195-0.195-0.195-0.512,0-0.707s0.512-0.195,0.707,0l12,12
				c0.195,0.195,0.195,0.512,0,0.707C23.756,12.951,23.628,13,23.5,13z"/>
		</g>
		<g id="XMLID_185_">
			<path d="M7.5,17c-0.128,0-0.256-0.049-0.354-0.146c-0.195-0.195-0.195-0.512,0-0.707l15-15c0.195-0.195,0.512-0.195,0.707,0
				s0.195,0.512,0,0.707l-15,15C7.756,16.951,7.628,17,7.5,17z"/>
		</g>
		<g id="XMLID_186_">
			<path d="M0.5,24c-0.2,0-0.389-0.121-0.466-0.318c-0.1-0.258,0.027-0.548,0.285-0.647c2.684-1.045,3.178-2.258,3.7-3.542
				c0.501-1.231,1.019-2.504,3.288-3.453c0.254-0.106,0.548,0.014,0.654,0.268c0.106,0.255-0.014,0.548-0.269,0.654
				c-1.886,0.789-2.285,1.771-2.748,2.908c-0.552,1.357-1.178,2.896-4.264,4.097C0.622,23.989,0.561,24,0.5,24z"/>
		</g>
		<g id="XMLID_187_">
			<path d="M6,20c-0.131,0-0.259-0.052-0.354-0.146L4.793,19H3.5c-0.173,0-0.334-0.09-0.425-0.237s-0.1-0.331-0.022-0.486l0.5-1
				c0.072-0.144,0.208-0.244,0.367-0.27c0.162-0.028,0.321,0.025,0.434,0.14L5.207,18H6.5c0.173,0,0.334,0.09,0.425,0.237
				s0.1,0.331,0.022,0.486l-0.5,1c-0.072,0.144-0.208,0.244-0.367,0.27C6.053,19.998,6.026,20,6,20z"/>
		</g>
		<g id="XMLID_188_">
			<path d="M3.5,23.5c-0.044,0-0.088-0.006-0.131-0.018c-0.151-0.041-0.274-0.151-0.333-0.297l-0.402-1.004l-1.214-0.444
				c-0.167-0.062-0.29-0.207-0.32-0.383c-0.031-0.175,0.033-0.354,0.169-0.469l0.909-0.768c0.123-0.104,0.288-0.142,0.444-0.104
				c0.156,0.039,0.284,0.15,0.343,0.3l0.432,1.081l1.184,0.433c0.171,0.063,0.294,0.213,0.322,0.394
				c0.028,0.18-0.044,0.36-0.188,0.472l-0.909,0.702C3.717,23.464,3.609,23.5,3.5,23.5z"/>
		</g>
	</g>
</g>
<g id="Kite_2">
</g>
<g id="Badminton">
</g>
<g id="Cooler">
</g>
<g id="Strand_Bag">
</g>
<g id="Towel">
</g>
<g id="Strand_Ball">
</g>
<g id="Beach_Sign">
</g>
<g id="Toos">
</g>
<g id="Bucket">
</g>
<g id="Sand_Castle">
</g>
<g id="Shell_1">
</g>
<g id="Shell_2">
</g>
<g id="Surf_Board">
</g>
<g id="Float">
</g>
<g id="Vacation_Photo">
</g>
<g id="Summer_Time">
</g>
<g id="Boat">
</g>
<g id="Lifebuoy">
</g>
<g id="Lighthouse">
</g>
<g id="Sunset">
</g>
<g id="Dolphin">
</g>
<g id="Starfish">
</g>
<g id="Diving_Mask">
</g>
<g id="Sailboat">
</g>
<g id="Captin_Hat">
</g>
<g id="Eudder">
</g>
</svg>
