<?xml version="1.0" encoding="iso-8859-1"?>
<!-- Generator: Adobe Illustrator 19.2.1, SVG Export Plug-In . SVG Version: 6.00 Build 0)  -->
<svg version="1.1" xmlns="http://www.w3.org/2000/svg" xmlns:xlink="http://www.w3.org/1999/xlink" x="0px" y="0px"
	 viewBox="0 0 24 24" style="enable-background:new 0 0 24 24;" xml:space="preserve">
<g id="Sun_Light">
</g>
<g id="Sunglasses">
</g>
<g id="T-Shirt_1">
</g>
<g id="T-Shirt_2">
</g>
<g id="Mini_Dress">
</g>
<g id="Flip-Flops">
</g>
<g id="Temperature">
</g>
<g id="Hot_Temperature">
</g>
<g id="Ice_Lolly">
</g>
<g id="Icecream">
</g>
<g id="Limonade_1">
</g>
<g id="Limonade_2">
</g>
<g id="Hat">
</g>
<g id="Straw_Hat">
</g>
<g id="Deckchair">
</g>
<g id="Sunshade">
</g>
<g id="Suncream">
</g>
<g id="Suntan_Oil">
</g>
<g id="Swimming_Trunks">
</g>
<g id="Bikini">
</g>
<g id="Pool">
</g>
<g id="Pool_Ladder">
</g>
<g id="Grill">
</g>
<g id="Kite_1">
</g>
<g id="Kite_2">
</g>
<g id="Badminton">
</g>
<g id="Cooler">
</g>
<g id="Strand_Bag">
</g>
<g id="Towel">
</g>
<g id="Strand_Ball">
</g>
<g id="Beach_Sign">
</g>
<g id="Toos">
</g>
<g id="Bucket">
</g>
<g id="Sand_Castle">
</g>
<g id="Shell_1">
</g>
<g id="Shell_2">
</g>
<g id="Surf_Board">
</g>
<g id="Float">
</g>
<g id="Vacation_Photo">
</g>
<g id="Summer_Time">
</g>
<g id="Boat">
</g>
<g id="Lifebuoy">
	<g id="XMLID_319_">
		<g id="XMLID_374_">
			<path d="M12,24C5.383,24,0,18.617,0,12S5.383,0,12,0s12,5.383,12,12S18.617,24,12,24z M12,1C5.935,1,1,5.935,1,12s4.935,11,11,11
				s11-4.935,11-11S18.065,1,12,1z"/>
		</g>
		<g id="XMLID_373_">
			<path d="M12,18c-3.309,0-6-2.691-6-6s2.691-6,6-6s6,2.691,6,6S15.309,18,12,18z M12,7c-2.757,0-5,2.243-5,5s2.243,5,5,5
				s5-2.243,5-5S14.757,7,12,7z"/>
		</g>
		<g id="XMLID_372_">
			<path d="M9.5,7.572c-0.276,0-0.5-0.224-0.5-0.5v-6.3c0-0.276,0.224-0.5,0.5-0.5s0.5,0.224,0.5,0.5v6.3
				C10,7.349,9.776,7.572,9.5,7.572z"/>
		</g>
		<g id="XMLID_371_">
			<path d="M14.5,7.572c-0.276,0-0.5-0.224-0.5-0.5v-6.3c0-0.276,0.224-0.5,0.5-0.5s0.5,0.224,0.5,0.5v6.3
				C15,7.349,14.776,7.572,14.5,7.572z"/>
		</g>
		<g id="XMLID_370_">
			<path d="M9.5,23.734c-0.276,0-0.5-0.224-0.5-0.5V16.9c0-0.276,0.224-0.5,0.5-0.5s0.5,0.224,0.5,0.5v6.334
				C10,23.511,9.776,23.734,9.5,23.734z"/>
		</g>
		<g id="XMLID_369_">
			<path d="M14.5,23.728c-0.276,0-0.5-0.224-0.5-0.5V16.9c0-0.276,0.224-0.5,0.5-0.5s0.5,0.224,0.5,0.5v6.327
				C15,23.504,14.776,23.728,14.5,23.728z"/>
		</g>
		<g id="XMLID_368_">
			<path d="M23.228,10H16.9c-0.276,0-0.5-0.224-0.5-0.5S16.624,9,16.9,9h6.328c0.276,0,0.5,0.224,0.5,0.5S23.504,10,23.228,10z"/>
		</g>
		<g id="XMLID_367_">
			<path d="M23.228,15H16.9c-0.276,0-0.5-0.224-0.5-0.5s0.224-0.5,0.5-0.5h6.328c0.276,0,0.5,0.224,0.5,0.5S23.504,15,23.228,15z"/>
		</g>
		<g id="XMLID_349_">
			<path d="M7.1,10H0.772c-0.276,0-0.5-0.224-0.5-0.5S0.496,9,0.772,9H7.1c0.276,0,0.5,0.224,0.5,0.5S7.376,10,7.1,10z"/>
		</g>
		<g id="XMLID_348_">
			<path d="M7.1,15H0.772c-0.276,0-0.5-0.224-0.5-0.5s0.224-0.5,0.5-0.5H7.1c0.276,0,0.5,0.224,0.5,0.5S7.376,15,7.1,15z"/>
		</g>
		<g id="XMLID_320_">
			<g id="XMLID_347_">
				<path d="M22.5,7.824c-0.276,0-0.5-0.224-0.5-0.5V5.5C22,3.57,20.43,2,18.5,2h-1.824c-0.276,0-0.5-0.224-0.5-0.5S16.4,1,16.676,1
					H18.5C20.981,1,23,3.019,23,5.5v1.824C23,7.601,22.776,7.824,22.5,7.824z"/>
			</g>
			<g id="XMLID_323_">
				<path d="M1.5,7.824c-0.276,0-0.5-0.224-0.5-0.5V5.5C1,3.019,3.019,1,5.5,1h1.824c0.276,0,0.5,0.224,0.5,0.5S7.6,2,7.324,2H5.5
					C3.57,2,2,3.57,2,5.5v1.824C2,7.601,1.776,7.824,1.5,7.824z"/>
			</g>
			<g id="XMLID_322_">
				<path d="M18.5,23h-1.824c-0.276,0-0.5-0.224-0.5-0.5s0.224-0.5,0.5-0.5H18.5c1.93,0,3.5-1.57,3.5-3.5v-1.824
					c0-0.276,0.224-0.5,0.5-0.5s0.5,0.224,0.5,0.5V18.5C23,20.981,20.981,23,18.5,23z"/>
			</g>
			<g id="XMLID_321_">
				<path d="M7.303,23H5.5C3.019,23,1,20.981,1,18.5v-1.782c0-0.276,0.224-0.5,0.5-0.5s0.5,0.224,0.5,0.5V18.5
					C2,20.43,3.57,22,5.5,22h1.803c0.276,0,0.5,0.224,0.5,0.5S7.579,23,7.303,23z"/>
			</g>
		</g>
	</g>
</g>
<g id="Lighthouse">
</g>
<g id="Sunset">
</g>
<g id="Dolphin">
</g>
<g id="Starfish">
</g>
<g id="Diving_Mask">
</g>
<g id="Sailboat">
</g>
<g id="Captin_Hat">
</g>
<g id="Eudder">
</g>
</svg>
