<?xml version="1.0" encoding="iso-8859-1"?>
<!-- Generator: Adobe Illustrator 19.2.1, SVG Export Plug-In . SVG Version: 6.00 Build 0)  -->
<svg version="1.1" xmlns="http://www.w3.org/2000/svg" xmlns:xlink="http://www.w3.org/1999/xlink" x="0px" y="0px"
	 viewBox="0 0 24 24" style="enable-background:new 0 0 24 24;" xml:space="preserve">
<g id="Sun_Light">
</g>
<g id="Sunglasses">
</g>
<g id="T-Shirt_1">
</g>
<g id="T-Shirt_2">
</g>
<g id="Mini_Dress">
</g>
<g id="Flip-Flops">
</g>
<g id="Temperature">
</g>
<g id="Hot_Temperature">
</g>
<g id="Ice_Lolly">
</g>
<g id="Icecream">
</g>
<g id="Limonade_1">
</g>
<g id="Limonade_2">
</g>
<g id="Hat">
</g>
<g id="Straw_Hat">
</g>
<g id="Deckchair">
</g>
<g id="Sunshade">
</g>
<g id="Suncream">
</g>
<g id="Suntan_Oil">
</g>
<g id="Swimming_Trunks">
</g>
<g id="Bikini">
</g>
<g id="Pool">
</g>
<g id="Pool_Ladder">
</g>
<g id="Grill">
</g>
<g id="Kite_1">
</g>
<g id="Kite_2">
</g>
<g id="Badminton">
</g>
<g id="Cooler">
</g>
<g id="Strand_Bag">
</g>
<g id="Towel">
</g>
<g id="Strand_Ball">
</g>
<g id="Beach_Sign">
</g>
<g id="Toos">
</g>
<g id="Bucket">
</g>
<g id="Sand_Castle">
</g>
<g id="Shell_1">
</g>
<g id="Shell_2">
</g>
<g id="Surf_Board">
</g>
<g id="Float">
</g>
<g id="Vacation_Photo">
</g>
<g id="Summer_Time">
</g>
<g id="Boat">
</g>
<g id="Lifebuoy">
</g>
<g id="Lighthouse">
	<g id="XMLID_324_">
		<g id="XMLID_325_">
			<path d="M15.5,24h-8c-0.138,0-0.271-0.058-0.365-0.158c-0.094-0.102-0.143-0.237-0.134-0.375l1-15C8.019,8.204,8.237,8,8.5,8h6
				c0.263,0,0.481,0.204,0.499,0.467l1,15c0.009,0.138-0.04,0.273-0.134,0.375C15.771,23.942,15.638,24,15.5,24z M8.035,23h6.931
				L14.032,9H8.968L8.035,23z"/>
		</g>
		<g id="XMLID_326_">
			<path d="M13.5,7h-4C9.224,7,9,6.776,9,6.5v-3C9,3.224,9.224,3,9.5,3h4C13.776,3,14,3.224,14,3.5v3C14,6.776,13.776,7,13.5,7z
				 M10,6h3V4h-3V6z"/>
		</g>
		<g id="XMLID_327_">
			<path d="M14.5,9h-6C8.224,9,8,8.776,8,8.5v-2C8,6.224,8.224,6,8.5,6h6C14.776,6,15,6.224,15,6.5v2C15,8.776,14.776,9,14.5,9z
				 M9,8h5V7H9V8z"/>
		</g>
		<g id="XMLID_328_">
			<path d="M10.5,9C10.224,9,10,8.776,10,8.5v-2C10,6.224,10.224,6,10.5,6S11,6.224,11,6.5v2C11,8.776,10.776,9,10.5,9z"/>
		</g>
		<g id="XMLID_329_">
			<path d="M12.5,9C12.224,9,12,8.776,12,8.5v-2C12,6.224,12.224,6,12.5,6S13,6.224,13,6.5v2C13,8.776,12.776,9,12.5,9z"/>
		</g>
		<g id="XMLID_330_">
			<path d="M14.5,4h-6C8.28,4,8.085,3.855,8.021,3.645S8.04,3.206,8.223,3.084l3-2c0.168-0.111,0.387-0.111,0.555,0l3,2
				c0.183,0.122,0.265,0.35,0.201,0.561S14.72,4,14.5,4z M10.151,3h2.697L11.5,2.101L10.151,3z"/>
		</g>
		<g id="XMLID_331_">
			<path d="M11.5,2c-0.551,0-1-0.448-1-1s0.449-1,1-1s1,0.448,1,1S12.051,2,11.5,2z M11.5,0.999C11.5,0.999,11.5,1,11.5,0.999L12,1
				L11.5,0.999z"/>
		</g>
		<g id="XMLID_332_">
			<path d="M14.833,14H8.167c-0.276,0-0.5-0.224-0.5-0.5S7.89,13,8.167,13h6.667c0.276,0,0.5,0.224,0.5,0.5S15.11,14,14.833,14z"/>
		</g>
		<g id="XMLID_333_">
			<path d="M15.167,19H7.83c-0.276,0-0.5-0.224-0.5-0.5S7.553,18,7.83,18h7.337c0.276,0,0.5,0.224,0.5,0.5S15.443,19,15.167,19z"/>
		</g>
	</g>
</g>
<g id="Sunset">
</g>
<g id="Dolphin">
</g>
<g id="Starfish">
</g>
<g id="Diving_Mask">
</g>
<g id="Sailboat">
</g>
<g id="Captin_Hat">
</g>
<g id="Eudder">
</g>
</svg>
