<?xml version="1.0" encoding="iso-8859-1"?>
<!-- Generator: Adobe Illustrator 19.2.1, SVG Export Plug-In . SVG Version: 6.00 Build 0)  -->
<svg version="1.1" xmlns="http://www.w3.org/2000/svg" xmlns:xlink="http://www.w3.org/1999/xlink" x="0px" y="0px"
	 viewBox="0 0 24 24" style="enable-background:new 0 0 24 24;" xml:space="preserve">
<g id="Sun_Light">
</g>
<g id="Sunglasses">
</g>
<g id="T-Shirt_1">
</g>
<g id="T-Shirt_2">
</g>
<g id="Mini_Dress">
</g>
<g id="Flip-Flops">
</g>
<g id="Temperature">
</g>
<g id="Hot_Temperature">
</g>
<g id="Ice_Lolly">
</g>
<g id="Icecream">
</g>
<g id="Limonade_1">
</g>
<g id="Limonade_2">
	<g id="XMLID_119_">
		<g>
			<path d="M11.999,20.003h-6c-0.112,0-0.222-0.038-0.31-0.108c-0.11-0.086-2.69-2.156-2.69-4.892c0-1.26,0.559-2.639,1.1-3.973
				c0.463-1.143,0.9-2.222,0.9-3.027c0-0.837-1.024-2.25-1.383-2.679C3.505,5.193,3.47,5.015,3.522,4.853
				C3.573,4.69,3.705,4.564,3.87,4.521c3.001-0.801,4.623-0.51,6.051-0.251c1.293,0.232,2.41,0.436,4.418-0.24
				c0.23-0.076,0.485,0.023,0.601,0.239c0.115,0.216,0.057,0.483-0.137,0.632c-0.872,0.668-1.804,1.672-1.804,2.103
				c0,2.211,0.532,3.299,1.045,4.351c0.469,0.96,0.955,1.953,0.955,3.649c0,2.931-2.598,4.827-2.708,4.906
				C12.205,19.971,12.103,20.003,11.999,20.003z M6.182,19.003h5.645c0.473-0.385,2.172-1.914,2.172-4
				c0-1.465-0.395-2.274-0.853-3.21c-0.538-1.1-1.147-2.348-1.147-4.79c0-0.508,0.353-1.075,0.78-1.575
				c-1.197,0.156-2.098-0.007-3.036-0.176C8.479,5.024,7.176,4.789,4.857,5.307c0.48,0.682,1.141,1.786,1.141,2.696
				c0,1-0.473,2.167-0.974,3.403c-0.504,1.245-1.026,2.533-1.026,3.597C3.999,16.94,5.698,18.577,6.182,19.003z"/>
		</g>
		<g id="XMLID_120_">
			<path d="M3.397,16.006c-0.329,0-1.154-0.063-1.749-0.646c-1.018-0.997-1.694-2.632-1.645-3.976
				c0.026-0.711,0.258-1.272,0.671-1.622c1.794-1.521,4.43-0.264,4.542-0.209c0.248,0.121,0.351,0.419,0.23,0.667
				c-0.12,0.249-0.419,0.353-0.667,0.232c-0.022-0.011-2.164-1.025-3.458,0.073c-0.19,0.162-0.304,0.479-0.319,0.896
				c-0.039,1.066,0.527,2.422,1.346,3.225c0.413,0.405,1.101,0.361,1.108,0.359c0.281-0.027,0.517,0.181,0.54,0.457
				c0.023,0.275-0.181,0.517-0.457,0.54C3.531,16.002,3.479,16.006,3.397,16.006z"/>
		</g>
		<g id="XMLID_121_">
			<path d="M13.999,13.003h-9.5c-0.276,0-0.5-0.224-0.5-0.5s0.224-0.5,0.5-0.5h9.5c0.276,0,0.5,0.224,0.5,0.5
				S14.275,13.003,13.999,13.003z"/>
		</g>
		<g id="XMLID_122_">
			<circle cx="9.499" cy="14.503" r="0.5"/>
		</g>
		<g id="XMLID_123_">
			<circle cx="11.499" cy="15.503" r="0.5"/>
		</g>
		<g id="XMLID_124_">
			<circle cx="21.499" cy="14.503" r="0.5"/>
		</g>
		<g id="XMLID_125_">
			<circle cx="19.499" cy="15.503" r="0.5"/>
		</g>
		<g id="XMLID_126_">
			<circle cx="21.499" cy="16.503" r="0.5"/>
		</g>
		<g id="XMLID_127_">
			<path d="M22.499,20.003h-4c-0.255,0-0.469-0.191-0.497-0.445l-1-9c-0.016-0.141,0.03-0.283,0.125-0.389s0.23-0.167,0.373-0.167h6
				c0.142,0,0.278,0.061,0.373,0.167s0.14,0.248,0.125,0.389l-1,9C22.967,19.812,22.753,20.003,22.499,20.003z M18.946,19.003h3.104
				l0.889-8h-4.883L18.946,19.003z"/>
		</g>
		<g id="XMLID_128_">
			<path d="M7.999,18.003c-1.103,0-2-0.897-2-2c0-0.534,0.208-1.037,0.586-1.415c0.094-0.094,0.221-0.146,0.354-0.146l0,0
				c0.133,0,0.26,0.053,0.354,0.146l2.121,2.122c0.195,0.195,0.195,0.512,0,0.707C9.035,17.795,8.533,18.003,7.999,18.003z
				 M7.032,15.744c-0.022,0.083-0.034,0.17-0.034,0.259c0,0.64,0.657,1.125,1.259,0.966L7.032,15.744z"/>
		</g>
		<g id="XMLID_129_">
			<path d="M22.999,14.003h-5c-0.276,0-0.5-0.224-0.5-0.5s0.224-0.5,0.5-0.5h5c0.276,0,0.5,0.224,0.5,0.5
				S23.275,14.003,22.999,14.003z"/>
		</g>
	</g>
</g>
<g id="Hat">
</g>
<g id="Straw_Hat">
</g>
<g id="Deckchair">
</g>
<g id="Sunshade">
</g>
<g id="Suncream">
</g>
<g id="Suntan_Oil">
</g>
<g id="Swimming_Trunks">
</g>
<g id="Bikini">
</g>
<g id="Pool">
</g>
<g id="Pool_Ladder">
</g>
<g id="Grill">
</g>
<g id="Kite_1">
</g>
<g id="Kite_2">
</g>
<g id="Badminton">
</g>
<g id="Cooler">
</g>
<g id="Strand_Bag">
</g>
<g id="Towel">
</g>
<g id="Strand_Ball">
</g>
<g id="Beach_Sign">
</g>
<g id="Toos">
</g>
<g id="Bucket">
</g>
<g id="Sand_Castle">
</g>
<g id="Shell_1">
</g>
<g id="Shell_2">
</g>
<g id="Surf_Board">
</g>
<g id="Float">
</g>
<g id="Vacation_Photo">
</g>
<g id="Summer_Time">
</g>
<g id="Boat">
</g>
<g id="Lifebuoy">
</g>
<g id="Lighthouse">
</g>
<g id="Sunset">
</g>
<g id="Dolphin">
</g>
<g id="Starfish">
</g>
<g id="Diving_Mask">
</g>
<g id="Sailboat">
</g>
<g id="Captin_Hat">
</g>
<g id="Eudder">
</g>
</svg>
