<?xml version="1.0" encoding="iso-8859-1"?>
<!-- Generator: Adobe Illustrator 19.2.1, SVG Export Plug-In . SVG Version: 6.00 Build 0)  -->
<svg version="1.1" xmlns="http://www.w3.org/2000/svg" xmlns:xlink="http://www.w3.org/1999/xlink" x="0px" y="0px"
	 viewBox="0 0 24 24" style="enable-background:new 0 0 24 24;" xml:space="preserve">
<g id="Sun_Light">
</g>
<g id="Sunglasses">
</g>
<g id="T-Shirt_1">
</g>
<g id="T-Shirt_2">
</g>
<g id="Mini_Dress">
</g>
<g id="Flip-Flops">
</g>
<g id="Temperature">
</g>
<g id="Hot_Temperature">
</g>
<g id="Ice_Lolly">
</g>
<g id="Icecream">
</g>
<g id="Limonade_1">
	<g id="XMLID_110_">
		<g id="XMLID_111_">
			<path d="M14.111,24H8.889c-0.76,0-1.4-0.569-1.49-1.324L5.504,8.566C5.485,8.424,5.529,8.279,5.624,8.171
				C5.719,8.063,5.856,8,6,8h11c0.144,0,0.281,0.063,0.376,0.171c0.095,0.108,0.138,0.253,0.119,0.396L15.6,22.684
				C15.511,23.431,14.871,24,14.111,24z M6.572,9l1.82,13.551C8.422,22.81,8.636,23,8.889,23h5.222c0.253,0,0.467-0.19,0.497-0.441
				L16.428,9H6.572z"/>
		</g>
		<g id="XMLID_112_">
			<path d="M17.5,12c-0.325,0-0.647-0.039-0.958-0.116c-0.268-0.066-0.432-0.337-0.365-0.605c0.066-0.269,0.335-0.431,0.605-0.365
				C17.014,10.971,17.256,11,17.5,11c1.654,0,3-1.346,3-3s-1.346-3-3-3s-3,1.346-3,3c0,0.146,0.01,0.289,0.031,0.429
				c0.039,0.273-0.151,0.527-0.424,0.566c-0.283,0.037-0.527-0.151-0.566-0.424C13.514,8.385,13.5,8.194,13.5,8c0-2.206,1.794-4,4-4
				s4,1.794,4,4S19.706,12,17.5,12z"/>
		</g>
		<g id="XMLID_113_">
			<path d="M10,21c-0.263,0-0.484-0.206-0.499-0.472l-0.5-9c-0.016-0.276,0.196-0.512,0.471-0.527
				c0.28-0.022,0.512,0.196,0.527,0.471l0.5,9c0.016,0.276-0.196,0.512-0.471,0.527C10.018,21,10.009,21,10,21z"/>
		</g>
		<g id="XMLID_114_">
			<path d="M13,21c-0.009,0-0.019,0-0.028-0.001c-0.275-0.015-0.487-0.251-0.471-0.527l0.5-9c0.015-0.276,0.233-0.496,0.527-0.471
				c0.275,0.015,0.487,0.251,0.471,0.527l-0.5,9C13.484,20.794,13.264,21,13,21z"/>
		</g>
		<g id="XMLID_115_">
			<path d="M10,9C9.791,9,9.596,8.868,9.526,8.659L7.067,1.308C7.012,1.162,6.88,1.048,6.71,1.012
				c-0.17-0.04-0.337,0.013-0.459,0.135L3.394,4.808C3.224,5.024,2.91,5.063,2.692,4.894C2.475,4.724,2.436,4.41,2.606,4.192
				l2.898-3.707C5.906,0.078,6.42-0.074,6.922,0.034c0.5,0.108,0.907,0.459,1.087,0.939l2.465,7.368
				c0.088,0.262-0.054,0.545-0.315,0.633C10.106,8.992,10.053,9,10,9z"/>
		</g>
		<g id="XMLID_116_">
			<path d="M18.5,7.5c-0.128,0-0.256-0.049-0.354-0.146c-0.195-0.195-0.195-0.512,0-0.707l0.5-0.5c0.195-0.195,0.512-0.195,0.707,0
				s0.195,0.512,0,0.707l-0.5,0.5C18.756,7.451,18.628,7.5,18.5,7.5z"/>
		</g>
		<g id="XMLID_117_">
			<path d="M16.5,7.5c-0.128,0-0.256-0.049-0.354-0.146l-0.5-0.5c-0.195-0.195-0.195-0.512,0-0.707s0.512-0.195,0.707,0l0.5,0.5
				c0.195,0.195,0.195,0.512,0,0.707C16.756,7.451,16.628,7.5,16.5,7.5z"/>
		</g>
		<g id="XMLID_118_">
			<path d="M19,10c-0.128,0-0.256-0.049-0.354-0.146l-0.5-0.5c-0.195-0.195-0.195-0.512,0-0.707s0.512-0.195,0.707,0l0.5,0.5
				c0.195,0.195,0.195,0.512,0,0.707C19.256,9.951,19.128,10,19,10z"/>
		</g>
	</g>
</g>
<g id="Limonade_2">
</g>
<g id="Hat">
</g>
<g id="Straw_Hat">
</g>
<g id="Deckchair">
</g>
<g id="Sunshade">
</g>
<g id="Suncream">
</g>
<g id="Suntan_Oil">
</g>
<g id="Swimming_Trunks">
</g>
<g id="Bikini">
</g>
<g id="Pool">
</g>
<g id="Pool_Ladder">
</g>
<g id="Grill">
</g>
<g id="Kite_1">
</g>
<g id="Kite_2">
</g>
<g id="Badminton">
</g>
<g id="Cooler">
</g>
<g id="Strand_Bag">
</g>
<g id="Towel">
</g>
<g id="Strand_Ball">
</g>
<g id="Beach_Sign">
</g>
<g id="Toos">
</g>
<g id="Bucket">
</g>
<g id="Sand_Castle">
</g>
<g id="Shell_1">
</g>
<g id="Shell_2">
</g>
<g id="Surf_Board">
</g>
<g id="Float">
</g>
<g id="Vacation_Photo">
</g>
<g id="Summer_Time">
</g>
<g id="Boat">
</g>
<g id="Lifebuoy">
</g>
<g id="Lighthouse">
</g>
<g id="Sunset">
</g>
<g id="Dolphin">
</g>
<g id="Starfish">
</g>
<g id="Diving_Mask">
</g>
<g id="Sailboat">
</g>
<g id="Captin_Hat">
</g>
<g id="Eudder">
</g>
</svg>
