<?xml version="1.0" encoding="iso-8859-1"?>
<!-- Generator: Adobe Illustrator 19.2.1, SVG Export Plug-In . SVG Version: 6.00 Build 0)  -->
<svg version="1.1" xmlns="http://www.w3.org/2000/svg" xmlns:xlink="http://www.w3.org/1999/xlink" x="0px" y="0px"
	 viewBox="0 0 24 24" style="enable-background:new 0 0 24 24;" xml:space="preserve">
<g id="Sun_Light">
</g>
<g id="Sunglasses">
</g>
<g id="T-Shirt_1">
</g>
<g id="T-Shirt_2">
</g>
<g id="Mini_Dress">
	<g id="XMLID_78_">
		<g>
			<path d="M11,24c-6.005,0-8.578-0.993-8.685-1.035c-0.133-0.053-0.237-0.161-0.286-0.296c-0.048-0.135-0.037-0.284,0.033-0.41
				l3.788-6.88c0.162-0.33,0.16-0.505,0.153-1.028L6,14c0-1.358-0.2-2.125-0.792-4.404C4.915,8.471,4.829,7.649,4.913,6.867
				C4.976,6.279,5.008,5.651,5.008,5c0-1.476-0.17-2.871-0.443-3.64C4.52,1.23,4.529,1.088,4.591,0.965
				C4.646,0.842,4.675,0.778,4.71,0.719C4.981,0.275,5.475,0,6,0h0.5c0.201,0,0.382,0.12,0.46,0.305
				C8.267,3.385,10.26,5.246,11,5.863c0.74-0.617,2.733-2.478,4.04-5.558C15.118,0.12,15.299,0,15.5,0H16
				c0.525,0,1.019,0.275,1.29,0.719c0.036,0.059,0.065,0.123,0.093,0.188c0.05,0.116,0.094,0.335,0.052,0.454
				C17.162,2.129,16.992,3.524,16.992,5c0,0.651,0.032,1.279,0.095,1.867c0.084,0.783-0.001,1.604-0.278,2.666
				C16.2,11.875,16,12.642,16,14l-0.003,0.35c-0.007,0.523-0.009,0.699,0.164,1.048l3.777,6.86c0.069,0.126,0.081,0.275,0.033,0.41
				c-0.049,0.135-0.153,0.243-0.286,0.296C19.578,23.007,17.005,24,11,24z M3.233,22.204C4.256,22.481,6.741,23,11,23
				s6.744-0.519,7.767-0.796l-3.493-6.343c-0.289-0.585-0.284-0.958-0.277-1.524L15,14c0-1.486,0.225-2.349,0.825-4.655
				c0.261-1.003,0.338-1.714,0.268-2.371C16.026,6.351,15.992,5.687,15.992,5c0-1.484,0.16-2.866,0.431-3.763
				C16.309,1.073,16.159,1,16,1h-0.172c-1.746,3.895-4.422,5.826-4.538,5.908c-0.174,0.123-0.405,0.123-0.579,0
				C10.595,6.826,7.918,4.895,6.172,1H6C5.827,1,5.665,1.086,5.573,1.225C5.847,2.123,6.008,3.51,6.008,5
				c0,0.687-0.034,1.351-0.101,1.974C5.837,7.63,5.915,8.342,6.159,9.28C6.775,11.651,7,12.514,7,14l0.003,0.337
				c0.007,0.565,0.012,0.939-0.266,1.504L3.233,22.204z"/>
		</g>
		<g id="XMLID_79_">
			<path d="M11,16c-2.49,0-4.533-0.493-4.619-0.514c-0.268-0.066-0.432-0.336-0.367-0.604c0.066-0.268,0.336-0.434,0.604-0.367
				C6.639,14.519,8.636,15,11,15c2.351,0,4.362-0.481,4.382-0.486c0.268-0.065,0.539,0.1,0.604,0.368
				c0.065,0.268-0.1,0.539-0.368,0.604C15.531,15.507,13.469,16,11,16z"/>
		</g>
		<g id="XMLID_80_">
			<path d="M11,14c-2.49,0-4.533-0.493-4.619-0.514c-0.268-0.066-0.432-0.336-0.367-0.604c0.066-0.268,0.336-0.432,0.604-0.367
				C6.639,12.519,8.636,13,11,13c2.351,0,4.362-0.481,4.382-0.486c0.268-0.063,0.539,0.1,0.604,0.368s-0.1,0.539-0.368,0.604
				C15.531,13.507,13.469,14,11,14z"/>
		</g>
	</g>
</g>
<g id="Flip-Flops">
</g>
<g id="Temperature">
</g>
<g id="Hot_Temperature">
</g>
<g id="Ice_Lolly">
</g>
<g id="Icecream">
</g>
<g id="Limonade_1">
</g>
<g id="Limonade_2">
</g>
<g id="Hat">
</g>
<g id="Straw_Hat">
</g>
<g id="Deckchair">
</g>
<g id="Sunshade">
</g>
<g id="Suncream">
</g>
<g id="Suntan_Oil">
</g>
<g id="Swimming_Trunks">
</g>
<g id="Bikini">
</g>
<g id="Pool">
</g>
<g id="Pool_Ladder">
</g>
<g id="Grill">
</g>
<g id="Kite_1">
</g>
<g id="Kite_2">
</g>
<g id="Badminton">
</g>
<g id="Cooler">
</g>
<g id="Strand_Bag">
</g>
<g id="Towel">
</g>
<g id="Strand_Ball">
</g>
<g id="Beach_Sign">
</g>
<g id="Toos">
</g>
<g id="Bucket">
</g>
<g id="Sand_Castle">
</g>
<g id="Shell_1">
</g>
<g id="Shell_2">
</g>
<g id="Surf_Board">
</g>
<g id="Float">
</g>
<g id="Vacation_Photo">
</g>
<g id="Summer_Time">
</g>
<g id="Boat">
</g>
<g id="Lifebuoy">
</g>
<g id="Lighthouse">
</g>
<g id="Sunset">
</g>
<g id="Dolphin">
</g>
<g id="Starfish">
</g>
<g id="Diving_Mask">
</g>
<g id="Sailboat">
</g>
<g id="Captin_Hat">
</g>
<g id="Eudder">
</g>
</svg>
