<?xml version="1.0" encoding="iso-8859-1"?>
<!-- Generator: Adobe Illustrator 19.2.1, SVG Export Plug-In . SVG Version: 6.00 Build 0)  -->
<svg version="1.1" xmlns="http://www.w3.org/2000/svg" xmlns:xlink="http://www.w3.org/1999/xlink" x="0px" y="0px"
	 viewBox="0 0 24 24" style="enable-background:new 0 0 24 24;" xml:space="preserve">
<g id="Sun_Light">
</g>
<g id="Sunglasses">
</g>
<g id="T-Shirt_1">
</g>
<g id="T-Shirt_2">
</g>
<g id="Mini_Dress">
</g>
<g id="Flip-Flops">
</g>
<g id="Temperature">
</g>
<g id="Hot_Temperature">
</g>
<g id="Ice_Lolly">
</g>
<g id="Icecream">
</g>
<g id="Limonade_1">
</g>
<g id="Limonade_2">
</g>
<g id="Hat">
</g>
<g id="Straw_Hat">
</g>
<g id="Deckchair">
</g>
<g id="Sunshade">
</g>
<g id="Suncream">
</g>
<g id="Suntan_Oil">
</g>
<g id="Swimming_Trunks">
</g>
<g id="Bikini">
</g>
<g id="Pool">
</g>
<g id="Pool_Ladder">
	<g id="XMLID_159_">
		<path d="M21.5,8h-13C8.224,8,8,7.776,8,7.5S8.224,7,8.5,7h13C21.776,7,22,7.224,22,7.5S21.776,8,21.5,8z"/>
	</g>
	<g id="XMLID_165_">
		<path d="M21.5,10h-13C8.224,10,8,9.776,8,9.5S8.224,9,8.5,9h13C21.776,9,22,9.224,22,9.5S21.776,10,21.5,10z"/>
	</g>
	<g id="XMLID_166_">
		<path d="M21.5,14h-13C8.224,14,8,13.776,8,13.5S8.224,13,8.5,13h13c0.276,0,0.5,0.224,0.5,0.5S21.776,14,21.5,14z"/>
	</g>
	<g id="XMLID_167_">
		<path d="M21.5,16h-13C8.224,16,8,15.776,8,15.5S8.224,15,8.5,15h13c0.276,0,0.5,0.224,0.5,0.5S21.776,16,21.5,16z"/>
	</g>
	<g id="XMLID_168_">
		<path d="M21.5,22h-13C8.224,22,8,21.776,8,21.5S8.224,21,8.5,21h13c0.276,0,0.5,0.224,0.5,0.5S21.776,22,21.5,22z"/>
	</g>
	<g id="XMLID_169_">
		<path d="M21.5,20h-13C8.224,20,8,19.776,8,19.5S8.224,19,8.5,19h13c0.276,0,0.5,0.224,0.5,0.5S21.776,20,21.5,20z"/>
	</g>
	<g id="XMLID_170_">
		<path d="M8.5,24C8.224,24,8,23.776,8,23.5v-20C8,2.122,6.878,1,5.5,1S3,2.122,3,3.5v1C3,4.776,2.776,5,2.5,5S2,4.776,2,4.5v-1
			C2,1.57,3.57,0,5.5,0S9,1.57,9,3.5v20C9,23.776,8.776,24,8.5,24z"/>
	</g>
	<g id="XMLID_171_">
		<path d="M21.5,24c-0.276,0-0.5-0.224-0.5-0.5v-20C21,2.122,19.878,1,18.5,1S16,2.122,16,3.5v1C16,4.776,15.776,5,15.5,5
			S15,4.776,15,4.5v-1C15,1.57,16.57,0,18.5,0S22,1.57,22,3.5v20C22,23.776,21.776,24,21.5,24z"/>
	</g>
</g>
<g id="Grill">
</g>
<g id="Kite_1">
</g>
<g id="Kite_2">
</g>
<g id="Badminton">
</g>
<g id="Cooler">
</g>
<g id="Strand_Bag">
</g>
<g id="Towel">
</g>
<g id="Strand_Ball">
</g>
<g id="Beach_Sign">
</g>
<g id="Toos">
</g>
<g id="Bucket">
</g>
<g id="Sand_Castle">
</g>
<g id="Shell_1">
</g>
<g id="Shell_2">
</g>
<g id="Surf_Board">
</g>
<g id="Float">
</g>
<g id="Vacation_Photo">
</g>
<g id="Summer_Time">
</g>
<g id="Boat">
</g>
<g id="Lifebuoy">
</g>
<g id="Lighthouse">
</g>
<g id="Sunset">
</g>
<g id="Dolphin">
</g>
<g id="Starfish">
</g>
<g id="Diving_Mask">
</g>
<g id="Sailboat">
</g>
<g id="Captin_Hat">
</g>
<g id="Eudder">
</g>
</svg>
