<?xml version="1.0" encoding="iso-8859-1"?>
<!-- Generator: Adobe Illustrator 19.2.1, SVG Export Plug-In . SVG Version: 6.00 Build 0)  -->
<svg version="1.1" xmlns="http://www.w3.org/2000/svg" xmlns:xlink="http://www.w3.org/1999/xlink" x="0px" y="0px"
	 viewBox="0 0 24 24" style="enable-background:new 0 0 24 24;" xml:space="preserve">
<g id="Sun_Light">
</g>
<g id="Sunglasses">
</g>
<g id="T-Shirt_1">
</g>
<g id="T-Shirt_2">
</g>
<g id="Mini_Dress">
</g>
<g id="Flip-Flops">
</g>
<g id="Temperature">
</g>
<g id="Hot_Temperature">
</g>
<g id="Ice_Lolly">
</g>
<g id="Icecream">
</g>
<g id="Limonade_1">
</g>
<g id="Limonade_2">
</g>
<g id="Hat">
</g>
<g id="Straw_Hat">
</g>
<g id="Deckchair">
</g>
<g id="Sunshade">
</g>
<g id="Suncream">
</g>
<g id="Suntan_Oil">
</g>
<g id="Swimming_Trunks">
</g>
<g id="Bikini">
</g>
<g id="Pool">
	<g>
		<g id="XMLID_160_">
			<path d="M2.852,16.474c-0.066,0-0.133-0.013-0.198-0.041C1.042,15.736,0,14.152,0,12.396c0-1.026,0.361-2.024,1.017-2.812
				C1.193,9.372,1.509,9.343,1.721,9.52c0.212,0.177,0.241,0.492,0.064,0.704C1.279,10.832,1,11.604,1,12.396
				c0,1.357,0.805,2.581,2.05,3.119c0.253,0.109,0.37,0.403,0.261,0.657C3.229,16.36,3.045,16.474,2.852,16.474z"/>
		</g>
		<g id="XMLID_161_">
			<path d="M21.146,16.475c-0.193,0-0.377-0.113-0.459-0.302c-0.109-0.254,0.007-0.548,0.261-0.657
				C22.194,14.978,23,13.753,23,12.396c0-0.792-0.279-1.564-0.785-2.172c-0.177-0.212-0.148-0.527,0.064-0.704
				c0.212-0.177,0.527-0.148,0.704,0.064C23.639,10.372,24,11.37,24,12.396c0,1.756-1.042,3.341-2.656,4.038
				C21.28,16.462,21.212,16.475,21.146,16.475z"/>
		</g>
		<g id="XMLID_162_">
			<path d="M12,14c-5.622,0-11.313-1.202-11.313-3.5S6.378,7,12,7s11.313,1.202,11.313,3.5S17.622,14,12,14z M12,8
				C5.705,8,1.688,9.48,1.688,10.5S5.705,13,12,13s10.313-1.48,10.313-2.5S18.295,8,12,8z"/>
		</g>
		<g id="XMLID_163_">
			<path d="M3.192,12.796c-0.111,0-0.223-0.037-0.316-0.113c-0.214-0.175-0.246-0.49-0.071-0.704C3.925,10.612,8.229,10,12,10
				c3.745,0,8.035,0.606,9.178,1.96c0.178,0.211,0.151,0.526-0.06,0.705c-0.211,0.179-0.526,0.15-0.705-0.06
				C19.747,11.816,16.418,11,12,11c-4.444,0-7.771,0.82-8.419,1.613C3.481,12.734,3.337,12.796,3.192,12.796z"/>
		</g>
		<g id="XMLID_164_">
			<path d="M12,18c-3.848,0-7.437-0.604-9.365-1.576c-0.247-0.124-0.346-0.425-0.221-0.671c0.124-0.248,0.424-0.347,0.671-0.222
				C4.882,16.438,8.298,17,12,17c3.707,0,7.125-0.563,8.92-1.472c0.247-0.124,0.547-0.025,0.672,0.221s0.026,0.547-0.221,0.672
				C19.445,17.395,15.854,18,12,18z"/>
		</g>
	</g>
</g>
<g id="Pool_Ladder">
</g>
<g id="Grill">
</g>
<g id="Kite_1">
</g>
<g id="Kite_2">
</g>
<g id="Badminton">
</g>
<g id="Cooler">
</g>
<g id="Strand_Bag">
</g>
<g id="Towel">
</g>
<g id="Strand_Ball">
</g>
<g id="Beach_Sign">
</g>
<g id="Toos">
</g>
<g id="Bucket">
</g>
<g id="Sand_Castle">
</g>
<g id="Shell_1">
</g>
<g id="Shell_2">
</g>
<g id="Surf_Board">
</g>
<g id="Float">
</g>
<g id="Vacation_Photo">
</g>
<g id="Summer_Time">
</g>
<g id="Boat">
</g>
<g id="Lifebuoy">
</g>
<g id="Lighthouse">
</g>
<g id="Sunset">
</g>
<g id="Dolphin">
</g>
<g id="Starfish">
</g>
<g id="Diving_Mask">
</g>
<g id="Sailboat">
</g>
<g id="Captin_Hat">
</g>
<g id="Eudder">
</g>
</svg>
