<?xml version="1.0" encoding="iso-8859-1"?>
<!-- Generator: Adobe Illustrator 19.2.1, SVG Export Plug-In . SVG Version: 6.00 Build 0)  -->
<svg version="1.1" xmlns="http://www.w3.org/2000/svg" xmlns:xlink="http://www.w3.org/1999/xlink" x="0px" y="0px"
	 viewBox="0 0 24 24" style="enable-background:new 0 0 24 24;" xml:space="preserve">
<g id="Sun_Light">
</g>
<g id="Sunglasses">
</g>
<g id="T-Shirt_1">
</g>
<g id="T-Shirt_2">
</g>
<g id="Mini_Dress">
</g>
<g id="Flip-Flops">
</g>
<g id="Temperature">
</g>
<g id="Hot_Temperature">
</g>
<g id="Ice_Lolly">
</g>
<g id="Icecream">
</g>
<g id="Limonade_1">
</g>
<g id="Limonade_2">
</g>
<g id="Hat">
</g>
<g id="Straw_Hat">
</g>
<g id="Deckchair">
</g>
<g id="Sunshade">
</g>
<g id="Suncream">
</g>
<g id="Suntan_Oil">
</g>
<g id="Swimming_Trunks">
</g>
<g id="Bikini">
</g>
<g id="Pool">
</g>
<g id="Pool_Ladder">
</g>
<g id="Grill">
</g>
<g id="Kite_1">
</g>
<g id="Kite_2">
</g>
<g id="Badminton">
</g>
<g id="Cooler">
</g>
<g id="Strand_Bag">
</g>
<g id="Towel">
</g>
<g id="Strand_Ball">
</g>
<g id="Beach_Sign">
</g>
<g id="Toos">
</g>
<g id="Bucket">
</g>
<g id="Sand_Castle">
</g>
<g id="Shell_1">
</g>
<g id="Shell_2">
</g>
<g id="Surf_Board">
</g>
<g id="Float">
</g>
<g id="Vacation_Photo">
</g>
<g id="Summer_Time">
</g>
<g id="Boat">
</g>
<g id="Lifebuoy">
</g>
<g id="Lighthouse">
</g>
<g id="Sunset">
</g>
<g id="Dolphin">
</g>
<g id="Starfish">
</g>
<g id="Diving_Mask">
</g>
<g id="Sailboat">
	<g id="XMLID_406_">
		<g id="XMLID_405_">
			<path d="M16.396,24H3.062c-1.149,0-2.146-0.778-2.426-1.894l-0.621-2.485c-0.037-0.149-0.004-0.308,0.091-0.429S0.346,19,0.5,19
				h23c0.212,0,0.401,0.134,0.472,0.335c0.07,0.2,0.007,0.423-0.159,0.556l-3.356,2.686C19.308,23.494,17.866,24,16.396,24z
				 M1.141,20l0.466,1.864C1.773,22.533,2.372,23,3.062,23h13.334c1.244,0,2.464-0.428,3.436-1.205L22.075,20H1.141z"/>
		</g>
		<g id="XMLID_407_">
			<path d="M7,20c-0.04,0-0.08-0.005-0.121-0.015c-0.269-0.067-0.431-0.339-0.364-0.606l0.5-2C7.07,17.156,7.271,17,7.5,17h8
				c0.189,0,0.362,0.107,0.447,0.276l1,2c0.123,0.247,0.023,0.547-0.224,0.671c-0.248,0.124-0.547,0.022-0.671-0.224L15.191,18
				H7.891l-0.405,1.621C7.429,19.849,7.225,20,7,20z"/>
		</g>
		<g id="XMLID_408_">
			<path d="M10.5,16h-10c-0.202,0-0.384-0.121-0.461-0.308c-0.078-0.186-0.036-0.4,0.105-0.544
				c7.07-7.151,9.857-14.742,9.885-14.818c0.082-0.228,0.313-0.37,0.557-0.322C10.825,0.049,11,0.257,11,0.5v15
				C11,15.776,10.776,16,10.5,16z M1.676,15H10V2.894C8.71,5.581,6.067,10.326,1.676,15z"/>
		</g>
		<g id="XMLID_409_">
			<path d="M10.5,18c-0.276,0-0.5-0.224-0.5-0.5v-2c0-0.276,0.224-0.5,0.5-0.5s0.5,0.224,0.5,0.5v2C11,17.776,10.776,18,10.5,18z"/>
		</g>
		<g id="XMLID_410_">
			<path d="M23.5,17.999c-0.131,0-0.261-0.051-0.358-0.15c-0.035-0.037-3.646-3.607-11.026-1.862
				c-0.164,0.037-0.334-0.007-0.456-0.121c-0.123-0.114-0.18-0.281-0.152-0.446c0.012-0.069,1.13-7.024-0.002-14.848
				c-0.032-0.222,0.088-0.438,0.293-0.528s0.444-0.034,0.588,0.139c0.051,0.063,5.202,6.342,11.545,17.063
				c0.129,0.218,0.074,0.497-0.127,0.65C23.714,17.965,23.606,17.999,23.5,17.999z M16.09,14.495c2.595,0,4.521,0.646,5.807,1.303
				C17.831,9.112,14.398,4.422,12.72,2.227C13.33,8,12.826,13.038,12.595,14.858C13.871,14.602,15.036,14.495,16.09,14.495z"/>
		</g>
	</g>
</g>
<g id="Captin_Hat">
</g>
<g id="Eudder">
</g>
</svg>
