<?xml version="1.0" encoding="iso-8859-1"?>
<!-- Generator: Adobe Illustrator 19.2.1, SVG Export Plug-In . SVG Version: 6.00 Build 0)  -->
<svg version="1.1" xmlns="http://www.w3.org/2000/svg" xmlns:xlink="http://www.w3.org/1999/xlink" x="0px" y="0px"
	 viewBox="0 0 24 24" style="enable-background:new 0 0 24 24;" xml:space="preserve">
<g id="Sun_Light">
</g>
<g id="Sunglasses">
</g>
<g id="T-Shirt_1">
</g>
<g id="T-Shirt_2">
</g>
<g id="Mini_Dress">
</g>
<g id="Flip-Flops">
</g>
<g id="Temperature">
</g>
<g id="Hot_Temperature">
</g>
<g id="Ice_Lolly">
</g>
<g id="Icecream">
</g>
<g id="Limonade_1">
</g>
<g id="Limonade_2">
</g>
<g id="Hat">
</g>
<g id="Straw_Hat">
</g>
<g id="Deckchair">
</g>
<g id="Sunshade">
</g>
<g id="Suncream">
</g>
<g id="Suntan_Oil">
</g>
<g id="Swimming_Trunks">
</g>
<g id="Bikini">
</g>
<g id="Pool">
</g>
<g id="Pool_Ladder">
</g>
<g id="Grill">
</g>
<g id="Kite_1">
</g>
<g id="Kite_2">
</g>
<g id="Badminton">
</g>
<g id="Cooler">
</g>
<g id="Strand_Bag">
</g>
<g id="Towel">
</g>
<g id="Strand_Ball">
</g>
<g id="Beach_Sign">
</g>
<g id="Toos">
</g>
<g id="Bucket">
</g>
<g id="Sand_Castle">
	<g id="XMLID_276_">
		<g id="XMLID_277_">
			<path d="M16.5,8h-9C6.122,8,5,6.879,5,5.5V2c0-1.103,0.897-2,2-2s2,0.897,2,2v0.5C9,2.775,9.224,3,9.5,3S10,2.775,10,2.5V2
				c0-1.103,0.897-2,2-2s2,0.897,2,2v0.5C14,2.775,14.224,3,14.5,3S15,2.775,15,2.5V2c0-1.103,0.897-2,2-2s2,0.897,2,2v3.5
				C19,6.879,17.878,8,16.5,8z M7,1C6.449,1,6,1.448,6,2v3.5C6,6.327,6.673,7,7.5,7h9C17.327,7,18,6.327,18,5.5V2
				c0-0.552-0.449-1-1-1s-1,0.448-1,1v0.5C16,3.327,15.327,4,14.5,4S13,3.327,13,2.5V2c0-0.552-0.449-1-1-1s-1,0.448-1,1v0.5
				C11,3.327,10.327,4,9.5,4S8,3.327,8,2.5V2C8,1.448,7.551,1,7,1z"/>
		</g>
		<g id="XMLID_278_">
			<path d="M23.5,24h-23C0.224,24,0,23.776,0,23.5V12.408c0-0.693,0.203-1.364,0.588-1.941l0.664-0.996
				c0.558-0.836,1.938-0.836,2.496,0l0.664,0.996C4.797,11.044,5,11.715,5,12.408v3.223C5,15.834,5.166,16,5.37,16
				c0.184,0,0.337-0.132,0.365-0.313l1.271-8.263C7.043,7.18,7.253,7,7.5,7h9c0.247,0,0.457,0.18,0.494,0.424l1.271,8.263
				C18.293,15.865,18.45,16,18.63,16c0.204,0,0.37-0.166,0.37-0.369v-3.223c0-0.693,0.203-1.364,0.588-1.941l0.664-0.996
				c0.558-0.836,1.938-0.836,2.496,0l0.664,0.996C23.797,11.044,24,11.715,24,12.408V23.5C24,23.776,23.776,24,23.5,24z M1,23h22
				V12.408c0-0.495-0.145-0.975-0.42-1.387l-0.664-0.996c-0.188-0.283-0.644-0.283-0.832,0l-0.664,0.996
				C20.145,11.434,20,11.913,20,12.408v3.223C20,16.386,19.386,17,18.63,17c-0.681,0-1.25-0.488-1.354-1.161L16.071,8H7.929
				l-1.206,7.839C6.62,16.512,6.051,17,5.37,17C4.614,17,4,16.386,4,15.631v-3.223c0-0.495-0.145-0.975-0.42-1.387l-0.664-0.996
				c-0.188-0.283-0.644-0.283-0.832,0L1.42,11.021C1.145,11.434,1,11.913,1,12.408V23z"/>
		</g>
		<g id="XMLID_279_">
			<path d="M14.5,22h-5C8.673,22,8,21.327,8,20.5V17c0-2.206,1.794-4,4-4s4,1.794,4,4v3.5C16,21.327,15.327,22,14.5,22z M12,14
				c-1.654,0-3,1.346-3,3v3.5C9,20.775,9.224,21,9.5,21h5c0.276,0,0.5-0.225,0.5-0.5V17C15,15.346,13.654,14,12,14z"/>
		</g>
	</g>
</g>
<g id="Shell_1">
</g>
<g id="Shell_2">
</g>
<g id="Surf_Board">
</g>
<g id="Float">
</g>
<g id="Vacation_Photo">
</g>
<g id="Summer_Time">
</g>
<g id="Boat">
</g>
<g id="Lifebuoy">
</g>
<g id="Lighthouse">
</g>
<g id="Sunset">
</g>
<g id="Dolphin">
</g>
<g id="Starfish">
</g>
<g id="Diving_Mask">
</g>
<g id="Sailboat">
</g>
<g id="Captin_Hat">
</g>
<g id="Eudder">
</g>
</svg>
