<?xml version="1.0" encoding="iso-8859-1"?>
<!-- Generator: Adobe Illustrator 19.2.1, SVG Export Plug-In . SVG Version: 6.00 Build 0)  -->
<svg version="1.1" xmlns="http://www.w3.org/2000/svg" xmlns:xlink="http://www.w3.org/1999/xlink" x="0px" y="0px"
	 viewBox="0 0 24 24" style="enable-background:new 0 0 24 24;" xml:space="preserve">
<g id="Sun_Light">
</g>
<g id="Sunglasses">
</g>
<g id="T-Shirt_1">
</g>
<g id="T-Shirt_2">
</g>
<g id="Mini_Dress">
</g>
<g id="Flip-Flops">
</g>
<g id="Temperature">
</g>
<g id="Hot_Temperature">
</g>
<g id="Ice_Lolly">
</g>
<g id="Icecream">
</g>
<g id="Limonade_1">
</g>
<g id="Limonade_2">
</g>
<g id="Hat">
</g>
<g id="Straw_Hat">
</g>
<g id="Deckchair">
</g>
<g id="Sunshade">
</g>
<g id="Suncream">
</g>
<g id="Suntan_Oil">
</g>
<g id="Swimming_Trunks">
</g>
<g id="Bikini">
</g>
<g id="Pool">
</g>
<g id="Pool_Ladder">
</g>
<g id="Grill">
</g>
<g id="Kite_1">
</g>
<g id="Kite_2">
</g>
<g id="Badminton">
</g>
<g id="Cooler">
</g>
<g id="Strand_Bag">
</g>
<g id="Towel">
</g>
<g id="Strand_Ball">
</g>
<g id="Beach_Sign">
</g>
<g id="Toos">
</g>
<g id="Bucket">
</g>
<g id="Sand_Castle">
</g>
<g id="Shell_1">
</g>
<g id="Shell_2">
	<g id="XMLID_289_">
		<g id="XMLID_290_">
			<path d="M1.503,23.992c-0.446,0-0.876-0.199-1.166-0.561c-0.385-0.479-0.44-1.133-0.142-1.669l3.14-5.294
				c0.248-0.419,0.686-0.691,1.171-0.729c0.473-0.05,0.959,0.16,1.271,0.534l3.076,3.691c0.332,0.399,0.435,0.932,0.274,1.425
				s-0.556,0.863-1.059,0.99l-6.145,1.552C1.785,23.973,1.643,23.992,1.503,23.992z M4.627,16.734c-0.015,0-0.028,0-0.042,0.001
				c-0.164,0.014-0.307,0.103-0.391,0.243l-3.133,5.282c-0.145,0.261,0.005,0.482,0.055,0.544c0.049,0.061,0.232,0.25,0.533,0.166
				c0.007-0.003,0.014-0.005,0.021-0.006l6.153-1.554c0.17-0.044,0.299-0.164,0.353-0.331c0.055-0.167,0.021-0.34-0.091-0.475
				L5.01,16.914C4.913,16.798,4.775,16.734,4.627,16.734z"/>
		</g>
		<g id="XMLID_291_">
			<path d="M10.143,21.679c-0.727,0-1.428-0.318-1.913-0.901l-3.217-3.859c-0.681-0.815-0.771-1.976-0.224-2.887l1.568-2.614
				c0.248-0.414,0.667-0.678,1.147-0.723c0.477-0.036,0.939,0.137,1.261,0.497l6.088,6.85c0.336,0.378,0.458,0.896,0.327,1.384
				s-0.495,0.876-0.976,1.035l-3.265,1.089C10.677,21.637,10.408,21.679,10.143,21.679z M7.646,11.688c-0.016,0-0.032,0-0.048,0.002
				c-0.16,0.015-0.3,0.103-0.383,0.241l-1.568,2.613c-0.328,0.547-0.274,1.243,0.134,1.732l0,0l3.217,3.859
				c0.399,0.479,1.036,0.661,1.627,0.463l3.266-1.089c0.163-0.054,0.281-0.18,0.325-0.345s0.005-0.333-0.109-0.461l-6.088-6.85
				C7.922,11.748,7.788,11.688,7.646,11.688z"/>
		</g>
		<g id="XMLID_292_">
			<path d="M15.966,19.53c-0.698,0-1.385-0.291-1.871-0.838l-5.729-6.444C7.488,11.26,7.532,9.754,8.467,8.819l0.667-0.667
				c1.207-1.079,2.583-0.716,4.041-0.331c2.481,0.654,5.565,1.467,9.933-3.641c0.141-0.164,0.372-0.217,0.572-0.137
				c0.2,0.084,0.324,0.287,0.306,0.503c-0.017,0.208-0.428,5.117-1.019,7.102c-1.07,3.595-3.105,6.229-5.884,7.619h-0.001
				C16.727,19.445,16.345,19.53,15.966,19.53z M16.858,18.82h0.01H16.858z M11.029,8.436c-0.467,0-0.852,0.124-1.209,0.443
				L9.174,9.526c-0.561,0.561-0.587,1.465-0.06,2.058l5.729,6.444c0.449,0.506,1.188,0.647,1.792,0.345l0,0
				c3.19-1.596,4.684-4.692,5.373-7.01c0.368-1.235,0.673-3.789,0.841-5.419c-4.27,4.339-7.512,3.481-9.929,2.844
				C12.146,8.584,11.539,8.436,11.029,8.436z"/>
		</g>
		<g id="XMLID_293_">
			<path d="M10.513,8.456c-0.019,0-0.036-0.001-0.054-0.003c-0.274-0.029-0.474-0.275-0.444-0.55
				c0.008-0.079,0.923-7.897,8.473-7.897c2.059,0,3.581,0.539,4.525,1.604c1.154,1.301,0.979,2.889,0.971,2.956
				c-0.032,0.275-0.281,0.476-0.556,0.437c-0.273-0.032-0.469-0.28-0.438-0.554c0.004-0.03,0.117-1.235-0.735-2.186
				c-0.747-0.834-2.015-1.257-3.768-1.257c-6.643,0-7.447,6.718-7.479,7.004C10.981,8.266,10.765,8.456,10.513,8.456z"/>
		</g>
	</g>
</g>
<g id="Surf_Board">
</g>
<g id="Float">
</g>
<g id="Vacation_Photo">
</g>
<g id="Summer_Time">
</g>
<g id="Boat">
</g>
<g id="Lifebuoy">
</g>
<g id="Lighthouse">
</g>
<g id="Sunset">
</g>
<g id="Dolphin">
</g>
<g id="Starfish">
</g>
<g id="Diving_Mask">
</g>
<g id="Sailboat">
</g>
<g id="Captin_Hat">
</g>
<g id="Eudder">
</g>
</svg>
