<?xml version="1.0" encoding="iso-8859-1"?>
<!-- Generator: Adobe Illustrator 19.2.1, SVG Export Plug-In . SVG Version: 6.00 Build 0)  -->
<svg version="1.1" xmlns="http://www.w3.org/2000/svg" xmlns:xlink="http://www.w3.org/1999/xlink" x="0px" y="0px"
	 viewBox="0 0 24 24" style="enable-background:new 0 0 24 24;" xml:space="preserve">
<g id="Sun_Light">
</g>
<g id="Sunglasses">
</g>
<g id="T-Shirt_1">
</g>
<g id="T-Shirt_2">
</g>
<g id="Mini_Dress">
</g>
<g id="Flip-Flops">
</g>
<g id="Temperature">
</g>
<g id="Hot_Temperature">
</g>
<g id="Ice_Lolly">
</g>
<g id="Icecream">
</g>
<g id="Limonade_1">
</g>
<g id="Limonade_2">
</g>
<g id="Hat">
</g>
<g id="Straw_Hat">
</g>
<g id="Deckchair">
</g>
<g id="Sunshade">
</g>
<g id="Suncream">
</g>
<g id="Suntan_Oil">
</g>
<g id="Swimming_Trunks">
</g>
<g id="Bikini">
</g>
<g id="Pool">
</g>
<g id="Pool_Ladder">
</g>
<g id="Grill">
</g>
<g id="Kite_1">
</g>
<g id="Kite_2">
</g>
<g id="Badminton">
</g>
<g id="Cooler">
</g>
<g id="Strand_Bag">
</g>
<g id="Towel">
</g>
<g id="Strand_Ball">
</g>
<g id="Beach_Sign">
</g>
<g id="Toos">
</g>
<g id="Bucket">
</g>
<g id="Sand_Castle">
</g>
<g id="Shell_1">
</g>
<g id="Shell_2">
</g>
<g id="Surf_Board">
</g>
<g id="Float">
</g>
<g id="Vacation_Photo">
</g>
<g id="Summer_Time">
</g>
<g id="Boat">
</g>
<g id="Lifebuoy">
</g>
<g id="Lighthouse">
</g>
<g id="Sunset">
</g>
<g id="Dolphin">
</g>
<g id="Starfish">
	<g id="XMLID_350_">
		<g id="XMLID_351_">
			<path d="M5.591,24.002c-0.335,0-0.674-0.105-0.969-0.32c-0.584-0.425-0.817-1.143-0.594-1.829L5.91,15.74l-5.235-3.735
				c-0.588-0.428-0.821-1.146-0.598-1.833C0.3,9.484,0.911,9.041,1.633,9.041l6.501,0.002l2.289-6.873
				c0.222-0.683,0.832-1.127,1.555-1.127c0,0,0,0,0.001,0c0.721,0,1.331,0.442,1.556,1.127l2.319,6.873l6.514-0.002
				c0.722,0,1.333,0.443,1.556,1.131c0.224,0.687-0.01,1.405-0.594,1.83l-5.252,3.74l1.854,6.119
				c0.221,0.678-0.013,1.396-0.597,1.82c-0.586,0.426-1.341,0.426-1.925,0l-5.417-3.542l-5.468,3.557
				C6.246,23.899,5.92,24.002,5.591,24.002z M1.633,10.041c-0.429,0-0.571,0.337-0.605,0.439c-0.033,0.104-0.116,0.46,0.231,0.713
				l5.525,3.942c0.176,0.125,0.251,0.349,0.188,0.555l-1.99,6.464c-0.135,0.415,0.142,0.654,0.229,0.719
				c0.182,0.132,0.475,0.2,0.749,0l5.763-3.749c0.167-0.108,0.38-0.108,0.546,0.001l5.71,3.733c0.298,0.217,0.589,0.145,0.77,0.015
				c0.087-0.064,0.363-0.304,0.23-0.712l-1.962-6.474c-0.063-0.205,0.014-0.428,0.188-0.552l5.541-3.945
				c0.344-0.25,0.261-0.606,0.228-0.71c-0.034-0.103-0.177-0.439-0.605-0.439l-6.873,0.002c-0.215,0-0.405-0.137-0.474-0.34
				l-2.435-7.215c-0.001-0.002-0.001-0.004-0.002-0.006c-0.105-0.324-0.382-0.439-0.605-0.439c-0.001,0-0.001,0-0.001,0
				c-0.108,0-0.473,0.032-0.604,0.439L8.969,9.701c-0.068,0.204-0.26,0.342-0.475,0.342l0,0L1.633,10.041z"/>
		</g>
		<g id="XMLID_352_">
			<path d="M11.994,12.043c-0.552,0-1-0.448-1-1s0.448-1,1-1s1,0.448,1,1S12.546,12.043,11.994,12.043z M11.994,11.042
				L11.994,11.042l0.5,0.001L11.994,11.042z"/>
		</g>
		<g id="XMLID_353_">
			<path d="M14.994,14.043c-0.552,0-1-0.448-1-1s0.448-1,1-1s1,0.448,1,1S15.546,14.043,14.994,14.043z M14.994,13.042
				L14.994,13.042l0.5,0.001L14.994,13.042z"/>
		</g>
		<g id="XMLID_354_">
			<path d="M13.994,17.543c-0.552,0-1-0.448-1-1s0.448-1,1-1s1,0.448,1,1S14.546,17.543,13.994,17.543z M13.994,16.542
				L13.994,16.542l0.5,0.001L13.994,16.542z"/>
		</g>
		<g id="XMLID_355_">
			<path d="M9.994,17.543c-0.552,0-1-0.448-1-1s0.448-1,1-1s1,0.448,1,1S10.546,17.543,9.994,17.543z M9.994,16.542L9.994,16.542
				l0.5,0.001L9.994,16.542z"/>
		</g>
		<g id="XMLID_356_">
			<path d="M8.994,14.043c-0.552,0-1-0.448-1-1s0.448-1,1-1s1,0.448,1,1S9.546,14.043,8.994,14.043z M8.994,13.042L8.994,13.042
				l0.5,0.001L8.994,13.042z"/>
		</g>
		<g id="XMLID_357_">
			<circle cx="11.994" cy="8.543" r="0.5"/>
		</g>
		<g id="XMLID_358_">
			<circle cx="11.994" cy="6.543" r="0.5"/>
		</g>
		<g id="XMLID_359_">
			<ellipse transform="matrix(0.9503 -0.3113 0.3113 0.9503 -2.949 6.0567)" cx="17.495" cy="12.265" rx="0.5" ry="0.5"/>
		</g>
		<g id="XMLID_360_">
			<ellipse transform="matrix(0.3113 -0.9503 0.9503 0.3113 -7.1838 14.6161)" cx="6.493" cy="12.265" rx="0.5" ry="0.5"/>
		</g>
		<g id="XMLID_361_">
			<ellipse transform="matrix(0.6204 -0.7843 0.7843 0.6204 -13.0086 13.2681)" cx="7.202" cy="20.072" rx="0.5" ry="0.5"/>
		</g>
		<g id="XMLID_362_">
			<ellipse transform="matrix(0.7843 -0.6204 0.6204 0.7843 -8.832 14.7439)" cx="16.786" cy="20.072" rx="0.5" ry="0.5"/>
		</g>
		<g id="XMLID_363_">
			<circle cx="15.494" cy="18.543" r="0.5"/>
		</g>
		<g id="XMLID_364_">
			<circle cx="8.494" cy="18.543" r="0.5"/>
		</g>
		<g id="XMLID_365_">
			<circle cx="19.494" cy="11.543" r="0.5"/>
		</g>
		<g id="XMLID_366_">
			<circle cx="4.494" cy="11.543" r="0.5"/>
		</g>
	</g>
</g>
<g id="Diving_Mask">
</g>
<g id="Sailboat">
</g>
<g id="Captin_Hat">
</g>
<g id="Eudder">
</g>
</svg>
