<?xml version="1.0" encoding="iso-8859-1"?>
<!-- Generator: Adobe Illustrator 19.2.1, SVG Export Plug-In . SVG Version: 6.00 Build 0)  -->
<svg version="1.1" xmlns="http://www.w3.org/2000/svg" xmlns:xlink="http://www.w3.org/1999/xlink" x="0px" y="0px"
	 viewBox="0 0 24 24" style="enable-background:new 0 0 24 24;" xml:space="preserve">
<g id="Sun_Light">
</g>
<g id="Sunglasses">
</g>
<g id="T-Shirt_1">
</g>
<g id="T-Shirt_2">
</g>
<g id="Mini_Dress">
</g>
<g id="Flip-Flops">
</g>
<g id="Temperature">
</g>
<g id="Hot_Temperature">
</g>
<g id="Ice_Lolly">
</g>
<g id="Icecream">
</g>
<g id="Limonade_1">
</g>
<g id="Limonade_2">
</g>
<g id="Hat">
</g>
<g id="Straw_Hat">
</g>
<g id="Deckchair">
</g>
<g id="Sunshade">
</g>
<g id="Suncream">
</g>
<g id="Suntan_Oil">
</g>
<g id="Swimming_Trunks">
</g>
<g id="Bikini">
</g>
<g id="Pool">
</g>
<g id="Pool_Ladder">
</g>
<g id="Grill">
</g>
<g id="Kite_1">
</g>
<g id="Kite_2">
</g>
<g id="Badminton">
</g>
<g id="Cooler">
</g>
<g id="Strand_Bag">
	<g id="XMLID_213_">
		<g id="XMLID_214_">
			<path d="M12,24c-2.141,0-4.161-0.149-6.007-0.442c-1.729-0.276-3.146-1.556-3.611-3.258l-2.366-9.175
				c-0.068-0.268,0.092-0.54,0.359-0.609c0.27-0.067,0.54,0.092,0.609,0.359l2.364,9.168c0.359,1.318,1.46,2.313,2.803,2.526
				C7.944,22.855,9.912,23,12,23c2.091,0,4.059-0.146,5.849-0.432c1.343-0.214,2.443-1.208,2.805-2.533l2.362-9.16
				c0.069-0.267,0.339-0.427,0.609-0.359c0.268,0.069,0.428,0.342,0.359,0.609l-2.364,9.167c-0.466,1.709-1.884,2.988-3.613,3.265
				C16.164,23.851,14.144,24,12,24z"/>
		</g>
		<g id="XMLID_215_">
			<path d="M16.5,15c-0.276,0-0.5-0.224-0.5-0.5V6c0-1.654-1.346-3-3-3s-3,1.346-3,3v8.5c0,0.276-0.224,0.5-0.5,0.5S9,14.776,9,14.5
				V6c0-2.206,1.794-4,4-4s4,1.794,4,4v8.5C17,14.776,16.776,15,16.5,15z"/>
		</g>
		<g id="XMLID_216_">
			<path d="M13.5,10C13.224,10,13,9.776,13,9.5V4c0-1.654-1.346-3-3-3S7,2.346,7,4v5.5C7,9.776,6.776,10,6.5,10S6,9.776,6,9.5V4
				c0-2.206,1.794-4,4-4s4,1.794,4,4v5.5C14,9.776,13.776,10,13.5,10z"/>
		</g>
		<g id="XMLID_217_">
			<path d="M13.5,13C12.118,13,0,12.944,0,11c0-1.653,5.71-2,10.5-2C11.882,9,24,9.056,24,11C24,12.653,18.29,13,13.5,13z
				 M1.204,10.943C2.46,11.417,7.282,12,13.5,12c6.072,0,8.566-0.593,9.296-0.943C21.54,10.583,16.718,10,10.5,10
				C4.428,10,1.934,10.593,1.204,10.943z M23.071,11.201h0.01H23.071z"/>
		</g>
		<g id="XMLID_218_">
			<path d="M13.5,20c-4.225,0-8.576-0.292-11.086-0.743c-0.271-0.049-0.452-0.309-0.403-0.581c0.05-0.271,0.305-0.446,0.581-0.403
				C5.048,18.715,9.33,19,13.5,19c3.305,0,6.093-0.188,7.851-0.529c0.268-0.051,0.533,0.125,0.587,0.396
				c0.052,0.271-0.125,0.534-0.396,0.587C19.696,19.811,16.916,20,13.5,20z"/>
		</g>
		<g id="XMLID_219_">
			<path d="M13.5,18c-4.606,0-9.286-0.343-11.645-0.854c-0.271-0.058-0.441-0.324-0.383-0.594c0.058-0.27,0.332-0.442,0.594-0.383
				C4.327,16.658,9.028,17,13.5,17c3.708,0,6.688-0.229,8.392-0.646c0.271-0.064,0.539,0.099,0.604,0.366
				c0.066,0.269-0.099,0.539-0.366,0.604C20.351,17.76,17.286,18,13.5,18z"/>
		</g>
	</g>
</g>
<g id="Towel">
</g>
<g id="Strand_Ball">
</g>
<g id="Beach_Sign">
</g>
<g id="Toos">
</g>
<g id="Bucket">
</g>
<g id="Sand_Castle">
</g>
<g id="Shell_1">
</g>
<g id="Shell_2">
</g>
<g id="Surf_Board">
</g>
<g id="Float">
</g>
<g id="Vacation_Photo">
</g>
<g id="Summer_Time">
</g>
<g id="Boat">
</g>
<g id="Lifebuoy">
</g>
<g id="Lighthouse">
</g>
<g id="Sunset">
</g>
<g id="Dolphin">
</g>
<g id="Starfish">
</g>
<g id="Diving_Mask">
</g>
<g id="Sailboat">
</g>
<g id="Captin_Hat">
</g>
<g id="Eudder">
</g>
</svg>
