<?xml version="1.0" encoding="iso-8859-1"?>
<!-- Generator: Adobe Illustrator 19.2.1, SVG Export Plug-In . SVG Version: 6.00 Build 0)  -->
<svg version="1.1" xmlns="http://www.w3.org/2000/svg" xmlns:xlink="http://www.w3.org/1999/xlink" x="0px" y="0px"
	 viewBox="0 0 24 24" style="enable-background:new 0 0 24 24;" xml:space="preserve">
<g id="Sun_Light">
</g>
<g id="Sunglasses">
</g>
<g id="T-Shirt_1">
</g>
<g id="T-Shirt_2">
</g>
<g id="Mini_Dress">
</g>
<g id="Flip-Flops">
</g>
<g id="Temperature">
</g>
<g id="Hot_Temperature">
</g>
<g id="Ice_Lolly">
</g>
<g id="Icecream">
</g>
<g id="Limonade_1">
</g>
<g id="Limonade_2">
</g>
<g id="Hat">
</g>
<g id="Straw_Hat">
	<g id="XMLID_131_">
		<g id="XMLID_132_">
			<path d="M12,14c-1.408,0-6-0.119-6-1.643V8.929C6,6.762,7.869,5,10.167,5h3.667C16.131,5,18,6.762,18,8.929v3.428
				C18,13.881,13.408,14,12,14z M7,12.267C7.329,12.534,9.06,13,12,13s4.671-0.466,5-0.733V8.929C17,7.314,15.58,6,13.833,6h-3.667
				C8.42,6,7,7.314,7,8.929V12.267z"/>
		</g>
		<g id="XMLID_133_">
			<path d="M12,18c-5.817,0-12-1.402-12-4c0-2.255,4.488-3.244,6.418-3.565c0.272-0.045,0.53,0.139,0.575,0.411
				c0.045,0.272-0.139,0.53-0.411,0.575C2.747,12.059,1,13.205,1,14c0,1.253,4.185,3,11,3s11-1.747,11-3
				c0-0.795-1.747-1.941-5.582-2.579c-0.272-0.045-0.457-0.303-0.411-0.575s0.3-0.458,0.575-0.411C19.512,10.756,24,11.745,24,14
				C24,16.598,17.817,18,12,18z"/>
		</g>
		<g id="XMLID_134_">
			<path d="M16.5,12c-0.128,0-0.256-0.049-0.354-0.146L13.5,9.207l-2.646,2.646c-0.195,0.195-0.512,0.195-0.707,0L7.5,9.207
				L6.854,9.854c-0.195,0.195-0.512,0.195-0.707,0s-0.195-0.512,0-0.707l1-1c0.195-0.195,0.512-0.195,0.707,0l2.646,2.646
				l2.646-2.646c0.195-0.195,0.512-0.195,0.707,0l2.646,2.646l0.646-0.646c0.195-0.195,0.512-0.195,0.707,0s0.195,0.512,0,0.707
				l-1,1C16.756,11.951,16.628,12,16.5,12z"/>
		</g>
		<g id="XMLID_135_">
			<path d="M13.5,12c-0.128,0-0.256-0.049-0.354-0.146L10.5,9.207l-2.646,2.646c-0.195,0.195-0.512,0.195-0.707,0l-1-1
				c-0.195-0.195-0.195-0.512,0-0.707s0.512-0.195,0.707,0L7.5,10.793l2.646-2.646c0.195-0.195,0.512-0.195,0.707,0l2.646,2.646
				l2.646-2.646c0.195-0.195,0.512-0.195,0.707,0l1,1c0.195,0.195,0.195,0.512,0,0.707s-0.512,0.195-0.707,0L16.5,9.207
				l-2.646,2.646C13.756,11.951,13.628,12,13.5,12z"/>
		</g>
	</g>
</g>
<g id="Deckchair">
</g>
<g id="Sunshade">
</g>
<g id="Suncream">
</g>
<g id="Suntan_Oil">
</g>
<g id="Swimming_Trunks">
</g>
<g id="Bikini">
</g>
<g id="Pool">
</g>
<g id="Pool_Ladder">
</g>
<g id="Grill">
</g>
<g id="Kite_1">
</g>
<g id="Kite_2">
</g>
<g id="Badminton">
</g>
<g id="Cooler">
</g>
<g id="Strand_Bag">
</g>
<g id="Towel">
</g>
<g id="Strand_Ball">
</g>
<g id="Beach_Sign">
</g>
<g id="Toos">
</g>
<g id="Bucket">
</g>
<g id="Sand_Castle">
</g>
<g id="Shell_1">
</g>
<g id="Shell_2">
</g>
<g id="Surf_Board">
</g>
<g id="Float">
</g>
<g id="Vacation_Photo">
</g>
<g id="Summer_Time">
</g>
<g id="Boat">
</g>
<g id="Lifebuoy">
</g>
<g id="Lighthouse">
</g>
<g id="Sunset">
</g>
<g id="Dolphin">
</g>
<g id="Starfish">
</g>
<g id="Diving_Mask">
</g>
<g id="Sailboat">
</g>
<g id="Captin_Hat">
</g>
<g id="Eudder">
</g>
</svg>
