<?xml version="1.0" encoding="iso-8859-1"?>
<!-- Generator: Adobe Illustrator 19.2.1, SVG Export Plug-In . SVG Version: 6.00 Build 0)  -->
<svg version="1.1" xmlns="http://www.w3.org/2000/svg" xmlns:xlink="http://www.w3.org/1999/xlink" x="0px" y="0px"
	 viewBox="0 0 24 24" style="enable-background:new 0 0 24 24;" xml:space="preserve">
<g id="Sun_Light">
</g>
<g id="Sunglasses">
</g>
<g id="T-Shirt_1">
</g>
<g id="T-Shirt_2">
</g>
<g id="Mini_Dress">
</g>
<g id="Flip-Flops">
</g>
<g id="Temperature">
</g>
<g id="Hot_Temperature">
</g>
<g id="Ice_Lolly">
</g>
<g id="Icecream">
</g>
<g id="Limonade_1">
</g>
<g id="Limonade_2">
</g>
<g id="Hat">
</g>
<g id="Straw_Hat">
</g>
<g id="Deckchair">
</g>
<g id="Sunshade">
</g>
<g id="Suncream">
</g>
<g id="Suntan_Oil">
</g>
<g id="Swimming_Trunks">
</g>
<g id="Bikini">
</g>
<g id="Pool">
</g>
<g id="Pool_Ladder">
</g>
<g id="Grill">
</g>
<g id="Kite_1">
</g>
<g id="Kite_2">
</g>
<g id="Badminton">
</g>
<g id="Cooler">
</g>
<g id="Strand_Bag">
</g>
<g id="Towel">
</g>
<g id="Strand_Ball">
	<g id="XMLID_242_">
		<g id="XMLID_243_">
			<path d="M12,24C5.383,24,0,18.617,0,12C0,5.383,5.383,0,12,0s12,5.383,12,12C24,18.617,18.617,24,12,24z M12,1
				C5.935,1,1,5.935,1,12s4.935,11,11,11s11-4.935,11-11S18.065,1,12,1z"/>
		</g>
		<g id="XMLID_244_">
			<path d="M9,13c-2.206,0-4-1.794-4-4s1.794-4,4-4s4,1.794,4,4S11.206,13,9,13z M9,6C7.346,6,6,7.346,6,9s1.346,3,3,3s3-1.346,3-3
				S10.654,6,9,6z"/>
		</g>
		<g id="XMLID_245_">
			<path d="M16.266,23.183c-0.098,0-0.196-0.028-0.283-0.088l-0.266-0.183c-0.153-0.081-4.796-2.697-6.702-10.291
				c-0.066-0.268,0.096-0.539,0.363-0.606c0.269-0.069,0.539,0.095,0.607,0.363c1.793,7.143,6.211,9.659,6.256,9.683l0.308,0.209
				c0.228,0.156,0.285,0.468,0.129,0.695C16.581,23.106,16.424,23.183,16.266,23.183z"/>
		</g>
		<g id="XMLID_246_">
			<path d="M22.674,16.789c-0.169,0-0.335-0.086-0.429-0.242l-0.174-0.289c-0.034-0.062-2.55-4.479-9.693-6.273
				c-0.268-0.067-0.43-0.339-0.363-0.606c0.067-0.268,0.334-0.433,0.607-0.363c7.593,1.906,10.209,6.548,10.316,6.745l0.164,0.271
				c0.142,0.236,0.065,0.544-0.171,0.687C22.851,16.766,22.762,16.789,22.674,16.789z"/>
		</g>
		<g id="XMLID_247_">
			<path d="M11.943,7.605c-0.08,0-0.161-0.019-0.236-0.06c-0.243-0.13-0.335-0.434-0.204-0.677l0.057-0.105
				c2.449-3.922,6.673-4.724,6.852-4.756c0.268-0.046,0.53,0.13,0.58,0.403c0.05,0.271-0.131,0.531-0.401,0.581
				c-0.04,0.007-3.974,0.766-6.166,4.273l-0.04,0.077C12.294,7.51,12.121,7.605,11.943,7.605z"/>
		</g>
		<g id="XMLID_248_">
			<path d="M2.501,19c-0.03,0-0.061-0.003-0.091-0.009c-0.271-0.049-0.451-0.309-0.402-0.58c0.032-0.179,0.834-4.402,4.728-6.835
				l0.104-0.064c0.232-0.143,0.542-0.07,0.688,0.167c0.143,0.236,0.068,0.543-0.168,0.687l-0.1,0.061
				c-3.503,2.189-4.261,6.123-4.268,6.163C2.947,18.831,2.737,19,2.501,19z"/>
		</g>
		<g id="XMLID_249_">
			<path d="M8.5,6.018C8.224,6.018,8,5.812,8,5.536c0-3.241,1.047-4.761,1.092-4.824l0.188-0.267
				c0.16-0.226,0.472-0.279,0.697-0.121c0.226,0.159,0.279,0.471,0.121,0.697L9.909,1.288C9.901,1.299,9,2.645,9,5.5
				C9,5.776,8.776,6.018,8.5,6.018z"/>
		</g>
		<g id="XMLID_250_">
			<path d="M0.729,10.201c-0.152,0-0.304-0.07-0.401-0.202C0.163,9.777,0.21,9.464,0.432,9.299l0.271-0.201
				C0.774,9.047,2.295,8,5.5,8c0.276,0,0.518,0.224,0.518,0.5S5.812,9,5.535,9C2.645,9,1.299,9.901,1.286,9.91l-0.259,0.192
				C0.938,10.168,0.833,10.201,0.729,10.201z"/>
		</g>
	</g>
</g>
<g id="Beach_Sign">
</g>
<g id="Toos">
</g>
<g id="Bucket">
</g>
<g id="Sand_Castle">
</g>
<g id="Shell_1">
</g>
<g id="Shell_2">
</g>
<g id="Surf_Board">
</g>
<g id="Float">
</g>
<g id="Vacation_Photo">
</g>
<g id="Summer_Time">
</g>
<g id="Boat">
</g>
<g id="Lifebuoy">
</g>
<g id="Lighthouse">
</g>
<g id="Sunset">
</g>
<g id="Dolphin">
</g>
<g id="Starfish">
</g>
<g id="Diving_Mask">
</g>
<g id="Sailboat">
</g>
<g id="Captin_Hat">
</g>
<g id="Eudder">
</g>
</svg>
