<?xml version="1.0" encoding="iso-8859-1"?>
<!-- Generator: Adobe Illustrator 19.2.1, SVG Export Plug-In . SVG Version: 6.00 Build 0)  -->
<svg version="1.1" xmlns="http://www.w3.org/2000/svg" xmlns:xlink="http://www.w3.org/1999/xlink" x="0px" y="0px"
	 viewBox="0 0 24 24" style="enable-background:new 0 0 24 24;" xml:space="preserve">
<g id="Sun_Light">
</g>
<g id="Sunglasses">
</g>
<g id="T-Shirt_1">
</g>
<g id="T-Shirt_2">
</g>
<g id="Mini_Dress">
</g>
<g id="Flip-Flops">
</g>
<g id="Temperature">
</g>
<g id="Hot_Temperature">
</g>
<g id="Ice_Lolly">
</g>
<g id="Icecream">
</g>
<g id="Limonade_1">
</g>
<g id="Limonade_2">
</g>
<g id="Hat">
</g>
<g id="Straw_Hat">
</g>
<g id="Deckchair">
</g>
<g id="Sunshade">
</g>
<g id="Suncream">
</g>
<g id="Suntan_Oil">
</g>
<g id="Swimming_Trunks">
</g>
<g id="Bikini">
</g>
<g id="Pool">
</g>
<g id="Pool_Ladder">
</g>
<g id="Grill">
</g>
<g id="Kite_1">
</g>
<g id="Kite_2">
</g>
<g id="Badminton">
</g>
<g id="Cooler">
</g>
<g id="Strand_Bag">
</g>
<g id="Towel">
</g>
<g id="Strand_Ball">
</g>
<g id="Beach_Sign">
</g>
<g id="Toos">
</g>
<g id="Bucket">
</g>
<g id="Sand_Castle">
</g>
<g id="Shell_1">
</g>
<g id="Shell_2">
</g>
<g id="Surf_Board">
</g>
<g id="Float">
</g>
<g id="Vacation_Photo">
</g>
<g id="Summer_Time">
	<g id="XMLID_317_">
		<g id="XMLID_383_">
			<path d="M22.5,8h-22C0.224,8,0,7.776,0,7.5S0.224,7,0.5,7h22C22.776,7,23,7.224,23,7.5S22.776,8,22.5,8z"/>
		</g>
		<g id="XMLID_382_">
			<path d="M16.5,3h-10C6.224,3,6,2.776,6,2.5S6.224,2,6.5,2h10C16.776,2,17,2.224,17,2.5S16.776,3,16.5,3z"/>
		</g>
		<g id="XMLID_381_">
			<path d="M20.5,24h-18C1.121,24,0,22.879,0,21.5v-17C0,3.121,1.121,2,2.5,2h2C4.776,2,5,2.224,5,2.5S4.776,3,4.5,3h-2
				C1.673,3,1,3.673,1,4.5v17C1,22.327,1.673,23,2.5,23h18c0.827,0,1.5-0.673,1.5-1.5v-17C22,3.673,21.327,3,20.5,3h-2
				C18.224,3,18,2.776,18,2.5S18.224,2,18.5,2h2C21.879,2,23,3.121,23,4.5v17C23,22.879,21.879,24,20.5,24z"/>
		</g>
		<g id="XMLID_380_">
			<path d="M5.5,5C4.673,5,4,4.327,4,3.5v-2C4,0.673,4.673,0,5.5,0S7,0.673,7,1.5v2C7,4.327,6.327,5,5.5,5z M5.5,1
				C5.225,1,5,1.225,5,1.5v2C5,3.775,5.225,4,5.5,4S6,3.775,6,3.5v-2C6,1.225,5.775,1,5.5,1z"/>
		</g>
		<g id="XMLID_379_">
			<path d="M17.5,5C16.673,5,16,4.327,16,3.5v-2C16,0.673,16.673,0,17.5,0S19,0.673,19,1.5v2C19,4.327,18.327,5,17.5,5z M17.5,1
				C17.225,1,17,1.225,17,1.5v2C17,3.775,17.225,4,17.5,4S18,3.775,18,3.5v-2C18,1.225,17.775,1,17.5,1z"/>
		</g>
		<g id="XMLID_316_">
			<path d="M11.5,19C9.57,19,8,17.43,8,15.5S9.57,12,11.5,12s3.5,1.57,3.5,3.5S13.43,19,11.5,19z M11.5,13
				C10.121,13,9,14.121,9,15.5s1.121,2.5,2.5,2.5s2.5-1.121,2.5-2.5S12.879,13,11.5,13z"/>
		</g>
		<g id="XMLID_378_">
			<path d="M11.5,11c-0.276,0-0.5-0.224-0.5-0.5v-1C11,9.224,11.224,9,11.5,9S12,9.224,12,9.5v1C12,10.776,11.776,11,11.5,11z"/>
		</g>
		<g id="XMLID_416_">
			<path d="M11.5,22c-0.276,0-0.5-0.224-0.5-0.5v-1c0-0.276,0.224-0.5,0.5-0.5s0.5,0.224,0.5,0.5v1C12,21.776,11.776,22,11.5,22z"/>
		</g>
		<g id="XMLID_417_">
			<path d="M17.5,16h-1c-0.276,0-0.5-0.224-0.5-0.5s0.224-0.5,0.5-0.5h1c0.276,0,0.5,0.224,0.5,0.5S17.776,16,17.5,16z"/>
		</g>
		<g id="XMLID_377_">
			<path d="M6.5,16h-1C5.224,16,5,15.776,5,15.5S5.224,15,5.5,15h1C6.776,15,7,15.224,7,15.5S6.776,16,6.5,16z"/>
		</g>
		<g id="XMLID_419_">
			<path d="M15.035,12.465c-0.128,0-0.256-0.049-0.354-0.146c-0.195-0.195-0.195-0.512,0-0.707l0.707-0.707
				c0.195-0.195,0.512-0.195,0.707,0s0.195,0.512,0,0.707l-0.707,0.707C15.291,12.416,15.163,12.465,15.035,12.465z"/>
		</g>
		<g id="XMLID_418_">
			<path d="M7.258,20.242c-0.128,0-0.256-0.049-0.354-0.146c-0.195-0.195-0.195-0.512,0-0.707l0.707-0.707
				c0.195-0.195,0.512-0.195,0.707,0s0.195,0.512,0,0.707l-0.707,0.707C7.514,20.193,7.386,20.242,7.258,20.242z"/>
		</g>
		<g id="XMLID_421_">
			<path d="M7.965,12.465c-0.128,0-0.256-0.049-0.354-0.146l-0.707-0.707c-0.195-0.195-0.195-0.512,0-0.707s0.512-0.195,0.707,0
				l0.707,0.707c0.195,0.195,0.195,0.512,0,0.707C8.221,12.416,8.093,12.465,7.965,12.465z"/>
		</g>
		<g id="XMLID_420_">
			<path d="M15.742,20.242c-0.128,0-0.256-0.049-0.354-0.146l-0.707-0.707c-0.195-0.195-0.195-0.512,0-0.707s0.512-0.195,0.707,0
				l0.707,0.707c0.195,0.195,0.195,0.512,0,0.707C15.998,20.193,15.87,20.242,15.742,20.242z"/>
		</g>
	</g>
</g>
<g id="Boat">
</g>
<g id="Lifebuoy">
</g>
<g id="Lighthouse">
</g>
<g id="Sunset">
</g>
<g id="Dolphin">
</g>
<g id="Starfish">
</g>
<g id="Diving_Mask">
</g>
<g id="Sailboat">
</g>
<g id="Captin_Hat">
</g>
<g id="Eudder">
</g>
</svg>
