<?xml version="1.0" encoding="iso-8859-1"?>
<!-- Generator: Adobe Illustrator 19.2.1, SVG Export Plug-In . SVG Version: 6.00 Build 0)  -->
<svg version="1.1" xmlns="http://www.w3.org/2000/svg" xmlns:xlink="http://www.w3.org/1999/xlink" x="0px" y="0px"
	 viewBox="0 0 24 24" style="enable-background:new 0 0 24 24;" xml:space="preserve">
<g id="Sun_Light">
	<g id="XMLID_55_">
		<g id="XMLID_56_">
			<path d="M11.5,18C7.916,18,5,15.084,5,11.5S7.916,5,11.5,5S18,7.916,18,11.5S15.084,18,11.5,18z M11.5,6C8.467,6,6,8.467,6,11.5
				S8.467,17,11.5,17s5.5-2.467,5.5-5.5S14.533,6,11.5,6z"/>
		</g>
		<g id="XMLID_57_">
			<path d="M11.5,4C11.224,4,11,3.776,11,3.5v-3C11,0.224,11.224,0,11.5,0S12,0.224,12,0.5v3C12,3.776,11.776,4,11.5,4z"/>
		</g>
		<g id="XMLID_58_">
			<path d="M11.5,23c-0.276,0-0.5-0.224-0.5-0.5v-3c0-0.276,0.224-0.5,0.5-0.5s0.5,0.224,0.5,0.5v3C12,22.776,11.776,23,11.5,23z"/>
		</g>
		<g id="XMLID_59_">
			<path d="M3.5,12h-3C0.224,12,0,11.776,0,11.5S0.224,11,0.5,11h3C3.776,11,4,11.224,4,11.5S3.776,12,3.5,12z"/>
		</g>
		<g id="XMLID_60_">
			<path d="M22.5,12h-3c-0.276,0-0.5-0.224-0.5-0.5s0.224-0.5,0.5-0.5h3c0.276,0,0.5,0.224,0.5,0.5S22.776,12,22.5,12z"/>
		</g>
		<g>
			<path d="M5.843,6.343c-0.128,0-0.256-0.049-0.354-0.146L3.368,4.075c-0.195-0.195-0.195-0.512,0-0.707s0.512-0.195,0.707,0
				L6.197,5.49c0.195,0.195,0.195,0.512,0,0.707C6.099,6.294,5.971,6.343,5.843,6.343z"/>
		</g>
		<g>
			<path d="M19.278,19.778c-0.128,0-0.256-0.049-0.354-0.146l-2.122-2.122c-0.195-0.195-0.195-0.512,0-0.707s0.512-0.195,0.707,0
				l2.122,2.122c0.195,0.195,0.195,0.512,0,0.707C19.534,19.729,19.406,19.778,19.278,19.778z"/>
		</g>
		<g>
			<path d="M3.722,19.778c-0.128,0-0.256-0.049-0.354-0.146c-0.195-0.195-0.195-0.512,0-0.707l2.122-2.122
				c0.195-0.195,0.512-0.195,0.707,0s0.195,0.512,0,0.707l-2.122,2.122C3.978,19.729,3.85,19.778,3.722,19.778z"/>
		</g>
		<g>
			<path d="M17.157,6.343c-0.128,0-0.256-0.049-0.354-0.146c-0.195-0.195-0.195-0.512,0-0.707l2.122-2.122
				c0.195-0.195,0.512-0.195,0.707,0s0.195,0.512,0,0.707L17.51,6.197C17.413,6.294,17.285,6.343,17.157,6.343z"/>
		</g>
	</g>
</g>
<g id="Sunglasses">
</g>
<g id="T-Shirt_1">
</g>
<g id="T-Shirt_2">
</g>
<g id="Mini_Dress">
</g>
<g id="Flip-Flops">
</g>
<g id="Temperature">
</g>
<g id="Hot_Temperature">
</g>
<g id="Ice_Lolly">
</g>
<g id="Icecream">
</g>
<g id="Limonade_1">
</g>
<g id="Limonade_2">
</g>
<g id="Hat">
</g>
<g id="Straw_Hat">
</g>
<g id="Deckchair">
</g>
<g id="Sunshade">
</g>
<g id="Suncream">
</g>
<g id="Suntan_Oil">
</g>
<g id="Swimming_Trunks">
</g>
<g id="Bikini">
</g>
<g id="Pool">
</g>
<g id="Pool_Ladder">
</g>
<g id="Grill">
</g>
<g id="Kite_1">
</g>
<g id="Kite_2">
</g>
<g id="Badminton">
</g>
<g id="Cooler">
</g>
<g id="Strand_Bag">
</g>
<g id="Towel">
</g>
<g id="Strand_Ball">
</g>
<g id="Beach_Sign">
</g>
<g id="Toos">
</g>
<g id="Bucket">
</g>
<g id="Sand_Castle">
</g>
<g id="Shell_1">
</g>
<g id="Shell_2">
</g>
<g id="Surf_Board">
</g>
<g id="Float">
</g>
<g id="Vacation_Photo">
</g>
<g id="Summer_Time">
</g>
<g id="Boat">
</g>
<g id="Lifebuoy">
</g>
<g id="Lighthouse">
</g>
<g id="Sunset">
</g>
<g id="Dolphin">
</g>
<g id="Starfish">
</g>
<g id="Diving_Mask">
</g>
<g id="Sailboat">
</g>
<g id="Captin_Hat">
</g>
<g id="Eudder">
</g>
</svg>
