<?xml version="1.0" encoding="iso-8859-1"?>
<!-- Generator: Adobe Illustrator 19.2.1, SVG Export Plug-In . SVG Version: 6.00 Build 0)  -->
<svg version="1.1" xmlns="http://www.w3.org/2000/svg" xmlns:xlink="http://www.w3.org/1999/xlink" x="0px" y="0px"
	 viewBox="0 0 24 24" style="enable-background:new 0 0 24 24;" xml:space="preserve">
<g id="Sun_Light">
</g>
<g id="Sunglasses">
</g>
<g id="T-Shirt_1">
</g>
<g id="T-Shirt_2">
</g>
<g id="Mini_Dress">
</g>
<g id="Flip-Flops">
</g>
<g id="Temperature">
</g>
<g id="Hot_Temperature">
</g>
<g id="Ice_Lolly">
</g>
<g id="Icecream">
</g>
<g id="Limonade_1">
</g>
<g id="Limonade_2">
</g>
<g id="Hat">
</g>
<g id="Straw_Hat">
</g>
<g id="Deckchair">
</g>
<g id="Sunshade">
</g>
<g id="Suncream">
	<g id="XMLID_145_">
		<g>
			<path d="M15.5,24h-8C6.673,24,6,23.327,6,22.5v-15C6,5.57,7.57,4,9.5,4h4C15.43,4,17,5.57,17,7.5v15C17,23.327,16.327,24,15.5,24
				z M9.5,5C8.121,5,7,6.122,7,7.5v15C7,22.776,7.225,23,7.5,23h8c0.275,0,0.5-0.224,0.5-0.5v-15C16,6.122,14.879,5,13.5,5H9.5z"/>
		</g>
		<g>
			<path d="M13.5,5h-4C9.224,5,9,4.776,9,4.5v-3C9,0.673,9.673,0,10.5,0h2C13.327,0,14,0.673,14,1.5v3C14,4.776,13.776,5,13.5,5z
				 M10,4h3V1.5C13,1.224,12.775,1,12.5,1h-2C10.225,1,10,1.224,10,1.5V4z"/>
		</g>
		<g id="XMLID_146_">
			<path d="M11.5,17C10.121,17,9,15.878,9,14.5s1.121-2.5,2.5-2.5s2.5,1.122,2.5,2.5S12.879,17,11.5,17z M11.5,13
				c-0.827,0-1.5,0.673-1.5,1.5s0.673,1.5,1.5,1.5s1.5-0.673,1.5-1.5S12.327,13,11.5,13z"/>
		</g>
		<g id="XMLID_147_">
			<path d="M11.5,13c-0.276,0-0.5-0.224-0.5-0.5v-1c0-0.276,0.224-0.5,0.5-0.5s0.5,0.224,0.5,0.5v1C12,12.776,11.776,13,11.5,13z"/>
		</g>
		<g id="XMLID_148_">
			<path d="M14.5,15h-1c-0.276,0-0.5-0.224-0.5-0.5s0.224-0.5,0.5-0.5h1c0.276,0,0.5,0.224,0.5,0.5S14.776,15,14.5,15z"/>
		</g>
		<g id="XMLID_149_">
			<path d="M11.5,18c-0.276,0-0.5-0.224-0.5-0.5v-1c0-0.276,0.224-0.5,0.5-0.5s0.5,0.224,0.5,0.5v1C12,17.776,11.776,18,11.5,18z"/>
		</g>
		<g id="XMLID_150_">
			<path d="M9.5,15h-1C8.224,15,8,14.776,8,14.5S8.224,14,8.5,14h1c0.276,0,0.5,0.224,0.5,0.5S9.776,15,9.5,15z"/>
		</g>
		<g>
			<path d="M10.086,13.586c-0.128,0-0.256-0.049-0.354-0.146l-0.707-0.707c-0.195-0.195-0.195-0.512,0-0.707s0.512-0.195,0.707,0
				l0.707,0.707c0.195,0.195,0.195,0.512,0,0.707C10.342,13.537,10.214,13.586,10.086,13.586z"/>
		</g>
		<g>
			<path d="M12.914,13.586c-0.128,0-0.256-0.049-0.354-0.146c-0.195-0.195-0.195-0.512,0-0.707l0.707-0.707
				c0.195-0.195,0.512-0.195,0.707,0s0.195,0.512,0,0.707l-0.707,0.707C13.17,13.537,13.042,13.586,12.914,13.586z"/>
		</g>
		<g>
			<path d="M13.621,17.121c-0.128,0-0.256-0.049-0.354-0.146l-0.707-0.707c-0.195-0.195-0.195-0.512,0-0.707s0.512-0.195,0.707,0
				l0.707,0.707c0.195,0.195,0.195,0.512,0,0.707C13.877,17.072,13.749,17.121,13.621,17.121z"/>
		</g>
		<g>
			<path d="M9.379,17.121c-0.128,0-0.256-0.049-0.354-0.146c-0.195-0.195-0.195-0.512,0-0.707l0.707-0.707
				c0.195-0.195,0.512-0.195,0.707,0s0.195,0.512,0,0.707l-0.707,0.707C9.635,17.072,9.507,17.121,9.379,17.121z"/>
		</g>
		<g id="XMLID_151_">
			<path d="M16.5,9h-10C6.224,9,6,8.776,6,8.5S6.224,8,6.5,8h10C16.776,8,17,8.224,17,8.5S16.776,9,16.5,9z"/>
		</g>
		<g id="XMLID_152_">
			<path d="M16.5,21h-10C6.224,21,6,20.776,6,20.5S6.224,20,6.5,20h10c0.276,0,0.5,0.224,0.5,0.5S16.776,21,16.5,21z"/>
		</g>
	</g>
</g>
<g id="Suntan_Oil">
</g>
<g id="Swimming_Trunks">
</g>
<g id="Bikini">
</g>
<g id="Pool">
</g>
<g id="Pool_Ladder">
</g>
<g id="Grill">
</g>
<g id="Kite_1">
</g>
<g id="Kite_2">
</g>
<g id="Badminton">
</g>
<g id="Cooler">
</g>
<g id="Strand_Bag">
</g>
<g id="Towel">
</g>
<g id="Strand_Ball">
</g>
<g id="Beach_Sign">
</g>
<g id="Toos">
</g>
<g id="Bucket">
</g>
<g id="Sand_Castle">
</g>
<g id="Shell_1">
</g>
<g id="Shell_2">
</g>
<g id="Surf_Board">
</g>
<g id="Float">
</g>
<g id="Vacation_Photo">
</g>
<g id="Summer_Time">
</g>
<g id="Boat">
</g>
<g id="Lifebuoy">
</g>
<g id="Lighthouse">
</g>
<g id="Sunset">
</g>
<g id="Dolphin">
</g>
<g id="Starfish">
</g>
<g id="Diving_Mask">
</g>
<g id="Sailboat">
</g>
<g id="Captin_Hat">
</g>
<g id="Eudder">
</g>
</svg>
