<?xml version="1.0" encoding="iso-8859-1"?>
<!-- Generator: Adobe Illustrator 19.2.1, SVG Export Plug-In . SVG Version: 6.00 Build 0)  -->
<svg version="1.1" xmlns="http://www.w3.org/2000/svg" xmlns:xlink="http://www.w3.org/1999/xlink" x="0px" y="0px"
	 viewBox="0 0 24 24" style="enable-background:new 0 0 24 24;" xml:space="preserve">
<g id="Sun_Light">
</g>
<g id="Sunglasses">
	<g id="XMLID_61_">
		<g id="XMLID_62_">
			<path d="M5.747,19.989c-1.036,0-1.963-0.173-2.538-0.585c-1.781-1.276-2.055-2.958-2.158-3.59
				c-0.013-0.079-0.021-0.14-0.033-0.181c-0.092-0.328-0.565-0.607-0.723-0.679C0.117,14.872,0,14.693,0,14.497v-2
				c0-0.217,0.141-0.41,0.348-0.476c6.452-2.067,10.522-0.382,11.27-0.024h0.765c0.747-0.357,4.815-2.043,11.27,0.024
				C23.859,12.087,24,12.28,24,12.497v2c0,0.198-0.117,0.377-0.297,0.457c-0.156,0.071-0.629,0.35-0.721,0.678
				c-0.011,0.041-0.02,0.102-0.033,0.181c-0.103,0.633-0.377,2.314-2.157,3.59c-1.189,0.854-3.885,0.682-5.934,0.073
				c-2.311-0.688-2.826-3.267-2.849-3.386l0,0c-0.003-0.016-0.006-0.029-0.01-0.041c-0.001,0.008-0.003,0.017-0.005,0.026
				c-0.023,0.124-0.536,2.711-2.851,3.4C8.084,19.791,6.854,19.989,5.747,19.989z M12.991,15.904
				c0.009,0.044,0.437,2.104,2.151,2.614c2.255,0.671,4.386,0.56,5.066,0.073c1.443-1.034,1.652-2.321,1.753-2.938
				c0.021-0.127,0.039-0.226,0.057-0.291C22.18,14.787,22.673,14.4,23,14.199v-1.334c-6.406-1.939-10.224,0.051-10.263,0.072
				c-0.073,0.039-0.154,0.06-0.237,0.06h-1c-0.082,0-0.164-0.021-0.236-0.059C11.226,12.917,7.375,10.936,1,12.865v1.334
				c0.327,0.201,0.82,0.587,0.981,1.163C2,15.426,2.018,15.525,2.038,15.652c0.101,0.618,0.31,1.904,1.753,2.938
				c0.679,0.486,2.81,0.598,5.066-0.073c1.725-0.513,2.147-2.594,2.151-2.614c0.085-0.532,0.476-0.904,0.969-0.911
				C12.449,14.991,12.888,15.36,12.991,15.904z"/>
		</g>
		<g id="XMLID_63_">
			<path d="M23.5,12.997c-0.176,0-0.347-0.093-0.438-0.258l-4.686-8.493c-0.148-0.261-0.411-0.251-0.491-0.242
				c-0.077,0.009-0.336,0.063-0.42,0.359L16.967,5.67c-0.098,0.258-0.388,0.387-0.646,0.288s-0.387-0.388-0.288-0.646l0.484-1.266
				c0.155-0.549,0.639-0.962,1.249-1.036c0.608-0.076,1.177,0.212,1.482,0.745l4.689,8.499c0.133,0.242,0.045,0.546-0.196,0.68
				C23.665,12.977,23.582,12.997,23.5,12.997z"/>
		</g>
		<g>
			<path d="M0.5,12.997c-0.082,0-0.165-0.02-0.241-0.062c-0.242-0.134-0.33-0.438-0.196-0.68l4.686-8.493
				c0.309-0.54,0.876-0.828,1.486-0.751c0.61,0.074,1.094,0.486,1.263,1.077l0.47,1.224c0.099,0.258-0.03,0.547-0.288,0.646
				C7.423,6.056,7.132,5.928,7.033,5.67L6.549,4.404c-0.099-0.337-0.357-0.391-0.435-0.4c-0.08-0.009-0.341-0.02-0.495,0.249
				l-4.682,8.486C0.847,12.904,0.676,12.997,0.5,12.997z"/>
		</g>
		<g id="XMLID_64_">
			<path d="M3.574,15.911c-0.234,0-0.443-0.165-0.49-0.403c-0.048-0.245-0.073-0.534-0.074-0.859
				c-0.003-0.74,0.543-1.375,1.271-1.476c0.271-0.043,0.526,0.152,0.564,0.426s-0.152,0.526-0.426,0.564
				c-0.23,0.032-0.41,0.244-0.409,0.482c0.001,0.259,0.02,0.491,0.056,0.67c0.053,0.271-0.123,0.534-0.394,0.587
				C3.639,15.908,3.606,15.911,3.574,15.911z"/>
		</g>
		<g id="XMLID_65_">
			<path d="M14.578,15.991c-0.234,0-0.443-0.165-0.49-0.403c-0.066-0.338-0.093-0.674-0.075-0.97c0.04-0.674,0.53-1.237,1.193-1.369
				c0.271-0.055,0.534,0.123,0.588,0.394c0.053,0.271-0.123,0.534-0.394,0.588c-0.216,0.042-0.376,0.226-0.389,0.446
				c-0.013,0.21,0.008,0.465,0.058,0.717c0.053,0.271-0.123,0.534-0.394,0.588C14.643,15.988,14.61,15.991,14.578,15.991z"/>
		</g>
	</g>
</g>
<g id="T-Shirt_1">
</g>
<g id="T-Shirt_2">
</g>
<g id="Mini_Dress">
</g>
<g id="Flip-Flops">
</g>
<g id="Temperature">
</g>
<g id="Hot_Temperature">
</g>
<g id="Ice_Lolly">
</g>
<g id="Icecream">
</g>
<g id="Limonade_1">
</g>
<g id="Limonade_2">
</g>
<g id="Hat">
</g>
<g id="Straw_Hat">
</g>
<g id="Deckchair">
</g>
<g id="Sunshade">
</g>
<g id="Suncream">
</g>
<g id="Suntan_Oil">
</g>
<g id="Swimming_Trunks">
</g>
<g id="Bikini">
</g>
<g id="Pool">
</g>
<g id="Pool_Ladder">
</g>
<g id="Grill">
</g>
<g id="Kite_1">
</g>
<g id="Kite_2">
</g>
<g id="Badminton">
</g>
<g id="Cooler">
</g>
<g id="Strand_Bag">
</g>
<g id="Towel">
</g>
<g id="Strand_Ball">
</g>
<g id="Beach_Sign">
</g>
<g id="Toos">
</g>
<g id="Bucket">
</g>
<g id="Sand_Castle">
</g>
<g id="Shell_1">
</g>
<g id="Shell_2">
</g>
<g id="Surf_Board">
</g>
<g id="Float">
</g>
<g id="Vacation_Photo">
</g>
<g id="Summer_Time">
</g>
<g id="Boat">
</g>
<g id="Lifebuoy">
</g>
<g id="Lighthouse">
</g>
<g id="Sunset">
</g>
<g id="Dolphin">
</g>
<g id="Starfish">
</g>
<g id="Diving_Mask">
</g>
<g id="Sailboat">
</g>
<g id="Captin_Hat">
</g>
<g id="Eudder">
</g>
</svg>
