<?xml version="1.0" encoding="iso-8859-1"?>
<!-- Generator: Adobe Illustrator 19.2.1, SVG Export Plug-In . SVG Version: 6.00 Build 0)  -->
<svg version="1.1" xmlns="http://www.w3.org/2000/svg" xmlns:xlink="http://www.w3.org/1999/xlink" x="0px" y="0px"
	 viewBox="0 0 24 24" style="enable-background:new 0 0 24 24;" xml:space="preserve">
<g id="Sun_Light">
</g>
<g id="Sunglasses">
</g>
<g id="T-Shirt_1">
</g>
<g id="T-Shirt_2">
</g>
<g id="Mini_Dress">
</g>
<g id="Flip-Flops">
</g>
<g id="Temperature">
</g>
<g id="Hot_Temperature">
</g>
<g id="Ice_Lolly">
</g>
<g id="Icecream">
</g>
<g id="Limonade_1">
</g>
<g id="Limonade_2">
</g>
<g id="Hat">
</g>
<g id="Straw_Hat">
</g>
<g id="Deckchair">
</g>
<g id="Sunshade">
	<g id="XMLID_140_">
		<g id="XMLID_141_">
			<path d="M0.5,24c-0.128,0-0.256-0.049-0.354-0.146c-0.195-0.195-0.195-0.512,0-0.707l12-12c0.195-0.195,0.512-0.195,0.707,0
				s0.195,0.512,0,0.707l-12,12C0.756,23.951,0.628,24,0.5,24z"/>
		</g>
		<g id="XMLID_142_">
			<path d="M14.5,17c-0.07,0-0.142-0.015-0.21-0.046c-0.25-0.116-0.359-0.413-0.244-0.664l5.432-11.768L7.71,9.954
				c-0.252,0.115-0.548,0.007-0.664-0.245C6.931,9.459,7.04,9.162,7.29,9.046l13-6c0.19-0.087,0.415-0.048,0.563,0.101
				c0.148,0.148,0.188,0.373,0.101,0.563l-6,13C14.869,16.893,14.688,17,14.5,17z"/>
		</g>
		<g id="XMLID_143_">
			<path d="M23.499,21c-0.237,0-0.448-0.17-0.491-0.413L20.068,3.932L3.413,0.992C3.142,0.944,2.96,0.685,3.008,0.413
				C3.057,0.14,3.321-0.043,3.587,0.008l17,3c0.207,0.036,0.369,0.198,0.405,0.405l3,17c0.048,0.272-0.134,0.531-0.405,0.579
				C23.558,20.998,23.528,21,23.499,21z"/>
		</g>
		<g id="XMLID_144_">
			<path d="M23.5,21c-0.11,0-0.22-0.036-0.313-0.109L18.324,17H14.5c-0.204,0-0.389-0.125-0.464-0.314l-1.921-4.801l-4.801-1.92
				C7.124,9.888,7,9.705,7,9.5V5.675L3.109,0.813c-0.172-0.216-0.138-0.53,0.078-0.703c0.218-0.172,0.531-0.137,0.703,0.078l4,5
				C7.961,5.276,8,5.386,8,5.5v3.662l4.686,1.874c0.127,0.051,0.228,0.151,0.278,0.279L14.839,16H18.5
				c0.113,0,0.224,0.039,0.313,0.109l5,4c0.216,0.173,0.25,0.487,0.078,0.703C23.792,20.936,23.646,21,23.5,21z"/>
		</g>
	</g>
</g>
<g id="Suncream">
</g>
<g id="Suntan_Oil">
</g>
<g id="Swimming_Trunks">
</g>
<g id="Bikini">
</g>
<g id="Pool">
</g>
<g id="Pool_Ladder">
</g>
<g id="Grill">
</g>
<g id="Kite_1">
</g>
<g id="Kite_2">
</g>
<g id="Badminton">
</g>
<g id="Cooler">
</g>
<g id="Strand_Bag">
</g>
<g id="Towel">
</g>
<g id="Strand_Ball">
</g>
<g id="Beach_Sign">
</g>
<g id="Toos">
</g>
<g id="Bucket">
</g>
<g id="Sand_Castle">
</g>
<g id="Shell_1">
</g>
<g id="Shell_2">
</g>
<g id="Surf_Board">
</g>
<g id="Float">
</g>
<g id="Vacation_Photo">
</g>
<g id="Summer_Time">
</g>
<g id="Boat">
</g>
<g id="Lifebuoy">
</g>
<g id="Lighthouse">
</g>
<g id="Sunset">
</g>
<g id="Dolphin">
</g>
<g id="Starfish">
</g>
<g id="Diving_Mask">
</g>
<g id="Sailboat">
</g>
<g id="Captin_Hat">
</g>
<g id="Eudder">
</g>
</svg>
