<?xml version="1.0" encoding="iso-8859-1"?>
<!-- Generator: Adobe Illustrator 19.2.1, SVG Export Plug-In . SVG Version: 6.00 Build 0)  -->
<svg version="1.1" xmlns="http://www.w3.org/2000/svg" xmlns:xlink="http://www.w3.org/1999/xlink" x="0px" y="0px"
	 viewBox="0 0 24 24" style="enable-background:new 0 0 24 24;" xml:space="preserve">
<g id="Sun_Light">
</g>
<g id="Sunglasses">
</g>
<g id="T-Shirt_1">
</g>
<g id="T-Shirt_2">
</g>
<g id="Mini_Dress">
</g>
<g id="Flip-Flops">
</g>
<g id="Temperature">
</g>
<g id="Hot_Temperature">
</g>
<g id="Ice_Lolly">
</g>
<g id="Icecream">
</g>
<g id="Limonade_1">
</g>
<g id="Limonade_2">
</g>
<g id="Hat">
</g>
<g id="Straw_Hat">
</g>
<g id="Deckchair">
</g>
<g id="Sunshade">
</g>
<g id="Suncream">
</g>
<g id="Suntan_Oil">
</g>
<g id="Swimming_Trunks">
</g>
<g id="Bikini">
</g>
<g id="Pool">
</g>
<g id="Pool_Ladder">
</g>
<g id="Grill">
</g>
<g id="Kite_1">
</g>
<g id="Kite_2">
</g>
<g id="Badminton">
</g>
<g id="Cooler">
</g>
<g id="Strand_Bag">
</g>
<g id="Towel">
</g>
<g id="Strand_Ball">
</g>
<g id="Beach_Sign">
</g>
<g id="Toos">
</g>
<g id="Bucket">
</g>
<g id="Sand_Castle">
</g>
<g id="Shell_1">
</g>
<g id="Shell_2">
</g>
<g id="Surf_Board">
</g>
<g id="Float">
</g>
<g id="Vacation_Photo">
</g>
<g id="Summer_Time">
</g>
<g id="Boat">
</g>
<g id="Lifebuoy">
</g>
<g id="Lighthouse">
</g>
<g id="Sunset">
	<g id="XMLID_334_">
		<g id="XMLID_335_">
			<path d="M5.548,15.295c-0.004,0-0.008,0-0.012,0c-0.276-0.007-0.495-0.235-0.488-0.512c0.086-3.729,3.193-6.764,6.926-6.764
				s6.839,3.034,6.925,6.763c0.006,0.276-0.212,0.505-0.488,0.512c-0.294-0.029-0.506-0.212-0.512-0.488
				c-0.074-3.19-2.732-5.786-5.925-5.786c-3.194,0-5.852,2.596-5.926,5.787C6.042,15.079,5.819,15.295,5.548,15.295z"/>
		</g>
		<g id="XMLID_336_">
			<g id="XMLID_337_">
				<path d="M23.5,16.02c-0.824,0-1.298-0.272-1.717-0.512C21.346,15.257,20.933,15.02,20,15.02c-0.882,0-1.296,0.207-1.776,0.447
					C17.706,15.726,17.118,16.02,16,16.02c-1.119,0-1.709-0.294-2.229-0.554C13.29,15.227,12.875,15.02,12,15.02
					c-0.884,0-1.301,0.208-1.784,0.448C9.698,15.727,9.11,16.02,8,16.02c-1.111,0-1.702-0.293-2.223-0.553
					C5.294,15.227,4.877,15.02,4,15.02c-0.933,0-1.346,0.237-1.783,0.488C1.798,15.747,1.324,16.02,0.5,16.02
					c-0.276,0-0.5-0.224-0.5-0.5s0.224-0.5,0.5-0.5c0.557,0,0.835-0.159,1.219-0.38C2.201,14.363,2.801,14.02,4,14.02
					c1.111,0,1.702,0.293,2.223,0.553c0.483,0.24,0.9,0.447,1.777,0.447c0.875,0,1.29-0.207,1.771-0.446
					c0.521-0.26,1.11-0.554,2.229-0.554c1.11,0,1.698,0.293,2.216,0.552c0.483,0.24,0.9,0.448,1.784,0.448
					c0.882,0,1.296-0.207,1.776-0.447c0.518-0.259,1.105-0.553,2.224-0.553c1.199,0,1.799,0.344,2.281,0.62
					c0.384,0.221,0.662,0.38,1.219,0.38c0.276,0,0.5,0.224,0.5,0.5S23.776,16.02,23.5,16.02z"/>
			</g>
			<g id="XMLID_338_">
				<path d="M20.5,19H20c-1.111,0-1.702-0.293-2.223-0.553C17.294,18.207,16.877,18,16,18c-0.875,0-1.29,0.207-1.771,0.446
					C13.709,18.706,13.119,19,12,19c-1.11,0-1.698-0.293-2.216-0.552C9.301,18.208,8.884,18,8,18c-0.882,0-1.296,0.207-1.776,0.447
					C5.706,18.706,5.118,19,4,19H3.5C3.224,19,3,18.776,3,18.5S3.224,18,3.5,18H4c0.882,0,1.296-0.207,1.776-0.447
					C6.294,17.294,6.882,17,8,17c1.119,0,1.709,0.294,2.229,0.554C10.71,17.793,11.125,18,12,18c0.884,0,1.301-0.208,1.784-0.448
					C14.302,17.293,14.89,17,16,17c1.111,0,1.702,0.293,2.223,0.553C18.706,17.793,19.123,18,20,18h0.5c0.276,0,0.5,0.224,0.5,0.5
					S20.776,19,20.5,19z"/>
			</g>
			<g id="XMLID_339_">
				<path d="M16.5,22H16c-1.119,0-1.709-0.294-2.229-0.554C13.29,21.207,12.875,21,12,21c-0.884,0-1.301,0.208-1.784,0.448
					C9.698,21.707,9.11,22,8,22H7.5C7.224,22,7,21.776,7,21.5S7.224,21,7.5,21H8c0.875,0,1.29-0.207,1.771-0.446
					C10.291,20.294,10.881,20,12,20c1.11,0,1.698,0.293,2.216,0.552C14.699,20.792,15.116,21,16,21h0.5c0.276,0,0.5,0.224,0.5,0.5
					S16.776,22,16.5,22z"/>
			</g>
			<g id="XMLID_340_">
				<path d="M13.758,7.201c-0.035,0-0.069-0.004-0.104-0.011c-0.27-0.058-0.442-0.323-0.385-0.593l0.468-2.201
					c0.058-0.271,0.323-0.44,0.593-0.386c0.27,0.058,0.442,0.323,0.385,0.593l-0.468,2.201C14.196,7.04,13.989,7.201,13.758,7.201z"
					/>
			</g>
			<g id="XMLID_341_">
				<path d="M10.244,7.201c-0.231,0-0.438-0.161-0.488-0.396l-0.47-2.201C9.229,4.334,9.4,4.068,9.67,4.011
					c0.268-0.056,0.536,0.115,0.593,0.385l0.47,2.201c0.058,0.271-0.114,0.536-0.384,0.594C10.314,7.197,10.279,7.201,10.244,7.201z
					"/>
			</g>
			<g id="XMLID_342_">
				<path d="M16.881,8.561c-0.1,0-0.2-0.029-0.288-0.092c-0.226-0.159-0.28-0.471-0.121-0.696l1.298-1.839
					c0.159-0.228,0.471-0.281,0.697-0.12c0.226,0.159,0.28,0.471,0.121,0.696L17.29,8.349C17.192,8.487,17.038,8.561,16.881,8.561z"
					/>
			</g>
			<g id="XMLID_343_">
				<path d="M7.119,8.561c-0.157,0-0.312-0.073-0.409-0.212L5.412,6.51c-0.16-0.226-0.106-0.537,0.12-0.696
					c0.227-0.161,0.538-0.107,0.697,0.12l1.298,1.839c0.159,0.226,0.105,0.537-0.12,0.696C7.319,8.531,7.219,8.561,7.119,8.561z"/>
			</g>
			<g id="XMLID_344_">
				<g id="XMLID_345_">
					<path d="M19.425,11.378c-0.173,0-0.341-0.09-0.433-0.25c-0.139-0.238-0.057-0.545,0.182-0.683l1.948-1.127
						c0.239-0.141,0.545-0.058,0.683,0.183c0.139,0.238,0.057,0.545-0.182,0.683l-1.948,1.127
						C19.596,11.356,19.51,11.378,19.425,11.378z"/>
				</g>
				<g id="XMLID_346_">
					<path d="M4.618,11.302c-0.082,0-0.165-0.021-0.242-0.063l-1.968-1.091c-0.242-0.134-0.329-0.438-0.195-0.68
						c0.134-0.242,0.439-0.327,0.68-0.195l1.968,1.091c0.242,0.134,0.329,0.438,0.195,0.68C4.965,11.209,4.794,11.302,4.618,11.302z
						"/>
				</g>
			</g>
		</g>
	</g>
</g>
<g id="Dolphin">
</g>
<g id="Starfish">
</g>
<g id="Diving_Mask">
</g>
<g id="Sailboat">
</g>
<g id="Captin_Hat">
</g>
<g id="Eudder">
</g>
</svg>
