<?xml version="1.0" encoding="iso-8859-1"?>
<!-- Generator: Adobe Illustrator 19.2.1, SVG Export Plug-In . SVG Version: 6.00 Build 0)  -->
<svg version="1.1" xmlns="http://www.w3.org/2000/svg" xmlns:xlink="http://www.w3.org/1999/xlink" x="0px" y="0px"
	 viewBox="0 0 24 24" style="enable-background:new 0 0 24 24;" xml:space="preserve">
<g id="Sun_Light">
</g>
<g id="Sunglasses">
</g>
<g id="T-Shirt_1">
</g>
<g id="T-Shirt_2">
</g>
<g id="Mini_Dress">
</g>
<g id="Flip-Flops">
</g>
<g id="Temperature">
</g>
<g id="Hot_Temperature">
</g>
<g id="Ice_Lolly">
</g>
<g id="Icecream">
</g>
<g id="Limonade_1">
</g>
<g id="Limonade_2">
</g>
<g id="Hat">
</g>
<g id="Straw_Hat">
</g>
<g id="Deckchair">
</g>
<g id="Sunshade">
</g>
<g id="Suncream">
</g>
<g id="Suntan_Oil">
	<g id="XMLID_153_">
		<g>
			<path d="M16.5,24h-10c-0.154,0-0.299-0.071-0.394-0.192c-0.096-0.121-0.129-0.279-0.092-0.429C6.024,23.339,7,19.375,7,14.5
				c0-3.341-0.463-6.269-0.739-7.717C6.177,6.341,6.292,5.889,6.578,5.543C6.863,5.198,7.284,5,7.733,5h7.533
				c0.449,0,0.87,0.198,1.155,0.543c0.286,0.346,0.401,0.797,0.317,1.239C16.463,8.231,16,11.159,16,14.5
				c0,4.905,0.975,8.839,0.985,8.878c0.037,0.149,0.004,0.308-0.091,0.43C16.8,23.929,16.654,24,16.5,24z M7.126,23h8.748
				C15.594,21.685,15,18.432,15,14.5c0-3.423,0.475-6.422,0.757-7.905c0.039-0.203-0.049-0.347-0.105-0.415
				C15.596,6.113,15.472,6,15.267,6H7.733C7.528,6,7.404,6.113,7.349,6.181C7.292,6.248,7.204,6.392,7.243,6.595
				C7.525,8.078,8,11.077,8,14.5C8,18.412,7.405,21.68,7.126,23z"/>
		</g>
		<g id="XMLID_154_">
			<path d="M8.928,22c-0.027,0-0.054-0.002-0.081-0.006c-0.272-0.044-0.458-0.301-0.413-0.574C8.691,19.822,9,17.324,9,14.5
				c0-2.791-0.31-5.304-0.57-6.92C8.387,7.307,8.572,7.05,8.845,7.006C9.113,6.963,9.373,7.148,9.418,7.42
				C9.684,9.073,10,11.643,10,14.5c0,2.891-0.315,5.446-0.58,7.08C9.381,21.825,9.168,22,8.928,22z"/>
		</g>
		<g>
			<path d="M13.5,6h-4C9.224,6,9,5.776,9,5.5v-3C9,1.122,10.121,0,11.5,0S14,1.122,14,2.5v3C14,5.776,13.776,6,13.5,6z M10,5h3V2.5
				C13,1.673,12.327,1,11.5,1S10,1.673,10,2.5V5z"/>
		</g>
	</g>
</g>
<g id="Swimming_Trunks">
</g>
<g id="Bikini">
</g>
<g id="Pool">
</g>
<g id="Pool_Ladder">
</g>
<g id="Grill">
</g>
<g id="Kite_1">
</g>
<g id="Kite_2">
</g>
<g id="Badminton">
</g>
<g id="Cooler">
</g>
<g id="Strand_Bag">
</g>
<g id="Towel">
</g>
<g id="Strand_Ball">
</g>
<g id="Beach_Sign">
</g>
<g id="Toos">
</g>
<g id="Bucket">
</g>
<g id="Sand_Castle">
</g>
<g id="Shell_1">
</g>
<g id="Shell_2">
</g>
<g id="Surf_Board">
</g>
<g id="Float">
</g>
<g id="Vacation_Photo">
</g>
<g id="Summer_Time">
</g>
<g id="Boat">
</g>
<g id="Lifebuoy">
</g>
<g id="Lighthouse">
</g>
<g id="Sunset">
</g>
<g id="Dolphin">
</g>
<g id="Starfish">
</g>
<g id="Diving_Mask">
</g>
<g id="Sailboat">
</g>
<g id="Captin_Hat">
</g>
<g id="Eudder">
</g>
</svg>
