<?xml version="1.0" encoding="iso-8859-1"?>
<!-- Generator: Adobe Illustrator 19.2.1, SVG Export Plug-In . SVG Version: 6.00 Build 0)  -->
<svg version="1.1" xmlns="http://www.w3.org/2000/svg" xmlns:xlink="http://www.w3.org/1999/xlink" x="0px" y="0px"
	 viewBox="0 0 24 24" style="enable-background:new 0 0 24 24;" xml:space="preserve">
<g id="Sun_Light">
</g>
<g id="Sunglasses">
</g>
<g id="T-Shirt_1">
</g>
<g id="T-Shirt_2">
</g>
<g id="Mini_Dress">
</g>
<g id="Flip-Flops">
</g>
<g id="Temperature">
</g>
<g id="Hot_Temperature">
</g>
<g id="Ice_Lolly">
</g>
<g id="Icecream">
</g>
<g id="Limonade_1">
</g>
<g id="Limonade_2">
</g>
<g id="Hat">
</g>
<g id="Straw_Hat">
</g>
<g id="Deckchair">
</g>
<g id="Sunshade">
</g>
<g id="Suncream">
</g>
<g id="Suntan_Oil">
</g>
<g id="Swimming_Trunks">
</g>
<g id="Bikini">
</g>
<g id="Pool">
</g>
<g id="Pool_Ladder">
</g>
<g id="Grill">
</g>
<g id="Kite_1">
</g>
<g id="Kite_2">
</g>
<g id="Badminton">
</g>
<g id="Cooler">
</g>
<g id="Strand_Bag">
</g>
<g id="Towel">
</g>
<g id="Strand_Ball">
</g>
<g id="Beach_Sign">
</g>
<g id="Toos">
</g>
<g id="Bucket">
</g>
<g id="Sand_Castle">
</g>
<g id="Shell_1">
</g>
<g id="Shell_2">
</g>
<g id="Surf_Board">
	<g id="XMLID_294_">
		<g id="XMLID_295_">
			<path d="M2.681,23.985c-0.629,0-1.302-0.303-1.843-0.846c-0.666-0.669-0.96-1.54-0.768-2.275
				c0.754-2.879,4.409-8.018,8.89-12.498c5.848-5.849,13.237-9.472,14.691-8.016c1.443,1.443-2.236,8.99-7.977,14.73l0,0
				c-4.456,4.455-9.612,8.094-12.538,8.848C2.989,23.967,2.836,23.985,2.681,23.985z M22.611,0.981
				c-1.561,0-7.401,2.549-12.944,8.092c-4.367,4.367-7.916,9.32-8.63,12.045c-0.102,0.387,0.099,0.903,0.509,1.315
				c0.42,0.422,0.949,0.632,1.341,0.526c2.727-0.702,7.808-4.313,12.081-8.586c6.079-6.079,8.526-12.542,7.972-13.321
				C22.873,1.006,22.762,0.981,22.611,0.981z M15.321,14.728h0.01H15.321z"/>
		</g>
		<g id="XMLID_296_">
			<path d="M6.009,18.493c-0.128,0-0.256-0.049-0.354-0.146c-0.195-0.195-0.195-0.512,0-0.707L22.944,0.351
				c0.195-0.195,0.512-0.195,0.707,0s0.195,0.512,0,0.707L6.362,18.347C6.265,18.444,6.137,18.493,6.009,18.493z"/>
		</g>
		<g id="XMLID_297_">
			<path d="M6.007,19.994c-0.434,0-0.93-0.224-1.353-0.646c-0.694-0.694-0.852-1.585-0.364-2.072
				c0.488-0.488,1.379-0.329,2.072,0.364c0.694,0.694,0.852,1.585,0.364,2.072C6.536,19.902,6.284,19.994,6.007,19.994z
				 M5.013,17.993c-0.016,0-0.028,0.002-0.038,0.005c0.013,0.035,0.078,0.334,0.387,0.643c0.271,0.271,0.533,0.354,0.643,0.354
				c0.002,0,0.004,0,0.005,0c0.002-0.107-0.08-0.373-0.354-0.647C5.385,18.076,5.122,17.993,5.013,17.993z"/>
		</g>
		<g id="XMLID_298_">
			<path d="M1.204,23.298c-0.128,0-0.256-0.049-0.354-0.146c-0.195-0.195-0.195-0.512,0-0.707l3.805-3.805
				c0.195-0.195,0.512-0.195,0.707,0s0.195,0.512,0,0.707l-3.805,3.805C1.46,23.249,1.332,23.298,1.204,23.298z"/>
		</g>
	</g>
</g>
<g id="Float">
</g>
<g id="Vacation_Photo">
</g>
<g id="Summer_Time">
</g>
<g id="Boat">
</g>
<g id="Lifebuoy">
</g>
<g id="Lighthouse">
</g>
<g id="Sunset">
</g>
<g id="Dolphin">
</g>
<g id="Starfish">
</g>
<g id="Diving_Mask">
</g>
<g id="Sailboat">
</g>
<g id="Captin_Hat">
</g>
<g id="Eudder">
</g>
</svg>
