<?xml version="1.0" encoding="iso-8859-1"?>
<!-- Generator: Adobe Illustrator 19.2.1, SVG Export Plug-In . SVG Version: 6.00 Build 0)  -->
<svg version="1.1" xmlns="http://www.w3.org/2000/svg" xmlns:xlink="http://www.w3.org/1999/xlink" x="0px" y="0px"
	 viewBox="0 0 24 24" style="enable-background:new 0 0 24 24;" xml:space="preserve">
<g id="Sun_Light">
</g>
<g id="Sunglasses">
</g>
<g id="T-Shirt_1">
</g>
<g id="T-Shirt_2">
</g>
<g id="Mini_Dress">
</g>
<g id="Flip-Flops">
</g>
<g id="Temperature">
</g>
<g id="Hot_Temperature">
</g>
<g id="Ice_Lolly">
</g>
<g id="Icecream">
</g>
<g id="Limonade_1">
</g>
<g id="Limonade_2">
</g>
<g id="Hat">
</g>
<g id="Straw_Hat">
</g>
<g id="Deckchair">
</g>
<g id="Sunshade">
</g>
<g id="Suncream">
</g>
<g id="Suntan_Oil">
</g>
<g id="Swimming_Trunks">
	<g id="XMLID_155_">
		<g id="XMLID_156_">
			<g>
				<path d="M14,24c-0.121,0-0.239-0.044-0.331-0.125C13.562,23.78,13.5,23.644,13.5,23.5c0-2.651-0.913-6.71-1.5-9.043
					c-0.586,2.336-1.5,6.402-1.5,9.043c0,0.144-0.062,0.28-0.169,0.375s-0.243,0.138-0.394,0.121l-8-1
					c-0.225-0.028-0.402-0.205-0.433-0.43C1.464,22.262,0.5,15.062,0.5,12c0-3.074,0.967-8.367,1.008-8.59L1.5,1.5
					C1.5,0.673,2.173,0,3,0h18c0.827,0,1.5,0.673,1.5,1.5v2c0.033,0.133,1,5.426,1,8.5c0,3.062-0.964,10.262-1.005,10.566
					c-0.03,0.225-0.208,0.401-0.433,0.43l-8,1C14.041,23.999,14.021,24,14,24z M2.445,22.052l7.066,0.883
					c0.161-4.053,1.929-10.296,2.008-10.572c0.121-0.43,0.838-0.43,0.961,0c0.079,0.275,1.848,6.507,2.008,10.572l7.066-0.883
					C21.757,20.496,22.5,14.601,22.5,12c0-2.982-0.981-8.355-0.992-8.41L21.5,1.5C21.5,1.224,21.275,1,21,1H3
					C2.725,1,2.5,1.224,2.5,1.5v2c-0.019,0.145-1,5.518-1,8.5C1.5,14.601,2.243,20.496,2.445,22.052z M22,22.5h0.01H22z"/>
			</g>
			<g>
				<path d="M22,4H2C1.724,4,1.5,3.776,1.5,3.5S1.724,3,2,3h20c0.276,0,0.5,0.224,0.5,0.5S22.276,4,22,4z"/>
			</g>
		</g>
		<g id="XMLID_157_">
			<path d="M15.013,10c-0.007,0-0.015,0-0.022,0c-0.276-0.013-0.489-0.246-0.477-0.522c0.054-1.191-0.005-4.532-0.908-5.666
				c-0.172-0.216-0.136-0.531,0.08-0.703c0.216-0.171,0.531-0.136,0.703,0.08c1.298,1.631,1.146,5.857,1.123,6.334
				C15.5,9.791,15.278,10,15.013,10z"/>
		</g>
		<g>
			<path d="M9.013,10c-0.266,0-0.487-0.209-0.499-0.478C8.491,9.046,8.339,4.819,9.637,3.188c0.173-0.216,0.489-0.251,0.703-0.08
				c0.216,0.172,0.252,0.486,0.08,0.703C9.516,4.947,9.458,8.287,9.512,9.478C9.524,9.753,9.312,9.987,9.035,10
				C9.027,10,9.02,10,9.013,10z"/>
		</g>
	</g>
</g>
<g id="Bikini">
</g>
<g id="Pool">
</g>
<g id="Pool_Ladder">
</g>
<g id="Grill">
</g>
<g id="Kite_1">
</g>
<g id="Kite_2">
</g>
<g id="Badminton">
</g>
<g id="Cooler">
</g>
<g id="Strand_Bag">
</g>
<g id="Towel">
</g>
<g id="Strand_Ball">
</g>
<g id="Beach_Sign">
</g>
<g id="Toos">
</g>
<g id="Bucket">
</g>
<g id="Sand_Castle">
</g>
<g id="Shell_1">
</g>
<g id="Shell_2">
</g>
<g id="Surf_Board">
</g>
<g id="Float">
</g>
<g id="Vacation_Photo">
</g>
<g id="Summer_Time">
</g>
<g id="Boat">
</g>
<g id="Lifebuoy">
</g>
<g id="Lighthouse">
</g>
<g id="Sunset">
</g>
<g id="Dolphin">
</g>
<g id="Starfish">
</g>
<g id="Diving_Mask">
</g>
<g id="Sailboat">
</g>
<g id="Captin_Hat">
</g>
<g id="Eudder">
</g>
</svg>
