<?xml version="1.0" encoding="iso-8859-1"?>
<!-- Generator: Adobe Illustrator 19.2.1, SVG Export Plug-In . SVG Version: 6.00 Build 0)  -->
<svg version="1.1" xmlns="http://www.w3.org/2000/svg" xmlns:xlink="http://www.w3.org/1999/xlink" x="0px" y="0px"
	 viewBox="0 0 24 24" style="enable-background:new 0 0 24 24;" xml:space="preserve">
<g id="Sun_Light">
</g>
<g id="Sunglasses">
</g>
<g id="T-Shirt_1">
	<g id="XMLID_66_">
		<path d="M19.5,24h-15c-0.138,0-0.271-0.057-0.365-0.158c-0.094-0.101-0.143-0.237-0.134-0.375L4.934,9.479l-2.156,1.438
			C2.652,11,2.496,11.022,2.352,10.978c-0.144-0.045-0.26-0.152-0.316-0.292l-2-5C-0.039,5.5,0.005,5.288,0.146,5.146l3.536-3.536
			C4.721,0.572,6.102,0,7.571,0H8.5C8.776,0,9,0.224,9,0.5C9,1.209,10.232,2,12,2s3-0.791,3-1.5C15,0.224,15.224,0,15.5,0h0.929
			c1.469,0,2.851,0.572,3.889,1.611l3.536,3.536c0.142,0.142,0.185,0.354,0.111,0.539l-2,5c-0.056,0.14-0.172,0.247-0.316,0.292
			c-0.145,0.045-0.301,0.022-0.426-0.062l-2.156-1.438l0.933,13.988c0.009,0.138-0.04,0.274-0.134,0.375
			C19.771,23.943,19.638,24,19.5,24z M5.035,23h13.931L18.001,8.533c-0.013-0.19,0.084-0.371,0.249-0.466s0.369-0.089,0.528,0.017
			l2.487,1.658l1.648-4.122l-3.302-3.303C18.761,1.468,17.631,1,16.429,1h-0.505C15.563,2.154,13.968,3,12,3S8.438,2.154,8.077,1
			H7.571C6.369,1,5.239,1.468,4.389,2.318L1.087,5.621l1.648,4.122l2.487-1.658C5.381,7.979,5.585,7.972,5.75,8.067
			c0.165,0.095,0.261,0.276,0.249,0.466L5.035,23z"/>
	</g>
</g>
<g id="T-Shirt_2">
</g>
<g id="Mini_Dress">
</g>
<g id="Flip-Flops">
</g>
<g id="Temperature">
</g>
<g id="Hot_Temperature">
</g>
<g id="Ice_Lolly">
</g>
<g id="Icecream">
</g>
<g id="Limonade_1">
</g>
<g id="Limonade_2">
</g>
<g id="Hat">
</g>
<g id="Straw_Hat">
</g>
<g id="Deckchair">
</g>
<g id="Sunshade">
</g>
<g id="Suncream">
</g>
<g id="Suntan_Oil">
</g>
<g id="Swimming_Trunks">
</g>
<g id="Bikini">
</g>
<g id="Pool">
</g>
<g id="Pool_Ladder">
</g>
<g id="Grill">
</g>
<g id="Kite_1">
</g>
<g id="Kite_2">
</g>
<g id="Badminton">
</g>
<g id="Cooler">
</g>
<g id="Strand_Bag">
</g>
<g id="Towel">
</g>
<g id="Strand_Ball">
</g>
<g id="Beach_Sign">
</g>
<g id="Toos">
</g>
<g id="Bucket">
</g>
<g id="Sand_Castle">
</g>
<g id="Shell_1">
</g>
<g id="Shell_2">
</g>
<g id="Surf_Board">
</g>
<g id="Float">
</g>
<g id="Vacation_Photo">
</g>
<g id="Summer_Time">
</g>
<g id="Boat">
</g>
<g id="Lifebuoy">
</g>
<g id="Lighthouse">
</g>
<g id="Sunset">
</g>
<g id="Dolphin">
</g>
<g id="Starfish">
</g>
<g id="Diving_Mask">
</g>
<g id="Sailboat">
</g>
<g id="Captin_Hat">
</g>
<g id="Eudder">
</g>
</svg>
