<?xml version="1.0" encoding="iso-8859-1"?>
<!-- Generator: Adobe Illustrator 19.2.1, SVG Export Plug-In . SVG Version: 6.00 Build 0)  -->
<svg version="1.1" xmlns="http://www.w3.org/2000/svg" xmlns:xlink="http://www.w3.org/1999/xlink" x="0px" y="0px"
	 viewBox="0 0 24 24" style="enable-background:new 0 0 24 24;" xml:space="preserve">
<g id="Sun_Light">
</g>
<g id="Sunglasses">
</g>
<g id="T-Shirt_1">
</g>
<g id="T-Shirt_2">
	<g id="XMLID_67_">
		<g id="XMLID_68_">
			<path d="M20.5,24h-17C3.224,24,3,23.776,3,23.5v-8.592c0-1.198,0.316-2.345,0.915-3.316C4.574,10.521,5,8.13,5,5.5
				c0-2.467-0.485-4.876-0.49-4.9C4.48,0.453,4.518,0.3,4.613,0.184C4.708,0.067,4.85,0,5,0h2.5C7.776,0,8,0.224,8,0.5
				C8,3.735,9.237,7,12,7c2.953,0,4-3.501,4-6.5C16,0.224,16.224,0,16.5,0H19c0.15,0,0.292,0.067,0.387,0.184
				C19.482,0.3,19.52,0.453,19.49,0.6C19.485,0.624,19,3.033,19,5.5c0,2.631,0.426,5.021,1.085,6.091
				C20.684,12.563,21,13.71,21,14.908V23.5C21,23.776,20.776,24,20.5,24z M4,23h16v-8.092c0-1.013-0.265-1.978-0.766-2.792
				C18.473,10.881,18,8.346,18,5.5c0-1.841,0.25-3.607,0.401-4.5h-1.409C16.853,5.271,14.925,8,12,8C9.122,8,7.152,5.208,7.008,1
				H5.599C5.75,1.893,6,3.659,6,5.5c0,2.845-0.473,5.38-1.234,6.616C4.265,12.93,4,13.895,4,14.908V23z"/>
		</g>
		<g id="XMLID_69_">
			<path d="M20.5,16h-17C3.224,16,3,15.776,3,15.5S3.224,15,3.5,15h17c0.276,0,0.5,0.224,0.5,0.5S20.776,16,20.5,16z"/>
		</g>
		<g id="XMLID_70_">
			<path d="M18.866,10H5.142c-0.276,0-0.5-0.224-0.5-0.5S4.865,9,5.142,9h13.724c0.276,0,0.5,0.224,0.5,0.5S19.142,10,18.866,10z"/>
		</g>
		<g id="XMLID_71_">
			<path d="M18.5,7h-3.953c-0.276,0-0.5-0.224-0.5-0.5s0.224-0.5,0.5-0.5H18.5C18.776,6,19,6.224,19,6.5S18.776,7,18.5,7z"/>
		</g>
		<g id="XMLID_72_">
			<path d="M18.585,4h-2.451c-0.276,0-0.5-0.224-0.5-0.5s0.224-0.5,0.5-0.5h2.451c0.276,0,0.5,0.224,0.5,0.5S18.861,4,18.585,4z"/>
		</g>
		<g id="XMLID_73_">
			<path d="M20,13H4c-0.276,0-0.5-0.224-0.5-0.5S3.724,12,4,12h16c0.276,0,0.5,0.224,0.5,0.5S20.276,13,20,13z"/>
		</g>
		<g id="XMLID_74_">
			<path d="M20.5,19h-17C3.224,19,3,18.776,3,18.5S3.224,18,3.5,18h17c0.276,0,0.5,0.224,0.5,0.5S20.776,19,20.5,19z"/>
		</g>
		<g id="XMLID_75_">
			<path d="M20.5,22h-17C3.224,22,3,21.776,3,21.5S3.224,21,3.5,21h17c0.276,0,0.5,0.224,0.5,0.5S20.776,22,20.5,22z"/>
		</g>
		<g id="XMLID_76_">
			<path d="M9.551,7H5.475c-0.276,0-0.5-0.224-0.5-0.5S5.198,6,5.475,6h4.077c0.276,0,0.5,0.224,0.5,0.5S9.828,7,9.551,7z"/>
		</g>
		<g id="XMLID_77_">
			<path d="M7.874,4H5.41c-0.276,0-0.5-0.224-0.5-0.5S5.134,3,5.41,3h2.464c0.276,0,0.5,0.224,0.5,0.5S8.15,4,7.874,4z"/>
		</g>
	</g>
</g>
<g id="Mini_Dress">
</g>
<g id="Flip-Flops">
</g>
<g id="Temperature">
</g>
<g id="Hot_Temperature">
</g>
<g id="Ice_Lolly">
</g>
<g id="Icecream">
</g>
<g id="Limonade_1">
</g>
<g id="Limonade_2">
</g>
<g id="Hat">
</g>
<g id="Straw_Hat">
</g>
<g id="Deckchair">
</g>
<g id="Sunshade">
</g>
<g id="Suncream">
</g>
<g id="Suntan_Oil">
</g>
<g id="Swimming_Trunks">
</g>
<g id="Bikini">
</g>
<g id="Pool">
</g>
<g id="Pool_Ladder">
</g>
<g id="Grill">
</g>
<g id="Kite_1">
</g>
<g id="Kite_2">
</g>
<g id="Badminton">
</g>
<g id="Cooler">
</g>
<g id="Strand_Bag">
</g>
<g id="Towel">
</g>
<g id="Strand_Ball">
</g>
<g id="Beach_Sign">
</g>
<g id="Toos">
</g>
<g id="Bucket">
</g>
<g id="Sand_Castle">
</g>
<g id="Shell_1">
</g>
<g id="Shell_2">
</g>
<g id="Surf_Board">
</g>
<g id="Float">
</g>
<g id="Vacation_Photo">
</g>
<g id="Summer_Time">
</g>
<g id="Boat">
</g>
<g id="Lifebuoy">
</g>
<g id="Lighthouse">
</g>
<g id="Sunset">
</g>
<g id="Dolphin">
</g>
<g id="Starfish">
</g>
<g id="Diving_Mask">
</g>
<g id="Sailboat">
</g>
<g id="Captin_Hat">
</g>
<g id="Eudder">
</g>
</svg>
