<?xml version="1.0" encoding="iso-8859-1"?>
<!-- Generator: Adobe Illustrator 19.2.1, SVG Export Plug-In . SVG Version: 6.00 Build 0)  -->
<svg version="1.1" xmlns="http://www.w3.org/2000/svg" xmlns:xlink="http://www.w3.org/1999/xlink" x="0px" y="0px"
	 viewBox="0 0 24 24" style="enable-background:new 0 0 24 24;" xml:space="preserve">
<g id="Sun_Light">
</g>
<g id="Sunglasses">
</g>
<g id="T-Shirt_1">
</g>
<g id="T-Shirt_2">
</g>
<g id="Mini_Dress">
</g>
<g id="Flip-Flops">
</g>
<g id="Temperature">
	<g id="XMLID_86_">
		<g id="XMLID_87_">
			<path d="M11.493,21.999c-0.214,0-0.431-0.019-0.646-0.059c-1.393-0.253-2.51-1.357-2.779-2.746
				C7.775,17.69,8.44,16.23,9.764,15.474C9.909,15.391,10,15.23,10,15.056V3.5C10,2.673,10.673,2,11.5,2S13,2.673,13,3.5v11.555
				c0,0.173,0.097,0.337,0.254,0.429l0,0C14.331,16.108,15,17.264,15,18.5c0,1.041-0.459,2.021-1.259,2.688
				C13.107,21.717,12.313,21.999,11.493,21.999z M11.5,3C11.225,3,11,3.224,11,3.5v11.556c0,0.532-0.283,1.025-0.74,1.287
				c-0.945,0.54-1.42,1.585-1.21,2.662c0.188,0.973,1.001,1.775,1.977,1.953c0.761,0.138,1.494-0.052,2.074-0.536
				C13.672,19.944,14,19.244,14,18.5c0-0.894-0.467-1.698-1.248-2.151l0,0C12.288,16.08,12,15.584,12,15.055V3.5
				C12,3.224,11.775,3,11.5,3z"/>
		</g>
		<g id="XMLID_88_">
			<path d="M12.5,10h-2C10.224,10,10,9.776,10,9.5S10.224,9,10.5,9h2C12.776,9,13,9.224,13,9.5S12.776,10,12.5,10z"/>
		</g>
		<g>
			<path d="M11.5,24C8.468,24,6,21.533,6,18.5v-13C6,2.467,8.468,0,11.5,0S17,2.467,17,5.5v13C17,21.533,14.532,24,11.5,24z M11.5,1
				C9.019,1,7,3.019,7,5.5v13c0,2.481,2.019,4.5,4.5,4.5s4.5-2.019,4.5-4.5v-13C16,3.019,13.981,1,11.5,1z"/>
		</g>
		<g id="XMLID_89_">
			<path d="M16.5,6h-2C14.224,6,14,5.776,14,5.5S14.224,5,14.5,5h2C16.776,5,17,5.224,17,5.5S16.776,6,16.5,6z"/>
		</g>
		<g id="XMLID_90_">
			<path d="M16.5,10h-2C14.224,10,14,9.776,14,9.5S14.224,9,14.5,9h2C16.776,9,17,9.224,17,9.5S16.776,10,16.5,10z"/>
		</g>
		<g id="XMLID_91_">
			<path d="M16.5,14h-2c-0.276,0-0.5-0.224-0.5-0.5s0.224-0.5,0.5-0.5h2c0.276,0,0.5,0.224,0.5,0.5S16.776,14,16.5,14z"/>
		</g>
	</g>
</g>
<g id="Hot_Temperature">
</g>
<g id="Ice_Lolly">
</g>
<g id="Icecream">
</g>
<g id="Limonade_1">
</g>
<g id="Limonade_2">
</g>
<g id="Hat">
</g>
<g id="Straw_Hat">
</g>
<g id="Deckchair">
</g>
<g id="Sunshade">
</g>
<g id="Suncream">
</g>
<g id="Suntan_Oil">
</g>
<g id="Swimming_Trunks">
</g>
<g id="Bikini">
</g>
<g id="Pool">
</g>
<g id="Pool_Ladder">
</g>
<g id="Grill">
</g>
<g id="Kite_1">
</g>
<g id="Kite_2">
</g>
<g id="Badminton">
</g>
<g id="Cooler">
</g>
<g id="Strand_Bag">
</g>
<g id="Towel">
</g>
<g id="Strand_Ball">
</g>
<g id="Beach_Sign">
</g>
<g id="Toos">
</g>
<g id="Bucket">
</g>
<g id="Sand_Castle">
</g>
<g id="Shell_1">
</g>
<g id="Shell_2">
</g>
<g id="Surf_Board">
</g>
<g id="Float">
</g>
<g id="Vacation_Photo">
</g>
<g id="Summer_Time">
</g>
<g id="Boat">
</g>
<g id="Lifebuoy">
</g>
<g id="Lighthouse">
</g>
<g id="Sunset">
</g>
<g id="Dolphin">
</g>
<g id="Starfish">
</g>
<g id="Diving_Mask">
</g>
<g id="Sailboat">
</g>
<g id="Captin_Hat">
</g>
<g id="Eudder">
</g>
</svg>
