<?xml version="1.0" encoding="iso-8859-1"?>
<!-- Generator: Adobe Illustrator 19.2.1, SVG Export Plug-In . SVG Version: 6.00 Build 0)  -->
<svg version="1.1" xmlns="http://www.w3.org/2000/svg" xmlns:xlink="http://www.w3.org/1999/xlink" x="0px" y="0px"
	 viewBox="0 0 24 24" style="enable-background:new 0 0 24 24;" xml:space="preserve">
<g id="Sun_Light">
</g>
<g id="Sunglasses">
</g>
<g id="T-Shirt_1">
</g>
<g id="T-Shirt_2">
</g>
<g id="Mini_Dress">
</g>
<g id="Flip-Flops">
</g>
<g id="Temperature">
</g>
<g id="Hot_Temperature">
</g>
<g id="Ice_Lolly">
</g>
<g id="Icecream">
</g>
<g id="Limonade_1">
</g>
<g id="Limonade_2">
</g>
<g id="Hat">
</g>
<g id="Straw_Hat">
</g>
<g id="Deckchair">
</g>
<g id="Sunshade">
</g>
<g id="Suncream">
</g>
<g id="Suntan_Oil">
</g>
<g id="Swimming_Trunks">
</g>
<g id="Bikini">
</g>
<g id="Pool">
</g>
<g id="Pool_Ladder">
</g>
<g id="Grill">
</g>
<g id="Kite_1">
</g>
<g id="Kite_2">
</g>
<g id="Badminton">
</g>
<g id="Cooler">
</g>
<g id="Strand_Bag">
</g>
<g id="Towel">
</g>
<g id="Strand_Ball">
</g>
<g id="Beach_Sign">
</g>
<g id="Toos">
	<g id="XMLID_267_">
		<g id="XMLID_268_">
			<path d="M10.5,24h-8C1.673,24,1,23.327,1,22.5v-7C1,14.121,2.122,13,3.5,13H5V1.5C5,0.673,5.673,0,6.5,0S8,0.673,8,1.5V13h1.5
				c1.378,0,2.5,1.121,2.5,2.5v7C12,23.327,11.327,24,10.5,24z M3.5,14C2.673,14,2,14.673,2,15.5v7C2,22.775,2.224,23,2.5,23h8
				c0.276,0,0.5-0.225,0.5-0.5v-7c0-0.827-0.673-1.5-1.5-1.5h-2C7.224,14,7,13.776,7,13.5v-12C7,1.225,6.776,1,6.5,1S6,1.225,6,1.5
				v12C6,13.776,5.776,14,5.5,14H3.5z"/>
		</g>
		<g id="XMLID_269_">
			<path d="M9.5,22C9.224,22,9,21.776,9,21.5V16H4v5.5C4,21.776,3.776,22,3.5,22S3,21.776,3,21.5v-6C3,15.224,3.224,15,3.5,15h6
				c0.276,0,0.5,0.224,0.5,0.5v6C10,21.776,9.776,22,9.5,22z"/>
		</g>
		<g id="XMLID_270_">
			<path d="M17.5,24c-0.827,0-1.5-0.673-1.5-1.5V8h-1.5C13.122,8,12,6.879,12,5.5v-4C12,0.673,12.673,0,13.5,0S15,0.673,15,1.5v2
				C15,3.775,15.224,4,15.5,4S16,3.775,16,3.5v-2C16,0.673,16.673,0,17.5,0S19,0.673,19,1.5v2C19,3.775,19.224,4,19.5,4
				S20,3.775,20,3.5v-2C20,0.673,20.673,0,21.5,0S23,0.673,23,1.5v4C23,6.879,21.878,8,20.5,8H19v14.5C19,23.327,18.327,24,17.5,24z
				 M13.5,1C13.224,1,13,1.225,13,1.5v4C13,6.327,13.673,7,14.5,7h2C16.776,7,17,7.224,17,7.5v15c0,0.275,0.224,0.5,0.5,0.5
				s0.5-0.225,0.5-0.5v-15C18,7.224,18.224,7,18.5,7h2C21.327,7,22,6.327,22,5.5v-4C22,1.225,21.776,1,21.5,1S21,1.225,21,1.5v2
				C21,4.327,20.327,5,19.5,5S18,4.327,18,3.5v-2C18,1.225,17.776,1,17.5,1S17,1.225,17,1.5v2C17,4.327,16.327,5,15.5,5
				S14,4.327,14,3.5v-2C14,1.225,13.776,1,13.5,1z"/>
		</g>
	</g>
</g>
<g id="Bucket">
</g>
<g id="Sand_Castle">
</g>
<g id="Shell_1">
</g>
<g id="Shell_2">
</g>
<g id="Surf_Board">
</g>
<g id="Float">
</g>
<g id="Vacation_Photo">
</g>
<g id="Summer_Time">
</g>
<g id="Boat">
</g>
<g id="Lifebuoy">
</g>
<g id="Lighthouse">
</g>
<g id="Sunset">
</g>
<g id="Dolphin">
</g>
<g id="Starfish">
</g>
<g id="Diving_Mask">
</g>
<g id="Sailboat">
</g>
<g id="Captin_Hat">
</g>
<g id="Eudder">
</g>
</svg>
