<?xml version="1.0" encoding="iso-8859-1"?>
<!-- Generator: Adobe Illustrator 19.2.1, SVG Export Plug-In . SVG Version: 6.00 Build 0)  -->
<svg version="1.1" xmlns="http://www.w3.org/2000/svg" xmlns:xlink="http://www.w3.org/1999/xlink" x="0px" y="0px"
	 viewBox="0 0 24 24" style="enable-background:new 0 0 24 24;" xml:space="preserve">
<g id="Sun_Light">
</g>
<g id="Sunglasses">
</g>
<g id="T-Shirt_1">
</g>
<g id="T-Shirt_2">
</g>
<g id="Mini_Dress">
</g>
<g id="Flip-Flops">
</g>
<g id="Temperature">
</g>
<g id="Hot_Temperature">
</g>
<g id="Ice_Lolly">
</g>
<g id="Icecream">
</g>
<g id="Limonade_1">
</g>
<g id="Limonade_2">
</g>
<g id="Hat">
</g>
<g id="Straw_Hat">
</g>
<g id="Deckchair">
</g>
<g id="Sunshade">
</g>
<g id="Suncream">
</g>
<g id="Suntan_Oil">
</g>
<g id="Swimming_Trunks">
</g>
<g id="Bikini">
</g>
<g id="Pool">
</g>
<g id="Pool_Ladder">
</g>
<g id="Grill">
</g>
<g id="Kite_1">
</g>
<g id="Kite_2">
</g>
<g id="Badminton">
</g>
<g id="Cooler">
</g>
<g id="Strand_Bag">
</g>
<g id="Towel">
	<g id="XMLID_220_">
		<g id="XMLID_221_">
			<path d="M8.5,23c-0.128,0-0.256-0.049-0.354-0.146l-7-7c-0.195-0.195-0.195-0.512,0-0.707l14-14c0.195-0.195,0.512-0.195,0.707,0
				l7,7c0.195,0.195,0.195,0.512,0,0.707l-14,14C8.756,22.951,8.628,23,8.5,23z M2.207,15.5L8.5,21.793L21.793,8.5L15.5,2.207
				L2.207,15.5z"/>
		</g>
		<g id="XMLID_222_">
			<path d="M22.5,9c-0.128,0-0.256-0.049-0.354-0.146c-0.195-0.195-0.195-0.512,0-0.707l1-1c0.195-0.195,0.512-0.195,0.707,0
				s0.195,0.512,0,0.707l-1,1C22.756,8.951,22.628,9,22.5,9z"/>
		</g>
		<g id="XMLID_223_">
			<path d="M21.5,8c-0.128,0-0.256-0.049-0.354-0.146c-0.195-0.195-0.195-0.512,0-0.707l1-1c0.195-0.195,0.512-0.195,0.707,0
				s0.195,0.512,0,0.707l-1,1C21.756,7.951,21.628,8,21.5,8z"/>
		</g>
		<g id="XMLID_224_">
			<path d="M20.5,7c-0.128,0-0.256-0.049-0.354-0.146c-0.195-0.195-0.195-0.512,0-0.707l1-1c0.195-0.195,0.512-0.195,0.707,0
				s0.195,0.512,0,0.707l-1,1C20.756,6.951,20.628,7,20.5,7z"/>
		</g>
		<g id="XMLID_225_">
			<path d="M19.5,6c-0.128,0-0.256-0.049-0.354-0.146c-0.195-0.195-0.195-0.512,0-0.707l1-1c0.195-0.195,0.512-0.195,0.707,0
				s0.195,0.512,0,0.707l-1,1C19.756,5.951,19.628,6,19.5,6z"/>
		</g>
		<g id="XMLID_226_">
			<path d="M15.5,2c-0.128,0-0.256-0.049-0.354-0.146c-0.195-0.195-0.195-0.512,0-0.707l1-1c0.195-0.195,0.512-0.195,0.707,0
				s0.195,0.512,0,0.707l-1,1C15.756,1.951,15.628,2,15.5,2z"/>
		</g>
		<g id="XMLID_227_">
			<path d="M18.5,5c-0.128,0-0.256-0.049-0.354-0.146c-0.195-0.195-0.195-0.512,0-0.707l1-1c0.195-0.195,0.512-0.195,0.707,0
				s0.195,0.512,0,0.707l-1,1C18.756,4.951,18.628,5,18.5,5z"/>
		</g>
		<g id="XMLID_228_">
			<path d="M16.5,3c-0.128,0-0.256-0.049-0.354-0.146c-0.195-0.195-0.195-0.512,0-0.707l1-1c0.195-0.195,0.512-0.195,0.707,0
				s0.195,0.512,0,0.707l-1,1C16.756,2.951,16.628,3,16.5,3z"/>
		</g>
		<g id="XMLID_229_">
			<path d="M17.5,4c-0.128,0-0.256-0.049-0.354-0.146c-0.195-0.195-0.195-0.512,0-0.707l1-1c0.195-0.195,0.512-0.195,0.707,0
				s0.195,0.512,0,0.707l-1,1C17.756,3.951,17.628,4,17.5,4z"/>
		</g>
		<g id="XMLID_230_">
			<path d="M7.5,24c-0.128,0-0.256-0.049-0.354-0.146c-0.195-0.195-0.195-0.512,0-0.707l1-1c0.195-0.195,0.512-0.195,0.707,0
				s0.195,0.512,0,0.707l-1,1C7.756,23.951,7.628,24,7.5,24z"/>
		</g>
		<g id="XMLID_231_">
			<path d="M6.5,23c-0.128,0-0.256-0.049-0.354-0.146c-0.195-0.195-0.195-0.512,0-0.707l1-1c0.195-0.195,0.512-0.195,0.707,0
				s0.195,0.512,0,0.707l-1,1C6.756,22.951,6.628,23,6.5,23z"/>
		</g>
		<g id="XMLID_232_">
			<path d="M5.5,22c-0.128,0-0.256-0.049-0.354-0.146c-0.195-0.195-0.195-0.512,0-0.707l1-1c0.195-0.195,0.512-0.195,0.707,0
				s0.195,0.512,0,0.707l-1,1C5.756,21.951,5.628,22,5.5,22z"/>
		</g>
		<g id="XMLID_233_">
			<path d="M4.5,21c-0.128,0-0.256-0.049-0.354-0.146c-0.195-0.195-0.195-0.512,0-0.707l1-1c0.195-0.195,0.512-0.195,0.707,0
				s0.195,0.512,0,0.707l-1,1C4.756,20.951,4.628,21,4.5,21z"/>
		</g>
		<g id="XMLID_234_">
			<path d="M0.5,17c-0.128,0-0.256-0.049-0.354-0.146c-0.195-0.195-0.195-0.512,0-0.707l1-1c0.195-0.195,0.512-0.195,0.707,0
				s0.195,0.512,0,0.707l-1,1C0.756,16.951,0.628,17,0.5,17z"/>
		</g>
		<g id="XMLID_235_">
			<path d="M3.5,20c-0.128,0-0.256-0.049-0.354-0.146c-0.195-0.195-0.195-0.512,0-0.707l1-1c0.195-0.195,0.512-0.195,0.707,0
				s0.195,0.512,0,0.707l-1,1C3.756,19.951,3.628,20,3.5,20z"/>
		</g>
		<g id="XMLID_236_">
			<path d="M1.5,18c-0.128,0-0.256-0.049-0.354-0.146c-0.195-0.195-0.195-0.512,0-0.707l1-1c0.195-0.195,0.512-0.195,0.707,0
				s0.195,0.512,0,0.707l-1,1C1.756,17.951,1.628,18,1.5,18z"/>
		</g>
		<g id="XMLID_237_">
			<path d="M2.5,19c-0.128,0-0.256-0.049-0.354-0.146c-0.195-0.195-0.195-0.512,0-0.707l1-1c0.195-0.195,0.512-0.195,0.707,0
				s0.195,0.512,0,0.707l-1,1C2.756,18.951,2.628,19,2.5,19z"/>
		</g>
		<g id="XMLID_238_">
			<path d="M20.5,11c-0.128,0-0.256-0.049-0.354-0.146l-7-7c-0.195-0.195-0.195-0.512,0-0.707s0.512-0.195,0.707,0l7,7
				c0.195,0.195,0.195,0.512,0,0.707C20.756,10.951,20.628,11,20.5,11z"/>
		</g>
		<g id="XMLID_239_">
			<path d="M19,12.5c-0.128,0-0.256-0.049-0.354-0.146l-7-7c-0.195-0.195-0.195-0.512,0-0.707s0.512-0.195,0.707,0l7,7
				c0.195,0.195,0.195,0.512,0,0.707C19.256,12.451,19.128,12.5,19,12.5z"/>
		</g>
		<g id="XMLID_240_">
			<path d="M12,19.5c-0.128,0-0.256-0.049-0.354-0.146l-7-7c-0.195-0.195-0.195-0.512,0-0.707s0.512-0.195,0.707,0l7,7
				c0.195,0.195,0.195,0.512,0,0.707C12.256,19.451,12.128,19.5,12,19.5z"/>
		</g>
		<g id="XMLID_241_">
			<path d="M10.5,21c-0.128,0-0.256-0.049-0.354-0.146l-7-7c-0.195-0.195-0.195-0.512,0-0.707s0.512-0.195,0.707,0l7,7
				c0.195,0.195,0.195,0.512,0,0.707C10.756,20.951,10.628,21,10.5,21z"/>
		</g>
	</g>
</g>
<g id="Strand_Ball">
</g>
<g id="Beach_Sign">
</g>
<g id="Toos">
</g>
<g id="Bucket">
</g>
<g id="Sand_Castle">
</g>
<g id="Shell_1">
</g>
<g id="Shell_2">
</g>
<g id="Surf_Board">
</g>
<g id="Float">
</g>
<g id="Vacation_Photo">
</g>
<g id="Summer_Time">
</g>
<g id="Boat">
</g>
<g id="Lifebuoy">
</g>
<g id="Lighthouse">
</g>
<g id="Sunset">
</g>
<g id="Dolphin">
</g>
<g id="Starfish">
</g>
<g id="Diving_Mask">
</g>
<g id="Sailboat">
</g>
<g id="Captin_Hat">
</g>
<g id="Eudder">
</g>
</svg>
