<?xml version="1.0" encoding="iso-8859-1"?>
<!-- Generator: Adobe Illustrator 19.2.1, SVG Export Plug-In . SVG Version: 6.00 Build 0)  -->
<svg version="1.1" xmlns="http://www.w3.org/2000/svg" xmlns:xlink="http://www.w3.org/1999/xlink" x="0px" y="0px"
	 viewBox="0 0 24 24" style="enable-background:new 0 0 24 24;" xml:space="preserve">
<g id="Sun_Light">
</g>
<g id="Sunglasses">
</g>
<g id="T-Shirt_1">
</g>
<g id="T-Shirt_2">
</g>
<g id="Mini_Dress">
</g>
<g id="Flip-Flops">
</g>
<g id="Temperature">
</g>
<g id="Hot_Temperature">
</g>
<g id="Ice_Lolly">
</g>
<g id="Icecream">
</g>
<g id="Limonade_1">
</g>
<g id="Limonade_2">
</g>
<g id="Hat">
</g>
<g id="Straw_Hat">
</g>
<g id="Deckchair">
</g>
<g id="Sunshade">
</g>
<g id="Suncream">
</g>
<g id="Suntan_Oil">
</g>
<g id="Swimming_Trunks">
</g>
<g id="Bikini">
</g>
<g id="Pool">
</g>
<g id="Pool_Ladder">
</g>
<g id="Grill">
</g>
<g id="Kite_1">
</g>
<g id="Kite_2">
</g>
<g id="Badminton">
</g>
<g id="Cooler">
</g>
<g id="Strand_Bag">
</g>
<g id="Towel">
</g>
<g id="Strand_Ball">
</g>
<g id="Beach_Sign">
</g>
<g id="Toos">
</g>
<g id="Bucket">
</g>
<g id="Sand_Castle">
</g>
<g id="Shell_1">
</g>
<g id="Shell_2">
</g>
<g id="Surf_Board">
</g>
<g id="Float">
</g>
<g id="Vacation_Photo">
	<g id="XMLID_311_">
		<g id="XMLID_376_">
			<path d="M21.5,24h-20C1.224,24,1,23.776,1,23.5v-23C1,0.224,1.224,0,1.5,0h20C21.776,0,22,0.224,22,0.5v23
				C22,23.776,21.776,24,21.5,24z M2,23h19V1H2V23z"/>
		</g>
		<g id="XMLID_375_">
			<path d="M19.5,18h-16C3.224,18,3,17.776,3,17.5v-15C3,2.224,3.224,2,3.5,2h16C19.776,2,20,2.224,20,2.5v15
				C20,17.776,19.776,18,19.5,18z M4,17h15V3H4V17z"/>
		</g>
		<g id="XMLID_310_">
			<path d="M11.224,15.982c-0.221,0-0.448-0.063-0.656-0.19c-0.393-0.238-0.617-0.646-0.587-1.062
				c0.104-1.41,1.301-3.944,2.44-5.829C14,6.289,16.096,4.28,17.062,4.043c0.218-0.055,0.417-0.033,0.579,0.066
				c0.189,0.114,0.693,0.419,0.071,2.628c-0.224,0.792-0.763,2.394-1.874,4.23l0,0c-1.342,2.218-3.007,4.215-4.048,4.857
				C11.62,15.93,11.425,15.982,11.224,15.982z M17.014,5.148c-0.726,0.451-2.353,1.98-3.737,4.271
				c-1.255,2.075-2.222,4.34-2.298,5.385c-0.003,0.032,0.038,0.092,0.107,0.134c0.078,0.048,0.154,0.05,0.179,0.036
				c0.906-0.559,2.47-2.461,3.718-4.523C16.366,8.161,16.957,6.004,17.014,5.148z M15.41,10.709h0.01H15.41z"/>
		</g>
		<g id="XMLID_312_">
			<path d="M5.5,12c-0.209,0-0.404-0.133-0.475-0.342c-0.087-0.262,0.055-0.545,0.316-0.633l1.5-0.5
				c0.95-0.318,1.968-0.354,2.94-0.109c0.268,0.067,0.431,0.339,0.362,0.606c-0.067,0.267-0.338,0.432-0.606,0.362
				c-0.787-0.198-1.61-0.167-2.38,0.09l-1.5,0.5C5.605,11.992,5.553,12,5.5,12z"/>
		</g>
		<g id="XMLID_314_">
			<path d="M5.5,9C5.291,9,5.096,8.867,5.025,8.658C4.938,8.396,5.08,8.113,5.342,8.025l1.5-0.5c1.07-0.355,2.246-0.355,3.316,0
				c0.31,0.104,0.635,0.171,0.964,0.201c0.275,0.025,0.479,0.269,0.453,0.543c-0.024,0.275-0.288,0.47-0.543,0.453
				c-0.407-0.037-0.808-0.121-1.19-0.248c-0.865-0.289-1.818-0.289-2.684,0l-1.5,0.5C5.605,8.992,5.553,9,5.5,9z"/>
		</g>
		<g id="XMLID_313_">
			<path d="M5.5,6C5.291,6,5.096,5.867,5.025,5.658C4.938,5.396,5.08,5.113,5.342,5.025l1.5-0.5c1.07-0.355,2.246-0.355,3.316,0
				c0.865,0.289,1.818,0.289,2.684,0c0.225-0.074,0.453-0.134,0.684-0.178c0.267-0.053,0.533,0.125,0.585,0.397
				c0.052,0.271-0.126,0.533-0.397,0.585c-0.188,0.036-0.373,0.084-0.556,0.145c-1.068,0.355-2.245,0.355-3.315,0
				c-0.865-0.289-1.818-0.289-2.684,0l-1.5,0.5C5.605,5.992,5.553,6,5.5,6z"/>
		</g>
	</g>
</g>
<g id="Summer_Time">
</g>
<g id="Boat">
</g>
<g id="Lifebuoy">
</g>
<g id="Lighthouse">
</g>
<g id="Sunset">
</g>
<g id="Dolphin">
</g>
<g id="Starfish">
</g>
<g id="Diving_Mask">
</g>
<g id="Sailboat">
</g>
<g id="Captin_Hat">
</g>
<g id="Eudder">
</g>
</svg>
