<?xml version="1.0" encoding="iso-8859-1"?>
<!-- Generator: Adobe Illustrator 19.2.1, SVG Export Plug-In . SVG Version: 6.00 Build 0)  -->
<svg version="1.1" xmlns="http://www.w3.org/2000/svg" xmlns:xlink="http://www.w3.org/1999/xlink" x="0px" y="0px"
	 viewBox="0 0 24 24" style="enable-background:new 0 0 24 24;" xml:space="preserve">
<g id="Present_1">
</g>
<g id="Present_2">
</g>
<g id="Present_3">
</g>
<g id="Present_Cake">
</g>
<g id="Present_4">
</g>
<g id="Birthday_Cake_1">
</g>
<g id="Birthday_Cake_2">
</g>
<g id="Cake_Piece">
</g>
<g id="Cupcake">
</g>
<g id="Lollipop">
</g>
<g id="Birthday_Greetings_1">
</g>
<g id="Party_Greetings_2">
</g>
<g id="Birthday_Invitation">
</g>
<g id="Birthday_1">
</g>
<g id="Birthday_2">
</g>
<g id="Birthday_Message_1">
</g>
<g id="Birthday_Message_2">
</g>
<g id="Birthyday_Hat_1">
</g>
<g id="Birthay_Hat_2">
</g>
<g id="Birthday_Hat3">
</g>
<g id="Birthday_Decoration_1">
</g>
<g id="Birthday_Decoration_2">
</g>
<g id="Birthday_Decoration_3">
</g>
<g id="Horn_1">
</g>
<g id="Horn_2">
</g>
<g id="Baloon">
</g>
<g id="Balloons_1">
</g>
<g id="Balloons_2">
	<g>
		<g>
			<path d="M9.5,14C6.546,14,4,8.299,4,5.5C4,2.467,6.468,0,9.5,0S15,2.467,15,5.5C15,8.299,12.454,14,9.5,14z M9.5,1
				C7.019,1,5,3.019,5,5.5C5,8.107,7.384,13,9.5,13S14,8.107,14,5.5C14,3.019,11.981,1,9.5,1z"/>
		</g>
		<g>
			<path d="M15.5,16c-1.623,0-3.025-2.118-3.796-4.1c-0.101-0.257,0.027-0.547,0.284-0.647c0.258-0.101,0.547,0.027,0.647,0.285
				C13.429,13.576,14.606,15,15.5,15c1.511,0,3.5-3.943,3.5-6.269C19,6.674,17.43,5,15.5,5c-0.285,0-0.584,0.049-0.94,0.156
				c-0.263,0.078-0.543-0.072-0.622-0.336c-0.078-0.265,0.072-0.543,0.337-0.622C14.726,4.063,15.115,4,15.5,4
				C17.981,4,20,6.122,20,8.731C20,11.188,17.963,16,15.5,16z"/>
		</g>
		<g>
			<path d="M10.5,16h-2c-0.173,0-0.334-0.09-0.426-0.237c-0.091-0.147-0.099-0.331-0.021-0.486l1-2c0.17-0.338,0.725-0.338,0.895,0
				l1,2c0.077,0.155,0.069,0.339-0.021,0.486C10.834,15.91,10.673,16,10.5,16z M9.309,15h0.383L9.5,14.618L9.309,15z"/>
		</g>
		<g>
			<path d="M16.5,18h-2c-0.173,0-0.334-0.09-0.426-0.237c-0.091-0.147-0.099-0.331-0.021-0.486l1-2c0.17-0.338,0.725-0.338,0.895,0
				l1,2c0.077,0.155,0.069,0.339-0.021,0.486C16.834,17.91,16.673,18,16.5,18z M15.309,17h0.383L15.5,16.618L15.309,17z"/>
		</g>
		<g>
			<path d="M9.5,24C9.224,24,9,23.776,9,23.5v-8C9,15.224,9.224,15,9.5,15s0.5,0.224,0.5,0.5v8C10,23.776,9.776,24,9.5,24z"/>
		</g>
		<g>
			<path d="M15.5,24c-0.276,0-0.5-0.224-0.5-0.5v-6c0-0.276,0.224-0.5,0.5-0.5s0.5,0.224,0.5,0.5v6C16,23.776,15.776,24,15.5,24z"/>
		</g>
		<g>
			<circle cx="5.5" cy="7.5" r="0.5"/>
		</g>
		<g>
			<circle cx="9.5" cy="7.5" r="0.5"/>
		</g>
		<g>
			<circle cx="9.5" cy="11.5" r="0.5"/>
		</g>
		<g>
			<circle cx="13.5" cy="7.5" r="0.5"/>
		</g>
		<g>
			<circle cx="5.5" cy="3.5" r="0.5"/>
		</g>
		<g>
			<circle cx="9.5" cy="3.5" r="0.5"/>
		</g>
		<g>
			<circle cx="13.5" cy="3.5" r="0.5"/>
		</g>
		<g>
			<circle cx="7.5" cy="9.5" r="0.5"/>
		</g>
		<g>
			<circle cx="11.5" cy="9.5" r="0.5"/>
		</g>
		<g>
			<circle cx="15.5" cy="11.5" r="0.5"/>
		</g>
		<g>
			<circle cx="15.5" cy="7.5" r="0.5"/>
		</g>
		<g>
			<circle cx="13.5" cy="13.5" r="0.5"/>
		</g>
		<g>
			<circle cx="17.5" cy="13.5" r="0.5"/>
		</g>
		<g>
			<circle cx="17.5" cy="9.5" r="0.5"/>
		</g>
		<g>
			<circle cx="17.5" cy="5.5" r="0.5"/>
		</g>
		<g>
			<circle cx="7.5" cy="5.5" r="0.5"/>
		</g>
		<g>
			<circle cx="11.5" cy="5.5" r="0.5"/>
		</g>
		<g>
			<circle cx="7.5" cy="1.5" r="0.5"/>
		</g>
		<g>
			<circle cx="11.5" cy="1.5" r="0.5"/>
		</g>
	</g>
</g>
<g id="Birthday_Picture">
</g>
<g id="Kid_x27_s_Champagne">
</g>
<g id="Candy">
</g>
<g id="Birthday_Card">
</g>
<g id="Flowers">
</g>
<g id="Birthday_Song">
</g>
<g id="Candle">
</g>
<g id="Sweet_16">
</g>
<g id="Clown">
</g>
<g id="Clown_2">
</g>
<g id="Birthday_Party">
</g>
<g id="Giving_Gift">
</g>
<g id="Present_5">
</g>
<g id="Champagne_in_ice_bucket">
</g>
<g id="Beer">
</g>
<g id="Truffles">
</g>
<g id="Pinata">
</g>
</svg>
