<?xml version="1.0" encoding="iso-8859-1"?>
<!-- Generator: Adobe Illustrator 19.2.1, SVG Export Plug-In . SVG Version: 6.00 Build 0)  -->
<svg version="1.1" xmlns="http://www.w3.org/2000/svg" xmlns:xlink="http://www.w3.org/1999/xlink" x="0px" y="0px"
	 viewBox="0 0 24 24" style="enable-background:new 0 0 24 24;" xml:space="preserve">
<g id="Present_1">
</g>
<g id="Present_2">
</g>
<g id="Present_3">
</g>
<g id="Present_Cake">
</g>
<g id="Present_4">
</g>
<g id="Birthday_Cake_1">
</g>
<g id="Birthday_Cake_2">
</g>
<g id="Cake_Piece">
</g>
<g id="Cupcake">
</g>
<g id="Lollipop">
</g>
<g id="Birthday_Greetings_1">
</g>
<g id="Party_Greetings_2">
</g>
<g id="Birthday_Invitation">
</g>
<g id="Birthday_1">
</g>
<g id="Birthday_2">
</g>
<g id="Birthday_Message_1">
</g>
<g id="Birthday_Message_2">
</g>
<g id="Birthyday_Hat_1">
</g>
<g id="Birthay_Hat_2">
</g>
<g id="Birthday_Hat3">
</g>
<g id="Birthday_Decoration_1">
</g>
<g id="Birthday_Decoration_2">
</g>
<g id="Birthday_Decoration_3">
</g>
<g id="Horn_1">
</g>
<g id="Horn_2">
</g>
<g id="Baloon">
</g>
<g id="Balloons_1">
	<g>
		<g>
			<path d="M8.997,15h-1c-0.173,0-0.334-0.09-0.426-0.237c-0.091-0.147-0.099-0.331-0.021-0.486l0.5-1
				c0.17-0.338,0.725-0.338,0.895,0l0.5,1c0.077,0.155,0.069,0.339-0.021,0.486C9.331,14.91,9.17,15,8.997,15z"/>
		</g>
		<g>
			<path d="M8.497,24c-0.276,0-0.5-0.224-0.5-0.5v-9c0-0.276,0.224-0.5,0.5-0.5s0.5,0.224,0.5,0.5v9C8.997,23.776,8.773,24,8.497,24
				z"/>
		</g>
		<g>
			<path d="M12.924,15.004c-0.551,0-1.043-0.09-1.386-0.313c-0.865-0.564-1.329-2.378-1.464-3.76
				c-0.197-2.025,0.174-3.929,1.019-5.222c0.924-1.415,2.151-2.317,3.551-2.607c1.305-0.272,2.699,0.019,3.925,0.82
				c1.225,0.799,2.053,1.958,2.33,3.263c0.297,1.398-0.034,2.885-0.958,4.3l0,0c-0.847,1.296-2.437,2.404-4.362,3.04
				C14.777,14.787,13.779,15.004,12.924,15.004z M15.609,4.003c-0.257,0-0.512,0.025-0.763,0.078
				c-1.133,0.235-2.142,0.987-2.916,2.175c-0.723,1.106-1.037,2.775-0.861,4.579c0.167,1.716,0.705,2.816,1.016,3.019
				c0.315,0.207,1.546,0.26,3.18-0.279c1.715-0.565,3.113-1.527,3.838-2.636l0,0c0.775-1.188,1.058-2.413,0.817-3.545
				c-0.222-1.044-0.896-1.979-1.898-2.634C17.26,4.261,16.426,4.003,15.609,4.003z M19.521,11.21h0.01H19.521z"/>
		</g>
		<g>
			<path d="M13.186,7.576c-0.095,0-0.189-0.026-0.273-0.082c-0.231-0.151-0.296-0.46-0.146-0.692
				c1.188-1.815,3.046-2.29,4.709-1.207c0.231,0.151,0.296,0.461,0.146,0.692c-0.151,0.232-0.459,0.297-0.692,0.145
				c-0.436-0.284-0.871-0.429-1.293-0.429c-0.953,0-1.631,0.731-2.031,1.345C13.508,7.496,13.349,7.576,13.186,7.576z"/>
		</g>
		<g>
			<path d="M12.924,15.004c-0.551,0-1.043-0.09-1.386-0.313c-0.865-0.564-1.329-2.378-1.464-3.76
				c-0.197-2.025,0.174-3.929,1.019-5.222c0.924-1.415,2.151-2.317,3.551-2.607c1.305-0.272,2.699,0.019,3.925,0.82
				c1.225,0.799,2.053,1.958,2.33,3.263c0.297,1.398-0.034,2.885-0.958,4.3c-0.847,1.296-2.437,2.404-4.362,3.04
				C14.777,14.787,13.779,15.004,12.924,15.004z M15.609,4.003c-0.257,0-0.512,0.025-0.763,0.078
				c-1.133,0.235-2.142,0.987-2.916,2.175c-0.723,1.106-1.037,2.775-0.861,4.579c0.167,1.716,0.705,2.816,1.016,3.019
				c0.315,0.207,1.546,0.26,3.18-0.279c1.715-0.565,3.113-1.527,3.838-2.636c0.775-1.188,1.058-2.413,0.817-3.545
				c-0.222-1.044-0.896-1.979-1.898-2.634C17.26,4.261,16.426,4.003,15.609,4.003z"/>
		</g>
		<g>
			<path d="M5.496,6.571c-0.276,0-0.5-0.224-0.5-0.5C4.996,3.56,6.337,2,8.496,2c0.276,0,0.5,0.224,0.5,0.5S8.772,3,8.496,3
				c-1.589,0-2.5,1.12-2.5,3.071C5.996,6.348,5.772,6.571,5.496,6.571z"/>
		</g>
		<g>
			<path d="M8.497,14c-1.684,0-5.5-4.063-5.5-7.929C2.997,2.44,5.207,0,8.497,0c2.56,0,4.564,1.573,5.232,4.104
				c0.07,0.267-0.089,0.541-0.355,0.611c-0.269,0.071-0.54-0.089-0.611-0.356C12.207,2.256,10.612,1,8.497,1
				c-2.733,0-4.5,1.991-4.5,5.071c0,3.49,3.521,6.929,4.5,6.929c0.313,0,1.038-0.408,1.895-1.304
				c0.189-0.199,0.506-0.207,0.707-0.016c0.199,0.19,0.207,0.507,0.016,0.707C10.651,12.872,9.469,14,8.497,14z"/>
		</g>
		<g>
			<path d="M11.497,16c-0.076,0-0.153-0.018-0.224-0.053l-1-0.5c-0.16-0.08-0.266-0.24-0.275-0.42s0.077-0.351,0.228-0.447
				l1.217-0.785c0.166-0.108,0.379-0.108,0.547,0.002c0.165,0.109,0.251,0.306,0.218,0.501l-0.217,1.285
				c-0.026,0.156-0.125,0.291-0.267,0.362C11.652,15.981,11.575,16,11.497,16z"/>
		</g>
		<g>
			<path d="M8.497,24c-0.047,0-0.094-0.007-0.141-0.021c-0.266-0.078-0.417-0.355-0.339-0.62l2.5-8.5
				c0.078-0.266,0.357-0.414,0.62-0.339c0.266,0.078,0.417,0.355,0.339,0.62l-2.5,8.5C8.913,23.859,8.713,24,8.497,24z"/>
		</g>
	</g>
</g>
<g id="Balloons_2">
</g>
<g id="Birthday_Picture">
</g>
<g id="Kid_x27_s_Champagne">
</g>
<g id="Candy">
</g>
<g id="Birthday_Card">
</g>
<g id="Flowers">
</g>
<g id="Birthday_Song">
</g>
<g id="Candle">
</g>
<g id="Sweet_16">
</g>
<g id="Clown">
</g>
<g id="Clown_2">
</g>
<g id="Birthday_Party">
</g>
<g id="Giving_Gift">
</g>
<g id="Present_5">
</g>
<g id="Champagne_in_ice_bucket">
</g>
<g id="Beer">
</g>
<g id="Truffles">
</g>
<g id="Pinata">
</g>
</svg>
