<?xml version="1.0" encoding="iso-8859-1"?>
<!-- Generator: Adobe Illustrator 19.2.1, SVG Export Plug-In . SVG Version: 6.00 Build 0)  -->
<svg version="1.1" xmlns="http://www.w3.org/2000/svg" xmlns:xlink="http://www.w3.org/1999/xlink" x="0px" y="0px"
	 viewBox="0 0 24 24" style="enable-background:new 0 0 24 24;" xml:space="preserve">
<g id="Present_1">
</g>
<g id="Present_2">
</g>
<g id="Present_3">
</g>
<g id="Present_Cake">
</g>
<g id="Present_4">
</g>
<g id="Birthday_Cake_1">
</g>
<g id="Birthday_Cake_2">
</g>
<g id="Cake_Piece">
</g>
<g id="Cupcake">
</g>
<g id="Lollipop">
</g>
<g id="Birthday_Greetings_1">
</g>
<g id="Party_Greetings_2">
</g>
<g id="Birthday_Invitation">
</g>
<g id="Birthday_1">
</g>
<g id="Birthday_2">
</g>
<g id="Birthday_Message_1">
</g>
<g id="Birthday_Message_2">
</g>
<g id="Birthyday_Hat_1">
</g>
<g id="Birthay_Hat_2">
</g>
<g id="Birthday_Hat3">
</g>
<g id="Birthday_Decoration_1">
</g>
<g id="Birthday_Decoration_2">
</g>
<g id="Birthday_Decoration_3">
</g>
<g id="Horn_1">
</g>
<g id="Horn_2">
</g>
<g id="Baloon">
	<g>
		<g>
			<path d="M11.5,20C9.033,20,3,13.861,3,8.5C3,3.416,6.416,0,11.5,0S20,3.416,20,8.5C20,13.861,13.967,20,11.5,20z M11.5,1
				C6.944,1,4,3.944,4,8.5C4,13.662,9.915,19,11.5,19S19,13.662,19,8.5C19,3.944,16.056,1,11.5,1z"/>
		</g>
		<g>
			<path d="M6.5,12C6.224,12,6,11.776,6,11.5v-4C6,7.224,6.224,7,6.5,7S7,7.224,7,7.5v4C7,11.776,6.776,12,6.5,12z"/>
		</g>
		<g>
			<path d="M8.5,11h-2C6.224,11,6,10.776,6,10.5S6.224,10,6.5,10h2C8.776,10,9,10.224,9,10.5S8.776,11,8.5,11z"/>
		</g>
		<g>
			<path d="M8.5,12C8.224,12,8,11.776,8,11.5v-4C8,7.224,8.224,7,8.5,7S9,7.224,9,7.5v4C9,11.776,8.776,12,8.5,12z"/>
		</g>
		<g>
			<path d="M11.5,12h-1c-0.276,0-0.5-0.224-0.5-0.5v-4C10,7.224,10.224,7,10.5,7h1C12.327,7,13,7.673,13,8.5
				c0,0.384-0.145,0.734-0.383,1C12.855,9.766,13,10.116,13,10.5C13,11.327,12.327,12,11.5,12z M11,11h0.5
				c0.275,0,0.5-0.224,0.5-0.5S11.775,10,11.5,10C11.224,10,11,9.776,11,9.5V11z M11,9.5h0.01H11z M11,8v1.5
				C11,9.224,11.224,9,11.5,9C11.775,9,12,8.776,12,8.5S11.775,8,11.5,8H11z"/>
		</g>
		<g>
			<path d="M11.5,10h-1C10.224,10,10,9.776,10,9.5S10.224,9,10.5,9h1C11.776,9,12,9.224,12,9.5S11.776,10,11.5,10z"/>
		</g>
		<g>
			<path d="M14.5,12c-0.276,0-0.5-0.224-0.5-0.5v-4C14,7.224,14.224,7,14.5,7C15.879,7,17,8.122,17,9.5S15.879,12,14.5,12z
				 M15,8.085v2.829c0.582-0.207,1-0.763,1-1.415S15.582,8.292,15,8.085z"/>
		</g>
		<g>
			<path d="M13.5,22h-4c-0.202,0-0.385-0.122-0.462-0.309s-0.034-0.402,0.108-0.545l2-2c0.195-0.195,0.512-0.195,0.707,0l2,2
				c0.143,0.143,0.186,0.358,0.108,0.545S13.702,22,13.5,22z M10.707,21h1.586L11.5,20.207L10.707,21z"/>
		</g>
		<g>
			<path d="M11.5,24c-0.276,0-0.5-0.224-0.5-0.5v-2c0-0.276,0.224-0.5,0.5-0.5s0.5,0.224,0.5,0.5v2C12,23.776,11.776,24,11.5,24z"/>
		</g>
	</g>
</g>
<g id="Balloons_1">
</g>
<g id="Balloons_2">
</g>
<g id="Birthday_Picture">
</g>
<g id="Kid_x27_s_Champagne">
</g>
<g id="Candy">
</g>
<g id="Birthday_Card">
</g>
<g id="Flowers">
</g>
<g id="Birthday_Song">
</g>
<g id="Candle">
</g>
<g id="Sweet_16">
</g>
<g id="Clown">
</g>
<g id="Clown_2">
</g>
<g id="Birthday_Party">
</g>
<g id="Giving_Gift">
</g>
<g id="Present_5">
</g>
<g id="Champagne_in_ice_bucket">
</g>
<g id="Beer">
</g>
<g id="Truffles">
</g>
<g id="Pinata">
</g>
</svg>
