<?xml version="1.0" encoding="iso-8859-1"?>
<!-- Generator: Adobe Illustrator 19.2.1, SVG Export Plug-In . SVG Version: 6.00 Build 0)  -->
<svg version="1.1" xmlns="http://www.w3.org/2000/svg" xmlns:xlink="http://www.w3.org/1999/xlink" x="0px" y="0px"
	 viewBox="0 0 24 24" style="enable-background:new 0 0 24 24;" xml:space="preserve">
<g id="Present_1">
</g>
<g id="Present_2">
</g>
<g id="Present_3">
</g>
<g id="Present_Cake">
</g>
<g id="Present_4">
</g>
<g id="Birthday_Cake_1">
</g>
<g id="Birthday_Cake_2">
</g>
<g id="Cake_Piece">
</g>
<g id="Cupcake">
</g>
<g id="Lollipop">
</g>
<g id="Birthday_Greetings_1">
</g>
<g id="Party_Greetings_2">
</g>
<g id="Birthday_Invitation">
</g>
<g id="Birthday_1">
</g>
<g id="Birthday_2">
</g>
<g id="Birthday_Message_1">
</g>
<g id="Birthday_Message_2">
</g>
<g id="Birthyday_Hat_1">
</g>
<g id="Birthay_Hat_2">
</g>
<g id="Birthday_Hat3">
</g>
<g id="Birthday_Decoration_1">
</g>
<g id="Birthday_Decoration_2">
</g>
<g id="Birthday_Decoration_3">
</g>
<g id="Horn_1">
</g>
<g id="Horn_2">
</g>
<g id="Baloon">
</g>
<g id="Balloons_1">
</g>
<g id="Balloons_2">
</g>
<g id="Birthday_Picture">
</g>
<g id="Kid_x27_s_Champagne">
</g>
<g id="Candy">
</g>
<g id="Birthday_Card">
</g>
<g id="Flowers">
</g>
<g id="Birthday_Song">
</g>
<g id="Candle">
</g>
<g id="Sweet_16">
</g>
<g id="Clown">
</g>
<g id="Clown_2">
</g>
<g id="Birthday_Party">
</g>
<g id="Giving_Gift">
</g>
<g id="Present_5">
</g>
<g id="Champagne_in_ice_bucket">
</g>
<g id="Beer">
	<g>
		<g>
			<path d="M19.5,22h-15C4.224,22,4,21.776,4,21.5v-8C4,13.224,4.224,13,4.5,13h15c0.276,0,0.5,0.224,0.5,0.5v8
				C20,21.776,19.776,22,19.5,22z M5,21h14v-7H5V21z"/>
		</g>
		<g>
			<path d="M4.5,22h-3C1.224,22,1,21.776,1,21.5v-10C1,11.224,1.224,11,1.5,11h3C4.776,11,5,11.224,5,11.5v10
				C5,21.776,4.776,22,4.5,22z M2,21h2v-9H2V21z"/>
		</g>
		<g>
			<path d="M22.5,22h-3c-0.276,0-0.5-0.224-0.5-0.5v-10c0-0.276,0.224-0.5,0.5-0.5h3c0.276,0,0.5,0.224,0.5,0.5v10
				C23,21.776,22.776,22,22.5,22z M20,21h2v-9h-2V21z"/>
		</g>
		<g>
			<path d="M19.5,18h-15C4.224,18,4,17.776,4,17.5S4.224,17,4.5,17h15c0.276,0,0.5,0.224,0.5,0.5S19.776,18,19.5,18z"/>
		</g>
		<g>
			<path d="M9.5,14C9.224,14,9,13.776,9,13.5v-2.764c0-0.077-0.018-0.154-0.053-0.224L8.158,8.935C8.055,8.728,8,8.495,8,8.264V4H6
				v4.264c0,0.231-0.055,0.464-0.158,0.671l-0.789,1.578C5.018,10.582,5,10.659,5,10.736V13.5C5,13.776,4.776,14,4.5,14
				S4,13.776,4,13.5v-2.764c0-0.231,0.055-0.464,0.158-0.671l0.789-1.578C4.982,8.418,5,8.341,5,8.264V4c0-0.552,0.449-1,1-1h2
				c0.551,0,1,0.448,1,1v4.264c0,0.077,0.018,0.154,0.053,0.224l0.789,1.578C9.945,10.272,10,10.505,10,10.736V13.5
				C10,13.776,9.776,14,9.5,14z"/>
		</g>
		<g>
			<path d="M14.5,14c-0.276,0-0.5-0.224-0.5-0.5v-2.764c0-0.077-0.018-0.154-0.053-0.224l-0.789-1.578
				C13.055,8.728,13,8.495,13,8.264V4h-2v4.264c0,0.231-0.055,0.464-0.158,0.671l-0.789,1.578C10.018,10.582,10,10.659,10,10.736
				V13.5c0,0.276-0.224,0.5-0.5,0.5S9,13.776,9,13.5v-2.764c0-0.231,0.055-0.464,0.158-0.671l0.789-1.578
				C9.982,8.418,10,8.341,10,8.264V4c0-0.552,0.449-1,1-1h2c0.551,0,1,0.448,1,1v4.264c0,0.077,0.018,0.154,0.053,0.224l0.789,1.578
				C14.945,10.272,15,10.505,15,10.736V13.5C15,13.776,14.776,14,14.5,14z"/>
		</g>
		<g>
			<path d="M19.5,14c-0.276,0-0.5-0.224-0.5-0.5v-2.764c0-0.077-0.018-0.154-0.053-0.224l-0.789-1.578
				C18.055,8.728,18,8.495,18,8.264V4h-2v4.264c0,0.231-0.055,0.464-0.158,0.671l-0.789,1.578C15.018,10.582,15,10.659,15,10.736
				V13.5c0,0.276-0.224,0.5-0.5,0.5S14,13.776,14,13.5v-2.764c0-0.231,0.055-0.464,0.158-0.671l0.789-1.578
				C14.982,8.418,15,8.341,15,8.264V4c0-0.552,0.449-1,1-1h2c0.551,0,1,0.448,1,1v4.264c0,0.077,0.018,0.154,0.053,0.224
				l0.789,1.578C19.945,10.272,20,10.505,20,10.736V13.5C20,13.776,19.776,14,19.5,14z"/>
		</g>
		<g>
			<path d="M8.5,3h-3C5.224,3,5,2.776,5,2.5S5.224,2,5.5,2h3C8.776,2,9,2.224,9,2.5S8.776,3,8.5,3z"/>
		</g>
		<g>
			<path d="M13.5,3h-3C10.224,3,10,2.776,10,2.5S10.224,2,10.5,2h3C13.776,2,14,2.224,14,2.5S13.776,3,13.5,3z"/>
		</g>
		<g>
			<path d="M18.5,3h-3C15.224,3,15,2.776,15,2.5S15.224,2,15.5,2h3C18.776,2,19,2.224,19,2.5S18.776,3,18.5,3z"/>
		</g>
	</g>
</g>
<g id="Truffles">
</g>
<g id="Pinata">
</g>
</svg>
