<?xml version="1.0" encoding="iso-8859-1"?>
<!-- Generator: Adobe Illustrator 19.2.1, SVG Export Plug-In . SVG Version: 6.00 Build 0)  -->
<svg version="1.1" xmlns="http://www.w3.org/2000/svg" xmlns:xlink="http://www.w3.org/1999/xlink" x="0px" y="0px"
	 viewBox="0 0 24 24" style="enable-background:new 0 0 24 24;" xml:space="preserve">
<g id="Present_1">
</g>
<g id="Present_2">
</g>
<g id="Present_3">
</g>
<g id="Present_Cake">
</g>
<g id="Present_4">
</g>
<g id="Birthday_Cake_1">
</g>
<g id="Birthday_Cake_2">
</g>
<g id="Cake_Piece">
</g>
<g id="Cupcake">
</g>
<g id="Lollipop">
</g>
<g id="Birthday_Greetings_1">
</g>
<g id="Party_Greetings_2">
</g>
<g id="Birthday_Invitation">
</g>
<g id="Birthday_1">
</g>
<g id="Birthday_2">
	<g>
		<g>
			<path d="M5.5,6C4.673,6,4,5.327,4,4.5v-2C4,1.673,4.673,1,5.5,1S7,1.673,7,2.5v2C7,5.327,6.327,6,5.5,6z M5.5,2
				C5.224,2,5,2.224,5,2.5v2C5,4.776,5.224,5,5.5,5S6,4.776,6,4.5v-2C6,2.224,5.776,2,5.5,2z"/>
		</g>
		<g>
			<path d="M17.5,6C16.673,6,16,5.327,16,4.5v-2C16,1.673,16.673,1,17.5,1S19,1.673,19,2.5v2C19,5.327,18.327,6,17.5,6z M17.5,2
				C17.224,2,17,2.224,17,2.5v2C17,4.776,17.224,5,17.5,5S18,4.776,18,4.5v-2C18,2.224,17.776,2,17.5,2z"/>
		</g>
		<g>
			<path d="M22.5,9h-22C0.224,9,0,8.776,0,8.5v-2C0,4.57,1.57,3,3.5,3h1C4.776,3,5,3.224,5,3.5v1C5,4.776,5.224,5,5.5,5
				S6,4.776,6,4.5v-1C6,3.224,6.224,3,6.5,3h10C16.776,3,17,3.224,17,3.5v1C17,4.776,17.224,5,17.5,5S18,4.776,18,4.5v-1
				C18,3.224,18.224,3,18.5,3h1C21.43,3,23,4.57,23,6.5v2C23,8.776,22.776,9,22.5,9z M1,8h21V6.5C22,5.122,20.878,4,19.5,4H19v0.5
				C19,5.327,18.327,6,17.5,6S16,5.327,16,4.5V4H7v0.5C7,5.327,6.327,6,5.5,6S4,5.327,4,4.5V4H3.5C2.122,4,1,5.122,1,6.5V8z"/>
		</g>
		<g>
			<path d="M19.5,24h-16C1.57,24,0,22.43,0,20.5v-12C0,8.224,0.224,8,0.5,8h22C22.776,8,23,8.224,23,8.5v12
				C23,22.43,21.43,24,19.5,24z M1,9v11.5C1,21.878,2.122,23,3.5,23h16c1.378,0,2.5-1.122,2.5-2.5V9H1z"/>
		</g>
		<g>
			<path d="M15.5,22h-8C6.673,22,6,21.327,6,20.5v-2C6,18.224,6.224,18,6.5,18S7,18.224,7,18.5v2C7,20.776,7.224,21,7.5,21h8
				c0.276,0,0.5-0.224,0.5-0.5v-2c0-0.276,0.224-0.5,0.5-0.5s0.5,0.224,0.5,0.5v2C17,21.327,16.327,22,15.5,22z"/>
		</g>
		<g>
			<path d="M11.5,19c-0.816,0-1.543-0.394-2-1c-0.11,0.147-0.238,0.284-0.381,0.405c-0.56,0.477-1.3,0.681-2.035,0.562
				C5.896,18.772,5,17.667,5,16.393C5,15.072,6.072,14,7.39,14h8.22c1.318,0,2.39,1.072,2.39,2.39v0.003
				c0,1.273-0.896,2.379-2.083,2.573c-0.733,0.119-1.476-0.085-2.036-0.562C13.738,18.283,13.61,18.147,13.5,18
				C13.043,18.606,12.316,19,11.5,19z M7.39,15C6.624,15,6,15.624,6,16.39c0,0.792,0.535,1.474,1.245,1.589
				c0.452,0.075,0.886-0.045,1.227-0.336C8.807,17.357,9,16.94,9,16.5C9,16.224,9.224,16,9.5,16s0.5,0.224,0.5,0.5
				c0,0.827,0.673,1.5,1.5,1.5s1.5-0.673,1.5-1.5c0-0.276,0.224-0.5,0.5-0.5s0.5,0.224,0.5,0.5c0,0.44,0.193,0.857,0.529,1.143
				c0.341,0.29,0.774,0.408,1.227,0.336C16.465,17.864,17,17.182,17,16.393V16.39c0-0.767-0.624-1.39-1.39-1.39H7.39z"/>
		</g>
		<g>
			<path d="M11.5,15c-0.276,0-0.5-0.224-0.5-0.5V12c0-0.276,0.224-0.5,0.5-0.5S12,11.724,12,12v2.5C12,14.776,11.776,15,11.5,15z"/>
		</g>
		<g>
			<path d="M11.5,12.5c-0.551,0-1-0.449-1-1c0-0.357,0.32-0.896,0.589-1.284c0.187-0.271,0.636-0.271,0.822,0
				C12.18,10.604,12.5,11.143,12.5,11.5C12.5,12.051,12.051,12.5,11.5,12.5z"/>
		</g>
	</g>
</g>
<g id="Birthday_Message_1">
</g>
<g id="Birthday_Message_2">
</g>
<g id="Birthyday_Hat_1">
</g>
<g id="Birthay_Hat_2">
</g>
<g id="Birthday_Hat3">
</g>
<g id="Birthday_Decoration_1">
</g>
<g id="Birthday_Decoration_2">
</g>
<g id="Birthday_Decoration_3">
</g>
<g id="Horn_1">
</g>
<g id="Horn_2">
</g>
<g id="Baloon">
</g>
<g id="Balloons_1">
</g>
<g id="Balloons_2">
</g>
<g id="Birthday_Picture">
</g>
<g id="Kid_x27_s_Champagne">
</g>
<g id="Candy">
</g>
<g id="Birthday_Card">
</g>
<g id="Flowers">
</g>
<g id="Birthday_Song">
</g>
<g id="Candle">
</g>
<g id="Sweet_16">
</g>
<g id="Clown">
</g>
<g id="Clown_2">
</g>
<g id="Birthday_Party">
</g>
<g id="Giving_Gift">
</g>
<g id="Present_5">
</g>
<g id="Champagne_in_ice_bucket">
</g>
<g id="Beer">
</g>
<g id="Truffles">
</g>
<g id="Pinata">
</g>
</svg>
