<?xml version="1.0" encoding="iso-8859-1"?>
<!-- Generator: Adobe Illustrator 19.2.1, SVG Export Plug-In . SVG Version: 6.00 Build 0)  -->
<svg version="1.1" xmlns="http://www.w3.org/2000/svg" xmlns:xlink="http://www.w3.org/1999/xlink" x="0px" y="0px"
	 viewBox="0 0 24 24" style="enable-background:new 0 0 24 24;" xml:space="preserve">
<g id="Present_1">
</g>
<g id="Present_2">
</g>
<g id="Present_3">
</g>
<g id="Present_Cake">
</g>
<g id="Present_4">
</g>
<g id="Birthday_Cake_1">
</g>
<g id="Birthday_Cake_2">
</g>
<g id="Cake_Piece">
</g>
<g id="Cupcake">
</g>
<g id="Lollipop">
</g>
<g id="Birthday_Greetings_1">
</g>
<g id="Party_Greetings_2">
</g>
<g id="Birthday_Invitation">
</g>
<g id="Birthday_1">
</g>
<g id="Birthday_2">
</g>
<g id="Birthday_Message_1">
</g>
<g id="Birthday_Message_2">
</g>
<g id="Birthyday_Hat_1">
</g>
<g id="Birthay_Hat_2">
</g>
<g id="Birthday_Hat3">
	<g>
		<g>
			<path d="M11.5,24C7.225,24,4,22.495,4,20.5c0-0.065,0.013-0.13,0.038-0.19l6.658-16.152c0.105-0.255,0.397-0.375,0.652-0.272
				c0.055,0.022,0.103,0.053,0.144,0.09c0.045-0.044,0.099-0.08,0.16-0.105c0.257-0.102,0.548,0.017,0.652,0.272l6.657,16.167
				C18.987,20.37,19,20.435,19,20.5C19,22.495,15.775,24,11.5,24z M5.005,20.587C5.132,21.747,7.764,23,11.5,23
				s6.368-1.254,6.495-2.413L11.504,4.822L5.005,20.587z"/>
		</g>
		<g>
			<path d="M14.5,18c-0.827,0-1.5-0.673-1.5-1.5s0.673-1.5,1.5-1.5s1.5,0.673,1.5,1.5S15.327,18,14.5,18z M14.5,16
				c-0.275,0-0.5,0.224-0.5,0.5s0.225,0.5,0.5,0.5s0.5-0.224,0.5-0.5S14.775,16,14.5,16z"/>
		</g>
		<g>
			<path d="M8.5,18C7.673,18,7,17.327,7,16.5S7.673,15,8.5,15s1.5,0.673,1.5,1.5S9.327,18,8.5,18z M8.5,16C8.225,16,8,16.224,8,16.5
				S8.225,17,8.5,17S9,16.776,9,16.5S8.775,16,8.5,16z"/>
		</g>
		<g>
			<path d="M14.5,12c-0.827,0-1.5-0.673-1.5-1.5c0-0.549,0.299-1.053,0.78-1.316c0.24-0.132,0.546-0.045,0.679,0.198
				c0.133,0.243,0.044,0.546-0.198,0.679C14.1,10.148,14,10.317,14,10.5c0,0.324,0.331,0.572,0.641,0.48
				c0.268-0.076,0.543,0.079,0.618,0.344c0.076,0.265-0.077,0.542-0.343,0.618C14.78,11.98,14.641,12,14.5,12z"/>
		</g>
		<g>
			<path d="M8.5,12c-0.14,0-0.278-0.02-0.411-0.058c-0.266-0.076-0.419-0.353-0.343-0.618c0.075-0.265,0.348-0.42,0.618-0.343
				C8.657,11.065,9,10.823,9,10.5c0-0.184-0.101-0.352-0.263-0.44c-0.242-0.132-0.332-0.436-0.2-0.678
				c0.132-0.244,0.436-0.331,0.679-0.201C9.699,9.444,10,9.95,10,10.5C10,11.327,9.327,12,8.5,12z"/>
		</g>
		<g>
			<path d="M11.5,21c-0.827,0-1.5-0.673-1.5-1.5s0.673-1.5,1.5-1.5s1.5,0.673,1.5,1.5S12.327,21,11.5,21z M11.5,19
				c-0.275,0-0.5,0.224-0.5,0.5s0.225,0.5,0.5,0.5s0.5-0.224,0.5-0.5S11.775,19,11.5,19z"/>
		</g>
		<g>
			<path d="M17.5,21c-0.827,0-1.5-0.673-1.5-1.5c0-0.92,0.891-1.63,1.772-1.476c0.271,0.049,0.452,0.309,0.403,0.581
				c-0.05,0.272-0.313,0.448-0.581,0.403C17.234,18.97,17,19.225,17,19.5c0,0.276,0.225,0.5,0.5,0.5
				c0.166,0,0.321-0.083,0.415-0.221c0.155-0.229,0.467-0.288,0.694-0.135c0.229,0.155,0.289,0.465,0.134,0.694
				C18.464,20.753,17.999,21,17.5,21z"/>
		</g>
		<g>
			<path d="M5.5,21c-0.492,0-0.953-0.242-1.233-0.646c-0.157-0.227-0.101-0.539,0.126-0.696c0.227-0.156,0.537-0.101,0.696,0.126
				C5.183,19.919,5.336,20,5.5,20C5.775,20,6,19.776,6,19.5S5.775,19,5.5,19c-0.268,0.047-0.578-0.127-0.628-0.399
				c-0.049-0.272,0.085-0.527,0.356-0.577C6.109,17.872,7,18.581,7,19.5C7,20.327,6.327,21,5.5,21z"/>
		</g>
		<g>
			<path d="M11.5,15c-0.827,0-1.5-0.673-1.5-1.5s0.673-1.5,1.5-1.5s1.5,0.673,1.5,1.5S12.327,15,11.5,15z M11.5,13
				c-0.275,0-0.5,0.224-0.5,0.5s0.225,0.5,0.5,0.5s0.5-0.224,0.5-0.5S11.775,13,11.5,13z"/>
		</g>
		<g>
			<path d="M11.5,9C10.673,9,10,8.327,10,7.5S10.673,6,11.5,6S13,6.673,13,7.5S12.327,9,11.5,9z M11.5,7C11.225,7,11,7.224,11,7.5
				S11.225,8,11.5,8S12,7.776,12,7.5S11.775,7,11.5,7z"/>
		</g>
		<g>
			<path d="M9.079,23.815c-0.156,0-0.31-0.073-0.407-0.21c-0.16-0.225-0.107-0.537,0.117-0.697C8.921,22.814,9,22.662,9,22.5
				C9,22.224,8.775,22,8.5,22S8,22.224,8,22.5c0,0.089,0.022,0.174,0.068,0.252c0.139,0.239,0.058,0.544-0.182,0.683
				c-0.238,0.138-0.545,0.059-0.684-0.181C7.07,23.025,7,22.764,7,22.5C7,21.673,7.673,21,8.5,21s1.5,0.673,1.5,1.5
				c0,0.485-0.236,0.942-0.631,1.223C9.281,23.786,9.18,23.815,9.079,23.815z"/>
		</g>
		<g>
			<path d="M13.921,23.815c-0.101,0-0.202-0.03-0.29-0.092C13.236,23.442,13,22.985,13,22.5c0-0.827,0.673-1.5,1.5-1.5
				s1.5,0.673,1.5,1.5c0,0.265-0.07,0.525-0.203,0.753c-0.14,0.239-0.446,0.318-0.684,0.18c-0.238-0.139-0.319-0.445-0.18-0.684
				C14.977,22.675,15,22.588,15,22.5c0-0.276-0.225-0.5-0.5-0.5S14,22.224,14,22.5c0,0.162,0.079,0.314,0.211,0.408
				c0.225,0.16,0.277,0.472,0.117,0.697C14.23,23.742,14.077,23.815,13.921,23.815z"/>
		</g>
		<g>
			<path d="M11.49,4.98c-0.323,0-0.556-0.173-0.725-0.3c-0.046-0.034-0.114-0.085-0.142-0.097c-0.034-0.015-0.117-0.027-0.185-0.037
				c-0.206-0.031-0.488-0.075-0.71-0.296C9.508,4.029,9.465,3.746,9.434,3.539C9.424,3.473,9.411,3.39,9.397,3.356
				C9.387,3.33,9.335,3.261,9.301,3.216C9.174,3.046,9,2.813,9,2.49s0.174-0.556,0.301-0.726C9.335,1.719,9.387,1.65,9.397,1.623
				C9.411,1.59,9.424,1.507,9.434,1.441c0.031-0.207,0.074-0.49,0.296-0.711s0.505-0.265,0.711-0.296
				c0.067-0.01,0.149-0.022,0.184-0.037c0.026-0.011,0.096-0.063,0.141-0.096C10.935,0.174,11.167,0,11.49,0
				s0.556,0.174,0.726,0.301c0.045,0.034,0.114,0.085,0.142,0.097c0.032,0.013,0.115,0.025,0.182,0.036
				c0.207,0.031,0.49,0.074,0.712,0.296c0.222,0.221,0.264,0.504,0.295,0.71c0.011,0.066,0.022,0.149,0.037,0.183
				c0.011,0.028,0.063,0.097,0.097,0.142c0.127,0.17,0.301,0.403,0.301,0.726s-0.174,0.556-0.301,0.726
				c-0.034,0.045-0.086,0.114-0.097,0.142c-0.015,0.034-0.026,0.117-0.037,0.183c-0.031,0.206-0.073,0.489-0.295,0.71
				c-0.221,0.222-0.505,0.265-0.712,0.296c-0.066,0.01-0.149,0.023-0.183,0.037c-0.027,0.011-0.096,0.063-0.142,0.097
				C12.045,4.806,11.813,4.98,11.49,4.98z M10.494,3.547c0.027,0,0.065,0.006,0.096,0.01c0.127,0.02,0.271,0.041,0.416,0.102
				c0.143,0.059,0.257,0.144,0.357,0.22c0.051,0.037,0.126,0.094,0.157,0.105c-0.03-0.011,0.046-0.068,0.096-0.105
				c0.101-0.075,0.215-0.16,0.357-0.219c0.146-0.061,0.289-0.082,0.416-0.102c0.056-0.008,0.138-0.021,0.174-0.033h-0.001
				c-0.025,0-0.014-0.079-0.005-0.134c0.019-0.127,0.041-0.271,0.102-0.418c0.06-0.142,0.145-0.256,0.22-0.356
				c0.028-0.038,0.067-0.09,0.09-0.126c-0.022-0.037-0.062-0.089-0.09-0.127c-0.075-0.101-0.16-0.214-0.22-0.356
				c-0.061-0.146-0.083-0.291-0.102-0.417c-0.009-0.056-0.021-0.137-0.033-0.173c0.004,0.027-0.078,0.014-0.135,0.006
				c-0.127-0.019-0.27-0.041-0.415-0.101c-0.144-0.06-0.258-0.145-0.357-0.22c-0.051-0.038-0.127-0.095-0.157-0.106
				c0.029,0.011-0.046,0.068-0.097,0.105c-0.101,0.075-0.215,0.161-0.357,0.22c-0.146,0.061-0.289,0.082-0.415,0.101
				c-0.057,0.008-0.139,0.021-0.175,0.033c0.036,0.009,0.015,0.078,0.007,0.135c-0.02,0.126-0.041,0.27-0.102,0.415
				c-0.06,0.143-0.145,0.257-0.22,0.357c-0.037,0.051-0.095,0.127-0.105,0.158c0.014-0.028,0.067,0.046,0.105,0.096
				c0.075,0.101,0.16,0.215,0.22,0.357c0.061,0.146,0.082,0.29,0.102,0.416c0.008,0.056,0.021,0.138,0.032,0.174
				C10.454,3.551,10.471,3.547,10.494,3.547z M12.984,2.521L12.984,2.521L12.984,2.521z"/>
		</g>
	</g>
</g>
<g id="Birthday_Decoration_1">
</g>
<g id="Birthday_Decoration_2">
</g>
<g id="Birthday_Decoration_3">
</g>
<g id="Horn_1">
</g>
<g id="Horn_2">
</g>
<g id="Baloon">
</g>
<g id="Balloons_1">
</g>
<g id="Balloons_2">
</g>
<g id="Birthday_Picture">
</g>
<g id="Kid_x27_s_Champagne">
</g>
<g id="Candy">
</g>
<g id="Birthday_Card">
</g>
<g id="Flowers">
</g>
<g id="Birthday_Song">
</g>
<g id="Candle">
</g>
<g id="Sweet_16">
</g>
<g id="Clown">
</g>
<g id="Clown_2">
</g>
<g id="Birthday_Party">
</g>
<g id="Giving_Gift">
</g>
<g id="Present_5">
</g>
<g id="Champagne_in_ice_bucket">
</g>
<g id="Beer">
</g>
<g id="Truffles">
</g>
<g id="Pinata">
</g>
</svg>
