<?xml version="1.0" encoding="iso-8859-1"?>
<!-- Generator: Adobe Illustrator 19.2.1, SVG Export Plug-In . SVG Version: 6.00 Build 0)  -->
<svg version="1.1" xmlns="http://www.w3.org/2000/svg" xmlns:xlink="http://www.w3.org/1999/xlink" x="0px" y="0px"
	 viewBox="0 0 24 24" style="enable-background:new 0 0 24 24;" xml:space="preserve">
<g id="Present_1">
</g>
<g id="Present_2">
</g>
<g id="Present_3">
</g>
<g id="Present_Cake">
</g>
<g id="Present_4">
</g>
<g id="Birthday_Cake_1">
</g>
<g id="Birthday_Cake_2">
</g>
<g id="Cake_Piece">
</g>
<g id="Cupcake">
</g>
<g id="Lollipop">
</g>
<g id="Birthday_Greetings_1">
</g>
<g id="Party_Greetings_2">
</g>
<g id="Birthday_Invitation">
</g>
<g id="Birthday_1">
</g>
<g id="Birthday_2">
</g>
<g id="Birthday_Message_1">
</g>
<g id="Birthday_Message_2">
</g>
<g id="Birthyday_Hat_1">
</g>
<g id="Birthay_Hat_2">
</g>
<g id="Birthday_Hat3">
</g>
<g id="Birthday_Decoration_1">
</g>
<g id="Birthday_Decoration_2">
</g>
<g id="Birthday_Decoration_3">
</g>
<g id="Horn_1">
</g>
<g id="Horn_2">
</g>
<g id="Baloon">
</g>
<g id="Balloons_1">
</g>
<g id="Balloons_2">
</g>
<g id="Birthday_Picture">
</g>
<g id="Kid_x27_s_Champagne">
</g>
<g id="Candy">
</g>
<g id="Birthday_Card">
	<g>
		<g>
			<path d="M23.5,24h-13c-0.276,0-0.5-0.224-0.5-0.5v-18C10,5.224,10.224,5,10.5,5h13C23.776,5,24,5.224,24,5.5v18
				C24,23.776,23.776,24,23.5,24z M11,23h12V6H11V23z"/>
		</g>
		<g>
			<g>
				<path d="M19.5,20h-5c-0.827,0-1.5-0.673-1.5-1.5v-1c0-0.276,0.224-0.5,0.5-0.5s0.5,0.224,0.5,0.5v1c0,0.275,0.224,0.5,0.5,0.5h5
					c0.276,0,0.5-0.225,0.5-0.5v-1c0-0.276,0.224-0.5,0.5-0.5s0.5,0.224,0.5,0.5v1C21,19.327,20.327,20,19.5,20z"/>
			</g>
			<g>
				<path d="M17,11.5c-0.551,0-1-0.448-1-1c0-0.357,0.32-0.896,0.589-1.284c0.187-0.27,0.636-0.27,0.822,0
					C17.68,9.604,18,10.143,18,10.5C18,11.052,17.551,11.5,17,11.5z"/>
			</g>
			<g>
				<path d="M20,18c-0.597,0-1.133-0.263-1.5-0.679C18.133,17.737,17.597,18,17,18s-1.133-0.263-1.5-0.679
					C15.133,17.737,14.597,18,14,18c-1.103,0-2-0.897-2-2v-0.5c0-0.827,0.673-1.5,1.5-1.5h7c0.827,0,1.5,0.673,1.5,1.5V16
					C22,17.103,21.103,18,20,18z M19,16c0,0.552,0.449,1,1,1s1-0.448,1-1v-0.5c0-0.275-0.224-0.5-0.5-0.5h-7
					c-0.276,0-0.5,0.225-0.5,0.5V16c0,0.552,0.449,1,1,1s1-0.448,1-1c0-0.276,0.224-0.5,0.5-0.5S16,15.724,16,16
					c0,0.552,0.449,1,1,1s1-0.448,1-1c0-0.276,0.224-0.5,0.5-0.5S19,15.724,19,16z"/>
			</g>
			<g>
				<path d="M17.5,15h-1c-0.276,0-0.5-0.224-0.5-0.5V12c0-0.276,0.224-0.5,0.5-0.5h1c0.276,0,0.5,0.224,0.5,0.5v2.5
					C18,14.776,17.776,15,17.5,15z M17,14v-1.5V14z"/>
			</g>
		</g>
		<g>
			<path d="M10.5,24c-0.077,0-0.153-0.018-0.224-0.053l-10-5C0.107,18.862,0,18.689,0,18.5v-18c0-0.173,0.09-0.334,0.237-0.426
				c0.148-0.09,0.331-0.099,0.486-0.021l10,5C10.893,5.138,11,5.311,11,5.5v18c0,0.173-0.09,0.334-0.237,0.426
				C10.683,23.975,10.591,24,10.5,24z M1,18.191l9,4.5V5.809l-9-4.5V18.191z"/>
		</g>
	</g>
</g>
<g id="Flowers">
</g>
<g id="Birthday_Song">
</g>
<g id="Candle">
</g>
<g id="Sweet_16">
</g>
<g id="Clown">
</g>
<g id="Clown_2">
</g>
<g id="Birthday_Party">
</g>
<g id="Giving_Gift">
</g>
<g id="Present_5">
</g>
<g id="Champagne_in_ice_bucket">
</g>
<g id="Beer">
</g>
<g id="Truffles">
</g>
<g id="Pinata">
</g>
</svg>
