<?xml version="1.0" encoding="iso-8859-1"?>
<!-- Generator: Adobe Illustrator 19.2.1, SVG Export Plug-In . SVG Version: 6.00 Build 0)  -->
<svg version="1.1" xmlns="http://www.w3.org/2000/svg" xmlns:xlink="http://www.w3.org/1999/xlink" x="0px" y="0px"
	 viewBox="0 0 24 24" style="enable-background:new 0 0 24 24;" xml:space="preserve">
<g id="Present_1">
</g>
<g id="Present_2">
</g>
<g id="Present_3">
</g>
<g id="Present_Cake">
</g>
<g id="Present_4">
</g>
<g id="Birthday_Cake_1">
</g>
<g id="Birthday_Cake_2">
</g>
<g id="Cake_Piece">
</g>
<g id="Cupcake">
</g>
<g id="Lollipop">
</g>
<g id="Birthday_Greetings_1">
</g>
<g id="Party_Greetings_2">
</g>
<g id="Birthday_Invitation">
</g>
<g id="Birthday_1">
</g>
<g id="Birthday_2">
</g>
<g id="Birthday_Message_1">
</g>
<g id="Birthday_Message_2">
</g>
<g id="Birthyday_Hat_1">
</g>
<g id="Birthay_Hat_2">
</g>
<g id="Birthday_Hat3">
</g>
<g id="Birthday_Decoration_1">
</g>
<g id="Birthday_Decoration_2">
</g>
<g id="Birthday_Decoration_3">
</g>
<g id="Horn_1">
</g>
<g id="Horn_2">
</g>
<g id="Baloon">
</g>
<g id="Balloons_1">
</g>
<g id="Balloons_2">
</g>
<g id="Birthday_Picture">
	<g>
		<g>
			<path d="M21.5,24h-20C1.224,24,1,23.776,1,23.5v-23C1,0.224,1.224,0,1.5,0h20C21.776,0,22,0.224,22,0.5v23
				C22,23.776,21.776,24,21.5,24z M2,23h19V1H2V23z"/>
		</g>
		<g>
			<path d="M19.5,18h-16C3.224,18,3,17.776,3,17.5v-15C3,2.224,3.224,2,3.5,2h16C19.776,2,20,2.224,20,2.5v15
				C20,17.776,19.776,18,19.5,18z M4,17h15V3H4V17z"/>
		</g>
		<g>
			<path d="M15.5,18c-0.276,0-0.5-0.224-0.5-0.5v-2c0-0.827-0.673-1.5-1.5-1.5h-3c-0.276,0-0.5-0.224-0.5-0.5s0.224-0.5,0.5-0.5h3
				c1.379,0,2.5,1.121,2.5,2.5v2C16,17.776,15.776,18,15.5,18z"/>
		</g>
		<g>
			<path d="M7.5,18C7.224,18,7,17.776,7,17.5v-2C7,14.121,8.121,13,9.5,13h3c0.276,0,0.5,0.224,0.5,0.5S12.776,14,12.5,14h-3
				C8.673,14,8,14.673,8,15.5v2C8,17.776,7.776,18,7.5,18z"/>
		</g>
		<g>
			<path d="M11.5,13C10.121,13,9,11.878,9,10.5S10.121,8,11.5,8S14,9.122,14,10.5S12.879,13,11.5,13z M11.5,9
				C10.673,9,10,9.673,10,10.5s0.673,1.5,1.5,1.5s1.5-0.673,1.5-1.5S12.327,9,11.5,9z"/>
		</g>
		<g>
			<path d="M13.232,10c-0.193,0-0.377-0.113-0.459-0.301L11.5,6.758l-1.273,2.94c-0.11,0.253-0.406,0.368-0.657,0.26
				c-0.254-0.11-0.37-0.404-0.261-0.658l1.732-4c0.158-0.366,0.76-0.366,0.918,0l1.732,4c0.109,0.253-0.007,0.548-0.261,0.658
				C13.366,9.987,13.299,10,13.232,10z"/>
		</g>
	</g>
</g>
<g id="Kid_x27_s_Champagne">
</g>
<g id="Candy">
</g>
<g id="Birthday_Card">
</g>
<g id="Flowers">
</g>
<g id="Birthday_Song">
</g>
<g id="Candle">
</g>
<g id="Sweet_16">
</g>
<g id="Clown">
</g>
<g id="Clown_2">
</g>
<g id="Birthday_Party">
</g>
<g id="Giving_Gift">
</g>
<g id="Present_5">
</g>
<g id="Champagne_in_ice_bucket">
</g>
<g id="Beer">
</g>
<g id="Truffles">
</g>
<g id="Pinata">
</g>
</svg>
