<?xml version="1.0" encoding="iso-8859-1"?>
<!-- Generator: Adobe Illustrator 19.2.1, SVG Export Plug-In . SVG Version: 6.00 Build 0)  -->
<svg version="1.1" xmlns="http://www.w3.org/2000/svg" xmlns:xlink="http://www.w3.org/1999/xlink" x="0px" y="0px"
	 viewBox="0 0 24 24" style="enable-background:new 0 0 24 24;" xml:space="preserve">
<g id="Present_1">
</g>
<g id="Present_2">
</g>
<g id="Present_3">
</g>
<g id="Present_Cake">
</g>
<g id="Present_4">
</g>
<g id="Birthday_Cake_1">
</g>
<g id="Birthday_Cake_2">
</g>
<g id="Cake_Piece">
</g>
<g id="Cupcake">
</g>
<g id="Lollipop">
</g>
<g id="Birthday_Greetings_1">
</g>
<g id="Party_Greetings_2">
</g>
<g id="Birthday_Invitation">
</g>
<g id="Birthday_1">
</g>
<g id="Birthday_2">
</g>
<g id="Birthday_Message_1">
</g>
<g id="Birthday_Message_2">
</g>
<g id="Birthyday_Hat_1">
</g>
<g id="Birthay_Hat_2">
	<g>
		<g>
			<path d="M11.5,24C7.225,24,4,22.495,4,20.5c0-0.065,0.013-0.13,0.038-0.19l6.658-16.152c0.104-0.255,0.396-0.375,0.652-0.272
				c0.055,0.022,0.103,0.053,0.144,0.09c0.045-0.044,0.099-0.08,0.16-0.105c0.256-0.102,0.548,0.017,0.652,0.272l6.657,16.167
				C18.987,20.37,19,20.435,19,20.5C19,22.495,15.775,24,11.5,24z M5.005,20.587C5.132,21.747,7.764,23,11.5,23
				s6.368-1.254,6.495-2.413L11.504,4.822L5.005,20.587z"/>
		</g>
		<g>
			<path d="M11.49,4.98c-0.323,0-0.556-0.173-0.725-0.3c-0.046-0.034-0.114-0.085-0.142-0.097c-0.034-0.015-0.117-0.027-0.185-0.037
				c-0.206-0.031-0.488-0.075-0.71-0.296C9.508,4.029,9.465,3.746,9.434,3.539C9.424,3.473,9.411,3.39,9.397,3.356
				C9.387,3.33,9.335,3.261,9.301,3.216C9.174,3.046,9,2.813,9,2.49s0.174-0.556,0.301-0.726C9.335,1.719,9.387,1.65,9.397,1.623
				C9.411,1.59,9.424,1.507,9.434,1.441c0.031-0.207,0.074-0.49,0.296-0.711s0.505-0.265,0.711-0.296
				c0.067-0.01,0.149-0.022,0.184-0.037c0.026-0.011,0.096-0.063,0.141-0.096C10.935,0.174,11.167,0,11.49,0
				s0.556,0.174,0.726,0.301c0.045,0.034,0.114,0.085,0.142,0.097c0.032,0.013,0.115,0.025,0.182,0.036
				c0.207,0.031,0.49,0.074,0.712,0.296c0.222,0.221,0.264,0.504,0.295,0.71c0.011,0.066,0.022,0.149,0.037,0.183
				c0.011,0.028,0.063,0.097,0.097,0.142c0.127,0.17,0.301,0.403,0.301,0.726s-0.174,0.556-0.301,0.726
				c-0.034,0.045-0.086,0.114-0.097,0.142c-0.015,0.034-0.026,0.117-0.037,0.183c-0.031,0.206-0.073,0.489-0.295,0.71
				c-0.221,0.222-0.505,0.265-0.712,0.296c-0.066,0.01-0.149,0.023-0.183,0.037c-0.027,0.011-0.096,0.063-0.142,0.097
				C12.045,4.806,11.813,4.98,11.49,4.98z M10.494,3.547c0.027,0,0.065,0.006,0.096,0.01c0.127,0.02,0.271,0.041,0.416,0.102
				c0.143,0.059,0.257,0.144,0.357,0.22c0.051,0.037,0.126,0.094,0.157,0.105c-0.03-0.011,0.046-0.068,0.096-0.105
				c0.101-0.075,0.215-0.16,0.357-0.219c0.146-0.061,0.289-0.082,0.416-0.102c0.056-0.008,0.138-0.021,0.174-0.033h-0.001
				c-0.025,0-0.014-0.079-0.005-0.134c0.019-0.127,0.041-0.271,0.102-0.418c0.06-0.142,0.145-0.256,0.22-0.356
				c0.028-0.038,0.067-0.09,0.09-0.126c-0.022-0.037-0.062-0.089-0.09-0.127c-0.075-0.101-0.16-0.214-0.22-0.356
				c-0.061-0.146-0.083-0.291-0.102-0.417c-0.009-0.056-0.021-0.137-0.033-0.173c0.004,0.027-0.078,0.014-0.135,0.006
				c-0.127-0.019-0.27-0.041-0.415-0.101c-0.144-0.06-0.258-0.145-0.357-0.22c-0.051-0.038-0.127-0.095-0.157-0.106
				c0.029,0.011-0.046,0.068-0.097,0.105c-0.101,0.075-0.215,0.161-0.357,0.22c-0.146,0.061-0.289,0.082-0.415,0.101
				c-0.057,0.008-0.139,0.021-0.175,0.033c0.035,0.009,0.015,0.078,0.007,0.135c-0.02,0.126-0.041,0.27-0.102,0.415
				c-0.06,0.143-0.145,0.257-0.22,0.357c-0.037,0.051-0.095,0.127-0.105,0.158c0.014-0.028,0.067,0.046,0.105,0.096
				c0.075,0.101,0.16,0.215,0.22,0.357c0.061,0.146,0.082,0.29,0.102,0.416c0.008,0.056,0.021,0.138,0.032,0.174
				C10.454,3.551,10.471,3.547,10.494,3.547z M12.984,2.521L12.984,2.521L12.984,2.521z"/>
		</g>
		<g>
			<path d="M5.934,22.819c-0.195,0-0.382-0.116-0.462-0.308c-0.105-0.255,0.015-0.548,0.27-0.654l11.365-4.736
				c0.253-0.106,0.548,0.014,0.654,0.269c0.105,0.255-0.015,0.548-0.27,0.654L6.126,22.781C6.063,22.807,5.998,22.819,5.934,22.819z
				"/>
		</g>
		<g>
			<path d="M5.537,18.485c-0.195,0-0.382-0.116-0.462-0.308c-0.105-0.255,0.015-0.548,0.27-0.654l10.181-4.242
				c0.253-0.105,0.548,0.014,0.654,0.269c0.105,0.255-0.015,0.548-0.27,0.654L5.729,18.446C5.667,18.473,5.602,18.485,5.537,18.485z
				"/>
		</g>
		<g>
			<path d="M7.776,13.051c-0.195,0-0.382-0.116-0.462-0.308c-0.105-0.255,0.015-0.548,0.27-0.654l6.359-2.649
				c0.253-0.106,0.548,0.014,0.654,0.269c0.105,0.255-0.015,0.548-0.27,0.654l-6.359,2.649C7.906,13.039,7.841,13.051,7.776,13.051z
				"/>
		</g>
		<g>
			<path d="M9.768,8.222c-0.195,0-0.382-0.116-0.462-0.308C9.2,7.659,9.32,7.366,9.575,7.26l2.962-1.234
				c0.252-0.106,0.548,0.014,0.654,0.269c0.105,0.255-0.015,0.548-0.27,0.654L9.96,8.183C9.897,8.209,9.832,8.222,9.768,8.222z"/>
		</g>
	</g>
</g>
<g id="Birthday_Hat3">
</g>
<g id="Birthday_Decoration_1">
</g>
<g id="Birthday_Decoration_2">
</g>
<g id="Birthday_Decoration_3">
</g>
<g id="Horn_1">
</g>
<g id="Horn_2">
</g>
<g id="Baloon">
</g>
<g id="Balloons_1">
</g>
<g id="Balloons_2">
</g>
<g id="Birthday_Picture">
</g>
<g id="Kid_x27_s_Champagne">
</g>
<g id="Candy">
</g>
<g id="Birthday_Card">
</g>
<g id="Flowers">
</g>
<g id="Birthday_Song">
</g>
<g id="Candle">
</g>
<g id="Sweet_16">
</g>
<g id="Clown">
</g>
<g id="Clown_2">
</g>
<g id="Birthday_Party">
</g>
<g id="Giving_Gift">
</g>
<g id="Present_5">
</g>
<g id="Champagne_in_ice_bucket">
</g>
<g id="Beer">
</g>
<g id="Truffles">
</g>
<g id="Pinata">
</g>
</svg>
