<?xml version="1.0" encoding="iso-8859-1"?>
<!-- Generator: Adobe Illustrator 19.2.1, SVG Export Plug-In . SVG Version: 6.00 Build 0)  -->
<svg version="1.1" xmlns="http://www.w3.org/2000/svg" xmlns:xlink="http://www.w3.org/1999/xlink" x="0px" y="0px"
	 viewBox="0 0 24 24" style="enable-background:new 0 0 24 24;" xml:space="preserve">
<g id="Present_1">
</g>
<g id="Present_2">
</g>
<g id="Present_3">
</g>
<g id="Present_Cake">
</g>
<g id="Present_4">
</g>
<g id="Birthday_Cake_1">
</g>
<g id="Birthday_Cake_2">
	<g>
		<g>
			<path d="M19.5,24h-16C3.224,24,3,23.776,3,23.5v-6C3,16.122,4.121,15,5.5,15h12c1.379,0,2.5,1.122,2.5,2.5v6
				C20,23.776,19.776,24,19.5,24z M4,23h15v-5.5c0-0.827-0.673-1.5-1.5-1.5h-12C4.673,16,4,16.673,4,17.5V23z"/>
		</g>
		<g>
			<path d="M17.5,16h-12C5.224,16,5,15.776,5,15.5v-4C5,10.122,6.121,9,7.5,9h8c1.379,0,2.5,1.122,2.5,2.5v4
				C18,15.776,17.776,16,17.5,16z M6,15h11v-3.5c0-0.827-0.673-1.5-1.5-1.5h-8C6.673,10,6,10.673,6,11.5V15z"/>
		</g>
		<g>
			<path d="M17.499,13c-0.422,0-0.845-0.1-1.223-0.289c-0.486-0.243-1.066-0.243-1.553,0c-0.765,0.383-1.679,0.383-2.447,0
				c-0.486-0.243-1.066-0.243-1.553,0c-0.765,0.383-1.679,0.383-2.447,0c-0.486-0.243-1.066-0.243-1.553,0
				C6.346,12.9,5.923,13,5.501,13c-0.276,0-0.5-0.224-0.5-0.5s0.224-0.5,0.5-0.5c0.268,0,0.536-0.063,0.775-0.183
				c0.766-0.383,1.682-0.383,2.447,0c0.486,0.243,1.066,0.242,1.553,0c0.766-0.383,1.682-0.383,2.447,0
				c0.486,0.243,1.066,0.242,1.553,0c0.766-0.383,1.682-0.383,2.447,0C16.963,11.937,17.231,12,17.499,12c0.276,0,0.5,0.224,0.5,0.5
				S17.775,13,17.499,13z"/>
		</g>
		<g>
			<path d="M19.499,19.972c-0.423,0-0.846-0.1-1.224-0.29c-0.484-0.242-1.065-0.243-1.552,0c-0.766,0.383-1.682,0.383-2.447,0
				c-0.486-0.243-1.066-0.242-1.553,0c-0.766,0.383-1.682,0.383-2.447,0c-0.486-0.243-1.066-0.242-1.553,0
				c-0.766,0.383-1.682,0.383-2.447,0c-0.486-0.243-1.066-0.242-1.553,0c-0.377,0.189-0.8,0.289-1.224,0.289
				c-0.276,0-0.5-0.224-0.5-0.5s0.224-0.5,0.5-0.5c0.269,0,0.537-0.063,0.775-0.183c0.768-0.383,1.683-0.383,2.448,0
				c0.486,0.243,1.066,0.243,1.553,0c0.766-0.383,1.68-0.383,2.447,0c0.486,0.243,1.066,0.243,1.553,0
				c0.766-0.383,1.68-0.383,2.447,0c0.486,0.243,1.066,0.243,1.553,0c0.766-0.383,1.68-0.383,2.447,0
				c0.239,0.12,0.508,0.184,0.775,0.184c0.276,0,0.5,0.224,0.5,0.5S19.775,19.972,19.499,19.972z"/>
		</g>
		<g>
			<path d="M12.5,10h-2C10.224,10,10,9.776,10,9.5v-4C10,4.673,10.673,4,11.5,4S13,4.673,13,5.5v4C13,9.776,12.776,10,12.5,10z
				 M11,9h1V5.5C12,5.224,11.775,5,11.5,5S11,5.224,11,5.5V9z"/>
		</g>
		<g>
			<path d="M11.5,5C10.673,5,10,4.327,10,3.5c0-0.604,0.794-2.594,1.037-3.189c0.154-0.376,0.771-0.376,0.926,0
				C12.206,0.906,13,2.896,13,3.5C13,4.327,12.327,5,11.5,5z M11.5,1.88C11.221,2.638,11.003,3.309,11,3.5C11,3.776,11.225,4,11.5,4
				S12,3.776,12,3.5C11.997,3.309,11.779,2.638,11.5,1.88z"/>
		</g>
	</g>
</g>
<g id="Cake_Piece">
</g>
<g id="Cupcake">
</g>
<g id="Lollipop">
</g>
<g id="Birthday_Greetings_1">
</g>
<g id="Party_Greetings_2">
</g>
<g id="Birthday_Invitation">
</g>
<g id="Birthday_1">
</g>
<g id="Birthday_2">
</g>
<g id="Birthday_Message_1">
</g>
<g id="Birthday_Message_2">
</g>
<g id="Birthyday_Hat_1">
</g>
<g id="Birthay_Hat_2">
</g>
<g id="Birthday_Hat3">
</g>
<g id="Birthday_Decoration_1">
</g>
<g id="Birthday_Decoration_2">
</g>
<g id="Birthday_Decoration_3">
</g>
<g id="Horn_1">
</g>
<g id="Horn_2">
</g>
<g id="Baloon">
</g>
<g id="Balloons_1">
</g>
<g id="Balloons_2">
</g>
<g id="Birthday_Picture">
</g>
<g id="Kid_x27_s_Champagne">
</g>
<g id="Candy">
</g>
<g id="Birthday_Card">
</g>
<g id="Flowers">
</g>
<g id="Birthday_Song">
</g>
<g id="Candle">
</g>
<g id="Sweet_16">
</g>
<g id="Clown">
</g>
<g id="Clown_2">
</g>
<g id="Birthday_Party">
</g>
<g id="Giving_Gift">
</g>
<g id="Present_5">
</g>
<g id="Champagne_in_ice_bucket">
</g>
<g id="Beer">
</g>
<g id="Truffles">
</g>
<g id="Pinata">
</g>
</svg>
