<?xml version="1.0" encoding="iso-8859-1"?>
<!-- Generator: Adobe Illustrator 19.2.1, SVG Export Plug-In . SVG Version: 6.00 Build 0)  -->
<svg version="1.1" xmlns="http://www.w3.org/2000/svg" xmlns:xlink="http://www.w3.org/1999/xlink" x="0px" y="0px"
	 viewBox="0 0 24 24" style="enable-background:new 0 0 24 24;" xml:space="preserve">
<g id="Present_1">
</g>
<g id="Present_2">
</g>
<g id="Present_3">
</g>
<g id="Present_Cake">
</g>
<g id="Present_4">
</g>
<g id="Birthday_Cake_1">
</g>
<g id="Birthday_Cake_2">
</g>
<g id="Cake_Piece">
</g>
<g id="Cupcake">
</g>
<g id="Lollipop">
</g>
<g id="Birthday_Greetings_1">
</g>
<g id="Party_Greetings_2">
</g>
<g id="Birthday_Invitation">
	<g>
		<g>
			<path d="M23.236,23.675c-0.102,0-0.204-0.031-0.293-0.095l-10.061-7.292c-0.529-0.384-1.238-0.384-1.765,0L1.058,23.58
				c-0.225,0.163-0.536,0.112-0.698-0.111c-0.162-0.224-0.112-0.536,0.111-0.698l10.06-7.292c0.879-0.639,2.06-0.639,2.94,0
				l10.06,7.292c0.224,0.162,0.273,0.475,0.111,0.698C23.544,23.603,23.391,23.675,23.236,23.675z"/>
		</g>
		<g>
			<path d="M13.339,16.5c-0.155,0-0.308-0.072-0.406-0.207c-0.162-0.224-0.112-0.536,0.112-0.698l10.116-7.322
				c0.223-0.162,0.536-0.112,0.698,0.112c0.162,0.224,0.112,0.536-0.112,0.698l-10.116,7.322C13.543,16.469,13.441,16.5,13.339,16.5
				z"/>
		</g>
		<g>
			<path d="M10.661,16.5c-0.102,0-0.204-0.031-0.292-0.095L0.252,9.083C0.028,8.921-0.021,8.608,0.141,8.385
				c0.161-0.224,0.474-0.275,0.698-0.112l10.116,7.322c0.224,0.162,0.274,0.474,0.112,0.698C10.968,16.428,10.815,16.5,10.661,16.5z
				"/>
		</g>
		<g>
			<path d="M22.5,24h-21C0.673,24,0,23.327,0,22.5V8.968c0-0.446,0.197-0.867,0.54-1.152l1.64-1.367
				c0.213-0.177,0.528-0.148,0.705,0.064C3.061,6.726,3.032,7.041,2.82,7.218L1.18,8.584C1.065,8.68,1,8.819,1,8.968V22.5
				C1,22.776,1.224,23,1.5,23h21c0.276,0,0.5-0.224,0.5-0.5V8.968c0-0.149-0.065-0.289-0.18-0.384L21.18,7.218
				c-0.212-0.177-0.241-0.492-0.064-0.705c0.177-0.212,0.492-0.241,0.705-0.064l1.64,1.367C23.803,8.102,24,8.522,24,8.968V22.5
				C24,23.327,23.327,24,22.5,24z"/>
		</g>
		<g>
			<path d="M21.5,10.593c-0.276,0-0.5-0.224-0.5-0.5V1H3v9.087c0,0.276-0.224,0.5-0.5,0.5S2,10.364,2,10.087V0.5
				C2,0.224,2.224,0,2.5,0h19C21.776,0,22,0.224,22,0.5v9.593C22,10.37,21.776,10.593,21.5,10.593z"/>
		</g>
		<g>
			<path d="M14.468,11.978c-0.494,0-1.052-0.134-1.615-0.395c-1.764-0.816-2.067-1.821-1.763-2.489
				c0.026-0.058,0.063-0.109,0.108-0.153l3.955-3.801C15.297,5,15.512,4.96,15.696,5.04C15.88,5.119,16,5.3,16,5.5V11
				c0,0.072-0.015,0.142-0.045,0.208c-0.134,0.293-0.389,0.517-0.738,0.646C14.994,11.937,14.741,11.978,14.468,11.978z
				 M11.987,9.57c-0.005,0.224,0.363,0.678,1.286,1.105c0.736,0.34,1.308,0.349,1.596,0.241c0.054-0.02,0.099-0.044,0.131-0.07
				V6.674L11.987,9.57z"/>
		</g>
		<g>
			<path d="M15.75,6c-0.689,0-1.25-0.561-1.25-1.25s0.561-1.25,1.25-1.25S17,4.061,17,4.75S16.439,6,15.75,6z M15.75,4.5
				c-0.138,0-0.25,0.112-0.25,0.25c0,0.275,0.5,0.275,0.5,0C16,4.612,15.888,4.5,15.75,4.5z"/>
		</g>
		<g>
			<path d="M11.5,6c-0.025,0-0.05-0.002-0.075-0.005c-0.27-0.041-0.456-0.29-0.421-0.559c0.003-0.039,0.015-0.312-0.292-0.527
				c-0.651-0.458-0.751-1.142-0.708-1.474c0.036-0.273,0.285-0.471,0.561-0.431c0.274,0.036,0.467,0.287,0.431,0.561
				c-0.001,0.021-0.015,0.31,0.292,0.526c0.664,0.467,0.757,1.152,0.707,1.484C11.957,5.822,11.744,6,11.5,6z"/>
		</g>
		<g>
			<path d="M9.5,8C9.345,8,9.192,7.928,9.095,7.792C9.08,7.773,8.866,7.5,8.5,7.5c-0.842,0-1.307-0.49-1.449-0.78
				C6.93,6.472,7.032,6.172,7.28,6.051c0.249-0.124,0.548-0.02,0.669,0.229C7.955,6.289,8.092,6.5,8.5,6.5
				c0.717,0,1.223,0.448,1.409,0.713c0.159,0.226,0.104,0.538-0.122,0.696C9.7,7.971,9.6,8,9.5,8z"/>
		</g>
		<g>
			<path d="M7.502,11.09c-0.384,0-0.659-0.113-0.703-0.132c-0.253-0.111-0.368-0.405-0.257-0.659
				c0.111-0.253,0.404-0.37,0.659-0.257c0.006,0.001,0.291,0.114,0.624-0.01c0.666-0.249,1.288-0.024,1.355,0.002
				c0.258,0.099,0.386,0.389,0.287,0.646c-0.099,0.256-0.386,0.383-0.642,0.289c-0.013-0.004-0.341-0.115-0.648,0
				C7.933,11.059,7.703,11.09,7.502,11.09z"/>
		</g>
	</g>
</g>
<g id="Birthday_1">
</g>
<g id="Birthday_2">
</g>
<g id="Birthday_Message_1">
</g>
<g id="Birthday_Message_2">
</g>
<g id="Birthyday_Hat_1">
</g>
<g id="Birthay_Hat_2">
</g>
<g id="Birthday_Hat3">
</g>
<g id="Birthday_Decoration_1">
</g>
<g id="Birthday_Decoration_2">
</g>
<g id="Birthday_Decoration_3">
</g>
<g id="Horn_1">
</g>
<g id="Horn_2">
</g>
<g id="Baloon">
</g>
<g id="Balloons_1">
</g>
<g id="Balloons_2">
</g>
<g id="Birthday_Picture">
</g>
<g id="Kid_x27_s_Champagne">
</g>
<g id="Candy">
</g>
<g id="Birthday_Card">
</g>
<g id="Flowers">
</g>
<g id="Birthday_Song">
</g>
<g id="Candle">
</g>
<g id="Sweet_16">
</g>
<g id="Clown">
</g>
<g id="Clown_2">
</g>
<g id="Birthday_Party">
</g>
<g id="Giving_Gift">
</g>
<g id="Present_5">
</g>
<g id="Champagne_in_ice_bucket">
</g>
<g id="Beer">
</g>
<g id="Truffles">
</g>
<g id="Pinata">
</g>
</svg>
