<?xml version="1.0" encoding="iso-8859-1"?>
<!-- Generator: Adobe Illustrator 19.2.1, SVG Export Plug-In . SVG Version: 6.00 Build 0)  -->
<svg version="1.1" xmlns="http://www.w3.org/2000/svg" xmlns:xlink="http://www.w3.org/1999/xlink" x="0px" y="0px"
	 viewBox="0 0 24 24" style="enable-background:new 0 0 24 24;" xml:space="preserve">
<g id="Present_1">
</g>
<g id="Present_2">
</g>
<g id="Present_3">
</g>
<g id="Present_Cake">
</g>
<g id="Present_4">
</g>
<g id="Birthday_Cake_1">
</g>
<g id="Birthday_Cake_2">
</g>
<g id="Cake_Piece">
</g>
<g id="Cupcake">
</g>
<g id="Lollipop">
</g>
<g id="Birthday_Greetings_1">
</g>
<g id="Party_Greetings_2">
</g>
<g id="Birthday_Invitation">
</g>
<g id="Birthday_1">
</g>
<g id="Birthday_2">
</g>
<g id="Birthday_Message_1">
</g>
<g id="Birthday_Message_2">
</g>
<g id="Birthyday_Hat_1">
</g>
<g id="Birthay_Hat_2">
</g>
<g id="Birthday_Hat3">
</g>
<g id="Birthday_Decoration_1">
</g>
<g id="Birthday_Decoration_2">
</g>
<g id="Birthday_Decoration_3">
	<g>
		<g>
			<g>
				<path d="M5.493,20.001c-0.106,0-0.211-0.033-0.299-0.1l-4.295-3.21C0.325,16.247,0,15.604,0,14.919c0-0.275,0.223-0.5,0.5-0.5h0
					c0.276,0,0.5,0.224,0.5,0.5c0,0.378,0.18,0.725,0.504,0.977l3.489,2.607v-3.274l-4.07-3.041
					c-0.574-0.445-0.899-1.089-0.899-1.774s0.325-1.33,0.892-1.769l1.899-1.268l-2.62-1.952C0.069,5.331-0.006,5.182-0.006,5.024
					V0.5c0-0.192,0.11-0.367,0.282-0.45C0.45-0.032,0.654-0.011,0.805,0.108l4.303,3.406c0.557,0.433,0.882,1.071,0.887,1.749
					C6,5.955,5.675,6.606,5.103,7.05L3.982,7.798C3.967,7.81,3.951,7.82,3.935,7.83L1.5,9.456c-0.296,0.231-0.476,0.58-0.476,0.958
					c0,0.379,0.179,0.726,0.505,0.979l4.264,3.185c0.126,0.094,0.201,0.242,0.201,0.4v4.523c0,0.189-0.107,0.362-0.276,0.447
					C5.646,19.983,5.57,20.001,5.493,20.001z M0.994,4.773l2.703,2.014l0.822-0.549c0.295-0.23,0.479-0.59,0.476-0.967
					c-0.003-0.375-0.182-0.72-0.504-0.97L0.994,1.534V4.773z"/>
			</g>
			<g>
				<path d="M2.42,13.183c-0.157,0-0.312-0.074-0.409-0.212c-0.159-0.226-0.105-0.538,0.121-0.697L4.52,10.59
					c0.304-0.237,0.483-0.581,0.486-0.956c0.002-0.275,0.226-0.496,0.5-0.496c0.001,0,0.002,0,0.004,0
					C5.786,9.14,6.008,9.366,6.006,9.642C6,10.32,5.675,10.958,5.114,11.394l-2.407,1.697C2.62,13.152,2.52,13.183,2.42,13.183z"/>
			</g>
			<g>
				<path d="M5.494,10.048c-0.276,0-0.5-0.224-0.5-0.5V5.477c0-0.276,0.224-0.5,0.5-0.5s0.5,0.224,0.5,0.5v4.072
					C5.994,9.825,5.771,10.048,5.494,10.048z"/>
			</g>
			<g>
				<path d="M0.494,15.477c-0.276,0-0.5-0.224-0.5-0.5v-4.523c0-0.276,0.224-0.5,0.5-0.5s0.5,0.224,0.5,0.5v4.523
					C0.994,15.253,0.771,15.477,0.494,15.477z"/>
			</g>
		</g>
		<g>
			<g>
				<path d="M14.493,24c-0.106,0-0.211-0.033-0.299-0.1l-4.295-3.21C9.325,20.246,9,19.603,9,18.918c0-0.275,0.223-0.5,0.5-0.5h0
					c0.276,0,0.5,0.224,0.5,0.5c0,0.378,0.18,0.725,0.504,0.977l3.489,2.607v-3.274l-4.07-3.04c-0.574-0.445-0.899-1.09-0.899-1.775
					c0-0.685,0.326-1.329,0.893-1.768l1.898-1.268L9.195,9.424C9.069,9.33,8.994,9.181,8.994,9.023V4.5
					c0-0.192,0.11-0.367,0.282-0.45c0.173-0.082,0.377-0.061,0.528,0.058l4.303,3.407c0.557,0.432,0.882,1.071,0.887,1.749
					c0.006,0.691-0.319,1.342-0.892,1.786l-1.116,0.745c-0.019,0.014-0.038,0.027-0.058,0.039L10.5,13.455
					c-0.296,0.231-0.476,0.579-0.476,0.958s0.179,0.727,0.505,0.979l4.264,3.184c0.126,0.094,0.201,0.242,0.201,0.4V23.5
					c0,0.189-0.107,0.362-0.276,0.447C14.646,23.982,14.57,24,14.493,24z M9.994,8.772l2.703,2.014l0.822-0.549
					c0.295-0.23,0.479-0.59,0.476-0.967c-0.003-0.375-0.182-0.72-0.504-0.97L9.994,5.533V8.772z"/>
			</g>
			<g>
				<path d="M11.42,17.181c-0.157,0-0.312-0.074-0.409-0.212c-0.159-0.226-0.105-0.538,0.121-0.697l2.388-1.683
					c0.304-0.236,0.483-0.581,0.486-0.956c0.002-0.275,0.228-0.495,0.504-0.496c0.276,0.002,0.498,0.228,0.496,0.504
					c-0.005,0.678-0.33,1.316-0.892,1.752l-2.407,1.697C11.62,17.151,11.52,17.181,11.42,17.181z"/>
			</g>
			<g>
				<path d="M14.494,14.047c-0.276,0-0.5-0.224-0.5-0.5V9.476c0-0.276,0.224-0.5,0.5-0.5s0.5,0.224,0.5,0.5v4.071
					C14.994,13.823,14.771,14.047,14.494,14.047z"/>
			</g>
			<g>
				<path d="M9.494,19.476c-0.276,0-0.5-0.224-0.5-0.5v-4.523c0-0.276,0.224-0.5,0.5-0.5s0.5,0.224,0.5,0.5v4.523
					C9.994,19.252,9.771,19.476,9.494,19.476z"/>
			</g>
		</g>
		<g>
			<g>
				<path d="M23.493,20c-0.106,0-0.211-0.033-0.299-0.1l-4.295-3.21C18.325,16.246,18,15.603,18,14.918c0-0.275,0.223-0.5,0.5-0.5h0
					c0.276,0,0.5,0.224,0.5,0.5c0,0.378,0.18,0.725,0.504,0.977l3.489,2.607v-3.274l-4.07-3.04c-0.574-0.445-0.899-1.09-0.899-1.774
					s0.325-1.33,0.892-1.769l1.898-1.268l-2.619-1.952c-0.126-0.094-0.201-0.243-0.201-0.401V0.5c0-0.192,0.11-0.367,0.282-0.45
					c0.173-0.082,0.378-0.061,0.528,0.058l4.303,3.407c0.557,0.432,0.882,1.071,0.887,1.749C24,5.954,23.675,6.605,23.103,7.049
					l-1.116,0.745c-0.019,0.014-0.038,0.027-0.058,0.039L19.5,9.455c-0.296,0.231-0.476,0.579-0.476,0.958s0.179,0.727,0.505,0.979
					l4.264,3.184c0.126,0.094,0.201,0.242,0.201,0.4V19.5c0,0.189-0.107,0.362-0.276,0.447C23.646,19.982,23.57,20,23.493,20z
					 M18.994,4.772l2.703,2.014l0.822-0.549c0.295-0.23,0.479-0.59,0.476-0.967c-0.003-0.375-0.182-0.72-0.504-0.97l-3.496-2.768
					V4.772z"/>
			</g>
			<g>
				<path d="M20.42,13.182c-0.157,0-0.312-0.074-0.409-0.212c-0.159-0.226-0.105-0.538,0.121-0.697l2.388-1.684
					c0.304-0.237,0.483-0.581,0.486-0.956c0.002-0.276,0.24-0.45,0.504-0.496c0.276,0.002,0.498,0.228,0.496,0.504
					c-0.005,0.678-0.331,1.316-0.892,1.751l-2.407,1.697C20.62,13.151,20.52,13.182,20.42,13.182z"/>
			</g>
			<g>
				<path d="M23.494,10.047c-0.276,0-0.5-0.224-0.5-0.5V5.476c0-0.276,0.224-0.5,0.5-0.5s0.5,0.224,0.5,0.5v4.072
					C23.994,9.824,23.771,10.047,23.494,10.047z"/>
			</g>
			<g>
				<path d="M18.494,15.476c-0.276,0-0.5-0.224-0.5-0.5v-4.523c0-0.276,0.224-0.5,0.5-0.5s0.5,0.224,0.5,0.5v4.523
					C18.994,15.252,18.771,15.476,18.494,15.476z"/>
			</g>
		</g>
	</g>
</g>
<g id="Horn_1">
</g>
<g id="Horn_2">
</g>
<g id="Baloon">
</g>
<g id="Balloons_1">
</g>
<g id="Balloons_2">
</g>
<g id="Birthday_Picture">
</g>
<g id="Kid_x27_s_Champagne">
</g>
<g id="Candy">
</g>
<g id="Birthday_Card">
</g>
<g id="Flowers">
</g>
<g id="Birthday_Song">
</g>
<g id="Candle">
</g>
<g id="Sweet_16">
</g>
<g id="Clown">
</g>
<g id="Clown_2">
</g>
<g id="Birthday_Party">
</g>
<g id="Giving_Gift">
</g>
<g id="Present_5">
</g>
<g id="Champagne_in_ice_bucket">
</g>
<g id="Beer">
</g>
<g id="Truffles">
</g>
<g id="Pinata">
</g>
</svg>
