<?xml version="1.0" encoding="iso-8859-1"?>
<!-- Generator: Adobe Illustrator 19.2.1, SVG Export Plug-In . SVG Version: 6.00 Build 0)  -->
<svg version="1.1" xmlns="http://www.w3.org/2000/svg" xmlns:xlink="http://www.w3.org/1999/xlink" x="0px" y="0px"
	 viewBox="0 0 24 24" style="enable-background:new 0 0 24 24;" xml:space="preserve">
<g id="Present_1">
</g>
<g id="Present_2">
</g>
<g id="Present_3">
</g>
<g id="Present_Cake">
</g>
<g id="Present_4">
</g>
<g id="Birthday_Cake_1">
</g>
<g id="Birthday_Cake_2">
</g>
<g id="Cake_Piece">
</g>
<g id="Cupcake">
</g>
<g id="Lollipop">
</g>
<g id="Birthday_Greetings_1">
</g>
<g id="Party_Greetings_2">
</g>
<g id="Birthday_Invitation">
</g>
<g id="Birthday_1">
</g>
<g id="Birthday_2">
</g>
<g id="Birthday_Message_1">
</g>
<g id="Birthday_Message_2">
</g>
<g id="Birthyday_Hat_1">
	<g>
		<g>
			<path d="M11.5,5C10.121,5,9,3.878,9,2.5S10.121,0,11.5,0S14,1.122,14,2.5S12.879,5,11.5,5z M11.5,1C10.673,1,10,1.673,10,2.5
				S10.673,4,11.5,4S13,3.327,13,2.5S12.327,1,11.5,1z"/>
		</g>
		<g>
			<path d="M11.5,24C7.225,24,4,22.495,4,20.5c0-0.065,0.013-0.13,0.038-0.19l6.604-16.04c0.104-0.255,0.397-0.375,0.652-0.272
				c0.084,0.035,0.153,0.089,0.205,0.156c0.052-0.067,0.121-0.122,0.205-0.156c0.257-0.103,0.548,0.017,0.652,0.272l6.604,16.04
				C18.987,20.37,19,20.435,19,20.5C19,22.495,15.775,24,11.5,24z M5.005,20.587C5.132,21.746,7.764,23,11.5,23
				s6.368-1.254,6.495-2.413L11.5,4.813L5.005,20.587z"/>
		</g>
		<g>
			<path d="M11.5,8c-0.6,0-1.182-0.159-1.729-0.471C9.532,7.392,9.448,7.086,9.585,6.847c0.138-0.242,0.445-0.323,0.683-0.186
				c0.789,0.45,1.676,0.45,2.465,0c0.235-0.137,0.544-0.056,0.683,0.186c0.137,0.24,0.053,0.545-0.187,0.682
				C12.682,7.841,12.1,8,11.5,8z"/>
		</g>
		<g>
			<path d="M11.5,12c-1.175,0-2.323-0.297-3.233-0.836c-0.237-0.141-0.316-0.448-0.175-0.685c0.14-0.238,0.448-0.315,0.685-0.175
				c1.516,0.898,3.932,0.898,5.447,0c0.236-0.14,0.544-0.063,0.685,0.175c0.142,0.237,0.063,0.544-0.175,0.685
				C13.823,11.703,12.675,12,11.5,12z"/>
		</g>
		<g>
			<path d="M11.5,16c-1.872,0-3.598-0.484-4.733-1.329c-0.221-0.165-0.268-0.478-0.103-0.7c0.167-0.223,0.479-0.266,0.7-0.103
				C8.316,14.577,9.862,15,11.5,15s3.184-0.423,4.136-1.132c0.22-0.164,0.533-0.12,0.7,0.103c0.165,0.222,0.118,0.535-0.103,0.7
				C15.098,15.516,13.372,16,11.5,16z"/>
		</g>
		<g>
			<path d="M11.5,20c-2.8,0-5.27-0.938-6.146-2.333c-0.147-0.234-0.077-0.542,0.156-0.689c0.233-0.145,0.543-0.077,0.689,0.157
				C6.89,18.233,9.069,19,11.5,19s4.61-0.767,5.301-1.865c0.147-0.234,0.457-0.302,0.689-0.157c0.233,0.147,0.304,0.456,0.156,0.689
				C16.77,19.063,14.3,20,11.5,20z"/>
		</g>
	</g>
</g>
<g id="Birthay_Hat_2">
</g>
<g id="Birthday_Hat3">
</g>
<g id="Birthday_Decoration_1">
</g>
<g id="Birthday_Decoration_2">
</g>
<g id="Birthday_Decoration_3">
</g>
<g id="Horn_1">
</g>
<g id="Horn_2">
</g>
<g id="Baloon">
</g>
<g id="Balloons_1">
</g>
<g id="Balloons_2">
</g>
<g id="Birthday_Picture">
</g>
<g id="Kid_x27_s_Champagne">
</g>
<g id="Candy">
</g>
<g id="Birthday_Card">
</g>
<g id="Flowers">
</g>
<g id="Birthday_Song">
</g>
<g id="Candle">
</g>
<g id="Sweet_16">
</g>
<g id="Clown">
</g>
<g id="Clown_2">
</g>
<g id="Birthday_Party">
</g>
<g id="Giving_Gift">
</g>
<g id="Present_5">
</g>
<g id="Champagne_in_ice_bucket">
</g>
<g id="Beer">
</g>
<g id="Truffles">
</g>
<g id="Pinata">
</g>
</svg>
