<?xml version="1.0" encoding="iso-8859-1"?>
<!-- Generator: Adobe Illustrator 19.2.1, SVG Export Plug-In . SVG Version: 6.00 Build 0)  -->
<svg version="1.1" xmlns="http://www.w3.org/2000/svg" xmlns:xlink="http://www.w3.org/1999/xlink" x="0px" y="0px"
	 viewBox="0 0 24 24" style="enable-background:new 0 0 24 24;" xml:space="preserve">
<g id="Present_1">
</g>
<g id="Present_2">
</g>
<g id="Present_3">
</g>
<g id="Present_Cake">
</g>
<g id="Present_4">
</g>
<g id="Birthday_Cake_1">
</g>
<g id="Birthday_Cake_2">
</g>
<g id="Cake_Piece">
</g>
<g id="Cupcake">
</g>
<g id="Lollipop">
</g>
<g id="Birthday_Greetings_1">
</g>
<g id="Party_Greetings_2">
</g>
<g id="Birthday_Invitation">
</g>
<g id="Birthday_1">
	<g>
		<g>
			<path d="M5.5,6C4.673,6,4,5.327,4,4.5v-2C4,1.673,4.673,1,5.5,1S7,1.673,7,2.5v2C7,5.327,6.327,6,5.5,6z M5.5,2
				C5.224,2,5,2.224,5,2.5v2C5,4.776,5.224,5,5.5,5S6,4.776,6,4.5v-2C6,2.224,5.776,2,5.5,2z"/>
		</g>
		<g>
			<path d="M17.5,6C16.673,6,16,5.327,16,4.5v-2C16,1.673,16.673,1,17.5,1S19,1.673,19,2.5v2C19,5.327,18.327,6,17.5,6z M17.5,2
				C17.224,2,17,2.224,17,2.5v2C17,4.776,17.224,5,17.5,5S18,4.776,18,4.5v-2C18,2.224,17.776,2,17.5,2z"/>
		</g>
		<g>
			<path d="M22.5,9h-22C0.224,9,0,8.776,0,8.5v-2C0,4.57,1.57,3,3.5,3h1C4.776,3,5,3.224,5,3.5v1C5,4.776,5.224,5,5.5,5
				S6,4.776,6,4.5v-1C6,3.224,6.224,3,6.5,3h10C16.776,3,17,3.224,17,3.5v1C17,4.776,17.224,5,17.5,5S18,4.776,18,4.5v-1
				C18,3.224,18.224,3,18.5,3h1C21.43,3,23,4.57,23,6.5v2C23,8.776,22.776,9,22.5,9z M1,8h21V6.5C22,5.122,20.878,4,19.5,4H19v0.5
				C19,5.327,18.327,6,17.5,6S16,5.327,16,4.5V4H7v0.5C7,5.327,6.327,6,5.5,6S4,5.327,4,4.5V4H3.5C2.122,4,1,5.122,1,6.5V8z"/>
		</g>
		<g>
			<path d="M19.5,24h-16C1.57,24,0,22.43,0,20.5v-12C0,8.224,0.224,8,0.5,8h22C22.776,8,23,8.224,23,8.5v12
				C23,22.43,21.43,24,19.5,24z M1,9v11.5C1,21.878,2.122,23,3.5,23h16c1.378,0,2.5-1.122,2.5-2.5V9H1z"/>
		</g>
		<g>
			<path d="M5.5,18h-1C4.224,18,4,17.776,4,17.5v-4C4,13.224,4.224,13,4.5,13h1C6.327,13,7,13.673,7,14.5
				c0,0.384-0.145,0.734-0.383,1C6.855,15.766,7,16.116,7,16.5C7,17.327,6.327,18,5.5,18z M5,17h0.5C5.776,17,6,16.776,6,16.5
				S5.776,16,5.5,16H5V17z M5,15h0.5C5.776,15,6,14.776,6,14.5S5.776,14,5.5,14H5V15z"/>
		</g>
		<g>
			<path d="M9.5,18C9.224,18,9,17.776,9,17.5v-4C9,13.224,9.224,13,9.5,13c1.378,0,2.5,1.122,2.5,2.5S10.878,18,9.5,18z M10,14.085
				v2.829c0.582-0.207,1-0.763,1-1.415S10.582,14.292,10,14.085z"/>
		</g>
		<g>
			<path d="M15.5,18c-0.202,0-0.393-0.124-0.468-0.324L14,14.924l-1.032,2.752c-0.098,0.259-0.386,0.388-0.644,0.292
				c-0.258-0.097-0.389-0.385-0.292-0.644l1.5-4c0.146-0.39,0.79-0.39,0.937,0l1.5,4c0.097,0.259-0.034,0.547-0.292,0.644
				C15.618,17.99,15.559,18,15.5,18z"/>
		</g>
		<g>
			<path d="M15,17h-2c-0.276,0-0.5-0.224-0.5-0.5S12.724,16,13,16h2c0.276,0,0.5,0.224,0.5,0.5S15.276,17,15,17z"/>
		</g>
		<g>
			<path d="M17.5,16c-0.189,0-0.362-0.107-0.447-0.276l-1-2c-0.124-0.247-0.023-0.547,0.224-0.671
				c0.247-0.122,0.547-0.023,0.671,0.224l0.553,1.105l0.553-1.105c0.124-0.247,0.423-0.346,0.671-0.224
				c0.247,0.124,0.347,0.424,0.224,0.671l-1,2C17.862,15.893,17.689,16,17.5,16z"/>
		</g>
		<g>
			<path d="M17.5,18c-0.276,0-0.5-0.224-0.5-0.5v-2c0-0.276,0.224-0.5,0.5-0.5s0.5,0.224,0.5,0.5v2C18,17.776,17.776,18,17.5,18z"/>
		</g>
		<g>
			<circle cx="7.5" cy="17.5" r="0.5"/>
		</g>
	</g>
</g>
<g id="Birthday_2">
</g>
<g id="Birthday_Message_1">
</g>
<g id="Birthday_Message_2">
</g>
<g id="Birthyday_Hat_1">
</g>
<g id="Birthay_Hat_2">
</g>
<g id="Birthday_Hat3">
</g>
<g id="Birthday_Decoration_1">
</g>
<g id="Birthday_Decoration_2">
</g>
<g id="Birthday_Decoration_3">
</g>
<g id="Horn_1">
</g>
<g id="Horn_2">
</g>
<g id="Baloon">
</g>
<g id="Balloons_1">
</g>
<g id="Balloons_2">
</g>
<g id="Birthday_Picture">
</g>
<g id="Kid_x27_s_Champagne">
</g>
<g id="Candy">
</g>
<g id="Birthday_Card">
</g>
<g id="Flowers">
</g>
<g id="Birthday_Song">
</g>
<g id="Candle">
</g>
<g id="Sweet_16">
</g>
<g id="Clown">
</g>
<g id="Clown_2">
</g>
<g id="Birthday_Party">
</g>
<g id="Giving_Gift">
</g>
<g id="Present_5">
</g>
<g id="Champagne_in_ice_bucket">
</g>
<g id="Beer">
</g>
<g id="Truffles">
</g>
<g id="Pinata">
</g>
</svg>
