<?xml version="1.0" encoding="iso-8859-1"?>
<!-- Generator: Adobe Illustrator 19.2.1, SVG Export Plug-In . SVG Version: 6.00 Build 0)  -->
<svg version="1.1" xmlns="http://www.w3.org/2000/svg" xmlns:xlink="http://www.w3.org/1999/xlink" x="0px" y="0px"
	 viewBox="0 0 24 24" style="enable-background:new 0 0 24 24;" xml:space="preserve">
<g id="Present_1">
</g>
<g id="Present_2">
</g>
<g id="Present_3">
</g>
<g id="Present_Cake">
</g>
<g id="Present_4">
</g>
<g id="Birthday_Cake_1">
</g>
<g id="Birthday_Cake_2">
</g>
<g id="Cake_Piece">
</g>
<g id="Cupcake">
</g>
<g id="Lollipop">
</g>
<g id="Birthday_Greetings_1">
</g>
<g id="Party_Greetings_2">
</g>
<g id="Birthday_Invitation">
</g>
<g id="Birthday_1">
</g>
<g id="Birthday_2">
</g>
<g id="Birthday_Message_1">
</g>
<g id="Birthday_Message_2">
</g>
<g id="Birthyday_Hat_1">
</g>
<g id="Birthay_Hat_2">
</g>
<g id="Birthday_Hat3">
</g>
<g id="Birthday_Decoration_1">
	<g>
		<g>
			<path d="M12,10C4.816,10,0.932,8.028,0.77,7.944C0.525,7.817,0.43,7.516,0.556,7.271C0.683,7.025,0.984,6.93,1.229,7.056
				C1.268,7.075,5.083,9,12,9c6.942,0,10.732-1.924,10.77-1.944c0.244-0.127,0.546-0.032,0.674,0.214
				c0.127,0.245,0.032,0.547-0.214,0.674C23.068,8.028,19.184,10,12,10z"/>
		</g>
		<g>
			<path d="M12,16c-0.202,0-0.384-0.121-0.461-0.308l-2.5-6C8.932,9.438,9.053,9.145,9.308,9.039
				c0.255-0.105,0.547,0.014,0.654,0.269L12,14.2l2.039-4.893c0.106-0.255,0.401-0.374,0.654-0.269
				c0.255,0.106,0.375,0.399,0.269,0.654l-2.5,6C12.384,15.879,12.202,16,12,16z"/>
		</g>
		<g>
			<path d="M21,15c-0.149,0-0.293-0.066-0.391-0.188l-4-5c-0.172-0.216-0.137-0.53,0.078-0.703c0.217-0.173,0.53-0.137,0.703,0.078
				l3.109,3.887V8.5C20.5,8.224,20.724,8,21,8s0.5,0.224,0.5,0.5v6c0,0.212-0.134,0.401-0.334,0.472C21.111,14.991,21.055,15,21,15z
				"/>
		</g>
		<g>
			<path d="M3,15c-0.055,0-0.111-0.009-0.166-0.028c-0.2-0.07-0.334-0.26-0.334-0.472v-6C2.5,8.224,2.724,8,3,8s0.5,0.224,0.5,0.5
				v4.574l3.109-3.887c0.173-0.214,0.488-0.25,0.703-0.078c0.215,0.173,0.25,0.487,0.078,0.703l-4,5C3.293,14.934,3.149,15,3,15z"/>
		</g>
	</g>
</g>
<g id="Birthday_Decoration_2">
</g>
<g id="Birthday_Decoration_3">
</g>
<g id="Horn_1">
</g>
<g id="Horn_2">
</g>
<g id="Baloon">
</g>
<g id="Balloons_1">
</g>
<g id="Balloons_2">
</g>
<g id="Birthday_Picture">
</g>
<g id="Kid_x27_s_Champagne">
</g>
<g id="Candy">
</g>
<g id="Birthday_Card">
</g>
<g id="Flowers">
</g>
<g id="Birthday_Song">
</g>
<g id="Candle">
</g>
<g id="Sweet_16">
</g>
<g id="Clown">
</g>
<g id="Clown_2">
</g>
<g id="Birthday_Party">
</g>
<g id="Giving_Gift">
</g>
<g id="Present_5">
</g>
<g id="Champagne_in_ice_bucket">
</g>
<g id="Beer">
</g>
<g id="Truffles">
</g>
<g id="Pinata">
</g>
</svg>
