<?xml version="1.0" encoding="iso-8859-1"?>
<!-- Generator: Adobe Illustrator 19.2.1, SVG Export Plug-In . SVG Version: 6.00 Build 0)  -->
<svg version="1.1" xmlns="http://www.w3.org/2000/svg" xmlns:xlink="http://www.w3.org/1999/xlink" x="0px" y="0px"
	 viewBox="0 0 24 24" style="enable-background:new 0 0 24 24;" xml:space="preserve">
<g id="Present_1">
</g>
<g id="Present_2">
</g>
<g id="Present_3">
</g>
<g id="Present_Cake">
</g>
<g id="Present_4">
</g>
<g id="Birthday_Cake_1">
</g>
<g id="Birthday_Cake_2">
</g>
<g id="Cake_Piece">
</g>
<g id="Cupcake">
</g>
<g id="Lollipop">
</g>
<g id="Birthday_Greetings_1">
</g>
<g id="Party_Greetings_2">
</g>
<g id="Birthday_Invitation">
</g>
<g id="Birthday_1">
</g>
<g id="Birthday_2">
</g>
<g id="Birthday_Message_1">
</g>
<g id="Birthday_Message_2">
	<g>
		<g>
			<g>
				<path d="M4.5,23c-0.109,0-0.219-0.036-0.309-0.107c-0.175-0.137-0.238-0.373-0.155-0.579L5.762,18H3.5C1.57,18,0,16.43,0,14.5
					v-10C0,2.57,1.57,1,3.5,1h16C21.43,1,23,2.57,23,4.5v10c0,1.93-1.57,3.5-3.5,3.5h-7.84l-6.869,4.907
					C4.703,22.969,4.602,23,4.5,23z M3.5,2C2.121,2,1,3.122,1,4.5v10C1,15.878,2.121,17,3.5,17h3c0.166,0,0.321,0.083,0.414,0.22
					s0.111,0.312,0.05,0.466l-1.366,3.416l5.611-4.008C11.294,17.033,11.396,17,11.5,17h8c1.379,0,2.5-1.122,2.5-2.5v-10
					C22,3.122,20.879,2,19.5,2H3.5z"/>
			</g>
		</g>
		<g>
			<path d="M15.5,15h-8C6.673,15,6,14.327,6,13.5v-2C6,11.224,6.224,11,6.5,11S7,11.224,7,11.5v2C7,13.776,7.225,14,7.5,14h8
				c0.275,0,0.5-0.224,0.5-0.5v-2c0-0.276,0.224-0.5,0.5-0.5s0.5,0.224,0.5,0.5v2C17,14.327,16.327,15,15.5,15z"/>
		</g>
		<g>
			<path d="M11.5,12c-0.816,0-1.543-0.394-1.999-1c-0.111,0.147-0.238,0.284-0.382,0.405c-0.56,0.477-1.304,0.681-2.035,0.562
				C5.896,11.772,5,10.667,5,9.393C5,8.072,6.072,7,7.39,7h8.221C16.928,7,18,8.072,18,9.39v0.003c0,1.273-0.896,2.379-2.084,2.573
				c-0.731,0.119-1.475-0.085-2.035-0.562c-0.144-0.122-0.271-0.258-0.382-0.405C13.043,11.606,12.316,12,11.5,12z M7.39,8
				C6.623,8,6,8.624,6,9.39c0,0.792,0.535,1.474,1.244,1.589c0.451,0.074,0.887-0.046,1.228-0.336C8.808,10.357,9,9.94,9,9.5
				C9,9.224,9.224,9,9.5,9S10,9.224,10,9.5c0,0.827,0.673,1.5,1.5,1.5S13,10.327,13,9.5C13,9.224,13.224,9,13.5,9S14,9.224,14,9.5
				c0,0.44,0.192,0.857,0.528,1.143c0.341,0.29,0.775,0.41,1.228,0.336C16.465,10.864,17,10.182,17,9.393V9.39
				C17,8.624,16.377,8,15.61,8H7.39z"/>
		</g>
		<g>
			<path d="M11.5,8C11.224,8,11,7.776,11,7.5V5c0-0.276,0.224-0.5,0.5-0.5S12,4.724,12,5v2.5C12,7.776,11.776,8,11.5,8z"/>
		</g>
		<g>
			<path d="M11.5,5.5c-0.552,0-1-0.449-1-1c0-0.357,0.32-0.896,0.589-1.284c0.186-0.271,0.637-0.271,0.822,0
				C12.18,3.604,12.5,4.143,12.5,4.5C12.5,5.051,12.052,5.5,11.5,5.5z"/>
		</g>
	</g>
</g>
<g id="Birthyday_Hat_1">
</g>
<g id="Birthay_Hat_2">
</g>
<g id="Birthday_Hat3">
</g>
<g id="Birthday_Decoration_1">
</g>
<g id="Birthday_Decoration_2">
</g>
<g id="Birthday_Decoration_3">
</g>
<g id="Horn_1">
</g>
<g id="Horn_2">
</g>
<g id="Baloon">
</g>
<g id="Balloons_1">
</g>
<g id="Balloons_2">
</g>
<g id="Birthday_Picture">
</g>
<g id="Kid_x27_s_Champagne">
</g>
<g id="Candy">
</g>
<g id="Birthday_Card">
</g>
<g id="Flowers">
</g>
<g id="Birthday_Song">
</g>
<g id="Candle">
</g>
<g id="Sweet_16">
</g>
<g id="Clown">
</g>
<g id="Clown_2">
</g>
<g id="Birthday_Party">
</g>
<g id="Giving_Gift">
</g>
<g id="Present_5">
</g>
<g id="Champagne_in_ice_bucket">
</g>
<g id="Beer">
</g>
<g id="Truffles">
</g>
<g id="Pinata">
</g>
</svg>
