<?xml version="1.0" encoding="iso-8859-1"?>
<!-- Generator: Adobe Illustrator 19.2.1, SVG Export Plug-In . SVG Version: 6.00 Build 0)  -->
<svg version="1.1" xmlns="http://www.w3.org/2000/svg" xmlns:xlink="http://www.w3.org/1999/xlink" x="0px" y="0px"
	 viewBox="0 0 24 24" style="enable-background:new 0 0 24 24;" xml:space="preserve">
<g id="Present_1">
</g>
<g id="Present_2">
</g>
<g id="Present_3">
</g>
<g id="Present_Cake">
</g>
<g id="Present_4">
</g>
<g id="Birthday_Cake_1">
</g>
<g id="Birthday_Cake_2">
</g>
<g id="Cake_Piece">
</g>
<g id="Cupcake">
</g>
<g id="Lollipop">
</g>
<g id="Birthday_Greetings_1">
	<g>
		<g>
			<path d="M0.753,23.675c-0.151,0-0.301-0.068-0.399-0.198c-0.167-0.22-0.124-0.534,0.097-0.701l9.623-7.292
				c0.852-0.648,2-0.649,2.854,0l9.622,7.292c0.22,0.167,0.264,0.48,0.097,0.7s-0.48,0.263-0.7,0.097l-9.623-7.292
				c-0.494-0.374-1.155-0.375-1.646,0l-9.624,7.293C0.964,23.642,0.858,23.675,0.753,23.675z"/>
		</g>
		<g>
			<path d="M12.781,16.5c-0.151,0-0.301-0.068-0.399-0.198c-0.167-0.22-0.123-0.534,0.097-0.701l9.677-7.322
				c0.22-0.167,0.534-0.124,0.701,0.097c0.167,0.22,0.123,0.534-0.097,0.701l-9.677,7.322C12.992,16.467,12.886,16.5,12.781,16.5z"
				/>
		</g>
		<g>
			<path d="M10.219,16.5c-0.105,0-0.211-0.033-0.301-0.101L0.242,9.077c-0.22-0.167-0.264-0.48-0.097-0.701
				c0.166-0.221,0.48-0.264,0.701-0.097l9.676,7.322c0.22,0.167,0.264,0.48,0.097,0.701C10.52,16.432,10.371,16.5,10.219,16.5z"/>
		</g>
		<g>
			<path d="M21.543,24H1.457C0.653,24,0,23.327,0,22.5V8.968c0-0.442,0.188-0.86,0.516-1.145l1.568-1.367
				c0.208-0.181,0.524-0.16,0.706,0.048S2.95,7.029,2.742,7.21L1.173,8.577C1.063,8.673,1,8.815,1,8.968V22.5
				C1,22.776,1.205,23,1.457,23h20.087C21.795,23,22,22.776,22,22.5V8.968c0-0.153-0.063-0.295-0.172-0.391L20.258,7.21
				c-0.208-0.181-0.23-0.497-0.048-0.706c0.181-0.208,0.499-0.229,0.706-0.048l1.569,1.367C22.812,8.108,23,8.526,23,8.968V22.5
				C23,23.327,22.347,24,21.543,24z"/>
		</g>
		<g>
			<path d="M20.5,10.593c-0.276,0-0.5-0.224-0.5-0.5V1H3v9.087c0,0.276-0.224,0.5-0.5,0.5S2,10.364,2,10.087V0.5
				C2,0.224,2.224,0,2.5,0h18C20.776,0,21,0.224,21,0.5v9.593C21,10.37,20.776,10.593,20.5,10.593z"/>
		</g>
		<g>
			<path d="M6.5,9C6.224,9,6,8.776,6,8.5v-4C6,4.224,6.224,4,6.5,4S7,4.224,7,4.5v4C7,8.776,6.776,9,6.5,9z"/>
		</g>
		<g>
			<path d="M8.5,7h-2C6.224,7,6,6.776,6,6.5S6.224,6,6.5,6h2C8.776,6,9,6.224,9,6.5S8.776,7,8.5,7z"/>
		</g>
		<g>
			<path d="M8.5,9C8.224,9,8,8.776,8,8.5v-4C8,4.224,8.224,4,8.5,4S9,4.224,9,4.5v4C9,8.776,8.776,9,8.5,9z"/>
		</g>
		<g>
			<path d="M11.5,9h-1C10.224,9,10,8.776,10,8.5v-4C10,4.224,10.224,4,10.5,4h1C12.327,4,13,4.673,13,5.5
				c0,0.384-0.145,0.734-0.383,1C12.855,6.766,13,7.116,13,7.5C13,8.327,12.327,9,11.5,9z M11,8h0.5C11.776,8,12,7.776,12,7.5
				S11.776,7,11.5,7C11.224,7,11,6.776,11,6.5V8z M11,6.5h0.01H11z M11,5v1.5C11,6.224,11.224,6,11.5,6C11.776,6,12,5.776,12,5.5
				S11.776,5,11.5,5H11z"/>
		</g>
		<g>
			<path d="M11.5,7h-1C10.224,7,10,6.776,10,6.5S10.224,6,10.5,6h1C11.776,6,12,6.224,12,6.5S11.776,7,11.5,7z"/>
		</g>
		<g>
			<path d="M14.5,9C14.224,9,14,8.776,14,8.5v-4C14,4.224,14.224,4,14.5,4C15.878,4,17,5.122,17,6.5S15.878,9,14.5,9z M15,5.085
				v2.829c0.582-0.207,1-0.763,1-1.415S15.582,5.292,15,5.085z"/>
		</g>
	</g>
</g>
<g id="Party_Greetings_2">
</g>
<g id="Birthday_Invitation">
</g>
<g id="Birthday_1">
</g>
<g id="Birthday_2">
</g>
<g id="Birthday_Message_1">
</g>
<g id="Birthday_Message_2">
</g>
<g id="Birthyday_Hat_1">
</g>
<g id="Birthay_Hat_2">
</g>
<g id="Birthday_Hat3">
</g>
<g id="Birthday_Decoration_1">
</g>
<g id="Birthday_Decoration_2">
</g>
<g id="Birthday_Decoration_3">
</g>
<g id="Horn_1">
</g>
<g id="Horn_2">
</g>
<g id="Baloon">
</g>
<g id="Balloons_1">
</g>
<g id="Balloons_2">
</g>
<g id="Birthday_Picture">
</g>
<g id="Kid_x27_s_Champagne">
</g>
<g id="Candy">
</g>
<g id="Birthday_Card">
</g>
<g id="Flowers">
</g>
<g id="Birthday_Song">
</g>
<g id="Candle">
</g>
<g id="Sweet_16">
</g>
<g id="Clown">
</g>
<g id="Clown_2">
</g>
<g id="Birthday_Party">
</g>
<g id="Giving_Gift">
</g>
<g id="Present_5">
</g>
<g id="Champagne_in_ice_bucket">
</g>
<g id="Beer">
</g>
<g id="Truffles">
</g>
<g id="Pinata">
</g>
</svg>
