<?xml version="1.0" encoding="iso-8859-1"?>
<!-- Generator: Adobe Illustrator 19.2.1, SVG Export Plug-In . SVG Version: 6.00 Build 0)  -->
<svg version="1.1" xmlns="http://www.w3.org/2000/svg" xmlns:xlink="http://www.w3.org/1999/xlink" x="0px" y="0px"
	 viewBox="0 0 24 24" style="enable-background:new 0 0 24 24;" xml:space="preserve">
<g id="Present_1">
</g>
<g id="Present_2">
</g>
<g id="Present_3">
</g>
<g id="Present_Cake">
</g>
<g id="Present_4">
</g>
<g id="Birthday_Cake_1">
</g>
<g id="Birthday_Cake_2">
</g>
<g id="Cake_Piece">
</g>
<g id="Cupcake">
</g>
<g id="Lollipop">
</g>
<g id="Birthday_Greetings_1">
</g>
<g id="Party_Greetings_2">
</g>
<g id="Birthday_Invitation">
</g>
<g id="Birthday_1">
</g>
<g id="Birthday_2">
</g>
<g id="Birthday_Message_1">
	<g>
		<g>
			<g>
				<path d="M14.5,17h-5C8.673,17,8,16.327,8,15.5v-1C8,14.224,8.224,14,8.5,14S9,14.224,9,14.5v1C9,15.776,9.225,16,9.5,16h5
					c0.275,0,0.5-0.224,0.5-0.5v-1c0-0.276,0.224-0.5,0.5-0.5s0.5,0.224,0.5,0.5v1C16,16.327,15.327,17,14.5,17z"/>
			</g>
			<g>
				<path d="M12,8.5c-0.552,0-1-0.449-1-1c0-0.357,0.32-0.896,0.589-1.284c0.186-0.271,0.637-0.271,0.822,0
					C12.68,6.604,13,7.143,13,7.5C13,8.051,12.552,8.5,12,8.5z"/>
			</g>
			<g>
				<path d="M15,15c-0.597,0-1.133-0.263-1.5-0.679C13.133,14.737,12.597,15,12,15s-1.133-0.263-1.5-0.679
					C10.133,14.737,9.597,15,9,15c-1.103,0-2-0.897-2-2v-0.5C7,11.673,7.673,11,8.5,11h7c0.827,0,1.5,0.673,1.5,1.5V13
					C17,14.103,16.103,15,15,15z M14,13c0,0.551,0.448,1,1,1s1-0.449,1-1v-0.5c0-0.276-0.225-0.5-0.5-0.5h-7
					C8.225,12,8,12.224,8,12.5V13c0,0.551,0.448,1,1,1s1-0.449,1-1c0-0.276,0.224-0.5,0.5-0.5S11,12.724,11,13c0,0.551,0.448,1,1,1
					s1-0.449,1-1c0-0.276,0.224-0.5,0.5-0.5S14,12.724,14,13z"/>
			</g>
			<g>
				<path d="M12.5,12h-1c-0.276,0-0.5-0.224-0.5-0.5V9c0-0.276,0.224-0.5,0.5-0.5h1C12.776,8.5,13,8.724,13,9v2.5
					C13,11.776,12.776,12,12.5,12z M12,11V9.5V11z"/>
			</g>
		</g>
		<g>
			<g>
				<path d="M15.5,24h-7C6.57,24,5,22.43,5,20.5v-17C5,1.57,6.57,0,8.5,0h7C17.43,0,19,1.57,19,3.5v17C19,22.43,17.43,24,15.5,24z
					 M8.5,1C7.121,1,6,2.122,6,3.5v17C6,21.878,7.121,23,8.5,23h7c1.379,0,2.5-1.122,2.5-2.5v-17C18,2.122,16.879,1,15.5,1H8.5z"/>
			</g>
			<g>
				<path d="M18.5,19h-13C5.224,19,5,18.776,5,18.5S5.224,18,5.5,18h13c0.276,0,0.5,0.224,0.5,0.5S18.776,19,18.5,19z"/>
			</g>
			<g id="XMLID_50_">
				<path d="M18.5,5h-13C5.224,5,5,4.776,5,4.5S5.224,4,5.5,4h13C18.776,4,19,4.224,19,4.5S18.776,5,18.5,5z"/>
			</g>
			<g id="XMLID_52_">
				<path d="M12,22c-0.552,0-1-0.449-1-1s0.448-1,1-1s1,0.449,1,1S12.552,22,12,22z M12,20.999C12,21,12,21,12,20.999L12.5,21
					L12,20.999z"/>
			</g>
			<g id="XMLID_53_">
				<path d="M12.5,3h-1C11.224,3,11,2.776,11,2.5S11.224,2,11.5,2h1C12.776,2,13,2.224,13,2.5S12.776,3,12.5,3z"/>
			</g>
			<g id="XMLID_54_">
				<path d="M15.52,3c-0.275,0-0.505-0.224-0.505-0.5S15.233,2,15.51,2h0.01c0.276,0,0.5,0.224,0.5,0.5S15.796,3,15.52,3z"/>
			</g>
		</g>
	</g>
</g>
<g id="Birthday_Message_2">
</g>
<g id="Birthyday_Hat_1">
</g>
<g id="Birthay_Hat_2">
</g>
<g id="Birthday_Hat3">
</g>
<g id="Birthday_Decoration_1">
</g>
<g id="Birthday_Decoration_2">
</g>
<g id="Birthday_Decoration_3">
</g>
<g id="Horn_1">
</g>
<g id="Horn_2">
</g>
<g id="Baloon">
</g>
<g id="Balloons_1">
</g>
<g id="Balloons_2">
</g>
<g id="Birthday_Picture">
</g>
<g id="Kid_x27_s_Champagne">
</g>
<g id="Candy">
</g>
<g id="Birthday_Card">
</g>
<g id="Flowers">
</g>
<g id="Birthday_Song">
</g>
<g id="Candle">
</g>
<g id="Sweet_16">
</g>
<g id="Clown">
</g>
<g id="Clown_2">
</g>
<g id="Birthday_Party">
</g>
<g id="Giving_Gift">
</g>
<g id="Present_5">
</g>
<g id="Champagne_in_ice_bucket">
</g>
<g id="Beer">
</g>
<g id="Truffles">
</g>
<g id="Pinata">
</g>
</svg>
