<?xml version="1.0" encoding="iso-8859-1"?>
<!-- Generator: Adobe Illustrator 19.2.1, SVG Export Plug-In . SVG Version: 6.00 Build 0)  -->
<svg version="1.1" xmlns="http://www.w3.org/2000/svg" xmlns:xlink="http://www.w3.org/1999/xlink" x="0px" y="0px"
	 viewBox="0 0 24 24" style="enable-background:new 0 0 24 24;" xml:space="preserve">
<g id="Present_1">
</g>
<g id="Present_2">
</g>
<g id="Present_3">
</g>
<g id="Present_Cake">
</g>
<g id="Present_4">
</g>
<g id="Birthday_Cake_1">
</g>
<g id="Birthday_Cake_2">
</g>
<g id="Cake_Piece">
</g>
<g id="Cupcake">
</g>
<g id="Lollipop">
</g>
<g id="Birthday_Greetings_1">
</g>
<g id="Party_Greetings_2">
</g>
<g id="Birthday_Invitation">
</g>
<g id="Birthday_1">
</g>
<g id="Birthday_2">
</g>
<g id="Birthday_Message_1">
</g>
<g id="Birthday_Message_2">
</g>
<g id="Birthyday_Hat_1">
</g>
<g id="Birthay_Hat_2">
</g>
<g id="Birthday_Hat3">
</g>
<g id="Birthday_Decoration_1">
</g>
<g id="Birthday_Decoration_2">
	<g>
		<g>
			<path d="M6.095,17.043c-3.525,0-5.595-0.533-5.724-0.567c-0.267-0.071-0.425-0.345-0.354-0.611
				c0.07-0.267,0.344-0.427,0.611-0.355c0.046,0.011,4.638,1.187,11.79-0.01c7.132-1.193,10.745-3.878,10.78-3.905
				c0.22-0.167,0.533-0.124,0.7,0.096s0.125,0.533-0.095,0.7c-0.152,0.116-3.822,2.857-11.22,4.095
				C10.083,16.903,7.899,17.043,6.095,17.043z"/>
		</g>
		<g>
			<path d="M17.905,6.043c-1.804,0-3.987-0.14-6.487-0.558C4.019,4.248,0.35,1.507,0.197,1.391c-0.22-0.167-0.262-0.48-0.095-0.7
				s0.48-0.262,0.7-0.096C0.838,0.622,4.45,3.307,11.583,4.5c7.153,1.197,11.744,0.022,11.79,0.01
				c0.268-0.071,0.541,0.088,0.611,0.355c0.071,0.267-0.088,0.541-0.354,0.611C23.5,5.51,21.429,6.043,17.905,6.043z"/>
		</g>
		<g>
			<path d="M5.5,22.492c-1.378,0-2.5-1.121-2.5-2.5v-3.5c0-0.276,0.224-0.5,0.5-0.5s0.5,0.224,0.5,0.5v3.5
				c0,0.827,0.673,1.5,1.5,1.5s1.5-0.673,1.5-1.5v-3.5c0-0.276,0.224-0.5,0.5-0.5s0.5,0.224,0.5,0.5v3.5
				C8,21.371,6.878,22.492,5.5,22.492z"/>
		</g>
		<g>
			<path d="M21.503,19.492c-0.978,0-1.908-0.577-2.309-1.533l-1.36-3.244c-0.107-0.255,0.013-0.548,0.268-0.654
				c0.254-0.105,0.548,0.013,0.654,0.268l1.36,3.244c0.321,0.764,1.202,1.124,1.963,0.804c0.763-0.32,1.124-1.201,0.804-1.964
				l-1.377-3.287c-0.107-0.254,0.013-0.547,0.268-0.654c0.255-0.108,0.548,0.013,0.654,0.268l1.377,3.287
				c0.533,1.271-0.067,2.739-1.339,3.272C22.151,19.43,21.825,19.492,21.503,19.492z"/>
		</g>
		<g>
			<path d="M13.988,22.5c-0.493,0-0.975-0.146-1.392-0.428c-0.554-0.373-0.929-0.94-1.056-1.596l-0.75-3.858
				c-0.053-0.271,0.124-0.534,0.396-0.587c0.271-0.053,0.533,0.125,0.586,0.396l0.75,3.858c0.077,0.394,0.302,0.734,0.634,0.958
				c0.332,0.225,0.734,0.309,1.125,0.229c0.812-0.157,1.345-0.946,1.187-1.758l-0.745-3.832c-0.053-0.271,0.124-0.534,0.396-0.587
				c0.269-0.049,0.533,0.124,0.586,0.396l0.745,3.832c0.263,1.354-0.625,2.668-1.977,2.932C14.31,22.485,14.148,22.5,13.988,22.5z"
				/>
		</g>
		<g>
			<path d="M18.5,11.493c-0.196,0-0.374-0.115-0.455-0.293l-2.5-5.5c-0.114-0.251-0.003-0.548,0.248-0.662
				c0.253-0.116,0.548-0.003,0.662,0.248L18.5,9.784l2.045-4.499c0.113-0.251,0.409-0.364,0.662-0.248
				c0.251,0.114,0.362,0.411,0.248,0.662l-2.5,5.5C18.874,11.378,18.696,11.493,18.5,11.493z"/>
		</g>
		<g>
			<path d="M1.5,8.493c-0.064,0-0.129-0.012-0.191-0.038C1.122,8.377,1,8.195,1,7.993v-6c0-0.276,0.224-0.5,0.5-0.5S2,1.716,2,1.993
				v4.793l3.146-3.146c0.195-0.195,0.512-0.195,0.707,0s0.195,0.512,0,0.707l-4,4C1.758,8.442,1.63,8.493,1.5,8.493z"/>
		</g>
		<g>
			<path d="M9.5,11.493c-0.034,0-0.068-0.003-0.103-0.011c-0.204-0.043-0.36-0.208-0.392-0.413l-1-6.5
				c-0.042-0.273,0.145-0.528,0.418-0.57c0.272-0.04,0.528,0.145,0.57,0.418l0.798,5.186l2.786-4.378
				c0.149-0.231,0.458-0.3,0.69-0.153c0.233,0.148,0.302,0.458,0.153,0.69l-3.5,5.5C9.829,11.407,9.668,11.493,9.5,11.493z"/>
		</g>
	</g>
</g>
<g id="Birthday_Decoration_3">
</g>
<g id="Horn_1">
</g>
<g id="Horn_2">
</g>
<g id="Baloon">
</g>
<g id="Balloons_1">
</g>
<g id="Balloons_2">
</g>
<g id="Birthday_Picture">
</g>
<g id="Kid_x27_s_Champagne">
</g>
<g id="Candy">
</g>
<g id="Birthday_Card">
</g>
<g id="Flowers">
</g>
<g id="Birthday_Song">
</g>
<g id="Candle">
</g>
<g id="Sweet_16">
</g>
<g id="Clown">
</g>
<g id="Clown_2">
</g>
<g id="Birthday_Party">
</g>
<g id="Giving_Gift">
</g>
<g id="Present_5">
</g>
<g id="Champagne_in_ice_bucket">
</g>
<g id="Beer">
</g>
<g id="Truffles">
</g>
<g id="Pinata">
</g>
</svg>
