<?xml version="1.0" encoding="iso-8859-1"?>
<!-- Generator: Adobe Illustrator 19.2.1, SVG Export Plug-In . SVG Version: 6.00 Build 0)  -->
<svg version="1.1" xmlns="http://www.w3.org/2000/svg" xmlns:xlink="http://www.w3.org/1999/xlink" x="0px" y="0px"
	 viewBox="0 0 24 24" style="enable-background:new 0 0 24 24;" xml:space="preserve">
<g id="Present_1">
</g>
<g id="Present_2">
</g>
<g id="Present_3">
</g>
<g id="Present_Cake">
</g>
<g id="Present_4">
</g>
<g id="Birthday_Cake_1">
</g>
<g id="Birthday_Cake_2">
</g>
<g id="Cake_Piece">
</g>
<g id="Cupcake">
</g>
<g id="Lollipop">
</g>
<g id="Birthday_Greetings_1">
</g>
<g id="Party_Greetings_2">
</g>
<g id="Birthday_Invitation">
</g>
<g id="Birthday_1">
</g>
<g id="Birthday_2">
</g>
<g id="Birthday_Message_1">
</g>
<g id="Birthday_Message_2">
</g>
<g id="Birthyday_Hat_1">
</g>
<g id="Birthay_Hat_2">
</g>
<g id="Birthday_Hat3">
</g>
<g id="Birthday_Decoration_1">
</g>
<g id="Birthday_Decoration_2">
</g>
<g id="Birthday_Decoration_3">
</g>
<g id="Horn_1">
</g>
<g id="Horn_2">
</g>
<g id="Baloon">
</g>
<g id="Balloons_1">
</g>
<g id="Balloons_2">
</g>
<g id="Birthday_Picture">
</g>
<g id="Kid_x27_s_Champagne">
</g>
<g id="Candy">
</g>
<g id="Birthday_Card">
</g>
<g id="Flowers">
</g>
<g id="Birthday_Song">
	<g>
		<g>
			<path d="M15.5,22.99h-8c-0.827,0-1.5-0.673-1.5-1.5v-2c0-0.276,0.224-0.5,0.5-0.5S7,19.214,7,19.49v2c0,0.275,0.224,0.5,0.5,0.5
				h8c0.276,0,0.5-0.225,0.5-0.5v-2c0-0.276,0.224-0.5,0.5-0.5s0.5,0.224,0.5,0.5v2C17,22.317,16.327,22.99,15.5,22.99z"/>
		</g>
		<g>
			<path d="M11.5,19.99c-0.816,0-1.543-0.394-2-1.001c-0.11,0.147-0.238,0.283-0.381,0.405c-0.559,0.478-1.301,0.682-2.036,0.562
				C5.896,19.763,5,18.656,5,17.383c0-1.32,1.072-2.393,2.39-2.393h8.22c1.318,0,2.39,1.072,2.39,2.39v0.003
				c0,1.273-0.896,2.38-2.083,2.573c-0.733,0.119-1.477-0.084-2.036-0.562c-0.143-0.122-0.271-0.258-0.381-0.405
				C13.043,19.597,12.316,19.99,11.5,19.99z M7.39,15.99C6.624,15.99,6,16.613,6,17.38c0,0.792,0.535,1.474,1.245,1.59
				c0.448,0.072,0.886-0.047,1.227-0.337C8.808,18.347,9,17.931,9,17.49c0-0.276,0.224-0.5,0.5-0.5s0.5,0.224,0.5,0.5
				c0,0.827,0.673,1.5,1.5,1.5s1.5-0.673,1.5-1.5c0-0.276,0.224-0.5,0.5-0.5s0.5,0.224,0.5,0.5c0,0.44,0.192,0.856,0.528,1.143
				c0.34,0.29,0.775,0.406,1.228,0.337C16.465,18.854,17,18.172,17,17.383V17.38c0-0.767-0.624-1.39-1.39-1.39H7.39z"/>
		</g>
		<g>
			<path d="M11.5,15.99c-0.276,0-0.5-0.224-0.5-0.5v-2.5c0-0.276,0.224-0.5,0.5-0.5s0.5,0.224,0.5,0.5v2.5
				C12,15.767,11.776,15.99,11.5,15.99z"/>
		</g>
		<g>
			<path d="M11.5,13.49c-0.551,0-1-0.448-1-1c0-0.357,0.32-0.896,0.589-1.284c0.187-0.27,0.636-0.27,0.822,0
				c0.269,0.389,0.589,0.927,0.589,1.284C12.5,13.042,12.051,13.49,11.5,13.49z"/>
		</g>
		<g>
			<path d="M18.361,12.99c-0.611,0-1.1-0.239-1.286-0.687c-0.295-0.707,0.31-1.586,1.408-2.044c1.1-0.46,2.149-0.27,2.444,0.437l0,0
				c0.295,0.707-0.311,1.586-1.408,2.044C19.114,12.909,18.717,12.99,18.361,12.99z M19.648,11.011c-0.2,0-0.469,0.042-0.781,0.172
				c-0.62,0.259-0.875,0.644-0.868,0.745c0.061,0.061,0.513,0.148,1.133-0.11c0.601-0.251,0.859-0.619,0.868-0.734
				C19.958,11.047,19.833,11.011,19.648,11.011z M20.008,11.09h0.01H20.008z"/>
		</g>
		<g>
			<path d="M20.5,11.51c-0.276,0-0.5-0.224-0.5-0.5v-6.5c0-0.185,0.102-0.354,0.264-0.44c0.162-0.088,0.36-0.077,0.513,0.024l3,2
				c0.23,0.153,0.292,0.464,0.139,0.693s-0.464,0.291-0.693,0.139L21,5.444v5.565C21,11.286,20.776,11.51,20.5,11.51z"/>
		</g>
		<g>
			<path d="M1.361,11.99c-0.611,0-1.1-0.239-1.286-0.687c-0.295-0.707,0.31-1.586,1.408-2.044c1.101-0.459,2.149-0.271,2.444,0.437
				l0,0c0.295,0.707-0.311,1.586-1.408,2.044C2.114,11.909,1.717,11.99,1.361,11.99z M2.648,10.011c-0.2,0-0.469,0.042-0.781,0.172
				C1.248,10.441,0.992,10.826,1,10.928c0.061,0.061,0.513,0.148,1.133-0.11c0.601-0.251,0.859-0.619,0.868-0.734
				C2.958,10.047,2.833,10.011,2.648,10.011z M3.008,10.09h0.01H3.008z"/>
		</g>
		<g>
			<path d="M3.5,10.51c-0.276,0-0.5-0.224-0.5-0.5v-6.5c0-0.215,0.138-0.406,0.342-0.475l5.999-2c0.152-0.05,0.32-0.025,0.451,0.069
				c0.13,0.094,0.208,0.244,0.208,0.405v6.5c0,0.276-0.224,0.5-0.5,0.5s-0.5-0.224-0.5-0.5V2.203L4,3.87v6.14
				C4,10.286,3.776,10.51,3.5,10.51z"/>
		</g>
		<g>
			<path d="M7.36,9.99c-0.612,0-1.101-0.239-1.287-0.687C5.779,8.597,6.384,7.718,7.482,7.26C8.581,6.801,9.63,6.989,9.925,7.696
				l0,0c0.295,0.707-0.31,1.586-1.408,2.044C8.113,9.909,7.716,9.99,7.36,9.99z M8.647,8.011c-0.2,0-0.469,0.042-0.78,0.172
				C7.247,8.441,6.991,8.826,6.999,8.928c0.061,0.061,0.513,0.147,1.133-0.11C8.733,8.566,8.991,8.198,9,8.083
				C8.957,8.047,8.832,8.011,8.647,8.011z"/>
		</g>
	</g>
</g>
<g id="Candle">
</g>
<g id="Sweet_16">
</g>
<g id="Clown">
</g>
<g id="Clown_2">
</g>
<g id="Birthday_Party">
</g>
<g id="Giving_Gift">
</g>
<g id="Present_5">
</g>
<g id="Champagne_in_ice_bucket">
</g>
<g id="Beer">
</g>
<g id="Truffles">
</g>
<g id="Pinata">
</g>
</svg>
