<?xml version="1.0" encoding="iso-8859-1"?>
<!-- Generator: Adobe Illustrator 19.2.1, SVG Export Plug-In . SVG Version: 6.00 Build 0)  -->
<svg version="1.1" xmlns="http://www.w3.org/2000/svg" xmlns:xlink="http://www.w3.org/1999/xlink" x="0px" y="0px"
	 viewBox="0 0 24 24" style="enable-background:new 0 0 24 24;" xml:space="preserve">
<g id="Present_1">
</g>
<g id="Present_2">
</g>
<g id="Present_3">
</g>
<g id="Present_Cake">
</g>
<g id="Present_4">
</g>
<g id="Birthday_Cake_1">
	<g>
		<g>
			<path d="M18.5,24h-14C3.121,24,2,22.878,2,21.5V17c0-0.276,0.224-0.5,0.5-0.5S3,16.724,3,17v4.5C3,22.327,3.673,23,4.5,23h14
				c0.827,0,1.5-0.673,1.5-1.5V17c0-0.276,0.224-0.5,0.5-0.5S21,16.724,21,17v4.5C21,22.878,19.879,24,18.5,24z"/>
		</g>
		<g>
			<path d="M12.5,11h-2c-0.276,0-0.5-0.224-0.5-0.5v-5C10,4.673,10.673,4,11.5,4S13,4.673,13,5.5v5C13,10.776,12.776,11,12.5,11z
				 M11,10h1V5.5C12,5.224,11.775,5,11.5,5S11,5.224,11,5.5V10z"/>
		</g>
		<g>
			<path d="M14,18c-1.042,0-1.962-0.534-2.5-1.343C10.962,17.466,10.042,18,9,18s-1.962-0.534-2.5-1.343
				c-0.137,0.207-0.301,0.398-0.487,0.568c-0.627,0.567-1.472,0.842-2.32,0.759C2.183,17.833,1,16.46,1,14.857V13.5
				C1,11.57,2.57,10,4.5,10h14c1.93,0,3.5,1.57,3.5,3.5v1.357c0,1.603-1.183,2.976-2.692,3.127c-0.841,0.089-1.692-0.191-2.32-0.759
				c-0.187-0.17-0.351-0.361-0.487-0.568C15.962,17.466,15.042,18,14,18z M11.5,14.5c0.276,0,0.5,0.224,0.5,0.5c0,1.103,0.897,2,2,2
				s2-0.897,2-2c0-0.276,0.224-0.5,0.5-0.5S17,14.724,17,15c0,0.564,0.24,1.104,0.658,1.483c0.425,0.384,0.975,0.566,1.55,0.506
				c1.005-0.1,1.792-1.037,1.792-2.132V13.5c0-1.378-1.121-2.5-2.5-2.5h-14C3.121,11,2,12.122,2,13.5v1.357
				c0,1.095,0.787,2.032,1.792,2.132c0.576,0.06,1.125-0.122,1.55-0.506C5.76,16.104,6,15.564,6,15c0-0.276,0.224-0.5,0.5-0.5
				S7,14.724,7,15c0,1.103,0.897,2,2,2s2-0.897,2-2C11,14.724,11.224,14.5,11.5,14.5z"/>
		</g>
		<g>
			<path d="M11.5,5C10.673,5,10,4.327,10,3.5c0-0.604,0.794-2.594,1.037-3.189c0.154-0.376,0.771-0.376,0.926,0
				C12.206,0.906,13,2.896,13,3.5C13,4.327,12.327,5,11.5,5z M11.5,1.88C11.221,2.638,11.003,3.309,11,3.5C11,3.776,11.225,4,11.5,4
				S12,3.776,12,3.5C11.997,3.309,11.779,2.638,11.5,1.88z"/>
		</g>
	</g>
</g>
<g id="Birthday_Cake_2">
</g>
<g id="Cake_Piece">
</g>
<g id="Cupcake">
</g>
<g id="Lollipop">
</g>
<g id="Birthday_Greetings_1">
</g>
<g id="Party_Greetings_2">
</g>
<g id="Birthday_Invitation">
</g>
<g id="Birthday_1">
</g>
<g id="Birthday_2">
</g>
<g id="Birthday_Message_1">
</g>
<g id="Birthday_Message_2">
</g>
<g id="Birthyday_Hat_1">
</g>
<g id="Birthay_Hat_2">
</g>
<g id="Birthday_Hat3">
</g>
<g id="Birthday_Decoration_1">
</g>
<g id="Birthday_Decoration_2">
</g>
<g id="Birthday_Decoration_3">
</g>
<g id="Horn_1">
</g>
<g id="Horn_2">
</g>
<g id="Baloon">
</g>
<g id="Balloons_1">
</g>
<g id="Balloons_2">
</g>
<g id="Birthday_Picture">
</g>
<g id="Kid_x27_s_Champagne">
</g>
<g id="Candy">
</g>
<g id="Birthday_Card">
</g>
<g id="Flowers">
</g>
<g id="Birthday_Song">
</g>
<g id="Candle">
</g>
<g id="Sweet_16">
</g>
<g id="Clown">
</g>
<g id="Clown_2">
</g>
<g id="Birthday_Party">
</g>
<g id="Giving_Gift">
</g>
<g id="Present_5">
</g>
<g id="Champagne_in_ice_bucket">
</g>
<g id="Beer">
</g>
<g id="Truffles">
</g>
<g id="Pinata">
</g>
</svg>
