<?xml version="1.0" encoding="iso-8859-1"?>
<!-- Generator: Adobe Illustrator 19.2.1, SVG Export Plug-In . SVG Version: 6.00 Build 0)  -->
<svg version="1.1" xmlns="http://www.w3.org/2000/svg" xmlns:xlink="http://www.w3.org/1999/xlink" x="0px" y="0px"
	 viewBox="0 0 24 24" style="enable-background:new 0 0 24 24;" xml:space="preserve">
<g id="Present_1">
</g>
<g id="Present_2">
</g>
<g id="Present_3">
</g>
<g id="Present_Cake">
</g>
<g id="Present_4">
</g>
<g id="Birthday_Cake_1">
</g>
<g id="Birthday_Cake_2">
</g>
<g id="Cake_Piece">
</g>
<g id="Cupcake">
</g>
<g id="Lollipop">
</g>
<g id="Birthday_Greetings_1">
</g>
<g id="Party_Greetings_2">
</g>
<g id="Birthday_Invitation">
</g>
<g id="Birthday_1">
</g>
<g id="Birthday_2">
</g>
<g id="Birthday_Message_1">
</g>
<g id="Birthday_Message_2">
</g>
<g id="Birthyday_Hat_1">
</g>
<g id="Birthay_Hat_2">
</g>
<g id="Birthday_Hat3">
</g>
<g id="Birthday_Decoration_1">
</g>
<g id="Birthday_Decoration_2">
</g>
<g id="Birthday_Decoration_3">
</g>
<g id="Horn_1">
</g>
<g id="Horn_2">
</g>
<g id="Baloon">
</g>
<g id="Balloons_1">
</g>
<g id="Balloons_2">
</g>
<g id="Birthday_Picture">
</g>
<g id="Kid_x27_s_Champagne">
</g>
<g id="Candy">
</g>
<g id="Birthday_Card">
</g>
<g id="Flowers">
</g>
<g id="Birthday_Song">
</g>
<g id="Candle">
</g>
<g id="Sweet_16">
</g>
<g id="Clown">
</g>
<g id="Clown_2">
</g>
<g id="Birthday_Party">
	<g>
		<g>
			<path d="M10.5,8C9.121,8,8,6.879,8,5.5S9.121,3,10.5,3S13,4.121,13,5.5S11.879,8,10.5,8z M10.5,4C9.673,4,9,4.673,9,5.5
				S9.673,7,10.5,7S12,6.327,12,5.5S11.327,4,10.5,4z"/>
		</g>
		<g>
			<path d="M12,24c-0.597,0-1.133-0.263-1.5-0.679C10.133,23.737,9.597,24,9,24c-1.103,0-2-0.897-2-2v-5.05
				c-1.14-0.232-2-1.243-2-2.45v-3C5,10.121,6.121,9,7.5,9h5.172c0.395,0,0.781-0.16,1.061-0.439l2.707-2.707
				c0.956-0.958,1.656-0.464,1.914-0.207l0.5,0.5c0.443,0.443,0.456,1.163,0.03,1.674L14,12.707V22C14,23.103,13.103,24,12,24z
				 M11,22c0,0.552,0.448,1,1,1s1-0.448,1-1v-9.5c0-0.133,0.053-0.26,0.146-0.354l5-5c0.048-0.061,0.081-0.212,0-0.293l-0.5-0.5
				c-0.058-0.059-0.145-0.147-0.5,0.207l-2.707,2.707C13.967,9.74,13.34,10,12.672,10H7.5C6.673,10,6,10.673,6,11.5v3
				c0,0.652,0.418,1.208,1,1.414V12.5C7,12.224,7.224,12,7.5,12S8,12.224,8,12.5V22c0,0.552,0.448,1,1,1s1-0.448,1-1v-4.5
				c0-0.276,0.224-0.5,0.5-0.5s0.5,0.224,0.5,0.5V22z"/>
		</g>
		<g>
			<path d="M11.5,4c-0.209,0-0.404-0.133-0.475-0.342L10.5,2.081L9.975,3.658C9.887,3.92,9.605,4.063,9.342,3.975
				C9.08,3.887,8.938,3.604,9.025,3.342l1-3c0.137-0.408,0.813-0.408,0.949,0l1,3c0.087,0.262-0.055,0.545-0.316,0.633
				C11.605,3.992,11.553,4,11.5,4z"/>
		</g>
		<g>
			<path d="M2,8C1.448,8,1,7.552,1,7s0.448-1,1-1s1,0.448,1,1S2.552,8,2,8z M2,6.999L2,6.999L2.5,7L2,6.999z"/>
		</g>
		<g>
			<path d="M5,8C4.448,8,4,7.552,4,7s0.448-1,1-1s1,0.448,1,1S5.552,8,5,8z M5,6.999L5,6.999L5.5,7L5,6.999z"/>
		</g>
		<g>
			<path d="M19,16c-0.552,0-1-0.448-1-1s0.448-1,1-1s1,0.448,1,1S19.552,16,19,16z M19,14.999L19,14.999L19.5,15L19,14.999z"/>
		</g>
		<g>
			<path d="M5.5,7.5C5.224,7.5,5,7.276,5,7V4H3v3c0,0.276-0.224,0.5-0.5,0.5S2,7.276,2,7V3.5C2,3.224,2.224,3,2.5,3h3
				C5.776,3,6,3.224,6,3.5V7C6,7.276,5.776,7.5,5.5,7.5z"/>
		</g>
		<g>
			<path d="M19.5,15.5c-0.276,0-0.5-0.224-0.5-0.5v-4.5c0-0.276,0.224-0.5,0.5-0.5c1.153,0,2.5,0.393,2.5,1.5
				c0,0.276-0.224,0.5-0.5,0.5S21,11.776,21,11.5c0-0.224-0.499-0.391-1-0.462V15C20,15.276,19.776,15.5,19.5,15.5z"/>
		</g>
	</g>
</g>
<g id="Giving_Gift">
</g>
<g id="Present_5">
</g>
<g id="Champagne_in_ice_bucket">
</g>
<g id="Beer">
</g>
<g id="Truffles">
</g>
<g id="Pinata">
</g>
</svg>
