<?xml version="1.0" encoding="iso-8859-1"?>
<!-- Generator: Adobe Illustrator 19.2.1, SVG Export Plug-In . SVG Version: 6.00 Build 0)  -->
<svg version="1.1" xmlns="http://www.w3.org/2000/svg" xmlns:xlink="http://www.w3.org/1999/xlink" x="0px" y="0px"
	 viewBox="0 0 24 24" style="enable-background:new 0 0 24 24;" xml:space="preserve">
<g id="Present_1">
</g>
<g id="Present_2">
</g>
<g id="Present_3">
</g>
<g id="Present_Cake">
</g>
<g id="Present_4">
</g>
<g id="Birthday_Cake_1">
</g>
<g id="Birthday_Cake_2">
</g>
<g id="Cake_Piece">
	<g>
		<g>
			<path d="M3.5,16c-0.225,0-0.429-0.151-0.485-0.379c-0.066-0.268,0.096-0.539,0.364-0.606l16-4
				c0.264-0.069,0.54,0.095,0.606,0.364c0.066,0.268-0.096,0.539-0.364,0.606l-16,4C3.581,15.995,3.54,16,3.5,16z"/>
		</g>
		<g>
			<path d="M3.5,20c-0.225,0-0.429-0.151-0.485-0.379c-0.066-0.268,0.096-0.539,0.364-0.606l16-4c0.264-0.07,0.54,0.096,0.606,0.364
				c0.066,0.268-0.096,0.539-0.364,0.606l-16,4C3.581,19.995,3.54,20,3.5,20z"/>
		</g>
		<g>
			<path d="M12,12c-0.967,0-2-0.263-2-1V7c0-1.103,0.897-2,2-2s2,0.897,2,2v4C14,11.737,12.967,12,12,12z M11,10.843
				C11.157,10.913,11.514,11,12,11s0.843-0.087,1-0.157V7c0-0.551-0.448-1-1-1s-1,0.449-1,1V10.843z"/>
		</g>
		<g>
			<path d="M3.5,24c-0.11,0-0.219-0.037-0.308-0.106C3.071,23.799,3,23.654,3,23.5v-8c0-0.119,0.043-0.235,0.12-0.325l6-7
				c0.11-0.128,0.279-0.191,0.445-0.17C9.836,8.04,10.1,8.081,10.362,8.122l0.214,0.033c0.272,0.042,0.46,0.297,0.418,0.57
				c-0.042,0.273-0.289,0.46-0.57,0.418L10.209,9.11c-0.168-0.026-0.337-0.052-0.507-0.077L4,15.685v7.174l15-3.75v-7.328
				c-1.41-0.832-3.297-1.528-5.614-2.07c-0.269-0.063-0.436-0.332-0.373-0.601c0.063-0.269,0.323-0.436,0.602-0.373
				c2.555,0.598,4.624,1.385,6.15,2.339C19.911,11.167,20,11.328,20,11.5v8c0,0.229-0.156,0.429-0.379,0.485l-16,4
				C3.581,23.995,3.54,24,3.5,24z"/>
		</g>
		<g>
			<path d="M12,6c-1.103,0-2-0.897-2-2c0-0.517,0.334-1.069,0.722-1.708C11.087,1.69,11.5,1.007,11.5,0.5C11.5,0.224,11.724,0,12,0
				s0.5,0.224,0.5,0.5c0,0.507,0.413,1.19,0.778,1.792C13.666,2.931,14,3.483,14,4C14,5.103,13.103,6,12,6z M12,2.084
				c-0.135,0.25-0.282,0.493-0.423,0.726C11.32,3.234,11,3.763,11,4c0,0.551,0.448,1,1,1s1-0.449,1-1c0-0.237-0.32-0.766-0.577-1.19
				C12.282,2.577,12.135,2.334,12,2.084z"/>
		</g>
	</g>
</g>
<g id="Cupcake">
</g>
<g id="Lollipop">
</g>
<g id="Birthday_Greetings_1">
</g>
<g id="Party_Greetings_2">
</g>
<g id="Birthday_Invitation">
</g>
<g id="Birthday_1">
</g>
<g id="Birthday_2">
</g>
<g id="Birthday_Message_1">
</g>
<g id="Birthday_Message_2">
</g>
<g id="Birthyday_Hat_1">
</g>
<g id="Birthay_Hat_2">
</g>
<g id="Birthday_Hat3">
</g>
<g id="Birthday_Decoration_1">
</g>
<g id="Birthday_Decoration_2">
</g>
<g id="Birthday_Decoration_3">
</g>
<g id="Horn_1">
</g>
<g id="Horn_2">
</g>
<g id="Baloon">
</g>
<g id="Balloons_1">
</g>
<g id="Balloons_2">
</g>
<g id="Birthday_Picture">
</g>
<g id="Kid_x27_s_Champagne">
</g>
<g id="Candy">
</g>
<g id="Birthday_Card">
</g>
<g id="Flowers">
</g>
<g id="Birthday_Song">
</g>
<g id="Candle">
</g>
<g id="Sweet_16">
</g>
<g id="Clown">
</g>
<g id="Clown_2">
</g>
<g id="Birthday_Party">
</g>
<g id="Giving_Gift">
</g>
<g id="Present_5">
</g>
<g id="Champagne_in_ice_bucket">
</g>
<g id="Beer">
</g>
<g id="Truffles">
</g>
<g id="Pinata">
</g>
</svg>
