<?xml version="1.0" encoding="iso-8859-1"?>
<!-- Generator: Adobe Illustrator 19.2.1, SVG Export Plug-In . SVG Version: 6.00 Build 0)  -->
<svg version="1.1" xmlns="http://www.w3.org/2000/svg" xmlns:xlink="http://www.w3.org/1999/xlink" x="0px" y="0px"
	 viewBox="0 0 24 24" style="enable-background:new 0 0 24 24;" xml:space="preserve">
<g id="Present_1">
</g>
<g id="Present_2">
</g>
<g id="Present_3">
</g>
<g id="Present_Cake">
</g>
<g id="Present_4">
</g>
<g id="Birthday_Cake_1">
</g>
<g id="Birthday_Cake_2">
</g>
<g id="Cake_Piece">
</g>
<g id="Cupcake">
</g>
<g id="Lollipop">
</g>
<g id="Birthday_Greetings_1">
</g>
<g id="Party_Greetings_2">
</g>
<g id="Birthday_Invitation">
</g>
<g id="Birthday_1">
</g>
<g id="Birthday_2">
</g>
<g id="Birthday_Message_1">
</g>
<g id="Birthday_Message_2">
</g>
<g id="Birthyday_Hat_1">
</g>
<g id="Birthay_Hat_2">
</g>
<g id="Birthday_Hat3">
</g>
<g id="Birthday_Decoration_1">
</g>
<g id="Birthday_Decoration_2">
</g>
<g id="Birthday_Decoration_3">
</g>
<g id="Horn_1">
</g>
<g id="Horn_2">
</g>
<g id="Baloon">
</g>
<g id="Balloons_1">
</g>
<g id="Balloons_2">
</g>
<g id="Birthday_Picture">
</g>
<g id="Kid_x27_s_Champagne">
</g>
<g id="Candy">
	<g>
		<g>
			<path d="M5.5,24c-0.13,0-0.258-0.051-0.354-0.146l-5-5c-0.132-0.133-0.18-0.328-0.123-0.506c0.057-0.179,0.209-0.311,0.394-0.341
				l6-1c0.158-0.031,0.321,0.025,0.436,0.14c0.114,0.114,0.166,0.276,0.14,0.436l-1,6c-0.031,0.185-0.162,0.337-0.34,0.395
				C5.603,23.992,5.551,24,5.5,24z M1.541,18.833l3.626,3.626l0.725-4.351L1.541,18.833z"/>
		</g>
		<g>
			<path d="M17.5,7c-0.131,0-0.259-0.052-0.354-0.146c-0.114-0.114-0.166-0.276-0.14-0.436l1-6c0.031-0.185,0.162-0.337,0.34-0.395
				c0.179-0.054,0.374-0.011,0.506,0.123l5,5c0.132,0.133,0.18,0.328,0.123,0.506c-0.057,0.179-0.209,0.311-0.394,0.341l-6,1
				C17.555,6.998,17.527,7,17.5,7z M18.833,1.541l-0.725,4.351l4.351-0.725L18.833,1.541z"/>
		</g>
		<g>
			<path d="M9.5,19.756c-0.896,0-1.792-0.342-2.475-1.023l-1.758-1.758c-0.661-0.66-1.025-1.539-1.025-2.475
				s0.364-1.814,1.025-2.475l6.758-6.758c1.364-1.363,3.585-1.363,4.949,0l0,0l1.758,1.758c0.661,0.66,1.025,1.539,1.025,2.475
				s-0.364,1.814-1.025,2.475l-6.758,6.758C11.292,19.414,10.396,19.756,9.5,19.756z M14.5,5.244c-0.64,0-1.28,0.243-1.768,0.73
				l-6.758,6.758c-0.472,0.472-0.732,1.1-0.732,1.768s0.26,1.296,0.732,1.768l1.758,1.758c0.975,0.975,2.561,0.975,3.535,0
				l6.758-6.758c0.472-0.472,0.732-1.1,0.732-1.768s-0.26-1.296-0.732-1.768l-1.758-1.758C15.78,5.487,15.14,5.244,14.5,5.244z"/>
		</g>
		<g>
			<path d="M7.035,14.293c-0.128,0-0.256-0.049-0.354-0.146c-0.195-0.195-0.195-0.512,0-0.707l6.758-6.758
				c0.384-0.383,0.829-0.439,1.061-0.439s0.677,0.057,1.06,0.438c0.195,0.195,0.196,0.512,0.001,0.707
				c-0.194,0.197-0.51,0.196-0.707,0.002c-0.128-0.128-0.277-0.147-0.354-0.147s-0.226,0.02-0.354,0.147l-6.757,6.757
				C7.291,14.244,7.163,14.293,7.035,14.293z"/>
		</g>
	</g>
</g>
<g id="Birthday_Card">
</g>
<g id="Flowers">
</g>
<g id="Birthday_Song">
</g>
<g id="Candle">
</g>
<g id="Sweet_16">
</g>
<g id="Clown">
</g>
<g id="Clown_2">
</g>
<g id="Birthday_Party">
</g>
<g id="Giving_Gift">
</g>
<g id="Present_5">
</g>
<g id="Champagne_in_ice_bucket">
</g>
<g id="Beer">
</g>
<g id="Truffles">
</g>
<g id="Pinata">
</g>
</svg>
