<?xml version="1.0" encoding="iso-8859-1"?>
<!-- Generator: Adobe Illustrator 19.2.1, SVG Export Plug-In . SVG Version: 6.00 Build 0)  -->
<svg version="1.1" xmlns="http://www.w3.org/2000/svg" xmlns:xlink="http://www.w3.org/1999/xlink" x="0px" y="0px"
	 viewBox="0 0 24 24" style="enable-background:new 0 0 24 24;" xml:space="preserve">
<g id="Present_1">
</g>
<g id="Present_2">
</g>
<g id="Present_3">
</g>
<g id="Present_Cake">
</g>
<g id="Present_4">
</g>
<g id="Birthday_Cake_1">
</g>
<g id="Birthday_Cake_2">
</g>
<g id="Cake_Piece">
</g>
<g id="Cupcake">
</g>
<g id="Lollipop">
</g>
<g id="Birthday_Greetings_1">
</g>
<g id="Party_Greetings_2">
</g>
<g id="Birthday_Invitation">
</g>
<g id="Birthday_1">
</g>
<g id="Birthday_2">
</g>
<g id="Birthday_Message_1">
</g>
<g id="Birthday_Message_2">
</g>
<g id="Birthyday_Hat_1">
</g>
<g id="Birthay_Hat_2">
</g>
<g id="Birthday_Hat3">
</g>
<g id="Birthday_Decoration_1">
</g>
<g id="Birthday_Decoration_2">
</g>
<g id="Birthday_Decoration_3">
</g>
<g id="Horn_1">
</g>
<g id="Horn_2">
</g>
<g id="Baloon">
</g>
<g id="Balloons_1">
</g>
<g id="Balloons_2">
</g>
<g id="Birthday_Picture">
</g>
<g id="Kid_x27_s_Champagne">
</g>
<g id="Candy">
</g>
<g id="Birthday_Card">
</g>
<g id="Flowers">
</g>
<g id="Birthday_Song">
</g>
<g id="Candle">
	<g>
		<g>
			<path d="M13.5,24h-4C9.224,24,9,23.776,9,23.5v-15C9,7.673,9.673,7,10.5,7h2C13.327,7,14,7.673,14,8.5v15
				C14,23.776,13.776,24,13.5,24z M10,23h3V8.5C13,8.225,12.776,8,12.5,8h-2C10.224,8,10,8.225,10,8.5V23z"/>
		</g>
		<g>
			<path d="M11.5,7C10.122,7,9,5.879,9,4.5c0-1.199,1.74-3.779,2.088-4.284c0.188-0.27,0.636-0.27,0.823,0
				C12.26,0.721,14,3.301,14,4.5C14,5.879,12.878,7,11.5,7z M11.5,1.404C10.78,2.528,10,3.954,10,4.5C10,5.327,10.673,6,11.5,6
				S13,5.327,13,4.5C13,3.953,12.22,2.528,11.5,1.404z"/>
		</g>
		<g>
			<path d="M11.5,8C11.224,8,11,7.776,11,7.5v-2C11,5.224,11.224,5,11.5,5S12,5.224,12,5.5v2C12,7.776,11.776,8,11.5,8z"/>
		</g>
		<g>
			<path d="M13.5,11c-0.075,0-0.151-0.017-0.223-0.053l-4-2C9.029,8.823,8.929,8.523,9.053,8.276
				C9.177,8.03,9.476,7.929,9.724,8.053l4,2c0.247,0.124,0.347,0.424,0.224,0.671C13.859,10.898,13.683,11,13.5,11z"/>
		</g>
		<g>
			<path d="M13.5,14c-0.075,0-0.151-0.017-0.223-0.053l-4-2c-0.247-0.124-0.347-0.424-0.224-0.671
				c0.124-0.246,0.423-0.348,0.671-0.224l4,2c0.247,0.124,0.347,0.424,0.224,0.671C13.859,13.898,13.683,14,13.5,14z"/>
		</g>
		<g>
			<path d="M13.5,17c-0.075,0-0.151-0.017-0.223-0.053l-4-2c-0.247-0.124-0.347-0.424-0.224-0.671
				c0.124-0.246,0.423-0.349,0.671-0.224l4,2c0.247,0.124,0.347,0.424,0.224,0.671C13.859,16.898,13.683,17,13.5,17z"/>
		</g>
		<g>
			<path d="M13.5,20c-0.075,0-0.151-0.017-0.223-0.053l-4-2c-0.247-0.124-0.347-0.424-0.224-0.671
				c0.124-0.247,0.423-0.347,0.671-0.224l4,2c0.247,0.124,0.347,0.424,0.224,0.671C13.859,19.898,13.683,20,13.5,20z"/>
		</g>
		<g>
			<path d="M13.5,23c-0.075,0-0.151-0.017-0.223-0.053l-4-2c-0.247-0.124-0.347-0.424-0.224-0.671
				c0.124-0.246,0.423-0.348,0.671-0.224l4,2c0.247,0.124,0.347,0.424,0.224,0.671C13.859,22.898,13.683,23,13.5,23z"/>
		</g>
	</g>
</g>
<g id="Sweet_16">
</g>
<g id="Clown">
</g>
<g id="Clown_2">
</g>
<g id="Birthday_Party">
</g>
<g id="Giving_Gift">
</g>
<g id="Present_5">
</g>
<g id="Champagne_in_ice_bucket">
</g>
<g id="Beer">
</g>
<g id="Truffles">
</g>
<g id="Pinata">
</g>
</svg>
