<?xml version="1.0" encoding="iso-8859-1"?>
<!-- Generator: Adobe Illustrator 19.2.1, SVG Export Plug-In . SVG Version: 6.00 Build 0)  -->
<svg version="1.1" xmlns="http://www.w3.org/2000/svg" xmlns:xlink="http://www.w3.org/1999/xlink" x="0px" y="0px"
	 viewBox="0 0 24 24" style="enable-background:new 0 0 24 24;" xml:space="preserve">
<g id="Present_1">
</g>
<g id="Present_2">
</g>
<g id="Present_3">
</g>
<g id="Present_Cake">
</g>
<g id="Present_4">
</g>
<g id="Birthday_Cake_1">
</g>
<g id="Birthday_Cake_2">
</g>
<g id="Cake_Piece">
</g>
<g id="Cupcake">
</g>
<g id="Lollipop">
</g>
<g id="Birthday_Greetings_1">
</g>
<g id="Party_Greetings_2">
</g>
<g id="Birthday_Invitation">
</g>
<g id="Birthday_1">
</g>
<g id="Birthday_2">
</g>
<g id="Birthday_Message_1">
</g>
<g id="Birthday_Message_2">
</g>
<g id="Birthyday_Hat_1">
</g>
<g id="Birthay_Hat_2">
</g>
<g id="Birthday_Hat3">
</g>
<g id="Birthday_Decoration_1">
</g>
<g id="Birthday_Decoration_2">
</g>
<g id="Birthday_Decoration_3">
</g>
<g id="Horn_1">
</g>
<g id="Horn_2">
</g>
<g id="Baloon">
</g>
<g id="Balloons_1">
</g>
<g id="Balloons_2">
</g>
<g id="Birthday_Picture">
</g>
<g id="Kid_x27_s_Champagne">
</g>
<g id="Candy">
</g>
<g id="Birthday_Card">
</g>
<g id="Flowers">
</g>
<g id="Birthday_Song">
</g>
<g id="Candle">
</g>
<g id="Sweet_16">
</g>
<g id="Clown">
</g>
<g id="Clown_2">
</g>
<g id="Birthday_Party">
</g>
<g id="Giving_Gift">
</g>
<g id="Present_5">
</g>
<g id="Champagne_in_ice_bucket">
	<g>
		<g>
			<path d="M17,7.5c-0.097,0-0.194-0.028-0.28-0.086c-0.229-0.155-0.288-0.467-0.133-0.695c0.137-0.201,0.245-0.373,0.345-0.533
				c0.291-0.465,0.542-0.866,1.215-1.539l2.217-2.096c0.185-0.186,0.185-0.502-0.01-0.697l-0.707-0.707
				c-0.19-0.19-0.519-0.188-0.707,0l-2.077,2.197c-1.915,1.915-2.96,2.46-4.283,3.149c-0.263,0.138-0.54,0.282-0.841,0.446
				c-0.244,0.131-0.546,0.041-0.678-0.2c-0.132-0.242-0.043-0.546,0.2-0.679c0.307-0.167,0.589-0.313,0.857-0.454
				c1.296-0.675,2.232-1.163,4.029-2.96l2.076-2.197c0.584-0.586,1.564-0.576,2.131-0.01l0.707,0.707
				c0.585,0.585,0.585,1.536,0,2.121l-2.217,2.096c-0.582,0.583-0.785,0.906-1.065,1.354c-0.106,0.169-0.22,0.351-0.365,0.564
				C17.317,7.423,17.16,7.5,17,7.5z"/>
		</g>
		<g>
			<path d="M7,7.5c-0.162,0-0.32-0.078-0.417-0.223L5.922,6.285L4.854,7.354c-0.195,0.195-0.512,0.195-0.707,0s-0.195-0.512,0-0.707
				l1.5-1.5c0.106-0.106,0.25-0.151,0.403-0.145c0.149,0.016,0.284,0.096,0.367,0.221l1,1.5c0.153,0.229,0.091,0.54-0.139,0.693
				C7.192,7.473,7.096,7.5,7,7.5z"/>
		</g>
		<g>
			<path d="M9,7H7C6.724,7,6.5,6.776,6.5,6.5v-2C6.5,4.224,6.724,4,7,4h2c0.276,0,0.5,0.224,0.5,0.5v2C9.5,6.776,9.276,7,9,7z
				 M7.5,6h1V5h-1V6z"/>
		</g>
		<g>
			<path d="M4.5,7.414c-0.128,0-0.256-0.049-0.354-0.146L2.732,5.854c-0.195-0.195-0.195-0.512,0-0.707l1.414-1.414
				c0.195-0.195,0.512-0.195,0.707,0l1.414,1.414c0.195,0.195,0.195,0.512,0,0.707L4.854,7.268C4.756,7.365,4.628,7.414,4.5,7.414z
				 M3.793,5.5L4.5,6.207L5.207,5.5L4.5,4.793L3.793,5.5z"/>
		</g>
		<g>
			<path d="M11,8H9C8.724,8,8.5,7.776,8.5,7.5v-2C8.5,5.224,8.724,5,9,5h2c0.276,0,0.5,0.224,0.5,0.5v2C11.5,7.776,11.276,8,11,8z
				 M9.5,7h1V6h-1V7z"/>
		</g>
		<g>
			<path d="M19.5,4.5c-0.04,0-0.081-0.005-0.122-0.015C17.027,3.897,17,2.077,17,2c0-0.276,0.224-0.5,0.5-0.5
				c0.274,0,0.497,0.221,0.5,0.494c0.003,0.119,0.08,1.136,1.621,1.521c0.268,0.067,0.431,0.339,0.364,0.606
				C19.928,4.349,19.725,4.5,19.5,4.5z M18,2h0.01H18z"/>
		</g>
		<g>
			<path d="M19,15c-0.013,0-0.026,0-0.039-0.002c-6.753-0.519-8.37-5.144-8.436-5.34c-0.087-0.262,0.054-0.543,0.314-0.631
				c0.26-0.086,0.544,0.052,0.633,0.313c0.059,0.172,1.5,4.195,7.565,4.662c0.275,0.021,0.481,0.261,0.46,0.536
				C19.479,14.801,19.259,15,19,15z"/>
		</g>
		<g>
			<path d="M15.222,24H6.778c-1.267,0-2.334-0.949-2.483-2.208L2.503,6.559C2.501,6.539,2.5,6.52,2.5,6.5
				c0-0.265,0.207-0.483,0.471-0.499c0.209-0.023,0.404,0.11,0.486,0.297C3.994,6.603,6.799,7,11,7s7.006-0.397,7.543-0.702
				c0.082-0.187,0.272-0.322,0.486-0.297C19.293,6.017,19.5,6.235,19.5,6.5c0,0.02-0.001,0.039-0.003,0.059l-1.792,15.233
				C17.556,23.051,16.489,24,15.222,24z M3.606,7.372l1.683,14.303C5.377,22.431,6.018,23,6.778,23h8.443
				c0.76,0,1.401-0.569,1.49-1.325l1.683-14.303C16.79,7.873,13.713,8,11,8S5.21,7.873,3.606,7.372z"/>
		</g>
	</g>
</g>
<g id="Beer">
</g>
<g id="Truffles">
</g>
<g id="Pinata">
</g>
</svg>
