<?xml version="1.0" encoding="iso-8859-1"?>
<!-- Generator: Adobe Illustrator 19.2.1, SVG Export Plug-In . SVG Version: 6.00 Build 0)  -->
<svg version="1.1" xmlns="http://www.w3.org/2000/svg" xmlns:xlink="http://www.w3.org/1999/xlink" x="0px" y="0px"
	 viewBox="0 0 24 24" style="enable-background:new 0 0 24 24;" xml:space="preserve">
<g id="Present_1">
</g>
<g id="Present_2">
</g>
<g id="Present_3">
</g>
<g id="Present_Cake">
</g>
<g id="Present_4">
</g>
<g id="Birthday_Cake_1">
</g>
<g id="Birthday_Cake_2">
</g>
<g id="Cake_Piece">
</g>
<g id="Cupcake">
</g>
<g id="Lollipop">
</g>
<g id="Birthday_Greetings_1">
</g>
<g id="Party_Greetings_2">
</g>
<g id="Birthday_Invitation">
</g>
<g id="Birthday_1">
</g>
<g id="Birthday_2">
</g>
<g id="Birthday_Message_1">
</g>
<g id="Birthday_Message_2">
</g>
<g id="Birthyday_Hat_1">
</g>
<g id="Birthay_Hat_2">
</g>
<g id="Birthday_Hat3">
</g>
<g id="Birthday_Decoration_1">
</g>
<g id="Birthday_Decoration_2">
</g>
<g id="Birthday_Decoration_3">
</g>
<g id="Horn_1">
</g>
<g id="Horn_2">
</g>
<g id="Baloon">
</g>
<g id="Balloons_1">
</g>
<g id="Balloons_2">
</g>
<g id="Birthday_Picture">
</g>
<g id="Kid_x27_s_Champagne">
</g>
<g id="Candy">
</g>
<g id="Birthday_Card">
</g>
<g id="Flowers">
</g>
<g id="Birthday_Song">
</g>
<g id="Candle">
</g>
<g id="Sweet_16">
</g>
<g id="Clown">
</g>
<g id="Clown_2">
	<g>
		<g>
			<path d="M12,24c-4.416,0-8-6.709-8-11.088C4,8.55,7.589,5,12,5s8,3.55,8,7.912C20,17.291,16.416,24,12,24z M12,6
				c-3.859,0-7,3.101-7,6.912C5,16.804,8.203,23,12,23s7-6.196,7-10.088C19,9.101,15.859,6,12,6z"/>
		</g>
		<g>
			<path d="M12,18c-1.103,0-2-0.897-2-2s0.897-2,2-2s2,0.897,2,2S13.103,18,12,18z M12,15c-0.552,0-1,0.448-1,1s0.448,1,1,1
				s1-0.448,1-1S12.552,15,12,15z"/>
		</g>
		<g>
			<path d="M12,21c-1.094,0-4,0-4-2.5C8,18.224,8.224,18,8.5,18S9,18.224,9,18.5c0,0.779,0.363,1.5,3,1.5s3-0.721,3-1.5
				c0-0.276,0.224-0.5,0.5-0.5s0.5,0.224,0.5,0.5C16,21,13.094,21,12,21z"/>
		</g>
		<g>
			<path d="M15.5,16c-1.402,0-2.5-1.537-2.5-3.5S14.098,9,15.5,9s2.5,1.537,2.5,3.5S16.902,16,15.5,16z M15.5,10
				c-0.813,0-1.5,1.145-1.5,2.5s0.687,2.5,1.5,2.5s1.5-1.145,1.5-2.5S16.313,10,15.5,10z"/>
		</g>
		<g>
			<path d="M8.5,16C7.098,16,6,14.463,6,12.5S7.098,9,8.5,9s2.5,1.537,2.5,3.5S9.902,16,8.5,16z M8.5,10C7.687,10,7,11.145,7,12.5
				S7.687,15,8.5,15s1.5-1.145,1.5-2.5S9.313,10,8.5,10z"/>
		</g>
		<g>
			<path d="M8.5,14C8.224,14,8,13.776,8,13.5v-2C8,11.224,8.224,11,8.5,11S9,11.224,9,11.5v2C9,13.776,8.776,14,8.5,14z"/>
		</g>
		<g>
			<path d="M9.5,13h-2C7.224,13,7,12.776,7,12.5S7.224,12,7.5,12h2c0.276,0,0.5,0.224,0.5,0.5S9.776,13,9.5,13z"/>
		</g>
		<g>
			<path d="M15.5,14c-0.276,0-0.5-0.224-0.5-0.5v-2c0-0.276,0.224-0.5,0.5-0.5s0.5,0.224,0.5,0.5v2C16,13.776,15.776,14,15.5,14z"/>
		</g>
		<g>
			<path d="M16.5,13h-2c-0.276,0-0.5-0.224-0.5-0.5s0.224-0.5,0.5-0.5h2c0.276,0,0.5,0.224,0.5,0.5S16.776,13,16.5,13z"/>
		</g>
		<g>
			<path d="M12,6C9.084,6,9,4.653,9,4.5C9,4.224,9.224,4,9.5,4c0.262,0,0.477,0.201,0.498,0.457C10.019,4.508,10.266,5,12,5
				c1.819,0,2.002-0.542,2.003-0.547c0-0.276,0.223-0.477,0.499-0.477C14.777,3.977,15,4.224,15,4.5C15,4.653,14.916,6,12,6z
				 M10,4.5h0.01H10z"/>
		</g>
		<g>
			<path d="M13.5,6C13.224,6,13,5.776,13,5.5V1h-2v4.5C11,5.776,10.776,6,10.5,6S10,5.776,10,5.5v-5C10,0.224,10.224,0,10.5,0h3
				C13.776,0,14,0.224,14,0.5v5C14,5.776,13.776,6,13.5,6z"/>
		</g>
		<g>
			<path d="M22.5,12c-0.384,0-0.734-0.145-1-0.383C21.234,11.855,20.884,12,20.5,12c-0.792,0-1.442-0.617-1.496-1.396
				c-0.291-0.258-0.472-0.616-0.5-1C18.188,9.323,18,8.924,18,8.5C18,7.673,18.673,7,19.5,7c0.385,0,0.736,0.146,1.002,0.385
				C20.768,7.145,21.117,7,21.5,7c0.676,0,1.248,0.449,1.436,1.064C23.551,8.252,24,8.824,24,9.5c0,0.169-0.032,0.334-0.097,0.5
				C23.968,10.166,24,10.331,24,10.5C24,11.327,23.327,12,22.5,12z M22,10.5c0,0.275,0.225,0.5,0.5,0.5s0.5-0.225,0.5-0.5
				c0-0.071-0.026-0.149-0.083-0.244c-0.094-0.158-0.094-0.354,0-0.512C22.974,9.649,23,9.571,23,9.5C23,9.225,22.775,9,22.5,9
				C22.224,9,22,8.776,22,8.5C22,8.225,21.775,8,21.5,8S21,8.225,21,8.5c0,0.276-0.224,0.521-0.5,0.521S20,8.817,20,8.542
				C20,8.225,19.775,8,19.5,8S19,8.225,19,8.5c0,0.175,0.101,0.335,0.268,0.427c0.184,0.101,0.285,0.305,0.254,0.512
				c-0.003,0.021-0.02,0.096-0.025,0.115c0.004,0.121,0.104,0.281,0.271,0.373c0.184,0.101,0.285,0.305,0.254,0.512
				c-0.003,0.021-0.02,0.096-0.025,0.115C20,10.775,20.225,11,20.5,11s0.5-0.225,0.5-0.5v-0.218c0-0.275,0.224-0.5,0.5-0.5
				s0.5,0.225,0.5,0.5V10.5z"/>
		</g>
		<g>
			<path d="M3.5,12c-0.384,0-0.734-0.145-1-0.383C2.234,11.855,1.884,12,1.5,12C0.673,12,0,11.327,0,10.5
				c0-0.169,0.032-0.334,0.097-0.5C0.032,9.834,0,9.669,0,9.5c0-0.676,0.449-1.248,1.064-1.436C1.252,7.449,1.824,7,2.5,7
				c0.385,0,0.736,0.146,1.002,0.385C3.768,7.145,4.117,7,4.5,7C5.327,7,6,7.673,6,8.5c0,0.424-0.188,0.823-0.504,1.104
				c-0.028,0.384-0.209,0.742-0.5,1C4.942,11.383,4.292,12,3.5,12z M3,10.282V10.5C3,10.775,3.225,11,3.5,11S4,10.775,4,10.5
				c-0.004,0.012-0.015-0.017-0.021-0.062c-0.031-0.207,0.07-0.411,0.254-0.512C4.399,9.835,4.5,9.675,4.5,9.5
				C4.496,9.512,4.485,9.483,4.479,9.438c-0.031-0.207,0.07-0.411,0.254-0.512C4.899,8.835,5,8.675,5,8.5C5,8.225,4.775,8,4.5,8
				S4,8.225,4,8.5c0,0.276-0.224,0.521-0.5,0.521S3,8.817,3,8.542C3,8.225,2.775,8,2.5,8S2,8.225,2,8.5C2,8.776,1.776,9,1.5,9
				C1.225,9,1,9.225,1,9.5c0,0.071,0.026,0.149,0.083,0.244c0.094,0.158,0.094,0.354,0,0.512C1.026,10.351,1,10.429,1,10.5
				C1,10.775,1.225,11,1.5,11S2,10.775,2,10.5v-0.218c0-0.275,0.224-0.5,0.5-0.5S3,10.007,3,10.282z"/>
		</g>
	</g>
</g>
<g id="Birthday_Party">
</g>
<g id="Giving_Gift">
</g>
<g id="Present_5">
</g>
<g id="Champagne_in_ice_bucket">
</g>
<g id="Beer">
</g>
<g id="Truffles">
</g>
<g id="Pinata">
</g>
</svg>
