<?xml version="1.0" encoding="iso-8859-1"?>
<!-- Generator: Adobe Illustrator 19.2.1, SVG Export Plug-In . SVG Version: 6.00 Build 0)  -->
<svg version="1.1" xmlns="http://www.w3.org/2000/svg" xmlns:xlink="http://www.w3.org/1999/xlink" x="0px" y="0px"
	 viewBox="0 0 24 24" style="enable-background:new 0 0 24 24;" xml:space="preserve">
<g id="Present_1">
</g>
<g id="Present_2">
</g>
<g id="Present_3">
</g>
<g id="Present_Cake">
</g>
<g id="Present_4">
</g>
<g id="Birthday_Cake_1">
</g>
<g id="Birthday_Cake_2">
</g>
<g id="Cake_Piece">
</g>
<g id="Cupcake">
</g>
<g id="Lollipop">
</g>
<g id="Birthday_Greetings_1">
</g>
<g id="Party_Greetings_2">
</g>
<g id="Birthday_Invitation">
</g>
<g id="Birthday_1">
</g>
<g id="Birthday_2">
</g>
<g id="Birthday_Message_1">
</g>
<g id="Birthday_Message_2">
</g>
<g id="Birthyday_Hat_1">
</g>
<g id="Birthay_Hat_2">
</g>
<g id="Birthday_Hat3">
</g>
<g id="Birthday_Decoration_1">
</g>
<g id="Birthday_Decoration_2">
</g>
<g id="Birthday_Decoration_3">
</g>
<g id="Horn_1">
</g>
<g id="Horn_2">
</g>
<g id="Baloon">
</g>
<g id="Balloons_1">
</g>
<g id="Balloons_2">
</g>
<g id="Birthday_Picture">
</g>
<g id="Kid_x27_s_Champagne">
</g>
<g id="Candy">
</g>
<g id="Birthday_Card">
</g>
<g id="Flowers">
</g>
<g id="Birthday_Song">
</g>
<g id="Candle">
</g>
<g id="Sweet_16">
</g>
<g id="Clown">
	<g>
		<g>
			<path d="M12,24c-4.416,0-8-6.709-8-11.088C4,8.55,7.589,5,12,5s8,3.55,8,7.912C20,17.291,16.416,24,12,24z M12,6
				c-3.859,0-7,3.101-7,6.912C5,16.804,8.203,23,12,23s7-6.196,7-10.088C19,9.101,15.859,6,12,6z"/>
		</g>
		<g>
			<path d="M12,18c-1.103,0-2-0.897-2-2s0.897-2,2-2s2,0.897,2,2S13.103,18,12,18z M12,15c-0.552,0-1,0.448-1,1s0.448,1,1,1
				s1-0.448,1-1S12.552,15,12,15z"/>
		</g>
		<g>
			<path d="M16.5,13c-0.276,0-0.5-0.224-0.5-0.5c0-0.813-0.458-1.5-1-1.5s-1,0.687-1,1.5c0,0.276-0.224,0.5-0.5,0.5
				S13,12.776,13,12.5c0-1.379,0.897-2.5,2-2.5s2,1.121,2,2.5C17,12.776,16.776,13,16.5,13z"/>
		</g>
		<g>
			<path d="M10.5,13c-0.276,0-0.5-0.224-0.5-0.5c0-0.813-0.458-1.5-1-1.5s-1,0.687-1,1.5C8,12.776,7.776,13,7.5,13S7,12.776,7,12.5
				C7,11.121,7.897,10,9,10s2,1.121,2,2.5C11,12.776,10.776,13,10.5,13z"/>
		</g>
		<g>
			<path d="M12,21c-2.206,0-4-1.57-4-3.5C8,17.224,8.224,17,8.5,17S9,17.224,9,17.5c0,1.379,1.346,2.5,3,2.5s3-1.121,3-2.5
				c0-0.276,0.224-0.5,0.5-0.5s0.5,0.224,0.5,0.5C16,19.43,14.206,21,12,21z"/>
		</g>
		<g>
			<path d="M9,14c-0.552,0-1-0.448-1-1s0.448-1,1-1s1,0.448,1,1S9.552,14,9,14z M9,12.999L9,12.999L9.5,13L9,12.999z"/>
		</g>
		<g>
			<path d="M15,14c-0.552,0-1-0.448-1-1s0.448-1,1-1s1,0.448,1,1S15.552,14,15,14z M15,12.999L15,12.999L15.5,13L15,12.999z"/>
		</g>
		<g>
			<path d="M20.25,17c-0.724,0-1.38-0.462-1.633-1.149c-0.096-0.259,0.037-0.547,0.296-0.642c0.257-0.098,0.547,0.036,0.642,0.296
				C19.666,15.806,19.938,16,20.25,16c0.413,0,0.75-0.337,0.75-0.75c0-0.155-0.061-0.31-0.181-0.459
				c-0.112-0.141-0.141-0.33-0.074-0.497s0.217-0.285,0.396-0.311C21.631,13.914,22,13.491,22,13c0-0.417-0.255-0.783-0.649-0.932
				c-0.174-0.065-0.297-0.222-0.319-0.406s0.059-0.367,0.212-0.473C21.717,10.861,22,10.323,22,9.75
				c0-0.865-0.623-1.589-1.482-1.721c-0.171-0.026-0.315-0.139-0.384-0.298c-0.067-0.158-0.049-0.341,0.05-0.482
				C20.391,6.952,20.5,6.607,20.5,6.25c0-0.965-0.785-1.75-1.75-1.75c-0.078,0-0.154,0.013-0.229,0.023
				c-0.17,0.026-0.352-0.036-0.462-0.162c-0.112-0.127-0.167-0.3-0.121-0.463C17.98,3.746,18,3.619,18,3.5C18,2.673,17.327,2,16.5,2
				c-0.13,0-0.268,0.023-0.434,0.073c-0.178,0.055-0.37,0.005-0.5-0.127c-0.433-0.437-1.101-0.572-1.67-0.317
				C13.715,1.71,13.5,1.674,13.354,1.538c-0.184-0.171-0.389-0.303-0.608-0.391c-0.171-0.056-0.261-0.09-0.355-0.108
				c-0.254-0.049-0.526-0.049-0.778,0c-0.096,0.019-0.186,0.053-0.274,0.084c-0.302,0.112-0.507,0.244-0.69,0.415
				c-0.147,0.136-0.362,0.172-0.543,0.091c-0.569-0.253-1.237-0.118-1.67,0.317c-0.131,0.131-0.321,0.181-0.5,0.127
				C7.768,2.023,7.63,2,7.5,2C6.673,2,6,2.673,6,3.5c0,0.119,0.02,0.246,0.063,0.398c0.046,0.163,0.006,0.338-0.105,0.465
				C5.846,4.489,5.676,4.549,5.51,4.528C5.404,4.513,5.328,4.5,5.25,4.5C4.285,4.5,3.5,5.285,3.5,6.25
				c0,0.357,0.109,0.702,0.316,0.999c0.099,0.142,0.117,0.324,0.05,0.482C3.798,7.891,3.653,8.003,3.482,8.029
				C2.623,8.161,2,8.885,2,9.75c0,0.573,0.283,1.111,0.757,1.439c0.153,0.105,0.234,0.288,0.212,0.473s-0.146,0.341-0.319,0.406
				C2.255,12.217,2,12.583,2,13c0,0.491,0.369,0.914,0.859,0.983c0.179,0.025,0.329,0.144,0.396,0.311s0.038,0.356-0.074,0.497
				C3.061,14.94,3,15.095,3,15.25C3,15.663,3.337,16,3.75,16c0.312,0,0.584-0.194,0.695-0.495c0.096-0.26,0.387-0.394,0.642-0.296
				c0.259,0.095,0.392,0.383,0.296,0.642C5.13,16.538,4.474,17,3.75,17C2.785,17,2,16.215,2,15.25c0-0.164,0.025-0.326,0.075-0.484
				C1.433,14.429,1,13.755,1,13c0-0.567,0.247-1.101,0.654-1.473C1.236,11.036,1,10.408,1,9.75c0-1.131,0.676-2.108,1.679-2.526
				C2.561,6.914,2.5,6.586,2.5,6.25c0-1.433,1.101-2.612,2.5-2.738C5,3.508,5,3.504,5,3.5C5,2.121,6.121,1,7.5,1
				c0.143,0,0.289,0.015,0.442,0.046c0.626-0.503,1.487-0.678,2.264-0.442c0.211-0.16,0.438-0.288,0.678-0.384
				c0.018-0.008,0.093-0.032,0.111-0.037c0.142-0.05,0.278-0.096,0.422-0.124c0.375-0.076,0.79-0.076,1.167,0
				c0.143,0.028,0.279,0.074,0.415,0.123c0.049,0.013,0.092,0.026,0.132,0.044c0.229,0.091,0.453,0.219,0.663,0.378
				c0.777-0.235,1.637-0.061,2.264,0.442C16.211,1.015,16.357,1,16.5,1C17.879,1,19,2.121,19,3.5c0,0.004,0,0.008,0,0.012
				c1.399,0.126,2.5,1.306,2.5,2.738c0,0.336-0.061,0.664-0.179,0.974C22.324,7.642,23,8.619,23,9.75
				c0,0.658-0.236,1.286-0.654,1.777C22.753,11.899,23,12.433,23,13c0,0.755-0.433,1.429-1.075,1.766
				C21.975,14.924,22,15.086,22,15.25C22,16.215,21.215,17,20.25,17z"/>
		</g>
	</g>
</g>
<g id="Clown_2">
</g>
<g id="Birthday_Party">
</g>
<g id="Giving_Gift">
</g>
<g id="Present_5">
</g>
<g id="Champagne_in_ice_bucket">
</g>
<g id="Beer">
</g>
<g id="Truffles">
</g>
<g id="Pinata">
</g>
</svg>
