<?xml version="1.0" encoding="iso-8859-1"?>
<!-- Generator: Adobe Illustrator 19.2.1, SVG Export Plug-In . SVG Version: 6.00 Build 0)  -->
<svg version="1.1" xmlns="http://www.w3.org/2000/svg" xmlns:xlink="http://www.w3.org/1999/xlink" x="0px" y="0px"
	 viewBox="0 0 24 24" style="enable-background:new 0 0 24 24;" xml:space="preserve">
<g id="Present_1">
</g>
<g id="Present_2">
</g>
<g id="Present_3">
</g>
<g id="Present_Cake">
</g>
<g id="Present_4">
</g>
<g id="Birthday_Cake_1">
</g>
<g id="Birthday_Cake_2">
</g>
<g id="Cake_Piece">
</g>
<g id="Cupcake">
	<g>
		<g>
			<path d="M18,16c-1.169,0-2.247-0.502-3-1.371C14.247,15.498,13.169,16,12,16s-2.247-0.502-3-1.371C8.247,15.498,7.169,16,6,16
				c-2.206,0-4-1.794-4-4c0-2.035,1.523-3.736,3.544-3.956c0.261-0.027,0.521,0.168,0.551,0.443S5.927,9.008,5.651,9.038
				C4.14,9.203,3,10.476,3,12c0,1.654,1.346,3,3,3c1.059,0,2.02-0.553,2.57-1.479c0.18-0.304,0.68-0.304,0.859,0
				C9.98,14.447,10.941,15,12,15s2.02-0.553,2.57-1.479c0.18-0.304,0.68-0.304,0.859,0C15.98,14.447,16.941,15,18,15
				c1.654,0,3-1.346,3-3c0-1.525-1.141-2.8-2.653-2.965c-0.274-0.03-0.473-0.277-0.442-0.551c0.03-0.275,0.281-0.476,0.552-0.443
				C20.477,8.262,22,9.964,22,12C22,14.206,20.206,16,18,16z"/>
		</g>
		<g>
			<path d="M15.84,24H8.16c-1.203,0-2.236-0.858-2.457-2.04l-1.194-6.368c-0.051-0.271,0.128-0.533,0.399-0.583
				c0.265-0.049,0.532,0.126,0.583,0.399l1.194,6.369C6.818,22.485,7.438,23,8.16,23h7.68c0.722,0,1.342-0.515,1.475-1.223
				l1.194-6.369c0.051-0.272,0.314-0.448,0.583-0.399c0.271,0.051,0.45,0.312,0.399,0.583l-1.194,6.369
				C18.076,23.142,17.043,24,15.84,24z"/>
		</g>
		<g>
			<path d="M12,6c-1.654,0-3-1.346-3-3s1.346-3,3-3s3,1.346,3,3S13.654,6,12,6z M12,1c-1.103,0-2,0.897-2,2s0.897,2,2,2s2-0.897,2-2
				S13.103,1,12,1z"/>
		</g>
		<g>
			<path d="M12,6c-1.654,0-3-1.346-3-3s1.346-3,3-3s3,1.346,3,3S13.654,6,12,6z M12,1c-1.103,0-2,0.897-2,2s0.897,2,2,2s2-0.897,2-2
				S13.103,1,12,1z"/>
		</g>
		<g>
			<path d="M5.5,10C5.224,10,5,9.776,5,9.5c0-2.566,1.895-4.853,4.715-5.689c0.269-0.08,0.544,0.073,0.622,0.337
				C10.415,4.413,10.265,4.691,10,4.77C7.607,5.479,6,7.38,6,9.5C6,9.776,5.776,10,5.5,10z"/>
		</g>
		<g>
			<path d="M18.5,10C18.224,10,18,9.776,18,9.5c0-2.12-1.607-4.021-4-4.73c-0.265-0.079-0.415-0.357-0.337-0.622
				c0.079-0.264,0.354-0.417,0.622-0.337C17.105,4.647,19,6.934,19,9.5C19,9.776,18.776,10,18.5,10z"/>
		</g>
		<g>
			<path d="M9.999,22c-0.253,0-0.471-0.192-0.496-0.45l-0.5-5c-0.028-0.275,0.173-0.52,0.447-0.547
				c0.271-0.024,0.52,0.173,0.547,0.448l0.5,5c0.028,0.275-0.173,0.52-0.447,0.547C10.033,21.999,10.016,22,9.999,22z"/>
		</g>
		<g>
			<path d="M14.001,22c-0.017,0-0.034-0.001-0.051-0.002c-0.274-0.027-0.476-0.272-0.447-0.547l0.5-5
				c0.027-0.274,0.278-0.471,0.547-0.448c0.274,0.027,0.476,0.272,0.447,0.547l-0.5,5C14.472,21.808,14.254,22,14.001,22z"/>
		</g>
	</g>
</g>
<g id="Lollipop">
</g>
<g id="Birthday_Greetings_1">
</g>
<g id="Party_Greetings_2">
</g>
<g id="Birthday_Invitation">
</g>
<g id="Birthday_1">
</g>
<g id="Birthday_2">
</g>
<g id="Birthday_Message_1">
</g>
<g id="Birthday_Message_2">
</g>
<g id="Birthyday_Hat_1">
</g>
<g id="Birthay_Hat_2">
</g>
<g id="Birthday_Hat3">
</g>
<g id="Birthday_Decoration_1">
</g>
<g id="Birthday_Decoration_2">
</g>
<g id="Birthday_Decoration_3">
</g>
<g id="Horn_1">
</g>
<g id="Horn_2">
</g>
<g id="Baloon">
</g>
<g id="Balloons_1">
</g>
<g id="Balloons_2">
</g>
<g id="Birthday_Picture">
</g>
<g id="Kid_x27_s_Champagne">
</g>
<g id="Candy">
</g>
<g id="Birthday_Card">
</g>
<g id="Flowers">
</g>
<g id="Birthday_Song">
</g>
<g id="Candle">
</g>
<g id="Sweet_16">
</g>
<g id="Clown">
</g>
<g id="Clown_2">
</g>
<g id="Birthday_Party">
</g>
<g id="Giving_Gift">
</g>
<g id="Present_5">
</g>
<g id="Champagne_in_ice_bucket">
</g>
<g id="Beer">
</g>
<g id="Truffles">
</g>
<g id="Pinata">
</g>
</svg>
