<?xml version="1.0" encoding="iso-8859-1"?>
<!-- Generator: Adobe Illustrator 19.2.1, SVG Export Plug-In . SVG Version: 6.00 Build 0)  -->
<svg version="1.1" xmlns="http://www.w3.org/2000/svg" xmlns:xlink="http://www.w3.org/1999/xlink" x="0px" y="0px"
	 viewBox="0 0 24 24" style="enable-background:new 0 0 24 24;" xml:space="preserve">
<g id="Present_1">
</g>
<g id="Present_2">
</g>
<g id="Present_3">
</g>
<g id="Present_Cake">
</g>
<g id="Present_4">
</g>
<g id="Birthday_Cake_1">
</g>
<g id="Birthday_Cake_2">
</g>
<g id="Cake_Piece">
</g>
<g id="Cupcake">
</g>
<g id="Lollipop">
</g>
<g id="Birthday_Greetings_1">
</g>
<g id="Party_Greetings_2">
</g>
<g id="Birthday_Invitation">
</g>
<g id="Birthday_1">
</g>
<g id="Birthday_2">
</g>
<g id="Birthday_Message_1">
</g>
<g id="Birthday_Message_2">
</g>
<g id="Birthyday_Hat_1">
</g>
<g id="Birthay_Hat_2">
</g>
<g id="Birthday_Hat3">
</g>
<g id="Birthday_Decoration_1">
</g>
<g id="Birthday_Decoration_2">
</g>
<g id="Birthday_Decoration_3">
</g>
<g id="Horn_1">
</g>
<g id="Horn_2">
</g>
<g id="Baloon">
</g>
<g id="Balloons_1">
</g>
<g id="Balloons_2">
</g>
<g id="Birthday_Picture">
</g>
<g id="Kid_x27_s_Champagne">
</g>
<g id="Candy">
</g>
<g id="Birthday_Card">
</g>
<g id="Flowers">
	<g>
		<g>
			<path d="M11.49,8.98c-0.481,0-0.854-0.279-1.154-0.503c-0.144-0.107-0.28-0.209-0.392-0.256C9.821,8.171,9.646,8.145,9.461,8.116
				C9.077,8.059,8.643,7.992,8.315,7.665S7.922,6.903,7.864,6.52c-0.028-0.186-0.055-0.36-0.105-0.483
				C7.711,5.923,7.61,5.787,7.502,5.643C7.278,5.344,7,4.971,7,4.49c0-0.481,0.279-0.854,0.503-1.154
				C7.61,3.192,7.712,3.057,7.758,2.944c0.051-0.123,0.078-0.298,0.105-0.483c0.058-0.384,0.124-0.818,0.451-1.146
				c0.327-0.327,0.761-0.393,1.145-0.451C9.645,0.836,9.82,0.81,9.944,0.758c0.113-0.047,0.249-0.148,0.393-0.256
				C10.636,0.278,11.009,0,11.49,0c0.481,0,0.854,0.278,1.153,0.502c0.144,0.107,0.28,0.209,0.392,0.256
				c0.125,0.052,0.3,0.078,0.486,0.106c0.383,0.058,0.817,0.124,1.144,0.451c0.328,0.327,0.393,0.762,0.451,1.146
				c0.028,0.186,0.055,0.36,0.105,0.483c0.046,0.112,0.148,0.248,0.255,0.392c0.224,0.3,0.503,0.673,0.503,1.154
				c0,0.48-0.278,0.854-0.502,1.152c-0.107,0.145-0.209,0.28-0.256,0.394c-0.051,0.124-0.078,0.299-0.106,0.484
				c-0.058,0.383-0.123,0.817-0.451,1.145s-0.762,0.394-1.146,0.451c-0.185,0.028-0.36,0.055-0.483,0.105
				c-0.112,0.047-0.248,0.148-0.392,0.256C12.344,8.701,11.971,8.98,11.49,8.98z M11.49,1c-0.148,0-0.354,0.154-0.554,0.304
				c-0.187,0.14-0.38,0.283-0.609,0.378C10.091,1.78,9.835,1.818,9.609,1.853C9.367,1.89,9.117,1.928,9.022,2.022
				S8.889,2.368,8.853,2.61c-0.034,0.226-0.073,0.48-0.17,0.717C8.587,3.555,8.443,3.748,8.304,3.935C8.155,4.135,8,4.342,8,4.49
				s0.154,0.354,0.304,0.555c0.14,0.187,0.284,0.38,0.378,0.608C8.78,5.89,8.818,6.145,8.853,6.37
				c0.037,0.242,0.075,0.493,0.169,0.588c0.095,0.095,0.346,0.133,0.588,0.17c0.225,0.033,0.48,0.072,0.716,0.17
				c0.229,0.095,0.421,0.239,0.608,0.379c0.2,0.149,0.407,0.304,0.555,0.304c0.149,0,0.355-0.154,0.556-0.304
				c0.187-0.14,0.379-0.284,0.607-0.379c0.237-0.098,0.492-0.137,0.717-0.17c0.243-0.037,0.493-0.075,0.588-0.17
				c0.095-0.095,0.132-0.345,0.169-0.587c0.034-0.226,0.073-0.481,0.171-0.718c0.095-0.229,0.239-0.422,0.378-0.608
				c0.149-0.2,0.304-0.406,0.304-0.555s-0.155-0.355-0.304-0.556c-0.139-0.187-0.283-0.38-0.378-0.607
				c-0.098-0.236-0.136-0.491-0.17-0.717c-0.037-0.242-0.075-0.493-0.169-0.588s-0.345-0.133-0.587-0.17
				c-0.226-0.034-0.481-0.072-0.718-0.171c-0.228-0.095-0.421-0.238-0.607-0.378C11.845,1.154,11.638,1,11.49,1z"/>
		</g>
		<g>
			<path d="M5.49,10.98c-0.481,0-0.854-0.279-1.154-0.503c-0.144-0.107-0.28-0.209-0.392-0.256
				c-0.123-0.051-0.298-0.077-0.483-0.105c-0.384-0.058-0.818-0.124-1.146-0.451S1.922,8.903,1.864,8.52
				c-0.028-0.186-0.055-0.36-0.105-0.483C1.711,7.923,1.61,7.787,1.502,7.643C1.278,7.344,1,6.971,1,6.49
				c0-0.481,0.279-0.854,0.503-1.154C1.61,5.192,1.712,5.057,1.758,4.944C1.81,4.82,1.836,4.646,1.864,4.46
				c0.058-0.383,0.123-0.817,0.451-1.145c0.327-0.327,0.761-0.393,1.145-0.451C3.645,2.836,3.82,2.81,3.944,2.758
				c0.113-0.047,0.249-0.148,0.393-0.256C4.636,2.278,5.009,2,5.49,2c0.48,0,0.853,0.278,1.153,0.502
				c0.144,0.107,0.28,0.209,0.392,0.256C7.161,2.81,7.336,2.837,7.521,2.865c0.22,0.034,0.448,0.069,0.669,0.154
				C8.449,3.118,8.578,3.406,8.48,3.665C8.381,3.924,8.092,4.052,7.834,3.953c-0.123-0.047-0.289-0.072-0.465-0.1
				C7.144,3.819,6.888,3.779,6.652,3.682C6.425,3.587,6.231,3.443,6.044,3.304C5.845,3.154,5.639,3,5.49,3S5.135,3.154,4.935,3.304
				c-0.187,0.14-0.38,0.283-0.608,0.378C4.091,3.78,3.835,3.818,3.609,3.853C3.367,3.89,3.117,3.928,3.022,4.022
				S2.89,4.367,2.853,4.609C2.819,4.835,2.78,5.091,2.682,5.327C2.587,5.555,2.443,5.748,2.304,5.935C2.155,6.135,2,6.342,2,6.49
				s0.154,0.354,0.304,0.555c0.14,0.187,0.284,0.38,0.378,0.608C2.78,7.89,2.818,8.145,2.853,8.37
				c0.037,0.242,0.075,0.493,0.169,0.588c0.095,0.095,0.346,0.133,0.588,0.17c0.225,0.033,0.48,0.072,0.716,0.17
				c0.229,0.095,0.421,0.239,0.608,0.379C5.135,9.826,5.341,9.98,5.49,9.98c0.148,0,0.355-0.154,0.555-0.304
				c0.187-0.14,0.379-0.284,0.607-0.379C6.889,9.2,7.145,9.161,7.37,9.128c0.243-0.037,0.493-0.075,0.588-0.17
				C8.053,8.863,8.091,8.612,8.127,8.37C8.162,8.145,8.2,7.89,8.298,7.653C8.369,7.482,8.47,7.33,8.56,7.204
				c0.16-0.227,0.471-0.278,0.697-0.118c0.225,0.159,0.278,0.472,0.118,0.696C9.318,7.863,9.254,7.957,9.222,8.036
				C9.171,8.159,9.144,8.334,9.116,8.52C9.058,8.903,8.993,9.338,8.665,9.665s-0.762,0.394-1.146,0.451
				c-0.185,0.028-0.36,0.055-0.483,0.105c-0.112,0.047-0.248,0.148-0.392,0.256C6.344,10.701,5.971,10.98,5.49,10.98z"/>
		</g>
		<g>
			<path d="M17.49,10.98c-0.481,0-0.854-0.279-1.154-0.503c-0.144-0.107-0.28-0.209-0.392-0.256
				c-0.123-0.051-0.298-0.077-0.483-0.105c-0.384-0.058-0.818-0.124-1.146-0.451s-0.393-0.762-0.451-1.146
				c-0.028-0.186-0.055-0.36-0.105-0.483c-0.033-0.079-0.096-0.173-0.153-0.254c-0.16-0.225-0.107-0.537,0.118-0.696
				c0.225-0.16,0.538-0.108,0.697,0.118c0.09,0.126,0.191,0.278,0.262,0.449c0.098,0.236,0.136,0.491,0.17,0.717
				c0.037,0.242,0.075,0.493,0.169,0.588c0.095,0.095,0.346,0.133,0.588,0.17c0.225,0.033,0.48,0.072,0.716,0.17
				c0.229,0.095,0.421,0.239,0.608,0.379c0.2,0.149,0.407,0.304,0.556,0.304c0.148,0,0.355-0.154,0.555-0.304
				c0.187-0.14,0.379-0.284,0.607-0.379c0.237-0.098,0.492-0.137,0.717-0.17c0.243-0.037,0.493-0.075,0.588-0.17
				c0.095-0.095,0.133-0.346,0.169-0.588c0.034-0.226,0.073-0.48,0.17-0.717c0.095-0.229,0.239-0.422,0.378-0.608
				c0.149-0.2,0.304-0.406,0.304-0.555s-0.155-0.355-0.304-0.556c-0.139-0.187-0.283-0.38-0.378-0.607
				c-0.098-0.236-0.136-0.491-0.17-0.717c-0.037-0.242-0.075-0.493-0.169-0.588s-0.345-0.133-0.587-0.17
				c-0.226-0.034-0.481-0.072-0.718-0.171c-0.228-0.095-0.421-0.238-0.608-0.378C17.845,3.154,17.639,3,17.49,3
				s-0.355,0.154-0.555,0.304c-0.187,0.14-0.38,0.283-0.608,0.378c-0.235,0.098-0.49,0.138-0.716,0.172
				c-0.176,0.027-0.343,0.053-0.465,0.1c-0.257,0.099-0.547-0.029-0.646-0.288s0.031-0.547,0.289-0.646
				c0.222-0.085,0.449-0.12,0.669-0.154c0.186-0.028,0.361-0.056,0.485-0.107c0.113-0.047,0.249-0.148,0.393-0.256
				C16.636,2.278,17.009,2,17.49,2c0.48,0,0.853,0.278,1.153,0.502c0.144,0.107,0.28,0.209,0.392,0.256
				c0.125,0.052,0.3,0.078,0.486,0.106c0.383,0.058,0.817,0.124,1.144,0.451c0.328,0.327,0.393,0.762,0.451,1.146
				c0.028,0.186,0.055,0.36,0.105,0.483c0.046,0.112,0.148,0.248,0.255,0.392c0.224,0.3,0.503,0.673,0.503,1.154
				c0,0.48-0.278,0.854-0.502,1.152c-0.107,0.145-0.209,0.28-0.256,0.394c-0.051,0.123-0.078,0.298-0.105,0.483
				c-0.058,0.384-0.124,0.818-0.451,1.146s-0.762,0.394-1.146,0.451c-0.185,0.028-0.36,0.055-0.483,0.105
				c-0.112,0.047-0.248,0.148-0.392,0.256C18.344,10.701,17.971,10.98,17.49,10.98z"/>
		</g>
		<g>
			<path d="M11.48,19c-0.024,0-0.049-0.002-0.073-0.005c-0.273-0.041-0.462-0.295-0.422-0.568c0.532-3.613,5.086-8.491,5.279-8.697
				c0.189-0.201,0.506-0.21,0.707-0.021c0.201,0.189,0.211,0.506,0.022,0.707c-0.045,0.048-4.532,4.854-5.019,8.158
				C11.938,18.821,11.725,19,11.48,19z"/>
		</g>
		<g>
			<path d="M11.479,19c-0.243,0-0.456-0.177-0.494-0.425c-0.502-3.294-4.956-8.114-5.001-8.162
				c-0.188-0.202-0.177-0.519,0.026-0.707C6.212,9.518,6.528,9.53,6.717,9.731c0.192,0.207,4.709,5.098,5.257,8.693
				c0.042,0.272-0.146,0.528-0.419,0.569C11.53,18.998,11.504,19,11.479,19z"/>
		</g>
		<g>
			<path d="M11.48,6c-0.827,0-1.5-0.673-1.5-1.5S10.653,3,11.48,3s1.5,0.673,1.5,1.5S12.307,6,11.48,6z M11.48,4
				c-0.276,0-0.5,0.225-0.5,0.5S11.204,5,11.48,5s0.5-0.225,0.5-0.5S11.756,4,11.48,4z"/>
		</g>
		<g>
			<path d="M5.48,8c-0.827,0-1.5-0.673-1.5-1.5S4.653,5,5.48,5s1.5,0.673,1.5,1.5S6.307,8,5.48,8z M5.48,6
				c-0.276,0-0.5,0.225-0.5,0.5S5.204,7,5.48,7s0.5-0.225,0.5-0.5S5.756,6,5.48,6z"/>
		</g>
		<g>
			<path d="M17.48,8c-0.827,0-1.5-0.673-1.5-1.5S16.653,5,17.48,5s1.5,0.673,1.5,1.5S18.307,8,17.48,8z M17.48,6
				c-0.276,0-0.5,0.225-0.5,0.5S17.204,7,17.48,7s0.5-0.225,0.5-0.5S17.756,6,17.48,6z"/>
		</g>
		<g>
			<path d="M14.48,21c-0.097,0-0.194-0.028-0.277-0.084l-2.723-1.815l-2.723,1.815c-0.153,0.103-0.351,0.112-0.513,0.024
				C8.082,20.854,7.98,20.685,7.98,20.5v-4c0-0.185,0.102-0.354,0.264-0.44c0.162-0.088,0.36-0.077,0.513,0.024l2.723,1.815
				l2.723-1.815c0.153-0.102,0.351-0.112,0.513-0.024c0.163,0.087,0.264,0.256,0.264,0.44v4c0,0.185-0.102,0.354-0.264,0.44
				C14.642,20.98,14.561,21,14.48,21z M12.381,18.5l1.599,1.065v-2.131L12.381,18.5z M8.98,17.435v2.131l1.599-1.065L8.98,17.435z"
				/>
		</g>
		<g>
			<path d="M11.48,24c-1.425,0-2.5-0.645-2.5-1.5c0-0.132,0.052-0.259,0.145-0.353c1.814-1.828,1.855-3.632,1.855-3.65
				c0.003-0.273,0.226-0.496,0.5-0.496c0,0,0,0,0.001,0c0.274,0.001,0.497,0.221,0.499,0.495c0,0.016,0.054,1.864,1.852,3.649
				c0.095,0.094,0.148,0.222,0.148,0.354C13.98,23.355,12.905,24,11.48,24z M10.061,22.616C10.244,22.775,10.731,23,11.48,23
				c0.746,0,1.233-0.224,1.417-0.383c-0.693-0.743-1.136-1.485-1.418-2.132C11.196,21.126,10.753,21.866,10.061,22.616z"/>
		</g>
	</g>
</g>
<g id="Birthday_Song">
</g>
<g id="Candle">
</g>
<g id="Sweet_16">
</g>
<g id="Clown">
</g>
<g id="Clown_2">
</g>
<g id="Birthday_Party">
</g>
<g id="Giving_Gift">
</g>
<g id="Present_5">
</g>
<g id="Champagne_in_ice_bucket">
</g>
<g id="Beer">
</g>
<g id="Truffles">
</g>
<g id="Pinata">
</g>
</svg>
