<?xml version="1.0" encoding="iso-8859-1"?>
<!-- Generator: Adobe Illustrator 19.2.1, SVG Export Plug-In . SVG Version: 6.00 Build 0)  -->
<svg version="1.1" xmlns="http://www.w3.org/2000/svg" xmlns:xlink="http://www.w3.org/1999/xlink" x="0px" y="0px"
	 viewBox="0 0 24 24" style="enable-background:new 0 0 24 24;" xml:space="preserve">
<g id="Present_1">
</g>
<g id="Present_2">
</g>
<g id="Present_3">
</g>
<g id="Present_Cake">
</g>
<g id="Present_4">
</g>
<g id="Birthday_Cake_1">
</g>
<g id="Birthday_Cake_2">
</g>
<g id="Cake_Piece">
</g>
<g id="Cupcake">
</g>
<g id="Lollipop">
</g>
<g id="Birthday_Greetings_1">
</g>
<g id="Party_Greetings_2">
</g>
<g id="Birthday_Invitation">
</g>
<g id="Birthday_1">
</g>
<g id="Birthday_2">
</g>
<g id="Birthday_Message_1">
</g>
<g id="Birthday_Message_2">
</g>
<g id="Birthyday_Hat_1">
</g>
<g id="Birthay_Hat_2">
</g>
<g id="Birthday_Hat3">
</g>
<g id="Birthday_Decoration_1">
</g>
<g id="Birthday_Decoration_2">
</g>
<g id="Birthday_Decoration_3">
</g>
<g id="Horn_1">
</g>
<g id="Horn_2">
</g>
<g id="Baloon">
</g>
<g id="Balloons_1">
</g>
<g id="Balloons_2">
</g>
<g id="Birthday_Picture">
</g>
<g id="Kid_x27_s_Champagne">
</g>
<g id="Candy">
</g>
<g id="Birthday_Card">
</g>
<g id="Flowers">
</g>
<g id="Birthday_Song">
</g>
<g id="Candle">
</g>
<g id="Sweet_16">
</g>
<g id="Clown">
</g>
<g id="Clown_2">
</g>
<g id="Birthday_Party">
</g>
<g id="Giving_Gift">
	<g>
		<g>
			<path d="M3.5,21.036h-3c-0.276,0-0.5-0.224-0.5-0.5v-9c0-0.138,0.057-0.27,0.157-0.364c0.1-0.094,0.236-0.142,0.372-0.135
				c1.03,0.062,4.457,0.324,5.314,1.136c0.11,0.105,0.168,0.255,0.154,0.407c-0.227,2.6-1.949,7.888-2.022,8.111
				C3.908,20.897,3.716,21.036,3.5,21.036z M1,20.036h2.135c0.372-1.175,1.571-5.065,1.837-7.255
				C4.341,12.476,2.606,12.199,1,12.072V20.036z"/>
		</g>
		<g>
			<path d="M13.396,23.005c-0.652,0-1.232-0.184-2.072-0.501l-7.481-2.493c-0.262-0.088-0.403-0.371-0.316-0.633
				c0.088-0.262,0.372-0.402,0.633-0.316l7.5,2.5c1.803,0.683,1.948,0.734,6.152-0.988l4.957-2.253
				c-0.551-0.67-1.441-0.978-2.315-0.757l-3.831,0.958c-0.268,0.062-0.54-0.097-0.606-0.364s0.096-0.539,0.364-0.606l3.831-0.958
				c1.505-0.374,3.043,0.331,3.737,1.72c0.061,0.122,0.069,0.263,0.024,0.391c-0.046,0.128-0.142,0.232-0.265,0.288l-5.5,2.5
				C15.597,22.562,14.409,23.005,13.396,23.005z"/>
		</g>
		<g>
			<path d="M14.426,18.961c-0.23,0-0.46-0.022-0.685-0.067l-4.339-0.867c-0.271-0.054-0.446-0.317-0.393-0.588
				c0.055-0.272,0.322-0.447,0.588-0.393l4.339,0.867c0.361,0.072,0.739,0.063,1.097-0.026l0.96-0.239
				c-0.061-0.913-0.507-1.351-1.614-1.626l-8.987-1.997c-0.27-0.061-0.439-0.327-0.38-0.597c0.06-0.269,0.326-0.438,0.597-0.38l9,2
				C16.267,15.461,17,16.333,17,17.878v0.158c0,0.229-0.156,0.43-0.379,0.485l-1.346,0.336
				C14.999,18.926,14.712,18.961,14.426,18.961z M16.5,18.036h0.01H16.5z"/>
		</g>
		<g>
			<path d="M22.5,17.5c-0.276,0-0.5-0.224-0.5-0.5V8H9v6c0,0.276-0.224,0.5-0.5,0.5S8,14.276,8,14V7.5C8,7.224,8.224,7,8.5,7h14
				C22.776,7,23,7.224,23,7.5V17C23,17.276,22.776,17.5,22.5,17.5z"/>
		</g>
		<g>
			<path d="M23.5,8h-16C7.224,8,7,7.776,7,7.5v-3C7,4.224,7.224,4,7.5,4h16C23.776,4,24,4.224,24,4.5v3C24,7.776,23.776,8,23.5,8z
				 M8,7h15V5H8V7z"/>
		</g>
		<g>
			<path d="M15.5,16c-0.276,0-0.5-0.224-0.5-0.5v-11C15,4.224,15.224,4,15.5,4S16,4.224,16,4.5v11C16,15.776,15.776,16,15.5,16z"/>
		</g>
		<g>
			<path d="M15.5,5c-0.185,0-0.354-0.102-0.44-0.264c-0.088-0.163-0.078-0.36,0.024-0.514C15.172,4.091,17.258,1,19.5,1
				c0.982,0,1.696,0.594,1.696,1.411c0,0.698-0.528,1.362-1.448,1.823C18.731,4.742,17.303,5,15.5,5z M19.5,2
				c-1.046,0-2.214,1.085-2.964,1.967c1.416-0.097,2.272-0.381,2.765-0.627c0.661-0.331,0.896-0.707,0.896-0.929
				C20.196,2.169,19.91,2,19.5,2z"/>
		</g>
		<g>
			<path d="M15.5,5c-1.803,0-3.231-0.258-4.248-0.766c-0.92-0.461-1.448-1.125-1.448-1.823C9.804,1.594,10.518,1,11.5,1
				c2.242,0,4.328,3.091,4.416,3.223c0.103,0.153,0.112,0.351,0.024,0.514C15.854,4.898,15.685,5,15.5,5z M11.5,2
				c-0.41,0-0.696,0.169-0.696,0.411c0,0.222,0.234,0.598,0.896,0.929c0.492,0.246,1.349,0.53,2.763,0.627
				C13.711,3.085,12.542,2,11.5,2z"/>
		</g>
	</g>
</g>
<g id="Present_5">
</g>
<g id="Champagne_in_ice_bucket">
</g>
<g id="Beer">
</g>
<g id="Truffles">
</g>
<g id="Pinata">
</g>
</svg>
