<?xml version="1.0" encoding="iso-8859-1"?>
<!-- Generator: Adobe Illustrator 19.2.1, SVG Export Plug-In . SVG Version: 6.00 Build 0)  -->
<svg version="1.1" xmlns="http://www.w3.org/2000/svg" xmlns:xlink="http://www.w3.org/1999/xlink" x="0px" y="0px"
	 viewBox="0 0 24 24" style="enable-background:new 0 0 24 24;" xml:space="preserve">
<g id="Present_1">
</g>
<g id="Present_2">
</g>
<g id="Present_3">
</g>
<g id="Present_Cake">
</g>
<g id="Present_4">
</g>
<g id="Birthday_Cake_1">
</g>
<g id="Birthday_Cake_2">
</g>
<g id="Cake_Piece">
</g>
<g id="Cupcake">
</g>
<g id="Lollipop">
</g>
<g id="Birthday_Greetings_1">
</g>
<g id="Party_Greetings_2">
</g>
<g id="Birthday_Invitation">
</g>
<g id="Birthday_1">
</g>
<g id="Birthday_2">
</g>
<g id="Birthday_Message_1">
</g>
<g id="Birthday_Message_2">
</g>
<g id="Birthyday_Hat_1">
</g>
<g id="Birthay_Hat_2">
</g>
<g id="Birthday_Hat3">
</g>
<g id="Birthday_Decoration_1">
</g>
<g id="Birthday_Decoration_2">
</g>
<g id="Birthday_Decoration_3">
</g>
<g id="Horn_1">
</g>
<g id="Horn_2">
	<g>
		<g>
			<path d="M2.373,23.991c-0.357,0-0.715-0.139-0.987-0.411c0,0,0,0-0.001,0c-0.459-0.46-0.541-1.167-0.197-1.718l3.935-7.176
				c0.234-0.391,0.611-0.636,1.043-0.688c0.431-0.059,0.857,0.092,1.166,0.4l3.235,3.235c0.308,0.308,0.454,0.732,0.401,1.164
				c-0.053,0.434-0.298,0.811-0.672,1.035l-7.216,3.958C2.864,23.925,2.619,23.991,2.373,23.991z M6.338,14.987
				c-0.017,0-0.034,0.001-0.051,0.003c-0.125,0.016-0.234,0.086-0.298,0.194L2.05,22.366c-0.11,0.179-0.087,0.377,0.042,0.506
				l-0.354,0.354l0.354-0.353c0.129,0.128,0.328,0.152,0.482,0.055l7.223-3.962c0.091-0.055,0.162-0.164,0.177-0.289
				s-0.027-0.247-0.116-0.336l-3.234-3.235C6.547,15.029,6.445,14.987,6.338,14.987z"/>
		</g>
		<g>
			<path d="M2.373,23.991c-0.357,0-0.715-0.139-0.987-0.411c-0.46-0.46-0.542-1.167-0.198-1.718l3.935-7.176
				c0.003-0.006,0.006-0.012,0.01-0.018c0.224-0.373,0.601-0.618,1.033-0.671c0.431-0.059,0.857,0.092,1.166,0.4l3.235,3.235
				c0.308,0.308,0.454,0.732,0.401,1.164c-0.053,0.434-0.298,0.811-0.672,1.035l-7.216,3.958
				C2.864,23.925,2.619,23.991,2.373,23.991z M5.993,15.178L2.05,22.366c-0.11,0.179-0.087,0.377,0.042,0.506
				c0.129,0.131,0.328,0.153,0.482,0.056l7.223-3.962c0.091-0.055,0.162-0.164,0.177-0.289s-0.027-0.247-0.116-0.336l-3.234-3.235
				c-0.089-0.088-0.212-0.128-0.336-0.115C6.166,15.005,6.059,15.073,5.993,15.178z"/>
		</g>
		<g>
			<path d="M7.478,14.987c-0.128,0-0.256-0.049-0.354-0.146c-0.195-0.195-0.195-0.512,0-0.707l8-8c0.195-0.195,0.512-0.195,0.707,0
				s0.195,0.512,0,0.707l-8,8C7.733,14.938,7.605,14.987,7.478,14.987z"/>
		</g>
		<g>
			<path d="M16.636,7.766c-0.129,0-0.258-0.049-0.355-0.148l-2.943-2.975c-0.668-0.675-0.39-1.976,0.648-3.026
				c1.527-1.543,3.594-2.049,4.542-1.092l2.943,2.975c0.194,0.196,0.192,0.513-0.004,0.707s-0.513,0.192-0.707-0.004l-2.943-2.975
				c-0.513-0.519-2.038-0.001-3.12,1.092c-0.676,0.684-0.838,1.428-0.648,1.62l2.943,2.975c0.194,0.196,0.192,0.513-0.004,0.707
				C16.891,7.717,16.763,7.766,16.636,7.766z"/>
		</g>
		<g>
			<path d="M10.478,17.987c-0.128,0-0.256-0.049-0.354-0.146c-0.195-0.195-0.195-0.512,0-0.707l9.655-9.643
				c1.192-1.205,1.507-2.758,0.982-3.29c-0.378-0.382-1.327-0.218-2.205,0.348l0.946,0.93c0.36,0.364,0.267,1-0.211,1.482
				c-0.998,1.009-2.362,1.311-3.009,0.655c-0.669-0.675-0.39-1.976,0.649-3.025c0.156-0.158,0.317-0.305,0.481-0.442
				c0.004-0.004,0.008-0.008,0.012-0.012c0.031-0.031,0.064-0.058,0.101-0.079c1.422-1.13,3.119-1.396,3.948-0.559
				c0.993,1.004,0.542,3.155-0.984,4.698l-9.657,9.645C10.733,17.938,10.605,17.987,10.478,17.987z M17.765,5.173
				c-0.042,0.04-0.083,0.08-0.124,0.121c-0.677,0.684-0.839,1.427-0.649,1.619c0.057,0.058,0.159,0.07,0.234,0.07
				c0.293,0,0.824-0.19,1.354-0.725c0.063-0.064,0.1-0.123,0.121-0.165L17.765,5.173z"/>
		</g>
		<g>
			<path d="M1.978,23.487c-0.128,0-0.256-0.049-0.354-0.146c-0.195-0.195-0.195-0.512,0-0.707l1.5-1.5
				c0.195-0.195,0.512-0.195,0.707,0s0.195,0.512,0,0.707l-1.5,1.5C2.233,23.438,2.105,23.487,1.978,23.487z"/>
		</g>
	</g>
</g>
<g id="Baloon">
</g>
<g id="Balloons_1">
</g>
<g id="Balloons_2">
</g>
<g id="Birthday_Picture">
</g>
<g id="Kid_x27_s_Champagne">
</g>
<g id="Candy">
</g>
<g id="Birthday_Card">
</g>
<g id="Flowers">
</g>
<g id="Birthday_Song">
</g>
<g id="Candle">
</g>
<g id="Sweet_16">
</g>
<g id="Clown">
</g>
<g id="Clown_2">
</g>
<g id="Birthday_Party">
</g>
<g id="Giving_Gift">
</g>
<g id="Present_5">
</g>
<g id="Champagne_in_ice_bucket">
</g>
<g id="Beer">
</g>
<g id="Truffles">
</g>
<g id="Pinata">
</g>
</svg>
