<?xml version="1.0" encoding="iso-8859-1"?>
<!-- Generator: Adobe Illustrator 19.2.1, SVG Export Plug-In . SVG Version: 6.00 Build 0)  -->
<svg version="1.1" xmlns="http://www.w3.org/2000/svg" xmlns:xlink="http://www.w3.org/1999/xlink" x="0px" y="0px"
	 viewBox="0 0 24 24" style="enable-background:new 0 0 24 24;" xml:space="preserve">
<g id="Present_1">
</g>
<g id="Present_2">
</g>
<g id="Present_3">
</g>
<g id="Present_Cake">
</g>
<g id="Present_4">
</g>
<g id="Birthday_Cake_1">
</g>
<g id="Birthday_Cake_2">
</g>
<g id="Cake_Piece">
</g>
<g id="Cupcake">
</g>
<g id="Lollipop">
</g>
<g id="Birthday_Greetings_1">
</g>
<g id="Party_Greetings_2">
</g>
<g id="Birthday_Invitation">
</g>
<g id="Birthday_1">
</g>
<g id="Birthday_2">
</g>
<g id="Birthday_Message_1">
</g>
<g id="Birthday_Message_2">
</g>
<g id="Birthyday_Hat_1">
</g>
<g id="Birthay_Hat_2">
</g>
<g id="Birthday_Hat3">
</g>
<g id="Birthday_Decoration_1">
</g>
<g id="Birthday_Decoration_2">
</g>
<g id="Birthday_Decoration_3">
</g>
<g id="Horn_1">
	<g>
		<g>
			<path d="M0.5,24c-0.13,0-0.258-0.051-0.354-0.146c-0.15-0.15-0.189-0.379-0.097-0.571l7-14.5C7.17,8.535,7.47,8.431,7.717,8.55
				C7.966,8.67,8.07,8.969,7.95,9.217L1.573,22.427l13.209-6.377c0.25-0.121,0.548-0.017,0.667,0.232
				c0.12,0.249,0.016,0.548-0.233,0.668l-14.5,7C0.648,23.983,0.574,24,0.5,24z"/>
		</g>
		<g>
			<path d="M14.506,16.997c-0.449,0-0.977-0.132-1.563-0.396c-1.028-0.465-2.167-1.294-3.208-2.335
				C7.699,12.23,6.246,9.563,7.406,8.402c0.535-0.536,1.478-0.538,2.656-0.006c1.027,0.464,2.167,1.293,3.208,2.335l0,0l0,0l0,0
				c1.042,1.041,1.871,2.18,2.335,3.208c0.531,1.178,0.529,2.12-0.006,2.655C15.329,16.862,14.958,16.997,14.506,16.997z
				 M8.504,8.995c-0.195,0-0.324,0.046-0.391,0.114c-0.432,0.433,0.26,2.381,2.329,4.45c0.958,0.958,1.992,1.715,2.913,2.13
				c0.881,0.397,1.378,0.355,1.537,0.198c0.158-0.157,0.2-0.654-0.198-1.536c-0.416-0.921-1.172-1.955-2.13-2.913l0,0
				c-0.958-0.958-1.993-1.715-2.913-2.13C9.144,9.079,8.765,8.995,8.504,8.995z"/>
		</g>
		<g>
			<path d="M17.5,16c-0.184,0-0.36-0.102-0.448-0.276c-0.124-0.247-0.023-0.547,0.224-0.671l1.191-0.596
				c0.647-0.324,1.419-0.324,2.065,0l0.382,0.191c0.366,0.184,0.803,0.184,1.17,0l1.191-0.596c0.248-0.125,0.547-0.022,0.671,0.224
				c0.124,0.247,0.023,0.547-0.224,0.671l-1.191,0.596c-0.647,0.324-1.419,0.324-2.065,0l-0.382-0.191
				c-0.366-0.184-0.803-0.184-1.17,0l-1.191,0.596C17.652,15.983,17.576,16,17.5,16z"/>
		</g>
		<g>
			<path d="M8.5,7C8.424,7,8.348,6.983,8.276,6.947C8.029,6.824,7.929,6.523,8.053,6.276l0.596-1.191
				c0.183-0.367,0.183-0.804,0-1.171L8.458,3.533c-0.323-0.647-0.323-1.419,0-2.066l0.596-1.191C9.177,0.03,9.477-0.07,9.724,0.053
				c0.247,0.124,0.347,0.424,0.224,0.671L9.352,1.915c-0.183,0.367-0.183,0.804,0,1.171l0.191,0.381
				c0.323,0.647,0.323,1.419,0,2.066L8.947,6.724C8.859,6.899,8.683,7,8.5,7z"/>
		</g>
		<g>
			<path d="M12.5,9C12.224,9,12,8.776,12,8.5V6.618c0-0.88,0.489-1.671,1.276-2.065C13.723,4.33,14,3.881,14,3.382V2.904
				c0-0.723,0.345-1.414,0.924-1.847L16.2,0.1c0.221-0.166,0.534-0.122,0.7,0.1c0.166,0.221,0.121,0.535-0.1,0.7l-1.277,0.958
				C15.196,2.103,15,2.495,15,2.904v0.478c0,0.88-0.489,1.671-1.276,2.065C13.277,5.67,13,6.119,13,6.618V8.5
				C13,8.776,12.776,9,12.5,9z"/>
		</g>
		<g>
			<path d="M17.382,12H15.5c-0.276,0-0.5-0.224-0.5-0.5s0.224-0.5,0.5-0.5h1.882c0.499,0,0.948-0.277,1.171-0.724
				C18.947,9.489,19.738,9,20.618,9h0.478c0.41,0,0.801-0.196,1.046-0.523L23.1,7.2c0.167-0.221,0.479-0.265,0.7-0.1
				c0.221,0.166,0.266,0.479,0.1,0.7l-0.958,1.276C22.509,9.655,21.819,10,21.096,10h-0.478c-0.499,0-0.948,0.277-1.171,0.724
				C19.053,11.511,18.262,12,17.382,12z"/>
		</g>
		<g>
			<path d="M16.09,9.364c-0.198,0-0.386-0.119-0.464-0.314c-0.103-0.256,0.022-0.547,0.279-0.65c0.412-0.165,0.71-0.523,0.797-0.958
				l0.102-0.509c0.162-0.811,0.75-1.477,1.534-1.738l0.971-0.324c0.461-0.154,0.797-0.547,0.877-1.027l0.184-1.101
				c0.111-0.669,0.508-1.252,1.09-1.601l1.783-1.07c0.237-0.142,0.544-0.065,0.686,0.171c0.142,0.237,0.065,0.544-0.171,0.686
				l-1.784,1.07c-0.33,0.198-0.555,0.528-0.618,0.907l-0.184,1.102c-0.141,0.846-0.734,1.54-1.547,1.811l-0.971,0.324
				c-0.445,0.148-0.778,0.526-0.87,0.985l-0.102,0.509c-0.154,0.769-0.68,1.4-1.407,1.691C16.215,9.353,16.152,9.364,16.09,9.364z"
				/>
		</g>
	</g>
</g>
<g id="Horn_2">
</g>
<g id="Baloon">
</g>
<g id="Balloons_1">
</g>
<g id="Balloons_2">
</g>
<g id="Birthday_Picture">
</g>
<g id="Kid_x27_s_Champagne">
</g>
<g id="Candy">
</g>
<g id="Birthday_Card">
</g>
<g id="Flowers">
</g>
<g id="Birthday_Song">
</g>
<g id="Candle">
</g>
<g id="Sweet_16">
</g>
<g id="Clown">
</g>
<g id="Clown_2">
</g>
<g id="Birthday_Party">
</g>
<g id="Giving_Gift">
</g>
<g id="Present_5">
</g>
<g id="Champagne_in_ice_bucket">
</g>
<g id="Beer">
</g>
<g id="Truffles">
</g>
<g id="Pinata">
</g>
</svg>
