<?xml version="1.0" encoding="iso-8859-1"?>
<!-- Generator: Adobe Illustrator 19.2.1, SVG Export Plug-In . SVG Version: 6.00 Build 0)  -->
<svg version="1.1" xmlns="http://www.w3.org/2000/svg" xmlns:xlink="http://www.w3.org/1999/xlink" x="0px" y="0px"
	 viewBox="0 0 24 24" style="enable-background:new 0 0 24 24;" xml:space="preserve">
<g id="Present_1">
</g>
<g id="Present_2">
</g>
<g id="Present_3">
</g>
<g id="Present_Cake">
</g>
<g id="Present_4">
</g>
<g id="Birthday_Cake_1">
</g>
<g id="Birthday_Cake_2">
</g>
<g id="Cake_Piece">
</g>
<g id="Cupcake">
</g>
<g id="Lollipop">
</g>
<g id="Birthday_Greetings_1">
</g>
<g id="Party_Greetings_2">
</g>
<g id="Birthday_Invitation">
</g>
<g id="Birthday_1">
</g>
<g id="Birthday_2">
</g>
<g id="Birthday_Message_1">
</g>
<g id="Birthday_Message_2">
</g>
<g id="Birthyday_Hat_1">
</g>
<g id="Birthay_Hat_2">
</g>
<g id="Birthday_Hat3">
</g>
<g id="Birthday_Decoration_1">
</g>
<g id="Birthday_Decoration_2">
</g>
<g id="Birthday_Decoration_3">
</g>
<g id="Horn_1">
</g>
<g id="Horn_2">
</g>
<g id="Baloon">
</g>
<g id="Balloons_1">
</g>
<g id="Balloons_2">
</g>
<g id="Birthday_Picture">
</g>
<g id="Kid_x27_s_Champagne">
	<g>
		<g>
			<path d="M5.035,24c-0.4,0-0.777-0.156-1.061-0.439l-3.535-3.535c-0.585-0.585-0.585-1.536,0-2.121l4.949-4.95
				c1.386-1.386,2.744-2.101,4.182-2.857c1.563-0.823,3.179-1.674,5.011-3.506l2.122-2.121c0.584-0.585,1.537-0.585,2.121,0
				l0.707,0.707c0.585,0.585,0.585,1.536,0,2.121L17.41,9.419c-1.813,1.813-2.669,3.434-3.498,5.001
				c-0.764,1.445-1.486,2.812-2.866,4.191l-4.95,4.949C5.813,23.844,5.438,24,5.035,24C5.036,24,5.036,24,5.035,24z M17.764,5.03
				c-0.128,0-0.256,0.048-0.354,0.146l-2.122,2.121c-1.939,1.939-3.699,2.866-5.252,3.684c-1.369,0.721-2.661,1.401-3.94,2.68
				l-4.949,4.95c-0.195,0.195-0.195,0.512,0,0.707l3.535,3.535C4.776,22.948,4.901,23,5.035,23h0.001
				c0.133,0,0.258-0.052,0.353-0.146l4.95-4.949c1.273-1.273,1.961-2.574,2.689-3.952c0.823-1.557,1.756-3.321,3.675-5.24
				l2.121-2.122c0.195-0.195,0.195-0.512,0-0.707l-0.707-0.707C18.02,5.079,17.892,5.03,17.764,5.03z"/>
		</g>
		<g>
			<path d="M11.45,18c-0.128,0-0.256-0.049-0.354-0.146c-0.179-0.178-0.194-0.459-0.046-0.654c0.004-0.285-0.483-1.289-1.723-2.528
				c-1.279-1.279-2.317-1.77-2.554-1.72c-0.194,0.195-0.472,0.172-0.668-0.024c-0.195-0.195-0.155-0.536,0.04-0.731
				c1.03-1.03,3.6,1.479,3.889,1.768s2.798,2.857,1.769,3.89C11.706,17.951,11.578,18,11.45,18z"/>
		</g>
		<g>
			<path d="M7.157,22.293c-0.128,0-0.256-0.049-0.354-0.146l-4.95-4.949c-0.195-0.195-0.195-0.512,0-0.707s0.512-0.195,0.707,0
				l4.95,4.949c0.195,0.195,0.195,0.512,0,0.707C7.413,22.244,7.285,22.293,7.157,22.293z"/>
		</g>
		<g>
			<path d="M19.501,3c-0.021,0-0.04-0.001-0.06-0.003c-0.274-0.033-0.47-0.28-0.438-0.553l0,0c0.006-0.047,0.118-1.162-0.686-1.478
				c-0.257-0.101-0.384-0.391-0.283-0.648c0.103-0.257,0.393-0.382,0.648-0.282c1.524,0.599,1.323,2.446,1.313,2.524
				C19.966,2.813,19.75,3,19.501,3z"/>
		</g>
		<g>
			<path d="M23.5,6.01c-0.199,0-0.388-0.12-0.465-0.317c-0.316-0.804-1.434-0.691-1.479-0.687c-0.283,0.034-0.521-0.167-0.552-0.44
				c-0.031-0.273,0.163-0.521,0.437-0.553c0.073-0.009,1.925-0.209,2.523,1.313c0.102,0.257-0.024,0.547-0.282,0.648
				C23.623,5.999,23.561,6.01,23.5,6.01z"/>
		</g>
		<g>
			<path d="M21.5,3c-0.128,0-0.256-0.049-0.354-0.146c-0.195-0.195-0.195-0.512,0-0.707l2-2c0.195-0.195,0.512-0.195,0.707,0
				s0.195,0.512,0,0.707l-2,2C21.756,2.951,21.628,3,21.5,3z"/>
		</g>
		<g>
			<path d="M7.939,17.06c-0.256,0-0.512-0.097-0.707-0.292c-0.39-0.39-0.39-1.024,0-1.414c0.391-0.391,1.023-0.391,1.414,0
				c0.39,0.39,0.39,1.024,0,1.414C8.451,16.963,8.195,17.06,7.939,17.06z M7.939,16.06C7.939,16.061,7.939,16.061,7.939,16.06
				l0.354,0.354L7.939,16.06z"/>
		</g>
		<g>
			<ellipse transform="matrix(0.7071 -0.7071 0.7071 0.7071 -8.3846 9.7573)" cx="7.586" cy="15" rx="0.5" ry="0.5"/>
		</g>
		<g>
			<ellipse transform="matrix(0.7071 -0.7071 0.7071 0.7071 -8.9704 11.1715)" cx="9" cy="16.414" rx="0.5" ry="0.5"/>
		</g>
		<g>
			<path d="M6.456,18.435c-0.242,0-0.468-0.083-0.638-0.253c-0.396-0.396-0.319-1.096,0.177-1.591
				c0.496-0.498,1.194-0.573,1.591-0.177s0.319,1.096-0.177,1.591C7.126,18.288,6.777,18.435,6.456,18.435z"/>
		</g>
		<g>
			<path d="M7.586,18.328c-0.128,0-0.256-0.049-0.354-0.146l-1.414-1.414c-0.195-0.195-0.195-0.512,0-0.707s0.512-0.195,0.707,0
				l1.414,1.414c0.195,0.195,0.195,0.512,0,0.707C7.842,18.279,7.714,18.328,7.586,18.328z"/>
		</g>
		<g>
			<path d="M6.525,19.389c-0.209,0-0.404-0.133-0.475-0.342l-0.274-0.823l-0.823-0.274c-0.262-0.088-0.403-0.371-0.316-0.633
				C4.726,17.055,5.01,16.915,5.27,17l1.061,0.354c0.149,0.05,0.267,0.167,0.316,0.316L7,18.73c0.087,0.262-0.055,0.545-0.316,0.633
				C6.631,19.381,6.578,19.389,6.525,19.389z"/>
		</g>
	</g>
</g>
<g id="Candy">
</g>
<g id="Birthday_Card">
</g>
<g id="Flowers">
</g>
<g id="Birthday_Song">
</g>
<g id="Candle">
</g>
<g id="Sweet_16">
</g>
<g id="Clown">
</g>
<g id="Clown_2">
</g>
<g id="Birthday_Party">
</g>
<g id="Giving_Gift">
</g>
<g id="Present_5">
</g>
<g id="Champagne_in_ice_bucket">
</g>
<g id="Beer">
</g>
<g id="Truffles">
</g>
<g id="Pinata">
</g>
</svg>
