<?xml version="1.0" encoding="iso-8859-1"?>
<!-- Generator: Adobe Illustrator 19.2.1, SVG Export Plug-In . SVG Version: 6.00 Build 0)  -->
<svg version="1.1" xmlns="http://www.w3.org/2000/svg" xmlns:xlink="http://www.w3.org/1999/xlink" x="0px" y="0px"
	 viewBox="0 0 24 24" style="enable-background:new 0 0 24 24;" xml:space="preserve">
<g id="Present_1">
</g>
<g id="Present_2">
</g>
<g id="Present_3">
</g>
<g id="Present_Cake">
</g>
<g id="Present_4">
</g>
<g id="Birthday_Cake_1">
</g>
<g id="Birthday_Cake_2">
</g>
<g id="Cake_Piece">
</g>
<g id="Cupcake">
</g>
<g id="Lollipop">
	<g>
		<g>
			<path d="M23.5,24c-0.128,0-0.256-0.049-0.354-0.146l-11-11c-0.195-0.195-0.195-0.512,0-0.707s0.512-0.195,0.707,0l11,11
				c0.195,0.195,0.195,0.512,0,0.707C23.756,23.951,23.628,24,23.5,24z"/>
		</g>
		<g>
			<path d="M7.5,14.996c-1.921,0-3.842-0.731-5.304-2.193C0.78,11.387,0,9.503,0,7.5s0.78-3.887,2.196-5.303
				c2.924-2.924,7.684-2.924,10.607,0l0,0c2.487,2.487,2.918,6.305,1.048,9.284c0,0-0.001,0-0.001,0.001
				c-0.308,0.489-0.659,0.933-1.046,1.321C11.342,14.265,9.421,14.996,7.5,14.996z M3.029,8.524c0,2.725,2.217,4.942,4.942,4.942
				c2.007,0,3.85-0.929,5.055-2.549c1.599-2.549,1.226-5.857-0.93-8.013c-2.535-2.534-6.658-2.534-9.193,0
				C1.676,4.131,1,5.764,1,7.5s0.676,3.369,1.903,4.596c0.383,0.383,0.803,0.708,1.247,0.975c-1.296-1.091-2.121-2.725-2.121-4.547
				c0-2.677,2.178-4.854,4.854-4.854c2.196,0,3.983,1.787,3.983,3.983c0,1.812-1.475,3.287-3.286,3.287
				c-1.505,0-2.729-1.224-2.729-2.729c0-1.259,1.024-2.284,2.283-2.284c1.063,0,1.927,0.864,1.927,1.927c0,0.276-0.224,0.5-0.5,0.5
				s-0.5-0.224-0.5-0.5c0-0.511-0.416-0.927-0.927-0.927c-0.708,0-1.283,0.576-1.283,1.284c0,0.954,0.775,1.729,1.729,1.729
				c1.261,0,2.286-1.026,2.286-2.287c0-1.645-1.338-2.983-2.983-2.983C4.758,4.669,3.029,6.398,3.029,8.524z"/>
		</g>
	</g>
</g>
<g id="Birthday_Greetings_1">
</g>
<g id="Party_Greetings_2">
</g>
<g id="Birthday_Invitation">
</g>
<g id="Birthday_1">
</g>
<g id="Birthday_2">
</g>
<g id="Birthday_Message_1">
</g>
<g id="Birthday_Message_2">
</g>
<g id="Birthyday_Hat_1">
</g>
<g id="Birthay_Hat_2">
</g>
<g id="Birthday_Hat3">
</g>
<g id="Birthday_Decoration_1">
</g>
<g id="Birthday_Decoration_2">
</g>
<g id="Birthday_Decoration_3">
</g>
<g id="Horn_1">
</g>
<g id="Horn_2">
</g>
<g id="Baloon">
</g>
<g id="Balloons_1">
</g>
<g id="Balloons_2">
</g>
<g id="Birthday_Picture">
</g>
<g id="Kid_x27_s_Champagne">
</g>
<g id="Candy">
</g>
<g id="Birthday_Card">
</g>
<g id="Flowers">
</g>
<g id="Birthday_Song">
</g>
<g id="Candle">
</g>
<g id="Sweet_16">
</g>
<g id="Clown">
</g>
<g id="Clown_2">
</g>
<g id="Birthday_Party">
</g>
<g id="Giving_Gift">
</g>
<g id="Present_5">
</g>
<g id="Champagne_in_ice_bucket">
</g>
<g id="Beer">
</g>
<g id="Truffles">
</g>
<g id="Pinata">
</g>
</svg>
