<?xml version="1.0" encoding="iso-8859-1"?>
<!-- Generator: Adobe Illustrator 19.2.1, SVG Export Plug-In . SVG Version: 6.00 Build 0)  -->
<svg version="1.1" xmlns="http://www.w3.org/2000/svg" xmlns:xlink="http://www.w3.org/1999/xlink" x="0px" y="0px"
	 viewBox="0 0 24 24" style="enable-background:new 0 0 24 24;" xml:space="preserve">
<g id="Present_1">
</g>
<g id="Present_2">
</g>
<g id="Present_3">
</g>
<g id="Present_Cake">
</g>
<g id="Present_4">
</g>
<g id="Birthday_Cake_1">
</g>
<g id="Birthday_Cake_2">
</g>
<g id="Cake_Piece">
</g>
<g id="Cupcake">
</g>
<g id="Lollipop">
</g>
<g id="Birthday_Greetings_1">
</g>
<g id="Party_Greetings_2">
	<g>
		<g>
			<path d="M23.236,23.675c-0.102,0-0.204-0.031-0.293-0.095l-10.061-7.292c-0.529-0.384-1.238-0.384-1.765,0L1.058,23.58
				c-0.225,0.163-0.537,0.112-0.698-0.111c-0.162-0.224-0.112-0.536,0.111-0.698l10.06-7.292c0.879-0.639,2.06-0.639,2.94,0
				l10.06,7.292c0.224,0.162,0.273,0.475,0.111,0.698C23.544,23.603,23.391,23.675,23.236,23.675z"/>
		</g>
		<g>
			<path d="M13.339,16.5c-0.155,0-0.308-0.072-0.406-0.207c-0.162-0.224-0.112-0.536,0.112-0.698l10.116-7.322
				c0.224-0.162,0.536-0.112,0.698,0.112c0.162,0.224,0.112,0.536-0.112,0.698l-10.116,7.322C13.543,16.469,13.441,16.5,13.339,16.5
				z"/>
		</g>
		<g>
			<path d="M10.661,16.5c-0.102,0-0.204-0.031-0.292-0.095L0.252,9.083C0.028,8.921-0.021,8.608,0.141,8.385
				c0.162-0.224,0.474-0.275,0.698-0.112l10.116,7.322c0.224,0.162,0.274,0.474,0.112,0.698C10.968,16.428,10.815,16.5,10.661,16.5z
				"/>
		</g>
		<g>
			<path d="M22.5,24h-21C0.673,24,0,23.327,0,22.5V8.968c0-0.446,0.197-0.867,0.54-1.152l1.64-1.367
				c0.212-0.177,0.527-0.148,0.705,0.064C3.061,6.726,3.032,7.041,2.82,7.218L1.18,8.584C1.065,8.68,1,8.819,1,8.968V22.5
				C1,22.776,1.224,23,1.5,23h21c0.276,0,0.5-0.224,0.5-0.5V8.968c0-0.149-0.065-0.289-0.18-0.384L21.18,7.218
				c-0.212-0.177-0.241-0.492-0.064-0.705c0.177-0.212,0.492-0.241,0.705-0.064l1.64,1.367C23.803,8.102,24,8.522,24,8.968V22.5
				C24,23.327,23.327,24,22.5,24z"/>
		</g>
		<g>
			<path d="M21.5,10.593c-0.276,0-0.5-0.224-0.5-0.5V1H3v9.087c0,0.276-0.224,0.5-0.5,0.5S2,10.364,2,10.087V0.5
				C2,0.224,2.224,0,2.5,0h19C21.776,0,22,0.224,22,0.5v9.593C22,10.37,21.776,10.593,21.5,10.593z"/>
		</g>
		<g>
			<path d="M14.5,13h-5C8.673,13,8,12.327,8,11.5v-1C8,10.224,8.224,10,8.5,10S9,10.224,9,10.5v1C9,11.776,9.224,12,9.5,12h5
				c0.276,0,0.5-0.224,0.5-0.5v-1c0-0.276,0.224-0.5,0.5-0.5s0.5,0.224,0.5,0.5v1C16,12.327,15.327,13,14.5,13z"/>
		</g>
		<g>
			<path d="M12,4.5c-0.551,0-1-0.449-1-1c0-0.357,0.32-0.896,0.589-1.284c0.187-0.271,0.636-0.271,0.822,0
				C12.68,2.604,13,3.143,13,3.5C13,4.051,12.551,4.5,12,4.5z"/>
		</g>
		<g>
			<path d="M15,11c-0.597,0-1.133-0.263-1.5-0.679C13.133,10.737,12.597,11,12,11s-1.133-0.263-1.5-0.679
				C10.133,10.737,9.597,11,9,11c-1.103,0-2-0.897-2-2V8.5C7,7.673,7.673,7,8.5,7h7C16.327,7,17,7.673,17,8.5V9
				C17,10.103,16.103,11,15,11z M14,9c0,0.551,0.449,1,1,1s1-0.449,1-1V8.5C16,8.224,15.776,8,15.5,8h-7C8.224,8,8,8.224,8,8.5V9
				c0,0.551,0.449,1,1,1s1-0.449,1-1c0-0.276,0.224-0.5,0.5-0.5S11,8.724,11,9c0,0.551,0.449,1,1,1s1-0.449,1-1
				c0-0.276,0.224-0.5,0.5-0.5S14,8.724,14,9z"/>
		</g>
		<g>
			<path d="M12.5,8h-1C11.224,8,11,7.776,11,7.5V5c0-0.276,0.224-0.5,0.5-0.5h1C12.776,4.5,13,4.724,13,5v2.5
				C13,7.776,12.776,8,12.5,8z M12,7V5.5V7z"/>
		</g>
	</g>
</g>
<g id="Birthday_Invitation">
</g>
<g id="Birthday_1">
</g>
<g id="Birthday_2">
</g>
<g id="Birthday_Message_1">
</g>
<g id="Birthday_Message_2">
</g>
<g id="Birthyday_Hat_1">
</g>
<g id="Birthay_Hat_2">
</g>
<g id="Birthday_Hat3">
</g>
<g id="Birthday_Decoration_1">
</g>
<g id="Birthday_Decoration_2">
</g>
<g id="Birthday_Decoration_3">
</g>
<g id="Horn_1">
</g>
<g id="Horn_2">
</g>
<g id="Baloon">
</g>
<g id="Balloons_1">
</g>
<g id="Balloons_2">
</g>
<g id="Birthday_Picture">
</g>
<g id="Kid_x27_s_Champagne">
</g>
<g id="Candy">
</g>
<g id="Birthday_Card">
</g>
<g id="Flowers">
</g>
<g id="Birthday_Song">
</g>
<g id="Candle">
</g>
<g id="Sweet_16">
</g>
<g id="Clown">
</g>
<g id="Clown_2">
</g>
<g id="Birthday_Party">
</g>
<g id="Giving_Gift">
</g>
<g id="Present_5">
</g>
<g id="Champagne_in_ice_bucket">
</g>
<g id="Beer">
</g>
<g id="Truffles">
</g>
<g id="Pinata">
</g>
</svg>
