<?xml version="1.0" encoding="iso-8859-1"?>
<!-- Generator: Adobe Illustrator 19.2.1, SVG Export Plug-In . SVG Version: 6.00 Build 0)  -->
<svg version="1.1" xmlns="http://www.w3.org/2000/svg" xmlns:xlink="http://www.w3.org/1999/xlink" x="0px" y="0px"
	 viewBox="0 0 24 24" style="enable-background:new 0 0 24 24;" xml:space="preserve">
<g id="Present_1">
</g>
<g id="Present_2">
</g>
<g id="Present_3">
</g>
<g id="Present_Cake">
</g>
<g id="Present_4">
</g>
<g id="Birthday_Cake_1">
</g>
<g id="Birthday_Cake_2">
</g>
<g id="Cake_Piece">
</g>
<g id="Cupcake">
</g>
<g id="Lollipop">
</g>
<g id="Birthday_Greetings_1">
</g>
<g id="Party_Greetings_2">
</g>
<g id="Birthday_Invitation">
</g>
<g id="Birthday_1">
</g>
<g id="Birthday_2">
</g>
<g id="Birthday_Message_1">
</g>
<g id="Birthday_Message_2">
</g>
<g id="Birthyday_Hat_1">
</g>
<g id="Birthay_Hat_2">
</g>
<g id="Birthday_Hat3">
</g>
<g id="Birthday_Decoration_1">
</g>
<g id="Birthday_Decoration_2">
</g>
<g id="Birthday_Decoration_3">
</g>
<g id="Horn_1">
</g>
<g id="Horn_2">
</g>
<g id="Baloon">
</g>
<g id="Balloons_1">
</g>
<g id="Balloons_2">
</g>
<g id="Birthday_Picture">
</g>
<g id="Kid_x27_s_Champagne">
</g>
<g id="Candy">
</g>
<g id="Birthday_Card">
</g>
<g id="Flowers">
</g>
<g id="Birthday_Song">
</g>
<g id="Candle">
</g>
<g id="Sweet_16">
</g>
<g id="Clown">
</g>
<g id="Clown_2">
</g>
<g id="Birthday_Party">
</g>
<g id="Giving_Gift">
</g>
<g id="Present_5">
</g>
<g id="Champagne_in_ice_bucket">
</g>
<g id="Beer">
</g>
<g id="Truffles">
</g>
<g id="Pinata">
	<g>
		<g>
			<path d="M8.5,9C7.673,9,7,8.327,7,7.5S7.673,6,8.5,6S10,6.673,10,7.5S9.327,9,8.5,9z M8.5,7C8.224,7,8,7.225,8,7.5S8.224,8,8.5,8
				S9,7.775,9,7.5S8.776,7,8.5,7z"/>
		</g>
		<g>
			<polygon points="21.599,17.108 19.5,16.059 17.5,17.059 15.5,16.059 13.5,17.059 11.5,16.059 9.5,17.059 7.5,16.059 
				5.724,16.947 5.276,16.053 7.5,14.941 9.5,15.941 11.5,14.941 13.5,15.941 15.5,14.941 17.5,15.941 19.5,14.941 21.401,15.892 
				22.146,15.146 22.854,15.854 			"/>
		</g>
		<g>
			<polygon points="21.599,14.108 19.5,13.059 17.5,14.059 15.5,13.059 13.5,14.059 11.5,13.059 9.5,14.059 7.5,13.059 
				5.724,13.947 5.276,13.053 7.5,11.941 9.5,12.941 11.5,11.941 13.5,12.941 15.5,11.941 17.5,12.941 19.5,11.941 21.401,12.892 
				22.146,12.146 22.854,12.854 			"/>
		</g>
		<g>
			<path d="M14.5,10C14.224,10,14,9.776,14,9.5v-9C14,0.224,14.224,0,14.5,0S15,0.224,15,0.5v9C15,9.776,14.776,10,14.5,10z"/>
		</g>
		<g>
			<path d="M7.5,5C7.224,5,7,4.776,7,4.5v-3C7,1.224,7.224,1,7.5,1S8,1.224,8,1.5v3C8,4.776,7.776,5,7.5,5z"/>
		</g>
		<g>
			<path d="M5.5,10c-0.128,0-0.256-0.049-0.354-0.146c-0.195-0.195-0.195-0.512,0-0.707c1.588-1.588,0.166-3.124-0.001-3.294
				C4.952,5.656,4.953,5.34,5.148,5.146c0.195-0.193,0.511-0.194,0.705,0.001c0.814,0.814,1.862,2.846,0,4.707
				C5.756,9.951,5.628,10,5.5,10z"/>
		</g>
		<g>
			<path d="M20.5,24c-1.378,0-2.5-1.121-2.5-2.5V19h-8v2.5c0,1.379-1.122,2.5-2.5,2.5S5,22.879,5,21.5V9.891L2.349,9.228
				C1.555,9.028,1,8.318,1,7.5s0.555-1.528,1.349-1.728L5,5.109V1.5C5,0.673,5.673,0,6.5,0c0.384,0,0.734,0.145,1,0.383
				C7.766,0.145,8.116,0,8.5,0C9.327,0,10,0.673,10,1.5v2.55c1.14,0.232,2,1.243,2,2.45V9h7.5c1.93,0,3.5,1.57,3.5,3.5v9
				C23,22.879,21.878,24,20.5,24z M9.5,18h9c0.276,0,0.5,0.224,0.5,0.5v3c0,0.827,0.673,1.5,1.5,1.5s1.5-0.673,1.5-1.5v-9
				c0-1.379-1.122-2.5-2.5-2.5h-8C11.224,10,11,9.776,11,9.5v-3C11,5.673,10.327,5,9.5,5C9.224,5,9,4.776,9,4.5v-3
				C9,1.225,8.776,1,8.5,1S8,1.225,8,1.5C8,1.776,7.776,2,7.5,2S7,1.776,7,1.5C7,1.225,6.776,1,6.5,1S6,1.225,6,1.5v4
				c0,0.229-0.156,0.43-0.379,0.485l-3.03,0.758C2.243,6.83,2,7.142,2,7.5s0.243,0.67,0.591,0.757l3.03,0.758
				C5.844,9.07,6,9.271,6,9.5v12C6,22.327,6.673,23,7.5,23S9,22.327,9,21.5v-3C9,18.224,9.224,18,9.5,18z"/>
		</g>
	</g>
</g>
</svg>
