<?xml version="1.0" encoding="iso-8859-1"?>
<!-- Generator: Adobe Illustrator 19.2.1, SVG Export Plug-In . SVG Version: 6.00 Build 0)  -->
<svg version="1.1" xmlns="http://www.w3.org/2000/svg" xmlns:xlink="http://www.w3.org/1999/xlink" x="0px" y="0px"
	 viewBox="0 0 24 24" style="enable-background:new 0 0 24 24;" xml:space="preserve">
<g id="Present_1">
</g>
<g id="Present_2">
</g>
<g id="Present_3">
</g>
<g id="Present_Cake">
	<g>
		<g>
			<path d="M17.5,10C17.224,10,17,9.776,17,9.5v-6C17,2.122,15.878,1,14.5,1h-6C7.122,1,6,2.122,6,3.5v6C6,9.776,5.777,10,5.5,10
				S5,9.776,5,9.5v-6C5,1.57,6.571,0,8.5,0h6C16.43,0,18,1.57,18,3.5v6C18,9.776,17.776,10,17.5,10z"/>
		</g>
		<g>
			<path d="M15.5,7h-8C7.224,7,7,6.776,7,6.5S7.224,6,7.5,6h8C15.776,6,16,6.224,16,6.5S15.776,7,15.5,7z"/>
		</g>
		<g>
			<path d="M20.5,24h-18c-0.741,0-1.439-0.326-1.915-0.893s-0.676-1.312-0.547-2.042L3.01,6.401C3.065,6.13,3.329,5.952,3.6,6.01
				c0.271,0.055,0.446,0.319,0.391,0.589l-2.97,14.652c-0.075,0.426,0.045,0.872,0.331,1.213C1.637,22.805,2.056,23,2.5,23h18
				c0.444,0,0.863-0.195,1.149-0.536c0.286-0.341,0.406-0.787,0.329-1.225L19.01,6.599c-0.055-0.271,0.12-0.534,0.391-0.589
				c0.273-0.054,0.534,0.121,0.589,0.391l2.97,14.652c0.131,0.742-0.069,1.486-0.545,2.054S21.241,24,20.5,24z"/>
		</g>
		<g>
			<path d="M15.5,21h-8C6.673,21,6,20.327,6,19.5v-2C6,17.224,6.224,17,6.5,17S7,17.224,7,17.5v2C7,19.776,7.224,20,7.5,20h8
				c0.276,0,0.5-0.224,0.5-0.5v-2c0-0.276,0.224-0.5,0.5-0.5s0.5,0.224,0.5,0.5v2C17,20.327,16.327,21,15.5,21z"/>
		</g>
		<g>
			<path d="M11.5,18c-0.816,0-1.543-0.394-2-1c-0.11,0.147-0.238,0.284-0.381,0.405c-0.56,0.477-1.3,0.679-2.035,0.562
				C5.896,17.772,5,16.667,5,15.393C5,14.072,6.072,13,7.39,13h8.22c1.318,0,2.39,1.072,2.39,2.39v0.003
				c0,1.273-0.896,2.379-2.083,2.573c-0.733,0.117-1.476-0.085-2.036-0.562C13.738,17.283,13.61,17.147,13.5,17
				C13.043,17.606,12.316,18,11.5,18z M7.39,14C6.624,14,6,14.624,6,15.39c0,0.792,0.535,1.474,1.245,1.589
				c0.451,0.075,0.886-0.045,1.227-0.336C8.807,16.357,9,15.94,9,15.5C9,15.224,9.224,15,9.5,15s0.5,0.224,0.5,0.5
				c0,0.827,0.673,1.5,1.5,1.5s1.5-0.673,1.5-1.5c0-0.276,0.224-0.5,0.5-0.5s0.5,0.224,0.5,0.5c0,0.44,0.193,0.857,0.529,1.143
				c0.34,0.29,0.772,0.409,1.227,0.336C16.465,16.864,17,16.182,17,15.393V15.39c0-0.767-0.624-1.39-1.39-1.39H7.39z"/>
		</g>
		<g>
			<path d="M11.5,14c-0.276,0-0.5-0.224-0.5-0.5V11c0-0.276,0.224-0.5,0.5-0.5S12,10.724,12,11v2.5C12,13.776,11.776,14,11.5,14z"/>
		</g>
		<g>
			<path d="M11.5,11.5c-0.551,0-1-0.449-1-1c0-0.357,0.32-0.896,0.589-1.284c0.187-0.271,0.636-0.271,0.822,0
				C12.18,9.604,12.5,10.143,12.5,10.5C12.5,11.051,12.051,11.5,11.5,11.5z"/>
		</g>
	</g>
</g>
<g id="Present_4">
</g>
<g id="Birthday_Cake_1">
</g>
<g id="Birthday_Cake_2">
</g>
<g id="Cake_Piece">
</g>
<g id="Cupcake">
</g>
<g id="Lollipop">
</g>
<g id="Birthday_Greetings_1">
</g>
<g id="Party_Greetings_2">
</g>
<g id="Birthday_Invitation">
</g>
<g id="Birthday_1">
</g>
<g id="Birthday_2">
</g>
<g id="Birthday_Message_1">
</g>
<g id="Birthday_Message_2">
</g>
<g id="Birthyday_Hat_1">
</g>
<g id="Birthay_Hat_2">
</g>
<g id="Birthday_Hat3">
</g>
<g id="Birthday_Decoration_1">
</g>
<g id="Birthday_Decoration_2">
</g>
<g id="Birthday_Decoration_3">
</g>
<g id="Horn_1">
</g>
<g id="Horn_2">
</g>
<g id="Baloon">
</g>
<g id="Balloons_1">
</g>
<g id="Balloons_2">
</g>
<g id="Birthday_Picture">
</g>
<g id="Kid_x27_s_Champagne">
</g>
<g id="Candy">
</g>
<g id="Birthday_Card">
</g>
<g id="Flowers">
</g>
<g id="Birthday_Song">
</g>
<g id="Candle">
</g>
<g id="Sweet_16">
</g>
<g id="Clown">
</g>
<g id="Clown_2">
</g>
<g id="Birthday_Party">
</g>
<g id="Giving_Gift">
</g>
<g id="Present_5">
</g>
<g id="Champagne_in_ice_bucket">
</g>
<g id="Beer">
</g>
<g id="Truffles">
</g>
<g id="Pinata">
</g>
</svg>
