<?xml version="1.0" encoding="iso-8859-1"?>
<!-- Generator: Adobe Illustrator 19.2.1, SVG Export Plug-In . SVG Version: 6.00 Build 0)  -->
<svg version="1.1" xmlns="http://www.w3.org/2000/svg" xmlns:xlink="http://www.w3.org/1999/xlink" x="0px" y="0px"
	 viewBox="0 0 24 24" style="enable-background:new 0 0 24 24;" xml:space="preserve">
<g id="Present_1">
</g>
<g id="Present_2">
</g>
<g id="Present_3">
</g>
<g id="Present_Cake">
</g>
<g id="Present_4">
	<g>
		<g>
			<path d="M18.5,10C18.223,10,18,9.776,18,9.5v-6C18,2.122,16.878,1,15.5,1H8.5C7.122,1,6,2.122,6,3.5v6C6,9.776,5.777,10,5.5,10
				S5,9.776,5,9.5v-6C5,1.57,6.571,0,8.5,0H15.5c1.93,0,3.5,1.57,3.5,3.5v6C19,9.776,18.776,10,18.5,10z"/>
		</g>
		<g>
			<path d="M16.5,7H7.5C7.224,7,7,6.776,7,6.5S7.224,6,7.5,6H16.5C16.776,6,17,6.224,17,6.5S16.776,7,16.5,7z"/>
		</g>
		<g>
			<path d="M21.5,24H2.5c-0.741,0-1.439-0.326-1.916-0.894c-0.476-0.567-0.675-1.312-0.546-2.041L3.01,6.401
				C3.065,6.13,3.328,5.952,3.6,6.01c0.271,0.055,0.446,0.319,0.391,0.589l-2.97,14.652c-0.075,0.425,0.044,0.872,0.33,1.212
				S2.056,23,2.5,23H21.5c0.445,0,0.864-0.195,1.149-0.536s0.405-0.787,0.328-1.225l-2.968-14.64
				c-0.055-0.271,0.12-0.534,0.391-0.589c0.271-0.054,0.535,0.121,0.589,0.391l2.97,14.652c0.131,0.742-0.068,1.486-0.544,2.053
				C22.939,23.674,22.241,24,21.5,24z"/>
		</g>
		<g>
			<path d="M6.5,21C4.782,21,4,19.704,4,18.5c0-0.652,0.205-1.171,0.355-1.55C4.422,16.778,4.5,16.583,4.5,16.5
				s-0.077-0.278-0.145-0.45C4.205,15.671,4,15.152,4,14.5C4,13.296,4.782,12,6.5,12c1.764,0,3.177,1.146,3.913,2.217
				c0.156,0.228,0.098,0.539-0.13,0.695c-0.229,0.156-0.539,0.098-0.695-0.13C8.845,13.7,7.632,13,6.5,13C5.072,13,5,14.25,5,14.5
				c0,0.462,0.151,0.845,0.285,1.183C5.395,15.963,5.5,16.227,5.5,16.5s-0.104,0.537-0.215,0.817C5.151,17.655,5,18.038,5,18.5
				C5,18.75,5.072,20,6.5,20c1.133,0,2.345-0.7,3.087-1.783c0.157-0.229,0.467-0.285,0.695-0.13c0.228,0.156,0.286,0.468,0.13,0.695
				C9.677,19.854,8.263,21,6.5,21z"/>
		</g>
		<g>
			<path d="M12,20c-1.654,0-3-1.57-3-3.5s1.346-3.5,3-3.5s3,1.57,3,3.5S13.654,20,12,20z M12,14c-1.103,0-2,1.122-2,2.5
				s0.897,2.5,2,2.5s2-1.122,2-2.5S13.103,14,12,14z"/>
		</g>
		<g>
			<path d="M17.5,21c-1.764,0-3.177-1.146-3.913-2.217c-0.156-0.228-0.098-0.539,0.13-0.695c0.228-0.155,0.539-0.099,0.695,0.13
				C15.154,19.3,16.367,20,17.5,20c1.428,0,1.5-1.25,1.5-1.5c0-0.462-0.151-0.845-0.285-1.183c-0.111-0.28-0.215-0.544-0.215-0.817
				s0.104-0.537,0.215-0.817C18.848,15.345,19,14.962,19,14.5c0-0.25-0.072-1.5-1.5-1.5c-1.133,0-2.345,0.7-3.087,1.783
				c-0.156,0.228-0.468,0.286-0.695,0.13c-0.228-0.156-0.286-0.468-0.13-0.695C14.322,13.146,15.736,12,17.5,12
				c1.718,0,2.5,1.296,2.5,2.5c0,0.652-0.205,1.171-0.355,1.55c-0.068,0.172-0.145,0.368-0.145,0.45s0.077,0.278,0.145,0.45
				C19.794,17.329,20,17.848,20,18.5C20,19.704,19.217,21,17.5,21z"/>
		</g>
	</g>
</g>
<g id="Birthday_Cake_1">
</g>
<g id="Birthday_Cake_2">
</g>
<g id="Cake_Piece">
</g>
<g id="Cupcake">
</g>
<g id="Lollipop">
</g>
<g id="Birthday_Greetings_1">
</g>
<g id="Party_Greetings_2">
</g>
<g id="Birthday_Invitation">
</g>
<g id="Birthday_1">
</g>
<g id="Birthday_2">
</g>
<g id="Birthday_Message_1">
</g>
<g id="Birthday_Message_2">
</g>
<g id="Birthyday_Hat_1">
</g>
<g id="Birthay_Hat_2">
</g>
<g id="Birthday_Hat3">
</g>
<g id="Birthday_Decoration_1">
</g>
<g id="Birthday_Decoration_2">
</g>
<g id="Birthday_Decoration_3">
</g>
<g id="Horn_1">
</g>
<g id="Horn_2">
</g>
<g id="Baloon">
</g>
<g id="Balloons_1">
</g>
<g id="Balloons_2">
</g>
<g id="Birthday_Picture">
</g>
<g id="Kid_x27_s_Champagne">
</g>
<g id="Candy">
</g>
<g id="Birthday_Card">
</g>
<g id="Flowers">
</g>
<g id="Birthday_Song">
</g>
<g id="Candle">
</g>
<g id="Sweet_16">
</g>
<g id="Clown">
</g>
<g id="Clown_2">
</g>
<g id="Birthday_Party">
</g>
<g id="Giving_Gift">
</g>
<g id="Present_5">
</g>
<g id="Champagne_in_ice_bucket">
</g>
<g id="Beer">
</g>
<g id="Truffles">
</g>
<g id="Pinata">
</g>
</svg>
