<?xml version="1.0" encoding="iso-8859-1"?>
<!-- Generator: Adobe Illustrator 19.2.1, SVG Export Plug-In . SVG Version: 6.00 Build 0)  -->
<svg version="1.1" xmlns="http://www.w3.org/2000/svg" xmlns:xlink="http://www.w3.org/1999/xlink" x="0px" y="0px"
	 viewBox="0 0 24 24" style="enable-background:new 0 0 24 24;" xml:space="preserve">
<g id="Present_1">
</g>
<g id="Present_2">
</g>
<g id="Present_3">
</g>
<g id="Present_Cake">
</g>
<g id="Present_4">
</g>
<g id="Birthday_Cake_1">
</g>
<g id="Birthday_Cake_2">
</g>
<g id="Cake_Piece">
</g>
<g id="Cupcake">
</g>
<g id="Lollipop">
</g>
<g id="Birthday_Greetings_1">
</g>
<g id="Party_Greetings_2">
</g>
<g id="Birthday_Invitation">
</g>
<g id="Birthday_1">
</g>
<g id="Birthday_2">
</g>
<g id="Birthday_Message_1">
</g>
<g id="Birthday_Message_2">
</g>
<g id="Birthyday_Hat_1">
</g>
<g id="Birthay_Hat_2">
</g>
<g id="Birthday_Hat3">
</g>
<g id="Birthday_Decoration_1">
</g>
<g id="Birthday_Decoration_2">
</g>
<g id="Birthday_Decoration_3">
</g>
<g id="Horn_1">
</g>
<g id="Horn_2">
</g>
<g id="Baloon">
</g>
<g id="Balloons_1">
</g>
<g id="Balloons_2">
</g>
<g id="Birthday_Picture">
</g>
<g id="Kid_x27_s_Champagne">
</g>
<g id="Candy">
</g>
<g id="Birthday_Card">
</g>
<g id="Flowers">
</g>
<g id="Birthday_Song">
</g>
<g id="Candle">
</g>
<g id="Sweet_16">
</g>
<g id="Clown">
</g>
<g id="Clown_2">
</g>
<g id="Birthday_Party">
</g>
<g id="Giving_Gift">
</g>
<g id="Present_5">
	<g>
		<g>
			<path d="M5.5,23C4.673,23,4,22.327,4,21.5S4.673,20,5.5,20S7,20.673,7,21.5S6.327,23,5.5,23z M5.5,21C5.224,21,5,21.225,5,21.5
				S5.224,22,5.5,22S6,21.775,6,21.5S5.776,21,5.5,21z"/>
		</g>
		<g>
			<path d="M7.5,17C6.673,17,6,16.327,6,15.5S6.673,14,7.5,14S9,14.673,9,15.5S8.327,17,7.5,17z M7.5,15C7.224,15,7,15.225,7,15.5
				S7.224,16,7.5,16S8,15.775,8,15.5S7.776,15,7.5,15z"/>
		</g>
		<g>
			<path d="M3.5,14C2.673,14,2,13.327,2,12.5S2.673,11,3.5,11S5,11.673,5,12.5S4.327,14,3.5,14z M3.5,12C3.224,12,3,12.225,3,12.5
				S3.224,13,3.5,13S4,12.775,4,12.5S3.776,12,3.5,12z"/>
		</g>
		<g>
			<path d="M15.5,12c-0.827,0-1.5-0.673-1.5-1.5S14.673,9,15.5,9S17,9.673,17,10.5S16.327,12,15.5,12z M15.5,10
				c-0.276,0-0.5,0.225-0.5,0.5s0.224,0.5,0.5,0.5s0.5-0.225,0.5-0.5S15.776,10,15.5,10z"/>
		</g>
		<g>
			<path d="M10.5,8C9.673,8,9,7.327,9,6.5S9.673,5,10.5,5S12,5.673,12,6.5S11.327,8,10.5,8z M10.5,6C10.224,6,10,6.225,10,6.5
				S10.224,7,10.5,7S11,6.775,11,6.5S10.776,6,10.5,6z"/>
		</g>
		<g>
			<path d="M12.5,22c-0.827,0-1.5-0.673-1.5-1.5s0.673-1.5,1.5-1.5s1.5,0.673,1.5,1.5S13.327,22,12.5,22z M12.5,20
				c-0.276,0-0.5,0.225-0.5,0.5s0.224,0.5,0.5,0.5s0.5-0.225,0.5-0.5S12.776,20,12.5,20z"/>
		</g>
		<g>
			<path d="M13.5,16c-0.827,0-1.5-0.673-1.5-1.5s0.673-1.5,1.5-1.5s1.5,0.673,1.5,1.5S14.327,16,13.5,16z M13.5,14
				c-0.276,0-0.5,0.225-0.5,0.5s0.224,0.5,0.5,0.5s0.5-0.225,0.5-0.5S13.776,14,13.5,14z"/>
		</g>
		<g>
			<path d="M16.5,24h-14C2.224,24,2,23.776,2,23.5v-18C2,5.224,2.224,5,2.5,5h14C16.776,5,17,5.224,17,5.5v18
				C17,23.776,16.776,24,16.5,24z M3,23h13V6H3V23z"/>
		</g>
		<g>
			<path d="M16.5,24c-0.091,0-0.183-0.025-0.263-0.074C16.09,23.834,16,23.673,16,23.5v-18c0-0.189,0.107-0.362,0.276-0.447l4-2
				c0.155-0.078,0.339-0.069,0.486,0.021C20.91,3.166,21,3.327,21,3.5v18c0,0.189-0.107,0.362-0.276,0.447l-4,2
				C16.653,23.982,16.577,24,16.5,24z M17,5.809v16.883l3-1.5V4.309L17,5.809z M20.5,21.5h0.01H20.5z"/>
		</g>
		<g>
			<path d="M16.5,6h-14C2.268,6,2.066,5.841,2.013,5.615s0.056-0.459,0.263-0.563l4-2C6.346,3.019,6.422,3,6.5,3h14
				c0.232,0,0.434,0.159,0.487,0.385s-0.056,0.459-0.263,0.563l-4,2C16.654,5.981,16.578,6,16.5,6z M4.618,5h11.764l2-1H6.618
				L4.618,5z"/>
		</g>
		<g>
			<path d="M16.5,24c-0.075,0-0.151-0.017-0.223-0.053c-0.247-0.124-0.347-0.424-0.224-0.671l2-4
				c0.072-0.144,0.208-0.244,0.367-0.27c0.16-0.029,0.32,0.025,0.434,0.14l2,2c0.195,0.195,0.195,0.512,0,0.707
				s-0.512,0.195-0.707,0l-1.509-1.51l-1.69,3.38C16.859,23.898,16.683,24,16.5,24z"/>
		</g>
		<g>
			<path d="M18.5,20c-0.276,0-0.5-0.224-0.5-0.5v-15C18,4.224,18.224,4,18.5,4S19,4.224,19,4.5v15C19,19.776,18.776,20,18.5,20z"/>
		</g>
		<g>
			<path d="M9.5,12c-1.098,0-1.965-0.353-2.579-1.047C5.746,9.622,5.993,7.526,6.004,7.438c0.035-0.272,0.28-0.462,0.557-0.434
				c0.273,0.034,0.468,0.283,0.435,0.558c-0.002,0.017-0.199,1.743,0.678,2.732C8.095,10.77,8.692,11,9.5,11s1.405-0.23,1.826-0.706
				c0.877-0.989,0.68-2.716,0.678-2.732c-0.033-0.274,0.162-0.523,0.435-0.558c0.276-0.028,0.522,0.161,0.557,0.434
				c0.011,0.089,0.258,2.185-0.917,3.516C11.465,11.647,10.598,12,9.5,12z"/>
		</g>
		<g>
			<path d="M16.5,4c-0.027,0-0.055-0.002-0.083-0.007c-0.272-0.045-0.457-0.303-0.411-0.575c0.001-0.008,0.149-1.004-0.44-1.692
				C15.155,1.244,14.46,1,13.5,1c-0.964,0-1.661,0.246-2.072,0.731c-0.582,0.687-0.437,1.677-0.435,1.687
				c0.045,0.272-0.139,0.53-0.411,0.575c-0.274,0.046-0.53-0.138-0.575-0.411c-0.01-0.059-0.229-1.449,0.658-2.497
				C11.275,0.365,12.229,0,13.5,0s2.225,0.365,2.835,1.085c0.888,1.048,0.668,2.438,0.658,2.497C16.953,3.827,16.741,4,16.5,4z"/>
		</g>
	</g>
</g>
<g id="Champagne_in_ice_bucket">
</g>
<g id="Beer">
</g>
<g id="Truffles">
</g>
<g id="Pinata">
</g>
</svg>
