<?xml version="1.0" encoding="iso-8859-1"?>
<!-- Generator: Adobe Illustrator 19.2.1, SVG Export Plug-In . SVG Version: 6.00 Build 0)  -->
<svg version="1.1" xmlns="http://www.w3.org/2000/svg" xmlns:xlink="http://www.w3.org/1999/xlink" x="0px" y="0px"
	 viewBox="0 0 24 24" style="enable-background:new 0 0 24 24;" xml:space="preserve">
<g id="Present_1">
	<g>
		<g>
			<path d="M20.5,23.996h-18c-0.827,0-1.5-0.673-1.5-1.5v-11c0-0.276,0.224-0.5,0.5-0.5h20c0.276,0,0.5,0.224,0.5,0.5v11
				C22,23.323,21.327,23.996,20.5,23.996z M2,11.996v10.5c0,0.276,0.224,0.5,0.5,0.5h18c0.276,0,0.5-0.224,0.5-0.5v-10.5H2z"/>
		</g>
		<g>
			<path d="M22.5,11.996h-22c-0.276,0-0.5-0.224-0.5-0.5v-4c0-0.827,0.673-1.5,1.5-1.5h20c0.827,0,1.5,0.673,1.5,1.5v4
				C23,11.772,22.776,11.996,22.5,11.996z M1,10.996h21v-3.5c0-0.276-0.224-0.5-0.5-0.5h-20c-0.276,0-0.5,0.224-0.5,0.5V10.996z"/>
		</g>
		<g>
			<path d="M11.5,23.996c-0.276,0-0.5-0.224-0.5-0.5v-17c0-0.276,0.224-0.5,0.5-0.5s0.5,0.224,0.5,0.5v17
				C12,23.772,11.776,23.996,11.5,23.996z"/>
		</g>
		<g>
			<path d="M11.479,6.996c-0.132,0-0.261-0.053-0.355-0.148c-0.114-0.115-0.165-0.279-0.137-0.439
				c0.485-2.742,2.727-5.875,5.639-6.372c0.598-0.104,1.142,0.039,1.578,0.406C18.702,0.864,19,1.558,19,2.3
				c0,0.523-0.147,1.016-0.427,1.426c-0.005,0.008-0.011,0.016-0.017,0.023c-1.513,2.31-6.771,3.202-6.996,3.239
				C11.533,6.994,11.505,6.996,11.479,6.996z M16.992,1.005c-0.064,0-0.13,0.005-0.199,0.017c-2.196,0.375-4.003,2.668-4.649,4.834
				c1.729-0.379,4.716-1.288,5.594-2.683c0.01-0.016,0.021-0.031,0.032-0.045C17.918,2.895,18,2.602,18,2.3
				c0-0.444-0.169-0.864-0.442-1.094C17.398,1.072,17.209,1.005,16.992,1.005z"/>
		</g>
		<g>
			<path d="M11.521,6.996c-0.027,0-0.054-0.002-0.082-0.007C11.215,6.952,5.957,6.06,4.444,3.75
				C4.438,3.742,4.432,3.734,4.427,3.726C4.147,3.316,4,2.824,4,2.3c0-0.742,0.298-1.437,0.797-1.858
				c0.436-0.367,0.98-0.509,1.578-0.406c2.912,0.497,5.153,3.63,5.639,6.372c0.028,0.16-0.022,0.324-0.137,0.439
				C11.782,6.943,11.654,6.996,11.521,6.996z M5.23,3.129c0.011,0.014,0.022,0.029,0.032,0.044c0.878,1.395,3.865,2.304,5.594,2.683
				C10.21,3.69,8.403,1.397,6.207,1.022C5.908,0.971,5.649,1.033,5.442,1.207C5.169,1.437,5,1.856,5,2.3
				C5,2.603,5.082,2.895,5.23,3.129z"/>
		</g>
	</g>
</g>
<g id="Present_2">
</g>
<g id="Present_3">
</g>
<g id="Present_Cake">
</g>
<g id="Present_4">
</g>
<g id="Birthday_Cake_1">
</g>
<g id="Birthday_Cake_2">
</g>
<g id="Cake_Piece">
</g>
<g id="Cupcake">
</g>
<g id="Lollipop">
</g>
<g id="Birthday_Greetings_1">
</g>
<g id="Party_Greetings_2">
</g>
<g id="Birthday_Invitation">
</g>
<g id="Birthday_1">
</g>
<g id="Birthday_2">
</g>
<g id="Birthday_Message_1">
</g>
<g id="Birthday_Message_2">
</g>
<g id="Birthyday_Hat_1">
</g>
<g id="Birthay_Hat_2">
</g>
<g id="Birthday_Hat3">
</g>
<g id="Birthday_Decoration_1">
</g>
<g id="Birthday_Decoration_2">
</g>
<g id="Birthday_Decoration_3">
</g>
<g id="Horn_1">
</g>
<g id="Horn_2">
</g>
<g id="Baloon">
</g>
<g id="Balloons_1">
</g>
<g id="Balloons_2">
</g>
<g id="Birthday_Picture">
</g>
<g id="Kid_x27_s_Champagne">
</g>
<g id="Candy">
</g>
<g id="Birthday_Card">
</g>
<g id="Flowers">
</g>
<g id="Birthday_Song">
</g>
<g id="Candle">
</g>
<g id="Sweet_16">
</g>
<g id="Clown">
</g>
<g id="Clown_2">
</g>
<g id="Birthday_Party">
</g>
<g id="Giving_Gift">
</g>
<g id="Present_5">
</g>
<g id="Champagne_in_ice_bucket">
</g>
<g id="Beer">
</g>
<g id="Truffles">
</g>
<g id="Pinata">
</g>
</svg>
