<?xml version="1.0" encoding="iso-8859-1"?>
<!-- Generator: Adobe Illustrator 19.2.1, SVG Export Plug-In . SVG Version: 6.00 Build 0)  -->
<svg version="1.1" xmlns="http://www.w3.org/2000/svg" xmlns:xlink="http://www.w3.org/1999/xlink" x="0px" y="0px"
	 viewBox="0 0 24 24" style="enable-background:new 0 0 24 24;" xml:space="preserve">
<g id="Present_1">
</g>
<g id="Present_2">
	<g>
		<g>
			<path d="M22.5,24h-21C1.224,24,1,23.776,1,23.5v-12C1,11.224,1.224,11,1.5,11S2,11.224,2,11.5V23h20V11.5
				c0-0.276,0.224-0.5,0.5-0.5s0.5,0.224,0.5,0.5v12C23,23.776,22.776,24,22.5,24z"/>
		</g>
		<g>
			<path d="M9.5,12h-9C0.224,12,0,11.776,0,11.5v-6C0,5.224,0.224,5,0.5,5h4C4.776,5,5,5.224,5,5.5S4.776,6,4.5,6H1v5h8.5
				c0.276,0,0.5,0.224,0.5,0.5S9.776,12,9.5,12z"/>
		</g>
		<g>
			<path d="M23.5,12h-9c-0.276,0-0.5-0.224-0.5-0.5s0.224-0.5,0.5-0.5H23V6h-3.5C19.224,6,19,5.776,19,5.5S19.224,5,19.5,5h4
				C23.776,5,24,5.224,24,5.5v6C24,11.776,23.776,12,23.5,12z"/>
		</g>
		<g>
			<path d="M9.5,24C9.224,24,9,23.776,9,23.5v-16C9,7.224,9.224,7,9.5,7S10,7.224,10,7.5v16C10,23.776,9.776,24,9.5,24z"/>
		</g>
		<g>
			<path d="M14.5,24c-0.276,0-0.5-0.224-0.5-0.5v-16C14,7.224,14.224,7,14.5,7S15,7.224,15,7.5v16C15,23.776,14.776,24,14.5,24z"/>
		</g>
		<g>
			<path d="M6.5,9C4.782,9,4,7.704,4,6.5c0-0.652,0.205-1.171,0.355-1.55C4.423,4.778,4.5,4.583,4.5,4.5S4.423,4.222,4.355,4.05
				C4.205,3.671,4,3.152,4,2.5C4,1.296,4.782,0,6.5,0c1.764,0,3.177,1.146,3.913,2.217c0.156,0.228,0.098,0.539-0.13,0.695
				c-0.228,0.155-0.539,0.098-0.695-0.13C8.845,1.7,7.633,1,6.5,1C5.072,1,5,2.25,5,2.5c0,0.462,0.151,0.845,0.285,1.183
				C5.396,3.963,5.5,4.227,5.5,4.5S5.396,5.037,5.285,5.317C5.151,5.655,5,6.038,5,6.5C5,6.75,5.072,8,6.5,8
				c1.133,0,2.345-0.7,3.087-1.783c0.157-0.228,0.467-0.286,0.695-0.13c0.228,0.156,0.286,0.468,0.13,0.695
				C9.677,7.854,8.264,9,6.5,9z"/>
		</g>
		<g>
			<path d="M12,8c-1.654,0-3-1.57-3-3.5S10.346,1,12,1s3,1.57,3,3.5S13.654,8,12,8z M12,2c-1.103,0-2,1.122-2,2.5S10.897,7,12,7
				s2-1.122,2-2.5S13.103,2,12,2z"/>
		</g>
		<g>
			<path d="M17.5,9c-1.764,0-3.177-1.146-3.913-2.217c-0.156-0.228-0.098-0.539,0.13-0.695c0.228-0.156,0.539-0.098,0.695,0.13
				C15.155,7.3,16.367,8,17.5,8C18.928,8,19,6.75,19,6.5c0-0.462-0.151-0.845-0.285-1.183C18.604,5.037,18.5,4.773,18.5,4.5
				s0.104-0.537,0.215-0.817C18.849,3.345,19,2.962,19,2.5C19,2.25,18.928,1,17.5,1c-1.133,0-2.345,0.7-3.087,1.783
				c-0.157,0.228-0.468,0.285-0.695,0.13c-0.228-0.156-0.286-0.468-0.13-0.695C14.323,1.146,15.736,0,17.5,0
				C19.218,0,20,1.296,20,2.5c0,0.652-0.205,1.171-0.355,1.55C19.577,4.222,19.5,4.417,19.5,4.5s0.077,0.278,0.145,0.45
				C19.795,5.329,20,5.848,20,6.5C20,7.704,19.218,9,17.5,9z"/>
		</g>
	</g>
</g>
<g id="Present_3">
</g>
<g id="Present_Cake">
</g>
<g id="Present_4">
</g>
<g id="Birthday_Cake_1">
</g>
<g id="Birthday_Cake_2">
</g>
<g id="Cake_Piece">
</g>
<g id="Cupcake">
</g>
<g id="Lollipop">
</g>
<g id="Birthday_Greetings_1">
</g>
<g id="Party_Greetings_2">
</g>
<g id="Birthday_Invitation">
</g>
<g id="Birthday_1">
</g>
<g id="Birthday_2">
</g>
<g id="Birthday_Message_1">
</g>
<g id="Birthday_Message_2">
</g>
<g id="Birthyday_Hat_1">
</g>
<g id="Birthay_Hat_2">
</g>
<g id="Birthday_Hat3">
</g>
<g id="Birthday_Decoration_1">
</g>
<g id="Birthday_Decoration_2">
</g>
<g id="Birthday_Decoration_3">
</g>
<g id="Horn_1">
</g>
<g id="Horn_2">
</g>
<g id="Baloon">
</g>
<g id="Balloons_1">
</g>
<g id="Balloons_2">
</g>
<g id="Birthday_Picture">
</g>
<g id="Kid_x27_s_Champagne">
</g>
<g id="Candy">
</g>
<g id="Birthday_Card">
</g>
<g id="Flowers">
</g>
<g id="Birthday_Song">
</g>
<g id="Candle">
</g>
<g id="Sweet_16">
</g>
<g id="Clown">
</g>
<g id="Clown_2">
</g>
<g id="Birthday_Party">
</g>
<g id="Giving_Gift">
</g>
<g id="Present_5">
</g>
<g id="Champagne_in_ice_bucket">
</g>
<g id="Beer">
</g>
<g id="Truffles">
</g>
<g id="Pinata">
</g>
</svg>
