<?xml version="1.0" encoding="iso-8859-1"?>
<!-- Generator: Adobe Illustrator 19.2.1, SVG Export Plug-In . SVG Version: 6.00 Build 0)  -->
<svg version="1.1" xmlns="http://www.w3.org/2000/svg" xmlns:xlink="http://www.w3.org/1999/xlink" x="0px" y="0px"
	 viewBox="0 0 24 24" style="enable-background:new 0 0 24 24;" xml:space="preserve">
<g id="Present_1">
</g>
<g id="Present_2">
</g>
<g id="Present_3">
</g>
<g id="Present_Cake">
</g>
<g id="Present_4">
</g>
<g id="Birthday_Cake_1">
</g>
<g id="Birthday_Cake_2">
</g>
<g id="Cake_Piece">
</g>
<g id="Cupcake">
</g>
<g id="Lollipop">
</g>
<g id="Birthday_Greetings_1">
</g>
<g id="Party_Greetings_2">
</g>
<g id="Birthday_Invitation">
</g>
<g id="Birthday_1">
</g>
<g id="Birthday_2">
</g>
<g id="Birthday_Message_1">
</g>
<g id="Birthday_Message_2">
</g>
<g id="Birthyday_Hat_1">
</g>
<g id="Birthay_Hat_2">
</g>
<g id="Birthday_Hat3">
</g>
<g id="Birthday_Decoration_1">
</g>
<g id="Birthday_Decoration_2">
</g>
<g id="Birthday_Decoration_3">
</g>
<g id="Horn_1">
</g>
<g id="Horn_2">
</g>
<g id="Baloon">
</g>
<g id="Balloons_1">
</g>
<g id="Balloons_2">
</g>
<g id="Birthday_Picture">
</g>
<g id="Kid_x27_s_Champagne">
</g>
<g id="Candy">
</g>
<g id="Birthday_Card">
</g>
<g id="Flowers">
</g>
<g id="Birthday_Song">
</g>
<g id="Candle">
</g>
<g id="Sweet_16">
	<g>
		<g>
			<path d="M3.499,11.5c-0.79,0-1.448-0.617-1.498-1.405c-0.018-0.275,0.191-0.513,0.468-0.53c0.296-0.026,0.514,0.192,0.53,0.468
				c0.017,0.262,0.236,0.468,0.5,0.468C3.775,10.5,4,10.275,4,10c0-0.223-0.095-0.385-0.568-0.502l0.021-0.511L3.334,9.474
				C2.231,9.204,2,8.523,2,8c0-0.827,0.674-1.5,1.501-1.5c0.79,0,1.448,0.616,1.498,1.403C5.017,8.18,4.808,8.417,4.532,8.435
				C4.204,8.466,4.019,8.242,4.001,7.968C3.984,7.705,3.765,7.5,3.501,7.5C3.225,7.5,3,7.725,3,8c0,0.224,0.096,0.386,0.571,0.502
				c0,0,0.1,0.025,0.101,0.025C4.77,8.8,5,9.479,5,10C5,10.827,4.326,11.5,3.499,11.5z"/>
		</g>
		<g>
			<path d="M13.5,11.5h-2c-0.276,0-0.5-0.224-0.5-0.5V7c0-0.276,0.224-0.5,0.5-0.5h2C13.776,6.5,14,6.724,14,7s-0.224,0.5-0.5,0.5
				H12v3h1.5c0.276,0,0.5,0.224,0.5,0.5S13.776,11.5,13.5,11.5z"/>
		</g>
		<g>
			<path d="M13,9.5h-1.5C11.224,9.5,11,9.276,11,9s0.224-0.5,0.5-0.5H13c0.276,0,0.5,0.224,0.5,0.5S13.276,9.5,13,9.5z"/>
		</g>
		<g>
			<path d="M17.5,11.5h-2c-0.276,0-0.5-0.224-0.5-0.5V7c0-0.276,0.224-0.5,0.5-0.5h2C17.776,6.5,18,6.724,18,7s-0.224,0.5-0.5,0.5
				H16v3h1.5c0.276,0,0.5,0.224,0.5,0.5S17.776,11.5,17.5,11.5z"/>
		</g>
		<g>
			<path d="M17,9.5h-1.5C15.224,9.5,15,9.276,15,9s0.224-0.5,0.5-0.5H17c0.276,0,0.5,0.224,0.5,0.5S17.276,9.5,17,9.5z"/>
		</g>
		<g>
			<path d="M9,11.5c-0.214,0-0.406-0.136-0.475-0.342L8,9.581l-0.525,1.577c-0.073,0.223-0.291,0.359-0.523,0.34
				c-0.232-0.023-0.418-0.204-0.447-0.436l-0.5-4C5.97,6.788,6.164,6.538,6.438,6.504c0.271-0.04,0.524,0.159,0.559,0.434
				l0.227,1.813l0.303-0.909c0.137-0.408,0.813-0.408,0.949,0l0.303,0.909l0.227-1.813c0.034-0.274,0.289-0.474,0.559-0.434
				c0.273,0.034,0.468,0.284,0.434,0.559l-0.5,4c-0.029,0.231-0.215,0.412-0.447,0.436C9.032,11.499,9.017,11.5,9,11.5z"/>
		</g>
		<g>
			<path d="M21.5,7.5h-2C19.224,7.5,19,7.276,19,7s0.224-0.5,0.5-0.5h2C21.776,6.5,22,6.724,22,7S21.776,7.5,21.5,7.5z"/>
		</g>
		<g>
			<path d="M20.5,11.5c-0.276,0-0.5-0.224-0.5-0.5V7c0-0.276,0.224-0.5,0.5-0.5S21,6.724,21,7v4C21,11.276,20.776,11.5,20.5,11.5z"
				/>
		</g>
		<g>
			<path d="M10.5,19.5c-0.276,0-0.5-0.224-0.5-0.5v-2.793l-0.146,0.146c-0.195,0.195-0.512,0.195-0.707,0s-0.195-0.512,0-0.707l1-1
				c0.144-0.143,0.36-0.185,0.545-0.108C10.878,14.615,11,14.798,11,15v4C11,19.276,10.776,19.5,10.5,19.5z"/>
		</g>
		<g>
			<path d="M13.5,19.5c-0.827,0-1.5-0.673-1.5-1.5s0.673-1.5,1.5-1.5S15,17.173,15,18S14.327,19.5,13.5,19.5z M13.5,17.5
				c-0.275,0-0.5,0.225-0.5,0.5s0.225,0.5,0.5,0.5S14,18.275,14,18S13.775,17.5,13.5,17.5z"/>
		</g>
		<g>
			<path d="M12.5,18.5c-0.276,0-0.5-0.224-0.5-0.5v-1c0-1.379,1.121-2.5,2.5-2.5c0.276,0,0.5,0.224,0.5,0.5s-0.224,0.5-0.5,0.5
				c-0.827,0-1.5,0.673-1.5,1.5v1C13,18.276,12.776,18.5,12.5,18.5z"/>
		</g>
		<g>
			<path d="M12,22.5c-7.089,0-11.521-1.961-11.705-2.044C0.115,20.375,0,20.196,0,20V2c0-0.17,0.086-0.327,0.229-0.42
				C0.37,1.488,0.55,1.475,0.705,1.544C0.749,1.563,5.143,3.5,12,3.5c6.785,0,11.254-1.938,11.298-1.957
				c0.156-0.07,0.334-0.054,0.476,0.038C23.915,1.674,24,1.831,24,2v18c0,0.198-0.117,0.378-0.298,0.457
				C23.513,20.541,18.994,22.5,12,22.5z M1,19.664C2.093,20.091,6.149,21.5,12,21.5c5.79,0,9.894-1.411,11-1.837V2.732
				C21.459,3.292,17.492,4.5,12,4.5c-5.549,0-9.47-1.201-11-1.764V19.664z"/>
		</g>
		<g>
			<path d="M16.502,17.249c-0.248,0-0.463-0.185-0.495-0.438c-0.034-0.273,0.159-0.523,0.434-0.559
				c1.37-0.174,2.695-0.422,3.939-0.737c0.27-0.071,0.539,0.094,0.607,0.361s-0.094,0.54-0.361,0.607
				c-1.283,0.326-2.649,0.582-4.061,0.761C16.544,17.248,16.523,17.249,16.502,17.249z"/>
		</g>
		<g>
			<path d="M7.504,17.254c-0.021,0-0.042-0.001-0.063-0.004c-1.423-0.179-2.791-0.434-4.063-0.758
				c-0.268-0.068-0.43-0.34-0.361-0.607c0.067-0.268,0.338-0.435,0.607-0.361c1.233,0.314,2.56,0.562,3.942,0.734
				c0.273,0.034,0.468,0.284,0.434,0.559C7.968,17.069,7.752,17.254,7.504,17.254z"/>
		</g>
	</g>
</g>
<g id="Clown">
</g>
<g id="Clown_2">
</g>
<g id="Birthday_Party">
</g>
<g id="Giving_Gift">
</g>
<g id="Present_5">
</g>
<g id="Champagne_in_ice_bucket">
</g>
<g id="Beer">
</g>
<g id="Truffles">
</g>
<g id="Pinata">
</g>
</svg>
