<?xml version="1.0" encoding="iso-8859-1"?>
<!-- Generator: Adobe Illustrator 19.2.1, SVG Export Plug-In . SVG Version: 6.00 Build 0)  -->
<svg version="1.1" xmlns="http://www.w3.org/2000/svg" xmlns:xlink="http://www.w3.org/1999/xlink" x="0px" y="0px"
	 viewBox="0 0 24 24" style="enable-background:new 0 0 24 24;" xml:space="preserve">
<g id="Present_1">
</g>
<g id="Present_2">
</g>
<g id="Present_3">
</g>
<g id="Present_Cake">
</g>
<g id="Present_4">
</g>
<g id="Birthday_Cake_1">
</g>
<g id="Birthday_Cake_2">
</g>
<g id="Cake_Piece">
</g>
<g id="Cupcake">
</g>
<g id="Lollipop">
</g>
<g id="Birthday_Greetings_1">
</g>
<g id="Party_Greetings_2">
</g>
<g id="Birthday_Invitation">
</g>
<g id="Birthday_1">
</g>
<g id="Birthday_2">
</g>
<g id="Birthday_Message_1">
</g>
<g id="Birthday_Message_2">
</g>
<g id="Birthyday_Hat_1">
</g>
<g id="Birthay_Hat_2">
</g>
<g id="Birthday_Hat3">
</g>
<g id="Birthday_Decoration_1">
</g>
<g id="Birthday_Decoration_2">
</g>
<g id="Birthday_Decoration_3">
</g>
<g id="Horn_1">
</g>
<g id="Horn_2">
</g>
<g id="Baloon">
</g>
<g id="Balloons_1">
</g>
<g id="Balloons_2">
</g>
<g id="Birthday_Picture">
</g>
<g id="Kid_x27_s_Champagne">
</g>
<g id="Candy">
</g>
<g id="Birthday_Card">
</g>
<g id="Flowers">
</g>
<g id="Birthday_Song">
</g>
<g id="Candle">
</g>
<g id="Sweet_16">
</g>
<g id="Clown">
</g>
<g id="Clown_2">
</g>
<g id="Birthday_Party">
</g>
<g id="Giving_Gift">
</g>
<g id="Present_5">
</g>
<g id="Champagne_in_ice_bucket">
</g>
<g id="Beer">
</g>
<g id="Truffles">
	<g>
		<g>
			<path d="M12,21.041H2c-0.144,0-0.28-0.062-0.375-0.17c-0.095-0.107-0.139-0.251-0.121-0.394l0.83-6.472
				c0.124-1.111,0.732-2.11,1.668-2.733l0.889-0.593c1.255-0.837,2.963-0.836,4.218,0l0.889,0.593
				c0.936,0.623,1.544,1.622,1.669,2.741l0.829,6.464c0.018,0.143-0.026,0.286-0.121,0.394C12.28,20.979,12.144,21.041,12,21.041z
				 M2.568,20.041h8.863l-0.758-5.908c-0.093-0.833-0.541-1.569-1.23-2.028l-0.889-0.593c-0.925-0.615-2.184-0.614-3.108,0
				l-0.889,0.593c-0.689,0.459-1.138,1.195-1.229,2.021L2.568,20.041z"/>
		</g>
		<g>
			<path d="M7.001,11.041c-0.176,0-0.338-0.092-0.429-0.243l-3.001-5c-0.114-0.19-0.089-0.434,0.062-0.597
				c0.151-0.163,0.393-0.205,0.59-0.107l1.471,0.735c0.123,0.063,0.272,0.038,0.369-0.06c0.504-0.502,1.371-0.5,1.87-0.002
				c0.1,0.101,0.248,0.127,0.371,0.062l1.472-0.735c0.198-0.098,0.439-0.056,0.59,0.107c0.151,0.163,0.176,0.406,0.062,0.597
				l-2.999,5C7.339,10.949,7.177,11.041,7.001,11.041z M5.311,6.753l1.69,2.816L8.69,6.753C8.194,6.969,7.615,6.862,7.228,6.477
				C7.103,6.352,6.895,6.354,6.774,6.475C6.386,6.862,5.807,6.97,5.311,6.753z"/>
		</g>
		<g>
			<path d="M22,21.041H12c-0.144,0-0.28-0.062-0.375-0.17c-0.095-0.107-0.139-0.251-0.121-0.394l0.83-6.472
				c0.124-1.111,0.732-2.11,1.668-2.733l0.889-0.593c1.255-0.837,2.963-0.836,4.218,0l0.889,0.593
				c0.936,0.623,1.544,1.622,1.669,2.741l0.829,6.464c0.018,0.143-0.026,0.286-0.121,0.394C22.28,20.979,22.144,21.041,22,21.041z
				 M12.568,20.041h8.863l-0.758-5.908c-0.093-0.833-0.541-1.569-1.23-2.028l-0.889-0.593c-0.925-0.615-2.184-0.614-3.108,0
				l-0.889,0.593c-0.689,0.459-1.138,1.195-1.229,2.021L12.568,20.041z"/>
		</g>
		<g>
			<path d="M17.001,11.041c-0.176,0-0.338-0.092-0.429-0.243l-3.001-5c-0.114-0.19-0.089-0.434,0.062-0.597s0.392-0.205,0.59-0.107
				l1.471,0.735c0.123,0.063,0.271,0.038,0.369-0.06c0.504-0.502,1.371-0.5,1.87-0.002c0.1,0.101,0.248,0.127,0.371,0.062
				l1.472-0.735c0.199-0.098,0.439-0.056,0.59,0.107s0.176,0.406,0.062,0.597l-2.999,5C17.339,10.949,17.177,11.041,17.001,11.041z
				 M15.311,6.753l1.69,2.816l1.689-2.816c-0.496,0.216-1.075,0.109-1.462-0.276c-0.125-0.125-0.333-0.123-0.454-0.002
				C16.386,6.862,15.808,6.97,15.311,6.753z"/>
		</g>
		<g>
			<path d="M11.919,8.959c-0.176,0-0.338-0.092-0.429-0.243l-3.001-5C8.375,3.525,8.4,3.282,8.551,3.119
				c0.15-0.163,0.392-0.206,0.59-0.107l1.471,0.735c0.123,0.063,0.272,0.038,0.369-0.06c0.504-0.502,1.371-0.5,1.87-0.002
				c0.1,0.101,0.248,0.126,0.371,0.062l1.472-0.735c0.199-0.099,0.439-0.056,0.59,0.107c0.151,0.163,0.176,0.406,0.062,0.597
				l-2.999,5C12.257,8.867,12.095,8.959,11.919,8.959z M10.229,4.671l1.69,2.816l1.689-2.816c-0.496,0.217-1.075,0.11-1.462-0.276
				c-0.125-0.125-0.333-0.123-0.455-0.002C11.304,4.779,10.726,4.889,10.229,4.671z"/>
		</g>
		<g>
			<path d="M15,11.041c-0.128,0-0.256-0.049-0.354-0.146l-1.294-1.294c-0.724-0.724-1.986-0.718-2.705,0l-1.294,1.294
				c-0.195,0.195-0.512,0.195-0.707,0s-0.195-0.512,0-0.707L9.94,8.894c1.102-1.103,3.022-1.097,4.119,0l1.294,1.294
				c0.195,0.195,0.195,0.512,0,0.707C15.256,10.992,15.128,11.041,15,11.041z"/>
		</g>
		<g>
			<path d="M4.062,16.091c-0.351,0-0.72-0.017-1.107-0.052c-0.275-0.025-0.478-0.269-0.453-0.543
				c0.025-0.275,0.265-0.474,0.543-0.453c5.086,0.471,6.481-2.667,6.495-2.699c0.108-0.254,0.404-0.369,0.656-0.263
				c0.254,0.109,0.372,0.403,0.263,0.657C10.397,12.884,8.962,16.091,4.062,16.091z"/>
		</g>
		<g>
			<path d="M3,21.041c-0.245,0-0.459-0.18-0.495-0.43c-0.039-0.273,0.151-0.526,0.424-0.565c6.529-0.933,7.589-3.643,7.599-3.67
				c0.093-0.256,0.375-0.394,0.636-0.304c0.258,0.09,0.397,0.367,0.311,0.627c-0.044,0.135-1.181,3.305-8.403,4.337
				C3.047,21.039,3.023,21.041,3,21.041z"/>
		</g>
		<g>
			<path d="M14.062,16.091c-0.351,0-0.72-0.017-1.107-0.052c-0.275-0.025-0.478-0.269-0.453-0.543
				c0.025-0.275,0.265-0.474,0.543-0.453c5.082,0.471,6.482-2.667,6.495-2.699c0.108-0.254,0.404-0.369,0.656-0.263
				c0.254,0.109,0.372,0.403,0.263,0.657C20.397,12.884,18.962,16.091,14.062,16.091z"/>
		</g>
		<g>
			<path d="M13,21.041c-0.245,0-0.459-0.18-0.495-0.43c-0.039-0.273,0.151-0.526,0.424-0.565c6.529-0.933,7.589-3.643,7.599-3.67
				c0.094-0.256,0.376-0.394,0.636-0.304c0.258,0.09,0.397,0.367,0.311,0.627c-0.044,0.135-1.181,3.305-8.403,4.337
				C13.047,21.039,13.023,21.041,13,21.041z"/>
		</g>
		<g>
			<path d="M11,13.041c-0.198,0-0.386-0.119-0.464-0.314c-0.103-0.256,0.022-0.547,0.279-0.649c2.212-0.885,2.682-2.588,2.701-2.66
				c0.07-0.267,0.343-0.428,0.608-0.358c0.266,0.067,0.428,0.337,0.361,0.604c-0.023,0.092-0.593,2.261-3.299,3.343
				C11.125,13.029,11.062,13.041,11,13.041z"/>
		</g>
	</g>
</g>
<g id="Pinata">
</g>
</svg>
