<?xml version="1.0" encoding="iso-8859-1"?>
<!-- Generator: Adobe Illustrator 19.2.1, SVG Export Plug-In . SVG Version: 6.00 Build 0)  -->
<svg version="1.1" xmlns="http://www.w3.org/2000/svg" xmlns:xlink="http://www.w3.org/1999/xlink" x="0px" y="0px"
	 viewBox="0 0 24 24" style="enable-background:new 0 0 24 24;" xml:space="preserve">
<g id="Man_1">
</g>
<g id="Woman_1">
</g>
<g id="Man_2">
</g>
<g id="Woman_2">
</g>
<g id="Bald_Man">
</g>
<g id="Man_Glasses">
</g>
<g id="Woman_Glasses">
</g>
<g id="Man_Beard">
</g>
<g id="Man_Cap">
</g>
<g id="Woman_Cap">
</g>
<g id="Man_3">
</g>
<g id="Woman_3">
</g>
<g id="Men_4">
</g>
<g id="Woman_4">
</g>
<g id="Business_Man_1">
</g>
<g id="Business_Woman_1">
</g>
<g id="Firefigyhter">
</g>
<g id="Policeman">
</g>
<g id="Criminal">
</g>
<g id="Prisoner">
</g>
<g id="Woodsman">
</g>
<g id="Dispatcher_1">
</g>
<g id="Dispatcher_2">
</g>
<g id="Soldier">
</g>
<g id="Astronaut">
</g>
<g id="Hipster_Guy">
</g>
<g id="Hipster_Girl">
</g>
<g id="Worker">
</g>
<g id="Old_Man">
</g>
<g id="Punk">
</g>
<g id="Diver">
</g>
<g id="Artist">
</g>
<g id="Dictator">
</g>
<g id="Man_Hat">
</g>
<g id="Woman_Hat">
</g>
<g id="Graduated_Man">
</g>
<g id="Graduated_Woman">
</g>
<g id="Avatar_Chef">
</g>
<g id="Waiter">
</g>
<g id="Waitress">
</g>
<g id="Bllboy">
</g>
<g id="Santa">
</g>
<g id="Doctor">
</g>
<g id="Nurse">
</g>
<g id="Captain">
</g>
<g id="Farmer">
</g>
<g id="Maid">
</g>
<g id="Business_Man_2">
</g>
<g id="Business_Woman_2">
</g>
<g id="Cowboy">
</g>
<g id="Anonymus">
	<g>
		<g>
			<path d="M4.034,20.795c-0.191,0-0.373-0.109-0.457-0.295c-0.113-0.252-0.001-0.548,0.251-0.661
				c0.174-0.078,0.352-0.149,0.535-0.213l2.033-0.707c0.298-0.104,0.571-0.261,0.809-0.466l0.967-0.832
				c0.208-0.18,0.525-0.157,0.705,0.053c0.18,0.209,0.157,0.525-0.053,0.705l-0.967,0.832c-0.333,0.287-0.715,0.507-1.133,0.652
				l-2.034,0.708c-0.154,0.054-0.305,0.113-0.453,0.18C4.172,20.781,4.103,20.795,4.034,20.795z"/>
		</g>
		<g>
			<path d="M19.966,20.797c-0.069,0-0.139-0.015-0.206-0.045c-0.147-0.066-0.298-0.127-0.454-0.181l-2.034-0.707
				c-0.418-0.146-0.8-0.366-1.133-0.653l-0.966-0.832c-0.209-0.181-0.233-0.496-0.053-0.705c0.181-0.21,0.497-0.232,0.705-0.053
				l0.966,0.832c0.238,0.205,0.511,0.362,0.81,0.467l2.033,0.706c0.184,0.063,0.364,0.136,0.54,0.216
				c0.251,0.113,0.363,0.41,0.249,0.661C20.338,20.688,20.156,20.797,19.966,20.797z"/>
		</g>
		<g>
			<path d="M11.999,20c-0.266,0-0.525-0.029-0.781-0.073c-0.116-0.02-0.233-0.045-0.351-0.073c-0.093-0.024-0.179-0.05-0.264-0.077
				c-1.683-0.497-3.121-1.897-3.919-3.795C6.616,15.995,6.553,16,6.499,16c-0.855,0-1.5-1.075-1.5-2.5
				c0-1.158,0.426-2.085,1.044-2.392C6.367,7.438,8.724,5,11.999,5c3.274,0,5.631,2.438,5.955,6.108
				c0.619,0.306,1.045,1.233,1.045,2.392c0,1.425-0.645,2.5-1.5,2.5c-0.055,0-0.117-0.005-0.186-0.019
				c-0.798,1.897-2.237,3.298-3.932,3.799c-0.073,0.023-0.159,0.049-0.246,0.071c-0.123,0.03-0.24,0.056-0.36,0.075
				C12.523,19.971,12.263,20,11.999,20z M6.95,14.775c0.037,0,0.074,0.004,0.111,0.013c0.169,0.038,0.306,0.162,0.362,0.326
				c0.634,1.866,1.934,3.252,3.476,3.707c0.078,0.025,0.143,0.045,0.209,0.062c0.087,0.021,0.18,0.042,0.274,0.058
				c0.409,0.068,0.826,0.068,1.228,0c0.099-0.016,0.191-0.037,0.284-0.06c0.061-0.015,0.126-0.034,0.191-0.056
				c1.555-0.459,2.854-1.845,3.488-3.711c0.056-0.164,0.193-0.288,0.362-0.326c0.17-0.041,0.347,0.014,0.468,0.137
				C17.468,14.99,17.503,15,17.504,15c0.119,0,0.495-0.532,0.495-1.5s-0.375-1.5-0.5-1.5h-0.019c-0.267,0-0.486-0.209-0.5-0.475
				C16.812,8.169,14.856,6,11.999,6c-2.858,0-4.813,2.169-4.982,5.525C7.003,11.791,6.784,12,6.517,12
				c-0.143,0-0.519,0.532-0.519,1.5c0,0.967,0.375,1.499,0.5,1.5c-0.002,0,0.033-0.013,0.095-0.075
				C6.688,14.828,6.817,14.775,6.95,14.775z"/>
		</g>
		<g>
			<path d="M12,24C5.383,24,0,18.617,0,12S5.383,0,12,0s12,5.383,12,12S18.617,24,12,24z M12,1C5.935,1,1,5.935,1,12s4.935,11,11,11
				s11-4.935,11-11S18.065,1,12,1z"/>
		</g>
		<g>
			<path d="M11.496,14.99c-0.242,0-0.452-0.169-0.49-0.414c-0.065-0.424,0.121-1.323,1.233-2.003C12.815,12.222,13,11.839,13,11
				c0-0.902-0.699-1-1-1s-1,0.098-1,1c0,0.276-0.224,0.5-0.5,0.5S10,11.276,10,11c0-1.178,0.822-2,2-2s2,0.822,2,2
				c0,1.186-0.359,1.889-1.239,2.427c-0.798,0.487-0.766,0.992-0.765,1.014c0.022,0.268-0.171,0.515-0.438,0.547
				C11.537,14.989,11.516,14.99,11.496,14.99z"/>
		</g>
		<g>
			<circle cx="11.5" cy="16.5" r="0.5"/>
		</g>
	</g>
</g>
<g id="Batman">
</g>
<g id="Superman">
</g>
<g id="Captain_America">
</g>
<g id="Darth_Vader">
</g>
<g id="Harry_Potter">
</g>
<g id="Anonymus_2">
</g>
<g id="Scream">
</g>
<g id="Jason">
</g>
<g id="Charlie_Chaplin">
</g>
</svg>
