<?xml version="1.0" encoding="iso-8859-1"?>
<!-- Generator: Adobe Illustrator 19.2.1, SVG Export Plug-In . SVG Version: 6.00 Build 0)  -->
<svg version="1.1" xmlns="http://www.w3.org/2000/svg" xmlns:xlink="http://www.w3.org/1999/xlink" x="0px" y="0px"
	 viewBox="0 0 24 24" style="enable-background:new 0 0 24 24;" xml:space="preserve">
<g id="Man_1">
</g>
<g id="Woman_1">
</g>
<g id="Man_2">
</g>
<g id="Woman_2">
</g>
<g id="Bald_Man">
</g>
<g id="Man_Glasses">
</g>
<g id="Woman_Glasses">
</g>
<g id="Man_Beard">
</g>
<g id="Man_Cap">
</g>
<g id="Woman_Cap">
</g>
<g id="Man_3">
</g>
<g id="Woman_3">
</g>
<g id="Men_4">
</g>
<g id="Woman_4">
</g>
<g id="Business_Man_1">
</g>
<g id="Business_Woman_1">
</g>
<g id="Firefigyhter">
</g>
<g id="Policeman">
</g>
<g id="Criminal">
</g>
<g id="Prisoner">
</g>
<g id="Woodsman">
</g>
<g id="Dispatcher_1">
</g>
<g id="Dispatcher_2">
</g>
<g id="Soldier">
</g>
<g id="Astronaut">
</g>
<g id="Hipster_Guy">
</g>
<g id="Hipster_Girl">
</g>
<g id="Worker">
</g>
<g id="Old_Man">
</g>
<g id="Punk">
</g>
<g id="Diver">
</g>
<g id="Artist">
</g>
<g id="Dictator">
</g>
<g id="Man_Hat">
</g>
<g id="Woman_Hat">
</g>
<g id="Graduated_Man">
</g>
<g id="Graduated_Woman">
</g>
<g id="Avatar_Chef">
</g>
<g id="Waiter">
</g>
<g id="Waitress">
</g>
<g id="Bllboy">
</g>
<g id="Santa">
</g>
<g id="Doctor">
</g>
<g id="Nurse">
</g>
<g id="Captain">
</g>
<g id="Farmer">
</g>
<g id="Maid">
</g>
<g id="Business_Man_2">
</g>
<g id="Business_Woman_2">
</g>
<g id="Cowboy">
</g>
<g id="Anonymus">
</g>
<g id="Batman">
</g>
<g id="Superman">
</g>
<g id="Captain_America">
</g>
<g id="Darth_Vader">
</g>
<g id="Harry_Potter">
</g>
<g id="Anonymus_2">
	<g>
		<g>
			<path d="M4.034,20.795c-0.19,0-0.372-0.109-0.456-0.294c-0.113-0.252-0.001-0.548,0.25-0.662
				c0.174-0.078,0.353-0.149,0.535-0.213l2.033-0.707c0.298-0.104,0.57-0.261,0.81-0.466l0.966-0.832
				c0.21-0.178,0.525-0.157,0.705,0.053c0.18,0.209,0.156,0.524-0.053,0.705l-0.966,0.832c-0.335,0.288-0.716,0.508-1.134,0.653
				l-2.033,0.707c-0.155,0.054-0.305,0.113-0.451,0.18C4.173,20.781,4.104,20.795,4.034,20.795z"/>
		</g>
		<g>
			<path d="M19.966,20.797c-0.069,0-0.14-0.015-0.207-0.045c-0.147-0.066-0.299-0.127-0.453-0.181l-2.033-0.707
				c-0.418-0.146-0.799-0.365-1.134-0.653l-0.967-0.832c-0.209-0.18-0.233-0.496-0.053-0.705c0.181-0.21,0.496-0.23,0.705-0.053
				l0.967,0.832c0.239,0.205,0.512,0.362,0.81,0.466l2.033,0.707c0.184,0.063,0.364,0.136,0.539,0.216
				c0.251,0.114,0.362,0.41,0.248,0.662C20.337,20.688,20.155,20.797,19.966,20.797z"/>
		</g>
		<g>
			<path d="M12,24C5.383,24,0,18.617,0,12S5.383,0,12,0s12,5.383,12,12S18.617,24,12,24z M12,1C5.935,1,1,5.935,1,12s4.935,11,11,11
				s11-4.935,11-11S18.065,1,12,1z"/>
		</g>
		<g>
			<g>
				<path d="M10.5,13h-1C9.224,13,9,12.776,9,12.5S9.224,12,9.5,12h1c0.276,0,0.5,0.224,0.5,0.5S10.776,13,10.5,13z"/>
			</g>
			<g>
				<path d="M14.5,13h-1c-0.276,0-0.5-0.224-0.5-0.5s0.224-0.5,0.5-0.5h1c0.276,0,0.5,0.224,0.5,0.5S14.776,13,14.5,13z"/>
			</g>
			<g>
				<path d="M12,20c-2.592,0-4.879-2.201-5.691-5.478c-0.066-0.268,0.097-0.539,0.365-0.605c0.269-0.068,0.539,0.098,0.605,0.365
					C7.979,17.104,9.876,19,12,19s4.021-1.896,4.722-4.718c0.066-0.268,0.335-0.431,0.605-0.365
					c0.269,0.066,0.432,0.338,0.365,0.605C16.879,17.799,14.592,20,12,20z"/>
			</g>
			<g>
				<path d="M17.394,10.5c-0.276,0-0.5-0.224-0.5-0.5c0-2.804-2.149-5-4.894-5s-4.894,2.196-4.894,5c0,0.276-0.224,0.5-0.5,0.5
					s-0.5-0.224-0.5-0.5c0-3.364,2.589-6,5.894-6s5.894,2.636,5.894,6C17.894,10.276,17.67,10.5,17.394,10.5z"/>
			</g>
			<g>
				<path d="M13.965,17h-0.184c-0.689,0-1.288-0.468-1.456-1.137L12.17,15.5h-0.337l-0.183,0.436C11.507,16.532,10.908,17,10.219,17
					h-0.184c-0.503,0-0.969-0.25-1.248-0.668l-0.703-1.055c-0.153-0.229-0.091-0.54,0.139-0.693
					c0.228-0.152,0.538-0.092,0.693,0.139l0.703,1.055C9.712,15.917,9.867,16,10.035,16h0.184c0.23,0,0.43-0.156,0.485-0.379
					l0.335-0.814c0.077-0.186,0.26-0.307,0.461-0.307h1c0.201,0,0.384,0.121,0.461,0.307l0.311,0.742
					c0.08,0.295,0.279,0.451,0.51,0.451h0.184c0.168,0,0.323-0.083,0.416-0.223l0.703-1.055c0.154-0.229,0.465-0.29,0.693-0.139
					c0.229,0.153,0.292,0.464,0.139,0.693l-0.703,1.055C14.934,16.75,14.468,17,13.965,17z"/>
			</g>
			<g>
				<path d="M7,15.5c-0.276,0-0.5-0.224-0.5-0.5s0.224-0.5,0.5-0.5c1.255,0,2.414-0.257,2.768-0.442
					c0.243-0.128,0.547-0.034,0.675,0.21c0.129,0.245,0.034,0.547-0.21,0.675C9.718,15.213,8.409,15.5,7,15.5z"/>
			</g>
			<g>
				<path d="M17,15.5c-1.409,0-2.718-0.287-3.232-0.558c-0.244-0.128-0.339-0.43-0.21-0.675c0.128-0.244,0.432-0.338,0.675-0.21
					C14.586,14.243,15.745,14.5,17,14.5c0.276,0,0.5,0.224,0.5,0.5S17.276,15.5,17,15.5z"/>
			</g>
			<g>
				<path d="M11,11.5c-0.116,0-0.232-0.04-0.327-0.121c-0.75-0.646-1.995-1.354-2.319-1.025c-0.195,0.195-0.512,0.195-0.707,0
					s-0.195-0.512,0-0.707c1.127-1.125,3.264,0.615,3.681,0.976c0.209,0.18,0.231,0.495,0.051,0.704
					C11.279,11.441,11.14,11.5,11,11.5z"/>
			</g>
			<g>
				<path d="M13,11.5c-0.14,0-0.279-0.059-0.378-0.174c-0.181-0.209-0.158-0.524,0.051-0.704c0.417-0.36,2.557-2.1,3.681-0.976
					c0.195,0.195,0.195,0.512,0,0.707s-0.512,0.195-0.707,0c-0.326-0.328-1.57,0.379-2.319,1.025C13.232,11.46,13.116,11.5,13,11.5z
					"/>
			</g>
			<g>
				<path d="M6.794,14.902c-0.267,0-0.488-0.21-0.5-0.479L6,7.521C5.992,7.32,6.105,7.133,6.287,7.048
					C8.424,6.044,11.851,6.001,11.995,6c0.154,0.001,3.581,0.044,5.718,1.048C17.895,7.133,18.008,7.32,18,7.521l-0.293,6.902
					c-0.013,0.275-0.21,0.464-0.521,0.479c-0.275-0.012-0.49-0.245-0.479-0.521l0.279-6.559C15.024,7.038,12.027,7,11.995,7
					c-0.022,0-3.02,0.038-4.98,0.822l0.279,6.559c0.012,0.276-0.203,0.51-0.479,0.521C6.808,14.902,6.801,14.902,6.794,14.902z"/>
			</g>
			<g>
				<path d="M12,21c-0.244,0-0.453-0.177-0.493-0.418l-0.5-3c-0.046-0.272,0.139-0.53,0.411-0.575
					c0.265-0.047,0.529,0.138,0.575,0.411L12,17.459l0.007-0.041c0.046-0.273,0.309-0.458,0.575-0.411
					c0.272,0.045,0.457,0.303,0.411,0.575l-0.5,3C12.453,20.823,12.244,21,12,21z"/>
			</g>
		</g>
	</g>
</g>
<g id="Scream">
</g>
<g id="Jason">
</g>
<g id="Charlie_Chaplin">
</g>
</svg>
