<?xml version="1.0" encoding="iso-8859-1"?>
<!-- Generator: Adobe Illustrator 19.2.1, SVG Export Plug-In . SVG Version: 6.00 Build 0)  -->
<svg version="1.1" xmlns="http://www.w3.org/2000/svg" xmlns:xlink="http://www.w3.org/1999/xlink" x="0px" y="0px"
	 viewBox="0 0 24 24" style="enable-background:new 0 0 24 24;" xml:space="preserve">
<g id="Man_1">
</g>
<g id="Woman_1">
</g>
<g id="Man_2">
</g>
<g id="Woman_2">
</g>
<g id="Bald_Man">
</g>
<g id="Man_Glasses">
</g>
<g id="Woman_Glasses">
</g>
<g id="Man_Beard">
</g>
<g id="Man_Cap">
</g>
<g id="Woman_Cap">
</g>
<g id="Man_3">
</g>
<g id="Woman_3">
</g>
<g id="Men_4">
</g>
<g id="Woman_4">
</g>
<g id="Business_Man_1">
</g>
<g id="Business_Woman_1">
</g>
<g id="Firefigyhter">
</g>
<g id="Policeman">
</g>
<g id="Criminal">
</g>
<g id="Prisoner">
</g>
<g id="Woodsman">
</g>
<g id="Dispatcher_1">
</g>
<g id="Dispatcher_2">
</g>
<g id="Soldier">
</g>
<g id="Astronaut">
</g>
<g id="Hipster_Guy">
</g>
<g id="Hipster_Girl">
</g>
<g id="Worker">
</g>
<g id="Old_Man">
</g>
<g id="Punk">
</g>
<g id="Diver">
</g>
<g id="Artist">
	<g>
		<g>
			<path d="M4.027,20.795c-0.191,0-0.373-0.109-0.456-0.294c-0.114-0.252-0.002-0.548,0.25-0.662
				c0.173-0.078,0.352-0.149,0.535-0.213l2.033-0.707c0.298-0.104,0.571-0.261,0.81-0.466l0.966-0.832
				c0.208-0.181,0.523-0.158,0.705,0.053c0.18,0.209,0.157,0.524-0.053,0.705l-0.966,0.832c-0.334,0.288-0.716,0.508-1.133,0.652
				l-2.034,0.708c-0.154,0.054-0.305,0.113-0.452,0.18C4.165,20.781,4.095,20.795,4.027,20.795z"/>
		</g>
		<g>
			<path d="M19.958,20.797c-0.069,0-0.139-0.015-0.206-0.045c-0.147-0.066-0.299-0.127-0.454-0.181l-2.034-0.707
				c-0.418-0.146-0.8-0.365-1.134-0.653l-0.966-0.832c-0.209-0.181-0.233-0.496-0.053-0.705c0.181-0.211,0.497-0.233,0.705-0.053
				l0.966,0.832c0.238,0.205,0.511,0.362,0.81,0.466l2.033,0.707c0.184,0.063,0.363,0.136,0.539,0.216
				c0.251,0.113,0.363,0.41,0.249,0.661C20.33,20.688,20.148,20.797,19.958,20.797z"/>
		</g>
		<g>
			<path d="M13.232,19.801c-0.216,0-0.415-0.141-0.479-0.358c-0.078-0.265,0.073-0.543,0.338-0.621
				c1.542-0.456,2.841-1.842,3.475-3.707c0.056-0.164,0.193-0.288,0.362-0.326c0.17-0.04,0.347,0.013,0.468,0.137
				C17.46,14.99,17.496,15,17.496,15c0.119,0,0.495-0.532,0.495-1.5s-0.375-1.5-0.5-1.5c-0.267,0-0.505-0.209-0.519-0.476
				c-0.034-0.675-0.141-1.313-0.319-1.896c-0.081-0.264,0.068-0.543,0.332-0.624c0.265-0.079,0.543,0.068,0.624,0.333
				c0.17,0.556,0.283,1.151,0.337,1.776c0.623,0.312,1.044,1.234,1.044,2.387c0,1.425-0.645,2.5-1.5,2.5
				c-0.055,0-0.117-0.005-0.185-0.019c-0.798,1.897-2.237,3.298-3.932,3.799C13.327,19.794,13.279,19.801,13.232,19.801z"/>
		</g>
		<g>
			<path d="M10.749,19.801c-0.047,0-0.094-0.007-0.142-0.021c-1.694-0.501-3.133-1.901-3.932-3.798C6.608,15.995,6.545,16,6.491,16
				c-0.855,0-1.5-1.075-1.5-2.5c0-1.158,0.426-2.085,1.044-2.392c0.021-0.248,0.052-0.489,0.091-0.723
				c0.045-0.272,0.302-0.458,0.575-0.411c0.272,0.045,0.457,0.303,0.411,0.575c-0.052,0.311-0.087,0.636-0.104,0.976
				C6.995,11.791,6.776,12,6.509,12c-0.143,0-0.519,0.532-0.519,1.5c0,0.967,0.375,1.499,0.5,1.5c-0.002,0,0.033-0.012,0.094-0.074
				c0.122-0.125,0.302-0.178,0.468-0.138c0.169,0.038,0.307,0.162,0.363,0.326c0.634,1.866,1.933,3.252,3.475,3.707
				c0.265,0.078,0.416,0.356,0.338,0.621C11.164,19.66,10.965,19.801,10.749,19.801z"/>
		</g>
		<g>
			<path d="M12,24C5.383,24,0,18.617,0,12S5.383,0,12,0s12,5.383,12,12S18.617,24,12,24z M12,1C5.935,1,1,5.935,1,12s4.935,11,11,11
				s11-4.935,11-11S18.065,1,12,1z"/>
		</g>
		<g>
			<path d="M6.5,11c-0.077,0-0.154-0.018-0.224-0.053C6.224,10.921,5,10.294,5,9c0-0.995,2.69-3.201,5.14-4.216
				c2.937-1.219,5.433-0.92,7.214,0.862c1.313,1.313,0.659,3.872,0.63,3.98c-0.061,0.229-0.272,0.387-0.511,0.372
				c-0.034-0.002-3.436-0.185-5.936,0c-1.819,0.133-4.873,0.975-4.903,0.982C6.59,10.994,6.545,11,6.5,11z M13.456,5.054
				c-0.526,0-1.084,0.076-1.675,0.229C8.668,6.086,6.137,8.556,5.995,9.047c0.003,0.444,0.37,0.766,0.583,0.914
				c0.741-0.198,3.234-0.839,4.886-0.96c2.058-0.148,4.626-0.064,5.634-0.021c0.122-0.748,0.171-2.005-0.451-2.627
				C15.781,5.488,14.712,5.054,13.456,5.054z"/>
		</g>
		<g>
			<path d="M10,15c-1.103,0-2-0.897-2-2s0.897-2,2-2s2,0.897,2,2S11.103,15,10,15z M10,12c-0.551,0-1,0.448-1,1s0.449,1,1,1
				s1-0.448,1-1S10.551,12,10,12z"/>
		</g>
		<g>
			<path d="M14,15c-1.103,0-2-0.897-2-2s0.897-2,2-2s2,0.897,2,2S15.103,15,14,15z M14,12c-0.551,0-1,0.448-1,1s0.449,1,1,1
				s1-0.448,1-1S14.551,12,14,12z"/>
		</g>
		<g>
			<path d="M12.5,13h-1c-0.276,0-0.5-0.224-0.5-0.5s0.224-0.5,0.5-0.5h1c0.276,0,0.5,0.224,0.5,0.5S12.776,13,12.5,13z"/>
		</g>
		<g>
			<path d="M8.5,13.5c-0.104,0-0.209-0.032-0.299-0.1l-2.009-1.5c-0.221-0.165-0.267-0.479-0.102-0.699
				c0.167-0.222,0.478-0.268,0.7-0.102l2.009,1.5c0.221,0.165,0.267,0.479,0.102,0.699C8.802,13.431,8.652,13.5,8.5,13.5z"/>
		</g>
		<g>
			<path d="M15.5,13.5c-0.152,0-0.302-0.068-0.4-0.199c-0.166-0.221-0.122-0.534,0.099-0.7l1.991-1.5
				c0.221-0.164,0.535-0.121,0.7,0.099c0.166,0.221,0.122,0.534-0.099,0.7l-1.991,1.5C15.711,13.467,15.605,13.5,15.5,13.5z"/>
		</g>
		<g>
			<path d="M12,22c-0.829,0-1.399-1.394-1.732-2.563c-0.052-0.183,0.004-0.378,0.144-0.506C10.878,18.506,11.532,18,12,18
				c0,0,0.001,0,0.002,0c0.464,0.001,1.11,0.509,1.57,0.934c0.137,0.127,0.192,0.32,0.143,0.5C13.391,20.604,12.831,22,12,22z
				 M12.083,21.018h0.01H12.083z M11.322,19.466c0.209,0.641,0.488,1.248,0.677,1.474c0.187-0.227,0.459-0.834,0.663-1.474
				c-0.289-0.239-0.585-0.442-0.696-0.469C11.904,19.022,11.614,19.226,11.322,19.466z"/>
		</g>
		<g>
			<path d="M9.77,16.852c-0.372,0-0.756-0.13-1.124-0.498c-0.195-0.195-0.195-0.512,0-0.707s0.512-0.195,0.707,0
				c0.334,0.333,0.654,0.243,1.444-0.201C11.204,15.216,11.588,15,12,15c0.276,0,0.5,0.224,0.5,0.5S12.276,16,12,16
				c-0.15,0-0.461,0.176-0.712,0.316C10.876,16.548,10.337,16.852,9.77,16.852z"/>
		</g>
		<g>
			<path d="M14.23,16.852c-0.567,0-1.106-0.303-1.518-0.535C12.461,16.176,12.15,16,12,16c-0.276,0-0.5-0.224-0.5-0.5
				S11.724,15,12,15c0.412,0,0.796,0.216,1.203,0.445c0.79,0.444,1.109,0.534,1.444,0.201c0.195-0.195,0.512-0.195,0.707,0
				s0.195,0.512,0,0.707C14.986,16.721,14.602,16.852,14.23,16.852z"/>
		</g>
	</g>
</g>
<g id="Dictator">
</g>
<g id="Man_Hat">
</g>
<g id="Woman_Hat">
</g>
<g id="Graduated_Man">
</g>
<g id="Graduated_Woman">
</g>
<g id="Avatar_Chef">
</g>
<g id="Waiter">
</g>
<g id="Waitress">
</g>
<g id="Bllboy">
</g>
<g id="Santa">
</g>
<g id="Doctor">
</g>
<g id="Nurse">
</g>
<g id="Captain">
</g>
<g id="Farmer">
</g>
<g id="Maid">
</g>
<g id="Business_Man_2">
</g>
<g id="Business_Woman_2">
</g>
<g id="Cowboy">
</g>
<g id="Anonymus">
</g>
<g id="Batman">
</g>
<g id="Superman">
</g>
<g id="Captain_America">
</g>
<g id="Darth_Vader">
</g>
<g id="Harry_Potter">
</g>
<g id="Anonymus_2">
</g>
<g id="Scream">
</g>
<g id="Jason">
</g>
<g id="Charlie_Chaplin">
</g>
</svg>
