<?xml version="1.0" encoding="iso-8859-1"?>
<!-- Generator: Adobe Illustrator 19.2.1, SVG Export Plug-In . SVG Version: 6.00 Build 0)  -->
<svg version="1.1" xmlns="http://www.w3.org/2000/svg" xmlns:xlink="http://www.w3.org/1999/xlink" x="0px" y="0px"
	 viewBox="0 0 24 24" style="enable-background:new 0 0 24 24;" xml:space="preserve">
<g id="Man_1">
</g>
<g id="Woman_1">
</g>
<g id="Man_2">
</g>
<g id="Woman_2">
</g>
<g id="Bald_Man">
</g>
<g id="Man_Glasses">
</g>
<g id="Woman_Glasses">
</g>
<g id="Man_Beard">
</g>
<g id="Man_Cap">
</g>
<g id="Woman_Cap">
</g>
<g id="Man_3">
</g>
<g id="Woman_3">
</g>
<g id="Men_4">
</g>
<g id="Woman_4">
</g>
<g id="Business_Man_1">
</g>
<g id="Business_Woman_1">
</g>
<g id="Firefigyhter">
</g>
<g id="Policeman">
</g>
<g id="Criminal">
</g>
<g id="Prisoner">
</g>
<g id="Woodsman">
</g>
<g id="Dispatcher_1">
</g>
<g id="Dispatcher_2">
</g>
<g id="Soldier">
</g>
<g id="Astronaut">
	<g>
		<g>
			<g>
				<path d="M12,18c-3.925,0-7-1.538-7-3.5v-3C5,9.538,8.075,8,12,8s7,1.538,7,3.5v3C19,16.462,15.925,18,12,18z M12,9
					c-3.536,0-6,1.317-6,2.5v3c0,1.183,2.464,2.5,6,2.5s6-1.317,6-2.5v-3C18,10.317,15.536,9,12,9z"/>
			</g>
			<g>
				<path d="M7.5,15C7.224,15,7,14.776,7,14.5v-2.314c0-0.564,0.304-1.072,0.793-1.326C8.289,10.601,9.691,10,12,10
					c2.66,0,4.397,0.813,4.868,1.325c0.187,0.204,0.173,0.52-0.03,0.707c-0.203,0.187-0.519,0.174-0.707-0.03
					C15.886,11.734,14.451,11,12,11c-2.146,0-3.41,0.571-3.746,0.746C8.097,11.828,8,11.996,8,12.186V14.5C8,14.776,7.776,15,7.5,15
					z"/>
			</g>
		</g>
		<g>
			<path d="M13.5,17c-0.869,0-1.5-0.42-1.5-1s0.631-1,1.5-1s1.5,0.42,1.5,1S14.369,17,13.5,17z M14.042,16.13h0.01H14.042z M13.5,16
				h0.01H13.5z"/>
		</g>
		<g>
			<path d="M14.5,16.5c-0.276,0-0.5-0.224-0.5-0.5s0.224-0.5,0.5-0.5c1.025,0,3.436-1.476,3.5-2.004c0-0.276,0.224-0.498,0.5-0.498
				c0.276,0,0.5,0.226,0.5,0.502C19,14.833,15.737,16.5,14.5,16.5z"/>
		</g>
		<g>
			<path d="M17,20H7c-0.125,0-0.247-0.047-0.339-0.132C4.97,18.31,4,16.187,4,14.042v-2.083C4,7.57,7.585,4,11.991,4
				s7.991,3.57,7.991,7.958v2.083c0,2.155-0.963,4.279-2.644,5.826C17.247,19.953,17.125,20,17,20z M7.199,19h9.603
				c1.389-1.345,2.181-3.142,2.181-4.958v-2.083C18.982,8.122,15.846,5,11.991,5S5,8.122,5,11.958v2.083
				C5,15.848,5.799,17.645,7.199,19z"/>
		</g>
		<g>
			<path d="M19.813,20.938c-0.052,0-0.105-0.008-0.158-0.026l-2.813-0.938c-0.262-0.087-0.403-0.37-0.316-0.632
				c0.087-0.262,0.368-0.403,0.632-0.316l2.813,0.938c0.262,0.087,0.403,0.37,0.316,0.632
				C20.218,20.806,20.023,20.938,19.813,20.938z"/>
		</g>
		<g>
			<path d="M4.187,20.938c-0.209,0-0.404-0.132-0.474-0.342c-0.087-0.262,0.054-0.545,0.316-0.632l2.813-0.938
				c0.264-0.087,0.545,0.054,0.632,0.316c0.087,0.262-0.054,0.545-0.316,0.632l-2.813,0.938C4.292,20.93,4.239,20.938,4.187,20.938z
				"/>
		</g>
		<g>
			<path d="M12,24C5.383,24,0,18.617,0,12S5.383,0,12,0s12,5.383,12,12S18.617,24,12,24z M12,1C5.935,1,1,5.935,1,12s4.935,11,11,11
				s11-4.935,11-11S18.065,1,12,1z"/>
		</g>
		<g>
			<path d="M15.5,23.458c-0.276,0-0.5-0.224-0.5-0.5V22.5c0-0.276-0.224-0.5-0.5-0.5h-5C9.224,22,9,22.224,9,22.5v0.458
				c0,0.276-0.224,0.5-0.5,0.5S8,23.234,8,22.958V22.5C8,21.673,8.673,21,9.5,21h5c0.827,0,1.5,0.673,1.5,1.5v0.458
				C16,23.234,15.776,23.458,15.5,23.458z"/>
		</g>
	</g>
</g>
<g id="Hipster_Guy">
</g>
<g id="Hipster_Girl">
</g>
<g id="Worker">
</g>
<g id="Old_Man">
</g>
<g id="Punk">
</g>
<g id="Diver">
</g>
<g id="Artist">
</g>
<g id="Dictator">
</g>
<g id="Man_Hat">
</g>
<g id="Woman_Hat">
</g>
<g id="Graduated_Man">
</g>
<g id="Graduated_Woman">
</g>
<g id="Avatar_Chef">
</g>
<g id="Waiter">
</g>
<g id="Waitress">
</g>
<g id="Bllboy">
</g>
<g id="Santa">
</g>
<g id="Doctor">
</g>
<g id="Nurse">
</g>
<g id="Captain">
</g>
<g id="Farmer">
</g>
<g id="Maid">
</g>
<g id="Business_Man_2">
</g>
<g id="Business_Woman_2">
</g>
<g id="Cowboy">
</g>
<g id="Anonymus">
</g>
<g id="Batman">
</g>
<g id="Superman">
</g>
<g id="Captain_America">
</g>
<g id="Darth_Vader">
</g>
<g id="Harry_Potter">
</g>
<g id="Anonymus_2">
</g>
<g id="Scream">
</g>
<g id="Jason">
</g>
<g id="Charlie_Chaplin">
</g>
</svg>
