<?xml version="1.0" encoding="iso-8859-1"?>
<!-- Generator: Adobe Illustrator 19.2.1, SVG Export Plug-In . SVG Version: 6.00 Build 0)  -->
<svg version="1.1" xmlns="http://www.w3.org/2000/svg" xmlns:xlink="http://www.w3.org/1999/xlink" x="0px" y="0px"
	 viewBox="0 0 24 24" style="enable-background:new 0 0 24 24;" xml:space="preserve">
<g id="Man_1">
</g>
<g id="Woman_1">
</g>
<g id="Man_2">
</g>
<g id="Woman_2">
</g>
<g id="Bald_Man">
</g>
<g id="Man_Glasses">
</g>
<g id="Woman_Glasses">
</g>
<g id="Man_Beard">
</g>
<g id="Man_Cap">
</g>
<g id="Woman_Cap">
</g>
<g id="Man_3">
</g>
<g id="Woman_3">
</g>
<g id="Men_4">
</g>
<g id="Woman_4">
</g>
<g id="Business_Man_1">
</g>
<g id="Business_Woman_1">
</g>
<g id="Firefigyhter">
</g>
<g id="Policeman">
</g>
<g id="Criminal">
</g>
<g id="Prisoner">
</g>
<g id="Woodsman">
</g>
<g id="Dispatcher_1">
</g>
<g id="Dispatcher_2">
</g>
<g id="Soldier">
</g>
<g id="Astronaut">
</g>
<g id="Hipster_Guy">
</g>
<g id="Hipster_Girl">
</g>
<g id="Worker">
</g>
<g id="Old_Man">
</g>
<g id="Punk">
</g>
<g id="Diver">
</g>
<g id="Artist">
</g>
<g id="Dictator">
</g>
<g id="Man_Hat">
</g>
<g id="Woman_Hat">
</g>
<g id="Graduated_Man">
</g>
<g id="Graduated_Woman">
</g>
<g id="Avatar_Chef">
	<g>
		<g>
			<path d="M4.5,21c-0.209,0-0.404-0.133-0.475-0.342c-0.087-0.262,0.055-0.545,0.316-0.633l2.837-0.945l0.905-1.357
				c0.154-0.23,0.466-0.291,0.693-0.139c0.229,0.153,0.292,0.464,0.139,0.693l-1,1.5c-0.062,0.093-0.152,0.162-0.258,0.197l-3,1
				C4.605,20.992,4.553,21,4.5,21z"/>
		</g>
		<g>
			<path d="M19.5,21c-0.053,0-0.105-0.008-0.158-0.025l-3-1c-0.105-0.035-0.196-0.104-0.258-0.197l-1-1.5
				c-0.153-0.229-0.091-0.54,0.139-0.693c0.228-0.153,0.539-0.093,0.693,0.139l0.905,1.357l2.837,0.945
				c0.262,0.088,0.403,0.371,0.316,0.633C19.904,20.867,19.709,21,19.5,21z"/>
		</g>
		<g>
			<path d="M10.5,14h-1C9.224,14,9,13.776,9,13.5S9.224,13,9.5,13h1c0.276,0,0.5,0.224,0.5,0.5S10.776,14,10.5,14z"/>
		</g>
		<g>
			<path d="M14.5,14h-1c-0.276,0-0.5-0.224-0.5-0.5s0.224-0.5,0.5-0.5h1c0.276,0,0.5,0.224,0.5,0.5S14.776,14,14.5,14z"/>
		</g>
		<g>
			<path d="M16,10.016c-0.521,0-1.043-0.146-1.511-0.421c-0.237-0.14-0.317-0.446-0.177-0.685c0.14-0.239,0.447-0.316,0.685-0.177
				C15.315,8.921,15.653,9.016,16,9.016c1.103,0,2-0.9,2-2.007s-0.897-2.006-2-2.006c-0.349,0-0.686,0.095-1.003,0.281
				c-0.218,0.127-0.493,0.076-0.647-0.122C13.771,4.424,12.915,4,12,4s-1.771,0.424-2.35,1.162C9.496,5.36,9.221,5.411,9.003,5.284
				C8.686,5.098,8.349,5.003,8,5.003c-1.103,0-2,0.899-2,2.006s0.897,2.007,2,2.007c0.347,0,0.685-0.095,1.003-0.282
				C9.239,8.593,9.547,8.671,9.688,8.91c0.141,0.238,0.061,0.545-0.177,0.685C9.036,9.874,8.528,10.016,8,10.016
				c-1.654,0-3-1.349-3-3.007c0-1.657,1.346-3.006,3-3.006c0.392,0,0.771,0.077,1.134,0.23C9.888,3.444,10.912,3,12,3
				c1.089,0,2.113,0.445,2.867,1.233c0.363-0.151,0.748-0.23,1.133-0.23c1.654,0,3,1.349,3,3.006C19,8.667,17.654,10.016,16,10.016z
				"/>
		</g>
		<g>
			<path d="M12,12c-3.495,0-5.628-1.007-5.717-1.05C6.11,10.867,6,10.692,6,10.5V9c0-0.276,0.224-0.5,0.5-0.5S7,8.724,7,9v1.167
				C7.663,10.421,9.451,11,12,11c2.562,0,4.341-0.578,5-0.832V9c0-0.276,0.224-0.5,0.5-0.5S18,8.724,18,9v1.5
				c0,0.192-0.11,0.367-0.283,0.45C17.628,10.993,15.495,12,12,12z"/>
		</g>
		<g>
			<path d="M9.77,16.852c-0.372,0-0.756-0.13-1.123-0.498c-0.195-0.195-0.195-0.512,0-0.707s0.512-0.195,0.707,0
				c0.333,0.334,0.654,0.243,1.443-0.201C11.203,15.216,11.588,15,12,15c0.276,0,0.5,0.224,0.5,0.5S12.276,16,12,16
				c-0.15,0-0.462,0.176-0.712,0.316C10.876,16.549,10.337,16.852,9.77,16.852z"/>
		</g>
		<g>
			<path d="M14.23,16.852c-0.567,0-1.106-0.303-1.519-0.535C12.462,16.176,12.15,16,12,16c-0.276,0-0.5-0.224-0.5-0.5
				S11.724,15,12,15c0.412,0,0.797,0.216,1.203,0.445c0.789,0.445,1.11,0.534,1.443,0.201c0.195-0.195,0.512-0.195,0.707,0
				s0.195,0.512,0,0.707C14.986,16.721,14.602,16.852,14.23,16.852z"/>
		</g>
		<g>
			<path d="M12,20c-2.25,0-4.287-1.559-5.315-4.018C6.617,15.995,6.555,16,6.5,16C5.645,16,5,14.925,5,13.5
				c0-1.13,0.405-2.04,1-2.368V10.5c0-0.167,0.083-0.322,0.222-0.415c0.138-0.094,0.312-0.109,0.468-0.048
				C7.242,10.263,9.259,11,12,11s4.758-0.737,5.311-0.963c0.155-0.062,0.33-0.046,0.468,0.048C17.917,10.178,18,10.333,18,10.5
				v0.632c0.595,0.328,1,1.238,1,2.368c0,1.425-0.645,2.5-1.5,2.5c-0.055,0-0.117-0.005-0.185-0.018C16.287,18.441,14.25,20,12,20z
				 M6.951,14.775c0.037,0,0.074,0.004,0.11,0.013c0.17,0.038,0.307,0.162,0.363,0.326C8.228,17.475,10.023,19,12,19
				s3.772-1.525,4.575-3.886c0.057-0.164,0.193-0.288,0.363-0.326c0.165-0.04,0.346,0.013,0.468,0.138
				c0.063,0.064,0.099,0.074,0.1,0.075C17.624,15,18,14.468,18,13.5S17.624,12,17.5,12c-0.276,0-0.5-0.224-0.5-0.5v-0.285
				C16.009,11.541,14.223,12,12,12s-4.009-0.459-5-0.785V11.5C7,11.776,6.776,12,6.5,12C6.376,12,6,12.532,6,13.5
				c0,0.967,0.375,1.499,0.5,1.5c-0.002,0,0.033-0.012,0.094-0.074C6.689,14.828,6.818,14.775,6.951,14.775z"/>
		</g>
		<g>
			<path d="M8.501,7c-0.024,0-0.05-0.002-0.074-0.006C8.153,6.954,7.965,6.7,8.006,6.427c0.1-0.677,0.399-1.331,0.866-1.893
				c0.179-0.212,0.494-0.239,0.704-0.065c0.213,0.177,0.241,0.492,0.065,0.704c-0.35,0.421-0.573,0.905-0.647,1.4
				C8.958,6.821,8.744,7,8.501,7z"/>
		</g>
		<g>
			<path d="M12,24C5.383,24,0,18.617,0,12S5.383,0,12,0s12,5.383,12,12S18.617,24,12,24z M12,1C5.935,1,1,5.935,1,12s4.935,11,11,11
				s11-4.935,11-11S18.065,1,12,1z"/>
		</g>
	</g>
</g>
<g id="Waiter">
</g>
<g id="Waitress">
</g>
<g id="Bllboy">
</g>
<g id="Santa">
</g>
<g id="Doctor">
</g>
<g id="Nurse">
</g>
<g id="Captain">
</g>
<g id="Farmer">
</g>
<g id="Maid">
</g>
<g id="Business_Man_2">
</g>
<g id="Business_Woman_2">
</g>
<g id="Cowboy">
</g>
<g id="Anonymus">
</g>
<g id="Batman">
</g>
<g id="Superman">
</g>
<g id="Captain_America">
</g>
<g id="Darth_Vader">
</g>
<g id="Harry_Potter">
</g>
<g id="Anonymus_2">
</g>
<g id="Scream">
</g>
<g id="Jason">
</g>
<g id="Charlie_Chaplin">
</g>
</svg>
