<?xml version="1.0" encoding="iso-8859-1"?>
<!-- Generator: Adobe Illustrator 19.2.1, SVG Export Plug-In . SVG Version: 6.00 Build 0)  -->
<svg version="1.1" xmlns="http://www.w3.org/2000/svg" xmlns:xlink="http://www.w3.org/1999/xlink" x="0px" y="0px"
	 viewBox="0 0 24 24" style="enable-background:new 0 0 24 24;" xml:space="preserve">
<g id="Man_1">
</g>
<g id="Woman_1">
</g>
<g id="Man_2">
</g>
<g id="Woman_2">
</g>
<g id="Bald_Man">
	<g>
		<g>
			<path d="M12,24C5.383,24,0,18.617,0,12S5.383,0,12,0s12,5.383,12,12S18.617,24,12,24z M12,1C5.935,1,1,5.935,1,12s4.935,11,11,11
				s11-4.935,11-11S18.065,1,12,1z"/>
		</g>
		<g>
			<path d="M4.068,20.795c-0.191,0-0.373-0.109-0.456-0.294c-0.114-0.251-0.002-0.548,0.25-0.661
				c0.173-0.079,0.352-0.149,0.535-0.213l2.033-0.707c0.297-0.104,0.57-0.261,0.81-0.467l0.966-0.832
				c0.208-0.181,0.524-0.157,0.705,0.053c0.18,0.209,0.157,0.525-0.053,0.705L7.892,19.21c-0.335,0.288-0.716,0.508-1.133,0.653
				l-2.034,0.707c-0.154,0.054-0.305,0.114-0.452,0.18C4.207,20.781,4.137,20.795,4.068,20.795z"/>
		</g>
		<g>
			<path d="M20,20.796c-0.068,0-0.138-0.014-0.205-0.044c-0.148-0.067-0.301-0.127-0.456-0.182l-2.033-0.707
				c-0.418-0.145-0.799-0.365-1.134-0.653l-0.966-0.832c-0.209-0.18-0.233-0.496-0.053-0.705c0.18-0.21,0.497-0.233,0.705-0.053
				l0.966,0.832c0.239,0.206,0.512,0.363,0.81,0.467l2.033,0.707c0.184,0.064,0.363,0.135,0.538,0.214
				c0.252,0.113,0.364,0.41,0.251,0.661C20.373,20.687,20.19,20.796,20,20.796z"/>
		</g>
		<g>
			<path d="M12.032,20c-0.266,0-0.525-0.03-0.781-0.074c-0.116-0.019-0.232-0.045-0.35-0.073c-0.092-0.023-0.176-0.049-0.261-0.076
				c-1.759-0.519-3.184-2.795-3.962-4.794C6.612,14.996,6.553,15,6.5,15C5.645,15,5,13.925,5,12.5c0-1.158,0.426-2.085,1.044-2.392
				C6.368,6.438,8.725,4,12,4s5.632,2.438,5.956,6.108C18.574,10.415,19,11.342,19,12.5c0,1.425-0.645,2.5-1.5,2.5
				c-0.052,0-0.112-0.004-0.176-0.016c-0.799,2.077-2.184,4.288-3.908,4.796c-0.076,0.024-0.16,0.05-0.246,0.071
				c-0.123,0.03-0.24,0.056-0.359,0.075C12.557,19.97,12.297,20,12.032,20z M6.951,13.775c0.037,0,0.074,0.004,0.111,0.012
				c0.169,0.039,0.307,0.163,0.362,0.327c0.668,1.966,2.051,4.277,3.508,4.707c0.076,0.024,0.142,0.044,0.209,0.062
				c0.087,0.021,0.179,0.042,0.274,0.057c0.409,0.07,0.826,0.069,1.229,0.001c0.098-0.016,0.19-0.037,0.283-0.06
				c0.062-0.016,0.128-0.036,0.195-0.057c1.521-0.449,2.809-2.817,3.453-4.71c0.056-0.164,0.193-0.288,0.362-0.327
				c0.168-0.037,0.347,0.014,0.468,0.138C17.47,13.991,17.505,14,17.506,14C17.625,14,18,13.468,18,12.5S17.625,11,17.5,11h-0.019
				c-0.267,0-0.486-0.209-0.5-0.475C16.813,7.169,14.858,5,12,5s-4.813,2.169-4.982,5.525C7.004,10.791,6.785,11,6.519,11
				C6.375,11,6,11.532,6,12.5c0,0.967,0.375,1.499,0.5,1.5c-0.002,0,0.033-0.012,0.094-0.074
				C6.689,13.829,6.818,13.775,6.951,13.775z"/>
		</g>
		<g>
			<path d="M10.5,12h-1C9.224,12,9,11.776,9,11.5S9.224,11,9.5,11h1c0.276,0,0.5,0.224,0.5,0.5S10.776,12,10.5,12z"/>
		</g>
		<g>
			<path d="M14.5,12h-1c-0.276,0-0.5-0.224-0.5-0.5s0.224-0.5,0.5-0.5h1c0.276,0,0.5,0.224,0.5,0.5S14.776,12,14.5,12z"/>
		</g>
	</g>
</g>
<g id="Man_Glasses">
</g>
<g id="Woman_Glasses">
</g>
<g id="Man_Beard">
</g>
<g id="Man_Cap">
</g>
<g id="Woman_Cap">
</g>
<g id="Man_3">
</g>
<g id="Woman_3">
</g>
<g id="Men_4">
</g>
<g id="Woman_4">
</g>
<g id="Business_Man_1">
</g>
<g id="Business_Woman_1">
</g>
<g id="Firefigyhter">
</g>
<g id="Policeman">
</g>
<g id="Criminal">
</g>
<g id="Prisoner">
</g>
<g id="Woodsman">
</g>
<g id="Dispatcher_1">
</g>
<g id="Dispatcher_2">
</g>
<g id="Soldier">
</g>
<g id="Astronaut">
</g>
<g id="Hipster_Guy">
</g>
<g id="Hipster_Girl">
</g>
<g id="Worker">
</g>
<g id="Old_Man">
</g>
<g id="Punk">
</g>
<g id="Diver">
</g>
<g id="Artist">
</g>
<g id="Dictator">
</g>
<g id="Man_Hat">
</g>
<g id="Woman_Hat">
</g>
<g id="Graduated_Man">
</g>
<g id="Graduated_Woman">
</g>
<g id="Avatar_Chef">
</g>
<g id="Waiter">
</g>
<g id="Waitress">
</g>
<g id="Bllboy">
</g>
<g id="Santa">
</g>
<g id="Doctor">
</g>
<g id="Nurse">
</g>
<g id="Captain">
</g>
<g id="Farmer">
</g>
<g id="Maid">
</g>
<g id="Business_Man_2">
</g>
<g id="Business_Woman_2">
</g>
<g id="Cowboy">
</g>
<g id="Anonymus">
</g>
<g id="Batman">
</g>
<g id="Superman">
</g>
<g id="Captain_America">
</g>
<g id="Darth_Vader">
</g>
<g id="Harry_Potter">
</g>
<g id="Anonymus_2">
</g>
<g id="Scream">
</g>
<g id="Jason">
</g>
<g id="Charlie_Chaplin">
</g>
</svg>
