<?xml version="1.0" encoding="iso-8859-1"?>
<!-- Generator: Adobe Illustrator 19.2.1, SVG Export Plug-In . SVG Version: 6.00 Build 0)  -->
<svg version="1.1" xmlns="http://www.w3.org/2000/svg" xmlns:xlink="http://www.w3.org/1999/xlink" x="0px" y="0px"
	 viewBox="0 0 24 24" style="enable-background:new 0 0 24 24;" xml:space="preserve">
<g id="Man_1">
</g>
<g id="Woman_1">
</g>
<g id="Man_2">
</g>
<g id="Woman_2">
</g>
<g id="Bald_Man">
</g>
<g id="Man_Glasses">
</g>
<g id="Woman_Glasses">
</g>
<g id="Man_Beard">
</g>
<g id="Man_Cap">
</g>
<g id="Woman_Cap">
</g>
<g id="Man_3">
</g>
<g id="Woman_3">
</g>
<g id="Men_4">
</g>
<g id="Woman_4">
</g>
<g id="Business_Man_1">
</g>
<g id="Business_Woman_1">
</g>
<g id="Firefigyhter">
</g>
<g id="Policeman">
</g>
<g id="Criminal">
</g>
<g id="Prisoner">
</g>
<g id="Woodsman">
</g>
<g id="Dispatcher_1">
</g>
<g id="Dispatcher_2">
</g>
<g id="Soldier">
</g>
<g id="Astronaut">
</g>
<g id="Hipster_Guy">
</g>
<g id="Hipster_Girl">
</g>
<g id="Worker">
</g>
<g id="Old_Man">
</g>
<g id="Punk">
</g>
<g id="Diver">
</g>
<g id="Artist">
</g>
<g id="Dictator">
</g>
<g id="Man_Hat">
</g>
<g id="Woman_Hat">
</g>
<g id="Graduated_Man">
</g>
<g id="Graduated_Woman">
</g>
<g id="Avatar_Chef">
</g>
<g id="Waiter">
</g>
<g id="Waitress">
</g>
<g id="Bllboy">
</g>
<g id="Santa">
</g>
<g id="Doctor">
</g>
<g id="Nurse">
</g>
<g id="Captain">
</g>
<g id="Farmer">
</g>
<g id="Maid">
</g>
<g id="Business_Man_2">
</g>
<g id="Business_Woman_2">
</g>
<g id="Cowboy">
</g>
<g id="Anonymus">
</g>
<g id="Batman">
	<g>
		<g>
			<g>
				<path d="M13,17h-2c-0.276,0-0.5-0.224-0.5-0.5S10.724,16,11,16h2c0.276,0,0.5,0.224,0.5,0.5S13.276,17,13,17z"/>
			</g>
			<g>
				<path d="M3.485,20.229c-0.168,0-0.333-0.085-0.427-0.239c-0.144-0.236-0.069-0.544,0.167-0.688l1.795-1.096L6.001,4.465
					C6.015,4.27,6.142,4.1,6.325,4.031c0.184-0.067,0.391-0.024,0.528,0.115l1.721,1.721C9.151,5.546,10.371,5,12,5
					s2.849,0.546,3.426,0.867l1.721-1.721c0.138-0.14,0.343-0.183,0.528-0.115c0.184,0.068,0.31,0.238,0.324,0.434l0.981,13.737
					l1.814,1.068c0.238,0.14,0.317,0.446,0.177,0.685c-0.139,0.237-0.446,0.316-0.684,0.177l-2.041-1.201
					c-0.142-0.083-0.233-0.231-0.245-0.396L17.079,5.628l-1.226,1.226c-0.173,0.173-0.448,0.194-0.646,0.052
					C15.195,6.896,13.922,6,12,6S8.805,6.896,8.792,6.905C8.594,7.049,8.32,7.027,8.146,6.854L6.921,5.628L5.999,18.535
					c-0.011,0.162-0.1,0.308-0.238,0.392l-2.015,1.229C3.664,20.206,3.574,20.229,3.485,20.229z"/>
			</g>
			<g>
				<path d="M13.5,20h-3c-0.099,0-0.195-0.029-0.277-0.084l-3-2c-0.157-0.104-0.242-0.289-0.219-0.477C7.542,13,8.118,13,8.5,13
					c1.621,0,2.954,0.622,3.504,0.923C12.563,13.625,13.923,13,15.5,13c0.39,0,0.924,0,1.496,4.437
					c0.024,0.188-0.061,0.374-0.219,0.479l-3,2C13.695,19.971,13.599,20,13.5,20z M10.651,19h2.697l2.614-1.743
					c-0.184-1.326-0.468-2.783-0.671-3.253c-1.65,0.068-3.012,0.911-3.026,0.92c-0.166,0.103-0.376,0.101-0.538-0.005
					c-0.014-0.009-1.337-0.853-3.03-0.915c-0.208,0.459-0.488,1.922-0.663,3.252L10.651,19z"/>
			</g>
			<g>
				<path d="M14.5,12h-1c-0.232,0-0.434-0.159-0.487-0.385s0.056-0.459,0.263-0.563l2-1c0.247-0.124,0.547-0.023,0.671,0.224
					c0.124,0.247,0.023,0.547-0.224,0.671l-0.755,0.378C14.989,11.379,15,11.438,15,11.5C15,11.776,14.776,12,14.5,12z"/>
			</g>
			<g>
				<path d="M10.5,12h-1C9.224,12,9,11.776,9,11.5v-0.191l-0.724-0.361c-0.247-0.124-0.347-0.424-0.224-0.671
					s0.424-0.348,0.671-0.224l0.99,0.495c0.006,0.003,0.013,0.006,0.019,0.01l0.991,0.495c0.208,0.104,0.316,0.337,0.263,0.563
					S10.732,12,10.5,12z"/>
			</g>
		</g>
		<g>
			<path d="M12,24C5.383,24,0,18.617,0,12S5.383,0,12,0s12,5.383,12,12S18.617,24,12,24z M12,1C5.935,1,1,5.935,1,12s4.935,11,11,11
				s11-4.935,11-11S18.065,1,12,1z"/>
		</g>
	</g>
</g>
<g id="Superman">
</g>
<g id="Captain_America">
</g>
<g id="Darth_Vader">
</g>
<g id="Harry_Potter">
</g>
<g id="Anonymus_2">
</g>
<g id="Scream">
</g>
<g id="Jason">
</g>
<g id="Charlie_Chaplin">
</g>
</svg>
