<?xml version="1.0" encoding="iso-8859-1"?>
<!-- Generator: Adobe Illustrator 19.2.1, SVG Export Plug-In . SVG Version: 6.00 Build 0)  -->
<svg version="1.1" xmlns="http://www.w3.org/2000/svg" xmlns:xlink="http://www.w3.org/1999/xlink" x="0px" y="0px"
	 viewBox="0 0 24 24" style="enable-background:new 0 0 24 24;" xml:space="preserve">
<g id="Man_1">
</g>
<g id="Woman_1">
</g>
<g id="Man_2">
</g>
<g id="Woman_2">
</g>
<g id="Bald_Man">
</g>
<g id="Man_Glasses">
</g>
<g id="Woman_Glasses">
</g>
<g id="Man_Beard">
</g>
<g id="Man_Cap">
</g>
<g id="Woman_Cap">
</g>
<g id="Man_3">
</g>
<g id="Woman_3">
</g>
<g id="Men_4">
</g>
<g id="Woman_4">
</g>
<g id="Business_Man_1">
</g>
<g id="Business_Woman_1">
</g>
<g id="Firefigyhter">
</g>
<g id="Policeman">
</g>
<g id="Criminal">
</g>
<g id="Prisoner">
</g>
<g id="Woodsman">
</g>
<g id="Dispatcher_1">
</g>
<g id="Dispatcher_2">
</g>
<g id="Soldier">
</g>
<g id="Astronaut">
</g>
<g id="Hipster_Guy">
</g>
<g id="Hipster_Girl">
</g>
<g id="Worker">
</g>
<g id="Old_Man">
</g>
<g id="Punk">
</g>
<g id="Diver">
</g>
<g id="Artist">
</g>
<g id="Dictator">
</g>
<g id="Man_Hat">
</g>
<g id="Woman_Hat">
</g>
<g id="Graduated_Man">
</g>
<g id="Graduated_Woman">
</g>
<g id="Avatar_Chef">
</g>
<g id="Waiter">
</g>
<g id="Waitress">
</g>
<g id="Bllboy">
	<g>
		<g>
			<path d="M12,24C5.383,24,0,18.617,0,12S5.383,0,12,0s12,5.383,12,12S18.617,24,12,24z M12,1C5.935,1,1,5.935,1,12s4.935,11,11,11
				s11-4.935,11-11S18.065,1,12,1z"/>
		</g>
		<g>
			<path d="M4.034,20.795c-0.191,0-0.373-0.109-0.457-0.295c-0.113-0.252-0.001-0.548,0.251-0.661
				c0.174-0.078,0.352-0.149,0.535-0.213l2.033-0.707c0.298-0.104,0.571-0.261,0.809-0.466l0.967-0.832
				c0.208-0.18,0.525-0.157,0.705,0.053c0.18,0.209,0.157,0.525-0.053,0.705l-0.967,0.832c-0.333,0.287-0.715,0.507-1.133,0.652
				l-2.034,0.708c-0.154,0.054-0.305,0.113-0.453,0.18C4.172,20.781,4.103,20.795,4.034,20.795z"/>
		</g>
		<g>
			<path d="M19.966,20.797c-0.069,0-0.139-0.015-0.206-0.045c-0.147-0.066-0.298-0.127-0.454-0.181l-2.034-0.707
				c-0.418-0.146-0.8-0.366-1.133-0.653l-0.966-0.832c-0.209-0.181-0.233-0.496-0.053-0.705c0.181-0.21,0.497-0.232,0.705-0.053
				l0.966,0.832c0.238,0.205,0.511,0.362,0.81,0.467l2.033,0.706c0.184,0.063,0.364,0.136,0.54,0.216
				c0.251,0.113,0.363,0.41,0.249,0.661C20.338,20.688,20.156,20.797,19.966,20.797z"/>
		</g>
		<g>
			<path d="M11.999,20c-0.265,0-0.523-0.03-0.779-0.073c-0.123-0.021-0.24-0.045-0.357-0.074c-0.072-0.018-0.146-0.04-0.22-0.063
				c-1.726-0.527-3.165-1.928-3.959-3.808C6.616,15.995,6.553,16,6.499,16c-0.855,0-1.5-1.075-1.5-2.5
				c0-1.156,0.424-2.082,1.041-2.39c0.041-0.589,0.108-1.114,0.203-1.599C6.296,9.24,6.562,9.061,6.83,9.118
				c0.271,0.053,0.447,0.315,0.394,0.587c-0.105,0.534-0.173,1.129-0.208,1.82C7.003,11.791,6.784,12,6.517,12
				c-0.143,0-0.519,0.532-0.519,1.5c0,0.967,0.375,1.499,0.5,1.5c-0.002-0.001,0.033-0.013,0.095-0.075
				c0.122-0.124,0.299-0.176,0.468-0.137c0.169,0.038,0.306,0.162,0.362,0.326c0.628,1.849,1.93,3.234,3.48,3.708
				c0.091,0.028,0.145,0.046,0.199,0.059c0.097,0.024,0.19,0.044,0.285,0.06c0.397,0.067,0.823,0.067,1.226,0
				c0.092-0.016,0.185-0.035,0.278-0.059c0.059-0.014,0.112-0.031,0.166-0.048c1.587-0.485,2.889-1.871,3.517-3.72
				c0.056-0.164,0.193-0.288,0.362-0.326c0.17-0.039,0.347,0.013,0.468,0.137C17.468,14.99,17.503,15,17.504,15
				c0.119,0,0.495-0.532,0.495-1.5s-0.375-1.5-0.5-1.5c-0.267,0-0.505-0.209-0.519-0.475c-0.034-0.675-0.104-1.286-0.211-1.815
				c-0.054-0.271,0.121-0.534,0.392-0.589c0.271-0.057,0.534,0.121,0.588,0.392c0.098,0.488,0.167,1.016,0.208,1.603
				c0.622,0.313,1.042,1.234,1.042,2.385c0,1.425-0.645,2.5-1.5,2.5c-0.055,0-0.118-0.005-0.186-0.019
				c-0.793,1.88-2.23,3.279-3.927,3.798c-0.106,0.033-0.18,0.056-0.256,0.074c-0.113,0.028-0.23,0.052-0.35,0.073
				C12.521,19.97,12.263,20,11.999,20z"/>
		</g>
		<g>
			<path d="M12,11c-3.708,0-5.654-1.016-5.735-1.059C6.102,9.854,6,9.685,6,9.5v-5c0-0.094,0.026-0.186,0.076-0.265
				C6.133,4.144,7.524,2,12,2s5.867,2.144,5.924,2.235C17.974,4.314,18,4.406,18,4.5v5c0,0.185-0.102,0.354-0.265,0.441
				C17.654,9.984,15.708,11,12,11z M7,9.177C7.62,9.43,9.316,10,12,10s4.38-0.57,5-0.823V4.669C16.685,4.3,15.336,3,12,3
				C8.67,3,7.32,4.295,7,4.669V9.177z M17.5,9.5h0.01H17.5z"/>
		</g>
		<g>
			<path d="M12,6C9.47,6,7.909,5.496,7.844,5.475c-0.262-0.086-0.404-0.368-0.319-0.63c0.086-0.263,0.367-0.404,0.63-0.32
				C8.17,4.529,9.644,5,12,5s3.83-0.471,3.845-0.476c0.262-0.083,0.544,0.058,0.63,0.32c0.085,0.262-0.057,0.544-0.319,0.63
				C16.091,5.496,14.53,6,12,6z"/>
		</g>
		<g>
			<path d="M10.5,13h-1C9.224,13,9,12.776,9,12.5S9.224,12,9.5,12h1c0.276,0,0.5,0.224,0.5,0.5S10.776,13,10.5,13z"/>
		</g>
		<g>
			<path d="M14.5,13h-1c-0.276,0-0.5-0.224-0.5-0.5s0.224-0.5,0.5-0.5h1c0.276,0,0.5,0.224,0.5,0.5S14.776,13,14.5,13z"/>
		</g>
		<g>
			<path d="M12,17.5c-1.394,0-1.847-0.612-1.924-0.735c-0.146-0.233-0.075-0.542,0.159-0.688c0.228-0.142,0.523-0.079,0.674,0.137
				C10.935,16.24,11.198,16.5,12,16.5c0.844,0,1.091-0.287,1.093-0.29c0.146-0.234,0.445-0.294,0.68-0.146
				c0.234,0.146,0.297,0.468,0.15,0.701C13.847,16.888,13.394,17.5,12,17.5z"/>
		</g>
		<g>
			<circle cx="10.5" cy="21.5" r="0.5"/>
		</g>
		<g>
			<circle cx="13.5" cy="21.5" r="0.5"/>
		</g>
	</g>
</g>
<g id="Santa">
</g>
<g id="Doctor">
</g>
<g id="Nurse">
</g>
<g id="Captain">
</g>
<g id="Farmer">
</g>
<g id="Maid">
</g>
<g id="Business_Man_2">
</g>
<g id="Business_Woman_2">
</g>
<g id="Cowboy">
</g>
<g id="Anonymus">
</g>
<g id="Batman">
</g>
<g id="Superman">
</g>
<g id="Captain_America">
</g>
<g id="Darth_Vader">
</g>
<g id="Harry_Potter">
</g>
<g id="Anonymus_2">
</g>
<g id="Scream">
</g>
<g id="Jason">
</g>
<g id="Charlie_Chaplin">
</g>
</svg>
