<?xml version="1.0" encoding="iso-8859-1"?>
<!-- Generator: Adobe Illustrator 19.2.1, SVG Export Plug-In . SVG Version: 6.00 Build 0)  -->
<svg version="1.1" xmlns="http://www.w3.org/2000/svg" xmlns:xlink="http://www.w3.org/1999/xlink" x="0px" y="0px"
	 viewBox="0 0 24 24" style="enable-background:new 0 0 24 24;" xml:space="preserve">
<g id="Man_1">
</g>
<g id="Woman_1">
</g>
<g id="Man_2">
</g>
<g id="Woman_2">
</g>
<g id="Bald_Man">
</g>
<g id="Man_Glasses">
</g>
<g id="Woman_Glasses">
</g>
<g id="Man_Beard">
</g>
<g id="Man_Cap">
</g>
<g id="Woman_Cap">
</g>
<g id="Man_3">
</g>
<g id="Woman_3">
</g>
<g id="Men_4">
</g>
<g id="Woman_4">
</g>
<g id="Business_Man_1">
</g>
<g id="Business_Woman_1">
</g>
<g id="Firefigyhter">
</g>
<g id="Policeman">
</g>
<g id="Criminal">
</g>
<g id="Prisoner">
</g>
<g id="Woodsman">
</g>
<g id="Dispatcher_1">
</g>
<g id="Dispatcher_2">
</g>
<g id="Soldier">
</g>
<g id="Astronaut">
</g>
<g id="Hipster_Guy">
</g>
<g id="Hipster_Girl">
</g>
<g id="Worker">
</g>
<g id="Old_Man">
</g>
<g id="Punk">
</g>
<g id="Diver">
</g>
<g id="Artist">
</g>
<g id="Dictator">
</g>
<g id="Man_Hat">
</g>
<g id="Woman_Hat">
</g>
<g id="Graduated_Man">
</g>
<g id="Graduated_Woman">
</g>
<g id="Avatar_Chef">
</g>
<g id="Waiter">
</g>
<g id="Waitress">
</g>
<g id="Bllboy">
</g>
<g id="Santa">
</g>
<g id="Doctor">
</g>
<g id="Nurse">
</g>
<g id="Captain">
</g>
<g id="Farmer">
</g>
<g id="Maid">
</g>
<g id="Business_Man_2">
</g>
<g id="Business_Woman_2">
	<g>
		<g>
			<path d="M3.657,20.181l-0.369-0.93c0,0,0.905-0.36,1.077-0.42l2.033-0.707c0.299-0.104,0.571-0.261,0.808-0.466l0.968-0.832
				c0.211-0.179,0.525-0.156,0.705,0.053c0.181,0.209,0.156,0.525-0.053,0.705l-0.967,0.832c-0.332,0.287-0.714,0.507-1.132,0.652
				l-2.034,0.708C4.527,19.834,3.657,20.181,3.657,20.181z"/>
		</g>
		<g>
			<path d="M20.336,20.178c-0.001,0-0.833-0.346-0.998-0.404l-2.032-0.706c-0.419-0.146-0.801-0.366-1.134-0.653l-0.966-0.832
				c-0.209-0.18-0.233-0.496-0.053-0.705c0.18-0.209,0.496-0.232,0.705-0.053l0.967,0.832c0.237,0.205,0.51,0.362,0.81,0.467
				l2.032,0.706c0.176,0.062,1.052,0.425,1.052,0.425L20.336,20.178z"/>
		</g>
		<g>
			<path d="M12,24C5.383,24,0,18.617,0,12S5.383,0,12,0s12,5.383,12,12S18.617,24,12,24z M12,1C5.935,1,1,5.935,1,12s4.935,11,11,11
				s11-4.935,11-11S18.065,1,12,1z"/>
		</g>
		<g>
			<path d="M7.291,12.002c-0.031,0-0.063-0.001-0.096-0.001L7,12c-0.562,0-0.88-0.389-1.112-0.672C5.705,11.105,5.607,11,5.5,11
				C5.224,11,5,10.776,5,10.5S5.224,10,5.5,10c0.592,0,0.921,0.401,1.161,0.694C6.813,10.879,6.918,11,7,11l0.204,0.001
				c0.653,0.013,0.761,0.009,1.402-0.81c0.282-0.359,0.528-0.732,0.77-1.098C10.382,7.572,11.422,6,14.5,6C14.776,6,15,6.224,15,6.5
				c0,0.471,1.271,2.775,2.461,3.833C17.71,10.151,18.058,10,18.5,10c0.276,0,0.5,0.224,0.5,0.5S18.776,11,18.5,11
				c-0.399,0-0.569,0.255-0.571,0.257c-0.071,0.119-0.188,0.202-0.323,0.231c-0.136,0.03-0.276,0.001-0.39-0.077
				c-1.198-0.827-2.724-3.141-3.119-4.4c-2.223,0.118-2.963,1.237-3.887,2.634c-0.256,0.389-0.518,0.783-0.816,1.164
				C8.557,11.875,8.152,12.002,7.291,12.002z"/>
		</g>
		<g>
			<path d="M12,19c-0.241,0-0.491-0.025-0.787-0.079c-0.115-0.021-0.235-0.049-0.354-0.08c-0.089-0.023-0.175-0.051-0.261-0.08
				c-1.688-0.534-3.126-2.034-3.922-4.063c-0.064,0.012-0.124,0.017-0.177,0.017c-0.869,0-1.5-1.111-1.5-2.643
				c0-0.262,0.086-0.988,0.104-1.131c0.033-0.274,0.29-0.469,0.556-0.437c0.274,0.033,0.47,0.282,0.437,0.556
				C6.096,11.063,6,11.84,6,12.071c0,1.063,0.382,1.613,0.504,1.643c-0.008-0.002,0.027-0.022,0.078-0.078
				c0.121-0.131,0.307-0.188,0.477-0.15c0.175,0.038,0.315,0.167,0.369,0.337c0.638,2.009,1.939,3.5,3.481,3.988
				c0.074,0.024,0.139,0.046,0.206,0.063c0.089,0.023,0.18,0.046,0.273,0.062C11.593,17.974,11.794,18,12,18
				c0.276,0,0.5,0.224,0.5,0.5S12.276,19,12,19z M6.504,13.714h0.01H6.504z"/>
		</g>
		<g>
			<path d="M12,19c-0.276,0-0.5-0.224-0.5-0.5S11.724,18,12,18c0.206,0,0.407-0.026,0.605-0.063c0.1-0.017,0.19-0.039,0.281-0.063
				c0.065-0.018,0.13-0.039,0.194-0.061c1.552-0.491,2.854-1.982,3.491-3.991c0.054-0.17,0.194-0.299,0.369-0.337
				c0.17-0.038,0.355,0.019,0.477,0.15c0.051,0.057,0.087,0.077,0.096,0.08c0.104-0.03,0.486-0.58,0.486-1.645
				c0-0.231-0.096-1.012-0.096-1.012l0.992-0.119C18.914,11.083,19,11.81,19,12.071c0,1.531-0.631,2.643-1.5,2.643
				c-0.053,0-0.112-0.005-0.177-0.017c-0.796,2.029-2.234,3.529-3.932,4.066c-0.076,0.026-0.162,0.054-0.249,0.077
				c-0.12,0.031-0.24,0.06-0.361,0.081C12.491,18.975,12.241,19,12,19z"/>
		</g>
		<g>
			<path d="M10.5,12h-1C9.224,12,9,11.776,9,11.5S9.224,11,9.5,11h1c0.276,0,0.5,0.224,0.5,0.5S10.776,12,10.5,12z"/>
		</g>
		<g>
			<path d="M14.5,12h-1c-0.276,0-0.5-0.224-0.5-0.5s0.224-0.5,0.5-0.5h1c0.276,0,0.5,0.224,0.5,0.5S14.776,12,14.5,12z"/>
		</g>
		<g>
			<path d="M16,18c-0.263,0-0.483-0.205-0.499-0.471c-0.017-0.275,0.194-0.513,0.47-0.528c1.102-0.064,1.905-0.441,2.104-0.763
				C18.749,15.14,19,12.136,19,10.5c0-3.054-2.739-5.303-5.487-5.982c-0.4,0.401-0.952,0.179-1.446-0.071
				c-0.039-0.02-0.076-0.045-0.108-0.074c-0.724-0.649-1.826-0.304-2.42-0.038C7.396,5.288,5,8.128,5,10.5
				c0,1.636,0.251,4.64,0.926,5.738c0.198,0.321,1.002,0.698,2.104,0.763c0.275,0.016,0.486,0.253,0.47,0.528
				s-0.256,0.494-0.528,0.47c-1.022-0.06-2.395-0.42-2.896-1.237C4.013,15.032,4,10.545,4,10.5c0-2.868,2.653-5.977,5.131-7.08
				c1.378-0.612,2.597-0.557,3.441,0.161c0.149,0.073,0.249,0.112,0.313,0.134c0.193-0.204,0.437-0.269,0.726-0.202
				C16.688,4.221,20,6.709,20,10.5c0,0.045-0.013,4.532-1.074,6.262c-0.502,0.817-1.874,1.178-2.896,1.237C16.02,18,16.01,18,16,18z
				"/>
		</g>
		<g>
			<path d="M12,24c-0.13,0-0.259-0.051-0.355-0.148c-0.157-0.158-0.189-0.401-0.081-0.596l3.532-6.297
				c0.088-0.156,0.251-0.253,0.43-0.256c0.144,0.011,0.345,0.091,0.437,0.244l1.968,3.297c0.069,0.116,0.089,0.257,0.053,0.388
				s-0.124,0.242-0.243,0.307l-5.5,3C12.164,23.98,12.082,24,12,24z M15.546,18.201l-2.26,4.027l3.519-1.919L15.546,18.201z"/>
		</g>
		<g>
			<path d="M12,24c-0.082,0-0.164-0.02-0.239-0.062l-5.5-3c-0.12-0.065-0.208-0.177-0.243-0.309
				c-0.036-0.132-0.016-0.272,0.055-0.39l2-3.295c0.093-0.152,0.214-0.223,0.438-0.24c0.178,0.004,0.341,0.102,0.427,0.257
				l3.5,6.295c0.108,0.194,0.075,0.438-0.082,0.596C12.259,23.949,12.13,24,12,24z M7.199,20.312l3.525,1.923L8.481,18.2
				L7.199,20.312z"/>
		</g>
		<g>
			<path d="M12,16.5c-1.394,0-1.848-0.612-1.924-0.735c-0.146-0.233-0.075-0.542,0.159-0.688c0.226-0.141,0.522-0.079,0.674,0.137
				C10.936,15.24,11.198,15.5,12,15.5c0.844,0,1.091-0.287,1.093-0.29c0.146-0.235,0.446-0.293,0.681-0.146s0.297,0.468,0.15,0.701
				C13.848,15.888,13.394,16.5,12,16.5z"/>
		</g>
	</g>
</g>
<g id="Cowboy">
</g>
<g id="Anonymus">
</g>
<g id="Batman">
</g>
<g id="Superman">
</g>
<g id="Captain_America">
</g>
<g id="Darth_Vader">
</g>
<g id="Harry_Potter">
</g>
<g id="Anonymus_2">
</g>
<g id="Scream">
</g>
<g id="Jason">
</g>
<g id="Charlie_Chaplin">
</g>
</svg>
