<?xml version="1.0" encoding="iso-8859-1"?>
<!-- Generator: Adobe Illustrator 19.2.1, SVG Export Plug-In . SVG Version: 6.00 Build 0)  -->
<svg version="1.1" xmlns="http://www.w3.org/2000/svg" xmlns:xlink="http://www.w3.org/1999/xlink" x="0px" y="0px"
	 viewBox="0 0 24 24" style="enable-background:new 0 0 24 24;" xml:space="preserve">
<g id="Man_1">
</g>
<g id="Woman_1">
</g>
<g id="Man_2">
</g>
<g id="Woman_2">
</g>
<g id="Bald_Man">
</g>
<g id="Man_Glasses">
</g>
<g id="Woman_Glasses">
</g>
<g id="Man_Beard">
</g>
<g id="Man_Cap">
</g>
<g id="Woman_Cap">
</g>
<g id="Man_3">
</g>
<g id="Woman_3">
</g>
<g id="Men_4">
</g>
<g id="Woman_4">
</g>
<g id="Business_Man_1">
</g>
<g id="Business_Woman_1">
</g>
<g id="Firefigyhter">
</g>
<g id="Policeman">
</g>
<g id="Criminal">
</g>
<g id="Prisoner">
</g>
<g id="Woodsman">
</g>
<g id="Dispatcher_1">
</g>
<g id="Dispatcher_2">
</g>
<g id="Soldier">
</g>
<g id="Astronaut">
</g>
<g id="Hipster_Guy">
</g>
<g id="Hipster_Girl">
</g>
<g id="Worker">
</g>
<g id="Old_Man">
</g>
<g id="Punk">
</g>
<g id="Diver">
</g>
<g id="Artist">
</g>
<g id="Dictator">
</g>
<g id="Man_Hat">
</g>
<g id="Woman_Hat">
</g>
<g id="Graduated_Man">
</g>
<g id="Graduated_Woman">
</g>
<g id="Avatar_Chef">
</g>
<g id="Waiter">
</g>
<g id="Waitress">
</g>
<g id="Bllboy">
</g>
<g id="Santa">
</g>
<g id="Doctor">
</g>
<g id="Nurse">
</g>
<g id="Captain">
</g>
<g id="Farmer">
</g>
<g id="Maid">
</g>
<g id="Business_Man_2">
	<g>
		<g>
			<path d="M2.85,19.271l-0.357-0.934c0,0,1.701-0.651,1.871-0.711l2.033-0.707c0.298-0.104,0.57-0.261,0.81-0.466l0.966-0.832
				c0.21-0.178,0.525-0.157,0.705,0.053c0.18,0.209,0.156,0.524-0.053,0.705l-0.966,0.832c-0.335,0.288-0.716,0.508-1.134,0.653
				l-2.033,0.707C4.523,18.629,2.85,19.271,2.85,19.271z"/>
		</g>
		<g>
			<path d="M21.167,19.202c0,0-1.691-0.572-1.861-0.631l-2.033-0.707c-0.418-0.146-0.799-0.365-1.134-0.653l-0.967-0.832
				c-0.209-0.18-0.233-0.496-0.053-0.705c0.181-0.21,0.496-0.23,0.705-0.053l0.967,0.832c0.239,0.205,0.512,0.362,0.81,0.466
				l2.033,0.707c0.168,0.059,1.854,0.629,1.854,0.629L21.167,19.202z"/>
		</g>
		<g>
			<path d="M12,24C5.383,24,0,18.617,0,12S5.383,0,12,0s12,5.383,12,12S18.617,24,12,24z M12,1C5.935,1,1,5.935,1,12s4.935,11,11,11
				s11-4.935,11-11S18.065,1,12,1z"/>
		</g>
		<g>
			<path d="M14.5,21c-0.112,0-0.223-0.038-0.313-0.109L12,19.141l-2.188,1.75c-0.115,0.091-0.262,0.128-0.406,0.101
				c-0.144-0.027-0.268-0.116-0.341-0.243l-2-3.5c-0.137-0.239-0.054-0.545,0.187-0.683c0.236-0.134,0.544-0.054,0.683,0.187
				l1.71,2.992l2.043-1.635c0.184-0.146,0.441-0.146,0.625,0l2.043,1.635l1.71-2.992c0.138-0.24,0.445-0.32,0.683-0.187
				c0.24,0.138,0.323,0.443,0.187,0.683l-2,3.5c-0.073,0.127-0.197,0.216-0.341,0.243C14.563,20.997,14.531,21,14.5,21z"/>
		</g>
		<g>
			<path d="M13.469,23.907c-0.209,0-0.404-0.133-0.475-0.342l-0.707-2.122c-0.057-0.172-0.017-0.361,0.105-0.495
				c0.216-0.236,0.575-0.815,0.61-0.984c-0.003-0.038-0.011-0.112-0.027-0.187c-0.06-0.27,0.111-0.536,0.381-0.596
				c0.275-0.058,0.536,0.112,0.596,0.381C13.984,19.706,14,19.854,14,20c0,0.405-0.417,1.036-0.679,1.384l0.622,1.865
				c0.087,0.262-0.055,0.545-0.316,0.633C13.574,23.899,13.521,23.907,13.469,23.907z"/>
		</g>
		<g>
			<path d="M10.531,23.907c-0.053,0-0.105-0.008-0.158-0.025c-0.262-0.088-0.403-0.371-0.316-0.633l0.622-1.867
				C10.42,21.031,10,20.393,10,20c0-0.146,0.017-0.294,0.048-0.438c0.06-0.27,0.324-0.438,0.597-0.38
				c0.27,0.061,0.439,0.327,0.38,0.597C11.008,19.852,11,19.926,11,20c0.031,0.112,0.38,0.692,0.611,0.953
				c0.119,0.133,0.158,0.32,0.102,0.49l-0.707,2.122C10.936,23.774,10.74,23.907,10.531,23.907z"/>
		</g>
		<g>
			<path d="M17,10.5c-0.161,0-0.319-0.078-0.416-0.223C16.524,10.188,16,9.376,16,8.5C16,8.224,16.224,8,16.5,8S17,8.224,17,8.5
				c0,0.29,0.102,0.592,0.205,0.823C17.543,9.168,18.02,9,18.5,9C18.776,9,19,9.224,19,9.5S18.776,10,18.5,10
				c-0.561,0-1.223,0.416-1.229,0.42C17.188,10.475,17.093,10.5,17,10.5z"/>
		</g>
		<g>
			<path d="M7,10.5c-0.093,0-0.185-0.025-0.265-0.075C6.545,10.307,5.952,10,5.5,10C5.224,10,5,9.776,5,9.5S5.224,9,5.5,9
				c0.449,0,0.907,0.155,1.245,0.305C7.178,8.33,8.149,6.541,9.458,6.541c0.276,0,0.5,0.224,0.5,0.5s-0.224,0.5-0.5,0.5
				c-0.684,0-1.592,1.572-1.989,2.634c-0.053,0.141-0.166,0.25-0.308,0.298C7.108,10.491,7.054,10.5,7,10.5z"/>
		</g>
		<g>
			<path d="M12,18c-0.241,0-0.491-0.025-0.787-0.079c-0.115-0.021-0.235-0.049-0.354-0.08c-0.089-0.023-0.175-0.051-0.261-0.08
				c-1.688-0.534-3.126-2.034-3.922-4.063c-0.064,0.012-0.124,0.017-0.177,0.017c-0.869,0-1.5-1.111-1.5-2.643
				c0-0.218,0.06-0.759,0.09-1.016C5.049,9.924,5,9.713,5,9.464C5,5.349,8.141,2,12,2c0.276,0,0.5,0.224,0.5,0.5S12.276,3,12,3
				C8.691,3,6,5.899,6,9.464c0,0.191,0.06,0.34,0.061,0.342c0.031,0.078,0.046,0.17,0.035,0.254C6.096,10.063,6,10.84,6,11.071
				c0,1.063,0.382,1.613,0.504,1.643c-0.008-0.002,0.027-0.022,0.078-0.078c0.121-0.132,0.307-0.188,0.477-0.15
				c0.175,0.038,0.315,0.167,0.369,0.337c0.638,2.009,1.939,3.5,3.481,3.988c0.074,0.024,0.139,0.046,0.206,0.063
				c0.089,0.023,0.18,0.046,0.273,0.062C11.593,16.974,11.794,17,12,17c0.276,0,0.5,0.224,0.5,0.5S12.276,18,12,18z M6.504,12.714
				h0.01H6.504z"/>
		</g>
		<g>
			<path d="M12,18c-0.276,0-0.5-0.224-0.5-0.5S11.724,17,12,17c0.206,0,0.407-0.026,0.605-0.063c0.1-0.017,0.19-0.039,0.281-0.063
				c0.065-0.018,0.13-0.039,0.194-0.061c1.552-0.491,2.854-1.982,3.491-3.991c0.054-0.17,0.194-0.299,0.369-0.337
				c0.17-0.037,0.355,0.019,0.477,0.15c0.051,0.057,0.087,0.077,0.096,0.08c0.104-0.03,0.486-0.58,0.486-1.645
				c0-0.231-0.096-1.012-0.096-1.012c-0.012-0.089,0.002-0.178,0.038-0.26l0,0C17.941,9.8,18,9.653,18,9.464C18,5.899,15.309,3,12,3
				c-0.276,0-0.5-0.224-0.5-0.5S11.724,2,12,2c3.859,0,7,3.349,7,7.464c0,0.249-0.049,0.46-0.09,0.592
				c0.03,0.257,0.09,0.798,0.09,1.016c0,1.531-0.631,2.643-1.5,2.643c-0.053,0-0.112-0.005-0.177-0.017
				c-0.796,2.029-2.234,3.529-3.932,4.066c-0.076,0.026-0.162,0.054-0.249,0.077c-0.12,0.031-0.24,0.06-0.361,0.081
				C12.491,17.975,12.241,18,12,18z"/>
		</g>
		<g>
			<path d="M10.5,11h-1C9.224,11,9,10.776,9,10.5S9.224,10,9.5,10h1c0.276,0,0.5,0.224,0.5,0.5S10.776,11,10.5,11z"/>
		</g>
		<g>
			<path d="M14.5,11h-1c-0.276,0-0.5-0.224-0.5-0.5s0.224-0.5,0.5-0.5h1c0.276,0,0.5,0.224,0.5,0.5S14.776,11,14.5,11z"/>
		</g>
		<g>
			<path d="M17,9h-5.43c-0.838,0-1.615-0.416-2.08-1.113L8.084,5.777c-0.153-0.229-0.091-0.54,0.139-0.693
				C8.45,4.932,8.762,4.992,8.916,5.223l1.406,2.109C10.602,7.75,11.067,8,11.57,8H17c0.276,0,0.5,0.224,0.5,0.5S17.276,9,17,9z"/>
		</g>
		<g>
			<path d="M17,9c-0.838,0-1.615-0.416-2.08-1.113l-1.406-2.109c-0.153-0.229-0.091-0.54,0.139-0.693
				c0.228-0.152,0.538-0.092,0.693,0.139l1.406,2.109C16.031,7.75,16.497,8,17,8c0.276,0,0.5,0.224,0.5,0.5S17.276,9,17,9z"/>
		</g>
		<g>
			<path d="M12,15.5c-1.394,0-1.848-0.612-1.924-0.735c-0.146-0.233-0.075-0.542,0.159-0.688c0.226-0.141,0.522-0.08,0.674,0.137
				C10.936,14.24,11.198,14.5,12,14.5c0.844,0,1.091-0.287,1.093-0.29c0.146-0.234,0.447-0.293,0.681-0.146
				c0.234,0.146,0.297,0.468,0.15,0.701C13.848,14.888,13.394,15.5,12,15.5z"/>
		</g>
	</g>
</g>
<g id="Business_Woman_2">
</g>
<g id="Cowboy">
</g>
<g id="Anonymus">
</g>
<g id="Batman">
</g>
<g id="Superman">
</g>
<g id="Captain_America">
</g>
<g id="Darth_Vader">
</g>
<g id="Harry_Potter">
</g>
<g id="Anonymus_2">
</g>
<g id="Scream">
</g>
<g id="Jason">
</g>
<g id="Charlie_Chaplin">
</g>
</svg>
