<?xml version="1.0" encoding="iso-8859-1"?>
<!-- Generator: Adobe Illustrator 19.2.1, SVG Export Plug-In . SVG Version: 6.00 Build 0)  -->
<svg version="1.1" xmlns="http://www.w3.org/2000/svg" xmlns:xlink="http://www.w3.org/1999/xlink" x="0px" y="0px"
	 viewBox="0 0 24 24" style="enable-background:new 0 0 24 24;" xml:space="preserve">
<g id="Man_1">
</g>
<g id="Woman_1">
</g>
<g id="Man_2">
</g>
<g id="Woman_2">
</g>
<g id="Bald_Man">
</g>
<g id="Man_Glasses">
</g>
<g id="Woman_Glasses">
</g>
<g id="Man_Beard">
</g>
<g id="Man_Cap">
</g>
<g id="Woman_Cap">
</g>
<g id="Man_3">
</g>
<g id="Woman_3">
</g>
<g id="Men_4">
</g>
<g id="Woman_4">
</g>
<g id="Business_Man_1">
</g>
<g id="Business_Woman_1">
	<g>
		<g>
			<path d="M3.657,20.18l-0.369-0.929c0,0,0.905-0.36,1.077-0.42l2.033-0.707c0.298-0.104,0.57-0.261,0.808-0.466l0.968-0.832
				c0.211-0.18,0.526-0.156,0.705,0.053c0.181,0.209,0.156,0.525-0.053,0.705l-0.967,0.832c-0.333,0.288-0.714,0.507-1.132,0.653
				l-2.034,0.707C4.527,19.833,3.657,20.18,3.657,20.18z"/>
		</g>
		<g>
			<path d="M20.336,20.178c-0.001,0-0.832-0.346-0.997-0.403l-2.033-0.708c-0.418-0.145-0.799-0.365-1.134-0.653l-0.966-0.831
				c-0.209-0.18-0.233-0.496-0.053-0.705c0.18-0.209,0.496-0.233,0.705-0.053l0.967,0.832c0.238,0.206,0.511,0.363,0.809,0.466
				l2.033,0.708c0.175,0.061,1.052,0.424,1.052,0.424L20.336,20.178z"/>
		</g>
		<g>
			<path d="M12,24C5.383,24,0,18.617,0,12S5.383,0,12,0s12,5.383,12,12S18.617,24,12,24z M12,1C5.935,1,1,5.935,1,12s4.935,11,11,11
				s11-4.935,11-11S18.065,1,12,1z"/>
		</g>
		<g>
			<path d="M17,11.5c-0.04,0-0.08-0.005-0.12-0.015c-0.131-0.032-0.243-0.117-0.312-0.233c-0.048-0.081-0.392-0.687-0.521-1.372
				c-2.068-0.119-3.92-1.035-4.872-1.966C10.462,9.068,8.759,9.357,8,9.357c-0.13,0.105-0.402,0.941-0.504,1.708
				c-0.022,0.168-0.129,0.313-0.282,0.386c-0.155,0.073-0.334,0.063-0.479-0.027C6.545,11.306,5.952,11,5.5,11
				C5.224,11,5,10.776,5,10.5S5.224,10,5.5,10c0.396,0,0.801,0.121,1.123,0.253C6.81,9.41,7.201,8.357,8,8.357
				c0.025,0,2.5-0.071,2.5-1.643c0-0.276,0.224-0.5,0.5-0.5s0.5,0.224,0.5,0.5c0.076,0.441,2.108,2.179,5,2.179
				c0.276,0,0.5,0.224,0.5,0.5c0,0.297,0.11,0.647,0.225,0.925C17.565,10.164,18.038,10,18.5,10c0.276,0,0.5,0.224,0.5,0.5
				S18.776,11,18.5,11c-0.454,0-1.059,0.314-1.235,0.424C17.185,11.474,17.093,11.5,17,11.5z"/>
		</g>
		<g>
			<path d="M12,19c-0.241,0-0.491-0.025-0.787-0.08c-0.115-0.02-0.233-0.048-0.351-0.078c-0.094-0.025-0.179-0.053-0.264-0.082
				c-1.688-0.534-3.126-2.033-3.922-4.063C6.612,14.71,6.553,14.714,6.5,14.714c-0.869,0-1.5-1.111-1.5-2.643
				c0-0.218,0.06-0.758,0.09-1.016C5.049,10.924,5,10.713,5,10.464C5,6.349,8.141,3,12,3c0.276,0,0.5,0.224,0.5,0.5S12.276,4,12,4
				c-3.309,0-6,2.9-6,6.464c0,0.191,0.06,0.339,0.061,0.341c0.031,0.079,0.046,0.17,0.035,0.255C6.096,11.063,6,11.84,6,12.071
				c0,1.063,0.382,1.613,0.504,1.644c-0.008-0.002,0.027-0.023,0.078-0.078c0.12-0.131,0.298-0.191,0.477-0.151
				c0.174,0.038,0.315,0.167,0.369,0.337c0.638,2.009,1.939,3.5,3.481,3.988c0.075,0.025,0.141,0.047,0.208,0.065
				c0.085,0.021,0.178,0.044,0.271,0.061C11.593,17.974,11.794,18,12,18c0.276,0,0.5,0.224,0.5,0.5S12.276,19,12,19z M6.504,13.715
				h0.01H6.504z"/>
		</g>
		<g>
			<path d="M12,19c-0.276,0-0.5-0.224-0.5-0.5S11.724,18,12,18c0.206,0,0.407-0.026,0.605-0.063c0.1-0.017,0.192-0.04,0.284-0.063
				c0.061-0.017,0.126-0.039,0.191-0.061c1.552-0.491,2.854-1.981,3.491-3.991c0.054-0.17,0.195-0.299,0.369-0.337
				c0.179-0.039,0.356,0.02,0.477,0.151c0.052,0.056,0.087,0.076,0.097,0.08C17.617,13.686,18,13.135,18,12.071
				c0-0.231-0.096-1.011-0.096-1.011c-0.012-0.089,0.002-0.178,0.038-0.26l0,0C17.941,10.8,18,10.653,18,10.464
				C18,6.9,15.309,4,12,4c-0.276,0-0.5-0.224-0.5-0.5S11.724,3,12,3c3.859,0,7,3.349,7,7.464c0,0.249-0.049,0.459-0.09,0.591
				c0.03,0.257,0.09,0.797,0.09,1.016c0,1.532-0.631,2.643-1.5,2.643c-0.053,0-0.112-0.004-0.177-0.017
				c-0.796,2.03-2.234,3.53-3.932,4.066c-0.075,0.026-0.16,0.054-0.247,0.077c-0.124,0.032-0.242,0.06-0.363,0.081
				C12.491,18.975,12.241,19,12,19z"/>
		</g>
		<g>
			<path d="M10.5,12h-1C9.224,12,9,11.776,9,11.5S9.224,11,9.5,11h1c0.276,0,0.5,0.224,0.5,0.5S10.776,12,10.5,12z"/>
		</g>
		<g>
			<path d="M14.5,12h-1c-0.276,0-0.5-0.224-0.5-0.5s0.224-0.5,0.5-0.5h1c0.276,0,0.5,0.224,0.5,0.5S14.776,12,14.5,12z"/>
		</g>
		<g>
			<path d="M16,18c-0.263,0-0.483-0.205-0.499-0.471c-0.017-0.275,0.194-0.512,0.47-0.528c0.678-0.04,2.117-0.518,2.95-0.819
				C18.671,14.998,18,11.701,18,10.5c0-0.276,0.224-0.5,0.5-0.5s0.5,0.224,0.5,0.5c0,1.337,0.979,5.848,0.988,5.894
				c0.053,0.241-0.078,0.484-0.309,0.573c-0.103,0.039-2.523,0.966-3.65,1.032C16.02,18,16.01,18,16,18z"/>
		</g>
		<g>
			<path d="M8,18c-0.01,0-0.02,0-0.029-0.001c-1.127-0.066-3.548-0.993-3.65-1.032c-0.23-0.089-0.361-0.332-0.309-0.573
				C4.021,16.348,5,11.836,5,10.5C5,10.224,5.224,10,5.5,10S6,10.224,6,10.5c0,1.201-0.671,4.498-0.921,5.682
				c0.833,0.301,2.272,0.779,2.95,0.819c0.275,0.016,0.486,0.253,0.47,0.528C8.483,17.795,8.263,18,8,18z"/>
		</g>
		<g>
			<path d="M12,24c-0.13,0-0.259-0.051-0.355-0.148c-0.157-0.159-0.189-0.402-0.081-0.596l3.532-6.296
				c0.088-0.156,0.251-0.253,0.43-0.255c0.179,0.001,0.345,0.091,0.437,0.244l1.968,3.296c0.069,0.117,0.089,0.257,0.053,0.388
				c-0.036,0.131-0.124,0.242-0.243,0.307l-5.5,3C12.164,23.98,12.082,24,12,24z M15.546,18.202l-2.26,4.027l3.519-1.918
				L15.546,18.202z"/>
		</g>
		<g>
			<path d="M12,24c-0.082,0-0.164-0.02-0.239-0.061l-5.5-3c-0.12-0.065-0.208-0.177-0.243-0.309
				c-0.036-0.132-0.016-0.272,0.055-0.389l2-3.295c0.092-0.152,0.22-0.248,0.438-0.241c0.178,0.003,0.341,0.102,0.427,0.257
				l3.5,6.295c0.108,0.195,0.075,0.438-0.082,0.595C12.259,23.949,12.13,24,12,24z M7.199,20.312l3.525,1.923L8.481,18.2
				L7.199,20.312z"/>
		</g>
	</g>
</g>
<g id="Firefigyhter">
</g>
<g id="Policeman">
</g>
<g id="Criminal">
</g>
<g id="Prisoner">
</g>
<g id="Woodsman">
</g>
<g id="Dispatcher_1">
</g>
<g id="Dispatcher_2">
</g>
<g id="Soldier">
</g>
<g id="Astronaut">
</g>
<g id="Hipster_Guy">
</g>
<g id="Hipster_Girl">
</g>
<g id="Worker">
</g>
<g id="Old_Man">
</g>
<g id="Punk">
</g>
<g id="Diver">
</g>
<g id="Artist">
</g>
<g id="Dictator">
</g>
<g id="Man_Hat">
</g>
<g id="Woman_Hat">
</g>
<g id="Graduated_Man">
</g>
<g id="Graduated_Woman">
</g>
<g id="Avatar_Chef">
</g>
<g id="Waiter">
</g>
<g id="Waitress">
</g>
<g id="Bllboy">
</g>
<g id="Santa">
</g>
<g id="Doctor">
</g>
<g id="Nurse">
</g>
<g id="Captain">
</g>
<g id="Farmer">
</g>
<g id="Maid">
</g>
<g id="Business_Man_2">
</g>
<g id="Business_Woman_2">
</g>
<g id="Cowboy">
</g>
<g id="Anonymus">
</g>
<g id="Batman">
</g>
<g id="Superman">
</g>
<g id="Captain_America">
</g>
<g id="Darth_Vader">
</g>
<g id="Harry_Potter">
</g>
<g id="Anonymus_2">
</g>
<g id="Scream">
</g>
<g id="Jason">
</g>
<g id="Charlie_Chaplin">
</g>
</svg>
