<?xml version="1.0" encoding="iso-8859-1"?>
<!-- Generator: Adobe Illustrator 19.2.1, SVG Export Plug-In . SVG Version: 6.00 Build 0)  -->
<svg version="1.1" xmlns="http://www.w3.org/2000/svg" xmlns:xlink="http://www.w3.org/1999/xlink" x="0px" y="0px"
	 viewBox="0 0 24 24" style="enable-background:new 0 0 24 24;" xml:space="preserve">
<g id="Man_1">
</g>
<g id="Woman_1">
</g>
<g id="Man_2">
</g>
<g id="Woman_2">
</g>
<g id="Bald_Man">
</g>
<g id="Man_Glasses">
</g>
<g id="Woman_Glasses">
</g>
<g id="Man_Beard">
</g>
<g id="Man_Cap">
</g>
<g id="Woman_Cap">
</g>
<g id="Man_3">
</g>
<g id="Woman_3">
</g>
<g id="Men_4">
</g>
<g id="Woman_4">
</g>
<g id="Business_Man_1">
</g>
<g id="Business_Woman_1">
</g>
<g id="Firefigyhter">
</g>
<g id="Policeman">
</g>
<g id="Criminal">
</g>
<g id="Prisoner">
</g>
<g id="Woodsman">
</g>
<g id="Dispatcher_1">
</g>
<g id="Dispatcher_2">
</g>
<g id="Soldier">
</g>
<g id="Astronaut">
</g>
<g id="Hipster_Guy">
</g>
<g id="Hipster_Girl">
</g>
<g id="Worker">
</g>
<g id="Old_Man">
</g>
<g id="Punk">
</g>
<g id="Diver">
</g>
<g id="Artist">
</g>
<g id="Dictator">
</g>
<g id="Man_Hat">
</g>
<g id="Woman_Hat">
</g>
<g id="Graduated_Man">
</g>
<g id="Graduated_Woman">
</g>
<g id="Avatar_Chef">
</g>
<g id="Waiter">
</g>
<g id="Waitress">
</g>
<g id="Bllboy">
</g>
<g id="Santa">
</g>
<g id="Doctor">
</g>
<g id="Nurse">
</g>
<g id="Captain">
	<g>
		<g>
			<path d="M12,24C5.383,24,0,18.617,0,12S5.383,0,12,0s12,5.383,12,12S18.617,24,12,24z M12,1C5.935,1,1,5.935,1,12s4.935,11,11,11
				s11-4.935,11-11S18.065,1,12,1z"/>
		</g>
		<g>
			<path d="M4.034,20.795c-0.191,0-0.373-0.109-0.457-0.295c-0.113-0.252-0.001-0.548,0.251-0.661
				c0.174-0.078,0.352-0.149,0.535-0.213l2.033-0.707c0.298-0.104,0.571-0.261,0.809-0.466l0.967-0.832
				c0.208-0.18,0.524-0.157,0.705,0.053c0.18,0.209,0.157,0.525-0.053,0.705l-0.967,0.832c-0.333,0.287-0.715,0.507-1.133,0.652
				l-2.034,0.708c-0.154,0.054-0.305,0.113-0.453,0.18C4.172,20.781,4.103,20.795,4.034,20.795z"/>
		</g>
		<g>
			<path d="M19.966,20.797c-0.069,0-0.139-0.015-0.206-0.045c-0.147-0.066-0.298-0.127-0.454-0.181l-2.034-0.707
				c-0.418-0.146-0.8-0.366-1.133-0.653l-0.966-0.832c-0.209-0.181-0.233-0.496-0.053-0.705c0.181-0.21,0.497-0.232,0.705-0.053
				l0.966,0.832c0.238,0.205,0.511,0.362,0.81,0.467l2.033,0.706c0.184,0.063,0.364,0.136,0.54,0.216
				c0.251,0.113,0.363,0.41,0.249,0.661C20.338,20.688,20.156,20.797,19.966,20.797z"/>
		</g>
		<g>
			<path d="M11.999,20c-0.266,0-0.525-0.029-0.781-0.073c-0.116-0.02-0.233-0.045-0.351-0.073c-0.093-0.024-0.179-0.05-0.264-0.077
				c-1.683-0.497-3.121-1.897-3.919-3.795C6.616,15.995,6.553,16,6.499,16c-0.855,0-1.5-1.075-1.5-2.5
				c0-1.146,0.417-2.064,1.024-2.382c0.027-0.871,0.147-1.66,0.358-2.35C6.461,8.506,6.74,8.356,7.005,8.437
				c0.264,0.081,0.413,0.36,0.332,0.625c-0.212,0.693-0.32,1.515-0.32,2.438c0,0.276-0.224,0.5-0.5,0.5
				c-0.143,0-0.519,0.532-0.519,1.5c0,0.967,0.375,1.499,0.5,1.5c-0.002,0,0.033-0.013,0.095-0.075
				c0.121-0.124,0.297-0.176,0.468-0.137c0.169,0.038,0.306,0.162,0.362,0.326c0.634,1.866,1.934,3.252,3.476,3.707
				c0.078,0.025,0.143,0.045,0.209,0.062c0.087,0.021,0.18,0.042,0.274,0.058c0.409,0.068,0.826,0.068,1.228,0
				c0.099-0.016,0.191-0.037,0.284-0.06c0.061-0.015,0.126-0.034,0.191-0.056c1.555-0.459,2.854-1.845,3.488-3.711
				c0.056-0.164,0.193-0.288,0.362-0.326c0.171-0.039,0.347,0.013,0.468,0.137C17.468,14.99,17.503,15,17.504,15
				c0.119,0,0.495-0.532,0.495-1.5s-0.375-1.5-0.5-1.5c-0.276,0-0.519-0.224-0.519-0.5c0-0.923-0.106-1.742-0.316-2.436
				c-0.08-0.264,0.069-0.543,0.333-0.623c0.267-0.081,0.543,0.069,0.624,0.334c0.209,0.688,0.328,1.478,0.354,2.349
				c0.612,0.32,1.024,1.236,1.024,2.376c0,1.425-0.645,2.5-1.5,2.5c-0.055,0-0.117-0.005-0.186-0.019
				c-0.798,1.897-2.237,3.298-3.932,3.799c-0.073,0.023-0.159,0.049-0.246,0.071c-0.123,0.03-0.24,0.056-0.36,0.075
				C12.523,19.971,12.263,20,11.999,20z"/>
		</g>
		<g>
			<path d="M12,11c-3.331,0-5.368-1.338-5.925-2.236C5.93,8.528,6.002,8.221,6.237,8.075C6.472,7.93,6.78,8.002,6.925,8.236
				C7.281,8.812,8.991,10,12,10s4.719-1.188,5.075-1.764c0.145-0.234,0.454-0.307,0.688-0.161c0.235,0.146,0.307,0.453,0.162,0.688
				C17.368,9.662,15.331,11,12,11z"/>
		</g>
		<g>
			<path d="M17.5,9h-11C5.673,9,5,8.327,5,7.5V6.326c0-0.642,0.384-1.214,0.956-1.424c0.513-0.189,1.146-0.616,1.818-1.069
				C9.048,2.974,10.494,2,12,2s2.952,0.974,4.227,1.833c0.671,0.453,1.305,0.88,1.818,1.069C18.616,5.112,19,5.685,19,6.326V7.5
				C19,8.327,18.327,9,17.5,9z M12,3c-1.201,0-2.511,0.884-3.667,1.663C7.61,5.149,6.927,5.609,6.301,5.84
				C6.124,5.905,6,6.105,6,6.326V7.5C6,7.775,6.224,8,6.5,8h11C17.776,8,18,7.775,18,7.5V6.326c0-0.221-0.124-0.421-0.301-0.486
				c-0.626-0.23-1.309-0.69-2.031-1.177C14.511,3.884,13.201,3,12,3z"/>
		</g>
		<g>
			<path d="M10.5,13h-1C9.224,13,9,12.776,9,12.5S9.224,12,9.5,12h1c0.276,0,0.5,0.224,0.5,0.5S10.776,13,10.5,13z"/>
		</g>
		<g>
			<path d="M14.5,13h-1c-0.276,0-0.5-0.224-0.5-0.5s0.224-0.5,0.5-0.5h1c0.276,0,0.5,0.224,0.5,0.5S14.776,13,14.5,13z"/>
		</g>
		<g>
			<path d="M13.5,22c-0.441,0-1.044-0.433-1.5-0.825C11.544,21.567,10.941,22,10.5,22c-1.727,0-3.429-2.428-3.618-2.705
				c-0.155-0.229-0.096-0.539,0.132-0.694c0.228-0.156,0.539-0.098,0.695,0.132C8.308,19.609,9.594,21,10.5,21
				c0.155-0.031,0.715-0.442,1.155-0.862c0.192-0.184,0.496-0.184,0.689,0c0.441,0.42,1.001,0.831,1.176,0.863
				c0.881-0.001,2.143-1.403,2.726-2.287c0.152-0.229,0.463-0.295,0.692-0.142c0.23,0.151,0.294,0.461,0.143,0.691
				C16.897,19.544,15.231,22,13.5,22z"/>
		</g>
		<g>
			<path d="M12,24c-0.276,0-0.5-0.224-0.5-0.5v-3c0-0.276,0.224-0.5,0.5-0.5s0.5,0.224,0.5,0.5v3C12.5,23.776,12.276,24,12,24z"/>
		</g>
		<g>
			<path d="M12,7c-1.159,0-1.782-0.576-1.85-0.643c-0.197-0.192-0.201-0.51-0.008-0.707c0.191-0.194,0.505-0.199,0.702-0.013
				C10.866,5.657,11.252,6,12,6c0.752,0,1.14-0.348,1.156-0.362c0.201-0.186,0.516-0.179,0.704,0.021
				c0.188,0.198,0.185,0.508-0.01,0.698C13.782,6.424,13.159,7,12,7z"/>
		</g>
		<g>
			<path d="M12,7c-0.276,0-0.5-0.224-0.5-0.5V4c0-0.276,0.224-0.5,0.5-0.5s0.5,0.224,0.5,0.5v2.5C12.5,6.776,12.276,7,12,7z"/>
		</g>
		<g>
			<path d="M12.5,5h-1C11.224,5,11,4.776,11,4.5S11.224,4,11.5,4h1C12.776,4,13,4.224,13,4.5S12.776,5,12.5,5z"/>
		</g>
		<g>
			<path d="M9.77,16.852c-0.372,0-0.756-0.13-1.124-0.498c-0.195-0.195-0.195-0.512,0-0.707s0.512-0.195,0.707,0
				c0.335,0.334,0.655,0.243,1.444-0.201C11.204,15.216,11.588,15,12,15c0.276,0,0.5,0.224,0.5,0.5S12.276,16,12,16
				c-0.15,0-0.461,0.176-0.712,0.316C10.876,16.548,10.337,16.852,9.77,16.852z"/>
		</g>
		<g>
			<path d="M14.23,16.852c-0.567,0-1.106-0.303-1.518-0.535C12.461,16.176,12.15,16,12,16c-0.276,0-0.5-0.224-0.5-0.5
				S11.724,15,12,15c0.412,0,0.796,0.216,1.203,0.445c0.789,0.444,1.109,0.535,1.444,0.201c0.195-0.195,0.512-0.195,0.707,0
				s0.195,0.512,0,0.707C14.986,16.721,14.602,16.852,14.23,16.852z"/>
		</g>
	</g>
</g>
<g id="Farmer">
</g>
<g id="Maid">
</g>
<g id="Business_Man_2">
</g>
<g id="Business_Woman_2">
</g>
<g id="Cowboy">
</g>
<g id="Anonymus">
</g>
<g id="Batman">
</g>
<g id="Superman">
</g>
<g id="Captain_America">
</g>
<g id="Darth_Vader">
</g>
<g id="Harry_Potter">
</g>
<g id="Anonymus_2">
</g>
<g id="Scream">
</g>
<g id="Jason">
</g>
<g id="Charlie_Chaplin">
</g>
</svg>
