<?xml version="1.0" encoding="iso-8859-1"?>
<!-- Generator: Adobe Illustrator 19.2.1, SVG Export Plug-In . SVG Version: 6.00 Build 0)  -->
<svg version="1.1" xmlns="http://www.w3.org/2000/svg" xmlns:xlink="http://www.w3.org/1999/xlink" x="0px" y="0px"
	 viewBox="0 0 24 24" style="enable-background:new 0 0 24 24;" xml:space="preserve">
<g id="Man_1">
</g>
<g id="Woman_1">
</g>
<g id="Man_2">
</g>
<g id="Woman_2">
</g>
<g id="Bald_Man">
</g>
<g id="Man_Glasses">
</g>
<g id="Woman_Glasses">
</g>
<g id="Man_Beard">
</g>
<g id="Man_Cap">
</g>
<g id="Woman_Cap">
</g>
<g id="Man_3">
</g>
<g id="Woman_3">
</g>
<g id="Men_4">
</g>
<g id="Woman_4">
</g>
<g id="Business_Man_1">
</g>
<g id="Business_Woman_1">
</g>
<g id="Firefigyhter">
</g>
<g id="Policeman">
</g>
<g id="Criminal">
</g>
<g id="Prisoner">
</g>
<g id="Woodsman">
</g>
<g id="Dispatcher_1">
</g>
<g id="Dispatcher_2">
</g>
<g id="Soldier">
</g>
<g id="Astronaut">
</g>
<g id="Hipster_Guy">
</g>
<g id="Hipster_Girl">
</g>
<g id="Worker">
</g>
<g id="Old_Man">
</g>
<g id="Punk">
</g>
<g id="Diver">
</g>
<g id="Artist">
</g>
<g id="Dictator">
</g>
<g id="Man_Hat">
</g>
<g id="Woman_Hat">
</g>
<g id="Graduated_Man">
</g>
<g id="Graduated_Woman">
</g>
<g id="Avatar_Chef">
</g>
<g id="Waiter">
</g>
<g id="Waitress">
</g>
<g id="Bllboy">
</g>
<g id="Santa">
</g>
<g id="Doctor">
</g>
<g id="Nurse">
</g>
<g id="Captain">
</g>
<g id="Farmer">
</g>
<g id="Maid">
</g>
<g id="Business_Man_2">
</g>
<g id="Business_Woman_2">
</g>
<g id="Cowboy">
</g>
<g id="Anonymus">
</g>
<g id="Batman">
</g>
<g id="Superman">
</g>
<g id="Captain_America">
	<g>
		<g>
			<path d="M12,20c-2.458,0-4.494-1.9-5.381-4.988c-0.015-0.001-0.029-0.003-0.044-0.004C5.645,15,5,13.925,5,12.5
				c0-0.396,0.052-0.784,0.152-1.132C5.048,10.866,5,10.429,5,10c0-3.859,3.14-7,7-7s7,3.141,7,7c0,0.429-0.048,0.866-0.152,1.368
				C18.948,11.716,19,12.104,19,12.5c0,1.425-0.645,2.5-1.5,2.5c-0.041,0.004-0.081,0.008-0.119,0.012C16.494,18.1,14.458,20,12,20z
				 M7,14c0.063,0,0.127,0.012,0.188,0.037c0.148,0.06,0.259,0.188,0.297,0.343C8.192,17.229,9.921,19,12,19s3.808-1.771,4.515-4.62
				c0.039-0.155,0.149-0.283,0.297-0.343c0.113-0.047,0.237-0.049,0.349-0.011c0,0,0.001,0,0.001,0c0.05,0,0.109-0.009,0.159-0.014
				C17.395,14.005,17.458,14,17.5,14c0.125,0,0.5-0.532,0.5-1.5c0-0.342-0.049-0.671-0.143-0.951
				c-0.028-0.086-0.033-0.178-0.014-0.266C17.95,10.799,18,10.391,18,10c0-3.309-2.691-6-6-6s-6,2.691-6,6
				c0,0.391,0.05,0.799,0.157,1.283c0.02,0.088,0.015,0.18-0.014,0.266C6.049,11.829,6,12.158,6,12.5C6,13.468,6.375,14,6.5,14
				c0.042,0,0.105,0.005,0.179,0.013c0.05,0.005,0.109,0.014,0.159,0.014c0,0,0,0,0.001,0C6.891,14.009,6.945,14,7,14z"/>
		</g>
		<g>
			<path d="M7,15c-0.276,0-0.5-0.224-0.5-0.5S6.724,14,7,14c1.443,0,4.828-0.971,4.861-0.98c0.268-0.077,0.543,0.078,0.619,0.342
				c0.077,0.266-0.077,0.543-0.342,0.619C11.994,14.022,8.583,15,7,15z"/>
		</g>
		<g>
			<path d="M17,15c-1.583,0-4.994-0.978-5.139-1.02c-0.265-0.076-0.418-0.354-0.342-0.619c0.076-0.264,0.351-0.418,0.619-0.342
				C12.172,13.029,15.557,14,17,14c0.276,0,0.5,0.224,0.5,0.5S17.276,15,17,15z"/>
		</g>
		<g>
			<path d="M13.5,10c-0.202,0-0.393-0.124-0.468-0.324L12,6.924l-1.032,2.752c-0.097,0.258-0.387,0.391-0.644,0.292
				c-0.258-0.097-0.389-0.385-0.292-0.644l1.5-4c0.146-0.391,0.79-0.391,0.937,0l1.5,4c0.097,0.259-0.034,0.547-0.292,0.644
				C13.618,9.99,13.559,10,13.5,10z"/>
		</g>
		<g>
			<path d="M13,9h-2c-0.276,0-0.5-0.224-0.5-0.5S10.724,8,11,8h2c0.276,0,0.5,0.224,0.5,0.5S13.276,9,13,9z"/>
		</g>
		<g>
			<path d="M5.5,12c-0.162,0-0.32-0.078-0.417-0.223l-2-3C2.999,8.649,2.977,8.488,3.026,8.342l1-3C4.096,5.131,4.298,5.006,4.519,5
				c0.222,0.009,0.412,0.163,0.466,0.379l1,4c0.067,0.268-0.096,0.539-0.364,0.606c-0.27,0.063-0.539-0.097-0.606-0.364L4.431,7.287
				L4.052,8.426l1.864,2.797c0.153,0.229,0.091,0.54-0.139,0.693C5.692,11.973,5.596,12,5.5,12z"/>
		</g>
		<g>
			<path d="M18.5,12c-0.095,0-0.191-0.027-0.277-0.084c-0.23-0.153-0.292-0.464-0.139-0.693l1.864-2.797l-0.379-1.139l-0.584,2.334
				c-0.067,0.268-0.339,0.426-0.606,0.364c-0.268-0.067-0.431-0.339-0.364-0.606l1-4c0.054-0.216,0.244-0.37,0.466-0.379
				c0.233,0.006,0.424,0.131,0.493,0.342l1,3c0.049,0.146,0.027,0.308-0.058,0.436l-2,3C18.82,11.922,18.661,12,18.5,12z"/>
		</g>
		<g>
			<path d="M9,13c-1.856,0-2-1.148-2-1.5S7.144,10,9,10c1.425,0,2.5,0.645,2.5,1.5S10.425,13,9,13z M9,11c-1,0-1,0.376-1,0.5
				S8,12,9,12c0.968,0,1.5-0.376,1.5-0.5S9.968,11,9,11z"/>
		</g>
		<g>
			<path d="M15,13c-1.425,0-2.5-0.645-2.5-1.5S13.575,10,15,10c1.856,0,2,1.148,2,1.5S16.856,13,15,13z M15,11
				c-0.968,0-1.5,0.376-1.5,0.5S14.032,12,15,12c1,0,1-0.376,1-0.5S16,11,15,11z"/>
		</g>
		<g>
			<path d="M13,17h-2c-0.276,0-0.5-0.224-0.5-0.5S10.724,16,11,16h2c0.276,0,0.5,0.224,0.5,0.5S13.276,17,13,17z"/>
		</g>
		<g>
			<path d="M12,24C5.383,24,0,18.617,0,12S5.383,0,12,0s12,5.383,12,12S18.617,24,12,24z M12,1C5.935,1,1,5.935,1,12s4.935,11,11,11
				s11-4.935,11-11S18.065,1,12,1z"/>
		</g>
		<g>
			<path d="M4.068,20.795c-0.191,0-0.373-0.109-0.456-0.294c-0.114-0.252-0.002-0.548,0.25-0.662
				c0.173-0.078,0.352-0.149,0.535-0.213l2.033-0.707c0.298-0.104,0.571-0.261,0.81-0.466l0.966-0.832
				c0.208-0.18,0.524-0.157,0.705,0.053c0.18,0.209,0.157,0.524-0.053,0.705l-0.966,0.832c-0.334,0.288-0.716,0.508-1.133,0.652
				l-2.034,0.708c-0.154,0.054-0.305,0.113-0.452,0.18C4.207,20.781,4.137,20.795,4.068,20.795z"/>
		</g>
		<g>
			<path d="M20,20.797c-0.069,0-0.139-0.015-0.206-0.045c-0.147-0.066-0.299-0.127-0.454-0.181l-2.034-0.707
				c-0.418-0.146-0.8-0.365-1.134-0.653l-0.966-0.832c-0.209-0.181-0.233-0.496-0.053-0.705c0.181-0.21,0.497-0.232,0.705-0.053
				l0.966,0.832c0.238,0.205,0.511,0.362,0.81,0.466l2.033,0.707c0.184,0.063,0.363,0.136,0.539,0.216
				c0.251,0.113,0.363,0.41,0.249,0.661C20.372,20.688,20.19,20.797,20,20.797z"/>
		</g>
	</g>
</g>
<g id="Darth_Vader">
</g>
<g id="Harry_Potter">
</g>
<g id="Anonymus_2">
</g>
<g id="Scream">
</g>
<g id="Jason">
</g>
<g id="Charlie_Chaplin">
</g>
</svg>
