<?xml version="1.0" encoding="iso-8859-1"?>
<!-- Generator: Adobe Illustrator 19.2.1, SVG Export Plug-In . SVG Version: 6.00 Build 0)  -->
<svg version="1.1" xmlns="http://www.w3.org/2000/svg" xmlns:xlink="http://www.w3.org/1999/xlink" x="0px" y="0px"
	 viewBox="0 0 24 24" style="enable-background:new 0 0 24 24;" xml:space="preserve">
<g id="Man_1">
</g>
<g id="Woman_1">
</g>
<g id="Man_2">
</g>
<g id="Woman_2">
</g>
<g id="Bald_Man">
</g>
<g id="Man_Glasses">
</g>
<g id="Woman_Glasses">
</g>
<g id="Man_Beard">
</g>
<g id="Man_Cap">
</g>
<g id="Woman_Cap">
</g>
<g id="Man_3">
</g>
<g id="Woman_3">
</g>
<g id="Men_4">
</g>
<g id="Woman_4">
</g>
<g id="Business_Man_1">
</g>
<g id="Business_Woman_1">
</g>
<g id="Firefigyhter">
</g>
<g id="Policeman">
</g>
<g id="Criminal">
</g>
<g id="Prisoner">
</g>
<g id="Woodsman">
</g>
<g id="Dispatcher_1">
</g>
<g id="Dispatcher_2">
</g>
<g id="Soldier">
</g>
<g id="Astronaut">
</g>
<g id="Hipster_Guy">
</g>
<g id="Hipster_Girl">
</g>
<g id="Worker">
</g>
<g id="Old_Man">
</g>
<g id="Punk">
</g>
<g id="Diver">
</g>
<g id="Artist">
</g>
<g id="Dictator">
</g>
<g id="Man_Hat">
</g>
<g id="Woman_Hat">
</g>
<g id="Graduated_Man">
</g>
<g id="Graduated_Woman">
</g>
<g id="Avatar_Chef">
</g>
<g id="Waiter">
</g>
<g id="Waitress">
</g>
<g id="Bllboy">
</g>
<g id="Santa">
</g>
<g id="Doctor">
</g>
<g id="Nurse">
</g>
<g id="Captain">
</g>
<g id="Farmer">
</g>
<g id="Maid">
</g>
<g id="Business_Man_2">
</g>
<g id="Business_Woman_2">
</g>
<g id="Cowboy">
</g>
<g id="Anonymus">
</g>
<g id="Batman">
</g>
<g id="Superman">
</g>
<g id="Captain_America">
</g>
<g id="Darth_Vader">
</g>
<g id="Harry_Potter">
</g>
<g id="Anonymus_2">
</g>
<g id="Scream">
</g>
<g id="Jason">
</g>
<g id="Charlie_Chaplin">
	<g>
		<g>
			<g>
				<path d="M12,20c-2.465,0-4.653-1.99-5.561-5.002C5.614,14.948,5,13.892,5,12.5C5,11.075,5.645,10,6.5,10
					c0.048,0,0.118,0.012,0.164,0.024c0.275,0.019,0.44,0.25,0.422,0.525s-0.294,0.479-0.576,0.458
					c-0.01-0.001-0.02-0.002-0.031-0.004C6.337,11.057,6,11.582,6,12.5C6,13.468,6.376,14,6.5,14
					c0.135-0.084,0.319-0.11,0.467-0.049c0.148,0.061,0.274,0.176,0.313,0.331C7.979,17.104,9.876,19,12,19s4.021-1.896,4.722-4.718
					c0.039-0.155,0.149-0.283,0.297-0.343c0.147-0.063,0.316-0.047,0.452,0.038c0.003,0.001,0.007,0.001,0.01,0.001
					c0.159,0,0.52-0.53,0.52-1.479c0-0.918-0.338-1.443-0.479-1.496c-0.026,0.006-0.044,0.005-0.065,0.005
					c-0.261,0-0.48-0.202-0.498-0.467c-0.019-0.275,0.19-0.514,0.466-0.532c0.004,0,0.009,0,0.013,0c0.925,0,1.563,1.071,1.563,2.49
					c0,1.391-0.614,2.447-1.438,2.498C16.653,18.01,14.464,20,12,20z"/>
			</g>
			<g>
				<path d="M12,11c-4.351,0-9-0.657-9-2.5c0-1.246,1.825-1.72,3.415-1.993C6.69,6.461,6.946,6.643,6.993,6.915
					c0.046,0.272-0.137,0.531-0.408,0.578C4.029,7.932,4,8.477,4,8.5C4,8.941,6.302,10,12,10s8-1.059,8-1.5
					c0-0.023-0.029-0.568-2.585-1.007c-0.271-0.047-0.454-0.306-0.408-0.578c0.047-0.272,0.302-0.454,0.578-0.408
					C19.175,6.78,21,7.254,21,8.5C21,10.343,16.351,11,12,11z"/>
			</g>
			<g>
				<path d="M12,8C7.445,8,6.269,6.974,6.149,6.856C5.953,6.663,5.95,6.347,6.144,6.149c0.189-0.193,0.498-0.2,0.695-0.017
					C6.885,6.17,7.97,7,12,7c4.101,0,5.152-0.86,5.162-0.868c0.203-0.175,0.518-0.164,0.7,0.036c0.182,0.198,0.181,0.5-0.012,0.688
					C17.731,6.974,16.555,8,12,8z"/>
			</g>
			<g>
				<path d="M17.5,8.5C17.224,8.5,17,8.276,17,8V6.5C17,4.57,15.43,3,13.5,3h-3C8.57,3,7,4.57,7,6.5V8c0,0.276-0.224,0.5-0.5,0.5
					S6,8.276,6,8V6.5C6,4.019,8.019,2,10.5,2h3C15.981,2,18,4.019,18,6.5V8C18,8.276,17.776,8.5,17.5,8.5z"/>
			</g>
			<g>
				<g>
					<path d="M10.5,13h-1C9.224,13,9,12.776,9,12.5S9.224,12,9.5,12h1c0.276,0,0.5,0.224,0.5,0.5S10.776,13,10.5,13z"/>
				</g>
				<g>
					<path d="M14.5,13h-1c-0.276,0-0.5-0.224-0.5-0.5s0.224-0.5,0.5-0.5h1c0.276,0,0.5,0.224,0.5,0.5S14.776,13,14.5,13z"/>
				</g>
			</g>
			<g>
				<path d="M8.5,12c-0.131,0-0.263-0.052-0.36-0.153c-0.191-0.199-0.186-0.516,0.014-0.707C8.265,11.032,8.853,10.5,9.5,10.5
					c0.276,0,0.5,0.224,0.5,0.5s-0.224,0.5-0.5,0.5c-0.194,0-0.526,0.239-0.653,0.36C8.749,11.954,8.625,12,8.5,12z"/>
			</g>
			<g>
				<path d="M15.5,11.999c-0.124,0-0.248-0.046-0.345-0.138C14.995,11.71,14.679,11.5,14.5,11.5c-0.276,0-0.5-0.224-0.5-0.5
					s0.224-0.5,0.5-0.5c0.647,0,1.235,0.532,1.347,0.64c0.198,0.19,0.205,0.506,0.015,0.705
					C15.763,11.947,15.632,11.999,15.5,11.999z"/>
			</g>
			<g>
				<path d="M13,17h-2c-0.173,0-0.334-0.09-0.426-0.237c-0.091-0.147-0.099-0.331-0.021-0.486l0.5-1
					C11.138,15.107,11.311,15,11.5,15h1c0.189,0,0.362,0.107,0.447,0.276l0.5,1c0.077,0.155,0.069,0.339-0.021,0.486
					C13.334,16.91,13.173,17,13,17z"/>
			</g>
			<g>
				<path d="M3.63,20.181l-0.369-0.93c0,0,0.905-0.36,1.077-0.42l2.033-0.707c0.299-0.104,0.571-0.261,0.808-0.466
					c0.081-0.069,0.183-0.111,0.29-0.12l0.494-0.037c0.272-0.026,0.515,0.187,0.536,0.462c0.021,0.275-0.187,0.515-0.462,0.536
					l-0.336,0.024C7.4,18.759,7.064,18.941,6.7,19.068l-2.034,0.708C4.5,19.834,3.63,20.181,3.63,20.181z"/>
			</g>
			<g>
				<path d="M20.309,20.178c-0.001,0-0.833-0.346-0.998-0.404l-2.032-0.706c-0.365-0.128-0.701-0.311-1.001-0.545l-0.314-0.023
					c-0.275-0.021-0.482-0.261-0.462-0.536s0.262-0.489,0.536-0.462l0.472,0.035c0.106,0.009,0.208,0.051,0.29,0.12
					c0.236,0.205,0.509,0.362,0.809,0.467l2.032,0.706c0.176,0.062,1.052,0.425,1.052,0.425L20.309,20.178z"/>
			</g>
			<g>
				<path d="M11.973,24c-0.141,0-0.278-0.06-0.376-0.171c-0.154-0.176-0.166-0.436-0.027-0.624l4.027-5.5
					c0.099-0.137,0.233-0.226,0.429-0.204c0.168,0.008,0.32,0.101,0.405,0.245l1.473,2.5c0.069,0.117,0.087,0.257,0.052,0.387
					c-0.036,0.131-0.124,0.241-0.243,0.306l-5.5,3C12.137,23.98,12.055,24,11.973,24z M15.955,18.908l-2.256,3.081l3.08-1.681
					L15.955,18.908z"/>
			</g>
			<g>
				<path d="M11.973,24c-0.082,0-0.164-0.02-0.239-0.062l-5.5-3c-0.12-0.065-0.208-0.177-0.244-0.31
					c-0.035-0.132-0.015-0.272,0.057-0.39l1.527-2.5c0.087-0.143,0.24-0.232,0.407-0.239c0.174,0.009,0.327,0.071,0.425,0.207
					l3.973,5.5c0.137,0.189,0.124,0.448-0.03,0.623C12.25,23.941,12.112,24,11.973,24z M7.173,20.313l3.104,1.692l-2.241-3.103
					L7.173,20.313z"/>
			</g>
		</g>
		<g>
			<path d="M12,24C5.383,24,0,18.617,0,12S5.383,0,12,0s12,5.383,12,12S18.617,24,12,24z M12,1C5.935,1,1,5.935,1,12s4.935,11,11,11
				s11-4.935,11-11S18.065,1,12,1z"/>
		</g>
	</g>
</g>
</svg>
