<?xml version="1.0" encoding="iso-8859-1"?>
<!-- Generator: Adobe Illustrator 19.2.1, SVG Export Plug-In . SVG Version: 6.00 Build 0)  -->
<svg version="1.1" xmlns="http://www.w3.org/2000/svg" xmlns:xlink="http://www.w3.org/1999/xlink" x="0px" y="0px"
	 viewBox="0 0 24 24" style="enable-background:new 0 0 24 24;" xml:space="preserve">
<g id="Man_1">
</g>
<g id="Woman_1">
</g>
<g id="Man_2">
</g>
<g id="Woman_2">
</g>
<g id="Bald_Man">
</g>
<g id="Man_Glasses">
</g>
<g id="Woman_Glasses">
</g>
<g id="Man_Beard">
</g>
<g id="Man_Cap">
</g>
<g id="Woman_Cap">
</g>
<g id="Man_3">
</g>
<g id="Woman_3">
</g>
<g id="Men_4">
</g>
<g id="Woman_4">
</g>
<g id="Business_Man_1">
</g>
<g id="Business_Woman_1">
</g>
<g id="Firefigyhter">
</g>
<g id="Policeman">
</g>
<g id="Criminal">
</g>
<g id="Prisoner">
</g>
<g id="Woodsman">
</g>
<g id="Dispatcher_1">
</g>
<g id="Dispatcher_2">
</g>
<g id="Soldier">
</g>
<g id="Astronaut">
</g>
<g id="Hipster_Guy">
</g>
<g id="Hipster_Girl">
</g>
<g id="Worker">
</g>
<g id="Old_Man">
</g>
<g id="Punk">
</g>
<g id="Diver">
</g>
<g id="Artist">
</g>
<g id="Dictator">
</g>
<g id="Man_Hat">
</g>
<g id="Woman_Hat">
</g>
<g id="Graduated_Man">
</g>
<g id="Graduated_Woman">
</g>
<g id="Avatar_Chef">
</g>
<g id="Waiter">
</g>
<g id="Waitress">
</g>
<g id="Bllboy">
</g>
<g id="Santa">
</g>
<g id="Doctor">
</g>
<g id="Nurse">
</g>
<g id="Captain">
</g>
<g id="Farmer">
</g>
<g id="Maid">
</g>
<g id="Business_Man_2">
</g>
<g id="Business_Woman_2">
</g>
<g id="Cowboy">
	<g>
		<g>
			<path d="M4.034,20.795c-0.19,0-0.372-0.109-0.456-0.294c-0.113-0.252-0.001-0.548,0.25-0.662
				c0.174-0.078,0.353-0.149,0.535-0.213l2.033-0.707c0.298-0.104,0.57-0.261,0.81-0.466l0.966-0.832
				c0.21-0.179,0.525-0.157,0.705,0.053c0.18,0.209,0.156,0.524-0.053,0.705l-0.966,0.832c-0.335,0.288-0.716,0.508-1.134,0.653
				l-2.033,0.707c-0.155,0.054-0.305,0.113-0.451,0.18C4.173,20.781,4.104,20.795,4.034,20.795z"/>
		</g>
		<g>
			<path d="M19.966,20.797c-0.069,0-0.14-0.015-0.207-0.045c-0.147-0.066-0.299-0.127-0.453-0.181l-2.033-0.707
				c-0.418-0.146-0.799-0.365-1.134-0.653l-0.967-0.832c-0.209-0.18-0.233-0.496-0.053-0.705c0.181-0.21,0.496-0.231,0.705-0.053
				l0.967,0.832c0.239,0.205,0.512,0.362,0.81,0.466l2.033,0.707c0.184,0.063,0.364,0.136,0.539,0.216
				c0.251,0.114,0.362,0.41,0.248,0.662C20.337,20.688,20.155,20.797,19.966,20.797z"/>
		</g>
		<g>
			<path d="M11.998,20c-0.265,0-0.524-0.029-0.78-0.073c-0.116-0.02-0.233-0.045-0.351-0.073c-0.094-0.023-0.179-0.05-0.265-0.077
				c-1.684-0.497-3.121-1.897-3.919-3.795C6.615,15.995,6.553,16,6.498,16c-0.855,0-1.5-1.075-1.5-2.5
				c0-1.159,0.427-2.086,1.045-2.392c0.031-0.358,0.082-0.706,0.149-1.038c0.057-0.271,0.325-0.444,0.591-0.39
				c0.271,0.056,0.444,0.32,0.39,0.591c-0.082,0.396-0.134,0.817-0.156,1.254C7.004,11.791,6.784,12,6.518,12
				c-0.144,0-0.52,0.532-0.52,1.5c0,0.967,0.375,1.499,0.5,1.5c-0.002,0,0.033-0.012,0.096-0.075
				c0.122-0.124,0.299-0.176,0.468-0.137c0.17,0.039,0.307,0.162,0.362,0.326c0.633,1.865,1.932,3.251,3.475,3.707
				c0.077,0.025,0.143,0.044,0.209,0.062c0.088,0.021,0.18,0.042,0.275,0.058c0.409,0.068,0.827,0.067,1.229,0
				c0.097-0.016,0.19-0.037,0.284-0.06c0.06-0.015,0.125-0.035,0.192-0.057c1.553-0.459,2.852-1.844,3.485-3.71
				c0.057-0.164,0.193-0.288,0.363-0.326c0.167-0.039,0.346,0.013,0.468,0.138c0.063,0.064,0.099,0.074,0.1,0.075
				c0.118-0.001,0.494-0.533,0.494-1.501s-0.376-1.5-0.5-1.5c-0.267,0-0.505-0.209-0.518-0.475
				c-0.022-0.432-0.074-0.854-0.156-1.255c-0.055-0.271,0.12-0.534,0.391-0.59c0.266-0.056,0.534,0.119,0.59,0.391
				c0.068,0.337,0.118,0.686,0.149,1.042c0.623,0.312,1.044,1.235,1.044,2.387c0,1.425-0.645,2.5-1.5,2.5
				c-0.055,0-0.117-0.005-0.185-0.018c-0.799,1.896-2.237,3.297-3.932,3.798c-0.074,0.024-0.159,0.049-0.245,0.071
				c-0.124,0.03-0.241,0.056-0.36,0.075C12.523,19.971,12.264,20,11.998,20z"/>
		</g>
		<g>
			<path d="M12,24C5.383,24,0,18.617,0,12S5.383,0,12,0s12,5.383,12,12S18.617,24,12,24z M12,1C5.935,1,1,5.935,1,12s4.935,11,11,11
				s11-4.935,11-11S18.065,1,12,1z"/>
		</g>
		<g>
			<path d="M10.5,13h-1C9.224,13,9,12.776,9,12.5S9.224,12,9.5,12h1c0.276,0,0.5,0.224,0.5,0.5S10.776,13,10.5,13z"/>
		</g>
		<g>
			<path d="M14.5,13h-1c-0.276,0-0.5-0.224-0.5-0.5s0.224-0.5,0.5-0.5h1c0.276,0,0.5,0.224,0.5,0.5S14.776,13,14.5,13z"/>
		</g>
		<g>
			<path d="M16.5,17c-1.024,0-3.566-1.392-4.501-1.924C11.056,15.607,8.488,17,7.5,17C7.224,17,7,16.776,7,16.5S7.224,16,7.5,16
				c0.611,0,2.854-1.131,4.251-1.934c0.156-0.088,0.348-0.088,0.5,0.001C13.631,14.87,15.86,16,16.5,16c0.276,0,0.5,0.224,0.5,0.5
				S16.776,17,16.5,17z"/>
		</g>
		<g>
			<path d="M16.5,9C16.224,9,16,8.776,16,8.5c0-2.504-0.519-3.195-0.828-3.386c-0.493-0.303-1.321,0.118-1.984,0.456
				C12.716,5.811,12.343,6,12,6c-0.35,0-0.728-0.193-1.206-0.438c-0.66-0.336-1.481-0.754-1.97-0.458C8.517,5.293,8,5.984,8,8.5
				C8,8.776,7.776,9,7.5,9S7,8.776,7,8.5c0-2.354,0.414-3.704,1.303-4.248c0.967-0.593,2.111-0.005,2.945,0.42
				C11.516,4.809,11.881,4.995,12.001,5c0.115-0.006,0.472-0.188,0.732-0.32c0.84-0.429,1.99-1.011,2.961-0.418
				C16.585,4.809,17,6.155,17,8.5C17,8.776,16.776,9,16.5,9z"/>
		</g>
		<g>
			<path d="M12,11c-1.503,0-9-0.097-9-2c0-0.35,0-1.278,4.465-1.771c0.265-0.033,0.521,0.168,0.552,0.442
				c0.03,0.274-0.168,0.521-0.442,0.552C5.394,8.464,4.43,8.809,4.102,9.003C4.741,9.392,7.407,10,12,10s7.259-0.608,7.898-0.997
				c-0.328-0.194-1.292-0.539-3.473-0.779c-0.274-0.03-0.473-0.277-0.442-0.552s0.277-0.477,0.552-0.442C21,7.722,21,8.65,21,9
				C21,10.903,13.503,11,12,11z"/>
		</g>
		<g>
			<path d="M12.5,23.989c-0.276,0-0.5-0.224-0.5-0.5v-4.025c0-0.276,0.224-0.5,0.5-0.5s0.5,0.224,0.5,0.5v4.025
				C13,23.766,12.776,23.989,12.5,23.989z"/>
		</g>
		<g>
			<circle cx="11.5" cy="21.5" r="0.5"/>
		</g>
	</g>
</g>
<g id="Anonymus">
</g>
<g id="Batman">
</g>
<g id="Superman">
</g>
<g id="Captain_America">
</g>
<g id="Darth_Vader">
</g>
<g id="Harry_Potter">
</g>
<g id="Anonymus_2">
</g>
<g id="Scream">
</g>
<g id="Jason">
</g>
<g id="Charlie_Chaplin">
</g>
</svg>
