<?xml version="1.0" encoding="iso-8859-1"?>
<!-- Generator: Adobe Illustrator 19.2.1, SVG Export Plug-In . SVG Version: 6.00 Build 0)  -->
<svg version="1.1" xmlns="http://www.w3.org/2000/svg" xmlns:xlink="http://www.w3.org/1999/xlink" x="0px" y="0px"
	 viewBox="0 0 24 24" style="enable-background:new 0 0 24 24;" xml:space="preserve">
<g id="Man_1">
</g>
<g id="Woman_1">
</g>
<g id="Man_2">
</g>
<g id="Woman_2">
</g>
<g id="Bald_Man">
</g>
<g id="Man_Glasses">
</g>
<g id="Woman_Glasses">
</g>
<g id="Man_Beard">
</g>
<g id="Man_Cap">
</g>
<g id="Woman_Cap">
</g>
<g id="Man_3">
</g>
<g id="Woman_3">
</g>
<g id="Men_4">
</g>
<g id="Woman_4">
</g>
<g id="Business_Man_1">
</g>
<g id="Business_Woman_1">
</g>
<g id="Firefigyhter">
</g>
<g id="Policeman">
</g>
<g id="Criminal">
	<g>
		<g>
			<path d="M12,24C5.383,24,0,18.617,0,12S5.383,0,12,0s12,5.383,12,12S18.617,24,12,24z M12,1C5.935,1,1,5.935,1,12s4.935,11,11,11
				s11-4.935,11-11S18.065,1,12,1z"/>
		</g>
		<g>
			<path d="M17.5,12c-0.067,0-0.135-0.014-0.196-0.04C17.281,11.95,15.017,11,12,11s-5.281,0.95-5.304,0.96
				C6.631,11.989,6.56,12,6.484,12C5.888,11.981,5,11.566,5,10.5c0-0.812,0.515-1.246,1.023-1.415C6.263,6.873,8.369,4,12,4
				s5.737,2.873,5.977,5.085C18.485,9.254,19,9.688,19,10.5c0,1.066-0.888,1.481-1.484,1.5C17.511,12,17.505,12,17.5,12z M12,10
				c2.859,0,5.04,0.781,5.574,0.991C17.762,10.96,18,10.851,18,10.5c0-0.411-0.326-0.49-0.521-0.5C17.214,9.985,17,9.766,17,9.5
				C17,7.661,15.22,5,12,5S7,7.661,7,9.5C7,9.77,6.785,9.991,6.516,10C6.326,10.01,6,10.089,6,10.5c0,0.349,0.236,0.459,0.427,0.49
				C6.962,10.78,9.143,10,12,10z"/>
		</g>
		<g>
			<path d="M8,9.5c-0.222,0-0.425-0.149-0.483-0.374c-0.07-0.267,0.09-0.54,0.356-0.61C7.953,8.495,9.866,8,12,8
				c0.276,0,0.5,0.224,0.5,0.5S12.276,9,12,9c-2,0-3.854,0.479-3.873,0.484C8.084,9.495,8.042,9.5,8,9.5z"/>
		</g>
		<g>
			<path d="M4.034,20.795c-0.19,0-0.372-0.109-0.456-0.294c-0.113-0.251-0.001-0.548,0.25-0.661
				c0.174-0.079,0.353-0.149,0.535-0.213l2.033-0.707c0.298-0.104,0.57-0.261,0.81-0.467l0.966-0.832
				c0.21-0.178,0.525-0.156,0.705,0.053s0.156,0.525-0.053,0.705L7.858,19.21c-0.336,0.289-0.717,0.508-1.134,0.653l-2.033,0.707
				c-0.155,0.054-0.305,0.114-0.451,0.18C4.173,20.781,4.104,20.795,4.034,20.795z"/>
		</g>
		<g>
			<path d="M19.966,20.796c-0.069,0-0.139-0.014-0.206-0.044c-0.147-0.066-0.3-0.127-0.455-0.181l-2.032-0.707
				c-0.417-0.145-0.798-0.365-1.134-0.653l-0.967-0.832c-0.209-0.18-0.233-0.496-0.053-0.705c0.18-0.208,0.495-0.233,0.705-0.053
				l0.967,0.832c0.239,0.206,0.512,0.363,0.81,0.467l2.033,0.707c0.184,0.064,0.363,0.135,0.538,0.214
				c0.251,0.113,0.363,0.41,0.25,0.661C20.338,20.687,20.156,20.796,19.966,20.796z"/>
		</g>
		<g>
			<path d="M11.998,20c-0.24,0-0.489-0.023-0.781-0.074c-0.114-0.018-0.231-0.044-0.35-0.072c-0.093-0.023-0.177-0.049-0.262-0.076
				c-1.687-0.498-3.124-1.898-3.922-3.795C6.615,15.995,6.553,16,6.498,16c-0.855,0-1.5-1.075-1.5-2.5s0.645-2.5,1.5-2.5
				c0.276,0,0.5,0.224,0.5,0.5S6.774,12,6.498,12c-0.124,0-0.5,0.532-0.5,1.5c0,0.967,0.375,1.499,0.5,1.5
				c-0.002,0,0.033-0.012,0.096-0.076c0.123-0.124,0.298-0.177,0.468-0.136c0.17,0.039,0.307,0.163,0.362,0.327
				c0.633,1.866,1.932,3.251,3.475,3.707c0.075,0.024,0.142,0.044,0.209,0.061c0.087,0.021,0.179,0.042,0.272,0.057
				c0.417,0.071,0.829,0.07,1.23,0.001c0.1-0.016,0.192-0.037,0.285-0.06c0.061-0.015,0.127-0.036,0.195-0.057
				c1.549-0.458,2.849-1.843,3.482-3.709c0.057-0.164,0.193-0.288,0.363-0.327c0.166-0.039,0.346,0.014,0.468,0.138
				c0.063,0.065,0.099,0.075,0.1,0.075c0.118,0,0.494-0.533,0.494-1.5s-0.376-1.5-0.5-1.5c-0.276,0-0.5-0.224-0.5-0.5
				s0.224-0.5,0.5-0.5c0.855,0,1.5,1.075,1.5,2.5s-0.645,2.5-1.5,2.5c-0.055,0-0.117-0.005-0.185-0.018
				c-0.799,1.898-2.237,3.298-3.932,3.798c-0.076,0.024-0.16,0.049-0.245,0.071c-0.125,0.03-0.243,0.056-0.362,0.075
				C12.488,19.977,12.239,20,11.998,20z"/>
		</g>
		<g>
			<path d="M10.5,13h-1C9.224,13,9,12.776,9,12.5S9.224,12,9.5,12h1c0.276,0,0.5,0.224,0.5,0.5S10.776,13,10.5,13z"/>
		</g>
		<g>
			<path d="M14.5,13h-1c-0.276,0-0.5-0.224-0.5-0.5s0.224-0.5,0.5-0.5h1c0.276,0,0.5,0.224,0.5,0.5S14.776,13,14.5,13z"/>
		</g>
		<g>
			<path d="M9.398,16c-1.013,0-1.599-0.017-2.631-0.557c-0.244-0.128-0.339-0.43-0.211-0.675c0.129-0.244,0.431-0.338,0.676-0.211
				c0.847,0.444,1.24,0.444,2.169,0.443c0.518,0,0.799-0.099,1.124-0.213C10.907,14.652,11.34,14.5,12,14.5
				c0.276,0,0.5,0.224,0.5,0.5s-0.224,0.5-0.5,0.5c-0.489,0-0.792,0.106-1.143,0.23C10.478,15.864,10,16,9.398,16z"/>
		</g>
		<g>
			<path d="M14.5,16c-0.59,0-0.998-0.144-1.357-0.27C12.792,15.606,12.489,15.5,12,15.5c-0.276,0-0.5-0.224-0.5-0.5
				s0.224-0.5,0.5-0.5c0.66,0,1.093,0.152,1.475,0.287C13.8,14.901,14.081,15,14.5,15c0.978,0,1.382,0,2.276-0.447
				c0.248-0.123,0.547-0.024,0.671,0.224c0.123,0.247,0.023,0.547-0.224,0.671C16.118,16,15.543,16,14.5,16z"/>
		</g>
		<g>
			<path d="M12.5,17h-1c-0.276,0-0.5-0.224-0.5-0.5s0.224-0.5,0.5-0.5h1c0.276,0,0.5,0.224,0.5,0.5S12.776,17,12.5,17z"/>
		</g>
	</g>
</g>
<g id="Prisoner">
</g>
<g id="Woodsman">
</g>
<g id="Dispatcher_1">
</g>
<g id="Dispatcher_2">
</g>
<g id="Soldier">
</g>
<g id="Astronaut">
</g>
<g id="Hipster_Guy">
</g>
<g id="Hipster_Girl">
</g>
<g id="Worker">
</g>
<g id="Old_Man">
</g>
<g id="Punk">
</g>
<g id="Diver">
</g>
<g id="Artist">
</g>
<g id="Dictator">
</g>
<g id="Man_Hat">
</g>
<g id="Woman_Hat">
</g>
<g id="Graduated_Man">
</g>
<g id="Graduated_Woman">
</g>
<g id="Avatar_Chef">
</g>
<g id="Waiter">
</g>
<g id="Waitress">
</g>
<g id="Bllboy">
</g>
<g id="Santa">
</g>
<g id="Doctor">
</g>
<g id="Nurse">
</g>
<g id="Captain">
</g>
<g id="Farmer">
</g>
<g id="Maid">
</g>
<g id="Business_Man_2">
</g>
<g id="Business_Woman_2">
</g>
<g id="Cowboy">
</g>
<g id="Anonymus">
</g>
<g id="Batman">
</g>
<g id="Superman">
</g>
<g id="Captain_America">
</g>
<g id="Darth_Vader">
</g>
<g id="Harry_Potter">
</g>
<g id="Anonymus_2">
</g>
<g id="Scream">
</g>
<g id="Jason">
</g>
<g id="Charlie_Chaplin">
</g>
</svg>
