<?xml version="1.0" encoding="iso-8859-1"?>
<!-- Generator: Adobe Illustrator 19.2.1, SVG Export Plug-In . SVG Version: 6.00 Build 0)  -->
<svg version="1.1" xmlns="http://www.w3.org/2000/svg" xmlns:xlink="http://www.w3.org/1999/xlink" x="0px" y="0px"
	 viewBox="0 0 24 24" style="enable-background:new 0 0 24 24;" xml:space="preserve">
<g id="Man_1">
</g>
<g id="Woman_1">
</g>
<g id="Man_2">
</g>
<g id="Woman_2">
</g>
<g id="Bald_Man">
</g>
<g id="Man_Glasses">
</g>
<g id="Woman_Glasses">
</g>
<g id="Man_Beard">
</g>
<g id="Man_Cap">
</g>
<g id="Woman_Cap">
</g>
<g id="Man_3">
</g>
<g id="Woman_3">
</g>
<g id="Men_4">
</g>
<g id="Woman_4">
</g>
<g id="Business_Man_1">
</g>
<g id="Business_Woman_1">
</g>
<g id="Firefigyhter">
</g>
<g id="Policeman">
</g>
<g id="Criminal">
</g>
<g id="Prisoner">
</g>
<g id="Woodsman">
</g>
<g id="Dispatcher_1">
</g>
<g id="Dispatcher_2">
</g>
<g id="Soldier">
</g>
<g id="Astronaut">
</g>
<g id="Hipster_Guy">
</g>
<g id="Hipster_Girl">
</g>
<g id="Worker">
</g>
<g id="Old_Man">
</g>
<g id="Punk">
</g>
<g id="Diver">
</g>
<g id="Artist">
</g>
<g id="Dictator">
</g>
<g id="Man_Hat">
</g>
<g id="Woman_Hat">
</g>
<g id="Graduated_Man">
</g>
<g id="Graduated_Woman">
</g>
<g id="Avatar_Chef">
</g>
<g id="Waiter">
</g>
<g id="Waitress">
</g>
<g id="Bllboy">
</g>
<g id="Santa">
</g>
<g id="Doctor">
</g>
<g id="Nurse">
</g>
<g id="Captain">
</g>
<g id="Farmer">
</g>
<g id="Maid">
</g>
<g id="Business_Man_2">
</g>
<g id="Business_Woman_2">
</g>
<g id="Cowboy">
</g>
<g id="Anonymus">
</g>
<g id="Batman">
</g>
<g id="Superman">
</g>
<g id="Captain_America">
</g>
<g id="Darth_Vader">
	<g>
		<g>
			<path d="M12,24C5.383,24,0,18.617,0,12S5.383,0,12,0s12,5.383,12,12S18.617,24,12,24z M12,1C5.935,1,1,5.935,1,12s4.935,11,11,11
				s11-4.935,11-11S18.065,1,12,1z"/>
		</g>
		<g>
			<path d="M4.5,16c-0.063,0-0.127-0.012-0.189-0.037c-0.256-0.104-0.378-0.396-0.274-0.652C4.57,14.007,7.36,7.5,10,7.5
				c0.574,0,0.964,0.169,1.278,0.305C11.529,7.914,11.728,8,12,8c0.276,0,0.5,0.224,0.5,0.5S12.276,9,12,9
				c-0.48,0-0.82-0.147-1.12-0.277C10.604,8.604,10.366,8.5,10,8.5c-1.45,0-3.818,4.204-5.037,7.189C4.884,15.883,4.697,16,4.5,16z"
				/>
		</g>
		<g>
			<path d="M15,17H9c-0.189,0-0.362-0.107-0.447-0.276C8.468,16.555,8.486,16.352,8.6,16.2l3-4c0.188-0.252,0.611-0.252,0.8,0l3,4
				c0.114,0.151,0.132,0.354,0.047,0.523C15.362,16.893,15.189,17,15,17z M10,16h4l-2-2.667L10,16z"/>
		</g>
		<g>
			<path d="M19.5,16c-0.197,0-0.384-0.117-0.463-0.311C17.901,12.909,15.53,8.5,14,8.5c-0.366,0-0.604,0.104-0.88,0.223
				C12.82,8.853,12.48,9,12,9c-0.276,0-0.5-0.224-0.5-0.5S11.724,8,12,8c0.272,0,0.471-0.086,0.722-0.195
				C13.036,7.669,13.426,7.5,14,7.5c2.64,0,5.43,6.507,5.963,7.811c0.104,0.256-0.018,0.548-0.274,0.652
				C19.627,15.988,19.563,16,19.5,16z"/>
		</g>
		<g>
			<path d="M12,7c-1.103,0-2-0.897-2-2V3.5C10,3.224,10.224,3,10.5,3h3C13.776,3,14,3.224,14,3.5V5C14,6.103,13.103,7,12,7z M11,4v1
				c0,0.552,0.449,1,1,1s1-0.448,1-1V4H11z"/>
		</g>
		<g>
			<path d="M20.272,20.488c-0.064,0-0.129-0.013-0.192-0.038l-4.772-1.988c-0.255-0.106-0.375-0.399-0.269-0.654
				c0.106-0.256,0.401-0.372,0.654-0.27l4.772,1.988c0.255,0.106,0.375,0.399,0.269,0.654
				C20.654,20.373,20.468,20.488,20.272,20.488z"/>
		</g>
		<g>
			<path d="M3.728,20.488c-0.196,0-0.381-0.115-0.461-0.308c-0.106-0.255,0.014-0.548,0.269-0.654l4.772-1.988
				c0.254-0.103,0.547,0.014,0.654,0.27c0.106,0.255-0.014,0.548-0.269,0.654L3.92,20.45C3.857,20.476,3.792,20.488,3.728,20.488z"
				/>
		</g>
		<g>
			<path d="M15.5,18.5c-0.218,0-0.418-0.144-0.48-0.364c-0.075-0.266,0.079-0.542,0.345-0.617c2.159-0.609,3.227-1.688,3.579-2.109
				l-1.917-5.751C17.009,9.607,17,9.554,17,9.5v-2C17,5.086,14.076,4,12,4S7,5.086,7,7.5v2c0,0.054-0.009,0.107-0.026,0.158
				l-1.917,5.751c0.35,0.42,1.418,1.499,3.579,2.109c0.266,0.075,0.42,0.352,0.345,0.617c-0.076,0.267-0.355,0.418-0.617,0.346
				c-3.112-0.88-4.242-2.642-4.289-2.717c-0.079-0.126-0.097-0.281-0.05-0.423L6,9.419V7.5C6,4.577,9.091,3,12,3s6,1.577,6,4.5
				v1.919l1.974,5.923c0.047,0.142,0.029,0.297-0.05,0.423c-0.047,0.075-1.177,1.837-4.289,2.717
				C15.59,18.494,15.545,18.5,15.5,18.5z"/>
		</g>
		<g>
			<path d="M15,17c-0.027,0-0.055-0.002-0.083-0.007c-0.272-0.045-0.457-0.303-0.411-0.575l0.427-2.56L12,13.02l-2.934,0.839
				l0.427,2.56c0.045,0.272-0.139,0.53-0.411,0.575c-0.273,0.049-0.53-0.139-0.575-0.411l-0.5-3
				c-0.042-0.251,0.111-0.493,0.356-0.563l3.5-1c0.09-0.025,0.185-0.025,0.274,0l3.5,1c0.245,0.069,0.398,0.312,0.356,0.563l-0.5,3
				C15.453,16.827,15.241,17,15,17z"/>
		</g>
		<g>
			<path d="M11,11H9c-0.186,0-0.356-0.103-0.442-0.268c-0.086-0.164-0.075-0.362,0.03-0.516C8.771,9.95,9.274,9.5,10,9.5
				c0.851,0,1.346,0.628,1.4,0.7c0.114,0.151,0.132,0.354,0.047,0.523C11.362,10.893,11.189,11,11,11z M10.6,10.8h0.01H10.6z"/>
		</g>
		<g>
			<path d="M15,11h-2c-0.189,0-0.362-0.107-0.447-0.276c-0.084-0.169-0.066-0.372,0.047-0.523c0.054-0.072,0.549-0.7,1.4-0.7
				c0.726,0,1.229,0.45,1.412,0.717c0.105,0.153,0.117,0.352,0.03,0.516C15.356,10.897,15.186,11,15,11z"/>
		</g>
	</g>
</g>
<g id="Harry_Potter">
</g>
<g id="Anonymus_2">
</g>
<g id="Scream">
</g>
<g id="Jason">
</g>
<g id="Charlie_Chaplin">
</g>
</svg>
