<?xml version="1.0" encoding="iso-8859-1"?>
<!-- Generator: Adobe Illustrator 19.2.1, SVG Export Plug-In . SVG Version: 6.00 Build 0)  -->
<svg version="1.1" xmlns="http://www.w3.org/2000/svg" xmlns:xlink="http://www.w3.org/1999/xlink" x="0px" y="0px"
	 viewBox="0 0 24 24" style="enable-background:new 0 0 24 24;" xml:space="preserve">
<g id="Man_1">
</g>
<g id="Woman_1">
</g>
<g id="Man_2">
</g>
<g id="Woman_2">
</g>
<g id="Bald_Man">
</g>
<g id="Man_Glasses">
</g>
<g id="Woman_Glasses">
</g>
<g id="Man_Beard">
</g>
<g id="Man_Cap">
</g>
<g id="Woman_Cap">
</g>
<g id="Man_3">
</g>
<g id="Woman_3">
</g>
<g id="Men_4">
</g>
<g id="Woman_4">
</g>
<g id="Business_Man_1">
</g>
<g id="Business_Woman_1">
</g>
<g id="Firefigyhter">
</g>
<g id="Policeman">
</g>
<g id="Criminal">
</g>
<g id="Prisoner">
</g>
<g id="Woodsman">
</g>
<g id="Dispatcher_1">
	<g>
		<g>
			<path d="M2.849,19.271l-0.357-0.934c0,0,1.702-0.651,1.872-0.71l2.033-0.707c0.298-0.104,0.57-0.261,0.809-0.467l0.967-0.832
				c0.21-0.18,0.525-0.156,0.705,0.053c0.18,0.209,0.156,0.525-0.053,0.705L7.858,17.21c-0.334,0.288-0.715,0.508-1.133,0.653
				l-2.034,0.707C4.524,18.629,2.849,19.271,2.849,19.271z"/>
		</g>
		<g>
			<path d="M21.167,19.203c0,0-1.691-0.573-1.861-0.632l-2.033-0.707c-0.418-0.146-0.799-0.365-1.133-0.653l-0.966-0.832
				c-0.209-0.18-0.233-0.496-0.053-0.705c0.18-0.21,0.497-0.233,0.705-0.053l0.966,0.832c0.239,0.206,0.511,0.363,0.81,0.467
				l2.033,0.707c0.17,0.059,1.854,0.629,1.854,0.629L21.167,19.203z"/>
		</g>
		<g>
			<path d="M12,24C5.383,24,0,18.617,0,12S5.383,0,12,0s12,5.383,12,12S18.617,24,12,24z M12,1C5.935,1,1,5.935,1,12s4.935,11,11,11
				s11-4.935,11-11S18.065,1,12,1z"/>
		</g>
		<g>
			<path d="M14.5,21c-0.113,0-0.223-0.038-0.313-0.109L12,19.14l-2.188,1.75c-0.114,0.091-0.261,0.128-0.406,0.101
				c-0.144-0.027-0.268-0.116-0.34-0.243l-2-3.5c-0.137-0.24-0.054-0.545,0.186-0.682c0.239-0.139,0.545-0.054,0.682,0.186
				l1.71,2.993l2.043-1.635c0.183-0.146,0.442-0.146,0.625,0l2.043,1.635l1.71-2.993c0.136-0.24,0.441-0.325,0.682-0.186
				c0.24,0.137,0.323,0.442,0.186,0.682l-2,3.5c-0.072,0.127-0.197,0.216-0.34,0.243C14.563,20.997,14.531,21,14.5,21z"/>
		</g>
		<g>
			<path d="M13.469,23.907c-0.209,0-0.404-0.132-0.474-0.342l-0.708-2.122c-0.058-0.172-0.018-0.361,0.104-0.495
				c0.216-0.237,0.575-0.816,0.611-0.985c-0.003-0.038-0.011-0.112-0.027-0.186c-0.06-0.27,0.111-0.537,0.38-0.596
				c0.269-0.061,0.536,0.11,0.596,0.38C13.984,19.706,14,19.854,14,20c0,0.405-0.417,1.036-0.678,1.384l0.622,1.865
				c0.087,0.262-0.054,0.545-0.316,0.632C13.575,23.899,13.521,23.907,13.469,23.907z"/>
		</g>
		<g>
			<path d="M10.531,23.907c-0.052,0-0.105-0.008-0.158-0.026c-0.262-0.087-0.403-0.37-0.316-0.632l0.623-1.867
				C10.42,21.031,10,20.393,10,20c0-0.146,0.016-0.293,0.048-0.437c0.06-0.27,0.327-0.44,0.596-0.38
				c0.27,0.06,0.44,0.327,0.38,0.596C11.008,19.852,11,19.926,11,20c0.031,0.112,0.38,0.693,0.612,0.954
				c0.119,0.133,0.157,0.32,0.101,0.49l-0.708,2.122C10.935,23.775,10.74,23.907,10.531,23.907z"/>
		</g>
		<g>
			<path d="M17,10.5c-0.039,0-0.078-0.004-0.117-0.014c-0.132-0.032-0.247-0.117-0.315-0.234c-0.047-0.081-0.392-0.687-0.52-1.372
				c-2.069-0.119-3.921-1.035-4.873-1.966C10.462,8.068,8.759,8.357,8,8.357c-0.13,0.105-0.403,0.941-0.504,1.708
				c-0.022,0.168-0.129,0.313-0.282,0.386c-0.152,0.073-0.333,0.062-0.478-0.027C6.545,10.306,5.952,10,5.5,10
				C5.224,10,5,9.776,5,9.5S5.224,9,5.5,9c0.397,0,0.801,0.121,1.123,0.253C6.809,8.41,7.202,7.357,8,7.357
				c0.025,0,2.5-0.071,2.5-1.643c0-0.276,0.224-0.5,0.5-0.5s0.5,0.224,0.5,0.5c0.076,0.441,2.108,2.179,5,2.179
				c0.276,0,0.5,0.224,0.5,0.5c0,0.296,0.109,0.644,0.224,0.922C17.561,9.162,18.028,9,18.5,9C18.776,9,19,9.224,19,9.5
				S18.776,10,18.5,10c-0.561,0-1.223,0.416-1.229,0.42C17.189,10.473,17.095,10.5,17,10.5z"/>
		</g>
		<g>
			<path d="M12,18c-0.241,0-0.491-0.025-0.787-0.08c-0.115-0.02-0.232-0.048-0.351-0.078c-0.094-0.025-0.178-0.053-0.263-0.082
				c-1.688-0.534-3.126-2.033-3.922-4.063C6.613,13.71,6.553,13.714,6.5,13.714c-0.869,0-1.5-1.111-1.5-2.643
				c0-0.218,0.06-0.758,0.09-1.015C5.049,9.924,5,9.713,5,9.464C5,5.349,8.14,2,12,2c0.276,0,0.5,0.224,0.5,0.5S12.276,3,12,3
				C8.691,3,6,5.9,6,9.464c0,0.191,0.06,0.339,0.061,0.34c0.032,0.079,0.046,0.171,0.036,0.255C6.096,10.063,6,10.84,6,11.071
				c0,1.003,0.353,1.606,0.504,1.644c-0.008-0.002,0.027-0.023,0.078-0.078c0.12-0.132,0.3-0.192,0.477-0.151
				c0.175,0.038,0.315,0.167,0.37,0.337c0.638,2.009,1.939,3.5,3.481,3.988c0.075,0.025,0.141,0.047,0.209,0.065
				c0.084,0.021,0.176,0.044,0.271,0.061C11.593,16.974,11.794,17,12,17c0.276,0,0.5,0.224,0.5,0.5S12.276,18,12,18z M6.504,12.715
				h0.01H6.504z"/>
		</g>
		<g>
			<path d="M12,18c-0.276,0-0.5-0.224-0.5-0.5S11.724,17,12,17c0.206,0,0.407-0.026,0.606-0.063c0.099-0.017,0.191-0.04,0.284-0.063
				c0.059-0.017,0.125-0.039,0.192-0.061c1.551-0.491,2.852-1.981,3.489-3.99c0.054-0.17,0.194-0.298,0.369-0.337
				c0.175-0.038,0.356,0.019,0.477,0.151c0.051,0.056,0.087,0.077,0.096,0.08C17.646,12.678,18,12.075,18,11.071
				c0-0.231-0.096-1.008-0.097-1.011c-0.011-0.089,0.003-0.179,0.039-0.261l0,0c0,0,0.058-0.146,0.058-0.335C18,5.9,15.309,3,12,3
				c-0.276,0-0.5-0.224-0.5-0.5S11.724,2,12,2c3.86,0,7,3.349,7,7.464c0,0.249-0.049,0.459-0.09,0.592
				c0.03,0.257,0.09,0.797,0.09,1.015c0,1.532-0.631,2.643-1.5,2.643c-0.053,0-0.113-0.004-0.178-0.017
				c-0.794,2.03-2.233,3.529-3.93,4.066c-0.077,0.026-0.161,0.054-0.247,0.077c-0.126,0.032-0.244,0.06-0.364,0.081
				C12.491,17.975,12.241,18,12,18z"/>
		</g>
		<g>
			<path d="M10.5,11h-1C9.224,11,9,10.776,9,10.5S9.224,10,9.5,10h1c0.276,0,0.5,0.224,0.5,0.5S10.776,11,10.5,11z"/>
		</g>
		<g>
			<path d="M14.5,11h-1c-0.276,0-0.5-0.224-0.5-0.5s0.224-0.5,0.5-0.5h1c0.276,0,0.5,0.224,0.5,0.5S14.776,11,14.5,11z"/>
		</g>
		<g>
			<path d="M12.5,16c-0.869,0-1.5-0.42-1.5-1s0.631-1,1.5-1s1.5,0.42,1.5,1S13.369,16,12.5,16z M13.042,15.13h0.01H13.042z M12.5,15
				h0.01H12.5z"/>
		</g>
		<g>
			<path d="M13.5,15.5c-0.276,0-0.5-0.224-0.5-0.5s0.224-0.5,0.5-0.5c1.163,0,3.951-0.737,4.188-1.952
				c0.053-0.271,0.314-0.45,0.586-0.395c0.271,0.053,0.448,0.315,0.395,0.586C18.26,14.839,14.521,15.5,13.5,15.5z"/>
		</g>
	</g>
</g>
<g id="Dispatcher_2">
</g>
<g id="Soldier">
</g>
<g id="Astronaut">
</g>
<g id="Hipster_Guy">
</g>
<g id="Hipster_Girl">
</g>
<g id="Worker">
</g>
<g id="Old_Man">
</g>
<g id="Punk">
</g>
<g id="Diver">
</g>
<g id="Artist">
</g>
<g id="Dictator">
</g>
<g id="Man_Hat">
</g>
<g id="Woman_Hat">
</g>
<g id="Graduated_Man">
</g>
<g id="Graduated_Woman">
</g>
<g id="Avatar_Chef">
</g>
<g id="Waiter">
</g>
<g id="Waitress">
</g>
<g id="Bllboy">
</g>
<g id="Santa">
</g>
<g id="Doctor">
</g>
<g id="Nurse">
</g>
<g id="Captain">
</g>
<g id="Farmer">
</g>
<g id="Maid">
</g>
<g id="Business_Man_2">
</g>
<g id="Business_Woman_2">
</g>
<g id="Cowboy">
</g>
<g id="Anonymus">
</g>
<g id="Batman">
</g>
<g id="Superman">
</g>
<g id="Captain_America">
</g>
<g id="Darth_Vader">
</g>
<g id="Harry_Potter">
</g>
<g id="Anonymus_2">
</g>
<g id="Scream">
</g>
<g id="Jason">
</g>
<g id="Charlie_Chaplin">
</g>
</svg>
