<?xml version="1.0" encoding="iso-8859-1"?>
<!-- Generator: Adobe Illustrator 19.2.1, SVG Export Plug-In . SVG Version: 6.00 Build 0)  -->
<svg version="1.1" xmlns="http://www.w3.org/2000/svg" xmlns:xlink="http://www.w3.org/1999/xlink" x="0px" y="0px"
	 viewBox="0 0 24 24" style="enable-background:new 0 0 24 24;" xml:space="preserve">
<g id="Man_1">
</g>
<g id="Woman_1">
</g>
<g id="Man_2">
</g>
<g id="Woman_2">
</g>
<g id="Bald_Man">
</g>
<g id="Man_Glasses">
</g>
<g id="Woman_Glasses">
</g>
<g id="Man_Beard">
</g>
<g id="Man_Cap">
</g>
<g id="Woman_Cap">
</g>
<g id="Man_3">
</g>
<g id="Woman_3">
</g>
<g id="Men_4">
</g>
<g id="Woman_4">
</g>
<g id="Business_Man_1">
</g>
<g id="Business_Woman_1">
</g>
<g id="Firefigyhter">
</g>
<g id="Policeman">
</g>
<g id="Criminal">
</g>
<g id="Prisoner">
</g>
<g id="Woodsman">
</g>
<g id="Dispatcher_1">
</g>
<g id="Dispatcher_2">
</g>
<g id="Soldier">
</g>
<g id="Astronaut">
</g>
<g id="Hipster_Guy">
</g>
<g id="Hipster_Girl">
</g>
<g id="Worker">
</g>
<g id="Old_Man">
</g>
<g id="Punk">
</g>
<g id="Diver">
</g>
<g id="Artist">
</g>
<g id="Dictator">
</g>
<g id="Man_Hat">
</g>
<g id="Woman_Hat">
</g>
<g id="Graduated_Man">
</g>
<g id="Graduated_Woman">
</g>
<g id="Avatar_Chef">
</g>
<g id="Waiter">
</g>
<g id="Waitress">
</g>
<g id="Bllboy">
</g>
<g id="Santa">
</g>
<g id="Doctor">
</g>
<g id="Nurse">
</g>
<g id="Captain">
</g>
<g id="Farmer">
	<g>
		<g>
			<path d="M8.498,23.457c-0.276,0-0.5-0.224-0.5-0.5v-3.866l-0.14,0.12c-0.335,0.288-0.716,0.508-1.134,0.653l-2.033,0.707
				c-0.155,0.054-0.305,0.113-0.451,0.18c-0.253,0.114-0.548,0.002-0.662-0.25c-0.113-0.252-0.001-0.548,0.25-0.662
				c0.174-0.078,0.353-0.149,0.535-0.213l2.033-0.707c0.298-0.104,0.57-0.261,0.81-0.466l0.966-0.832
				c0.148-0.128,0.356-0.159,0.534-0.075C8.884,17.627,8.998,17.805,8.998,18v4.957C8.998,23.233,8.774,23.457,8.498,23.457z"/>
		</g>
		<g>
			<path d="M19.966,20.797c-0.069,0-0.14-0.015-0.207-0.045c-0.147-0.066-0.299-0.127-0.453-0.181l-2.033-0.707
				c-0.418-0.146-0.799-0.365-1.134-0.653l-0.967-0.832c-0.209-0.18-0.233-0.496-0.053-0.705c0.181-0.21,0.496-0.231,0.705-0.053
				l0.967,0.832c0.239,0.205,0.512,0.362,0.81,0.466l2.033,0.707c0.184,0.063,0.364,0.136,0.539,0.216
				c0.251,0.114,0.362,0.41,0.248,0.662C20.337,20.688,20.155,20.797,19.966,20.797z"/>
		</g>
		<g>
			<path d="M12,24C5.383,24,0,18.617,0,12S5.383,0,12,0s12,5.383,12,12S18.617,24,12,24z M12,1C5.935,1,1,5.935,1,12s4.935,11,11,11
				s11-4.935,11-11S18.065,1,12,1z"/>
		</g>
		<g>
			<path d="M6.552,11.548c-0.032,0-0.064-0.003-0.097-0.01l-0.438-0.086C4.181,11.07,2,10.336,2,9c0-1.97,5.03-3,10-3s10,1.03,10,3
				c0,1.336-2.181,2.07-4.011,2.451l-0.447,0.088c-0.267,0.049-0.534-0.125-0.587-0.396c-0.053-0.271,0.125-0.534,0.396-0.587
				l0.441-0.086C20.423,9.924,21,9.224,21,9c0-0.679-3.177-2-9-2S3,8.321,3,9c0,0.224,0.577,0.924,3.214,1.473l0.433,0.085
				c0.271,0.053,0.448,0.315,0.395,0.586C6.995,11.383,6.785,11.548,6.552,11.548z"/>
		</g>
		<g>
			<path d="M9.398,16c-1.013,0-1.599-0.017-2.631-0.557c-0.244-0.129-0.339-0.431-0.211-0.676c0.13-0.243,0.432-0.335,0.676-0.211
				C8.079,15.001,8.464,14.995,9.401,15c0.518,0,0.799-0.099,1.124-0.214C10.907,14.652,11.34,14.5,12,14.5
				c0.276,0,0.5,0.224,0.5,0.5s-0.224,0.5-0.5,0.5c-0.489,0-0.792,0.106-1.143,0.229C10.478,15.863,10.002,15.998,9.398,16z"/>
		</g>
		<g>
			<path d="M14.5,16c-0.59,0-0.998-0.144-1.357-0.271C12.792,15.606,12.489,15.5,12,15.5c-0.276,0-0.5-0.224-0.5-0.5
				s0.224-0.5,0.5-0.5c0.66,0,1.093,0.152,1.475,0.286C13.8,14.901,14.081,15,14.5,15c0.978,0,1.382,0,2.276-0.447
				c0.248-0.123,0.547-0.023,0.671,0.224c0.123,0.247,0.023,0.547-0.224,0.671C16.118,16,15.543,16,14.5,16z"/>
		</g>
		<g>
			<path d="M12.5,17h-1c-0.276,0-0.5-0.224-0.5-0.5s0.224-0.5,0.5-0.5h1c0.276,0,0.5,0.224,0.5,0.5S12.776,17,12.5,17z"/>
		</g>
		<g>
			<path d="M10.5,13h-1C9.224,13,9,12.776,9,12.5S9.224,12,9.5,12h1c0.276,0,0.5,0.224,0.5,0.5S10.776,13,10.5,13z"/>
		</g>
		<g>
			<path d="M14.5,13h-1c-0.276,0-0.5-0.224-0.5-0.5s0.224-0.5,0.5-0.5h1c0.276,0,0.5,0.224,0.5,0.5S14.776,13,14.5,13z"/>
		</g>
		<g>
			<path d="M7.286,7.329c-0.056,0-0.112-0.009-0.167-0.028C6.858,7.208,6.723,6.922,6.814,6.662C7.592,4.472,9.675,3,12,3
				c2.324,0,4.408,1.471,5.185,3.66c0.092,0.26-0.044,0.546-0.305,0.639c-0.258,0.092-0.546-0.044-0.639-0.305
				C15.606,5.203,13.902,4,12,4S8.393,5.204,7.758,6.996C7.685,7.201,7.492,7.329,7.286,7.329z"/>
		</g>
		<g>
			<path d="M11.998,20c-0.265,0-0.524-0.029-0.78-0.073c-0.116-0.02-0.233-0.045-0.351-0.073c-0.094-0.023-0.179-0.05-0.265-0.077
				c-1.684-0.497-3.121-1.897-3.919-3.795C6.615,15.995,6.553,16,6.498,16c-0.855,0-1.5-1.075-1.5-2.5
				c0-1.158,0.426-2.086,1.045-2.392c0.056-0.642,0.173-1.251,0.35-1.816C6.756,8.094,10.775,8,12,8
				c1.181,0,4.981,0.087,5.558,1.179c0.013,0.023,0.024,0.049,0.033,0.075l0,0c0.004,0.009,0.007,0.018,0.01,0.027
				S17.606,9.3,17.609,9.31c0.174,0.563,0.29,1.168,0.345,1.804c0.623,0.312,1.044,1.235,1.044,2.387c0,1.425-0.645,2.5-1.5,2.5
				c-0.055,0-0.117-0.005-0.185-0.018c-0.799,1.896-2.237,3.297-3.932,3.798c-0.074,0.024-0.159,0.049-0.245,0.071
				c-0.124,0.03-0.241,0.056-0.36,0.075C12.523,19.971,12.264,20,11.998,20z M6.95,14.775c0.037,0,0.074,0.004,0.111,0.013
				c0.17,0.039,0.307,0.162,0.362,0.326c0.633,1.865,1.932,3.251,3.475,3.707c0.077,0.025,0.143,0.044,0.209,0.062
				c0.088,0.021,0.18,0.042,0.275,0.058c0.408,0.068,0.826,0.067,1.229,0c0.097-0.016,0.19-0.037,0.284-0.06
				c0.06-0.015,0.125-0.035,0.192-0.057c1.553-0.459,2.852-1.844,3.485-3.71c0.057-0.164,0.193-0.288,0.363-0.326
				c0.166-0.039,0.346,0.013,0.468,0.138c0.063,0.064,0.099,0.074,0.1,0.075c0.118-0.001,0.494-0.533,0.494-1.501
				s-0.376-1.5-0.5-1.5c-0.267,0-0.505-0.209-0.518-0.475c-0.035-0.692-0.146-1.344-0.332-1.936C16.458,9.43,14.854,9,12,9
				C9.221,9,7.626,9.404,7.333,9.638c-0.177,0.579-0.283,1.214-0.316,1.887C7.004,11.791,6.784,12,6.518,12
				c-0.144,0-0.52,0.532-0.52,1.5c0,0.967,0.375,1.499,0.5,1.5c-0.002,0,0.033-0.012,0.096-0.075
				C6.689,14.828,6.818,14.775,6.95,14.775z M7.312,9.657C7.311,9.657,7.311,9.657,7.312,9.657L7.312,9.657
				C7.311,9.658,7.311,9.657,7.312,9.657z M6.871,9.438h0.01H6.871z"/>
		</g>
		<g>
			<path d="M15.5,23.458c-0.276,0-0.5-0.224-0.5-0.5V18c0-0.276,0.224-0.5,0.5-0.5S16,17.724,16,18v4.958
				C16,23.234,15.776,23.458,15.5,23.458z"/>
		</g>
		<g>
			<path d="M17.5,22.602c-0.276,0-0.5-0.224-0.5-0.5v-2.688c0-0.276,0.224-0.5,0.5-0.5s0.5,0.224,0.5,0.5v2.688
				C18,22.378,17.776,22.602,17.5,22.602z"/>
		</g>
		<g>
			<path d="M6.5,22.602c-0.276,0-0.5-0.224-0.5-0.5v-2.689c0-0.276,0.224-0.5,0.5-0.5s0.5,0.224,0.5,0.5v2.689
				C7,22.378,6.776,22.602,6.5,22.602z"/>
		</g>
		<g>
			<path d="M12,22c-2.036,0-3.591-0.504-3.656-0.525c-0.262-0.086-0.404-0.368-0.318-0.63c0.085-0.263,0.373-0.404,0.63-0.32
				C8.67,20.529,10.132,21,12,21c1.849,0,3.331-0.471,3.347-0.476c0.261-0.085,0.544,0.06,0.629,0.322
				c0.085,0.262-0.059,0.544-0.321,0.629C15.588,21.497,14.014,22,12,22z"/>
		</g>
	</g>
</g>
<g id="Maid">
</g>
<g id="Business_Man_2">
</g>
<g id="Business_Woman_2">
</g>
<g id="Cowboy">
</g>
<g id="Anonymus">
</g>
<g id="Batman">
</g>
<g id="Superman">
</g>
<g id="Captain_America">
</g>
<g id="Darth_Vader">
</g>
<g id="Harry_Potter">
</g>
<g id="Anonymus_2">
</g>
<g id="Scream">
</g>
<g id="Jason">
</g>
<g id="Charlie_Chaplin">
</g>
</svg>
