<?xml version="1.0" encoding="iso-8859-1"?>
<!-- Generator: Adobe Illustrator 19.2.1, SVG Export Plug-In . SVG Version: 6.00 Build 0)  -->
<svg version="1.1" xmlns="http://www.w3.org/2000/svg" xmlns:xlink="http://www.w3.org/1999/xlink" x="0px" y="0px"
	 viewBox="0 0 24 24" style="enable-background:new 0 0 24 24;" xml:space="preserve">
<g id="Man_1">
</g>
<g id="Woman_1">
</g>
<g id="Man_2">
</g>
<g id="Woman_2">
</g>
<g id="Bald_Man">
</g>
<g id="Man_Glasses">
</g>
<g id="Woman_Glasses">
</g>
<g id="Man_Beard">
</g>
<g id="Man_Cap">
</g>
<g id="Woman_Cap">
</g>
<g id="Man_3">
</g>
<g id="Woman_3">
</g>
<g id="Men_4">
</g>
<g id="Woman_4">
</g>
<g id="Business_Man_1">
</g>
<g id="Business_Woman_1">
</g>
<g id="Firefigyhter">
	<g>
		<g>
			<g>
				<path d="M12,19c-2.464,0-4.653-1.99-5.562-5.002C5.614,13.948,5,12.891,5,11.5l-0.001-0.264
					c-0.003-0.927-0.006-1.597,0.38-1.984C5.543,9.087,5.758,9,6,9c0.274,0,0.495,0.222,0.497,0.497
					c0.001,0.25-0.184,0.459-0.425,0.497c-0.077,0.207-0.075,0.797-0.073,1.238L6,11.5C6,12.468,6.376,13,6.5,13
					c0.135-0.084,0.317-0.11,0.467-0.05c0.147,0.06,0.272,0.176,0.312,0.332C7.979,16.104,9.876,18,12,18s4.021-1.896,4.722-4.718
					c0.039-0.155,0.149-0.282,0.297-0.343s0.316-0.046,0.452,0.039C17.632,13.005,18,12.466,18,11.5l0.001-0.268
					c0.002-0.441,0.004-1.032-0.073-1.238c-0.241-0.038-0.426-0.247-0.425-0.497C17.505,9.222,17.726,9,18,9
					c0.242,0,0.457,0.087,0.621,0.252c0.386,0.387,0.383,1.057,0.38,1.984L19,11.5c0,1.391-0.614,2.448-1.438,2.498
					C16.653,17.01,14.464,19,12,19z"/>
			</g>
			<g>
				<path d="M12,9c-1.103,0-2-0.897-2-2V3c0-0.152,0.069-0.295,0.188-0.391C10.219,2.584,10.962,2,12,2s1.781,0.584,1.813,0.609
					C13.931,2.705,14,2.848,14,3v4C14,8.103,13.103,9,12,9z M11,3.272V7c0,0.551,0.448,1,1,1s1-0.449,1-1V3.272
					C12.793,3.157,12.431,3,12,3S11.208,3.157,11,3.272z"/>
			</g>
			<g>
				<path d="M13.066,12h-2.133c-1.031,0-2.039-0.289-2.914-0.836l-2.784-1.74C5.089,9.333,5,9.172,5,9V8.5C5,5.467,7.468,3,10.5,3
					C10.776,3,11,3.224,11,3.5S10.776,4,10.5,4C8.019,4,6,6.019,6,8.5v0.223l2.549,1.594C9.266,10.764,10.09,11,10.934,11h2.133
					c0.844,0,1.668-0.236,2.385-0.684L18,8.723V8.5C18,6.019,15.981,4,13.5,4C13.224,4,13,3.776,13,3.5S13.224,3,13.5,3
					C16.532,3,19,5.467,19,8.5V9c0,0.172-0.089,0.333-0.235,0.424l-2.784,1.74C15.105,11.711,14.098,12,13.066,12z"/>
			</g>
			<g>
				<path d="M6.357,18.929c-0.075,0-0.151-0.017-0.224-0.053l-1.857-0.929C4.107,17.862,4,17.689,4,17.5v-2
					c0-4.696,1.016-6.654,1.059-6.735c0.13-0.244,0.435-0.334,0.677-0.206C5.979,8.688,6.07,8.99,5.942,9.233
					C5.921,9.274,5,11.124,5,15.5v1.691l1.581,0.791c0.247,0.124,0.347,0.424,0.224,0.671C6.717,18.828,6.54,18.929,6.357,18.929z"
					/>
			</g>
			<g>
				<path d="M17.646,18.927c-0.183,0-0.359-0.101-0.447-0.276c-0.123-0.247-0.023-0.547,0.224-0.671L19,17.191V15.5
					c0-4.404-0.933-6.249-0.942-6.267c-0.127-0.244-0.033-0.546,0.21-0.674c0.241-0.127,0.545-0.037,0.674,0.206
					C18.984,8.846,20,10.804,20,15.5v2c0,0.189-0.107,0.362-0.276,0.447l-1.854,0.927C17.797,18.91,17.721,18.927,17.646,18.927z
					 M19.5,17.5h0.01H19.5z"/>
			</g>
			<g>
				<path d="M12,21c-1.944,0-3.815-0.873-5.268-2.458c-0.411-0.411-0.571-0.926-0.436-1.434c0.147-0.549,0.64-1.024,1.226-1.181
					c0.437-0.117,0.845-0.027,1.118,0.247c0.195,0.195,0.195,0.512,0,0.707c-0.195,0.195-0.512,0.195-0.707,0
					c-0.074-0.039-0.396,0.054-0.584,0.312c-0.161,0.221-0.129,0.423,0.105,0.658C8.73,19.242,10.339,20,12,20
					s3.27-0.758,4.529-2.134c0.249-0.25,0.284-0.463,0.126-0.688c-0.181-0.256-0.495-0.351-0.574-0.318
					c-0.194,0.196-0.51,0.194-0.704-0.001c-0.195-0.195-0.193-0.513,0.002-0.708c0.27-0.271,0.672-0.361,1.102-0.247
					c0.584,0.156,1.075,0.633,1.225,1.188c0.138,0.515-0.023,1.036-0.453,1.465C15.815,20.127,13.944,21,12,21z"/>
			</g>
		</g>
		<g>
			<path d="M12,24C5.383,24,0,18.617,0,12S5.383,0,12,0s12,5.383,12,12S18.617,24,12,24z M12,1C5.935,1,1,5.935,1,12s4.935,11,11,11
				s11-4.935,11-11S18.065,1,12,1z"/>
		</g>
		<g>
			<path d="M3.851,20.614c-0.16,0-0.318-0.078-0.415-0.221c-0.154-0.229-0.093-0.54,0.137-0.694l3.102-2.083
				c0.226-0.153,0.538-0.094,0.693,0.136c0.154,0.229,0.093,0.54-0.137,0.694l-3.102,2.083C4.044,20.587,3.947,20.614,3.851,20.614z
				"/>
		</g>
		<g>
			<path d="M20.161,20.602c-0.096,0-0.191-0.027-0.277-0.083l-3.113-2.07c-0.229-0.153-0.292-0.463-0.139-0.693
				c0.152-0.231,0.462-0.292,0.693-0.14l3.113,2.07c0.229,0.153,0.292,0.463,0.139,0.693C20.481,20.524,20.322,20.602,20.161,20.602
				z"/>
		</g>
	</g>
</g>
<g id="Policeman">
</g>
<g id="Criminal">
</g>
<g id="Prisoner">
</g>
<g id="Woodsman">
</g>
<g id="Dispatcher_1">
</g>
<g id="Dispatcher_2">
</g>
<g id="Soldier">
</g>
<g id="Astronaut">
</g>
<g id="Hipster_Guy">
</g>
<g id="Hipster_Girl">
</g>
<g id="Worker">
</g>
<g id="Old_Man">
</g>
<g id="Punk">
</g>
<g id="Diver">
</g>
<g id="Artist">
</g>
<g id="Dictator">
</g>
<g id="Man_Hat">
</g>
<g id="Woman_Hat">
</g>
<g id="Graduated_Man">
</g>
<g id="Graduated_Woman">
</g>
<g id="Avatar_Chef">
</g>
<g id="Waiter">
</g>
<g id="Waitress">
</g>
<g id="Bllboy">
</g>
<g id="Santa">
</g>
<g id="Doctor">
</g>
<g id="Nurse">
</g>
<g id="Captain">
</g>
<g id="Farmer">
</g>
<g id="Maid">
</g>
<g id="Business_Man_2">
</g>
<g id="Business_Woman_2">
</g>
<g id="Cowboy">
</g>
<g id="Anonymus">
</g>
<g id="Batman">
</g>
<g id="Superman">
</g>
<g id="Captain_America">
</g>
<g id="Darth_Vader">
</g>
<g id="Harry_Potter">
</g>
<g id="Anonymus_2">
</g>
<g id="Scream">
</g>
<g id="Jason">
</g>
<g id="Charlie_Chaplin">
</g>
</svg>
