<?xml version="1.0" encoding="iso-8859-1"?>
<!-- Generator: Adobe Illustrator 19.2.1, SVG Export Plug-In . SVG Version: 6.00 Build 0)  -->
<svg version="1.1" xmlns="http://www.w3.org/2000/svg" xmlns:xlink="http://www.w3.org/1999/xlink" x="0px" y="0px"
	 viewBox="0 0 24 24" style="enable-background:new 0 0 24 24;" xml:space="preserve">
<g id="Man_1">
</g>
<g id="Woman_1">
</g>
<g id="Man_2">
</g>
<g id="Woman_2">
</g>
<g id="Bald_Man">
</g>
<g id="Man_Glasses">
</g>
<g id="Woman_Glasses">
</g>
<g id="Man_Beard">
</g>
<g id="Man_Cap">
</g>
<g id="Woman_Cap">
</g>
<g id="Man_3">
</g>
<g id="Woman_3">
</g>
<g id="Men_4">
</g>
<g id="Woman_4">
</g>
<g id="Business_Man_1">
</g>
<g id="Business_Woman_1">
</g>
<g id="Firefigyhter">
</g>
<g id="Policeman">
</g>
<g id="Criminal">
</g>
<g id="Prisoner">
</g>
<g id="Woodsman">
</g>
<g id="Dispatcher_1">
</g>
<g id="Dispatcher_2">
</g>
<g id="Soldier">
</g>
<g id="Astronaut">
</g>
<g id="Hipster_Guy">
</g>
<g id="Hipster_Girl">
</g>
<g id="Worker">
</g>
<g id="Old_Man">
</g>
<g id="Punk">
</g>
<g id="Diver">
</g>
<g id="Artist">
</g>
<g id="Dictator">
</g>
<g id="Man_Hat">
</g>
<g id="Woman_Hat">
</g>
<g id="Graduated_Man">
</g>
<g id="Graduated_Woman">
	<g>
		<g>
			<path d="M16.23,12.5c-0.035,0-0.071-0.004-0.105-0.012c-0.141-0.03-0.261-0.119-0.331-0.244c-0.039-0.07-0.319-0.587-0.436-1.18
				c-1.187-0.084-2.392-0.491-3.368-1.147c-0.229-0.154-0.291-0.465-0.137-0.693c0.155-0.231,0.469-0.29,0.693-0.137
				c0.445,0.299,1.652,0.993,3.261,0.993c0.276,0,0.5,0.224,0.5,0.5c0,0.222,0.069,0.48,0.149,0.702
				C16.748,11.139,17.125,11,17.498,11c0.276,0,0.5,0.224,0.5,0.5s-0.224,0.5-0.5,0.5c-0.308,0-0.759,0.247-0.971,0.402
				C16.44,12.466,16.336,12.5,16.23,12.5z"/>
		</g>
		<g>
			<path d="M7.77,12.499c-0.104,0-0.209-0.032-0.296-0.096C7.26,12.247,6.807,12,6.498,12c-0.276,0-0.5-0.224-0.5-0.5
				s0.224-0.5,0.5-0.5c0.315,0,0.634,0.099,0.9,0.216c0.178-0.78,0.529-1.608,1.217-1.608c0.274,0,1.103-0.094,1.624-0.52
				c0.213-0.175,0.529-0.145,0.703,0.07c0.175,0.214,0.144,0.528-0.07,0.703c-0.687,0.562-1.66,0.73-2.183,0.745
				c-0.15,0.178-0.346,0.841-0.424,1.456c-0.022,0.176-0.136,0.326-0.299,0.396C7.903,12.486,7.836,12.499,7.77,12.499z"/>
		</g>
		<g>
			<path d="M10.5,13h-1C9.224,13,9,12.776,9,12.5S9.224,12,9.5,12h1c0.276,0,0.5,0.224,0.5,0.5S10.776,13,10.5,13z"/>
		</g>
		<g>
			<path d="M14.5,13h-1c-0.276,0-0.5-0.224-0.5-0.5s0.224-0.5,0.5-0.5h1c0.276,0,0.5,0.224,0.5,0.5S14.776,13,14.5,13z"/>
		</g>
		<g>
			<path d="M16.079,19c-0.264,0-0.483-0.205-0.499-0.471c-0.017-0.275,0.194-0.513,0.47-0.528c0.65-0.038,1.968-0.48,2.784-0.782
				c-0.273-0.68-0.724-1.973-0.846-3.374c-0.024-0.274,0.18-0.518,0.455-0.541c0.269-0.025,0.518,0.18,0.541,0.455
				c0.159,1.829,0.958,3.508,0.966,3.524c0.061,0.125,0.066,0.27,0.016,0.398s-0.152,0.231-0.281,0.283
				c-0.1,0.039-2.446,0.968-3.576,1.034C16.099,19,16.089,19,16.079,19z"/>
		</g>
		<g>
			<path d="M10.5,13h-1C9.224,13,9,12.776,9,12.5S9.224,12,9.5,12h1c0.276,0,0.5,0.224,0.5,0.5S10.776,13,10.5,13z"/>
		</g>
		<g>
			<path d="M14.5,13h-1c-0.276,0-0.5-0.224-0.5-0.5s0.224-0.5,0.5-0.5h1c0.276,0,0.5,0.224,0.5,0.5S14.776,13,14.5,13z"/>
		</g>
		<g>
			<path d="M4.034,20.795c-0.19,0-0.372-0.109-0.456-0.294c-0.113-0.252-0.001-0.548,0.25-0.662
				c0.174-0.078,0.353-0.149,0.535-0.213l2.033-0.707c0.298-0.104,0.57-0.261,0.81-0.466l1.04-0.878
				c0.211-0.177,0.526-0.152,0.704,0.06c0.179,0.211,0.151,0.526-0.06,0.704l-1.036,0.875c-0.331,0.285-0.712,0.505-1.13,0.65
				l-2.033,0.707c-0.155,0.054-0.305,0.113-0.451,0.18C4.173,20.781,4.104,20.795,4.034,20.795z"/>
		</g>
		<g>
			<path d="M19.966,20.797c-0.069,0-0.14-0.015-0.207-0.045c-0.147-0.066-0.299-0.127-0.453-0.181l-2.033-0.707
				c-0.418-0.146-0.799-0.365-1.134-0.653l-1.033-0.872c-0.211-0.178-0.238-0.493-0.06-0.704c0.178-0.212,0.495-0.236,0.704-0.06
				l1.037,0.875c0.243,0.208,0.516,0.365,0.813,0.469l2.033,0.707c0.184,0.063,0.364,0.136,0.539,0.216
				c0.251,0.114,0.362,0.41,0.248,0.662C20.337,20.688,20.155,20.797,19.966,20.797z"/>
		</g>
		<g>
			<path d="M17.867,12.142c-0.221,0-0.423-0.147-0.483-0.371c-0.224-0.835-0.431-1.57-0.71-2.122L16.51,9.359
				c-0.136-0.24-0.051-0.546,0.189-0.682c0.239-0.136,0.545-0.052,0.682,0.189l0.175,0.31c0.333,0.657,0.557,1.445,0.795,2.336
				c0.071,0.267-0.087,0.54-0.354,0.612C17.953,12.136,17.91,12.142,17.867,12.142z"/>
		</g>
		<g>
			<path d="M7.921,19c-0.01,0-0.02,0-0.029-0.001c-1.13-0.066-3.477-0.995-3.576-1.034c-0.129-0.052-0.23-0.154-0.281-0.283
				c-0.05-0.129-0.045-0.273,0.015-0.398c0.009-0.017,0.809-1.702,0.967-3.524c0.024-0.275,0.269-0.474,0.541-0.455
				c0.275,0.023,0.479,0.267,0.455,0.541c-0.122,1.401-0.572,2.694-0.846,3.374c0.816,0.302,2.134,0.744,2.784,0.782
				c0.275,0.016,0.486,0.253,0.47,0.528C8.404,18.795,8.184,19,7.921,19z"/>
		</g>
		<g>
			<path d="M6.133,12.142c-0.043,0-0.086-0.006-0.129-0.017c-0.268-0.072-0.426-0.346-0.354-0.612
				c0.238-0.891,0.462-1.679,0.784-2.315L6.61,8.874c0.133-0.243,0.438-0.331,0.679-0.198C7.531,8.809,7.62,9.112,7.487,9.354
				L7.318,9.663C7.047,10.2,6.84,10.936,6.616,11.771C6.556,11.994,6.354,12.142,6.133,12.142z"/>
		</g>
		<g>
			<path d="M11.998,20c-0.265,0-0.524-0.029-0.78-0.073c-0.116-0.02-0.233-0.045-0.351-0.073c-0.094-0.023-0.179-0.05-0.265-0.077
				c-1.684-0.497-3.121-1.897-3.919-3.795C6.615,15.995,6.553,16,6.498,16c-0.855,0-1.5-1.075-1.5-2.5s0.645-2.5,1.5-2.5
				c0.276,0,0.5,0.224,0.5,0.5S6.774,12,6.498,12c-0.124,0-0.5,0.532-0.5,1.5c0,0.967,0.375,1.499,0.5,1.5
				c-0.002,0,0.033-0.012,0.096-0.075c0.123-0.124,0.3-0.176,0.468-0.137c0.17,0.039,0.307,0.162,0.362,0.326
				c0.633,1.865,1.932,3.251,3.475,3.707c0.077,0.025,0.143,0.044,0.209,0.062c0.088,0.021,0.18,0.042,0.275,0.058
				c0.408,0.067,0.826,0.067,1.229,0c0.097-0.016,0.19-0.037,0.284-0.06c0.06-0.015,0.125-0.035,0.192-0.057
				c1.553-0.459,2.852-1.844,3.485-3.71c0.057-0.164,0.193-0.288,0.363-0.326c0.167-0.04,0.346,0.013,0.468,0.138
				c0.063,0.064,0.099,0.074,0.1,0.075c0.118-0.001,0.494-0.533,0.494-1.501s-0.376-1.5-0.5-1.5c-0.276,0-0.5-0.224-0.5-0.5
				s0.224-0.5,0.5-0.5c0.855,0,1.5,1.075,1.5,2.5s-0.645,2.5-1.5,2.5c-0.055,0-0.117-0.005-0.185-0.018
				c-0.799,1.896-2.237,3.297-3.932,3.798c-0.074,0.024-0.159,0.049-0.245,0.071c-0.124,0.03-0.241,0.056-0.36,0.075
				C12.523,19.971,12.264,20,11.998,20z"/>
		</g>
		<g>
			<path d="M12,24C5.383,24,0,18.617,0,12S5.383,0,12,0s12,5.383,12,12S18.617,24,12,24z M12,1C5.935,1,1,5.935,1,12s4.935,11,11,11
				s11-4.935,11-11S18.065,1,12,1z"/>
		</g>
		<g>
			<path d="M12,10c-3.585,0-5.543-0.495-5.625-0.516C6.141,9.424,5.982,9.203,6.002,8.962l0.224-2.907
				c0.021-0.276,0.281-0.493,0.536-0.46c0.275,0.021,0.481,0.261,0.46,0.536L7.032,8.602C7.766,8.741,9.47,9,12,9
				c2.494,0,4.223-0.261,4.968-0.4l-0.189-2.469c-0.021-0.275,0.185-0.516,0.46-0.536c0.25-0.048,0.516,0.184,0.536,0.46
				l0.224,2.907c0.02,0.243-0.141,0.464-0.377,0.523C17.537,9.506,15.521,10,12,10z"/>
		</g>
		<g>
			<path d="M12,7c-0.022,0-0.044-0.002-0.066-0.004l-7.5-1C4.186,5.963,4,5.751,4,5.5s0.186-0.463,0.434-0.496l7.5-1
				C11.979,4,12.021,4,12.066,4.004l7.5,1C19.814,5.037,20,5.249,20,5.5s-0.186,0.463-0.434,0.496l-7.5,1
				C12.044,6.998,12.022,7,12,7z M8.283,5.5L12,5.995L15.717,5.5L12,5.005L8.283,5.5z"/>
		</g>
	</g>
</g>
<g id="Avatar_Chef">
</g>
<g id="Waiter">
</g>
<g id="Waitress">
</g>
<g id="Bllboy">
</g>
<g id="Santa">
</g>
<g id="Doctor">
</g>
<g id="Nurse">
</g>
<g id="Captain">
</g>
<g id="Farmer">
</g>
<g id="Maid">
</g>
<g id="Business_Man_2">
</g>
<g id="Business_Woman_2">
</g>
<g id="Cowboy">
</g>
<g id="Anonymus">
</g>
<g id="Batman">
</g>
<g id="Superman">
</g>
<g id="Captain_America">
</g>
<g id="Darth_Vader">
</g>
<g id="Harry_Potter">
</g>
<g id="Anonymus_2">
</g>
<g id="Scream">
</g>
<g id="Jason">
</g>
<g id="Charlie_Chaplin">
</g>
</svg>
