<?xml version="1.0" encoding="iso-8859-1"?>
<!-- Generator: Adobe Illustrator 19.2.1, SVG Export Plug-In . SVG Version: 6.00 Build 0)  -->
<svg version="1.1" xmlns="http://www.w3.org/2000/svg" xmlns:xlink="http://www.w3.org/1999/xlink" x="0px" y="0px"
	 viewBox="0 0 24 24" style="enable-background:new 0 0 24 24;" xml:space="preserve">
<g id="Man_1">
</g>
<g id="Woman_1">
</g>
<g id="Man_2">
</g>
<g id="Woman_2">
</g>
<g id="Bald_Man">
</g>
<g id="Man_Glasses">
</g>
<g id="Woman_Glasses">
</g>
<g id="Man_Beard">
</g>
<g id="Man_Cap">
</g>
<g id="Woman_Cap">
</g>
<g id="Man_3">
</g>
<g id="Woman_3">
</g>
<g id="Men_4">
</g>
<g id="Woman_4">
</g>
<g id="Business_Man_1">
</g>
<g id="Business_Woman_1">
</g>
<g id="Firefigyhter">
</g>
<g id="Policeman">
</g>
<g id="Criminal">
</g>
<g id="Prisoner">
</g>
<g id="Woodsman">
</g>
<g id="Dispatcher_1">
</g>
<g id="Dispatcher_2">
</g>
<g id="Soldier">
</g>
<g id="Astronaut">
</g>
<g id="Hipster_Guy">
</g>
<g id="Hipster_Girl">
</g>
<g id="Worker">
</g>
<g id="Old_Man">
</g>
<g id="Punk">
</g>
<g id="Diver">
</g>
<g id="Artist">
</g>
<g id="Dictator">
</g>
<g id="Man_Hat">
</g>
<g id="Woman_Hat">
</g>
<g id="Graduated_Man">
	<g>
		<g>
			<path d="M12,24C5.383,24,0,18.617,0,12S5.383,0,12,0s12,5.383,12,12S18.617,24,12,24z M12,1C5.935,1,1,5.935,1,12s4.935,11,11,11
				s11-4.935,11-11S18.065,1,12,1z"/>
		</g>
		<g>
			<path d="M4.067,20.795c-0.19,0-0.373-0.11-0.456-0.295c-0.113-0.252-0.001-0.548,0.251-0.661
				c0.175-0.078,0.352-0.149,0.533-0.212l2.035-0.708c0.299-0.104,0.571-0.261,0.808-0.466l0.968-0.832
				c0.211-0.179,0.526-0.156,0.705,0.053c0.181,0.209,0.156,0.525-0.053,0.705l-0.967,0.832c-0.332,0.287-0.714,0.507-1.132,0.652
				l-2.035,0.708c-0.153,0.054-0.305,0.113-0.452,0.18C4.205,20.781,4.136,20.795,4.067,20.795z"/>
		</g>
		<g>
			<path d="M20,20.797c-0.069,0-0.14-0.015-0.207-0.045c-0.146-0.066-0.298-0.127-0.453-0.181l-2.034-0.707
				c-0.419-0.146-0.801-0.366-1.134-0.653l-0.966-0.832c-0.209-0.18-0.233-0.496-0.053-0.705c0.181-0.21,0.497-0.231,0.705-0.053
				l0.967,0.832c0.237,0.205,0.51,0.362,0.81,0.467l2.032,0.706c0.184,0.063,0.364,0.136,0.54,0.216
				c0.251,0.114,0.362,0.41,0.248,0.662C20.371,20.688,20.189,20.797,20,20.797z"/>
		</g>
		<g>
			<path d="M12,20c-0.265,0-0.524-0.029-0.78-0.073c-0.117-0.02-0.234-0.045-0.352-0.073c-0.093-0.023-0.178-0.05-0.264-0.077
				c-1.683-0.497-3.121-1.897-3.92-3.794C6.617,15.995,6.555,16,6.5,16C5.645,16,5,14.925,5,13.5c0-1.13,0.405-2.04,1-2.368V10
				c0-0.276,0.224-0.5,0.5-0.5S7,9.724,7,10v1.5C7,11.776,6.776,12,6.5,12C6.376,12,6,12.532,6,13.5c0,0.967,0.375,1.499,0.5,1.5
				c-0.002,0,0.033-0.012,0.094-0.074c0.122-0.125,0.303-0.178,0.468-0.138c0.17,0.038,0.307,0.162,0.363,0.326
				c0.634,1.866,1.934,3.252,3.476,3.707c0.077,0.025,0.143,0.044,0.209,0.062c0.087,0.021,0.181,0.042,0.275,0.058
				c0.408,0.068,0.825,0.068,1.228,0c0.098-0.016,0.191-0.037,0.283-0.06c0.062-0.016,0.127-0.034,0.191-0.056
				c1.555-0.459,2.854-1.845,3.488-3.711c0.057-0.164,0.193-0.288,0.363-0.326c0.166-0.04,0.346,0.013,0.468,0.138
				c0.063,0.064,0.099,0.074,0.1,0.075C17.624,15,18,14.468,18,13.5S17.624,12,17.5,12c-0.276,0-0.5-0.224-0.5-0.5V10
				c0-0.276,0.224-0.5,0.5-0.5S18,9.724,18,10v1.132c0.595,0.328,1,1.238,1,2.368c0,1.425-0.645,2.5-1.5,2.5
				c-0.055,0-0.117-0.005-0.185-0.018c-0.799,1.896-2.238,3.298-3.933,3.798c-0.073,0.023-0.158,0.05-0.246,0.071
				c-0.122,0.03-0.239,0.056-0.359,0.075C12.524,19.971,12.265,20,12,20z"/>
		</g>
		<g>
			<path d="M10.5,13h-1C9.224,13,9,12.776,9,12.5S9.224,12,9.5,12h1c0.276,0,0.5,0.224,0.5,0.5S10.776,13,10.5,13z"/>
		</g>
		<g>
			<path d="M14.5,13h-1c-0.276,0-0.5-0.224-0.5-0.5s0.224-0.5,0.5-0.5h1c0.276,0,0.5,0.224,0.5,0.5S14.776,13,14.5,13z"/>
		</g>
		<g>
			<path d="M12,11c-3.585,0-5.543-0.495-5.625-0.516c-0.234-0.061-0.393-0.281-0.373-0.522l0.224-2.907
				c0.021-0.276,0.286-0.494,0.536-0.46c0.275,0.021,0.481,0.261,0.46,0.536L7.032,9.602C7.766,9.741,9.47,10,12,10
				c2.494,0,4.223-0.261,4.968-0.4l-0.189-2.469c-0.021-0.275,0.185-0.516,0.46-0.536c0.248-0.045,0.515,0.183,0.536,0.46
				l0.224,2.907c0.02,0.243-0.141,0.464-0.377,0.523C17.537,10.506,15.521,11,12,11z"/>
		</g>
		<g>
			<path d="M12,8c-0.022,0-0.044-0.002-0.066-0.004l-7.5-1C4.186,6.963,4,6.751,4,6.5s0.186-0.463,0.434-0.496l7.5-1
				C11.979,5,12.021,5,12.066,5.004l7.5,1C19.814,6.037,20,6.249,20,6.5s-0.186,0.463-0.434,0.496l-7.5,1
				C12.044,7.998,12.022,8,12,8z M8.283,6.5L12,6.995L15.717,6.5L12,6.005L8.283,6.5z"/>
		</g>
	</g>
</g>
<g id="Graduated_Woman">
</g>
<g id="Avatar_Chef">
</g>
<g id="Waiter">
</g>
<g id="Waitress">
</g>
<g id="Bllboy">
</g>
<g id="Santa">
</g>
<g id="Doctor">
</g>
<g id="Nurse">
</g>
<g id="Captain">
</g>
<g id="Farmer">
</g>
<g id="Maid">
</g>
<g id="Business_Man_2">
</g>
<g id="Business_Woman_2">
</g>
<g id="Cowboy">
</g>
<g id="Anonymus">
</g>
<g id="Batman">
</g>
<g id="Superman">
</g>
<g id="Captain_America">
</g>
<g id="Darth_Vader">
</g>
<g id="Harry_Potter">
</g>
<g id="Anonymus_2">
</g>
<g id="Scream">
</g>
<g id="Jason">
</g>
<g id="Charlie_Chaplin">
</g>
</svg>
