<?xml version="1.0" encoding="iso-8859-1"?>
<!-- Generator: Adobe Illustrator 19.2.1, SVG Export Plug-In . SVG Version: 6.00 Build 0)  -->
<svg version="1.1" xmlns="http://www.w3.org/2000/svg" xmlns:xlink="http://www.w3.org/1999/xlink" x="0px" y="0px"
	 viewBox="0 0 24 24" style="enable-background:new 0 0 24 24;" xml:space="preserve">
<g id="Man_1">
</g>
<g id="Woman_1">
</g>
<g id="Man_2">
</g>
<g id="Woman_2">
</g>
<g id="Bald_Man">
</g>
<g id="Man_Glasses">
</g>
<g id="Woman_Glasses">
</g>
<g id="Man_Beard">
</g>
<g id="Man_Cap">
</g>
<g id="Woman_Cap">
</g>
<g id="Man_3">
</g>
<g id="Woman_3">
</g>
<g id="Men_4">
</g>
<g id="Woman_4">
</g>
<g id="Business_Man_1">
</g>
<g id="Business_Woman_1">
</g>
<g id="Firefigyhter">
</g>
<g id="Policeman">
</g>
<g id="Criminal">
</g>
<g id="Prisoner">
</g>
<g id="Woodsman">
</g>
<g id="Dispatcher_1">
</g>
<g id="Dispatcher_2">
</g>
<g id="Soldier">
</g>
<g id="Astronaut">
</g>
<g id="Hipster_Guy">
</g>
<g id="Hipster_Girl">
</g>
<g id="Worker">
</g>
<g id="Old_Man">
</g>
<g id="Punk">
</g>
<g id="Diver">
</g>
<g id="Artist">
</g>
<g id="Dictator">
</g>
<g id="Man_Hat">
</g>
<g id="Woman_Hat">
</g>
<g id="Graduated_Man">
</g>
<g id="Graduated_Woman">
</g>
<g id="Avatar_Chef">
</g>
<g id="Waiter">
</g>
<g id="Waitress">
</g>
<g id="Bllboy">
</g>
<g id="Santa">
</g>
<g id="Doctor">
</g>
<g id="Nurse">
</g>
<g id="Captain">
</g>
<g id="Farmer">
</g>
<g id="Maid">
</g>
<g id="Business_Man_2">
</g>
<g id="Business_Woman_2">
</g>
<g id="Cowboy">
</g>
<g id="Anonymus">
</g>
<g id="Batman">
</g>
<g id="Superman">
</g>
<g id="Captain_America">
</g>
<g id="Darth_Vader">
</g>
<g id="Harry_Potter">
	<g>
		<g>
			<path d="M12,20c-2.463,0-4.65-1.989-5.559-5.002C5.615,14.95,5,13.893,5,12.5c0-0.396,0.053-0.783,0.152-1.132
				C5.049,10.865,5,10.428,5,10c0-3.859,3.141-7,7-7s7,3.141,7,7c0,0.428-0.049,0.865-0.152,1.368C18.947,11.717,19,12.104,19,12.5
				c0,1.393-0.615,2.45-1.441,2.498C16.65,18.011,14.463,20,12,20z M6.793,13.916c0.061,0,0.12,0.011,0.175,0.032
				c0.148,0.061,0.275,0.177,0.313,0.332C7.98,17.104,9.877,19,12,19s4.02-1.896,4.719-4.72c0.038-0.155,0.149-0.283,0.298-0.344
				c0.149-0.061,0.317-0.045,0.452,0.04c0.168,0,0.531-0.506,0.531-1.477c0-0.341-0.049-0.671-0.143-0.952
				c-0.028-0.085-0.033-0.177-0.014-0.265C17.95,10.798,18,10.39,18,10c0-3.309-2.691-6-6-6s-6,2.691-6,6
				c0,0.39,0.05,0.798,0.156,1.283c0.02,0.088,0.015,0.18-0.014,0.265C6.049,11.829,6,12.159,6,12.5C6,13.468,6.376,14,6.5,14
				C6.586,13.946,6.69,13.916,6.793,13.916z"/>
		</g>
		<g>
			<path d="M17,12c-0.196,0-0.376-0.115-0.457-0.297c-0.019-0.042-0.387-0.878-0.506-1.719c-2.097-0.136-4.267-1.162-5.344-2.228
				c-0.091,0.159-0.203,0.304-0.335,0.435C9.557,8.992,8.29,9.026,7.631,9c-0.146,0.335-0.208,1.423-0.132,2.464
				c0.011,0.151-0.048,0.3-0.159,0.403c-0.112,0.104-0.264,0.149-0.415,0.127c-0.007-0.001-0.69-0.104-1.257-0.104
				c-0.276,0-0.5-0.224-0.5-0.5s0.224-0.5,0.5-0.5c0.271,0,0.559,0.02,0.802,0.043c-0.028-0.905,0.018-2.198,0.465-2.679
				C7.119,8.058,7.36,8.001,7.638,8C8.24,8,9.166,7.969,9.653,7.483C9.887,7.251,10,6.93,10,6.5C10,6.224,10.224,6,10.5,6
				S11,6.224,11,6.5C11.058,7.002,13.565,9,16.5,9C16.776,9,17,9.224,17,9.5c0,0.493,0.192,1.104,0.328,1.472l0.963-0.079
				c0.272-0.019,0.517,0.183,0.539,0.457c0.022,0.275-0.182,0.517-0.457,0.539l-1.332,0.109C17.027,11.999,17.014,12,17,12z"/>
		</g>
		<g>
			<path d="M9.75,14.5C8.785,14.5,8,13.715,8,12.75S8.785,11,9.75,11s1.75,0.785,1.75,1.75S10.715,14.5,9.75,14.5z M9.75,12
				C9.337,12,9,12.337,9,12.75s0.337,0.75,0.75,0.75s0.75-0.337,0.75-0.75S10.163,12,9.75,12z"/>
		</g>
		<g>
			<path d="M14.25,14.5c-0.965,0-1.75-0.785-1.75-1.75S13.285,11,14.25,11S16,11.785,16,12.75S15.215,14.5,14.25,14.5z M14.25,12
				c-0.413,0-0.75,0.337-0.75,0.75s0.337,0.75,0.75,0.75S15,13.163,15,12.75S14.663,12,14.25,12z"/>
		</g>
		<g>
			<path d="M13,13.25c-0.085,0-0.17-0.021-0.248-0.065C12.752,13.184,12.414,13,12,13s-0.752,0.184-0.755,0.186
				c-0.242,0.135-0.545,0.048-0.68-0.191s-0.052-0.542,0.187-0.679C10.809,12.283,11.324,12,12,12s1.191,0.283,1.248,0.315
				c0.24,0.138,0.323,0.443,0.187,0.683C13.342,13.159,13.173,13.25,13,13.25z"/>
		</g>
		<g>
			<path d="M9,11c-0.075,0-0.151-0.017-0.224-0.053c-0.247-0.124-0.347-0.424-0.224-0.671l0.5-1C9.138,9.107,9.311,9,9.5,9h0.691
				l0.361-0.724c0.125-0.246,0.424-0.347,0.671-0.224c0.247,0.124,0.347,0.424,0.224,0.671l-0.5,1C10.862,9.893,10.689,10,10.5,10
				H9.809l-0.361,0.724C9.359,10.898,9.183,11,9,11z"/>
		</g>
		<g>
			<path d="M8.5,13c-0.096,0-0.192-0.027-0.277-0.084l-1.5-1c-0.229-0.153-0.292-0.464-0.139-0.693
				c0.154-0.23,0.465-0.29,0.693-0.139l1.5,1c0.229,0.153,0.292,0.464,0.139,0.693C8.819,12.922,8.661,13,8.5,13z"/>
		</g>
		<g>
			<path d="M15.5,13c-0.161,0-0.319-0.078-0.416-0.223c-0.153-0.229-0.091-0.54,0.139-0.693l1.5-1
				c0.228-0.152,0.539-0.092,0.693,0.139c0.153,0.229,0.091,0.54-0.139,0.693l-1.5,1C15.692,12.973,15.596,13,15.5,13z"/>
		</g>
		<g>
			<path d="M4.034,20.795c-0.19,0-0.372-0.109-0.456-0.294c-0.113-0.252-0.001-0.548,0.25-0.662
				c0.174-0.078,0.353-0.149,0.535-0.213l2.033-0.707c0.298-0.104,0.57-0.261,0.81-0.466l0.966-0.832
				c0.21-0.178,0.526-0.157,0.705,0.053c0.18,0.209,0.156,0.524-0.053,0.705l-0.966,0.832c-0.335,0.288-0.716,0.508-1.134,0.653
				l-2.033,0.707c-0.155,0.054-0.305,0.113-0.451,0.18C4.173,20.781,4.104,20.795,4.034,20.795z"/>
		</g>
		<g>
			<path d="M19.966,20.797c-0.069,0-0.14-0.015-0.207-0.045c-0.147-0.066-0.299-0.127-0.453-0.181l-2.033-0.707
				c-0.418-0.146-0.799-0.365-1.134-0.653l-0.967-0.832c-0.209-0.18-0.233-0.496-0.053-0.705c0.181-0.21,0.496-0.23,0.705-0.053
				l0.967,0.832c0.239,0.205,0.512,0.362,0.81,0.466l2.033,0.707c0.184,0.063,0.364,0.136,0.539,0.216
				c0.251,0.114,0.362,0.41,0.248,0.662C20.337,20.688,20.155,20.797,19.966,20.797z"/>
		</g>
		<g>
			<path d="M12,24C5.383,24,0,18.617,0,12S5.383,0,12,0s12,5.383,12,12S18.617,24,12,24z M12,1C5.935,1,1,5.935,1,12s4.935,11,11,11
				s11-4.935,11-11S18.065,1,12,1z"/>
		</g>
	</g>
</g>
<g id="Anonymus_2">
</g>
<g id="Scream">
</g>
<g id="Jason">
</g>
<g id="Charlie_Chaplin">
</g>
</svg>
