<?xml version="1.0" encoding="iso-8859-1"?>
<!-- Generator: Adobe Illustrator 19.2.1, SVG Export Plug-In . SVG Version: 6.00 Build 0)  -->
<svg version="1.1" xmlns="http://www.w3.org/2000/svg" xmlns:xlink="http://www.w3.org/1999/xlink" x="0px" y="0px"
	 viewBox="0 0 24 24" style="enable-background:new 0 0 24 24;" xml:space="preserve">
<g id="Man_1">
</g>
<g id="Woman_1">
</g>
<g id="Man_2">
</g>
<g id="Woman_2">
</g>
<g id="Bald_Man">
</g>
<g id="Man_Glasses">
</g>
<g id="Woman_Glasses">
</g>
<g id="Man_Beard">
</g>
<g id="Man_Cap">
</g>
<g id="Woman_Cap">
</g>
<g id="Man_3">
</g>
<g id="Woman_3">
</g>
<g id="Men_4">
</g>
<g id="Woman_4">
</g>
<g id="Business_Man_1">
</g>
<g id="Business_Woman_1">
</g>
<g id="Firefigyhter">
</g>
<g id="Policeman">
</g>
<g id="Criminal">
</g>
<g id="Prisoner">
</g>
<g id="Woodsman">
</g>
<g id="Dispatcher_1">
</g>
<g id="Dispatcher_2">
</g>
<g id="Soldier">
</g>
<g id="Astronaut">
</g>
<g id="Hipster_Guy">
</g>
<g id="Hipster_Girl">
	<g>
		<g>
			<path d="M16.23,12.5c-0.035,0-0.071-0.004-0.106-0.011c-0.14-0.031-0.26-0.12-0.33-0.245c-0.039-0.07-0.319-0.586-0.436-1.179
				c-2.173-0.152-3.996-1.371-4.523-2.267c-0.141-0.238-0.061-0.544,0.177-0.685s0.544-0.063,0.685,0.177
				c0.379,0.643,2.076,1.79,4.111,1.79c0.276,0,0.5,0.224,0.5,0.5c0,0.222,0.069,0.48,0.149,0.702
				C16.748,11.138,17.125,11,17.498,11c0.276,0,0.5,0.224,0.5,0.5s-0.224,0.5-0.5,0.5c-0.308,0-0.759,0.247-0.971,0.403
				C16.44,12.466,16.336,12.5,16.23,12.5z"/>
		</g>
		<g>
			<path d="M7.77,12.5c-0.104,0-0.209-0.033-0.296-0.096C7.26,12.248,6.807,12,6.498,12c-0.276,0-0.5-0.224-0.5-0.5
				s0.224-0.5,0.5-0.5c0.315,0,0.634,0.099,0.9,0.216c0.178-0.781,0.529-1.609,1.217-1.609c0.383,0,1.848-0.199,2.021-1.17
				c0.048-0.272,0.312-0.452,0.579-0.405c0.272,0.048,0.454,0.308,0.405,0.58c-0.281,1.584-2.143,1.971-2.931,1.995
				c-0.149,0.178-0.349,0.853-0.424,1.456c-0.022,0.176-0.136,0.326-0.298,0.396C7.904,12.486,7.837,12.5,7.77,12.5z"/>
		</g>
		<g>
			<path d="M16.079,19c-0.264,0-0.483-0.205-0.499-0.471c-0.017-0.275,0.194-0.512,0.47-0.528c0.65-0.039,1.968-0.48,2.784-0.782
				c-0.273-0.68-0.724-1.973-0.846-3.373c-0.024-0.275,0.18-0.518,0.455-0.542c0.269-0.032,0.518,0.179,0.541,0.455
				c0.158,1.822,0.958,3.508,0.967,3.525c0.06,0.125,0.064,0.269,0.015,0.398c-0.051,0.129-0.152,0.231-0.281,0.283
				c-0.1,0.039-2.446,0.968-3.576,1.034C16.099,19,16.089,19,16.079,19z"/>
		</g>
		<g>
			<path d="M4.034,20.795c-0.19,0-0.372-0.109-0.456-0.294c-0.113-0.251-0.001-0.548,0.25-0.661
				c0.174-0.079,0.353-0.149,0.535-0.213l2.033-0.707c0.298-0.104,0.57-0.261,0.81-0.467l1.04-0.877
				c0.211-0.176,0.526-0.151,0.704,0.06c0.179,0.211,0.151,0.526-0.06,0.705l-1.036,0.874c-0.332,0.285-0.713,0.505-1.13,0.65
				l-2.033,0.707c-0.155,0.054-0.305,0.114-0.451,0.18C4.173,20.781,4.104,20.795,4.034,20.795z"/>
		</g>
		<g>
			<path d="M19.966,20.796c-0.069,0-0.139-0.014-0.206-0.044c-0.147-0.066-0.3-0.127-0.455-0.181l-2.032-0.707
				c-0.417-0.145-0.798-0.365-1.134-0.653l-1.033-0.871c-0.211-0.178-0.238-0.493-0.061-0.705c0.181-0.211,0.496-0.236,0.705-0.06
				l1.037,0.874c0.243,0.209,0.516,0.367,0.813,0.47l2.033,0.707c0.184,0.064,0.363,0.136,0.538,0.214
				c0.251,0.113,0.363,0.41,0.25,0.661C20.338,20.687,20.156,20.796,19.966,20.796z"/>
		</g>
		<g>
			<path d="M17.867,12.141c-0.221,0-0.423-0.147-0.482-0.37c-0.182-0.674-0.362-1.321-0.579-1.837
				c-0.107-0.254,0.013-0.548,0.267-0.655c0.256-0.105,0.549,0.013,0.655,0.267c0.241,0.574,0.433,1.257,0.622,1.965
				c0.072,0.267-0.086,0.541-0.353,0.613C17.953,12.136,17.91,12.141,17.867,12.141z"/>
		</g>
		<g>
			<path d="M7.921,19c-0.01,0-0.02,0-0.029-0.001c-1.13-0.066-3.477-0.995-3.576-1.034c-0.129-0.051-0.23-0.154-0.281-0.283
				c-0.05-0.129-0.045-0.273,0.015-0.398c0.009-0.017,0.809-1.703,0.967-3.525c0.024-0.275,0.269-0.48,0.541-0.455
				c0.275,0.024,0.479,0.266,0.455,0.542c-0.122,1.4-0.572,2.693-0.846,3.373c0.816,0.302,2.134,0.744,2.784,0.782
				c0.275,0.016,0.486,0.253,0.47,0.528C8.404,18.795,8.184,19,7.921,19z"/>
		</g>
		<g>
			<path d="M6.133,12.141c-0.043,0-0.086-0.005-0.13-0.017c-0.267-0.072-0.425-0.346-0.353-0.613
				c0.204-0.761,0.394-1.438,0.646-2.02c0.11-0.254,0.404-0.37,0.657-0.26c0.254,0.11,0.37,0.404,0.261,0.658
				c-0.225,0.52-0.404,1.16-0.599,1.882C6.556,11.994,6.354,12.141,6.133,12.141z"/>
		</g>
		<g>
			<path d="M11.998,20c-0.265,0-0.524-0.03-0.78-0.074c-0.116-0.019-0.233-0.045-0.351-0.073c-0.093-0.023-0.177-0.049-0.262-0.076
				c-1.687-0.498-3.124-1.898-3.922-3.795C6.615,15.995,6.553,16,6.498,16c-0.855,0-1.5-1.075-1.5-2.5s0.645-2.5,1.5-2.5
				c0.276,0,0.5,0.224,0.5,0.5S6.774,12,6.498,12c-0.124,0-0.5,0.532-0.5,1.5c0,0.967,0.375,1.499,0.5,1.5
				c-0.002,0,0.033-0.012,0.096-0.076c0.123-0.123,0.3-0.176,0.468-0.136c0.17,0.039,0.307,0.163,0.362,0.327
				c0.633,1.866,1.932,3.251,3.475,3.707c0.075,0.024,0.142,0.044,0.209,0.061c0.088,0.021,0.18,0.042,0.275,0.058
				c0.408,0.07,0.826,0.069,1.229,0.001c0.097-0.016,0.19-0.037,0.284-0.06c0.061-0.015,0.127-0.036,0.195-0.057
				c1.549-0.458,2.849-1.843,3.482-3.709c0.057-0.164,0.193-0.288,0.363-0.327c0.167-0.038,0.346,0.014,0.468,0.138
				c0.063,0.065,0.099,0.075,0.1,0.075c0.118,0,0.494-0.533,0.494-1.5s-0.376-1.5-0.5-1.5c-0.276,0-0.5-0.224-0.5-0.5
				s0.224-0.5,0.5-0.5c0.855,0,1.5,1.075,1.5,2.5s-0.645,2.5-1.5,2.5c-0.055,0-0.117-0.005-0.185-0.018
				c-0.799,1.898-2.237,3.298-3.932,3.798c-0.076,0.024-0.16,0.049-0.245,0.071c-0.124,0.03-0.241,0.056-0.36,0.075
				C12.523,19.97,12.264,20,11.998,20z"/>
		</g>
		<g>
			<path d="M12,24C5.383,24,0,18.617,0,12S5.383,0,12,0s12,5.383,12,12S18.617,24,12,24z M12,1C5.935,1,1,5.935,1,12s4.935,11,11,11
				s11-4.935,11-11S18.065,1,12,1z"/>
		</g>
		<g>
			<path d="M17.267,10.24c-0.191,0-0.373-0.11-0.456-0.296C16.67,9.667,15.087,9,12,9C9.039,9,7.377,9.629,7.183,9.95
				c-0.143,0.238-0.451,0.311-0.687,0.168C6.26,9.975,6.185,9.667,6.327,9.431C6.927,8.442,9.608,8,12,8
				c1.871,0,5.182,0.324,5.723,1.536c0.113,0.252,0,0.548-0.252,0.661C17.404,10.227,17.335,10.24,17.267,10.24z"/>
		</g>
		<g>
			<path d="M17.803,11.901c-0.185,0-0.362-0.103-0.449-0.281c-0.121-0.248-0.019-0.547,0.229-0.668C18.483,10.512,19,9.983,19,9.5
				C19,8.317,16.125,7,12,7S5,8.317,5,9.5c0,0.483,0.516,1.012,1.416,1.451c0.248,0.121,0.351,0.42,0.229,0.668
				c-0.122,0.25-0.42,0.352-0.669,0.23C4.343,11.052,4,10.131,4,9.5C4,7.505,7.439,6,12,6s8,1.505,8,3.5
				c0,0.632-0.343,1.552-1.978,2.35C17.951,11.885,17.877,11.901,17.803,11.901z"/>
		</g>
		<g>
			<path d="M17.461,7.966c-0.244,0-0.458-0.179-0.494-0.428C16.675,5.521,14.54,4,12,4C9.473,4,7.339,5.512,7.036,7.518
				c-0.041,0.273-0.305,0.455-0.568,0.42c-0.273-0.042-0.461-0.296-0.42-0.569C6.423,4.878,8.981,3,12,3
				c3.033,0,5.594,1.889,5.957,4.394c0.039,0.273-0.15,0.527-0.424,0.566C17.509,7.964,17.485,7.966,17.461,7.966z"/>
		</g>
		<g>
			<path d="M10.002,15c-1.103,0-2-0.897-2-2s0.897-2,2-2s2,0.897,2,2S11.104,15,10.002,15z M10.002,12c-0.552,0-1,0.449-1,1
				s0.448,1,1,1s1-0.449,1-1S10.554,12,10.002,12z"/>
		</g>
		<g>
			<path d="M14.002,15c-1.103,0-2-0.897-2-2s0.897-2,2-2s2,0.897,2,2S15.104,15,14.002,15z M14.002,12c-0.552,0-1,0.449-1,1
				s0.448,1,1,1s1-0.449,1-1S14.554,12,14.002,12z"/>
		</g>
		<g>
			<path d="M12.502,13h-1c-0.276,0-0.5-0.224-0.5-0.5s0.224-0.5,0.5-0.5h1c0.276,0,0.5,0.224,0.5,0.5S12.778,13,12.502,13z"/>
		</g>
		<g>
			<path d="M8.502,13.5c-0.153,0-0.306-0.071-0.403-0.205l-0.732-1c-0.163-0.223-0.115-0.536,0.107-0.699
				c0.224-0.164,0.536-0.116,0.699,0.108l0.732,1c0.163,0.223,0.115,0.536-0.107,0.699C8.708,13.469,8.604,13.5,8.502,13.5z"/>
		</g>
		<g>
			<path d="M15.502,13.5c-0.103,0-0.205-0.031-0.294-0.096c-0.224-0.163-0.272-0.476-0.11-0.699l0.729-1
				c0.163-0.223,0.476-0.272,0.698-0.11c0.224,0.163,0.272,0.476,0.11,0.699l-0.729,1C15.809,13.429,15.656,13.5,15.502,13.5z"/>
		</g>
		<g>
			<path d="M12,22c-3.671,0-5.772-2.142-5.86-2.233c-0.191-0.199-0.185-0.514,0.014-0.706s0.516-0.185,0.706,0.011
				C6.878,19.092,8.771,21,12,21c3.235,0,5.122-1.909,5.141-1.928c0.193-0.197,0.51-0.203,0.707-0.011
				c0.198,0.192,0.203,0.508,0.012,0.707C17.771,19.859,15.654,22,12,22z"/>
		</g>
	</g>
</g>
<g id="Worker">
</g>
<g id="Old_Man">
</g>
<g id="Punk">
</g>
<g id="Diver">
</g>
<g id="Artist">
</g>
<g id="Dictator">
</g>
<g id="Man_Hat">
</g>
<g id="Woman_Hat">
</g>
<g id="Graduated_Man">
</g>
<g id="Graduated_Woman">
</g>
<g id="Avatar_Chef">
</g>
<g id="Waiter">
</g>
<g id="Waitress">
</g>
<g id="Bllboy">
</g>
<g id="Santa">
</g>
<g id="Doctor">
</g>
<g id="Nurse">
</g>
<g id="Captain">
</g>
<g id="Farmer">
</g>
<g id="Maid">
</g>
<g id="Business_Man_2">
</g>
<g id="Business_Woman_2">
</g>
<g id="Cowboy">
</g>
<g id="Anonymus">
</g>
<g id="Batman">
</g>
<g id="Superman">
</g>
<g id="Captain_America">
</g>
<g id="Darth_Vader">
</g>
<g id="Harry_Potter">
</g>
<g id="Anonymus_2">
</g>
<g id="Scream">
</g>
<g id="Jason">
</g>
<g id="Charlie_Chaplin">
</g>
</svg>
