<?xml version="1.0" encoding="iso-8859-1"?>
<!-- Generator: Adobe Illustrator 19.2.1, SVG Export Plug-In . SVG Version: 6.00 Build 0)  -->
<svg version="1.1" xmlns="http://www.w3.org/2000/svg" xmlns:xlink="http://www.w3.org/1999/xlink" x="0px" y="0px"
	 viewBox="0 0 24 24" style="enable-background:new 0 0 24 24;" xml:space="preserve">
<g id="Man_1">
</g>
<g id="Woman_1">
</g>
<g id="Man_2">
</g>
<g id="Woman_2">
</g>
<g id="Bald_Man">
</g>
<g id="Man_Glasses">
</g>
<g id="Woman_Glasses">
</g>
<g id="Man_Beard">
</g>
<g id="Man_Cap">
</g>
<g id="Woman_Cap">
</g>
<g id="Man_3">
</g>
<g id="Woman_3">
</g>
<g id="Men_4">
</g>
<g id="Woman_4">
</g>
<g id="Business_Man_1">
</g>
<g id="Business_Woman_1">
</g>
<g id="Firefigyhter">
</g>
<g id="Policeman">
</g>
<g id="Criminal">
</g>
<g id="Prisoner">
</g>
<g id="Woodsman">
</g>
<g id="Dispatcher_1">
</g>
<g id="Dispatcher_2">
</g>
<g id="Soldier">
</g>
<g id="Astronaut">
</g>
<g id="Hipster_Guy">
	<g>
		<g>
			<path d="M12,24C5.383,24,0,18.617,0,12S5.383,0,12,0s12,5.383,12,12S18.617,24,12,24z M12,1C5.935,1,1,5.935,1,12s4.935,11,11,11
				s11-4.935,11-11S18.065,1,12,1z"/>
		</g>
		<g>
			<path d="M4.034,20.795c-0.19,0-0.372-0.109-0.456-0.294c-0.113-0.251-0.001-0.548,0.25-0.661
				c0.174-0.079,0.353-0.149,0.535-0.213l2.033-0.707c0.298-0.104,0.57-0.261,0.81-0.467l0.303-0.261
				c0.21-0.179,0.525-0.157,0.705,0.053c0.18,0.209,0.156,0.525-0.053,0.705L7.858,19.21c-0.336,0.289-0.717,0.508-1.134,0.653
				l-2.033,0.707c-0.155,0.054-0.305,0.114-0.451,0.18C4.173,20.781,4.104,20.795,4.034,20.795z"/>
		</g>
		<g>
			<path d="M19.966,20.796c-0.069,0-0.139-0.014-0.206-0.044c-0.147-0.066-0.3-0.127-0.455-0.181l-2.032-0.707
				c-0.417-0.145-0.798-0.365-1.134-0.653l-0.292-0.251c-0.21-0.18-0.234-0.496-0.055-0.705c0.182-0.209,0.498-0.233,0.705-0.054
				l0.293,0.251c0.24,0.207,0.513,0.364,0.811,0.467l2.033,0.707c0.184,0.064,0.363,0.135,0.538,0.214
				c0.251,0.113,0.363,0.41,0.25,0.661C20.338,20.687,20.156,20.796,19.966,20.796z"/>
		</g>
		<g>
			<path d="M6.498,16c-0.855,0-1.5-1.075-1.5-2.5c0-1.17,0.435-2.104,1.064-2.401c0.051-0.343,0.142-0.827,0.244-1.364l0.082-0.442
				C6.436,9.02,6.699,8.842,6.966,8.884C7.238,8.93,7.421,9.188,7.375,9.46L7.289,9.922c-0.092,0.479-0.261,1.37-0.272,1.602
				C7.004,11.791,6.784,12,6.518,12c-0.144,0-0.52,0.532-0.52,1.5c0,0.786,0.248,1.285,0.407,1.444
				c0.021-0.027,0.041-0.054,0.058-0.075c0.064-0.086,0.127-0.165,0.18-0.219c0.192-0.197,0.511-0.2,0.707-0.008
				c0.197,0.193,0.201,0.51,0.008,0.707c-0.029,0.03-0.062,0.076-0.097,0.123C7.082,15.708,6.861,16,6.498,16z"/>
		</g>
		<g>
			<path d="M17.498,16c-0.363,0-0.592-0.305-0.759-0.527c-0.035-0.047-0.067-0.093-0.097-0.124
				c-0.193-0.197-0.189-0.514,0.008-0.707c0.197-0.192,0.516-0.189,0.707,0.008c0.054,0.055,0.116,0.135,0.182,0.223
				c0.016,0.02,0.034,0.045,0.053,0.07c0.16-0.162,0.406-0.659,0.406-1.443c0-0.968-0.376-1.5-0.5-1.5
				c-0.267,0-0.504-0.208-0.518-0.475c-0.012-0.222-0.181-1.081-0.271-1.542c-0.046-0.235-0.084-0.429-0.102-0.528
				c-0.046-0.272,0.137-0.531,0.409-0.577c0.27-0.046,0.53,0.136,0.577,0.409c0.016,0.095,0.053,0.28,0.097,0.503
				c0.102,0.516,0.191,0.982,0.243,1.313c0.634,0.302,1.064,1.232,1.064,2.396C18.998,14.925,18.354,16,17.498,16z"/>
		</g>
		<g>
			<path d="M9.398,16c-1.013,0-1.599-0.017-2.631-0.557c-0.244-0.128-0.339-0.43-0.211-0.675c0.13-0.244,0.432-0.339,0.676-0.211
				C8.079,15.001,8.464,14.99,9.401,15c0.518,0,0.799-0.099,1.124-0.213C10.907,14.652,11.34,14.5,12,14.5
				c0.276,0,0.5,0.224,0.5,0.5s-0.224,0.5-0.5,0.5c-0.489,0-0.792,0.106-1.143,0.23C10.478,15.864,10.002,15.996,9.398,16z"/>
		</g>
		<g>
			<path d="M14.5,16c-0.59,0-0.998-0.144-1.357-0.27C12.792,15.606,12.489,15.5,12,15.5c-0.276,0-0.5-0.224-0.5-0.5
				s0.224-0.5,0.5-0.5c0.66,0,1.093,0.152,1.475,0.287C13.8,14.901,14.081,15,14.5,15c0.978,0,1.382,0,2.276-0.447
				c0.248-0.123,0.547-0.024,0.671,0.224c0.123,0.247,0.023,0.547-0.224,0.671C16.118,16,15.543,16,14.5,16z"/>
		</g>
		<g>
			<path d="M12,22c-2.879,0-5.5-3.336-5.5-7c0-0.276,0.224-0.5,0.5-0.5s0.5,0.224,0.5,0.5c0,3.434,2.376,6,4.5,6
				c2.081,0,4.5-2.621,4.5-6c0-0.276,0.224-0.5,0.5-0.5s0.5,0.224,0.5,0.5C17.5,18.664,14.879,22,12,22z"/>
		</g>
		<g>
			<path d="M12.5,17h-1c-0.276,0-0.5-0.224-0.5-0.5s0.224-0.5,0.5-0.5h1c0.276,0,0.5,0.224,0.5,0.5S12.776,17,12.5,17z"/>
		</g>
		<g>
			<path d="M17.5,10c-0.055,0-0.11-0.009-0.165-0.028C17.307,9.962,14.526,9,12,9C9.467,9,6.693,9.962,6.665,9.972
				c-0.212,0.075-0.454-0.004-0.581-0.195c-0.127-0.19-0.108-0.442,0.045-0.611C6.245,9.036,9.038,6,14,6
				c1.878,0,3.141,0.461,3.753,1.371c0.71,1.055,0.231,2.267,0.21,2.317C17.885,9.881,17.698,10,17.5,10z M12,8
				c2.041,0,4.166,0.564,5.133,0.857c0.024-0.273-0.003-0.625-0.214-0.935C16.507,7.319,15.498,7,14,7
				c-2.195,0-3.938,0.667-5.152,1.355C9.796,8.161,10.91,8,12,8z"/>
		</g>
		<g>
			<path d="M6.501,10c-0.035,0-0.069-0.003-0.104-0.011c-0.27-0.057-0.442-0.322-0.386-0.593C6.437,7.381,7.78,4,12,4
				c2.157,0,3.871,0.935,4.955,2.704c0.145,0.235,0.071,0.543-0.164,0.688c-0.235,0.143-0.543,0.071-0.688-0.165
				C15.197,5.749,13.816,5,12,5C8.662,5,7.433,7.503,6.989,9.604C6.939,9.839,6.731,10,6.501,10z"/>
		</g>
		<g>
			<path d="M10,15c-1.103,0-2-0.897-2-2s0.897-2,2-2s2,0.897,2,2S11.103,15,10,15z M10,12c-0.552,0-1,0.449-1,1s0.448,1,1,1
				s1-0.449,1-1S10.552,12,10,12z"/>
		</g>
		<g>
			<path d="M14,15c-1.103,0-2-0.897-2-2s0.897-2,2-2s2,0.897,2,2S15.103,15,14,15z M14,12c-0.552,0-1,0.449-1,1s0.448,1,1,1
				s1-0.449,1-1S14.552,12,14,12z"/>
		</g>
		<g>
			<path d="M12.5,13h-1c-0.276,0-0.5-0.224-0.5-0.5s0.224-0.5,0.5-0.5h1c0.276,0,0.5,0.224,0.5,0.5S12.776,13,12.5,13z"/>
		</g>
		<g>
			<path d="M8.5,13.5c-0.104,0-0.21-0.033-0.3-0.1l-2.002-1.5c-0.221-0.166-0.266-0.479-0.101-0.7c0.167-0.22,0.48-0.265,0.7-0.1
				L8.8,12.6c0.221,0.166,0.266,0.479,0.101,0.7C8.802,13.431,8.651,13.5,8.5,13.5z"/>
		</g>
		<g>
			<path d="M15.5,13.5c-0.151,0-0.302-0.069-0.399-0.2c-0.166-0.221-0.122-0.534,0.1-0.7l1.998-1.5
				c0.22-0.166,0.534-0.122,0.699,0.1c0.166,0.221,0.122,0.534-0.1,0.7L15.8,13.4C15.71,13.467,15.604,13.5,15.5,13.5z"/>
		</g>
	</g>
</g>
<g id="Hipster_Girl">
</g>
<g id="Worker">
</g>
<g id="Old_Man">
</g>
<g id="Punk">
</g>
<g id="Diver">
</g>
<g id="Artist">
</g>
<g id="Dictator">
</g>
<g id="Man_Hat">
</g>
<g id="Woman_Hat">
</g>
<g id="Graduated_Man">
</g>
<g id="Graduated_Woman">
</g>
<g id="Avatar_Chef">
</g>
<g id="Waiter">
</g>
<g id="Waitress">
</g>
<g id="Bllboy">
</g>
<g id="Santa">
</g>
<g id="Doctor">
</g>
<g id="Nurse">
</g>
<g id="Captain">
</g>
<g id="Farmer">
</g>
<g id="Maid">
</g>
<g id="Business_Man_2">
</g>
<g id="Business_Woman_2">
</g>
<g id="Cowboy">
</g>
<g id="Anonymus">
</g>
<g id="Batman">
</g>
<g id="Superman">
</g>
<g id="Captain_America">
</g>
<g id="Darth_Vader">
</g>
<g id="Harry_Potter">
</g>
<g id="Anonymus_2">
</g>
<g id="Scream">
</g>
<g id="Jason">
</g>
<g id="Charlie_Chaplin">
</g>
</svg>
