<?xml version="1.0" encoding="iso-8859-1"?>
<!-- Generator: Adobe Illustrator 19.2.1, SVG Export Plug-In . SVG Version: 6.00 Build 0)  -->
<svg version="1.1" xmlns="http://www.w3.org/2000/svg" xmlns:xlink="http://www.w3.org/1999/xlink" x="0px" y="0px"
	 viewBox="0 0 24 24" style="enable-background:new 0 0 24 24;" xml:space="preserve">
<g id="Man_1">
</g>
<g id="Woman_1">
</g>
<g id="Man_2">
</g>
<g id="Woman_2">
</g>
<g id="Bald_Man">
</g>
<g id="Man_Glasses">
</g>
<g id="Woman_Glasses">
</g>
<g id="Man_Beard">
</g>
<g id="Man_Cap">
</g>
<g id="Woman_Cap">
</g>
<g id="Man_3">
</g>
<g id="Woman_3">
</g>
<g id="Men_4">
</g>
<g id="Woman_4">
</g>
<g id="Business_Man_1">
</g>
<g id="Business_Woman_1">
</g>
<g id="Firefigyhter">
</g>
<g id="Policeman">
</g>
<g id="Criminal">
</g>
<g id="Prisoner">
</g>
<g id="Woodsman">
</g>
<g id="Dispatcher_1">
</g>
<g id="Dispatcher_2">
</g>
<g id="Soldier">
</g>
<g id="Astronaut">
</g>
<g id="Hipster_Guy">
</g>
<g id="Hipster_Girl">
</g>
<g id="Worker">
</g>
<g id="Old_Man">
</g>
<g id="Punk">
</g>
<g id="Diver">
</g>
<g id="Artist">
</g>
<g id="Dictator">
</g>
<g id="Man_Hat">
</g>
<g id="Woman_Hat">
</g>
<g id="Graduated_Man">
</g>
<g id="Graduated_Woman">
</g>
<g id="Avatar_Chef">
</g>
<g id="Waiter">
</g>
<g id="Waitress">
</g>
<g id="Bllboy">
</g>
<g id="Santa">
</g>
<g id="Doctor">
</g>
<g id="Nurse">
</g>
<g id="Captain">
</g>
<g id="Farmer">
</g>
<g id="Maid">
</g>
<g id="Business_Man_2">
</g>
<g id="Business_Woman_2">
</g>
<g id="Cowboy">
</g>
<g id="Anonymus">
</g>
<g id="Batman">
</g>
<g id="Superman">
</g>
<g id="Captain_America">
</g>
<g id="Darth_Vader">
</g>
<g id="Harry_Potter">
</g>
<g id="Anonymus_2">
</g>
<g id="Scream">
</g>
<g id="Jason">
	<g>
		<g>
			<path d="M4,20.498c-0.191,0-0.374-0.11-0.457-0.297c-0.112-0.252,0.001-0.548,0.254-0.66c0.173-0.076,0.351-0.148,0.531-0.211
				l2.034-0.708c0.298-0.104,0.57-0.261,0.81-0.466l0.916-0.788c0.211-0.18,0.526-0.156,0.705,0.053
				c0.181,0.209,0.156,0.525-0.053,0.705l-0.916,0.788c-0.335,0.288-0.716,0.508-1.134,0.653l-2.033,0.707
				c-0.154,0.054-0.307,0.114-0.454,0.181C4.138,20.484,4.068,20.498,4,20.498z"/>
		</g>
		<g>
			<path d="M19.933,20.5c-0.069,0-0.139-0.014-0.206-0.044c-0.148-0.067-0.301-0.128-0.456-0.183l-2.032-0.706
				c-0.418-0.146-0.799-0.365-1.134-0.653l-0.875-0.754c-0.209-0.181-0.232-0.496-0.053-0.705c0.181-0.21,0.497-0.231,0.705-0.053
				l0.875,0.754c0.239,0.205,0.512,0.362,0.81,0.466l2.033,0.707c0.186,0.065,0.363,0.136,0.539,0.215
				c0.251,0.114,0.363,0.41,0.25,0.662C20.305,20.391,20.123,20.5,19.933,20.5z"/>
		</g>
		<g>
			<path d="M12,22c-2.207,0-4.775-3.014-4.884-3.143c-0.179-0.211-0.151-0.526,0.06-0.704c0.21-0.177,0.526-0.152,0.704,0.06
				C8.535,18.988,10.553,21,12,21c1.438,0,3.407-2.009,4.045-2.783c0.177-0.212,0.491-0.243,0.704-0.067s0.243,0.49,0.067,0.704
				C16.551,19.175,14.162,22,12,22z"/>
		</g>
		<g>
			<path d="M12,24C5.383,24,0,18.617,0,12S5.383,0,12,0s12,5.383,12,12S18.617,24,12,24z M12,1C5.935,1,1,5.935,1,12s4.935,11,11,11
				s11-4.935,11-11S18.065,1,12,1z"/>
		</g>
		<g>
			<path d="M12,20c-3.309,0-6-3.477-6-7.75V10c0-3.309,2.691-6,6-6s6,2.691,6,6v2.25C18,16.523,15.309,20,12,20z M12,5
				c-2.757,0-5,2.243-5,5v2.25C7,15.972,9.243,19,12,19s5-3.028,5-6.75V10C17,7.243,14.757,5,12,5z"/>
		</g>
		<g>
			<circle cx="12" cy="14" r="0.5"/>
		</g>
		<g>
			<circle cx="10.5" cy="15.5" r="0.5"/>
		</g>
		<g>
			<circle cx="8.5" cy="14.5" r="0.5"/>
		</g>
		<g>
			<circle cx="10.5" cy="17.5" r="0.5"/>
		</g>
		<g>
			<circle cx="13.5" cy="15.5" r="0.5"/>
		</g>
		<g>
			<circle cx="15.5" cy="14.5" r="0.5"/>
		</g>
		<g>
			<circle cx="13.5" cy="17.5" r="0.5"/>
		</g>
		<g>
			<circle cx="10.5" cy="6.5" r="0.5"/>
		</g>
		<g>
			<circle cx="9.5" cy="8.5" r="0.5"/>
		</g>
		<g>
			<circle cx="13.5" cy="6.5" r="0.5"/>
		</g>
		<g>
			<circle cx="14.5" cy="8.5" r="0.5"/>
		</g>
		<g>
			<path d="M9.5,13C8.673,13,8,12.327,8,11.5c0-0.298,0.09-0.538,0.266-0.713c0.296-0.294,0.705-0.286,1.105-0.288L9.5,10.5
				l0.129-0.001c0.398,0,0.81-0.006,1.105,0.288C10.91,10.962,11,11.202,11,11.5C11,12.327,10.327,13,9.5,13z M9.007,11.508
				C9.029,11.804,9.242,12,9.5,12c0.272,0,0.495-0.22,0.5-0.491c-0.095-0.013-0.251-0.009-0.363-0.01L9.5,11.5l-0.137-0.001
				C9.255,11.5,9.103,11.497,9.007,11.508z"/>
		</g>
		<g>
			<path d="M14.5,13c-0.827,0-1.5-0.673-1.5-1.5c0-0.298,0.09-0.538,0.266-0.713c0.296-0.294,0.704-0.286,1.105-0.288L14.5,10.5
				l0.129-0.001c0.397,0,0.81-0.006,1.105,0.288C15.91,10.962,16,11.202,16,11.5C16,12.327,15.327,13,14.5,13z M14.007,11.508
				C14.029,11.804,14.242,12,14.5,12c0.272,0,0.495-0.22,0.5-0.491c-0.094-0.013-0.25-0.009-0.363-0.01L14.5,11.5l-0.137-0.001
				C14.254,11.5,14.103,11.497,14.007,11.508z"/>
		</g>
		<g>
			<path d="M12,10.5c-0.076,0-0.153-0.018-0.224-0.053l-1-0.5c-0.247-0.124-0.347-0.424-0.224-0.671
				c0.125-0.246,0.424-0.347,0.671-0.224L12,9.441l0.776-0.389c0.247-0.124,0.547-0.023,0.671,0.224
				c0.123,0.247,0.023,0.547-0.224,0.671l-1,0.5C12.153,10.482,12.076,10.5,12,10.5z"/>
		</g>
	</g>
</g>
<g id="Charlie_Chaplin">
</g>
</svg>
