<?xml version="1.0" encoding="iso-8859-1"?>
<!-- Generator: Adobe Illustrator 19.2.1, SVG Export Plug-In . SVG Version: 6.00 Build 0)  -->
<svg version="1.1" xmlns="http://www.w3.org/2000/svg" xmlns:xlink="http://www.w3.org/1999/xlink" x="0px" y="0px"
	 viewBox="0 0 24 24" style="enable-background:new 0 0 24 24;" xml:space="preserve">
<g id="Man_1">
</g>
<g id="Woman_1">
</g>
<g id="Man_2">
</g>
<g id="Woman_2">
</g>
<g id="Bald_Man">
</g>
<g id="Man_Glasses">
</g>
<g id="Woman_Glasses">
</g>
<g id="Man_Beard">
</g>
<g id="Man_Cap">
</g>
<g id="Woman_Cap">
</g>
<g id="Man_3">
</g>
<g id="Woman_3">
</g>
<g id="Men_4">
</g>
<g id="Woman_4">
</g>
<g id="Business_Man_1">
</g>
<g id="Business_Woman_1">
</g>
<g id="Firefigyhter">
</g>
<g id="Policeman">
</g>
<g id="Criminal">
</g>
<g id="Prisoner">
</g>
<g id="Woodsman">
</g>
<g id="Dispatcher_1">
</g>
<g id="Dispatcher_2">
</g>
<g id="Soldier">
</g>
<g id="Astronaut">
</g>
<g id="Hipster_Guy">
</g>
<g id="Hipster_Girl">
</g>
<g id="Worker">
</g>
<g id="Old_Man">
</g>
<g id="Punk">
</g>
<g id="Diver">
</g>
<g id="Artist">
</g>
<g id="Dictator">
</g>
<g id="Man_Hat">
</g>
<g id="Woman_Hat">
</g>
<g id="Graduated_Man">
</g>
<g id="Graduated_Woman">
</g>
<g id="Avatar_Chef">
</g>
<g id="Waiter">
</g>
<g id="Waitress">
</g>
<g id="Bllboy">
</g>
<g id="Santa">
</g>
<g id="Doctor">
</g>
<g id="Nurse">
</g>
<g id="Captain">
</g>
<g id="Farmer">
</g>
<g id="Maid">
	<g>
		<g>
			<path d="M4.035,20.795c-0.19,0-0.373-0.11-0.456-0.295c-0.113-0.252-0.001-0.548,0.251-0.661
				c0.175-0.078,0.353-0.149,0.535-0.213l2.033-0.707c0.299-0.104,0.571-0.261,0.808-0.466l0.968-0.832
				c0.211-0.18,0.525-0.156,0.705,0.053c0.181,0.209,0.156,0.525-0.053,0.705l-0.967,0.832c-0.332,0.287-0.714,0.507-1.132,0.652
				l-2.034,0.708c-0.155,0.054-0.306,0.113-0.453,0.18C4.173,20.781,4.104,20.795,4.035,20.795z"/>
		</g>
		<g>
			<path d="M19.968,20.797c-0.069,0-0.14-0.015-0.207-0.045c-0.146-0.066-0.298-0.127-0.453-0.181l-2.034-0.707
				c-0.419-0.146-0.801-0.366-1.134-0.653l-0.966-0.832c-0.209-0.18-0.233-0.496-0.053-0.705c0.182-0.21,0.497-0.231,0.705-0.053
				l0.967,0.832c0.237,0.205,0.51,0.362,0.81,0.467l2.032,0.706c0.184,0.063,0.364,0.136,0.54,0.216
				c0.251,0.114,0.362,0.41,0.248,0.662C20.339,20.688,20.157,20.797,19.968,20.797z"/>
		</g>
		<g>
			<path d="M12,24C5.383,24,0,18.617,0,12S5.383,0,12,0s12,5.383,12,12S18.617,24,12,24z M12,1C5.935,1,1,5.935,1,12s4.935,11,11,11
				s11-4.935,11-11S18.065,1,12,1z"/>
		</g>
		<g>
			<path d="M17,12.5c-0.04,0-0.08-0.005-0.12-0.015c-0.131-0.032-0.244-0.116-0.312-0.233c-0.048-0.081-0.392-0.688-0.521-1.372
				c-2.068-0.119-3.92-1.035-4.872-1.967C10.463,10.068,8.759,10.357,8,10.357c-0.131,0.105-0.403,0.941-0.504,1.708
				c-0.022,0.168-0.129,0.313-0.282,0.386c-0.154,0.072-0.333,0.063-0.479-0.026C6.545,12.307,5.952,12,5.5,12
				C5.224,12,5,11.776,5,11.5S5.224,11,5.5,11c0.396,0,0.801,0.121,1.123,0.253C6.81,10.41,7.201,9.357,8,9.357
				c0.025,0,2.5-0.07,2.5-1.644c0-0.276,0.224-0.5,0.5-0.5s0.5,0.224,0.5,0.5c0.075,0.441,2.107,2.179,5,2.179
				c0.276,0,0.5,0.224,0.5,0.5c0,0.297,0.11,0.647,0.226,0.926C17.565,11.164,18.038,11,18.5,11c0.276,0,0.5,0.224,0.5,0.5
				S18.776,12,18.5,12c-0.454,0-1.059,0.314-1.235,0.424C17.185,12.474,17.093,12.5,17,12.5z"/>
		</g>
		<g>
			<path d="M12,20c-0.241,0-0.491-0.025-0.787-0.079c-0.115-0.021-0.235-0.049-0.354-0.08c-0.089-0.023-0.175-0.051-0.261-0.08
				c-1.688-0.534-3.126-2.034-3.922-4.063c-0.064,0.012-0.124,0.017-0.177,0.017c-0.869,0-1.5-1.111-1.5-2.643
				c0-0.218,0.06-0.759,0.09-1.016C5.049,11.924,5,11.713,5,11.464c0-1.409,0.37-2.78,1.069-3.966
				C6.211,7.26,6.517,7.183,6.754,7.321c0.238,0.141,0.317,0.447,0.177,0.685C6.322,9.038,6,10.233,6,11.464
				c0,0.191,0.06,0.34,0.061,0.342c0.031,0.078,0.046,0.17,0.035,0.254C6.096,12.063,6,12.84,6,13.071
				c0,1.063,0.382,1.613,0.504,1.643c-0.008-0.002,0.027-0.022,0.078-0.078c0.121-0.132,0.309-0.187,0.477-0.15
				c0.175,0.038,0.315,0.167,0.369,0.337c0.638,2.009,1.939,3.5,3.481,3.988c0.074,0.024,0.139,0.046,0.206,0.063
				c0.089,0.023,0.18,0.046,0.273,0.062C11.593,18.974,11.794,19,12,19c0.276,0,0.5,0.224,0.5,0.5S12.276,20,12,20z M6.504,14.714
				h0.01H6.504z"/>
		</g>
		<g>
			<path d="M12,20c-0.276,0-0.5-0.224-0.5-0.5S11.724,19,12,19c0.206,0,0.407-0.026,0.605-0.063c0.1-0.017,0.19-0.039,0.281-0.063
				c0.065-0.018,0.13-0.039,0.194-0.061c1.552-0.491,2.854-1.982,3.491-3.991c0.054-0.17,0.194-0.299,0.369-0.337
				c0.17-0.037,0.355,0.019,0.477,0.15c0.051,0.057,0.087,0.077,0.096,0.08c0.104-0.03,0.486-0.58,0.486-1.645
				c0-0.231-0.096-1.012-0.096-1.012c-0.012-0.089,0.002-0.178,0.038-0.26l0,0C17.941,11.8,18,11.653,18,11.464
				c0-1.245-0.329-2.453-0.951-3.494c-0.143-0.237-0.064-0.544,0.172-0.686c0.237-0.145,0.545-0.065,0.686,0.172
				C18.622,8.652,19,10.038,19,11.464c0,0.249-0.049,0.46-0.09,0.592c0.03,0.257,0.09,0.798,0.09,1.016
				c0,1.531-0.631,2.643-1.5,2.643c-0.053,0-0.112-0.005-0.177-0.017c-0.796,2.029-2.234,3.529-3.932,4.066
				c-0.076,0.026-0.162,0.054-0.249,0.077c-0.12,0.031-0.24,0.06-0.361,0.081C12.491,19.975,12.241,20,12,20z"/>
		</g>
		<g>
			<path d="M10.5,13h-1C9.224,13,9,12.776,9,12.5S9.224,12,9.5,12h1c0.276,0,0.5,0.224,0.5,0.5S10.776,13,10.5,13z"/>
		</g>
		<g>
			<path d="M14.5,13h-1c-0.276,0-0.5-0.224-0.5-0.5s0.224-0.5,0.5-0.5h1c0.276,0,0.5,0.224,0.5,0.5S14.776,13,14.5,13z"/>
		</g>
		<g>
			<path d="M16.074,18.994c-0.264,0-0.483-0.205-0.499-0.471c-0.017-0.275,0.194-0.513,0.47-0.528
				c0.675-0.04,2.067-0.511,2.877-0.81C18.673,16.004,18,12.702,18,11.5c0-0.276,0.224-0.5,0.5-0.5s0.5,0.224,0.5,0.5
				c0,1.337,0.979,5.849,0.988,5.894c0.053,0.239-0.077,0.481-0.305,0.571c-0.1,0.04-2.451,0.962-3.58,1.028
				C16.094,18.994,16.084,18.994,16.074,18.994z"/>
		</g>
		<g>
			<path d="M7.926,18.994c-0.01,0-0.02,0-0.029-0.001c-1.129-0.066-3.48-0.988-3.58-1.028c-0.228-0.09-0.357-0.332-0.305-0.571
				C4.021,17.349,5,12.837,5,11.5C5,11.224,5.224,11,5.5,11S6,11.224,6,11.5c0,1.202-0.673,4.504-0.922,5.686
				c0.81,0.299,2.202,0.77,2.877,0.81c0.275,0.016,0.486,0.253,0.47,0.528C8.409,18.789,8.188,18.994,7.926,18.994z"/>
		</g>
		<g>
			<path d="M16.5,9c-0.048,0-0.096-0.007-0.142-0.021C15.438,8.707,12.863,8,12,8S8.562,8.707,7.642,8.979
				C7.596,8.993,7.548,9,7.5,9C6.673,9,6,8.327,6,7.5S6.673,6,7.5,6c0.113,0,0.372-0.09,0.507-0.17C8.094,4.807,8.954,4,10,4
				c0-1.103,0.897-2,2-2s2,0.897,2,2c1.046,0,1.906,0.807,1.993,1.83C16.128,5.91,16.387,6,16.5,6C17.327,6,18,6.673,18,7.5
				S17.327,9,16.5,9z M12,7c1.101,0,3.953,0.818,4.56,0.996C16.808,7.967,17,7.756,17,7.5C17,7.225,16.775,7,16.5,7
				C16.139,7,15,6.699,15,6c0-0.697-0.739-1.234-1.438-0.893C13.373,5.2,13.14,5.163,12.988,5.012s-0.189-0.382-0.096-0.573
				C12.964,4.293,13,4.146,13,4c0-0.552-0.448-1-1-1s-1,0.448-1,1c0,0.146,0.036,0.293,0.107,0.438
				c0.094,0.191,0.056,0.422-0.096,0.573s-0.383,0.189-0.573,0.096C9.742,4.766,9,5.303,9,6c0,0.699-1.139,1-1.5,1
				C7.225,7,7,7.225,7,7.5c0,0.256,0.192,0.467,0.44,0.496C8.047,7.818,10.899,7,12,7z"/>
		</g>
		<g>
			<path d="M16.5,23c-0.274,0-0.498-0.222-0.5-0.496c-0.003-0.438,0.01-2.671,0.58-3.552c0.151-0.233,0.461-0.295,0.691-0.148
				c0.232,0.15,0.298,0.46,0.148,0.691c-0.301,0.464-0.427,2.034-0.42,3.001c0.002,0.276-0.221,0.502-0.496,0.504
				C16.502,23,16.501,23,16.5,23z"/>
		</g>
		<g>
			<path d="M7.5,23c-0.001,0-0.002,0-0.003,0C7.221,22.998,6.998,22.773,7,22.497c0.006-0.978-0.121-2.563-0.421-3.028
				c-0.149-0.232-0.082-0.542,0.15-0.691c0.232-0.15,0.541-0.082,0.691,0.15C7.988,19.81,8.003,22.061,8,22.503
				C7.998,22.778,7.774,23,7.5,23z"/>
		</g>
		<g>
			<path d="M12,17.5c-1.394,0-1.848-0.612-1.924-0.735c-0.146-0.233-0.075-0.542,0.159-0.688c0.226-0.141,0.521-0.08,0.674,0.137
				C10.936,16.24,11.198,16.5,12,16.5c0.844,0,1.091-0.287,1.093-0.29c0.146-0.234,0.446-0.294,0.681-0.146
				c0.234,0.146,0.297,0.468,0.15,0.701C13.848,16.888,13.394,17.5,12,17.5z"/>
		</g>
	</g>
</g>
<g id="Business_Man_2">
</g>
<g id="Business_Woman_2">
</g>
<g id="Cowboy">
</g>
<g id="Anonymus">
</g>
<g id="Batman">
</g>
<g id="Superman">
</g>
<g id="Captain_America">
</g>
<g id="Darth_Vader">
</g>
<g id="Harry_Potter">
</g>
<g id="Anonymus_2">
</g>
<g id="Scream">
</g>
<g id="Jason">
</g>
<g id="Charlie_Chaplin">
</g>
</svg>
