<?xml version="1.0" encoding="iso-8859-1"?>
<!-- Generator: Adobe Illustrator 19.2.1, SVG Export Plug-In . SVG Version: 6.00 Build 0)  -->
<svg version="1.1" xmlns="http://www.w3.org/2000/svg" xmlns:xlink="http://www.w3.org/1999/xlink" x="0px" y="0px"
	 viewBox="0 0 24 24" style="enable-background:new 0 0 24 24;" xml:space="preserve">
<g id="Man_1">
</g>
<g id="Woman_1">
</g>
<g id="Man_2">
</g>
<g id="Woman_2">
</g>
<g id="Bald_Man">
</g>
<g id="Man_Glasses">
</g>
<g id="Woman_Glasses">
</g>
<g id="Man_Beard">
</g>
<g id="Man_Cap">
	<g>
		<g>
			<path d="M10.5,13h-1C9.224,13,9,12.776,9,12.5S9.224,12,9.5,12h1c0.276,0,0.5,0.224,0.5,0.5S10.776,13,10.5,13z"/>
		</g>
		<g>
			<path d="M14.5,13h-1c-0.276,0-0.5-0.224-0.5-0.5s0.224-0.5,0.5-0.5h1c0.276,0,0.5,0.224,0.5,0.5S14.776,13,14.5,13z"/>
		</g>
		<g>
			<path d="M17.358,10c-0.055,0-0.11-0.009-0.165-0.028C17.165,9.962,14.386,9,11.858,9S6.552,9.962,6.523,9.972
				c-0.211,0.076-0.454-0.004-0.581-0.195c-0.127-0.19-0.108-0.442,0.045-0.611C6.104,9.036,8.896,6,13.858,6
				c1.878,0,3.141,0.461,3.753,1.371c0.71,1.055,0.231,2.267,0.21,2.317C17.743,9.881,17.557,10,17.358,10z M11.858,8
				c2.042,0,4.167,0.564,5.133,0.857c0.024-0.273-0.003-0.625-0.214-0.935C16.365,7.319,15.356,7,13.858,7
				C11.663,7,9.92,7.667,8.706,8.355C9.654,8.161,10.769,8,11.858,8z"/>
		</g>
		<g>
			<path d="M6.359,10C6.324,10,6.29,9.997,6.255,9.989C5.984,9.932,5.813,9.667,5.869,9.396C6.296,7.381,7.642,4,11.858,4
				c2.157,0,3.871,0.935,4.956,2.703c0.145,0.235,0.071,0.543-0.164,0.688c-0.235,0.143-0.543,0.072-0.688-0.165
				C15.056,5.749,13.675,5,11.858,5C8.522,5,7.292,7.503,6.848,9.604C6.798,9.839,6.59,10,6.359,10z"/>
		</g>
		<g>
			<path d="M4.034,20.795c-0.19,0-0.372-0.109-0.456-0.294c-0.113-0.251-0.001-0.548,0.25-0.661
				c0.174-0.079,0.353-0.149,0.535-0.213l2.033-0.707c0.298-0.104,0.57-0.261,0.81-0.467l0.966-0.832
				c0.21-0.178,0.525-0.156,0.705,0.053s0.156,0.525-0.053,0.705L7.858,19.21c-0.336,0.289-0.717,0.508-1.134,0.653l-2.033,0.707
				c-0.155,0.054-0.305,0.114-0.451,0.18C4.173,20.781,4.104,20.795,4.034,20.795z"/>
		</g>
		<g>
			<path d="M19.966,20.796c-0.069,0-0.139-0.014-0.206-0.044c-0.147-0.066-0.3-0.127-0.455-0.181l-2.032-0.707
				c-0.417-0.145-0.798-0.365-1.134-0.653l-0.967-0.832c-0.209-0.18-0.233-0.496-0.053-0.705c0.18-0.208,0.495-0.233,0.705-0.053
				l0.967,0.832c0.239,0.206,0.512,0.363,0.81,0.467l2.033,0.707c0.184,0.064,0.363,0.135,0.538,0.214
				c0.251,0.113,0.363,0.41,0.25,0.661C20.338,20.687,20.156,20.796,19.966,20.796z"/>
		</g>
		<g>
			<path d="M11.998,20c-0.265,0-0.524-0.03-0.78-0.074c-0.116-0.019-0.233-0.045-0.351-0.073c-0.093-0.023-0.177-0.049-0.262-0.076
				c-1.687-0.498-3.124-1.898-3.922-3.795C6.615,15.995,6.553,16,6.498,16c-0.855,0-1.5-1.075-1.5-2.5
				c0-1.159,0.427-2.086,1.045-2.392c0.061-0.688,0.191-1.339,0.39-1.94c0.086-0.262,0.366-0.406,0.632-0.317
				c0.262,0.086,0.404,0.37,0.317,0.632c-0.205,0.621-0.328,1.308-0.365,2.042C7.004,11.791,6.784,12,6.518,12
				c-0.144,0-0.52,0.532-0.52,1.5c0,0.967,0.375,1.499,0.5,1.5c-0.002,0,0.033-0.012,0.096-0.076
				c0.123-0.124,0.298-0.177,0.468-0.136c0.17,0.039,0.307,0.162,0.362,0.327c0.633,1.866,1.932,3.251,3.475,3.707
				c0.075,0.024,0.142,0.044,0.209,0.061c0.088,0.021,0.18,0.042,0.275,0.058c0.408,0.07,0.826,0.069,1.229,0.001
				c0.097-0.016,0.19-0.037,0.284-0.06c0.061-0.015,0.127-0.036,0.195-0.057c1.549-0.458,2.849-1.843,3.482-3.709
				c0.057-0.164,0.193-0.288,0.363-0.327c0.166-0.037,0.346,0.014,0.468,0.138c0.063,0.065,0.099,0.075,0.1,0.075
				c0.118,0,0.494-0.532,0.494-1.5c0-0.968-0.376-1.5-0.5-1.5c-0.267,0-0.505-0.209-0.518-0.475
				c-0.035-0.698-0.148-1.355-0.337-1.952c-0.083-0.263,0.063-0.544,0.326-0.627c0.265-0.081,0.544,0.063,0.627,0.327
				c0.181,0.573,0.301,1.191,0.357,1.842c0.623,0.312,1.044,1.234,1.044,2.386c0,1.425-0.645,2.5-1.5,2.5
				c-0.055,0-0.117-0.005-0.185-0.018c-0.799,1.898-2.237,3.298-3.932,3.798c-0.076,0.024-0.16,0.049-0.245,0.071
				c-0.124,0.03-0.241,0.056-0.36,0.075C12.523,19.97,12.264,20,11.998,20z"/>
		</g>
		<g>
			<path d="M12,24C5.383,24,0,18.617,0,12S5.383,0,12,0s12,5.383,12,12S18.617,24,12,24z M12,1C5.935,1,1,5.935,1,12s4.935,11,11,11
				s11-4.935,11-11S18.065,1,12,1z"/>
		</g>
		<g>
			<path d="M16.23,12.5c-0.035,0-0.071-0.004-0.106-0.011c-0.14-0.031-0.26-0.12-0.33-0.245c-0.039-0.07-0.319-0.586-0.436-1.179
				c-2.173-0.152-3.996-1.371-4.523-2.267c-0.141-0.238-0.061-0.544,0.177-0.685c0.237-0.139,0.545-0.062,0.685,0.177
				c0.379,0.643,2.076,1.79,4.111,1.79c0.276,0,0.5,0.224,0.5,0.5c0,0.222,0.069,0.48,0.149,0.702
				C16.748,11.138,17.125,11,17.498,11c0.276,0,0.5,0.224,0.5,0.5s-0.224,0.5-0.5,0.5c-0.308,0-0.759,0.247-0.971,0.403
				C16.44,12.466,16.336,12.5,16.23,12.5z"/>
		</g>
		<g>
			<path d="M7.77,12.5c-0.104,0-0.209-0.033-0.296-0.096C7.26,12.248,6.807,12,6.498,12c-0.276,0-0.5-0.224-0.5-0.5
				s0.224-0.5,0.5-0.5c0.315,0,0.634,0.099,0.9,0.216c0.178-0.781,0.529-1.609,1.217-1.609c0.383,0,1.848-0.199,2.021-1.17
				c0.049-0.272,0.311-0.455,0.579-0.405c0.272,0.048,0.454,0.308,0.405,0.58c-0.281,1.584-2.143,1.971-2.931,1.995
				c-0.149,0.178-0.349,0.853-0.424,1.456c-0.022,0.176-0.136,0.326-0.298,0.396C7.904,12.486,7.837,12.5,7.77,12.5z"/>
		</g>
	</g>
</g>
<g id="Woman_Cap">
</g>
<g id="Man_3">
</g>
<g id="Woman_3">
</g>
<g id="Men_4">
</g>
<g id="Woman_4">
</g>
<g id="Business_Man_1">
</g>
<g id="Business_Woman_1">
</g>
<g id="Firefigyhter">
</g>
<g id="Policeman">
</g>
<g id="Criminal">
</g>
<g id="Prisoner">
</g>
<g id="Woodsman">
</g>
<g id="Dispatcher_1">
</g>
<g id="Dispatcher_2">
</g>
<g id="Soldier">
</g>
<g id="Astronaut">
</g>
<g id="Hipster_Guy">
</g>
<g id="Hipster_Girl">
</g>
<g id="Worker">
</g>
<g id="Old_Man">
</g>
<g id="Punk">
</g>
<g id="Diver">
</g>
<g id="Artist">
</g>
<g id="Dictator">
</g>
<g id="Man_Hat">
</g>
<g id="Woman_Hat">
</g>
<g id="Graduated_Man">
</g>
<g id="Graduated_Woman">
</g>
<g id="Avatar_Chef">
</g>
<g id="Waiter">
</g>
<g id="Waitress">
</g>
<g id="Bllboy">
</g>
<g id="Santa">
</g>
<g id="Doctor">
</g>
<g id="Nurse">
</g>
<g id="Captain">
</g>
<g id="Farmer">
</g>
<g id="Maid">
</g>
<g id="Business_Man_2">
</g>
<g id="Business_Woman_2">
</g>
<g id="Cowboy">
</g>
<g id="Anonymus">
</g>
<g id="Batman">
</g>
<g id="Superman">
</g>
<g id="Captain_America">
</g>
<g id="Darth_Vader">
</g>
<g id="Harry_Potter">
</g>
<g id="Anonymus_2">
</g>
<g id="Scream">
</g>
<g id="Jason">
</g>
<g id="Charlie_Chaplin">
</g>
</svg>
