<?xml version="1.0" encoding="iso-8859-1"?>
<!-- Generator: Adobe Illustrator 19.2.1, SVG Export Plug-In . SVG Version: 6.00 Build 0)  -->
<svg version="1.1" xmlns="http://www.w3.org/2000/svg" xmlns:xlink="http://www.w3.org/1999/xlink" x="0px" y="0px"
	 viewBox="0 0 24 24" style="enable-background:new 0 0 24 24;" xml:space="preserve">
<g id="Man_1">
</g>
<g id="Woman_1">
</g>
<g id="Man_2">
</g>
<g id="Woman_2">
</g>
<g id="Bald_Man">
</g>
<g id="Man_Glasses">
</g>
<g id="Woman_Glasses">
</g>
<g id="Man_Beard">
	<g>
		<g>
			<path d="M4.035,20.795c-0.19,0-0.373-0.11-0.456-0.295c-0.113-0.252-0.001-0.548,0.251-0.661
				c0.175-0.079,0.353-0.149,0.535-0.212l2.033-0.707c0.298-0.104,0.57-0.261,0.808-0.466l0.968-0.832
				c0.211-0.18,0.526-0.156,0.705,0.053c0.181,0.209,0.156,0.525-0.053,0.705L7.859,19.21c-0.333,0.288-0.714,0.507-1.132,0.653
				l-2.034,0.707c-0.155,0.054-0.306,0.114-0.453,0.18C4.173,20.781,4.104,20.795,4.035,20.795z"/>
		</g>
		<g>
			<path d="M19.968,20.796c-0.069,0-0.139-0.014-0.206-0.044c-0.147-0.066-0.3-0.127-0.455-0.181l-2.033-0.707
				c-0.419-0.146-0.8-0.366-1.134-0.654l-0.966-0.831c-0.209-0.18-0.233-0.496-0.053-0.705c0.18-0.208,0.496-0.233,0.705-0.053
				l0.967,0.832c0.238,0.206,0.511,0.363,0.81,0.467l2.032,0.707c0.185,0.064,0.364,0.135,0.539,0.214
				c0.251,0.113,0.363,0.41,0.25,0.661C20.34,20.687,20.158,20.796,19.968,20.796z"/>
		</g>
		<g>
			<path d="M12,24C5.383,24,0,18.617,0,12S5.383,0,12,0s12,5.383,12,12S18.617,24,12,24z M12,1C5.935,1,1,5.935,1,12s4.935,11,11,11
				s11-4.935,11-11S18.065,1,12,1z"/>
		</g>
		<g>
			<path d="M17,12.5c-0.039,0-0.078-0.004-0.116-0.014c-0.133-0.032-0.247-0.117-0.315-0.234c-0.048-0.081-0.392-0.687-0.521-1.372
				c-2.068-0.119-3.92-1.035-4.872-1.966C10.462,10.068,8.759,10.357,8,10.357c-0.13,0.105-0.402,0.941-0.504,1.708
				c-0.022,0.168-0.129,0.313-0.282,0.386c-0.155,0.073-0.334,0.062-0.479-0.027C6.545,12.306,5.952,12,5.5,12
				C5.224,12,5,11.776,5,11.5S5.224,11,5.5,11c0.396,0,0.801,0.121,1.123,0.253C6.81,10.41,7.201,9.357,8,9.357
				c0.025,0,2.5-0.071,2.5-1.643c0-0.276,0.224-0.5,0.5-0.5s0.5,0.224,0.5,0.5c0.076,0.441,2.108,2.179,5,2.179
				c0.276,0,0.5,0.224,0.5,0.5c0,0.296,0.109,0.644,0.224,0.922C17.561,11.162,18.028,11,18.5,11c0.276,0,0.5,0.224,0.5,0.5
				S18.776,12,18.5,12c-0.561,0-1.223,0.416-1.229,0.42C17.189,12.473,17.095,12.5,17,12.5z"/>
		</g>
		<g>
			<path d="M12,20c-0.241,0-0.491-0.025-0.787-0.08c-0.115-0.02-0.233-0.048-0.351-0.078c-0.094-0.025-0.179-0.053-0.264-0.082
				c-1.696-0.536-3.094-2.004-3.885-4.065C5.786,15.864,5,14.729,5,13.071c0-0.218,0.06-0.758,0.09-1.016
				C5.049,11.924,5,11.713,5,11.464C5,7.349,8.141,4,12,4c0.276,0,0.5,0.224,0.5,0.5S12.276,5,12,5c-3.309,0-6,2.9-6,6.464
				c0,0.191,0.06,0.339,0.061,0.341c0.031,0.079,0.046,0.17,0.035,0.255C6.096,12.063,6,12.84,6,13.071
				c0,1.064,0.383,1.614,0.504,1.644c0.036,0,0.098-0.02,0.127-0.052c0.12-0.131,0.299-0.19,0.477-0.151
				c0.174,0.038,0.315,0.167,0.369,0.337c0.645,2.032,1.896,3.475,3.433,3.961c0.075,0.025,0.141,0.047,0.208,0.065
				c0.085,0.021,0.178,0.044,0.271,0.061C11.593,18.974,11.794,19,12,19c0.276,0,0.5,0.224,0.5,0.5S12.276,20,12,20z"/>
		</g>
		<g>
			<path d="M12,20c-0.276,0-0.5-0.224-0.5-0.5S11.724,19,12,19c0.206,0,0.407-0.026,0.605-0.063c0.1-0.017,0.192-0.04,0.284-0.063
				c0.061-0.017,0.126-0.039,0.191-0.061c1.547-0.489,2.798-1.933,3.442-3.964c0.054-0.17,0.195-0.299,0.369-0.337
				c0.181-0.038,0.356,0.02,0.477,0.151c0.029,0.032,0.091,0.051,0.131,0.051c0.117-0.029,0.5-0.579,0.5-1.643
				c0-0.231-0.096-1.011-0.096-1.011c-0.012-0.089,0.002-0.178,0.038-0.26l0,0C17.941,11.8,18,11.653,18,11.464
				C18,7.9,15.309,5,12,5c-0.276,0-0.5-0.224-0.5-0.5S11.724,4,12,4c3.859,0,7,3.349,7,7.464c0,0.249-0.049,0.459-0.09,0.591
				c0.03,0.257,0.09,0.797,0.09,1.016c0,1.658-0.787,2.793-1.714,2.624c-0.792,2.061-2.189,3.529-3.895,4.068
				c-0.075,0.026-0.16,0.054-0.247,0.077c-0.124,0.032-0.242,0.06-0.363,0.081C12.491,19.975,12.241,20,12,20z"/>
		</g>
		<g>
			<path d="M10.5,13h-1C9.224,13,9,12.776,9,12.5S9.224,12,9.5,12h1c0.276,0,0.5,0.224,0.5,0.5S10.776,13,10.5,13z"/>
		</g>
		<g>
			<path d="M14.5,13h-1c-0.276,0-0.5-0.224-0.5-0.5s0.224-0.5,0.5-0.5h1c0.276,0,0.5,0.224,0.5,0.5S14.776,13,14.5,13z"/>
		</g>
		<g>
			<path d="M9.398,16c-1.013,0-1.599-0.017-2.631-0.557c-0.244-0.128-0.339-0.43-0.211-0.675c0.13-0.244,0.431-0.338,0.676-0.211
				C8.079,15,8.47,14.999,9.401,15c0.518,0,0.799-0.099,1.124-0.213C10.907,14.652,11.34,14.5,12,14.5c0.276,0,0.5,0.224,0.5,0.5
				s-0.224,0.5-0.5,0.5c-0.489,0-0.792,0.106-1.143,0.23C10.478,15.864,10.003,15.995,9.398,16z"/>
		</g>
		<g>
			<path d="M14.5,16c-0.59,0-0.998-0.144-1.357-0.27C12.792,15.606,12.489,15.5,12,15.5c-0.276,0-0.5-0.224-0.5-0.5
				s0.224-0.5,0.5-0.5c0.66,0,1.093,0.152,1.475,0.287C13.8,14.901,14.081,15,14.5,15c0.978,0,1.382,0,2.276-0.447
				c0.248-0.123,0.547-0.024,0.671,0.224c0.123,0.247,0.023,0.547-0.224,0.671C16.118,16,15.543,16,14.5,16z"/>
		</g>
		<g>
			<path d="M12.5,17h-1c-0.276,0-0.5-0.224-0.5-0.5s0.224-0.5,0.5-0.5h1c0.276,0,0.5,0.224,0.5,0.5S12.776,17,12.5,17z"/>
		</g>
	</g>
</g>
<g id="Man_Cap">
</g>
<g id="Woman_Cap">
</g>
<g id="Man_3">
</g>
<g id="Woman_3">
</g>
<g id="Men_4">
</g>
<g id="Woman_4">
</g>
<g id="Business_Man_1">
</g>
<g id="Business_Woman_1">
</g>
<g id="Firefigyhter">
</g>
<g id="Policeman">
</g>
<g id="Criminal">
</g>
<g id="Prisoner">
</g>
<g id="Woodsman">
</g>
<g id="Dispatcher_1">
</g>
<g id="Dispatcher_2">
</g>
<g id="Soldier">
</g>
<g id="Astronaut">
</g>
<g id="Hipster_Guy">
</g>
<g id="Hipster_Girl">
</g>
<g id="Worker">
</g>
<g id="Old_Man">
</g>
<g id="Punk">
</g>
<g id="Diver">
</g>
<g id="Artist">
</g>
<g id="Dictator">
</g>
<g id="Man_Hat">
</g>
<g id="Woman_Hat">
</g>
<g id="Graduated_Man">
</g>
<g id="Graduated_Woman">
</g>
<g id="Avatar_Chef">
</g>
<g id="Waiter">
</g>
<g id="Waitress">
</g>
<g id="Bllboy">
</g>
<g id="Santa">
</g>
<g id="Doctor">
</g>
<g id="Nurse">
</g>
<g id="Captain">
</g>
<g id="Farmer">
</g>
<g id="Maid">
</g>
<g id="Business_Man_2">
</g>
<g id="Business_Woman_2">
</g>
<g id="Cowboy">
</g>
<g id="Anonymus">
</g>
<g id="Batman">
</g>
<g id="Superman">
</g>
<g id="Captain_America">
</g>
<g id="Darth_Vader">
</g>
<g id="Harry_Potter">
</g>
<g id="Anonymus_2">
</g>
<g id="Scream">
</g>
<g id="Jason">
</g>
<g id="Charlie_Chaplin">
</g>
</svg>
