<?xml version="1.0" encoding="iso-8859-1"?>
<!-- Generator: Adobe Illustrator 19.2.1, SVG Export Plug-In . SVG Version: 6.00 Build 0)  -->
<svg version="1.1" xmlns="http://www.w3.org/2000/svg" xmlns:xlink="http://www.w3.org/1999/xlink" x="0px" y="0px"
	 viewBox="0 0 24 24" style="enable-background:new 0 0 24 24;" xml:space="preserve">
<g id="Man_1">
</g>
<g id="Woman_1">
</g>
<g id="Man_2">
</g>
<g id="Woman_2">
</g>
<g id="Bald_Man">
</g>
<g id="Man_Glasses">
</g>
<g id="Woman_Glasses">
</g>
<g id="Man_Beard">
</g>
<g id="Man_Cap">
</g>
<g id="Woman_Cap">
</g>
<g id="Man_3">
</g>
<g id="Woman_3">
</g>
<g id="Men_4">
</g>
<g id="Woman_4">
</g>
<g id="Business_Man_1">
</g>
<g id="Business_Woman_1">
</g>
<g id="Firefigyhter">
</g>
<g id="Policeman">
</g>
<g id="Criminal">
</g>
<g id="Prisoner">
</g>
<g id="Woodsman">
</g>
<g id="Dispatcher_1">
</g>
<g id="Dispatcher_2">
</g>
<g id="Soldier">
</g>
<g id="Astronaut">
</g>
<g id="Hipster_Guy">
</g>
<g id="Hipster_Girl">
</g>
<g id="Worker">
</g>
<g id="Old_Man">
</g>
<g id="Punk">
</g>
<g id="Diver">
</g>
<g id="Artist">
</g>
<g id="Dictator">
</g>
<g id="Man_Hat">
	<g>
		<g>
			<path d="M4.034,20.795c-0.191,0-0.373-0.109-0.457-0.295c-0.113-0.252-0.001-0.548,0.251-0.661
				c0.174-0.078,0.352-0.149,0.535-0.213l2.033-0.707c0.298-0.104,0.571-0.261,0.809-0.466l0.967-0.832
				c0.208-0.181,0.524-0.158,0.705,0.053c0.18,0.209,0.157,0.525-0.053,0.705l-0.967,0.832c-0.333,0.287-0.715,0.507-1.133,0.652
				l-2.034,0.708c-0.154,0.054-0.305,0.113-0.453,0.18C4.172,20.781,4.103,20.795,4.034,20.795z"/>
		</g>
		<g>
			<path d="M19.966,20.797c-0.069,0-0.139-0.015-0.206-0.045c-0.147-0.066-0.298-0.127-0.454-0.181l-2.034-0.707
				c-0.418-0.146-0.8-0.366-1.133-0.653l-0.966-0.832c-0.209-0.181-0.233-0.496-0.053-0.705c0.181-0.211,0.497-0.233,0.705-0.053
				l0.966,0.832c0.238,0.205,0.511,0.362,0.81,0.467l2.033,0.706c0.184,0.063,0.364,0.136,0.54,0.216
				c0.251,0.113,0.363,0.41,0.249,0.661C20.338,20.688,20.156,20.797,19.966,20.797z"/>
		</g>
		<g>
			<path d="M11.999,20c-0.266,0-0.525-0.029-0.781-0.073c-0.116-0.02-0.233-0.045-0.351-0.073c-0.093-0.024-0.179-0.05-0.264-0.077
				c-1.683-0.497-3.121-1.897-3.919-3.795C6.616,15.995,6.553,16,6.499,16c-0.855,0-1.5-1.075-1.5-2.5
				c0-1.158,0.426-2.085,1.044-2.392c0.035-0.396,0.093-0.783,0.174-1.153c0.059-0.27,0.327-0.438,0.596-0.381
				c0.27,0.06,0.44,0.326,0.381,0.596C7.1,10.6,7.04,11.056,7.017,11.525C7.003,11.791,6.784,12,6.517,12
				c-0.143,0-0.519,0.532-0.519,1.5c0,0.967,0.375,1.499,0.5,1.5c-0.002,0,0.033-0.013,0.095-0.075
				c0.122-0.124,0.299-0.177,0.468-0.137c0.169,0.038,0.306,0.162,0.362,0.326c0.634,1.866,1.934,3.252,3.476,3.707
				c0.078,0.025,0.143,0.045,0.209,0.062c0.087,0.021,0.18,0.042,0.274,0.058c0.409,0.068,0.826,0.068,1.228,0
				c0.099-0.016,0.191-0.037,0.284-0.06c0.061-0.015,0.126-0.034,0.191-0.056c1.555-0.459,2.854-1.845,3.488-3.711
				c0.056-0.164,0.193-0.288,0.362-0.326c0.17-0.04,0.347,0.013,0.468,0.137C17.468,14.99,17.503,15,17.504,15
				c0.119,0,0.495-0.532,0.495-1.5s-0.375-1.5-0.5-1.5c-0.267,0-0.505-0.209-0.519-0.475c-0.023-0.472-0.083-0.928-0.177-1.354
				c-0.06-0.27,0.111-0.536,0.38-0.596c0.271-0.06,0.536,0.111,0.596,0.381c0.082,0.37,0.14,0.758,0.175,1.157
				c0.623,0.312,1.044,1.234,1.044,2.387c0,1.425-0.645,2.5-1.5,2.5c-0.055,0-0.117-0.005-0.186-0.019
				c-0.798,1.897-2.237,3.298-3.932,3.799c-0.073,0.023-0.159,0.049-0.246,0.071c-0.123,0.03-0.24,0.056-0.36,0.075
				C12.523,19.971,12.263,20,11.999,20z"/>
		</g>
		<g>
			<path d="M12,24C5.383,24,0,18.617,0,12S5.383,0,12,0s12,5.383,12,12S18.617,24,12,24z M12,1C5.935,1,1,5.935,1,12s4.935,11,11,11
				s11-4.935,11-11S18.065,1,12,1z"/>
		</g>
		<g>
			<path d="M16.5,8.988L16.5,8.988c-0.276,0-0.5-0.212-0.5-0.488c0-1.054,0-1.944-0.457-2.528C15.032,5.318,13.873,5,12,5
				S8.968,5.318,8.457,5.972C8,6.556,8,7.446,8,8.478L7.5,8.5L7,8.478c0-1.165,0-2.267,0.668-3.121C8.392,4.431,9.768,4,12,4
				s3.608,0.431,4.332,1.356C17,6.211,17,7.313,17,8.478C17,8.753,16.776,8.988,16.5,8.988z"/>
		</g>
		<g>
			<path d="M12,11c-0.819,0-8-0.056-8-2c0-0.505,0.356-1.229,3.432-1.692c0.276-0.042,0.528,0.147,0.569,0.42
				C8.042,8,7.854,8.255,7.581,8.296c-1.596,0.241-2.29,0.545-2.518,0.708C5.562,9.383,7.902,10,12,10s6.438-0.617,6.937-0.996
				c-0.228-0.163-0.921-0.467-2.517-0.707c-0.273-0.041-0.461-0.295-0.42-0.568c0.042-0.272,0.297-0.461,0.569-0.42
				C19.644,7.771,20,8.495,20,9C20,10.944,12.819,11,12,11z"/>
		</g>
		<g>
			<path d="M10.5,13h-1C9.224,13,9,12.776,9,12.5S9.224,12,9.5,12h1c0.276,0,0.5,0.224,0.5,0.5S10.776,13,10.5,13z"/>
		</g>
		<g>
			<path d="M14.5,13h-1c-0.276,0-0.5-0.224-0.5-0.5s0.224-0.5,0.5-0.5h1c0.276,0,0.5,0.224,0.5,0.5S14.776,13,14.5,13z"/>
		</g>
	</g>
</g>
<g id="Woman_Hat">
</g>
<g id="Graduated_Man">
</g>
<g id="Graduated_Woman">
</g>
<g id="Avatar_Chef">
</g>
<g id="Waiter">
</g>
<g id="Waitress">
</g>
<g id="Bllboy">
</g>
<g id="Santa">
</g>
<g id="Doctor">
</g>
<g id="Nurse">
</g>
<g id="Captain">
</g>
<g id="Farmer">
</g>
<g id="Maid">
</g>
<g id="Business_Man_2">
</g>
<g id="Business_Woman_2">
</g>
<g id="Cowboy">
</g>
<g id="Anonymus">
</g>
<g id="Batman">
</g>
<g id="Superman">
</g>
<g id="Captain_America">
</g>
<g id="Darth_Vader">
</g>
<g id="Harry_Potter">
</g>
<g id="Anonymus_2">
</g>
<g id="Scream">
</g>
<g id="Jason">
</g>
<g id="Charlie_Chaplin">
</g>
</svg>
