<?xml version="1.0" encoding="iso-8859-1"?>
<!-- Generator: Adobe Illustrator 19.2.1, SVG Export Plug-In . SVG Version: 6.00 Build 0)  -->
<svg version="1.1" xmlns="http://www.w3.org/2000/svg" xmlns:xlink="http://www.w3.org/1999/xlink" x="0px" y="0px"
	 viewBox="0 0 24 24" style="enable-background:new 0 0 24 24;" xml:space="preserve">
<g id="Man_1">
	<g>
		<g>
			<path d="M12,24C5.383,24,0,18.617,0,12S5.383,0,12,0s12,5.383,12,12S18.617,24,12,24z M12,1C5.935,1,1,5.935,1,12s4.935,11,11,11
				s11-4.935,11-11S18.065,1,12,1z"/>
		</g>
		<g>
			<path d="M20,20.796c-0.068,0-0.138-0.014-0.205-0.044c-0.148-0.067-0.301-0.127-0.456-0.182l-2.033-0.707
				c-0.365-0.127-2.583-1.2-3.024-1.414c-0.137-0.066-0.236-0.191-0.27-0.339c-0.033-0.148,0.002-0.304,0.097-0.422
				c0.772-0.969,1.581-2.438,1.966-3.574c0.056-0.164,0.193-0.288,0.363-0.327c0.169-0.037,0.347,0.014,0.468,0.138
				C16.97,13.991,17.005,14,17.006,14c0.119,0,0.494-0.533,0.494-1.5c0-1.018-0.386-1.5-0.481-1.5c-0.267,0-0.504-0.209-0.518-0.475
				C16.324,7.014,14.684,5,12,5c-2.672,0-4.306,2.014-4.482,5.525C7.504,10.791,7.285,11,7.019,11C6.875,11,6.5,11.532,6.5,12.5
				c0,0.967,0.375,1.499,0.5,1.5c-0.002,0,0.033-0.012,0.094-0.074c0.122-0.124,0.302-0.175,0.468-0.138
				c0.169,0.039,0.307,0.163,0.363,0.327c0.428,1.259,1.196,2.658,1.958,3.564c0.099,0.117,0.138,0.273,0.107,0.424
				c-0.031,0.15-0.13,0.277-0.267,0.346c-0.431,0.214-2.597,1.288-2.964,1.416l-2.034,0.707c-0.154,0.054-0.305,0.114-0.453,0.18
				c-0.252,0.112-0.548,0-0.661-0.251c-0.113-0.252-0.001-0.548,0.251-0.661c0.174-0.078,0.352-0.149,0.535-0.212l2.033-0.707
				c0.196-0.069,1.353-0.629,2.298-1.096c-0.595-0.817-1.15-1.835-1.549-2.841C7.114,14.996,7.053,15,7,15
				c-0.855,0-1.5-1.075-1.5-2.5c0-1.157,0.425-2.083,1.043-2.391C6.849,6.275,8.87,4,12,4c3.142,0,5.17,2.276,5.476,6.112
				C18.094,10.42,18.5,11.331,18.5,12.5c0,1.425-0.645,2.5-1.5,2.5c-0.054,0-0.116-0.005-0.183-0.018
				c-0.383,0.942-0.954,1.981-1.554,2.831c0.973,0.468,2.171,1.037,2.371,1.106l2.033,0.707c0.184,0.064,0.363,0.135,0.538,0.214
				c0.252,0.113,0.364,0.41,0.251,0.661C20.373,20.687,20.19,20.796,20,20.796z"/>
		</g>
	</g>
</g>
<g id="Woman_1">
</g>
<g id="Man_2">
</g>
<g id="Woman_2">
</g>
<g id="Bald_Man">
</g>
<g id="Man_Glasses">
</g>
<g id="Woman_Glasses">
</g>
<g id="Man_Beard">
</g>
<g id="Man_Cap">
</g>
<g id="Woman_Cap">
</g>
<g id="Man_3">
</g>
<g id="Woman_3">
</g>
<g id="Men_4">
</g>
<g id="Woman_4">
</g>
<g id="Business_Man_1">
</g>
<g id="Business_Woman_1">
</g>
<g id="Firefigyhter">
</g>
<g id="Policeman">
</g>
<g id="Criminal">
</g>
<g id="Prisoner">
</g>
<g id="Woodsman">
</g>
<g id="Dispatcher_1">
</g>
<g id="Dispatcher_2">
</g>
<g id="Soldier">
</g>
<g id="Astronaut">
</g>
<g id="Hipster_Guy">
</g>
<g id="Hipster_Girl">
</g>
<g id="Worker">
</g>
<g id="Old_Man">
</g>
<g id="Punk">
</g>
<g id="Diver">
</g>
<g id="Artist">
</g>
<g id="Dictator">
</g>
<g id="Man_Hat">
</g>
<g id="Woman_Hat">
</g>
<g id="Graduated_Man">
</g>
<g id="Graduated_Woman">
</g>
<g id="Avatar_Chef">
</g>
<g id="Waiter">
</g>
<g id="Waitress">
</g>
<g id="Bllboy">
</g>
<g id="Santa">
</g>
<g id="Doctor">
</g>
<g id="Nurse">
</g>
<g id="Captain">
</g>
<g id="Farmer">
</g>
<g id="Maid">
</g>
<g id="Business_Man_2">
</g>
<g id="Business_Woman_2">
</g>
<g id="Cowboy">
</g>
<g id="Anonymus">
</g>
<g id="Batman">
</g>
<g id="Superman">
</g>
<g id="Captain_America">
</g>
<g id="Darth_Vader">
</g>
<g id="Harry_Potter">
</g>
<g id="Anonymus_2">
</g>
<g id="Scream">
</g>
<g id="Jason">
</g>
<g id="Charlie_Chaplin">
</g>
</svg>
