<?xml version="1.0" encoding="iso-8859-1"?>
<!-- Generator: Adobe Illustrator 19.2.1, SVG Export Plug-In . SVG Version: 6.00 Build 0)  -->
<svg version="1.1" xmlns="http://www.w3.org/2000/svg" xmlns:xlink="http://www.w3.org/1999/xlink" x="0px" y="0px"
	 viewBox="0 0 24 24" style="enable-background:new 0 0 24 24;" xml:space="preserve">
<g id="Man_1">
</g>
<g id="Woman_1">
</g>
<g id="Man_2">
</g>
<g id="Woman_2">
</g>
<g id="Bald_Man">
</g>
<g id="Man_Glasses">
	<g>
		<g>
			<path d="M4.035,20.795c-0.19,0-0.373-0.11-0.456-0.295c-0.113-0.252-0.001-0.548,0.251-0.661
				c0.175-0.079,0.353-0.149,0.535-0.212l2.033-0.707c0.298-0.104,0.57-0.261,0.808-0.466l0.968-0.832
				c0.211-0.18,0.526-0.156,0.705,0.053c0.181,0.209,0.156,0.525-0.053,0.705L7.859,19.21c-0.333,0.288-0.714,0.507-1.132,0.653
				l-2.034,0.707c-0.155,0.054-0.306,0.114-0.453,0.18C4.173,20.781,4.104,20.795,4.035,20.795z"/>
		</g>
		<g>
			<path d="M19.968,20.796c-0.069,0-0.139-0.014-0.206-0.044c-0.147-0.066-0.3-0.127-0.455-0.181l-2.033-0.707
				c-0.419-0.146-0.8-0.366-1.134-0.654l-0.966-0.831c-0.209-0.18-0.233-0.496-0.053-0.705c0.18-0.208,0.495-0.233,0.705-0.053
				l0.967,0.832c0.238,0.206,0.511,0.363,0.81,0.467l2.032,0.707c0.185,0.064,0.364,0.135,0.539,0.214
				c0.251,0.113,0.363,0.41,0.25,0.661C20.34,20.687,20.158,20.796,19.968,20.796z"/>
		</g>
		<g>
			<path d="M12,24C5.383,24,0,18.617,0,12S5.383,0,12,0s12,5.383,12,12S18.617,24,12,24z M12,1C5.935,1,1,5.935,1,12s4.935,11,11,11
				s11-4.935,11-11S18.065,1,12,1z"/>
		</g>
		<g>
			<path d="M7.001,12.5c-0.022,0-0.044-0.001-0.066-0.004c-0.273-0.036-0.466-0.287-0.431-0.561C6.606,11.16,6.955,9.357,8,9.357
				c0.025,0,2.5-0.071,2.5-1.643c0-0.276,0.224-0.5,0.5-0.5s0.5,0.224,0.5,0.5c0.076,0.441,2.108,2.179,5,2.179
				c0.276,0,0.5,0.224,0.5,0.5c0,0.5,0.313,1.148,0.433,1.355c0.138,0.239,0.057,0.545-0.182,0.684
				c-0.24,0.138-0.544,0.057-0.683-0.18c-0.048-0.081-0.392-0.687-0.521-1.372c-2.068-0.119-3.92-1.035-4.872-1.966
				C10.462,10.068,8.759,10.357,8,10.357c-0.13,0.105-0.402,0.941-0.504,1.708C7.463,12.317,7.248,12.5,7.001,12.5z"/>
		</g>
		<g>
			<path d="M12,20c-0.241,0-0.491-0.025-0.787-0.08c-0.115-0.02-0.233-0.048-0.351-0.078c-0.094-0.025-0.179-0.053-0.264-0.082
				c-1.688-0.534-3.126-2.033-3.922-4.063C6.612,15.71,6.553,15.714,6.5,15.714c-0.869,0-1.5-1.111-1.5-2.643
				c0-0.218,0.06-0.758,0.09-1.016C5.049,11.924,5,11.713,5,11.464C5,7.349,8.141,4,12,4c0.276,0,0.5,0.224,0.5,0.5S12.276,5,12,5
				c-3.309,0-6,2.9-6,6.464c0,0.191,0.06,0.339,0.061,0.341c0.031,0.079,0.046,0.17,0.035,0.255C6.096,12.063,6,12.84,6,13.071
				c0,1.063,0.382,1.613,0.504,1.644c-0.008-0.002,0.027-0.023,0.078-0.078c0.12-0.132,0.298-0.19,0.477-0.151
				c0.174,0.038,0.315,0.167,0.369,0.337c0.638,2.009,1.939,3.5,3.481,3.988c0.075,0.025,0.141,0.047,0.208,0.065
				c0.085,0.021,0.178,0.044,0.271,0.061C11.593,18.974,11.794,19,12,19c0.276,0,0.5,0.224,0.5,0.5S12.276,20,12,20z M6.504,14.715
				h0.01H6.504z"/>
		</g>
		<g>
			<path d="M12,20c-0.276,0-0.5-0.224-0.5-0.5S11.724,19,12,19c0.206,0,0.407-0.026,0.605-0.063c0.1-0.017,0.192-0.04,0.284-0.063
				c0.061-0.017,0.126-0.039,0.191-0.061c1.552-0.491,2.854-1.981,3.491-3.991c0.054-0.17,0.195-0.299,0.369-0.337
				c0.179-0.038,0.356,0.02,0.477,0.151c0.052,0.056,0.087,0.076,0.097,0.08C17.617,14.686,18,14.135,18,13.071
				c0-0.231-0.096-1.011-0.096-1.011c-0.012-0.089,0.002-0.178,0.038-0.26l0,0C17.941,11.8,18,11.653,18,11.464
				C18,7.9,15.309,5,12,5c-0.276,0-0.5-0.224-0.5-0.5S11.724,4,12,4c3.859,0,7,3.349,7,7.464c0,0.249-0.049,0.459-0.09,0.591
				c0.03,0.257,0.09,0.797,0.09,1.016c0,1.532-0.631,2.643-1.5,2.643c-0.053,0-0.112-0.004-0.177-0.017
				c-0.796,2.03-2.234,3.53-3.932,4.066c-0.075,0.026-0.16,0.054-0.247,0.077c-0.124,0.032-0.242,0.06-0.363,0.081
				C12.491,19.975,12.241,20,12,20z"/>
		</g>
		<g>
			<path d="M10,14c-1.121,0-2-0.659-2-1.5S8.879,11,10,11s2,0.659,2,1.5S11.121,14,10,14z M10,12c-0.602,0-1,0.301-1,0.5
				S9.398,13,10,13s1-0.301,1-0.5S10.602,12,10,12z"/>
		</g>
		<g>
			<path d="M14,14c-1.121,0-2-0.659-2-1.5s0.879-1.5,2-1.5s2,0.659,2,1.5S15.121,14,14,14z M14,12c-0.602,0-1,0.301-1,0.5
				s0.398,0.5,1,0.5s1-0.301,1-0.5S14.602,12,14,12z"/>
		</g>
		<g>
			<path d="M11.5,13c-0.185,0-0.363-0.104-0.449-0.281c-0.121-0.249-0.018-0.547,0.23-0.668c0.074-0.035,0.746-0.341,1.44,0.001
				c0.247,0.122,0.349,0.422,0.227,0.67c-0.122,0.249-0.426,0.348-0.67,0.227c-0.256-0.128-0.557,0.001-0.56,0.001
				C11.648,12.984,11.574,13,11.5,13z"/>
		</g>
		<g>
			<path d="M15.5,13c-0.207,0-0.401-0.13-0.473-0.337c-0.09-0.261,0.049-0.545,0.31-0.636l3-1.036c0.26-0.09,0.546,0.049,0.636,0.31
				s-0.049,0.545-0.31,0.636l-3,1.036C15.609,12.991,15.554,13,15.5,13z"/>
		</g>
		<g>
			<path d="M8.5,13c-0.054,0-0.109-0.009-0.163-0.027l-3-1.036c-0.261-0.09-0.399-0.375-0.31-0.636
				c0.09-0.26,0.377-0.398,0.636-0.31l3,1.036c0.261,0.09,0.399,0.375,0.31,0.636C8.901,12.87,8.707,13,8.5,13z"/>
		</g>
	</g>
</g>
<g id="Woman_Glasses">
</g>
<g id="Man_Beard">
</g>
<g id="Man_Cap">
</g>
<g id="Woman_Cap">
</g>
<g id="Man_3">
</g>
<g id="Woman_3">
</g>
<g id="Men_4">
</g>
<g id="Woman_4">
</g>
<g id="Business_Man_1">
</g>
<g id="Business_Woman_1">
</g>
<g id="Firefigyhter">
</g>
<g id="Policeman">
</g>
<g id="Criminal">
</g>
<g id="Prisoner">
</g>
<g id="Woodsman">
</g>
<g id="Dispatcher_1">
</g>
<g id="Dispatcher_2">
</g>
<g id="Soldier">
</g>
<g id="Astronaut">
</g>
<g id="Hipster_Guy">
</g>
<g id="Hipster_Girl">
</g>
<g id="Worker">
</g>
<g id="Old_Man">
</g>
<g id="Punk">
</g>
<g id="Diver">
</g>
<g id="Artist">
</g>
<g id="Dictator">
</g>
<g id="Man_Hat">
</g>
<g id="Woman_Hat">
</g>
<g id="Graduated_Man">
</g>
<g id="Graduated_Woman">
</g>
<g id="Avatar_Chef">
</g>
<g id="Waiter">
</g>
<g id="Waitress">
</g>
<g id="Bllboy">
</g>
<g id="Santa">
</g>
<g id="Doctor">
</g>
<g id="Nurse">
</g>
<g id="Captain">
</g>
<g id="Farmer">
</g>
<g id="Maid">
</g>
<g id="Business_Man_2">
</g>
<g id="Business_Woman_2">
</g>
<g id="Cowboy">
</g>
<g id="Anonymus">
</g>
<g id="Batman">
</g>
<g id="Superman">
</g>
<g id="Captain_America">
</g>
<g id="Darth_Vader">
</g>
<g id="Harry_Potter">
</g>
<g id="Anonymus_2">
</g>
<g id="Scream">
</g>
<g id="Jason">
</g>
<g id="Charlie_Chaplin">
</g>
</svg>
