<?xml version="1.0" encoding="iso-8859-1"?>
<!-- Generator: Adobe Illustrator 19.2.1, SVG Export Plug-In . SVG Version: 6.00 Build 0)  -->
<svg version="1.1" xmlns="http://www.w3.org/2000/svg" xmlns:xlink="http://www.w3.org/1999/xlink" x="0px" y="0px"
	 viewBox="0 0 24 24" style="enable-background:new 0 0 24 24;" xml:space="preserve">
<g id="Man_1">
</g>
<g id="Woman_1">
</g>
<g id="Man_2">
</g>
<g id="Woman_2">
</g>
<g id="Bald_Man">
</g>
<g id="Man_Glasses">
</g>
<g id="Woman_Glasses">
</g>
<g id="Man_Beard">
</g>
<g id="Man_Cap">
</g>
<g id="Woman_Cap">
</g>
<g id="Man_3">
</g>
<g id="Woman_3">
</g>
<g id="Men_4">
	<g>
		<g>
			<path d="M12,24C5.383,24,0,18.617,0,12S5.383,0,12,0s12,5.383,12,12S18.617,24,12,24z M12,1C5.935,1,1,5.935,1,12s4.935,11,11,11
				s11-4.935,11-11S18.065,1,12,1z"/>
		</g>
		<g>
			<path d="M17,12.5c-0.162,0-0.32-0.078-0.417-0.223C16.524,12.188,16,11.376,16,10.5c0-0.276,0.224-0.5,0.5-0.5s0.5,0.224,0.5,0.5
				c0,0.29,0.102,0.592,0.205,0.824C17.543,11.168,18.02,11,18.5,11c0.276,0,0.5,0.224,0.5,0.5S18.776,12,18.5,12
				c-0.561,0-1.223,0.416-1.229,0.42C17.187,12.474,17.093,12.5,17,12.5z"/>
		</g>
		<g>
			<path d="M7,12.5c-0.092,0-0.184-0.025-0.264-0.075C6.545,12.306,5.952,12,5.5,12C5.224,12,5,11.776,5,11.5S5.224,11,5.5,11
				c0.449,0,0.907,0.155,1.245,0.305C7.178,10.33,8.15,8.541,9.458,8.541c0.276,0,0.5,0.224,0.5,0.5s-0.224,0.5-0.5,0.5
				c-0.686,0-1.593,1.572-1.99,2.634c-0.052,0.141-0.166,0.25-0.307,0.298C7.109,12.491,7.054,12.5,7,12.5z"/>
		</g>
		<g>
			<path d="M12,20c-0.241,0-0.491-0.025-0.787-0.08c-0.115-0.02-0.232-0.048-0.351-0.078c-0.094-0.025-0.178-0.053-0.263-0.082
				c-1.688-0.534-3.126-2.033-3.922-4.063C6.613,15.71,6.553,15.714,6.5,15.714c-0.869,0-1.5-1.111-1.5-2.643
				c0-0.218,0.06-0.758,0.09-1.015C5.049,11.924,5,11.713,5,11.464C5,7.349,8.14,4,12,4c0.276,0,0.5,0.224,0.5,0.5S12.276,5,12,5
				c-3.309,0-6,2.9-6,6.464c0,0.191,0.06,0.339,0.061,0.34c0.032,0.079,0.046,0.171,0.036,0.255C6.096,12.063,6,12.84,6,13.071
				c0,1.003,0.353,1.606,0.504,1.644c-0.008-0.002,0.027-0.023,0.078-0.078c0.12-0.132,0.302-0.192,0.477-0.151
				c0.175,0.038,0.315,0.167,0.37,0.337c0.638,2.009,1.939,3.5,3.481,3.988c0.075,0.025,0.141,0.047,0.209,0.065
				c0.084,0.021,0.176,0.044,0.271,0.061C11.593,18.974,11.794,19,12,19c0.276,0,0.5,0.224,0.5,0.5S12.276,20,12,20z M6.504,14.715
				h0.01H6.504z"/>
		</g>
		<g>
			<path d="M12,20c-0.276,0-0.5-0.224-0.5-0.5S11.724,19,12,19c0.206,0,0.407-0.026,0.606-0.063c0.099-0.017,0.191-0.04,0.284-0.063
				c0.059-0.017,0.125-0.039,0.192-0.061c1.551-0.491,2.852-1.981,3.489-3.99c0.054-0.17,0.194-0.298,0.369-0.337
				c0.174-0.039,0.355,0.019,0.477,0.151c0.051,0.056,0.087,0.077,0.096,0.08C17.646,14.678,18,14.075,18,13.071
				c0-0.231-0.096-1.008-0.097-1.011c-0.011-0.089,0.003-0.179,0.039-0.261l0,0c0,0,0.058-0.146,0.058-0.335C18,7.9,15.309,5,12,5
				c-0.276,0-0.5-0.224-0.5-0.5S11.724,4,12,4c3.86,0,7,3.349,7,7.464c0,0.249-0.049,0.459-0.09,0.592
				c0.03,0.257,0.09,0.797,0.09,1.015c0,1.532-0.631,2.643-1.5,2.643c-0.053,0-0.113-0.004-0.178-0.017
				c-0.794,2.03-2.233,3.529-3.93,4.066c-0.077,0.026-0.161,0.054-0.247,0.077c-0.126,0.032-0.244,0.06-0.364,0.081
				C12.491,19.975,12.241,20,12,20z"/>
		</g>
		<g>
			<path d="M10.5,13h-1C9.224,13,9,12.776,9,12.5S9.224,12,9.5,12h1c0.276,0,0.5,0.224,0.5,0.5S10.776,13,10.5,13z"/>
		</g>
		<g>
			<path d="M14.5,13h-1c-0.276,0-0.5-0.224-0.5-0.5s0.224-0.5,0.5-0.5h1c0.276,0,0.5,0.224,0.5,0.5S14.776,13,14.5,13z"/>
		</g>
		<g>
			<path d="M17,11h-5.43c-0.838,0-1.615-0.416-2.08-1.113L8.084,7.777c-0.153-0.23-0.091-0.54,0.139-0.693
				c0.229-0.153,0.54-0.091,0.693,0.139l1.406,2.109C10.601,9.75,11.068,10,11.57,10H17c0.276,0,0.5,0.224,0.5,0.5S17.276,11,17,11z
				"/>
		</g>
		<g>
			<path d="M17,11c-0.838,0-1.615-0.416-2.08-1.113l-1.406-2.109c-0.153-0.23-0.091-0.54,0.139-0.693
				c0.23-0.153,0.541-0.091,0.693,0.139l1.406,2.109C16.031,9.75,16.498,10,17,10c0.276,0,0.5,0.224,0.5,0.5S17.276,11,17,11z"/>
		</g>
		<g>
			<path d="M4.038,20.795c-0.191,0-0.373-0.109-0.456-0.294c-0.114-0.251-0.002-0.548,0.25-0.661
				c0.173-0.079,0.352-0.149,0.535-0.213l2.033-0.707c0.297-0.104,0.57-0.261,0.81-0.467l0.966-0.832
				c0.208-0.18,0.525-0.157,0.705,0.053c0.18,0.209,0.157,0.525-0.053,0.705L7.861,19.21c-0.335,0.289-0.717,0.508-1.133,0.653
				l-2.034,0.707c-0.154,0.054-0.305,0.114-0.452,0.18C4.176,20.781,4.106,20.795,4.038,20.795z"/>
		</g>
		<g>
			<path d="M19.969,20.796c-0.068,0-0.139-0.014-0.205-0.044c-0.148-0.066-0.3-0.127-0.456-0.181l-2.033-0.707
				c-0.417-0.145-0.798-0.365-1.134-0.653l-0.966-0.832c-0.209-0.18-0.233-0.496-0.053-0.705c0.18-0.21,0.496-0.233,0.705-0.053
				l0.966,0.832c0.24,0.206,0.512,0.363,0.81,0.467l2.033,0.707c0.184,0.064,0.364,0.135,0.538,0.214
				c0.252,0.113,0.364,0.41,0.25,0.661C20.341,20.687,20.16,20.796,19.969,20.796z"/>
		</g>
	</g>
</g>
<g id="Woman_4">
</g>
<g id="Business_Man_1">
</g>
<g id="Business_Woman_1">
</g>
<g id="Firefigyhter">
</g>
<g id="Policeman">
</g>
<g id="Criminal">
</g>
<g id="Prisoner">
</g>
<g id="Woodsman">
</g>
<g id="Dispatcher_1">
</g>
<g id="Dispatcher_2">
</g>
<g id="Soldier">
</g>
<g id="Astronaut">
</g>
<g id="Hipster_Guy">
</g>
<g id="Hipster_Girl">
</g>
<g id="Worker">
</g>
<g id="Old_Man">
</g>
<g id="Punk">
</g>
<g id="Diver">
</g>
<g id="Artist">
</g>
<g id="Dictator">
</g>
<g id="Man_Hat">
</g>
<g id="Woman_Hat">
</g>
<g id="Graduated_Man">
</g>
<g id="Graduated_Woman">
</g>
<g id="Avatar_Chef">
</g>
<g id="Waiter">
</g>
<g id="Waitress">
</g>
<g id="Bllboy">
</g>
<g id="Santa">
</g>
<g id="Doctor">
</g>
<g id="Nurse">
</g>
<g id="Captain">
</g>
<g id="Farmer">
</g>
<g id="Maid">
</g>
<g id="Business_Man_2">
</g>
<g id="Business_Woman_2">
</g>
<g id="Cowboy">
</g>
<g id="Anonymus">
</g>
<g id="Batman">
</g>
<g id="Superman">
</g>
<g id="Captain_America">
</g>
<g id="Darth_Vader">
</g>
<g id="Harry_Potter">
</g>
<g id="Anonymus_2">
</g>
<g id="Scream">
</g>
<g id="Jason">
</g>
<g id="Charlie_Chaplin">
</g>
</svg>
