<?xml version="1.0" encoding="iso-8859-1"?>
<!-- Generator: Adobe Illustrator 19.2.1, SVG Export Plug-In . SVG Version: 6.00 Build 0)  -->
<svg version="1.1" xmlns="http://www.w3.org/2000/svg" xmlns:xlink="http://www.w3.org/1999/xlink" x="0px" y="0px"
	 viewBox="0 0 24 24" style="enable-background:new 0 0 24 24;" xml:space="preserve">
<g id="Man_1">
</g>
<g id="Woman_1">
</g>
<g id="Man_2">
</g>
<g id="Woman_2">
</g>
<g id="Bald_Man">
</g>
<g id="Man_Glasses">
</g>
<g id="Woman_Glasses">
</g>
<g id="Man_Beard">
</g>
<g id="Man_Cap">
</g>
<g id="Woman_Cap">
</g>
<g id="Man_3">
</g>
<g id="Woman_3">
</g>
<g id="Men_4">
</g>
<g id="Woman_4">
</g>
<g id="Business_Man_1">
</g>
<g id="Business_Woman_1">
</g>
<g id="Firefigyhter">
</g>
<g id="Policeman">
</g>
<g id="Criminal">
</g>
<g id="Prisoner">
</g>
<g id="Woodsman">
</g>
<g id="Dispatcher_1">
</g>
<g id="Dispatcher_2">
</g>
<g id="Soldier">
</g>
<g id="Astronaut">
</g>
<g id="Hipster_Guy">
</g>
<g id="Hipster_Girl">
</g>
<g id="Worker">
</g>
<g id="Old_Man">
</g>
<g id="Punk">
</g>
<g id="Diver">
</g>
<g id="Artist">
</g>
<g id="Dictator">
</g>
<g id="Man_Hat">
</g>
<g id="Woman_Hat">
</g>
<g id="Graduated_Man">
</g>
<g id="Graduated_Woman">
</g>
<g id="Avatar_Chef">
</g>
<g id="Waiter">
</g>
<g id="Waitress">
</g>
<g id="Bllboy">
</g>
<g id="Santa">
</g>
<g id="Doctor">
</g>
<g id="Nurse">
	<g>
		<g>
			<path d="M4.036,20.795c-0.191,0-0.373-0.109-0.456-0.294c-0.114-0.252-0.002-0.548,0.25-0.662
				c0.173-0.078,0.352-0.149,0.535-0.213l2.033-0.707c0.298-0.104,0.57-0.261,0.81-0.466l0.966-0.832
				c0.208-0.18,0.523-0.157,0.705,0.053c0.18,0.209,0.157,0.524-0.053,0.705L7.86,19.211c-0.335,0.288-0.716,0.508-1.134,0.653
				l-2.033,0.707c-0.154,0.054-0.305,0.113-0.452,0.18C4.174,20.781,4.104,20.795,4.036,20.795z"/>
		</g>
		<g>
			<path d="M19.967,20.797c-0.069,0-0.139-0.015-0.207-0.045c-0.147-0.066-0.298-0.127-0.453-0.181l-2.034-0.707
				c-0.417-0.146-0.799-0.365-1.134-0.653l-0.966-0.832c-0.209-0.181-0.233-0.496-0.053-0.705c0.18-0.21,0.496-0.232,0.705-0.053
				l0.966,0.832c0.239,0.205,0.512,0.362,0.81,0.466l2.033,0.707c0.184,0.063,0.364,0.136,0.54,0.216
				c0.251,0.114,0.362,0.41,0.248,0.662C20.339,20.688,20.158,20.797,19.967,20.797z"/>
		</g>
		<g>
			<path d="M12,24C5.383,24,0,18.617,0,12S5.383,0,12,0s12,5.383,12,12S18.617,24,12,24z M12,1C5.935,1,1,5.935,1,12s4.935,11,11,11
				s11-4.935,11-11S18.065,1,12,1z"/>
		</g>
		<g>
			<path d="M17,12.5c-0.04,0-0.08-0.005-0.12-0.015c-0.131-0.032-0.244-0.116-0.313-0.233c-0.047-0.081-0.391-0.688-0.52-1.372
				c-2.133-0.121-3.992-1.078-4.935-2.026c-0.195-0.196-0.194-0.513,0.002-0.707s0.512-0.195,0.707,0.002
				c0.835,0.84,2.655,1.744,4.677,1.744c0.276,0,0.5,0.224,0.5,0.5c0,0.297,0.11,0.647,0.225,0.926C17.566,11.164,18.038,11,18.5,11
				c0.276,0,0.5,0.224,0.5,0.5S18.776,12,18.5,12c-0.455,0-1.059,0.314-1.235,0.424C17.185,12.474,17.093,12.5,17,12.5z"/>
		</g>
		<g>
			<path d="M7,12.5c-0.092,0-0.184-0.025-0.264-0.075C6.545,12.307,5.952,12,5.5,12C5.224,12,5,11.776,5,11.5S5.224,11,5.5,11
				c0.397,0,0.801,0.121,1.123,0.253C6.809,10.41,7.202,9.357,8,9.357c0.603,0,1.978-0.264,2.376-1.077
				c0.123-0.248,0.422-0.349,0.669-0.229c0.248,0.122,0.35,0.421,0.229,0.669C10.64,10.016,8.855,10.357,8,10.357
				c-0.131,0.105-0.404,0.941-0.504,1.708c-0.022,0.168-0.128,0.313-0.282,0.386C7.146,12.483,7.073,12.5,7,12.5z"/>
		</g>
		<g>
			<path d="M12,20c-0.241,0-0.491-0.025-0.787-0.079c-0.116-0.021-0.234-0.049-0.353-0.079c-0.09-0.024-0.175-0.052-0.261-0.081
				c-1.689-0.534-3.127-2.034-3.922-4.063c-0.064,0.012-0.124,0.017-0.177,0.017c-0.869,0-1.5-1.111-1.5-2.643
				c0-0.218,0.06-0.758,0.09-1.016C5.049,11.924,5,11.713,5,11.464C5,9.626,5.632,7.86,6.779,6.491
				C6.958,6.28,7.272,6.251,7.484,6.43c0.211,0.177,0.239,0.492,0.062,0.704C6.549,8.323,6,9.861,6,11.464
				c0,0.191,0.06,0.339,0.061,0.341c0.032,0.079,0.046,0.171,0.036,0.256C6.096,12.063,6,12.84,6,13.071
				c0,1.063,0.382,1.612,0.504,1.643c-0.008-0.002,0.028-0.022,0.078-0.078c0.121-0.131,0.302-0.189,0.477-0.15
				c0.174,0.038,0.315,0.167,0.369,0.337c0.638,2.009,1.939,3.5,3.481,3.988c0.074,0.024,0.139,0.046,0.206,0.063
				c0.088,0.023,0.18,0.046,0.273,0.063C11.593,18.974,11.794,19,12,19c0.276,0,0.5,0.224,0.5,0.5S12.276,20,12,20z M6.504,14.714
				h0.01H6.504z"/>
		</g>
		<g>
			<path d="M12,20c-0.276,0-0.5-0.224-0.5-0.5S11.724,19,12,19c0.206,0,0.407-0.026,0.606-0.063c0.098-0.017,0.19-0.039,0.282-0.063
				c0.063-0.017,0.128-0.038,0.194-0.06c1.551-0.491,2.852-1.982,3.489-3.991c0.054-0.17,0.194-0.298,0.369-0.337
				c0.171-0.037,0.355,0.019,0.476,0.15c0.052,0.057,0.088,0.077,0.097,0.08C17.617,14.685,18,14.135,18,13.071
				c0-0.231-0.096-1.009-0.097-1.011c-0.011-0.089,0.003-0.18,0.039-0.261l0,0c0,0,0.058-0.147,0.058-0.336
				c0-1.603-0.549-3.141-1.546-4.33c-0.177-0.212-0.149-0.527,0.062-0.704c0.213-0.179,0.527-0.149,0.705,0.062
				C18.368,7.86,19,9.626,19,11.464c0,0.249-0.049,0.46-0.09,0.592c0.03,0.258,0.09,0.798,0.09,1.016c0,1.531-0.631,2.643-1.5,2.643
				c-0.053,0-0.113-0.005-0.177-0.018c-0.795,2.03-2.233,3.53-3.93,4.067c-0.078,0.026-0.163,0.054-0.249,0.077
				c-0.123,0.031-0.241,0.06-0.361,0.08C12.491,19.975,12.241,20,12,20z"/>
		</g>
		<g>
			<path d="M10.5,13h-1C9.224,13,9,12.776,9,12.5S9.224,12,9.5,12h1c0.276,0,0.5,0.224,0.5,0.5S10.776,13,10.5,13z"/>
		</g>
		<g>
			<path d="M14.5,13h-1c-0.276,0-0.5-0.224-0.5-0.5s0.224-0.5,0.5-0.5h1c0.276,0,0.5,0.224,0.5,0.5S14.776,13,14.5,13z"/>
		</g>
		<g>
			<path d="M16,19c-0.263,0-0.483-0.205-0.499-0.471c-0.016-0.275,0.194-0.513,0.47-0.528c0.678-0.04,2.117-0.518,2.95-0.819
				C18.671,15.998,18,12.701,18,11.5c0-0.276,0.224-0.5,0.5-0.5s0.5,0.224,0.5,0.5c0,1.337,0.979,5.849,0.989,5.894
				c0.052,0.241-0.079,0.484-0.309,0.573c-0.103,0.039-2.523,0.966-3.65,1.032C16.02,19,16.009,19,16,19z"/>
		</g>
		<g>
			<path d="M8,19c-0.01,0-0.02,0-0.03-0.001c-1.127-0.066-3.548-0.993-3.65-1.032c-0.23-0.089-0.361-0.332-0.309-0.573
				C4.021,17.349,5,12.837,5,11.5C5,11.224,5.224,11,5.5,11S6,11.224,6,11.5c0,1.201-0.671,4.498-0.921,5.682
				c0.833,0.302,2.272,0.779,2.95,0.819c0.276,0.016,0.486,0.253,0.47,0.528C8.483,18.795,8.263,19,8,19z"/>
		</g>
		<g>
			<path d="M16.5,9h-9C7.262,9,7.057,8.832,7.01,8.598l-1-5c-0.047-0.234,0.079-0.47,0.3-0.561C6.414,2.995,8.875,2,12,2
				s5.586,0.995,5.69,1.037c0.221,0.091,0.347,0.326,0.3,0.561l-1,5C16.943,8.832,16.738,9,16.5,9z M7.91,8h8.181l0.835-4.177
				C16.138,3.557,14.23,3,12,3C9.763,3,7.86,3.556,7.074,3.822L7.91,8z"/>
		</g>
		<g>
			<path d="M12,7c-0.276,0-0.5-0.224-0.5-0.5v-2C11.5,4.224,11.724,4,12,4s0.5,0.224,0.5,0.5v2C12.5,6.776,12.276,7,12,7z"/>
		</g>
		<g>
			<path d="M14.18,22.003c-0.159,0-0.32-0.025-0.475-0.077L12,21.061l-1.636,0.836c-0.493,0.171-0.952,0.116-1.332-0.118
				c-0.379-0.234-0.633-0.622-0.697-1.064l-0.332-2.651c-0.034-0.274,0.16-0.524,0.434-0.559c0.275-0.038,0.524,0.159,0.558,0.434
				l0.331,2.644c0.028,0.193,0.157,0.301,0.231,0.347c0.075,0.046,0.228,0.114,0.421,0.049l1.794-0.922
				c0.144-0.072,0.312-0.072,0.455,0l1.863,0.951c0.122,0.035,0.277-0.032,0.352-0.078c0.074-0.046,0.203-0.153,0.232-0.354
				l0.33-2.636c0.034-0.274,0.282-0.472,0.558-0.434c0.274,0.034,0.468,0.284,0.434,0.559l-0.331,2.644
				c-0.064,0.45-0.318,0.838-0.698,1.072C14.728,21.927,14.455,22.003,14.18,22.003z"/>
		</g>
		<g>
			<path d="M13,6h-2c-0.276,0-0.5-0.224-0.5-0.5S10.724,5,11,5h2c0.276,0,0.5,0.224,0.5,0.5S13.276,6,13,6z"/>
		</g>
	</g>
</g>
<g id="Captain">
</g>
<g id="Farmer">
</g>
<g id="Maid">
</g>
<g id="Business_Man_2">
</g>
<g id="Business_Woman_2">
</g>
<g id="Cowboy">
</g>
<g id="Anonymus">
</g>
<g id="Batman">
</g>
<g id="Superman">
</g>
<g id="Captain_America">
</g>
<g id="Darth_Vader">
</g>
<g id="Harry_Potter">
</g>
<g id="Anonymus_2">
</g>
<g id="Scream">
</g>
<g id="Jason">
</g>
<g id="Charlie_Chaplin">
</g>
</svg>
