<?xml version="1.0" encoding="iso-8859-1"?>
<!-- Generator: Adobe Illustrator 19.2.1, SVG Export Plug-In . SVG Version: 6.00 Build 0)  -->
<svg version="1.1" xmlns="http://www.w3.org/2000/svg" xmlns:xlink="http://www.w3.org/1999/xlink" x="0px" y="0px"
	 viewBox="0 0 24 24" style="enable-background:new 0 0 24 24;" xml:space="preserve">
<g id="Man_1">
</g>
<g id="Woman_1">
</g>
<g id="Man_2">
</g>
<g id="Woman_2">
</g>
<g id="Bald_Man">
</g>
<g id="Man_Glasses">
</g>
<g id="Woman_Glasses">
</g>
<g id="Man_Beard">
</g>
<g id="Man_Cap">
</g>
<g id="Woman_Cap">
</g>
<g id="Man_3">
</g>
<g id="Woman_3">
</g>
<g id="Men_4">
</g>
<g id="Woman_4">
</g>
<g id="Business_Man_1">
</g>
<g id="Business_Woman_1">
</g>
<g id="Firefigyhter">
</g>
<g id="Policeman">
</g>
<g id="Criminal">
</g>
<g id="Prisoner">
</g>
<g id="Woodsman">
</g>
<g id="Dispatcher_1">
</g>
<g id="Dispatcher_2">
</g>
<g id="Soldier">
</g>
<g id="Astronaut">
</g>
<g id="Hipster_Guy">
</g>
<g id="Hipster_Girl">
</g>
<g id="Worker">
</g>
<g id="Old_Man">
	<g>
		<g>
			<path d="M4.034,20.795c-0.19,0-0.372-0.109-0.456-0.294c-0.113-0.251-0.001-0.548,0.25-0.661
				c0.174-0.079,0.353-0.149,0.535-0.213l2.033-0.707c0.298-0.104,0.57-0.261,0.81-0.467l0.966-0.832
				c0.21-0.179,0.525-0.157,0.705,0.053c0.18,0.209,0.156,0.525-0.053,0.705L7.858,19.21c-0.336,0.289-0.717,0.508-1.134,0.653
				l-2.033,0.707c-0.155,0.054-0.305,0.114-0.451,0.18C4.173,20.781,4.104,20.795,4.034,20.795z"/>
		</g>
		<g>
			<path d="M19.966,20.796c-0.069,0-0.139-0.014-0.206-0.044c-0.147-0.066-0.3-0.127-0.455-0.181l-2.032-0.707
				c-0.417-0.145-0.798-0.365-1.134-0.653l-0.967-0.832c-0.209-0.18-0.233-0.496-0.053-0.705c0.18-0.209,0.495-0.233,0.705-0.053
				l0.967,0.832c0.239,0.206,0.512,0.363,0.81,0.467l2.033,0.707c0.184,0.064,0.363,0.135,0.538,0.214
				c0.251,0.113,0.363,0.41,0.25,0.661C20.338,20.687,20.156,20.796,19.966,20.796z"/>
		</g>
		<g>
			<path d="M11.998,20c-0.265,0-0.524-0.03-0.78-0.074c-0.116-0.019-0.233-0.045-0.351-0.073c-0.093-0.023-0.177-0.049-0.262-0.076
				c-1.687-0.498-3.124-1.898-3.922-3.795C6.615,15.995,6.553,16,6.498,16c-0.855,0-1.5-1.075-1.5-2.5
				c0-1.159,0.427-2.086,1.046-2.392C6.366,7.438,8.723,5,11.998,5s5.632,2.438,5.955,6.108c0.619,0.307,1.045,1.233,1.045,2.392
				c0,1.425-0.645,2.5-1.5,2.5c-0.055,0-0.117-0.005-0.185-0.018c-0.799,1.898-2.237,3.298-3.932,3.798
				c-0.076,0.024-0.16,0.049-0.245,0.071c-0.124,0.03-0.241,0.056-0.36,0.075C12.523,19.97,12.264,20,11.998,20z M6.95,14.775
				c0.037,0,0.074,0.004,0.111,0.013c0.17,0.039,0.307,0.163,0.362,0.327c0.633,1.866,1.932,3.251,3.475,3.707
				c0.075,0.024,0.142,0.044,0.209,0.061c0.088,0.021,0.18,0.042,0.275,0.058c0.408,0.07,0.826,0.069,1.229,0.001
				c0.097-0.016,0.19-0.037,0.284-0.06c0.061-0.015,0.127-0.036,0.195-0.057c1.549-0.458,2.849-1.843,3.482-3.709
				c0.057-0.164,0.193-0.288,0.363-0.327c0.166-0.038,0.346,0.014,0.468,0.138c0.063,0.065,0.099,0.075,0.1,0.075
				c0.118,0,0.494-0.533,0.494-1.5s-0.376-1.5-0.5-1.5h-0.019c-0.267,0-0.486-0.209-0.499-0.475C16.812,8.169,14.855,6,11.998,6
				C9.14,6,7.185,8.168,7.017,11.525C7.004,11.791,6.784,12,6.518,12c-0.144,0-0.52,0.532-0.52,1.5c0,0.967,0.375,1.499,0.5,1.5
				c-0.002,0,0.033-0.012,0.096-0.076C6.689,14.828,6.818,14.775,6.95,14.775z"/>
		</g>
		<g>
			<path d="M12,24C5.383,24,0,18.617,0,12S5.383,0,12,0s12,5.383,12,12S18.617,24,12,24z M12,1C5.935,1,1,5.935,1,12s4.935,11,11,11
				s11-4.935,11-11S18.065,1,12,1z"/>
		</g>
		<g>
			<path d="M5.5,15c-0.102,0-0.203-0.03-0.292-0.094C5.118,14.841,3,13.298,3,11.5c0-0.933,0.57-1.798,1.132-2.423
				C4.114,9.064,4.097,9.049,4.079,9.034C3.59,8.6,3.821,7.843,4.037,7.312C4.94,5.088,8.416,3,10,3c1.582,0,2.26,0.562,2.332,0.626
				c0.206,0.183,0.226,0.5,0.042,0.706c-0.181,0.205-0.492,0.224-0.698,0.049C11.651,4.362,11.165,4,10,4
				C8.763,4,5.691,5.896,4.963,7.688c-0.111,0.275-0.152,0.449-0.166,0.55C4.928,8.21,5.117,8.14,5.259,8.062
				c0.232-0.128,0.522-0.052,0.663,0.17c0.142,0.224,0.085,0.519-0.13,0.673C5.294,9.266,4,10.434,4,11.5
				c0,1.071,1.293,2.236,1.792,2.594c0.224,0.162,0.275,0.474,0.114,0.698C5.809,14.928,5.655,15,5.5,15z"/>
		</g>
		<g>
			<path d="M18.501,15c-0.155,0-0.309-0.072-0.406-0.208c-0.161-0.224-0.11-0.536,0.113-0.698C18.706,13.734,20,12.566,20,11.5
				c0-1.071-1.293-2.236-1.792-2.594c-0.214-0.154-0.271-0.449-0.131-0.672c0.142-0.223,0.434-0.298,0.663-0.172
				c0.146,0.079,0.333,0.149,0.463,0.177c-0.014-0.102-0.055-0.275-0.166-0.55C18.309,5.896,15.237,4,14,4
				c-1.189,0-1.672,0.377-1.677,0.381c-0.212,0.171-0.524,0.145-0.7-0.063c-0.175-0.207-0.158-0.512,0.045-0.692
				C11.74,3.562,12.418,3,14,3c1.584,0,5.06,2.088,5.963,4.312c0.216,0.531,0.447,1.288-0.042,1.722
				c-0.018,0.015-0.035,0.03-0.053,0.043C20.43,9.702,21,10.567,21,11.5c0,1.798-2.118,3.341-2.208,3.406
				C18.703,14.969,18.602,15,18.501,15z"/>
		</g>
		<g>
			<path d="M9.398,16c-1.013,0-1.599-0.017-2.631-0.557c-0.244-0.128-0.339-0.43-0.211-0.675c0.129-0.244,0.431-0.339,0.676-0.211
				C8.079,15.001,8.473,14.99,9.401,15c0.518,0,0.799-0.099,1.124-0.213C10.907,14.652,11.34,14.5,12,14.5
				c0.276,0,0.5,0.224,0.5,0.5s-0.224,0.5-0.5,0.5c-0.489,0-0.792,0.106-1.143,0.23C10.478,15.864,10,15.996,9.398,16z"/>
		</g>
		<g>
			<path d="M14.5,16c-0.59,0-0.998-0.144-1.357-0.27C12.792,15.606,12.489,15.5,12,15.5c-0.276,0-0.5-0.224-0.5-0.5
				s0.224-0.5,0.5-0.5c0.66,0,1.093,0.152,1.475,0.287C13.8,14.901,14.081,15,14.5,15c0.978,0,1.382,0,2.276-0.447
				c0.248-0.123,0.547-0.024,0.671,0.224c0.123,0.247,0.023,0.547-0.224,0.671C16.118,16,15.543,16,14.5,16z"/>
		</g>
		<g>
			<path d="M12.5,17h-1c-0.276,0-0.5-0.224-0.5-0.5s0.224-0.5,0.5-0.5h1c0.276,0,0.5,0.224,0.5,0.5S12.776,17,12.5,17z"/>
		</g>
		<g>
			<path d="M10.5,13h-1C9.224,13,9,12.776,9,12.5S9.224,12,9.5,12h1c0.276,0,0.5,0.224,0.5,0.5S10.776,13,10.5,13z"/>
		</g>
		<g>
			<path d="M14.5,13h-1c-0.276,0-0.5-0.224-0.5-0.5s0.224-0.5,0.5-0.5h1c0.276,0,0.5,0.224,0.5,0.5S14.776,13,14.5,13z"/>
		</g>
		<g>
			<path d="M8.5,11.5c-0.131,0-0.263-0.051-0.36-0.154c-0.191-0.199-0.186-0.516,0.014-0.707C8.265,10.533,8.853,10,9.5,10
				c0.276,0,0.5,0.224,0.5,0.5S9.776,11,9.5,11c-0.194,0-0.526,0.239-0.653,0.36C8.749,11.454,8.625,11.5,8.5,11.5z"/>
		</g>
		<g>
			<path d="M15.5,11.499c-0.124,0-0.248-0.045-0.345-0.137C14.995,11.21,14.679,11,14.5,11c-0.276,0-0.5-0.224-0.5-0.5
				s0.224-0.5,0.5-0.5c0.647,0,1.235,0.533,1.347,0.64c0.198,0.19,0.205,0.506,0.015,0.705C15.763,11.447,15.632,11.499,15.5,11.499
				z"/>
		</g>
	</g>
</g>
<g id="Punk">
</g>
<g id="Diver">
</g>
<g id="Artist">
</g>
<g id="Dictator">
</g>
<g id="Man_Hat">
</g>
<g id="Woman_Hat">
</g>
<g id="Graduated_Man">
</g>
<g id="Graduated_Woman">
</g>
<g id="Avatar_Chef">
</g>
<g id="Waiter">
</g>
<g id="Waitress">
</g>
<g id="Bllboy">
</g>
<g id="Santa">
</g>
<g id="Doctor">
</g>
<g id="Nurse">
</g>
<g id="Captain">
</g>
<g id="Farmer">
</g>
<g id="Maid">
</g>
<g id="Business_Man_2">
</g>
<g id="Business_Woman_2">
</g>
<g id="Cowboy">
</g>
<g id="Anonymus">
</g>
<g id="Batman">
</g>
<g id="Superman">
</g>
<g id="Captain_America">
</g>
<g id="Darth_Vader">
</g>
<g id="Harry_Potter">
</g>
<g id="Anonymus_2">
</g>
<g id="Scream">
</g>
<g id="Jason">
</g>
<g id="Charlie_Chaplin">
</g>
</svg>
