<?xml version="1.0" encoding="iso-8859-1"?>
<!-- Generator: Adobe Illustrator 19.2.1, SVG Export Plug-In . SVG Version: 6.00 Build 0)  -->
<svg version="1.1" xmlns="http://www.w3.org/2000/svg" xmlns:xlink="http://www.w3.org/1999/xlink" x="0px" y="0px"
	 viewBox="0 0 24 24" style="enable-background:new 0 0 24 24;" xml:space="preserve">
<g id="Man_1">
</g>
<g id="Woman_1">
</g>
<g id="Man_2">
</g>
<g id="Woman_2">
</g>
<g id="Bald_Man">
</g>
<g id="Man_Glasses">
</g>
<g id="Woman_Glasses">
</g>
<g id="Man_Beard">
</g>
<g id="Man_Cap">
</g>
<g id="Woman_Cap">
</g>
<g id="Man_3">
</g>
<g id="Woman_3">
</g>
<g id="Men_4">
</g>
<g id="Woman_4">
</g>
<g id="Business_Man_1">
</g>
<g id="Business_Woman_1">
</g>
<g id="Firefigyhter">
</g>
<g id="Policeman">
	<g>
		<g>
			<path d="M12,24C5.383,24,0,18.617,0,12S5.383,0,12,0s12,5.383,12,12S18.617,24,12,24z M12,1C5.935,1,1,5.935,1,12s4.935,11,11,11
				s11-4.935,11-11S18.065,1,12,1z"/>
		</g>
		<g>
			<path d="M4.034,20.795c-0.19,0-0.372-0.109-0.456-0.294c-0.113-0.251-0.001-0.548,0.25-0.661
				c0.174-0.079,0.353-0.149,0.535-0.213l2.033-0.707c0.298-0.104,0.57-0.261,0.81-0.467l0.966-0.832
				c0.21-0.178,0.525-0.156,0.705,0.053s0.156,0.525-0.053,0.705L7.858,19.21c-0.336,0.289-0.717,0.508-1.134,0.653l-2.033,0.707
				c-0.155,0.054-0.305,0.114-0.451,0.18C4.173,20.781,4.104,20.795,4.034,20.795z"/>
		</g>
		<g>
			<path d="M19.966,20.796c-0.069,0-0.139-0.014-0.206-0.044c-0.147-0.066-0.3-0.127-0.455-0.181l-2.032-0.707
				c-0.417-0.145-0.798-0.365-1.134-0.653l-0.967-0.832c-0.209-0.18-0.233-0.496-0.053-0.705c0.18-0.208,0.495-0.233,0.705-0.053
				l0.967,0.832c0.239,0.206,0.512,0.363,0.81,0.467l2.033,0.707c0.184,0.064,0.363,0.135,0.538,0.214
				c0.251,0.113,0.363,0.41,0.25,0.661C20.338,20.687,20.156,20.796,19.966,20.796z"/>
		</g>
		<g>
			<path d="M11.998,20c-0.265,0-0.524-0.03-0.78-0.074c-0.116-0.019-0.233-0.045-0.351-0.073c-0.093-0.023-0.177-0.049-0.262-0.076
				c-1.687-0.498-3.124-1.898-3.922-3.795C6.615,15.995,6.553,16,6.498,16c-0.855,0-1.5-1.075-1.5-2.5
				c0-1.146,0.417-2.066,1.025-2.382C6.05,10.247,6.17,9.458,6.38,8.769c0.081-0.264,0.363-0.416,0.624-0.332
				c0.265,0.081,0.413,0.36,0.333,0.624C7.125,9.754,7.018,10.575,7.018,11.5c0,0.276-0.224,0.5-0.5,0.5
				c-0.144,0-0.52,0.532-0.52,1.5c0,0.967,0.375,1.499,0.5,1.5c-0.002,0,0.033-0.012,0.096-0.076c0.123-0.124,0.3-0.177,0.468-0.136
				c0.17,0.039,0.307,0.163,0.362,0.327c0.633,1.866,1.932,3.251,3.475,3.707c0.075,0.024,0.142,0.044,0.209,0.061
				c0.088,0.021,0.18,0.042,0.275,0.058c0.408,0.07,0.826,0.069,1.229,0.001c0.097-0.016,0.19-0.037,0.284-0.06
				c0.061-0.015,0.127-0.036,0.195-0.057c1.549-0.458,2.849-1.843,3.482-3.709c0.057-0.164,0.193-0.288,0.363-0.327
				c0.165-0.039,0.346,0.014,0.468,0.138c0.063,0.065,0.099,0.075,0.1,0.075c0.118,0,0.494-0.533,0.494-1.5s-0.376-1.5-0.5-1.5
				c-0.276,0-0.519-0.224-0.519-0.5c0-0.923-0.106-1.743-0.316-2.435c-0.08-0.264,0.069-0.543,0.333-0.624
				c0.267-0.079,0.544,0.07,0.624,0.333c0.209,0.688,0.327,1.477,0.354,2.348c0.612,0.321,1.024,1.237,1.024,2.376
				c0,1.425-0.645,2.5-1.5,2.5c-0.055,0-0.117-0.005-0.185-0.018c-0.799,1.898-2.237,3.298-3.932,3.798
				c-0.076,0.024-0.16,0.049-0.245,0.071c-0.124,0.03-0.241,0.056-0.36,0.075C12.523,19.97,12.264,20,11.998,20z"/>
		</g>
		<g>
			<path d="M12,11c-3.332,0-5.369-1.338-5.925-2.237C5.93,8.528,6.002,8.22,6.237,8.075C6.472,7.93,6.78,8.002,6.925,8.237
				C7.281,8.812,8.989,10,12,10s4.719-1.188,5.075-1.763c0.144-0.235,0.452-0.307,0.688-0.162s0.308,0.454,0.162,0.688
				C17.369,9.662,15.332,11,12,11z"/>
		</g>
		<g>
			<path d="M17.5,9h-11C5.673,9,5,8.327,5,7.5v-1C5,6.224,5.224,6,5.5,6c0.542,0,1.383-0.566,2.273-1.167C9.048,3.974,10.493,3,12,3
				s2.952,0.974,4.227,1.833C17.117,5.434,17.958,6,18.5,6C18.776,6,19,6.224,19,6.5v1C19,8.327,18.327,9,17.5,9z M6,6.934V7.5
				C6,7.776,6.225,8,6.5,8h11C17.775,8,18,7.776,18,7.5V6.934c-0.708-0.177-1.473-0.692-2.332-1.271C14.512,4.883,13.201,4,12,4
				S9.488,4.883,8.332,5.663C7.473,6.242,6.708,6.757,6,6.934z"/>
		</g>
		<g>
			<path d="M12,7c-0.552,0-1-0.449-1-1V5.5C11,5.224,11.224,5,11.5,5h1C12.776,5,13,5.224,13,5.5V6C13,6.551,12.552,7,12,7z M12,6
				h0.01H12z"/>
		</g>
		<g>
			<path d="M10.499,23.903c-0.251,0-0.467-0.188-0.496-0.443l-0.5-4.403c-0.031-0.274,0.166-0.522,0.44-0.553
				c0.265-0.037,0.521,0.165,0.554,0.44l0.5,4.403c0.031,0.274-0.166,0.522-0.44,0.553C10.537,23.902,10.519,23.903,10.499,23.903z"
				/>
		</g>
		<g>
			<path d="M13.501,23.903c-0.02,0-0.038-0.001-0.058-0.003c-0.274-0.031-0.472-0.279-0.44-0.553l0.5-4.403
				c0.031-0.274,0.285-0.476,0.554-0.44c0.274,0.031,0.472,0.279,0.44,0.553l-0.5,4.403C13.968,23.714,13.752,23.903,13.501,23.903z
				"/>
		</g>
		<g>
			<path d="M10.5,13h-1C9.224,13,9,12.776,9,12.5S9.224,12,9.5,12h1c0.276,0,0.5,0.224,0.5,0.5S10.776,13,10.5,13z"/>
		</g>
		<g>
			<path d="M14.5,13h-1c-0.276,0-0.5-0.224-0.5-0.5s0.224-0.5,0.5-0.5h1c0.276,0,0.5,0.224,0.5,0.5S14.776,13,14.5,13z"/>
		</g>
	</g>
</g>
<g id="Criminal">
</g>
<g id="Prisoner">
</g>
<g id="Woodsman">
</g>
<g id="Dispatcher_1">
</g>
<g id="Dispatcher_2">
</g>
<g id="Soldier">
</g>
<g id="Astronaut">
</g>
<g id="Hipster_Guy">
</g>
<g id="Hipster_Girl">
</g>
<g id="Worker">
</g>
<g id="Old_Man">
</g>
<g id="Punk">
</g>
<g id="Diver">
</g>
<g id="Artist">
</g>
<g id="Dictator">
</g>
<g id="Man_Hat">
</g>
<g id="Woman_Hat">
</g>
<g id="Graduated_Man">
</g>
<g id="Graduated_Woman">
</g>
<g id="Avatar_Chef">
</g>
<g id="Waiter">
</g>
<g id="Waitress">
</g>
<g id="Bllboy">
</g>
<g id="Santa">
</g>
<g id="Doctor">
</g>
<g id="Nurse">
</g>
<g id="Captain">
</g>
<g id="Farmer">
</g>
<g id="Maid">
</g>
<g id="Business_Man_2">
</g>
<g id="Business_Woman_2">
</g>
<g id="Cowboy">
</g>
<g id="Anonymus">
</g>
<g id="Batman">
</g>
<g id="Superman">
</g>
<g id="Captain_America">
</g>
<g id="Darth_Vader">
</g>
<g id="Harry_Potter">
</g>
<g id="Anonymus_2">
</g>
<g id="Scream">
</g>
<g id="Jason">
</g>
<g id="Charlie_Chaplin">
</g>
</svg>
