<?xml version="1.0" encoding="iso-8859-1"?>
<!-- Generator: Adobe Illustrator 19.2.1, SVG Export Plug-In . SVG Version: 6.00 Build 0)  -->
<svg version="1.1" xmlns="http://www.w3.org/2000/svg" xmlns:xlink="http://www.w3.org/1999/xlink" x="0px" y="0px"
	 viewBox="0 0 24 24" style="enable-background:new 0 0 24 24;" xml:space="preserve">
<g id="Man_1">
</g>
<g id="Woman_1">
</g>
<g id="Man_2">
</g>
<g id="Woman_2">
</g>
<g id="Bald_Man">
</g>
<g id="Man_Glasses">
</g>
<g id="Woman_Glasses">
</g>
<g id="Man_Beard">
</g>
<g id="Man_Cap">
</g>
<g id="Woman_Cap">
</g>
<g id="Man_3">
</g>
<g id="Woman_3">
</g>
<g id="Men_4">
</g>
<g id="Woman_4">
</g>
<g id="Business_Man_1">
</g>
<g id="Business_Woman_1">
</g>
<g id="Firefigyhter">
</g>
<g id="Policeman">
</g>
<g id="Criminal">
</g>
<g id="Prisoner">
</g>
<g id="Woodsman">
</g>
<g id="Dispatcher_1">
</g>
<g id="Dispatcher_2">
</g>
<g id="Soldier">
</g>
<g id="Astronaut">
</g>
<g id="Hipster_Guy">
</g>
<g id="Hipster_Girl">
</g>
<g id="Worker">
</g>
<g id="Old_Man">
</g>
<g id="Punk">
	<g>
		<g>
			<path d="M12,24C5.383,24,0,18.617,0,12S5.383,0,12,0s12,5.383,12,12S18.617,24,12,24z M12,1C5.935,1,1,5.935,1,12s4.935,11,11,11
				s11-4.935,11-11S18.065,1,12,1z"/>
		</g>
		<g>
			<path d="M4.822,21.485c-0.209,0-0.404-0.132-0.474-0.341c-0.088-0.262,0.053-0.545,0.314-0.633l1.772-0.594
				c0.293-0.102,0.565-0.259,0.803-0.464l0.968-0.832c0.211-0.18,0.525-0.156,0.705,0.053c0.181,0.209,0.156,0.525-0.053,0.705
				L7.892,20.21c-0.333,0.288-0.714,0.507-1.132,0.653l-1.778,0.596C4.929,21.477,4.875,21.485,4.822,21.485z"/>
		</g>
		<g>
			<path d="M19.178,21.485c-0.055,0-0.109-0.009-0.164-0.028l-1.708-0.594c-0.419-0.146-0.8-0.366-1.134-0.654l-0.966-0.831
				c-0.209-0.18-0.233-0.496-0.053-0.705c0.18-0.208,0.495-0.233,0.705-0.053l0.967,0.832c0.238,0.206,0.511,0.363,0.81,0.467
				l1.707,0.594c0.261,0.09,0.398,0.375,0.309,0.636C19.578,21.356,19.385,21.485,19.178,21.485z"/>
		</g>
		<g>
			<path d="M10.5,13h-1C9.224,13,9,12.776,9,12.5S9.224,12,9.5,12h1c0.276,0,0.5,0.224,0.5,0.5S10.776,13,10.5,13z"/>
		</g>
		<g>
			<path d="M14.5,13h-1c-0.276,0-0.5-0.224-0.5-0.5s0.224-0.5,0.5-0.5h1c0.276,0,0.5,0.224,0.5,0.5S14.776,13,14.5,13z"/>
		</g>
		<g>
			<path d="M12.5,9h-1C11.224,9,11,8.776,11,8.5c-0.012-0.277-0.51-1.678-0.964-2.814C10.012,5.626,10,5.563,10,5.5v-2
				C10,3.224,10.224,3,10.5,3h3C13.776,3,14,3.224,14,3.5v2c0,0.063-0.012,0.126-0.035,0.185C13.511,6.824,13.014,8.226,13,8.504
				C12.987,8.77,12.767,9,12.5,9z M11.913,8h0.176C12.282,7.256,12.745,6.048,13,5.404V4h-2v1.404
				C11.256,6.046,11.721,7.253,11.913,8z M13.5,5.5h0.01H13.5z"/>
		</g>
		<g>
			<path d="M12.032,21c-0.265,0-0.524-0.03-0.78-0.074c-0.117-0.019-0.234-0.045-0.352-0.073c-0.092-0.023-0.176-0.049-0.261-0.076
				c-1.759-0.519-3.184-2.795-3.962-4.794C6.612,15.996,6.553,16,6.5,16C5.645,16,5,14.925,5,13.5c0-1.158,0.426-2.085,1.044-2.392
				c0.265-3.015,1.889-5.2,4.396-5.88c0.271-0.075,0.541,0.086,0.613,0.352c0.072,0.266-0.085,0.541-0.352,0.613
				c-2.168,0.589-3.545,2.582-3.684,5.332C7.005,11.791,6.785,12,6.519,12C6.376,12,6,12.532,6,13.5c0,0.967,0.375,1.499,0.5,1.5
				c-0.002,0,0.033-0.012,0.094-0.074c0.122-0.125,0.303-0.176,0.468-0.138c0.17,0.039,0.307,0.163,0.363,0.327
				c0.668,1.966,2.051,4.277,3.508,4.707c0.075,0.024,0.142,0.044,0.209,0.061c0.087,0.021,0.181,0.042,0.275,0.058
				c0.408,0.07,0.825,0.069,1.228,0.001c0.098-0.016,0.191-0.037,0.283-0.06c0.063-0.016,0.129-0.036,0.194-0.057
				c1.522-0.449,2.81-2.817,3.453-4.71c0.057-0.164,0.193-0.288,0.363-0.327c0.167-0.038,0.346,0.014,0.468,0.138
				C17.47,14.991,17.505,15,17.506,15C17.624,15,18,14.468,18,13.5S17.624,12,17.5,12c-0.267,0-0.505-0.209-0.518-0.475
				c-0.139-2.75-1.516-4.743-3.684-5.332c-0.267-0.072-0.424-0.347-0.352-0.613c0.073-0.266,0.346-0.425,0.613-0.352
				c2.508,0.681,4.133,2.868,4.396,5.886C18.579,11.425,19,12.348,19,13.5c0,1.425-0.645,2.5-1.5,2.5
				c-0.053,0-0.111-0.004-0.176-0.016c-0.8,2.078-2.185,4.288-3.909,4.796c-0.075,0.024-0.159,0.05-0.246,0.072
				c-0.122,0.029-0.239,0.055-0.359,0.075C12.557,20.97,12.297,21,12.032,21z"/>
		</g>
	</g>
</g>
<g id="Diver">
</g>
<g id="Artist">
</g>
<g id="Dictator">
</g>
<g id="Man_Hat">
</g>
<g id="Woman_Hat">
</g>
<g id="Graduated_Man">
</g>
<g id="Graduated_Woman">
</g>
<g id="Avatar_Chef">
</g>
<g id="Waiter">
</g>
<g id="Waitress">
</g>
<g id="Bllboy">
</g>
<g id="Santa">
</g>
<g id="Doctor">
</g>
<g id="Nurse">
</g>
<g id="Captain">
</g>
<g id="Farmer">
</g>
<g id="Maid">
</g>
<g id="Business_Man_2">
</g>
<g id="Business_Woman_2">
</g>
<g id="Cowboy">
</g>
<g id="Anonymus">
</g>
<g id="Batman">
</g>
<g id="Superman">
</g>
<g id="Captain_America">
</g>
<g id="Darth_Vader">
</g>
<g id="Harry_Potter">
</g>
<g id="Anonymus_2">
</g>
<g id="Scream">
</g>
<g id="Jason">
</g>
<g id="Charlie_Chaplin">
</g>
</svg>
