<?xml version="1.0" encoding="iso-8859-1"?>
<!-- Generator: Adobe Illustrator 19.2.1, SVG Export Plug-In . SVG Version: 6.00 Build 0)  -->
<svg version="1.1" xmlns="http://www.w3.org/2000/svg" xmlns:xlink="http://www.w3.org/1999/xlink" x="0px" y="0px"
	 viewBox="0 0 24 24" style="enable-background:new 0 0 24 24;" xml:space="preserve">
<g id="Man_1">
</g>
<g id="Woman_1">
</g>
<g id="Man_2">
</g>
<g id="Woman_2">
</g>
<g id="Bald_Man">
</g>
<g id="Man_Glasses">
</g>
<g id="Woman_Glasses">
</g>
<g id="Man_Beard">
</g>
<g id="Man_Cap">
</g>
<g id="Woman_Cap">
</g>
<g id="Man_3">
</g>
<g id="Woman_3">
</g>
<g id="Men_4">
</g>
<g id="Woman_4">
</g>
<g id="Business_Man_1">
</g>
<g id="Business_Woman_1">
</g>
<g id="Firefigyhter">
</g>
<g id="Policeman">
</g>
<g id="Criminal">
</g>
<g id="Prisoner">
</g>
<g id="Woodsman">
</g>
<g id="Dispatcher_1">
</g>
<g id="Dispatcher_2">
</g>
<g id="Soldier">
</g>
<g id="Astronaut">
</g>
<g id="Hipster_Guy">
</g>
<g id="Hipster_Girl">
</g>
<g id="Worker">
</g>
<g id="Old_Man">
</g>
<g id="Punk">
</g>
<g id="Diver">
</g>
<g id="Artist">
</g>
<g id="Dictator">
</g>
<g id="Man_Hat">
</g>
<g id="Woman_Hat">
</g>
<g id="Graduated_Man">
</g>
<g id="Graduated_Woman">
</g>
<g id="Avatar_Chef">
</g>
<g id="Waiter">
</g>
<g id="Waitress">
</g>
<g id="Bllboy">
</g>
<g id="Santa">
	<g>
		<g>
			<path d="M7.5,8C7.224,8,7,7.776,7,7.5C7,6.412,9.282,3,12.5,3c3.041,0,6.213,3.011,6.346,3.14
				c0.199,0.19,0.206,0.507,0.015,0.706s-0.507,0.206-0.707,0.016C18.124,6.832,15.137,4,12.5,4C9.92,4,8,6.938,8,7.5
				C8,7.776,7.776,8,7.5,8z"/>
		</g>
		<g>
			<path d="M19,10c-1.103,0-2-0.897-2-2s0.897-2,2-2s2,0.897,2,2S20.103,10,19,10z M19,7c-0.551,0-1,0.448-1,1s0.449,1,1,1
				s1-0.448,1-1S19.551,7,19,7z"/>
		</g>
		<g>
			<path d="M15,16c-0.747,0-1.352-0.316-1.886-0.595C12.697,15.188,12.337,15,12,15s-0.697,0.188-1.114,0.405
				C10.352,15.684,9.747,16,9,16c-1.028,0-1.665-1.382-2.391-3.188c-0.134-0.334-0.298-0.742-0.387-0.897
				C6.088,11.826,6,11.673,6,11.5C6,11.224,6.224,11,6.5,11c0.458,0,0.616,0.392,1.037,1.439C8.22,14.139,8.712,15,9,15
				c0.501,0,0.949-0.233,1.424-0.481C10.913,14.264,11.417,14,12,14s1.087,0.264,1.576,0.519C14.051,14.767,14.499,15,15,15
				c0.288,0,0.78-0.861,1.463-2.561C16.884,11.392,17.042,11,17.5,11c0.276,0,0.5,0.224,0.5,0.5c0,0.173-0.088,0.326-0.222,0.415
				c-0.089,0.155-0.253,0.563-0.387,0.897C16.665,14.618,16.028,16,15,16z M17.502,12L17.502,12L17.502,12z M6.498,12L6.498,12
				L6.498,12z"/>
		</g>
		<g>
			<path d="M12,21c-2.101,0-3.579-1.371-3.854-1.646c-0.17-0.17-0.455-0.342-0.757-0.524c-0.485-0.294-0.987-0.597-1.299-1.042
				c-0.483-0.69-0.573-2.571-0.588-3.479C5.227,14.038,5,13.413,5,12c0-0.254,0.097-0.479,0.281-0.651
				C5.481,11.16,5.757,11.071,6,11.03V10.5C6,10.224,6.224,10,6.5,10S7,10.224,7,10.5v1c0,0.138-0.058,0.269-0.157,0.363
				c-0.1,0.094-0.231,0.154-0.372,0.136c-0.192-0.008-0.444,0.028-0.507,0.08c0.033,0.655,0.124,1.245,0.214,1.453
				C6.366,13.604,6.5,13.787,6.5,14c0,1.292,0.153,2.847,0.41,3.213c0.191,0.272,0.601,0.521,0.997,0.76
				c0.34,0.206,0.691,0.418,0.947,0.674C8.992,18.785,10.257,20,12,20s3.008-1.215,3.146-1.354c0.256-0.256,0.607-0.468,0.947-0.674
				c0.396-0.239,0.806-0.487,0.997-0.76c0.256-0.366,0.41-1.921,0.41-3.213c0-0.213,0.134-0.396,0.322-0.467
				C17.912,13.324,18,12.727,18,12c-0.023,0.026-0.218-0.002-0.396-0.003c-0.035,0-0.068,0.002-0.102,0.003
				c-0.128,0-0.251-0.049-0.345-0.137C17.058,11.769,17,11.638,17,11.5v-1c0-0.276,0.224-0.5,0.5-0.5s0.5,0.224,0.5,0.5v0.53
				c0.243,0.041,0.519,0.13,0.719,0.318C18.903,11.521,19,11.746,19,12c0,1.413-0.227,2.038-0.502,2.308
				c-0.015,0.908-0.105,2.789-0.588,3.479c-0.312,0.445-0.813,0.748-1.299,1.042c-0.302,0.183-0.587,0.354-0.757,0.524
				C15.579,19.629,14.101,21,12,21z"/>
		</g>
		<g>
			<path d="M12,18c-1.394,0-1.847-0.612-1.924-0.735c-0.146-0.233-0.075-0.542,0.159-0.688c0.228-0.142,0.523-0.08,0.674,0.137
				C10.935,16.74,11.198,17,12,17c0.844,0,1.091-0.287,1.093-0.29c0.146-0.234,0.446-0.293,0.68-0.146s0.297,0.468,0.15,0.701
				C13.847,17.388,13.394,18,12,18z"/>
		</g>
		<g>
			<path d="M4.034,20.795c-0.191,0-0.373-0.109-0.457-0.295c-0.113-0.252-0.001-0.548,0.251-0.661
				c0.174-0.078,0.352-0.149,0.535-0.213l2.033-0.707c0.298-0.104,0.571-0.261,0.809-0.466l0.341-0.294
				c0.208-0.18,0.524-0.158,0.705,0.053c0.18,0.209,0.157,0.524-0.053,0.705l-0.341,0.294c-0.333,0.287-0.715,0.507-1.133,0.652
				l-2.034,0.708c-0.154,0.054-0.305,0.113-0.453,0.18C4.172,20.781,4.103,20.795,4.034,20.795z"/>
		</g>
		<g>
			<path d="M19.966,20.797c-0.069,0-0.139-0.015-0.206-0.045c-0.147-0.066-0.298-0.127-0.454-0.181l-2.034-0.707
				c-0.418-0.146-0.8-0.366-1.133-0.653l-0.34-0.296c-0.208-0.181-0.23-0.497-0.049-0.705c0.182-0.208,0.497-0.231,0.706-0.049
				l0.338,0.294c0.236,0.203,0.509,0.36,0.808,0.465l2.033,0.706c0.184,0.063,0.364,0.136,0.54,0.216
				c0.251,0.113,0.363,0.41,0.249,0.661C20.338,20.688,20.156,20.797,19.966,20.797z"/>
		</g>
		<g>
			<path d="M12,24C5.383,24,0,18.617,0,12S5.383,0,12,0s12,5.383,12,12S18.617,24,12,24z M12,1C5.935,1,1,5.935,1,12s4.935,11,11,11
				s11-4.935,11-11S18.065,1,12,1z"/>
		</g>
		<g>
			<path d="M12,11.5c-1.529,0-5.639-0.479-6.341-1.135C5.558,10.271,5.5,10.139,5.5,10c0-1.341,1.057-2.744,1.102-2.803
				C6.697,7.073,6.844,7,7,7c0.407,0,0.982,0.163,1.709,0.37C9.697,7.65,10.925,8,12,8s2.303-0.35,3.291-0.63
				C16.018,7.163,16.593,7,17,7h0.5C17.776,7,18,7.224,18,7.5S17.776,8,17.5,8H17c-0.268,0-0.835,0.161-1.437,0.332
				C14.517,8.63,13.214,9,12,9S9.483,8.63,8.437,8.332C7.981,8.203,7.544,8.079,7.243,8.026C7.019,8.37,6.618,9.058,6.521,9.72
				C7.326,10.019,10.178,10.5,12,10.5c1.833,0,4.706-0.486,5.5-0.792V9.5C17.5,9.224,17.724,9,18,9s0.5,0.224,0.5,0.5V10
				c0,0.139-0.058,0.271-0.159,0.365C17.639,11.021,13.529,11.5,12,11.5z"/>
		</g>
		<g>
			<path d="M10.5,13h-1C9.224,13,9,12.776,9,12.5S9.224,12,9.5,12h1c0.276,0,0.5,0.224,0.5,0.5S10.776,13,10.5,13z"/>
		</g>
		<g>
			<path d="M14.5,13h-1c-0.276,0-0.5-0.224-0.5-0.5s0.224-0.5,0.5-0.5h1c0.276,0,0.5,0.224,0.5,0.5S14.776,13,14.5,13z"/>
		</g>
	</g>
</g>
<g id="Doctor">
</g>
<g id="Nurse">
</g>
<g id="Captain">
</g>
<g id="Farmer">
</g>
<g id="Maid">
</g>
<g id="Business_Man_2">
</g>
<g id="Business_Woman_2">
</g>
<g id="Cowboy">
</g>
<g id="Anonymus">
</g>
<g id="Batman">
</g>
<g id="Superman">
</g>
<g id="Captain_America">
</g>
<g id="Darth_Vader">
</g>
<g id="Harry_Potter">
</g>
<g id="Anonymus_2">
</g>
<g id="Scream">
</g>
<g id="Jason">
</g>
<g id="Charlie_Chaplin">
</g>
</svg>
