<?xml version="1.0" encoding="iso-8859-1"?>
<!-- Generator: Adobe Illustrator 19.2.1, SVG Export Plug-In . SVG Version: 6.00 Build 0)  -->
<svg version="1.1" xmlns="http://www.w3.org/2000/svg" xmlns:xlink="http://www.w3.org/1999/xlink" x="0px" y="0px"
	 viewBox="0 0 24 24" style="enable-background:new 0 0 24 24;" xml:space="preserve">
<g id="Man_1">
</g>
<g id="Woman_1">
</g>
<g id="Man_2">
</g>
<g id="Woman_2">
</g>
<g id="Bald_Man">
</g>
<g id="Man_Glasses">
</g>
<g id="Woman_Glasses">
</g>
<g id="Man_Beard">
</g>
<g id="Man_Cap">
</g>
<g id="Woman_Cap">
</g>
<g id="Man_3">
</g>
<g id="Woman_3">
</g>
<g id="Men_4">
</g>
<g id="Woman_4">
</g>
<g id="Business_Man_1">
</g>
<g id="Business_Woman_1">
</g>
<g id="Firefigyhter">
</g>
<g id="Policeman">
</g>
<g id="Criminal">
</g>
<g id="Prisoner">
</g>
<g id="Woodsman">
</g>
<g id="Dispatcher_1">
</g>
<g id="Dispatcher_2">
</g>
<g id="Soldier">
</g>
<g id="Astronaut">
</g>
<g id="Hipster_Guy">
</g>
<g id="Hipster_Girl">
</g>
<g id="Worker">
</g>
<g id="Old_Man">
</g>
<g id="Punk">
</g>
<g id="Diver">
</g>
<g id="Artist">
</g>
<g id="Dictator">
</g>
<g id="Man_Hat">
</g>
<g id="Woman_Hat">
</g>
<g id="Graduated_Man">
</g>
<g id="Graduated_Woman">
</g>
<g id="Avatar_Chef">
</g>
<g id="Waiter">
</g>
<g id="Waitress">
</g>
<g id="Bllboy">
</g>
<g id="Santa">
</g>
<g id="Doctor">
</g>
<g id="Nurse">
</g>
<g id="Captain">
</g>
<g id="Farmer">
</g>
<g id="Maid">
</g>
<g id="Business_Man_2">
</g>
<g id="Business_Woman_2">
</g>
<g id="Cowboy">
</g>
<g id="Anonymus">
</g>
<g id="Batman">
</g>
<g id="Superman">
</g>
<g id="Captain_America">
</g>
<g id="Darth_Vader">
</g>
<g id="Harry_Potter">
</g>
<g id="Anonymus_2">
</g>
<g id="Scream">
	<g>
		<g>
			<g>
				<path d="M12,22.5c-1.977,0-3.717-1.773-5.029-3.199l-2.778,1.16c-0.252,0.106-0.547-0.012-0.653-0.269
					c-0.106-0.255,0.014-0.547,0.269-0.653l3.102-1.296c0.19-0.083,0.418-0.032,0.561,0.123C8.682,19.688,10.342,21.5,12,21.5
					c1.659,0,3.319-1.812,4.53-3.134c0.144-0.155,0.369-0.206,0.562-0.123l3.101,1.296c0.255,0.106,0.375,0.399,0.269,0.653
					c-0.107,0.256-0.402,0.374-0.653,0.269l-2.777-1.16C15.718,20.727,13.978,22.5,12,22.5z"/>
			</g>
			<g>
				<path d="M8.191,11.502c-0.353,0-0.68-0.026-0.929-0.272C7.086,11.055,7,10.815,7,10.5c0-0.443,0.433-0.509,0.596-0.533
					C8.5,9.831,9.732,9.471,10.008,7.913c0.044-0.254,0.256-0.433,0.536-0.411C10.802,7.524,11,7.741,11,8c0,1.128-1.4,3.5-2.5,3.5
					l-0.166,0.001C8.286,11.502,8.238,11.502,8.191,11.502z"/>
			</g>
			<g>
				<path d="M15.809,11.502c-0.047,0-0.095,0-0.143-0.001L15.5,11.5C14.4,11.5,13,9.128,13,8c0-0.259,0.198-0.476,0.456-0.498
					c0.28-0.014,0.492,0.157,0.536,0.411c0.275,1.558,1.508,1.918,2.412,2.054C16.567,9.991,17,10.057,17,10.5
					c0,0.315-0.086,0.555-0.263,0.729C16.488,11.476,16.161,11.502,15.809,11.502z"/>
			</g>
			<g>
				<path d="M12.5,12.5c-0.183,0-0.359-0.102-0.447-0.276L12,12.118l-0.053,0.105c-0.124,0.248-0.423,0.349-0.671,0.224
					c-0.247-0.124-0.347-0.424-0.224-0.671l0.5-1c0.17-0.338,0.725-0.338,0.895,0l0.5,1c0.123,0.247,0.023,0.547-0.224,0.671
					C12.651,12.483,12.575,12.5,12.5,12.5z"/>
			</g>
			<g>
				<path d="M12,20.5c-0.648,0-1-0.638-1-4c0-0.171-0.051-0.433-0.099-0.687c-0.128-0.664-0.272-1.416,0.141-1.916
					c0.436-0.527,1.48-0.527,1.916,0c0.413,0.5,0.269,1.252,0.141,1.916C13.051,16.067,13,16.329,13,16.5
					C13,19.862,12.648,20.5,12,20.5z M12.266,19.619h0.01H12.266z M12,14.5c-0.13,0-0.18,0.025-0.188,0.035
					c-0.112,0.136,0.011,0.78,0.07,1.09C11.943,15.938,12,16.234,12,16.5c0-0.266,0.057-0.562,0.117-0.875
					c0.06-0.31,0.183-0.954,0.07-1.09C12.18,14.525,12.13,14.5,12,14.5z"/>
			</g>
			<g>
				<g>
					<path d="M8.5,20.5c-0.177,0-0.349-0.094-0.438-0.261C7.937,20.011,5,14.592,5,11.5c0-3.141,2.404-9,7-9s7,5.859,7,9
						c0,3.092-2.937,8.511-3.062,8.739c-0.131,0.243-0.436,0.333-0.678,0.199c-0.242-0.132-0.332-0.436-0.2-0.678
						C15.091,19.707,18,14.338,18,11.5c0-2.792-2.061-8-6-8s-6,5.208-6,8c0,2.84,2.909,8.207,2.938,8.261
						c0.133,0.242,0.043,0.546-0.199,0.678C8.663,20.48,8.581,20.5,8.5,20.5z"/>
				</g>
			</g>
			<g>
				<g>
					<path d="M12,22.5c-2.023,0-3.678-5.247-4.484-8.375c-0.081-0.317-0.362-0.479-0.853-0.739C5.961,13.014,5,12.504,5,11
						c0-1.093,0.547-2.668,2.014-2.954C7.228,4.424,9.986,2.5,12,2.5s4.772,1.924,4.986,5.546C18.453,8.332,19,9.907,19,11
						c0,1.504-0.961,2.014-1.663,2.386c-0.49,0.26-0.771,0.422-0.853,0.739C15.678,17.253,14.023,22.5,12,22.5z M12,3.5
						c-1.635,0-4,1.78-4,5C8,8.776,7.776,9,7.5,9C6.018,9,6,10.98,6,11c0,0.902,0.475,1.153,1.132,1.502
						c0.542,0.288,1.156,0.613,1.353,1.373C9.586,18.15,11.131,21.5,12,21.5s2.414-3.35,3.516-7.625
						c0.196-0.76,0.811-1.085,1.353-1.373C17.525,12.153,18,11.902,18,11c0-0.02-0.018-2-1.5-2C16.224,9,16,8.776,16,8.5
						C16,5.28,13.635,3.5,12,3.5z"/>
				</g>
			</g>
		</g>
		<g>
			<path d="M12,24C5.383,24,0,18.617,0,12S5.383,0,12,0s12,5.383,12,12S18.617,24,12,24z M12,1C5.935,1,1,5.935,1,12s4.935,11,11,11
				s11-4.935,11-11S18.065,1,12,1z"/>
		</g>
	</g>
</g>
<g id="Jason">
</g>
<g id="Charlie_Chaplin">
</g>
</svg>
