<?xml version="1.0" encoding="iso-8859-1"?>
<!-- Generator: Adobe Illustrator 19.2.1, SVG Export Plug-In . SVG Version: 6.00 Build 0)  -->
<svg version="1.1" xmlns="http://www.w3.org/2000/svg" xmlns:xlink="http://www.w3.org/1999/xlink" x="0px" y="0px"
	 viewBox="0 0 24 24" style="enable-background:new 0 0 24 24;" xml:space="preserve">
<g id="Man_1">
</g>
<g id="Woman_1">
</g>
<g id="Man_2">
</g>
<g id="Woman_2">
</g>
<g id="Bald_Man">
</g>
<g id="Man_Glasses">
</g>
<g id="Woman_Glasses">
</g>
<g id="Man_Beard">
</g>
<g id="Man_Cap">
</g>
<g id="Woman_Cap">
</g>
<g id="Man_3">
</g>
<g id="Woman_3">
</g>
<g id="Men_4">
</g>
<g id="Woman_4">
</g>
<g id="Business_Man_1">
</g>
<g id="Business_Woman_1">
</g>
<g id="Firefigyhter">
</g>
<g id="Policeman">
</g>
<g id="Criminal">
</g>
<g id="Prisoner">
</g>
<g id="Woodsman">
</g>
<g id="Dispatcher_1">
</g>
<g id="Dispatcher_2">
</g>
<g id="Soldier">
	<g>
		<g>
			<path d="M19.5,13h-1c-0.108,0-0.213-0.035-0.3-0.1l-1.722-1.292C15.883,11.84,14.626,12,12,12c-3.153,0-4.645-0.245-5.292-0.41
				l-0.792,1.188C5.823,12.917,5.667,13,5.5,13h-1C4.224,13,4,12.776,4,12.5C4,6.233,8.132,4,12,4s8,2.233,8,8.5
				C20,12.776,19.776,13,19.5,13z M18.667,12h0.323C18.809,7.605,16.225,5,12,5s-6.809,2.605-6.99,7h0.222l0.852-1.277
				c0.14-0.209,0.414-0.283,0.64-0.17C6.754,10.565,7.792,11,12,11c3.132,0,3.94-0.244,4.116-0.32
				c0.043-0.052,0.098-0.096,0.161-0.127c0.169-0.083,0.372-0.066,0.523,0.047L18.667,12z M16,10.998c0,0,0,0.001,0,0.002
				C16,11,16,10.999,16,10.998z"/>
		</g>
		<g>
			<path d="M12,24C5.383,24,0,18.617,0,12S5.383,0,12,0s12,5.383,12,12S18.617,24,12,24z M12,1C5.935,1,1,5.935,1,12s4.935,11,11,11
				s11-4.935,11-11S18.065,1,12,1z"/>
		</g>
		<g>
			<path d="M4.023,20.795c-0.191,0-0.373-0.109-0.456-0.294c-0.114-0.251-0.002-0.548,0.25-0.661
				c0.173-0.079,0.352-0.149,0.535-0.213l2.033-0.707c0.297-0.104,0.57-0.261,0.81-0.467l0.966-0.832
				c0.208-0.18,0.524-0.157,0.705,0.053c0.18,0.209,0.157,0.525-0.053,0.705L7.847,19.21c-0.335,0.288-0.716,0.508-1.133,0.653
				L4.68,20.571c-0.154,0.054-0.305,0.114-0.452,0.18C4.161,20.781,4.091,20.795,4.023,20.795z"/>
		</g>
		<g>
			<path d="M19.954,20.796c-0.068,0-0.138-0.014-0.205-0.044c-0.148-0.067-0.301-0.127-0.456-0.182l-2.033-0.707
				c-0.418-0.145-0.799-0.365-1.134-0.653l-0.966-0.832c-0.209-0.18-0.233-0.496-0.053-0.705c0.18-0.21,0.497-0.233,0.705-0.053
				l0.966,0.832c0.239,0.206,0.512,0.363,0.81,0.467l2.033,0.707c0.184,0.064,0.363,0.135,0.538,0.214
				c0.252,0.113,0.364,0.41,0.251,0.661C20.327,20.687,20.145,20.796,19.954,20.796z"/>
		</g>
		<g>
			<path d="M11.987,20c-0.266,0-0.525-0.03-0.781-0.074c-0.116-0.019-0.232-0.045-0.35-0.073c-0.092-0.023-0.176-0.049-0.261-0.076
				C8.909,19.28,7.47,17.88,6.672,15.982C6.604,15.995,6.542,16,6.487,16c-0.855,0-1.5-1.075-1.5-2.5
				c0-0.398,0.053-0.792,0.153-1.139c0.077-0.266,0.353-0.417,0.619-0.342c0.266,0.077,0.418,0.354,0.342,0.619
				c-0.075,0.258-0.114,0.556-0.114,0.861c0,0.967,0.375,1.499,0.5,1.5c-0.002,0,0.033-0.012,0.094-0.074
				c0.122-0.125,0.301-0.176,0.468-0.138c0.169,0.039,0.307,0.163,0.362,0.327c0.635,1.866,1.934,3.252,3.476,3.707
				c0.076,0.024,0.142,0.044,0.209,0.062c0.087,0.021,0.18,0.042,0.275,0.058c0.408,0.069,0.825,0.069,1.229,0
				c0.098-0.016,0.191-0.037,0.284-0.06c0.061-0.016,0.127-0.036,0.194-0.057c1.551-0.458,2.85-1.844,3.484-3.709
				c0.056-0.165,0.193-0.288,0.362-0.327c0.17-0.041,0.347,0.013,0.468,0.137c0.064,0.066,0.1,0.076,0.101,0.076
				c0.119,0,0.495-0.533,0.495-1.5c0-0.303-0.039-0.6-0.113-0.858c-0.076-0.266,0.078-0.542,0.343-0.618
				c0.266-0.077,0.542,0.078,0.618,0.343c0.1,0.347,0.152,0.739,0.152,1.133c0,1.425-0.645,2.5-1.5,2.5
				c-0.055,0-0.117-0.005-0.185-0.018c-0.798,1.897-2.237,3.298-3.932,3.798c-0.076,0.024-0.16,0.05-0.246,0.071
				c-0.124,0.03-0.241,0.056-0.36,0.075C12.511,19.97,12.251,20,11.987,20z"/>
		</g>
		<g>
			<path d="M10.5,14h-1C9.224,14,9,13.776,9,13.5S9.224,13,9.5,13h1c0.276,0,0.5,0.224,0.5,0.5S10.776,14,10.5,14z"/>
		</g>
		<g>
			<path d="M14.5,14h-1c-0.276,0-0.5-0.224-0.5-0.5s0.224-0.5,0.5-0.5h1c0.276,0,0.5,0.224,0.5,0.5S14.776,14,14.5,14z"/>
		</g>
		<g>
			<path d="M12,22c-3.695,0-5.348-2.429-5.417-2.533c-0.153-0.23-0.09-0.541,0.14-0.693c0.229-0.155,0.54-0.09,0.693,0.14
				C7.473,18.998,8.861,21,12,21c3.153,0,4.527-1.987,4.584-2.072c0.154-0.229,0.464-0.291,0.693-0.138
				c0.229,0.153,0.292,0.461,0.14,0.69C17.349,19.584,15.71,22,12,22z"/>
		</g>
		<g>
			<path d="M12.5,24c-0.276,0-0.5-0.224-0.5-0.5v-4c0-0.276,0.224-0.5,0.5-0.5s0.5,0.224,0.5,0.5v4C13,23.776,12.776,24,12.5,24z"/>
		</g>
	</g>
</g>
<g id="Astronaut">
</g>
<g id="Hipster_Guy">
</g>
<g id="Hipster_Girl">
</g>
<g id="Worker">
</g>
<g id="Old_Man">
</g>
<g id="Punk">
</g>
<g id="Diver">
</g>
<g id="Artist">
</g>
<g id="Dictator">
</g>
<g id="Man_Hat">
</g>
<g id="Woman_Hat">
</g>
<g id="Graduated_Man">
</g>
<g id="Graduated_Woman">
</g>
<g id="Avatar_Chef">
</g>
<g id="Waiter">
</g>
<g id="Waitress">
</g>
<g id="Bllboy">
</g>
<g id="Santa">
</g>
<g id="Doctor">
</g>
<g id="Nurse">
</g>
<g id="Captain">
</g>
<g id="Farmer">
</g>
<g id="Maid">
</g>
<g id="Business_Man_2">
</g>
<g id="Business_Woman_2">
</g>
<g id="Cowboy">
</g>
<g id="Anonymus">
</g>
<g id="Batman">
</g>
<g id="Superman">
</g>
<g id="Captain_America">
</g>
<g id="Darth_Vader">
</g>
<g id="Harry_Potter">
</g>
<g id="Anonymus_2">
</g>
<g id="Scream">
</g>
<g id="Jason">
</g>
<g id="Charlie_Chaplin">
</g>
</svg>
