<?xml version="1.0" encoding="iso-8859-1"?>
<!-- Generator: Adobe Illustrator 19.2.1, SVG Export Plug-In . SVG Version: 6.00 Build 0)  -->
<svg version="1.1" xmlns="http://www.w3.org/2000/svg" xmlns:xlink="http://www.w3.org/1999/xlink" x="0px" y="0px"
	 viewBox="0 0 24 24" style="enable-background:new 0 0 24 24;" xml:space="preserve">
<g id="Man_1">
</g>
<g id="Woman_1">
</g>
<g id="Man_2">
</g>
<g id="Woman_2">
</g>
<g id="Bald_Man">
</g>
<g id="Man_Glasses">
</g>
<g id="Woman_Glasses">
</g>
<g id="Man_Beard">
</g>
<g id="Man_Cap">
</g>
<g id="Woman_Cap">
</g>
<g id="Man_3">
</g>
<g id="Woman_3">
</g>
<g id="Men_4">
</g>
<g id="Woman_4">
</g>
<g id="Business_Man_1">
</g>
<g id="Business_Woman_1">
</g>
<g id="Firefigyhter">
</g>
<g id="Policeman">
</g>
<g id="Criminal">
</g>
<g id="Prisoner">
</g>
<g id="Woodsman">
</g>
<g id="Dispatcher_1">
</g>
<g id="Dispatcher_2">
</g>
<g id="Soldier">
</g>
<g id="Astronaut">
</g>
<g id="Hipster_Guy">
</g>
<g id="Hipster_Girl">
</g>
<g id="Worker">
</g>
<g id="Old_Man">
</g>
<g id="Punk">
</g>
<g id="Diver">
</g>
<g id="Artist">
</g>
<g id="Dictator">
</g>
<g id="Man_Hat">
</g>
<g id="Woman_Hat">
</g>
<g id="Graduated_Man">
</g>
<g id="Graduated_Woman">
</g>
<g id="Avatar_Chef">
</g>
<g id="Waiter">
</g>
<g id="Waitress">
</g>
<g id="Bllboy">
</g>
<g id="Santa">
</g>
<g id="Doctor">
</g>
<g id="Nurse">
</g>
<g id="Captain">
</g>
<g id="Farmer">
</g>
<g id="Maid">
</g>
<g id="Business_Man_2">
</g>
<g id="Business_Woman_2">
</g>
<g id="Cowboy">
</g>
<g id="Anonymus">
</g>
<g id="Batman">
</g>
<g id="Superman">
	<g>
		<g>
			<path d="M4.036,20.795c-0.191,0-0.373-0.109-0.456-0.294c-0.114-0.252-0.002-0.548,0.25-0.662
				c0.173-0.078,0.352-0.149,0.535-0.213l2.033-0.707c0.298-0.104,0.57-0.261,0.81-0.466l0.786-0.677
				c0.208-0.18,0.523-0.157,0.705,0.053c0.18,0.209,0.157,0.524-0.053,0.705L7.86,19.211c-0.335,0.288-0.716,0.508-1.133,0.653
				l-2.034,0.707c-0.154,0.054-0.305,0.113-0.452,0.18C4.174,20.781,4.104,20.795,4.036,20.795z"/>
		</g>
		<g>
			<path d="M19.967,20.797c-0.069,0-0.139-0.015-0.207-0.045c-0.147-0.066-0.298-0.127-0.453-0.181l-2.034-0.707
				c-0.417-0.146-0.799-0.365-1.134-0.653l-0.786-0.677c-0.209-0.181-0.233-0.496-0.053-0.705c0.18-0.21,0.496-0.232,0.705-0.053
				l0.786,0.677c0.239,0.205,0.512,0.362,0.81,0.466l2.033,0.707c0.184,0.063,0.364,0.136,0.54,0.216
				c0.251,0.114,0.362,0.41,0.248,0.662C20.339,20.688,20.158,20.797,19.967,20.797z"/>
		</g>
		<g>
			<path d="M12,24C5.383,24,0,18.617,0,12S5.383,0,12,0s12,5.383,12,12S18.617,24,12,24z M12,1C5.935,1,1,5.935,1,12s4.935,11,11,11
				s11-4.935,11-11S18.065,1,12,1z"/>
		</g>
		<g>
			<path d="M17,12c-0.051,0-0.103-0.008-0.152-0.023c-0.143-0.046-0.257-0.152-0.313-0.291c-0.045-0.114-0.386-0.98-0.499-1.742
				c-0.686-0.168-1.273-0.687-1.639-1.264c-0.021,0.018-0.042,0.036-0.063,0.054c-0.903,0.741-2.594,1.104-3.932,0.835
				C9.554,9.401,8.86,9.513,8.285,9.911c-0.27,0.187-0.625,1.034-0.8,1.714c-0.04,0.153-0.151,0.279-0.298,0.339
				c-0.147,0.058-0.315,0.045-0.45-0.039C6.545,11.807,5.952,11.5,5.5,11.5C5.224,11.5,5,11.276,5,11s0.224-0.5,0.5-0.5
				c0.427,0,0.863,0.141,1.195,0.283c0.197-0.57,0.542-1.363,1.02-1.694c0.798-0.554,1.768-0.721,2.882-0.501
				c1.161,0.228,2.517-0.146,3.103-0.627C13.812,7.868,14,7.687,14,7.5C14,7.224,14.224,7,14.5,7S15,7.224,15,7.5
				C15,8.038,15.756,9,16.5,9C16.776,9,17,9.224,17,9.5c0,0.35,0.142,0.877,0.277,1.291c0.332-0.146,0.775-0.291,1.223-0.291
				c0.276,0,0.5,0.224,0.5,0.5s-0.224,0.5-0.5,0.5c-0.561,0-1.223,0.416-1.229,0.42C17.189,11.973,17.095,12,17,12z"/>
		</g>
		<g>
			<path d="M14,20h-4c-0.114,0-0.224-0.039-0.313-0.109l-2.5-2c-0.092-0.074-0.155-0.178-0.178-0.294
				c-0.11-0.558-0.271-1.344-0.392-1.891c-0.042,0.006-0.081,0.008-0.117,0.008c-0.869,0-1.5-1.111-1.5-2.643
				c0-0.239,0.072-0.864,0.098-1.081C5.079,11.755,5,10.777,5,10.5C5,6.364,8.14,3,12,3c0.977,0,1.888,0.429,2.692,0.808
				c0.143,0.066,0.283,0.133,0.421,0.195c0.23-0.031,0.459-0.056,0.665,0.082C17.766,5.422,19,7.88,19,10.5
				c0,0.277-0.079,1.255-0.098,1.49C18.928,12.207,19,12.832,19,13.071c0,1.531-0.631,2.643-1.5,2.643
				c-0.037,0-0.077-0.002-0.119-0.008c-0.137,0.614-0.313,1.493-0.39,1.89c-0.022,0.116-0.086,0.221-0.178,0.295l-2.5,2
				C14.224,19.961,14.114,20,14,20z M10.175,19h3.649l2.22-1.776c0.105-0.535,0.396-1.987,0.527-2.4
				c0.054-0.171,0.194-0.299,0.368-0.338c0.174-0.039,0.356,0.019,0.477,0.15c0.052,0.057,0.088,0.077,0.097,0.08
				C17.617,14.685,18,14.135,18,13.071c0-0.231-0.096-1.009-0.097-1.011c-0.004-0.034-0.004-0.068-0.001-0.103
				c0-0.002,0.098-1.159,0.098-1.458c0-2.246-1.022-4.346-2.677-5.515c-0.205,0.029-0.364,0.042-0.525-0.027
				c-0.175-0.078-0.352-0.161-0.532-0.246C13.522,4.362,12.753,4,12,4c-3.309,0-6,2.916-6,6.5c0,0.299,0.098,1.456,0.098,1.458
				c0.003,0.034,0.002,0.068-0.001,0.103C6.096,12.063,6,12.84,6,13.071c0,1.063,0.382,1.612,0.504,1.643
				c-0.008-0.002,0.028-0.022,0.078-0.078c0.121-0.132,0.301-0.19,0.477-0.15c0.174,0.038,0.315,0.167,0.369,0.337
				c0.119,0.375,0.419,1.859,0.527,2.401L10.175,19z"/>
		</g>
		<g>
			<path d="M10.5,14h-1C9.224,14,9,13.776,9,13.5S9.224,13,9.5,13h1c0.276,0,0.5,0.224,0.5,0.5S10.776,14,10.5,14z"/>
		</g>
		<g>
			<path d="M14.5,14h-1c-0.276,0-0.5-0.224-0.5-0.5s0.224-0.5,0.5-0.5h1c0.276,0,0.5,0.224,0.5,0.5S14.776,14,14.5,14z"/>
		</g>
		<g>
			<path d="M10.87,12c-0.26,0-0.514-0.101-0.715-0.293c-0.2-0.19-0.207-0.507-0.016-0.707c0.191-0.198,0.508-0.206,0.707-0.016
				c0.021,0.02,0.026,0.017,0.037,0.012c0.041-0.017,0.118-0.1,0.118-0.285c-0.011,0.02-0.096-0.048-0.143-0.082
				c-0.068-0.05-0.128-0.096-0.172-0.138c-0.382-0.368-0.365-0.729-0.321-0.91c0.139-0.577,0.841-0.83,1.052-0.894
				c0.264-0.08,0.541,0.068,0.622,0.333c0.081,0.263-0.068,0.542-0.331,0.624c-0.103,0.031-0.221,0.088-0.301,0.14l0.038,0.034
				C11.624,9.949,12,10.222,12,10.711c0,0.552-0.278,1.014-0.725,1.205C11.143,11.973,11.005,12,10.87,12z"/>
		</g>
		<g>
			<path d="M15.5,22c-0.078,0-0.156-0.018-0.228-0.055c-0.193-0.099-0.301-0.312-0.266-0.525l0.5-3.069
				c0.044-0.272,0.296-0.461,0.574-0.413c0.272,0.044,0.458,0.301,0.413,0.573l-0.28,1.719c0.655-0.487,1.502-0.983,2.243-0.983
				c0.276,0,0.5,0.224,0.5,0.5s-0.224,0.5-0.5,0.5c-0.728,0-1.982,0.985-2.602,1.607C15.758,21.949,15.63,22,15.5,22z"/>
		</g>
		<g>
			<path d="M8.5,22c-0.128,0-0.254-0.049-0.35-0.143c-0.633-0.62-1.907-1.604-2.627-1.604c-0.276,0-0.5-0.224-0.5-0.5
				s0.224-0.5,0.5-0.5c0.74,0,1.602,0.502,2.265,0.991l-0.284-1.729c-0.045-0.272,0.14-0.529,0.412-0.574
				c0.272-0.049,0.53,0.14,0.574,0.412l0.503,3.066c0.035,0.213-0.071,0.425-0.263,0.524C8.658,21.981,8.579,22,8.5,22z"/>
		</g>
	</g>
</g>
<g id="Captain_America">
</g>
<g id="Darth_Vader">
</g>
<g id="Harry_Potter">
</g>
<g id="Anonymus_2">
</g>
<g id="Scream">
</g>
<g id="Jason">
</g>
<g id="Charlie_Chaplin">
</g>
</svg>
