<?xml version="1.0" encoding="iso-8859-1"?>
<!-- Generator: Adobe Illustrator 19.2.1, SVG Export Plug-In . SVG Version: 6.00 Build 0)  -->
<svg version="1.1" xmlns="http://www.w3.org/2000/svg" xmlns:xlink="http://www.w3.org/1999/xlink" x="0px" y="0px"
	 viewBox="0 0 24 24" style="enable-background:new 0 0 24 24;" xml:space="preserve">
<g id="Man_1">
</g>
<g id="Woman_1">
</g>
<g id="Man_2">
</g>
<g id="Woman_2">
</g>
<g id="Bald_Man">
</g>
<g id="Man_Glasses">
</g>
<g id="Woman_Glasses">
</g>
<g id="Man_Beard">
</g>
<g id="Man_Cap">
</g>
<g id="Woman_Cap">
</g>
<g id="Man_3">
</g>
<g id="Woman_3">
</g>
<g id="Men_4">
</g>
<g id="Woman_4">
</g>
<g id="Business_Man_1">
</g>
<g id="Business_Woman_1">
</g>
<g id="Firefigyhter">
</g>
<g id="Policeman">
</g>
<g id="Criminal">
</g>
<g id="Prisoner">
</g>
<g id="Woodsman">
</g>
<g id="Dispatcher_1">
</g>
<g id="Dispatcher_2">
</g>
<g id="Soldier">
</g>
<g id="Astronaut">
</g>
<g id="Hipster_Guy">
</g>
<g id="Hipster_Girl">
</g>
<g id="Worker">
</g>
<g id="Old_Man">
</g>
<g id="Punk">
</g>
<g id="Diver">
</g>
<g id="Artist">
</g>
<g id="Dictator">
</g>
<g id="Man_Hat">
</g>
<g id="Woman_Hat">
</g>
<g id="Graduated_Man">
</g>
<g id="Graduated_Woman">
</g>
<g id="Avatar_Chef">
</g>
<g id="Waiter">
</g>
<g id="Waitress">
	<g>
		<g>
			<path d="M3.657,20.181l-0.369-0.93c0,0,0.905-0.36,1.077-0.42l2.033-0.707c0.299-0.104,0.571-0.261,0.808-0.466l0.968-0.832
				c0.211-0.18,0.525-0.157,0.705,0.053c0.181,0.209,0.156,0.525-0.053,0.705l-0.967,0.832c-0.332,0.287-0.714,0.507-1.132,0.652
				l-2.034,0.708C4.527,19.834,3.657,20.181,3.657,20.181z"/>
		</g>
		<g>
			<path d="M20.336,20.178c-0.001,0-0.833-0.346-0.998-0.404l-2.032-0.706c-0.419-0.146-0.801-0.366-1.134-0.653l-0.966-0.832
				c-0.209-0.18-0.233-0.496-0.053-0.705c0.18-0.21,0.495-0.231,0.705-0.053l0.967,0.832c0.237,0.205,0.51,0.362,0.81,0.467
				l2.032,0.706c0.176,0.062,1.052,0.425,1.052,0.425L20.336,20.178z"/>
		</g>
		<g>
			<path d="M12,24C5.383,24,0,18.617,0,12S5.383,0,12,0s12,5.383,12,12S18.617,24,12,24z M12,1C5.935,1,1,5.935,1,12s4.935,11,11,11
				s11-4.935,11-11S18.065,1,12,1z"/>
		</g>
		<g>
			<path d="M17,11.5c-0.04,0-0.08-0.005-0.12-0.015c-0.131-0.032-0.244-0.116-0.312-0.233c-0.048-0.081-0.392-0.688-0.521-1.372
				c-2.068-0.119-3.92-1.035-4.872-1.967C10.463,9.068,8.759,9.357,8,9.357c-0.131,0.105-0.403,0.941-0.504,1.708
				c-0.022,0.168-0.129,0.313-0.282,0.386c-0.154,0.072-0.333,0.063-0.479-0.026C6.545,11.307,5.952,11,5.5,11
				C5.224,11,5,10.776,5,10.5S5.224,10,5.5,10c0.396,0,0.801,0.121,1.123,0.253C6.81,9.41,7.201,8.357,8,8.357
				c0.025,0,2.5-0.07,2.5-1.644c0-0.276,0.224-0.5,0.5-0.5s0.5,0.224,0.5,0.5c0.075,0.441,2.107,2.179,5,2.179
				c0.276,0,0.5,0.224,0.5,0.5c0,0.297,0.11,0.647,0.226,0.926C17.565,10.164,18.038,10,18.5,10c0.276,0,0.5,0.224,0.5,0.5
				S18.776,11,18.5,11c-0.454,0-1.059,0.314-1.235,0.424C17.185,11.474,17.093,11.5,17,11.5z"/>
		</g>
		<g>
			<path d="M12,19c-0.241,0-0.491-0.025-0.787-0.079c-0.115-0.021-0.235-0.049-0.354-0.08c-0.089-0.023-0.175-0.051-0.261-0.08
				c-1.688-0.534-3.126-2.034-3.922-4.063c-0.064,0.012-0.124,0.017-0.177,0.017c-0.869,0-1.5-1.111-1.5-2.643
				c0-0.218,0.06-0.759,0.09-1.016C5.049,10.924,5,10.713,5,10.464C5,6.349,8.141,3,12,3c0.276,0,0.5,0.224,0.5,0.5S12.276,4,12,4
				c-3.309,0-6,2.899-6,6.464c0,0.191,0.06,0.34,0.061,0.342c0.031,0.078,0.046,0.17,0.035,0.254C6.096,11.063,6,11.84,6,12.071
				c0,1.063,0.382,1.613,0.504,1.643c-0.008-0.002,0.027-0.022,0.078-0.078c0.121-0.132,0.307-0.188,0.477-0.15
				c0.175,0.038,0.315,0.167,0.369,0.337c0.638,2.009,1.939,3.5,3.481,3.988c0.074,0.024,0.139,0.046,0.206,0.063
				c0.089,0.023,0.18,0.046,0.273,0.062C11.593,17.974,11.794,18,12,18c0.276,0,0.5,0.224,0.5,0.5S12.276,19,12,19z M6.504,13.714
				h0.01H6.504z"/>
		</g>
		<g>
			<path d="M12,19c-0.276,0-0.5-0.224-0.5-0.5S11.724,18,12,18c0.206,0,0.407-0.026,0.605-0.063c0.1-0.017,0.19-0.039,0.281-0.063
				c0.065-0.018,0.13-0.039,0.194-0.061c1.552-0.491,2.854-1.982,3.491-3.991c0.054-0.17,0.194-0.299,0.369-0.337
				c0.171-0.039,0.355,0.019,0.477,0.15c0.051,0.057,0.087,0.077,0.096,0.08c0.104-0.03,0.486-0.58,0.486-1.645
				c0-0.231-0.096-1.012-0.096-1.012c-0.012-0.089,0.002-0.178,0.038-0.26l0,0C17.941,10.8,18,10.653,18,10.464
				C18,6.899,15.309,4,12,4c-0.276,0-0.5-0.224-0.5-0.5S11.724,3,12,3c3.859,0,7,3.349,7,7.464c0,0.249-0.049,0.46-0.09,0.592
				c0.03,0.257,0.09,0.798,0.09,1.016c0,1.531-0.631,2.643-1.5,2.643c-0.053,0-0.112-0.005-0.177-0.017
				c-0.796,2.029-2.234,3.529-3.932,4.066c-0.076,0.026-0.162,0.054-0.249,0.077c-0.12,0.031-0.24,0.06-0.361,0.081
				C12.491,18.975,12.241,19,12,19z"/>
		</g>
		<g>
			<path d="M10.5,12h-1C9.224,12,9,11.776,9,11.5S9.224,11,9.5,11h1c0.276,0,0.5,0.224,0.5,0.5S10.776,12,10.5,12z"/>
		</g>
		<g>
			<path d="M14.5,12h-1c-0.276,0-0.5-0.224-0.5-0.5s0.224-0.5,0.5-0.5h1c0.276,0,0.5,0.224,0.5,0.5S14.776,12,14.5,12z"/>
		</g>
		<g>
			<path d="M16,18c-0.263,0-0.483-0.205-0.499-0.471c-0.017-0.275,0.194-0.513,0.47-0.528c0.678-0.04,2.117-0.518,2.95-0.819
				C18.671,14.998,18,11.701,18,10.5c0-0.276,0.224-0.5,0.5-0.5s0.5,0.224,0.5,0.5c0,1.337,0.979,5.849,0.988,5.894
				c0.053,0.241-0.078,0.484-0.309,0.573c-0.103,0.039-2.523,0.966-3.65,1.032C16.02,18,16.01,18,16,18z"/>
		</g>
		<g>
			<path d="M8,18c-0.01,0-0.02,0-0.029-0.001c-1.127-0.066-3.548-0.993-3.65-1.032c-0.23-0.089-0.361-0.332-0.309-0.573
				C4.021,16.349,5,11.837,5,10.5C5,10.224,5.224,10,5.5,10S6,10.224,6,10.5c0,1.201-0.671,4.498-0.921,5.682
				c0.833,0.302,2.272,0.779,2.95,0.819c0.275,0.016,0.486,0.253,0.47,0.528C8.483,17.795,8.263,18,8,18z"/>
		</g>
		<g>
			<path d="M12,24c-0.128,0-0.256-0.049-0.354-0.146l-5-5c-0.195-0.195-0.195-0.512,0-0.707s0.512-0.195,0.707,0L12,22.793
				l4.646-4.646c0.195-0.195,0.512-0.195,0.707,0s0.195,0.512,0,0.707l-5,5C12.256,23.951,12.128,24,12,24z"/>
		</g>
		<g>
			<path d="M13.5,21c-0.053,0-0.106-0.009-0.158-0.025L12,20.527l-1.342,0.447c-0.153,0.049-0.321,0.024-0.45-0.069
				C10.077,20.812,10,20.661,10,20.5v-1c0-0.161,0.077-0.312,0.208-0.405c0.129-0.095,0.297-0.118,0.45-0.069L12,19.473l1.342-0.447
				c0.152-0.049,0.32-0.025,0.45,0.069C13.923,19.188,14,19.339,14,19.5v1c0,0.161-0.077,0.312-0.208,0.405
				C13.706,20.968,13.604,21,13.5,21z"/>
		</g>
		<g>
			<path d="M6.5,22.602c-0.276,0-0.5-0.224-0.5-0.5c-0.001-1.155-0.181-2.613-0.47-2.955c-0.179-0.21-0.153-0.526,0.058-0.704
				c0.21-0.179,0.527-0.153,0.704,0.058C6.966,19.294,7,21.64,7,22.102C7,22.378,6.776,22.602,6.5,22.602z"/>
		</g>
		<g>
			<path d="M17.516,22.602c-0.276,0-0.5-0.224-0.5-0.5c0-0.462,0.034-2.808,0.708-3.602c0.179-0.211,0.495-0.236,0.704-0.058
				c0.211,0.178,0.236,0.494,0.058,0.704c-0.29,0.343-0.47,1.801-0.47,2.955C18.016,22.378,17.792,22.602,17.516,22.602z"/>
		</g>
	</g>
</g>
<g id="Bllboy">
</g>
<g id="Santa">
</g>
<g id="Doctor">
</g>
<g id="Nurse">
</g>
<g id="Captain">
</g>
<g id="Farmer">
</g>
<g id="Maid">
</g>
<g id="Business_Man_2">
</g>
<g id="Business_Woman_2">
</g>
<g id="Cowboy">
</g>
<g id="Anonymus">
</g>
<g id="Batman">
</g>
<g id="Superman">
</g>
<g id="Captain_America">
</g>
<g id="Darth_Vader">
</g>
<g id="Harry_Potter">
</g>
<g id="Anonymus_2">
</g>
<g id="Scream">
</g>
<g id="Jason">
</g>
<g id="Charlie_Chaplin">
</g>
</svg>
