<?xml version="1.0" encoding="iso-8859-1"?>
<!-- Generator: Adobe Illustrator 19.2.1, SVG Export Plug-In . SVG Version: 6.00 Build 0)  -->
<svg version="1.1" xmlns="http://www.w3.org/2000/svg" xmlns:xlink="http://www.w3.org/1999/xlink" x="0px" y="0px"
	 viewBox="0 0 24 24" style="enable-background:new 0 0 24 24;" xml:space="preserve">
<g id="Man_1">
</g>
<g id="Woman_1">
</g>
<g id="Man_2">
</g>
<g id="Woman_2">
</g>
<g id="Bald_Man">
</g>
<g id="Man_Glasses">
</g>
<g id="Woman_Glasses">
</g>
<g id="Man_Beard">
</g>
<g id="Man_Cap">
</g>
<g id="Woman_Cap">
</g>
<g id="Man_3">
</g>
<g id="Woman_3">
</g>
<g id="Men_4">
</g>
<g id="Woman_4">
</g>
<g id="Business_Man_1">
</g>
<g id="Business_Woman_1">
</g>
<g id="Firefigyhter">
</g>
<g id="Policeman">
</g>
<g id="Criminal">
</g>
<g id="Prisoner">
</g>
<g id="Woodsman">
</g>
<g id="Dispatcher_1">
</g>
<g id="Dispatcher_2">
</g>
<g id="Soldier">
</g>
<g id="Astronaut">
</g>
<g id="Hipster_Guy">
</g>
<g id="Hipster_Girl">
</g>
<g id="Worker">
</g>
<g id="Old_Man">
</g>
<g id="Punk">
</g>
<g id="Diver">
</g>
<g id="Artist">
</g>
<g id="Dictator">
</g>
<g id="Man_Hat">
</g>
<g id="Woman_Hat">
</g>
<g id="Graduated_Man">
</g>
<g id="Graduated_Woman">
</g>
<g id="Avatar_Chef">
</g>
<g id="Waiter">
	<g>
		<g>
			<path d="M2.85,19.271l-0.357-0.934c0,0,1.701-0.651,1.871-0.711l2.033-0.707c0.298-0.104,0.57-0.261,0.81-0.466l0.966-0.832
				c0.21-0.179,0.525-0.157,0.705,0.053c0.18,0.209,0.156,0.524-0.053,0.705l-0.966,0.832c-0.335,0.288-0.716,0.508-1.134,0.653
				l-2.033,0.707C4.523,18.629,2.85,19.271,2.85,19.271z"/>
		</g>
		<g>
			<path d="M21.167,19.202c0,0-1.691-0.572-1.861-0.631l-2.033-0.707c-0.418-0.146-0.799-0.365-1.134-0.653l-0.967-0.832
				c-0.209-0.18-0.233-0.496-0.053-0.705c0.181-0.21,0.496-0.231,0.705-0.053l0.967,0.832c0.239,0.205,0.512,0.362,0.81,0.466
				l2.033,0.707c0.168,0.059,1.854,0.629,1.854,0.629L21.167,19.202z"/>
		</g>
		<g>
			<path d="M12,24C5.383,24,0,18.617,0,12S5.383,0,12,0s12,5.383,12,12S18.617,24,12,24z M12,1C5.935,1,1,5.935,1,12s4.935,11,11,11
				s11-4.935,11-11S18.065,1,12,1z"/>
		</g>
		<g>
			<path d="M17,10.5c-0.039,0-0.078-0.005-0.116-0.014c-0.133-0.032-0.247-0.116-0.315-0.234c-0.048-0.081-0.392-0.688-0.521-1.372
				c-2.068-0.119-3.92-1.035-4.872-1.967C10.463,8.068,8.759,8.357,8,8.357c-0.131,0.105-0.403,0.941-0.504,1.708
				c-0.022,0.168-0.129,0.313-0.282,0.386c-0.154,0.072-0.333,0.063-0.479-0.026C6.545,10.307,5.952,10,5.5,10
				C5.224,10,5,9.776,5,9.5S5.224,9,5.5,9c0.396,0,0.801,0.121,1.123,0.253C6.81,8.41,7.201,7.357,8,7.357
				c0.025,0,2.5-0.07,2.5-1.644c0-0.276,0.224-0.5,0.5-0.5s0.5,0.224,0.5,0.5c0.075,0.441,2.107,2.179,5,2.179
				c0.276,0,0.5,0.224,0.5,0.5c0,0.296,0.109,0.645,0.224,0.923C17.562,9.161,18.028,9,18.5,9C18.776,9,19,9.224,19,9.5
				S18.776,10,18.5,10c-0.561,0-1.223,0.416-1.229,0.42C17.189,10.473,17.095,10.5,17,10.5z"/>
		</g>
		<g>
			<path d="M12,18c-0.241,0-0.491-0.025-0.787-0.079c-0.115-0.021-0.235-0.049-0.354-0.08c-0.089-0.023-0.175-0.051-0.261-0.08
				c-1.688-0.534-3.126-2.034-3.922-4.063c-0.064,0.012-0.124,0.017-0.177,0.017c-0.869,0-1.5-1.111-1.5-2.643
				c0-0.218,0.06-0.759,0.09-1.016C5.049,9.924,5,9.713,5,9.464C5,5.349,8.141,2,12,2c0.276,0,0.5,0.224,0.5,0.5S12.276,3,12,3
				C8.691,3,6,5.899,6,9.464c0,0.191,0.06,0.34,0.061,0.342c0.031,0.078,0.046,0.17,0.035,0.254C6.096,10.063,6,10.84,6,11.071
				c0,1.063,0.382,1.613,0.504,1.643c-0.008-0.002,0.027-0.022,0.078-0.078c0.121-0.132,0.307-0.188,0.477-0.15
				c0.175,0.038,0.315,0.167,0.369,0.337c0.638,2.009,1.939,3.5,3.481,3.988c0.074,0.024,0.139,0.046,0.206,0.063
				c0.089,0.023,0.18,0.046,0.273,0.062C11.593,16.974,11.794,17,12,17c0.276,0,0.5,0.224,0.5,0.5S12.276,18,12,18z M6.504,12.714
				h0.01H6.504z"/>
		</g>
		<g>
			<path d="M12,18c-0.276,0-0.5-0.224-0.5-0.5S11.724,17,12,17c0.206,0,0.407-0.026,0.605-0.063c0.1-0.017,0.19-0.039,0.281-0.063
				c0.065-0.018,0.13-0.039,0.194-0.061c1.552-0.491,2.854-1.982,3.491-3.991c0.054-0.17,0.194-0.299,0.369-0.337
				c0.17-0.038,0.355,0.019,0.477,0.15c0.051,0.057,0.087,0.077,0.096,0.08c0.104-0.03,0.486-0.58,0.486-1.645
				c0-0.231-0.096-1.012-0.096-1.012c-0.012-0.089,0.002-0.178,0.038-0.26l0,0C17.941,9.8,18,9.653,18,9.464C18,5.899,15.309,3,12,3
				c-0.276,0-0.5-0.224-0.5-0.5S11.724,2,12,2c3.859,0,7,3.349,7,7.464c0,0.249-0.049,0.46-0.09,0.592
				c0.03,0.257,0.09,0.798,0.09,1.016c0,1.531-0.631,2.643-1.5,2.643c-0.053,0-0.112-0.005-0.177-0.017
				c-0.796,2.029-2.234,3.529-3.932,4.066c-0.076,0.026-0.162,0.054-0.249,0.077c-0.12,0.031-0.24,0.06-0.361,0.081
				C12.491,17.975,12.241,18,12,18z"/>
		</g>
		<g>
			<path d="M10.5,11h-1C9.224,11,9,10.776,9,10.5S9.224,10,9.5,10h1c0.276,0,0.5,0.224,0.5,0.5S10.776,11,10.5,11z"/>
		</g>
		<g>
			<path d="M14.5,11h-1c-0.276,0-0.5-0.224-0.5-0.5s0.224-0.5,0.5-0.5h1c0.276,0,0.5,0.224,0.5,0.5S14.776,11,14.5,11z"/>
		</g>
		<g>
			<path d="M12,24c-0.164,0-0.317-0.08-0.411-0.216l-4.562-6.592c-0.157-0.227-0.101-0.538,0.127-0.695
				c0.226-0.158,0.538-0.102,0.695,0.127L12,22.621l4.146-5.997c0.157-0.229,0.469-0.285,0.695-0.127
				c0.228,0.157,0.284,0.469,0.127,0.695l-4.558,6.592C12.318,23.919,12.164,24,12,24z"/>
		</g>
		<g>
			<path d="M13.5,20c-0.053,0-0.106-0.009-0.158-0.025L12,19.527l-1.342,0.447c-0.154,0.049-0.32,0.024-0.45-0.069
				C10.077,19.812,10,19.661,10,19.5v-1c0-0.161,0.077-0.312,0.208-0.405c0.13-0.095,0.296-0.12,0.45-0.069L12,18.473l1.342-0.447
				c0.153-0.051,0.319-0.025,0.45,0.069C13.923,18.188,14,18.339,14,18.5v1c0,0.161-0.077,0.312-0.208,0.405
				C13.706,19.968,13.604,20,13.5,20z"/>
		</g>
		<g>
			<path d="M18.5,22c-0.269,0-0.49-0.213-0.5-0.482c-0.01-0.28-0.071-2.765,0.702-3.837c0.161-0.226,0.474-0.277,0.697-0.113
				c0.225,0.161,0.275,0.474,0.113,0.697c-0.433,0.601-0.544,2.293-0.513,3.219c0.009,0.275-0.207,0.507-0.483,0.517
				C18.511,22,18.506,22,18.5,22z"/>
		</g>
		<g>
			<path d="M5.496,22c-0.006,0-0.011,0-0.017,0c-0.276-0.01-0.492-0.241-0.483-0.517c0.031-0.926-0.08-2.618-0.513-3.219
				c-0.161-0.224-0.11-0.536,0.114-0.698c0.222-0.161,0.536-0.111,0.698,0.114c0.771,1.072,0.71,3.557,0.7,3.837
				C5.986,21.787,5.765,22,5.496,22z"/>
		</g>
	</g>
</g>
<g id="Waitress">
</g>
<g id="Bllboy">
</g>
<g id="Santa">
</g>
<g id="Doctor">
</g>
<g id="Nurse">
</g>
<g id="Captain">
</g>
<g id="Farmer">
</g>
<g id="Maid">
</g>
<g id="Business_Man_2">
</g>
<g id="Business_Woman_2">
</g>
<g id="Cowboy">
</g>
<g id="Anonymus">
</g>
<g id="Batman">
</g>
<g id="Superman">
</g>
<g id="Captain_America">
</g>
<g id="Darth_Vader">
</g>
<g id="Harry_Potter">
</g>
<g id="Anonymus_2">
</g>
<g id="Scream">
</g>
<g id="Jason">
</g>
<g id="Charlie_Chaplin">
</g>
</svg>
