<?xml version="1.0" encoding="iso-8859-1"?>
<!-- Generator: Adobe Illustrator 19.2.1, SVG Export Plug-In . SVG Version: 6.00 Build 0)  -->
<svg version="1.1" xmlns="http://www.w3.org/2000/svg" xmlns:xlink="http://www.w3.org/1999/xlink" x="0px" y="0px"
	 viewBox="0 0 24 24" style="enable-background:new 0 0 24 24;" xml:space="preserve">
<g id="Man_1">
</g>
<g id="Woman_1">
	<g>
		<g>
			<path d="M12,24C5.383,24,0,18.617,0,12S5.383,0,12,0s12,5.383,12,12S18.617,24,12,24z M12,1C5.935,1,1,5.935,1,12s4.935,11,11,11
				s11-4.935,11-11S18.065,1,12,1z"/>
		</g>
		<g>
			<path d="M5.346,21.879c-0.219,0-0.419-0.145-0.481-0.366c-0.074-0.266,0.081-0.542,0.347-0.616l1.871-0.522
				c0.679-0.189,1.25-0.66,1.564-1.29L8.941,18.5l-0.27-0.54c-0.685-0.099-2.482-0.409-3.446-1.042
				C5,16.77,4.933,16.468,5.074,16.238C5.088,16.215,6.5,13.894,6.5,12c0-4.084,2.169-6.349,4.286-6.493l0.361-0.361
				C11.24,5.053,11.367,5,11.5,5c3.981,0,6,2.355,6,7c0,1.894,1.412,4.215,1.426,4.238c0.142,0.23,0.075,0.531-0.151,0.68
				c-0.964,0.633-2.762,0.943-3.446,1.042l-0.27,0.54l0.29,0.579c0.317,0.634,0.891,1.105,1.574,1.292l1.869,0.514
				c0.266,0.073,0.423,0.348,0.35,0.614c-0.073,0.267-0.348,0.422-0.614,0.35l-1.869-0.513c-0.957-0.262-1.76-0.922-2.204-1.81
				l-0.401-0.803c-0.07-0.141-0.07-0.307,0-0.447l0.5-1c0.076-0.151,0.222-0.253,0.389-0.273c0.544-0.063,1.961-0.3,2.871-0.702
				C17.364,15.468,16.5,13.648,16.5,12c0-4.011-1.525-5.922-4.795-5.998l-0.351,0.351C11.26,6.447,11.133,6.5,11,6.5
				c-1.697,0-3.5,1.928-3.5,5.5c0,1.648-0.864,3.468-1.313,4.302c0.909,0.402,2.326,0.638,2.871,0.702
				c0.167,0.02,0.313,0.122,0.389,0.273l0.5,1c0.07,0.141,0.07,0.307,0,0.447l-0.405,0.81c-0.441,0.883-1.24,1.541-2.19,1.806
				l-1.871,0.522C5.436,21.874,5.391,21.879,5.346,21.879z"/>
		</g>
	</g>
</g>
<g id="Man_2">
</g>
<g id="Woman_2">
</g>
<g id="Bald_Man">
</g>
<g id="Man_Glasses">
</g>
<g id="Woman_Glasses">
</g>
<g id="Man_Beard">
</g>
<g id="Man_Cap">
</g>
<g id="Woman_Cap">
</g>
<g id="Man_3">
</g>
<g id="Woman_3">
</g>
<g id="Men_4">
</g>
<g id="Woman_4">
</g>
<g id="Business_Man_1">
</g>
<g id="Business_Woman_1">
</g>
<g id="Firefigyhter">
</g>
<g id="Policeman">
</g>
<g id="Criminal">
</g>
<g id="Prisoner">
</g>
<g id="Woodsman">
</g>
<g id="Dispatcher_1">
</g>
<g id="Dispatcher_2">
</g>
<g id="Soldier">
</g>
<g id="Astronaut">
</g>
<g id="Hipster_Guy">
</g>
<g id="Hipster_Girl">
</g>
<g id="Worker">
</g>
<g id="Old_Man">
</g>
<g id="Punk">
</g>
<g id="Diver">
</g>
<g id="Artist">
</g>
<g id="Dictator">
</g>
<g id="Man_Hat">
</g>
<g id="Woman_Hat">
</g>
<g id="Graduated_Man">
</g>
<g id="Graduated_Woman">
</g>
<g id="Avatar_Chef">
</g>
<g id="Waiter">
</g>
<g id="Waitress">
</g>
<g id="Bllboy">
</g>
<g id="Santa">
</g>
<g id="Doctor">
</g>
<g id="Nurse">
</g>
<g id="Captain">
</g>
<g id="Farmer">
</g>
<g id="Maid">
</g>
<g id="Business_Man_2">
</g>
<g id="Business_Woman_2">
</g>
<g id="Cowboy">
</g>
<g id="Anonymus">
</g>
<g id="Batman">
</g>
<g id="Superman">
</g>
<g id="Captain_America">
</g>
<g id="Darth_Vader">
</g>
<g id="Harry_Potter">
</g>
<g id="Anonymus_2">
</g>
<g id="Scream">
</g>
<g id="Jason">
</g>
<g id="Charlie_Chaplin">
</g>
</svg>
