<?xml version="1.0" encoding="iso-8859-1"?>
<!-- Generator: Adobe Illustrator 19.2.1, SVG Export Plug-In . SVG Version: 6.00 Build 0)  -->
<svg version="1.1" xmlns="http://www.w3.org/2000/svg" xmlns:xlink="http://www.w3.org/1999/xlink" x="0px" y="0px"
	 viewBox="0 0 24 24" style="enable-background:new 0 0 24 24;" xml:space="preserve">
<g id="Man_1">
</g>
<g id="Woman_1">
</g>
<g id="Man_2">
</g>
<g id="Woman_2">
</g>
<g id="Bald_Man">
</g>
<g id="Man_Glasses">
</g>
<g id="Woman_Glasses">
</g>
<g id="Man_Beard">
</g>
<g id="Man_Cap">
</g>
<g id="Woman_Cap">
	<g>
		<g>
			<path d="M16.23,12.5c-0.035,0-0.071-0.004-0.106-0.011c-0.14-0.031-0.26-0.12-0.33-0.245c-0.039-0.07-0.319-0.586-0.436-1.179
				c-2.173-0.152-3.996-1.371-4.523-2.267c-0.141-0.238-0.061-0.544,0.177-0.685c0.237-0.139,0.544-0.062,0.685,0.177
				c0.379,0.643,2.076,1.79,4.111,1.79c0.276,0,0.5,0.224,0.5,0.5c0,0.222,0.069,0.48,0.149,0.702
				C16.748,11.138,17.125,11,17.498,11c0.276,0,0.5,0.224,0.5,0.5s-0.224,0.5-0.5,0.5c-0.308,0-0.759,0.247-0.971,0.403
				C16.44,12.466,16.336,12.5,16.23,12.5z"/>
		</g>
		<g>
			<path d="M7.77,12.5c-0.104,0-0.209-0.033-0.296-0.096C7.26,12.248,6.807,12,6.498,12c-0.276,0-0.5-0.224-0.5-0.5
				s0.224-0.5,0.5-0.5c0.315,0,0.634,0.099,0.9,0.216c0.178-0.781,0.529-1.609,1.217-1.609c0.383,0,1.848-0.199,2.021-1.17
				c0.048-0.272,0.313-0.455,0.579-0.405c0.272,0.048,0.454,0.308,0.405,0.58c-0.281,1.584-2.143,1.971-2.931,1.995
				c-0.149,0.178-0.349,0.853-0.424,1.456c-0.022,0.176-0.136,0.326-0.298,0.396C7.904,12.486,7.837,12.5,7.77,12.5z"/>
		</g>
		<g>
			<path d="M10.5,13h-1C9.224,13,9,12.776,9,12.5S9.224,12,9.5,12h1c0.276,0,0.5,0.224,0.5,0.5S10.776,13,10.5,13z"/>
		</g>
		<g>
			<path d="M14.5,13h-1c-0.276,0-0.5-0.224-0.5-0.5s0.224-0.5,0.5-0.5h1c0.276,0,0.5,0.224,0.5,0.5S14.776,13,14.5,13z"/>
		</g>
		<g>
			<path d="M16.079,19c-0.264,0-0.483-0.205-0.499-0.471c-0.017-0.275,0.194-0.512,0.47-0.528c0.65-0.039,1.968-0.48,2.784-0.782
				c-0.273-0.68-0.724-1.973-0.846-3.373c-0.024-0.275,0.18-0.518,0.455-0.542c0.27-0.036,0.517,0.179,0.541,0.455
				c0.158,1.822,0.958,3.508,0.967,3.525c0.06,0.125,0.064,0.269,0.015,0.398c-0.051,0.129-0.152,0.231-0.281,0.283
				c-0.1,0.039-2.446,0.968-3.576,1.034C16.099,19,16.089,19,16.079,19z"/>
		</g>
		<g>
			<path d="M10.5,13h-1C9.224,13,9,12.776,9,12.5S9.224,12,9.5,12h1c0.276,0,0.5,0.224,0.5,0.5S10.776,13,10.5,13z"/>
		</g>
		<g>
			<path d="M14.5,13h-1c-0.276,0-0.5-0.224-0.5-0.5s0.224-0.5,0.5-0.5h1c0.276,0,0.5,0.224,0.5,0.5S14.776,13,14.5,13z"/>
		</g>
		<g>
			<path d="M17.358,10c-0.055,0-0.11-0.009-0.165-0.028C17.165,9.962,14.386,9,11.858,9S6.552,9.962,6.523,9.972
				c-0.213,0.076-0.454-0.004-0.581-0.195c-0.127-0.19-0.108-0.442,0.045-0.611C6.104,9.036,8.896,6,13.858,6
				c1.878,0,3.141,0.461,3.753,1.371c0.71,1.055,0.231,2.267,0.21,2.317C17.743,9.881,17.557,10,17.358,10z M11.858,8
				c2.042,0,4.167,0.564,5.133,0.857c0.024-0.273-0.003-0.625-0.214-0.935C16.365,7.319,15.356,7,13.858,7
				C11.663,7,9.92,7.667,8.706,8.355C9.654,8.161,10.769,8,11.858,8z"/>
		</g>
		<g>
			<path d="M6.359,10C6.324,10,6.29,9.997,6.255,9.989C5.984,9.932,5.813,9.667,5.869,9.396C6.296,7.381,7.642,4,11.858,4
				c2.157,0,3.871,0.935,4.956,2.703c0.145,0.235,0.071,0.543-0.164,0.688c-0.234,0.143-0.543,0.072-0.688-0.165
				C15.056,5.749,13.675,5,11.858,5C8.522,5,7.292,7.503,6.848,9.604C6.798,9.839,6.59,10,6.359,10z"/>
		</g>
		<g>
			<path d="M4.034,20.795c-0.19,0-0.372-0.109-0.456-0.294c-0.113-0.251-0.001-0.548,0.25-0.661
				c0.174-0.079,0.353-0.149,0.535-0.213l2.033-0.707c0.298-0.104,0.57-0.261,0.81-0.467l1.04-0.877
				c0.21-0.176,0.526-0.151,0.704,0.06c0.179,0.211,0.151,0.526-0.06,0.705l-1.036,0.874c-0.332,0.285-0.713,0.505-1.13,0.65
				l-2.033,0.707c-0.155,0.054-0.305,0.114-0.451,0.18C4.173,20.781,4.104,20.795,4.034,20.795z"/>
		</g>
		<g>
			<path d="M19.966,20.796c-0.069,0-0.139-0.014-0.206-0.044c-0.147-0.066-0.3-0.127-0.455-0.181l-2.032-0.707
				c-0.417-0.145-0.798-0.365-1.134-0.653l-1.033-0.871c-0.211-0.178-0.238-0.493-0.061-0.705c0.181-0.211,0.496-0.236,0.705-0.06
				l1.037,0.874c0.243,0.209,0.516,0.367,0.813,0.47l2.033,0.707c0.184,0.064,0.363,0.136,0.538,0.214
				c0.251,0.113,0.363,0.41,0.25,0.661C20.338,20.687,20.156,20.796,19.966,20.796z"/>
		</g>
		<g>
			<path d="M17.867,12.141c-0.221,0-0.423-0.147-0.483-0.371c-0.224-0.835-0.432-1.572-0.71-2.123
				c-0.125-0.247-0.025-0.547,0.221-0.672c0.244-0.126,0.548-0.026,0.672,0.221c0.321,0.636,0.545,1.425,0.784,2.315
				c0.071,0.267-0.087,0.541-0.354,0.612C17.953,12.136,17.91,12.141,17.867,12.141z"/>
		</g>
		<g>
			<path d="M7.921,19c-0.01,0-0.02,0-0.029-0.001c-1.13-0.066-3.477-0.995-3.576-1.034c-0.129-0.051-0.23-0.154-0.281-0.283
				c-0.05-0.129-0.045-0.273,0.015-0.398c0.009-0.017,0.809-1.703,0.967-3.525c0.024-0.275,0.269-0.483,0.541-0.455
				c0.275,0.024,0.479,0.266,0.455,0.542c-0.122,1.4-0.572,2.693-0.846,3.373c0.816,0.302,2.134,0.744,2.784,0.782
				c0.275,0.016,0.486,0.253,0.47,0.528C8.404,18.795,8.184,19,7.921,19z"/>
		</g>
		<g>
			<path d="M6.133,12.141c-0.043,0-0.086-0.005-0.13-0.017c-0.267-0.071-0.425-0.346-0.354-0.612
				c0.239-0.89,0.463-1.679,0.784-2.315C6.558,8.95,6.858,8.85,7.105,8.976c0.246,0.125,0.346,0.425,0.221,0.672
				c-0.278,0.55-0.486,1.287-0.71,2.123C6.556,11.994,6.354,12.141,6.133,12.141z"/>
		</g>
		<g>
			<path d="M11.998,20c-0.265,0-0.524-0.03-0.78-0.074c-0.116-0.019-0.233-0.045-0.351-0.073c-0.093-0.023-0.177-0.049-0.262-0.076
				c-1.687-0.498-3.124-1.898-3.922-3.795C6.615,15.995,6.553,16,6.498,16c-0.855,0-1.5-1.075-1.5-2.5s0.645-2.5,1.5-2.5
				c0.276,0,0.5,0.224,0.5,0.5S6.774,12,6.498,12c-0.124,0-0.5,0.532-0.5,1.5c0,0.967,0.375,1.499,0.5,1.5
				c-0.002,0,0.033-0.012,0.096-0.076c0.122-0.124,0.299-0.177,0.468-0.136c0.17,0.039,0.307,0.163,0.362,0.327
				c0.633,1.866,1.932,3.251,3.475,3.707c0.075,0.024,0.142,0.044,0.209,0.061c0.088,0.021,0.18,0.042,0.275,0.058
				c0.409,0.07,0.827,0.069,1.229,0.001c0.097-0.016,0.19-0.037,0.284-0.06c0.061-0.015,0.127-0.036,0.195-0.057
				c1.549-0.458,2.849-1.843,3.482-3.709c0.057-0.164,0.193-0.288,0.363-0.327c0.167-0.037,0.346,0.014,0.468,0.138
				c0.063,0.065,0.099,0.075,0.1,0.075c0.118,0,0.494-0.533,0.494-1.5s-0.376-1.5-0.5-1.5c-0.276,0-0.5-0.224-0.5-0.5
				s0.224-0.5,0.5-0.5c0.855,0,1.5,1.075,1.5,2.5s-0.645,2.5-1.5,2.5c-0.055,0-0.117-0.005-0.185-0.018
				c-0.799,1.898-2.237,3.298-3.932,3.798c-0.076,0.024-0.16,0.049-0.245,0.071c-0.124,0.03-0.241,0.056-0.36,0.075
				C12.523,19.97,12.264,20,11.998,20z"/>
		</g>
		<g>
			<path d="M12,24C5.383,24,0,18.617,0,12S5.383,0,12,0s12,5.383,12,12S18.617,24,12,24z M12,1C5.935,1,1,5.935,1,12s4.935,11,11,11
				s11-4.935,11-11S18.065,1,12,1z"/>
		</g>
	</g>
</g>
<g id="Man_3">
</g>
<g id="Woman_3">
</g>
<g id="Men_4">
</g>
<g id="Woman_4">
</g>
<g id="Business_Man_1">
</g>
<g id="Business_Woman_1">
</g>
<g id="Firefigyhter">
</g>
<g id="Policeman">
</g>
<g id="Criminal">
</g>
<g id="Prisoner">
</g>
<g id="Woodsman">
</g>
<g id="Dispatcher_1">
</g>
<g id="Dispatcher_2">
</g>
<g id="Soldier">
</g>
<g id="Astronaut">
</g>
<g id="Hipster_Guy">
</g>
<g id="Hipster_Girl">
</g>
<g id="Worker">
</g>
<g id="Old_Man">
</g>
<g id="Punk">
</g>
<g id="Diver">
</g>
<g id="Artist">
</g>
<g id="Dictator">
</g>
<g id="Man_Hat">
</g>
<g id="Woman_Hat">
</g>
<g id="Graduated_Man">
</g>
<g id="Graduated_Woman">
</g>
<g id="Avatar_Chef">
</g>
<g id="Waiter">
</g>
<g id="Waitress">
</g>
<g id="Bllboy">
</g>
<g id="Santa">
</g>
<g id="Doctor">
</g>
<g id="Nurse">
</g>
<g id="Captain">
</g>
<g id="Farmer">
</g>
<g id="Maid">
</g>
<g id="Business_Man_2">
</g>
<g id="Business_Woman_2">
</g>
<g id="Cowboy">
</g>
<g id="Anonymus">
</g>
<g id="Batman">
</g>
<g id="Superman">
</g>
<g id="Captain_America">
</g>
<g id="Darth_Vader">
</g>
<g id="Harry_Potter">
</g>
<g id="Anonymus_2">
</g>
<g id="Scream">
</g>
<g id="Jason">
</g>
<g id="Charlie_Chaplin">
</g>
</svg>
