<?xml version="1.0" encoding="iso-8859-1"?>
<!-- Generator: Adobe Illustrator 19.2.1, SVG Export Plug-In . SVG Version: 6.00 Build 0)  -->
<svg version="1.1" xmlns="http://www.w3.org/2000/svg" xmlns:xlink="http://www.w3.org/1999/xlink" x="0px" y="0px"
	 viewBox="0 0 24 24" style="enable-background:new 0 0 24 24;" xml:space="preserve">
<g id="Man_1">
</g>
<g id="Woman_1">
</g>
<g id="Man_2">
</g>
<g id="Woman_2">
</g>
<g id="Bald_Man">
</g>
<g id="Man_Glasses">
</g>
<g id="Woman_Glasses">
</g>
<g id="Man_Beard">
</g>
<g id="Man_Cap">
</g>
<g id="Woman_Cap">
</g>
<g id="Man_3">
</g>
<g id="Woman_3">
</g>
<g id="Men_4">
</g>
<g id="Woman_4">
	<g>
		<g>
			<path d="M12,24C5.383,24,0,18.617,0,12S5.383,0,12,0s12,5.383,12,12S18.617,24,12,24z M12,1C5.935,1,1,5.935,1,12s4.935,11,11,11
				s11-4.935,11-11S18.065,1,12,1z"/>
		</g>
		<g>
			<path d="M7.292,13.001c-0.032,0-0.063,0-0.096,0L7,13c-0.561,0-0.879-0.388-1.112-0.671C5.705,12.105,5.607,12,5.5,12
				C5.224,12,5,11.776,5,11.5S5.224,11,5.5,11c0.592,0,0.921,0.401,1.162,0.694C6.813,11.879,6.918,12,7,12l0.205,0.001
				c0.66,0.007,0.761,0.008,1.401-0.81c0.282-0.359,0.528-0.732,0.77-1.098C10.381,8.573,11.421,7,14.5,7C14.776,7,15,7.224,15,7.5
				c0,0.47,1.27,2.775,2.461,3.833C17.71,11.151,18.058,11,18.5,11c0.276,0,0.5,0.224,0.5,0.5S18.776,12,18.5,12
				c-0.399,0-0.57,0.254-0.571,0.257c-0.071,0.118-0.188,0.202-0.323,0.231c-0.136,0.029-0.276,0.001-0.39-0.077
				c-1.198-0.827-2.723-3.141-3.119-4.401c-2.224,0.119-2.964,1.238-3.887,2.635c-0.256,0.388-0.518,0.782-0.816,1.164
				C8.557,12.875,8.153,13.001,7.292,13.001z"/>
		</g>
		<g>
			<path d="M12,20c-0.241,0-0.491-0.025-0.787-0.08c-0.115-0.02-0.232-0.048-0.351-0.078c-0.094-0.025-0.178-0.053-0.263-0.082
				c-1.688-0.534-3.126-2.033-3.922-4.063C6.613,15.71,6.553,15.714,6.5,15.714c-0.869,0-1.5-1.111-1.5-2.643
				c0-0.262,0.086-0.988,0.104-1.131c0.033-0.274,0.28-0.469,0.557-0.437c0.274,0.033,0.47,0.283,0.437,0.557
				C6.096,12.063,6,12.84,6,13.071c0,1.003,0.353,1.606,0.504,1.644c-0.008-0.002,0.027-0.023,0.078-0.078
				c0.12-0.132,0.301-0.192,0.477-0.151c0.175,0.038,0.315,0.167,0.37,0.337c0.638,2.009,1.939,3.5,3.481,3.988
				c0.075,0.025,0.141,0.047,0.209,0.065c0.084,0.021,0.176,0.044,0.271,0.061C11.593,18.974,11.794,19,12,19
				c0.276,0,0.5,0.224,0.5,0.5S12.276,20,12,20z M6.504,14.715h0.01H6.504z"/>
		</g>
		<g>
			<path d="M12,20c-0.276,0-0.5-0.224-0.5-0.5S11.724,19,12,19c0.206,0,0.407-0.026,0.606-0.063c0.099-0.017,0.191-0.04,0.284-0.063
				c0.059-0.017,0.125-0.039,0.192-0.061c1.551-0.491,2.852-1.981,3.489-3.99c0.054-0.17,0.194-0.298,0.369-0.337
				c0.173-0.039,0.355,0.019,0.477,0.151c0.051,0.056,0.087,0.077,0.096,0.08C17.646,14.678,18,14.075,18,13.071
				c0-0.231-0.096-1.008-0.097-1.011c-0.033-0.274,0.162-0.523,0.437-0.557c0.278-0.031,0.524,0.163,0.557,0.437
				C18.914,12.083,19,12.809,19,13.071c0,1.532-0.631,2.643-1.5,2.643c-0.053,0-0.113-0.004-0.178-0.017
				c-0.794,2.03-2.233,3.529-3.93,4.066c-0.077,0.026-0.161,0.054-0.247,0.077c-0.126,0.032-0.244,0.06-0.364,0.081
				C12.491,19.975,12.241,20,12,20z"/>
		</g>
		<g>
			<path d="M10.5,13h-1C9.224,13,9,12.776,9,12.5S9.224,12,9.5,12h1c0.276,0,0.5,0.224,0.5,0.5S10.776,13,10.5,13z"/>
		</g>
		<g>
			<path d="M14.5,13h-1c-0.276,0-0.5-0.224-0.5-0.5s0.224-0.5,0.5-0.5h1c0.276,0,0.5,0.224,0.5,0.5S14.776,13,14.5,13z"/>
		</g>
		<g>
			<path d="M16,19c-0.263,0-0.483-0.205-0.499-0.471c-0.016-0.275,0.194-0.512,0.47-0.528c1.102-0.065,1.906-0.441,2.103-0.763
				C18.749,16.14,19,13.135,19,11.5c0-3.054-2.739-5.303-5.487-5.983c-0.403,0.401-0.954,0.178-1.447-0.071
				c-0.04-0.02-0.076-0.045-0.109-0.075c-0.721-0.65-1.825-0.302-2.419-0.038C7.396,6.288,5,9.127,5,11.5
				c0,1.635,0.251,4.64,0.926,5.738c0.197,0.321,1.001,0.698,2.103,0.763c0.276,0.016,0.486,0.253,0.47,0.528
				c-0.017,0.275-0.253,0.479-0.528,0.47c-1.023-0.06-2.396-0.42-2.897-1.237C4.012,16.033,4,11.545,4,11.5
				c0-2.868,2.653-5.977,5.131-7.08c1.379-0.614,2.598-0.555,3.44,0.161c0.149,0.073,0.249,0.113,0.313,0.134
				c0.194-0.206,0.438-0.271,0.727-0.203C16.688,5.22,20,7.708,20,11.5c0,0.045-0.012,4.533-1.074,6.262
				c-0.501,0.817-1.874,1.177-2.897,1.237C16.02,19,16.009,19,16,19z"/>
		</g>
		<g>
			<path d="M4.034,20.795c-0.191,0-0.373-0.11-0.457-0.295c-0.113-0.252-0.001-0.548,0.251-0.661
				c0.174-0.078,0.352-0.149,0.535-0.212l2.033-0.707c0.298-0.104,0.57-0.261,0.809-0.467l0.967-0.832
				c0.21-0.181,0.526-0.155,0.705,0.053c0.18,0.209,0.156,0.525-0.053,0.705L7.858,19.21c-0.334,0.288-0.715,0.508-1.133,0.653
				l-2.034,0.707c-0.154,0.054-0.305,0.114-0.453,0.18C4.172,20.781,4.103,20.795,4.034,20.795z"/>
		</g>
		<g>
			<path d="M19.966,20.796c-0.068,0-0.138-0.014-0.205-0.044c-0.148-0.067-0.3-0.127-0.456-0.182l-2.033-0.707
				c-0.418-0.146-0.799-0.365-1.133-0.653l-0.966-0.832c-0.209-0.18-0.233-0.496-0.053-0.705c0.18-0.21,0.497-0.233,0.705-0.053
				l0.966,0.832c0.239,0.206,0.511,0.363,0.81,0.467l2.033,0.707c0.184,0.064,0.363,0.135,0.538,0.214
				c0.252,0.113,0.364,0.41,0.251,0.661C20.339,20.687,20.157,20.796,19.966,20.796z"/>
		</g>
	</g>
</g>
<g id="Business_Man_1">
</g>
<g id="Business_Woman_1">
</g>
<g id="Firefigyhter">
</g>
<g id="Policeman">
</g>
<g id="Criminal">
</g>
<g id="Prisoner">
</g>
<g id="Woodsman">
</g>
<g id="Dispatcher_1">
</g>
<g id="Dispatcher_2">
</g>
<g id="Soldier">
</g>
<g id="Astronaut">
</g>
<g id="Hipster_Guy">
</g>
<g id="Hipster_Girl">
</g>
<g id="Worker">
</g>
<g id="Old_Man">
</g>
<g id="Punk">
</g>
<g id="Diver">
</g>
<g id="Artist">
</g>
<g id="Dictator">
</g>
<g id="Man_Hat">
</g>
<g id="Woman_Hat">
</g>
<g id="Graduated_Man">
</g>
<g id="Graduated_Woman">
</g>
<g id="Avatar_Chef">
</g>
<g id="Waiter">
</g>
<g id="Waitress">
</g>
<g id="Bllboy">
</g>
<g id="Santa">
</g>
<g id="Doctor">
</g>
<g id="Nurse">
</g>
<g id="Captain">
</g>
<g id="Farmer">
</g>
<g id="Maid">
</g>
<g id="Business_Man_2">
</g>
<g id="Business_Woman_2">
</g>
<g id="Cowboy">
</g>
<g id="Anonymus">
</g>
<g id="Batman">
</g>
<g id="Superman">
</g>
<g id="Captain_America">
</g>
<g id="Darth_Vader">
</g>
<g id="Harry_Potter">
</g>
<g id="Anonymus_2">
</g>
<g id="Scream">
</g>
<g id="Jason">
</g>
<g id="Charlie_Chaplin">
</g>
</svg>
