<?xml version="1.0" encoding="iso-8859-1"?>
<!-- Generator: Adobe Illustrator 19.2.1, SVG Export Plug-In . SVG Version: 6.00 Build 0)  -->
<svg version="1.1" xmlns="http://www.w3.org/2000/svg" xmlns:xlink="http://www.w3.org/1999/xlink" x="0px" y="0px"
	 viewBox="0 0 24 24" style="enable-background:new 0 0 24 24;" xml:space="preserve">
<g id="Man_1">
</g>
<g id="Woman_1">
</g>
<g id="Man_2">
</g>
<g id="Woman_2">
</g>
<g id="Bald_Man">
</g>
<g id="Man_Glasses">
</g>
<g id="Woman_Glasses">
</g>
<g id="Man_Beard">
</g>
<g id="Man_Cap">
</g>
<g id="Woman_Cap">
</g>
<g id="Man_3">
</g>
<g id="Woman_3">
</g>
<g id="Men_4">
</g>
<g id="Woman_4">
</g>
<g id="Business_Man_1">
</g>
<g id="Business_Woman_1">
</g>
<g id="Firefigyhter">
</g>
<g id="Policeman">
</g>
<g id="Criminal">
</g>
<g id="Prisoner">
</g>
<g id="Woodsman">
	<g>
		<g>
			<path d="M12,24C5.383,24,0,18.617,0,12S5.383,0,12,0s12,5.383,12,12S18.617,24,12,24z M12,1C5.935,1,1,5.935,1,12s4.935,11,11,11
				s11-4.935,11-11S18.065,1,12,1z"/>
		</g>
		<g>
			<path d="M4.034,20.795c-0.191,0-0.373-0.11-0.457-0.295c-0.113-0.252-0.001-0.548,0.251-0.661
				c0.174-0.078,0.352-0.149,0.535-0.212l2.033-0.707c0.298-0.104,0.57-0.261,0.809-0.467l0.304-0.261
				c0.21-0.179,0.525-0.156,0.705,0.054c0.18,0.209,0.156,0.525-0.054,0.705l-0.304,0.261c-0.334,0.288-0.715,0.507-1.132,0.653
				l-2.034,0.707c-0.154,0.054-0.305,0.114-0.453,0.18C4.172,20.781,4.103,20.795,4.034,20.795z"/>
		</g>
		<g>
			<path d="M19.966,20.796c-0.068,0-0.138-0.014-0.205-0.044c-0.148-0.067-0.3-0.127-0.456-0.182l-2.033-0.707
				c-0.418-0.146-0.799-0.365-1.133-0.653l-0.292-0.251c-0.209-0.18-0.233-0.496-0.053-0.705c0.181-0.208,0.496-0.233,0.705-0.053
				l0.292,0.251c0.239,0.206,0.511,0.363,0.81,0.467l2.033,0.707c0.184,0.064,0.363,0.135,0.538,0.214
				c0.252,0.113,0.364,0.41,0.251,0.661C20.339,20.687,20.157,20.796,19.966,20.796z"/>
		</g>
		<g>
			<path d="M6.499,16c-0.855,0-1.5-1.075-1.5-2.5c0-1.158,0.426-2.085,1.044-2.392c0.022-0.252,0.053-0.498,0.093-0.736
				c0.046-0.272,0.305-0.455,0.576-0.41c0.272,0.046,0.456,0.304,0.41,0.576c-0.053,0.314-0.089,0.643-0.106,0.986
				C7.003,11.791,6.784,12,6.517,12c-0.143,0-0.519,0.532-0.519,1.5c0,0.785,0.247,1.284,0.407,1.444
				c0.021-0.026,0.041-0.052,0.056-0.074c0.065-0.086,0.128-0.166,0.182-0.221c0.193-0.197,0.509-0.2,0.707-0.006
				c0.197,0.193,0.2,0.51,0.006,0.707c-0.029,0.03-0.062,0.076-0.098,0.124C7.082,15.708,6.86,16,6.499,16z"/>
		</g>
		<g>
			<path d="M17.499,16c-0.363,0-0.591-0.304-0.758-0.526c-0.036-0.048-0.068-0.094-0.097-0.124
				c-0.194-0.197-0.191-0.514,0.006-0.707c0.197-0.194,0.514-0.191,0.707,0.006c0.055,0.055,0.118,0.137,0.184,0.224
				c0.015,0.02,0.034,0.044,0.053,0.069c0.16-0.161,0.406-0.659,0.406-1.443c0-0.968-0.375-1.5-0.5-1.5
				c-0.267,0-0.505-0.209-0.519-0.475c-0.017-0.343-0.053-0.672-0.106-0.987c-0.046-0.272,0.138-0.53,0.41-0.576
				c0.27-0.045,0.53,0.138,0.576,0.41c0.04,0.24,0.072,0.487,0.094,0.741c0.623,0.312,1.044,1.235,1.044,2.387
				C18.999,14.925,18.354,16,17.499,16z"/>
		</g>
		<g>
			<path d="M9.398,16c-1.013,0-1.599-0.017-2.63-0.557c-0.245-0.128-0.339-0.43-0.211-0.675c0.128-0.245,0.43-0.34,0.675-0.211
				C8.079,15.001,8.466,14.99,9.401,15c0.518,0,0.799-0.099,1.125-0.213C10.907,14.652,11.34,14.5,12,14.5
				c0.276,0,0.5,0.224,0.5,0.5s-0.224,0.5-0.5,0.5c-0.489,0-0.792,0.106-1.143,0.23C10.477,15.864,10.009,16.006,9.398,16z"/>
		</g>
		<g>
			<path d="M14.5,16c-0.59,0-0.998-0.144-1.357-0.27C12.792,15.606,12.489,15.5,12,15.5c-0.276,0-0.5-0.224-0.5-0.5
				s0.224-0.5,0.5-0.5c0.66,0,1.093,0.152,1.474,0.287C13.8,14.901,14.081,15,14.5,15c0.978,0,1.382,0,2.276-0.447
				c0.247-0.123,0.547-0.023,0.671,0.224s0.023,0.547-0.224,0.671C16.118,16,15.543,16,14.5,16z"/>
		</g>
		<g>
			<path d="M12,22c-2.878,0-5.5-3.336-5.5-7c0-0.276,0.224-0.5,0.5-0.5s0.5,0.224,0.5,0.5c0,3.434,2.376,6,4.5,6
				c2.081,0,4.5-2.621,4.5-6c0-0.276,0.224-0.5,0.5-0.5s0.5,0.224,0.5,0.5C17.5,18.664,14.878,22,12,22z"/>
		</g>
		<g>
			<path d="M12.5,17h-1c-0.276,0-0.5-0.224-0.5-0.5s0.224-0.5,0.5-0.5h1c0.276,0,0.5,0.224,0.5,0.5S12.776,17,12.5,17z"/>
		</g>
		<g>
			<path d="M6.5,11c-0.102,0-0.204-0.031-0.289-0.092C6.079,10.814,6,10.662,6,10.5v-2c0-0.212,0.134-0.401,0.334-0.472
				C6.455,7.986,9.299,7,12,7c2.7,0,5.545,0.986,5.666,1.028C17.866,8.098,18,8.288,18,8.5v2c0,0.162-0.079,0.314-0.211,0.408
				c-0.132,0.095-0.301,0.119-0.454,0.064C17.307,10.962,14.526,10,12,10c-2.533,0-5.307,0.962-5.334,0.972
				C6.611,10.991,6.556,11,6.5,11z M12,9c1.953,0,3.981,0.516,5,0.817V8.863C16.184,8.61,14.012,8,12,8C9.984,8,7.815,8.609,7,8.863
				v0.954C8.019,9.516,10.047,9,12,9z"/>
		</g>
		<g>
			<path d="M16.943,8.823c-0.24,0-0.452-0.173-0.493-0.417C15.96,5.482,14.463,4,12,4C9.502,4,8.046,5.441,7.549,8.406
				C7.503,8.678,7.243,8.864,6.974,8.816C6.701,8.771,6.518,8.513,6.563,8.241C7.289,3.909,9.92,3,12,3
				c2.939,0,4.871,1.861,5.437,5.241c0.045,0.272-0.138,0.53-0.411,0.576C16.999,8.821,16.971,8.823,16.943,8.823z"/>
		</g>
		<g>
			<path d="M10.5,13h-1C9.224,13,9,12.776,9,12.5S9.224,12,9.5,12h1c0.276,0,0.5,0.224,0.5,0.5S10.776,13,10.5,13z"/>
		</g>
		<g>
			<path d="M14.5,13h-1c-0.276,0-0.5-0.224-0.5-0.5s0.224-0.5,0.5-0.5h1c0.276,0,0.5,0.224,0.5,0.5S14.776,13,14.5,13z"/>
		</g>
	</g>
</g>
<g id="Dispatcher_1">
</g>
<g id="Dispatcher_2">
</g>
<g id="Soldier">
</g>
<g id="Astronaut">
</g>
<g id="Hipster_Guy">
</g>
<g id="Hipster_Girl">
</g>
<g id="Worker">
</g>
<g id="Old_Man">
</g>
<g id="Punk">
</g>
<g id="Diver">
</g>
<g id="Artist">
</g>
<g id="Dictator">
</g>
<g id="Man_Hat">
</g>
<g id="Woman_Hat">
</g>
<g id="Graduated_Man">
</g>
<g id="Graduated_Woman">
</g>
<g id="Avatar_Chef">
</g>
<g id="Waiter">
</g>
<g id="Waitress">
</g>
<g id="Bllboy">
</g>
<g id="Santa">
</g>
<g id="Doctor">
</g>
<g id="Nurse">
</g>
<g id="Captain">
</g>
<g id="Farmer">
</g>
<g id="Maid">
</g>
<g id="Business_Man_2">
</g>
<g id="Business_Woman_2">
</g>
<g id="Cowboy">
</g>
<g id="Anonymus">
</g>
<g id="Batman">
</g>
<g id="Superman">
</g>
<g id="Captain_America">
</g>
<g id="Darth_Vader">
</g>
<g id="Harry_Potter">
</g>
<g id="Anonymus_2">
</g>
<g id="Scream">
</g>
<g id="Jason">
</g>
<g id="Charlie_Chaplin">
</g>
</svg>
