<?xml version="1.0" encoding="iso-8859-1"?>
<!-- Generator: Adobe Illustrator 19.2.1, SVG Export Plug-In . SVG Version: 6.00 Build 0)  -->
<svg version="1.1" xmlns="http://www.w3.org/2000/svg" xmlns:xlink="http://www.w3.org/1999/xlink" x="0px" y="0px"
	 viewBox="0 0 24 24" style="enable-background:new 0 0 24 24;" xml:space="preserve">
<g id="Man_1">
</g>
<g id="Woman_1">
</g>
<g id="Man_2">
</g>
<g id="Woman_2">
</g>
<g id="Bald_Man">
</g>
<g id="Man_Glasses">
</g>
<g id="Woman_Glasses">
</g>
<g id="Man_Beard">
</g>
<g id="Man_Cap">
</g>
<g id="Woman_Cap">
</g>
<g id="Man_3">
</g>
<g id="Woman_3">
</g>
<g id="Men_4">
</g>
<g id="Woman_4">
</g>
<g id="Business_Man_1">
</g>
<g id="Business_Woman_1">
</g>
<g id="Firefigyhter">
</g>
<g id="Policeman">
</g>
<g id="Criminal">
</g>
<g id="Prisoner">
</g>
<g id="Woodsman">
</g>
<g id="Dispatcher_1">
</g>
<g id="Dispatcher_2">
</g>
<g id="Soldier">
</g>
<g id="Astronaut">
</g>
<g id="Hipster_Guy">
</g>
<g id="Hipster_Girl">
</g>
<g id="Worker">
	<g>
		<g>
			<path d="M12,24C5.383,24,0,18.617,0,12S5.383,0,12,0s12,5.383,12,12S18.617,24,12,24z M12,1C5.935,1,1,5.935,1,12s4.935,11,11,11
				s11-4.935,11-11S18.065,1,12,1z"/>
		</g>
		<g>
			<path d="M12,8.5c-1.103,0-2-0.897-2-2v-2c0-0.152,0.069-0.295,0.188-0.391C10.219,4.084,10.962,3.5,12,3.5
				s1.781,0.584,1.813,0.609C13.931,4.205,14,4.348,14,4.5v2C14,7.603,13.103,8.5,12,8.5z M11,4.772V6.5c0,0.551,0.448,1,1,1
				s1-0.449,1-1V4.772C12.793,4.657,12.431,4.5,12,4.5S11.208,4.657,11,4.772z"/>
		</g>
		<g>
			<path d="M13.066,13.5h-2.133c-1.031,0-2.039-0.289-2.914-0.836l-2.784-1.74c-0.153-0.096-0.243-0.267-0.234-0.448
				c0.008-0.181,0.113-0.342,0.275-0.423l0.729-0.364C6.107,6.479,7.811,4.5,10.5,4.5C10.776,4.5,11,4.724,11,5s-0.224,0.5-0.5,0.5
				C7.252,5.5,7,8.944,7,10c0,0.189-0.107,0.362-0.276,0.447l-0.203,0.101l2.028,1.268c0.717,0.447,1.541,0.684,2.385,0.684h2.133
				c0.844,0,1.668-0.236,2.385-0.684l2.028-1.268l-0.203-0.101C17.107,10.362,17,10.189,17,10c0-1.056-0.252-4.5-3.5-4.5
				C13.224,5.5,13,5.276,13,5s0.224-0.5,0.5-0.5c2.689,0,4.393,1.979,4.495,5.188l0.729,0.364c0.162,0.081,0.268,0.243,0.275,0.423
				c0.009,0.181-0.081,0.352-0.234,0.448l-2.784,1.74C15.105,13.211,14.098,13.5,13.066,13.5z"/>
		</g>
		<g>
			<path d="M12,13.5c-1.654,0-3-1.346-3-3s1.346-3,3-3s3,1.346,3,3S13.654,13.5,12,13.5z M12,8.5c-1.103,0-2,0.897-2,2s0.897,2,2,2
				s2-0.897,2-2S13.103,8.5,12,8.5z"/>
		</g>
		<g>
			<path d="M4.034,20.795c-0.19,0-0.372-0.109-0.456-0.294c-0.113-0.251-0.001-0.548,0.25-0.661
				c0.174-0.079,0.353-0.149,0.535-0.213l2.033-0.707c0.298-0.104,0.57-0.261,0.81-0.467l0.966-0.832
				c0.21-0.179,0.525-0.157,0.705,0.053c0.18,0.209,0.156,0.525-0.053,0.705L7.858,19.21c-0.336,0.289-0.717,0.508-1.134,0.653
				l-2.033,0.707c-0.155,0.054-0.305,0.114-0.451,0.18C4.173,20.781,4.104,20.795,4.034,20.795z"/>
		</g>
		<g>
			<path d="M19.966,20.796c-0.069,0-0.139-0.014-0.206-0.044c-0.147-0.066-0.3-0.127-0.455-0.181l-2.032-0.707
				c-0.417-0.145-0.798-0.365-1.134-0.653l-0.967-0.832c-0.209-0.18-0.233-0.496-0.053-0.705c0.18-0.209,0.495-0.233,0.705-0.053
				l0.967,0.832c0.239,0.206,0.512,0.363,0.81,0.467l2.033,0.707c0.184,0.064,0.363,0.135,0.538,0.214
				c0.251,0.113,0.363,0.41,0.25,0.661C20.338,20.687,20.156,20.796,19.966,20.796z"/>
		</g>
		<g>
			<path d="M11.998,20c-0.265,0-0.524-0.03-0.78-0.074c-0.116-0.019-0.233-0.045-0.351-0.073c-0.093-0.023-0.177-0.049-0.262-0.076
				c-1.687-0.498-3.124-1.898-3.922-3.795C6.615,15.995,6.553,16,6.498,16c-0.855,0-1.5-1.075-1.5-2.5
				c0-1.159,0.426-2.085,1.045-2.392c0.024-0.275,0.293-0.48,0.54-0.455c0.275,0.023,0.479,0.265,0.456,0.541
				c-0.009,0.109-0.017,0.219-0.022,0.331C7.004,11.791,6.784,12,6.518,12c-0.144,0-0.52,0.532-0.52,1.5
				c0,0.967,0.375,1.499,0.5,1.5c-0.002,0,0.033-0.012,0.096-0.076c0.123-0.123,0.3-0.176,0.468-0.136
				c0.17,0.039,0.307,0.162,0.362,0.327c0.633,1.866,1.932,3.251,3.475,3.707c0.075,0.024,0.142,0.044,0.209,0.061
				c0.088,0.021,0.18,0.042,0.275,0.058c0.408,0.07,0.826,0.069,1.229,0.001c0.097-0.016,0.19-0.037,0.284-0.06
				c0.061-0.015,0.127-0.036,0.195-0.057c1.549-0.458,2.849-1.843,3.482-3.709c0.057-0.164,0.193-0.288,0.363-0.327
				c0.165-0.038,0.346,0.014,0.468,0.138c0.063,0.065,0.099,0.075,0.1,0.075c0.118,0,0.494-0.533,0.494-1.5s-0.376-1.5-0.5-1.5
				c-0.267,0-0.505-0.209-0.518-0.475c-0.006-0.111-0.014-0.221-0.022-0.33c-0.023-0.275,0.181-0.517,0.455-0.541
				c0.267-0.029,0.518,0.18,0.541,0.456c0,0.001,0,0.002,0,0.003c0.623,0.312,1.044,1.235,1.044,2.386c0,1.425-0.645,2.5-1.5,2.5
				c-0.055,0-0.117-0.005-0.185-0.018c-0.799,1.898-2.237,3.298-3.932,3.798c-0.076,0.024-0.16,0.049-0.245,0.071
				c-0.124,0.03-0.241,0.056-0.36,0.075C12.523,19.97,12.264,20,11.998,20z"/>
		</g>
		<g>
			<path d="M6.5,22.623c-0.276,0-0.5-0.224-0.5-0.5v-2.71c0-0.276,0.224-0.5,0.5-0.5s0.5,0.224,0.5,0.5v2.71
				C7,22.399,6.776,22.623,6.5,22.623z"/>
		</g>
		<g>
			<path d="M8.5,23.458c-0.276,0-0.5-0.224-0.5-0.5V18c0-0.276,0.224-0.5,0.5-0.5S9,17.724,9,18v4.958
				C9,23.234,8.776,23.458,8.5,23.458z"/>
		</g>
		<g>
			<path d="M17.5,22.602c-0.276,0-0.5-0.224-0.5-0.5v-2.688c0-0.276,0.224-0.5,0.5-0.5s0.5,0.224,0.5,0.5v2.688
				C18,22.378,17.776,22.602,17.5,22.602z"/>
		</g>
		<g>
			<path d="M15.5,23.458c-0.276,0-0.5-0.224-0.5-0.5V18c0-0.276,0.224-0.5,0.5-0.5S16,17.724,16,18v4.958
				C16,23.234,15.776,23.458,15.5,23.458z"/>
		</g>
	</g>
</g>
<g id="Old_Man">
</g>
<g id="Punk">
</g>
<g id="Diver">
</g>
<g id="Artist">
</g>
<g id="Dictator">
</g>
<g id="Man_Hat">
</g>
<g id="Woman_Hat">
</g>
<g id="Graduated_Man">
</g>
<g id="Graduated_Woman">
</g>
<g id="Avatar_Chef">
</g>
<g id="Waiter">
</g>
<g id="Waitress">
</g>
<g id="Bllboy">
</g>
<g id="Santa">
</g>
<g id="Doctor">
</g>
<g id="Nurse">
</g>
<g id="Captain">
</g>
<g id="Farmer">
</g>
<g id="Maid">
</g>
<g id="Business_Man_2">
</g>
<g id="Business_Woman_2">
</g>
<g id="Cowboy">
</g>
<g id="Anonymus">
</g>
<g id="Batman">
</g>
<g id="Superman">
</g>
<g id="Captain_America">
</g>
<g id="Darth_Vader">
</g>
<g id="Harry_Potter">
</g>
<g id="Anonymus_2">
</g>
<g id="Scream">
</g>
<g id="Jason">
</g>
<g id="Charlie_Chaplin">
</g>
</svg>
