<?xml version="1.0" encoding="iso-8859-1"?>
<!-- Generator: Adobe Illustrator 19.2.1, SVG Export Plug-In . SVG Version: 6.00 Build 0)  -->
<svg version="1.1" xmlns="http://www.w3.org/2000/svg" xmlns:xlink="http://www.w3.org/1999/xlink" x="0px" y="0px"
	 viewBox="0 0 24 24" style="enable-background:new 0 0 24 24;" xml:space="preserve">
<g id="Cutting_Board_1">
</g>
<g id="Cutting_Board_2">
</g>
<g id="Chef_x27_s_Hat_1">
</g>
<g id="Chef_x27_s_Hat_2">
</g>
<g id="Kitchen_Scale">
</g>
<g id="Measuring_Cup">
</g>
<g id="Pot_1">
</g>
<g id="Pot_2">
</g>
<g id="Wok_1">
</g>
<g id="Wok_2">
</g>
<g id="Teapot">
</g>
<g id="Plate">
</g>
<g id="Sauce_Boat">
</g>
<g id="Cauldron">
</g>
<g id="Cookbook">
</g>
<g id="Salt_Pot">
</g>
<g id="Pepper_Pot_1">
</g>
<g id="Pepper_Pot_2">
</g>
<g id="Egg_Timer">
</g>
<g id="Olive_Oil_Pot">
</g>
<g id="Pancake_Griddle">
</g>
<g id="Pan">
</g>
<g id="Kettle">
</g>
<g id="Microwave">
</g>
<g id="Cooker">
</g>
<g id="Meat_Grinder">
</g>
<g id="Coffee_Maker">
</g>
<g id="Household_Mixer">
</g>
<g id="Stand_Mixer">
</g>
<g id="Hand_Blender">
</g>
<g id="Blender">
</g>
<g id="Cooker_Hood">
</g>
<g id="Refrigerator">
</g>
<g id="Freezer">
</g>
<g id="Apron">
	<g>
		<g>
			<path d="M16.5,24h-10C5.122,24,4,22.878,4,21.5v-10C4,11.224,4.224,11,4.5,11C7.748,11,8,7.556,8,6.5C8,6.224,8.224,6,8.5,6h6
				C14.776,6,15,6.224,15,6.5c0,1.056,0.252,4.5,3.5,4.5c0.276,0,0.5,0.224,0.5,0.5v10C19,22.878,17.878,24,16.5,24z M5,11.976V21.5
				C5,22.327,5.673,23,6.5,23h10c0.827,0,1.5-0.673,1.5-1.5v-9.524C15.651,11.749,14.165,9.897,14.013,7H8.987
				C8.835,9.897,7.349,11.749,5,11.976z"/>
		</g>
		<g>
			<path d="M14.5,7C14.224,7,14,6.776,14,6.5v-3C14,2.122,12.878,1,11.5,1S9,2.122,9,3.5v3C9,6.776,8.776,7,8.5,7S8,6.776,8,6.5v-3
				C8,1.57,9.57,0,11.5,0S15,1.57,15,3.5v3C15,6.776,14.776,7,14.5,7z"/>
		</g>
		<g>
			<path d="M13.5,15h-4C9.224,15,9,14.776,9,14.5v-2C9,12.224,9.224,12,9.5,12s0.5,0.224,0.5,0.5V14h3v-1.5
				c0-0.276,0.224-0.5,0.5-0.5s0.5,0.224,0.5,0.5v2C14,14.776,13.776,15,13.5,15z"/>
		</g>
		<g>
			<path d="M18.5,12c-0.242,0-0.455-0.176-0.493-0.422c-0.043-0.273,0.143-0.529,0.416-0.572c1.805-0.285,2.528-0.716,2.579-1.538
				c0.085-1.364,0.618-2.575,1.088-3.253c0.157-0.228,0.468-0.284,0.696-0.126c0.227,0.157,0.284,0.469,0.126,0.696
				c-0.375,0.542-0.839,1.586-0.912,2.747c-0.122,1.942-2.35,2.293-3.421,2.462C18.552,11.998,18.525,12,18.5,12z"/>
		</g>
		<g>
			<path d="M4.5,12c-0.158,0-0.314-0.075-0.411-0.215c-0.276-0.397-1.14-1.501-1.813-1.838c-0.297-0.148-0.57,0.061-1.035,0.553
				c-0.18,0.191-0.336,0.356-0.518,0.447c-0.247,0.124-0.547,0.023-0.671-0.224c-0.124-0.247-0.023-0.547,0.224-0.671
				c0.035-0.024,0.153-0.148,0.239-0.239c0.418-0.442,1.197-1.265,2.208-0.761c1.022,0.511,2.071,1.995,2.187,2.162
				c0.158,0.227,0.101,0.538-0.125,0.696C4.698,11.971,4.599,12,4.5,12z"/>
		</g>
	</g>
</g>
<g id="Oven_Gloves">
</g>
<g id="Rolling_Pin">
</g>
<g id="Sieve">
</g>
<g id="Tea_Sieve">
</g>
<g id="Grater">
</g>
<g id="Knife_Holder">
</g>
<g id="Funnel">
</g>
<g id="Kitchen_Clock">
</g>
<g id="Lemon_Juicer">
</g>
<g id="Pastry_Bag_1">
</g>
<g id="Pastry_Bag_2">
</g>
<g id="Corkscrew">
</g>
<g id="Bottle_Opener">
</g>
<g id="Service">
</g>
<g id="Chopsticks">
</g>
<g id="Hatchet">
</g>
<g id="Filleting_Knife">
</g>
<g id="Bread_Knife">
</g>
<g id="Herb_Knife">
</g>
<g id="Whetting">
</g>
<g id="Cake_Knife">
</g>
<g id="Layer_58">
</g>
<g id="Ladle">
</g>
<g id="Sauce_Spoon">
</g>
<g id="Egg_Beater">
</g>
<g id="Meat_Fork">
</g>
<g id="Kitchen_Spoon_1">
</g>
<g id="Kitchen_Spoon_2">
</g>
<g id="Pizza_Cutter">
</g>
<g id="Potato_Musher">
</g>
<g id="Peeler">
</g>
<g id="Honey_Dipper">
</g>
<g id="Fork">
</g>
<g id="Knife">
</g>
<g id="Spoon">
</g>
<g id="Cutlery_Set">
</g>
<g id="Sugar_Bowl">
</g>
<g id="Matches">
</g>
<g id="Cezve">
</g>
</svg>
