<?xml version="1.0" encoding="iso-8859-1"?>
<!-- Generator: Adobe Illustrator 19.2.1, SVG Export Plug-In . SVG Version: 6.00 Build 0)  -->
<svg version="1.1" xmlns="http://www.w3.org/2000/svg" xmlns:xlink="http://www.w3.org/1999/xlink" x="0px" y="0px"
	 viewBox="0 0 24 24" style="enable-background:new 0 0 24 24;" xml:space="preserve">
<g id="Cutting_Board_1">
</g>
<g id="Cutting_Board_2">
</g>
<g id="Chef_x27_s_Hat_1">
</g>
<g id="Chef_x27_s_Hat_2">
</g>
<g id="Kitchen_Scale">
</g>
<g id="Measuring_Cup">
</g>
<g id="Pot_1">
</g>
<g id="Pot_2">
</g>
<g id="Wok_1">
</g>
<g id="Wok_2">
</g>
<g id="Teapot">
</g>
<g id="Plate">
</g>
<g id="Sauce_Boat">
</g>
<g id="Cauldron">
</g>
<g id="Cookbook">
</g>
<g id="Salt_Pot">
</g>
<g id="Pepper_Pot_1">
</g>
<g id="Pepper_Pot_2">
</g>
<g id="Egg_Timer">
</g>
<g id="Olive_Oil_Pot">
</g>
<g id="Pancake_Griddle">
</g>
<g id="Pan">
</g>
<g id="Kettle">
</g>
<g id="Microwave">
</g>
<g id="Cooker">
</g>
<g id="Meat_Grinder">
</g>
<g id="Coffee_Maker">
</g>
<g id="Household_Mixer">
</g>
<g id="Stand_Mixer">
</g>
<g id="Hand_Blender">
</g>
<g id="Blender">
	<g>
		<g>
			<path d="M15.266,24H8.734c-0.71,0-1.389-0.303-1.862-0.833c-0.474-0.529-0.701-1.237-0.623-1.943l0.556-5
				C6.946,14.956,8.015,14,9.29,14h5.42c1.275,0,2.344,0.956,2.485,2.224l0.556,5c0.078,0.706-0.148,1.414-0.623,1.943
				C16.654,23.697,15.976,24,15.266,24z M9.29,15c-0.765,0-1.406,0.574-1.491,1.334l-0.556,5c-0.047,0.423,0.089,0.849,0.373,1.166
				C7.905,22.823,8.302,23,8.734,23h6.531c0.432,0,0.829-0.177,1.118-0.5c0.284-0.317,0.42-0.743,0.373-1.166l-0.556-5
				C16.116,15.574,15.475,15,14.71,15H9.29z"/>
		</g>
		<g>
			<path d="M13.66,15H10.34c-1.29,0-2.384-1.007-2.491-2.292L7.002,2.542c-0.012-0.139,0.036-0.277,0.13-0.38
				C7.227,2.059,7.36,2,7.5,2h9c0.14,0,0.273,0.059,0.368,0.162c0.094,0.103,0.142,0.241,0.13,0.38l-0.847,10.166
				C16.044,13.993,14.95,15,13.66,15z M8.043,3l0.802,9.625C8.91,13.396,9.566,14,10.34,14h3.319c0.774,0,1.431-0.604,1.495-1.375
				L15.957,3H8.043z"/>
		</g>
		<g>
			<path d="M16.5,3C16.224,3,16,2.776,16,2.5C16,1.949,14.023,1,12,1S8,1.949,8,2.5C8,2.776,7.776,3,7.5,3S7,2.776,7,2.5
				C7,0.951,9.912,0,12,0s5,0.951,5,2.5C17,2.776,16.776,3,16.5,3z"/>
		</g>
		<g>
			<path d="M12,21c-1.103,0-2-0.897-2-2s0.897-2,2-2s2,0.897,2,2S13.103,21,12,21z M12,18c-0.551,0-1,0.449-1,1s0.449,1,1,1
				s1-0.449,1-1S12.551,18,12,18z"/>
		</g>
		<g>
			<path d="M9,18c-0.551,0-1-0.449-1-1s0.449-1,1-1s1,0.449,1,1S9.551,18,9,18z M9,16.999C9,17,9,17,9,16.999L9.5,17L9,16.999z"/>
		</g>
		<g>
			<path d="M9.5,5H8C7.724,5,7.5,4.776,7.5,4.5S7.724,4,8,4h1.5C9.776,4,10,4.224,10,4.5S9.776,5,9.5,5z"/>
		</g>
		<g>
			<path d="M9.5,7H8C7.724,7,7.5,6.776,7.5,6.5S7.724,6,8,6h1.5C9.776,6,10,6.224,10,6.5S9.776,7,9.5,7z"/>
		</g>
		<g>
			<path d="M9.5,9H8C7.724,9,7.5,8.776,7.5,8.5S7.724,8,8,8h1.5C9.776,8,10,8.224,10,8.5S9.776,9,9.5,9z"/>
		</g>
		<g>
			<path d="M9.5,11h-1C8.224,11,8,10.776,8,10.5S8.224,10,8.5,10h1c0.276,0,0.5,0.224,0.5,0.5S9.776,11,9.5,11z"/>
		</g>
		<g>
			<path d="M9.5,13h-1C8.224,13,8,12.776,8,12.5S8.224,12,8.5,12h1c0.276,0,0.5,0.224,0.5,0.5S9.776,13,9.5,13z"/>
		</g>
	</g>
</g>
<g id="Cooker_Hood">
</g>
<g id="Refrigerator">
</g>
<g id="Freezer">
</g>
<g id="Apron">
</g>
<g id="Oven_Gloves">
</g>
<g id="Rolling_Pin">
</g>
<g id="Sieve">
</g>
<g id="Tea_Sieve">
</g>
<g id="Grater">
</g>
<g id="Knife_Holder">
</g>
<g id="Funnel">
</g>
<g id="Kitchen_Clock">
</g>
<g id="Lemon_Juicer">
</g>
<g id="Pastry_Bag_1">
</g>
<g id="Pastry_Bag_2">
</g>
<g id="Corkscrew">
</g>
<g id="Bottle_Opener">
</g>
<g id="Service">
</g>
<g id="Chopsticks">
</g>
<g id="Hatchet">
</g>
<g id="Filleting_Knife">
</g>
<g id="Bread_Knife">
</g>
<g id="Herb_Knife">
</g>
<g id="Whetting">
</g>
<g id="Cake_Knife">
</g>
<g id="Layer_58">
</g>
<g id="Ladle">
</g>
<g id="Sauce_Spoon">
</g>
<g id="Egg_Beater">
</g>
<g id="Meat_Fork">
</g>
<g id="Kitchen_Spoon_1">
</g>
<g id="Kitchen_Spoon_2">
</g>
<g id="Pizza_Cutter">
</g>
<g id="Potato_Musher">
</g>
<g id="Peeler">
</g>
<g id="Honey_Dipper">
</g>
<g id="Fork">
</g>
<g id="Knife">
</g>
<g id="Spoon">
</g>
<g id="Cutlery_Set">
</g>
<g id="Sugar_Bowl">
</g>
<g id="Matches">
</g>
<g id="Cezve">
</g>
</svg>
