<?xml version="1.0" encoding="iso-8859-1"?>
<!-- Generator: Adobe Illustrator 19.2.1, SVG Export Plug-In . SVG Version: 6.00 Build 0)  -->
<svg version="1.1" xmlns="http://www.w3.org/2000/svg" xmlns:xlink="http://www.w3.org/1999/xlink" x="0px" y="0px"
	 viewBox="0 0 24 24" style="enable-background:new 0 0 24 24;" xml:space="preserve">
<g id="Cutting_Board_1">
</g>
<g id="Cutting_Board_2">
</g>
<g id="Chef_x27_s_Hat_1">
</g>
<g id="Chef_x27_s_Hat_2">
</g>
<g id="Kitchen_Scale">
</g>
<g id="Measuring_Cup">
</g>
<g id="Pot_1">
</g>
<g id="Pot_2">
</g>
<g id="Wok_1">
</g>
<g id="Wok_2">
</g>
<g id="Teapot">
</g>
<g id="Plate">
</g>
<g id="Sauce_Boat">
</g>
<g id="Cauldron">
</g>
<g id="Cookbook">
</g>
<g id="Salt_Pot">
</g>
<g id="Pepper_Pot_1">
</g>
<g id="Pepper_Pot_2">
</g>
<g id="Egg_Timer">
</g>
<g id="Olive_Oil_Pot">
</g>
<g id="Pancake_Griddle">
</g>
<g id="Pan">
</g>
<g id="Kettle">
</g>
<g id="Microwave">
</g>
<g id="Cooker">
</g>
<g id="Meat_Grinder">
</g>
<g id="Coffee_Maker">
</g>
<g id="Household_Mixer">
</g>
<g id="Stand_Mixer">
</g>
<g id="Hand_Blender">
</g>
<g id="Blender">
</g>
<g id="Cooker_Hood">
</g>
<g id="Refrigerator">
</g>
<g id="Freezer">
</g>
<g id="Apron">
</g>
<g id="Oven_Gloves">
</g>
<g id="Rolling_Pin">
</g>
<g id="Sieve">
</g>
<g id="Tea_Sieve">
</g>
<g id="Grater">
</g>
<g id="Knife_Holder">
</g>
<g id="Funnel">
</g>
<g id="Kitchen_Clock">
</g>
<g id="Lemon_Juicer">
</g>
<g id="Pastry_Bag_1">
</g>
<g id="Pastry_Bag_2">
</g>
<g id="Corkscrew">
</g>
<g id="Bottle_Opener">
	<g>
		<g>
			<path d="M14.314,8H13c-0.276,0-0.5-0.224-0.5-0.5V7h-1v0.5C11.5,7.776,11.276,8,11,8H9.686C8.921,8,8.279,7.427,8.194,6.667
				L7.86,3.665C7.796,3.086,8.067,2.686,8.235,2.499C8.402,2.313,8.771,2,9.352,2h5.297c0.581,0,0.949,0.313,1.116,0.499
				c0.168,0.187,0.439,0.587,0.375,1.167l-0.334,2.999C15.721,7.426,15.08,8,14.314,8z M13.5,7h0.814
				c0.255,0,0.469-0.191,0.497-0.446l0.334-2.999c0.021-0.183-0.057-0.312-0.125-0.388S14.832,3,14.648,3H9.352
				C9.168,3,9.048,3.091,8.979,3.167S8.834,3.372,8.854,3.554l0.334,3.002C9.217,6.809,9.431,7,9.686,7H10.5V6.5
				C10.5,6.224,10.724,6,11,6h2c0.276,0,0.5,0.224,0.5,0.5V7z"/>
		</g>
		<g>
			<path d="M12,24c-1.425,0-2.5-0.645-2.5-1.5c0.298-3.992,0.055-7.402-0.722-10.173c-0.382-1.364-1.004-2.66-1.849-3.852
				C6.501,7.871,6.257,7.337,6.206,6.887L5.873,3.886c-0.109-0.987,0.208-1.979,0.871-2.72C7.407,0.425,8.357,0,9.352,0h5.297
				c0.994,0,1.944,0.425,2.607,1.166c0.663,0.74,0.98,1.732,0.871,2.721l-0.333,2.999c-0.051,0.449-0.295,0.984-0.725,1.592
				c-0.843,1.188-1.465,2.482-1.848,3.848c-0.776,2.771-1.02,6.182-0.723,10.138C14.5,23.355,13.425,24,12,24z M9.352,1
				c-0.71,0-1.389,0.304-1.862,0.833c-0.474,0.528-0.7,1.237-0.622,1.942L7.2,6.776c0.03,0.271,0.225,0.669,0.545,1.12
				c0.912,1.286,1.583,2.686,1.996,4.161c0.809,2.883,1.063,6.408,0.758,10.479C10.5,22.624,11.032,23,12,23s1.5-0.376,1.5-0.5
				c-0.305-4.034-0.05-7.562,0.759-10.444c0.414-1.478,1.085-2.876,1.994-4.156c0.322-0.454,0.517-0.854,0.547-1.124l0.333-2.999
				c0.078-0.706-0.148-1.415-0.622-1.943C16.037,1.304,15.358,1,14.648,1H9.352z"/>
		</g>
		<g>
			<circle cx="12" cy="21.5" r="0.5"/>
		</g>
	</g>
</g>
<g id="Service">
</g>
<g id="Chopsticks">
</g>
<g id="Hatchet">
</g>
<g id="Filleting_Knife">
</g>
<g id="Bread_Knife">
</g>
<g id="Herb_Knife">
</g>
<g id="Whetting">
</g>
<g id="Cake_Knife">
</g>
<g id="Layer_58">
</g>
<g id="Ladle">
</g>
<g id="Sauce_Spoon">
</g>
<g id="Egg_Beater">
</g>
<g id="Meat_Fork">
</g>
<g id="Kitchen_Spoon_1">
</g>
<g id="Kitchen_Spoon_2">
</g>
<g id="Pizza_Cutter">
</g>
<g id="Potato_Musher">
</g>
<g id="Peeler">
</g>
<g id="Honey_Dipper">
</g>
<g id="Fork">
</g>
<g id="Knife">
</g>
<g id="Spoon">
</g>
<g id="Cutlery_Set">
</g>
<g id="Sugar_Bowl">
</g>
<g id="Matches">
</g>
<g id="Cezve">
</g>
</svg>
