<?xml version="1.0" encoding="iso-8859-1"?>
<!-- Generator: Adobe Illustrator 19.2.1, SVG Export Plug-In . SVG Version: 6.00 Build 0)  -->
<svg version="1.1" xmlns="http://www.w3.org/2000/svg" xmlns:xlink="http://www.w3.org/1999/xlink" x="0px" y="0px"
	 viewBox="0 0 24 24" style="enable-background:new 0 0 24 24;" xml:space="preserve">
<g id="Cutting_Board_1">
</g>
<g id="Cutting_Board_2">
</g>
<g id="Chef_x27_s_Hat_1">
</g>
<g id="Chef_x27_s_Hat_2">
</g>
<g id="Kitchen_Scale">
</g>
<g id="Measuring_Cup">
</g>
<g id="Pot_1">
</g>
<g id="Pot_2">
</g>
<g id="Wok_1">
</g>
<g id="Wok_2">
</g>
<g id="Teapot">
</g>
<g id="Plate">
</g>
<g id="Sauce_Boat">
</g>
<g id="Cauldron">
</g>
<g id="Cookbook">
</g>
<g id="Salt_Pot">
</g>
<g id="Pepper_Pot_1">
</g>
<g id="Pepper_Pot_2">
</g>
<g id="Egg_Timer">
</g>
<g id="Olive_Oil_Pot">
</g>
<g id="Pancake_Griddle">
</g>
<g id="Pan">
</g>
<g id="Kettle">
</g>
<g id="Microwave">
</g>
<g id="Cooker">
</g>
<g id="Meat_Grinder">
</g>
<g id="Coffee_Maker">
</g>
<g id="Household_Mixer">
</g>
<g id="Stand_Mixer">
</g>
<g id="Hand_Blender">
</g>
<g id="Blender">
</g>
<g id="Cooker_Hood">
</g>
<g id="Refrigerator">
</g>
<g id="Freezer">
</g>
<g id="Apron">
</g>
<g id="Oven_Gloves">
</g>
<g id="Rolling_Pin">
</g>
<g id="Sieve">
</g>
<g id="Tea_Sieve">
</g>
<g id="Grater">
</g>
<g id="Knife_Holder">
</g>
<g id="Funnel">
</g>
<g id="Kitchen_Clock">
</g>
<g id="Lemon_Juicer">
</g>
<g id="Pastry_Bag_1">
</g>
<g id="Pastry_Bag_2">
</g>
<g id="Corkscrew">
</g>
<g id="Bottle_Opener">
</g>
<g id="Service">
</g>
<g id="Chopsticks">
</g>
<g id="Hatchet">
</g>
<g id="Filleting_Knife">
</g>
<g id="Bread_Knife">
	<g>
		<g>
			<path d="M15.618,9.821c-0.128,0-0.256-0.049-0.354-0.146l-2.829-2.828c-0.094-0.094-0.146-0.221-0.146-0.354
				s0.053-0.26,0.146-0.354l5.225-5.225c1.133-1.133,3.109-1.133,4.243,0c1.169,1.17,1.169,3.072,0,4.242
				c-0.605,0.606-1.43,0.905-2.28,0.866l-3.652,3.651C15.874,9.772,15.746,9.821,15.618,9.821z M13.496,6.493l2.122,2.121
				l3.465-3.465c0.111-0.11,0.27-0.159,0.422-0.142c0.63,0.088,1.248-0.115,1.691-0.558c0.779-0.779,0.779-2.049,0-2.828
				c-0.756-0.756-2.073-0.756-2.829,0L13.496,6.493z"/>
		</g>
		<g>
			<path d="M19.782,4.035c-0.256,0-0.512-0.097-0.707-0.292c-0.39-0.39-0.39-1.024,0-1.414c0.39-0.391,1.024-0.391,1.414,0
				c0.39,0.39,0.39,1.024,0,1.414C20.294,3.938,20.038,4.035,19.782,4.035z M19.428,2.683l0.353,0.354c0-0.001,0-0.001,0-0.001
				L19.428,2.683z"/>
		</g>
		<g>
			<path d="M4.304,23.964c-0.128,0-0.256-0.049-0.354-0.146l-1.414-1.414l0,0c-1.754-1.755-1.754-4.609,0-6.364l9.899-9.899
				c0.195-0.195,0.512-0.195,0.707,0l4.243,4.243c0.195,0.195,0.195,0.512,0,0.707s-0.512,0.195-0.707,0s-0.512-0.195-0.707,0
				c-0.095,0.095-0.146,0.22-0.146,0.353c0,0.134,0.052,0.26,0.146,0.354c0.098,0.098,0.146,0.226,0.146,0.354
				s-0.049,0.256-0.146,0.354c-0.195,0.195-0.512,0.195-0.707,0c-0.19-0.189-0.518-0.189-0.707,0c-0.195,0.195-0.195,0.512,0,0.707
				c0.098,0.098,0.146,0.226,0.146,0.354s-0.049,0.256-0.146,0.354c-0.195,0.195-0.512,0.195-0.707,0
				c-0.194-0.194-0.511-0.195-0.708,0c-0.195,0.195-0.195,0.512,0,0.707c0.098,0.098,0.146,0.226,0.146,0.354
				s-0.049,0.256-0.146,0.354c-0.195,0.195-0.512,0.195-0.707,0s-0.512-0.195-0.707,0c-0.195,0.195-0.195,0.512,0,0.707
				c0.098,0.098,0.146,0.226,0.146,0.354s-0.049,0.256-0.146,0.354c-0.195,0.195-0.512,0.195-0.707,0
				c-0.189-0.19-0.518-0.188-0.707,0c-0.195,0.195-0.195,0.512,0,0.707c0.098,0.098,0.146,0.226,0.146,0.354
				s-0.049,0.256-0.146,0.354c-0.195,0.195-0.512,0.195-0.707,0c-0.196-0.195-0.513-0.195-0.708,0s-0.195,0.513,0,0.708
				c0.097,0.098,0.146,0.226,0.146,0.354S8.998,19.478,8.9,19.575c-0.195,0.195-0.512,0.195-0.708,0
				c-0.188-0.188-0.516-0.189-0.707,0c-0.095,0.095-0.146,0.22-0.146,0.353c0,0.134,0.052,0.26,0.146,0.354
				c0.098,0.098,0.146,0.226,0.146,0.354s-0.049,0.256-0.146,0.354c-0.195,0.195-0.512,0.195-0.707,0
				c-0.189-0.19-0.519-0.188-0.707,0c-0.195,0.195-0.195,0.512,0,0.707c0.098,0.098,0.146,0.226,0.146,0.354
				s-0.049,0.256-0.146,0.354c-0.195,0.195-0.512,0.195-0.707,0c-0.196-0.196-0.513-0.194-0.708,0c-0.194,0.195-0.194,0.512,0,0.707
				s0.195,0.512,0,0.707C4.56,23.915,4.432,23.964,4.304,23.964z M3.243,21.696l0.414,0.414c0.071-0.149,0.169-0.29,0.292-0.414
				c0.264-0.264,0.609-0.417,0.979-0.438c0.02-0.355,0.166-0.705,0.437-0.977c0.263-0.264,0.607-0.417,0.977-0.438
				c0.02-0.369,0.173-0.714,0.438-0.977c0.263-0.264,0.608-0.417,0.978-0.438c0.02-0.355,0.165-0.706,0.436-0.978
				c0.272-0.271,0.623-0.417,0.979-0.437c0.02-0.355,0.165-0.706,0.437-0.978c0.263-0.264,0.608-0.417,0.978-0.438
				c0.02-0.355,0.166-0.705,0.437-0.977c0.271-0.271,0.622-0.417,0.978-0.437c0.02-0.355,0.165-0.706,0.437-0.978
				s0.622-0.417,0.978-0.437c0.02-0.355,0.165-0.706,0.437-0.978c0.263-0.264,0.607-0.417,0.977-0.438
				c0.02-0.369,0.173-0.714,0.438-0.977c0.124-0.124,0.264-0.222,0.414-0.293l-2.89-2.89l-9.546,9.546
				C1.879,18.111,1.879,20.331,3.243,21.696L3.243,21.696z"/>
		</g>
	</g>
</g>
<g id="Herb_Knife">
</g>
<g id="Whetting">
</g>
<g id="Cake_Knife">
</g>
<g id="Layer_58">
</g>
<g id="Ladle">
</g>
<g id="Sauce_Spoon">
</g>
<g id="Egg_Beater">
</g>
<g id="Meat_Fork">
</g>
<g id="Kitchen_Spoon_1">
</g>
<g id="Kitchen_Spoon_2">
</g>
<g id="Pizza_Cutter">
</g>
<g id="Potato_Musher">
</g>
<g id="Peeler">
</g>
<g id="Honey_Dipper">
</g>
<g id="Fork">
</g>
<g id="Knife">
</g>
<g id="Spoon">
</g>
<g id="Cutlery_Set">
</g>
<g id="Sugar_Bowl">
</g>
<g id="Matches">
</g>
<g id="Cezve">
</g>
</svg>
