<?xml version="1.0" encoding="iso-8859-1"?>
<!-- Generator: Adobe Illustrator 19.2.1, SVG Export Plug-In . SVG Version: 6.00 Build 0)  -->
<svg version="1.1" xmlns="http://www.w3.org/2000/svg" xmlns:xlink="http://www.w3.org/1999/xlink" x="0px" y="0px"
	 viewBox="0 0 24 24" style="enable-background:new 0 0 24 24;" xml:space="preserve">
<g id="Cutting_Board_1">
</g>
<g id="Cutting_Board_2">
</g>
<g id="Chef_x27_s_Hat_1">
</g>
<g id="Chef_x27_s_Hat_2">
</g>
<g id="Kitchen_Scale">
</g>
<g id="Measuring_Cup">
</g>
<g id="Pot_1">
</g>
<g id="Pot_2">
</g>
<g id="Wok_1">
</g>
<g id="Wok_2">
</g>
<g id="Teapot">
</g>
<g id="Plate">
</g>
<g id="Sauce_Boat">
</g>
<g id="Cauldron">
</g>
<g id="Cookbook">
</g>
<g id="Salt_Pot">
</g>
<g id="Pepper_Pot_1">
</g>
<g id="Pepper_Pot_2">
</g>
<g id="Egg_Timer">
</g>
<g id="Olive_Oil_Pot">
</g>
<g id="Pancake_Griddle">
</g>
<g id="Pan">
</g>
<g id="Kettle">
</g>
<g id="Microwave">
</g>
<g id="Cooker">
</g>
<g id="Meat_Grinder">
</g>
<g id="Coffee_Maker">
</g>
<g id="Household_Mixer">
</g>
<g id="Stand_Mixer">
</g>
<g id="Hand_Blender">
</g>
<g id="Blender">
</g>
<g id="Cooker_Hood">
</g>
<g id="Refrigerator">
</g>
<g id="Freezer">
</g>
<g id="Apron">
</g>
<g id="Oven_Gloves">
</g>
<g id="Rolling_Pin">
</g>
<g id="Sieve">
</g>
<g id="Tea_Sieve">
</g>
<g id="Grater">
</g>
<g id="Knife_Holder">
</g>
<g id="Funnel">
</g>
<g id="Kitchen_Clock">
</g>
<g id="Lemon_Juicer">
</g>
<g id="Pastry_Bag_1">
</g>
<g id="Pastry_Bag_2">
</g>
<g id="Corkscrew">
</g>
<g id="Bottle_Opener">
</g>
<g id="Service">
</g>
<g id="Chopsticks">
</g>
<g id="Hatchet">
</g>
<g id="Filleting_Knife">
</g>
<g id="Bread_Knife">
</g>
<g id="Herb_Knife">
</g>
<g id="Whetting">
</g>
<g id="Cake_Knife">
	<g>
		<circle cx="11" cy="21" r="0.5"/>
	</g>
	<g>
		<path d="M11,24c-1.654,0-3-1.346-3-3c0-0.856,0.361-1.653,1-2.224V15.5C9,15.224,9.224,15,9.5,15h4c0.276,0,0.5,0.224,0.5,0.5V21
			C14,22.654,12.654,24,11,24z M10,16v3.012c0,0.157-0.073,0.305-0.198,0.398C9.292,19.796,9,20.375,9,21c0,1.103,0.897,2,2,2
			s2-0.897,2-2v-5H10z M9.5,19.012h0.01H9.5z"/>
	</g>
	<g>
		<path d="M13.878,13H9.001c-0.775,0-1.493-0.351-1.971-0.961c-0.477-0.611-0.643-1.394-0.455-2.146l2-8
			C8.854,0.778,9.852,0,11.001,0h0.877c1.149,0,2.146,0.778,2.426,1.894l2,8c0.188,0.752,0.021,1.534-0.455,2.146
			C15.371,12.649,14.653,13,13.878,13z M11.001,1c-0.689,0-1.288,0.467-1.455,1.136l-2,8c-0.113,0.451-0.014,0.921,0.272,1.287
			C8.105,11.79,8.536,12,9.001,12h4.877c0.465,0,0.896-0.21,1.183-0.577c0.286-0.366,0.386-0.836,0.272-1.287l-2-8
			C13.166,1.467,12.567,1,11.878,1H11.001z"/>
	</g>
	<g>
		<path d="M12.5,16h-2c-0.276,0-0.5-0.224-0.5-0.5v-3c0-0.276,0.224-0.5,0.5-0.5h2c0.276,0,0.5,0.224,0.5,0.5v3
			C13,15.776,12.776,16,12.5,16z M11,15h1v-2h-1V15z"/>
	</g>
</g>
<g id="Layer_58">
</g>
<g id="Ladle">
</g>
<g id="Sauce_Spoon">
</g>
<g id="Egg_Beater">
</g>
<g id="Meat_Fork">
</g>
<g id="Kitchen_Spoon_1">
</g>
<g id="Kitchen_Spoon_2">
</g>
<g id="Pizza_Cutter">
</g>
<g id="Potato_Musher">
</g>
<g id="Peeler">
</g>
<g id="Honey_Dipper">
</g>
<g id="Fork">
</g>
<g id="Knife">
</g>
<g id="Spoon">
</g>
<g id="Cutlery_Set">
</g>
<g id="Sugar_Bowl">
</g>
<g id="Matches">
</g>
<g id="Cezve">
</g>
</svg>
