<?xml version="1.0" encoding="iso-8859-1"?>
<!-- Generator: Adobe Illustrator 19.2.1, SVG Export Plug-In . SVG Version: 6.00 Build 0)  -->
<svg version="1.1" xmlns="http://www.w3.org/2000/svg" xmlns:xlink="http://www.w3.org/1999/xlink" x="0px" y="0px"
	 viewBox="0 0 24 24" style="enable-background:new 0 0 24 24;" xml:space="preserve">
<g id="Cutting_Board_1">
</g>
<g id="Cutting_Board_2">
</g>
<g id="Chef_x27_s_Hat_1">
</g>
<g id="Chef_x27_s_Hat_2">
</g>
<g id="Kitchen_Scale">
</g>
<g id="Measuring_Cup">
</g>
<g id="Pot_1">
</g>
<g id="Pot_2">
</g>
<g id="Wok_1">
</g>
<g id="Wok_2">
</g>
<g id="Teapot">
</g>
<g id="Plate">
</g>
<g id="Sauce_Boat">
</g>
<g id="Cauldron">
	<g>
		<g>
			<path d="M2.5,16.5C2.224,16.5,2,16.276,2,16c0-1.029,0.566-2.45,1.066-3.704c0.102-0.257,0.396-0.382,0.65-0.281
				c0.257,0.102,0.383,0.391,0.28,0.647l-0.002,0.005C3.529,13.837,3,15.163,3,16C3,16.276,2.776,16.5,2.5,16.5z"/>
		</g>
		<g>
			<path d="M11.5,22c-0.276,0-0.5-0.224-0.5-0.5s0.224-0.5,0.5-0.5c8.5,0,8.5-3.504,8.5-5c0-0.276,0.224-0.5,0.5-0.5
				S21,15.724,21,16C21,17.484,21,22,11.5,22z"/>
		</g>
		<g>
			<path d="M6.5,4C5.673,4,5,3.327,5,2.5S5.673,1,6.5,1S8,1.673,8,2.5S7.327,4,6.5,4z M6.5,2C6.224,2,6,2.224,6,2.5S6.224,3,6.5,3
				S7,2.776,7,2.5S6.776,2,6.5,2z"/>
		</g>
		<g>
			<path d="M11,2c-0.551,0-1-0.449-1-1s0.449-1,1-1s1,0.449,1,1S11.551,2,11,2z M11,0.999C11,1,11,1,11,0.999L11.5,1L11,0.999z"/>
		</g>
		<g>
			<path d="M16.5,3C15.673,3,15,2.327,15,1.5S15.673,0,16.5,0S18,0.673,18,1.5S17.327,3,16.5,3z M16.5,1C16.224,1,16,1.224,16,1.5
				S16.224,2,16.5,2S17,1.776,17,1.5S16.776,1,16.5,1z"/>
		</g>
		<g>
			<path d="M11.5,24C1.995,24,0,19.649,0,16c0-1.415,0.616-2.958,1.211-4.449c0.598-1.5,1.217-3.05,0.839-3.833L1.053,5.724
				C1.018,5.654,1,5.578,1,5.5C1,4.505,4.533,4,11.5,4S22,4.505,22,5.5c0,0.078-0.018,0.154-0.053,0.224l-1,2
				c-0.375,0.777,0.244,2.328,0.842,3.827C22.384,13.042,23,14.585,23,16C23,19.649,21.005,24,11.5,24z M2.139,5.66l0.808,1.616
				c0.572,1.186-0.098,2.866-0.808,4.645C1.579,13.326,1,14.777,1,16c0,4.645,3.533,7,10.5,7S22,20.645,22,16
				c0-1.223-0.579-2.674-1.14-4.079c-0.709-1.779-1.38-3.459-0.811-4.639l0.811-1.623C19.869,5.355,16.472,5,11.5,5
				S3.131,5.355,2.139,5.66z M21.5,5.5h0.01H21.5z"/>
		</g>
		<g>
			<path d="M11.5,7C4.533,7,1,6.495,1,5.5S4.533,4,11.5,4S22,4.505,22,5.5S18.467,7,11.5,7z M2.863,5.5C4.35,5.757,7.386,6,11.5,6
				s7.15-0.243,8.637-0.5C18.65,5.243,15.614,5,11.5,5S4.35,5.243,2.863,5.5z M21.112,5.767h0.01H21.112z"/>
		</g>
	</g>
</g>
<g id="Cookbook">
</g>
<g id="Salt_Pot">
</g>
<g id="Pepper_Pot_1">
</g>
<g id="Pepper_Pot_2">
</g>
<g id="Egg_Timer">
</g>
<g id="Olive_Oil_Pot">
</g>
<g id="Pancake_Griddle">
</g>
<g id="Pan">
</g>
<g id="Kettle">
</g>
<g id="Microwave">
</g>
<g id="Cooker">
</g>
<g id="Meat_Grinder">
</g>
<g id="Coffee_Maker">
</g>
<g id="Household_Mixer">
</g>
<g id="Stand_Mixer">
</g>
<g id="Hand_Blender">
</g>
<g id="Blender">
</g>
<g id="Cooker_Hood">
</g>
<g id="Refrigerator">
</g>
<g id="Freezer">
</g>
<g id="Apron">
</g>
<g id="Oven_Gloves">
</g>
<g id="Rolling_Pin">
</g>
<g id="Sieve">
</g>
<g id="Tea_Sieve">
</g>
<g id="Grater">
</g>
<g id="Knife_Holder">
</g>
<g id="Funnel">
</g>
<g id="Kitchen_Clock">
</g>
<g id="Lemon_Juicer">
</g>
<g id="Pastry_Bag_1">
</g>
<g id="Pastry_Bag_2">
</g>
<g id="Corkscrew">
</g>
<g id="Bottle_Opener">
</g>
<g id="Service">
</g>
<g id="Chopsticks">
</g>
<g id="Hatchet">
</g>
<g id="Filleting_Knife">
</g>
<g id="Bread_Knife">
</g>
<g id="Herb_Knife">
</g>
<g id="Whetting">
</g>
<g id="Cake_Knife">
</g>
<g id="Layer_58">
</g>
<g id="Ladle">
</g>
<g id="Sauce_Spoon">
</g>
<g id="Egg_Beater">
</g>
<g id="Meat_Fork">
</g>
<g id="Kitchen_Spoon_1">
</g>
<g id="Kitchen_Spoon_2">
</g>
<g id="Pizza_Cutter">
</g>
<g id="Potato_Musher">
</g>
<g id="Peeler">
</g>
<g id="Honey_Dipper">
</g>
<g id="Fork">
</g>
<g id="Knife">
</g>
<g id="Spoon">
</g>
<g id="Cutlery_Set">
</g>
<g id="Sugar_Bowl">
</g>
<g id="Matches">
</g>
<g id="Cezve">
</g>
</svg>
