<?xml version="1.0" encoding="iso-8859-1"?>
<!-- Generator: Adobe Illustrator 19.2.1, SVG Export Plug-In . SVG Version: 6.00 Build 0)  -->
<svg version="1.1" xmlns="http://www.w3.org/2000/svg" xmlns:xlink="http://www.w3.org/1999/xlink" x="0px" y="0px"
	 viewBox="0 0 24 24" style="enable-background:new 0 0 24 24;" xml:space="preserve">
<g id="Cutting_Board_1">
</g>
<g id="Cutting_Board_2">
</g>
<g id="Chef_x27_s_Hat_1">
</g>
<g id="Chef_x27_s_Hat_2">
</g>
<g id="Kitchen_Scale">
</g>
<g id="Measuring_Cup">
</g>
<g id="Pot_1">
</g>
<g id="Pot_2">
</g>
<g id="Wok_1">
</g>
<g id="Wok_2">
</g>
<g id="Teapot">
</g>
<g id="Plate">
</g>
<g id="Sauce_Boat">
</g>
<g id="Cauldron">
</g>
<g id="Cookbook">
</g>
<g id="Salt_Pot">
</g>
<g id="Pepper_Pot_1">
</g>
<g id="Pepper_Pot_2">
</g>
<g id="Egg_Timer">
</g>
<g id="Olive_Oil_Pot">
</g>
<g id="Pancake_Griddle">
</g>
<g id="Pan">
</g>
<g id="Kettle">
</g>
<g id="Microwave">
</g>
<g id="Cooker">
</g>
<g id="Meat_Grinder">
</g>
<g id="Coffee_Maker">
</g>
<g id="Household_Mixer">
</g>
<g id="Stand_Mixer">
</g>
<g id="Hand_Blender">
</g>
<g id="Blender">
</g>
<g id="Cooker_Hood">
</g>
<g id="Refrigerator">
</g>
<g id="Freezer">
</g>
<g id="Apron">
</g>
<g id="Oven_Gloves">
</g>
<g id="Rolling_Pin">
</g>
<g id="Sieve">
</g>
<g id="Tea_Sieve">
</g>
<g id="Grater">
</g>
<g id="Knife_Holder">
</g>
<g id="Funnel">
</g>
<g id="Kitchen_Clock">
</g>
<g id="Lemon_Juicer">
</g>
<g id="Pastry_Bag_1">
</g>
<g id="Pastry_Bag_2">
</g>
<g id="Corkscrew">
</g>
<g id="Bottle_Opener">
</g>
<g id="Service">
</g>
<g id="Chopsticks">
</g>
<g id="Hatchet">
</g>
<g id="Filleting_Knife">
</g>
<g id="Bread_Knife">
</g>
<g id="Herb_Knife">
</g>
<g id="Whetting">
</g>
<g id="Cake_Knife">
</g>
<g id="Layer_58">
</g>
<g id="Ladle">
</g>
<g id="Sauce_Spoon">
</g>
<g id="Egg_Beater">
</g>
<g id="Meat_Fork">
</g>
<g id="Kitchen_Spoon_1">
</g>
<g id="Kitchen_Spoon_2">
</g>
<g id="Pizza_Cutter">
</g>
<g id="Potato_Musher">
</g>
<g id="Peeler">
</g>
<g id="Honey_Dipper">
</g>
<g id="Fork">
</g>
<g id="Knife">
</g>
<g id="Spoon">
</g>
<g id="Cutlery_Set">
</g>
<g id="Sugar_Bowl">
</g>
<g id="Matches">
</g>
<g id="Cezve">
	<g>
		<g>
			<g>
				<path d="M8.415,22H3.572c-1.451,0-2.72-0.98-3.087-2.386c-0.513-1.536-0.618-3.219-0.293-4.837l1.787-7.276l-0.97-3.88
					C0.971,3.472,1.004,3.313,1.099,3.192S1.339,3,1.493,3h9c0.154,0,0.299,0.071,0.394,0.192s0.128,0.279,0.091,0.429l-0.97,3.88
					l1.782,7.256c0.329,1.64,0.224,3.323-0.298,4.888C11.136,21.019,9.866,22,8.415,22z M2.134,4l0.844,3.379
					c0.02,0.079,0.02,0.161,0,0.24l-1.812,7.376c-0.285,1.426-0.191,2.932,0.275,4.333C1.704,20.326,2.576,21,3.572,21h4.843
					c0.997,0,1.868-0.674,2.119-1.638c0.477-1.435,0.571-2.939,0.281-4.389L9.008,7.619c-0.02-0.079-0.02-0.161,0-0.24L9.853,4
					H2.134z"/>
			</g>
			<g>
				<path d="M2.757,19c-0.219,0-0.42-0.146-0.481-0.367c-0.309-1.124-0.352-2.321-0.124-3.462c0.054-0.271,0.314-0.449,0.588-0.393
					c0.271,0.054,0.446,0.317,0.392,0.588c-0.198,0.989-0.16,2.027,0.107,3.001c0.073,0.267-0.083,0.542-0.349,0.615
					C2.846,18.994,2.801,19,2.757,19z"/>
			</g>
			<g>
				<path d="M9.493,8h-7c-0.276,0-0.5-0.224-0.5-0.5S2.217,7,2.493,7h7c0.276,0,0.5,0.224,0.5,0.5S9.77,8,9.493,8z"/>
			</g>
			<g>
				<path d="M10.313,10.401c-0.223,0-0.425-0.149-0.484-0.375c-0.069-0.268,0.092-0.54,0.359-0.609l12.454-3.214
					c0.207-0.053,0.351-0.239,0.351-0.453c0-0.146-0.066-0.281-0.182-0.37c-0.115-0.09-0.263-0.122-0.403-0.083l-12.29,3.171
					C9.853,8.538,9.58,8.377,9.509,8.108C9.44,7.841,9.602,7.568,9.869,7.499l12.29-3.171c0.443-0.112,0.904-0.02,1.266,0.261
					s0.569,0.704,0.569,1.161c0,0.67-0.453,1.254-1.101,1.422l-12.454,3.214C10.396,10.396,10.354,10.401,10.313,10.401z"/>
			</g>
		</g>
	</g>
</g>
</svg>
