<?xml version="1.0" encoding="iso-8859-1"?>
<!-- Generator: Adobe Illustrator 19.2.1, SVG Export Plug-In . SVG Version: 6.00 Build 0)  -->
<svg version="1.1" xmlns="http://www.w3.org/2000/svg" xmlns:xlink="http://www.w3.org/1999/xlink" x="0px" y="0px"
	 viewBox="0 0 24 24" style="enable-background:new 0 0 24 24;" xml:space="preserve">
<g id="Cutting_Board_1">
</g>
<g id="Cutting_Board_2">
</g>
<g id="Chef_x27_s_Hat_1">
	<g>
		<g>
			<path d="M15.5,5C15.224,5,15,4.776,15,4.5C15,2.57,13.43,1,11.5,1S8,2.57,8,4.5C8,4.776,7.776,5,7.5,5S7,4.776,7,4.5
				C7,2.019,9.019,0,11.5,0S16,2.019,16,4.5C16,4.776,15.776,5,15.5,5z"/>
		</g>
		<g>
			<path d="M11.5,24c-4.509,0-6.197-1.033-6.267-1.077C5.088,22.831,5,22.671,5,22.5V11.728C3.215,11.098,2,9.412,2,7.5
				C2,5.019,4.019,3,6.5,3c0.239,0,0.479,0.023,0.734,0.071C7.841,1.265,9.56,0,11.5,0s3.659,1.265,4.266,3.071
				C16.021,3.023,16.261,3,16.5,3C18.981,3,21,5.019,21,7.5c0,1.912-1.215,3.598-3,4.228V22.5c0,0.205-0.125,0.388-0.314,0.464
				C17.58,23.006,15.055,24,11.5,24z M6,22.19C6.57,22.436,8.232,23,11.5,23c2.655,0,4.737-0.599,5.5-0.853V11.358
				c0-0.228,0.154-0.427,0.375-0.484C18.92,10.474,20,9.086,20,7.5C20,5.57,18.43,4,16.5,4c-0.291,0-0.593,0.048-0.952,0.15
				c-0.134,0.038-0.277,0.019-0.395-0.053c-0.119-0.072-0.202-0.189-0.231-0.325C14.582,2.166,13.143,1,11.5,1
				S8.418,2.166,8.078,3.772C8.049,3.908,7.966,4.025,7.847,4.097C7.729,4.168,7.585,4.188,7.452,4.15C7.093,4.048,6.791,4,6.5,4
				C4.57,4,3,5.57,3,7.5c0,1.586,1.08,2.974,2.625,3.375C5.846,10.932,6,11.13,6,11.358V22.19z M17.5,22.5h0.01H17.5z"/>
		</g>
		<g>
			<path d="M6.5,12c-0.337,0-0.674-0.038-1-0.111c-0.269-0.062-0.438-0.329-0.377-0.599c0.062-0.269,0.326-0.438,0.599-0.377
				C5.975,10.971,6.237,11,6.5,11C6.776,11,7,11.224,7,11.5S6.776,12,6.5,12z"/>
		</g>
		<g>
			<path d="M16.5,12c-0.276,0-0.5-0.224-0.5-0.5s0.224-0.5,0.5-0.5c0.275,0,0.547-0.032,0.81-0.094
				c0.269-0.063,0.539,0.102,0.603,0.37c0.064,0.269-0.102,0.539-0.37,0.603C17.204,11.959,16.853,12,16.5,12z"/>
		</g>
		<g>
			<path d="M11.5,22c-3.555,0-6.08-0.994-6.186-1.036c-0.256-0.103-0.381-0.393-0.279-0.649c0.103-0.257,0.393-0.383,0.649-0.279
				C5.709,20.045,8.148,21,11.5,21s5.791-0.955,5.815-0.964c0.256-0.104,0.547,0.022,0.649,0.279
				c0.102,0.256-0.022,0.547-0.279,0.649C17.58,21.006,15.055,22,11.5,22z"/>
		</g>
	</g>
</g>
<g id="Chef_x27_s_Hat_2">
</g>
<g id="Kitchen_Scale">
</g>
<g id="Measuring_Cup">
</g>
<g id="Pot_1">
</g>
<g id="Pot_2">
</g>
<g id="Wok_1">
</g>
<g id="Wok_2">
</g>
<g id="Teapot">
</g>
<g id="Plate">
</g>
<g id="Sauce_Boat">
</g>
<g id="Cauldron">
</g>
<g id="Cookbook">
</g>
<g id="Salt_Pot">
</g>
<g id="Pepper_Pot_1">
</g>
<g id="Pepper_Pot_2">
</g>
<g id="Egg_Timer">
</g>
<g id="Olive_Oil_Pot">
</g>
<g id="Pancake_Griddle">
</g>
<g id="Pan">
</g>
<g id="Kettle">
</g>
<g id="Microwave">
</g>
<g id="Cooker">
</g>
<g id="Meat_Grinder">
</g>
<g id="Coffee_Maker">
</g>
<g id="Household_Mixer">
</g>
<g id="Stand_Mixer">
</g>
<g id="Hand_Blender">
</g>
<g id="Blender">
</g>
<g id="Cooker_Hood">
</g>
<g id="Refrigerator">
</g>
<g id="Freezer">
</g>
<g id="Apron">
</g>
<g id="Oven_Gloves">
</g>
<g id="Rolling_Pin">
</g>
<g id="Sieve">
</g>
<g id="Tea_Sieve">
</g>
<g id="Grater">
</g>
<g id="Knife_Holder">
</g>
<g id="Funnel">
</g>
<g id="Kitchen_Clock">
</g>
<g id="Lemon_Juicer">
</g>
<g id="Pastry_Bag_1">
</g>
<g id="Pastry_Bag_2">
</g>
<g id="Corkscrew">
</g>
<g id="Bottle_Opener">
</g>
<g id="Service">
</g>
<g id="Chopsticks">
</g>
<g id="Hatchet">
</g>
<g id="Filleting_Knife">
</g>
<g id="Bread_Knife">
</g>
<g id="Herb_Knife">
</g>
<g id="Whetting">
</g>
<g id="Cake_Knife">
</g>
<g id="Layer_58">
</g>
<g id="Ladle">
</g>
<g id="Sauce_Spoon">
</g>
<g id="Egg_Beater">
</g>
<g id="Meat_Fork">
</g>
<g id="Kitchen_Spoon_1">
</g>
<g id="Kitchen_Spoon_2">
</g>
<g id="Pizza_Cutter">
</g>
<g id="Potato_Musher">
</g>
<g id="Peeler">
</g>
<g id="Honey_Dipper">
</g>
<g id="Fork">
</g>
<g id="Knife">
</g>
<g id="Spoon">
</g>
<g id="Cutlery_Set">
</g>
<g id="Sugar_Bowl">
</g>
<g id="Matches">
</g>
<g id="Cezve">
</g>
</svg>
