<?xml version="1.0" encoding="iso-8859-1"?>
<!-- Generator: Adobe Illustrator 19.2.1, SVG Export Plug-In . SVG Version: 6.00 Build 0)  -->
<svg version="1.1" xmlns="http://www.w3.org/2000/svg" xmlns:xlink="http://www.w3.org/1999/xlink" x="0px" y="0px"
	 viewBox="0 0 24 24" style="enable-background:new 0 0 24 24;" xml:space="preserve">
<g id="Cutting_Board_1">
</g>
<g id="Cutting_Board_2">
</g>
<g id="Chef_x27_s_Hat_1">
</g>
<g id="Chef_x27_s_Hat_2">
	<g>
		<g>
			<path d="M5.5,12.5C2.898,12.5,0,10.241,0,7c0-4.055,2.841-5.5,5.5-5.5c2.795,0,6.479,1.838,8.388,4.185
				c0.174,0.214,0.142,0.529-0.072,0.703c-0.214,0.176-0.529,0.142-0.703-0.072C11.401,4.211,7.986,2.5,5.5,2.5
				C4.147,2.5,1,2.938,1,7c0,2.652,2.372,4.5,4.5,4.5c0.998,0,1.792-0.116,2.361-0.344c0.255-0.102,0.547,0.021,0.65,0.278
				c0.103,0.256-0.021,0.547-0.278,0.65C7.536,12.364,6.642,12.5,5.5,12.5z"/>
		</g>
		<g>
			<path d="M19.5,13.5c-1.237,0-2.365-0.267-3.263-0.772c-0.241-0.135-0.326-0.44-0.19-0.681c0.135-0.241,0.439-0.327,0.681-0.19
				C17.25,12.15,18.154,12.5,19.5,12.5c2.094,0,3.5-2.844,3.5-5.5c0-2.692-2.844-4.5-5.5-4.5c-1.904,0-5.329,0.801-6.796,1.457
				c-0.253,0.114-0.548,0-0.661-0.252c-0.113-0.252,0-0.548,0.252-0.661C11.861,2.344,15.423,1.5,17.5,1.5C20.626,1.5,24,3.603,24,7
				C24,10.126,22.279,13.5,19.5,13.5z"/>
		</g>
		<g>
			<path d="M12.5,11.5c-0.855,0-1.643-0.372-2.555-0.802C8.756,10.136,7.409,9.5,5.5,9.5C5.224,9.5,5,9.276,5,9s0.224-0.5,0.5-0.5
				c2.133,0,3.651,0.717,4.872,1.293c0.803,0.379,1.497,0.707,2.128,0.707c0.71,0,1.182-0.173,1.778-0.393
				C15.052,9.823,15.93,9.5,17.5,9.5c0.276,0,0.5,0.224,0.5,0.5s-0.224,0.5-0.5,0.5c-1.393,0-2.147,0.277-2.876,0.546
				C13.988,11.279,13.388,11.5,12.5,11.5z"/>
		</g>
		<g>
			<path d="M12,22.5c-3.029,0-5.577-0.993-5.684-1.035C6.125,21.39,6,21.205,6,21v-9c0-0.276,0.224-0.5,0.5-0.5S7,11.724,7,12v8.648
				c0.754,0.255,2.761,0.852,5,0.852c2.268,0,4.254-0.596,5-0.851V13c0-0.276,0.224-0.5,0.5-0.5S18,12.724,18,13v8
				c0,0.205-0.125,0.388-0.314,0.464C17.58,21.506,15.061,22.5,12,22.5z"/>
		</g>
		<g>
			<path d="M12,20.5c-3.029,0-5.577-0.993-5.684-1.035c-0.257-0.101-0.383-0.392-0.281-0.648c0.1-0.256,0.389-0.382,0.648-0.282
				C6.708,18.544,9.168,19.5,12,19.5c2.871,0,5.29-0.955,5.314-0.964c0.253-0.102,0.547,0.021,0.65,0.279
				c0.103,0.256-0.022,0.547-0.279,0.65C17.58,19.506,15.061,20.5,12,20.5z"/>
		</g>
	</g>
</g>
<g id="Kitchen_Scale">
</g>
<g id="Measuring_Cup">
</g>
<g id="Pot_1">
</g>
<g id="Pot_2">
</g>
<g id="Wok_1">
</g>
<g id="Wok_2">
</g>
<g id="Teapot">
</g>
<g id="Plate">
</g>
<g id="Sauce_Boat">
</g>
<g id="Cauldron">
</g>
<g id="Cookbook">
</g>
<g id="Salt_Pot">
</g>
<g id="Pepper_Pot_1">
</g>
<g id="Pepper_Pot_2">
</g>
<g id="Egg_Timer">
</g>
<g id="Olive_Oil_Pot">
</g>
<g id="Pancake_Griddle">
</g>
<g id="Pan">
</g>
<g id="Kettle">
</g>
<g id="Microwave">
</g>
<g id="Cooker">
</g>
<g id="Meat_Grinder">
</g>
<g id="Coffee_Maker">
</g>
<g id="Household_Mixer">
</g>
<g id="Stand_Mixer">
</g>
<g id="Hand_Blender">
</g>
<g id="Blender">
</g>
<g id="Cooker_Hood">
</g>
<g id="Refrigerator">
</g>
<g id="Freezer">
</g>
<g id="Apron">
</g>
<g id="Oven_Gloves">
</g>
<g id="Rolling_Pin">
</g>
<g id="Sieve">
</g>
<g id="Tea_Sieve">
</g>
<g id="Grater">
</g>
<g id="Knife_Holder">
</g>
<g id="Funnel">
</g>
<g id="Kitchen_Clock">
</g>
<g id="Lemon_Juicer">
</g>
<g id="Pastry_Bag_1">
</g>
<g id="Pastry_Bag_2">
</g>
<g id="Corkscrew">
</g>
<g id="Bottle_Opener">
</g>
<g id="Service">
</g>
<g id="Chopsticks">
</g>
<g id="Hatchet">
</g>
<g id="Filleting_Knife">
</g>
<g id="Bread_Knife">
</g>
<g id="Herb_Knife">
</g>
<g id="Whetting">
</g>
<g id="Cake_Knife">
</g>
<g id="Layer_58">
</g>
<g id="Ladle">
</g>
<g id="Sauce_Spoon">
</g>
<g id="Egg_Beater">
</g>
<g id="Meat_Fork">
</g>
<g id="Kitchen_Spoon_1">
</g>
<g id="Kitchen_Spoon_2">
</g>
<g id="Pizza_Cutter">
</g>
<g id="Potato_Musher">
</g>
<g id="Peeler">
</g>
<g id="Honey_Dipper">
</g>
<g id="Fork">
</g>
<g id="Knife">
</g>
<g id="Spoon">
</g>
<g id="Cutlery_Set">
</g>
<g id="Sugar_Bowl">
</g>
<g id="Matches">
</g>
<g id="Cezve">
</g>
</svg>
