<?xml version="1.0" encoding="iso-8859-1"?>
<!-- Generator: Adobe Illustrator 19.2.1, SVG Export Plug-In . SVG Version: 6.00 Build 0)  -->
<svg version="1.1" xmlns="http://www.w3.org/2000/svg" xmlns:xlink="http://www.w3.org/1999/xlink" x="0px" y="0px"
	 viewBox="0 0 24 24" style="enable-background:new 0 0 24 24;" xml:space="preserve">
<g id="Cutting_Board_1">
</g>
<g id="Cutting_Board_2">
</g>
<g id="Chef_x27_s_Hat_1">
</g>
<g id="Chef_x27_s_Hat_2">
</g>
<g id="Kitchen_Scale">
</g>
<g id="Measuring_Cup">
</g>
<g id="Pot_1">
</g>
<g id="Pot_2">
</g>
<g id="Wok_1">
</g>
<g id="Wok_2">
</g>
<g id="Teapot">
</g>
<g id="Plate">
</g>
<g id="Sauce_Boat">
</g>
<g id="Cauldron">
</g>
<g id="Cookbook">
</g>
<g id="Salt_Pot">
</g>
<g id="Pepper_Pot_1">
</g>
<g id="Pepper_Pot_2">
</g>
<g id="Egg_Timer">
</g>
<g id="Olive_Oil_Pot">
</g>
<g id="Pancake_Griddle">
</g>
<g id="Pan">
</g>
<g id="Kettle">
</g>
<g id="Microwave">
</g>
<g id="Cooker">
</g>
<g id="Meat_Grinder">
</g>
<g id="Coffee_Maker">
</g>
<g id="Household_Mixer">
</g>
<g id="Stand_Mixer">
</g>
<g id="Hand_Blender">
</g>
<g id="Blender">
</g>
<g id="Cooker_Hood">
</g>
<g id="Refrigerator">
</g>
<g id="Freezer">
</g>
<g id="Apron">
</g>
<g id="Oven_Gloves">
</g>
<g id="Rolling_Pin">
</g>
<g id="Sieve">
</g>
<g id="Tea_Sieve">
</g>
<g id="Grater">
</g>
<g id="Knife_Holder">
</g>
<g id="Funnel">
</g>
<g id="Kitchen_Clock">
</g>
<g id="Lemon_Juicer">
</g>
<g id="Pastry_Bag_1">
</g>
<g id="Pastry_Bag_2">
</g>
<g id="Corkscrew">
</g>
<g id="Bottle_Opener">
</g>
<g id="Service">
</g>
<g id="Chopsticks">
	<g>
		<g>
			<path d="M9.5,24h-6C3.224,24,3,23.776,3,23.5S3.224,23,3.5,23h6c0.276,0,0.5,0.224,0.5,0.5S9.776,24,9.5,24z"/>
		</g>
		<g>
			<path d="M22.433,23.999c-0.19,0-0.381-0.034-0.563-0.104c-0.41-0.158-0.737-0.482-0.897-0.892L12.036,0.686
				c-0.1-0.248,0.014-0.53,0.258-0.641c0.241-0.109,0.531-0.01,0.652,0.229l10.887,21.455c0.387,0.775,0.073,1.719-0.699,2.105
				C22.914,23.943,22.674,23.999,22.433,23.999z M17.153,10.776l4.749,11.859c0.061,0.153,0.176,0.269,0.327,0.326
				c0.148,0.058,0.311,0.05,0.457-0.022c0.279-0.14,0.393-0.481,0.253-0.761L17.153,10.776z"/>
		</g>
		<g>
			<path d="M6.5,24C2.916,24,0,21.084,0,17.5C0,17.224,0.224,17,0.5,17h12c0.276,0,0.5,0.224,0.5,0.5C13,21.084,10.084,24,6.5,24z
				 M1.022,18c0.253,2.8,2.613,5,5.478,5s5.225-2.2,5.478-5H1.022z"/>
		</g>
		<g>
			<path d="M6.5,22c-1.6,0-3.092-0.862-3.896-2.249c-0.139-0.239-0.057-0.545,0.182-0.684c0.236-0.139,0.544-0.06,0.684,0.182
				C4.096,20.329,5.257,21,6.5,21C6.776,21,7,21.224,7,21.5S6.776,22,6.5,22z"/>
		</g>
		<g>
			<g>
				<path d="M13.567,23.999c-0.241,0-0.481-0.056-0.701-0.165c-0.375-0.188-0.653-0.509-0.786-0.906
					c-0.132-0.397-0.102-0.822,0.086-1.196l3.537-6.97c0.125-0.247,0.429-0.343,0.672-0.219c0.246,0.125,0.345,0.426,0.219,0.672
					l-3.534,6.967c-0.067,0.133-0.078,0.287-0.03,0.431s0.148,0.26,0.284,0.327c0.147,0.073,0.309,0.08,0.457,0.022
					c0.151-0.058,0.267-0.173,0.325-0.323l2.363-5.9c0.103-0.257,0.397-0.381,0.649-0.278c0.257,0.103,0.381,0.394,0.278,0.649
					l-2.361,5.897c-0.158,0.406-0.485,0.73-0.896,0.889C13.948,23.965,13.758,23.999,13.567,23.999z"/>
			</g>
			<g>
				<path d="M19.637,10.646c-0.063,0-0.125-0.012-0.186-0.036c-0.257-0.103-0.381-0.394-0.278-0.649l0.149-0.373
					c-0.133,0.058-0.288,0.058-0.428-0.012c-0.246-0.125-0.345-0.427-0.22-0.673l4.379-8.63c0.121-0.238,0.411-0.338,0.652-0.229
					c0.244,0.11,0.357,0.393,0.258,0.641l-3.863,9.646C20.022,10.527,19.835,10.646,19.637,10.646z"/>
			</g>
		</g>
	</g>
</g>
<g id="Hatchet">
</g>
<g id="Filleting_Knife">
</g>
<g id="Bread_Knife">
</g>
<g id="Herb_Knife">
</g>
<g id="Whetting">
</g>
<g id="Cake_Knife">
</g>
<g id="Layer_58">
</g>
<g id="Ladle">
</g>
<g id="Sauce_Spoon">
</g>
<g id="Egg_Beater">
</g>
<g id="Meat_Fork">
</g>
<g id="Kitchen_Spoon_1">
</g>
<g id="Kitchen_Spoon_2">
</g>
<g id="Pizza_Cutter">
</g>
<g id="Potato_Musher">
</g>
<g id="Peeler">
</g>
<g id="Honey_Dipper">
</g>
<g id="Fork">
</g>
<g id="Knife">
</g>
<g id="Spoon">
</g>
<g id="Cutlery_Set">
</g>
<g id="Sugar_Bowl">
</g>
<g id="Matches">
</g>
<g id="Cezve">
</g>
</svg>
