<?xml version="1.0" encoding="iso-8859-1"?>
<!-- Generator: Adobe Illustrator 19.2.1, SVG Export Plug-In . SVG Version: 6.00 Build 0)  -->
<svg version="1.1" xmlns="http://www.w3.org/2000/svg" xmlns:xlink="http://www.w3.org/1999/xlink" x="0px" y="0px"
	 viewBox="0 0 24 24" style="enable-background:new 0 0 24 24;" xml:space="preserve">
<g id="Cutting_Board_1">
</g>
<g id="Cutting_Board_2">
</g>
<g id="Chef_x27_s_Hat_1">
</g>
<g id="Chef_x27_s_Hat_2">
</g>
<g id="Kitchen_Scale">
</g>
<g id="Measuring_Cup">
</g>
<g id="Pot_1">
</g>
<g id="Pot_2">
</g>
<g id="Wok_1">
</g>
<g id="Wok_2">
</g>
<g id="Teapot">
</g>
<g id="Plate">
</g>
<g id="Sauce_Boat">
</g>
<g id="Cauldron">
</g>
<g id="Cookbook">
</g>
<g id="Salt_Pot">
</g>
<g id="Pepper_Pot_1">
</g>
<g id="Pepper_Pot_2">
</g>
<g id="Egg_Timer">
</g>
<g id="Olive_Oil_Pot">
</g>
<g id="Pancake_Griddle">
</g>
<g id="Pan">
</g>
<g id="Kettle">
</g>
<g id="Microwave">
</g>
<g id="Cooker">
</g>
<g id="Meat_Grinder">
</g>
<g id="Coffee_Maker">
	<g>
		<g>
			<path d="M15.5,24h-10c-0.144,0-0.28-0.062-0.375-0.169s-0.139-0.251-0.121-0.393l1-8C6.035,15.188,6.248,15,6.5,15h8
				c0.252,0,0.465,0.188,0.496,0.438l1,8c0.018,0.142-0.026,0.286-0.121,0.393S15.644,24,15.5,24z M6.066,23h8.867l-0.875-7H6.941
				L6.066,23z"/>
		</g>
		<g>
			<path d="M12.5,24h-4c-0.137,0-0.268-0.056-0.362-0.155s-0.144-0.233-0.137-0.37l0.4-8C8.414,15.209,8.634,15,8.9,15H12.1
				c0.267,0,0.486,0.209,0.499,0.475l0.4,8c0.007,0.137-0.042,0.271-0.137,0.37S12.637,24,12.5,24z M9.025,23h2.949l-0.351-7H9.376
				L9.025,23z"/>
		</g>
		<g>
			<path d="M12.1,14H8.9c-0.267,0-0.486-0.209-0.499-0.475l-0.4-8c-0.007-0.137,0.042-0.271,0.137-0.37S8.363,5,8.5,5h4
				c0.137,0,0.268,0.056,0.362,0.155s0.144,0.233,0.137,0.37l-0.4,8C12.586,13.791,12.366,14,12.1,14z M9.376,13h2.248l0.351-7
				H9.025L9.376,13z"/>
		</g>
		<g>
			<path d="M10.5,4C10.224,4,10,3.776,10,3.5c0-0.411-0.179-0.596-0.427-0.851C9.317,2.385,9,2.058,9,1.5C9,0.673,9.673,0,10.5,0
				S12,0.673,12,1.5c0,0.558-0.317,0.885-0.573,1.149C11.179,2.904,11,3.089,11,3.5C11,3.776,10.776,4,10.5,4z M10.5,1
				C10.225,1,10,1.224,10,1.5c0,0.14,0.075,0.23,0.291,0.453c0.066,0.068,0.138,0.142,0.209,0.224
				c0.071-0.082,0.143-0.156,0.209-0.224C10.925,1.73,11,1.64,11,1.5C11,1.224,10.775,1,10.5,1z"/>
		</g>
		<g>
			<path d="M14.5,14h-8c-0.255,0-0.469-0.191-0.497-0.445l-1-9C5,3.108,9.21,3,10.5,3S16,3.108,16,4.5l-1.003,9.055
				C14.969,13.809,14.755,14,14.5,14z M6.947,13h7.105l0.933-8.394C14.609,4.371,13.08,4,10.5,4C7.913,4,6.383,4.373,6.012,4.608
				L6.947,13z M15.05,4.657h0.01H15.05z"/>
		</g>
		<g>
			<path d="M10.5,6C9.21,6,5,5.892,5,4.5C5,4.224,5.224,4,5.5,4c0.231,0,0.427,0.158,0.483,0.372C6.297,4.606,7.841,5,10.5,5
				s4.203-0.394,4.517-0.628C15.073,4.158,15.269,4,15.5,4C15.776,4,16,4.224,16,4.5C16,5.892,11.79,6,10.5,6z M6,4.5h0.01H6z"/>
		</g>
		<g>
			<path d="M5.5,8C5.372,8,5.244,7.951,5.146,7.854l-3-3C2.004,4.71,1.961,4.496,2.038,4.309S2.298,4,2.5,4h3C5.776,4,6,4.224,6,4.5
				S5.776,5,5.5,5H3.707l2.146,2.146c0.195,0.195,0.195,0.512,0,0.707C5.756,7.951,5.628,8,5.5,8z"/>
		</g>
		<g>
			<path d="M14.5,16h-8C5.673,16,5,15.327,5,14.5S5.673,13,6.5,13h8c0.827,0,1.5,0.673,1.5,1.5S15.327,16,14.5,16z M6.5,14
				C6.225,14,6,14.224,6,14.5S6.225,15,6.5,15h8c0.275,0,0.5-0.224,0.5-0.5S14.775,14,14.5,14H6.5z"/>
		</g>
		<g>
			<path d="M19.5,12c-0.827,0-1.5-0.673-1.5-1.5V7.695c0-0.076-0.012-0.15-0.035-0.22c-0.066-0.2-0.207-0.351-0.397-0.429
				c-0.188-0.08-0.396-0.072-0.581,0.021l-1.2,0.844c-0.225,0.156-0.536,0.104-0.696-0.124c-0.158-0.227-0.103-0.538,0.124-0.696
				l1.263-0.881c0.503-0.257,1.02-0.276,1.474-0.087c0.456,0.189,0.806,0.565,0.962,1.033C18.971,7.329,19,7.51,19,7.695V10.5
				c0,0.276,0.225,0.5,0.5,0.5s0.5-0.224,0.5-0.5V5.964c0-0.226-0.054-0.453-0.155-0.656c-0.337-0.675-1.127-0.981-1.828-0.718
				l-2.341,0.878c-0.256,0.097-0.546-0.034-0.644-0.292s0.033-0.547,0.292-0.644l2.341-0.878c1.186-0.445,2.508,0.074,3.074,1.207
				C20.91,5.202,21,5.583,21,5.964V10.5C21,11.327,20.327,12,19.5,12z"/>
		</g>
	</g>
</g>
<g id="Household_Mixer">
</g>
<g id="Stand_Mixer">
</g>
<g id="Hand_Blender">
</g>
<g id="Blender">
</g>
<g id="Cooker_Hood">
</g>
<g id="Refrigerator">
</g>
<g id="Freezer">
</g>
<g id="Apron">
</g>
<g id="Oven_Gloves">
</g>
<g id="Rolling_Pin">
</g>
<g id="Sieve">
</g>
<g id="Tea_Sieve">
</g>
<g id="Grater">
</g>
<g id="Knife_Holder">
</g>
<g id="Funnel">
</g>
<g id="Kitchen_Clock">
</g>
<g id="Lemon_Juicer">
</g>
<g id="Pastry_Bag_1">
</g>
<g id="Pastry_Bag_2">
</g>
<g id="Corkscrew">
</g>
<g id="Bottle_Opener">
</g>
<g id="Service">
</g>
<g id="Chopsticks">
</g>
<g id="Hatchet">
</g>
<g id="Filleting_Knife">
</g>
<g id="Bread_Knife">
</g>
<g id="Herb_Knife">
</g>
<g id="Whetting">
</g>
<g id="Cake_Knife">
</g>
<g id="Layer_58">
</g>
<g id="Ladle">
</g>
<g id="Sauce_Spoon">
</g>
<g id="Egg_Beater">
</g>
<g id="Meat_Fork">
</g>
<g id="Kitchen_Spoon_1">
</g>
<g id="Kitchen_Spoon_2">
</g>
<g id="Pizza_Cutter">
</g>
<g id="Potato_Musher">
</g>
<g id="Peeler">
</g>
<g id="Honey_Dipper">
</g>
<g id="Fork">
</g>
<g id="Knife">
</g>
<g id="Spoon">
</g>
<g id="Cutlery_Set">
</g>
<g id="Sugar_Bowl">
</g>
<g id="Matches">
</g>
<g id="Cezve">
</g>
</svg>
