<?xml version="1.0" encoding="iso-8859-1"?>
<!-- Generator: Adobe Illustrator 19.2.1, SVG Export Plug-In . SVG Version: 6.00 Build 0)  -->
<svg version="1.1" xmlns="http://www.w3.org/2000/svg" xmlns:xlink="http://www.w3.org/1999/xlink" x="0px" y="0px"
	 viewBox="0 0 24 24" style="enable-background:new 0 0 24 24;" xml:space="preserve">
<g id="Cutting_Board_1">
</g>
<g id="Cutting_Board_2">
</g>
<g id="Chef_x27_s_Hat_1">
</g>
<g id="Chef_x27_s_Hat_2">
</g>
<g id="Kitchen_Scale">
</g>
<g id="Measuring_Cup">
</g>
<g id="Pot_1">
</g>
<g id="Pot_2">
</g>
<g id="Wok_1">
</g>
<g id="Wok_2">
</g>
<g id="Teapot">
</g>
<g id="Plate">
</g>
<g id="Sauce_Boat">
</g>
<g id="Cauldron">
</g>
<g id="Cookbook">
	<g>
		<g>
			<g>
				<path d="M20.5,24H4.721C3.144,24,2,22.738,2,21V4c0-0.276,0.224-0.5,0.5-0.5S3,3.724,3,4v17c0,0.996,0.532,2,1.721,2H20V6.5
					C20,6.224,20.224,6,20.5,6S21,6.224,21,6.5v17C21,23.776,20.776,24,20.5,24z"/>
			</g>
			<g>
				<path d="M20.5,7H5.221C3.505,7,2,5.598,2,4V3c0-1.598,1.505-3,3.221-3H20.5c0.202,0,0.385,0.122,0.462,0.309
					c0.078,0.187,0.035,0.402-0.108,0.545c-1.113,1.113-1.113,4.18,0,5.293c0.143,0.143,0.186,0.358,0.108,0.545
					C20.885,6.878,20.702,7,20.5,7z M5.221,1C4.059,1,3,1.953,3,3v1c0,1.047,1.059,2,2.221,2h14.329c-0.708-1.431-0.708-3.569,0-5
					H5.221z"/>
			</g>
			<g>
				<path d="M19.5,4H5C4.724,4,4.5,3.776,4.5,3.5S4.724,3,5,3h14.5C19.776,3,20,3.224,20,3.5S19.776,4,19.5,4z"/>
			</g>
		</g>
		<g>
			<g>
				<path d="M17.5,22c-0.128,0-0.256-0.049-0.354-0.146l-6.586-6.586c-0.957-0.957-1.504-2.212-1.557-3.557L6.146,8.854
					c-0.195-0.195-0.195-0.512,0-0.707s0.512-0.195,0.707,0l3,3C9.947,11.24,10,11.367,10,11.5c0,1.156,0.45,2.243,1.268,3.061
					l6.586,6.586c0.195,0.195,0.195,0.512,0,0.707C17.756,21.951,17.628,22,17.5,22z"/>
			</g>
		</g>
		<g>
			<g>
				<path d="M17.5,22c-0.128,0-0.256-0.049-0.354-0.146l-6.586-6.586C9.743,14.45,8.656,14,7.5,14c-0.133,0-0.26-0.053-0.354-0.146
					l-3-3c-0.195-0.195-0.195-0.512,0-0.707s0.512-0.195,0.707,0l2.857,2.857c1.344,0.052,2.6,0.6,3.557,1.557l6.586,6.586
					c0.195,0.195,0.195,0.512,0,0.707C17.756,21.951,17.628,22,17.5,22z"/>
			</g>
		</g>
		<g>
			<path d="M15.558,14.5c-0.801,0-1.555-0.312-2.122-0.879c-1.169-1.169-1.169-3.073,0-4.242c0.558-0.558,1.465-1.025,2.369-1.221
				c1.095-0.237,2.012-0.055,2.581,0.514c0.569,0.569,0.751,1.485,0.514,2.581c-0.196,0.904-0.664,1.812-1.221,2.369
				C17.112,14.188,16.359,14.5,15.558,14.5z M16.7,9.063c-0.86,0-1.962,0.428-2.557,1.022c-0.78,0.78-0.78,2.048,0,2.828
				c0.756,0.756,2.073,0.756,2.829,0l0,0c0.423-0.422,0.796-1.158,0.951-1.874c0.161-0.741,0.072-1.347-0.244-1.662
				C17.459,9.159,17.106,9.063,16.7,9.063z"/>
		</g>
		<g>
			<path d="M4.5,22c-0.138,0-0.275-0.057-0.374-0.168c-0.184-0.206-0.165-0.522,0.042-0.706l9-8
				c0.206-0.184,0.521-0.166,0.706,0.042c0.184,0.206,0.165,0.522-0.042,0.706l-9,8C4.737,21.958,4.618,22,4.5,22z"/>
		</g>
	</g>
</g>
<g id="Salt_Pot">
</g>
<g id="Pepper_Pot_1">
</g>
<g id="Pepper_Pot_2">
</g>
<g id="Egg_Timer">
</g>
<g id="Olive_Oil_Pot">
</g>
<g id="Pancake_Griddle">
</g>
<g id="Pan">
</g>
<g id="Kettle">
</g>
<g id="Microwave">
</g>
<g id="Cooker">
</g>
<g id="Meat_Grinder">
</g>
<g id="Coffee_Maker">
</g>
<g id="Household_Mixer">
</g>
<g id="Stand_Mixer">
</g>
<g id="Hand_Blender">
</g>
<g id="Blender">
</g>
<g id="Cooker_Hood">
</g>
<g id="Refrigerator">
</g>
<g id="Freezer">
</g>
<g id="Apron">
</g>
<g id="Oven_Gloves">
</g>
<g id="Rolling_Pin">
</g>
<g id="Sieve">
</g>
<g id="Tea_Sieve">
</g>
<g id="Grater">
</g>
<g id="Knife_Holder">
</g>
<g id="Funnel">
</g>
<g id="Kitchen_Clock">
</g>
<g id="Lemon_Juicer">
</g>
<g id="Pastry_Bag_1">
</g>
<g id="Pastry_Bag_2">
</g>
<g id="Corkscrew">
</g>
<g id="Bottle_Opener">
</g>
<g id="Service">
</g>
<g id="Chopsticks">
</g>
<g id="Hatchet">
</g>
<g id="Filleting_Knife">
</g>
<g id="Bread_Knife">
</g>
<g id="Herb_Knife">
</g>
<g id="Whetting">
</g>
<g id="Cake_Knife">
</g>
<g id="Layer_58">
</g>
<g id="Ladle">
</g>
<g id="Sauce_Spoon">
</g>
<g id="Egg_Beater">
</g>
<g id="Meat_Fork">
</g>
<g id="Kitchen_Spoon_1">
</g>
<g id="Kitchen_Spoon_2">
</g>
<g id="Pizza_Cutter">
</g>
<g id="Potato_Musher">
</g>
<g id="Peeler">
</g>
<g id="Honey_Dipper">
</g>
<g id="Fork">
</g>
<g id="Knife">
</g>
<g id="Spoon">
</g>
<g id="Cutlery_Set">
</g>
<g id="Sugar_Bowl">
</g>
<g id="Matches">
</g>
<g id="Cezve">
</g>
</svg>
