<?xml version="1.0" encoding="iso-8859-1"?>
<!-- Generator: Adobe Illustrator 19.2.1, SVG Export Plug-In . SVG Version: 6.00 Build 0)  -->
<svg version="1.1" xmlns="http://www.w3.org/2000/svg" xmlns:xlink="http://www.w3.org/1999/xlink" x="0px" y="0px"
	 viewBox="0 0 24 24" style="enable-background:new 0 0 24 24;" xml:space="preserve">
<g id="Cutting_Board_1">
</g>
<g id="Cutting_Board_2">
</g>
<g id="Chef_x27_s_Hat_1">
</g>
<g id="Chef_x27_s_Hat_2">
</g>
<g id="Kitchen_Scale">
</g>
<g id="Measuring_Cup">
</g>
<g id="Pot_1">
</g>
<g id="Pot_2">
</g>
<g id="Wok_1">
</g>
<g id="Wok_2">
</g>
<g id="Teapot">
</g>
<g id="Plate">
</g>
<g id="Sauce_Boat">
</g>
<g id="Cauldron">
</g>
<g id="Cookbook">
</g>
<g id="Salt_Pot">
</g>
<g id="Pepper_Pot_1">
</g>
<g id="Pepper_Pot_2">
</g>
<g id="Egg_Timer">
</g>
<g id="Olive_Oil_Pot">
</g>
<g id="Pancake_Griddle">
</g>
<g id="Pan">
</g>
<g id="Kettle">
</g>
<g id="Microwave">
</g>
<g id="Cooker">
</g>
<g id="Meat_Grinder">
</g>
<g id="Coffee_Maker">
</g>
<g id="Household_Mixer">
</g>
<g id="Stand_Mixer">
</g>
<g id="Hand_Blender">
</g>
<g id="Blender">
</g>
<g id="Cooker_Hood">
	<g>
		<g>
			<path d="M21.5,18h-20C0.673,18,0,17.327,0,16.5v-2C0,13.673,0.673,13,1.5,13h20c0.827,0,1.5,0.673,1.5,1.5v2
				C23,17.327,22.327,18,21.5,18z M1.5,14C1.224,14,1,14.224,1,14.5v2C1,16.776,1.224,17,1.5,17h20c0.276,0,0.5-0.224,0.5-0.5v-2
				c0-0.276-0.224-0.5-0.5-0.5H1.5z"/>
		</g>
		<g>
			<path d="M15.5,6h-8C7.224,6,7,5.776,7,5.5v-5C7,0.224,7.224,0,7.5,0h8C15.776,0,16,0.224,16,0.5v5C16,5.776,15.776,6,15.5,6z
				 M8,5h7V1H8V5z"/>
		</g>
		<g>
			<path d="M1.5,14C1.395,14,1.29,13.967,1.2,13.9c-0.221-0.166-0.266-0.479-0.1-0.7l6-8c0.166-0.221,0.48-0.266,0.7-0.1
				c0.221,0.166,0.266,0.479,0.1,0.7l-6,8C1.802,13.931,1.652,14,1.5,14z"/>
		</g>
		<g>
			<path d="M21.5,14c-0.152,0-0.302-0.069-0.4-0.2l-6-8c-0.166-0.221-0.121-0.534,0.1-0.7c0.22-0.167,0.533-0.122,0.7,0.1l6,8
				c0.166,0.221,0.121,0.534-0.1,0.7C21.71,13.967,21.605,14,21.5,14z"/>
		</g>
		<g>
			<path d="M3.497,24.024C3.221,24.024,3,23.776,3,23.5c0-0.333,0.216-0.621,0.466-0.955C3.704,22.227,4,21.832,4,21.5
				c0-0.175-0.08-0.273-0.309-0.507C3.399,20.695,3,20.286,3,19.5C3,19.224,3.224,19,3.5,19S4,19.224,4,19.5
				c0,0.378,0.162,0.544,0.406,0.794C4.657,20.55,5,20.902,5,21.5c0,0.665-0.424,1.231-0.734,1.645
				c-0.105,0.14-0.249,0.332-0.272,0.404C3.994,23.825,3.773,24.024,3.497,24.024z"/>
		</g>
		<g>
			<path d="M8.497,24.024C8.221,24.024,8,23.776,8,23.5c0-0.333,0.216-0.621,0.466-0.955C8.704,22.227,9,21.832,9,21.5
				c0-0.175-0.08-0.273-0.309-0.507C8.399,20.695,8,20.286,8,19.5C8,19.224,8.224,19,8.5,19S9,19.224,9,19.5
				c0,0.378,0.162,0.544,0.406,0.794C9.657,20.55,10,20.902,10,21.5c0,0.665-0.424,1.231-0.734,1.645
				c-0.105,0.14-0.249,0.332-0.272,0.404C8.994,23.825,8.773,24.024,8.497,24.024z"/>
		</g>
		<g>
			<path d="M13.497,24.024C13.221,24.024,13,23.776,13,23.5c0-0.333,0.216-0.621,0.466-0.955C13.704,22.227,14,21.832,14,21.5
				c0-0.175-0.08-0.273-0.309-0.507C13.399,20.695,13,20.286,13,19.5c0-0.276,0.224-0.5,0.5-0.5s0.5,0.224,0.5,0.5
				c0,0.378,0.162,0.544,0.406,0.794C14.657,20.55,15,20.902,15,21.5c0,0.665-0.424,1.231-0.734,1.645
				c-0.105,0.14-0.249,0.332-0.272,0.404C13.994,23.825,13.773,24.024,13.497,24.024z"/>
		</g>
		<g>
			<path d="M18.497,24.024C18.221,24.024,18,23.776,18,23.5c0-0.333,0.216-0.621,0.466-0.955C18.704,22.227,19,21.832,19,21.5
				c0-0.175-0.08-0.273-0.309-0.507C18.399,20.695,18,20.286,18,19.5c0-0.276,0.224-0.5,0.5-0.5s0.5,0.224,0.5,0.5
				c0,0.378,0.162,0.544,0.406,0.794C19.657,20.55,20,20.902,20,21.5c0,0.665-0.424,1.231-0.734,1.645
				c-0.105,0.14-0.249,0.332-0.272,0.404C18.994,23.825,18.773,24.024,18.497,24.024z"/>
		</g>
		<g>
			<circle cx="19.5" cy="15.5" r="0.5"/>
		</g>
		<g>
			<circle cx="15.5" cy="15.5" r="0.5"/>
		</g>
		<g>
			<path d="M6.5,16h-4C2.224,16,2,15.776,2,15.5S2.224,15,2.5,15h4C6.776,15,7,15.224,7,15.5S6.776,16,6.5,16z"/>
		</g>
	</g>
</g>
<g id="Refrigerator">
</g>
<g id="Freezer">
</g>
<g id="Apron">
</g>
<g id="Oven_Gloves">
</g>
<g id="Rolling_Pin">
</g>
<g id="Sieve">
</g>
<g id="Tea_Sieve">
</g>
<g id="Grater">
</g>
<g id="Knife_Holder">
</g>
<g id="Funnel">
</g>
<g id="Kitchen_Clock">
</g>
<g id="Lemon_Juicer">
</g>
<g id="Pastry_Bag_1">
</g>
<g id="Pastry_Bag_2">
</g>
<g id="Corkscrew">
</g>
<g id="Bottle_Opener">
</g>
<g id="Service">
</g>
<g id="Chopsticks">
</g>
<g id="Hatchet">
</g>
<g id="Filleting_Knife">
</g>
<g id="Bread_Knife">
</g>
<g id="Herb_Knife">
</g>
<g id="Whetting">
</g>
<g id="Cake_Knife">
</g>
<g id="Layer_58">
</g>
<g id="Ladle">
</g>
<g id="Sauce_Spoon">
</g>
<g id="Egg_Beater">
</g>
<g id="Meat_Fork">
</g>
<g id="Kitchen_Spoon_1">
</g>
<g id="Kitchen_Spoon_2">
</g>
<g id="Pizza_Cutter">
</g>
<g id="Potato_Musher">
</g>
<g id="Peeler">
</g>
<g id="Honey_Dipper">
</g>
<g id="Fork">
</g>
<g id="Knife">
</g>
<g id="Spoon">
</g>
<g id="Cutlery_Set">
</g>
<g id="Sugar_Bowl">
</g>
<g id="Matches">
</g>
<g id="Cezve">
</g>
</svg>
