<?xml version="1.0" encoding="iso-8859-1"?>
<!-- Generator: Adobe Illustrator 19.2.1, SVG Export Plug-In . SVG Version: 6.00 Build 0)  -->
<svg version="1.1" xmlns="http://www.w3.org/2000/svg" xmlns:xlink="http://www.w3.org/1999/xlink" x="0px" y="0px"
	 viewBox="0 0 24 24" style="enable-background:new 0 0 24 24;" xml:space="preserve">
<g id="Cutting_Board_1">
</g>
<g id="Cutting_Board_2">
</g>
<g id="Chef_x27_s_Hat_1">
</g>
<g id="Chef_x27_s_Hat_2">
</g>
<g id="Kitchen_Scale">
</g>
<g id="Measuring_Cup">
</g>
<g id="Pot_1">
</g>
<g id="Pot_2">
</g>
<g id="Wok_1">
</g>
<g id="Wok_2">
</g>
<g id="Teapot">
</g>
<g id="Plate">
</g>
<g id="Sauce_Boat">
</g>
<g id="Cauldron">
</g>
<g id="Cookbook">
</g>
<g id="Salt_Pot">
</g>
<g id="Pepper_Pot_1">
</g>
<g id="Pepper_Pot_2">
</g>
<g id="Egg_Timer">
</g>
<g id="Olive_Oil_Pot">
</g>
<g id="Pancake_Griddle">
</g>
<g id="Pan">
</g>
<g id="Kettle">
</g>
<g id="Microwave">
</g>
<g id="Cooker">
</g>
<g id="Meat_Grinder">
</g>
<g id="Coffee_Maker">
</g>
<g id="Household_Mixer">
</g>
<g id="Stand_Mixer">
</g>
<g id="Hand_Blender">
</g>
<g id="Blender">
</g>
<g id="Cooker_Hood">
</g>
<g id="Refrigerator">
</g>
<g id="Freezer">
</g>
<g id="Apron">
</g>
<g id="Oven_Gloves">
</g>
<g id="Rolling_Pin">
</g>
<g id="Sieve">
</g>
<g id="Tea_Sieve">
</g>
<g id="Grater">
</g>
<g id="Knife_Holder">
</g>
<g id="Funnel">
</g>
<g id="Kitchen_Clock">
</g>
<g id="Lemon_Juicer">
</g>
<g id="Pastry_Bag_1">
</g>
<g id="Pastry_Bag_2">
</g>
<g id="Corkscrew">
	<g>
		<g>
			<path d="M12,24c-0.276,0-0.5-0.224-0.5-0.5v-1c0-0.133,0.053-0.26,0.146-0.354l0.428-0.428l-1.087-0.362
				c-0.385-0.128-0.652-0.473-0.682-0.878c-0.028-0.405,0.188-0.784,0.551-0.966l1.924-0.962l-2.607-1.044
				c-0.403-0.16-0.649-0.545-0.628-0.979s0.306-0.791,0.724-0.91l3.799-1.086l-4.248-1.062c-0.453-0.114-0.758-0.504-0.758-0.971
				s0.305-0.856,0.757-0.971l4.749-1.187l-2.025-0.644c-0.623-0.2-1.042-0.774-1.042-1.429V6.5C11.5,6.224,11.724,6,12,6
				s0.5,0.224,0.5,0.5v1.771c0,0.218,0.14,0.409,0.347,0.476l2.097,0.673c0.449,0.219,0.664,0.612,0.618,1.032
				c-0.046,0.421-0.341,0.759-0.751,0.862L10.062,12.5l4.248,1.062c0.445,0.111,0.75,0.495,0.758,0.953
				c0.008,0.459-0.284,0.853-0.725,0.979l-3.799,1.086l2.607,1.044c0.37,0.147,0.611,0.486,0.628,0.885
				c0.018,0.399-0.194,0.758-0.552,0.938l-1.924,0.962l1.854,0.618c0.164,0.055,0.289,0.191,0.328,0.359
				c0.04,0.169-0.01,0.347-0.133,0.469L12.5,22.707V23.5C12.5,23.776,12.276,24,12,24z"/>
		</g>
		<g>
			<path d="M20.5,8c-0.99,0-1.882-0.623-2.441-1.687C15.909,6.639,13.247,7,12,7S8.091,6.639,5.941,6.313C5.382,7.377,4.49,8,3.5,8
				c-1.654,0-3-1.794-3-4s1.346-4,3-4c0.99,0,1.882,0.623,2.441,1.687C8.091,1.361,10.753,1,12,1s3.909,0.361,6.059,0.687
				C18.618,0.623,19.51,0,20.5,0c1.654,0,3,1.794,3,4S22.154,8,20.5,8z M18.352,5.263c0.199,0,0.382,0.119,0.461,0.307
				C19.183,6.452,19.83,7,20.5,7c1.084,0,2-1.374,2-3s-0.916-3-2-3c-0.67,0-1.317,0.548-1.688,1.431
				c-0.09,0.212-0.314,0.335-0.537,0.301C15.209,2.26,12.979,2,12,2S8.791,2.26,5.725,2.731C5.502,2.767,5.276,2.643,5.188,2.431
				C4.817,1.548,4.17,1,3.5,1c-1.084,0-2,1.374-2,3s0.916,3,2,3c0.67,0,1.317-0.548,1.688-1.431
				c0.089-0.211,0.313-0.338,0.537-0.301C8.791,5.74,11.021,6,12,6s3.209-0.26,6.275-0.731C18.301,5.265,18.326,5.263,18.352,5.263z
				"/>
		</g>
	</g>
</g>
<g id="Bottle_Opener">
</g>
<g id="Service">
</g>
<g id="Chopsticks">
</g>
<g id="Hatchet">
</g>
<g id="Filleting_Knife">
</g>
<g id="Bread_Knife">
</g>
<g id="Herb_Knife">
</g>
<g id="Whetting">
</g>
<g id="Cake_Knife">
</g>
<g id="Layer_58">
</g>
<g id="Ladle">
</g>
<g id="Sauce_Spoon">
</g>
<g id="Egg_Beater">
</g>
<g id="Meat_Fork">
</g>
<g id="Kitchen_Spoon_1">
</g>
<g id="Kitchen_Spoon_2">
</g>
<g id="Pizza_Cutter">
</g>
<g id="Potato_Musher">
</g>
<g id="Peeler">
</g>
<g id="Honey_Dipper">
</g>
<g id="Fork">
</g>
<g id="Knife">
</g>
<g id="Spoon">
</g>
<g id="Cutlery_Set">
</g>
<g id="Sugar_Bowl">
</g>
<g id="Matches">
</g>
<g id="Cezve">
</g>
</svg>
