<?xml version="1.0" encoding="iso-8859-1"?>
<!-- Generator: Adobe Illustrator 19.2.1, SVG Export Plug-In . SVG Version: 6.00 Build 0)  -->
<svg version="1.1" xmlns="http://www.w3.org/2000/svg" xmlns:xlink="http://www.w3.org/1999/xlink" x="0px" y="0px"
	 viewBox="0 0 24 24" style="enable-background:new 0 0 24 24;" xml:space="preserve">
<g id="Cutting_Board_1">
</g>
<g id="Cutting_Board_2">
</g>
<g id="Chef_x27_s_Hat_1">
</g>
<g id="Chef_x27_s_Hat_2">
</g>
<g id="Kitchen_Scale">
</g>
<g id="Measuring_Cup">
</g>
<g id="Pot_1">
</g>
<g id="Pot_2">
</g>
<g id="Wok_1">
</g>
<g id="Wok_2">
</g>
<g id="Teapot">
</g>
<g id="Plate">
</g>
<g id="Sauce_Boat">
</g>
<g id="Cauldron">
</g>
<g id="Cookbook">
</g>
<g id="Salt_Pot">
</g>
<g id="Pepper_Pot_1">
</g>
<g id="Pepper_Pot_2">
</g>
<g id="Egg_Timer">
</g>
<g id="Olive_Oil_Pot">
</g>
<g id="Pancake_Griddle">
</g>
<g id="Pan">
</g>
<g id="Kettle">
</g>
<g id="Microwave">
</g>
<g id="Cooker">
</g>
<g id="Meat_Grinder">
</g>
<g id="Coffee_Maker">
</g>
<g id="Household_Mixer">
</g>
<g id="Stand_Mixer">
</g>
<g id="Hand_Blender">
</g>
<g id="Blender">
</g>
<g id="Cooker_Hood">
</g>
<g id="Refrigerator">
</g>
<g id="Freezer">
</g>
<g id="Apron">
</g>
<g id="Oven_Gloves">
</g>
<g id="Rolling_Pin">
</g>
<g id="Sieve">
</g>
<g id="Tea_Sieve">
</g>
<g id="Grater">
</g>
<g id="Knife_Holder">
</g>
<g id="Funnel">
</g>
<g id="Kitchen_Clock">
</g>
<g id="Lemon_Juicer">
</g>
<g id="Pastry_Bag_1">
</g>
<g id="Pastry_Bag_2">
</g>
<g id="Corkscrew">
</g>
<g id="Bottle_Opener">
</g>
<g id="Service">
</g>
<g id="Chopsticks">
</g>
<g id="Hatchet">
</g>
<g id="Filleting_Knife">
</g>
<g id="Bread_Knife">
</g>
<g id="Herb_Knife">
</g>
<g id="Whetting">
</g>
<g id="Cake_Knife">
</g>
<g id="Layer_58">
</g>
<g id="Ladle">
</g>
<g id="Sauce_Spoon">
</g>
<g id="Egg_Beater">
</g>
<g id="Meat_Fork">
</g>
<g id="Kitchen_Spoon_1">
</g>
<g id="Kitchen_Spoon_2">
</g>
<g id="Pizza_Cutter">
</g>
<g id="Potato_Musher">
</g>
<g id="Peeler">
</g>
<g id="Honey_Dipper">
</g>
<g id="Fork">
</g>
<g id="Knife">
</g>
<g id="Spoon">
</g>
<g id="Cutlery_Set">
	<g>
		<g>
			<path d="M23.5,24c-0.276,0-0.5-0.224-0.5-0.5V13c0-0.827-0.673-1.5-1.5-1.5S20,10.827,20,10V3.5C20,1.57,21.57,0,23.5,0
				C23.776,0,24,0.224,24,0.5v23C24,23.776,23.776,24,23.5,24z M23,1.05c-1.14,0.232-2,1.243-2,2.45V10c0,0.275,0.224,0.5,0.5,0.5
				c0.563,0,1.082,0.187,1.5,0.501V1.05z"/>
		</g>
		<g>
			<g>
				<path d="M2.5,24C2.224,24,2,23.776,2,23.5v-13c0-0.871-0.691-1.53-1.423-2.229c-0.145-0.139-0.29-0.277-0.431-0.418
					C0.053,7.76,0,7.633,0,7.5v-7C0,0.224,0.224,0,0.5,0S1,0.224,1,0.5v6.791c0.088,0.086,0.178,0.171,0.268,0.257
					C2.08,8.322,3,9.201,3,10.5v13C3,23.776,2.776,24,2.5,24z"/>
			</g>
		</g>
		<g>
			<g>
				<path d="M2.5,11C2.224,11,2,10.776,2,10.5c0-1.299,0.92-2.178,1.732-2.952C3.822,7.462,3.912,7.377,4,7.291V0.5
					C4,0.224,4.224,0,4.5,0S5,0.224,5,0.5v7c0,0.133-0.053,0.26-0.146,0.354C4.713,7.994,4.568,8.133,4.423,8.271
					C3.691,8.97,3,9.629,3,10.5C3,10.776,2.776,11,2.5,11z"/>
			</g>
		</g>
		<g>
			<path d="M2.5,7C2.224,7,2,6.776,2,6.5v-6C2,0.224,2.224,0,2.5,0S3,0.224,3,0.5v6C3,6.776,2.776,7,2.5,7z"/>
		</g>
		<g>
			<path d="M13,24c-3.86,0-7-3.141-7-7s3.14-7,7-7s7,3.141,7,7S16.86,24,13,24z M13,11c-3.309,0-6,2.691-6,6s2.691,6,6,6
				s6-2.691,6-6S16.309,11,13,11z"/>
		</g>
	</g>
</g>
<g id="Sugar_Bowl">
</g>
<g id="Matches">
</g>
<g id="Cezve">
</g>
</svg>
