<?xml version="1.0" encoding="iso-8859-1"?>
<!-- Generator: Adobe Illustrator 19.2.1, SVG Export Plug-In . SVG Version: 6.00 Build 0)  -->
<svg version="1.1" xmlns="http://www.w3.org/2000/svg" xmlns:xlink="http://www.w3.org/1999/xlink" x="0px" y="0px"
	 viewBox="0 0 24 24" style="enable-background:new 0 0 24 24;" xml:space="preserve">
<g id="Cutting_Board_1">
</g>
<g id="Cutting_Board_2">
	<g>
		<g>
			<path d="M16.5,24h-10C5.673,24,5,23.327,5,22.5v-12C5,9.673,5.673,9,6.5,9h1.749c0.689-0.963,1.034-2.038,1.175-3.636
				c0.068-0.774-0.133-1.552-0.315-2.143C9.037,2.989,9,2.746,9,2.5C9,1.122,10.122,0,11.5,0S14,1.122,14,2.5
				c0,0.246-0.037,0.489-0.109,0.722c-0.182,0.59-0.383,1.368-0.314,2.142C13.718,6.962,14.062,8.037,14.752,9H16.5
				c0.827,0,1.5,0.673,1.5,1.5v12C18,23.327,17.327,24,16.5,24z M6.5,10C6.224,10,6,10.224,6,10.5v12C6,22.776,6.224,23,6.5,23h10
				c0.276,0,0.5-0.224,0.5-0.5v-12c0-0.276-0.224-0.5-0.5-0.5h-1.999c-0.154,0-0.3-0.071-0.395-0.193
				c-0.903-1.164-1.359-2.466-1.526-4.355c-0.083-0.947,0.146-1.847,0.355-2.525C12.979,2.789,13,2.646,13,2.5
				C13,1.673,12.327,1,11.5,1S10,1.673,10,2.5c0,0.146,0.021,0.289,0.064,0.426c0.209,0.678,0.439,1.578,0.356,2.525
				C10.253,7.34,9.797,8.643,8.895,9.806C8.8,9.929,8.655,10,8.5,10H6.5z"/>
		</g>
		<g>
			<circle cx="11.5" cy="2.5" r="0.5"/>
		</g>
		<g>
			<path d="M14.5,22h-6C8.224,22,8,21.776,8,21.5C8,21.224,7.776,21,7.5,21C7.224,21,7,20.776,7,20.5v-8C7,12.224,7.224,12,7.5,12
				C7.776,12,8,11.776,8,11.5C8,11.224,8.224,11,8.5,11h6c0.276,0,0.5,0.224,0.5,0.5c0,0.276,0.224,0.5,0.5,0.5
				c0.276,0,0.5,0.224,0.5,0.5v8c0,0.276-0.224,0.5-0.5,0.5c-0.276,0-0.5,0.224-0.5,0.5C15,21.776,14.776,22,14.5,22z M8.915,21
				h5.171c0.151-0.426,0.489-0.764,0.915-0.915v-7.171c-0.426-0.151-0.764-0.489-0.915-0.915H8.915
				C8.764,12.426,8.426,12.764,8,12.915v7.171C8.426,20.236,8.764,20.574,8.915,21z"/>
		</g>
	</g>
</g>
<g id="Chef_x27_s_Hat_1">
</g>
<g id="Chef_x27_s_Hat_2">
</g>
<g id="Kitchen_Scale">
</g>
<g id="Measuring_Cup">
</g>
<g id="Pot_1">
</g>
<g id="Pot_2">
</g>
<g id="Wok_1">
</g>
<g id="Wok_2">
</g>
<g id="Teapot">
</g>
<g id="Plate">
</g>
<g id="Sauce_Boat">
</g>
<g id="Cauldron">
</g>
<g id="Cookbook">
</g>
<g id="Salt_Pot">
</g>
<g id="Pepper_Pot_1">
</g>
<g id="Pepper_Pot_2">
</g>
<g id="Egg_Timer">
</g>
<g id="Olive_Oil_Pot">
</g>
<g id="Pancake_Griddle">
</g>
<g id="Pan">
</g>
<g id="Kettle">
</g>
<g id="Microwave">
</g>
<g id="Cooker">
</g>
<g id="Meat_Grinder">
</g>
<g id="Coffee_Maker">
</g>
<g id="Household_Mixer">
</g>
<g id="Stand_Mixer">
</g>
<g id="Hand_Blender">
</g>
<g id="Blender">
</g>
<g id="Cooker_Hood">
</g>
<g id="Refrigerator">
</g>
<g id="Freezer">
</g>
<g id="Apron">
</g>
<g id="Oven_Gloves">
</g>
<g id="Rolling_Pin">
</g>
<g id="Sieve">
</g>
<g id="Tea_Sieve">
</g>
<g id="Grater">
</g>
<g id="Knife_Holder">
</g>
<g id="Funnel">
</g>
<g id="Kitchen_Clock">
</g>
<g id="Lemon_Juicer">
</g>
<g id="Pastry_Bag_1">
</g>
<g id="Pastry_Bag_2">
</g>
<g id="Corkscrew">
</g>
<g id="Bottle_Opener">
</g>
<g id="Service">
</g>
<g id="Chopsticks">
</g>
<g id="Hatchet">
</g>
<g id="Filleting_Knife">
</g>
<g id="Bread_Knife">
</g>
<g id="Herb_Knife">
</g>
<g id="Whetting">
</g>
<g id="Cake_Knife">
</g>
<g id="Layer_58">
</g>
<g id="Ladle">
</g>
<g id="Sauce_Spoon">
</g>
<g id="Egg_Beater">
</g>
<g id="Meat_Fork">
</g>
<g id="Kitchen_Spoon_1">
</g>
<g id="Kitchen_Spoon_2">
</g>
<g id="Pizza_Cutter">
</g>
<g id="Potato_Musher">
</g>
<g id="Peeler">
</g>
<g id="Honey_Dipper">
</g>
<g id="Fork">
</g>
<g id="Knife">
</g>
<g id="Spoon">
</g>
<g id="Cutlery_Set">
</g>
<g id="Sugar_Bowl">
</g>
<g id="Matches">
</g>
<g id="Cezve">
</g>
</svg>
