<?xml version="1.0" encoding="iso-8859-1"?>
<!-- Generator: Adobe Illustrator 19.2.1, SVG Export Plug-In . SVG Version: 6.00 Build 0)  -->
<svg version="1.1" xmlns="http://www.w3.org/2000/svg" xmlns:xlink="http://www.w3.org/1999/xlink" x="0px" y="0px"
	 viewBox="0 0 24 24" style="enable-background:new 0 0 24 24;" xml:space="preserve">
<g id="Cutting_Board_1">
	<g>
		<g>
			<path d="M18.5,24h-13C4.122,24,3,22.878,3,21.5v-19C3,1.122,4.122,0,5.5,0h13C19.878,0,21,1.122,21,2.5v19
				C21,22.878,19.878,24,18.5,24z M5.5,1C4.673,1,4,1.673,4,2.5v19C4,22.327,4.673,23,5.5,23h13c0.827,0,1.5-0.673,1.5-1.5v-19
				C20,1.673,19.327,1,18.5,1H5.5z M15.5,6h-7C7.673,6,7,5.327,7,4.5v-1C7,2.673,7.673,2,8.5,2h7C16.327,2,17,2.673,17,3.5v1
				C17,5.327,16.327,6,15.5,6z M8.5,3C8.224,3,8,3.224,8,3.5v1C8,4.776,8.224,5,8.5,5h7C15.776,5,16,4.776,16,4.5v-1
				C16,3.224,15.776,3,15.5,3H8.5z"/>
		</g>
		<g>
			<path d="M17.5,22h-11C6.224,22,6,21.776,6,21.5C6,21.224,5.776,21,5.5,21C5.224,21,5,20.776,5,20.5v-12C5,8.224,5.224,8,5.5,8
				C5.776,8,6,7.776,6,7.5C6,7.224,6.224,7,6.5,7h11C17.776,7,18,7.224,18,7.5C18,7.776,18.224,8,18.5,8C18.776,8,19,8.224,19,8.5
				v12c0,0.276-0.224,0.5-0.5,0.5c-0.276,0-0.5,0.224-0.5,0.5C18,21.776,17.776,22,17.5,22z M6.915,21h10.171
				c0.151-0.426,0.489-0.764,0.915-0.915V8.915C17.574,8.764,17.236,8.426,17.085,8H6.915C6.764,8.426,6.426,8.764,6,8.915v11.171
				C6.426,20.236,6.764,20.574,6.915,21z"/>
		</g>
	</g>
</g>
<g id="Cutting_Board_2">
</g>
<g id="Chef_x27_s_Hat_1">
</g>
<g id="Chef_x27_s_Hat_2">
</g>
<g id="Kitchen_Scale">
</g>
<g id="Measuring_Cup">
</g>
<g id="Pot_1">
</g>
<g id="Pot_2">
</g>
<g id="Wok_1">
</g>
<g id="Wok_2">
</g>
<g id="Teapot">
</g>
<g id="Plate">
</g>
<g id="Sauce_Boat">
</g>
<g id="Cauldron">
</g>
<g id="Cookbook">
</g>
<g id="Salt_Pot">
</g>
<g id="Pepper_Pot_1">
</g>
<g id="Pepper_Pot_2">
</g>
<g id="Egg_Timer">
</g>
<g id="Olive_Oil_Pot">
</g>
<g id="Pancake_Griddle">
</g>
<g id="Pan">
</g>
<g id="Kettle">
</g>
<g id="Microwave">
</g>
<g id="Cooker">
</g>
<g id="Meat_Grinder">
</g>
<g id="Coffee_Maker">
</g>
<g id="Household_Mixer">
</g>
<g id="Stand_Mixer">
</g>
<g id="Hand_Blender">
</g>
<g id="Blender">
</g>
<g id="Cooker_Hood">
</g>
<g id="Refrigerator">
</g>
<g id="Freezer">
</g>
<g id="Apron">
</g>
<g id="Oven_Gloves">
</g>
<g id="Rolling_Pin">
</g>
<g id="Sieve">
</g>
<g id="Tea_Sieve">
</g>
<g id="Grater">
</g>
<g id="Knife_Holder">
</g>
<g id="Funnel">
</g>
<g id="Kitchen_Clock">
</g>
<g id="Lemon_Juicer">
</g>
<g id="Pastry_Bag_1">
</g>
<g id="Pastry_Bag_2">
</g>
<g id="Corkscrew">
</g>
<g id="Bottle_Opener">
</g>
<g id="Service">
</g>
<g id="Chopsticks">
</g>
<g id="Hatchet">
</g>
<g id="Filleting_Knife">
</g>
<g id="Bread_Knife">
</g>
<g id="Herb_Knife">
</g>
<g id="Whetting">
</g>
<g id="Cake_Knife">
</g>
<g id="Layer_58">
</g>
<g id="Ladle">
</g>
<g id="Sauce_Spoon">
</g>
<g id="Egg_Beater">
</g>
<g id="Meat_Fork">
</g>
<g id="Kitchen_Spoon_1">
</g>
<g id="Kitchen_Spoon_2">
</g>
<g id="Pizza_Cutter">
</g>
<g id="Potato_Musher">
</g>
<g id="Peeler">
</g>
<g id="Honey_Dipper">
</g>
<g id="Fork">
</g>
<g id="Knife">
</g>
<g id="Spoon">
</g>
<g id="Cutlery_Set">
</g>
<g id="Sugar_Bowl">
</g>
<g id="Matches">
</g>
<g id="Cezve">
</g>
</svg>
