<?xml version="1.0" encoding="iso-8859-1"?>
<!-- Generator: Adobe Illustrator 19.2.1, SVG Export Plug-In . SVG Version: 6.00 Build 0)  -->
<svg version="1.1" xmlns="http://www.w3.org/2000/svg" xmlns:xlink="http://www.w3.org/1999/xlink" x="0px" y="0px"
	 viewBox="0 0 24 24" style="enable-background:new 0 0 24 24;" xml:space="preserve">
<g id="Cutting_Board_1">
</g>
<g id="Cutting_Board_2">
</g>
<g id="Chef_x27_s_Hat_1">
</g>
<g id="Chef_x27_s_Hat_2">
</g>
<g id="Kitchen_Scale">
</g>
<g id="Measuring_Cup">
</g>
<g id="Pot_1">
</g>
<g id="Pot_2">
</g>
<g id="Wok_1">
</g>
<g id="Wok_2">
</g>
<g id="Teapot">
</g>
<g id="Plate">
</g>
<g id="Sauce_Boat">
</g>
<g id="Cauldron">
</g>
<g id="Cookbook">
</g>
<g id="Salt_Pot">
</g>
<g id="Pepper_Pot_1">
</g>
<g id="Pepper_Pot_2">
</g>
<g id="Egg_Timer">
</g>
<g id="Olive_Oil_Pot">
</g>
<g id="Pancake_Griddle">
</g>
<g id="Pan">
</g>
<g id="Kettle">
</g>
<g id="Microwave">
</g>
<g id="Cooker">
</g>
<g id="Meat_Grinder">
</g>
<g id="Coffee_Maker">
</g>
<g id="Household_Mixer">
</g>
<g id="Stand_Mixer">
</g>
<g id="Hand_Blender">
</g>
<g id="Blender">
</g>
<g id="Cooker_Hood">
</g>
<g id="Refrigerator">
</g>
<g id="Freezer">
</g>
<g id="Apron">
</g>
<g id="Oven_Gloves">
</g>
<g id="Rolling_Pin">
</g>
<g id="Sieve">
</g>
<g id="Tea_Sieve">
</g>
<g id="Grater">
</g>
<g id="Knife_Holder">
</g>
<g id="Funnel">
</g>
<g id="Kitchen_Clock">
</g>
<g id="Lemon_Juicer">
</g>
<g id="Pastry_Bag_1">
</g>
<g id="Pastry_Bag_2">
</g>
<g id="Corkscrew">
</g>
<g id="Bottle_Opener">
</g>
<g id="Service">
</g>
<g id="Chopsticks">
</g>
<g id="Hatchet">
</g>
<g id="Filleting_Knife">
</g>
<g id="Bread_Knife">
</g>
<g id="Herb_Knife">
</g>
<g id="Whetting">
</g>
<g id="Cake_Knife">
</g>
<g id="Layer_58">
</g>
<g id="Ladle">
</g>
<g id="Sauce_Spoon">
</g>
<g id="Egg_Beater">
	<g>
		<g>
			<path d="M12,13c-3.19,0-5.5-5.077-5.5-8.5C6.5,0.467,9.639,0,12,0s5.5,0.467,5.5,4.5C17.5,7.923,15.19,13,12,13z M12,1
				C8.804,1,7.5,2.014,7.5,4.5C7.5,7.774,9.683,12,12,12s4.5-4.226,4.5-7.5C16.5,2.014,15.196,1,12,1z"/>
		</g>
		<g>
			<path d="M12,13c-2.298,0-3.5-5.533-3.5-8.5C8.5,1.43,9.612,0,12,0s3.5,1.43,3.5,4.5C15.5,7.467,14.298,13,12,13z M12,1
				c-1.21,0-2.5,0.271-2.5,3.5c0,3.621,1.468,7.5,2.5,7.5s2.5-3.879,2.5-7.5C14.5,1.271,13.21,1,12,1z"/>
		</g>
		<g>
			<path d="M12,13c-0.276,0-0.5-0.224-0.5-0.5v-12C11.5,0.224,11.724,0,12,0s0.5,0.224,0.5,0.5v12C12.5,12.776,12.276,13,12,13z"/>
		</g>
		<g>
			<path d="M12.111,24c-1.396,0-2.533-0.88-2.588-2.003c-0.058-1.173-0.011-2.056,0.139-2.624c0.678-2.581,1.21-5.825,0.674-7.19
				c-0.102-0.257,0.024-0.547,0.282-0.647c0.255-0.105,0.547,0.025,0.647,0.282c0.766,1.944-0.19,6.109-0.637,7.81
				c-0.121,0.463-0.158,1.266-0.107,2.321c0.029,0.58,0.742,1.052,1.59,1.052s1.56-0.472,1.589-1.052
				c0.051-1.056,0.014-1.858-0.107-2.321c-0.445-1.702-1.399-5.869-0.636-7.81c0.101-0.257,0.393-0.388,0.647-0.282
				c0.258,0.101,0.384,0.391,0.282,0.647c-0.535,1.361-0.003,4.607,0.673,7.19c0.149,0.568,0.196,1.451,0.139,2.624
				C14.644,23.12,13.507,24,12.111,24z"/>
		</g>
	</g>
</g>
<g id="Meat_Fork">
</g>
<g id="Kitchen_Spoon_1">
</g>
<g id="Kitchen_Spoon_2">
</g>
<g id="Pizza_Cutter">
</g>
<g id="Potato_Musher">
</g>
<g id="Peeler">
</g>
<g id="Honey_Dipper">
</g>
<g id="Fork">
</g>
<g id="Knife">
</g>
<g id="Spoon">
</g>
<g id="Cutlery_Set">
</g>
<g id="Sugar_Bowl">
</g>
<g id="Matches">
</g>
<g id="Cezve">
</g>
</svg>
