<?xml version="1.0" encoding="iso-8859-1"?>
<!-- Generator: Adobe Illustrator 19.2.1, SVG Export Plug-In . SVG Version: 6.00 Build 0)  -->
<svg version="1.1" xmlns="http://www.w3.org/2000/svg" xmlns:xlink="http://www.w3.org/1999/xlink" x="0px" y="0px"
	 viewBox="0 0 24 24" style="enable-background:new 0 0 24 24;" xml:space="preserve">
<g id="Cutting_Board_1">
</g>
<g id="Cutting_Board_2">
</g>
<g id="Chef_x27_s_Hat_1">
</g>
<g id="Chef_x27_s_Hat_2">
</g>
<g id="Kitchen_Scale">
</g>
<g id="Measuring_Cup">
</g>
<g id="Pot_1">
</g>
<g id="Pot_2">
</g>
<g id="Wok_1">
</g>
<g id="Wok_2">
</g>
<g id="Teapot">
</g>
<g id="Plate">
</g>
<g id="Sauce_Boat">
</g>
<g id="Cauldron">
</g>
<g id="Cookbook">
</g>
<g id="Salt_Pot">
</g>
<g id="Pepper_Pot_1">
</g>
<g id="Pepper_Pot_2">
</g>
<g id="Egg_Timer">
	<g>
		<g>
			<path d="M18.739,24H4.261c-0.14,0-0.272-0.058-0.367-0.161C2.001,21.79,1,18.906,1,15.5C1,8.183,5.49,0,11.5,0S22,8.183,22,15.5
				c0,3.406-1.001,6.29-2.894,8.339C19.012,23.942,18.879,24,18.739,24z M4.483,23h14.033C20.143,21.148,21,18.56,21,15.5
				C21,8.794,16.851,1,11.5,1S2,8.794,2,15.5C2,18.56,2.857,21.148,4.483,23z"/>
		</g>
		<g>
			<path d="M11.5,17C4.532,17,1,16.495,1,15.5C1,15.224,1.224,15,1.5,15c0.191,0,0.356,0.107,0.441,0.265
				C2.574,15.583,6.112,16,11.5,16s8.926-0.417,9.559-0.735C21.144,15.107,21.309,15,21.5,15c0.276,0,0.5,0.224,0.5,0.5
				C22,16.495,18.468,17,11.5,17z"/>
		</g>
		<g>
			<path d="M12.5,20h-2c-0.202,0-0.385-0.122-0.462-0.309s-0.034-0.402,0.108-0.545l1-1c0.195-0.195,0.512-0.195,0.707,0l1,1
				c0.143,0.143,0.186,0.358,0.108,0.545S12.702,20,12.5,20z"/>
		</g>
		<g>
			<path d="M11.5,17c-0.276,0-0.5-0.224-0.5-0.5v-3c0-0.276,0.224-0.5,0.5-0.5s0.5,0.224,0.5,0.5v3C12,16.776,11.776,17,11.5,17z"/>
		</g>
		<g>
			<path d="M13.5,17c-0.276,0-0.5-0.224-0.5-0.5v-2c0-0.276,0.224-0.5,0.5-0.5s0.5,0.224,0.5,0.5v2C14,16.776,13.776,17,13.5,17z"/>
		</g>
		<g>
			<path d="M15.5,16.5c-0.276,0-0.5-0.224-0.5-0.5v-2.5c0-0.276,0.224-0.5,0.5-0.5s0.5,0.224,0.5,0.5V16
				C16,16.276,15.776,16.5,15.5,16.5z"/>
		</g>
		<g>
			<path d="M19.5,16.5c-0.276,0-0.5-0.224-0.5-0.5v-2.5c0-0.276,0.224-0.5,0.5-0.5s0.5,0.224,0.5,0.5V16
				C20,16.276,19.776,16.5,19.5,16.5z"/>
		</g>
		<g>
			<path d="M17.5,16.5c-0.276,0-0.5-0.224-0.5-0.5v-1.5c0-0.276,0.224-0.5,0.5-0.5s0.5,0.224,0.5,0.5V16
				C18,16.276,17.776,16.5,17.5,16.5z"/>
		</g>
		<g>
			<path d="M3.5,16.5C3.224,16.5,3,16.276,3,16v-1.5C3,14.224,3.224,14,3.5,14S4,14.224,4,14.5V16C4,16.276,3.776,16.5,3.5,16.5z"/>
		</g>
		<g>
			<path d="M5.5,16.5C5.224,16.5,5,16.276,5,16v-2.5C5,13.224,5.224,13,5.5,13S6,13.224,6,13.5V16C6,16.276,5.776,16.5,5.5,16.5z"/>
		</g>
		<g>
			<path d="M7.5,16.5C7.224,16.5,7,16.276,7,16v-1.5C7,14.224,7.224,14,7.5,14S8,14.224,8,14.5V16C8,16.276,7.776,16.5,7.5,16.5z"/>
		</g>
		<g>
			<path d="M11.5,12c-0.827,0-1.5-0.673-1.5-1.5v-1C10,8.673,10.673,8,11.5,8S13,8.673,13,9.5v1C13,11.327,12.327,12,11.5,12z
				 M11.5,9C11.225,9,11,9.224,11,9.5v1c0,0.276,0.225,0.5,0.5,0.5s0.5-0.224,0.5-0.5v-1C12,9.224,11.775,9,11.5,9z"/>
		</g>
	</g>
</g>
<g id="Olive_Oil_Pot">
</g>
<g id="Pancake_Griddle">
</g>
<g id="Pan">
</g>
<g id="Kettle">
</g>
<g id="Microwave">
</g>
<g id="Cooker">
</g>
<g id="Meat_Grinder">
</g>
<g id="Coffee_Maker">
</g>
<g id="Household_Mixer">
</g>
<g id="Stand_Mixer">
</g>
<g id="Hand_Blender">
</g>
<g id="Blender">
</g>
<g id="Cooker_Hood">
</g>
<g id="Refrigerator">
</g>
<g id="Freezer">
</g>
<g id="Apron">
</g>
<g id="Oven_Gloves">
</g>
<g id="Rolling_Pin">
</g>
<g id="Sieve">
</g>
<g id="Tea_Sieve">
</g>
<g id="Grater">
</g>
<g id="Knife_Holder">
</g>
<g id="Funnel">
</g>
<g id="Kitchen_Clock">
</g>
<g id="Lemon_Juicer">
</g>
<g id="Pastry_Bag_1">
</g>
<g id="Pastry_Bag_2">
</g>
<g id="Corkscrew">
</g>
<g id="Bottle_Opener">
</g>
<g id="Service">
</g>
<g id="Chopsticks">
</g>
<g id="Hatchet">
</g>
<g id="Filleting_Knife">
</g>
<g id="Bread_Knife">
</g>
<g id="Herb_Knife">
</g>
<g id="Whetting">
</g>
<g id="Cake_Knife">
</g>
<g id="Layer_58">
</g>
<g id="Ladle">
</g>
<g id="Sauce_Spoon">
</g>
<g id="Egg_Beater">
</g>
<g id="Meat_Fork">
</g>
<g id="Kitchen_Spoon_1">
</g>
<g id="Kitchen_Spoon_2">
</g>
<g id="Pizza_Cutter">
</g>
<g id="Potato_Musher">
</g>
<g id="Peeler">
</g>
<g id="Honey_Dipper">
</g>
<g id="Fork">
</g>
<g id="Knife">
</g>
<g id="Spoon">
</g>
<g id="Cutlery_Set">
</g>
<g id="Sugar_Bowl">
</g>
<g id="Matches">
</g>
<g id="Cezve">
</g>
</svg>
