<?xml version="1.0" encoding="iso-8859-1"?>
<!-- Generator: Adobe Illustrator 19.2.1, SVG Export Plug-In . SVG Version: 6.00 Build 0)  -->
<svg version="1.1" xmlns="http://www.w3.org/2000/svg" xmlns:xlink="http://www.w3.org/1999/xlink" x="0px" y="0px"
	 viewBox="0 0 24 24" style="enable-background:new 0 0 24 24;" xml:space="preserve">
<g id="Cutting_Board_1">
</g>
<g id="Cutting_Board_2">
</g>
<g id="Chef_x27_s_Hat_1">
</g>
<g id="Chef_x27_s_Hat_2">
</g>
<g id="Kitchen_Scale">
</g>
<g id="Measuring_Cup">
</g>
<g id="Pot_1">
</g>
<g id="Pot_2">
</g>
<g id="Wok_1">
</g>
<g id="Wok_2">
</g>
<g id="Teapot">
</g>
<g id="Plate">
</g>
<g id="Sauce_Boat">
</g>
<g id="Cauldron">
</g>
<g id="Cookbook">
</g>
<g id="Salt_Pot">
</g>
<g id="Pepper_Pot_1">
</g>
<g id="Pepper_Pot_2">
</g>
<g id="Egg_Timer">
</g>
<g id="Olive_Oil_Pot">
</g>
<g id="Pancake_Griddle">
</g>
<g id="Pan">
</g>
<g id="Kettle">
</g>
<g id="Microwave">
</g>
<g id="Cooker">
</g>
<g id="Meat_Grinder">
</g>
<g id="Coffee_Maker">
</g>
<g id="Household_Mixer">
</g>
<g id="Stand_Mixer">
</g>
<g id="Hand_Blender">
</g>
<g id="Blender">
</g>
<g id="Cooker_Hood">
</g>
<g id="Refrigerator">
</g>
<g id="Freezer">
</g>
<g id="Apron">
</g>
<g id="Oven_Gloves">
</g>
<g id="Rolling_Pin">
</g>
<g id="Sieve">
</g>
<g id="Tea_Sieve">
</g>
<g id="Grater">
</g>
<g id="Knife_Holder">
</g>
<g id="Funnel">
</g>
<g id="Kitchen_Clock">
</g>
<g id="Lemon_Juicer">
</g>
<g id="Pastry_Bag_1">
</g>
<g id="Pastry_Bag_2">
</g>
<g id="Corkscrew">
</g>
<g id="Bottle_Opener">
</g>
<g id="Service">
</g>
<g id="Chopsticks">
</g>
<g id="Hatchet">
</g>
<g id="Filleting_Knife">
	<g>
		<g>
			<path d="M15.437,12.597c-0.114,0-0.225-0.039-0.314-0.111l-3.108-2.518c-0.21-0.17-0.247-0.477-0.083-0.692l6.229-8.159
				c0.513-0.634,1.23-1.022,2.027-1.106c0.801-0.086,1.579,0.148,2.202,0.652c0.623,0.505,1.012,1.221,1.095,2.019
				c0.084,0.796-0.148,1.578-0.652,2.2c-0.537,0.663-1.315,1.055-2.166,1.099l-4.829,6.418c-0.082,0.108-0.204,0.179-0.338,0.195
				C15.478,12.596,15.458,12.597,15.437,12.597z M13.021,9.496l2.328,1.886l4.666-6.2c0.098-0.13,0.25-0.189,0.416-0.199
				c0.634,0.025,1.23-0.244,1.624-0.73c0.336-0.415,0.491-0.937,0.435-1.468c-0.056-0.531-0.315-1.009-0.73-1.345
				s-0.935-0.488-1.468-0.436c-0.531,0.056-1.009,0.315-1.345,0.73L13.021,9.496z"/>
		</g>
		<g>
			<path d="M20.498,3.993c-0.228,0-0.448-0.077-0.627-0.223c-0.428-0.348-0.495-0.978-0.148-1.406
				c0.168-0.208,0.407-0.338,0.673-0.365c0.262-0.029,0.526,0.049,0.733,0.217s0.337,0.407,0.365,0.674
				c0.028,0.266-0.05,0.526-0.218,0.733c-0.167,0.207-0.406,0.337-0.672,0.364C20.569,3.991,20.533,3.993,20.498,3.993z
				 M20.111,2.679L20.5,2.993l0,0c0,0,0,0,0.001,0L20.111,2.679z"/>
		</g>
		<g>
			<path d="M1.568,24.008c-0.345,0-0.567-0.014-0.6-0.016c-0.212-0.014-0.393-0.16-0.45-0.365c-0.057-0.206,0.023-0.425,0.199-0.546
				c0.015-0.011,1.55-1.078,3.115-3.011c1.621-2.002,3.518-4.602,5.19-6.895c1.213-1.663,2.26-3.1,2.917-3.911
				c0.173-0.214,0.489-0.249,0.703-0.074c0.215,0.174,0.248,0.488,0.074,0.703c-0.641,0.792-1.682,2.219-2.887,3.871
				c-1.68,2.303-3.584,4.913-5.221,6.935c-0.792,0.979-1.569,1.741-2.173,2.277c0.891-0.06,2.027-0.229,2.859-0.681
				c1.565-0.85,7.217-6.437,9.303-10.732c0.12-0.248,0.419-0.353,0.668-0.231c0.249,0.121,0.352,0.42,0.231,0.669
				c-2.206,4.542-8.033,10.256-9.726,11.174C4.427,23.905,2.526,24.008,1.568,24.008z"/>
		</g>
	</g>
</g>
<g id="Bread_Knife">
</g>
<g id="Herb_Knife">
</g>
<g id="Whetting">
</g>
<g id="Cake_Knife">
</g>
<g id="Layer_58">
</g>
<g id="Ladle">
</g>
<g id="Sauce_Spoon">
</g>
<g id="Egg_Beater">
</g>
<g id="Meat_Fork">
</g>
<g id="Kitchen_Spoon_1">
</g>
<g id="Kitchen_Spoon_2">
</g>
<g id="Pizza_Cutter">
</g>
<g id="Potato_Musher">
</g>
<g id="Peeler">
</g>
<g id="Honey_Dipper">
</g>
<g id="Fork">
</g>
<g id="Knife">
</g>
<g id="Spoon">
</g>
<g id="Cutlery_Set">
</g>
<g id="Sugar_Bowl">
</g>
<g id="Matches">
</g>
<g id="Cezve">
</g>
</svg>
