<?xml version="1.0" encoding="iso-8859-1"?>
<!-- Generator: Adobe Illustrator 19.2.1, SVG Export Plug-In . SVG Version: 6.00 Build 0)  -->
<svg version="1.1" xmlns="http://www.w3.org/2000/svg" xmlns:xlink="http://www.w3.org/1999/xlink" x="0px" y="0px"
	 viewBox="0 0 24 24" style="enable-background:new 0 0 24 24;" xml:space="preserve">
<g id="Cutting_Board_1">
</g>
<g id="Cutting_Board_2">
</g>
<g id="Chef_x27_s_Hat_1">
</g>
<g id="Chef_x27_s_Hat_2">
</g>
<g id="Kitchen_Scale">
</g>
<g id="Measuring_Cup">
</g>
<g id="Pot_1">
</g>
<g id="Pot_2">
</g>
<g id="Wok_1">
</g>
<g id="Wok_2">
</g>
<g id="Teapot">
</g>
<g id="Plate">
</g>
<g id="Sauce_Boat">
</g>
<g id="Cauldron">
</g>
<g id="Cookbook">
</g>
<g id="Salt_Pot">
</g>
<g id="Pepper_Pot_1">
</g>
<g id="Pepper_Pot_2">
</g>
<g id="Egg_Timer">
</g>
<g id="Olive_Oil_Pot">
</g>
<g id="Pancake_Griddle">
</g>
<g id="Pan">
</g>
<g id="Kettle">
</g>
<g id="Microwave">
</g>
<g id="Cooker">
</g>
<g id="Meat_Grinder">
</g>
<g id="Coffee_Maker">
</g>
<g id="Household_Mixer">
</g>
<g id="Stand_Mixer">
</g>
<g id="Hand_Blender">
</g>
<g id="Blender">
</g>
<g id="Cooker_Hood">
</g>
<g id="Refrigerator">
</g>
<g id="Freezer">
</g>
<g id="Apron">
</g>
<g id="Oven_Gloves">
</g>
<g id="Rolling_Pin">
</g>
<g id="Sieve">
</g>
<g id="Tea_Sieve">
</g>
<g id="Grater">
</g>
<g id="Knife_Holder">
</g>
<g id="Funnel">
	<g>
		<g>
			<path d="M9.617,24c-0.077,0-0.154-0.018-0.225-0.054c-0.161-0.08-0.266-0.241-0.275-0.421l-0.47-9.173
				C8.428,11.946,7.118,9.729,4.96,8.128C2.554,6.344,1.117,3.492,1.117,0.5c0-0.276,0.224-0.5,0.5-0.5h18
				c0.276,0,0.5,0.224,0.5,0.5c0,2.831-1.252,5.494-3.437,7.306c-1.794,1.487-2.911,3.521-3.143,5.726l-0.421,7.995
				c-0.008,0.157-0.091,0.302-0.222,0.39l-3,2C9.811,23.972,9.714,24,9.617,24z M2.131,1c0.144,2.521,1.375,4.805,3.425,6.325
				c2.39,1.772,3.842,4.243,4.088,6.957l0.426,8.314l2.06-1.374l0.41-7.771c0.262-2.491,1.504-4.761,3.501-6.416
				C17.867,5.522,18.965,3.344,19.102,1H2.131z"/>
		</g>
		<g>
			<path d="M6.449,6.621c-0.104,0-0.208-0.032-0.297-0.099C4.827,5.54,3.884,4.198,3.424,2.642C3.346,2.377,3.497,2.099,3.762,2.021
				c0.267-0.077,0.543,0.072,0.621,0.338C4.781,3.705,5.599,4.867,6.748,5.72c0.222,0.164,0.268,0.478,0.104,0.699
				C6.753,6.551,6.602,6.621,6.449,6.621z"/>
		</g>
		<g>
			<path d="M20.381,6h-1.764c-0.276,0-0.5-0.224-0.5-0.5S18.34,5,18.617,5h1.764c0.572,0,1.085-0.317,1.341-0.829
				c0.234-0.469,0.21-1.015-0.065-1.46S20.904,2,20.381,2h-0.764c-0.276,0-0.5-0.224-0.5-0.5S19.34,1,19.617,1h0.764
				c0.873,0,1.667,0.443,2.126,1.186s0.5,1.651,0.109,2.433C22.19,5.471,21.334,6,20.381,6z"/>
		</g>
	</g>
</g>
<g id="Kitchen_Clock">
</g>
<g id="Lemon_Juicer">
</g>
<g id="Pastry_Bag_1">
</g>
<g id="Pastry_Bag_2">
</g>
<g id="Corkscrew">
</g>
<g id="Bottle_Opener">
</g>
<g id="Service">
</g>
<g id="Chopsticks">
</g>
<g id="Hatchet">
</g>
<g id="Filleting_Knife">
</g>
<g id="Bread_Knife">
</g>
<g id="Herb_Knife">
</g>
<g id="Whetting">
</g>
<g id="Cake_Knife">
</g>
<g id="Layer_58">
</g>
<g id="Ladle">
</g>
<g id="Sauce_Spoon">
</g>
<g id="Egg_Beater">
</g>
<g id="Meat_Fork">
</g>
<g id="Kitchen_Spoon_1">
</g>
<g id="Kitchen_Spoon_2">
</g>
<g id="Pizza_Cutter">
</g>
<g id="Potato_Musher">
</g>
<g id="Peeler">
</g>
<g id="Honey_Dipper">
</g>
<g id="Fork">
</g>
<g id="Knife">
</g>
<g id="Spoon">
</g>
<g id="Cutlery_Set">
</g>
<g id="Sugar_Bowl">
</g>
<g id="Matches">
</g>
<g id="Cezve">
</g>
</svg>
