<?xml version="1.0" encoding="iso-8859-1"?>
<!-- Generator: Adobe Illustrator 19.2.1, SVG Export Plug-In . SVG Version: 6.00 Build 0)  -->
<svg version="1.1" xmlns="http://www.w3.org/2000/svg" xmlns:xlink="http://www.w3.org/1999/xlink" x="0px" y="0px"
	 viewBox="0 0 24 24" style="enable-background:new 0 0 24 24;" xml:space="preserve">
<g id="Cutting_Board_1">
</g>
<g id="Cutting_Board_2">
</g>
<g id="Chef_x27_s_Hat_1">
</g>
<g id="Chef_x27_s_Hat_2">
</g>
<g id="Kitchen_Scale">
</g>
<g id="Measuring_Cup">
</g>
<g id="Pot_1">
</g>
<g id="Pot_2">
</g>
<g id="Wok_1">
</g>
<g id="Wok_2">
</g>
<g id="Teapot">
</g>
<g id="Plate">
</g>
<g id="Sauce_Boat">
</g>
<g id="Cauldron">
</g>
<g id="Cookbook">
</g>
<g id="Salt_Pot">
</g>
<g id="Pepper_Pot_1">
</g>
<g id="Pepper_Pot_2">
</g>
<g id="Egg_Timer">
</g>
<g id="Olive_Oil_Pot">
</g>
<g id="Pancake_Griddle">
</g>
<g id="Pan">
</g>
<g id="Kettle">
</g>
<g id="Microwave">
</g>
<g id="Cooker">
</g>
<g id="Meat_Grinder">
</g>
<g id="Coffee_Maker">
</g>
<g id="Household_Mixer">
</g>
<g id="Stand_Mixer">
</g>
<g id="Hand_Blender">
</g>
<g id="Blender">
</g>
<g id="Cooker_Hood">
</g>
<g id="Refrigerator">
</g>
<g id="Freezer">
</g>
<g id="Apron">
</g>
<g id="Oven_Gloves">
</g>
<g id="Rolling_Pin">
</g>
<g id="Sieve">
</g>
<g id="Tea_Sieve">
</g>
<g id="Grater">
	<g>
		<g>
			<path d="M20.5,24h-16c-0.138,0-0.27-0.057-0.364-0.158s-0.144-0.236-0.135-0.374l1-16C5.018,7.205,5.236,7,5.5,7h14
				c0.264,0,0.482,0.205,0.499,0.469l1,16c0.009,0.138-0.04,0.273-0.135,0.374S20.638,24,20.5,24z M5.032,23h14.936L19.03,8H5.97
				L5.032,23z"/>
		</g>
		<g>
			<path d="M19.5,8h-14C5.224,8,5,7.776,5,7.5C5,3.364,8.364,0,12.5,0S20,3.364,20,7.5C20,7.776,19.776,8,19.5,8z M6.019,7h12.963
				c-0.257-3.352-3.065-6-6.481-6S6.275,3.648,6.019,7z"/>
		</g>
		<g>
			<path d="M8.5,11C7.673,11,7,10.327,7,9.5C7,9.224,7.224,9,7.5,9S8,9.224,8,9.5C8,9.776,8.225,10,8.5,10S9,9.776,9,9.5
				C9,9.224,9.224,9,9.5,9S10,9.224,10,9.5C10,10.327,9.327,11,8.5,11z"/>
		</g>
		<g>
			<path d="M12.5,11c-0.827,0-1.5-0.673-1.5-1.5C11,9.224,11.224,9,11.5,9S12,9.224,12,9.5c0,0.276,0.225,0.5,0.5,0.5
				S13,9.776,13,9.5C13,9.224,13.224,9,13.5,9S14,9.224,14,9.5C14,10.327,13.327,11,12.5,11z"/>
		</g>
		<g>
			<path d="M16.5,11c-0.827,0-1.5-0.673-1.5-1.5C15,9.224,15.224,9,15.5,9S16,9.224,16,9.5c0,0.276,0.225,0.5,0.5,0.5
				S17,9.776,17,9.5C17,9.224,17.224,9,17.5,9S18,9.224,18,9.5C18,10.327,17.327,11,16.5,11z"/>
		</g>
		<g>
			<path d="M8.5,14C7.673,14,7,13.327,7,12.5C7,12.224,7.224,12,7.5,12S8,12.224,8,12.5C8,12.776,8.225,13,8.5,13S9,12.776,9,12.5
				C9,12.224,9.224,12,9.5,12s0.5,0.224,0.5,0.5C10,13.327,9.327,14,8.5,14z"/>
		</g>
		<g>
			<path d="M12.5,14c-0.827,0-1.5-0.673-1.5-1.5c0-0.276,0.224-0.5,0.5-0.5s0.5,0.224,0.5,0.5c0,0.276,0.225,0.5,0.5,0.5
				s0.5-0.224,0.5-0.5c0-0.276,0.224-0.5,0.5-0.5s0.5,0.224,0.5,0.5C14,13.327,13.327,14,12.5,14z"/>
		</g>
		<g>
			<path d="M16.5,14c-0.827,0-1.5-0.673-1.5-1.5c0-0.276,0.224-0.5,0.5-0.5s0.5,0.224,0.5,0.5c0,0.276,0.225,0.5,0.5,0.5
				s0.5-0.224,0.5-0.5c0-0.276,0.224-0.5,0.5-0.5s0.5,0.224,0.5,0.5C18,13.327,17.327,14,16.5,14z"/>
		</g>
		<g>
			<path d="M8.5,17C7.673,17,7,16.327,7,15.5C7,15.224,7.224,15,7.5,15S8,15.224,8,15.5C8,15.776,8.225,16,8.5,16S9,15.776,9,15.5
				C9,15.224,9.224,15,9.5,15s0.5,0.224,0.5,0.5C10,16.327,9.327,17,8.5,17z"/>
		</g>
		<g>
			<path d="M12.5,17c-0.827,0-1.5-0.673-1.5-1.5c0-0.276,0.224-0.5,0.5-0.5s0.5,0.224,0.5,0.5c0,0.276,0.225,0.5,0.5,0.5
				s0.5-0.224,0.5-0.5c0-0.276,0.224-0.5,0.5-0.5s0.5,0.224,0.5,0.5C14,16.327,13.327,17,12.5,17z"/>
		</g>
		<g>
			<path d="M16.5,17c-0.827,0-1.5-0.673-1.5-1.5c0-0.276,0.224-0.5,0.5-0.5s0.5,0.224,0.5,0.5c0,0.276,0.225,0.5,0.5,0.5
				s0.5-0.224,0.5-0.5c0-0.276,0.224-0.5,0.5-0.5s0.5,0.224,0.5,0.5C18,16.327,17.327,17,16.5,17z"/>
		</g>
		<g>
			<path d="M8.5,20C7.673,20,7,19.327,7,18.5C7,18.224,7.224,18,7.5,18S8,18.224,8,18.5C8,18.776,8.225,19,8.5,19S9,18.776,9,18.5
				C9,18.224,9.224,18,9.5,18s0.5,0.224,0.5,0.5C10,19.327,9.327,20,8.5,20z"/>
		</g>
		<g>
			<path d="M12.5,20c-0.827,0-1.5-0.673-1.5-1.5c0-0.276,0.224-0.5,0.5-0.5s0.5,0.224,0.5,0.5c0,0.276,0.225,0.5,0.5,0.5
				s0.5-0.224,0.5-0.5c0-0.276,0.224-0.5,0.5-0.5s0.5,0.224,0.5,0.5C14,19.327,13.327,20,12.5,20z"/>
		</g>
		<g>
			<path d="M16.5,20c-0.827,0-1.5-0.673-1.5-1.5c0-0.276,0.224-0.5,0.5-0.5s0.5,0.224,0.5,0.5c0,0.276,0.225,0.5,0.5,0.5
				s0.5-0.224,0.5-0.5c0-0.276,0.224-0.5,0.5-0.5s0.5,0.224,0.5,0.5C18,19.327,17.327,20,16.5,20z"/>
		</g>
		<g>
			<path d="M17.5,22h-10C7.224,22,7,21.776,7,21.5S7.224,21,7.5,21h10c0.276,0,0.5,0.224,0.5,0.5S17.776,22,17.5,22z"/>
		</g>
	</g>
</g>
<g id="Knife_Holder">
</g>
<g id="Funnel">
</g>
<g id="Kitchen_Clock">
</g>
<g id="Lemon_Juicer">
</g>
<g id="Pastry_Bag_1">
</g>
<g id="Pastry_Bag_2">
</g>
<g id="Corkscrew">
</g>
<g id="Bottle_Opener">
</g>
<g id="Service">
</g>
<g id="Chopsticks">
</g>
<g id="Hatchet">
</g>
<g id="Filleting_Knife">
</g>
<g id="Bread_Knife">
</g>
<g id="Herb_Knife">
</g>
<g id="Whetting">
</g>
<g id="Cake_Knife">
</g>
<g id="Layer_58">
</g>
<g id="Ladle">
</g>
<g id="Sauce_Spoon">
</g>
<g id="Egg_Beater">
</g>
<g id="Meat_Fork">
</g>
<g id="Kitchen_Spoon_1">
</g>
<g id="Kitchen_Spoon_2">
</g>
<g id="Pizza_Cutter">
</g>
<g id="Potato_Musher">
</g>
<g id="Peeler">
</g>
<g id="Honey_Dipper">
</g>
<g id="Fork">
</g>
<g id="Knife">
</g>
<g id="Spoon">
</g>
<g id="Cutlery_Set">
</g>
<g id="Sugar_Bowl">
</g>
<g id="Matches">
</g>
<g id="Cezve">
</g>
</svg>
