<?xml version="1.0" encoding="iso-8859-1"?>
<!-- Generator: Adobe Illustrator 19.2.1, SVG Export Plug-In . SVG Version: 6.00 Build 0)  -->
<svg version="1.1" xmlns="http://www.w3.org/2000/svg" xmlns:xlink="http://www.w3.org/1999/xlink" x="0px" y="0px"
	 viewBox="0 0 24 24" style="enable-background:new 0 0 24 24;" xml:space="preserve">
<g id="Cutting_Board_1">
</g>
<g id="Cutting_Board_2">
</g>
<g id="Chef_x27_s_Hat_1">
</g>
<g id="Chef_x27_s_Hat_2">
</g>
<g id="Kitchen_Scale">
</g>
<g id="Measuring_Cup">
</g>
<g id="Pot_1">
</g>
<g id="Pot_2">
</g>
<g id="Wok_1">
</g>
<g id="Wok_2">
</g>
<g id="Teapot">
</g>
<g id="Plate">
</g>
<g id="Sauce_Boat">
</g>
<g id="Cauldron">
</g>
<g id="Cookbook">
</g>
<g id="Salt_Pot">
</g>
<g id="Pepper_Pot_1">
</g>
<g id="Pepper_Pot_2">
</g>
<g id="Egg_Timer">
</g>
<g id="Olive_Oil_Pot">
</g>
<g id="Pancake_Griddle">
</g>
<g id="Pan">
</g>
<g id="Kettle">
</g>
<g id="Microwave">
</g>
<g id="Cooker">
</g>
<g id="Meat_Grinder">
</g>
<g id="Coffee_Maker">
</g>
<g id="Household_Mixer">
</g>
<g id="Stand_Mixer">
</g>
<g id="Hand_Blender">
	<g>
		<g>
			<path d="M10.5,7C10.224,7,10,6.776,10,6.5v-4C10,2.224,10.224,2,10.5,2S11,2.224,11,2.5v4C11,6.776,10.776,7,10.5,7z"/>
		</g>
		<g>
			<circle cx="10.5" cy="9.5" r="0.5"/>
		</g>
		<g>
			<path d="M11,14h-1c-0.229,0-0.43-0.156-0.485-0.379l-0.5-2c-0.037-0.149-0.004-0.308,0.091-0.429C9.2,11.071,9.346,11,9.5,11h2
				c0.154,0,0.3,0.071,0.395,0.192c0.095,0.121,0.128,0.279,0.091,0.429l-0.5,2C11.43,13.844,11.229,14,11,14z M10.391,13h0.219
				l0.25-1h-0.719L10.391,13z"/>
		</g>
		<g>
			<path d="M10.5,21c-0.276,0-0.5-0.224-0.5-0.5v-7c0-0.276,0.224-0.5,0.5-0.5s0.5,0.224,0.5,0.5v7C11,20.776,10.776,21,10.5,21z"/>
		</g>
		<g>
			<path d="M13.5,24c-0.276,0-0.5-0.224-0.5-0.5c0-0.199-0.398-0.5-1-0.5c-0.61,0-1,0.296-1,0.5c0,0.276-0.224,0.5-0.5,0.5
				S10,23.776,10,23.5c0-0.199-0.398-0.5-1-0.5c-0.61,0-1,0.296-1,0.5C8,23.776,7.776,24,7.5,24S7,23.776,7,23.5
				c0-1.93,1.57-3.5,3.5-3.5s3.5,1.57,3.5,3.5C14,23.776,13.776,24,13.5,24z M9,22c0.604,0,1.137,0.191,1.5,0.498
				c0.476-0.401,1.318-0.591,2.037-0.445C12.084,21.416,11.34,21,10.5,21s-1.584,0.416-2.037,1.053C8.633,22.018,8.813,22,9,22z"/>
		</g>
		<g>
			<path d="M11.636,12H9.363c-0.701,0-1.374-0.297-1.847-0.814S6.81,9.971,6.873,9.273l0.637-7C7.628,0.978,8.698,0,10,0h1
				c1.301,0,2.371,0.978,2.489,2.273l0.637,7c0.063,0.698-0.171,1.395-0.644,1.912S12.337,12,11.636,12z M10,1
				C9.219,1,8.576,1.586,8.506,2.364l-0.637,7c-0.039,0.425,0.099,0.832,0.386,1.147C8.543,10.827,8.937,11,9.363,11h2.272
				c0.427,0,0.82-0.173,1.108-0.489c0.287-0.315,0.425-0.722,0.386-1.147l-0.637-7C12.423,1.586,11.78,1,11,1H10z"/>
		</g>
	</g>
</g>
<g id="Blender">
</g>
<g id="Cooker_Hood">
</g>
<g id="Refrigerator">
</g>
<g id="Freezer">
</g>
<g id="Apron">
</g>
<g id="Oven_Gloves">
</g>
<g id="Rolling_Pin">
</g>
<g id="Sieve">
</g>
<g id="Tea_Sieve">
</g>
<g id="Grater">
</g>
<g id="Knife_Holder">
</g>
<g id="Funnel">
</g>
<g id="Kitchen_Clock">
</g>
<g id="Lemon_Juicer">
</g>
<g id="Pastry_Bag_1">
</g>
<g id="Pastry_Bag_2">
</g>
<g id="Corkscrew">
</g>
<g id="Bottle_Opener">
</g>
<g id="Service">
</g>
<g id="Chopsticks">
</g>
<g id="Hatchet">
</g>
<g id="Filleting_Knife">
</g>
<g id="Bread_Knife">
</g>
<g id="Herb_Knife">
</g>
<g id="Whetting">
</g>
<g id="Cake_Knife">
</g>
<g id="Layer_58">
</g>
<g id="Ladle">
</g>
<g id="Sauce_Spoon">
</g>
<g id="Egg_Beater">
</g>
<g id="Meat_Fork">
</g>
<g id="Kitchen_Spoon_1">
</g>
<g id="Kitchen_Spoon_2">
</g>
<g id="Pizza_Cutter">
</g>
<g id="Potato_Musher">
</g>
<g id="Peeler">
</g>
<g id="Honey_Dipper">
</g>
<g id="Fork">
</g>
<g id="Knife">
</g>
<g id="Spoon">
</g>
<g id="Cutlery_Set">
</g>
<g id="Sugar_Bowl">
</g>
<g id="Matches">
</g>
<g id="Cezve">
</g>
</svg>
