<?xml version="1.0" encoding="iso-8859-1"?>
<!-- Generator: Adobe Illustrator 19.2.1, SVG Export Plug-In . SVG Version: 6.00 Build 0)  -->
<svg version="1.1" xmlns="http://www.w3.org/2000/svg" xmlns:xlink="http://www.w3.org/1999/xlink" x="0px" y="0px"
	 viewBox="0 0 24 24" style="enable-background:new 0 0 24 24;" xml:space="preserve">
<g id="Cutting_Board_1">
</g>
<g id="Cutting_Board_2">
</g>
<g id="Chef_x27_s_Hat_1">
</g>
<g id="Chef_x27_s_Hat_2">
</g>
<g id="Kitchen_Scale">
</g>
<g id="Measuring_Cup">
</g>
<g id="Pot_1">
</g>
<g id="Pot_2">
</g>
<g id="Wok_1">
</g>
<g id="Wok_2">
</g>
<g id="Teapot">
</g>
<g id="Plate">
</g>
<g id="Sauce_Boat">
</g>
<g id="Cauldron">
</g>
<g id="Cookbook">
</g>
<g id="Salt_Pot">
</g>
<g id="Pepper_Pot_1">
</g>
<g id="Pepper_Pot_2">
</g>
<g id="Egg_Timer">
</g>
<g id="Olive_Oil_Pot">
</g>
<g id="Pancake_Griddle">
</g>
<g id="Pan">
</g>
<g id="Kettle">
</g>
<g id="Microwave">
</g>
<g id="Cooker">
</g>
<g id="Meat_Grinder">
</g>
<g id="Coffee_Maker">
</g>
<g id="Household_Mixer">
</g>
<g id="Stand_Mixer">
</g>
<g id="Hand_Blender">
</g>
<g id="Blender">
</g>
<g id="Cooker_Hood">
</g>
<g id="Refrigerator">
</g>
<g id="Freezer">
</g>
<g id="Apron">
</g>
<g id="Oven_Gloves">
</g>
<g id="Rolling_Pin">
</g>
<g id="Sieve">
</g>
<g id="Tea_Sieve">
</g>
<g id="Grater">
</g>
<g id="Knife_Holder">
</g>
<g id="Funnel">
</g>
<g id="Kitchen_Clock">
</g>
<g id="Lemon_Juicer">
</g>
<g id="Pastry_Bag_1">
</g>
<g id="Pastry_Bag_2">
</g>
<g id="Corkscrew">
</g>
<g id="Bottle_Opener">
</g>
<g id="Service">
</g>
<g id="Chopsticks">
</g>
<g id="Hatchet">
	<g>
		<g>
			<path d="M14.667,10.377c-0.128,0-0.256-0.049-0.354-0.146l-2.829-2.828c-0.094-0.094-0.146-0.221-0.146-0.354
				s0.053-0.26,0.146-0.354l5.816-5.816c1.17-1.17,3.073-1.17,4.243,0c1.169,1.17,1.169,3.072,0,4.242
				c-0.606,0.606-1.428,0.911-2.28,0.866l-4.244,4.243C14.923,10.328,14.795,10.377,14.667,10.377z M12.546,7.049l2.122,2.121
				l4.057-4.057c0.111-0.11,0.271-0.159,0.422-0.142c0.63,0.089,1.248-0.115,1.691-0.558c0.779-0.779,0.779-2.049,0-2.828
				c-0.781-0.78-2.049-0.778-2.829,0L12.546,7.049z"/>
		</g>
		<g>
			<path d="M19.423,4c-0.256,0-0.512-0.098-0.707-0.293c-0.389-0.39-0.389-1.024,0-1.414h0c0.39-0.392,1.025-0.39,1.415,0
				s0.389,1.024,0,1.414C19.936,3.902,19.679,4,19.423,4z M19.423,3.001h0.01H19.423z"/>
		</g>
		<g>
			<path d="M5.122,18.55c-0.256,0-0.513-0.098-0.708-0.293c-0.188-0.188-0.292-0.438-0.293-0.705c0-0.269,0.104-0.52,0.293-0.709
				c0.39-0.391,1.025-0.391,1.415,0c0.189,0.189,0.292,0.44,0.292,0.707c0,0.268-0.104,0.519-0.293,0.707
				C5.633,18.452,5.377,18.55,5.122,18.55z M5.121,17.551h0.01H5.121z"/>
		</g>
		<g>
			<path d="M7.948,23.999c-0.384,0-0.767-0.146-1.059-0.438l-4.95-4.949c-0.585-0.585-0.585-1.537,0-2.122L11.481,6.7
				c0.193-0.198,0.51-0.202,0.707-0.01c0.198,0.193,0.202,0.51,0.009,0.707l-9.546,9.794c-0.2,0.2-0.2,0.518-0.004,0.713l4.95,4.949
				c0.195,0.195,0.512,0.195,0.707,0l8.834-9.082c0.1-0.1,0.151-0.226,0.151-0.359c0-0.133-0.052-0.258-0.146-0.353l-2.829-2.829
				c-0.195-0.195-0.195-0.512,0-0.707s0.512-0.195,0.707,0l2.828,2.829c0.283,0.282,0.439,0.658,0.439,1.06
				c0,0.4-0.156,0.778-0.439,1.062l-8.834,9.082C8.72,23.852,8.333,23.999,7.948,23.999z"/>
		</g>
		<g>
			<path d="M6.536,23c-0.126,0-0.252-0.047-0.349-0.143c-0.198-0.192-0.202-0.509-0.009-0.707l10.253-10.502
				c0.194-0.195,0.51-0.201,0.707-0.008c0.198,0.192,0.202,0.509,0.009,0.707L6.894,22.85C6.795,22.949,6.666,23,6.536,23z"/>
		</g>
	</g>
</g>
<g id="Filleting_Knife">
</g>
<g id="Bread_Knife">
</g>
<g id="Herb_Knife">
</g>
<g id="Whetting">
</g>
<g id="Cake_Knife">
</g>
<g id="Layer_58">
</g>
<g id="Ladle">
</g>
<g id="Sauce_Spoon">
</g>
<g id="Egg_Beater">
</g>
<g id="Meat_Fork">
</g>
<g id="Kitchen_Spoon_1">
</g>
<g id="Kitchen_Spoon_2">
</g>
<g id="Pizza_Cutter">
</g>
<g id="Potato_Musher">
</g>
<g id="Peeler">
</g>
<g id="Honey_Dipper">
</g>
<g id="Fork">
</g>
<g id="Knife">
</g>
<g id="Spoon">
</g>
<g id="Cutlery_Set">
</g>
<g id="Sugar_Bowl">
</g>
<g id="Matches">
</g>
<g id="Cezve">
</g>
</svg>
