<?xml version="1.0" encoding="iso-8859-1"?>
<!-- Generator: Adobe Illustrator 19.2.1, SVG Export Plug-In . SVG Version: 6.00 Build 0)  -->
<svg version="1.1" xmlns="http://www.w3.org/2000/svg" xmlns:xlink="http://www.w3.org/1999/xlink" x="0px" y="0px"
	 viewBox="0 0 24 24" style="enable-background:new 0 0 24 24;" xml:space="preserve">
<g id="Cutting_Board_1">
</g>
<g id="Cutting_Board_2">
</g>
<g id="Chef_x27_s_Hat_1">
</g>
<g id="Chef_x27_s_Hat_2">
</g>
<g id="Kitchen_Scale">
</g>
<g id="Measuring_Cup">
</g>
<g id="Pot_1">
</g>
<g id="Pot_2">
</g>
<g id="Wok_1">
</g>
<g id="Wok_2">
</g>
<g id="Teapot">
</g>
<g id="Plate">
</g>
<g id="Sauce_Boat">
</g>
<g id="Cauldron">
</g>
<g id="Cookbook">
</g>
<g id="Salt_Pot">
</g>
<g id="Pepper_Pot_1">
</g>
<g id="Pepper_Pot_2">
</g>
<g id="Egg_Timer">
</g>
<g id="Olive_Oil_Pot">
</g>
<g id="Pancake_Griddle">
</g>
<g id="Pan">
</g>
<g id="Kettle">
</g>
<g id="Microwave">
</g>
<g id="Cooker">
</g>
<g id="Meat_Grinder">
</g>
<g id="Coffee_Maker">
</g>
<g id="Household_Mixer">
</g>
<g id="Stand_Mixer">
</g>
<g id="Hand_Blender">
</g>
<g id="Blender">
</g>
<g id="Cooker_Hood">
</g>
<g id="Refrigerator">
</g>
<g id="Freezer">
</g>
<g id="Apron">
</g>
<g id="Oven_Gloves">
</g>
<g id="Rolling_Pin">
</g>
<g id="Sieve">
</g>
<g id="Tea_Sieve">
</g>
<g id="Grater">
</g>
<g id="Knife_Holder">
</g>
<g id="Funnel">
</g>
<g id="Kitchen_Clock">
</g>
<g id="Lemon_Juicer">
</g>
<g id="Pastry_Bag_1">
</g>
<g id="Pastry_Bag_2">
</g>
<g id="Corkscrew">
</g>
<g id="Bottle_Opener">
</g>
<g id="Service">
</g>
<g id="Chopsticks">
</g>
<g id="Hatchet">
</g>
<g id="Filleting_Knife">
</g>
<g id="Bread_Knife">
</g>
<g id="Herb_Knife">
	<g>
		<g>
			<path d="M5.026,12H3c-0.143,0-0.279-0.062-0.375-0.169c-0.095-0.106-0.139-0.25-0.122-0.392c0.099-0.811-0.137-1.699-0.411-2.729
				C1.844,7.773,1.562,6.712,1.5,5.525C1.5,4.645,2.575,4,4,4c1.319,0,2.337,0.552,2.482,1.312c0.031,0.067,0.047,0.141,0.043,0.214
				C6.464,6.712,6.182,7.774,5.933,8.711C5.66,9.74,5.424,10.629,5.522,11.439c0.018,0.143-0.027,0.285-0.122,0.392
				C5.306,11.938,5.169,12,5.026,12z M3.526,11H4.5c0.009-0.823,0.232-1.664,0.466-2.546C5.203,7.566,5.446,6.65,5.518,5.632
				C5.506,5.59,5.5,5.546,5.5,5.5C5.5,5.376,4.968,5,4,5S2.5,5.376,2.5,5.5c0.055,1.056,0.312,2.021,0.56,2.954
				C3.294,9.335,3.517,10.177,3.526,11z"/>
		</g>
		<g>
			<path d="M12,20c-5.575,0-11.5-1.577-11.5-4.5c0-0.077,0.018-0.154,0.053-0.224l2-4C2.638,11.107,2.811,11,3,11h2
				c0.276,0,0.5,0.224,0.5,0.5c0,1.183,2.669,2.5,6.5,2.5s6.5-1.317,6.5-2.5c0-0.276,0.224-0.5,0.5-0.5s0.5,0.224,0.5,0.5
				c0,1.995-3.224,3.5-7.5,3.5c-3.91,0-6.941-1.259-7.431-3h-1.26l-1.803,3.606C1.685,17.233,5.944,19,12,19
				s10.315-1.767,10.494-3.394l-1.941-3.883c-0.124-0.247-0.023-0.547,0.224-0.671s0.547-0.022,0.671,0.224l2,4
				c0.035,0.069,0.053,0.146,0.053,0.224C23.5,18.423,17.575,20,12,20z"/>
		</g>
		<g>
			<circle cx="4" cy="6.5" r="0.5"/>
		</g>
		<g>
			<path d="M21.026,12H19c-0.143,0-0.279-0.062-0.375-0.169c-0.095-0.106-0.139-0.25-0.122-0.392
				c0.099-0.811-0.137-1.699-0.411-2.729c-0.249-0.938-0.531-1.999-0.593-3.186C17.5,4.645,18.575,4,20,4
				c1.319,0,2.337,0.552,2.482,1.312c0.031,0.067,0.047,0.141,0.043,0.214c-0.062,1.187-0.344,2.249-0.593,3.186
				c-0.273,1.029-0.509,1.918-0.411,2.729c0.018,0.143-0.027,0.285-0.122,0.392C21.306,11.938,21.169,12,21.026,12z M19.526,11H20.5
				c0.009-0.823,0.232-1.664,0.466-2.546c0.236-0.888,0.479-1.804,0.551-2.822C21.506,5.59,21.5,5.546,21.5,5.5
				C21.5,5.376,20.968,5,20,5s-1.5,0.376-1.5,0.5c0.055,1.056,0.312,2.021,0.56,2.954C19.294,9.335,19.517,10.177,19.526,11z"/>
		</g>
		<g>
			<circle cx="20" cy="6.5" r="0.5"/>
		</g>
	</g>
</g>
<g id="Whetting">
</g>
<g id="Cake_Knife">
</g>
<g id="Layer_58">
</g>
<g id="Ladle">
</g>
<g id="Sauce_Spoon">
</g>
<g id="Egg_Beater">
</g>
<g id="Meat_Fork">
</g>
<g id="Kitchen_Spoon_1">
</g>
<g id="Kitchen_Spoon_2">
</g>
<g id="Pizza_Cutter">
</g>
<g id="Potato_Musher">
</g>
<g id="Peeler">
</g>
<g id="Honey_Dipper">
</g>
<g id="Fork">
</g>
<g id="Knife">
</g>
<g id="Spoon">
</g>
<g id="Cutlery_Set">
</g>
<g id="Sugar_Bowl">
</g>
<g id="Matches">
</g>
<g id="Cezve">
</g>
</svg>
