<?xml version="1.0" encoding="iso-8859-1"?>
<!-- Generator: Adobe Illustrator 19.2.1, SVG Export Plug-In . SVG Version: 6.00 Build 0)  -->
<svg version="1.1" xmlns="http://www.w3.org/2000/svg" xmlns:xlink="http://www.w3.org/1999/xlink" x="0px" y="0px"
	 viewBox="0 0 24 24" style="enable-background:new 0 0 24 24;" xml:space="preserve">
<g id="Cutting_Board_1">
</g>
<g id="Cutting_Board_2">
</g>
<g id="Chef_x27_s_Hat_1">
</g>
<g id="Chef_x27_s_Hat_2">
</g>
<g id="Kitchen_Scale">
</g>
<g id="Measuring_Cup">
</g>
<g id="Pot_1">
</g>
<g id="Pot_2">
</g>
<g id="Wok_1">
</g>
<g id="Wok_2">
</g>
<g id="Teapot">
</g>
<g id="Plate">
</g>
<g id="Sauce_Boat">
</g>
<g id="Cauldron">
</g>
<g id="Cookbook">
</g>
<g id="Salt_Pot">
</g>
<g id="Pepper_Pot_1">
</g>
<g id="Pepper_Pot_2">
</g>
<g id="Egg_Timer">
</g>
<g id="Olive_Oil_Pot">
</g>
<g id="Pancake_Griddle">
</g>
<g id="Pan">
</g>
<g id="Kettle">
</g>
<g id="Microwave">
</g>
<g id="Cooker">
</g>
<g id="Meat_Grinder">
</g>
<g id="Coffee_Maker">
</g>
<g id="Household_Mixer">
</g>
<g id="Stand_Mixer">
</g>
<g id="Hand_Blender">
</g>
<g id="Blender">
</g>
<g id="Cooker_Hood">
</g>
<g id="Refrigerator">
</g>
<g id="Freezer">
</g>
<g id="Apron">
</g>
<g id="Oven_Gloves">
</g>
<g id="Rolling_Pin">
</g>
<g id="Sieve">
</g>
<g id="Tea_Sieve">
</g>
<g id="Grater">
</g>
<g id="Knife_Holder">
</g>
<g id="Funnel">
</g>
<g id="Kitchen_Clock">
</g>
<g id="Lemon_Juicer">
</g>
<g id="Pastry_Bag_1">
</g>
<g id="Pastry_Bag_2">
</g>
<g id="Corkscrew">
</g>
<g id="Bottle_Opener">
</g>
<g id="Service">
</g>
<g id="Chopsticks">
</g>
<g id="Hatchet">
</g>
<g id="Filleting_Knife">
</g>
<g id="Bread_Knife">
</g>
<g id="Herb_Knife">
</g>
<g id="Whetting">
</g>
<g id="Cake_Knife">
</g>
<g id="Layer_58">
</g>
<g id="Ladle">
</g>
<g id="Sauce_Spoon">
</g>
<g id="Egg_Beater">
</g>
<g id="Meat_Fork">
</g>
<g id="Kitchen_Spoon_1">
</g>
<g id="Kitchen_Spoon_2">
</g>
<g id="Pizza_Cutter">
</g>
<g id="Potato_Musher">
</g>
<g id="Peeler">
</g>
<g id="Honey_Dipper">
	<g>
		<g>
			<path d="M8.985,22.586c-0.128,0-0.256-0.049-0.354-0.146l-7.071-7.071c-0.195-0.195-0.195-0.512,0-0.707s0.512-0.195,0.707,0
				l7.071,7.071c0.195,0.195,0.195,0.512,0,0.707C9.241,22.537,9.113,22.586,8.985,22.586z"/>
		</g>
		<g>
			<path d="M6.864,23.293c-0.128,0-0.256-0.049-0.354-0.146l-5.657-5.657c-0.195-0.195-0.195-0.512,0-0.707s0.512-0.195,0.707,0
				l5.657,5.657c0.195,0.195,0.195,0.512,0,0.707C7.12,23.244,6.992,23.293,6.864,23.293z"/>
		</g>
		<g>
			<path d="M4.742,24c-0.128,0-0.256-0.049-0.354-0.146l-4.242-4.242c-0.195-0.195-0.195-0.512,0-0.707s0.512-0.195,0.707,0
				l4.242,4.242c0.195,0.195,0.195,0.512,0,0.707C4.998,23.951,4.87,24,4.742,24z"/>
		</g>
		<g>
			<path d="M1.914,24c-0.128,0-0.256-0.049-0.354-0.146l-1.414-1.414c-0.195-0.195-0.195-0.512,0-0.707s0.512-0.195,0.707,0
				l1.414,1.414c0.195,0.195,0.195,0.512,0,0.707C2.17,23.951,2.042,24,1.914,24z"/>
		</g>
		<g>
			<path d="M9.692,20.465c-0.128,0-0.256-0.049-0.354-0.146l-5.657-5.657c-0.195-0.195-0.195-0.512,0-0.707s0.512-0.195,0.707,0
				l5.657,5.657c0.195,0.195,0.195,0.512,0,0.707C9.948,20.416,9.82,20.465,9.692,20.465z"/>
		</g>
		<g>
			<path d="M10.399,18.343c-0.128,0-0.256-0.049-0.354-0.146l-4.242-4.242c-0.195-0.195-0.195-0.512,0-0.707s0.512-0.195,0.707,0
				l4.242,4.242c0.195,0.195,0.195,0.512,0,0.707C10.655,18.294,10.527,18.343,10.399,18.343z"/>
		</g>
		<g>
			<path d="M10.399,15.515c-0.128,0-0.256-0.049-0.354-0.146l-1.414-1.414c-0.195-0.195-0.195-0.512,0-0.707s0.512-0.195,0.707,0
				l1.414,1.414c0.195,0.195,0.195,0.512,0,0.707C10.655,15.466,10.527,15.515,10.399,15.515z"/>
		</g>
		<g>
			<path d="M10.046,15.161c-0.128,0-0.256-0.049-0.354-0.146l-0.707-0.707c-0.191-0.191-0.195-0.501-0.009-0.697L21.458,0.458
				C21.733,0.167,22.105,0.005,22.505,0c0.414-0.003,0.775,0.147,1.059,0.431l0.006,0.006C23.853,0.719,24.005,1.095,24,1.495
				c-0.005,0.399-0.167,0.771-0.457,1.047L10.39,15.023C10.294,15.115,10.17,15.161,10.046,15.161z M10.037,13.945l0.018,0.018
				l12.8-12.146C22.946,1.729,22.998,1.61,23,1.482s-0.047-0.248-0.138-0.339l-0.006-0.006c-0.09-0.09-0.198-0.126-0.339-0.138
				c-0.128,0.002-0.247,0.054-0.335,0.146L10.037,13.945z"/>
		</g>
		<g>
			<path d="M1.25,23.25c-0.128,0-0.256-0.049-0.354-0.146c-0.195-0.195-0.195-0.512,0-0.707l8.25-8.25
				c0.195-0.195,0.512-0.195,0.707,0s0.195,0.512,0,0.707l-8.25,8.25C1.506,23.201,1.378,23.25,1.25,23.25z"/>
		</g>
	</g>
</g>
<g id="Fork">
</g>
<g id="Knife">
</g>
<g id="Spoon">
</g>
<g id="Cutlery_Set">
</g>
<g id="Sugar_Bowl">
</g>
<g id="Matches">
</g>
<g id="Cezve">
</g>
</svg>
