<?xml version="1.0" encoding="iso-8859-1"?>
<!-- Generator: Adobe Illustrator 19.2.1, SVG Export Plug-In . SVG Version: 6.00 Build 0)  -->
<svg version="1.1" xmlns="http://www.w3.org/2000/svg" xmlns:xlink="http://www.w3.org/1999/xlink" x="0px" y="0px"
	 viewBox="0 0 24 24" style="enable-background:new 0 0 24 24;" xml:space="preserve">
<g id="Cutting_Board_1">
</g>
<g id="Cutting_Board_2">
</g>
<g id="Chef_x27_s_Hat_1">
</g>
<g id="Chef_x27_s_Hat_2">
</g>
<g id="Kitchen_Scale">
</g>
<g id="Measuring_Cup">
</g>
<g id="Pot_1">
</g>
<g id="Pot_2">
</g>
<g id="Wok_1">
</g>
<g id="Wok_2">
</g>
<g id="Teapot">
</g>
<g id="Plate">
</g>
<g id="Sauce_Boat">
</g>
<g id="Cauldron">
</g>
<g id="Cookbook">
</g>
<g id="Salt_Pot">
</g>
<g id="Pepper_Pot_1">
</g>
<g id="Pepper_Pot_2">
</g>
<g id="Egg_Timer">
</g>
<g id="Olive_Oil_Pot">
</g>
<g id="Pancake_Griddle">
</g>
<g id="Pan">
</g>
<g id="Kettle">
</g>
<g id="Microwave">
</g>
<g id="Cooker">
</g>
<g id="Meat_Grinder">
</g>
<g id="Coffee_Maker">
</g>
<g id="Household_Mixer">
	<g>
		<g>
			<path d="M21.302,13H0.698c-0.276,0-0.5-0.224-0.5-0.5v-3c0-4.687,3.813-8.5,8.5-8.5h12.165c0.725,0,1.346,0.518,1.477,1.231
				l1.422,7.821c0.133,0.732-0.064,1.479-0.541,2.05C22.744,12.673,22.045,13,21.302,13z M1.198,12h20.104
				c0.445,0,0.865-0.196,1.151-0.539c0.286-0.343,0.404-0.791,0.324-1.23l-1.422-7.821C21.313,2.173,21.105,2,20.863,2H8.698
				c-4.136,0-7.5,3.364-7.5,7.5V12z"/>
		</g>
		<g>
			<path d="M19.698,8h-11c-0.276,0-0.5-0.224-0.5-0.5v-1c0-1.93,1.57-3.5,3.5-3.5h7c0.827,0,1.5,0.673,1.5,1.5v3
				C20.198,7.776,19.975,8,19.698,8z M9.198,7h10V4.5c0-0.276-0.225-0.5-0.5-0.5h-7c-1.379,0-2.5,1.122-2.5,2.5V7z"/>
		</g>
		<g>
			<path d="M4.698,16c-0.276,0-0.5-0.224-0.5-0.5v-3c0-0.276,0.224-0.5,0.5-0.5s0.5,0.224,0.5,0.5v3C5.198,15.776,4.975,16,4.698,16
				z"/>
		</g>
		<g>
			<path d="M4.698,24c-1.93,0-3.5-2.019-3.5-4.5s1.57-4.5,3.5-4.5s3.5,2.019,3.5,4.5S6.628,24,4.698,24z M4.698,16
				c-1.379,0-2.5,1.57-2.5,3.5s1.121,3.5,2.5,3.5s2.5-1.57,2.5-3.5S6.077,16,4.698,16z"/>
		</g>
		<g>
			<path d="M4.698,24c-1.428,0-1.5-3.749-1.5-4.5s0.072-4.5,1.5-4.5s1.5,3.749,1.5,4.5S6.126,24,4.698,24z M4.698,16.136
				c-0.215,0.431-0.5,1.593-0.5,3.364s0.285,2.933,0.5,3.364c0.215-0.431,0.5-1.593,0.5-3.364S4.913,16.567,4.698,16.136z"/>
		</g>
		<g>
			<path d="M10.698,1h-1c-0.276,0-0.5-0.224-0.5-0.5S9.422,0,9.698,0h1c0.276,0,0.5,0.224,0.5,0.5S10.975,1,10.698,1z"/>
		</g>
		<g>
			<path d="M5.198,10c-0.552,0-1-0.449-1-1s0.448-1,1-1s1,0.449,1,1S5.75,10,5.198,10z M5.198,9C5.198,9,5.198,9,5.198,9l0.5,0
				L5.198,9z"/>
		</g>
	</g>
</g>
<g id="Stand_Mixer">
</g>
<g id="Hand_Blender">
</g>
<g id="Blender">
</g>
<g id="Cooker_Hood">
</g>
<g id="Refrigerator">
</g>
<g id="Freezer">
</g>
<g id="Apron">
</g>
<g id="Oven_Gloves">
</g>
<g id="Rolling_Pin">
</g>
<g id="Sieve">
</g>
<g id="Tea_Sieve">
</g>
<g id="Grater">
</g>
<g id="Knife_Holder">
</g>
<g id="Funnel">
</g>
<g id="Kitchen_Clock">
</g>
<g id="Lemon_Juicer">
</g>
<g id="Pastry_Bag_1">
</g>
<g id="Pastry_Bag_2">
</g>
<g id="Corkscrew">
</g>
<g id="Bottle_Opener">
</g>
<g id="Service">
</g>
<g id="Chopsticks">
</g>
<g id="Hatchet">
</g>
<g id="Filleting_Knife">
</g>
<g id="Bread_Knife">
</g>
<g id="Herb_Knife">
</g>
<g id="Whetting">
</g>
<g id="Cake_Knife">
</g>
<g id="Layer_58">
</g>
<g id="Ladle">
</g>
<g id="Sauce_Spoon">
</g>
<g id="Egg_Beater">
</g>
<g id="Meat_Fork">
</g>
<g id="Kitchen_Spoon_1">
</g>
<g id="Kitchen_Spoon_2">
</g>
<g id="Pizza_Cutter">
</g>
<g id="Potato_Musher">
</g>
<g id="Peeler">
</g>
<g id="Honey_Dipper">
</g>
<g id="Fork">
</g>
<g id="Knife">
</g>
<g id="Spoon">
</g>
<g id="Cutlery_Set">
</g>
<g id="Sugar_Bowl">
</g>
<g id="Matches">
</g>
<g id="Cezve">
</g>
</svg>
