<?xml version="1.0" encoding="iso-8859-1"?>
<!-- Generator: Adobe Illustrator 19.2.1, SVG Export Plug-In . SVG Version: 6.00 Build 0)  -->
<svg version="1.1" xmlns="http://www.w3.org/2000/svg" xmlns:xlink="http://www.w3.org/1999/xlink" x="0px" y="0px"
	 viewBox="0 0 24 24" style="enable-background:new 0 0 24 24;" xml:space="preserve">
<g id="Cutting_Board_1">
</g>
<g id="Cutting_Board_2">
</g>
<g id="Chef_x27_s_Hat_1">
</g>
<g id="Chef_x27_s_Hat_2">
</g>
<g id="Kitchen_Scale">
</g>
<g id="Measuring_Cup">
</g>
<g id="Pot_1">
</g>
<g id="Pot_2">
</g>
<g id="Wok_1">
</g>
<g id="Wok_2">
</g>
<g id="Teapot">
</g>
<g id="Plate">
</g>
<g id="Sauce_Boat">
</g>
<g id="Cauldron">
</g>
<g id="Cookbook">
</g>
<g id="Salt_Pot">
</g>
<g id="Pepper_Pot_1">
</g>
<g id="Pepper_Pot_2">
</g>
<g id="Egg_Timer">
</g>
<g id="Olive_Oil_Pot">
</g>
<g id="Pancake_Griddle">
</g>
<g id="Pan">
</g>
<g id="Kettle">
	<g>
		<g>
			<g>
				<path d="M10,20c-1.654,0-3-1.346-3-3V9c0-1.654,1.346-3,3-3s3,1.346,3,3v8C13,18.654,11.654,20,10,20z M10,7
					C8.897,7,8,7.897,8,9v8c0,1.103,0.897,2,2,2s2-0.897,2-2V9C12,7.897,11.103,7,10,7z"/>
			</g>
			<g>
				<path d="M17.5,21c-0.064,0-0.129-0.012-0.191-0.038C17.122,20.885,17,20.702,17,20.5v-2.868c0-0.124,0.046-0.244,0.129-0.336
					C18.98,15.255,20,12.623,20,9.883c0-1.953-1.053-3.765-2.747-4.729C17.097,5.066,17,4.9,17,4.72V2.5
					c0-0.166,0.083-0.321,0.22-0.414c0.138-0.093,0.313-0.111,0.466-0.05l0.002,0.001C20.915,3.328,23,6.407,23,9.882
					c0,3.756-1.462,7.287-4.118,9.943l-1.028,1.028C17.758,20.949,17.63,21,17.5,21z M18,17.823v1.47l0.175-0.175
					C20.642,16.651,22,13.372,22,9.883c0-2.812-1.547-5.33-4-6.605v1.159c1.858,1.173,3,3.233,3,5.446
					C21,12.807,19.936,15.619,18,17.823z"/>
			</g>
			<g>
				<path d="M15.5,23h-11C3.122,23,2,21.878,2,20.5V4.618L1.053,2.724C1.018,2.654,1,2.578,1,2.5C1,0.522,6.56,0,9.5,0
					S18,0.522,18,2.5v18C18,21.878,16.878,23,15.5,23z M2.022,2.426l0.925,1.851C2.982,4.346,3,4.422,3,4.5v16
					C3,21.327,3.673,22,4.5,22h11c0.827,0,1.5-0.673,1.5-1.5v-18C17,2.064,14.372,1,9.5,1C4.886,1,2.284,1.955,2.022,2.426z"/>
			</g>
			<g>
				<path d="M4.5,24C4.224,24,4,23.776,4,23.5v-1C4,22.224,4.224,22,4.5,22S5,22.224,5,22.5v1C5,23.776,4.776,24,4.5,24z"/>
			</g>
			<g>
				<path d="M15.5,24c-0.276,0-0.5-0.224-0.5-0.5v-1c0-0.276,0.224-0.5,0.5-0.5s0.5,0.224,0.5,0.5v1C16,23.776,15.776,24,15.5,24z"
					/>
			</g>
			<g>
				<path d="M8.5,9h-1C7.224,9,7,8.776,7,8.5S7.224,8,7.5,8h1C8.776,8,9,8.224,9,8.5S8.776,9,8.5,9z"/>
			</g>
			<g>
				<path d="M9.5,12h-2C7.224,12,7,11.776,7,11.5S7.224,11,7.5,11h2c0.276,0,0.5,0.224,0.5,0.5S9.776,12,9.5,12z"/>
			</g>
			<g>
				<path d="M8.5,15h-1C7.224,15,7,14.776,7,14.5S7.224,14,7.5,14h1C8.776,14,9,14.224,9,14.5S8.776,15,8.5,15z"/>
			</g>
			<g>
				<path d="M9.5,18h-2C7.224,18,7,17.776,7,17.5S7.224,17,7.5,17h2c0.276,0,0.5,0.224,0.5,0.5S9.776,18,9.5,18z"/>
			</g>
		</g>
		<g>
			<path d="M19.5,21h-2c-0.276,0-0.5-0.224-0.5-0.5s0.224-0.5,0.5-0.5h2c0.276,0,0.5,0.224,0.5,0.5S19.776,21,19.5,21z"/>
		</g>
	</g>
</g>
<g id="Microwave">
</g>
<g id="Cooker">
</g>
<g id="Meat_Grinder">
</g>
<g id="Coffee_Maker">
</g>
<g id="Household_Mixer">
</g>
<g id="Stand_Mixer">
</g>
<g id="Hand_Blender">
</g>
<g id="Blender">
</g>
<g id="Cooker_Hood">
</g>
<g id="Refrigerator">
</g>
<g id="Freezer">
</g>
<g id="Apron">
</g>
<g id="Oven_Gloves">
</g>
<g id="Rolling_Pin">
</g>
<g id="Sieve">
</g>
<g id="Tea_Sieve">
</g>
<g id="Grater">
</g>
<g id="Knife_Holder">
</g>
<g id="Funnel">
</g>
<g id="Kitchen_Clock">
</g>
<g id="Lemon_Juicer">
</g>
<g id="Pastry_Bag_1">
</g>
<g id="Pastry_Bag_2">
</g>
<g id="Corkscrew">
</g>
<g id="Bottle_Opener">
</g>
<g id="Service">
</g>
<g id="Chopsticks">
</g>
<g id="Hatchet">
</g>
<g id="Filleting_Knife">
</g>
<g id="Bread_Knife">
</g>
<g id="Herb_Knife">
</g>
<g id="Whetting">
</g>
<g id="Cake_Knife">
</g>
<g id="Layer_58">
</g>
<g id="Ladle">
</g>
<g id="Sauce_Spoon">
</g>
<g id="Egg_Beater">
</g>
<g id="Meat_Fork">
</g>
<g id="Kitchen_Spoon_1">
</g>
<g id="Kitchen_Spoon_2">
</g>
<g id="Pizza_Cutter">
</g>
<g id="Potato_Musher">
</g>
<g id="Peeler">
</g>
<g id="Honey_Dipper">
</g>
<g id="Fork">
</g>
<g id="Knife">
</g>
<g id="Spoon">
</g>
<g id="Cutlery_Set">
</g>
<g id="Sugar_Bowl">
</g>
<g id="Matches">
</g>
<g id="Cezve">
</g>
</svg>
