<?xml version="1.0" encoding="iso-8859-1"?>
<!-- Generator: Adobe Illustrator 19.2.1, SVG Export Plug-In . SVG Version: 6.00 Build 0)  -->
<svg version="1.1" xmlns="http://www.w3.org/2000/svg" xmlns:xlink="http://www.w3.org/1999/xlink" x="0px" y="0px"
	 viewBox="0 0 24 24" style="enable-background:new 0 0 24 24;" xml:space="preserve">
<g id="Cutting_Board_1">
</g>
<g id="Cutting_Board_2">
</g>
<g id="Chef_x27_s_Hat_1">
</g>
<g id="Chef_x27_s_Hat_2">
</g>
<g id="Kitchen_Scale">
	<g>
		<g>
			<path d="M11.5,22C7.916,22,5,19.084,5,15.5S7.916,9,11.5,9s6.5,2.916,6.5,6.5S15.084,22,11.5,22z M11.5,10
				C8.467,10,6,12.467,6,15.5S8.467,21,11.5,21s5.5-2.467,5.5-5.5S14.533,10,11.5,10z"/>
		</g>
		<g>
			<path d="M19.251,24H3.749c-0.713,0-1.394-0.306-1.868-0.838c-0.474-0.533-0.698-1.245-0.615-1.954L2.587,9.211
				C2.736,7.949,3.804,7,5.071,7h12.443c1.267,0,2.334,0.949,2.483,2.208l1.735,11.987c0.085,0.722-0.139,1.434-0.613,1.967
				C20.645,23.694,19.964,24,19.251,24z M5.071,8c-0.76,0-1.401,0.569-1.49,1.325L2.26,21.321c-0.05,0.429,0.084,0.856,0.369,1.176
				C2.913,22.816,3.321,23,3.749,23h15.502c0.428,0,0.836-0.184,1.121-0.503c0.285-0.32,0.419-0.748,0.369-1.173L19.005,9.338
				C18.915,8.569,18.274,8,17.514,8H5.071z"/>
		</g>
		<g>
			<path d="M14.5,8h-6C8.224,8,8,7.776,8,7.5v-4C8,3.224,8.224,3,8.5,3h6C14.776,3,15,3.224,15,3.5v4C15,7.776,14.776,8,14.5,8z
				 M9,7h5V4H9V7z"/>
		</g>
		<g>
			<path d="M19.5,4h-16C1.57,4,0,2.43,0,0.5C0,0.224,0.224,0,0.5,0h22C22.776,0,23,0.224,23,0.5C23,2.43,21.43,4,19.5,4z M1.05,1
				C1.283,2.14,2.292,3,3.5,3h16c1.208,0,2.217-0.86,2.45-2H1.05z"/>
		</g>
		<g>
			<path d="M11.5,17c-0.827,0-1.5-0.673-1.5-1.5c0-0.604,0.794-2.594,1.037-3.189c0.153-0.376,0.772-0.376,0.926,0
				C12.206,12.906,13,14.896,13,15.5C13,16.327,12.327,17,11.5,17z M11.5,13.88c-0.28,0.757-0.498,1.429-0.5,1.62
				c0,0.275,0.224,0.5,0.5,0.5c0.275,0,0.5-0.224,0.5-0.5C11.997,15.309,11.78,14.638,11.5,13.88z"/>
		</g>
	</g>
</g>
<g id="Measuring_Cup">
</g>
<g id="Pot_1">
</g>
<g id="Pot_2">
</g>
<g id="Wok_1">
</g>
<g id="Wok_2">
</g>
<g id="Teapot">
</g>
<g id="Plate">
</g>
<g id="Sauce_Boat">
</g>
<g id="Cauldron">
</g>
<g id="Cookbook">
</g>
<g id="Salt_Pot">
</g>
<g id="Pepper_Pot_1">
</g>
<g id="Pepper_Pot_2">
</g>
<g id="Egg_Timer">
</g>
<g id="Olive_Oil_Pot">
</g>
<g id="Pancake_Griddle">
</g>
<g id="Pan">
</g>
<g id="Kettle">
</g>
<g id="Microwave">
</g>
<g id="Cooker">
</g>
<g id="Meat_Grinder">
</g>
<g id="Coffee_Maker">
</g>
<g id="Household_Mixer">
</g>
<g id="Stand_Mixer">
</g>
<g id="Hand_Blender">
</g>
<g id="Blender">
</g>
<g id="Cooker_Hood">
</g>
<g id="Refrigerator">
</g>
<g id="Freezer">
</g>
<g id="Apron">
</g>
<g id="Oven_Gloves">
</g>
<g id="Rolling_Pin">
</g>
<g id="Sieve">
</g>
<g id="Tea_Sieve">
</g>
<g id="Grater">
</g>
<g id="Knife_Holder">
</g>
<g id="Funnel">
</g>
<g id="Kitchen_Clock">
</g>
<g id="Lemon_Juicer">
</g>
<g id="Pastry_Bag_1">
</g>
<g id="Pastry_Bag_2">
</g>
<g id="Corkscrew">
</g>
<g id="Bottle_Opener">
</g>
<g id="Service">
</g>
<g id="Chopsticks">
</g>
<g id="Hatchet">
</g>
<g id="Filleting_Knife">
</g>
<g id="Bread_Knife">
</g>
<g id="Herb_Knife">
</g>
<g id="Whetting">
</g>
<g id="Cake_Knife">
</g>
<g id="Layer_58">
</g>
<g id="Ladle">
</g>
<g id="Sauce_Spoon">
</g>
<g id="Egg_Beater">
</g>
<g id="Meat_Fork">
</g>
<g id="Kitchen_Spoon_1">
</g>
<g id="Kitchen_Spoon_2">
</g>
<g id="Pizza_Cutter">
</g>
<g id="Potato_Musher">
</g>
<g id="Peeler">
</g>
<g id="Honey_Dipper">
</g>
<g id="Fork">
</g>
<g id="Knife">
</g>
<g id="Spoon">
</g>
<g id="Cutlery_Set">
</g>
<g id="Sugar_Bowl">
</g>
<g id="Matches">
</g>
<g id="Cezve">
</g>
</svg>
