<?xml version="1.0" encoding="iso-8859-1"?>
<!-- Generator: Adobe Illustrator 19.2.1, SVG Export Plug-In . SVG Version: 6.00 Build 0)  -->
<svg version="1.1" xmlns="http://www.w3.org/2000/svg" xmlns:xlink="http://www.w3.org/1999/xlink" x="0px" y="0px"
	 viewBox="0 0 24 24" style="enable-background:new 0 0 24 24;" xml:space="preserve">
<g id="Cutting_Board_1">
</g>
<g id="Cutting_Board_2">
</g>
<g id="Chef_x27_s_Hat_1">
</g>
<g id="Chef_x27_s_Hat_2">
</g>
<g id="Kitchen_Scale">
</g>
<g id="Measuring_Cup">
</g>
<g id="Pot_1">
</g>
<g id="Pot_2">
</g>
<g id="Wok_1">
</g>
<g id="Wok_2">
</g>
<g id="Teapot">
</g>
<g id="Plate">
</g>
<g id="Sauce_Boat">
</g>
<g id="Cauldron">
</g>
<g id="Cookbook">
</g>
<g id="Salt_Pot">
</g>
<g id="Pepper_Pot_1">
</g>
<g id="Pepper_Pot_2">
</g>
<g id="Egg_Timer">
</g>
<g id="Olive_Oil_Pot">
</g>
<g id="Pancake_Griddle">
</g>
<g id="Pan">
</g>
<g id="Kettle">
</g>
<g id="Microwave">
</g>
<g id="Cooker">
</g>
<g id="Meat_Grinder">
</g>
<g id="Coffee_Maker">
</g>
<g id="Household_Mixer">
</g>
<g id="Stand_Mixer">
</g>
<g id="Hand_Blender">
</g>
<g id="Blender">
</g>
<g id="Cooker_Hood">
</g>
<g id="Refrigerator">
</g>
<g id="Freezer">
</g>
<g id="Apron">
</g>
<g id="Oven_Gloves">
</g>
<g id="Rolling_Pin">
</g>
<g id="Sieve">
</g>
<g id="Tea_Sieve">
</g>
<g id="Grater">
</g>
<g id="Knife_Holder">
</g>
<g id="Funnel">
</g>
<g id="Kitchen_Clock">
	<g>
		<g>
			<g>
				<g>
					<path d="M11.5,16c-0.276,0-0.5-0.224-0.5-0.5V11c0-0.977-0.066-1.359-0.854-2.146C10.053,8.76,10,8.633,10,8.5v-3
						C10,5.224,10.224,5,10.5,5S11,5.224,11,5.5v2.797c0.857,0.906,1,1.562,1,2.703v4.5C12,15.776,11.776,16,11.5,16z"/>
				</g>
			</g>
		</g>
		<g>
			<g>
				<g>
					<path d="M11.5,18c-0.276,0-0.5-0.224-0.5-0.5V11c0-1.142,0.143-1.797,1-2.703V5.5C12,5.224,12.224,5,12.5,5S13,5.224,13,5.5v3
						c0,0.133-0.053,0.26-0.146,0.354C12.066,9.641,12,10.023,12,11v6.5C12,17.776,11.776,18,11.5,18z"/>
				</g>
			</g>
		</g>
		<g>
			<path d="M11.5,24C5.71,24,1,19.29,1,13.5S5.71,3,11.5,3S22,7.71,22,13.5S17.29,24,11.5,24z M11.5,4C6.262,4,2,8.262,2,13.5
				S6.262,23,11.5,23s9.5-4.262,9.5-9.5S16.738,4,11.5,4z"/>
		</g>
		<g>
			<path d="M14.5,14h-7C7.224,14,7,13.776,7,13.5S7.224,13,7.5,13h7c0.276,0,0.5,0.224,0.5,0.5S14.776,14,14.5,14z"/>
		</g>
		<g>
			<path d="M16.5,16c-1.378,0-2.5-1.121-2.5-2.5s1.122-2.5,2.5-2.5c1.202,0,3.5,0.974,3.5,2.5S17.702,16,16.5,16z M16.5,12
				c-0.827,0-1.5,0.673-1.5,1.5s0.673,1.5,1.5,1.5c0.987,0,2.5-0.805,2.5-1.5S17.487,12,16.5,12z"/>
		</g>
		<g>
			<path d="M21.807,7.877c-0.002,0-0.004,0-0.005,0c-0.174-0.002-0.335-0.095-0.424-0.244c-1.525-2.562-3.94-4.41-6.8-5.204
				c-0.168-0.046-0.3-0.178-0.347-0.346c-0.048-0.168-0.004-0.348,0.115-0.476C15.307,0.57,16.605,0,18,0c2.757,0,5,2.243,5,5
				c0,0.924-0.266,1.838-0.77,2.643C22.139,7.788,21.979,7.877,21.807,7.877z M15.702,1.736c2.454,0.874,4.557,2.484,6.049,4.631
				C21.915,5.927,22,5.465,22,5c0-2.206-1.794-4-4-4C17.165,1,16.372,1.258,15.702,1.736z"/>
		</g>
		<g>
			<path d="M1.193,7.877c-0.172,0-0.333-0.089-0.424-0.234C0.266,6.838,0,5.924,0,5c0-2.757,2.243-5,5-5
				c1.395,0,2.693,0.57,3.655,1.607C8.774,1.735,8.818,1.915,8.77,2.083c-0.047,0.168-0.179,0.3-0.347,0.346
				c-2.86,0.794-5.275,2.643-6.8,5.204c-0.089,0.149-0.25,0.242-0.424,0.244C1.197,7.877,1.195,7.877,1.193,7.877z M5,1
				C2.794,1,1,2.794,1,5c0,0.465,0.085,0.927,0.25,1.367C2.741,4.221,4.844,2.61,7.298,1.736C6.628,1.258,5.835,1,5,1z"/>
		</g>
		<g>
			<path d="M11.5,4C11.224,4,11,3.776,11,3.5v-3C11,0.224,11.224,0,11.5,0S12,0.224,12,0.5v3C12,3.776,11.776,4,11.5,4z"/>
		</g>
		<g>
			<path d="M12.5,1h-2C10.224,1,10,0.776,10,0.5S10.224,0,10.5,0h2C12.776,0,13,0.224,13,0.5S12.776,1,12.5,1z"/>
		</g>
		<g>
			<path d="M4.5,24c-0.075,0-0.151-0.017-0.223-0.053c-0.247-0.124-0.347-0.424-0.224-0.671l1-2
				c0.124-0.246,0.423-0.348,0.671-0.224c0.247,0.124,0.347,0.424,0.224,0.671l-1,2C4.859,23.898,4.683,24,4.5,24z"/>
		</g>
		<g>
			<path d="M18.5,24c-0.184,0-0.36-0.102-0.448-0.276l-1-2c-0.124-0.247-0.023-0.547,0.224-0.671
				c0.247-0.124,0.547-0.022,0.671,0.224l1,2c0.124,0.247,0.023,0.547-0.224,0.671C18.652,23.983,18.576,24,18.5,24z"/>
		</g>
	</g>
</g>
<g id="Lemon_Juicer">
</g>
<g id="Pastry_Bag_1">
</g>
<g id="Pastry_Bag_2">
</g>
<g id="Corkscrew">
</g>
<g id="Bottle_Opener">
</g>
<g id="Service">
</g>
<g id="Chopsticks">
</g>
<g id="Hatchet">
</g>
<g id="Filleting_Knife">
</g>
<g id="Bread_Knife">
</g>
<g id="Herb_Knife">
</g>
<g id="Whetting">
</g>
<g id="Cake_Knife">
</g>
<g id="Layer_58">
</g>
<g id="Ladle">
</g>
<g id="Sauce_Spoon">
</g>
<g id="Egg_Beater">
</g>
<g id="Meat_Fork">
</g>
<g id="Kitchen_Spoon_1">
</g>
<g id="Kitchen_Spoon_2">
</g>
<g id="Pizza_Cutter">
</g>
<g id="Potato_Musher">
</g>
<g id="Peeler">
</g>
<g id="Honey_Dipper">
</g>
<g id="Fork">
</g>
<g id="Knife">
</g>
<g id="Spoon">
</g>
<g id="Cutlery_Set">
</g>
<g id="Sugar_Bowl">
</g>
<g id="Matches">
</g>
<g id="Cezve">
</g>
</svg>
