<?xml version="1.0" encoding="iso-8859-1"?>
<!-- Generator: Adobe Illustrator 19.2.1, SVG Export Plug-In . SVG Version: 6.00 Build 0)  -->
<svg version="1.1" xmlns="http://www.w3.org/2000/svg" xmlns:xlink="http://www.w3.org/1999/xlink" x="0px" y="0px"
	 viewBox="0 0 24 24" style="enable-background:new 0 0 24 24;" xml:space="preserve">
<g id="Cutting_Board_1">
</g>
<g id="Cutting_Board_2">
</g>
<g id="Chef_x27_s_Hat_1">
</g>
<g id="Chef_x27_s_Hat_2">
</g>
<g id="Kitchen_Scale">
</g>
<g id="Measuring_Cup">
</g>
<g id="Pot_1">
</g>
<g id="Pot_2">
</g>
<g id="Wok_1">
</g>
<g id="Wok_2">
</g>
<g id="Teapot">
</g>
<g id="Plate">
</g>
<g id="Sauce_Boat">
</g>
<g id="Cauldron">
</g>
<g id="Cookbook">
</g>
<g id="Salt_Pot">
</g>
<g id="Pepper_Pot_1">
</g>
<g id="Pepper_Pot_2">
</g>
<g id="Egg_Timer">
</g>
<g id="Olive_Oil_Pot">
</g>
<g id="Pancake_Griddle">
</g>
<g id="Pan">
</g>
<g id="Kettle">
</g>
<g id="Microwave">
</g>
<g id="Cooker">
</g>
<g id="Meat_Grinder">
</g>
<g id="Coffee_Maker">
</g>
<g id="Household_Mixer">
</g>
<g id="Stand_Mixer">
</g>
<g id="Hand_Blender">
</g>
<g id="Blender">
</g>
<g id="Cooker_Hood">
</g>
<g id="Refrigerator">
</g>
<g id="Freezer">
</g>
<g id="Apron">
</g>
<g id="Oven_Gloves">
</g>
<g id="Rolling_Pin">
</g>
<g id="Sieve">
</g>
<g id="Tea_Sieve">
</g>
<g id="Grater">
</g>
<g id="Knife_Holder">
	<g>
		<g>
			<path d="M10.75,21h-10c-0.276,0-0.5-0.224-0.5-0.5v-2c0-0.133,0.053-0.26,0.146-0.354l11-11c0.195-0.195,0.512-0.195,0.707,0l6,6
				c0.195,0.195,0.195,0.512,0,0.707l-7,7C11.01,20.947,10.883,21,10.75,21z M1.25,20h9.293l6.5-6.5L11.75,8.207l-10.5,10.5V20z"/>
		</g>
		<g>
			<path d="M1.75,22c-0.276,0-0.5-0.224-0.5-0.5v-1c0-0.276,0.224-0.5,0.5-0.5s0.5,0.224,0.5,0.5v1C2.25,21.776,2.026,22,1.75,22z"
				/>
		</g>
		<g>
			<path d="M9.75,22c-0.276,0-0.5-0.224-0.5-0.5v-1c0-0.276,0.224-0.5,0.5-0.5s0.5,0.224,0.5,0.5v1C10.25,21.776,10.026,22,9.75,22z
				"/>
		</g>
		<g>
			<circle cx="20.75" cy="4.5" r="0.5"/>
		</g>
		<g>
			<path d="M5.75,18c-0.128,0-0.256-0.049-0.354-0.146c-0.195-0.195-0.195-0.512,0-0.707l6-6c0.195-0.195,0.512-0.195,0.707,0
				s0.195,0.512,0,0.707l-6,6C6.006,17.951,5.878,18,5.75,18z"/>
		</g>
		<g>
			<path d="M15.75,12c-0.132,0-0.26-0.053-0.354-0.146l-2.5-2.5c-0.195-0.195-0.195-0.512,0-0.707l5.5-5.5
				c0.007-0.007,0.015-0.015,0.022-0.021C18.994,2.409,19.838,2,20.75,2c1.654,0,3,1.346,3,3s-1.346,3-3,3
				c-0.319,0-0.635-0.053-0.943-0.158l-3.69,3.997c-0.092,0.101-0.221,0.158-0.357,0.161C15.757,12,15.753,12,15.75,12z M13.957,9
				l1.778,1.778l3.572-3.869c0.149-0.162,0.386-0.206,0.584-0.111C20.171,6.932,20.459,7,20.75,7c1.103,0,2-0.897,2-2s-0.897-2-2-2
				c-0.627,0-1.208,0.293-1.593,0.805c-0.033,0.044-0.073,0.081-0.116,0.111L13.957,9z"/>
		</g>
	</g>
</g>
<g id="Funnel">
</g>
<g id="Kitchen_Clock">
</g>
<g id="Lemon_Juicer">
</g>
<g id="Pastry_Bag_1">
</g>
<g id="Pastry_Bag_2">
</g>
<g id="Corkscrew">
</g>
<g id="Bottle_Opener">
</g>
<g id="Service">
</g>
<g id="Chopsticks">
</g>
<g id="Hatchet">
</g>
<g id="Filleting_Knife">
</g>
<g id="Bread_Knife">
</g>
<g id="Herb_Knife">
</g>
<g id="Whetting">
</g>
<g id="Cake_Knife">
</g>
<g id="Layer_58">
</g>
<g id="Ladle">
</g>
<g id="Sauce_Spoon">
</g>
<g id="Egg_Beater">
</g>
<g id="Meat_Fork">
</g>
<g id="Kitchen_Spoon_1">
</g>
<g id="Kitchen_Spoon_2">
</g>
<g id="Pizza_Cutter">
</g>
<g id="Potato_Musher">
</g>
<g id="Peeler">
</g>
<g id="Honey_Dipper">
</g>
<g id="Fork">
</g>
<g id="Knife">
</g>
<g id="Spoon">
</g>
<g id="Cutlery_Set">
</g>
<g id="Sugar_Bowl">
</g>
<g id="Matches">
</g>
<g id="Cezve">
</g>
</svg>
