<?xml version="1.0" encoding="iso-8859-1"?>
<!-- Generator: Adobe Illustrator 19.2.1, SVG Export Plug-In . SVG Version: 6.00 Build 0)  -->
<svg version="1.1" xmlns="http://www.w3.org/2000/svg" xmlns:xlink="http://www.w3.org/1999/xlink" x="0px" y="0px"
	 viewBox="0 0 24 24" style="enable-background:new 0 0 24 24;" xml:space="preserve">
<g id="Cutting_Board_1">
</g>
<g id="Cutting_Board_2">
</g>
<g id="Chef_x27_s_Hat_1">
</g>
<g id="Chef_x27_s_Hat_2">
</g>
<g id="Kitchen_Scale">
</g>
<g id="Measuring_Cup">
</g>
<g id="Pot_1">
</g>
<g id="Pot_2">
</g>
<g id="Wok_1">
</g>
<g id="Wok_2">
</g>
<g id="Teapot">
</g>
<g id="Plate">
</g>
<g id="Sauce_Boat">
</g>
<g id="Cauldron">
</g>
<g id="Cookbook">
</g>
<g id="Salt_Pot">
</g>
<g id="Pepper_Pot_1">
</g>
<g id="Pepper_Pot_2">
</g>
<g id="Egg_Timer">
</g>
<g id="Olive_Oil_Pot">
</g>
<g id="Pancake_Griddle">
</g>
<g id="Pan">
</g>
<g id="Kettle">
</g>
<g id="Microwave">
</g>
<g id="Cooker">
</g>
<g id="Meat_Grinder">
</g>
<g id="Coffee_Maker">
</g>
<g id="Household_Mixer">
</g>
<g id="Stand_Mixer">
</g>
<g id="Hand_Blender">
</g>
<g id="Blender">
</g>
<g id="Cooker_Hood">
</g>
<g id="Refrigerator">
</g>
<g id="Freezer">
</g>
<g id="Apron">
</g>
<g id="Oven_Gloves">
</g>
<g id="Rolling_Pin">
</g>
<g id="Sieve">
</g>
<g id="Tea_Sieve">
</g>
<g id="Grater">
</g>
<g id="Knife_Holder">
</g>
<g id="Funnel">
</g>
<g id="Kitchen_Clock">
</g>
<g id="Lemon_Juicer">
</g>
<g id="Pastry_Bag_1">
</g>
<g id="Pastry_Bag_2">
</g>
<g id="Corkscrew">
</g>
<g id="Bottle_Opener">
</g>
<g id="Service">
</g>
<g id="Chopsticks">
</g>
<g id="Hatchet">
</g>
<g id="Filleting_Knife">
</g>
<g id="Bread_Knife">
</g>
<g id="Herb_Knife">
</g>
<g id="Whetting">
</g>
<g id="Cake_Knife">
</g>
<g id="Layer_58">
	<g>
		<g>
			<ellipse transform="matrix(0.7656 -0.6434 0.6434 0.7656 2.666 14.3385)" cx="21.007" cy="3.511" rx="0.5" ry="0.5"/>
		</g>
		<g>
			<path d="M17.099,9.213c-0.143,0-0.284-0.061-0.383-0.179l-2.574-3.063c-0.086-0.102-0.127-0.233-0.115-0.366
				c0.012-0.132,0.076-0.255,0.179-0.34l4.874-4.053c0.61-0.514,1.377-0.762,2.188-0.69c0.798,0.069,1.521,0.445,2.037,1.059
				s0.762,1.391,0.692,2.189c-0.069,0.798-0.445,1.521-1.059,2.037c-0.657,0.551-1.498,0.784-2.349,0.666l-3.172,2.624
				C17.324,9.175,17.211,9.213,17.099,9.213z M15.23,5.714l1.932,2.298l2.97-2.457c0.119-0.099,0.278-0.139,0.43-0.103
				c0.622,0.143,1.254-0.008,1.733-0.41C22.703,4.698,22.954,4.217,23,3.685c0.046-0.533-0.118-1.052-0.462-1.461
				c-0.344-0.408-0.825-0.659-1.357-0.705C20.643,1.474,20.13,1.637,19.72,1.98L15.23,5.714z"/>
		</g>
		<g>
			<path d="M1.665,23.489c-0.015,0-0.028-0.001-0.043-0.002c-0.133-0.012-0.255-0.075-0.34-0.177
				c-0.945-1.124-1.396-2.55-1.269-4.014s0.816-2.79,1.941-3.735L14.203,5.268c0.211-0.178,0.527-0.151,0.704,0.062l1.931,2.297
				c0.43,0.511,0.635,1.159,0.577,1.824s-0.371,1.269-0.883,1.697L1.986,23.372C1.896,23.448,1.782,23.489,1.665,23.489z
				 M14.463,6.354L2.598,16.327c-0.92,0.773-1.484,1.858-1.588,3.057c-0.089,1.029,0.171,2.036,0.737,2.884L15.89,10.382
				c0.307-0.258,0.494-0.619,0.529-1.019c0.034-0.398-0.089-0.787-0.347-1.095L14.463,6.354z"/>
		</g>
	</g>
</g>
<g id="Ladle">
</g>
<g id="Sauce_Spoon">
</g>
<g id="Egg_Beater">
</g>
<g id="Meat_Fork">
</g>
<g id="Kitchen_Spoon_1">
</g>
<g id="Kitchen_Spoon_2">
</g>
<g id="Pizza_Cutter">
</g>
<g id="Potato_Musher">
</g>
<g id="Peeler">
</g>
<g id="Honey_Dipper">
</g>
<g id="Fork">
</g>
<g id="Knife">
</g>
<g id="Spoon">
</g>
<g id="Cutlery_Set">
</g>
<g id="Sugar_Bowl">
</g>
<g id="Matches">
</g>
<g id="Cezve">
</g>
</svg>
