<?xml version="1.0" encoding="iso-8859-1"?>
<!-- Generator: Adobe Illustrator 19.2.1, SVG Export Plug-In . SVG Version: 6.00 Build 0)  -->
<svg version="1.1" xmlns="http://www.w3.org/2000/svg" xmlns:xlink="http://www.w3.org/1999/xlink" x="0px" y="0px"
	 viewBox="0 0 24 24" style="enable-background:new 0 0 24 24;" xml:space="preserve">
<g id="Cutting_Board_1">
</g>
<g id="Cutting_Board_2">
</g>
<g id="Chef_x27_s_Hat_1">
</g>
<g id="Chef_x27_s_Hat_2">
</g>
<g id="Kitchen_Scale">
</g>
<g id="Measuring_Cup">
</g>
<g id="Pot_1">
</g>
<g id="Pot_2">
</g>
<g id="Wok_1">
</g>
<g id="Wok_2">
</g>
<g id="Teapot">
</g>
<g id="Plate">
</g>
<g id="Sauce_Boat">
</g>
<g id="Cauldron">
</g>
<g id="Cookbook">
</g>
<g id="Salt_Pot">
</g>
<g id="Pepper_Pot_1">
</g>
<g id="Pepper_Pot_2">
</g>
<g id="Egg_Timer">
</g>
<g id="Olive_Oil_Pot">
</g>
<g id="Pancake_Griddle">
</g>
<g id="Pan">
</g>
<g id="Kettle">
</g>
<g id="Microwave">
</g>
<g id="Cooker">
</g>
<g id="Meat_Grinder">
</g>
<g id="Coffee_Maker">
</g>
<g id="Household_Mixer">
</g>
<g id="Stand_Mixer">
</g>
<g id="Hand_Blender">
</g>
<g id="Blender">
</g>
<g id="Cooker_Hood">
</g>
<g id="Refrigerator">
</g>
<g id="Freezer">
</g>
<g id="Apron">
</g>
<g id="Oven_Gloves">
</g>
<g id="Rolling_Pin">
</g>
<g id="Sieve">
</g>
<g id="Tea_Sieve">
</g>
<g id="Grater">
</g>
<g id="Knife_Holder">
</g>
<g id="Funnel">
</g>
<g id="Kitchen_Clock">
</g>
<g id="Lemon_Juicer">
	<g>
		<g>
			<path d="M17.5,24h-12C4.122,24,3,22.879,3,21.5V21H2c-1.103,0-2-0.897-2-2s0.897-2,2-2h19.5c0.827,0,1.5,0.673,1.5,1.5v1
				c0,0.827-0.673,1.5-1.5,1.5H20v0.5C20,22.879,18.878,24,17.5,24z M2,18c-0.551,0-1,0.448-1,1s0.449,1,1,1h1.5
				C3.776,20,4,20.224,4,20.5v1C4,22.327,4.673,23,5.5,23h12c0.827,0,1.5-0.673,1.5-1.5v-1c0-0.276,0.224-0.5,0.5-0.5h2
				c0.276,0,0.5-0.225,0.5-0.5v-1c0-0.275-0.224-0.5-0.5-0.5H2z"/>
		</g>
		<g>
			<path d="M19.5,18c-0.276,0-0.5-0.224-0.5-0.5c0-8.959-6.1-14.272-7.5-15.374C10.097,3.223,4,8.516,4,17.5
				C4,17.776,3.776,18,3.5,18S3,17.776,3,17.5C3,6.86,11.135,1.145,11.217,1.088c0.171-0.117,0.397-0.118,0.567,0.001
				C11.867,1.146,20,6.892,20,17.5C20,17.776,19.776,18,19.5,18z"/>
		</g>
		<g>
			<path d="M15.5,18c-0.276,0-0.5-0.224-0.5-0.5c0-8.132-2.506-13.316-3.504-15.058C10.495,4.158,8,9.264,8,17.5
				C8,17.776,7.776,18,7.5,18S7,17.776,7,17.5C7,6.896,10.93,1.431,11.097,1.204c0.095-0.13,0.24-0.184,0.406-0.204
				c0.16,0.001,0.31,0.079,0.403,0.209C12.074,1.443,16,7.054,16,17.5C16,17.776,15.776,18,15.5,18z"/>
		</g>
		<g>
			<path d="M11.5,18c-0.276,0-0.5-0.224-0.5-0.5v-16C11,1.224,11.224,1,11.5,1S12,1.224,12,1.5v16C12,17.776,11.776,18,11.5,18z"/>
		</g>
	</g>
</g>
<g id="Pastry_Bag_1">
</g>
<g id="Pastry_Bag_2">
</g>
<g id="Corkscrew">
</g>
<g id="Bottle_Opener">
</g>
<g id="Service">
</g>
<g id="Chopsticks">
</g>
<g id="Hatchet">
</g>
<g id="Filleting_Knife">
</g>
<g id="Bread_Knife">
</g>
<g id="Herb_Knife">
</g>
<g id="Whetting">
</g>
<g id="Cake_Knife">
</g>
<g id="Layer_58">
</g>
<g id="Ladle">
</g>
<g id="Sauce_Spoon">
</g>
<g id="Egg_Beater">
</g>
<g id="Meat_Fork">
</g>
<g id="Kitchen_Spoon_1">
</g>
<g id="Kitchen_Spoon_2">
</g>
<g id="Pizza_Cutter">
</g>
<g id="Potato_Musher">
</g>
<g id="Peeler">
</g>
<g id="Honey_Dipper">
</g>
<g id="Fork">
</g>
<g id="Knife">
</g>
<g id="Spoon">
</g>
<g id="Cutlery_Set">
</g>
<g id="Sugar_Bowl">
</g>
<g id="Matches">
</g>
<g id="Cezve">
</g>
</svg>
