<?xml version="1.0" encoding="iso-8859-1"?>
<!-- Generator: Adobe Illustrator 19.2.1, SVG Export Plug-In . SVG Version: 6.00 Build 0)  -->
<svg version="1.1" xmlns="http://www.w3.org/2000/svg" xmlns:xlink="http://www.w3.org/1999/xlink" x="0px" y="0px"
	 viewBox="0 0 24 24" style="enable-background:new 0 0 24 24;" xml:space="preserve">
<g id="Cutting_Board_1">
</g>
<g id="Cutting_Board_2">
</g>
<g id="Chef_x27_s_Hat_1">
</g>
<g id="Chef_x27_s_Hat_2">
</g>
<g id="Kitchen_Scale">
</g>
<g id="Measuring_Cup">
</g>
<g id="Pot_1">
</g>
<g id="Pot_2">
</g>
<g id="Wok_1">
</g>
<g id="Wok_2">
</g>
<g id="Teapot">
</g>
<g id="Plate">
</g>
<g id="Sauce_Boat">
</g>
<g id="Cauldron">
</g>
<g id="Cookbook">
</g>
<g id="Salt_Pot">
</g>
<g id="Pepper_Pot_1">
</g>
<g id="Pepper_Pot_2">
</g>
<g id="Egg_Timer">
</g>
<g id="Olive_Oil_Pot">
</g>
<g id="Pancake_Griddle">
</g>
<g id="Pan">
</g>
<g id="Kettle">
</g>
<g id="Microwave">
</g>
<g id="Cooker">
</g>
<g id="Meat_Grinder">
</g>
<g id="Coffee_Maker">
</g>
<g id="Household_Mixer">
</g>
<g id="Stand_Mixer">
</g>
<g id="Hand_Blender">
</g>
<g id="Blender">
</g>
<g id="Cooker_Hood">
</g>
<g id="Refrigerator">
</g>
<g id="Freezer">
</g>
<g id="Apron">
</g>
<g id="Oven_Gloves">
</g>
<g id="Rolling_Pin">
</g>
<g id="Sieve">
</g>
<g id="Tea_Sieve">
</g>
<g id="Grater">
</g>
<g id="Knife_Holder">
</g>
<g id="Funnel">
</g>
<g id="Kitchen_Clock">
</g>
<g id="Lemon_Juicer">
</g>
<g id="Pastry_Bag_1">
</g>
<g id="Pastry_Bag_2">
</g>
<g id="Corkscrew">
</g>
<g id="Bottle_Opener">
</g>
<g id="Service">
</g>
<g id="Chopsticks">
</g>
<g id="Hatchet">
</g>
<g id="Filleting_Knife">
</g>
<g id="Bread_Knife">
</g>
<g id="Herb_Knife">
</g>
<g id="Whetting">
</g>
<g id="Cake_Knife">
</g>
<g id="Layer_58">
</g>
<g id="Ladle">
</g>
<g id="Sauce_Spoon">
</g>
<g id="Egg_Beater">
</g>
<g id="Meat_Fork">
</g>
<g id="Kitchen_Spoon_1">
</g>
<g id="Kitchen_Spoon_2">
</g>
<g id="Pizza_Cutter">
</g>
<g id="Potato_Musher">
</g>
<g id="Peeler">
</g>
<g id="Honey_Dipper">
</g>
<g id="Fork">
</g>
<g id="Knife">
</g>
<g id="Spoon">
</g>
<g id="Cutlery_Set">
</g>
<g id="Sugar_Bowl">
</g>
<g id="Matches">
	<g>
		<g>
			<path d="M18.5,24h-14C4.224,24,4,23.776,4,23.5v-16C4,7.224,4.224,7,4.5,7h14C18.776,7,19,7.224,19,7.5v16
				C19,23.776,18.776,24,18.5,24z M5,23h13V8H5V23z"/>
		</g>
		<g>
			<path d="M17.5,8h-12C5.224,8,5,7.776,5,7.5v-7C5,0.224,5.224,0,5.5,0h12C17.776,0,18,0.224,18,0.5v7C18,7.776,17.776,8,17.5,8z
				 M6,7h11V1H6V7z"/>
		</g>
		<g>
			<path d="M8.5,8C8.224,8,8,7.776,8,7.5v-3C8,4.224,8.224,4,8.5,4S9,4.224,9,4.5v3C9,7.776,8.776,8,8.5,8z"/>
		</g>
		<g>
			<path d="M8.5,5c-0.58,0-1-0.631-1-1.5S7.92,2,8.5,2s1,0.631,1,1.5S9.08,5,8.5,5z"/>
		</g>
		<g>
			<path d="M11.5,8C11.224,8,11,7.776,11,7.5v-3C11,4.224,11.224,4,11.5,4S12,4.224,12,4.5v3C12,7.776,11.776,8,11.5,8z"/>
		</g>
		<g>
			<path d="M11.5,5c-0.58,0-1-0.631-1-1.5s0.42-1.5,1-1.5s1,0.631,1,1.5S12.08,5,11.5,5z"/>
		</g>
		<g>
			<path d="M14.5,8C14.224,8,14,7.776,14,7.5v-3C14,4.224,14.224,4,14.5,4S15,4.224,15,4.5v3C15,7.776,14.776,8,14.5,8z"/>
		</g>
		<g>
			<path d="M14.5,5c-0.58,0-1-0.631-1-1.5s0.42-1.5,1-1.5s1,0.631,1,1.5S15.08,5,14.5,5z"/>
		</g>
		<g>
			<path d="M11.474,22c-1.32,0-2.414-0.584-3.001-1.602C7.77,19.181,7.89,17.577,8.802,16c1.61-2.786,2.172-6.535,2.178-6.572
				c0.039-0.268,0.282-0.451,0.554-0.424c0.27,0.032,0.464,0.273,0.438,0.544c-0.003,0.039-0.339,3.902,2.096,6.35l0,0
				c1.019,1.023,1.287,2.369,0.737,3.693C14.215,21.01,12.846,22,11.474,22z M11.254,12.682c-0.359,1.204-0.874,2.586-1.586,3.818
				c-0.718,1.241-0.841,2.512-0.329,3.398C9.749,20.608,10.507,21,11.474,21c0.963,0,1.976-0.754,2.407-1.793
				c0.228-0.548,0.462-1.615-0.522-2.604l0,0C12.173,15.411,11.563,13.963,11.254,12.682z"/>
		</g>
	</g>
</g>
<g id="Cezve">
</g>
</svg>
