<?xml version="1.0" encoding="iso-8859-1"?>
<!-- Generator: Adobe Illustrator 19.2.1, SVG Export Plug-In . SVG Version: 6.00 Build 0)  -->
<svg version="1.1" xmlns="http://www.w3.org/2000/svg" xmlns:xlink="http://www.w3.org/1999/xlink" x="0px" y="0px"
	 viewBox="0 0 24 24" style="enable-background:new 0 0 24 24;" xml:space="preserve">
<g id="Cutting_Board_1">
</g>
<g id="Cutting_Board_2">
</g>
<g id="Chef_x27_s_Hat_1">
</g>
<g id="Chef_x27_s_Hat_2">
</g>
<g id="Kitchen_Scale">
</g>
<g id="Measuring_Cup">
</g>
<g id="Pot_1">
</g>
<g id="Pot_2">
</g>
<g id="Wok_1">
</g>
<g id="Wok_2">
</g>
<g id="Teapot">
</g>
<g id="Plate">
</g>
<g id="Sauce_Boat">
</g>
<g id="Cauldron">
</g>
<g id="Cookbook">
</g>
<g id="Salt_Pot">
</g>
<g id="Pepper_Pot_1">
</g>
<g id="Pepper_Pot_2">
</g>
<g id="Egg_Timer">
</g>
<g id="Olive_Oil_Pot">
</g>
<g id="Pancake_Griddle">
</g>
<g id="Pan">
</g>
<g id="Kettle">
</g>
<g id="Microwave">
</g>
<g id="Cooker">
</g>
<g id="Meat_Grinder">
</g>
<g id="Coffee_Maker">
</g>
<g id="Household_Mixer">
</g>
<g id="Stand_Mixer">
</g>
<g id="Hand_Blender">
</g>
<g id="Blender">
</g>
<g id="Cooker_Hood">
</g>
<g id="Refrigerator">
</g>
<g id="Freezer">
</g>
<g id="Apron">
</g>
<g id="Oven_Gloves">
</g>
<g id="Rolling_Pin">
</g>
<g id="Sieve">
</g>
<g id="Tea_Sieve">
</g>
<g id="Grater">
</g>
<g id="Knife_Holder">
</g>
<g id="Funnel">
</g>
<g id="Kitchen_Clock">
</g>
<g id="Lemon_Juicer">
</g>
<g id="Pastry_Bag_1">
</g>
<g id="Pastry_Bag_2">
</g>
<g id="Corkscrew">
</g>
<g id="Bottle_Opener">
</g>
<g id="Service">
</g>
<g id="Chopsticks">
</g>
<g id="Hatchet">
</g>
<g id="Filleting_Knife">
</g>
<g id="Bread_Knife">
</g>
<g id="Herb_Knife">
</g>
<g id="Whetting">
</g>
<g id="Cake_Knife">
</g>
<g id="Layer_58">
</g>
<g id="Ladle">
</g>
<g id="Sauce_Spoon">
</g>
<g id="Egg_Beater">
</g>
<g id="Meat_Fork">
	<g>
		<g>
			<path d="M11.535,24c-1.396,0-2.533-0.88-2.588-2.003c-0.057-1.174-0.01-2.057,0.138-2.624l0.037-0.14
				c0.319-1.21,1.289-4.893,0.637-6.551c-0.101-0.257,0.025-0.547,0.282-0.647c0.256-0.104,0.547,0.024,0.648,0.282
				c0.684,1.738,0.039,4.745-0.601,7.17l-0.036,0.14c-0.122,0.462-0.158,1.265-0.107,2.321C9.974,22.528,10.687,23,11.535,23
				c0.848,0,1.56-0.472,1.588-1.052c0.051-1.057,0.015-1.859-0.107-2.321l-0.036-0.138c-0.639-2.426-1.284-5.433-0.601-7.172
				c0.101-0.258,0.394-0.384,0.648-0.283c0.257,0.102,0.383,0.392,0.282,0.648c-0.652,1.658,0.318,5.342,0.637,6.552l0.037,0.139
				c0.148,0.567,0.195,1.45,0.138,2.624C14.067,23.12,12.931,24,11.535,24z"/>
		</g>
		<g>
			<path d="M11.5,13C9.57,13,8,11.43,8,9.5V1.31C8,0.588,8.588,0,9.31,0h0.004c0.643,0,1.187,0.46,1.292,1.095l0.352,8.388
				C10.97,9.772,11.207,10,11.498,10c0.295,0,0.532-0.228,0.544-0.519l0.346-8.325C12.5,0.46,13.043,0,13.686,0
				C14.412,0,15,0.588,15,1.31V9.5C15,11.43,13.43,13,11.5,13z M9.31,1C9.139,1,9,1.139,9,1.31V9.5c0,1.379,1.122,2.5,2.5,2.5
				S14,10.879,14,9.5V1.31c0.001-0.327-0.567-0.365-0.62-0.051l-0.339,8.265C13.006,10.352,12.331,11,11.502,11
				c-0.833,0-1.509-0.648-1.543-1.476L9.613,1.197C9.595,1.108,9.466,1,9.314,1H9.31z"/>
		</g>
	</g>
</g>
<g id="Kitchen_Spoon_1">
</g>
<g id="Kitchen_Spoon_2">
</g>
<g id="Pizza_Cutter">
</g>
<g id="Potato_Musher">
</g>
<g id="Peeler">
</g>
<g id="Honey_Dipper">
</g>
<g id="Fork">
</g>
<g id="Knife">
</g>
<g id="Spoon">
</g>
<g id="Cutlery_Set">
</g>
<g id="Sugar_Bowl">
</g>
<g id="Matches">
</g>
<g id="Cezve">
</g>
</svg>
