<?xml version="1.0" encoding="iso-8859-1"?>
<!-- Generator: Adobe Illustrator 19.2.1, SVG Export Plug-In . SVG Version: 6.00 Build 0)  -->
<svg version="1.1" xmlns="http://www.w3.org/2000/svg" xmlns:xlink="http://www.w3.org/1999/xlink" x="0px" y="0px"
	 viewBox="0 0 24 24" style="enable-background:new 0 0 24 24;" xml:space="preserve">
<g id="Cutting_Board_1">
</g>
<g id="Cutting_Board_2">
</g>
<g id="Chef_x27_s_Hat_1">
</g>
<g id="Chef_x27_s_Hat_2">
</g>
<g id="Kitchen_Scale">
</g>
<g id="Measuring_Cup">
</g>
<g id="Pot_1">
</g>
<g id="Pot_2">
</g>
<g id="Wok_1">
</g>
<g id="Wok_2">
</g>
<g id="Teapot">
</g>
<g id="Plate">
</g>
<g id="Sauce_Boat">
</g>
<g id="Cauldron">
</g>
<g id="Cookbook">
</g>
<g id="Salt_Pot">
</g>
<g id="Pepper_Pot_1">
</g>
<g id="Pepper_Pot_2">
</g>
<g id="Egg_Timer">
</g>
<g id="Olive_Oil_Pot">
</g>
<g id="Pancake_Griddle">
</g>
<g id="Pan">
</g>
<g id="Kettle">
</g>
<g id="Microwave">
</g>
<g id="Cooker">
</g>
<g id="Meat_Grinder">
	<g>
		<g>
			<path d="M23.5,23h-14C9.224,23,9,22.776,9,22.5v-13C9,9.224,9.224,9,9.5,9h2C18.393,9,24,14.607,24,21.5v1
				C24,22.776,23.776,23,23.5,23z M10,22h13v-0.5C23,15.159,17.841,10,11.5,10H10V22z"/>
		</g>
		<g>
			<path d="M1.5,15C0.673,15,0,14.327,0,13.5v-3C0,9.673,0.673,9,1.5,9S3,9.673,3,10.5v3C3,14.327,2.327,15,1.5,15z M1.5,10
				C1.225,10,1,10.224,1,10.5v3C1,13.776,1.225,14,1.5,14S2,13.776,2,13.5v-3C2,10.224,1.775,10,1.5,10z"/>
		</g>
		<g>
			<path d="M9.5,14h-7C2.224,14,2,13.776,2,13.5v-3C2,10.224,2.224,10,2.5,10H4V3.5C4,3.224,4.224,3,4.5,3h3C7.776,3,8,3.224,8,3.5
				V10h1.5c0.276,0,0.5,0.224,0.5,0.5v3C10,13.776,9.776,14,9.5,14z M3,13h6v-2H7.5C7.224,11,7,10.776,7,10.5V4H5v6.5
				C5,10.776,4.776,11,4.5,11H3V13z"/>
		</g>
		<g>
			<path d="M8.5,4h-5C1.57,4,0,2.43,0,0.5C0,0.224,0.224,0,0.5,0h11C11.776,0,12,0.224,12,0.5C12,2.43,10.43,4,8.5,4z M1.05,1
				C1.282,2.14,2.293,3,3.5,3h5c1.207,0,2.218-0.86,2.45-2H1.05z"/>
		</g>
		<g>
			<path d="M11.5,24c-0.276,0-0.5-0.224-0.5-0.5v-1c0-0.276,0.224-0.5,0.5-0.5s0.5,0.224,0.5,0.5v1C12,23.776,11.776,24,11.5,24z"/>
		</g>
		<g>
			<path d="M21.5,24c-0.276,0-0.5-0.224-0.5-0.5v-1c0-0.276,0.224-0.5,0.5-0.5s0.5,0.224,0.5,0.5v1C22,23.776,21.776,24,21.5,24z"/>
		</g>
		<g>
			<path d="M13.5,16c-0.827,0-1.5-0.673-1.5-1.5s0.673-1.5,1.5-1.5s1.5,0.673,1.5,1.5S14.327,16,13.5,16z M13.5,14
				c-0.275,0-0.5,0.224-0.5,0.5s0.225,0.5,0.5,0.5s0.5-0.224,0.5-0.5S13.775,14,13.5,14z"/>
		</g>
		<g>
			<circle cx="13.5" cy="18.5" r="0.5"/>
		</g>
	</g>
</g>
<g id="Coffee_Maker">
</g>
<g id="Household_Mixer">
</g>
<g id="Stand_Mixer">
</g>
<g id="Hand_Blender">
</g>
<g id="Blender">
</g>
<g id="Cooker_Hood">
</g>
<g id="Refrigerator">
</g>
<g id="Freezer">
</g>
<g id="Apron">
</g>
<g id="Oven_Gloves">
</g>
<g id="Rolling_Pin">
</g>
<g id="Sieve">
</g>
<g id="Tea_Sieve">
</g>
<g id="Grater">
</g>
<g id="Knife_Holder">
</g>
<g id="Funnel">
</g>
<g id="Kitchen_Clock">
</g>
<g id="Lemon_Juicer">
</g>
<g id="Pastry_Bag_1">
</g>
<g id="Pastry_Bag_2">
</g>
<g id="Corkscrew">
</g>
<g id="Bottle_Opener">
</g>
<g id="Service">
</g>
<g id="Chopsticks">
</g>
<g id="Hatchet">
</g>
<g id="Filleting_Knife">
</g>
<g id="Bread_Knife">
</g>
<g id="Herb_Knife">
</g>
<g id="Whetting">
</g>
<g id="Cake_Knife">
</g>
<g id="Layer_58">
</g>
<g id="Ladle">
</g>
<g id="Sauce_Spoon">
</g>
<g id="Egg_Beater">
</g>
<g id="Meat_Fork">
</g>
<g id="Kitchen_Spoon_1">
</g>
<g id="Kitchen_Spoon_2">
</g>
<g id="Pizza_Cutter">
</g>
<g id="Potato_Musher">
</g>
<g id="Peeler">
</g>
<g id="Honey_Dipper">
</g>
<g id="Fork">
</g>
<g id="Knife">
</g>
<g id="Spoon">
</g>
<g id="Cutlery_Set">
</g>
<g id="Sugar_Bowl">
</g>
<g id="Matches">
</g>
<g id="Cezve">
</g>
</svg>
