<?xml version="1.0" encoding="iso-8859-1"?>
<!-- Generator: Adobe Illustrator 19.2.1, SVG Export Plug-In . SVG Version: 6.00 Build 0)  -->
<svg version="1.1" xmlns="http://www.w3.org/2000/svg" xmlns:xlink="http://www.w3.org/1999/xlink" x="0px" y="0px"
	 viewBox="0 0 24 24" style="enable-background:new 0 0 24 24;" xml:space="preserve">
<g id="Cutting_Board_1">
</g>
<g id="Cutting_Board_2">
</g>
<g id="Chef_x27_s_Hat_1">
</g>
<g id="Chef_x27_s_Hat_2">
</g>
<g id="Kitchen_Scale">
</g>
<g id="Measuring_Cup">
</g>
<g id="Pot_1">
</g>
<g id="Pot_2">
</g>
<g id="Wok_1">
</g>
<g id="Wok_2">
</g>
<g id="Teapot">
</g>
<g id="Plate">
</g>
<g id="Sauce_Boat">
</g>
<g id="Cauldron">
</g>
<g id="Cookbook">
</g>
<g id="Salt_Pot">
</g>
<g id="Pepper_Pot_1">
</g>
<g id="Pepper_Pot_2">
</g>
<g id="Egg_Timer">
</g>
<g id="Olive_Oil_Pot">
</g>
<g id="Pancake_Griddle">
</g>
<g id="Pan">
</g>
<g id="Kettle">
</g>
<g id="Microwave">
	<g>
		<g>
			<path d="M21.5,21h-19C1.122,21,0,19.878,0,18.5v-14C0,3.122,1.122,2,2.5,2h19C22.878,2,24,3.122,24,4.5v14
				C24,19.878,22.878,21,21.5,21z M2.5,3C1.673,3,1,3.673,1,4.5v14C1,19.327,1.673,20,2.5,20h19c0.827,0,1.5-0.673,1.5-1.5v-14
				C23,3.673,22.327,3,21.5,3H2.5z"/>
		</g>
		<g>
			<path d="M18.5,18h-16C2.224,18,2,17.776,2,17.5v-12C2,5.224,2.224,5,2.5,5h16C18.776,5,19,5.224,19,5.5v12
				C19,17.776,18.776,18,18.5,18z M3,17h15V6H3V17z"/>
		</g>
		<g>
			<path d="M21,8c-0.551,0-1-0.449-1-1s0.449-1,1-1s1,0.449,1,1S21.551,8,21,8z M21,6.999C21,7,21,7,21,6.999L21.5,7L21,6.999z"/>
		</g>
		<g>
			<path d="M21,12c-0.551,0-1-0.449-1-1s0.449-1,1-1s1,0.449,1,1S21.551,12,21,12z M21,10.999C21,11,21,11,21,10.999L21.5,11
				L21,10.999z"/>
		</g>
		<g>
			<path d="M21.5,17h-1c-0.276,0-0.5-0.224-0.5-0.5v-2c0-0.276,0.224-0.5,0.5-0.5h1c0.276,0,0.5,0.224,0.5,0.5v2
				C22,16.776,21.776,17,21.5,17z"/>
		</g>
		<g>
			<path d="M15.5,15.5c-0.827,0-1.5-0.673-1.5-1.5V8.5C14,7.673,14.673,7,15.5,7S17,7.673,17,8.5V14
				C17,14.827,16.327,15.5,15.5,15.5z M15.5,8C15.224,8,15,8.224,15,8.5V14c0,0.276,0.224,0.5,0.5,0.5S16,14.276,16,14V8.5
				C16,8.224,15.776,8,15.5,8z"/>
		</g>
		<g>
			<path d="M2.5,22C2.224,22,2,21.776,2,21.5v-1C2,20.224,2.224,20,2.5,20S3,20.224,3,20.5v1C3,21.776,2.776,22,2.5,22z"/>
		</g>
		<g>
			<path d="M21.5,22c-0.276,0-0.5-0.224-0.5-0.5v-1c0-0.276,0.224-0.5,0.5-0.5s0.5,0.224,0.5,0.5v1C22,21.776,21.776,22,21.5,22z"/>
		</g>
		<g>
			<path d="M4.5,10C4.224,10,4,9.776,4,9.5S4.224,9,4.5,9c1.033,0,2.122-0.266,3.174-0.523C8.679,8.232,9.628,8,10.5,8
				C10.776,8,11,8.224,11,8.5S10.776,9,10.5,9C9.748,9,8.856,9.218,7.912,9.449C6.801,9.72,5.653,10,4.5,10z"/>
		</g>
		<g>
			<path d="M4.5,15C4.224,15,4,14.776,4,14.5S4.224,14,4.5,14c1.033,0,2.122-0.266,3.174-0.523C8.679,13.232,9.628,13,10.5,13
				c0.276,0,0.5,0.224,0.5,0.5S10.776,14,10.5,14c-0.752,0-1.644,0.218-2.588,0.449C6.801,14.72,5.653,15,4.5,15z"/>
		</g>
	</g>
</g>
<g id="Cooker">
</g>
<g id="Meat_Grinder">
</g>
<g id="Coffee_Maker">
</g>
<g id="Household_Mixer">
</g>
<g id="Stand_Mixer">
</g>
<g id="Hand_Blender">
</g>
<g id="Blender">
</g>
<g id="Cooker_Hood">
</g>
<g id="Refrigerator">
</g>
<g id="Freezer">
</g>
<g id="Apron">
</g>
<g id="Oven_Gloves">
</g>
<g id="Rolling_Pin">
</g>
<g id="Sieve">
</g>
<g id="Tea_Sieve">
</g>
<g id="Grater">
</g>
<g id="Knife_Holder">
</g>
<g id="Funnel">
</g>
<g id="Kitchen_Clock">
</g>
<g id="Lemon_Juicer">
</g>
<g id="Pastry_Bag_1">
</g>
<g id="Pastry_Bag_2">
</g>
<g id="Corkscrew">
</g>
<g id="Bottle_Opener">
</g>
<g id="Service">
</g>
<g id="Chopsticks">
</g>
<g id="Hatchet">
</g>
<g id="Filleting_Knife">
</g>
<g id="Bread_Knife">
</g>
<g id="Herb_Knife">
</g>
<g id="Whetting">
</g>
<g id="Cake_Knife">
</g>
<g id="Layer_58">
</g>
<g id="Ladle">
</g>
<g id="Sauce_Spoon">
</g>
<g id="Egg_Beater">
</g>
<g id="Meat_Fork">
</g>
<g id="Kitchen_Spoon_1">
</g>
<g id="Kitchen_Spoon_2">
</g>
<g id="Pizza_Cutter">
</g>
<g id="Potato_Musher">
</g>
<g id="Peeler">
</g>
<g id="Honey_Dipper">
</g>
<g id="Fork">
</g>
<g id="Knife">
</g>
<g id="Spoon">
</g>
<g id="Cutlery_Set">
</g>
<g id="Sugar_Bowl">
</g>
<g id="Matches">
</g>
<g id="Cezve">
</g>
</svg>
