<?xml version="1.0" encoding="iso-8859-1"?>
<!-- Generator: Adobe Illustrator 19.2.1, SVG Export Plug-In . SVG Version: 6.00 Build 0)  -->
<svg version="1.1" xmlns="http://www.w3.org/2000/svg" xmlns:xlink="http://www.w3.org/1999/xlink" x="0px" y="0px"
	 viewBox="0 0 24 24" style="enable-background:new 0 0 24 24;" xml:space="preserve">
<g id="Cutting_Board_1">
</g>
<g id="Cutting_Board_2">
</g>
<g id="Chef_x27_s_Hat_1">
</g>
<g id="Chef_x27_s_Hat_2">
</g>
<g id="Kitchen_Scale">
</g>
<g id="Measuring_Cup">
</g>
<g id="Pot_1">
</g>
<g id="Pot_2">
</g>
<g id="Wok_1">
</g>
<g id="Wok_2">
</g>
<g id="Teapot">
</g>
<g id="Plate">
</g>
<g id="Sauce_Boat">
</g>
<g id="Cauldron">
</g>
<g id="Cookbook">
</g>
<g id="Salt_Pot">
</g>
<g id="Pepper_Pot_1">
</g>
<g id="Pepper_Pot_2">
</g>
<g id="Egg_Timer">
</g>
<g id="Olive_Oil_Pot">
	<g>
		<g>
			<path d="M14.5,24h-8C6.224,24,6,23.776,6,23.5V12.162c0-1.984,1.191-3.753,3-4.508V5.5C9,5.224,9.224,5,9.5,5S10,5.224,10,5.5V8
				c0,0.215-0.138,0.406-0.342,0.474C8.068,9.004,7,10.486,7,12.162V23h7V12.162c0-1.676-1.068-3.158-2.658-3.688
				C11.138,8.406,11,8.215,11,8V5.5C11,5.224,11.224,5,11.5,5S12,5.224,12,5.5v2.154c1.809,0.755,3,2.524,3,4.508V23.5
				C15,23.776,14.776,24,14.5,24z"/>
		</g>
		<g>
			<path d="M8.5,22C8.224,22,8,21.776,8,21.5v-9.338c0-1.245,0.793-2.346,1.974-2.739c0.263-0.087,0.545,0.054,0.633,0.316
				c0.087,0.262-0.055,0.545-0.316,0.632C9.519,10.629,9,11.349,9,12.162V21.5C9,21.776,8.776,22,8.5,22z"/>
		</g>
		<g>
			<path d="M10.5,6C10.224,6,10,5.776,10,5.5v-3c0-0.078,0.019-0.154,0.053-0.224l1-2c0.124-0.248,0.425-0.345,0.671-0.224
				c0.247,0.124,0.347,0.424,0.224,0.671L11,2.618V5.5C11,5.776,10.776,6,10.5,6z"/>
		</g>
		<g>
			<path d="M12.5,6h-4C8.224,6,8,5.776,8,5.5S8.224,5,8.5,5h4C12.776,5,13,5.224,13,5.5S12.776,6,12.5,6z"/>
		</g>
	</g>
</g>
<g id="Pancake_Griddle">
</g>
<g id="Pan">
</g>
<g id="Kettle">
</g>
<g id="Microwave">
</g>
<g id="Cooker">
</g>
<g id="Meat_Grinder">
</g>
<g id="Coffee_Maker">
</g>
<g id="Household_Mixer">
</g>
<g id="Stand_Mixer">
</g>
<g id="Hand_Blender">
</g>
<g id="Blender">
</g>
<g id="Cooker_Hood">
</g>
<g id="Refrigerator">
</g>
<g id="Freezer">
</g>
<g id="Apron">
</g>
<g id="Oven_Gloves">
</g>
<g id="Rolling_Pin">
</g>
<g id="Sieve">
</g>
<g id="Tea_Sieve">
</g>
<g id="Grater">
</g>
<g id="Knife_Holder">
</g>
<g id="Funnel">
</g>
<g id="Kitchen_Clock">
</g>
<g id="Lemon_Juicer">
</g>
<g id="Pastry_Bag_1">
</g>
<g id="Pastry_Bag_2">
</g>
<g id="Corkscrew">
</g>
<g id="Bottle_Opener">
</g>
<g id="Service">
</g>
<g id="Chopsticks">
</g>
<g id="Hatchet">
</g>
<g id="Filleting_Knife">
</g>
<g id="Bread_Knife">
</g>
<g id="Herb_Knife">
</g>
<g id="Whetting">
</g>
<g id="Cake_Knife">
</g>
<g id="Layer_58">
</g>
<g id="Ladle">
</g>
<g id="Sauce_Spoon">
</g>
<g id="Egg_Beater">
</g>
<g id="Meat_Fork">
</g>
<g id="Kitchen_Spoon_1">
</g>
<g id="Kitchen_Spoon_2">
</g>
<g id="Pizza_Cutter">
</g>
<g id="Potato_Musher">
</g>
<g id="Peeler">
</g>
<g id="Honey_Dipper">
</g>
<g id="Fork">
</g>
<g id="Knife">
</g>
<g id="Spoon">
</g>
<g id="Cutlery_Set">
</g>
<g id="Sugar_Bowl">
</g>
<g id="Matches">
</g>
<g id="Cezve">
</g>
</svg>
