<?xml version="1.0" encoding="iso-8859-1"?>
<!-- Generator: Adobe Illustrator 19.2.1, SVG Export Plug-In . SVG Version: 6.00 Build 0)  -->
<svg version="1.1" xmlns="http://www.w3.org/2000/svg" xmlns:xlink="http://www.w3.org/1999/xlink" x="0px" y="0px"
	 viewBox="0 0 24 24" style="enable-background:new 0 0 24 24;" xml:space="preserve">
<g id="Cutting_Board_1">
</g>
<g id="Cutting_Board_2">
</g>
<g id="Chef_x27_s_Hat_1">
</g>
<g id="Chef_x27_s_Hat_2">
</g>
<g id="Kitchen_Scale">
</g>
<g id="Measuring_Cup">
</g>
<g id="Pot_1">
</g>
<g id="Pot_2">
</g>
<g id="Wok_1">
</g>
<g id="Wok_2">
</g>
<g id="Teapot">
</g>
<g id="Plate">
</g>
<g id="Sauce_Boat">
</g>
<g id="Cauldron">
</g>
<g id="Cookbook">
</g>
<g id="Salt_Pot">
</g>
<g id="Pepper_Pot_1">
</g>
<g id="Pepper_Pot_2">
</g>
<g id="Egg_Timer">
</g>
<g id="Olive_Oil_Pot">
</g>
<g id="Pancake_Griddle">
</g>
<g id="Pan">
</g>
<g id="Kettle">
</g>
<g id="Microwave">
</g>
<g id="Cooker">
</g>
<g id="Meat_Grinder">
</g>
<g id="Coffee_Maker">
</g>
<g id="Household_Mixer">
</g>
<g id="Stand_Mixer">
</g>
<g id="Hand_Blender">
</g>
<g id="Blender">
</g>
<g id="Cooker_Hood">
</g>
<g id="Refrigerator">
</g>
<g id="Freezer">
</g>
<g id="Apron">
</g>
<g id="Oven_Gloves">
	<g>
		<g>
			<path d="M14.165,24c-1.387,0-2.615-0.519-3.531-1.461C9.71,21.587,9.222,20.331,9.26,19c0.035-1.236,0.014-1.998-0.023-2.466
				c-0.174,0.213-0.354,0.452-0.541,0.713c-0.433,0.607-1.105,0.991-1.847,1.053c-0.731,0.06-1.461-0.203-1.984-0.728
				c-0.869-0.87-0.985-2.229-0.276-3.232c1.313-1.855,2.18-3.279,2.441-4.008c0.298-0.83,0.637-3.428,0.905-6.949
				C7.994,2.607,8.651,2,9.431,2H17.5C18.327,2,19,2.673,19,3.5v15.665C19,21.831,16.831,24,14.165,24z M9.5,15
				c0.128,0,0.256,0.049,0.354,0.146c0.254,0.254,0.495,0.763,0.406,3.881c-0.03,1.059,0.357,2.058,1.092,2.814
				C12.077,22.588,13.051,23,14.092,23C16.279,23,18,21.279,18,19.165V3.5C18,3.224,17.775,3,17.5,3H9.431
				C9.166,3,8.952,3.197,8.932,3.458c-0.164,2.151-0.508,5.947-0.961,7.211c-0.373,1.041-1.602,2.884-2.566,4.248
				c-0.428,0.604-0.357,1.423,0.167,1.948c0.314,0.315,0.749,0.471,1.194,0.438c0.447-0.037,0.854-0.269,1.115-0.636
				c0.449-0.631,0.877-1.145,1.271-1.525C9.25,15.047,9.375,15,9.5,15z"/>
		</g>
		<g>
			<path d="M16.5,3c-0.075,0-0.151-0.017-0.224-0.053c-0.247-0.124-0.347-0.424-0.224-0.671l1-2
				c0.124-0.248,0.425-0.345,0.671-0.224c0.247,0.124,0.347,0.424,0.224,0.671l-1,2C16.859,2.899,16.683,3,16.5,3z"/>
		</g>
		<g>
			<g>
				<path d="M9.5,6h-1C8.224,6,8,5.776,8,5.5S8.224,5,8.5,5h1C9.776,5,10,5.224,10,5.5S9.776,6,9.5,6z"/>
			</g>
			<g>
				<path d="M15.899,6h-1.6c-0.276,0-0.5-0.224-0.5-0.5S14.023,5,14.3,5h1.6c0.276,0,0.5,0.224,0.5,0.5S16.176,6,15.899,6z
					 M12.699,6h-1.6c-0.276,0-0.5-0.224-0.5-0.5S10.823,5,11.1,5h1.6c0.276,0,0.5,0.224,0.5,0.5S12.976,6,12.699,6z"/>
			</g>
			<g>
				<path d="M18.5,6h-1C17.224,6,17,5.776,17,5.5S17.224,5,17.5,5h1C18.776,5,19,5.224,19,5.5S18.776,6,18.5,6z"/>
			</g>
		</g>
	</g>
</g>
<g id="Rolling_Pin">
</g>
<g id="Sieve">
</g>
<g id="Tea_Sieve">
</g>
<g id="Grater">
</g>
<g id="Knife_Holder">
</g>
<g id="Funnel">
</g>
<g id="Kitchen_Clock">
</g>
<g id="Lemon_Juicer">
</g>
<g id="Pastry_Bag_1">
</g>
<g id="Pastry_Bag_2">
</g>
<g id="Corkscrew">
</g>
<g id="Bottle_Opener">
</g>
<g id="Service">
</g>
<g id="Chopsticks">
</g>
<g id="Hatchet">
</g>
<g id="Filleting_Knife">
</g>
<g id="Bread_Knife">
</g>
<g id="Herb_Knife">
</g>
<g id="Whetting">
</g>
<g id="Cake_Knife">
</g>
<g id="Layer_58">
</g>
<g id="Ladle">
</g>
<g id="Sauce_Spoon">
</g>
<g id="Egg_Beater">
</g>
<g id="Meat_Fork">
</g>
<g id="Kitchen_Spoon_1">
</g>
<g id="Kitchen_Spoon_2">
</g>
<g id="Pizza_Cutter">
</g>
<g id="Potato_Musher">
</g>
<g id="Peeler">
</g>
<g id="Honey_Dipper">
</g>
<g id="Fork">
</g>
<g id="Knife">
</g>
<g id="Spoon">
</g>
<g id="Cutlery_Set">
</g>
<g id="Sugar_Bowl">
</g>
<g id="Matches">
</g>
<g id="Cezve">
</g>
</svg>
