<?xml version="1.0" encoding="iso-8859-1"?>
<!-- Generator: Adobe Illustrator 19.2.1, SVG Export Plug-In . SVG Version: 6.00 Build 0)  -->
<svg version="1.1" xmlns="http://www.w3.org/2000/svg" xmlns:xlink="http://www.w3.org/1999/xlink" x="0px" y="0px"
	 viewBox="0 0 24 24" style="enable-background:new 0 0 24 24;" xml:space="preserve">
<g id="Cutting_Board_1">
</g>
<g id="Cutting_Board_2">
</g>
<g id="Chef_x27_s_Hat_1">
</g>
<g id="Chef_x27_s_Hat_2">
</g>
<g id="Kitchen_Scale">
</g>
<g id="Measuring_Cup">
</g>
<g id="Pot_1">
</g>
<g id="Pot_2">
</g>
<g id="Wok_1">
</g>
<g id="Wok_2">
</g>
<g id="Teapot">
</g>
<g id="Plate">
</g>
<g id="Sauce_Boat">
</g>
<g id="Cauldron">
</g>
<g id="Cookbook">
</g>
<g id="Salt_Pot">
</g>
<g id="Pepper_Pot_1">
</g>
<g id="Pepper_Pot_2">
</g>
<g id="Egg_Timer">
</g>
<g id="Olive_Oil_Pot">
</g>
<g id="Pancake_Griddle">
</g>
<g id="Pan">
	<g>
		<g>
			<path d="M6.5,11C4.072,11,0,10.805,0,9.5S4.072,8,6.5,8S13,8.195,13,9.5S8.928,11,6.5,11z M1.364,9.5
				C2.134,9.732,3.866,10,6.5,10s4.366-0.268,5.136-0.5C10.866,9.268,9.134,9,6.5,9S2.134,9.268,1.364,9.5z M12.065,9.688h0.01
				H12.065z"/>
		</g>
		<g>
			<path d="M12.5,10.5c-0.242,0-0.453-0.175-0.493-0.418c-0.043-0.259,0.122-0.508,0.377-0.568l10.5-2.5C22.922,7.004,22.961,7,23,7
				c0.561,0,1,0.549,1,1.25S23.561,9.5,23,9.5l-10.453,0.998C12.531,10.5,12.515,10.5,12.5,10.5z M22.954,8.025l-3.34,0.795
				l3.339-0.318C22.947,8.501,23,8.403,23,8.25C23,8.148,22.977,8.072,22.954,8.025z"/>
		</g>
		<g>
			<path d="M9.523,18H3.477c-1.762,0-3.255-1.318-3.473-3.066L0,9.5C0,9.224,0.224,9,0.5,9S1,9.224,1,9.5v5.372
				C1.152,16.059,2.219,17,3.477,17h6.046c1.258,0,2.325-0.941,2.481-2.19L12,9.5C12,9.224,12.224,9,12.5,9S13,9.224,13,9.5v5.372
				C12.778,16.682,11.285,18,9.523,18z"/>
		</g>
	</g>
</g>
<g id="Kettle">
</g>
<g id="Microwave">
</g>
<g id="Cooker">
</g>
<g id="Meat_Grinder">
</g>
<g id="Coffee_Maker">
</g>
<g id="Household_Mixer">
</g>
<g id="Stand_Mixer">
</g>
<g id="Hand_Blender">
</g>
<g id="Blender">
</g>
<g id="Cooker_Hood">
</g>
<g id="Refrigerator">
</g>
<g id="Freezer">
</g>
<g id="Apron">
</g>
<g id="Oven_Gloves">
</g>
<g id="Rolling_Pin">
</g>
<g id="Sieve">
</g>
<g id="Tea_Sieve">
</g>
<g id="Grater">
</g>
<g id="Knife_Holder">
</g>
<g id="Funnel">
</g>
<g id="Kitchen_Clock">
</g>
<g id="Lemon_Juicer">
</g>
<g id="Pastry_Bag_1">
</g>
<g id="Pastry_Bag_2">
</g>
<g id="Corkscrew">
</g>
<g id="Bottle_Opener">
</g>
<g id="Service">
</g>
<g id="Chopsticks">
</g>
<g id="Hatchet">
</g>
<g id="Filleting_Knife">
</g>
<g id="Bread_Knife">
</g>
<g id="Herb_Knife">
</g>
<g id="Whetting">
</g>
<g id="Cake_Knife">
</g>
<g id="Layer_58">
</g>
<g id="Ladle">
</g>
<g id="Sauce_Spoon">
</g>
<g id="Egg_Beater">
</g>
<g id="Meat_Fork">
</g>
<g id="Kitchen_Spoon_1">
</g>
<g id="Kitchen_Spoon_2">
</g>
<g id="Pizza_Cutter">
</g>
<g id="Potato_Musher">
</g>
<g id="Peeler">
</g>
<g id="Honey_Dipper">
</g>
<g id="Fork">
</g>
<g id="Knife">
</g>
<g id="Spoon">
</g>
<g id="Cutlery_Set">
</g>
<g id="Sugar_Bowl">
</g>
<g id="Matches">
</g>
<g id="Cezve">
</g>
</svg>
