<?xml version="1.0" encoding="iso-8859-1"?>
<!-- Generator: Adobe Illustrator 19.2.1, SVG Export Plug-In . SVG Version: 6.00 Build 0)  -->
<svg version="1.1" xmlns="http://www.w3.org/2000/svg" xmlns:xlink="http://www.w3.org/1999/xlink" x="0px" y="0px"
	 viewBox="0 0 24 24" style="enable-background:new 0 0 24 24;" xml:space="preserve">
<g id="Cutting_Board_1">
</g>
<g id="Cutting_Board_2">
</g>
<g id="Chef_x27_s_Hat_1">
</g>
<g id="Chef_x27_s_Hat_2">
</g>
<g id="Kitchen_Scale">
</g>
<g id="Measuring_Cup">
</g>
<g id="Pot_1">
</g>
<g id="Pot_2">
</g>
<g id="Wok_1">
</g>
<g id="Wok_2">
</g>
<g id="Teapot">
</g>
<g id="Plate">
</g>
<g id="Sauce_Boat">
</g>
<g id="Cauldron">
</g>
<g id="Cookbook">
</g>
<g id="Salt_Pot">
</g>
<g id="Pepper_Pot_1">
</g>
<g id="Pepper_Pot_2">
</g>
<g id="Egg_Timer">
</g>
<g id="Olive_Oil_Pot">
</g>
<g id="Pancake_Griddle">
	<g>
		<g>
			<path d="M9.264,15.5H3.736c-0.891,0-1.771-0.379-2.479-1.067C0.47,13.668,0,12.385,0,11c0-0.276,0.224-0.5,0.5-0.5S1,10.724,1,11
				c0,1.12,0.356,2.135,0.953,2.716C2.481,14.229,3.098,14.5,3.736,14.5h5.528c0.638,0,1.254-0.271,1.783-0.785
				C11.644,13.135,12,12.12,12,11c0-0.276,0.224-0.5,0.5-0.5S13,10.724,13,11c0,1.385-0.47,2.668-1.256,3.433
				C11.035,15.121,10.155,15.5,9.264,15.5z"/>
		</g>
		<g>
			<path d="M6.5,12.5C4.072,12.5,0,12.305,0,11s4.072-1.5,6.5-1.5S13,9.695,13,11S8.928,12.5,6.5,12.5z M1.364,11
				c0.77,0.232,2.501,0.5,5.136,0.5s4.366-0.268,5.136-0.5c-0.77-0.232-2.501-0.5-5.136-0.5S2.134,10.768,1.364,11z M12.065,11.188
				h0.01H12.065z"/>
		</g>
		<g>
			<path d="M12.5,12c-0.242,0-0.453-0.175-0.493-0.418c-0.043-0.259,0.122-0.508,0.377-0.568l10.5-2.5
				C22.922,8.504,22.961,8.5,23,8.5c0.561,0,1,0.549,1,1.25S23.561,11,23,11l-10.453,0.998C12.531,12,12.515,12,12.5,12z
				 M22.954,9.525l-3.34,0.795l3.339-0.318C22.947,10.001,23,9.903,23,9.75C23,9.648,22.977,9.572,22.954,9.525z"/>
		</g>
	</g>
</g>
<g id="Pan">
</g>
<g id="Kettle">
</g>
<g id="Microwave">
</g>
<g id="Cooker">
</g>
<g id="Meat_Grinder">
</g>
<g id="Coffee_Maker">
</g>
<g id="Household_Mixer">
</g>
<g id="Stand_Mixer">
</g>
<g id="Hand_Blender">
</g>
<g id="Blender">
</g>
<g id="Cooker_Hood">
</g>
<g id="Refrigerator">
</g>
<g id="Freezer">
</g>
<g id="Apron">
</g>
<g id="Oven_Gloves">
</g>
<g id="Rolling_Pin">
</g>
<g id="Sieve">
</g>
<g id="Tea_Sieve">
</g>
<g id="Grater">
</g>
<g id="Knife_Holder">
</g>
<g id="Funnel">
</g>
<g id="Kitchen_Clock">
</g>
<g id="Lemon_Juicer">
</g>
<g id="Pastry_Bag_1">
</g>
<g id="Pastry_Bag_2">
</g>
<g id="Corkscrew">
</g>
<g id="Bottle_Opener">
</g>
<g id="Service">
</g>
<g id="Chopsticks">
</g>
<g id="Hatchet">
</g>
<g id="Filleting_Knife">
</g>
<g id="Bread_Knife">
</g>
<g id="Herb_Knife">
</g>
<g id="Whetting">
</g>
<g id="Cake_Knife">
</g>
<g id="Layer_58">
</g>
<g id="Ladle">
</g>
<g id="Sauce_Spoon">
</g>
<g id="Egg_Beater">
</g>
<g id="Meat_Fork">
</g>
<g id="Kitchen_Spoon_1">
</g>
<g id="Kitchen_Spoon_2">
</g>
<g id="Pizza_Cutter">
</g>
<g id="Potato_Musher">
</g>
<g id="Peeler">
</g>
<g id="Honey_Dipper">
</g>
<g id="Fork">
</g>
<g id="Knife">
</g>
<g id="Spoon">
</g>
<g id="Cutlery_Set">
</g>
<g id="Sugar_Bowl">
</g>
<g id="Matches">
</g>
<g id="Cezve">
</g>
</svg>
