<?xml version="1.0" encoding="iso-8859-1"?>
<!-- Generator: Adobe Illustrator 19.2.1, SVG Export Plug-In . SVG Version: 6.00 Build 0)  -->
<svg version="1.1" xmlns="http://www.w3.org/2000/svg" xmlns:xlink="http://www.w3.org/1999/xlink" x="0px" y="0px"
	 viewBox="0 0 24 24" style="enable-background:new 0 0 24 24;" xml:space="preserve">
<g id="Cutting_Board_1">
</g>
<g id="Cutting_Board_2">
</g>
<g id="Chef_x27_s_Hat_1">
</g>
<g id="Chef_x27_s_Hat_2">
</g>
<g id="Kitchen_Scale">
</g>
<g id="Measuring_Cup">
</g>
<g id="Pot_1">
</g>
<g id="Pot_2">
</g>
<g id="Wok_1">
</g>
<g id="Wok_2">
</g>
<g id="Teapot">
</g>
<g id="Plate">
</g>
<g id="Sauce_Boat">
</g>
<g id="Cauldron">
</g>
<g id="Cookbook">
</g>
<g id="Salt_Pot">
</g>
<g id="Pepper_Pot_1">
</g>
<g id="Pepper_Pot_2">
</g>
<g id="Egg_Timer">
</g>
<g id="Olive_Oil_Pot">
</g>
<g id="Pancake_Griddle">
</g>
<g id="Pan">
</g>
<g id="Kettle">
</g>
<g id="Microwave">
</g>
<g id="Cooker">
</g>
<g id="Meat_Grinder">
</g>
<g id="Coffee_Maker">
</g>
<g id="Household_Mixer">
</g>
<g id="Stand_Mixer">
</g>
<g id="Hand_Blender">
</g>
<g id="Blender">
</g>
<g id="Cooker_Hood">
</g>
<g id="Refrigerator">
</g>
<g id="Freezer">
</g>
<g id="Apron">
</g>
<g id="Oven_Gloves">
</g>
<g id="Rolling_Pin">
</g>
<g id="Sieve">
</g>
<g id="Tea_Sieve">
</g>
<g id="Grater">
</g>
<g id="Knife_Holder">
</g>
<g id="Funnel">
</g>
<g id="Kitchen_Clock">
</g>
<g id="Lemon_Juicer">
</g>
<g id="Pastry_Bag_1">
</g>
<g id="Pastry_Bag_2">
	<g>
		<g>
			<path d="M13.5,21h-4C8.121,21,7,19.879,7,18.5v-10C7,8.224,7.224,8,7.5,8h8C15.776,8,16,8.224,16,8.5v10
				C16,19.879,14.879,21,13.5,21z M8,9v9.5C8,19.327,8.673,20,9.5,20h4c0.827,0,1.5-0.673,1.5-1.5V9H8z"/>
		</g>
		<g>
			<path d="M15.5,9C14.121,9,13,7.879,13,6.5S14.121,4,15.5,4S18,5.121,18,6.5S16.879,9,15.5,9z M15.5,5C14.673,5,14,5.673,14,6.5
				S14.673,8,15.5,8S17,7.327,17,6.5S16.327,5,15.5,5z"/>
		</g>
		<g>
			<path d="M7.5,9C6.121,9,5,7.879,5,6.5S6.121,4,7.5,4S10,5.121,10,6.5S8.879,9,7.5,9z M7.5,5C6.673,5,6,5.673,6,6.5S6.673,8,7.5,8
				S9,7.327,9,6.5S8.327,5,7.5,5z"/>
		</g>
		<g>
			<path d="M11.5,5C10.121,5,9,3.879,9,2.5S10.121,0,11.5,0S14,1.121,14,2.5S12.879,5,11.5,5z M11.5,1C10.673,1,10,1.673,10,2.5
				S10.673,4,11.5,4S13,3.327,13,2.5S12.327,1,11.5,1z"/>
		</g>
		<g>
			<path d="M11.5,13c-0.276,0-0.5-0.224-0.5-0.5v-8C11,4.224,11.224,4,11.5,4S12,4.224,12,4.5v8C12,12.776,11.776,13,11.5,13z"/>
		</g>
		<g>
			<path d="M11.5,24c-0.167,0-0.323-0.084-0.416-0.223l-2-3c-0.103-0.153-0.112-0.351-0.024-0.514C9.146,20.102,9.315,20,9.5,20h4
				c0.185,0,0.354,0.102,0.44,0.264c0.088,0.163,0.078,0.36-0.024,0.514l-2,3C11.823,23.916,11.667,24,11.5,24z M10.435,21
				l1.065,1.599L12.565,21H10.435z"/>
		</g>
		<g>
			<path d="M15.5,13h-8C7.224,13,7,12.776,7,12.5S7.224,12,7.5,12h8c0.276,0,0.5,0.224,0.5,0.5S15.776,13,15.5,13z"/>
		</g>
	</g>
</g>
<g id="Corkscrew">
</g>
<g id="Bottle_Opener">
</g>
<g id="Service">
</g>
<g id="Chopsticks">
</g>
<g id="Hatchet">
</g>
<g id="Filleting_Knife">
</g>
<g id="Bread_Knife">
</g>
<g id="Herb_Knife">
</g>
<g id="Whetting">
</g>
<g id="Cake_Knife">
</g>
<g id="Layer_58">
</g>
<g id="Ladle">
</g>
<g id="Sauce_Spoon">
</g>
<g id="Egg_Beater">
</g>
<g id="Meat_Fork">
</g>
<g id="Kitchen_Spoon_1">
</g>
<g id="Kitchen_Spoon_2">
</g>
<g id="Pizza_Cutter">
</g>
<g id="Potato_Musher">
</g>
<g id="Peeler">
</g>
<g id="Honey_Dipper">
</g>
<g id="Fork">
</g>
<g id="Knife">
</g>
<g id="Spoon">
</g>
<g id="Cutlery_Set">
</g>
<g id="Sugar_Bowl">
</g>
<g id="Matches">
</g>
<g id="Cezve">
</g>
</svg>
