<?xml version="1.0" encoding="iso-8859-1"?>
<!-- Generator: Adobe Illustrator 19.2.1, SVG Export Plug-In . SVG Version: 6.00 Build 0)  -->
<svg version="1.1" xmlns="http://www.w3.org/2000/svg" xmlns:xlink="http://www.w3.org/1999/xlink" x="0px" y="0px"
	 viewBox="0 0 24 24" style="enable-background:new 0 0 24 24;" xml:space="preserve">
<g id="Cutting_Board_1">
</g>
<g id="Cutting_Board_2">
</g>
<g id="Chef_x27_s_Hat_1">
</g>
<g id="Chef_x27_s_Hat_2">
</g>
<g id="Kitchen_Scale">
</g>
<g id="Measuring_Cup">
</g>
<g id="Pot_1">
</g>
<g id="Pot_2">
</g>
<g id="Wok_1">
</g>
<g id="Wok_2">
</g>
<g id="Teapot">
</g>
<g id="Plate">
</g>
<g id="Sauce_Boat">
</g>
<g id="Cauldron">
</g>
<g id="Cookbook">
</g>
<g id="Salt_Pot">
</g>
<g id="Pepper_Pot_1">
</g>
<g id="Pepper_Pot_2">
</g>
<g id="Egg_Timer">
</g>
<g id="Olive_Oil_Pot">
</g>
<g id="Pancake_Griddle">
</g>
<g id="Pan">
</g>
<g id="Kettle">
</g>
<g id="Microwave">
</g>
<g id="Cooker">
</g>
<g id="Meat_Grinder">
</g>
<g id="Coffee_Maker">
</g>
<g id="Household_Mixer">
</g>
<g id="Stand_Mixer">
</g>
<g id="Hand_Blender">
</g>
<g id="Blender">
</g>
<g id="Cooker_Hood">
</g>
<g id="Refrigerator">
</g>
<g id="Freezer">
</g>
<g id="Apron">
</g>
<g id="Oven_Gloves">
</g>
<g id="Rolling_Pin">
</g>
<g id="Sieve">
</g>
<g id="Tea_Sieve">
</g>
<g id="Grater">
</g>
<g id="Knife_Holder">
</g>
<g id="Funnel">
</g>
<g id="Kitchen_Clock">
</g>
<g id="Lemon_Juicer">
</g>
<g id="Pastry_Bag_1">
	<g>
		<g>
			<path d="M12,24c-0.179,0-0.345-0.096-0.434-0.252L4.955,12.18C4.046,10.589,4.528,8.547,6.053,7.53l3.23-2.153L6.6,1.8
				C6.509,1.679,6.478,1.522,6.516,1.376c0.038-0.147,0.14-0.269,0.278-0.331C6.888,1.002,9.133,0,12,0
				c2.652,0,5.089,0.996,5.191,1.038c0.143,0.059,0.25,0.181,0.291,0.33c0.041,0.148,0.01,0.309-0.083,0.432l-2.683,3.577
				l3.23,2.153c1.524,1.017,2.006,3.059,1.098,4.649l-6.611,11.568C12.345,23.904,12.179,24,12,24z M7.797,1.729L10.4,5.2
				c0.083,0.109,0.116,0.249,0.093,0.384C10.47,5.72,10.392,5.84,10.277,5.916l-3.67,2.446c-1.089,0.727-1.433,2.186-0.784,3.321
				L12,22.492l6.177-10.809c0.649-1.136,0.305-2.595-0.784-3.321l-3.67-2.446C13.608,5.84,13.53,5.72,13.507,5.584
				C13.484,5.449,13.518,5.31,13.6,5.2l2.594-3.46C15.337,1.456,13.695,1,12,1C10.185,1,8.611,1.446,7.797,1.729z"/>
		</g>
		<g>
			<path d="M14,6h-4C9.724,6,9.5,5.776,9.5,5.5S9.724,5,10,5h4c0.276,0,0.5,0.224,0.5,0.5S14.276,6,14,6z"/>
		</g>
		<g>
			<path d="M10,10c-0.04,0-0.081-0.005-0.122-0.015C9.611,9.918,9.448,9.646,9.515,9.379l1-4c0.066-0.269,0.338-0.431,0.606-0.364
				c0.268,0.067,0.431,0.339,0.364,0.606l-1,4C10.428,9.849,10.225,10,10,10z"/>
		</g>
		<g>
			<path d="M14.5,10c-0.202,0-0.393-0.124-0.468-0.324l-1.5-4c-0.097-0.259,0.034-0.547,0.292-0.644
				c0.259-0.101,0.547,0.033,0.644,0.292l1.5,4c0.097,0.259-0.034,0.547-0.292,0.644C14.618,9.99,14.559,10,14.5,10z"/>
		</g>
		<g>
			<path d="M14,20h-4c-0.276,0-0.5-0.224-0.5-0.5S9.724,19,10,19h4c0.276,0,0.5,0.224,0.5,0.5S14.276,20,14,20z"/>
		</g>
	</g>
</g>
<g id="Pastry_Bag_2">
</g>
<g id="Corkscrew">
</g>
<g id="Bottle_Opener">
</g>
<g id="Service">
</g>
<g id="Chopsticks">
</g>
<g id="Hatchet">
</g>
<g id="Filleting_Knife">
</g>
<g id="Bread_Knife">
</g>
<g id="Herb_Knife">
</g>
<g id="Whetting">
</g>
<g id="Cake_Knife">
</g>
<g id="Layer_58">
</g>
<g id="Ladle">
</g>
<g id="Sauce_Spoon">
</g>
<g id="Egg_Beater">
</g>
<g id="Meat_Fork">
</g>
<g id="Kitchen_Spoon_1">
</g>
<g id="Kitchen_Spoon_2">
</g>
<g id="Pizza_Cutter">
</g>
<g id="Potato_Musher">
</g>
<g id="Peeler">
</g>
<g id="Honey_Dipper">
</g>
<g id="Fork">
</g>
<g id="Knife">
</g>
<g id="Spoon">
</g>
<g id="Cutlery_Set">
</g>
<g id="Sugar_Bowl">
</g>
<g id="Matches">
</g>
<g id="Cezve">
</g>
</svg>
