<?xml version="1.0" encoding="iso-8859-1"?>
<!-- Generator: Adobe Illustrator 19.2.1, SVG Export Plug-In . SVG Version: 6.00 Build 0)  -->
<svg version="1.1" xmlns="http://www.w3.org/2000/svg" xmlns:xlink="http://www.w3.org/1999/xlink" x="0px" y="0px"
	 viewBox="0 0 24 24" style="enable-background:new 0 0 24 24;" xml:space="preserve">
<g id="Cutting_Board_1">
</g>
<g id="Cutting_Board_2">
</g>
<g id="Chef_x27_s_Hat_1">
</g>
<g id="Chef_x27_s_Hat_2">
</g>
<g id="Kitchen_Scale">
</g>
<g id="Measuring_Cup">
</g>
<g id="Pot_1">
</g>
<g id="Pot_2">
</g>
<g id="Wok_1">
</g>
<g id="Wok_2">
</g>
<g id="Teapot">
</g>
<g id="Plate">
</g>
<g id="Sauce_Boat">
</g>
<g id="Cauldron">
</g>
<g id="Cookbook">
</g>
<g id="Salt_Pot">
</g>
<g id="Pepper_Pot_1">
</g>
<g id="Pepper_Pot_2">
</g>
<g id="Egg_Timer">
</g>
<g id="Olive_Oil_Pot">
</g>
<g id="Pancake_Griddle">
</g>
<g id="Pan">
</g>
<g id="Kettle">
</g>
<g id="Microwave">
</g>
<g id="Cooker">
</g>
<g id="Meat_Grinder">
</g>
<g id="Coffee_Maker">
</g>
<g id="Household_Mixer">
</g>
<g id="Stand_Mixer">
</g>
<g id="Hand_Blender">
</g>
<g id="Blender">
</g>
<g id="Cooker_Hood">
</g>
<g id="Refrigerator">
</g>
<g id="Freezer">
</g>
<g id="Apron">
</g>
<g id="Oven_Gloves">
</g>
<g id="Rolling_Pin">
</g>
<g id="Sieve">
</g>
<g id="Tea_Sieve">
</g>
<g id="Grater">
</g>
<g id="Knife_Holder">
</g>
<g id="Funnel">
</g>
<g id="Kitchen_Clock">
</g>
<g id="Lemon_Juicer">
</g>
<g id="Pastry_Bag_1">
</g>
<g id="Pastry_Bag_2">
</g>
<g id="Corkscrew">
</g>
<g id="Bottle_Opener">
</g>
<g id="Service">
</g>
<g id="Chopsticks">
</g>
<g id="Hatchet">
</g>
<g id="Filleting_Knife">
</g>
<g id="Bread_Knife">
</g>
<g id="Herb_Knife">
</g>
<g id="Whetting">
</g>
<g id="Cake_Knife">
</g>
<g id="Layer_58">
</g>
<g id="Ladle">
</g>
<g id="Sauce_Spoon">
</g>
<g id="Egg_Beater">
</g>
<g id="Meat_Fork">
</g>
<g id="Kitchen_Spoon_1">
</g>
<g id="Kitchen_Spoon_2">
</g>
<g id="Pizza_Cutter">
</g>
<g id="Potato_Musher">
</g>
<g id="Peeler">
	<g>
		<g>
			<path d="M11.5,24C10.121,24,9,22.879,9,21.5v-4.838c0-1.078-0.688-2.03-1.71-2.371l-0.529-0.177C4.512,13.364,3,11.268,3,8.896V2
				c0-1.103,0.897-2,2-2s2,0.897,2,2v6.5C7,9.879,8.121,11,9.5,11h4c1.379,0,2.5-1.121,2.5-2.5V2c0-1.103,0.897-2,2-2s2,0.897,2,2
				v6.896c0,2.371-1.512,4.468-3.761,5.218l-0.529,0.177C14.688,14.632,14,15.584,14,16.662V21.5C14,22.879,12.879,24,11.5,24z M5,1
				C4.448,1,4,1.448,4,2v6.896c0,1.939,1.236,3.655,3.077,4.269l0.529,0.177C9.038,13.819,10,15.153,10,16.662V21.5
				c0,0.827,0.673,1.5,1.5,1.5s1.5-0.673,1.5-1.5v-4.838c0-1.509,0.962-2.843,2.394-3.32l0.529-0.177
				C17.764,12.552,19,10.836,19,8.896V2c0-0.552-0.448-1-1-1s-1,0.448-1,1v6.5c0,1.93-1.57,3.5-3.5,3.5h-4C7.57,12,6,10.43,6,8.5V2
				C6,1.448,5.552,1,5,1z"/>
		</g>
		<g>
			<path d="M16.5,5h-10C6.224,5,6,4.776,6,4.5v-2C6,2.224,6.224,2,6.5,2h10C16.776,2,17,2.224,17,2.5v2C17,4.776,16.776,5,16.5,5z
				 M7,4h9V3H7V4z"/>
		</g>
		<g>
			<path d="M20.5,5h-1C19.224,5,19,4.776,19,4.5v-2C19,2.224,19.224,2,19.5,2h1C21.327,2,22,2.673,22,3.5S21.327,5,20.5,5z M20,4
				h0.5C20.775,4,21,3.775,21,3.5S20.775,3,20.5,3H20V4z"/>
		</g>
		<g>
			<path d="M3.5,5h-1C1.673,5,1,4.327,1,3.5S1.673,2,2.5,2h1C3.776,2,4,2.224,4,2.5v2C4,4.776,3.776,5,3.5,5z M2.5,3
				C2.225,3,2,3.225,2,3.5S2.225,4,2.5,4H3V3H2.5z"/>
		</g>
	</g>
</g>
<g id="Honey_Dipper">
</g>
<g id="Fork">
</g>
<g id="Knife">
</g>
<g id="Spoon">
</g>
<g id="Cutlery_Set">
</g>
<g id="Sugar_Bowl">
</g>
<g id="Matches">
</g>
<g id="Cezve">
</g>
</svg>
