<?xml version="1.0" encoding="iso-8859-1"?>
<!-- Generator: Adobe Illustrator 19.2.1, SVG Export Plug-In . SVG Version: 6.00 Build 0)  -->
<svg version="1.1" xmlns="http://www.w3.org/2000/svg" xmlns:xlink="http://www.w3.org/1999/xlink" x="0px" y="0px"
	 viewBox="0 0 24 24" style="enable-background:new 0 0 24 24;" xml:space="preserve">
<g id="Cutting_Board_1">
</g>
<g id="Cutting_Board_2">
</g>
<g id="Chef_x27_s_Hat_1">
</g>
<g id="Chef_x27_s_Hat_2">
</g>
<g id="Kitchen_Scale">
</g>
<g id="Measuring_Cup">
</g>
<g id="Pot_1">
</g>
<g id="Pot_2">
</g>
<g id="Wok_1">
</g>
<g id="Wok_2">
</g>
<g id="Teapot">
</g>
<g id="Plate">
</g>
<g id="Sauce_Boat">
</g>
<g id="Cauldron">
</g>
<g id="Cookbook">
</g>
<g id="Salt_Pot">
</g>
<g id="Pepper_Pot_1">
	<g>
		<g>
			<path d="M8.253,4.5c-0.063,0-0.126-0.012-0.187-0.036C7.914,4.403,7.802,4.271,7.766,4.111c-0.04-0.174-0.08-0.383-0.08-0.611
				c0-1.93,2.019-3.5,4.5-3.5s4.5,1.57,4.5,3.5c0,0.229-0.04,0.437-0.08,0.611c-0.036,0.16-0.148,0.292-0.301,0.353
				c-0.153,0.062-0.324,0.044-0.462-0.046C15.429,4.145,14.954,4,14.471,4H9.9C9.416,4,8.941,4.145,8.528,4.417
				C8.445,4.472,8.35,4.5,8.253,4.5z M9.9,3h4.57c0.408,0,0.811,0.073,1.192,0.213C15.463,1.969,13.979,1,12.186,1
				S8.908,1.969,8.709,3.213C9.09,3.072,9.492,3,9.9,3z"/>
		</g>
		<g>
			<path d="M15.87,24H8.5c-0.986,0-1.933-0.419-2.595-1.151s-0.985-1.715-0.887-2.697l1.399-14C6.597,4.355,8.095,3,9.9,3h4.57
				c1.806,0,3.303,1.355,3.481,3.152l1.4,14c0.099,0.982-0.225,1.965-0.887,2.697C17.804,23.58,16.857,24,15.87,24z M9.9,4
				C8.61,4,7.541,4.968,7.412,6.251l-1.399,14c-0.069,0.702,0.161,1.403,0.634,1.926C7.12,22.7,7.795,23,8.5,23h7.37
				c0.705,0,1.381-0.3,1.854-0.823c0.473-0.522,0.703-1.225,0.634-1.926l-1.4-14C16.829,4.968,15.76,4,14.471,4H9.9z"/>
		</g>
		<g>
			<path d="M9.686,18c-0.276,0-0.5-0.224-0.5-0.5v-9c0-0.276,0.224-0.5,0.5-0.5h2.5c1.654,0,3,1.233,3,2.75s-1.346,2.75-3,2.75h-2v4
				C10.186,17.776,9.962,18,9.686,18z M10.186,12.5h2c1.103,0,2-0.785,2-1.75S13.288,9,12.186,9h-2V12.5z"/>
		</g>
	</g>
</g>
<g id="Pepper_Pot_2">
</g>
<g id="Egg_Timer">
</g>
<g id="Olive_Oil_Pot">
</g>
<g id="Pancake_Griddle">
</g>
<g id="Pan">
</g>
<g id="Kettle">
</g>
<g id="Microwave">
</g>
<g id="Cooker">
</g>
<g id="Meat_Grinder">
</g>
<g id="Coffee_Maker">
</g>
<g id="Household_Mixer">
</g>
<g id="Stand_Mixer">
</g>
<g id="Hand_Blender">
</g>
<g id="Blender">
</g>
<g id="Cooker_Hood">
</g>
<g id="Refrigerator">
</g>
<g id="Freezer">
</g>
<g id="Apron">
</g>
<g id="Oven_Gloves">
</g>
<g id="Rolling_Pin">
</g>
<g id="Sieve">
</g>
<g id="Tea_Sieve">
</g>
<g id="Grater">
</g>
<g id="Knife_Holder">
</g>
<g id="Funnel">
</g>
<g id="Kitchen_Clock">
</g>
<g id="Lemon_Juicer">
</g>
<g id="Pastry_Bag_1">
</g>
<g id="Pastry_Bag_2">
</g>
<g id="Corkscrew">
</g>
<g id="Bottle_Opener">
</g>
<g id="Service">
</g>
<g id="Chopsticks">
</g>
<g id="Hatchet">
</g>
<g id="Filleting_Knife">
</g>
<g id="Bread_Knife">
</g>
<g id="Herb_Knife">
</g>
<g id="Whetting">
</g>
<g id="Cake_Knife">
</g>
<g id="Layer_58">
</g>
<g id="Ladle">
</g>
<g id="Sauce_Spoon">
</g>
<g id="Egg_Beater">
</g>
<g id="Meat_Fork">
</g>
<g id="Kitchen_Spoon_1">
</g>
<g id="Kitchen_Spoon_2">
</g>
<g id="Pizza_Cutter">
</g>
<g id="Potato_Musher">
</g>
<g id="Peeler">
</g>
<g id="Honey_Dipper">
</g>
<g id="Fork">
</g>
<g id="Knife">
</g>
<g id="Spoon">
</g>
<g id="Cutlery_Set">
</g>
<g id="Sugar_Bowl">
</g>
<g id="Matches">
</g>
<g id="Cezve">
</g>
</svg>
