<?xml version="1.0" encoding="iso-8859-1"?>
<!-- Generator: Adobe Illustrator 19.2.1, SVG Export Plug-In . SVG Version: 6.00 Build 0)  -->
<svg version="1.1" xmlns="http://www.w3.org/2000/svg" xmlns:xlink="http://www.w3.org/1999/xlink" x="0px" y="0px"
	 viewBox="0 0 24 24" style="enable-background:new 0 0 24 24;" xml:space="preserve">
<g id="Cutting_Board_1">
</g>
<g id="Cutting_Board_2">
</g>
<g id="Chef_x27_s_Hat_1">
</g>
<g id="Chef_x27_s_Hat_2">
</g>
<g id="Kitchen_Scale">
</g>
<g id="Measuring_Cup">
</g>
<g id="Pot_1">
</g>
<g id="Pot_2">
</g>
<g id="Wok_1">
</g>
<g id="Wok_2">
</g>
<g id="Teapot">
</g>
<g id="Plate">
</g>
<g id="Sauce_Boat">
</g>
<g id="Cauldron">
</g>
<g id="Cookbook">
</g>
<g id="Salt_Pot">
</g>
<g id="Pepper_Pot_1">
</g>
<g id="Pepper_Pot_2">
	<g>
		<g>
			<path d="M11.5,24C8.851,24,6,23.374,6,22v-3c0-1.895,0.356-3.857,1.031-5.674c0.319-0.859,0.229-2.339-0.248-4.059
				C6.597,8.765,6.5,8.256,6.5,7.75C6.5,5.131,8.743,3,11.5,3s5,2.131,5,4.75c0,0.506-0.097,1.015-0.295,1.556
				c-0.399,1.447-0.481,2.911-0.217,4.084h-0.001c0.087,0.382,0.188,0.776,0.292,1.181C16.617,15.888,17,17.381,17,19v3
				C17,23.374,14.149,24,11.5,24z M11.5,4c-2.206,0-4,1.682-4,3.75c0,0.387,0.076,0.783,0.234,1.211
				c0.325,1.166,0.77,3.272,0.234,4.713C7.526,14.864,7,16.755,7,19v3c0.075,0.27,1.574,1,4.5,1s4.425-0.73,4.501-1.007L16,19
				c0-1.493-0.351-2.859-0.689-4.18c-0.106-0.415-0.21-0.818-0.298-1.21h-0.001c-0.299-1.332-0.213-2.968,0.242-4.61
				c0.17-0.467,0.246-0.863,0.246-1.25C15.5,5.682,13.706,4,11.5,4z"/>
		</g>
		<g>
			<path d="M8.5,18.5C8.224,18.5,8,18.276,8,18c0-1.572,0.263-2.27,0.74-3.535l0.167-0.444c0.097-0.259,0.388-0.389,0.644-0.292
				c0.259,0.097,0.39,0.385,0.292,0.644l-0.167,0.445C9.212,16.048,9,16.61,9,18C9,18.276,8.776,18.5,8.5,18.5z"/>
		</g>
		<g>
			<path d="M11.5,9.989c-2.034,0-3.897-0.63-4.862-1.645c-0.19-0.2-0.183-0.517,0.018-0.707c0.199-0.189,0.516-0.182,0.707,0.018
				C8.133,8.466,9.758,8.989,11.5,8.989s3.366-0.523,4.138-1.334c0.191-0.199,0.508-0.206,0.707-0.018
				c0.2,0.19,0.208,0.507,0.018,0.707C15.396,9.359,13.533,9.989,11.5,9.989z"/>
		</g>
		<g>
			<path d="M11.5,21c-2.235,0-4.283-0.623-5.344-1.625c-0.2-0.189-0.209-0.506-0.02-0.707c0.19-0.201,0.507-0.209,0.707-0.02
				C7.713,19.469,9.54,20,11.5,20c1.961,0,3.788-0.531,4.656-1.353c0.201-0.19,0.517-0.18,0.707,0.02
				c0.189,0.201,0.181,0.517-0.02,0.707C15.784,20.377,13.736,21,11.5,21z"/>
		</g>
		<g>
			<path d="M11.5,5C11.224,5,11,4.776,11,4.5v-2C11,2.224,11.224,2,11.5,2S12,2.224,12,2.5v2C12,4.776,11.776,5,11.5,5z"/>
		</g>
		<g>
			<path d="M11.5,3C10.673,3,10,2.327,10,1.5S10.673,0,11.5,0S13,0.673,13,1.5S12.327,3,11.5,3z M11.5,1C11.225,1,11,1.224,11,1.5
				S11.225,2,11.5,2S12,1.776,12,1.5S11.775,1,11.5,1z"/>
		</g>
	</g>
</g>
<g id="Egg_Timer">
</g>
<g id="Olive_Oil_Pot">
</g>
<g id="Pancake_Griddle">
</g>
<g id="Pan">
</g>
<g id="Kettle">
</g>
<g id="Microwave">
</g>
<g id="Cooker">
</g>
<g id="Meat_Grinder">
</g>
<g id="Coffee_Maker">
</g>
<g id="Household_Mixer">
</g>
<g id="Stand_Mixer">
</g>
<g id="Hand_Blender">
</g>
<g id="Blender">
</g>
<g id="Cooker_Hood">
</g>
<g id="Refrigerator">
</g>
<g id="Freezer">
</g>
<g id="Apron">
</g>
<g id="Oven_Gloves">
</g>
<g id="Rolling_Pin">
</g>
<g id="Sieve">
</g>
<g id="Tea_Sieve">
</g>
<g id="Grater">
</g>
<g id="Knife_Holder">
</g>
<g id="Funnel">
</g>
<g id="Kitchen_Clock">
</g>
<g id="Lemon_Juicer">
</g>
<g id="Pastry_Bag_1">
</g>
<g id="Pastry_Bag_2">
</g>
<g id="Corkscrew">
</g>
<g id="Bottle_Opener">
</g>
<g id="Service">
</g>
<g id="Chopsticks">
</g>
<g id="Hatchet">
</g>
<g id="Filleting_Knife">
</g>
<g id="Bread_Knife">
</g>
<g id="Herb_Knife">
</g>
<g id="Whetting">
</g>
<g id="Cake_Knife">
</g>
<g id="Layer_58">
</g>
<g id="Ladle">
</g>
<g id="Sauce_Spoon">
</g>
<g id="Egg_Beater">
</g>
<g id="Meat_Fork">
</g>
<g id="Kitchen_Spoon_1">
</g>
<g id="Kitchen_Spoon_2">
</g>
<g id="Pizza_Cutter">
</g>
<g id="Potato_Musher">
</g>
<g id="Peeler">
</g>
<g id="Honey_Dipper">
</g>
<g id="Fork">
</g>
<g id="Knife">
</g>
<g id="Spoon">
</g>
<g id="Cutlery_Set">
</g>
<g id="Sugar_Bowl">
</g>
<g id="Matches">
</g>
<g id="Cezve">
</g>
</svg>
