<?xml version="1.0" encoding="iso-8859-1"?>
<!-- Generator: Adobe Illustrator 19.2.1, SVG Export Plug-In . SVG Version: 6.00 Build 0)  -->
<svg version="1.1" xmlns="http://www.w3.org/2000/svg" xmlns:xlink="http://www.w3.org/1999/xlink" x="0px" y="0px"
	 viewBox="0 0 24 24" style="enable-background:new 0 0 24 24;" xml:space="preserve">
<g id="Cutting_Board_1">
</g>
<g id="Cutting_Board_2">
</g>
<g id="Chef_x27_s_Hat_1">
</g>
<g id="Chef_x27_s_Hat_2">
</g>
<g id="Kitchen_Scale">
</g>
<g id="Measuring_Cup">
</g>
<g id="Pot_1">
</g>
<g id="Pot_2">
</g>
<g id="Wok_1">
</g>
<g id="Wok_2">
</g>
<g id="Teapot">
</g>
<g id="Plate">
</g>
<g id="Sauce_Boat">
</g>
<g id="Cauldron">
</g>
<g id="Cookbook">
</g>
<g id="Salt_Pot">
</g>
<g id="Pepper_Pot_1">
</g>
<g id="Pepper_Pot_2">
</g>
<g id="Egg_Timer">
</g>
<g id="Olive_Oil_Pot">
</g>
<g id="Pancake_Griddle">
</g>
<g id="Pan">
</g>
<g id="Kettle">
</g>
<g id="Microwave">
</g>
<g id="Cooker">
</g>
<g id="Meat_Grinder">
</g>
<g id="Coffee_Maker">
</g>
<g id="Household_Mixer">
</g>
<g id="Stand_Mixer">
</g>
<g id="Hand_Blender">
</g>
<g id="Blender">
</g>
<g id="Cooker_Hood">
</g>
<g id="Refrigerator">
</g>
<g id="Freezer">
</g>
<g id="Apron">
</g>
<g id="Oven_Gloves">
</g>
<g id="Rolling_Pin">
</g>
<g id="Sieve">
</g>
<g id="Tea_Sieve">
</g>
<g id="Grater">
</g>
<g id="Knife_Holder">
</g>
<g id="Funnel">
</g>
<g id="Kitchen_Clock">
</g>
<g id="Lemon_Juicer">
</g>
<g id="Pastry_Bag_1">
</g>
<g id="Pastry_Bag_2">
</g>
<g id="Corkscrew">
</g>
<g id="Bottle_Opener">
</g>
<g id="Service">
</g>
<g id="Chopsticks">
</g>
<g id="Hatchet">
</g>
<g id="Filleting_Knife">
</g>
<g id="Bread_Knife">
</g>
<g id="Herb_Knife">
</g>
<g id="Whetting">
</g>
<g id="Cake_Knife">
</g>
<g id="Layer_58">
</g>
<g id="Ladle">
</g>
<g id="Sauce_Spoon">
</g>
<g id="Egg_Beater">
</g>
<g id="Meat_Fork">
</g>
<g id="Kitchen_Spoon_1">
</g>
<g id="Kitchen_Spoon_2">
</g>
<g id="Pizza_Cutter">
	<g>
		<g>
			<circle cx="7.516" cy="16.484" r="0.5"/>
		</g>
		<g>
			<path d="M8.516,23.979c-2.177,0-4.353-0.828-6.01-2.485c-3.314-3.314-3.314-8.706,0-12.021c2.737-2.738,6.982-3.276,10.322-1.307
				c0.133,0.078,0.223,0.214,0.242,0.368c0.02,0.153-0.033,0.307-0.143,0.416L6.499,15.38c-0.585,0.585-0.585,1.537,0,2.122
				c0.585,0.584,1.536,0.584,2.121,0l6.429-6.429c0.109-0.11,0.262-0.167,0.417-0.143c0.153,0.02,0.289,0.108,0.368,0.242
				c1.97,3.339,1.433,7.583-1.306,10.321C12.87,23.151,10.692,23.979,8.516,23.979z M8.511,7.987c-1.938,0-3.854,0.75-5.298,2.193
				c-2.924,2.924-2.924,7.683,0,10.606c2.924,2.925,7.683,2.924,10.607,0c2.261-2.261,2.821-5.686,1.458-8.53l-5.952,5.952l0,0
				c-0.975,0.975-2.561,0.975-3.535,0c-0.975-0.975-0.975-2.562,0-3.536l5.952-5.952C10.714,8.229,9.609,7.987,8.511,7.987z
				 M8.973,17.855h0.01H8.973z"/>
		</g>
		<g>
			<path d="M7.559,18.939c-0.64,0-1.28-0.243-1.768-0.73c-0.975-0.975-0.975-2.562,0-3.536L19.716,0.748
				c0.975-0.975,2.561-0.975,3.536,0c0.975,0.975,0.975,2.562,0,3.536L9.327,18.209l0,0C8.839,18.696,8.199,18.939,7.559,18.939z
				 M21.484,1.018c-0.384,0-0.769,0.146-1.061,0.438L6.499,15.38c-0.585,0.585-0.585,1.537,0,2.122c0.585,0.584,1.536,0.584,2.121,0
				L22.544,3.577c0.585-0.585,0.585-1.537,0-2.122C22.252,1.163,21.868,1.018,21.484,1.018z M8.973,17.855h0.01H8.973z"/>
		</g>
		<g>
			<path d="M19.516,10.983c-0.128,0-0.256-0.049-0.354-0.146l-6-6c-0.195-0.195-0.195-0.512,0-0.707s0.512-0.195,0.707,0l6,6
				c0.195,0.195,0.195,0.512,0,0.707C19.772,10.935,19.644,10.983,19.516,10.983z"/>
		</g>
	</g>
</g>
<g id="Potato_Musher">
</g>
<g id="Peeler">
</g>
<g id="Honey_Dipper">
</g>
<g id="Fork">
</g>
<g id="Knife">
</g>
<g id="Spoon">
</g>
<g id="Cutlery_Set">
</g>
<g id="Sugar_Bowl">
</g>
<g id="Matches">
</g>
<g id="Cezve">
</g>
</svg>
