<?xml version="1.0" encoding="iso-8859-1"?>
<!-- Generator: Adobe Illustrator 19.2.1, SVG Export Plug-In . SVG Version: 6.00 Build 0)  -->
<svg version="1.1" xmlns="http://www.w3.org/2000/svg" xmlns:xlink="http://www.w3.org/1999/xlink" x="0px" y="0px"
	 viewBox="0 0 24 24" style="enable-background:new 0 0 24 24;" xml:space="preserve">
<g id="Cutting_Board_1">
</g>
<g id="Cutting_Board_2">
</g>
<g id="Chef_x27_s_Hat_1">
</g>
<g id="Chef_x27_s_Hat_2">
</g>
<g id="Kitchen_Scale">
</g>
<g id="Measuring_Cup">
</g>
<g id="Pot_1">
</g>
<g id="Pot_2">
</g>
<g id="Wok_1">
</g>
<g id="Wok_2">
</g>
<g id="Teapot">
</g>
<g id="Plate">
	<g>
		<path d="M8,22c-4.411,0-8-3.589-8-8s3.589-8,8-8s8,3.589,8,8S12.411,22,8,22z M8,7c-3.86,0-7,3.14-7,7s3.14,7,7,7s7-3.14,7-7
			S11.86,7,8,7z"/>
	</g>
	<g>
		<path d="M8,19c-2.757,0-5-2.243-5-5s2.243-5,5-5s5,2.243,5,5S10.757,19,8,19z M8,10c-2.206,0-4,1.794-4,4s1.794,4,4,4s4-1.794,4-4
			S10.206,10,8,10z"/>
	</g>
	<g>
		<path d="M16.639,18.437c-0.192,0-0.375-0.11-0.458-0.297c-0.112-0.252,0.001-0.548,0.254-0.66C18.601,16.516,20,14.365,20,12
			c0-3.743-3.455-6.724-7.33-5.847c-0.269,0.062-0.537-0.108-0.598-0.377s0.108-0.537,0.377-0.598C16.938,4.165,21,7.633,21,12
			c0,2.76-1.632,5.27-4.159,6.394C16.775,18.423,16.707,18.437,16.639,18.437z"/>
	</g>
	<g>
		<path d="M14,22c-0.276,0-0.5-0.224-0.5-0.5S13.724,21,14,21c4.962,0,9-4.038,9-9s-4.038-9-9-9c-2.013,0-3.922,0.658-5.521,1.903
			C8.261,5.071,7.947,5.033,7.777,4.816c-0.169-0.218-0.13-0.532,0.087-0.702C9.64,2.731,11.762,2,14,2c5.514,0,10,4.486,10,10
			S19.514,22,14,22z"/>
	</g>
</g>
<g id="Sauce_Boat">
</g>
<g id="Cauldron">
</g>
<g id="Cookbook">
</g>
<g id="Salt_Pot">
</g>
<g id="Pepper_Pot_1">
</g>
<g id="Pepper_Pot_2">
</g>
<g id="Egg_Timer">
</g>
<g id="Olive_Oil_Pot">
</g>
<g id="Pancake_Griddle">
</g>
<g id="Pan">
</g>
<g id="Kettle">
</g>
<g id="Microwave">
</g>
<g id="Cooker">
</g>
<g id="Meat_Grinder">
</g>
<g id="Coffee_Maker">
</g>
<g id="Household_Mixer">
</g>
<g id="Stand_Mixer">
</g>
<g id="Hand_Blender">
</g>
<g id="Blender">
</g>
<g id="Cooker_Hood">
</g>
<g id="Refrigerator">
</g>
<g id="Freezer">
</g>
<g id="Apron">
</g>
<g id="Oven_Gloves">
</g>
<g id="Rolling_Pin">
</g>
<g id="Sieve">
</g>
<g id="Tea_Sieve">
</g>
<g id="Grater">
</g>
<g id="Knife_Holder">
</g>
<g id="Funnel">
</g>
<g id="Kitchen_Clock">
</g>
<g id="Lemon_Juicer">
</g>
<g id="Pastry_Bag_1">
</g>
<g id="Pastry_Bag_2">
</g>
<g id="Corkscrew">
</g>
<g id="Bottle_Opener">
</g>
<g id="Service">
</g>
<g id="Chopsticks">
</g>
<g id="Hatchet">
</g>
<g id="Filleting_Knife">
</g>
<g id="Bread_Knife">
</g>
<g id="Herb_Knife">
</g>
<g id="Whetting">
</g>
<g id="Cake_Knife">
</g>
<g id="Layer_58">
</g>
<g id="Ladle">
</g>
<g id="Sauce_Spoon">
</g>
<g id="Egg_Beater">
</g>
<g id="Meat_Fork">
</g>
<g id="Kitchen_Spoon_1">
</g>
<g id="Kitchen_Spoon_2">
</g>
<g id="Pizza_Cutter">
</g>
<g id="Potato_Musher">
</g>
<g id="Peeler">
</g>
<g id="Honey_Dipper">
</g>
<g id="Fork">
</g>
<g id="Knife">
</g>
<g id="Spoon">
</g>
<g id="Cutlery_Set">
</g>
<g id="Sugar_Bowl">
</g>
<g id="Matches">
</g>
<g id="Cezve">
</g>
</svg>
