<?xml version="1.0" encoding="iso-8859-1"?>
<!-- Generator: Adobe Illustrator 19.2.1, SVG Export Plug-In . SVG Version: 6.00 Build 0)  -->
<svg version="1.1" xmlns="http://www.w3.org/2000/svg" xmlns:xlink="http://www.w3.org/1999/xlink" x="0px" y="0px"
	 viewBox="0 0 24 24" style="enable-background:new 0 0 24 24;" xml:space="preserve">
<g id="Cutting_Board_1">
</g>
<g id="Cutting_Board_2">
</g>
<g id="Chef_x27_s_Hat_1">
</g>
<g id="Chef_x27_s_Hat_2">
</g>
<g id="Kitchen_Scale">
</g>
<g id="Measuring_Cup">
</g>
<g id="Pot_1">
</g>
<g id="Pot_2">
	<g>
		<g>
			<path d="M15.5,21h-8C4.468,21,2,18.533,2,15.5v-6C2,9.224,2.224,9,2.5,9h18C20.776,9,21,9.224,21,9.5v6
				C21,18.533,18.532,21,15.5,21z M3,10v5.5C3,17.981,5.019,20,7.5,20h8c2.481,0,4.5-2.019,4.5-4.5V10H3z"/>
		</g>
		<g>
			<path d="M7.5,19C5.57,19,4,17.43,4,15.5C4,15.224,4.224,15,4.5,15S5,15.224,5,15.5C5,16.878,6.121,18,7.5,18
				C7.776,18,8,18.224,8,18.5S7.776,19,7.5,19z"/>
		</g>
		<g>
			<path d="M20.5,12c-0.183,0-0.359-0.101-0.447-0.276c-0.123-0.247-0.023-0.547,0.224-0.671l2-1
				c0.248-0.123,0.547-0.024,0.671,0.224c0.123,0.247,0.023,0.547-0.224,0.671l-2,1C20.651,11.983,20.575,12,20.5,12z"/>
		</g>
		<g>
			<path d="M2.5,12c-0.075,0-0.151-0.017-0.224-0.053l-2-1c-0.247-0.124-0.347-0.424-0.224-0.671
				c0.125-0.247,0.424-0.346,0.671-0.224l2,1c0.247,0.124,0.347,0.424,0.224,0.671C2.859,11.899,2.683,12,2.5,12z"/>
		</g>
		<g>
			<path d="M20.5,10h-18C2.224,10,2,9.776,2,9.5C2,7.019,4.019,5,6.5,5h10C18.981,5,21,7.019,21,9.5C21,9.776,20.776,10,20.5,10z
				 M3.035,9h16.93C19.721,7.306,18.26,6,16.5,6h-10C4.74,6,3.279,7.306,3.035,9z"/>
		</g>
		<g>
			<path d="M13.5,6C13.224,6,13,5.776,13,5.5C13,4.673,12.327,4,11.5,4S10,4.673,10,5.5C10,5.776,9.776,6,9.5,6S9,5.776,9,5.5
				C9,4.122,10.121,3,11.5,3S14,4.122,14,5.5C14,5.776,13.776,6,13.5,6z"/>
		</g>
	</g>
</g>
<g id="Wok_1">
</g>
<g id="Wok_2">
</g>
<g id="Teapot">
</g>
<g id="Plate">
</g>
<g id="Sauce_Boat">
</g>
<g id="Cauldron">
</g>
<g id="Cookbook">
</g>
<g id="Salt_Pot">
</g>
<g id="Pepper_Pot_1">
</g>
<g id="Pepper_Pot_2">
</g>
<g id="Egg_Timer">
</g>
<g id="Olive_Oil_Pot">
</g>
<g id="Pancake_Griddle">
</g>
<g id="Pan">
</g>
<g id="Kettle">
</g>
<g id="Microwave">
</g>
<g id="Cooker">
</g>
<g id="Meat_Grinder">
</g>
<g id="Coffee_Maker">
</g>
<g id="Household_Mixer">
</g>
<g id="Stand_Mixer">
</g>
<g id="Hand_Blender">
</g>
<g id="Blender">
</g>
<g id="Cooker_Hood">
</g>
<g id="Refrigerator">
</g>
<g id="Freezer">
</g>
<g id="Apron">
</g>
<g id="Oven_Gloves">
</g>
<g id="Rolling_Pin">
</g>
<g id="Sieve">
</g>
<g id="Tea_Sieve">
</g>
<g id="Grater">
</g>
<g id="Knife_Holder">
</g>
<g id="Funnel">
</g>
<g id="Kitchen_Clock">
</g>
<g id="Lemon_Juicer">
</g>
<g id="Pastry_Bag_1">
</g>
<g id="Pastry_Bag_2">
</g>
<g id="Corkscrew">
</g>
<g id="Bottle_Opener">
</g>
<g id="Service">
</g>
<g id="Chopsticks">
</g>
<g id="Hatchet">
</g>
<g id="Filleting_Knife">
</g>
<g id="Bread_Knife">
</g>
<g id="Herb_Knife">
</g>
<g id="Whetting">
</g>
<g id="Cake_Knife">
</g>
<g id="Layer_58">
</g>
<g id="Ladle">
</g>
<g id="Sauce_Spoon">
</g>
<g id="Egg_Beater">
</g>
<g id="Meat_Fork">
</g>
<g id="Kitchen_Spoon_1">
</g>
<g id="Kitchen_Spoon_2">
</g>
<g id="Pizza_Cutter">
</g>
<g id="Potato_Musher">
</g>
<g id="Peeler">
</g>
<g id="Honey_Dipper">
</g>
<g id="Fork">
</g>
<g id="Knife">
</g>
<g id="Spoon">
</g>
<g id="Cutlery_Set">
</g>
<g id="Sugar_Bowl">
</g>
<g id="Matches">
</g>
<g id="Cezve">
</g>
</svg>
