<?xml version="1.0" encoding="iso-8859-1"?>
<!-- Generator: Adobe Illustrator 19.2.1, SVG Export Plug-In . SVG Version: 6.00 Build 0)  -->
<svg version="1.1" xmlns="http://www.w3.org/2000/svg" xmlns:xlink="http://www.w3.org/1999/xlink" x="0px" y="0px"
	 viewBox="0 0 24 24" style="enable-background:new 0 0 24 24;" xml:space="preserve">
<g id="Cutting_Board_1">
</g>
<g id="Cutting_Board_2">
</g>
<g id="Chef_x27_s_Hat_1">
</g>
<g id="Chef_x27_s_Hat_2">
</g>
<g id="Kitchen_Scale">
</g>
<g id="Measuring_Cup">
</g>
<g id="Pot_1">
</g>
<g id="Pot_2">
</g>
<g id="Wok_1">
</g>
<g id="Wok_2">
</g>
<g id="Teapot">
</g>
<g id="Plate">
</g>
<g id="Sauce_Boat">
</g>
<g id="Cauldron">
</g>
<g id="Cookbook">
</g>
<g id="Salt_Pot">
</g>
<g id="Pepper_Pot_1">
</g>
<g id="Pepper_Pot_2">
</g>
<g id="Egg_Timer">
</g>
<g id="Olive_Oil_Pot">
</g>
<g id="Pancake_Griddle">
</g>
<g id="Pan">
</g>
<g id="Kettle">
</g>
<g id="Microwave">
</g>
<g id="Cooker">
</g>
<g id="Meat_Grinder">
</g>
<g id="Coffee_Maker">
</g>
<g id="Household_Mixer">
</g>
<g id="Stand_Mixer">
</g>
<g id="Hand_Blender">
</g>
<g id="Blender">
</g>
<g id="Cooker_Hood">
</g>
<g id="Refrigerator">
</g>
<g id="Freezer">
</g>
<g id="Apron">
</g>
<g id="Oven_Gloves">
</g>
<g id="Rolling_Pin">
</g>
<g id="Sieve">
</g>
<g id="Tea_Sieve">
</g>
<g id="Grater">
</g>
<g id="Knife_Holder">
</g>
<g id="Funnel">
</g>
<g id="Kitchen_Clock">
</g>
<g id="Lemon_Juicer">
</g>
<g id="Pastry_Bag_1">
</g>
<g id="Pastry_Bag_2">
</g>
<g id="Corkscrew">
</g>
<g id="Bottle_Opener">
</g>
<g id="Service">
</g>
<g id="Chopsticks">
</g>
<g id="Hatchet">
</g>
<g id="Filleting_Knife">
</g>
<g id="Bread_Knife">
</g>
<g id="Herb_Knife">
</g>
<g id="Whetting">
</g>
<g id="Cake_Knife">
</g>
<g id="Layer_58">
</g>
<g id="Ladle">
</g>
<g id="Sauce_Spoon">
</g>
<g id="Egg_Beater">
</g>
<g id="Meat_Fork">
</g>
<g id="Kitchen_Spoon_1">
</g>
<g id="Kitchen_Spoon_2">
</g>
<g id="Pizza_Cutter">
</g>
<g id="Potato_Musher">
	<g>
		<g>
			<path d="M12.5,8h-2C10.224,8,10,7.776,10,7.5v-6C10,0.673,10.673,0,11.5,0S13,0.673,13,1.5v6C13,7.776,12.776,8,12.5,8z M11,7h1
				V1.5C12,1.225,11.776,1,11.5,1S11,1.225,11,1.5V7z"/>
		</g>
		<g>
			<path d="M11.5,24C8.27,24,5,23.142,5,21.5c0-3.283,13-3.283,13,0C18,23.142,14.73,24,11.5,24z M11.5,20C7.941,20,6,20.991,6,21.5
				S7.941,23,11.5,23s5.5-0.991,5.5-1.5S15.059,20,11.5,20z"/>
		</g>
		<g>
			<circle cx="9.5" cy="22" r="0.5"/>
		</g>
		<g>
			<circle cx="11.5" cy="21" r="0.5"/>
		</g>
		<g>
			<circle cx="13.5" cy="22" r="0.5"/>
		</g>
		<g>
			<circle cx="7.5" cy="21.5" r="0.5"/>
		</g>
		<g>
			<circle cx="15.5" cy="21.5" r="0.5"/>
		</g>
		<g>
			<path d="M5.5,22C5.224,22,5,21.776,5,21.5v-1.294c0-4.225,2.291-8.032,6-10.011V7.5C11,7.224,11.224,7,11.5,7S12,7.224,12,7.5v3
				c0,0.204-0.125,0.389-0.314,0.464C8.192,12.713,6,16.26,6,20.206V21.5C6,21.776,5.776,22,5.5,22z"/>
		</g>
		<g>
			<path d="M17.5,22c-0.276,0-0.5-0.224-0.5-0.5v-1.294c0-3.946-2.192-7.493-5.721-9.258C11.109,10.863,11,10.689,11,10.5v-3
				C11,7.224,11.224,7,11.5,7S12,7.224,12,7.5v2.698c3.724,2.002,6,5.798,6,10.008V21.5C18,21.776,17.776,22,17.5,22z"/>
		</g>
	</g>
</g>
<g id="Peeler">
</g>
<g id="Honey_Dipper">
</g>
<g id="Fork">
</g>
<g id="Knife">
</g>
<g id="Spoon">
</g>
<g id="Cutlery_Set">
</g>
<g id="Sugar_Bowl">
</g>
<g id="Matches">
</g>
<g id="Cezve">
</g>
</svg>
