<?xml version="1.0" encoding="iso-8859-1"?>
<!-- Generator: Adobe Illustrator 19.2.1, SVG Export Plug-In . SVG Version: 6.00 Build 0)  -->
<svg version="1.1" xmlns="http://www.w3.org/2000/svg" xmlns:xlink="http://www.w3.org/1999/xlink" x="0px" y="0px"
	 viewBox="0 0 24 24" style="enable-background:new 0 0 24 24;" xml:space="preserve">
<g id="Cutting_Board_1">
</g>
<g id="Cutting_Board_2">
</g>
<g id="Chef_x27_s_Hat_1">
</g>
<g id="Chef_x27_s_Hat_2">
</g>
<g id="Kitchen_Scale">
</g>
<g id="Measuring_Cup">
</g>
<g id="Pot_1">
</g>
<g id="Pot_2">
</g>
<g id="Wok_1">
</g>
<g id="Wok_2">
</g>
<g id="Teapot">
</g>
<g id="Plate">
</g>
<g id="Sauce_Boat">
</g>
<g id="Cauldron">
</g>
<g id="Cookbook">
</g>
<g id="Salt_Pot">
</g>
<g id="Pepper_Pot_1">
</g>
<g id="Pepper_Pot_2">
</g>
<g id="Egg_Timer">
</g>
<g id="Olive_Oil_Pot">
</g>
<g id="Pancake_Griddle">
</g>
<g id="Pan">
</g>
<g id="Kettle">
</g>
<g id="Microwave">
</g>
<g id="Cooker">
</g>
<g id="Meat_Grinder">
</g>
<g id="Coffee_Maker">
</g>
<g id="Household_Mixer">
</g>
<g id="Stand_Mixer">
</g>
<g id="Hand_Blender">
</g>
<g id="Blender">
</g>
<g id="Cooker_Hood">
</g>
<g id="Refrigerator">
	<g>
		<g>
			<path d="M21.5,23h-18C2.673,23,2,22.327,2,21.5v-20C2,0.673,2.673,0,3.5,0h18C22.327,0,23,0.673,23,1.5v20
				C23,22.327,22.327,23,21.5,23z M3.5,1C3.224,1,3,1.224,3,1.5v20C3,21.776,3.224,22,3.5,22h18c0.276,0,0.5-0.224,0.5-0.5v-20
				C22,1.224,21.776,1,21.5,1H3.5z"/>
		</g>
		<g>
			<path d="M14.5,23c-0.276,0-0.5-0.224-0.5-0.5v-22C14,0.224,14.224,0,14.5,0S15,0.224,15,0.5v22C15,22.776,14.776,23,14.5,23z"/>
		</g>
		<g>
			<path d="M9.5,14h-4C5.224,14,5,13.776,5,13.5v-5C5,8.224,5.224,8,5.5,8h4C9.776,8,10,8.224,10,8.5v5C10,13.776,9.776,14,9.5,14z
				 M6,13h3V9H6V13z"/>
		</g>
		<g>
			<path d="M12.5,17c-0.276,0-0.5-0.224-0.5-0.5v-10C12,6.224,12.224,6,12.5,6S13,6.224,13,6.5v10C13,16.776,12.776,17,12.5,17z"/>
		</g>
		<g>
			<path d="M16.5,17c-0.276,0-0.5-0.224-0.5-0.5v-10C16,6.224,16.224,6,16.5,6S17,6.224,17,6.5v10C17,16.776,16.776,17,16.5,17z"/>
		</g>
		<g>
			<path d="M7.5,10C7.224,10,7,9.776,7,9.5v-1C7,8.224,7.224,8,7.5,8S8,8.224,8,8.5v1C8,9.776,7.776,10,7.5,10z"/>
		</g>
		<g>
			<path d="M3.5,24C3.224,24,3,23.776,3,23.5v-1C3,22.224,3.224,22,3.5,22S4,22.224,4,22.5v1C4,23.776,3.776,24,3.5,24z"/>
		</g>
		<g>
			<path d="M21.5,24c-0.276,0-0.5-0.224-0.5-0.5v-1c0-0.276,0.224-0.5,0.5-0.5s0.5,0.224,0.5,0.5v1C22,23.776,21.776,24,21.5,24z"/>
		</g>
	</g>
</g>
<g id="Freezer">
</g>
<g id="Apron">
</g>
<g id="Oven_Gloves">
</g>
<g id="Rolling_Pin">
</g>
<g id="Sieve">
</g>
<g id="Tea_Sieve">
</g>
<g id="Grater">
</g>
<g id="Knife_Holder">
</g>
<g id="Funnel">
</g>
<g id="Kitchen_Clock">
</g>
<g id="Lemon_Juicer">
</g>
<g id="Pastry_Bag_1">
</g>
<g id="Pastry_Bag_2">
</g>
<g id="Corkscrew">
</g>
<g id="Bottle_Opener">
</g>
<g id="Service">
</g>
<g id="Chopsticks">
</g>
<g id="Hatchet">
</g>
<g id="Filleting_Knife">
</g>
<g id="Bread_Knife">
</g>
<g id="Herb_Knife">
</g>
<g id="Whetting">
</g>
<g id="Cake_Knife">
</g>
<g id="Layer_58">
</g>
<g id="Ladle">
</g>
<g id="Sauce_Spoon">
</g>
<g id="Egg_Beater">
</g>
<g id="Meat_Fork">
</g>
<g id="Kitchen_Spoon_1">
</g>
<g id="Kitchen_Spoon_2">
</g>
<g id="Pizza_Cutter">
</g>
<g id="Potato_Musher">
</g>
<g id="Peeler">
</g>
<g id="Honey_Dipper">
</g>
<g id="Fork">
</g>
<g id="Knife">
</g>
<g id="Spoon">
</g>
<g id="Cutlery_Set">
</g>
<g id="Sugar_Bowl">
</g>
<g id="Matches">
</g>
<g id="Cezve">
</g>
</svg>
