<?xml version="1.0" encoding="iso-8859-1"?>
<!-- Generator: Adobe Illustrator 19.2.1, SVG Export Plug-In . SVG Version: 6.00 Build 0)  -->
<svg version="1.1" xmlns="http://www.w3.org/2000/svg" xmlns:xlink="http://www.w3.org/1999/xlink" x="0px" y="0px"
	 viewBox="0 0 24 24" style="enable-background:new 0 0 24 24;" xml:space="preserve">
<g id="Cutting_Board_1">
</g>
<g id="Cutting_Board_2">
</g>
<g id="Chef_x27_s_Hat_1">
</g>
<g id="Chef_x27_s_Hat_2">
</g>
<g id="Kitchen_Scale">
</g>
<g id="Measuring_Cup">
</g>
<g id="Pot_1">
</g>
<g id="Pot_2">
</g>
<g id="Wok_1">
</g>
<g id="Wok_2">
</g>
<g id="Teapot">
</g>
<g id="Plate">
</g>
<g id="Sauce_Boat">
</g>
<g id="Cauldron">
</g>
<g id="Cookbook">
</g>
<g id="Salt_Pot">
</g>
<g id="Pepper_Pot_1">
</g>
<g id="Pepper_Pot_2">
</g>
<g id="Egg_Timer">
</g>
<g id="Olive_Oil_Pot">
</g>
<g id="Pancake_Griddle">
</g>
<g id="Pan">
</g>
<g id="Kettle">
</g>
<g id="Microwave">
</g>
<g id="Cooker">
</g>
<g id="Meat_Grinder">
</g>
<g id="Coffee_Maker">
</g>
<g id="Household_Mixer">
</g>
<g id="Stand_Mixer">
</g>
<g id="Hand_Blender">
</g>
<g id="Blender">
</g>
<g id="Cooker_Hood">
</g>
<g id="Refrigerator">
</g>
<g id="Freezer">
</g>
<g id="Apron">
</g>
<g id="Oven_Gloves">
</g>
<g id="Rolling_Pin">
	<g>
		<g>
			<path d="M15.969,20.818c-0.4,0-0.777-0.156-1.061-0.439L3.621,9.091c-0.584-0.584-0.584-1.536,0-2.121l3.35-3.349
				c0.282-0.283,0.658-0.439,1.06-0.439c0,0,0,0,0.001,0c0.4,0,0.777,0.156,1.061,0.439l11.287,11.287
				c0.584,0.584,0.584,1.536,0,2.121l-3.35,3.349C16.747,20.662,16.371,20.817,15.969,20.818
				C15.97,20.818,15.97,20.818,15.969,20.818z M8.031,4.182L8.031,4.182c-0.134,0-0.259,0.052-0.354,0.146l-3.35,3.349
				c-0.194,0.195-0.194,0.512,0,0.707l11.287,11.287c0.095,0.094,0.22,0.146,0.354,0.146h0.001c0.133,0,0.258-0.052,0.353-0.146
				l3.35-3.349c0.194-0.195,0.194-0.512,0-0.707L8.385,4.329C8.29,4.234,8.165,4.182,8.031,4.182z"/>
		</g>
		<g>
			<path d="M18.351,21.611c-0.384,0-0.769-0.146-1.061-0.438l-0.881-0.88c-0.094-0.094-0.146-0.221-0.146-0.354
				s0.053-0.26,0.146-0.354l3.176-3.175c0.094-0.094,0.221-0.146,0.354-0.146l0,0c0.133,0,0.26,0.053,0.354,0.146l0.88,0.88
				c0.585,0.585,0.585,1.536,0,2.121l-1.761,1.761C19.119,21.465,18.734,21.611,18.351,21.611z M17.47,19.938l0.527,0.527l0,0
				c0.195,0.195,0.512,0.195,0.707,0l1.761-1.761c0.195-0.195,0.195-0.512,0-0.707l-0.526-0.527L17.47,19.938z"/>
		</g>
		<g>
			<path d="M4.062,7.737L4.062,7.737c-0.133,0-0.26-0.053-0.354-0.146l-0.88-0.88c-0.585-0.585-0.585-1.536,0-2.121l1.761-1.761
				c0.584-0.585,1.537-0.585,2.121,0l0.881,0.88c0.094,0.094,0.146,0.221,0.146,0.354s-0.053,0.26-0.146,0.354L4.415,7.59
				C4.321,7.684,4.194,7.737,4.062,7.737z M5.649,3.389c-0.128,0-0.256,0.048-0.354,0.146L3.535,5.296
				c-0.195,0.195-0.195,0.512,0,0.707L4.062,6.53L6.53,4.062L6.003,3.535l0,0C5.905,3.437,5.777,3.389,5.649,3.389z"/>
		</g>
		<g>
			<path d="M3.665,4.958c-0.128,0-0.256-0.049-0.354-0.146c-0.29-0.291-0.804-0.611-1.299-0.921
				c-0.545-0.34-1.108-0.692-1.479-1.064c-0.633-0.633-0.633-1.662,0-2.295c0.613-0.612,1.683-0.612,2.294,0
				C3.198,0.904,3.55,1.466,3.891,2.011c0.311,0.497,0.631,1.01,0.922,1.301c0.195,0.195,0.195,0.512,0,0.707s-0.512,0.195-0.707,0
				C3.734,3.647,3.383,3.085,3.042,2.541C2.731,2.044,2.411,1.53,2.12,1.24c-0.235-0.235-0.646-0.234-0.88,0
				c-0.243,0.243-0.243,0.638,0,0.881c0.291,0.291,0.805,0.612,1.302,0.923c0.544,0.34,1.105,0.691,1.477,1.061
				c0.195,0.195,0.195,0.512,0,0.708C3.921,4.91,3.793,4.958,3.665,4.958z"/>
		</g>
		<g>
			<path d="M22.319,23.942c-0.434,0-0.841-0.169-1.146-0.475c-0.371-0.371-0.723-0.934-1.063-1.478
				c-0.311-0.497-0.631-1.01-0.922-1.301c-0.195-0.195-0.195-0.512,0-0.707s0.512-0.195,0.707,0
				c0.371,0.371,0.723,0.934,1.063,1.478c0.311,0.497,0.631,1.01,0.922,1.301c0.235,0.235,0.646,0.234,0.88,0
				c0.243-0.243,0.243-0.638,0-0.881c-0.291-0.291-0.805-0.612-1.302-0.923c-0.544-0.34-1.105-0.691-1.477-1.061
				c-0.195-0.195-0.195-0.512,0-0.708c0.195-0.195,0.512-0.195,0.707,0c0.29,0.291,0.804,0.611,1.299,0.921
				c0.545,0.34,1.108,0.692,1.479,1.064c0.633,0.633,0.633,1.662,0,2.295C23.16,23.773,22.753,23.942,22.319,23.942z"/>
		</g>
	</g>
</g>
<g id="Sieve">
</g>
<g id="Tea_Sieve">
</g>
<g id="Grater">
</g>
<g id="Knife_Holder">
</g>
<g id="Funnel">
</g>
<g id="Kitchen_Clock">
</g>
<g id="Lemon_Juicer">
</g>
<g id="Pastry_Bag_1">
</g>
<g id="Pastry_Bag_2">
</g>
<g id="Corkscrew">
</g>
<g id="Bottle_Opener">
</g>
<g id="Service">
</g>
<g id="Chopsticks">
</g>
<g id="Hatchet">
</g>
<g id="Filleting_Knife">
</g>
<g id="Bread_Knife">
</g>
<g id="Herb_Knife">
</g>
<g id="Whetting">
</g>
<g id="Cake_Knife">
</g>
<g id="Layer_58">
</g>
<g id="Ladle">
</g>
<g id="Sauce_Spoon">
</g>
<g id="Egg_Beater">
</g>
<g id="Meat_Fork">
</g>
<g id="Kitchen_Spoon_1">
</g>
<g id="Kitchen_Spoon_2">
</g>
<g id="Pizza_Cutter">
</g>
<g id="Potato_Musher">
</g>
<g id="Peeler">
</g>
<g id="Honey_Dipper">
</g>
<g id="Fork">
</g>
<g id="Knife">
</g>
<g id="Spoon">
</g>
<g id="Cutlery_Set">
</g>
<g id="Sugar_Bowl">
</g>
<g id="Matches">
</g>
<g id="Cezve">
</g>
</svg>
