<?xml version="1.0" encoding="iso-8859-1"?>
<!-- Generator: Adobe Illustrator 19.2.1, SVG Export Plug-In . SVG Version: 6.00 Build 0)  -->
<svg version="1.1" xmlns="http://www.w3.org/2000/svg" xmlns:xlink="http://www.w3.org/1999/xlink" x="0px" y="0px"
	 viewBox="0 0 24 24" style="enable-background:new 0 0 24 24;" xml:space="preserve">
<g id="Cutting_Board_1">
</g>
<g id="Cutting_Board_2">
</g>
<g id="Chef_x27_s_Hat_1">
</g>
<g id="Chef_x27_s_Hat_2">
</g>
<g id="Kitchen_Scale">
</g>
<g id="Measuring_Cup">
</g>
<g id="Pot_1">
</g>
<g id="Pot_2">
</g>
<g id="Wok_1">
</g>
<g id="Wok_2">
</g>
<g id="Teapot">
</g>
<g id="Plate">
</g>
<g id="Sauce_Boat">
</g>
<g id="Cauldron">
</g>
<g id="Cookbook">
</g>
<g id="Salt_Pot">
	<g>
		<g>
			<path d="M7.097,4.5c-0.063,0-0.127-0.012-0.188-0.037C6.756,4.402,6.644,4.269,6.608,4.108C6.567,3.922,6.529,3.72,6.529,3.5
				c0-1.93,2.019-3.5,4.5-3.5s4.5,1.57,4.5,3.5c0,0.229-0.04,0.437-0.08,0.611c-0.036,0.16-0.148,0.292-0.301,0.353
				c-0.153,0.063-0.325,0.043-0.462-0.047C14.273,4.145,13.799,4,13.314,4h-4.57C8.261,4,7.786,4.145,7.372,4.418
				C7.289,4.473,7.193,4.5,7.097,4.5z M11.029,1C9.235,1,7.752,1.969,7.552,3.213C7.934,3.073,8.336,3,8.744,3h4.57
				c0.408,0,0.811,0.072,1.191,0.213C14.307,1.969,12.823,1,11.029,1z"/>
		</g>
		<g>
			<path d="M15,24H7.63c-0.987,0-1.934-0.42-2.596-1.151c-0.662-0.732-0.985-1.715-0.887-2.697l1.114-13.99
				C5.441,4.355,6.938,3,8.744,3h4.57c1.806,0,3.304,1.355,3.482,3.152l1.684,13.99c0.1,0.992-0.224,1.975-0.886,2.707
				S15.986,24,15,24z M8.744,4C7.455,4,6.386,4.968,6.257,6.251l-1.114,13.99c-0.07,0.711,0.16,1.414,0.633,1.936
				C6.249,22.7,6.925,23,7.63,23H15c0.705,0,1.38-0.3,1.854-0.822c0.473-0.523,0.703-1.225,0.634-1.926l-1.684-13.99
				C15.674,4.968,14.604,4,13.314,4H8.744z"/>
		</g>
		<g>
			<path d="M11.314,19c-1.93,0-3.5-1.233-3.5-2.75c0-0.276,0.224-0.5,0.5-0.5s0.5,0.224,0.5,0.5c0,0.949,1.145,1.75,2.5,1.75
				s2.5-0.801,2.5-1.75s-1.145-1.75-2.5-1.75c-1.93,0-3.5-1.233-3.5-2.75S9.385,9,11.314,9s3.5,1.233,3.5,2.75
				c0,0.276-0.224,0.5-0.5,0.5s-0.5-0.224-0.5-0.5c0-0.949-1.145-1.75-2.5-1.75s-2.5,0.801-2.5,1.75s1.145,1.75,2.5,1.75
				c1.93,0,3.5,1.233,3.5,2.75S13.244,19,11.314,19z"/>
		</g>
	</g>
</g>
<g id="Pepper_Pot_1">
</g>
<g id="Pepper_Pot_2">
</g>
<g id="Egg_Timer">
</g>
<g id="Olive_Oil_Pot">
</g>
<g id="Pancake_Griddle">
</g>
<g id="Pan">
</g>
<g id="Kettle">
</g>
<g id="Microwave">
</g>
<g id="Cooker">
</g>
<g id="Meat_Grinder">
</g>
<g id="Coffee_Maker">
</g>
<g id="Household_Mixer">
</g>
<g id="Stand_Mixer">
</g>
<g id="Hand_Blender">
</g>
<g id="Blender">
</g>
<g id="Cooker_Hood">
</g>
<g id="Refrigerator">
</g>
<g id="Freezer">
</g>
<g id="Apron">
</g>
<g id="Oven_Gloves">
</g>
<g id="Rolling_Pin">
</g>
<g id="Sieve">
</g>
<g id="Tea_Sieve">
</g>
<g id="Grater">
</g>
<g id="Knife_Holder">
</g>
<g id="Funnel">
</g>
<g id="Kitchen_Clock">
</g>
<g id="Lemon_Juicer">
</g>
<g id="Pastry_Bag_1">
</g>
<g id="Pastry_Bag_2">
</g>
<g id="Corkscrew">
</g>
<g id="Bottle_Opener">
</g>
<g id="Service">
</g>
<g id="Chopsticks">
</g>
<g id="Hatchet">
</g>
<g id="Filleting_Knife">
</g>
<g id="Bread_Knife">
</g>
<g id="Herb_Knife">
</g>
<g id="Whetting">
</g>
<g id="Cake_Knife">
</g>
<g id="Layer_58">
</g>
<g id="Ladle">
</g>
<g id="Sauce_Spoon">
</g>
<g id="Egg_Beater">
</g>
<g id="Meat_Fork">
</g>
<g id="Kitchen_Spoon_1">
</g>
<g id="Kitchen_Spoon_2">
</g>
<g id="Pizza_Cutter">
</g>
<g id="Potato_Musher">
</g>
<g id="Peeler">
</g>
<g id="Honey_Dipper">
</g>
<g id="Fork">
</g>
<g id="Knife">
</g>
<g id="Spoon">
</g>
<g id="Cutlery_Set">
</g>
<g id="Sugar_Bowl">
</g>
<g id="Matches">
</g>
<g id="Cezve">
</g>
</svg>
