<?xml version="1.0" encoding="iso-8859-1"?>
<!-- Generator: Adobe Illustrator 19.2.1, SVG Export Plug-In . SVG Version: 6.00 Build 0)  -->
<svg version="1.1" xmlns="http://www.w3.org/2000/svg" xmlns:xlink="http://www.w3.org/1999/xlink" x="0px" y="0px"
	 viewBox="0 0 24 24" style="enable-background:new 0 0 24 24;" xml:space="preserve">
<g id="Cutting_Board_1">
</g>
<g id="Cutting_Board_2">
</g>
<g id="Chef_x27_s_Hat_1">
</g>
<g id="Chef_x27_s_Hat_2">
</g>
<g id="Kitchen_Scale">
</g>
<g id="Measuring_Cup">
</g>
<g id="Pot_1">
</g>
<g id="Pot_2">
</g>
<g id="Wok_1">
</g>
<g id="Wok_2">
</g>
<g id="Teapot">
</g>
<g id="Plate">
</g>
<g id="Sauce_Boat">
</g>
<g id="Cauldron">
</g>
<g id="Cookbook">
</g>
<g id="Salt_Pot">
</g>
<g id="Pepper_Pot_1">
</g>
<g id="Pepper_Pot_2">
</g>
<g id="Egg_Timer">
</g>
<g id="Olive_Oil_Pot">
</g>
<g id="Pancake_Griddle">
</g>
<g id="Pan">
</g>
<g id="Kettle">
</g>
<g id="Microwave">
</g>
<g id="Cooker">
</g>
<g id="Meat_Grinder">
</g>
<g id="Coffee_Maker">
</g>
<g id="Household_Mixer">
</g>
<g id="Stand_Mixer">
</g>
<g id="Hand_Blender">
</g>
<g id="Blender">
</g>
<g id="Cooker_Hood">
</g>
<g id="Refrigerator">
</g>
<g id="Freezer">
</g>
<g id="Apron">
</g>
<g id="Oven_Gloves">
</g>
<g id="Rolling_Pin">
</g>
<g id="Sieve">
</g>
<g id="Tea_Sieve">
</g>
<g id="Grater">
</g>
<g id="Knife_Holder">
</g>
<g id="Funnel">
</g>
<g id="Kitchen_Clock">
</g>
<g id="Lemon_Juicer">
</g>
<g id="Pastry_Bag_1">
</g>
<g id="Pastry_Bag_2">
</g>
<g id="Corkscrew">
</g>
<g id="Bottle_Opener">
</g>
<g id="Service">
</g>
<g id="Chopsticks">
</g>
<g id="Hatchet">
</g>
<g id="Filleting_Knife">
</g>
<g id="Bread_Knife">
</g>
<g id="Herb_Knife">
</g>
<g id="Whetting">
</g>
<g id="Cake_Knife">
</g>
<g id="Layer_58">
</g>
<g id="Ladle">
</g>
<g id="Sauce_Spoon">
	<g>
		<g>
			<path d="M13.5,9c-1.753,0-3.414-0.693-4.443-1.854c-0.34-0.384-0.839-0.678-1.522-0.898L7.207,6.145C5.974,5.752,5,5.443,5,4.5
				s0.974-1.252,2.207-1.645l0.327-0.104c0.684-0.221,1.183-0.515,1.522-0.898C10.086,0.693,11.747,0,13.5,0
				C16.532,0,19,2.019,19,4.5S16.532,9,13.5,9z M13.5,1c-1.471,0-2.853,0.567-3.695,1.518C9.343,3.038,8.7,3.426,7.841,3.703
				L7.51,3.809C6.837,4.022,6,4.289,6,4.5s0.837,0.478,1.51,0.691l0.331,0.105C8.7,5.574,9.343,5.962,9.805,6.482
				C10.647,7.433,12.029,8,13.5,8C15.981,8,18,6.43,18,4.5S15.981,1,13.5,1z"/>
		</g>
		<g>
			<path d="M16.5,5C16.224,5,16,4.776,16,4.5C16,3.807,14.908,3,13.5,3C13.224,3,13,2.776,13,2.5S13.224,2,13.5,2
				C15.397,2,17,3.145,17,4.5C17,4.776,16.776,5,16.5,5z"/>
		</g>
		<g>
			<path d="M14,24c-1.131,0-2.051-0.882-2.094-2.009c-0.043-1.16-0.008-2.031,0.104-2.589c0.275-1.377,1.029-9.032,0.512-10.759
				c-0.08-0.265,0.07-0.543,0.335-0.622c0.263-0.08,0.543,0.069,0.622,0.335c0.605,2.018-0.24,10.001-0.488,11.241
				c-0.095,0.475-0.124,1.289-0.084,2.356C12.928,22.54,13.408,23,14,23s1.072-0.46,1.094-1.046c0.04-1.067,0.011-1.882-0.084-2.356
				c-0.248-1.24-1.094-9.224-0.488-11.241c0.079-0.265,0.36-0.414,0.622-0.335c0.265,0.079,0.415,0.357,0.335,0.622
				c-0.518,1.727,0.236,9.382,0.512,10.759c0.111,0.558,0.146,1.429,0.104,2.589C16.051,23.118,15.131,24,14,24z"/>
		</g>
	</g>
</g>
<g id="Egg_Beater">
</g>
<g id="Meat_Fork">
</g>
<g id="Kitchen_Spoon_1">
</g>
<g id="Kitchen_Spoon_2">
</g>
<g id="Pizza_Cutter">
</g>
<g id="Potato_Musher">
</g>
<g id="Peeler">
</g>
<g id="Honey_Dipper">
</g>
<g id="Fork">
</g>
<g id="Knife">
</g>
<g id="Spoon">
</g>
<g id="Cutlery_Set">
</g>
<g id="Sugar_Bowl">
</g>
<g id="Matches">
</g>
<g id="Cezve">
</g>
</svg>
