<?xml version="1.0" encoding="iso-8859-1"?>
<!-- Generator: Adobe Illustrator 19.2.1, SVG Export Plug-In . SVG Version: 6.00 Build 0)  -->
<svg version="1.1" xmlns="http://www.w3.org/2000/svg" xmlns:xlink="http://www.w3.org/1999/xlink" x="0px" y="0px"
	 viewBox="0 0 24 24" style="enable-background:new 0 0 24 24;" xml:space="preserve">
<g id="Cutting_Board_1">
</g>
<g id="Cutting_Board_2">
</g>
<g id="Chef_x27_s_Hat_1">
</g>
<g id="Chef_x27_s_Hat_2">
</g>
<g id="Kitchen_Scale">
</g>
<g id="Measuring_Cup">
</g>
<g id="Pot_1">
</g>
<g id="Pot_2">
</g>
<g id="Wok_1">
</g>
<g id="Wok_2">
</g>
<g id="Teapot">
</g>
<g id="Plate">
</g>
<g id="Sauce_Boat">
</g>
<g id="Cauldron">
</g>
<g id="Cookbook">
</g>
<g id="Salt_Pot">
</g>
<g id="Pepper_Pot_1">
</g>
<g id="Pepper_Pot_2">
</g>
<g id="Egg_Timer">
</g>
<g id="Olive_Oil_Pot">
</g>
<g id="Pancake_Griddle">
</g>
<g id="Pan">
</g>
<g id="Kettle">
</g>
<g id="Microwave">
</g>
<g id="Cooker">
</g>
<g id="Meat_Grinder">
</g>
<g id="Coffee_Maker">
</g>
<g id="Household_Mixer">
</g>
<g id="Stand_Mixer">
</g>
<g id="Hand_Blender">
</g>
<g id="Blender">
</g>
<g id="Cooker_Hood">
</g>
<g id="Refrigerator">
</g>
<g id="Freezer">
</g>
<g id="Apron">
</g>
<g id="Oven_Gloves">
</g>
<g id="Rolling_Pin">
</g>
<g id="Sieve">
</g>
<g id="Tea_Sieve">
</g>
<g id="Grater">
</g>
<g id="Knife_Holder">
</g>
<g id="Funnel">
</g>
<g id="Kitchen_Clock">
</g>
<g id="Lemon_Juicer">
</g>
<g id="Pastry_Bag_1">
</g>
<g id="Pastry_Bag_2">
</g>
<g id="Corkscrew">
</g>
<g id="Bottle_Opener">
</g>
<g id="Service">
	<g>
		<g>
			<path d="M22,17.5H2c-0.276,0-0.5-0.224-0.5-0.5C1.5,11.21,6.21,6.5,12,6.5S22.5,11.21,22.5,17C22.5,17.276,22.276,17.5,22,17.5z
				 M2.513,16.5h18.975c-0.262-5.007-4.417-9-9.487-9S2.774,11.493,2.513,16.5z"/>
		</g>
		<g>
			<path d="M19.747,15.5c-0.223,0-0.426-0.149-0.484-0.375C18.407,11.813,15.421,9.5,12,9.5c-0.276,0-0.5-0.224-0.5-0.5
				s0.224-0.5,0.5-0.5c3.877,0,7.262,2.621,8.231,6.375c0.068,0.268-0.092,0.54-0.359,0.609C19.83,15.495,19.788,15.5,19.747,15.5z"
				/>
		</g>
		<g>
			<path d="M23,17.5H1c-0.276,0-0.5-0.224-0.5-0.5s0.224-0.5,0.5-0.5h22c0.276,0,0.5,0.224,0.5,0.5S23.276,17.5,23,17.5z"/>
		</g>
		<g>
			<path d="M19.938,19.5H4.062c-1.443,0-2.696-0.979-3.047-2.379c-0.066-0.268,0.096-0.539,0.364-0.606
				c0.263-0.067,0.539,0.096,0.606,0.364C2.224,17.833,3.077,18.5,4.062,18.5h15.877c0.984,0,1.838-0.667,2.076-1.621
				c0.066-0.268,0.335-0.431,0.606-0.364c0.269,0.067,0.431,0.339,0.364,0.606C22.635,18.521,21.382,19.5,19.938,19.5z"/>
		</g>
		<g>
			<path d="M14,7.5c-0.276,0-0.5-0.224-0.5-0.5c0-0.827-0.673-1.5-1.5-1.5S10.5,6.173,10.5,7c0,0.276-0.224,0.5-0.5,0.5
				S9.5,7.276,9.5,7c0-1.379,1.121-2.5,2.5-2.5s2.5,1.121,2.5,2.5C14.5,7.276,14.276,7.5,14,7.5z"/>
		</g>
	</g>
</g>
<g id="Chopsticks">
</g>
<g id="Hatchet">
</g>
<g id="Filleting_Knife">
</g>
<g id="Bread_Knife">
</g>
<g id="Herb_Knife">
</g>
<g id="Whetting">
</g>
<g id="Cake_Knife">
</g>
<g id="Layer_58">
</g>
<g id="Ladle">
</g>
<g id="Sauce_Spoon">
</g>
<g id="Egg_Beater">
</g>
<g id="Meat_Fork">
</g>
<g id="Kitchen_Spoon_1">
</g>
<g id="Kitchen_Spoon_2">
</g>
<g id="Pizza_Cutter">
</g>
<g id="Potato_Musher">
</g>
<g id="Peeler">
</g>
<g id="Honey_Dipper">
</g>
<g id="Fork">
</g>
<g id="Knife">
</g>
<g id="Spoon">
</g>
<g id="Cutlery_Set">
</g>
<g id="Sugar_Bowl">
</g>
<g id="Matches">
</g>
<g id="Cezve">
</g>
</svg>
