<?xml version="1.0" encoding="iso-8859-1"?>
<!-- Generator: Adobe Illustrator 19.2.1, SVG Export Plug-In . SVG Version: 6.00 Build 0)  -->
<svg version="1.1" xmlns="http://www.w3.org/2000/svg" xmlns:xlink="http://www.w3.org/1999/xlink" x="0px" y="0px"
	 viewBox="0 0 24 24" style="enable-background:new 0 0 24 24;" xml:space="preserve">
<g id="Cutting_Board_1">
</g>
<g id="Cutting_Board_2">
</g>
<g id="Chef_x27_s_Hat_1">
</g>
<g id="Chef_x27_s_Hat_2">
</g>
<g id="Kitchen_Scale">
</g>
<g id="Measuring_Cup">
</g>
<g id="Pot_1">
</g>
<g id="Pot_2">
</g>
<g id="Wok_1">
</g>
<g id="Wok_2">
</g>
<g id="Teapot">
</g>
<g id="Plate">
</g>
<g id="Sauce_Boat">
</g>
<g id="Cauldron">
</g>
<g id="Cookbook">
</g>
<g id="Salt_Pot">
</g>
<g id="Pepper_Pot_1">
</g>
<g id="Pepper_Pot_2">
</g>
<g id="Egg_Timer">
</g>
<g id="Olive_Oil_Pot">
</g>
<g id="Pancake_Griddle">
</g>
<g id="Pan">
</g>
<g id="Kettle">
</g>
<g id="Microwave">
</g>
<g id="Cooker">
</g>
<g id="Meat_Grinder">
</g>
<g id="Coffee_Maker">
</g>
<g id="Household_Mixer">
</g>
<g id="Stand_Mixer">
</g>
<g id="Hand_Blender">
</g>
<g id="Blender">
</g>
<g id="Cooker_Hood">
</g>
<g id="Refrigerator">
</g>
<g id="Freezer">
</g>
<g id="Apron">
</g>
<g id="Oven_Gloves">
</g>
<g id="Rolling_Pin">
</g>
<g id="Sieve">
	<g>
		<g>
			<path d="M11.5,16C6.262,16,2,11.738,2,6.5C2,6.224,2.224,6,2.5,6h18C20.776,6,21,6.224,21,6.5C21,11.738,16.738,16,11.5,16z
				 M3.015,7c0.26,4.455,3.967,8,8.485,8s8.226-3.545,8.485-8H3.015z"/>
		</g>
		<g>
			<path d="M15.5,18h-8c-0.173,0-0.334-0.09-0.426-0.237c-0.091-0.147-0.099-0.332-0.021-0.486l1-2C8.138,15.107,8.311,15,8.5,15h6
				c0.189,0,0.362,0.107,0.447,0.276l1,2c0.077,0.155,0.069,0.339-0.021,0.486C15.834,17.91,15.673,18,15.5,18z M8.309,17h6.383
				l-0.5-1H8.809L8.309,17z"/>
		</g>
		<g>
			<path d="M20.499,8c-0.25,0-0.467-0.188-0.496-0.443c-0.031-0.274,0.165-0.522,0.439-0.554c0.953-0.11,1.302-0.418,1.688-0.841
				c0.188-0.204,0.506-0.215,0.707-0.031c0.203,0.187,0.218,0.503,0.031,0.707c-0.463,0.505-1.022,1.01-2.312,1.159
				C20.538,7.999,20.519,8,20.499,8z"/>
		</g>
		<g>
			<path d="M2.501,8c-0.02,0-0.039-0.001-0.059-0.003C1.153,7.848,0.594,7.343,0.131,6.838c-0.187-0.204-0.172-0.52,0.031-0.707
				c0.202-0.185,0.521-0.173,0.707,0.031c0.387,0.423,0.735,0.731,1.688,0.841c0.274,0.032,0.471,0.28,0.439,0.554
				C2.968,7.812,2.751,8,2.501,8z"/>
		</g>
		<g>
			<circle cx="5.5" cy="8.5" r="0.5"/>
		</g>
		<g>
			<circle cx="8.5" cy="8.5" r="0.5"/>
		</g>
		<g>
			<circle cx="11.5" cy="8.5" r="0.5"/>
		</g>
		<g>
			<circle cx="14.5" cy="8.5" r="0.5"/>
		</g>
		<g>
			<circle cx="6.5" cy="10.5" r="0.5"/>
		</g>
		<g>
			<circle cx="9.5" cy="10.5" r="0.5"/>
		</g>
		<g>
			<circle cx="12.5" cy="10.5" r="0.5"/>
		</g>
		<g>
			<circle cx="15.5" cy="10.5" r="0.5"/>
		</g>
		<g>
			<circle cx="8" cy="12.5" r="0.5"/>
		</g>
		<g>
			<circle cx="11" cy="12.5" r="0.5"/>
		</g>
		<g>
			<circle cx="14" cy="12.5" r="0.5"/>
		</g>
		<g>
			<circle cx="17.5" cy="8.5" r="0.5"/>
		</g>
	</g>
</g>
<g id="Tea_Sieve">
</g>
<g id="Grater">
</g>
<g id="Knife_Holder">
</g>
<g id="Funnel">
</g>
<g id="Kitchen_Clock">
</g>
<g id="Lemon_Juicer">
</g>
<g id="Pastry_Bag_1">
</g>
<g id="Pastry_Bag_2">
</g>
<g id="Corkscrew">
</g>
<g id="Bottle_Opener">
</g>
<g id="Service">
</g>
<g id="Chopsticks">
</g>
<g id="Hatchet">
</g>
<g id="Filleting_Knife">
</g>
<g id="Bread_Knife">
</g>
<g id="Herb_Knife">
</g>
<g id="Whetting">
</g>
<g id="Cake_Knife">
</g>
<g id="Layer_58">
</g>
<g id="Ladle">
</g>
<g id="Sauce_Spoon">
</g>
<g id="Egg_Beater">
</g>
<g id="Meat_Fork">
</g>
<g id="Kitchen_Spoon_1">
</g>
<g id="Kitchen_Spoon_2">
</g>
<g id="Pizza_Cutter">
</g>
<g id="Potato_Musher">
</g>
<g id="Peeler">
</g>
<g id="Honey_Dipper">
</g>
<g id="Fork">
</g>
<g id="Knife">
</g>
<g id="Spoon">
</g>
<g id="Cutlery_Set">
</g>
<g id="Sugar_Bowl">
</g>
<g id="Matches">
</g>
<g id="Cezve">
</g>
</svg>
