<?xml version="1.0" encoding="iso-8859-1"?>
<!-- Generator: Adobe Illustrator 19.2.1, SVG Export Plug-In . SVG Version: 6.00 Build 0)  -->
<svg version="1.1" xmlns="http://www.w3.org/2000/svg" xmlns:xlink="http://www.w3.org/1999/xlink" x="0px" y="0px"
	 viewBox="0 0 24 24" style="enable-background:new 0 0 24 24;" xml:space="preserve">
<g id="Cutting_Board_1">
</g>
<g id="Cutting_Board_2">
</g>
<g id="Chef_x27_s_Hat_1">
</g>
<g id="Chef_x27_s_Hat_2">
</g>
<g id="Kitchen_Scale">
</g>
<g id="Measuring_Cup">
</g>
<g id="Pot_1">
</g>
<g id="Pot_2">
</g>
<g id="Wok_1">
</g>
<g id="Wok_2">
</g>
<g id="Teapot">
</g>
<g id="Plate">
</g>
<g id="Sauce_Boat">
</g>
<g id="Cauldron">
</g>
<g id="Cookbook">
</g>
<g id="Salt_Pot">
</g>
<g id="Pepper_Pot_1">
</g>
<g id="Pepper_Pot_2">
</g>
<g id="Egg_Timer">
</g>
<g id="Olive_Oil_Pot">
</g>
<g id="Pancake_Griddle">
</g>
<g id="Pan">
</g>
<g id="Kettle">
</g>
<g id="Microwave">
</g>
<g id="Cooker">
</g>
<g id="Meat_Grinder">
</g>
<g id="Coffee_Maker">
</g>
<g id="Household_Mixer">
</g>
<g id="Stand_Mixer">
	<g>
		<g>
			<path d="M21.5,10h-14C5.57,10,4,8.43,4,6.5C4,3.467,6.468,1,9.5,1h12C22.879,1,24,2.122,24,3.5v4C24,8.878,22.879,10,21.5,10z
				 M9.5,2C7.019,2,5,4.019,5,6.5C5,7.878,6.121,9,7.5,9h14C22.327,9,23,8.327,23,7.5v-4C23,2.673,22.327,2,21.5,2H9.5z"/>
		</g>
		<g>
			<path d="M7.5,14C7.224,14,7,13.776,7,13.5v-4C7,9.224,7.224,9,7.5,9S8,9.224,8,9.5v4C8,13.776,7.776,14,7.5,14z"/>
		</g>
		<g>
			<path d="M21.5,24h-16C4.673,24,4,23.327,4,22.5S4.673,21,5.5,21h9c0.827,0,1.5-0.673,1.5-1.5v-10C16,9.224,16.224,9,16.5,9
				S17,9.224,17,9.5v10c0,1.378-1.121,2.5-2.5,2.5h-9C5.225,22,5,22.224,5,22.5S5.225,23,5.5,23H21V9.5C21,9.224,21.224,9,21.5,9
				S22,9.224,22,9.5v14C22,23.776,21.776,24,21.5,24z"/>
		</g>
		<g>
			<path d="M7.5,22C3.364,22,0,18.636,0,14.5v-1C0,13.224,0.224,13,0.5,13h14c0.276,0,0.5,0.224,0.5,0.5v1
				C15,18.636,11.636,22,7.5,22z M1,14v0.5C1,18.084,3.916,21,7.5,21s6.5-2.916,6.5-6.5V14H1z"/>
		</g>
		<g>
			<path d="M23.5,7h-19C4.224,7,4,6.776,4,6.5S4.224,6,4.5,6h19C23.776,6,24,6.224,24,6.5S23.776,7,23.5,7z"/>
		</g>
		<g>
			<path d="M11.5,1h-1C10.224,1,10,0.776,10,0.5S10.224,0,10.5,0h1C11.776,0,12,0.224,12,0.5S11.776,1,11.5,1z"/>
		</g>
		<g>
			<path d="M19,15c-0.552,0-1-0.449-1-1s0.448-1,1-1s1,0.449,1,1S19.552,15,19,15z M19,13.999C19,14,19,14,19,13.999L19.5,14
				L19,13.999z"/>
		</g>
	</g>
</g>
<g id="Hand_Blender">
</g>
<g id="Blender">
</g>
<g id="Cooker_Hood">
</g>
<g id="Refrigerator">
</g>
<g id="Freezer">
</g>
<g id="Apron">
</g>
<g id="Oven_Gloves">
</g>
<g id="Rolling_Pin">
</g>
<g id="Sieve">
</g>
<g id="Tea_Sieve">
</g>
<g id="Grater">
</g>
<g id="Knife_Holder">
</g>
<g id="Funnel">
</g>
<g id="Kitchen_Clock">
</g>
<g id="Lemon_Juicer">
</g>
<g id="Pastry_Bag_1">
</g>
<g id="Pastry_Bag_2">
</g>
<g id="Corkscrew">
</g>
<g id="Bottle_Opener">
</g>
<g id="Service">
</g>
<g id="Chopsticks">
</g>
<g id="Hatchet">
</g>
<g id="Filleting_Knife">
</g>
<g id="Bread_Knife">
</g>
<g id="Herb_Knife">
</g>
<g id="Whetting">
</g>
<g id="Cake_Knife">
</g>
<g id="Layer_58">
</g>
<g id="Ladle">
</g>
<g id="Sauce_Spoon">
</g>
<g id="Egg_Beater">
</g>
<g id="Meat_Fork">
</g>
<g id="Kitchen_Spoon_1">
</g>
<g id="Kitchen_Spoon_2">
</g>
<g id="Pizza_Cutter">
</g>
<g id="Potato_Musher">
</g>
<g id="Peeler">
</g>
<g id="Honey_Dipper">
</g>
<g id="Fork">
</g>
<g id="Knife">
</g>
<g id="Spoon">
</g>
<g id="Cutlery_Set">
</g>
<g id="Sugar_Bowl">
</g>
<g id="Matches">
</g>
<g id="Cezve">
</g>
</svg>
