<?xml version="1.0" encoding="iso-8859-1"?>
<!-- Generator: Adobe Illustrator 19.2.1, SVG Export Plug-In . SVG Version: 6.00 Build 0)  -->
<svg version="1.1" xmlns="http://www.w3.org/2000/svg" xmlns:xlink="http://www.w3.org/1999/xlink" x="0px" y="0px"
	 viewBox="0 0 24 24" style="enable-background:new 0 0 24 24;" xml:space="preserve">
<g id="Cutting_Board_1">
</g>
<g id="Cutting_Board_2">
</g>
<g id="Chef_x27_s_Hat_1">
</g>
<g id="Chef_x27_s_Hat_2">
</g>
<g id="Kitchen_Scale">
</g>
<g id="Measuring_Cup">
</g>
<g id="Pot_1">
</g>
<g id="Pot_2">
</g>
<g id="Wok_1">
</g>
<g id="Wok_2">
</g>
<g id="Teapot">
</g>
<g id="Plate">
</g>
<g id="Sauce_Boat">
</g>
<g id="Cauldron">
</g>
<g id="Cookbook">
</g>
<g id="Salt_Pot">
</g>
<g id="Pepper_Pot_1">
</g>
<g id="Pepper_Pot_2">
</g>
<g id="Egg_Timer">
</g>
<g id="Olive_Oil_Pot">
</g>
<g id="Pancake_Griddle">
</g>
<g id="Pan">
</g>
<g id="Kettle">
</g>
<g id="Microwave">
</g>
<g id="Cooker">
</g>
<g id="Meat_Grinder">
</g>
<g id="Coffee_Maker">
</g>
<g id="Household_Mixer">
</g>
<g id="Stand_Mixer">
</g>
<g id="Hand_Blender">
</g>
<g id="Blender">
</g>
<g id="Cooker_Hood">
</g>
<g id="Refrigerator">
</g>
<g id="Freezer">
</g>
<g id="Apron">
</g>
<g id="Oven_Gloves">
</g>
<g id="Rolling_Pin">
</g>
<g id="Sieve">
</g>
<g id="Tea_Sieve">
</g>
<g id="Grater">
</g>
<g id="Knife_Holder">
</g>
<g id="Funnel">
</g>
<g id="Kitchen_Clock">
</g>
<g id="Lemon_Juicer">
</g>
<g id="Pastry_Bag_1">
</g>
<g id="Pastry_Bag_2">
</g>
<g id="Corkscrew">
</g>
<g id="Bottle_Opener">
</g>
<g id="Service">
</g>
<g id="Chopsticks">
</g>
<g id="Hatchet">
</g>
<g id="Filleting_Knife">
</g>
<g id="Bread_Knife">
</g>
<g id="Herb_Knife">
</g>
<g id="Whetting">
</g>
<g id="Cake_Knife">
</g>
<g id="Layer_58">
</g>
<g id="Ladle">
</g>
<g id="Sauce_Spoon">
</g>
<g id="Egg_Beater">
</g>
<g id="Meat_Fork">
</g>
<g id="Kitchen_Spoon_1">
</g>
<g id="Kitchen_Spoon_2">
</g>
<g id="Pizza_Cutter">
</g>
<g id="Potato_Musher">
</g>
<g id="Peeler">
</g>
<g id="Honey_Dipper">
</g>
<g id="Fork">
</g>
<g id="Knife">
</g>
<g id="Spoon">
</g>
<g id="Cutlery_Set">
</g>
<g id="Sugar_Bowl">
	<g>
		<g>
			<path d="M13.5,24h-4C5.445,24,4,21.159,4,18.5c0-1.157,0.523-2.323,1.128-3.673C5.962,12.969,7,10.656,7,7.5
				C7,6.005,9.327,5,11.5,5S16,6.005,16,7.5c0,3.156,1.038,5.469,1.872,7.327C18.477,16.177,19,17.343,19,18.5
				C19,21.159,17.555,24,13.5,24z M11.5,6C9.648,6,8,6.839,8,7.5c0,3.37-1.086,5.791-1.959,7.736C5.482,16.481,5,17.557,5,18.5
				C5,19.556,5.325,23,9.5,23h4c4.175,0,4.5-3.444,4.5-4.5c0-0.943-0.482-2.019-1.041-3.264C16.086,13.291,15,10.87,15,7.5
				C15,6.839,13.352,6,11.5,6z"/>
		</g>
		<g>
			<path d="M7.042,21c-0.153,0-0.305-0.07-0.403-0.203C6.215,20.222,6,19.448,6,18.5c0-0.729,0.442-1.714,0.954-2.854
				c0.113-0.252,0.409-0.364,0.661-0.251c0.252,0.113,0.365,0.409,0.251,0.661C7.42,17.047,7,17.984,7,18.5
				c0,0.73,0.149,1.304,0.444,1.703c0.164,0.223,0.117,0.535-0.105,0.699C7.25,20.969,7.146,21,7.042,21z"/>
		</g>
		<g>
			<path d="M15.5,8h-8C7.224,8,7,7.776,7,7.5S7.224,7,7.5,7h8C15.776,7,16,7.224,16,7.5S15.776,8,15.5,8z"/>
		</g>
		<g>
			<path d="M12.5,6h-2C10.224,6,10,5.776,10,5.5v-5c0-0.189,0.107-0.362,0.276-0.447c0.17-0.085,0.373-0.065,0.523,0.047l2,1.5
				C12.926,1.694,13,1.843,13,2v3.5C13,5.776,12.776,6,12.5,6z M11,5h1V2.25L11,1.5V5z"/>
		</g>
	</g>
</g>
<g id="Matches">
</g>
<g id="Cezve">
</g>
</svg>
