<?xml version="1.0" encoding="iso-8859-1"?>
<!-- Generator: Adobe Illustrator 19.2.1, SVG Export Plug-In . SVG Version: 6.00 Build 0)  -->
<svg version="1.1" xmlns="http://www.w3.org/2000/svg" xmlns:xlink="http://www.w3.org/1999/xlink" x="0px" y="0px"
	 viewBox="0 0 24 24" style="enable-background:new 0 0 24 24;" xml:space="preserve">
<g id="Cutting_Board_1">
</g>
<g id="Cutting_Board_2">
</g>
<g id="Chef_x27_s_Hat_1">
</g>
<g id="Chef_x27_s_Hat_2">
</g>
<g id="Kitchen_Scale">
</g>
<g id="Measuring_Cup">
</g>
<g id="Pot_1">
</g>
<g id="Pot_2">
</g>
<g id="Wok_1">
</g>
<g id="Wok_2">
</g>
<g id="Teapot">
</g>
<g id="Plate">
</g>
<g id="Sauce_Boat">
</g>
<g id="Cauldron">
</g>
<g id="Cookbook">
</g>
<g id="Salt_Pot">
</g>
<g id="Pepper_Pot_1">
</g>
<g id="Pepper_Pot_2">
</g>
<g id="Egg_Timer">
</g>
<g id="Olive_Oil_Pot">
</g>
<g id="Pancake_Griddle">
</g>
<g id="Pan">
</g>
<g id="Kettle">
</g>
<g id="Microwave">
</g>
<g id="Cooker">
</g>
<g id="Meat_Grinder">
</g>
<g id="Coffee_Maker">
</g>
<g id="Household_Mixer">
</g>
<g id="Stand_Mixer">
</g>
<g id="Hand_Blender">
</g>
<g id="Blender">
</g>
<g id="Cooker_Hood">
</g>
<g id="Refrigerator">
</g>
<g id="Freezer">
</g>
<g id="Apron">
</g>
<g id="Oven_Gloves">
</g>
<g id="Rolling_Pin">
</g>
<g id="Sieve">
</g>
<g id="Tea_Sieve">
	<g>
		<g>
			<path d="M8.5,24C3.813,24,0,20.187,0,15.5S3.813,7,8.5,7s8.5,3.813,8.5,8.5S13.187,24,8.5,24z M8.5,8C4.364,8,1,11.364,1,15.5
				S4.364,23,8.5,23s7.5-3.364,7.5-7.5S12.636,8,8.5,8z"/>
		</g>
		<g>
			<path d="M8.5,16c-3.649,0-8-0.26-8-1.5C0.5,14.224,0.724,14,1,14c0.207,0,0.386,0.126,0.461,0.306C1.915,14.564,4.29,15,8.5,15
				s6.585-0.436,7.039-0.694C15.614,14.126,15.793,14,16,14c0.276,0,0.5,0.224,0.5,0.5C16.5,15.74,12.149,16,8.5,16z"/>
		</g>
		<g>
			<circle cx="8.5" cy="11.5" r="0.5"/>
		</g>
		<g>
			<circle cx="8.5" cy="9.5" r="0.5"/>
		</g>
		<g>
			<circle cx="8.5" cy="13.5" r="0.5"/>
		</g>
		<g>
			<circle cx="10.5" cy="11.5" r="0.5"/>
		</g>
		<g>
			<circle cx="6.5" cy="11.5" r="0.5"/>
		</g>
		<g>
			<ellipse transform="matrix(0.7071 -0.7071 0.7071 0.7071 -4.2279 9.9645)" cx="9.914" cy="10.086" rx="0.5" ry="0.5"/>
		</g>
		<g>
			<ellipse transform="matrix(0.7071 -0.7071 0.7071 0.7071 -7.0563 8.7929)" cx="7.086" cy="12.914" rx="0.5" ry="0.5"/>
		</g>
		<g>
			<ellipse transform="matrix(0.7071 -0.7071 0.7071 0.7071 -6.2279 10.7929)" cx="9.914" cy="12.914" rx="0.5" ry="0.5"/>
		</g>
		<g>
			<ellipse transform="matrix(0.7071 -0.7071 0.7071 0.7071 -5.0563 7.9645)" cx="7.086" cy="10.086" rx="0.5" ry="0.5"/>
		</g>
		<g>
			<circle cx="8.5" cy="19.5" r="0.5"/>
		</g>
		<g>
			<circle cx="8.5" cy="17.5" r="0.5"/>
		</g>
		<g>
			<circle cx="8.5" cy="21.5" r="0.5"/>
		</g>
		<g>
			<circle cx="10.5" cy="19.5" r="0.5"/>
		</g>
		<g>
			<circle cx="6.5" cy="19.5" r="0.5"/>
		</g>
		<g>
			<ellipse transform="matrix(0.7071 -0.7071 0.7071 0.7071 -9.8848 12.3076)" cx="9.914" cy="18.086" rx="0.5" ry="0.5"/>
		</g>
		<g>
			<ellipse transform="matrix(0.7071 -0.7071 0.7071 0.7071 -12.7132 11.136)" cx="7.086" cy="20.914" rx="0.5" ry="0.5"/>
		</g>
		<g>
			<ellipse transform="matrix(0.7071 -0.7071 0.7071 0.7071 -11.8848 13.136)" cx="9.914" cy="20.914" rx="0.5" ry="0.5"/>
		</g>
		<g>
			<ellipse transform="matrix(0.7071 -0.7071 0.7071 0.7071 -10.7132 10.3076)" cx="7.086" cy="18.086" rx="0.5" ry="0.5"/>
		</g>
		<g>
			<path d="M20.5,18c-0.276,0-0.5-0.224-0.5-0.5v-11C20,3.467,17.532,1,14.5,1S9,3.467,9,6.5v1C9,7.776,8.776,8,8.5,8S8,7.776,8,7.5
				v-1C8,2.916,10.916,0,14.5,0S21,2.916,21,6.5v11C21,17.776,20.776,18,20.5,18z"/>
		</g>
		<g>
			<path d="M20.5,24c-1.93,0-3.5-1.57-3.5-3.5s1.57-3.5,3.5-3.5s3.5,1.57,3.5,3.5S22.43,24,20.5,24z M20.5,18
				c-1.379,0-2.5,1.122-2.5,2.5s1.121,2.5,2.5,2.5s2.5-1.122,2.5-2.5S21.879,18,20.5,18z"/>
		</g>
	</g>
</g>
<g id="Grater">
</g>
<g id="Knife_Holder">
</g>
<g id="Funnel">
</g>
<g id="Kitchen_Clock">
</g>
<g id="Lemon_Juicer">
</g>
<g id="Pastry_Bag_1">
</g>
<g id="Pastry_Bag_2">
</g>
<g id="Corkscrew">
</g>
<g id="Bottle_Opener">
</g>
<g id="Service">
</g>
<g id="Chopsticks">
</g>
<g id="Hatchet">
</g>
<g id="Filleting_Knife">
</g>
<g id="Bread_Knife">
</g>
<g id="Herb_Knife">
</g>
<g id="Whetting">
</g>
<g id="Cake_Knife">
</g>
<g id="Layer_58">
</g>
<g id="Ladle">
</g>
<g id="Sauce_Spoon">
</g>
<g id="Egg_Beater">
</g>
<g id="Meat_Fork">
</g>
<g id="Kitchen_Spoon_1">
</g>
<g id="Kitchen_Spoon_2">
</g>
<g id="Pizza_Cutter">
</g>
<g id="Potato_Musher">
</g>
<g id="Peeler">
</g>
<g id="Honey_Dipper">
</g>
<g id="Fork">
</g>
<g id="Knife">
</g>
<g id="Spoon">
</g>
<g id="Cutlery_Set">
</g>
<g id="Sugar_Bowl">
</g>
<g id="Matches">
</g>
<g id="Cezve">
</g>
</svg>
