<?xml version="1.0" encoding="iso-8859-1"?>
<!-- Generator: Adobe Illustrator 19.2.1, SVG Export Plug-In . SVG Version: 6.00 Build 0)  -->
<svg version="1.1" xmlns="http://www.w3.org/2000/svg" xmlns:xlink="http://www.w3.org/1999/xlink" x="0px" y="0px"
	 viewBox="0 0 24 24" style="enable-background:new 0 0 24 24;" xml:space="preserve">
<g id="Cutting_Board_1">
</g>
<g id="Cutting_Board_2">
</g>
<g id="Chef_x27_s_Hat_1">
</g>
<g id="Chef_x27_s_Hat_2">
</g>
<g id="Kitchen_Scale">
</g>
<g id="Measuring_Cup">
</g>
<g id="Pot_1">
</g>
<g id="Pot_2">
</g>
<g id="Wok_1">
</g>
<g id="Wok_2">
</g>
<g id="Teapot">
	<g>
		<g>
			<path d="M19,12H8c-0.276,0-0.5-0.224-0.5-0.5S7.724,11,8,11h11c0.276,0,0.5,0.224,0.5,0.5S19.276,12,19,12z"/>
		</g>
		<g>
			<path d="M13.5,10C13.224,10,13,9.776,13,9.5v-2C13,7.224,13.224,7,13.5,7S14,7.224,14,7.5v2C14,9.776,13.776,10,13.5,10z"/>
		</g>
		<g>
			<path d="M14.5,8h-2C12.224,8,12,7.776,12,7.5S12.224,7,12.5,7h2C14.776,7,15,7.224,15,7.5S14.776,8,14.5,8z"/>
		</g>
		<g>
			<path d="M22.633,24H4.367c-0.23,0-0.431-0.157-0.486-0.381C3.628,22.585,3.5,21.536,3.5,20.5c0-0.558,0.039-1.134,0.117-1.719
				c-1.234-0.651-1.555-2.624-1.818-4.24c-0.089-0.545-0.172-1.061-0.276-1.393c-0.198-0.634-0.737-1.628-1.384-2.303
				c-0.188-0.197-0.185-0.507,0.007-0.7l1-1C1.304,8.99,1.545,8.956,1.74,9.061c0,0,3.509,1.917,5.158,2.814
				C8.728,10.018,11.058,9,13.5,9c5.514,0,10,5.159,10,11.5c0,1.036-0.128,2.085-0.381,3.119C23.063,23.843,22.863,24,22.633,24z
				 M4.766,23h17.469c0.176-0.832,0.266-1.671,0.266-2.5c0-5.79-4.038-10.5-9-10.5c-2.28,0-4.459,1.007-6.136,2.835
				c-0.156,0.169-0.406,0.209-0.607,0.102c-1.192-0.648-4.174-2.276-5.168-2.819l-0.404,0.404c0.627,0.773,1.098,1.709,1.292,2.329
				c0.125,0.399,0.21,0.923,0.309,1.53c0.231,1.42,0.547,3.365,1.5,3.591c0.255,0.061,0.42,0.308,0.378,0.566
				C4.555,19.208,4.5,19.868,4.5,20.5C4.5,21.329,4.589,22.168,4.766,23z"/>
		</g>
		<g>
			<path d="M20.951,22c-0.016,0-0.033-0.001-0.049-0.002c-0.275-0.027-0.476-0.271-0.449-0.546c0.031-0.318,0.047-0.636,0.047-0.951
				c0-1.501-0.329-2.979-0.951-4.271c-0.12-0.249-0.015-0.547,0.234-0.667c0.249-0.119,0.548-0.015,0.667,0.234
				c0.687,1.427,1.05,3.054,1.05,4.705c0,0.348-0.018,0.698-0.052,1.049C21.423,21.807,21.206,22,20.951,22z"/>
		</g>
		<g>
			<path d="M20.5,13.5c-0.276,0-0.5-0.224-0.5-0.5V7c0-3.309-2.691-6-6-6S8,3.691,8,7v5c0,0.276-0.224,0.5-0.5,0.5S7,12.276,7,12V7
				c0-3.86,3.14-7,7-7s7,3.14,7,7v6C21,13.276,20.776,13.5,20.5,13.5z"/>
		</g>
	</g>
</g>
<g id="Plate">
</g>
<g id="Sauce_Boat">
</g>
<g id="Cauldron">
</g>
<g id="Cookbook">
</g>
<g id="Salt_Pot">
</g>
<g id="Pepper_Pot_1">
</g>
<g id="Pepper_Pot_2">
</g>
<g id="Egg_Timer">
</g>
<g id="Olive_Oil_Pot">
</g>
<g id="Pancake_Griddle">
</g>
<g id="Pan">
</g>
<g id="Kettle">
</g>
<g id="Microwave">
</g>
<g id="Cooker">
</g>
<g id="Meat_Grinder">
</g>
<g id="Coffee_Maker">
</g>
<g id="Household_Mixer">
</g>
<g id="Stand_Mixer">
</g>
<g id="Hand_Blender">
</g>
<g id="Blender">
</g>
<g id="Cooker_Hood">
</g>
<g id="Refrigerator">
</g>
<g id="Freezer">
</g>
<g id="Apron">
</g>
<g id="Oven_Gloves">
</g>
<g id="Rolling_Pin">
</g>
<g id="Sieve">
</g>
<g id="Tea_Sieve">
</g>
<g id="Grater">
</g>
<g id="Knife_Holder">
</g>
<g id="Funnel">
</g>
<g id="Kitchen_Clock">
</g>
<g id="Lemon_Juicer">
</g>
<g id="Pastry_Bag_1">
</g>
<g id="Pastry_Bag_2">
</g>
<g id="Corkscrew">
</g>
<g id="Bottle_Opener">
</g>
<g id="Service">
</g>
<g id="Chopsticks">
</g>
<g id="Hatchet">
</g>
<g id="Filleting_Knife">
</g>
<g id="Bread_Knife">
</g>
<g id="Herb_Knife">
</g>
<g id="Whetting">
</g>
<g id="Cake_Knife">
</g>
<g id="Layer_58">
</g>
<g id="Ladle">
</g>
<g id="Sauce_Spoon">
</g>
<g id="Egg_Beater">
</g>
<g id="Meat_Fork">
</g>
<g id="Kitchen_Spoon_1">
</g>
<g id="Kitchen_Spoon_2">
</g>
<g id="Pizza_Cutter">
</g>
<g id="Potato_Musher">
</g>
<g id="Peeler">
</g>
<g id="Honey_Dipper">
</g>
<g id="Fork">
</g>
<g id="Knife">
</g>
<g id="Spoon">
</g>
<g id="Cutlery_Set">
</g>
<g id="Sugar_Bowl">
</g>
<g id="Matches">
</g>
<g id="Cezve">
</g>
</svg>
