<?xml version="1.0" encoding="iso-8859-1"?>
<!-- Generator: Adobe Illustrator 19.2.1, SVG Export Plug-In . SVG Version: 6.00 Build 0)  -->
<svg version="1.1" xmlns="http://www.w3.org/2000/svg" xmlns:xlink="http://www.w3.org/1999/xlink" x="0px" y="0px"
	 viewBox="0 0 24 24" style="enable-background:new 0 0 24 24;" xml:space="preserve">
<g id="Cutting_Board_1">
</g>
<g id="Cutting_Board_2">
</g>
<g id="Chef_x27_s_Hat_1">
</g>
<g id="Chef_x27_s_Hat_2">
</g>
<g id="Kitchen_Scale">
</g>
<g id="Measuring_Cup">
</g>
<g id="Pot_1">
</g>
<g id="Pot_2">
</g>
<g id="Wok_1">
</g>
<g id="Wok_2">
</g>
<g id="Teapot">
</g>
<g id="Plate">
</g>
<g id="Sauce_Boat">
</g>
<g id="Cauldron">
</g>
<g id="Cookbook">
</g>
<g id="Salt_Pot">
</g>
<g id="Pepper_Pot_1">
</g>
<g id="Pepper_Pot_2">
</g>
<g id="Egg_Timer">
</g>
<g id="Olive_Oil_Pot">
</g>
<g id="Pancake_Griddle">
</g>
<g id="Pan">
</g>
<g id="Kettle">
</g>
<g id="Microwave">
</g>
<g id="Cooker">
</g>
<g id="Meat_Grinder">
</g>
<g id="Coffee_Maker">
</g>
<g id="Household_Mixer">
</g>
<g id="Stand_Mixer">
</g>
<g id="Hand_Blender">
</g>
<g id="Blender">
</g>
<g id="Cooker_Hood">
</g>
<g id="Refrigerator">
</g>
<g id="Freezer">
</g>
<g id="Apron">
</g>
<g id="Oven_Gloves">
</g>
<g id="Rolling_Pin">
</g>
<g id="Sieve">
</g>
<g id="Tea_Sieve">
</g>
<g id="Grater">
</g>
<g id="Knife_Holder">
</g>
<g id="Funnel">
</g>
<g id="Kitchen_Clock">
</g>
<g id="Lemon_Juicer">
</g>
<g id="Pastry_Bag_1">
</g>
<g id="Pastry_Bag_2">
</g>
<g id="Corkscrew">
</g>
<g id="Bottle_Opener">
</g>
<g id="Service">
</g>
<g id="Chopsticks">
</g>
<g id="Hatchet">
</g>
<g id="Filleting_Knife">
</g>
<g id="Bread_Knife">
</g>
<g id="Herb_Knife">
</g>
<g id="Whetting">
	<g>
		<g>
			<ellipse transform="matrix(0.7071 -0.7071 0.7071 0.7071 4.0294 15.7279)" cx="21" cy="3" rx="0.5" ry="0.5"/>
		</g>
		<g>
			<path d="M16.757,9.864c-0.133,0-0.26-0.053-0.354-0.146l-2.829-2.829c-0.094-0.094-0.146-0.221-0.146-0.354
				s0.053-0.26,0.146-0.354l5.304-5.303c1.133-1.133,3.109-1.133,4.242,0c1.169,1.17,1.169,3.072,0,4.242
				c-0.605,0.605-1.423,0.909-2.28,0.866l-3.73,3.73C17.017,9.812,16.89,9.864,16.757,9.864z M14.636,6.535l2.122,2.122l3.543-3.544
				c0.111-0.11,0.271-0.159,0.422-0.142c0.633,0.089,1.249-0.115,1.691-0.558c0.78-0.779,0.78-2.049,0-2.828
				c-0.756-0.756-2.072-0.756-2.828,0L14.636,6.535z"/>
		</g>
		<g>
			<path d="M1.543,24c-0.394,0-0.786-0.151-1.086-0.451c-0.59-0.59-0.611-1.525-0.052-2.136L13.55,6.208
				c0.181-0.209,0.497-0.231,0.706-0.051c0.209,0.181,0.231,0.496,0.051,0.705L1.152,22.078c-0.206,0.225-0.199,0.553,0.006,0.758
				c0.211,0.211,0.539,0.217,0.752,0.022L16.412,9.003c0.2-0.191,0.516-0.184,0.707,0.016c0.191,0.2,0.184,0.517-0.016,0.707
				L2.594,23.588C2.293,23.863,1.917,24,1.543,24z"/>
		</g>
	</g>
</g>
<g id="Cake_Knife">
</g>
<g id="Layer_58">
</g>
<g id="Ladle">
</g>
<g id="Sauce_Spoon">
</g>
<g id="Egg_Beater">
</g>
<g id="Meat_Fork">
</g>
<g id="Kitchen_Spoon_1">
</g>
<g id="Kitchen_Spoon_2">
</g>
<g id="Pizza_Cutter">
</g>
<g id="Potato_Musher">
</g>
<g id="Peeler">
</g>
<g id="Honey_Dipper">
</g>
<g id="Fork">
</g>
<g id="Knife">
</g>
<g id="Spoon">
</g>
<g id="Cutlery_Set">
</g>
<g id="Sugar_Bowl">
</g>
<g id="Matches">
</g>
<g id="Cezve">
</g>
</svg>
