<?xml version="1.0" encoding="iso-8859-1"?>
<!-- Generator: Adobe Illustrator 19.2.1, SVG Export Plug-In . SVG Version: 6.00 Build 0)  -->
<svg version="1.1" xmlns="http://www.w3.org/2000/svg" xmlns:xlink="http://www.w3.org/1999/xlink" x="0px" y="0px"
	 viewBox="0 0 24 24" style="enable-background:new 0 0 24 24;" xml:space="preserve">
<g id="Cutting_Board_1">
</g>
<g id="Cutting_Board_2">
</g>
<g id="Chef_x27_s_Hat_1">
</g>
<g id="Chef_x27_s_Hat_2">
</g>
<g id="Kitchen_Scale">
</g>
<g id="Measuring_Cup">
</g>
<g id="Pot_1">
</g>
<g id="Pot_2">
</g>
<g id="Wok_1">
	<g>
		<g>
			<path d="M11.5,18.5c-5.176,0-9.637-3.866-10.377-8.992C1.088,9.264,1.235,9.031,1.472,8.958c0.232-0.072,0.489,0.038,0.596,0.259
				C2.603,10.315,6.36,11.5,11.5,11.5s8.897-1.185,9.433-2.282c0.107-0.222,0.364-0.33,0.596-0.259
				c0.236,0.073,0.384,0.306,0.349,0.549C21.137,14.634,16.676,18.5,11.5,18.5z M2.454,10.856C3.682,14.732,7.335,17.5,11.5,17.5
				s7.818-2.768,9.046-6.644C18.544,11.979,14.799,12.5,11.5,12.5S4.456,11.979,2.454,10.856z"/>
		</g>
		<g>
			<path d="M11.5,12.5C6.282,12.5,1,11.298,1,9s5.282-3.5,10.5-3.5S22,6.702,22,9S16.718,12.5,11.5,12.5z M11.5,6.5
				C5.614,6.5,2,7.956,2,9s3.614,2.5,9.5,2.5S21,10.044,21,9S17.386,6.5,11.5,6.5z"/>
		</g>
		<g>
			<path d="M22.5,12.5c-0.097,0-0.193-0.028-0.277-0.084l-1.5-1c-0.229-0.153-0.292-0.463-0.139-0.693
				c0.154-0.23,0.465-0.291,0.693-0.139L22,11.066V11c0-0.276,0.224-0.5,0.5-0.5S23,10.724,23,11v1c0,0.185-0.102,0.354-0.264,0.441
				C22.662,12.48,22.581,12.5,22.5,12.5z"/>
		</g>
		<g>
			<path d="M0.5,12.5c-0.081,0-0.162-0.02-0.236-0.059C0.102,12.354,0,12.185,0,12v-1c0-0.276,0.224-0.5,0.5-0.5S1,10.724,1,11
				v0.066l0.723-0.482c0.227-0.152,0.539-0.092,0.693,0.139c0.153,0.23,0.091,0.54-0.139,0.693l-1.5,1
				C0.693,12.472,0.597,12.5,0.5,12.5z"/>
		</g>
	</g>
</g>
<g id="Wok_2">
</g>
<g id="Teapot">
</g>
<g id="Plate">
</g>
<g id="Sauce_Boat">
</g>
<g id="Cauldron">
</g>
<g id="Cookbook">
</g>
<g id="Salt_Pot">
</g>
<g id="Pepper_Pot_1">
</g>
<g id="Pepper_Pot_2">
</g>
<g id="Egg_Timer">
</g>
<g id="Olive_Oil_Pot">
</g>
<g id="Pancake_Griddle">
</g>
<g id="Pan">
</g>
<g id="Kettle">
</g>
<g id="Microwave">
</g>
<g id="Cooker">
</g>
<g id="Meat_Grinder">
</g>
<g id="Coffee_Maker">
</g>
<g id="Household_Mixer">
</g>
<g id="Stand_Mixer">
</g>
<g id="Hand_Blender">
</g>
<g id="Blender">
</g>
<g id="Cooker_Hood">
</g>
<g id="Refrigerator">
</g>
<g id="Freezer">
</g>
<g id="Apron">
</g>
<g id="Oven_Gloves">
</g>
<g id="Rolling_Pin">
</g>
<g id="Sieve">
</g>
<g id="Tea_Sieve">
</g>
<g id="Grater">
</g>
<g id="Knife_Holder">
</g>
<g id="Funnel">
</g>
<g id="Kitchen_Clock">
</g>
<g id="Lemon_Juicer">
</g>
<g id="Pastry_Bag_1">
</g>
<g id="Pastry_Bag_2">
</g>
<g id="Corkscrew">
</g>
<g id="Bottle_Opener">
</g>
<g id="Service">
</g>
<g id="Chopsticks">
</g>
<g id="Hatchet">
</g>
<g id="Filleting_Knife">
</g>
<g id="Bread_Knife">
</g>
<g id="Herb_Knife">
</g>
<g id="Whetting">
</g>
<g id="Cake_Knife">
</g>
<g id="Layer_58">
</g>
<g id="Ladle">
</g>
<g id="Sauce_Spoon">
</g>
<g id="Egg_Beater">
</g>
<g id="Meat_Fork">
</g>
<g id="Kitchen_Spoon_1">
</g>
<g id="Kitchen_Spoon_2">
</g>
<g id="Pizza_Cutter">
</g>
<g id="Potato_Musher">
</g>
<g id="Peeler">
</g>
<g id="Honey_Dipper">
</g>
<g id="Fork">
</g>
<g id="Knife">
</g>
<g id="Spoon">
</g>
<g id="Cutlery_Set">
</g>
<g id="Sugar_Bowl">
</g>
<g id="Matches">
</g>
<g id="Cezve">
</g>
</svg>
