<?xml version="1.0" encoding="iso-8859-1"?>
<!-- Generator: Adobe Illustrator 19.2.1, SVG Export Plug-In . SVG Version: 6.00 Build 0)  -->
<svg version="1.1" xmlns="http://www.w3.org/2000/svg" xmlns:xlink="http://www.w3.org/1999/xlink" x="0px" y="0px"
	 viewBox="0 0 24 24" style="enable-background:new 0 0 24 24;" xml:space="preserve">
<g id="Cutting_Board_1">
</g>
<g id="Cutting_Board_2">
</g>
<g id="Chef_x27_s_Hat_1">
</g>
<g id="Chef_x27_s_Hat_2">
</g>
<g id="Kitchen_Scale">
</g>
<g id="Measuring_Cup">
</g>
<g id="Pot_1">
</g>
<g id="Pot_2">
</g>
<g id="Wok_1">
</g>
<g id="Wok_2">
	<g>
		<g>
			<path d="M9,16.5c-4.486,0-8-2.196-8-5C1,11.224,1.224,11,1.5,11S2,11.224,2,11.5C2,11.949,4.382,13,9,13s7-1.051,7-1.5
				c0-0.276,0.224-0.5,0.5-0.5s0.5,0.224,0.5,0.5C17,14.304,13.486,16.5,9,16.5z M2.588,13.076C3.682,14.487,6.178,15.5,9,15.5
				s5.318-1.013,6.412-2.424C13.854,13.704,11.371,14,9,14S4.146,13.704,2.588,13.076z"/>
		</g>
		<g>
			<path d="M9,14c-3.854,0-8-0.782-8-2.5S5.146,9,9,9s8,0.782,8,2.5S12.854,14,9,14z M9,10c-4.618,0-7,1.051-7,1.5S4.382,13,9,13
				s7-1.051,7-1.5S13.618,10,9,10z"/>
		</g>
		<g>
			<path d="M1.5,12.5c-0.161,0-0.319-0.078-0.416-0.223l-1-1.5c-0.132-0.198-0.106-0.462,0.063-0.631l1-1
				c0.195-0.195,0.512-0.195,0.707,0l1,1c0.195,0.195,0.195,0.512,0,0.707s-0.512,0.195-0.707,0L1.5,10.207l-0.356,0.356
				l0.772,1.159c0.153,0.23,0.091,0.54-0.139,0.693C1.692,12.473,1.596,12.5,1.5,12.5z"/>
		</g>
		<g>
			<path d="M16.499,12.5c-0.242,0-0.455-0.177-0.493-0.424c-0.018-0.117,0.006-0.231,0.062-0.326
				c-0.019-0.032-0.034-0.066-0.045-0.103c-0.082-0.264,0.066-0.543,0.33-0.625l6.5-2C22.9,9.007,22.95,9,23,9
				c0.561,0,1,0.549,1,1.25s-0.439,1.25-1,1.25l-6.424,0.994C16.55,12.498,16.524,12.5,16.499,12.5z M22.959,10.036l-3.021,0.93
				l2.985-0.459C22.946,10.501,23,10.403,23,10.25C23,10.156,22.98,10.083,22.959,10.036z"/>
		</g>
	</g>
</g>
<g id="Teapot">
</g>
<g id="Plate">
</g>
<g id="Sauce_Boat">
</g>
<g id="Cauldron">
</g>
<g id="Cookbook">
</g>
<g id="Salt_Pot">
</g>
<g id="Pepper_Pot_1">
</g>
<g id="Pepper_Pot_2">
</g>
<g id="Egg_Timer">
</g>
<g id="Olive_Oil_Pot">
</g>
<g id="Pancake_Griddle">
</g>
<g id="Pan">
</g>
<g id="Kettle">
</g>
<g id="Microwave">
</g>
<g id="Cooker">
</g>
<g id="Meat_Grinder">
</g>
<g id="Coffee_Maker">
</g>
<g id="Household_Mixer">
</g>
<g id="Stand_Mixer">
</g>
<g id="Hand_Blender">
</g>
<g id="Blender">
</g>
<g id="Cooker_Hood">
</g>
<g id="Refrigerator">
</g>
<g id="Freezer">
</g>
<g id="Apron">
</g>
<g id="Oven_Gloves">
</g>
<g id="Rolling_Pin">
</g>
<g id="Sieve">
</g>
<g id="Tea_Sieve">
</g>
<g id="Grater">
</g>
<g id="Knife_Holder">
</g>
<g id="Funnel">
</g>
<g id="Kitchen_Clock">
</g>
<g id="Lemon_Juicer">
</g>
<g id="Pastry_Bag_1">
</g>
<g id="Pastry_Bag_2">
</g>
<g id="Corkscrew">
</g>
<g id="Bottle_Opener">
</g>
<g id="Service">
</g>
<g id="Chopsticks">
</g>
<g id="Hatchet">
</g>
<g id="Filleting_Knife">
</g>
<g id="Bread_Knife">
</g>
<g id="Herb_Knife">
</g>
<g id="Whetting">
</g>
<g id="Cake_Knife">
</g>
<g id="Layer_58">
</g>
<g id="Ladle">
</g>
<g id="Sauce_Spoon">
</g>
<g id="Egg_Beater">
</g>
<g id="Meat_Fork">
</g>
<g id="Kitchen_Spoon_1">
</g>
<g id="Kitchen_Spoon_2">
</g>
<g id="Pizza_Cutter">
</g>
<g id="Potato_Musher">
</g>
<g id="Peeler">
</g>
<g id="Honey_Dipper">
</g>
<g id="Fork">
</g>
<g id="Knife">
</g>
<g id="Spoon">
</g>
<g id="Cutlery_Set">
</g>
<g id="Sugar_Bowl">
</g>
<g id="Matches">
</g>
<g id="Cezve">
</g>
</svg>
