<?xml version="1.0" encoding="iso-8859-1"?>
<!-- Generator: Adobe Illustrator 19.2.1, SVG Export Plug-In . SVG Version: 6.00 Build 0)  -->
<svg version="1.1" xmlns="http://www.w3.org/2000/svg" xmlns:xlink="http://www.w3.org/1999/xlink" x="0px" y="0px"
	 viewBox="0 0 24 24" style="enable-background:new 0 0 24 24;" xml:space="preserve">
<g id="Retro_Bot_1">
</g>
<g id="Retro_Bot_2">
</g>
<g id="Retro_Bot_3">
</g>
<g id="Retro_Bot_4">
</g>
<g id="Wall-E">
</g>
<g id="Eva">
</g>
<g id="Iron_Giant_1_">
</g>
<g id="Marvin_1_">
</g>
<g id="Atlas_1_">
</g>
<g id="Claptrap_1_">
</g>
<g id="Android_1_">
	<g id="Android">
		<g>
			<path d="M16.5,8h-10C6.224,8,6,7.776,6,7.5C6,4.467,8.467,2,11.5,2S17,4.467,17,7.5C17,7.776,16.776,8,16.5,8z M7.028,7h8.944
				c-0.25-2.247-2.16-4-4.472-4S7.277,4.753,7.028,7z"/>
		</g>
		<g>
			<path d="M13.5,24c-0.827,0-1.5-0.673-1.5-1.5V20h-1v2.5c0,0.827-0.673,1.5-1.5,1.5S8,23.327,8,22.5v-2.55
				c-1.14-0.232-2-1.242-2-2.45v-8C6,9.224,6.224,9,6.5,9h10C16.776,9,17,9.224,17,9.5v8c0,1.208-0.86,2.217-2,2.45v2.55
				C15,23.327,14.327,24,13.5,24z M10.5,19h2c0.276,0,0.5,0.224,0.5,0.5v3c0,0.276,0.224,0.5,0.5,0.5s0.5-0.224,0.5-0.5v-3
				c0-0.276,0.224-0.5,0.5-0.5c0.827,0,1.5-0.673,1.5-1.5V10H7v7.5C7,18.327,7.673,19,8.5,19C8.776,19,9,19.224,9,19.5v3
				C9,22.776,9.224,23,9.5,23s0.5-0.224,0.5-0.5v-3C10,19.224,10.224,19,10.5,19z"/>
		</g>
		<g>
			<circle cx="9.5" cy="5.5" r="0.5"/>
		</g>
		<g>
			<circle cx="13.5" cy="5.5" r="0.5"/>
		</g>
		<g>
			<path d="M19.5,17c-0.827,0-1.5-0.673-1.5-1.5v-5C18,9.673,18.673,9,19.5,9S21,9.673,21,10.5v5C21,16.327,20.327,17,19.5,17z
				 M19.5,10c-0.276,0-0.5,0.224-0.5,0.5v5c0,0.276,0.224,0.5,0.5,0.5s0.5-0.224,0.5-0.5v-5C20,10.224,19.776,10,19.5,10z"/>
		</g>
		<g>
			<path d="M3.5,17C2.673,17,2,16.327,2,15.5v-5C2,9.673,2.673,9,3.5,9S5,9.673,5,10.5v5C5,16.327,4.327,17,3.5,17z M3.5,10
				C3.224,10,3,10.224,3,10.5v5C3,15.776,3.224,16,3.5,16S4,15.776,4,15.5v-5C4,10.224,3.776,10,3.5,10z"/>
		</g>
		<g>
			<path d="M9.53,3.403C9.336,3.403,9.151,3.29,9.07,3.1l-1.03-2.403C7.932,0.443,8.049,0.149,8.303,0.041
				C8.554-0.07,8.851,0.048,8.959,0.303l1.03,2.403C10.098,2.96,9.98,3.254,9.727,3.363C9.663,3.391,9.596,3.403,9.53,3.403z"/>
		</g>
		<g>
			<path d="M13.47,3.403c-0.066,0-0.133-0.013-0.197-0.041c-0.254-0.109-0.372-0.402-0.263-0.656l1.03-2.403
				c0.108-0.254,0.405-0.373,0.656-0.263c0.254,0.109,0.372,0.402,0.263,0.656L13.93,3.1C13.849,3.29,13.664,3.403,13.47,3.403z"/>
		</g>
	</g>
</g>
<g id="Bender_1_">
</g>
<g id="Roberto_1_">
</g>
<g id="Robot_Devil_1_">
</g>
<g id="Robocop_1_">
</g>
<g id="ED_209_1_">
</g>
<g id="Optimus_Prime_1_">
</g>
<g id="Robot_1">
</g>
<g id="Robot_2">
</g>
<g id="Robot_3">
</g>
<g id="Robot_Arm_1">
</g>
<g id="Robot_Arm_2">
</g>
<g id="Robot_Arm_3">
</g>
<g id="Robot_Arm_4">
</g>
<g id="Robot_Arm_5">
</g>
<g id="K5_Robot">
</g>
<g id="Robot_Machine_1_1_">
</g>
<g id="Robot_Machine_2">
</g>
<g id="Artifical_Intelligence_1_1_">
</g>
<g id="Artifical_Intelligence_2">
</g>
<g id="Robot_4">
</g>
<g id="Robot_5">
</g>
<g id="Robot_6">
</g>
<g id="Robot_7">
</g>
<g id="Robot_8">
</g>
<g id="Robot_9">
</g>
<g id="Robot_10">
</g>
<g id="Robot_11">
</g>
<g id="Robot_12">
</g>
<g id="Robot_13">
</g>
</svg>
