<?xml version="1.0" encoding="iso-8859-1"?>
<!-- Generator: Adobe Illustrator 19.2.1, SVG Export Plug-In . SVG Version: 6.00 Build 0)  -->
<svg version="1.1" xmlns="http://www.w3.org/2000/svg" xmlns:xlink="http://www.w3.org/1999/xlink" x="0px" y="0px"
	 viewBox="0 0 24 24" style="enable-background:new 0 0 24 24;" xml:space="preserve">
<g id="Retro_Bot_1">
</g>
<g id="Retro_Bot_2">
</g>
<g id="Retro_Bot_3">
</g>
<g id="Retro_Bot_4">
</g>
<g id="Wall-E">
</g>
<g id="Eva">
</g>
<g id="Iron_Giant_1_">
</g>
<g id="Marvin_1_">
</g>
<g id="Atlas_1_">
</g>
<g id="Claptrap_1_">
</g>
<g id="Android_1_">
</g>
<g id="Bender_1_">
</g>
<g id="Roberto_1_">
</g>
<g id="Robot_Devil_1_">
</g>
<g id="Robocop_1_">
</g>
<g id="ED_209_1_">
</g>
<g id="Optimus_Prime_1_">
</g>
<g id="Robot_1">
</g>
<g id="Robot_2">
</g>
<g id="Robot_3">
</g>
<g id="Robot_Arm_1">
</g>
<g id="Robot_Arm_2">
</g>
<g id="Robot_Arm_3">
</g>
<g id="Robot_Arm_4">
</g>
<g id="Robot_Arm_5">
</g>
<g id="K5_Robot">
</g>
<g id="Robot_Machine_1_1_">
</g>
<g id="Robot_Machine_2">
</g>
<g id="Artifical_Intelligence_1_1_">
	<g id="Artifical_Intelligence_1">
		<g>
			<g>
				<path d="M13.493,24.039C13.217,24.039,13,23.776,13,23.5c0-1.168,3.098-2.277,4.419-2.493C19.351,20.69,19.5,20.39,19.5,20
					c0-0.354-0.088-0.485-0.21-0.667C19.168,19.15,19,18.9,19,18.5c0-0.406,0.172-0.644,0.315-0.771
					c0.301-0.266,0.673-0.233,0.747-0.226c0.273,0.034,0.468,0.284,0.434,0.559s-0.29,0.468-0.559,0.434
					c0.063,0.092,0.082,0.129,0.184,0.28C20.271,19.001,20.5,19.341,20.5,20c0,1.516-1.688,1.792-2.919,1.993
					c-1.643,0.269-3.418,1.228-3.595,1.585C13.986,23.854,13.77,24.039,13.493,24.039z"/>
			</g>
			<g>
				<path d="M2.5,24c-0.121,0-0.243-0.044-0.339-0.133c-0.203-0.187-0.216-0.503-0.028-0.706C2.93,22.296,5,19.773,5,18.5
					c0-0.566-0.651-1.696-1.341-2.893C2.475,13.554,1,10.996,1,8.5C1,4.971,3.947,0,10.5,0C17.174,0,20,5.365,20,7.5
					c0,1.232-0.122,2.055-0.19,2.415C20.539,11.176,22,13.791,22,14.5c0,0.733-0.785,1.141-1.359,1.34l0.334,1.002
					c0.06,0.18,0.013,0.378-0.121,0.512l-0.5,0.5c-0.195,0.195-0.512,0.195-0.707,0s-0.195-0.512,0-0.707l0.281-0.281l-0.402-1.207
					c-0.045-0.135-0.029-0.283,0.041-0.407c0.071-0.123,0.191-0.211,0.331-0.24c0.54-0.114,1.058-0.381,1.104-0.519
					c-0.037-0.393-1.146-2.512-2.152-4.24c-0.064-0.112-0.084-0.246-0.053-0.372C18.798,9.871,19,9.03,19,7.5
					C19,6.124,16.874,1,10.5,1C4.078,1,2,6.053,2,8.5c0,2.229,1.4,4.657,2.525,6.608C5.35,16.537,6,17.666,6,18.5
					c0,1.891-2.812,4.992-3.133,5.339C2.769,23.946,2.635,24,2.5,24z"/>
			</g>
		</g>
		<g>
			<path d="M9.5,24C9.224,24,9,23.776,9,23.5V12.707L6.146,9.854C6.053,9.76,6,9.633,6,9.5v-2c0-0.133,0.053-0.26,0.146-0.354l1-1
				c0.195-0.195,0.512-0.195,0.707,0s0.195,0.512,0,0.707L7,7.707v1.586l2.854,2.854C9.947,12.24,10,12.367,10,12.5v11
				C10,23.776,9.776,24,9.5,24z"/>
		</g>
		<g>
			<path d="M16.5,10h-7c-0.133,0-0.26-0.053-0.354-0.146l-1-1c-0.195-0.195-0.195-0.512,0-0.707s0.512-0.195,0.707,0L9.707,9H16.5
				C16.776,9,17,9.224,17,9.5S16.776,10,16.5,10z"/>
		</g>
		<g>
			<path d="M15.5,8h-3C12.224,8,12,7.776,12,7.5S12.224,7,12.5,7h2.793l0.854-0.854c0.195-0.195,0.512-0.195,0.707,0
				s0.195,0.512,0,0.707l-1,1C15.76,7.947,15.633,8,15.5,8z"/>
		</g>
		<g>
			<path d="M10.5,7c-0.128,0-0.256-0.049-0.354-0.146c-0.195-0.195-0.195-0.512,0-0.707l1-1C11.24,5.053,11.367,5,11.5,5h1.793
				l0.854-0.854c0.195-0.195,0.512-0.195,0.707,0s0.195,0.512,0,0.707l-1,1C13.76,5.947,13.633,6,13.5,6h-1.793l-0.854,0.854
				C10.756,6.951,10.628,7,10.5,7z"/>
		</g>
		<g>
			<path d="M7.5,24C7.224,24,7,23.776,7,23.5v-9.793l-2.854-2.854C4.053,10.76,4,10.633,4,10.5v-5c0-0.133,0.053-0.26,0.146-0.354
				l2-2C6.24,3.053,6.367,3,6.5,3h2c0.133,0,0.26,0.053,0.354,0.146l1,1c0.195,0.195,0.195,0.512,0,0.707s-0.512,0.195-0.707,0
				L8.293,4H6.707L5,5.707v4.586l2.854,2.854C7.947,13.24,8,13.367,8,13.5v10C8,23.776,7.776,24,7.5,24z"/>
		</g>
		<g>
			<path d="M7.5,7.5c-0.552,0-1-0.448-1-1s0.448-1,1-1s1,0.448,1,1S8.052,7.5,7.5,7.5z M7.5,6.499L7.5,6.499L8,6.5L7.5,6.499z"/>
		</g>
		<g>
			<path d="M14.5,13h-2c-0.133,0-0.26-0.053-0.354-0.146l-1-1c-0.195-0.195-0.195-0.512,0-0.707s0.512-0.195,0.707,0L12.707,12
				h1.586l0.854-0.854c0.195-0.195,0.512-0.195,0.707,0s0.195,0.512,0,0.707l-1,1C14.76,12.947,14.633,13,14.5,13z"/>
		</g>
		<g>
			<path d="M12.5,21c-0.128,0-0.256-0.049-0.354-0.146l-1-1C11.053,19.76,11,19.633,11,19.5v-4c0-0.133,0.053-0.26,0.146-0.354l1-1
				c0.195-0.195,0.512-0.195,0.707,0s0.195,0.512,0,0.707L12,15.707v3.586l0.854,0.854c0.195,0.195,0.195,0.512,0,0.707
				C12.756,20.951,12.628,21,12.5,21z"/>
		</g>
		<g>
			<path d="M13.5,19c-0.276,0-0.5-0.224-0.5-0.5v-2c0-0.133,0.053-0.26,0.146-0.354l4-4c0.195-0.195,0.512-0.195,0.707,0
				s0.195,0.512,0,0.707L14,16.707V18.5C14,18.776,13.776,19,13.5,19z"/>
		</g>
		<g>
			<path d="M12.5,21.5c-0.552,0-1-0.448-1-1s0.448-1,1-1s1,0.448,1,1S13.052,21.5,12.5,21.5z M12.5,20.499L12.5,20.499L13,20.5
				L12.5,20.499z"/>
		</g>
		<g>
			<path d="M15.5,20c-0.276,0-0.5-0.224-0.5-0.5v-2c0-0.133,0.053-0.26,0.146-0.354l1-1c0.195-0.195,0.512-0.195,0.707,0
				s0.195,0.512,0,0.707L16,17.707V19.5C16,19.776,15.776,20,15.5,20z"/>
		</g>
		<g>
			<path d="M14.5,5.5c-0.552,0-1-0.448-1-1s0.448-1,1-1s1,0.448,1,1S15.052,5.5,14.5,5.5z M14.5,4.499L14.5,4.499L15,4.5L14.5,4.499
				z"/>
		</g>
	</g>
</g>
<g id="Artifical_Intelligence_2">
</g>
<g id="Robot_4">
</g>
<g id="Robot_5">
</g>
<g id="Robot_6">
</g>
<g id="Robot_7">
</g>
<g id="Robot_8">
</g>
<g id="Robot_9">
</g>
<g id="Robot_10">
</g>
<g id="Robot_11">
</g>
<g id="Robot_12">
</g>
<g id="Robot_13">
</g>
</svg>
