<?xml version="1.0" encoding="iso-8859-1"?>
<!-- Generator: Adobe Illustrator 19.2.1, SVG Export Plug-In . SVG Version: 6.00 Build 0)  -->
<svg version="1.1" xmlns="http://www.w3.org/2000/svg" xmlns:xlink="http://www.w3.org/1999/xlink" x="0px" y="0px"
	 viewBox="0 0 24 24" style="enable-background:new 0 0 24 24;" xml:space="preserve">
<g id="Retro_Bot_1">
</g>
<g id="Retro_Bot_2">
</g>
<g id="Retro_Bot_3">
</g>
<g id="Retro_Bot_4">
</g>
<g id="Wall-E">
</g>
<g id="Eva">
</g>
<g id="Iron_Giant_1_">
</g>
<g id="Marvin_1_">
</g>
<g id="Atlas_1_">
</g>
<g id="Claptrap_1_">
</g>
<g id="Android_1_">
</g>
<g id="Bender_1_">
</g>
<g id="Roberto_1_">
</g>
<g id="Robot_Devil_1_">
</g>
<g id="Robocop_1_">
</g>
<g id="ED_209_1_">
</g>
<g id="Optimus_Prime_1_">
</g>
<g id="Robot_1">
</g>
<g id="Robot_2">
</g>
<g id="Robot_3">
</g>
<g id="Robot_Arm_1">
</g>
<g id="Robot_Arm_2">
</g>
<g id="Robot_Arm_3">
</g>
<g id="Robot_Arm_4">
</g>
<g id="Robot_Arm_5">
</g>
<g id="K5_Robot">
</g>
<g id="Robot_Machine_1_1_">
</g>
<g id="Robot_Machine_2">
</g>
<g id="Artifical_Intelligence_1_1_">
</g>
<g id="Artifical_Intelligence_2">
	<g id="Artifical_Intelligence_2_3_">
		<g>
			<path d="M10.5,24h-7c-0.133,0-0.26-0.053-0.354-0.146l-3-3C0.053,20.76,0,20.633,0,20.5v-8c0-0.133,0.053-0.26,0.146-0.354
				L2,10.293V7.5c0-0.133,0.053-0.26,0.146-0.354L3,6.293V3.5c0-0.133,0.053-0.26,0.146-0.354l3-3C6.24,0.053,6.367,0,6.5,0h4
				c0.133,0,0.26,0.053,0.354,0.146l1,1c0.195,0.195,0.195,0.512,0,0.707s-0.512,0.195-0.707,0L10.293,1H6.707L4,3.707V6.5
				c0,0.133-0.053,0.26-0.146,0.354L3,7.707V10.5c0,0.133-0.053,0.26-0.146,0.354L1,12.707v7.586L3.707,23h6.586l0.854-0.854
				c0.195-0.195,0.512-0.195,0.707,0s0.195,0.512,0,0.707l-1,1C10.76,23.947,10.633,24,10.5,24z"/>
		</g>
		<g>
			<path d="M19.5,24h-7c-0.133,0-0.26-0.053-0.354-0.146l-1-1c-0.195-0.195-0.195-0.512,0-0.707s0.512-0.195,0.707,0L12.707,23
				h6.586L22,20.293v-7.586l-1.854-1.854C20.053,10.76,20,10.633,20,10.5V7.707l-0.854-0.854C19.053,6.76,19,6.633,19,6.5V3.707
				L16.293,1h-3.586l-0.854,0.854c-0.195,0.195-0.512,0.195-0.707,0s-0.195-0.512,0-0.707l1-1C12.24,0.053,12.367,0,12.5,0h4
				c0.133,0,0.26,0.053,0.354,0.146l3,3C19.947,3.24,20,3.367,20,3.5v2.793l0.854,0.854C20.947,7.24,21,7.367,21,7.5v2.793
				l1.854,1.854C22.947,12.24,23,12.367,23,12.5v8c0,0.133-0.053,0.26-0.146,0.354l-3,3C19.76,23.947,19.633,24,19.5,24z"/>
		</g>
		<g>
			<path d="M2.5,23C2.224,23,2,22.776,2,22.5v-9c0-0.133,0.053-0.26,0.146-0.354l3-3c0.195-0.195,0.512-0.195,0.707,0
				s0.195,0.512,0,0.707L3,13.707V22.5C3,22.776,2.776,23,2.5,23z"/>
		</g>
		<g>
			<path d="M5.5,11.5c-0.552,0-1-0.448-1-1s0.448-1,1-1s1,0.448,1,1S6.052,11.5,5.5,11.5z M5.5,10.499L5.5,10.499L6,10.5L5.5,10.499
				z"/>
		</g>
		<g>
			<path d="M6.5,24c-0.128,0-0.256-0.049-0.354-0.146l-2-2C4.053,21.76,4,21.633,4,21.5v-7c0-0.133,0.053-0.26,0.146-0.354l1-1
				c0.195-0.195,0.512-0.195,0.707,0s0.195,0.512,0,0.707L5,14.707v6.586l1.854,1.854c0.195,0.195,0.195,0.512,0,0.707
				C6.756,23.951,6.628,24,6.5,24z"/>
		</g>
		<g>
			<path d="M9.5,24c-0.128,0-0.256-0.049-0.354-0.146l-3-3C6.053,20.76,6,20.633,6,20.5v-5c0-0.133,0.053-0.26,0.146-0.354L7,14.293
				V12.5C7,12.224,7.224,12,7.5,12S8,12.224,8,12.5v2c0,0.133-0.053,0.26-0.146,0.354L7,15.707v4.586l2.854,2.854
				c0.195,0.195,0.195,0.512,0,0.707C9.756,23.951,9.628,24,9.5,24z"/>
		</g>
		<g>
			<path d="M11.5,23c-0.128,0-0.256-0.049-0.354-0.146l-3-3C8.053,19.76,8,19.633,8,19.5v-1c0-0.133,0.053-0.26,0.146-0.354
				L11,15.293V7.707l-0.854-0.854c-0.195-0.195-0.195-0.512,0-0.707s0.512-0.195,0.707,0l1,1C11.947,7.24,12,7.367,12,7.5v8
				c0,0.133-0.053,0.26-0.146,0.354L9,18.707v0.586l2.854,2.854c0.195,0.195,0.195,0.512,0,0.707C11.756,22.951,11.628,23,11.5,23z"
				/>
		</g>
		<g>
			<path d="M9.5,15C9.224,15,9,14.776,9,14.5V9.707L7.293,8H5.5C5.224,8,5,7.776,5,7.5S5.224,7,5.5,7h2
				c0.133,0,0.26,0.053,0.354,0.146l2,2C9.947,9.24,10,9.367,10,9.5v5C10,14.776,9.776,15,9.5,15z"/>
		</g>
		<g>
			<path d="M7.5,6h-2C5.224,6,5,5.776,5,5.5S5.224,5,5.5,5h1.793l2.854-2.854c0.195-0.195,0.512-0.195,0.707,0s0.195,0.512,0,0.707
				l-3,3C7.76,5.947,7.633,6,7.5,6z"/>
		</g>
		<g>
			<path d="M6.5,4C6.372,4,6.244,3.951,6.146,3.854c-0.195-0.195-0.195-0.512,0-0.707l1-1c0.195-0.195,0.512-0.195,0.707,0
				s0.195,0.512,0,0.707l-1,1C6.756,3.951,6.628,4,6.5,4z"/>
		</g>
		<g>
			<path d="M10.5,7.5c-0.552,0-1-0.448-1-1s0.448-1,1-1s1,0.448,1,1S11.052,7.5,10.5,7.5z M10.5,6.499L10.5,6.499L11,6.5L10.5,6.499
				z"/>
		</g>
		<g>
			<path d="M18.5,22H14c-0.133,0-0.26-0.053-0.354-0.146l-2-2c-0.195-0.195-0.195-0.512,0-0.707s0.512-0.195,0.707,0L14.207,21H18.5
				c0.276,0,0.5,0.224,0.5,0.5S18.776,22,18.5,22z"/>
		</g>
		<g>
			<path d="M20.5,20h-5c-0.133,0-0.26-0.053-0.354-0.146l-1-1c-0.195-0.195-0.195-0.512,0-0.707s0.512-0.195,0.707,0L15.707,19H20.5
				c0.276,0,0.5,0.224,0.5,0.5S20.776,20,20.5,20z"/>
		</g>
		<g>
			<path d="M11.5,20c-0.552,0-1-0.448-1-1s0.448-1,1-1s1,0.448,1,1S12.052,20,11.5,20z M11.5,18.999L11.5,18.999L12,19L11.5,18.999z
				"/>
		</g>
		<g>
			<path d="M18.5,17h-4c-0.276,0-0.5-0.224-0.5-0.5v-4c0-0.276,0.224-0.5,0.5-0.5h4c0.276,0,0.5,0.224,0.5,0.5v4
				C19,16.776,18.776,17,18.5,17z M15,16h3v-3h-3V16z"/>
		</g>
		<g>
			<path d="M18.5,18c-0.276,0-0.5-0.224-0.5-0.5v-1c0-0.276,0.224-0.5,0.5-0.5h1c0.276,0,0.5,0.224,0.5,0.5S19.776,17,19.5,17H19
				v0.5C19,17.776,18.776,18,18.5,18z"/>
		</g>
		<g>
			<path d="M16.5,18c-0.276,0-0.5-0.224-0.5-0.5v-1c0-0.276,0.224-0.5,0.5-0.5s0.5,0.224,0.5,0.5v1C17,17.776,16.776,18,16.5,18z"/>
		</g>
		<g>
			<path d="M14.5,19c-0.276,0-0.5-0.224-0.5-0.5V17h-0.5c-0.276,0-0.5-0.224-0.5-0.5s0.224-0.5,0.5-0.5h1c0.276,0,0.5,0.224,0.5,0.5
				v2C15,18.776,14.776,19,14.5,19z"/>
		</g>
		<g>
			<path d="M19.5,13h-1c-0.276,0-0.5-0.224-0.5-0.5v-4C18,8.224,18.224,8,18.5,8S19,8.224,19,8.5V12h0.5c0.276,0,0.5,0.224,0.5,0.5
				S19.776,13,19.5,13z"/>
		</g>
		<g>
			<path d="M16.5,13c-0.276,0-0.5-0.224-0.5-0.5v-5c0-0.133,0.053-0.26,0.146-0.354l1-1c0.195-0.195,0.512-0.195,0.707,0
				s0.195,0.512,0,0.707L17,7.707V12.5C17,12.776,16.776,13,16.5,13z"/>
		</g>
		<g>
			<path d="M14.5,13h-1c-0.276,0-0.5-0.224-0.5-0.5s0.224-0.5,0.5-0.5H14v-0.5c0-0.276,0.224-0.5,0.5-0.5s0.5,0.224,0.5,0.5v1
				C15,12.776,14.776,13,14.5,13z"/>
		</g>
		<g>
			<path d="M14.5,15h-1c-0.276,0-0.5-0.224-0.5-0.5s0.224-0.5,0.5-0.5h1c0.276,0,0.5,0.224,0.5,0.5S14.776,15,14.5,15z"/>
		</g>
		<g>
			<path d="M19.5,15h-1c-0.276,0-0.5-0.224-0.5-0.5s0.224-0.5,0.5-0.5h1c0.276,0,0.5,0.224,0.5,0.5S19.776,15,19.5,15z"/>
		</g>
		<g>
			<path d="M13.5,10c-0.128,0-0.256-0.049-0.354-0.146c-0.195-0.195-0.195-0.512,0-0.707L14,8.293V6.707l-1.854-1.854
				c-0.195-0.195-0.195-0.512,0-0.707s0.512-0.195,0.707,0l2,2C14.947,6.24,15,6.367,15,6.5v2c0,0.133-0.053,0.26-0.146,0.354l-1,1
				C13.756,9.951,13.628,10,13.5,10z"/>
		</g>
		<g>
			<path d="M17.5,5h-2c-0.133,0-0.26-0.053-0.354-0.146l-2-2c-0.195-0.195-0.195-0.512,0-0.707s0.512-0.195,0.707,0L15.707,4H17.5
				C17.776,4,18,4.224,18,4.5S17.776,5,17.5,5z"/>
		</g>
		<g>
			<circle cx="16.5" cy="14.5" r="0.5"/>
		</g>
	</g>
</g>
<g id="Robot_4">
</g>
<g id="Robot_5">
</g>
<g id="Robot_6">
</g>
<g id="Robot_7">
</g>
<g id="Robot_8">
</g>
<g id="Robot_9">
</g>
<g id="Robot_10">
</g>
<g id="Robot_11">
</g>
<g id="Robot_12">
</g>
<g id="Robot_13">
</g>
</svg>
