<?xml version="1.0" encoding="iso-8859-1"?>
<!-- Generator: Adobe Illustrator 19.2.1, SVG Export Plug-In . SVG Version: 6.00 Build 0)  -->
<svg version="1.1" xmlns="http://www.w3.org/2000/svg" xmlns:xlink="http://www.w3.org/1999/xlink" x="0px" y="0px"
	 viewBox="0 0 24 24" style="enable-background:new 0 0 24 24;" xml:space="preserve">
<g id="Retro_Bot_1">
</g>
<g id="Retro_Bot_2">
</g>
<g id="Retro_Bot_3">
</g>
<g id="Retro_Bot_4">
</g>
<g id="Wall-E">
</g>
<g id="Eva">
</g>
<g id="Iron_Giant_1_">
</g>
<g id="Marvin_1_">
</g>
<g id="Atlas_1_">
	<g id="Atlas">
		<g>
			<path d="M11.5,22C6.262,22,2,17.738,2,12.5S6.262,3,11.5,3S21,7.262,21,12.5S16.738,22,11.5,22z M11.5,4C6.813,4,3,7.813,3,12.5
				S6.813,21,11.5,21s8.5-3.813,8.5-8.5S16.187,4,11.5,4z"/>
		</g>
		<g>
			<path d="M18.5,24h-14c-0.154,0-0.299-0.071-0.394-0.192c-0.095-0.122-0.129-0.28-0.092-0.429l1.057-4.242
				c0.066-0.268,0.334-0.429,0.606-0.364c0.268,0.067,0.431,0.338,0.364,0.606L5.14,23H17.86l-0.902-3.621
				c-0.066-0.268,0.097-0.54,0.364-0.606c0.269-0.066,0.539,0.097,0.606,0.364l1.057,4.242c0.037,0.149,0.003,0.308-0.092,0.429
				C18.799,23.929,18.654,24,18.5,24z"/>
		</g>
		<g>
			<path d="M17.432,6.231c-0.04,0-0.081-0.005-0.122-0.015c-0.269-0.068-0.431-0.339-0.362-0.607L17.858,2H5.143l0.911,3.608
				c0.068,0.268-0.094,0.54-0.362,0.607C5.421,6.284,5.152,6.121,5.085,5.854L4.016,1.623c-0.038-0.149-0.005-0.308,0.09-0.43
				S4.346,1,4.5,1h14c0.154,0,0.3,0.071,0.395,0.193s0.128,0.28,0.09,0.43l-1.068,4.231C17.859,6.08,17.655,6.231,17.432,6.231z"/>
		</g>
		<g>
			<path d="M11.5,16C9.57,16,8,14.43,8,12.5S9.57,9,11.5,9s3.5,1.57,3.5,3.5S13.43,16,11.5,16z M11.5,10C10.121,10,9,11.122,9,12.5
				s1.121,2.5,2.5,2.5s2.5-1.122,2.5-2.5S12.879,10,11.5,10z"/>
		</g>
		<g>
			<path d="M8.5,21.5C8.224,21.5,8,21.276,8,21v-3.022c-1.857-1.19-3-3.262-3-5.478c0-2.216,1.143-4.289,3-5.478V4
				c0-0.276,0.224-0.5,0.5-0.5S9,3.724,9,4v3.304c0,0.179-0.096,0.344-0.25,0.433C7.054,8.717,6,10.542,6,12.5
				c0,1.951,1.046,3.77,2.732,4.754c0.016,0.008,0.03,0.017,0.045,0.027C8.936,17.387,9.017,17.569,9,17.748V21
				C9,21.276,8.776,21.5,8.5,21.5z"/>
		</g>
		<g>
			<path d="M14.5,21.5c-0.276,0-0.5-0.224-0.5-0.5v-3.222c-0.031-0.197,0.06-0.402,0.242-0.509c0.002,0,0.003-0.001,0.005-0.002
				C15.945,16.285,17,14.459,17,12.5c0-1.953-1.05-3.775-2.74-4.758C14.103,7.655,14,7.489,14,7.304V4c0-0.276,0.224-0.5,0.5-0.5
				S15,3.724,15,4v3.022c1.857,1.19,3,3.262,3,5.478c0,2.216-1.143,4.288-3,5.478V21C15,21.276,14.776,21.5,14.5,21.5z"/>
		</g>
		<g>
			<path d="M11.5,13.5c-0.552,0-1-0.449-1-1s0.448-1,1-1s1,0.449,1,1S12.052,13.5,11.5,13.5z M11.5,12.499
				C11.5,12.5,11.5,12.5,11.5,12.499L12,12.5L11.5,12.499z"/>
		</g>
		<g>
			<path d="M11.5,10C11.224,10,11,9.776,11,9.5v-6C11,3.224,11.224,3,11.5,3S12,3.224,12,3.5v6C12,9.776,11.776,10,11.5,10z"/>
		</g>
		<g>
			<path d="M11.5,22c-0.276,0-0.5-0.224-0.5-0.5v-6c0-0.276,0.224-0.5,0.5-0.5s0.5,0.224,0.5,0.5v6C12,21.776,11.776,22,11.5,22z"/>
		</g>
	</g>
</g>
<g id="Claptrap_1_">
</g>
<g id="Android_1_">
</g>
<g id="Bender_1_">
</g>
<g id="Roberto_1_">
</g>
<g id="Robot_Devil_1_">
</g>
<g id="Robocop_1_">
</g>
<g id="ED_209_1_">
</g>
<g id="Optimus_Prime_1_">
</g>
<g id="Robot_1">
</g>
<g id="Robot_2">
</g>
<g id="Robot_3">
</g>
<g id="Robot_Arm_1">
</g>
<g id="Robot_Arm_2">
</g>
<g id="Robot_Arm_3">
</g>
<g id="Robot_Arm_4">
</g>
<g id="Robot_Arm_5">
</g>
<g id="K5_Robot">
</g>
<g id="Robot_Machine_1_1_">
</g>
<g id="Robot_Machine_2">
</g>
<g id="Artifical_Intelligence_1_1_">
</g>
<g id="Artifical_Intelligence_2">
</g>
<g id="Robot_4">
</g>
<g id="Robot_5">
</g>
<g id="Robot_6">
</g>
<g id="Robot_7">
</g>
<g id="Robot_8">
</g>
<g id="Robot_9">
</g>
<g id="Robot_10">
</g>
<g id="Robot_11">
</g>
<g id="Robot_12">
</g>
<g id="Robot_13">
</g>
</svg>
