<?xml version="1.0" encoding="iso-8859-1"?>
<!-- Generator: Adobe Illustrator 19.2.1, SVG Export Plug-In . SVG Version: 6.00 Build 0)  -->
<svg version="1.1" xmlns="http://www.w3.org/2000/svg" xmlns:xlink="http://www.w3.org/1999/xlink" x="0px" y="0px"
	 viewBox="0 0 24 24" style="enable-background:new 0 0 24 24;" xml:space="preserve">
<g id="Retro_Bot_1">
</g>
<g id="Retro_Bot_2">
</g>
<g id="Retro_Bot_3">
</g>
<g id="Retro_Bot_4">
</g>
<g id="Wall-E">
</g>
<g id="Eva">
</g>
<g id="Iron_Giant_1_">
</g>
<g id="Marvin_1_">
</g>
<g id="Atlas_1_">
</g>
<g id="Claptrap_1_">
</g>
<g id="Android_1_">
</g>
<g id="Bender_1_">
	<g id="Bender">
		<g>
			<path d="M15.5,24h-8C6.122,24,5,22.878,5,21.5v-5.269c0-0.276,0.224-0.5,0.5-0.5s0.5,0.224,0.5,0.5V21.5
				C6,22.327,6.673,23,7.5,23h8c0.827,0,1.5-0.673,1.5-1.5v-5.269c0-0.276,0.224-0.5,0.5-0.5s0.5,0.224,0.5,0.5V21.5
				C18,22.878,16.878,24,15.5,24z"/>
		</g>
		<g>
			<path d="M17.5,12.269c-0.276,0-0.5-0.224-0.5-0.5V10.5C17,7.467,14.533,5,11.5,5S6,7.467,6,10.5v1.268c0,0.276-0.224,0.5-0.5,0.5
				S5,12.044,5,11.768V10.5C5,6.916,7.916,4,11.5,4S18,6.916,18,10.5v1.269C18,12.045,17.776,12.269,17.5,12.269z"/>
		</g>
		<g>
			<path d="M16.5,17h-10C5.122,17,4,15.878,4,14.5v-1C4,12.122,5.122,11,6.5,11h10c1.378,0,2.5,1.122,2.5,2.5v1
				C19,15.878,17.878,17,16.5,17z M6.5,12C5.673,12,5,12.673,5,13.5v1C5,15.327,5.673,16,6.5,16h10c0.827,0,1.5-0.673,1.5-1.5v-1
				c0-0.827-0.673-1.5-1.5-1.5H6.5z"/>
		</g>
		<g>
			<path d="M8.502,16c-1.047,0-2.025-0.663-2.374-1.709c-0.436-1.308,0.273-2.726,1.581-3.162c0.126-0.043,0.263-0.033,0.382,0.027
				l2.53,1.265c0.119,0.06,0.209,0.164,0.25,0.289c0.436,1.308-0.273,2.726-1.581,3.162C9.029,15.959,8.764,16,8.502,16z
				 M7.845,12.15c-0.667,0.324-1.009,1.102-0.769,1.824c0.262,0.785,1.113,1.209,1.897,0.949c0.722-0.241,1.14-0.98,0.999-1.708
				L7.845,12.15z"/>
		</g>
		<g>
			<path d="M14.499,16c-0.261,0-0.527-0.041-0.789-0.128c-1.308-0.436-2.017-1.854-1.581-3.162c0.042-0.125,0.132-0.229,0.25-0.289
				l2.53-1.265c0.119-0.06,0.256-0.07,0.382-0.027c1.308,0.436,2.017,1.854,1.581,3.162C16.523,15.337,15.545,16,14.499,16z
				 M13.028,13.214c-0.142,0.728,0.276,1.468,0.999,1.709c0.38,0.126,0.787,0.097,1.145-0.082c0.358-0.18,0.625-0.487,0.752-0.868
				c0.24-0.722-0.101-1.5-0.769-1.824L13.028,13.214z"/>
		</g>
		<g>
			<path style="fill:#FFFFFF;" d="M14,18.5H9c-0.828,0-1.5,0.672-1.5,1.5v0c0,0.828,0.672,1.5,1.5,1.5h5c0.828,0,1.5-0.672,1.5-1.5
				v0C15.5,19.172,14.828,18.5,14,18.5z"/>
			<path d="M14,22H9c-1.103,0-2-0.897-2-2s0.897-2,2-2h5c1.103,0,2,0.897,2,2S15.103,22,14,22z M9,19c-0.551,0-1,0.449-1,1
				s0.449,1,1,1h5c0.551,0,1-0.449,1-1s-0.449-1-1-1H9z"/>
		</g>
		<g>
			<path d="M9.5,22C9.224,22,9,21.776,9,21.5v-3C9,18.224,9.224,18,9.5,18s0.5,0.224,0.5,0.5v3C10,21.776,9.776,22,9.5,22z"/>
		</g>
		<g>
			<path d="M11.5,22c-0.276,0-0.5-0.224-0.5-0.5v-3c0-0.276,0.224-0.5,0.5-0.5s0.5,0.224,0.5,0.5v3C12,21.776,11.776,22,11.5,22z"/>
		</g>
		<g>
			<path d="M13.5,22c-0.276,0-0.5-0.224-0.5-0.5v-3c0-0.276,0.224-0.5,0.5-0.5s0.5,0.224,0.5,0.5v3C14,21.776,13.776,22,13.5,22z"/>
		</g>
		<g>
			<path d="M11.5,5C11.224,5,11,4.776,11,4.5v-3C11,1.224,11.224,1,11.5,1S12,1.224,12,1.5v3C12,4.776,11.776,5,11.5,5z"/>
		</g>
		<g>
			<path d="M11.5,2c-0.551,0-1-0.449-1-1s0.449-1,1-1s1,0.449,1,1S12.051,2,11.5,2z M11.5,0.999C11.5,1,11.5,1,11.5,0.999L12,1
				L11.5,0.999z"/>
		</g>
		<g>
			<circle cx="8.5" cy="13.5" r="0.5"/>
		</g>
		<g>
			<circle cx="14.5" cy="13.5" r="0.5"/>
		</g>
	</g>
</g>
<g id="Roberto_1_">
</g>
<g id="Robot_Devil_1_">
</g>
<g id="Robocop_1_">
</g>
<g id="ED_209_1_">
</g>
<g id="Optimus_Prime_1_">
</g>
<g id="Robot_1">
</g>
<g id="Robot_2">
</g>
<g id="Robot_3">
</g>
<g id="Robot_Arm_1">
</g>
<g id="Robot_Arm_2">
</g>
<g id="Robot_Arm_3">
</g>
<g id="Robot_Arm_4">
</g>
<g id="Robot_Arm_5">
</g>
<g id="K5_Robot">
</g>
<g id="Robot_Machine_1_1_">
</g>
<g id="Robot_Machine_2">
</g>
<g id="Artifical_Intelligence_1_1_">
</g>
<g id="Artifical_Intelligence_2">
</g>
<g id="Robot_4">
</g>
<g id="Robot_5">
</g>
<g id="Robot_6">
</g>
<g id="Robot_7">
</g>
<g id="Robot_8">
</g>
<g id="Robot_9">
</g>
<g id="Robot_10">
</g>
<g id="Robot_11">
</g>
<g id="Robot_12">
</g>
<g id="Robot_13">
</g>
</svg>
