<?xml version="1.0" encoding="iso-8859-1"?>
<!-- Generator: Adobe Illustrator 19.2.1, SVG Export Plug-In . SVG Version: 6.00 Build 0)  -->
<svg version="1.1" xmlns="http://www.w3.org/2000/svg" xmlns:xlink="http://www.w3.org/1999/xlink" x="0px" y="0px"
	 viewBox="0 0 24 24" style="enable-background:new 0 0 24 24;" xml:space="preserve">
<g id="Retro_Bot_1">
</g>
<g id="Retro_Bot_2">
</g>
<g id="Retro_Bot_3">
</g>
<g id="Retro_Bot_4">
</g>
<g id="Wall-E">
</g>
<g id="Eva">
</g>
<g id="Iron_Giant_1_">
</g>
<g id="Marvin_1_">
</g>
<g id="Atlas_1_">
</g>
<g id="Claptrap_1_">
	<g id="Claptrap">
		<g>
			<path d="M16.5,21h-2c-0.276,0-0.5-0.224-0.5-0.5s0.224-0.5,0.5-0.5h1.576L18.91,3H4.09l2.834,17H8.5C8.776,20,9,20.224,9,20.5
				S8.776,21,8.5,21h-2c-0.244,0-0.453-0.177-0.493-0.418l-3-18C2.982,2.437,3.023,2.289,3.118,2.177C3.214,2.064,3.353,2,3.5,2h16
				c0.147,0,0.286,0.064,0.382,0.177c0.095,0.112,0.136,0.26,0.111,0.405l-3,18C16.953,20.823,16.744,21,16.5,21z"/>
		</g>
		<g>
			<path d="M12.5,24h-2C9.121,24,8,22.878,8,21.5v-4c0-0.133,0.053-0.26,0.146-0.354l1-1C9.24,16.053,9.367,16,9.5,16h4
				c0.133,0,0.26,0.053,0.354,0.146l1,1C14.947,17.24,15,17.367,15,17.5v4C15,22.878,13.879,24,12.5,24z M9,17.707V21.5
				c0,0.827,0.673,1.5,1.5,1.5h2c0.827,0,1.5-0.673,1.5-1.5v-3.793L13.293,17H9.707L9,17.707z"/>
		</g>
		<g>
			<path d="M12.5,22h-2c-0.276,0-0.5-0.224-0.5-0.5s0.224-0.5,0.5-0.5h2c0.276,0,0.5,0.224,0.5,0.5S12.776,22,12.5,22z"/>
		</g>
		<g>
			<path d="M12.5,20h-2c-0.276,0-0.5-0.224-0.5-0.5s0.224-0.5,0.5-0.5h2c0.276,0,0.5,0.224,0.5,0.5S12.776,20,12.5,20z"/>
		</g>
		<g>
			<path d="M13.5,14h-4c-0.226,0-0.423-0.151-0.482-0.369l-3-11C5.945,2.365,6.102,2.09,6.368,2.018
				c0.27-0.073,0.542,0.085,0.614,0.351L9.882,13h3.236l2.899-10.631c0.072-0.266,0.347-0.424,0.614-0.351
				c0.267,0.073,0.423,0.348,0.351,0.614l-3,11C13.923,13.849,13.726,14,13.5,14z"/>
		</g>
		<g>
			<path d="M11.5,9C10.121,9,9,7.878,9,6.5S10.121,4,11.5,4S14,5.122,14,6.5S12.879,9,11.5,9z M11.5,5C10.673,5,10,5.673,10,6.5
				S10.673,8,11.5,8S13,7.327,13,6.5S12.327,5,11.5,5z"/>
		</g>
		<g>
			<path d="M13.5,3C13.224,3,13,2.776,13,2.5v-2C13,0.224,13.224,0,13.5,0S14,0.224,14,0.5v2C14,2.776,13.776,3,13.5,3z"/>
		</g>
		<g>
			<circle cx="11.5" cy="6.5" r="0.5"/>
		</g>
		<g>
			<path d="M2.5,19c-0.183,0-0.359-0.101-0.447-0.276l-1-2c-0.063-0.125-0.069-0.269-0.021-0.399l3-8
				C4.13,8.065,4.42,7.935,4.676,8.032c0.259,0.097,0.39,0.385,0.292,0.644l-2.923,7.795l0.902,1.805
				c0.123,0.247,0.023,0.547-0.224,0.671C2.651,18.983,2.575,19,2.5,19z"/>
		</g>
		<g>
			<path d="M20.5,19c-0.075,0-0.151-0.017-0.224-0.053c-0.247-0.124-0.347-0.424-0.224-0.671l0.902-1.805l-2.923-7.795
				c-0.098-0.259,0.033-0.547,0.292-0.644c0.257-0.096,0.547,0.034,0.644,0.292l3,8c0.049,0.13,0.042,0.275-0.021,0.399l-1,2
				C20.859,18.899,20.683,19,20.5,19z"/>
		</g>
	</g>
</g>
<g id="Android_1_">
</g>
<g id="Bender_1_">
</g>
<g id="Roberto_1_">
</g>
<g id="Robot_Devil_1_">
</g>
<g id="Robocop_1_">
</g>
<g id="ED_209_1_">
</g>
<g id="Optimus_Prime_1_">
</g>
<g id="Robot_1">
</g>
<g id="Robot_2">
</g>
<g id="Robot_3">
</g>
<g id="Robot_Arm_1">
</g>
<g id="Robot_Arm_2">
</g>
<g id="Robot_Arm_3">
</g>
<g id="Robot_Arm_4">
</g>
<g id="Robot_Arm_5">
</g>
<g id="K5_Robot">
</g>
<g id="Robot_Machine_1_1_">
</g>
<g id="Robot_Machine_2">
</g>
<g id="Artifical_Intelligence_1_1_">
</g>
<g id="Artifical_Intelligence_2">
</g>
<g id="Robot_4">
</g>
<g id="Robot_5">
</g>
<g id="Robot_6">
</g>
<g id="Robot_7">
</g>
<g id="Robot_8">
</g>
<g id="Robot_9">
</g>
<g id="Robot_10">
</g>
<g id="Robot_11">
</g>
<g id="Robot_12">
</g>
<g id="Robot_13">
</g>
</svg>
