<?xml version="1.0" encoding="iso-8859-1"?>
<!-- Generator: Adobe Illustrator 19.2.1, SVG Export Plug-In . SVG Version: 6.00 Build 0)  -->
<svg version="1.1" xmlns="http://www.w3.org/2000/svg" xmlns:xlink="http://www.w3.org/1999/xlink" x="0px" y="0px"
	 viewBox="0 0 24 24" style="enable-background:new 0 0 24 24;" xml:space="preserve">
<g id="Retro_Bot_1">
</g>
<g id="Retro_Bot_2">
</g>
<g id="Retro_Bot_3">
</g>
<g id="Retro_Bot_4">
</g>
<g id="Wall-E">
</g>
<g id="Eva">
</g>
<g id="Iron_Giant_1_">
</g>
<g id="Marvin_1_">
</g>
<g id="Atlas_1_">
</g>
<g id="Claptrap_1_">
</g>
<g id="Android_1_">
</g>
<g id="Bender_1_">
</g>
<g id="Roberto_1_">
</g>
<g id="Robot_Devil_1_">
</g>
<g id="Robocop_1_">
</g>
<g id="ED_209_1_">
	<g id="ED_209">
		<g>
			<path d="M13.5,9h-3C8.019,9,6,6.981,6,4.5S8.019,0,10.5,0h3C15.981,0,18,2.019,18,4.5S15.981,9,13.5,9z M10.5,1
				C8.57,1,7,2.57,7,4.5S8.57,8,10.5,8h3C15.43,8,17,6.43,17,4.5S15.43,1,13.5,1H10.5z"/>
		</g>
		<g>
			<path d="M6.627,6.004c-0.276,0-0.5-0.224-0.5-0.5c0-0.276,0.224-0.5,0.5-0.5L17,5l0,0c0.276,0,0.5,0.224,0.5,0.5
				C17.5,5.776,17.276,6,17,6L6.627,6.004L6.627,6.004z"/>
		</g>
		<g>
			<path d="M9.5,8.5c-0.062,0-0.125-0.011-0.186-0.036c-0.257-0.103-0.381-0.394-0.278-0.65l1-2.5
				c0.103-0.257,0.395-0.381,0.649-0.279c0.257,0.103,0.381,0.394,0.278,0.65l-1,2.5C9.886,8.381,9.698,8.5,9.5,8.5z"/>
		</g>
		<g>
			<path d="M14.5,8.5c-0.198,0-0.386-0.119-0.464-0.314l-1-2.5c-0.103-0.256,0.021-0.547,0.278-0.65
				c0.256-0.103,0.547,0.022,0.649,0.279l1,2.5c0.103,0.256-0.021,0.547-0.278,0.65C14.625,8.489,14.562,8.5,14.5,8.5z"/>
		</g>
		<g>
			<path d="M14.5,12h-5C8.673,12,8,11.327,8,10.5v-2C8,8.224,8.224,8,8.5,8h7C15.776,8,16,8.224,16,8.5v2
				C16,11.327,15.327,12,14.5,12z M9,9v1.5C9,10.776,9.225,11,9.5,11h5c0.275,0,0.5-0.224,0.5-0.5V9H9z"/>
		</g>
		<g>
			<path d="M10.5,24h-7C3.224,24,3,23.776,3,23.5v-1c0-0.189,0.107-0.362,0.276-0.447l1.807-0.903l1.409-4.698l-0.472-4.724
				l-0.874-0.874C5.053,10.76,5,10.633,5,10.5v-2C5,8.224,5.224,8,5.5,8h3C8.776,8,9,8.224,9,8.5S8.776,9,8.5,9H6v1.293l0.854,0.854
				c0.082,0.082,0.133,0.189,0.144,0.304l0.5,5c0.007,0.065,0.001,0.131-0.019,0.193l-1.5,5c-0.039,0.132-0.132,0.242-0.255,0.304
				L4,22.809V23h6v-0.191l-1.724-0.862c-0.218-0.109-0.325-0.358-0.255-0.591l1.471-4.905L9.003,11.55
				c-0.028-0.275,0.173-0.52,0.447-0.547c0.27-0.022,0.52,0.173,0.547,0.448l0.5,5c0.007,0.065,0.001,0.131-0.019,0.193L9.1,21.241
				l1.624,0.812C10.893,22.138,11,22.311,11,22.5v1C11,23.776,10.776,24,10.5,24z"/>
		</g>
		<g>
			<path d="M7,24c-0.157,0-0.306-0.074-0.4-0.2l-1.5-2c-0.165-0.221-0.12-0.534,0.101-0.7s0.533-0.122,0.7,0.1L7,22.667L8.1,21.2
				c0.167-0.222,0.48-0.265,0.7-0.1c0.221,0.166,0.266,0.479,0.101,0.7l-1.5,2C7.306,23.926,7.157,24,7,24z"/>
		</g>
		<g>
			<path d="M20.5,24h-7c-0.276,0-0.5-0.224-0.5-0.5v-1c0-0.189,0.107-0.362,0.276-0.447l1.624-0.812l-1.379-4.597
				c-0.02-0.063-0.025-0.128-0.019-0.193l0.5-5c0.027-0.275,0.277-0.468,0.547-0.448c0.274,0.027,0.476,0.272,0.447,0.547
				l-0.489,4.901l1.471,4.905c0.07,0.233-0.037,0.482-0.255,0.591L14,22.809V23h6v-0.191l-1.724-0.862
				c-0.123-0.062-0.216-0.171-0.255-0.304l-1.5-5c-0.02-0.063-0.025-0.128-0.019-0.193l0.5-5c0.011-0.115,0.062-0.222,0.144-0.304
				L18,10.293V9h-2.5C15.224,9,15,8.776,15,8.5S15.224,8,15.5,8h3C18.776,8,19,8.224,19,8.5v2c0,0.133-0.053,0.26-0.146,0.354
				l-0.874,0.874l-0.472,4.724l1.409,4.698l1.807,0.903C20.893,22.138,21,22.311,21,22.5v1C21,23.776,20.776,24,20.5,24z"/>
		</g>
		<g>
			<path d="M17,24c-0.157,0-0.306-0.074-0.4-0.2l-1.5-2c-0.165-0.221-0.12-0.534,0.101-0.7s0.533-0.122,0.7,0.1l1.1,1.466l1.1-1.466
				c0.167-0.222,0.48-0.265,0.7-0.1c0.221,0.166,0.266,0.479,0.101,0.7l-1.5,2C17.306,23.926,17.157,24,17,24z"/>
		</g>
		<g>
			<path d="M2.5,9C1.121,9,0,7.878,0,6.5S1.121,4,2.5,4S5,5.122,5,6.5S3.879,9,2.5,9z M2.5,5C1.673,5,1,5.673,1,6.5S1.673,8,2.5,8
				S4,7.327,4,6.5S3.327,5,2.5,5z"/>
		</g>
		<g>
			<path d="M3.684,5.388c-0.08,0-0.161-0.019-0.236-0.059c-0.243-0.13-0.335-0.434-0.204-0.677C3.29,4.564,4.422,2.5,6.791,2.5
				c0.276,0,0.5,0.224,0.5,0.5s-0.224,0.5-0.5,0.5c-1.776,0-2.658,1.608-2.667,1.624C4.034,5.292,3.861,5.388,3.684,5.388z"/>
		</g>
		<g>
			<path d="M4.5,6.9c-0.138,0-0.275-0.057-0.374-0.168C3.942,6.525,3.962,6.209,4.168,6.026C4.872,5.4,5.715,5.047,6.604,5.004
				c0.271-0.014,0.509,0.2,0.522,0.476C7.14,5.756,6.927,5.99,6.65,6.003c-0.667,0.032-1.278,0.291-1.818,0.77
				C4.737,6.858,4.618,6.9,4.5,6.9z"/>
		</g>
		<g>
			<circle cx="2.5" cy="6.5" r="0.5"/>
		</g>
		<g>
			<path d="M21.5,9C20.121,9,19,7.878,19,6.5S20.121,4,21.5,4S24,5.122,24,6.5S22.879,9,21.5,9z M21.5,5C20.673,5,20,5.673,20,6.5
				S20.673,8,21.5,8S23,7.327,23,6.5S22.327,5,21.5,5z"/>
		</g>
		<g>
			<path d="M20.317,5.387c-0.178,0-0.35-0.095-0.44-0.261C19.84,5.06,18.97,3.5,17.209,3.5c-0.276,0-0.5-0.224-0.5-0.5
				s0.224-0.5,0.5-0.5c2.369,0,3.501,2.064,3.548,2.152c0.13,0.243,0.039,0.544-0.203,0.675C20.479,5.368,20.397,5.387,20.317,5.387
				z"/>
		</g>
		<g>
			<path d="M19.5,6.9c-0.118,0-0.237-0.042-0.332-0.126c-0.54-0.479-1.151-0.738-1.818-0.77C17.073,5.99,16.86,5.756,16.874,5.48
				c0.013-0.275,0.259-0.487,0.522-0.476c0.889,0.042,1.731,0.396,2.436,1.022c0.206,0.183,0.226,0.499,0.042,0.706
				C19.775,6.843,19.638,6.9,19.5,6.9z"/>
		</g>
		<g>
			<circle cx="21.5" cy="6.5" r="0.5"/>
		</g>
	</g>
</g>
<g id="Optimus_Prime_1_">
</g>
<g id="Robot_1">
</g>
<g id="Robot_2">
</g>
<g id="Robot_3">
</g>
<g id="Robot_Arm_1">
</g>
<g id="Robot_Arm_2">
</g>
<g id="Robot_Arm_3">
</g>
<g id="Robot_Arm_4">
</g>
<g id="Robot_Arm_5">
</g>
<g id="K5_Robot">
</g>
<g id="Robot_Machine_1_1_">
</g>
<g id="Robot_Machine_2">
</g>
<g id="Artifical_Intelligence_1_1_">
</g>
<g id="Artifical_Intelligence_2">
</g>
<g id="Robot_4">
</g>
<g id="Robot_5">
</g>
<g id="Robot_6">
</g>
<g id="Robot_7">
</g>
<g id="Robot_8">
</g>
<g id="Robot_9">
</g>
<g id="Robot_10">
</g>
<g id="Robot_11">
</g>
<g id="Robot_12">
</g>
<g id="Robot_13">
</g>
</svg>
