<?xml version="1.0" encoding="iso-8859-1"?>
<!-- Generator: Adobe Illustrator 19.2.1, SVG Export Plug-In . SVG Version: 6.00 Build 0)  -->
<svg version="1.1" xmlns="http://www.w3.org/2000/svg" xmlns:xlink="http://www.w3.org/1999/xlink" x="0px" y="0px"
	 viewBox="0 0 24 24" style="enable-background:new 0 0 24 24;" xml:space="preserve">
<g id="Retro_Bot_1">
</g>
<g id="Retro_Bot_2">
</g>
<g id="Retro_Bot_3">
</g>
<g id="Retro_Bot_4">
</g>
<g id="Wall-E">
</g>
<g id="Eva">
	<g id="Eve">
		<g>
			<path d="M12,9C6.779,9,6,6.807,6,5.5C6,3.194,8.085,0,12,0c3.706,0,6,2.855,6,5.5C18,6.807,17.221,9,12,9z M12,1
				C8.737,1,7,3.613,7,5.5C7,7.675,10.133,8,12,8s5-0.325,5-2.5C17,3.685,15.411,1,12,1z"/>
		</g>
		<g>
			<path d="M12,24c-3.244,0-5.962-5.652-6.77-14.072C5.212,9.847,5.215,9.759,5.24,9.673C5.321,9.41,5.597,9.258,5.865,9.342
				C7.212,9.754,9.506,10,12,10c2.49,0,4.783-0.246,6.132-0.657c0.157-0.049,0.331-0.015,0.462,0.091
				c0.129,0.105,0.197,0.268,0.182,0.434C17.976,18.321,15.253,24,12,24z M6.293,10.486C7.098,17.779,9.459,23,12,23
				c2.542,0,4.902-5.22,5.707-12.514C16.254,10.812,14.193,11,12,11C9.806,11,7.745,10.812,6.293,10.486z"/>
		</g>
		<g>
			<path d="M5.723,10.322c-0.075,0-0.151-0.017-0.224-0.053C5.252,10.146,5.15,9.844,5.273,9.597
				C5.397,9.351,5.696,9.25,5.942,9.373l0.004,0.002c0.247,0.124,0.347,0.424,0.224,0.671C6.082,10.221,5.905,10.322,5.723,10.322z"
				/>
		</g>
		<g>
			<circle cx="8.5" cy="12.5" r="0.5"/>
		</g>
		<g>
			<circle cx="10.5" cy="12.5" r="0.5"/>
		</g>
		<g>
			<circle cx="12.5" cy="12.5" r="0.5"/>
		</g>
		<g>
			<path d="M8.5,6C8.389,6,8.277,5.963,8.185,5.888C7.97,5.713,7.938,5.398,8.112,5.184C8.166,5.118,8.66,4.538,9.43,4.504
				c0.509-0.017,0.989,0.196,1.429,0.647c0.192,0.198,0.188,0.515-0.01,0.707s-0.515,0.189-0.707-0.01
				C9.909,5.61,9.692,5.497,9.474,5.503C9.15,5.517,8.89,5.813,8.888,5.816C8.789,5.937,8.645,6,8.5,6z"/>
		</g>
		<g>
			<path d="M15.5,6c-0.131,0-0.261-0.051-0.359-0.152c-0.227-0.234-0.431-0.328-0.656-0.343c-0.335,0.01-0.599,0.314-0.602,0.317
				c-0.179,0.208-0.49,0.236-0.703,0.059c-0.21-0.177-0.24-0.487-0.065-0.699c0.055-0.066,0.554-0.646,1.325-0.677
				c0.504-0.023,0.984,0.197,1.42,0.647c0.192,0.198,0.187,0.515-0.012,0.707C15.751,5.953,15.625,6,15.5,6z"/>
		</g>
		<g>
			<path d="M7.328,23c-0.161,0-0.319-0.078-0.416-0.223c-1.653-2.481-2.896-6.464-3.499-11.214
				c-0.035-0.274,0.159-0.524,0.433-0.559c0.271-0.035,0.524,0.159,0.56,0.433c0.584,4.6,1.77,8.431,3.339,10.786
				c0.153,0.23,0.091,0.541-0.139,0.693C7.521,22.973,7.424,23,7.328,23z"/>
		</g>
		<g>
			<path d="M16.672,23c-0.096,0-0.192-0.027-0.277-0.084c-0.229-0.153-0.292-0.463-0.139-0.693
				c1.569-2.355,2.755-6.186,3.339-10.786c0.035-0.274,0.29-0.468,0.56-0.433c0.273,0.035,0.468,0.285,0.433,0.559
				c-0.604,4.75-1.846,8.733-3.499,11.214C16.991,22.922,16.833,23,16.672,23z"/>
		</g>
	</g>
</g>
<g id="Iron_Giant_1_">
</g>
<g id="Marvin_1_">
</g>
<g id="Atlas_1_">
</g>
<g id="Claptrap_1_">
</g>
<g id="Android_1_">
</g>
<g id="Bender_1_">
</g>
<g id="Roberto_1_">
</g>
<g id="Robot_Devil_1_">
</g>
<g id="Robocop_1_">
</g>
<g id="ED_209_1_">
</g>
<g id="Optimus_Prime_1_">
</g>
<g id="Robot_1">
</g>
<g id="Robot_2">
</g>
<g id="Robot_3">
</g>
<g id="Robot_Arm_1">
</g>
<g id="Robot_Arm_2">
</g>
<g id="Robot_Arm_3">
</g>
<g id="Robot_Arm_4">
</g>
<g id="Robot_Arm_5">
</g>
<g id="K5_Robot">
</g>
<g id="Robot_Machine_1_1_">
</g>
<g id="Robot_Machine_2">
</g>
<g id="Artifical_Intelligence_1_1_">
</g>
<g id="Artifical_Intelligence_2">
</g>
<g id="Robot_4">
</g>
<g id="Robot_5">
</g>
<g id="Robot_6">
</g>
<g id="Robot_7">
</g>
<g id="Robot_8">
</g>
<g id="Robot_9">
</g>
<g id="Robot_10">
</g>
<g id="Robot_11">
</g>
<g id="Robot_12">
</g>
<g id="Robot_13">
</g>
</svg>
