<?xml version="1.0" encoding="iso-8859-1"?>
<!-- Generator: Adobe Illustrator 19.2.1, SVG Export Plug-In . SVG Version: 6.00 Build 0)  -->
<svg version="1.1" xmlns="http://www.w3.org/2000/svg" xmlns:xlink="http://www.w3.org/1999/xlink" x="0px" y="0px"
	 viewBox="0 0 24 24" style="enable-background:new 0 0 24 24;" xml:space="preserve">
<g id="Retro_Bot_1">
</g>
<g id="Retro_Bot_2">
</g>
<g id="Retro_Bot_3">
</g>
<g id="Retro_Bot_4">
</g>
<g id="Wall-E">
</g>
<g id="Eva">
</g>
<g id="Iron_Giant_1_">
	<g id="Iron_Giant">
		<g>
			<path d="M16.5,24h-10C3.468,24,1,21.533,1,18.5v-7C1,11.224,1.224,11,1.5,11h2C3.776,11,4,11.224,4,11.5S3.776,12,3.5,12H2v6.5
				C2,20.981,4.019,23,6.5,23h10c2.481,0,4.5-2.019,4.5-4.5V12h-1.5c-0.276,0-0.5-0.224-0.5-0.5s0.224-0.5,0.5-0.5h2
				c0.276,0,0.5,0.224,0.5,0.5v7C22,21.533,19.532,24,16.5,24z"/>
		</g>
		<g>
			<path d="M16.5,20h-10C4.57,20,3,18.43,3,16.5v-7C3,4.813,6.813,1,11.5,1S20,4.813,20,9.5v7C20,18.43,18.43,20,16.5,20z M11.5,2
				C7.364,2,4,5.364,4,9.5v7C4,17.878,5.121,19,6.5,19h10c1.379,0,2.5-1.122,2.5-2.5v-7C19,5.364,15.636,2,11.5,2z"/>
		</g>
		<g>
			<path d="M1.5,13h-1C0.224,13,0,12.776,0,12.5S0.224,12,0.5,12h1C1.776,12,2,12.224,2,12.5S1.776,13,1.5,13z"/>
		</g>
		<g>
			<path d="M22.5,13h-1c-0.276,0-0.5-0.224-0.5-0.5s0.224-0.5,0.5-0.5h1c0.276,0,0.5,0.224,0.5,0.5S22.776,13,22.5,13z"/>
		</g>
		<g>
			<path d="M11.5,15c-0.276,0-0.5-0.224-0.5-0.5v-14C11,0.224,11.224,0,11.5,0S12,0.224,12,0.5v14C12,14.776,11.776,15,11.5,15z"/>
		</g>
		<g>
			<path d="M7.5,13C6.121,13,5,11.878,5,10.5S6.121,8,7.5,8S10,9.122,10,10.5S8.879,13,7.5,13z M7.5,9C6.673,9,6,9.673,6,10.5
				S6.673,12,7.5,12S9,11.327,9,10.5S8.327,9,7.5,9z"/>
		</g>
		<g>
			<path d="M15.5,13c-1.379,0-2.5-1.122-2.5-2.5S14.121,8,15.5,8S18,9.122,18,10.5S16.879,13,15.5,13z M15.5,9
				C14.673,9,14,9.673,14,10.5s0.673,1.5,1.5,1.5s1.5-0.673,1.5-1.5S16.327,9,15.5,9z"/>
		</g>
		<g>
			<circle cx="7.5" cy="10.5" r="0.5"/>
		</g>
		<g>
			<circle cx="15.5" cy="10.5" r="0.5"/>
		</g>
		<g>
			<path d="M15.5,24h-8C7.224,24,7,23.776,7,23.5v-4C7,19.224,7.224,19,7.5,19h8c0.276,0,0.5,0.224,0.5,0.5v4
				C16,23.776,15.776,24,15.5,24z M8,23h7v-3H8V23z"/>
		</g>
	</g>
</g>
<g id="Marvin_1_">
</g>
<g id="Atlas_1_">
</g>
<g id="Claptrap_1_">
</g>
<g id="Android_1_">
</g>
<g id="Bender_1_">
</g>
<g id="Roberto_1_">
</g>
<g id="Robot_Devil_1_">
</g>
<g id="Robocop_1_">
</g>
<g id="ED_209_1_">
</g>
<g id="Optimus_Prime_1_">
</g>
<g id="Robot_1">
</g>
<g id="Robot_2">
</g>
<g id="Robot_3">
</g>
<g id="Robot_Arm_1">
</g>
<g id="Robot_Arm_2">
</g>
<g id="Robot_Arm_3">
</g>
<g id="Robot_Arm_4">
</g>
<g id="Robot_Arm_5">
</g>
<g id="K5_Robot">
</g>
<g id="Robot_Machine_1_1_">
</g>
<g id="Robot_Machine_2">
</g>
<g id="Artifical_Intelligence_1_1_">
</g>
<g id="Artifical_Intelligence_2">
</g>
<g id="Robot_4">
</g>
<g id="Robot_5">
</g>
<g id="Robot_6">
</g>
<g id="Robot_7">
</g>
<g id="Robot_8">
</g>
<g id="Robot_9">
</g>
<g id="Robot_10">
</g>
<g id="Robot_11">
</g>
<g id="Robot_12">
</g>
<g id="Robot_13">
</g>
</svg>
