<?xml version="1.0" encoding="iso-8859-1"?>
<!-- Generator: Adobe Illustrator 19.2.1, SVG Export Plug-In . SVG Version: 6.00 Build 0)  -->
<svg version="1.1" xmlns="http://www.w3.org/2000/svg" xmlns:xlink="http://www.w3.org/1999/xlink" x="0px" y="0px"
	 viewBox="0 0 24 24" style="enable-background:new 0 0 24 24;" xml:space="preserve">
<g id="Retro_Bot_1">
</g>
<g id="Retro_Bot_2">
</g>
<g id="Retro_Bot_3">
</g>
<g id="Retro_Bot_4">
</g>
<g id="Wall-E">
</g>
<g id="Eva">
</g>
<g id="Iron_Giant_1_">
</g>
<g id="Marvin_1_">
</g>
<g id="Atlas_1_">
</g>
<g id="Claptrap_1_">
</g>
<g id="Android_1_">
</g>
<g id="Bender_1_">
</g>
<g id="Roberto_1_">
</g>
<g id="Robot_Devil_1_">
</g>
<g id="Robocop_1_">
</g>
<g id="ED_209_1_">
</g>
<g id="Optimus_Prime_1_">
</g>
<g id="Robot_1">
</g>
<g id="Robot_2">
</g>
<g id="Robot_3">
</g>
<g id="Robot_Arm_1">
</g>
<g id="Robot_Arm_2">
</g>
<g id="Robot_Arm_3">
</g>
<g id="Robot_Arm_4">
</g>
<g id="Robot_Arm_5">
</g>
<g id="K5_Robot">
	<g>
		<g>
			<path d="M13.5,24h-4c-0.215,0-0.406-0.138-0.475-0.342L8.14,21H2.5C2.224,21,2,20.776,2,20.5C2,9.005,6.173,0,11.5,0
				S21,9.005,21,20.5c0,0.276-0.224,0.5-0.5,0.5h-5.64l-0.886,2.658C13.906,23.862,13.715,24,13.5,24z M9.86,23h3.279l0.886-2.658
				C14.094,20.138,14.285,20,14.5,20h5.497C19.877,9.649,16.034,1,11.5,1S3.123,9.649,3.003,20H8.5c0.215,0,0.406,0.138,0.475,0.342
				L9.86,23z"/>
		</g>
		<g>
			<path d="M18.5,24h-14c-0.167,0-0.323-0.084-0.416-0.223l-2-3c-0.153-0.229-0.091-0.54,0.139-0.693
				c0.228-0.153,0.539-0.093,0.693,0.139L4.768,23h13.465l1.852-2.777c0.154-0.23,0.465-0.291,0.693-0.139
				c0.229,0.153,0.292,0.464,0.139,0.693l-2,3C18.823,23.916,18.667,24,18.5,24z"/>
		</g>
		<g>
			<path d="M11.5,6C9.303,6,8.19,4.898,8.144,4.852C7.95,4.654,7.952,4.338,8.148,4.144c0.196-0.191,0.511-0.191,0.705,0.003
				C8.898,4.19,9.754,5,11.5,5c1.747,0,2.613-0.821,2.648-0.855c0.197-0.191,0.513-0.188,0.706,0.006
				c0.193,0.195,0.193,0.509-0.001,0.703C14.808,4.9,13.685,6,11.5,6z"/>
		</g>
		<g>
			<path d="M8.5,9h-4C4.224,9,4,8.776,4,8.5S4.224,8,4.5,8h4C8.776,8,9,8.224,9,8.5S8.776,9,8.5,9z"/>
		</g>
		<g>
			<path d="M18.5,9h-4C14.224,9,14,8.776,14,8.5S14.224,8,14.5,8h4C18.776,8,19,8.224,19,8.5S18.776,9,18.5,9z"/>
		</g>
		<g>
			<path d="M11.5,10C10.673,10,10,9.327,10,8.5S10.673,7,11.5,7S13,7.673,13,8.5S12.327,10,11.5,10z M11.5,8
				C11.225,8,11,8.225,11,8.5S11.225,9,11.5,9S12,8.775,12,8.5S11.775,8,11.5,8z"/>
		</g>
		<g>
			<path d="M19.5,12h-16C3.224,12,3,11.776,3,11.5S3.224,11,3.5,11h16c0.276,0,0.5,0.224,0.5,0.5S19.776,12,19.5,12z"/>
		</g>
		<g>
			<circle cx="7.5" cy="13.5" r="0.5"/>
		</g>
		<g>
			<circle cx="9.5" cy="13.5" r="0.5"/>
		</g>
		<g>
			<circle cx="11.5" cy="13.5" r="0.5"/>
		</g>
		<g>
			<circle cx="13.5" cy="13.5" r="0.5"/>
		</g>
		<g>
			<circle cx="15.5" cy="13.5" r="0.5"/>
		</g>
		<g>
			<circle cx="13.5" cy="15.5" r="0.5"/>
		</g>
		<g>
			<circle cx="15.5" cy="15.5" r="0.5"/>
		</g>
		<g>
			<path d="M20,18H3c-0.276,0-0.5-0.224-0.5-0.5S2.724,17,3,17h17c0.276,0,0.5,0.224,0.5,0.5S20.276,18,20,18z"/>
		</g>
	</g>
</g>
<g id="Robot_Machine_1_1_">
</g>
<g id="Robot_Machine_2">
</g>
<g id="Artifical_Intelligence_1_1_">
</g>
<g id="Artifical_Intelligence_2">
</g>
<g id="Robot_4">
</g>
<g id="Robot_5">
</g>
<g id="Robot_6">
</g>
<g id="Robot_7">
</g>
<g id="Robot_8">
</g>
<g id="Robot_9">
</g>
<g id="Robot_10">
</g>
<g id="Robot_11">
</g>
<g id="Robot_12">
</g>
<g id="Robot_13">
</g>
</svg>
