<?xml version="1.0" encoding="iso-8859-1"?>
<!-- Generator: Adobe Illustrator 19.2.1, SVG Export Plug-In . SVG Version: 6.00 Build 0)  -->
<svg version="1.1" xmlns="http://www.w3.org/2000/svg" xmlns:xlink="http://www.w3.org/1999/xlink" x="0px" y="0px"
	 viewBox="0 0 24 24" style="enable-background:new 0 0 24 24;" xml:space="preserve">
<g id="Retro_Bot_1">
</g>
<g id="Retro_Bot_2">
</g>
<g id="Retro_Bot_3">
</g>
<g id="Retro_Bot_4">
</g>
<g id="Wall-E">
</g>
<g id="Eva">
</g>
<g id="Iron_Giant_1_">
</g>
<g id="Marvin_1_">
	<g id="Marvin">
		<g>
			<path d="M11.5,13C7.916,13,5,10.084,5,6.5S7.916,0,11.5,0S18,2.916,18,6.5S15.084,13,11.5,13z M11.5,1C8.468,1,6,3.467,6,6.5
				S8.468,12,11.5,12S17,9.533,17,6.5S14.532,1,11.5,1z"/>
		</g>
		<g>
			<path d="M14.5,16h-6c-0.161,0-0.312-0.077-0.405-0.208c-0.095-0.13-0.12-0.298-0.069-0.451l0.772-2.316
				C9.002,12.412,9.574,12,10.221,12h2.559c0.646,0,1.219,0.412,1.423,1.026l0.772,2.316c0.051,0.152,0.025,0.32-0.069,0.451
				C14.812,15.923,14.661,16,14.5,16z M9.193,15h4.613l-0.554-1.658C13.186,13.137,12.995,13,12.779,13h-2.559
				c-0.216,0-0.406,0.137-0.474,0.341L9.193,15z"/>
		</g>
		<g>
			<path d="M11.5,21c-0.794,0-1.53-0.394-1.971-1.055l-1.445-2.168c-0.1-0.149-0.111-0.34-0.031-0.501l1-2
				c0.125-0.248,0.424-0.345,0.671-0.224c0.247,0.124,0.347,0.424,0.224,0.671l-0.87,1.74l1.284,1.927
				c0.508,0.763,1.77,0.763,2.277,0l1.284-1.927l-0.87-1.74c-0.123-0.247-0.023-0.547,0.224-0.671
				c0.248-0.123,0.547-0.024,0.671,0.224l1,2c0.08,0.161,0.068,0.352-0.031,0.501l-1.445,2.168C13.03,20.606,12.294,21,11.5,21z"/>
		</g>
		<g>
			<path d="M9.5,24h-2c-0.173,0-0.334-0.09-0.426-0.237c-0.091-0.147-0.099-0.332-0.021-0.486l0.428-0.854l-0.474-2.84
				c-0.018-0.104-0.001-0.211,0.046-0.306l1-2c0.124-0.247,0.425-0.345,0.671-0.224c0.247,0.124,0.347,0.424,0.224,0.671
				L8.02,19.578l0.474,2.84c0.018,0.104,0.001,0.211-0.046,0.306L8.309,23h0.832l0.978-2.896c0.089-0.261,0.368-0.402,0.634-0.314
				c0.262,0.088,0.402,0.372,0.313,0.633L9.974,23.66C9.905,23.863,9.715,24,9.5,24z"/>
		</g>
		<g>
			<path d="M15.5,24h-2c-0.216,0-0.407-0.139-0.475-0.343l-1.071-3.247c-0.087-0.262,0.056-0.545,0.318-0.631
				c0.261-0.09,0.544,0.056,0.631,0.318L13.861,23h0.83l-0.139-0.276c-0.047-0.095-0.063-0.202-0.046-0.306l0.474-2.84l-0.928-1.854
				c-0.123-0.247-0.023-0.547,0.224-0.671c0.247-0.122,0.547-0.023,0.671,0.224l1,2c0.047,0.095,0.063,0.202,0.046,0.306
				l-0.474,2.84l0.428,0.854c0.077,0.155,0.069,0.339-0.021,0.486C15.834,23.91,15.673,24,15.5,24z"/>
		</g>
		<g>
			<path d="M17.025,16.118c-0.214,0-0.412-0.138-0.478-0.353C16.224,14.709,15.263,14,14.157,14h-0.324c-0.276,0-0.5-0.224-0.5-0.5
				s0.224-0.5,0.5-0.5h0.324c1.548,0,2.893,0.993,3.346,2.471c0.081,0.264-0.066,0.544-0.331,0.625
				C17.123,16.111,17.074,16.118,17.025,16.118z"/>
		</g>
		<g>
			<path d="M17.5,18c-0.827,0-1.5-0.673-1.5-1.5s0.673-1.5,1.5-1.5s1.5,0.673,1.5,1.5S18.327,18,17.5,18z M17.5,16
				c-0.275,0-0.5,0.224-0.5,0.5s0.225,0.5,0.5,0.5s0.5-0.224,0.5-0.5S17.775,16,17.5,16z"/>
		</g>
		<g>
			<path d="M5.975,16.118c-0.049,0-0.098-0.007-0.146-0.022c-0.265-0.081-0.412-0.361-0.331-0.625C5.95,13.993,7.295,13,8.843,13
				h0.324c0.276,0,0.5,0.224,0.5,0.5S9.443,14,9.167,14H8.843c-1.105,0-2.066,0.709-2.391,1.765
				C6.387,15.979,6.188,16.118,5.975,16.118z"/>
		</g>
		<g>
			<path d="M5.5,18C4.673,18,4,17.327,4,16.5S4.673,15,5.5,15S7,15.673,7,16.5S6.327,18,5.5,18z M5.5,16C5.225,16,5,16.224,5,16.5
				S5.225,17,5.5,17S6,16.776,6,16.5S5.775,16,5.5,16z"/>
		</g>
		<g>
			<path d="M5.913,9.192c-0.174,0-0.343-0.091-0.435-0.253c-0.137-0.24-0.052-0.545,0.188-0.682C7.077,7.458,9.203,7,11.5,7
				c2.256,0,4.357,0.445,5.768,1.221c0.242,0.133,0.33,0.437,0.197,0.679c-0.135,0.242-0.44,0.329-0.68,0.197
				C15.537,8.41,13.562,8,11.5,8C9.401,8,7.405,8.421,6.159,9.127C6.082,9.171,5.997,9.192,5.913,9.192z"/>
		</g>
		<g>
			<path d="M8.5,10c-0.017,0-0.033-0.001-0.049-0.002c-0.149-0.015-0.284-0.096-0.367-0.22L7.104,8.309
				c-0.153-0.229-0.091-0.54,0.139-0.693c0.228-0.153,0.539-0.092,0.693,0.139l0.642,0.961l1.536-1.537
				c0.195-0.195,0.512-0.195,0.707,0s0.195,0.512,0,0.707L8.854,9.854C8.76,9.948,8.632,10,8.5,10z"/>
		</g>
		<g>
			<path d="M14.5,10c-0.132,0-0.26-0.052-0.354-0.146l-1.968-1.968c-0.195-0.195-0.195-0.512,0-0.707s0.512-0.195,0.707,0
				l1.536,1.537l0.642-0.961c0.154-0.23,0.466-0.291,0.693-0.139c0.229,0.153,0.292,0.464,0.139,0.693l-0.979,1.469
				c-0.083,0.125-0.218,0.206-0.367,0.22C14.533,9.999,14.517,10,14.5,10z"/>
		</g>
	</g>
</g>
<g id="Atlas_1_">
</g>
<g id="Claptrap_1_">
</g>
<g id="Android_1_">
</g>
<g id="Bender_1_">
</g>
<g id="Roberto_1_">
</g>
<g id="Robot_Devil_1_">
</g>
<g id="Robocop_1_">
</g>
<g id="ED_209_1_">
</g>
<g id="Optimus_Prime_1_">
</g>
<g id="Robot_1">
</g>
<g id="Robot_2">
</g>
<g id="Robot_3">
</g>
<g id="Robot_Arm_1">
</g>
<g id="Robot_Arm_2">
</g>
<g id="Robot_Arm_3">
</g>
<g id="Robot_Arm_4">
</g>
<g id="Robot_Arm_5">
</g>
<g id="K5_Robot">
</g>
<g id="Robot_Machine_1_1_">
</g>
<g id="Robot_Machine_2">
</g>
<g id="Artifical_Intelligence_1_1_">
</g>
<g id="Artifical_Intelligence_2">
</g>
<g id="Robot_4">
</g>
<g id="Robot_5">
</g>
<g id="Robot_6">
</g>
<g id="Robot_7">
</g>
<g id="Robot_8">
</g>
<g id="Robot_9">
</g>
<g id="Robot_10">
</g>
<g id="Robot_11">
</g>
<g id="Robot_12">
</g>
<g id="Robot_13">
</g>
</svg>
