<?xml version="1.0" encoding="iso-8859-1"?>
<!-- Generator: Adobe Illustrator 19.2.1, SVG Export Plug-In . SVG Version: 6.00 Build 0)  -->
<svg version="1.1" xmlns="http://www.w3.org/2000/svg" xmlns:xlink="http://www.w3.org/1999/xlink" x="0px" y="0px"
	 viewBox="0 0 24 24" style="enable-background:new 0 0 24 24;" xml:space="preserve">
<g id="Retro_Bot_1">
</g>
<g id="Retro_Bot_2">
	<g id="Retro_bot_2">
		<g>
			<path d="M19.5,24h-16C2.673,24,2,23.327,2,22.5v-14C2,7.673,2.673,7,3.5,7h16C20.327,7,21,7.673,21,8.5v14
				C21,23.327,20.327,24,19.5,24z M3.5,8C3.224,8,3,8.224,3,8.5v14C3,22.776,3.224,23,3.5,23h16c0.276,0,0.5-0.224,0.5-0.5v-14
				C20,8.224,19.776,8,19.5,8H3.5z"/>
		</g>
		<g>
			<path d="M16.5,8h-10C6.224,8,6,7.776,6,7.5C6,6.122,7.122,5,8.5,5h6C15.878,5,17,6.122,17,7.5C17,7.776,16.776,8,16.5,8z
				 M7.085,7h8.829c-0.207-0.582-0.763-1-1.415-1h-6C7.848,6,7.292,6.418,7.085,7z"/>
		</g>
		<g>
			<path d="M9.5,14h-4C5.224,14,5,13.776,5,13.5v-3C5,10.224,5.224,10,5.5,10h4c0.276,0,0.5,0.224,0.5,0.5v3
				C10,13.776,9.776,14,9.5,14z M6,13h3v-2H6V13z"/>
		</g>
		<g>
			<path d="M17.5,14h-4c-0.276,0-0.5-0.224-0.5-0.5v-3c0-0.276,0.224-0.5,0.5-0.5h4c0.276,0,0.5,0.224,0.5,0.5v3
				C18,13.776,17.776,14,17.5,14z M14,13h3v-2h-3V13z"/>
		</g>
		<g>
			<path d="M7.5,13.5C7.224,13.5,7,13.276,7,13v-2c0-0.276,0.224-0.5,0.5-0.5S8,10.724,8,11v2C8,13.276,7.776,13.5,7.5,13.5z"/>
		</g>
		<g>
			<path d="M15.5,13.5c-0.276,0-0.5-0.224-0.5-0.5v-2c0-0.276,0.224-0.5,0.5-0.5S16,10.724,16,11v2C16,13.276,15.776,13.5,15.5,13.5
				z"/>
		</g>
		<g>
			<path d="M10.5,4C10.224,4,10,3.776,10,3.5C10,2.673,10.673,2,11.5,2C11.776,2,12,2.224,12,2.5S11.776,3,11.5,3
				C11.224,3,11,3.224,11,3.5C11,3.776,10.776,4,10.5,4z"/>
		</g>
		<g>
			<path d="M14.5,6C14.224,6,14,5.776,14,5.5v-2C14,2.122,12.878,1,11.5,1S9,2.122,9,3.5v2C9,5.776,8.776,6,8.5,6S8,5.776,8,5.5v-2
				C8,1.57,9.57,0,11.5,0S15,1.57,15,3.5v2C15,5.776,14.776,6,14.5,6z"/>
		</g>
		<g>
			<path d="M17.5,20h-12C5.224,20,5,19.776,5,19.5S5.224,19,5.5,19h12c0.276,0,0.5,0.224,0.5,0.5S17.776,20,17.5,20z"/>
		</g>
		<g>
			<path d="M6.5,21C6.224,21,6,20.776,6,20.5v-2C6,18.224,6.224,18,6.5,18S7,18.224,7,18.5v2C7,20.776,6.776,21,6.5,21z"/>
		</g>
		<g>
			<path d="M8.5,21C8.224,21,8,20.776,8,20.5v-2C8,18.224,8.224,18,8.5,18S9,18.224,9,18.5v2C9,20.776,8.776,21,8.5,21z"/>
		</g>
		<g>
			<path d="M10.5,21c-0.276,0-0.5-0.224-0.5-0.5v-2c0-0.276,0.224-0.5,0.5-0.5s0.5,0.224,0.5,0.5v2C11,20.776,10.776,21,10.5,21z"/>
		</g>
		<g>
			<path d="M12.5,21c-0.276,0-0.5-0.224-0.5-0.5v-2c0-0.276,0.224-0.5,0.5-0.5s0.5,0.224,0.5,0.5v2C13,20.776,12.776,21,12.5,21z"/>
		</g>
		<g>
			<path d="M14.5,21c-0.276,0-0.5-0.224-0.5-0.5v-2c0-0.276,0.224-0.5,0.5-0.5s0.5,0.224,0.5,0.5v2C15,20.776,14.776,21,14.5,21z"/>
		</g>
		<g>
			<path d="M16.5,21c-0.276,0-0.5-0.224-0.5-0.5v-2c0-0.276,0.224-0.5,0.5-0.5s0.5,0.224,0.5,0.5v2C17,20.776,16.776,21,16.5,21z"/>
		</g>
		<g>
			<path d="M12.5,17h-2c-0.276,0-0.5-0.224-0.5-0.5s0.224-0.5,0.5-0.5H11v-0.5c0-0.276,0.224-0.5,0.5-0.5s0.5,0.224,0.5,0.5V16h0.5
				c0.276,0,0.5,0.224,0.5,0.5S12.776,17,12.5,17z"/>
		</g>
	</g>
</g>
<g id="Retro_Bot_3">
</g>
<g id="Retro_Bot_4">
</g>
<g id="Wall-E">
</g>
<g id="Eva">
</g>
<g id="Iron_Giant_1_">
</g>
<g id="Marvin_1_">
</g>
<g id="Atlas_1_">
</g>
<g id="Claptrap_1_">
</g>
<g id="Android_1_">
</g>
<g id="Bender_1_">
</g>
<g id="Roberto_1_">
</g>
<g id="Robot_Devil_1_">
</g>
<g id="Robocop_1_">
</g>
<g id="ED_209_1_">
</g>
<g id="Optimus_Prime_1_">
</g>
<g id="Robot_1">
</g>
<g id="Robot_2">
</g>
<g id="Robot_3">
</g>
<g id="Robot_Arm_1">
</g>
<g id="Robot_Arm_2">
</g>
<g id="Robot_Arm_3">
</g>
<g id="Robot_Arm_4">
</g>
<g id="Robot_Arm_5">
</g>
<g id="K5_Robot">
</g>
<g id="Robot_Machine_1_1_">
</g>
<g id="Robot_Machine_2">
</g>
<g id="Artifical_Intelligence_1_1_">
</g>
<g id="Artifical_Intelligence_2">
</g>
<g id="Robot_4">
</g>
<g id="Robot_5">
</g>
<g id="Robot_6">
</g>
<g id="Robot_7">
</g>
<g id="Robot_8">
</g>
<g id="Robot_9">
</g>
<g id="Robot_10">
</g>
<g id="Robot_11">
</g>
<g id="Robot_12">
</g>
<g id="Robot_13">
</g>
</svg>
