<?xml version="1.0" encoding="iso-8859-1"?>
<!-- Generator: Adobe Illustrator 19.2.1, SVG Export Plug-In . SVG Version: 6.00 Build 0)  -->
<svg version="1.1" xmlns="http://www.w3.org/2000/svg" xmlns:xlink="http://www.w3.org/1999/xlink" x="0px" y="0px"
	 viewBox="0 0 24 24" style="enable-background:new 0 0 24 24;" xml:space="preserve">
<g id="Retro_Bot_1">
</g>
<g id="Retro_Bot_2">
</g>
<g id="Retro_Bot_3">
	<g id="Retro_bot_3">
		<g>
			<path d="M15.5,8h-8C7.224,8,7,7.776,7,7.5v-7C7,0.224,7.224,0,7.5,0h8C15.776,0,16,0.224,16,0.5v7C16,7.776,15.776,8,15.5,8z
				 M8,7h7V1H8V7z"/>
		</g>
		<g>
			<path d="M13.5,10h-4C9.224,10,9,9.776,9,9.5v-2C9,7.224,9.224,7,9.5,7h4C13.776,7,14,7.224,14,7.5v2C14,9.776,13.776,10,13.5,10z
				 M10,9h3V8h-3V9z"/>
		</g>
		<g>
			<path d="M16.5,19h-10C6.224,19,6,18.776,6,18.5v-9C6,9.224,6.224,9,6.5,9h10C16.776,9,17,9.224,17,9.5v9
				C17,18.776,16.776,19,16.5,19z M7,18h9v-8H7V18z"/>
		</g>
		<g>
			<path d="M10.5,24h-4C6.224,24,6,23.776,6,23.5C6,22.122,7.122,21,8.5,21s2.5,1.122,2.5,2.5C11,23.776,10.776,24,10.5,24z
				 M7.085,23h2.829c-0.207-0.582-0.763-1-1.415-1S7.292,22.418,7.085,23z"/>
		</g>
		<g>
			<path d="M16.5,24h-4c-0.276,0-0.5-0.224-0.5-0.5c0-1.378,1.122-2.5,2.5-2.5s2.5,1.122,2.5,2.5C17,23.776,16.776,24,16.5,24z
				 M13.085,23h2.829c-0.207-0.582-0.763-1-1.415-1S13.292,22.418,13.085,23z"/>
		</g>
		<g>
			<path d="M8.5,22C8.224,22,8,21.776,8,21.5v-3C8,18.224,8.224,18,8.5,18S9,18.224,9,18.5v3C9,21.776,8.776,22,8.5,22z"/>
		</g>
		<g>
			<path d="M14.5,22c-0.276,0-0.5-0.224-0.5-0.5v-3c0-0.276,0.224-0.5,0.5-0.5s0.5,0.224,0.5,0.5v3C15,21.776,14.776,22,14.5,22z"/>
		</g>
		<g>
			<path d="M4.5,17C4.224,17,4,16.776,4,16.5v-4C4,11.122,5.122,10,6.5,10C6.776,10,7,10.224,7,10.5S6.776,11,6.5,11
				C5.673,11,5,11.673,5,12.5v4C5,16.776,4.776,17,4.5,17z"/>
		</g>
		<g>
			<path d="M18.5,17c-0.276,0-0.5-0.224-0.5-0.5v-4c0-0.827-0.673-1.5-1.5-1.5c-0.276,0-0.5-0.224-0.5-0.5s0.224-0.5,0.5-0.5
				c1.378,0,2.5,1.122,2.5,2.5v4C19,16.776,18.776,17,18.5,17z"/>
		</g>
		<g>
			<path d="M12.5,15h-4C8.224,15,8,14.776,8,14.5v-3C8,11.224,8.224,11,8.5,11h4c0.276,0,0.5,0.224,0.5,0.5v3
				C13,14.776,12.776,15,12.5,15z M9,14h3v-2H9V14z"/>
		</g>
		<g>
			<circle cx="14.5" cy="11.5" r="0.5"/>
		</g>
		<g>
			<circle cx="14.5" cy="14.5" r="0.5"/>
		</g>
	</g>
	<g>
		<path d="M10.5,4c-0.551,0-1-0.449-1-1s0.449-1,1-1s1,0.449,1,1S11.051,4,10.5,4z M10.5,2.999C10.5,3,10.5,3,10.5,2.999L11,3
			L10.5,2.999z"/>
	</g>
	<g>
		<path d="M13.5,4c-0.551,0-1-0.449-1-1s0.449-1,1-1s1,0.449,1,1S14.051,4,13.5,4z M13.5,2.999C13.5,3,13.5,3,13.5,2.999L14,3
			L13.5,2.999z"/>
	</g>
	<g>
		<path d="M13,6h-2c-0.276,0-0.5-0.224-0.5-0.5S10.724,5,11,5h2c0.276,0,0.5,0.224,0.5,0.5S13.276,6,13,6z"/>
	</g>
	<g>
		<path d="M16,5.5c-0.276,0-0.5-0.224-0.5-0.5s0.224-0.5,0.5-0.5c0.276,0,0.5-0.224,0.5-0.5S16.276,3.5,16,3.5
			c-0.276,0-0.5-0.224-0.5-0.5s0.224-0.5,0.5-0.5c0.827,0,1.5,0.673,1.5,1.5S16.827,5.5,16,5.5z"/>
	</g>
	<g>
		<path d="M8,5.5C7.173,5.5,6.5,4.827,6.5,4S7.173,2.5,8,2.5c0.276,0,0.5,0.224,0.5,0.5S8.276,3.5,8,3.5C7.724,3.5,7.5,3.724,7.5,4
			S7.724,4.5,8,4.5c0.276,0,0.5,0.224,0.5,0.5S8.276,5.5,8,5.5z"/>
	</g>
</g>
<g id="Retro_Bot_4">
</g>
<g id="Wall-E">
</g>
<g id="Eva">
</g>
<g id="Iron_Giant_1_">
</g>
<g id="Marvin_1_">
</g>
<g id="Atlas_1_">
</g>
<g id="Claptrap_1_">
</g>
<g id="Android_1_">
</g>
<g id="Bender_1_">
</g>
<g id="Roberto_1_">
</g>
<g id="Robot_Devil_1_">
</g>
<g id="Robocop_1_">
</g>
<g id="ED_209_1_">
</g>
<g id="Optimus_Prime_1_">
</g>
<g id="Robot_1">
</g>
<g id="Robot_2">
</g>
<g id="Robot_3">
</g>
<g id="Robot_Arm_1">
</g>
<g id="Robot_Arm_2">
</g>
<g id="Robot_Arm_3">
</g>
<g id="Robot_Arm_4">
</g>
<g id="Robot_Arm_5">
</g>
<g id="K5_Robot">
</g>
<g id="Robot_Machine_1_1_">
</g>
<g id="Robot_Machine_2">
</g>
<g id="Artifical_Intelligence_1_1_">
</g>
<g id="Artifical_Intelligence_2">
</g>
<g id="Robot_4">
</g>
<g id="Robot_5">
</g>
<g id="Robot_6">
</g>
<g id="Robot_7">
</g>
<g id="Robot_8">
</g>
<g id="Robot_9">
</g>
<g id="Robot_10">
</g>
<g id="Robot_11">
</g>
<g id="Robot_12">
</g>
<g id="Robot_13">
</g>
</svg>
