<?xml version="1.0" encoding="iso-8859-1"?>
<!-- Generator: Adobe Illustrator 19.2.1, SVG Export Plug-In . SVG Version: 6.00 Build 0)  -->
<svg version="1.1" xmlns="http://www.w3.org/2000/svg" xmlns:xlink="http://www.w3.org/1999/xlink" x="0px" y="0px"
	 viewBox="0 0 24 24" style="enable-background:new 0 0 24 24;" xml:space="preserve">
<g id="Retro_Bot_1">
	<g id="Retro_bot_1">
		<g>
			<path d="M17.5,24h-12C4.122,24,3,22.878,3,21.5v-14C3,6.122,4.122,5,5.5,5h12C18.878,5,20,6.122,20,7.5v14
				C20,22.878,18.878,24,17.5,24z M5.5,6C4.673,6,4,6.673,4,7.5v14C4,22.327,4.673,23,5.5,23h12c0.827,0,1.5-0.673,1.5-1.5v-14
				C19,6.673,18.327,6,17.5,6H5.5z"/>
		</g>
		<g>
			<path d="M3.5,17h-2C0.673,17,0,16.327,0,15.5v-4C0,10.673,0.673,10,1.5,10h2C3.776,10,4,10.224,4,10.5v6
				C4,16.776,3.776,17,3.5,17z M1.5,11C1.224,11,1,11.224,1,11.5v4C1,15.776,1.224,16,1.5,16H3v-5H1.5z"/>
		</g>
		<g>
			<path d="M21.5,17h-2c-0.276,0-0.5-0.224-0.5-0.5v-6c0-0.276,0.224-0.5,0.5-0.5h2c0.827,0,1.5,0.673,1.5,1.5v4
				C23,16.327,22.327,17,21.5,17z M20,16h1.5c0.276,0,0.5-0.224,0.5-0.5v-4c0-0.276-0.224-0.5-0.5-0.5H20V16z"/>
		</g>
		<g>
			<path d="M1.5,11C1.224,11,1,10.776,1,10.5v-8C1,2.224,1.224,2,1.5,2S2,2.224,2,2.5v8C2,10.776,1.776,11,1.5,11z"/>
		</g>
		<g>
			<path d="M21.5,11c-0.276,0-0.5-0.224-0.5-0.5v-8C21,2.224,21.224,2,21.5,2S22,2.224,22,2.5v8C22,10.776,21.776,11,21.5,11z"/>
		</g>
		<g>
			<path d="M1.5,3C0.673,3,0,2.327,0,1.5S0.673,0,1.5,0S3,0.673,3,1.5S2.327,3,1.5,3z M1.5,1C1.224,1,1,1.224,1,1.5S1.224,2,1.5,2
				S2,1.776,2,1.5S1.776,1,1.5,1z"/>
		</g>
		<g>
			<path d="M21.5,3C20.673,3,20,2.327,20,1.5S20.673,0,21.5,0S23,0.673,23,1.5S22.327,3,21.5,3z M21.5,1C21.224,1,21,1.224,21,1.5
				S21.224,2,21.5,2S22,1.776,22,1.5S21.776,1,21.5,1z"/>
		</g>
		<g>
			<path d="M8,14c-1.654,0-3-1.346-3-3s1.346-3,3-3s3,1.346,3,3S9.654,14,8,14z M8,9c-1.103,0-2,0.897-2,2s0.897,2,2,2s2-0.897,2-2
				S9.103,9,8,9z"/>
		</g>
		<g>
			<path d="M15,14c-1.654,0-3-1.346-3-3s1.346-3,3-3s3,1.346,3,3S16.654,14,15,14z M15,9c-1.103,0-2,0.897-2,2s0.897,2,2,2
				s2-0.897,2-2S16.103,9,15,9z"/>
		</g>
		<g>
			<path d="M17.5,21h-12C5.224,21,5,20.776,5,20.5v-2C5,18.224,5.224,18,5.5,18h12c0.276,0,0.5,0.224,0.5,0.5v2
				C18,20.776,17.776,21,17.5,21z M6,20h11v-1H6V20z"/>
		</g>
		<g>
			<path d="M13,17h-3c-0.189,0-0.362-0.107-0.447-0.276C9.468,16.554,9.486,16.352,9.6,16.2l1.5-2c0.188-0.252,0.611-0.252,0.8,0
				l1.5,2c0.114,0.151,0.132,0.354,0.047,0.523C13.362,16.893,13.189,17,13,17z M11,16h1l-0.5-0.667L11,16z"/>
		</g>
		<g>
			<path d="M9.5,21h-2C7.224,21,7,20.776,7,20.5v-2C7,18.224,7.224,18,7.5,18h2c0.276,0,0.5,0.224,0.5,0.5v2
				C10,20.776,9.776,21,9.5,21z M8,20h1v-1H8V20z"/>
		</g>
		<g>
			<path d="M15.5,21h-2c-0.276,0-0.5-0.224-0.5-0.5v-2c0-0.276,0.224-0.5,0.5-0.5h2c0.276,0,0.5,0.224,0.5,0.5v2
				C16,20.776,15.776,21,15.5,21z M14,20h1v-1h-1V20z"/>
		</g>
		<g>
			<path d="M11.5,21c-0.276,0-0.5-0.224-0.5-0.5v-2c0-0.276,0.224-0.5,0.5-0.5s0.5,0.224,0.5,0.5v2C12,20.776,11.776,21,11.5,21z"/>
		</g>
		<g>
			<path d="M8,12c-0.551,0-1-0.449-1-1s0.449-1,1-1s1,0.449,1,1S8.551,12,8,12z M8,10.999C8,11,8,11,8,10.999L8.5,11L8,10.999z"/>
		</g>
		<g>
			<path d="M15,12c-0.551,0-1-0.449-1-1s0.449-1,1-1s1,0.449,1,1S15.551,12,15,12z M15,10.999C15,11,15,11,15,10.999L15.5,11
				L15,10.999z"/>
		</g>
	</g>
</g>
<g id="Retro_Bot_2">
</g>
<g id="Retro_Bot_3">
</g>
<g id="Retro_Bot_4">
</g>
<g id="Wall-E">
</g>
<g id="Eva">
</g>
<g id="Iron_Giant_1_">
</g>
<g id="Marvin_1_">
</g>
<g id="Atlas_1_">
</g>
<g id="Claptrap_1_">
</g>
<g id="Android_1_">
</g>
<g id="Bender_1_">
</g>
<g id="Roberto_1_">
</g>
<g id="Robot_Devil_1_">
</g>
<g id="Robocop_1_">
</g>
<g id="ED_209_1_">
</g>
<g id="Optimus_Prime_1_">
</g>
<g id="Robot_1">
</g>
<g id="Robot_2">
</g>
<g id="Robot_3">
</g>
<g id="Robot_Arm_1">
</g>
<g id="Robot_Arm_2">
</g>
<g id="Robot_Arm_3">
</g>
<g id="Robot_Arm_4">
</g>
<g id="Robot_Arm_5">
</g>
<g id="K5_Robot">
</g>
<g id="Robot_Machine_1_1_">
</g>
<g id="Robot_Machine_2">
</g>
<g id="Artifical_Intelligence_1_1_">
</g>
<g id="Artifical_Intelligence_2">
</g>
<g id="Robot_4">
</g>
<g id="Robot_5">
</g>
<g id="Robot_6">
</g>
<g id="Robot_7">
</g>
<g id="Robot_8">
</g>
<g id="Robot_9">
</g>
<g id="Robot_10">
</g>
<g id="Robot_11">
</g>
<g id="Robot_12">
</g>
<g id="Robot_13">
</g>
</svg>
