<?xml version="1.0" encoding="iso-8859-1"?>
<!-- Generator: Adobe Illustrator 19.2.1, SVG Export Plug-In . SVG Version: 6.00 Build 0)  -->
<svg version="1.1" xmlns="http://www.w3.org/2000/svg" xmlns:xlink="http://www.w3.org/1999/xlink" x="0px" y="0px"
	 viewBox="0 0 24 24" style="enable-background:new 0 0 24 24;" xml:space="preserve">
<g id="Retro_Bot_1">
</g>
<g id="Retro_Bot_2">
</g>
<g id="Retro_Bot_3">
</g>
<g id="Retro_Bot_4">
	<g id="Retro_bot_4">
		<g>
			<path d="M18.5,24h-13C5.224,24,5,23.776,5,23.5v-23C5,0.224,5.224,0,5.5,0h13C18.776,0,19,0.224,19,0.5v23
				C19,23.776,18.776,24,18.5,24z M6,23h12V1H6V23z"/>
		</g>
		<g>
			<path d="M10.5,6h-3C7.224,6,7,5.776,7,5.5v-2C7,3.224,7.224,3,7.5,3h3C10.776,3,11,3.224,11,3.5v2C11,5.776,10.776,6,10.5,6z
				 M8,5h2V4H8V5z"/>
		</g>
		<g>
			<path d="M16.5,6h-3C13.224,6,13,5.776,13,5.5v-2C13,3.224,13.224,3,13.5,3h3C16.776,3,17,3.224,17,3.5v2
				C17,5.776,16.776,6,16.5,6z M14,5h2V4h-2V5z"/>
		</g>
		<g>
			<path d="M15.5,10c-0.128,0-0.256-0.049-0.354-0.146L14.5,9.207l-0.646,0.646c-0.195,0.195-0.512,0.195-0.707,0L12.5,9.207
				l-0.646,0.646c-0.195,0.195-0.512,0.195-0.707,0L10.5,9.207L9.854,9.854c-0.195,0.195-0.512,0.195-0.707,0L8.5,9.207L7.854,9.854
				c-0.195,0.195-0.512,0.195-0.707,0s-0.195-0.512,0-0.707l1-1c0.195-0.195,0.512-0.195,0.707,0L9.5,8.793l0.646-0.646
				c0.195-0.195,0.512-0.195,0.707,0L11.5,8.793l0.646-0.646c0.195-0.195,0.512-0.195,0.707,0L13.5,8.793l0.646-0.646
				c0.195-0.195,0.512-0.195,0.707,0L15.5,8.793l0.646-0.646c0.195-0.195,0.512-0.195,0.707,0s0.195,0.512,0,0.707l-1,1
				C15.756,9.951,15.628,10,15.5,10z"/>
		</g>
		<g>
			<path d="M10.5,17h-3C7.224,17,7,16.776,7,16.5v-3C7,13.224,7.224,13,7.5,13h3c0.276,0,0.5,0.224,0.5,0.5v3
				C11,16.776,10.776,17,10.5,17z M8,16h2v-2H8V16z"/>
		</g>
		<g>
			<path d="M16.5,17c-0.276,0-0.5-0.224-0.5-0.5v-3c0-0.276,0.224-0.5,0.5-0.5s0.5,0.224,0.5,0.5v3C17,16.776,16.776,17,16.5,17z"/>
		</g>
		<g>
			<path d="M14.5,17c-0.276,0-0.5-0.224-0.5-0.5v-3c0-0.276,0.224-0.5,0.5-0.5s0.5,0.224,0.5,0.5v3C15,16.776,14.776,17,14.5,17z"/>
		</g>
		<g>
			<path d="M12.5,17c-0.276,0-0.5-0.224-0.5-0.5v-3c0-0.276,0.224-0.5,0.5-0.5s0.5,0.224,0.5,0.5v3C13,16.776,12.776,17,12.5,17z"/>
		</g>
		<g>
			<circle cx="7.5" cy="18.5" r="0.5"/>
		</g>
		<g>
			<circle cx="9.5" cy="18.5" r="0.5"/>
		</g>
		<g>
			<path d="M16.5,19h-5c-0.276,0-0.5-0.224-0.5-0.5s0.224-0.5,0.5-0.5h5c0.276,0,0.5,0.224,0.5,0.5S16.776,19,16.5,19z"/>
		</g>
		<g>
			<path d="M16.5,22c-0.276,0-0.5-0.224-0.5-0.5V21H8v0.5C8,21.776,7.776,22,7.5,22S7,21.776,7,21.5v-1C7,20.224,7.224,20,7.5,20h9
				c0.276,0,0.5,0.224,0.5,0.5v1C17,21.776,16.776,22,16.5,22z"/>
		</g>
	</g>
</g>
<g id="Wall-E">
</g>
<g id="Eva">
</g>
<g id="Iron_Giant_1_">
</g>
<g id="Marvin_1_">
</g>
<g id="Atlas_1_">
</g>
<g id="Claptrap_1_">
</g>
<g id="Android_1_">
</g>
<g id="Bender_1_">
</g>
<g id="Roberto_1_">
</g>
<g id="Robot_Devil_1_">
</g>
<g id="Robocop_1_">
</g>
<g id="ED_209_1_">
</g>
<g id="Optimus_Prime_1_">
</g>
<g id="Robot_1">
</g>
<g id="Robot_2">
</g>
<g id="Robot_3">
</g>
<g id="Robot_Arm_1">
</g>
<g id="Robot_Arm_2">
</g>
<g id="Robot_Arm_3">
</g>
<g id="Robot_Arm_4">
</g>
<g id="Robot_Arm_5">
</g>
<g id="K5_Robot">
</g>
<g id="Robot_Machine_1_1_">
</g>
<g id="Robot_Machine_2">
</g>
<g id="Artifical_Intelligence_1_1_">
</g>
<g id="Artifical_Intelligence_2">
</g>
<g id="Robot_4">
</g>
<g id="Robot_5">
</g>
<g id="Robot_6">
</g>
<g id="Robot_7">
</g>
<g id="Robot_8">
</g>
<g id="Robot_9">
</g>
<g id="Robot_10">
</g>
<g id="Robot_11">
</g>
<g id="Robot_12">
</g>
<g id="Robot_13">
</g>
</svg>
