<?xml version="1.0" encoding="iso-8859-1"?>
<!-- Generator: Adobe Illustrator 19.2.1, SVG Export Plug-In . SVG Version: 6.00 Build 0)  -->
<svg version="1.1" xmlns="http://www.w3.org/2000/svg" xmlns:xlink="http://www.w3.org/1999/xlink" x="0px" y="0px"
	 viewBox="0 0 24 24" style="enable-background:new 0 0 24 24;" xml:space="preserve">
<g id="Retro_Bot_1">
</g>
<g id="Retro_Bot_2">
</g>
<g id="Retro_Bot_3">
</g>
<g id="Retro_Bot_4">
</g>
<g id="Wall-E">
</g>
<g id="Eva">
</g>
<g id="Iron_Giant_1_">
</g>
<g id="Marvin_1_">
</g>
<g id="Atlas_1_">
</g>
<g id="Claptrap_1_">
</g>
<g id="Android_1_">
</g>
<g id="Bender_1_">
</g>
<g id="Roberto_1_">
	<g id="Roberto">
		<g>
			<path d="M5,10c-1.654,0-3-1.346-3-3s1.346-3,3-3s3,1.346,3,3S6.654,10,5,10z M5,5C3.897,5,3,5.897,3,7s0.897,2,2,2s2-0.897,2-2
				S6.103,5,5,5z"/>
		</g>
		<g>
			<path d="M19,10c-1.654,0-3-1.346-3-3s1.346-3,3-3s3,1.346,3,3S20.654,10,19,10z M19,5c-1.103,0-2,0.897-2,2s0.897,2,2,2
				s2-0.897,2-2S20.103,5,19,5z"/>
		</g>
		<g>
			<path d="M15.5,15h-7c-0.147,0-0.287-0.064-0.381-0.177c-0.095-0.112-0.136-0.26-0.112-0.405l0.672-4.032
				C7.75,11.392,6.425,12,5,12c-2.757,0-5-2.243-5-5s2.243-5,5-5c1.996,0,3.794,1.191,4.584,3h4.833C15.206,3.192,17.004,2,19,2
				c2.757,0,5,2.243,5,5s-2.243,5-5,5c-1.425,0-2.75-0.608-3.679-1.614l0.672,4.032c0.024,0.145-0.017,0.293-0.112,0.405
				C15.787,14.936,15.647,15,15.5,15z M9.09,14h5.819l-0.903-5.418c-0.024-0.145,0.017-0.293,0.112-0.405
				C14.213,8.064,14.353,8,14.5,8h0.188c0.216-0.027,0.432,0.085,0.524,0.292c0.005,0.013,0.011,0.026,0.015,0.039
				C15.79,9.928,17.306,11,19,11c2.206,0,4-1.794,4-4s-1.794-4-4-4c-1.693,0-3.208,1.072-3.772,2.667
				C15.157,5.866,14.968,6,14.756,6H9.313C9.097,6.025,8.88,5.915,8.789,5.708C8.783,5.695,8.778,5.682,8.773,5.669
				C8.21,4.072,6.694,3,5,3C2.794,3,1,4.794,1,7s1.794,4,4,4c1.692,0,3.208-1.072,3.773-2.667C8.843,8.133,9.032,8,9.244,8H9.5
				c0.147,0,0.287,0.064,0.381,0.177c0.095,0.112,0.136,0.26,0.112,0.405L9.09,14z"/>
		</g>
		<g>
			<path d="M14.5,22h-5c-0.215,0-0.406-0.138-0.474-0.342l-1-3C7.975,18.506,8,18.338,8.094,18.208C8.188,18.077,8.339,18,8.5,18h7
				c0.161,0,0.312,0.077,0.406,0.208c0.094,0.13,0.12,0.298,0.068,0.451l-1,3C14.906,21.862,14.715,22,14.5,22z M9.86,21h4.279
				l0.667-2H9.194L9.86,21z"/>
		</g>
		<g>
			<path d="M9.5,19C9.224,19,9,18.776,9,18.5v-4C9,14.224,9.224,14,9.5,14s0.5,0.224,0.5,0.5v4C10,18.776,9.776,19,9.5,19z"/>
		</g>
		<g>
			<path d="M14.5,19c-0.276,0-0.5-0.224-0.5-0.5v-4c0-0.276,0.224-0.5,0.5-0.5s0.5,0.224,0.5,0.5v4C15,18.776,14.776,19,14.5,19z"/>
		</g>
		<g>
			<path d="M14.5,17h-5C9.224,17,9,16.776,9,16.5S9.224,16,9.5,16h5c0.276,0,0.5,0.224,0.5,0.5S14.776,17,14.5,17z"/>
		</g>
		<g>
			<circle cx="5" cy="7" r="0.5"/>
		</g>
		<g>
			<circle cx="19" cy="7" r="0.5"/>
		</g>
		<g>
			<path d="M12.5,9h-1C11.224,9,11,8.776,11,8.5S11.224,8,11.5,8h1C12.776,8,13,8.224,13,8.5S12.776,9,12.5,9z"/>
		</g>
	</g>
</g>
<g id="Robot_Devil_1_">
</g>
<g id="Robocop_1_">
</g>
<g id="ED_209_1_">
</g>
<g id="Optimus_Prime_1_">
</g>
<g id="Robot_1">
</g>
<g id="Robot_2">
</g>
<g id="Robot_3">
</g>
<g id="Robot_Arm_1">
</g>
<g id="Robot_Arm_2">
</g>
<g id="Robot_Arm_3">
</g>
<g id="Robot_Arm_4">
</g>
<g id="Robot_Arm_5">
</g>
<g id="K5_Robot">
</g>
<g id="Robot_Machine_1_1_">
</g>
<g id="Robot_Machine_2">
</g>
<g id="Artifical_Intelligence_1_1_">
</g>
<g id="Artifical_Intelligence_2">
</g>
<g id="Robot_4">
</g>
<g id="Robot_5">
</g>
<g id="Robot_6">
</g>
<g id="Robot_7">
</g>
<g id="Robot_8">
</g>
<g id="Robot_9">
</g>
<g id="Robot_10">
</g>
<g id="Robot_11">
</g>
<g id="Robot_12">
</g>
<g id="Robot_13">
</g>
</svg>
