<?xml version="1.0" encoding="iso-8859-1"?>
<!-- Generator: Adobe Illustrator 19.2.1, SVG Export Plug-In . SVG Version: 6.00 Build 0)  -->
<svg version="1.1" xmlns="http://www.w3.org/2000/svg" xmlns:xlink="http://www.w3.org/1999/xlink" x="0px" y="0px"
	 viewBox="0 0 24 24" style="enable-background:new 0 0 24 24;" xml:space="preserve">
<g id="Retro_Bot_1">
</g>
<g id="Retro_Bot_2">
</g>
<g id="Retro_Bot_3">
</g>
<g id="Retro_Bot_4">
</g>
<g id="Wall-E">
</g>
<g id="Eva">
</g>
<g id="Iron_Giant_1_">
</g>
<g id="Marvin_1_">
</g>
<g id="Atlas_1_">
</g>
<g id="Claptrap_1_">
</g>
<g id="Android_1_">
</g>
<g id="Bender_1_">
</g>
<g id="Roberto_1_">
</g>
<g id="Robot_Devil_1_">
</g>
<g id="Robocop_1_">
</g>
<g id="ED_209_1_">
</g>
<g id="Optimus_Prime_1_">
</g>
<g id="Robot_1">
</g>
<g id="Robot_2">
</g>
<g id="Robot_3">
</g>
<g id="Robot_Arm_1">
</g>
<g id="Robot_Arm_2">
</g>
<g id="Robot_Arm_3">
</g>
<g id="Robot_Arm_4">
</g>
<g id="Robot_Arm_5">
</g>
<g id="K5_Robot">
</g>
<g id="Robot_Machine_1_1_">
</g>
<g id="Robot_Machine_2">
</g>
<g id="Artifical_Intelligence_1_1_">
</g>
<g id="Artifical_Intelligence_2">
</g>
<g id="Robot_4">
</g>
<g id="Robot_5">
</g>
<g id="Robot_6">
</g>
<g id="Robot_7">
</g>
<g id="Robot_8">
</g>
<g id="Robot_9">
	<g>
		<g>
			<path d="M0.5,18c-0.104,0-0.21-0.032-0.3-0.1c-0.221-0.166-0.266-0.479-0.101-0.7C1.146,15.802,2.75,15,4.5,15h15
				c1.718,0,3.362,0.822,4.399,2.199c0.166,0.221,0.122,0.534-0.099,0.7c-0.219,0.164-0.533,0.124-0.7-0.099
				C22.252,16.673,20.905,16,19.5,16h-15c-1.432,0-2.743,0.656-3.6,1.8C0.802,17.931,0.651,18,0.5,18z"/>
		</g>
		<g>
			<path d="M19.5,24h-15C2.57,24,1,22.43,1,20.5S2.57,17,4.5,17h15c1.93,0,3.5,1.57,3.5,3.5S21.43,24,19.5,24z M4.5,18
				C3.121,18,2,19.121,2,20.5S3.121,23,4.5,23h15c1.379,0,2.5-1.121,2.5-2.5S20.879,18,19.5,18H4.5z"/>
		</g>
		<g>
			<path d="M4.5,22C3.673,22,3,21.327,3,20.5S3.673,19,4.5,19S6,19.673,6,20.5S5.327,22,4.5,22z M4.5,20C4.225,20,4,20.225,4,20.5
				S4.225,21,4.5,21S5,20.775,5,20.5S4.775,20,4.5,20z"/>
		</g>
		<g>
			<path d="M19.5,22c-0.827,0-1.5-0.673-1.5-1.5s0.673-1.5,1.5-1.5s1.5,0.673,1.5,1.5S20.327,22,19.5,22z M19.5,20
				c-0.275,0-0.5,0.225-0.5,0.5s0.225,0.5,0.5,0.5s0.5-0.225,0.5-0.5S19.775,20,19.5,20z"/>
		</g>
		<g>
			<path d="M14.5,22c-0.827,0-1.5-0.673-1.5-1.5s0.673-1.5,1.5-1.5s1.5,0.673,1.5,1.5S15.327,22,14.5,22z M14.5,20
				c-0.275,0-0.5,0.225-0.5,0.5s0.225,0.5,0.5,0.5s0.5-0.225,0.5-0.5S14.775,20,14.5,20z"/>
		</g>
		<g>
			<path d="M9.5,22C8.673,22,8,21.327,8,20.5S8.673,19,9.5,19s1.5,0.673,1.5,1.5S10.327,22,9.5,22z M9.5,20
				C9.225,20,9,20.225,9,20.5S9.225,21,9.5,21s0.5-0.225,0.5-0.5S9.775,20,9.5,20z"/>
		</g>
		<g>
			<path d="M18.5,16h-13C5.224,16,5,15.776,5,15.5v-4C5,9.019,7.019,7,9.5,7h5c2.481,0,4.5,2.019,4.5,4.5v4
				C19,15.776,18.776,16,18.5,16z M6,15h12v-3.5C18,9.57,16.43,8,14.5,8h-5C7.57,8,6,9.57,6,11.5V15z"/>
		</g>
		<g>
			<path d="M14.5,6h-5C8.673,6,8,5.327,8,4.5v-3C8,0.673,8.673,0,9.5,0h5C15.327,0,16,0.673,16,1.5v3C16,5.327,15.327,6,14.5,6z
				 M9.5,1C9.225,1,9,1.225,9,1.5v3C9,4.775,9.225,5,9.5,5h5C14.775,5,15,4.775,15,4.5v-3C15,1.225,14.775,1,14.5,1H9.5z"/>
		</g>
		<g>
			<path d="M14.5,7h-5C9.224,7,9,6.776,9,6.5S9.224,6,9.5,6h5C14.776,6,15,6.224,15,6.5S14.776,7,14.5,7z"/>
		</g>
		<g>
			<path d="M10.5,12h-2C8.224,12,8,11.776,8,11.5v-2C8,9.224,8.224,9,8.5,9h2C10.776,9,11,9.224,11,9.5v2
				C11,11.776,10.776,12,10.5,12z M9,11h1v-1H9V11z"/>
		</g>
		<g>
			<path d="M10.5,14h-2C8.224,14,8,13.776,8,13.5v-2C8,11.224,8.224,11,8.5,11h2c0.276,0,0.5,0.224,0.5,0.5v2
				C11,13.776,10.776,14,10.5,14z M9,13h1v-1H9V13z"/>
		</g>
		<g>
			<path d="M13.5,14h-3c-0.276,0-0.5-0.224-0.5-0.5v-4C10,9.224,10.224,9,10.5,9h3C13.776,9,14,9.224,14,9.5v4
				C14,13.776,13.776,14,13.5,14z M11,13h2v-3h-2V13z"/>
		</g>
		<g>
			<path d="M15.5,12h-2c-0.276,0-0.5-0.224-0.5-0.5v-2C13,9.224,13.224,9,13.5,9h2C15.776,9,16,9.224,16,9.5v2
				C16,11.776,15.776,12,15.5,12z M14,11h1v-1h-1V11z"/>
		</g>
		<g>
			<path d="M15.5,14h-2c-0.276,0-0.5-0.224-0.5-0.5v-2c0-0.276,0.224-0.5,0.5-0.5h2c0.276,0,0.5,0.224,0.5,0.5v2
				C16,13.776,15.776,14,15.5,14z M14,13h1v-1h-1V13z"/>
		</g>
		<g>
			<circle cx="10.5" cy="2.5" r="0.5"/>
		</g>
		<g>
			<circle cx="11.5" cy="2.5" r="0.5"/>
		</g>
		<g>
			<circle cx="12.5" cy="2.5" r="0.5"/>
		</g>
		<g>
			<circle cx="13.5" cy="2.5" r="0.5"/>
		</g>
	</g>
</g>
<g id="Robot_10">
</g>
<g id="Robot_11">
</g>
<g id="Robot_12">
</g>
<g id="Robot_13">
</g>
</svg>
