<?xml version="1.0" encoding="iso-8859-1"?>
<!-- Generator: Adobe Illustrator 19.2.1, SVG Export Plug-In . SVG Version: 6.00 Build 0)  -->
<svg version="1.1" xmlns="http://www.w3.org/2000/svg" xmlns:xlink="http://www.w3.org/1999/xlink" x="0px" y="0px"
	 viewBox="0 0 24 24" style="enable-background:new 0 0 24 24;" xml:space="preserve">
<g id="Retro_Bot_1">
</g>
<g id="Retro_Bot_2">
</g>
<g id="Retro_Bot_3">
</g>
<g id="Retro_Bot_4">
</g>
<g id="Wall-E">
</g>
<g id="Eva">
</g>
<g id="Iron_Giant_1_">
</g>
<g id="Marvin_1_">
</g>
<g id="Atlas_1_">
</g>
<g id="Claptrap_1_">
</g>
<g id="Android_1_">
</g>
<g id="Bender_1_">
</g>
<g id="Roberto_1_">
</g>
<g id="Robot_Devil_1_">
</g>
<g id="Robocop_1_">
</g>
<g id="ED_209_1_">
</g>
<g id="Optimus_Prime_1_">
</g>
<g id="Robot_1">
</g>
<g id="Robot_2">
</g>
<g id="Robot_3">
</g>
<g id="Robot_Arm_1">
</g>
<g id="Robot_Arm_2">
</g>
<g id="Robot_Arm_3">
</g>
<g id="Robot_Arm_4">
</g>
<g id="Robot_Arm_5">
</g>
<g id="K5_Robot">
</g>
<g id="Robot_Machine_1_1_">
</g>
<g id="Robot_Machine_2">
</g>
<g id="Artifical_Intelligence_1_1_">
</g>
<g id="Artifical_Intelligence_2">
</g>
<g id="Robot_4">
</g>
<g id="Robot_5">
</g>
<g id="Robot_6">
	<g>
		<g>
			<path d="M12,10c-2.757,0-5-2.243-5-5s2.243-5,5-5s5,2.243,5,5S14.757,10,12,10z M12,1C9.794,1,8,2.794,8,5s1.794,4,4,4
				s4-1.794,4-4S14.206,1,12,1z"/>
		</g>
		<g>
			<path d="M10.5,6C9.673,6,9,5.327,9,4.5S9.673,3,10.5,3S12,3.673,12,4.5S11.327,6,10.5,6z M10.5,4C10.224,4,10,4.225,10,4.5
				S10.224,5,10.5,5S11,4.775,11,4.5S10.776,4,10.5,4z"/>
		</g>
		<g>
			<path d="M13.5,6C12.673,6,12,5.327,12,4.5S12.673,3,13.5,3S15,3.673,15,4.5S14.327,6,13.5,6z M13.5,4C13.224,4,13,4.225,13,4.5
				S13.224,5,13.5,5S14,4.775,14,4.5S13.776,4,13.5,4z"/>
		</g>
		<g>
			<path d="M13.5,8h-3C10.224,8,10,7.776,10,7.5S10.224,7,10.5,7h3C13.776,7,14,7.224,14,7.5S13.776,8,13.5,8z"/>
		</g>
		<g>
			<path d="M16.5,19h-9C7.224,19,7,18.776,7,18.5v-9C7,9.224,7.224,9,7.5,9h9C16.776,9,17,9.224,17,9.5v9
				C17,18.776,16.776,19,16.5,19z M8,18h8v-8H8V18z"/>
		</g>
		<g>
			<path d="M10.5,24h-2C8.224,24,8,23.776,8,23.5v-5C8,18.224,8.224,18,8.5,18h2c0.276,0,0.5,0.224,0.5,0.5v5
				C11,23.776,10.776,24,10.5,24z M9,23h1v-4H9V23z"/>
		</g>
		<g>
			<path d="M15.5,24h-2c-0.276,0-0.5-0.224-0.5-0.5v-5c0-0.276,0.224-0.5,0.5-0.5h2c0.276,0,0.5,0.224,0.5,0.5v5
				C16,23.776,15.776,24,15.5,24z M14,23h1v-4h-1V23z"/>
		</g>
		<g>
			<path d="M16.5,24h-9C7.224,24,7,23.776,7,23.5S7.224,23,7.5,23h9c0.276,0,0.5,0.224,0.5,0.5S16.776,24,16.5,24z"/>
		</g>
		<g>
			<path d="M14.5,17h-5C9.224,17,9,16.776,9,16.5v-3C9,13.224,9.224,13,9.5,13h5c0.276,0,0.5,0.224,0.5,0.5v3
				C15,16.776,14.776,17,14.5,17z M10,16h4v-2h-4V16z"/>
		</g>
		<g>
			<circle cx="9.5" cy="11.5" r="0.5"/>
		</g>
		<g>
			<path d="M14.5,12h-3c-0.276,0-0.5-0.224-0.5-0.5s0.224-0.5,0.5-0.5h3c0.276,0,0.5,0.224,0.5,0.5S14.776,12,14.5,12z"/>
		</g>
		<g>
			<path d="M19.5,17c-0.238,0-0.449-0.17-0.492-0.412l-0.717-4.021C18.162,11.666,17.393,11,16.5,11c-0.276,0-0.5-0.224-0.5-0.5
				s0.224-0.5,0.5-0.5c1.388,0,2.582,1.035,2.778,2.409l0.714,4.003c0.048,0.271-0.132,0.531-0.404,0.58
				C19.558,16.997,19.528,17,19.5,17z"/>
		</g>
		<g>
			<path d="M20.5,18c-0.276,0-0.5-0.224-0.5-0.5c0-0.275-0.224-0.5-0.5-0.5S19,17.225,19,17.5c0,0.276-0.224,0.5-0.5,0.5
				S18,17.776,18,17.5c0-0.827,0.673-1.5,1.5-1.5s1.5,0.673,1.5,1.5C21,17.776,20.776,18,20.5,18z"/>
		</g>
		<g>
			<path d="M4.5,17c-0.029,0-0.059-0.003-0.088-0.008c-0.272-0.049-0.453-0.309-0.404-0.58l0.717-4.021
				C4.918,11.035,6.112,10,7.5,10C7.776,10,8,10.224,8,10.5S7.776,11,7.5,11c-0.893,0-1.662,0.666-1.788,1.55l-0.72,4.038
				C4.949,16.83,4.738,17,4.5,17z"/>
		</g>
		<g>
			<path d="M5.5,18C5.224,18,5,17.776,5,17.5C5,17.225,4.776,17,4.5,17S4,17.225,4,17.5C4,17.776,3.776,18,3.5,18S3,17.776,3,17.5
				C3,16.673,3.673,16,4.5,16S6,16.673,6,17.5C6,17.776,5.776,18,5.5,18z"/>
		</g>
		<g>
			<path d="M17.5,6C17.224,6,17,5.776,17,5.5v-1C17,4.224,17.224,4,17.5,4S18,4.224,18,4.5v1C18,5.776,17.776,6,17.5,6z"/>
		</g>
		<g>
			<path d="M6.5,6C6.224,6,6,5.776,6,5.5v-1C6,4.224,6.224,4,6.5,4S7,4.224,7,4.5v1C7,5.776,6.776,6,6.5,6z"/>
		</g>
	</g>
</g>
<g id="Robot_7">
</g>
<g id="Robot_8">
</g>
<g id="Robot_9">
</g>
<g id="Robot_10">
</g>
<g id="Robot_11">
</g>
<g id="Robot_12">
</g>
<g id="Robot_13">
</g>
</svg>
