<?xml version="1.0" encoding="iso-8859-1"?>
<!-- Generator: Adobe Illustrator 19.2.1, SVG Export Plug-In . SVG Version: 6.00 Build 0)  -->
<svg version="1.1" xmlns="http://www.w3.org/2000/svg" xmlns:xlink="http://www.w3.org/1999/xlink" x="0px" y="0px"
	 viewBox="0 0 24 24" style="enable-background:new 0 0 24 24;" xml:space="preserve">
<g id="Retro_Bot_1">
</g>
<g id="Retro_Bot_2">
</g>
<g id="Retro_Bot_3">
</g>
<g id="Retro_Bot_4">
</g>
<g id="Wall-E">
</g>
<g id="Eva">
</g>
<g id="Iron_Giant_1_">
</g>
<g id="Marvin_1_">
</g>
<g id="Atlas_1_">
</g>
<g id="Claptrap_1_">
</g>
<g id="Android_1_">
</g>
<g id="Bender_1_">
</g>
<g id="Roberto_1_">
</g>
<g id="Robot_Devil_1_">
</g>
<g id="Robocop_1_">
</g>
<g id="ED_209_1_">
</g>
<g id="Optimus_Prime_1_">
</g>
<g id="Robot_1">
</g>
<g id="Robot_2">
</g>
<g id="Robot_3">
</g>
<g id="Robot_Arm_1">
</g>
<g id="Robot_Arm_2">
</g>
<g id="Robot_Arm_3">
</g>
<g id="Robot_Arm_4">
	<g id="Robot-Arm_3_1_">
		<g>
			<path d="M21.5,5h-9C12.224,5,12,4.776,12,4.5S12.224,4,12.5,4h9C22.327,4,23,3.327,23,2.5S22.327,1,21.5,1h-19
				C1.673,1,1,1.673,1,2.5S1.673,4,2.5,4h3C5.776,4,6,4.224,6,4.5S5.776,5,5.5,5h-3C1.122,5,0,3.879,0,2.5S1.122,0,2.5,0h19
				C22.878,0,24,1.121,24,2.5S22.878,5,21.5,5z"/>
		</g>
		<g>
			<path d="M12.5,6h-7C5.224,6,5,5.776,5,5.5v-5C5,0.224,5.224,0,5.5,0h7C12.776,0,13,0.224,13,0.5v5C13,5.776,12.776,6,12.5,6z
				 M6,5h6V1H6V5z"/>
		</g>
		<g>
			<path d="M5.5,3h-3C2.224,3,2,2.776,2,2.5S2.224,2,2.5,2h3C5.776,2,6,2.224,6,2.5S5.776,3,5.5,3z"/>
		</g>
		<g>
			<path d="M21.5,3h-9C12.224,3,12,2.776,12,2.5S12.224,2,12.5,2h9C21.776,2,22,2.224,22,2.5S21.776,3,21.5,3z"/>
		</g>
		<g>
			<path d="M9,12c-1.654,0-3-1.346-3-3V5.5C6,5.224,6.224,5,6.5,5h5C11.776,5,12,5.224,12,5.5V9C12,10.654,10.654,12,9,12z M7,6v3
				c0,1.103,0.897,2,2,2s2-0.897,2-2V6H7z"/>
		</g>
		<g>
			<path d="M18,14c-0.114,0-0.229-0.039-0.322-0.118l-6.5-5.5c-0.211-0.179-0.237-0.494-0.059-0.705
				c0.179-0.209,0.494-0.236,0.705-0.059l6.5,5.5c0.211,0.179,0.237,0.494,0.059,0.705C18.283,13.939,18.142,14,18,14z"/>
		</g>
		<g>
			<path d="M17.5,15c-0.053,0-0.107-0.009-0.16-0.026l-9.543-3.228c-0.262-0.089-0.402-0.372-0.313-0.634s0.373-0.398,0.634-0.313
				l9.543,3.228c0.262,0.089,0.402,0.372,0.313,0.634C17.903,14.868,17.708,15,17.5,15z"/>
		</g>
		<g>
			<path d="M18.5,16c-0.827,0-1.5-0.673-1.5-1.5s0.673-1.5,1.5-1.5s1.5,0.673,1.5,1.5S19.327,16,18.5,16z M18.5,14
				c-0.276,0-0.5,0.225-0.5,0.5s0.224,0.5,0.5,0.5s0.5-0.225,0.5-0.5S18.776,14,18.5,14z"/>
		</g>
		<g>
			<path d="M9.5,24c-0.128,0-0.256-0.049-0.354-0.146c-0.195-0.195-0.195-0.512,0-0.707l2.25-2.25c0.195-0.195,0.512-0.195,0.707,0
				s0.195,0.512,0,0.707l-2.25,2.25C9.756,23.951,9.628,24,9.5,24z"/>
		</g>
		<g>
			<path d="M13.5,20.5c-0.128,0-0.256-0.049-0.354-0.146l-0.5-0.5c-0.18-0.18-0.196-0.467-0.037-0.666l4-5
				c0.173-0.215,0.488-0.249,0.703-0.078c0.215,0.173,0.25,0.487,0.078,0.703l-3.146,3.933l4.439-3.632
				c0.213-0.176,0.528-0.145,0.704,0.07c0.175,0.214,0.143,0.528-0.071,0.703l-5.5,4.5C13.724,20.463,13.612,20.5,13.5,20.5z"/>
		</g>
		<g>
			<path d="M12.5,22.5c-0.128,0-0.256-0.049-0.354-0.146l-1.5-1.5C10.553,20.76,10.5,20.633,10.5,20.5c0-0.255,0-0.275,1.654-1.861
				c0.196-0.188,0.506-0.185,0.7,0.008l1.5,1.5c0.195,0.195,0.195,0.512,0,0.707l-1.5,1.5C12.756,22.451,12.628,22.5,12.5,22.5z
				 M11.693,20.486l0.807,0.807l0.793-0.793l-0.799-0.8C12.191,19.993,11.899,20.279,11.693,20.486z"/>
		</g>
	</g>
</g>
<g id="Robot_Arm_5">
</g>
<g id="K5_Robot">
</g>
<g id="Robot_Machine_1_1_">
</g>
<g id="Robot_Machine_2">
</g>
<g id="Artifical_Intelligence_1_1_">
</g>
<g id="Artifical_Intelligence_2">
</g>
<g id="Robot_4">
</g>
<g id="Robot_5">
</g>
<g id="Robot_6">
</g>
<g id="Robot_7">
</g>
<g id="Robot_8">
</g>
<g id="Robot_9">
</g>
<g id="Robot_10">
</g>
<g id="Robot_11">
</g>
<g id="Robot_12">
</g>
<g id="Robot_13">
</g>
</svg>
