<?xml version="1.0" encoding="iso-8859-1"?>
<!-- Generator: Adobe Illustrator 19.2.1, SVG Export Plug-In . SVG Version: 6.00 Build 0)  -->
<svg version="1.1" xmlns="http://www.w3.org/2000/svg" xmlns:xlink="http://www.w3.org/1999/xlink" x="0px" y="0px"
	 viewBox="0 0 24 24" style="enable-background:new 0 0 24 24;" xml:space="preserve">
<g id="Retro_Bot_1">
</g>
<g id="Retro_Bot_2">
</g>
<g id="Retro_Bot_3">
</g>
<g id="Retro_Bot_4">
</g>
<g id="Wall-E">
</g>
<g id="Eva">
</g>
<g id="Iron_Giant_1_">
</g>
<g id="Marvin_1_">
</g>
<g id="Atlas_1_">
</g>
<g id="Claptrap_1_">
</g>
<g id="Android_1_">
</g>
<g id="Bender_1_">
</g>
<g id="Roberto_1_">
</g>
<g id="Robot_Devil_1_">
</g>
<g id="Robocop_1_">
</g>
<g id="ED_209_1_">
</g>
<g id="Optimus_Prime_1_">
</g>
<g id="Robot_1">
</g>
<g id="Robot_2">
</g>
<g id="Robot_3">
</g>
<g id="Robot_Arm_1">
</g>
<g id="Robot_Arm_2">
</g>
<g id="Robot_Arm_3">
</g>
<g id="Robot_Arm_4">
</g>
<g id="Robot_Arm_5">
</g>
<g id="K5_Robot">
</g>
<g id="Robot_Machine_1_1_">
</g>
<g id="Robot_Machine_2">
</g>
<g id="Artifical_Intelligence_1_1_">
</g>
<g id="Artifical_Intelligence_2">
</g>
<g id="Robot_4">
</g>
<g id="Robot_5">
</g>
<g id="Robot_6">
</g>
<g id="Robot_7">
</g>
<g id="Robot_8">
	<g>
		<g>
			<path d="M15.5,18h-8C6.673,18,6,17.327,6,16.5v-8C6,8.224,6.224,8,6.5,8h10C16.776,8,17,8.224,17,8.5v8
				C17,17.327,16.327,18,15.5,18z M7,9v7.5C7,16.775,7.224,17,7.5,17h8c0.276,0,0.5-0.225,0.5-0.5V9H7z"/>
		</g>
		<g>
			<path d="M12.5,24h-2c-0.276,0-0.5-0.224-0.5-0.5s0.224-0.5,0.5-0.5h2c0.276,0,0.5,0.224,0.5,0.5S12.776,24,12.5,24z"/>
		</g>
		<g>
			<path d="M13.5,22h-4C9.224,22,9,21.776,9,21.5S9.224,21,9.5,21h4c0.276,0,0.5,0.224,0.5,0.5S13.776,22,13.5,22z"/>
		</g>
		<g>
			<path d="M14.5,20h-6C8.224,20,8,19.776,8,19.5S8.224,19,8.5,19h6c0.276,0,0.5,0.224,0.5,0.5S14.776,20,14.5,20z"/>
		</g>
		<g>
			<path d="M16.5,16h-10C6.224,16,6,15.776,6,15.5S6.224,15,6.5,15h10c0.276,0,0.5,0.224,0.5,0.5S16.776,16,16.5,16z"/>
		</g>
		<g>
			<path d="M9.5,9C9.224,9,9,8.776,9,8.5v-2C9,6.224,9.224,6,9.5,6S10,6.224,10,6.5v2C10,8.776,9.776,9,9.5,9z"/>
		</g>
		<g>
			<path d="M13.5,9C13.224,9,13,8.776,13,8.5v-2C13,6.224,13.224,6,13.5,6S14,6.224,14,6.5v2C14,8.776,13.776,9,13.5,9z"/>
		</g>
		<g>
			<path d="M13.5,7h-4C8.122,7,7,5.879,7,4.5v-3C7,0.673,7.673,0,8.5,0h6C15.327,0,16,0.673,16,1.5v3C16,5.879,14.878,7,13.5,7z
				 M8.5,1C8.224,1,8,1.225,8,1.5v3C8,5.327,8.673,6,9.5,6h4C14.327,6,15,5.327,15,4.5v-3C15,1.225,14.776,1,14.5,1H8.5z"/>
		</g>
		<g>
			<circle cx="8.5" cy="10.5" r="0.5"/>
		</g>
		<g>
			<circle cx="10.5" cy="10.5" r="0.5"/>
		</g>
		<g>
			<circle cx="12.5" cy="10.5" r="0.5"/>
		</g>
		<g>
			<circle cx="14.5" cy="10.5" r="0.5"/>
		</g>
		<g>
			<path d="M13.5,3h-4C9.224,3,9,2.776,9,2.5S9.224,2,9.5,2h4C13.776,2,14,2.224,14,2.5S13.776,3,13.5,3z"/>
		</g>
		<g>
			<path d="M10.5,4C10.224,4,10,3.776,10,3.5v-1C10,2.224,10.224,2,10.5,2S11,2.224,11,2.5v1C11,3.776,10.776,4,10.5,4z"/>
		</g>
		<g>
			<path d="M12.5,4C12.224,4,12,3.776,12,3.5v-1C12,2.224,12.224,2,12.5,2S13,2.224,13,2.5v1C13,3.776,12.776,4,12.5,4z"/>
		</g>
		<g>
			<path d="M16.5,17c-0.276,0-0.5-0.224-0.5-0.5v-7C16,9.224,16.224,9,16.5,9h1c0.827,0,1.5,0.673,1.5,1.5v4
				C19,15.879,17.878,17,16.5,17z M17,10v5.914c0.582-0.206,1-0.762,1-1.414v-4c0-0.275-0.224-0.5-0.5-0.5H17z"/>
		</g>
		<g>
			<path d="M6.5,17C5.122,17,4,15.879,4,14.5v-4C4,9.673,4.673,9,5.5,9h1C6.776,9,7,9.224,7,9.5v7C7,16.776,6.776,17,6.5,17z
				 M5.5,10C5.224,10,5,10.225,5,10.5v4c0,0.652,0.418,1.208,1,1.414V10H5.5z"/>
		</g>
	</g>
</g>
<g id="Robot_9">
</g>
<g id="Robot_10">
</g>
<g id="Robot_11">
</g>
<g id="Robot_12">
</g>
<g id="Robot_13">
</g>
</svg>
