<?xml version="1.0" encoding="iso-8859-1"?>
<!-- Generator: Adobe Illustrator 19.2.1, SVG Export Plug-In . SVG Version: 6.00 Build 0)  -->
<svg version="1.1" xmlns="http://www.w3.org/2000/svg" xmlns:xlink="http://www.w3.org/1999/xlink" x="0px" y="0px"
	 viewBox="0 0 24 24" style="enable-background:new 0 0 24 24;" xml:space="preserve">
<g id="Retro_Bot_1">
</g>
<g id="Retro_Bot_2">
</g>
<g id="Retro_Bot_3">
</g>
<g id="Retro_Bot_4">
</g>
<g id="Wall-E">
</g>
<g id="Eva">
</g>
<g id="Iron_Giant_1_">
</g>
<g id="Marvin_1_">
</g>
<g id="Atlas_1_">
</g>
<g id="Claptrap_1_">
</g>
<g id="Android_1_">
</g>
<g id="Bender_1_">
</g>
<g id="Roberto_1_">
</g>
<g id="Robot_Devil_1_">
</g>
<g id="Robocop_1_">
</g>
<g id="ED_209_1_">
</g>
<g id="Optimus_Prime_1_">
</g>
<g id="Robot_1">
</g>
<g id="Robot_2">
</g>
<g id="Robot_3">
</g>
<g id="Robot_Arm_1">
</g>
<g id="Robot_Arm_2">
</g>
<g id="Robot_Arm_3">
</g>
<g id="Robot_Arm_4">
</g>
<g id="Robot_Arm_5">
</g>
<g id="K5_Robot">
</g>
<g id="Robot_Machine_1_1_">
</g>
<g id="Robot_Machine_2">
</g>
<g id="Artifical_Intelligence_1_1_">
</g>
<g id="Artifical_Intelligence_2">
</g>
<g id="Robot_4">
</g>
<g id="Robot_5">
	<g>
		<g>
			<path d="M11.5,15C7.364,15,4,11.636,4,7.5S7.364,0,11.5,0S19,3.364,19,7.5S15.636,15,11.5,15z M11.5,1C7.916,1,5,3.916,5,7.5
				S7.916,14,11.5,14S18,11.084,18,7.5S15.084,1,11.5,1z"/>
		</g>
		<g>
			<path d="M11.5,11C9.57,11,8,9.43,8,7.5S9.57,4,11.5,4S15,5.57,15,7.5S13.43,11,11.5,11z M11.5,5C10.122,5,9,6.121,9,7.5
				s1.122,2.5,2.5,2.5S14,8.879,14,7.5S12.878,5,11.5,5z"/>
		</g>
		<g>
			<path d="M11.5,9C10.673,9,10,8.327,10,7.5S10.673,6,11.5,6S13,6.673,13,7.5S12.327,9,11.5,9z M11.5,7C11.224,7,11,7.225,11,7.5
				S11.224,8,11.5,8S12,7.775,12,7.5S11.776,7,11.5,7z"/>
		</g>
		<g>
			<circle cx="11.5" cy="12.5" r="0.5"/>
		</g>
		<g>
			<circle cx="9.5" cy="12.5" r="0.5"/>
		</g>
		<g>
			<circle cx="13.5" cy="12.5" r="0.5"/>
		</g>
		<g>
			<path d="M8.5,22C8.224,22,8,21.776,8,21.5V14c0-0.276,0.224-0.5,0.5-0.5S9,13.724,9,14v7.5C9,21.776,8.776,22,8.5,22z"/>
		</g>
		<g>
			<path d="M10.5,24h-4C6.224,24,6,23.776,6,23.5C6,22.121,7.122,21,8.5,21s2.5,1.121,2.5,2.5C11,23.776,10.776,24,10.5,24z
				 M7.085,23h2.829c-0.207-0.582-0.763-1-1.415-1S7.292,22.418,7.085,23z"/>
		</g>
		<g>
			<path d="M14.5,22c-0.276,0-0.5-0.224-0.5-0.5V14c0-0.276,0.224-0.5,0.5-0.5S15,13.724,15,14v7.5C15,21.776,14.776,22,14.5,22z"/>
		</g>
		<g>
			<path d="M16.5,24h-4c-0.276,0-0.5-0.224-0.5-0.5c0-1.379,1.122-2.5,2.5-2.5s2.5,1.121,2.5,2.5C17,23.776,16.776,24,16.5,24z
				 M13.085,23h2.829c-0.207-0.582-0.763-1-1.415-1S13.292,22.418,13.085,23z"/>
		</g>
		<g>
			<path d="M19.5,10h-1C18.224,10,18,9.776,18,9.5v-4C18,5.224,18.224,5,18.5,5h1C20.327,5,21,5.673,21,6.5v2
				C21,9.327,20.327,10,19.5,10z M19,9h0.5C19.776,9,20,8.775,20,8.5v-2C20,6.225,19.776,6,19.5,6H19V9z"/>
		</g>
		<g>
			<path d="M4.5,10h-1C2.673,10,2,9.327,2,8.5v-2C2,5.673,2.673,5,3.5,5h1C4.776,5,5,5.224,5,5.5v4C5,9.776,4.776,10,4.5,10z M3.5,6
				C3.224,6,3,6.225,3,6.5v2C3,8.775,3.224,9,3.5,9H4V6H3.5z"/>
		</g>
		<g>
			<path d="M21.5,8h-1C20.224,8,20,7.776,20,7.5S20.224,7,20.5,7h1C21.776,7,22,7.224,22,7.5S21.776,8,21.5,8z"/>
		</g>
		<g>
			<path d="M2.5,8h-1C1.224,8,1,7.776,1,7.5S1.224,7,1.5,7h1C2.776,7,3,7.224,3,7.5S2.776,8,2.5,8z"/>
		</g>
	</g>
</g>
<g id="Robot_6">
</g>
<g id="Robot_7">
</g>
<g id="Robot_8">
</g>
<g id="Robot_9">
</g>
<g id="Robot_10">
</g>
<g id="Robot_11">
</g>
<g id="Robot_12">
</g>
<g id="Robot_13">
</g>
</svg>
