<?xml version="1.0" encoding="iso-8859-1"?>
<!-- Generator: Adobe Illustrator 19.2.1, SVG Export Plug-In . SVG Version: 6.00 Build 0)  -->
<svg version="1.1" xmlns="http://www.w3.org/2000/svg" xmlns:xlink="http://www.w3.org/1999/xlink" x="0px" y="0px"
	 viewBox="0 0 24 24" style="enable-background:new 0 0 24 24;" xml:space="preserve">
<g id="Retro_Bot_1">
</g>
<g id="Retro_Bot_2">
</g>
<g id="Retro_Bot_3">
</g>
<g id="Retro_Bot_4">
</g>
<g id="Wall-E">
</g>
<g id="Eva">
</g>
<g id="Iron_Giant_1_">
</g>
<g id="Marvin_1_">
</g>
<g id="Atlas_1_">
</g>
<g id="Claptrap_1_">
</g>
<g id="Android_1_">
</g>
<g id="Bender_1_">
</g>
<g id="Roberto_1_">
</g>
<g id="Robot_Devil_1_">
</g>
<g id="Robocop_1_">
</g>
<g id="ED_209_1_">
</g>
<g id="Optimus_Prime_1_">
</g>
<g id="Robot_1">
</g>
<g id="Robot_2">
</g>
<g id="Robot_3">
</g>
<g id="Robot_Arm_1">
</g>
<g id="Robot_Arm_2">
</g>
<g id="Robot_Arm_3">
	<g id="Robot-Arm_3">
		<g>
			<path d="M21.5,5h-6C15.224,5,15,4.776,15,4.5S15.224,4,15.5,4h6C22.327,4,23,3.327,23,2.5S22.327,1,21.5,1h-19
				C1.673,1,1,1.673,1,2.5S1.673,4,2.5,4h6C8.776,4,9,4.224,9,4.5S8.776,5,8.5,5h-6C1.122,5,0,3.879,0,2.5S1.122,0,2.5,0h19
				C22.878,0,24,1.121,24,2.5S22.878,5,21.5,5z"/>
		</g>
		<g>
			<path d="M15.5,6h-7C8.224,6,8,5.776,8,5.5v-5C8,0.224,8.224,0,8.5,0h7C15.776,0,16,0.224,16,0.5v5C16,5.776,15.776,6,15.5,6z
				 M9,5h6V1H9V5z"/>
		</g>
		<g>
			<path d="M8.5,3h-6C2.224,3,2,2.776,2,2.5S2.224,2,2.5,2h6C8.776,2,9,2.224,9,2.5S8.776,3,8.5,3z"/>
		</g>
		<g>
			<path d="M21.5,3h-6C15.224,3,15,2.776,15,2.5S15.224,2,15.5,2h6C21.776,2,22,2.224,22,2.5S21.776,3,21.5,3z"/>
		</g>
		<g>
			<path d="M12,12c-1.654,0-3-1.346-3-3V5.5C9,5.224,9.224,5,9.5,5h5C14.776,5,15,5.224,15,5.5V9C15,10.654,13.654,12,12,12z M10,6
				v3c0,1.103,0.897,2,2,2s2-0.897,2-2V6H10z"/>
		</g>
		<g>
			<path d="M13.144,17c-0.023,0-0.047-0.002-0.071-0.005c-0.273-0.039-0.463-0.292-0.424-0.565l0.857-6
				c0.039-0.273,0.292-0.458,0.566-0.425c0.273,0.039,0.463,0.292,0.424,0.565l-0.857,6C13.603,16.82,13.389,17,13.144,17z"/>
		</g>
		<g>
			<path d="M10.857,17.001c-0.245,0-0.459-0.18-0.495-0.43L9.505,10.57c-0.039-0.273,0.151-0.526,0.424-0.565
				c0.272-0.037,0.527,0.15,0.566,0.425l0.857,6.001c0.039,0.273-0.151,0.526-0.424,0.565C10.904,16.999,10.88,17.001,10.857,17.001
				z"/>
		</g>
		<g>
			<path d="M13.5,24c-0.038,0-0.077-0.004-0.115-0.014C13.16,23.934,13,23.731,13,23.5V21h-2v2.5c0,0.231-0.16,0.434-0.385,0.486
				c-0.224,0.057-0.459-0.056-0.562-0.263l-2-4c-0.096-0.192-0.059-0.425,0.094-0.577l2-2c0.195-0.195,0.512-0.195,0.707,0
				s0.195,0.512,0,0.707l-1.745,1.745L10,21.382V20.5c0-0.276,0.224-0.5,0.5-0.5h3c0.276,0,0.5,0.224,0.5,0.5v0.882l0.892-1.783
				l-1.745-1.745c-0.195-0.195-0.195-0.512,0-0.707s0.512-0.195,0.707,0l2,2c0.152,0.152,0.19,0.385,0.094,0.577l-2,4
				C13.861,23.896,13.686,24,13.5,24z"/>
		</g>
		<g>
			<path d="M12,19c-1.103,0-2-0.897-2-2v-0.5c0-0.276,0.224-0.5,0.5-0.5h3c0.276,0,0.5,0.224,0.5,0.5V17C14,18.103,13.103,19,12,19z
				 M11,17c0,0.552,0.449,1,1,1s1-0.448,1-1H11z"/>
		</g>
	</g>
</g>
<g id="Robot_Arm_4">
</g>
<g id="Robot_Arm_5">
</g>
<g id="K5_Robot">
</g>
<g id="Robot_Machine_1_1_">
</g>
<g id="Robot_Machine_2">
</g>
<g id="Artifical_Intelligence_1_1_">
</g>
<g id="Artifical_Intelligence_2">
</g>
<g id="Robot_4">
</g>
<g id="Robot_5">
</g>
<g id="Robot_6">
</g>
<g id="Robot_7">
</g>
<g id="Robot_8">
</g>
<g id="Robot_9">
</g>
<g id="Robot_10">
</g>
<g id="Robot_11">
</g>
<g id="Robot_12">
</g>
<g id="Robot_13">
</g>
</svg>
