<?xml version="1.0" encoding="iso-8859-1"?>
<!-- Generator: Adobe Illustrator 19.2.1, SVG Export Plug-In . SVG Version: 6.00 Build 0)  -->
<svg version="1.1" xmlns="http://www.w3.org/2000/svg" xmlns:xlink="http://www.w3.org/1999/xlink" x="0px" y="0px"
	 viewBox="0 0 24 24" style="enable-background:new 0 0 24 24;" xml:space="preserve">
<g id="Retro_Bot_1">
</g>
<g id="Retro_Bot_2">
</g>
<g id="Retro_Bot_3">
</g>
<g id="Retro_Bot_4">
</g>
<g id="Wall-E">
</g>
<g id="Eva">
</g>
<g id="Iron_Giant_1_">
</g>
<g id="Marvin_1_">
</g>
<g id="Atlas_1_">
</g>
<g id="Claptrap_1_">
</g>
<g id="Android_1_">
</g>
<g id="Bender_1_">
</g>
<g id="Roberto_1_">
</g>
<g id="Robot_Devil_1_">
</g>
<g id="Robocop_1_">
</g>
<g id="ED_209_1_">
</g>
<g id="Optimus_Prime_1_">
</g>
<g id="Robot_1">
</g>
<g id="Robot_2">
</g>
<g id="Robot_3">
</g>
<g id="Robot_Arm_1">
	<g id="Robot-Arm_1">
		<g>
			<path d="M11.5,24h-11C0.224,24,0,23.776,0,23.5v-2C0,21.224,0.224,21,0.5,21h11c0.276,0,0.5,0.224,0.5,0.5v2
				C12,23.776,11.776,24,11.5,24z M1,23h10v-1H1V23z"/>
		</g>
		<g>
			<path d="M10.5,22h-9C1.224,22,1,21.776,1,21.5v-5C1,16.224,1.224,16,1.5,16h9c0.276,0,0.5,0.224,0.5,0.5v5
				C11,21.776,10.776,22,10.5,22z M2,21h8v-4H2V21z"/>
		</g>
		<g>
			<path d="M8.5,17h-5C3.224,17,3,16.776,3,16.5V15c0-1.654,1.346-3,3-3s3,1.346,3,3v1.5C9,16.776,8.776,17,8.5,17z M4,16h4v-1
				c0-1.103-0.897-2-2-2s-2,0.897-2,2V16z"/>
		</g>
		<g>
			<path d="M4.5,13.5c-0.091,0-0.184-0.025-0.267-0.077C4,13.275,3.93,12.966,4.078,12.732l6.153-9.731
				c0.147-0.234,0.455-0.302,0.689-0.155c0.233,0.147,0.303,0.457,0.155,0.69l-6.153,9.731C4.828,13.418,4.665,13.5,4.5,13.5z"/>
		</g>
		<g>
			<path d="M8.467,15.098c-0.068,0-0.138-0.014-0.205-0.044c-0.252-0.113-0.364-0.409-0.251-0.661L12.588,4.22
				c0.114-0.252,0.411-0.364,0.661-0.251c0.252,0.113,0.364,0.409,0.251,0.661L8.924,14.803C8.84,14.988,8.658,15.098,8.467,15.098z
				"/>
		</g>
		<g>
			<path d="M12.5,5C11.122,5,10,3.879,10,2.5S11.122,0,12.5,0S15,1.121,15,2.5S13.878,5,12.5,5z M12.5,1C11.673,1,11,1.673,11,2.5
				S11.673,4,12.5,4S14,3.327,14,2.5S13.327,1,12.5,1z"/>
		</g>
		<g>
			<path d="M22.5,11c-0.827,0-1.5-0.673-1.5-1.5S21.673,8,22.5,8S24,8.673,24,9.5S23.327,11,22.5,11z M22.5,9
				C22.224,9,22,9.225,22,9.5s0.224,0.5,0.5,0.5S23,9.775,23,9.5S22.776,9,22.5,9z"/>
		</g>
		<g>
			<path d="M22.105,9.081c-0.109,0-0.22-0.036-0.312-0.109l-7.606-6.081c-0.216-0.173-0.251-0.487-0.079-0.703
				c0.173-0.214,0.488-0.249,0.703-0.078l7.606,6.081c0.216,0.173,0.251,0.487,0.079,0.703C22.398,9.017,22.252,9.081,22.105,9.081z
				"/>
		</g>
		<g>
			<path d="M20.5,13.5c-0.046,0-0.092-0.006-0.138-0.02c-0.266-0.075-0.419-0.353-0.344-0.618l0.897-3.138l-7.915-4.953
				c-0.234-0.146-0.305-0.455-0.159-0.689c0.146-0.233,0.456-0.305,0.689-0.158l8.234,5.152c0.189,0.118,0.277,0.347,0.216,0.562
				l-1,3.5C20.918,13.357,20.718,13.5,20.5,13.5z"/>
		</g>
		<g>
			<path d="M3.5,20C3.224,20,3,19.776,3,19.5v-1C3,18.224,3.224,18,3.5,18S4,18.224,4,18.5v1C4,19.776,3.776,20,3.5,20z"/>
		</g>
		<g>
			<path d="M5.5,20C5.224,20,5,19.776,5,19.5v-1C5,18.224,5.224,18,5.5,18S6,18.224,6,18.5v1C6,19.776,5.776,20,5.5,20z"/>
		</g>
		<g>
			<path d="M20.875,13.67c-0.108,0-0.218-0.035-0.31-0.107c-0.216-0.171-0.253-0.485-0.083-0.702l2.396-3.035
				c0.171-0.216,0.486-0.253,0.703-0.083c0.216,0.171,0.253,0.485,0.083,0.702l-2.396,3.035
				C21.169,13.604,21.022,13.67,20.875,13.67z"/>
		</g>
		<g>
			<path d="M20.5,14.5c-0.551,0-1-0.448-1-1s0.449-1,1-1s1,0.448,1,1S21.051,14.5,20.5,14.5z M20.5,13.499
				C20.5,13.499,20.5,13.5,20.5,13.499L21,13.5L20.5,13.499z"/>
		</g>
		<g>
			<path d="M20.5,17c-0.128,0-0.256-0.049-0.354-0.146c-0.195-0.195-0.195-0.512,0-0.707L21.293,15l-1-1H19v1.5
				c0,0.276-0.224,0.5-0.5,0.5S18,15.776,18,15.5v-2c0-0.276,0.224-0.5,0.5-0.5h2c0.133,0,0.26,0.053,0.354,0.146l1.5,1.5
				c0.195,0.195,0.195,0.512,0,0.707l-1.5,1.5C20.756,16.951,20.628,17,20.5,17z"/>
		</g>
	</g>
</g>
<g id="Robot_Arm_2">
</g>
<g id="Robot_Arm_3">
</g>
<g id="Robot_Arm_4">
</g>
<g id="Robot_Arm_5">
</g>
<g id="K5_Robot">
</g>
<g id="Robot_Machine_1_1_">
</g>
<g id="Robot_Machine_2">
</g>
<g id="Artifical_Intelligence_1_1_">
</g>
<g id="Artifical_Intelligence_2">
</g>
<g id="Robot_4">
</g>
<g id="Robot_5">
</g>
<g id="Robot_6">
</g>
<g id="Robot_7">
</g>
<g id="Robot_8">
</g>
<g id="Robot_9">
</g>
<g id="Robot_10">
</g>
<g id="Robot_11">
</g>
<g id="Robot_12">
</g>
<g id="Robot_13">
</g>
</svg>
