<?xml version="1.0" encoding="iso-8859-1"?>
<!-- Generator: Adobe Illustrator 19.2.1, SVG Export Plug-In . SVG Version: 6.00 Build 0)  -->
<svg version="1.1" xmlns="http://www.w3.org/2000/svg" xmlns:xlink="http://www.w3.org/1999/xlink" x="0px" y="0px"
	 viewBox="0 0 24 24" style="enable-background:new 0 0 24 24;" xml:space="preserve">
<g id="Retro_Bot_1">
</g>
<g id="Retro_Bot_2">
</g>
<g id="Retro_Bot_3">
</g>
<g id="Retro_Bot_4">
</g>
<g id="Wall-E">
</g>
<g id="Eva">
</g>
<g id="Iron_Giant_1_">
</g>
<g id="Marvin_1_">
</g>
<g id="Atlas_1_">
</g>
<g id="Claptrap_1_">
</g>
<g id="Android_1_">
</g>
<g id="Bender_1_">
</g>
<g id="Roberto_1_">
</g>
<g id="Robot_Devil_1_">
</g>
<g id="Robocop_1_">
</g>
<g id="ED_209_1_">
</g>
<g id="Optimus_Prime_1_">
</g>
<g id="Robot_1">
</g>
<g id="Robot_2">
</g>
<g id="Robot_3">
</g>
<g id="Robot_Arm_1">
</g>
<g id="Robot_Arm_2">
</g>
<g id="Robot_Arm_3">
</g>
<g id="Robot_Arm_4">
</g>
<g id="Robot_Arm_5">
</g>
<g id="K5_Robot">
</g>
<g id="Robot_Machine_1_1_">
</g>
<g id="Robot_Machine_2">
</g>
<g id="Artifical_Intelligence_1_1_">
</g>
<g id="Artifical_Intelligence_2">
</g>
<g id="Robot_4">
	<g>
		<g>
			<path d="M14.5,24c-1.93,0-3.5-1.57-3.5-3.5s1.57-3.5,3.5-3.5s3.5,1.57,3.5,3.5S16.43,24,14.5,24z M14.5,18
				c-1.378,0-2.5,1.121-2.5,2.5s1.122,2.5,2.5,2.5s2.5-1.121,2.5-2.5S15.878,18,14.5,18z"/>
		</g>
		<g>
			<path d="M14.5,21c-0.097,0-0.195-0.028-0.281-0.087l-10.63-7.224c-0.228-0.154-0.288-0.466-0.132-0.694
				c0.156-0.229,0.465-0.287,0.695-0.132l4.267,2.898l-3.25-2.888C5.059,12.777,4.998,12.638,5,12.492s0.068-0.283,0.18-0.376l6-5
				c0.213-0.177,0.527-0.147,0.705,0.063c0.177,0.212,0.148,0.527-0.064,0.704l-5.554,4.629l8.566,7.613
				c0.197,0.176,0.225,0.474,0.063,0.682C14.796,20.934,14.649,21,14.5,21z"/>
		</g>
		<g>
			<path d="M3.734,12.356c-0.112,0-0.226-0.038-0.319-0.115c-0.212-0.177-0.242-0.491-0.065-0.704l7.765-9.356
				c0.177-0.212,0.491-0.24,0.704-0.065c0.212,0.177,0.242,0.491,0.065,0.704L4.12,12.176C4.021,12.295,3.878,12.356,3.734,12.356z"
				/>
		</g>
		<g>
			<path d="M4.5,14C3.673,14,3,13.327,3,12.5S3.673,11,4.5,11S6,11.673,6,12.5S5.327,14,4.5,14z M4.5,12C4.224,12,4,12.225,4,12.5
				S4.224,13,4.5,13S5,12.775,5,12.5S4.776,12,4.5,12z"/>
		</g>
		<g>
			<path d="M19.5,15h-4c-2.481,0-4.5-2.019-4.5-4.5v-10C11,0.224,11.224,0,11.5,0h6C18.878,0,20,1.121,20,2.5v1
				C20,3.776,19.776,4,19.5,4H17v4h2.5C19.776,8,20,8.224,20,8.5v6C20,14.776,19.776,15,19.5,15z M12,1v9.5c0,1.93,1.57,3.5,3.5,3.5
				H19V9h-2.5C16.224,9,16,8.776,16,8.5v-5C16,3.224,16.224,3,16.5,3H19V2.5C19,1.673,18.327,1,17.5,1H12z"/>
		</g>
		<g>
			<path d="M18.5,9C18.224,9,18,8.776,18,8.5v-5C18,3.224,18.224,3,18.5,3S19,3.224,19,3.5v5C19,8.776,18.776,9,18.5,9z"/>
		</g>
		<g>
			<path d="M19.5,11h-3c-0.276,0-0.5-0.224-0.5-0.5s0.224-0.5,0.5-0.5h3c0.276,0,0.5,0.224,0.5,0.5S19.776,11,19.5,11z"/>
		</g>
		<g>
			<path d="M19.5,13h-3c-0.276,0-0.5-0.224-0.5-0.5s0.224-0.5,0.5-0.5h3c0.276,0,0.5,0.224,0.5,0.5S19.776,13,19.5,13z"/>
		</g>
	</g>
</g>
<g id="Robot_5">
</g>
<g id="Robot_6">
</g>
<g id="Robot_7">
</g>
<g id="Robot_8">
</g>
<g id="Robot_9">
</g>
<g id="Robot_10">
</g>
<g id="Robot_11">
</g>
<g id="Robot_12">
</g>
<g id="Robot_13">
</g>
</svg>
