<?xml version="1.0" encoding="iso-8859-1"?>
<!-- Generator: Adobe Illustrator 19.2.1, SVG Export Plug-In . SVG Version: 6.00 Build 0)  -->
<svg version="1.1" xmlns="http://www.w3.org/2000/svg" xmlns:xlink="http://www.w3.org/1999/xlink" x="0px" y="0px"
	 viewBox="0 0 24 24" style="enable-background:new 0 0 24 24;" xml:space="preserve">
<g id="Retro_Bot_1">
</g>
<g id="Retro_Bot_2">
</g>
<g id="Retro_Bot_3">
</g>
<g id="Retro_Bot_4">
</g>
<g id="Wall-E">
</g>
<g id="Eva">
</g>
<g id="Iron_Giant_1_">
</g>
<g id="Marvin_1_">
</g>
<g id="Atlas_1_">
</g>
<g id="Claptrap_1_">
</g>
<g id="Android_1_">
</g>
<g id="Bender_1_">
</g>
<g id="Roberto_1_">
</g>
<g id="Robot_Devil_1_">
</g>
<g id="Robocop_1_">
</g>
<g id="ED_209_1_">
</g>
<g id="Optimus_Prime_1_">
</g>
<g id="Robot_1">
</g>
<g id="Robot_2">
</g>
<g id="Robot_3">
</g>
<g id="Robot_Arm_1">
</g>
<g id="Robot_Arm_2">
</g>
<g id="Robot_Arm_3">
</g>
<g id="Robot_Arm_4">
</g>
<g id="Robot_Arm_5">
</g>
<g id="K5_Robot">
</g>
<g id="Robot_Machine_1_1_">
</g>
<g id="Robot_Machine_2">
	<g id="Robot_Machine_2_3_">
		<g>
			<path d="M18.5,13h-14C4.224,13,4,12.776,4,12.5v-5C4,7.224,4.224,7,4.5,7h14C18.776,7,19,7.224,19,7.5v5
				C19,12.776,18.776,13,18.5,13z M5,12h13V8H5V12z"/>
		</g>
		<g>
			<path d="M14.5,8h-6C8.224,8,8,7.776,8,7.5v-4C8,1.57,9.57,0,11.5,0S15,1.57,15,3.5v4C15,7.776,14.776,8,14.5,8z M9,7h5V3.5
				C14,2.121,12.879,1,11.5,1S9,2.121,9,3.5V7z"/>
		</g>
		<g>
			<path d="M10.5,4C10.224,4,10,3.776,10,3.5C10,2.673,10.673,2,11.5,2C11.776,2,12,2.224,12,2.5S11.776,3,11.5,3
				C11.225,3,11,3.225,11,3.5C11,3.776,10.776,4,10.5,4z"/>
		</g>
		<g>
			<path d="M14.5,4C14.224,4,14,3.776,14,3.5C14,2.121,12.879,1,11.5,1S9,2.121,9,3.5C9,3.776,8.776,4,8.5,4S8,3.776,8,3.5
				C8,1.57,9.57,0,11.5,0S15,1.57,15,3.5C15,3.776,14.776,4,14.5,4z"/>
		</g>
		<g>
			<path d="M1.5,24c-0.075,0-0.151-0.017-0.224-0.053c-0.247-0.124-0.347-0.424-0.224-0.671l0.936-1.87L0.003,1.55
				c-0.02-0.188,0.069-0.371,0.229-0.472c0.159-0.102,0.362-0.104,0.524-0.007l5,3c0.103,0.062,0.18,0.157,0.218,0.271l1,3
				C7.062,7.604,6.92,7.887,6.658,7.975C6.397,8.063,6.114,7.92,6.025,7.658L5.084,4.834L1.097,2.441l1.9,19.009
				c0.01,0.094-0.008,0.188-0.05,0.273l-1,2C1.859,23.898,1.683,24,1.5,24z"/>
		</g>
		<g>
			<path d="M3.5,24c-0.183,0-0.359-0.102-0.447-0.276l-1-2c-0.123-0.247-0.023-0.547,0.224-0.671s0.547-0.023,0.671,0.224l1,2
				c0.123,0.247,0.023,0.547-0.224,0.671C3.651,23.983,3.575,24,3.5,24z"/>
		</g>
		<g>
			<path d="M21.5,24c-0.183,0-0.359-0.102-0.447-0.276l-1-2c-0.042-0.085-0.06-0.18-0.05-0.273l1.9-19.009l-3.987,2.393
				l-0.941,2.824c-0.088,0.262-0.369,0.405-0.633,0.316c-0.262-0.088-0.403-0.371-0.316-0.633l1-3
				c0.038-0.113,0.115-0.209,0.218-0.271l5-3c0.162-0.098,0.366-0.095,0.524,0.007c0.16,0.101,0.249,0.283,0.229,0.472
				l-1.985,19.856l0.936,1.87c0.123,0.247,0.023,0.547-0.224,0.671C21.651,23.983,21.575,24,21.5,24z"/>
		</g>
		<g>
			<path d="M19.5,24c-0.075,0-0.151-0.017-0.224-0.053c-0.247-0.124-0.347-0.424-0.224-0.671l1-2
				c0.124-0.246,0.425-0.347,0.671-0.224c0.247,0.124,0.347,0.424,0.224,0.671l-1,2C19.859,23.898,19.683,24,19.5,24z"/>
		</g>
		<g>
			<path d="M6.5,17c-0.128,0-0.256-0.049-0.354-0.146l-1-1c-0.134-0.134-0.181-0.332-0.121-0.512l1-3
				c0.089-0.262,0.373-0.401,0.633-0.316c0.262,0.088,0.403,0.371,0.316,0.633l-0.902,2.707l0.781,0.781
				c0.195,0.195,0.195,0.512,0,0.707C6.756,16.951,6.628,17,6.5,17z"/>
		</g>
		<g>
			<path d="M7.5,19C6.673,19,6,18.327,6,17.5S6.673,16,7.5,16S9,16.673,9,17.5S8.327,19,7.5,19z M7.5,17C7.225,17,7,17.225,7,17.5
				S7.225,18,7.5,18S8,17.775,8,17.5S7.775,17,7.5,17z"/>
		</g>
		<g>
			<path d="M16.5,17c-0.128,0-0.256-0.049-0.354-0.146c-0.195-0.195-0.195-0.512,0-0.707l0.781-0.781l-0.902-2.707
				c-0.087-0.262,0.055-0.545,0.316-0.633c0.263-0.086,0.545,0.055,0.633,0.316l1,3c0.06,0.18,0.013,0.378-0.121,0.512l-1,1
				C16.756,16.951,16.628,17,16.5,17z"/>
		</g>
		<g>
			<path d="M15.5,19c-0.827,0-1.5-0.673-1.5-1.5s0.673-1.5,1.5-1.5s1.5,0.673,1.5,1.5S16.327,19,15.5,19z M15.5,17
				c-0.275,0-0.5,0.225-0.5,0.5s0.225,0.5,0.5,0.5s0.5-0.225,0.5-0.5S15.775,17,15.5,17z"/>
		</g>
		<g>
			<path d="M6.5,11C6.224,11,6,10.776,6,10.5v-1C6,9.224,6.224,9,6.5,9S7,9.224,7,9.5v1C7,10.776,6.776,11,6.5,11z"/>
		</g>
		<g>
			<path d="M8.5,11C8.224,11,8,10.776,8,10.5v-1C8,9.224,8.224,9,8.5,9S9,9.224,9,9.5v1C9,10.776,8.776,11,8.5,11z"/>
		</g>
		<g>
			<circle cx="16.5" cy="10.5" r="0.5"/>
		</g>
		<g>
			<circle cx="14.5" cy="10.5" r="0.5"/>
		</g>
		<g>
			<circle cx="12.5" cy="10.5" r="0.5"/>
		</g>
		<g>
			<circle cx="10.5" cy="10.5" r="0.5"/>
		</g>
	</g>
</g>
<g id="Artifical_Intelligence_1_1_">
</g>
<g id="Artifical_Intelligence_2">
</g>
<g id="Robot_4">
</g>
<g id="Robot_5">
</g>
<g id="Robot_6">
</g>
<g id="Robot_7">
</g>
<g id="Robot_8">
</g>
<g id="Robot_9">
</g>
<g id="Robot_10">
</g>
<g id="Robot_11">
</g>
<g id="Robot_12">
</g>
<g id="Robot_13">
</g>
</svg>
