<?xml version="1.0" encoding="iso-8859-1"?>
<!-- Generator: Adobe Illustrator 19.2.1, SVG Export Plug-In . SVG Version: 6.00 Build 0)  -->
<svg version="1.1" xmlns="http://www.w3.org/2000/svg" xmlns:xlink="http://www.w3.org/1999/xlink" x="0px" y="0px"
	 viewBox="0 0 24 24" style="enable-background:new 0 0 24 24;" xml:space="preserve">
<g id="Retro_Bot_1">
</g>
<g id="Retro_Bot_2">
</g>
<g id="Retro_Bot_3">
</g>
<g id="Retro_Bot_4">
</g>
<g id="Wall-E">
</g>
<g id="Eva">
</g>
<g id="Iron_Giant_1_">
</g>
<g id="Marvin_1_">
</g>
<g id="Atlas_1_">
</g>
<g id="Claptrap_1_">
</g>
<g id="Android_1_">
</g>
<g id="Bender_1_">
</g>
<g id="Roberto_1_">
</g>
<g id="Robot_Devil_1_">
	<g id="Robot_Devil">
		<g>
			<g>
				<path d="M16.666,15H6.245c-0.178,0-0.343-0.095-0.433-0.25L0.346,5.308C0.038,4.776-0.069,4.174,0.043,3.611
					C0.463,1.519,2.319,0,4.456,0h14c2.137,0,3.993,1.519,4.412,3.611c0.113,0.562,0.006,1.165-0.302,1.697l-5.467,9.443
					C17.009,14.905,16.844,15,16.666,15z M6.533,14h9.845l5.323-9.193c0.186-0.321,0.252-0.675,0.187-0.999
					C21.561,2.181,20.118,1,18.456,1h-14C2.793,1,1.35,2.181,1.024,3.808C0.959,4.131,1.025,4.486,1.211,4.807L6.533,14z"/>
			</g>
			<g>
				<path d="M11.456,24L11.456,24c-0.178,0-0.343-0.095-0.433-0.25l-2.895-5c-0.09-0.155-0.09-0.345,0-0.5
					C8.217,18.095,8.382,18,8.561,18h5.79c0.179,0,0.344,0.095,0.433,0.25c0.089,0.155,0.089,0.345,0,0.5l-2.895,5
					C11.799,23.905,11.634,24,11.456,24z M9.428,19l2.027,3.502L13.483,19H9.428z"/>
			</g>
		</g>
		<g>
			<path d="M14.456,17c-0.157,0-0.306-0.074-0.4-0.2l-1.1-1.466l-1.1,1.466c-0.188,0.252-0.611,0.252-0.8,0l-1.1-1.466l-1.1,1.466
				c-0.188,0.252-0.611,0.252-0.8,0l-1.5-2c-0.166-0.221-0.121-0.534,0.1-0.7c0.22-0.167,0.534-0.122,0.7,0.1l1.1,1.466l1.1-1.466
				c0.188-0.252,0.611-0.252,0.8,0l1.1,1.466l1.1-1.466c0.188-0.252,0.611-0.252,0.8,0l1.1,1.466l1.1-1.466
				c0.166-0.222,0.479-0.266,0.7-0.1c0.221,0.166,0.266,0.479,0.1,0.7l-1.5,2C14.761,16.926,14.613,17,14.456,17z"/>
		</g>
		<g>
			<path d="M12.456,12h-2c-0.245,0-0.453-0.177-0.493-0.418L9.017,5.911L0.49,3.902C0.222,3.839,0.055,3.57,0.118,3.301
				C0.181,3.032,0.451,2.866,0.72,2.929L9.57,5.013C9.767,5.06,9.916,5.219,9.949,5.418L10.879,11h1.153l0.93-5.582
				c0.033-0.199,0.182-0.358,0.378-0.405l8.851-2.084c0.269-0.063,0.538,0.104,0.602,0.372c0.063,0.269-0.104,0.538-0.372,0.602
				l-8.527,2.008l-0.945,5.671C12.909,11.823,12.7,12,12.456,12z"/>
		</g>
		<g>
			<path d="M6.456,9c-1.654,0-3-1.346-3-3c0-0.683,0.224-1.326,0.647-1.861c0.172-0.216,0.485-0.252,0.703-0.082
				C5.021,4.229,5.058,4.543,4.887,4.76C4.604,5.116,4.456,5.545,4.456,6c0,1.103,0.897,2,2,2s2-0.897,2-2
				c0-0.139-0.014-0.277-0.042-0.411C8.358,5.319,8.532,5.054,8.802,4.998c0.266-0.056,0.535,0.118,0.591,0.388
				C9.435,5.587,9.456,5.793,9.456,6C9.456,7.654,8.11,9,6.456,9z"/>
		</g>
		<g>
			<path d="M16.456,9c-1.654,0-3-1.346-3-3c0-0.208,0.021-0.415,0.063-0.615c0.057-0.271,0.32-0.442,0.592-0.386
				c0.27,0.057,0.443,0.322,0.386,0.592C14.47,5.724,14.456,5.861,14.456,6c0,1.103,0.897,2,2,2s2-0.897,2-2
				c0-0.456-0.149-0.885-0.431-1.24c-0.172-0.216-0.135-0.531,0.081-0.702c0.216-0.173,0.531-0.135,0.702,0.081
				C19.232,4.673,19.456,5.316,19.456,6C19.456,7.654,18.11,9,16.456,9z"/>
		</g>
		<g>
			<circle cx="6.456" cy="6.5" r="0.5"/>
		</g>
		<g>
			<circle cx="16.456" cy="6.5" r="0.5"/>
		</g>
	</g>
</g>
<g id="Robocop_1_">
</g>
<g id="ED_209_1_">
</g>
<g id="Optimus_Prime_1_">
</g>
<g id="Robot_1">
</g>
<g id="Robot_2">
</g>
<g id="Robot_3">
</g>
<g id="Robot_Arm_1">
</g>
<g id="Robot_Arm_2">
</g>
<g id="Robot_Arm_3">
</g>
<g id="Robot_Arm_4">
</g>
<g id="Robot_Arm_5">
</g>
<g id="K5_Robot">
</g>
<g id="Robot_Machine_1_1_">
</g>
<g id="Robot_Machine_2">
</g>
<g id="Artifical_Intelligence_1_1_">
</g>
<g id="Artifical_Intelligence_2">
</g>
<g id="Robot_4">
</g>
<g id="Robot_5">
</g>
<g id="Robot_6">
</g>
<g id="Robot_7">
</g>
<g id="Robot_8">
</g>
<g id="Robot_9">
</g>
<g id="Robot_10">
</g>
<g id="Robot_11">
</g>
<g id="Robot_12">
</g>
<g id="Robot_13">
</g>
</svg>
