<?xml version="1.0" encoding="iso-8859-1"?>
<!-- Generator: Adobe Illustrator 19.2.1, SVG Export Plug-In . SVG Version: 6.00 Build 0)  -->
<svg version="1.1" xmlns="http://www.w3.org/2000/svg" xmlns:xlink="http://www.w3.org/1999/xlink" x="0px" y="0px"
	 viewBox="0 0 24 24" style="enable-background:new 0 0 24 24;" xml:space="preserve">
<g id="Retro_Bot_1">
</g>
<g id="Retro_Bot_2">
</g>
<g id="Retro_Bot_3">
</g>
<g id="Retro_Bot_4">
</g>
<g id="Wall-E">
</g>
<g id="Eva">
</g>
<g id="Iron_Giant_1_">
</g>
<g id="Marvin_1_">
</g>
<g id="Atlas_1_">
</g>
<g id="Claptrap_1_">
</g>
<g id="Android_1_">
</g>
<g id="Bender_1_">
</g>
<g id="Roberto_1_">
</g>
<g id="Robot_Devil_1_">
</g>
<g id="Robocop_1_">
</g>
<g id="ED_209_1_">
</g>
<g id="Optimus_Prime_1_">
</g>
<g id="Robot_1">
</g>
<g id="Robot_2">
</g>
<g id="Robot_3">
</g>
<g id="Robot_Arm_1">
</g>
<g id="Robot_Arm_2">
</g>
<g id="Robot_Arm_3">
</g>
<g id="Robot_Arm_4">
</g>
<g id="Robot_Arm_5">
</g>
<g id="K5_Robot">
</g>
<g id="Robot_Machine_1_1_">
	<g id="Robot_Machine_1">
		<g>
			<path d="M17.5,21h-15C1.121,21,0,19.879,0,18.5S1.121,16,2.5,16h15c1.379,0,2.5,1.121,2.5,2.5S18.879,21,17.5,21z M2.5,17
				C1.673,17,1,17.673,1,18.5S1.673,20,2.5,20h15c0.827,0,1.5-0.673,1.5-1.5S18.327,17,17.5,17H2.5z"/>
		</g>
		<g>
			<path d="M17.5,17h-15C2.224,17,2,16.776,2,16.5v-5C2,11.224,2.224,11,2.5,11h15c0.276,0,0.5,0.224,0.5,0.5v5
				C18,16.776,17.776,17,17.5,17z M3,16h14v-4H3V16z"/>
		</g>
		<g>
			<path d="M4.5,15C4.224,15,4,14.776,4,14.5v-1C4,13.224,4.224,13,4.5,13S5,13.224,5,13.5v1C5,14.776,4.776,15,4.5,15z"/>
		</g>
		<g>
			<path d="M6.5,15C6.224,15,6,14.776,6,14.5v-1C6,13.224,6.224,13,6.5,13S7,13.224,7,13.5v1C7,14.776,6.776,15,6.5,15z"/>
		</g>
		<g>
			<path d="M8.5,15C8.224,15,8,14.776,8,14.5v-1C8,13.224,8.224,13,8.5,13S9,13.224,9,13.5v1C9,14.776,8.776,15,8.5,15z"/>
		</g>
		<g>
			<path d="M10.5,15c-0.276,0-0.5-0.224-0.5-0.5v-1c0-0.276,0.224-0.5,0.5-0.5s0.5,0.224,0.5,0.5v1C11,14.776,10.776,15,10.5,15z"/>
		</g>
		<g>
			<circle cx="2.5" cy="18.5" r="0.5"/>
		</g>
		<g>
			<circle cx="17.5" cy="18.5" r="0.5"/>
		</g>
		<g>
			<circle cx="14.5" cy="18.5" r="0.5"/>
		</g>
		<g>
			<circle cx="11.5" cy="18.5" r="0.5"/>
		</g>
		<g>
			<circle cx="8.5" cy="18.5" r="0.5"/>
		</g>
		<g>
			<circle cx="5.5" cy="18.5" r="0.5"/>
		</g>
		<g>
			<path d="M19.5,6C18.673,6,18,5.327,18,4.5S18.673,3,19.5,3S21,3.673,21,4.5S20.327,6,19.5,6z M19.5,4C19.225,4,19,4.225,19,4.5
				S19.225,5,19.5,5S20,4.775,20,4.5S19.775,4,19.5,4z"/>
		</g>
		<g>
			<path d="M16.5,12c-0.075,0-0.151-0.017-0.224-0.053c-0.247-0.124-0.347-0.424-0.224-0.671l3-6
				c0.124-0.246,0.424-0.347,0.671-0.224c0.247,0.124,0.347,0.424,0.224,0.671l-3,6C16.859,11.898,16.683,12,16.5,12z"/>
		</g>
		<g>
			<path d="M13.5,12c-0.106,0-0.214-0.034-0.305-0.104c-0.219-0.169-0.26-0.482-0.092-0.701l5-6.5
				c0.169-0.219,0.482-0.258,0.701-0.092c0.219,0.169,0.26,0.482,0.092,0.701l-5,6.5C13.798,11.933,13.649,12,13.5,12z"/>
		</g>
		<g>
			<path d="M23,8c-0.11,0-0.22-0.036-0.313-0.109l-2.5-2c-0.216-0.173-0.25-0.487-0.078-0.703c0.173-0.216,0.487-0.248,0.703-0.078
				l2.5,2c0.216,0.173,0.25,0.487,0.078,0.703C23.292,7.936,23.146,8,23,8z"/>
		</g>
		<g>
			<path d="M23,8.5c-0.552,0-1-0.448-1-1s0.448-1,1-1s1,0.448,1,1S23.552,8.5,23,8.5z M23,7.499L23,7.499L23.5,7.5L23,7.499z"/>
		</g>
		<g>
			<path d="M21.5,12c-0.059,0-0.118-0.01-0.176-0.032c-0.259-0.097-0.39-0.385-0.292-0.644l1.5-4
				c0.097-0.258,0.386-0.393,0.644-0.292c0.259,0.097,0.39,0.385,0.292,0.644l-1.5,4C21.893,11.876,21.702,12,21.5,12z"/>
		</g>
		<g>
			<path d="M22.5,14c-0.276,0-0.5-0.224-0.5-0.5v-1c0-0.275-0.225-0.5-0.5-0.5S21,12.225,21,12.5v1c0,0.276-0.224,0.5-0.5,0.5
				S20,13.776,20,13.5v-1c0-0.827,0.673-1.5,1.5-1.5s1.5,0.673,1.5,1.5v1C23,13.776,22.776,14,22.5,14z"/>
		</g>
		<g>
			<path d="M11.5,12h-6C5.224,12,5,11.776,5,11.5v-4C5,5.57,6.57,4,8.5,4S12,5.57,12,7.5v4C12,11.776,11.776,12,11.5,12z M6,11h5
				V7.5C11,6.121,9.879,5,8.5,5S6,6.121,6,7.5V11z"/>
		</g>
		<g>
			<path d="M7.5,8C7.224,8,7,7.776,7,7.5C7,6.673,7.673,6,8.5,6C8.776,6,9,6.224,9,6.5S8.776,7,8.5,7C8.225,7,8,7.225,8,7.5
				C8,7.776,7.776,8,7.5,8z"/>
		</g>
		<g>
			<path d="M11.5,8C11.224,8,11,7.776,11,7.5C11,6.121,9.879,5,8.5,5S6,6.121,6,7.5C6,7.776,5.776,8,5.5,8S5,7.776,5,7.5
				C5,5.57,6.57,4,8.5,4S12,5.57,12,7.5C12,7.776,11.776,8,11.5,8z"/>
		</g>
		<g>
			<path d="M3.5,12C3.224,12,3,11.776,3,11.5V6.618L2.053,4.724C1.93,4.477,2.029,4.177,2.276,4.053
				C2.523,3.93,2.823,4.029,2.947,4.276l1,2C3.981,6.346,4,6.423,4,6.5v5C4,11.776,3.776,12,3.5,12z"/>
		</g>
		<g>
			<path d="M2.5,5.5c-0.552,0-1-0.448-1-1s0.448-1,1-1s1,0.448,1,1S3.052,5.5,2.5,5.5z M2.5,4.499L2.5,4.499L3,4.5L2.5,4.499z"/>
		</g>
	</g>
</g>
<g id="Robot_Machine_2">
</g>
<g id="Artifical_Intelligence_1_1_">
</g>
<g id="Artifical_Intelligence_2">
</g>
<g id="Robot_4">
</g>
<g id="Robot_5">
</g>
<g id="Robot_6">
</g>
<g id="Robot_7">
</g>
<g id="Robot_8">
</g>
<g id="Robot_9">
</g>
<g id="Robot_10">
</g>
<g id="Robot_11">
</g>
<g id="Robot_12">
</g>
<g id="Robot_13">
</g>
</svg>
