<?xml version="1.0" encoding="iso-8859-1"?>
<!-- Generator: Adobe Illustrator 19.2.1, SVG Export Plug-In . SVG Version: 6.00 Build 0)  -->
<svg version="1.1" xmlns="http://www.w3.org/2000/svg" xmlns:xlink="http://www.w3.org/1999/xlink" x="0px" y="0px"
	 viewBox="0 0 24 24" style="enable-background:new 0 0 24 24;" xml:space="preserve">
<g id="Retro_Bot_1">
</g>
<g id="Retro_Bot_2">
</g>
<g id="Retro_Bot_3">
</g>
<g id="Retro_Bot_4">
</g>
<g id="Wall-E">
</g>
<g id="Eva">
</g>
<g id="Iron_Giant_1_">
</g>
<g id="Marvin_1_">
</g>
<g id="Atlas_1_">
</g>
<g id="Claptrap_1_">
</g>
<g id="Android_1_">
</g>
<g id="Bender_1_">
</g>
<g id="Roberto_1_">
</g>
<g id="Robot_Devil_1_">
</g>
<g id="Robocop_1_">
</g>
<g id="ED_209_1_">
</g>
<g id="Optimus_Prime_1_">
</g>
<g id="Robot_1">
</g>
<g id="Robot_2">
</g>
<g id="Robot_3">
</g>
<g id="Robot_Arm_1">
</g>
<g id="Robot_Arm_2">
</g>
<g id="Robot_Arm_3">
</g>
<g id="Robot_Arm_4">
</g>
<g id="Robot_Arm_5">
</g>
<g id="K5_Robot">
</g>
<g id="Robot_Machine_1_1_">
</g>
<g id="Robot_Machine_2">
</g>
<g id="Artifical_Intelligence_1_1_">
</g>
<g id="Artifical_Intelligence_2">
</g>
<g id="Robot_4">
</g>
<g id="Robot_5">
</g>
<g id="Robot_6">
</g>
<g id="Robot_7">
</g>
<g id="Robot_8">
</g>
<g id="Robot_9">
</g>
<g id="Robot_10">
</g>
<g id="Robot_11">
</g>
<g id="Robot_12">
</g>
<g id="Robot_13">
	<g>
		<g>
			<path d="M16.5,9h-10C6.224,9,6,8.776,6,8.5v-8C6,0.224,6.224,0,6.5,0h10C16.776,0,17,0.224,17,0.5v8C17,8.776,16.776,9,16.5,9z
				 M7,8h9V1H7V8z"/>
		</g>
		<g>
			<path d="M9.5,4.5c-0.552,0-1-0.448-1-1s0.448-1,1-1s1,0.448,1,1S10.052,4.5,9.5,4.5z M9.5,3.499L9.5,3.499L10,3.5L9.5,3.499z"/>
		</g>
		<g>
			<path d="M13.5,4.5c-0.552,0-1-0.448-1-1s0.448-1,1-1s1,0.448,1,1S14.052,4.5,13.5,4.5z M13.5,3.499L13.5,3.499L14,3.5L13.5,3.499
				z"/>
		</g>
		<g>
			<path d="M14.5,7h-6C8.224,7,8,6.776,8,6.5S8.224,6,8.5,6h6C14.776,6,15,6.224,15,6.5S14.776,7,14.5,7z"/>
		</g>
		<g>
			<path d="M17.5,24h-12C5.224,24,5,23.776,5,23.5v-15C5,8.224,5.224,8,5.5,8h12C17.776,8,18,8.224,18,8.5v15
				C18,23.776,17.776,24,17.5,24z M6,23h11V9H6V23z"/>
		</g>
		<g>
			<path d="M19.5,23h-2c-0.276,0-0.5-0.224-0.5-0.5v-12c0-0.276,0.224-0.5,0.5-0.5c1.93,0,3.5,1.57,3.5,3.5v8
				C21,22.327,20.327,23,19.5,23z M18,22h1.5c0.275,0,0.5-0.225,0.5-0.5v-8c0-1.207-0.86-2.218-2-2.45V22z"/>
		</g>
		<g>
			<path d="M5.5,23h-2C2.673,23,2,22.327,2,21.5v-8C2,11.57,3.57,10,5.5,10C5.776,10,6,10.224,6,10.5v12C6,22.776,5.776,23,5.5,23z
				 M5,11.05c-1.14,0.232-2,1.243-2,2.45v8C3,21.775,3.225,22,3.5,22H5V11.05z"/>
		</g>
		<g>
			<path d="M18.5,21h-1c-0.276,0-0.5-0.224-0.5-0.5s0.224-0.5,0.5-0.5h1c0.276,0,0.5,0.224,0.5,0.5S18.776,21,18.5,21z"/>
		</g>
		<g>
			<path d="M5.5,21h-1C4.224,21,4,20.776,4,20.5S4.224,20,4.5,20h1C5.776,20,6,20.224,6,20.5S5.776,21,5.5,21z"/>
		</g>
		<g>
			<path d="M11.5,21C9.019,21,7,18.981,7,16.5c0-1.584,0.861-3.069,2.248-3.877c0.237-0.141,0.544-0.06,0.684,0.18
				s0.059,0.545-0.18,0.684C8.655,14.126,8,15.252,8,16.5c0,1.93,1.57,3.5,3.5,3.5s3.5-1.57,3.5-3.5
				c0-1.248-0.655-2.374-1.752-3.014c-0.238-0.139-0.319-0.444-0.18-0.684c0.139-0.239,0.445-0.32,0.684-0.18
				C15.139,13.431,16,14.916,16,16.5C16,18.981,13.981,21,11.5,21z"/>
		</g>
		<g>
			<path d="M11.5,16c-0.276,0-0.5-0.224-0.5-0.5v-4c0-0.276,0.224-0.5,0.5-0.5s0.5,0.224,0.5,0.5v4C12,15.776,11.776,16,11.5,16z"/>
		</g>
	</g>
</g>
</svg>
