<?xml version="1.0" encoding="iso-8859-1"?>
<!-- Generator: Adobe Illustrator 19.2.1, SVG Export Plug-In . SVG Version: 6.00 Build 0)  -->
<svg version="1.1" xmlns="http://www.w3.org/2000/svg" xmlns:xlink="http://www.w3.org/1999/xlink" x="0px" y="0px"
	 viewBox="0 0 24 24" style="enable-background:new 0 0 24 24;" xml:space="preserve">
<g id="Retro_Bot_1">
</g>
<g id="Retro_Bot_2">
</g>
<g id="Retro_Bot_3">
</g>
<g id="Retro_Bot_4">
</g>
<g id="Wall-E">
</g>
<g id="Eva">
</g>
<g id="Iron_Giant_1_">
</g>
<g id="Marvin_1_">
</g>
<g id="Atlas_1_">
</g>
<g id="Claptrap_1_">
</g>
<g id="Android_1_">
</g>
<g id="Bender_1_">
</g>
<g id="Roberto_1_">
</g>
<g id="Robot_Devil_1_">
</g>
<g id="Robocop_1_">
</g>
<g id="ED_209_1_">
</g>
<g id="Optimus_Prime_1_">
</g>
<g id="Robot_1">
</g>
<g id="Robot_2">
</g>
<g id="Robot_3">
</g>
<g id="Robot_Arm_1">
</g>
<g id="Robot_Arm_2">
</g>
<g id="Robot_Arm_3">
</g>
<g id="Robot_Arm_4">
</g>
<g id="Robot_Arm_5">
</g>
<g id="K5_Robot">
</g>
<g id="Robot_Machine_1_1_">
</g>
<g id="Robot_Machine_2">
</g>
<g id="Artifical_Intelligence_1_1_">
</g>
<g id="Artifical_Intelligence_2">
</g>
<g id="Robot_4">
</g>
<g id="Robot_5">
</g>
<g id="Robot_6">
</g>
<g id="Robot_7">
	<g>
		<g>
			<path d="M11.5,18c-1.402,0-2.64-0.945-3.009-2.298l-2.474-9.07C5.977,6.481,6.008,6.32,6.103,6.196C6.197,6.072,6.344,6,6.5,6h10
				c0.156,0,0.303,0.072,0.397,0.196c0.094,0.124,0.126,0.285,0.085,0.436l-2.474,9.07C14.14,17.055,12.902,18,11.5,18z M7.155,7
				l2.301,8.438C9.707,16.358,10.547,17,11.5,17s1.793-0.642,2.044-1.562L15.845,7H7.155z"/>
		</g>
		<g>
			<path d="M15.5,6.5C15.224,6.5,15,6.276,15,6c0-1.93-1.57-3.5-3.5-3.5S8,4.07,8,6c0,0.276-0.224,0.5-0.5,0.5S7,6.276,7,6
				c0-2.481,2.019-4.5,4.5-4.5S16,3.519,16,6C16,6.276,15.776,6.5,15.5,6.5z"/>
		</g>
		<g>
			<path d="M10.5,5C10.224,5,10,4.776,10,4.5v-1C10,3.224,10.224,3,10.5,3S11,3.224,11,3.5v1C11,4.776,10.776,5,10.5,5z"/>
		</g>
		<g>
			<path d="M12.5,5C12.224,5,12,4.776,12,4.5v-1C12,3.224,12.224,3,12.5,3S13,3.224,13,3.5v1C13,4.776,12.776,5,12.5,5z"/>
		</g>
		<g>
			<path d="M11.5,2.5C11.224,2.5,11,2.276,11,2V0.5C11,0.224,11.224,0,11.5,0S12,0.224,12,0.5V2C12,2.276,11.776,2.5,11.5,2.5z"/>
		</g>
		<g>
			<path d="M12.5,1h-2C10.224,1,10,0.776,10,0.5S10.224,0,10.5,0h2C12.776,0,13,0.224,13,0.5S12.776,1,12.5,1z"/>
		</g>
		<g>
			<path d="M15.5,24h-1c-0.276,0-0.5-0.224-0.5-0.5v-5c0-0.578-0.323-1.095-0.842-1.349c-0.248-0.121-0.351-0.421-0.229-0.669
				c0.122-0.248,0.422-0.349,0.669-0.229C14.463,16.677,15,17.537,15,18.5V23h0.5c0.276,0,0.5,0.224,0.5,0.5S15.776,24,15.5,24z"/>
		</g>
		<g>
			<path d="M8.5,24h-1C7.224,24,7,23.776,7,23.5S7.224,23,7.5,23H8v-4.5c0-0.962,0.537-1.822,1.4-2.246
				c0.249-0.119,0.548-0.02,0.669,0.229c0.121,0.248,0.019,0.547-0.229,0.669C9.322,17.406,9,17.923,9,18.5v5
				C9,23.776,8.776,24,8.5,24z"/>
		</g>
		<g>
			<path d="M16,13h-1c-0.276,0-0.5-0.224-0.5-0.5S14.724,12,15,12h1c0.23,0,0.429-0.156,0.485-0.379l0.5-2
				c0.037-0.15,0.004-0.307-0.091-0.429C16.798,9.07,16.655,9,16.5,9H16c-0.276,0-0.5-0.224-0.5-0.5S15.724,8,16,8h0.5
				c0.465,0,0.896,0.21,1.182,0.577c0.287,0.366,0.386,0.835,0.273,1.286l-0.5,2C17.288,12.532,16.689,13,16,13z"/>
		</g>
		<g>
			<path d="M8,13H7c-0.689,0-1.288-0.468-1.455-1.137l-0.5-2c-0.113-0.451-0.014-0.92,0.273-1.286C5.604,8.21,6.035,8,6.5,8H7
				c0.276,0,0.5,0.224,0.5,0.5S7.276,9,7,9H6.5C6.345,9,6.202,9.07,6.106,9.192C6.011,9.314,5.978,9.471,6.015,9.621l0.5,2
				C6.571,11.844,6.771,12,7,12h1c0.276,0,0.5,0.224,0.5,0.5S8.276,13,8,13z"/>
		</g>
		<g>
			<path d="M18.5,16c-0.276,0-0.5-0.224-0.5-0.5v-4c0-0.275-0.224-0.5-0.5-0.5c-0.276,0-0.5-0.224-0.5-0.5s0.224-0.5,0.5-0.5
				c0.827,0,1.5,0.673,1.5,1.5v4C19,15.776,18.776,16,18.5,16z"/>
		</g>
		<g>
			<path d="M19.5,17c-0.276,0-0.5-0.224-0.5-0.5V16h-1v0.5c0,0.276-0.224,0.5-0.5,0.5S17,16.776,17,16.5v-1
				c0-0.276,0.224-0.5,0.5-0.5h2c0.276,0,0.5,0.224,0.5,0.5v1C20,16.776,19.776,17,19.5,17z"/>
		</g>
		<g>
			<path d="M4.5,16C4.224,16,4,15.776,4,15.5v-4C4,10.673,4.673,10,5.5,10C5.776,10,6,10.224,6,10.5S5.776,11,5.5,11
				C5.224,11,5,11.225,5,11.5v4C5,15.776,4.776,16,4.5,16z"/>
		</g>
		<g>
			<path d="M5.5,17C5.224,17,5,16.776,5,16.5V16H4v0.5C4,16.776,3.776,17,3.5,17S3,16.776,3,16.5v-1C3,15.224,3.224,15,3.5,15h2
				C5.776,15,6,15.224,6,15.5v1C6,16.776,5.776,17,5.5,17z"/>
		</g>
		<g>
			<path d="M11.5,18c-0.276,0-0.5-0.224-0.5-0.5v-11C11,6.224,11.224,6,11.5,6S12,6.224,12,6.5v11C12,17.776,11.776,18,11.5,18z"/>
		</g>
	</g>
</g>
<g id="Robot_8">
</g>
<g id="Robot_9">
</g>
<g id="Robot_10">
</g>
<g id="Robot_11">
</g>
<g id="Robot_12">
</g>
<g id="Robot_13">
</g>
</svg>
