<?xml version="1.0" encoding="iso-8859-1"?>
<!-- Generator: Adobe Illustrator 19.2.1, SVG Export Plug-In . SVG Version: 6.00 Build 0)  -->
<svg version="1.1" xmlns="http://www.w3.org/2000/svg" xmlns:xlink="http://www.w3.org/1999/xlink" x="0px" y="0px"
	 viewBox="0 0 24 24" style="enable-background:new 0 0 24 24;" xml:space="preserve">
<g id="Retro_Bot_1">
</g>
<g id="Retro_Bot_2">
</g>
<g id="Retro_Bot_3">
</g>
<g id="Retro_Bot_4">
</g>
<g id="Wall-E">
</g>
<g id="Eva">
</g>
<g id="Iron_Giant_1_">
</g>
<g id="Marvin_1_">
</g>
<g id="Atlas_1_">
</g>
<g id="Claptrap_1_">
</g>
<g id="Android_1_">
</g>
<g id="Bender_1_">
</g>
<g id="Roberto_1_">
</g>
<g id="Robot_Devil_1_">
</g>
<g id="Robocop_1_">
</g>
<g id="ED_209_1_">
</g>
<g id="Optimus_Prime_1_">
</g>
<g id="Robot_1">
</g>
<g id="Robot_2">
</g>
<g id="Robot_3">
</g>
<g id="Robot_Arm_1">
</g>
<g id="Robot_Arm_2">
</g>
<g id="Robot_Arm_3">
</g>
<g id="Robot_Arm_4">
</g>
<g id="Robot_Arm_5">
</g>
<g id="K5_Robot">
</g>
<g id="Robot_Machine_1_1_">
</g>
<g id="Robot_Machine_2">
</g>
<g id="Artifical_Intelligence_1_1_">
</g>
<g id="Artifical_Intelligence_2">
</g>
<g id="Robot_4">
</g>
<g id="Robot_5">
</g>
<g id="Robot_6">
</g>
<g id="Robot_7">
</g>
<g id="Robot_8">
</g>
<g id="Robot_9">
</g>
<g id="Robot_10">
</g>
<g id="Robot_11">
</g>
<g id="Robot_12">
	<g>
		<g>
			<path d="M8.5,24h-3C4.673,24,4,23.327,4,22.5v-4C4,17.673,4.673,17,5.5,17h3c0.827,0,1.5,0.673,1.5,1.5v4
				C10,23.327,9.327,24,8.5,24z M5.5,18C5.225,18,5,18.225,5,18.5v4C5,22.775,5.225,23,5.5,23h3C8.775,23,9,22.775,9,22.5v-4
				C9,18.225,8.775,18,8.5,18H5.5z"/>
		</g>
		<g>
			<path d="M17.5,24h-3c-0.827,0-1.5-0.673-1.5-1.5v-4c0-0.827,0.673-1.5,1.5-1.5h3c0.827,0,1.5,0.673,1.5,1.5v4
				C19,23.327,18.327,24,17.5,24z M14.5,18c-0.275,0-0.5,0.225-0.5,0.5v4c0,0.275,0.225,0.5,0.5,0.5h3c0.275,0,0.5-0.225,0.5-0.5v-4
				c0-0.275-0.225-0.5-0.5-0.5H14.5z"/>
		</g>
		<g>
			<path d="M7.5,20h-1C6.224,20,6,19.776,6,19.5S6.224,19,6.5,19h1C7.776,19,8,19.224,8,19.5S7.776,20,7.5,20z"/>
		</g>
		<g>
			<path d="M7.5,22h-1C6.224,22,6,21.776,6,21.5S6.224,21,6.5,21h1C7.776,21,8,21.224,8,21.5S7.776,22,7.5,22z"/>
		</g>
		<g>
			<path d="M16.5,20h-1c-0.276,0-0.5-0.224-0.5-0.5s0.224-0.5,0.5-0.5h1c0.276,0,0.5,0.224,0.5,0.5S16.776,20,16.5,20z"/>
		</g>
		<g>
			<path d="M16.5,22h-1c-0.276,0-0.5-0.224-0.5-0.5s0.224-0.5,0.5-0.5h1c0.276,0,0.5,0.224,0.5,0.5S16.776,22,16.5,22z"/>
		</g>
		<g>
			<path d="M11.5,22c-0.827,0-1.5-0.673-1.5-1.5s0.673-1.5,1.5-1.5s1.5,0.673,1.5,1.5S12.327,22,11.5,22z M11.5,20
				c-0.275,0-0.5,0.225-0.5,0.5s0.225,0.5,0.5,0.5s0.5-0.225,0.5-0.5S11.775,20,11.5,20z"/>
		</g>
		<g>
			<path d="M11.5,20c-0.276,0-0.5-0.224-0.5-0.5v-2c0-0.276,0.224-0.5,0.5-0.5s0.5,0.224,0.5,0.5v2C12,19.776,11.776,20,11.5,20z"/>
		</g>
		<g>
			<path d="M11.685,18h-0.369c-0.211,0-0.4-0.133-0.471-0.332C10.488,16.67,9.547,16,8.5,16C7.673,16,7,15.327,7,14.5v-7
				C7,6.673,7.673,6,8.5,6h6C15.327,6,16,6.673,16,7.5v7c0,0.827-0.673,1.5-1.5,1.5c-1.047,0-1.988,0.67-2.345,1.668
				C12.085,17.867,11.896,18,11.685,18z M8.5,7C8.225,7,8,7.225,8,7.5v7C8,14.775,8.225,15,8.5,15c1.242,0,2.378,0.671,3,1.721
				c0.622-1.05,1.758-1.721,3-1.721c0.275,0,0.5-0.225,0.5-0.5v-7C15,7.225,14.775,7,14.5,7H8.5z"/>
		</g>
		<g>
			<path d="M10.5,21h-1C9.224,21,9,20.776,9,20.5S9.224,20,9.5,20h1c0.276,0,0.5,0.224,0.5,0.5S10.776,21,10.5,21z"/>
		</g>
		<g>
			<path d="M13.5,21h-1c-0.276,0-0.5-0.224-0.5-0.5s0.224-0.5,0.5-0.5h1c0.276,0,0.5,0.224,0.5,0.5S13.776,21,13.5,21z"/>
		</g>
		<g>
			<path d="M13.5,7h-4C9.224,7,9,6.776,9,6.5v-6C9,0.224,9.224,0,9.5,0h4C13.776,0,14,0.224,14,0.5v6C14,6.776,13.776,7,13.5,7z
				 M10,6h3V1h-3V6z"/>
		</g>
		<g>
			<path d="M17.979,15.139c-0.147,0-0.293-0.065-0.393-0.189c-0.171-0.217-0.134-0.531,0.082-0.703C18.515,13.577,19,12.576,19,11.5
				C19,9.57,17.43,8,15.5,8C15.224,8,15,7.776,15,7.5S15.224,7,15.5,7c2.481,0,4.5,2.019,4.5,4.5c0,1.384-0.623,2.671-1.71,3.531
				C18.198,15.104,18.089,15.139,17.979,15.139z"/>
		</g>
		<g>
			<path d="M17.5,15.5c-0.552,0-1-0.448-1-1s0.448-1,1-1s1,0.448,1,1S18.052,15.5,17.5,15.5z M17.5,14.499L17.5,14.499L18,14.5
				L17.5,14.499z"/>
		</g>
		<g>
			<path d="M5.021,15.139c-0.109,0-0.219-0.035-0.311-0.107C3.623,14.171,3,12.884,3,11.5C3,9.019,5.019,7,7.5,7
				C7.776,7,8,7.224,8,7.5S7.776,8,7.5,8C5.57,8,4,9.57,4,11.5c0,1.076,0.485,2.077,1.331,2.746
				c0.216,0.172,0.253,0.486,0.082,0.703C5.313,15.073,5.168,15.139,5.021,15.139z"/>
		</g>
		<g>
			<path d="M5.5,15.5c-0.552,0-1-0.448-1-1s0.448-1,1-1s1,0.448,1,1S6.052,15.5,5.5,15.5z M5.5,14.5H5H5.5L5.5,14.5z"/>
		</g>
		<g>
			<path d="M13.5,3h-4C9.224,3,9,2.776,9,2.5S9.224,2,9.5,2h4C13.776,2,14,2.224,14,2.5S13.776,3,13.5,3z"/>
		</g>
		<g>
			<path d="M11.5,5C11.224,5,11,4.776,11,4.5v-2C11,2.224,11.224,2,11.5,2S12,2.224,12,2.5v2C12,4.776,11.776,5,11.5,5z"/>
		</g>
		<g>
			<circle cx="9.5" cy="9.5" r="0.5"/>
		</g>
		<g>
			<circle cx="9.5" cy="11.5" r="0.5"/>
		</g>
		<g>
			<path d="M13.5,12h-2c-0.276,0-0.5-0.224-0.5-0.5s0.224-0.5,0.5-0.5H13v-1h-1.5C11.224,10,11,9.776,11,9.5S11.224,9,11.5,9h2
				C13.776,9,14,9.224,14,9.5v2C14,11.776,13.776,12,13.5,12z"/>
		</g>
		<g>
			<path d="M13.5,14h-4C9.224,14,9,13.776,9,13.5S9.224,13,9.5,13h4c0.276,0,0.5,0.224,0.5,0.5S13.776,14,13.5,14z"/>
		</g>
	</g>
</g>
<g id="Robot_13">
</g>
</svg>
