<?xml version="1.0" encoding="iso-8859-1"?>
<!-- Generator: Adobe Illustrator 19.2.1, SVG Export Plug-In . SVG Version: 6.00 Build 0)  -->
<svg version="1.1" xmlns="http://www.w3.org/2000/svg" xmlns:xlink="http://www.w3.org/1999/xlink" x="0px" y="0px"
	 viewBox="0 0 24 24" style="enable-background:new 0 0 24 24;" xml:space="preserve">
<g id="Retro_Bot_1">
</g>
<g id="Retro_Bot_2">
</g>
<g id="Retro_Bot_3">
</g>
<g id="Retro_Bot_4">
</g>
<g id="Wall-E">
</g>
<g id="Eva">
</g>
<g id="Iron_Giant_1_">
</g>
<g id="Marvin_1_">
</g>
<g id="Atlas_1_">
</g>
<g id="Claptrap_1_">
</g>
<g id="Android_1_">
</g>
<g id="Bender_1_">
</g>
<g id="Roberto_1_">
</g>
<g id="Robot_Devil_1_">
</g>
<g id="Robocop_1_">
</g>
<g id="ED_209_1_">
</g>
<g id="Optimus_Prime_1_">
</g>
<g id="Robot_1">
</g>
<g id="Robot_2">
</g>
<g id="Robot_3">
</g>
<g id="Robot_Arm_1">
</g>
<g id="Robot_Arm_2">
</g>
<g id="Robot_Arm_3">
</g>
<g id="Robot_Arm_4">
</g>
<g id="Robot_Arm_5">
</g>
<g id="K5_Robot">
</g>
<g id="Robot_Machine_1_1_">
</g>
<g id="Robot_Machine_2">
</g>
<g id="Artifical_Intelligence_1_1_">
</g>
<g id="Artifical_Intelligence_2">
</g>
<g id="Robot_4">
</g>
<g id="Robot_5">
</g>
<g id="Robot_6">
</g>
<g id="Robot_7">
</g>
<g id="Robot_8">
</g>
<g id="Robot_9">
</g>
<g id="Robot_10">
	<g>
		<g>
			<path d="M18.5,24h-13C4.673,24,4,23.327,4,22.5V8c0-4.411,3.589-8,8-8s8,3.589,8,8v14.5C20,23.327,19.327,24,18.5,24z M12,1
				C8.141,1,5,4.141,5,8v14.5C5,22.775,5.225,23,5.5,23h13c0.275,0,0.5-0.225,0.5-0.5V8C19,4.141,15.859,1,12,1z"/>
		</g>
		<g>
			<path d="M17.5,9h-11C6.224,9,6,8.776,6,8.5S6.224,8,6.5,8h11C17.776,8,18,8.224,18,8.5S17.776,9,17.5,9z"/>
		</g>
		<g>
			<path d="M17.5,13h-11C6.224,13,6,12.776,6,12.5S6.224,12,6.5,12h11c0.276,0,0.5,0.224,0.5,0.5S17.776,13,17.5,13z"/>
		</g>
		<g>
			<path d="M10.5,13h-2C8.224,13,8,12.776,8,12.5v-4C8,8.224,8.224,8,8.5,8h2C10.776,8,11,8.224,11,8.5v4
				C11,12.776,10.776,13,10.5,13z M9,12h1V9H9V12z"/>
		</g>
		<g>
			<path d="M15.5,13h-2c-0.276,0-0.5-0.224-0.5-0.5v-4C13,8.224,13.224,8,13.5,8h2C15.776,8,16,8.224,16,8.5v4
				C16,12.776,15.776,13,15.5,13z M14,12h1V9h-1V12z"/>
		</g>
		<g>
			<path d="M16.953,3H7.016c-0.276,0-0.5-0.224-0.5-0.5S6.739,2,7.016,2h9.938c0.276,0,0.5,0.224,0.5,0.5S17.229,3,16.953,3z"/>
		</g>
		<g>
			<path d="M9.5,19C9.224,19,9,18.776,9,18.5v-1C9,17.224,9.224,17,9.5,17s0.5,0.224,0.5,0.5v1C10,18.776,9.776,19,9.5,19z"/>
		</g>
		<g>
			<path d="M11.5,20c-0.276,0-0.5-0.224-0.5-0.5v-3c0-0.276,0.224-0.5,0.5-0.5s0.5,0.224,0.5,0.5v3C12,19.776,11.776,20,11.5,20z"/>
		</g>
		<g>
			<path d="M13.5,20c-0.276,0-0.5-0.224-0.5-0.5v-3c0-0.276,0.224-0.5,0.5-0.5s0.5,0.224,0.5,0.5v3C14,19.776,13.776,20,13.5,20z"/>
		</g>
		<g>
			<path d="M15.5,19c-0.276,0-0.5-0.224-0.5-0.5v-1c0-0.276,0.224-0.5,0.5-0.5s0.5,0.224,0.5,0.5v1C16,18.776,15.776,19,15.5,19z"/>
		</g>
	</g>
</g>
<g id="Robot_11">
</g>
<g id="Robot_12">
</g>
<g id="Robot_13">
</g>
</svg>
