<?xml version="1.0" encoding="iso-8859-1"?>
<!-- Generator: Adobe Illustrator 19.2.1, SVG Export Plug-In . SVG Version: 6.00 Build 0)  -->
<svg version="1.1" xmlns="http://www.w3.org/2000/svg" xmlns:xlink="http://www.w3.org/1999/xlink" x="0px" y="0px"
	 viewBox="0 0 24 24" style="enable-background:new 0 0 24 24;" xml:space="preserve">
<g id="Retro_Bot_1">
</g>
<g id="Retro_Bot_2">
</g>
<g id="Retro_Bot_3">
</g>
<g id="Retro_Bot_4">
</g>
<g id="Wall-E">
</g>
<g id="Eva">
</g>
<g id="Iron_Giant_1_">
</g>
<g id="Marvin_1_">
</g>
<g id="Atlas_1_">
</g>
<g id="Claptrap_1_">
</g>
<g id="Android_1_">
</g>
<g id="Bender_1_">
</g>
<g id="Roberto_1_">
</g>
<g id="Robot_Devil_1_">
</g>
<g id="Robocop_1_">
</g>
<g id="ED_209_1_">
</g>
<g id="Optimus_Prime_1_">
</g>
<g id="Robot_1">
</g>
<g id="Robot_2">
</g>
<g id="Robot_3">
</g>
<g id="Robot_Arm_1">
</g>
<g id="Robot_Arm_2">
</g>
<g id="Robot_Arm_3">
</g>
<g id="Robot_Arm_4">
</g>
<g id="Robot_Arm_5">
</g>
<g id="K5_Robot">
</g>
<g id="Robot_Machine_1_1_">
</g>
<g id="Robot_Machine_2">
</g>
<g id="Artifical_Intelligence_1_1_">
</g>
<g id="Artifical_Intelligence_2">
</g>
<g id="Robot_4">
</g>
<g id="Robot_5">
</g>
<g id="Robot_6">
</g>
<g id="Robot_7">
</g>
<g id="Robot_8">
</g>
<g id="Robot_9">
</g>
<g id="Robot_10">
</g>
<g id="Robot_11">
	<g>
		<g>
			<path d="M18.5,11.833c-0.276,0-0.5-0.224-0.5-0.5C18,5.636,15.084,1,11.5,1S5,5.636,5,11.333c0,0.276-0.224,0.5-0.5,0.5
				S4,11.609,4,11.333C4,5.084,7.364,0,11.5,0S19,5.084,19,11.333C19,11.609,18.776,11.833,18.5,11.833z"/>
		</g>
		<g>
			<path d="M12.5,10h-2C9.121,10,8,8.879,8,7.5v-2C8,4.121,9.121,3,10.5,3h2C13.879,3,15,4.121,15,5.5v2C15,8.879,13.879,10,12.5,10
				z M10.5,4C9.673,4,9,4.673,9,5.5v2C9,8.327,9.673,9,10.5,9h2C13.327,9,14,8.327,14,7.5v-2C14,4.673,13.327,4,12.5,4H10.5z"/>
		</g>
		<g>
			<path d="M11.5,8C10.673,8,10,7.327,10,6.5S10.673,5,11.5,5S13,5.673,13,6.5S12.327,8,11.5,8z M11.5,6C11.225,6,11,6.225,11,6.5
				S11.225,7,11.5,7S12,6.775,12,6.5S11.775,6,11.5,6z"/>
		</g>
		<g>
			<path d="M19.5,14h-16C3.224,14,3,13.776,3,13.5v-2C3,11.224,3.224,11,3.5,11h16c0.276,0,0.5,0.224,0.5,0.5v2
				C20,13.776,19.776,14,19.5,14z M4,13h15v-1H4V13z"/>
		</g>
		<g>
			<path d="M14.5,22h-6c-0.229,0-0.43-0.156-0.485-0.379l-2-8c-0.037-0.149-0.004-0.308,0.091-0.429S6.346,13,6.5,13h10
				c0.154,0,0.3,0.071,0.395,0.192s0.128,0.279,0.091,0.429l-2,8C14.93,21.844,14.729,22,14.5,22z M8.891,21h5.219l1.75-7H7.141
				L8.891,21z"/>
		</g>
		<g>
			<path d="M11.5,24C10.121,24,9,22.879,9,21.5C9,21.224,9.224,21,9.5,21h4c0.276,0,0.5,0.224,0.5,0.5C14,22.879,12.879,24,11.5,24z
				 M10.086,22c0.206,0.582,0.762,1,1.414,1s1.208-0.418,1.414-1H10.086z"/>
		</g>
		<g>
			<path d="M9.5,20H8c-0.276,0-0.5-0.224-0.5-0.5S7.724,19,8,19h1.5c0.276,0,0.5,0.224,0.5,0.5S9.776,20,9.5,20z"/>
		</g>
		<g>
			<path d="M15,20h-1.5c-0.276,0-0.5-0.224-0.5-0.5s0.224-0.5,0.5-0.5H15c0.276,0,0.5,0.224,0.5,0.5S15.276,20,15,20z"/>
		</g>
		<g>
			<path d="M17.5,20c-0.276,0-0.5-0.224-0.5-0.5v-6c0-0.276,0.224-0.5,0.5-0.5s0.5,0.224,0.5,0.5v6C18,19.776,17.776,20,17.5,20z"/>
		</g>
		<g>
			<path d="M5.5,20C5.224,20,5,19.776,5,19.5v-6C5,13.224,5.224,13,5.5,13S6,13.224,6,13.5v6C6,19.776,5.776,20,5.5,20z"/>
		</g>
		<g>
			<path d="M6.5,22c-0.183,0-0.359-0.102-0.447-0.276L5.5,20.618l-0.553,1.105c-0.123,0.247-0.423,0.35-0.671,0.224
				c-0.247-0.124-0.347-0.424-0.224-0.671l1-2c0.17-0.338,0.725-0.338,0.895,0l1,2c0.123,0.247,0.023,0.547-0.224,0.671
				C6.651,21.983,6.575,22,6.5,22z"/>
		</g>
		<g>
			<path d="M18.5,22c-0.183,0-0.359-0.102-0.447-0.276L17.5,20.618l-0.553,1.105c-0.123,0.247-0.423,0.35-0.671,0.224
				c-0.247-0.124-0.347-0.424-0.224-0.671l1-2c0.17-0.338,0.725-0.338,0.895,0l1,2c0.123,0.247,0.023,0.547-0.224,0.671
				C18.651,21.983,18.575,22,18.5,22z"/>
		</g>
	</g>
</g>
<g id="Robot_12">
</g>
<g id="Robot_13">
</g>
</svg>
