<?xml version="1.0" encoding="iso-8859-1"?>
<!-- Generator: Adobe Illustrator 19.2.1, SVG Export Plug-In . SVG Version: 6.00 Build 0)  -->
<svg version="1.1" xmlns="http://www.w3.org/2000/svg" xmlns:xlink="http://www.w3.org/1999/xlink" x="0px" y="0px"
	 viewBox="0 0 24 24" style="enable-background:new 0 0 24 24;" xml:space="preserve">
<g id="Retro_Bot_1">
</g>
<g id="Retro_Bot_2">
</g>
<g id="Retro_Bot_3">
</g>
<g id="Retro_Bot_4">
</g>
<g id="Wall-E">
</g>
<g id="Eva">
</g>
<g id="Iron_Giant_1_">
</g>
<g id="Marvin_1_">
</g>
<g id="Atlas_1_">
</g>
<g id="Claptrap_1_">
</g>
<g id="Android_1_">
</g>
<g id="Bender_1_">
</g>
<g id="Roberto_1_">
</g>
<g id="Robot_Devil_1_">
</g>
<g id="Robocop_1_">
	<g id="Robocop">
		<g>
			<line style="fill:none;" x1="20.407" y1="10.265" x2="20.406" y2="10.266"/>
		</g>
		<g>
			<path d="M15.901,24H8.099c-1.728,0-3.217-1.29-3.464-3.001L3.099,10.337C2.944,9.306,2.97,8.245,3.177,7.188
				c0.744-3.795,3.972-6.73,7.852-7.137c2.594-0.271,5.073,0.531,6.992,2.259C19.914,4.016,21,6.454,21,9
				c0,0.449-0.033,0.899-0.099,1.338c-0.001,0.005-0.002,0.011-0.003,0.016l-1.533,10.645C19.119,22.71,17.629,24,15.901,24z
				 M12.01,1c-0.29,0-0.583,0.015-0.877,0.046C7.687,1.407,4.818,4.012,4.159,7.38c-0.185,0.944-0.208,1.89-0.07,2.811l1.536,10.665
				C5.8,22.079,6.864,23,8.099,23h7.803c1.234,0,2.298-0.921,2.474-2.144l1.536-10.662c0.001-0.007,0.002-0.014,0.003-0.021
				C19.971,9.789,20,9.394,20,9c0-2.263-0.965-4.431-2.648-5.946C15.863,1.713,13.993,1,12.01,1z"/>
		</g>
		<g>
			<path d="M15.5,22c-0.86,0-1.446-0.292-1.962-0.55C13.055,21.208,12.637,21,12,21c-0.349,0-0.742,0.177-1.198,0.382
				C10.159,21.672,9.431,22,8.5,22c-2.116,0-2.659-5.715-2.775-7.467c-0.018-0.276,0.19-0.514,0.466-0.532
				c0.27-0.006,0.514,0.19,0.532,0.466C6.954,17.947,7.785,21,8.5,21c0.716,0,1.313-0.269,1.891-0.529
				C10.929,20.229,11.437,20,12,20c0.873,0,1.463,0.295,1.984,0.555C14.463,20.794,14.876,21,15.5,21
				c0.691,0,1.538-3.115,1.777-6.535c0.019-0.275,0.265-0.482,0.533-0.464c0.276,0.02,0.483,0.258,0.464,0.534
				C18.152,16.286,17.59,22,15.5,22z"/>
		</g>
		<g>
			<path d="M15.901,24H8.099c-1.728,0-3.217-1.29-3.464-3.001L3.099,10.337C3.06,10.063,3.249,9.81,3.522,9.771
				c0.274-0.043,0.527,0.151,0.566,0.424l1.536,10.662C5.8,22.079,6.864,23,8.099,23h7.803c1.234,0,2.298-0.921,2.474-2.144
				l1.536-10.662l0.991,0.142l-1.536,10.663C19.119,22.71,17.629,24,15.901,24z"/>
		</g>
		<g>
			<path d="M19.796,15H4.204c-0.276,0-0.5-0.224-0.5-0.5s0.224-0.5,0.5-0.5h15.593c0.276,0,0.5,0.224,0.5,0.5S20.073,15,19.796,15z"
				/>
		</g>
		<g>
			<path d="M16.5,13h-9C6.673,13,6,12.327,6,11.5S6.673,10,7.5,10h9c0.827,0,1.5,0.673,1.5,1.5S17.327,13,16.5,13z M7.5,11
				C7.224,11,7,11.224,7,11.5S7.224,12,7.5,12h9c0.276,0,0.5-0.224,0.5-0.5S16.776,11,16.5,11H7.5z"/>
		</g>
		<g>
			<path d="M20.5,9h-17C3.224,9,3,8.776,3,8.5S3.224,8,3.5,8h17C20.776,8,21,8.224,21,8.5S20.776,9,20.5,9z"/>
		</g>
		<g>
			<path d="M10.5,19c-0.184,0-0.361-0.102-0.448-0.277c-0.123-0.248-0.022-0.547,0.225-0.67c0.745-0.37,1.338-0.309,1.72-0.141
				c0.384-0.173,0.985-0.241,1.731,0.144c0.245,0.126,0.342,0.428,0.215,0.673c-0.126,0.246-0.428,0.344-0.673,0.215
				c-0.618-0.317-0.899-0.105-0.93-0.079c-0.199,0.168-0.514,0.172-0.697-0.014l0,0c-0.002,0-0.288-0.219-0.922,0.096
				C10.651,18.983,10.575,19,10.5,19z"/>
		</g>
		<g>
			<path d="M15.5,18c-0.276,0-0.5-0.224-0.5-0.5c0-0.639-0.581-2.042-0.947-2.777c-0.124-0.247-0.023-0.547,0.224-0.67
				c0.249-0.124,0.548-0.022,0.67,0.224C15.055,14.493,16,16.419,16,17.5C16,17.776,15.776,18,15.5,18z"/>
		</g>
		<g>
			<path d="M8.5,18C8.224,18,8,17.776,8,17.5c0-1.081,0.945-3.007,1.053-3.223c0.124-0.247,0.423-0.348,0.67-0.224
				c0.247,0.123,0.348,0.423,0.225,0.67C9.684,15.252,9,16.782,9,17.5C9,17.776,8.776,18,8.5,18z"/>
		</g>
	</g>
</g>
<g id="ED_209_1_">
</g>
<g id="Optimus_Prime_1_">
</g>
<g id="Robot_1">
</g>
<g id="Robot_2">
</g>
<g id="Robot_3">
</g>
<g id="Robot_Arm_1">
</g>
<g id="Robot_Arm_2">
</g>
<g id="Robot_Arm_3">
</g>
<g id="Robot_Arm_4">
</g>
<g id="Robot_Arm_5">
</g>
<g id="K5_Robot">
</g>
<g id="Robot_Machine_1_1_">
</g>
<g id="Robot_Machine_2">
</g>
<g id="Artifical_Intelligence_1_1_">
</g>
<g id="Artifical_Intelligence_2">
</g>
<g id="Robot_4">
</g>
<g id="Robot_5">
</g>
<g id="Robot_6">
</g>
<g id="Robot_7">
</g>
<g id="Robot_8">
</g>
<g id="Robot_9">
</g>
<g id="Robot_10">
</g>
<g id="Robot_11">
</g>
<g id="Robot_12">
</g>
<g id="Robot_13">
</g>
</svg>
