<?xml version="1.0" encoding="iso-8859-1"?>
<!-- Generator: Adobe Illustrator 19.2.1, SVG Export Plug-In . SVG Version: 6.00 Build 0)  -->
<svg version="1.1" xmlns="http://www.w3.org/2000/svg" xmlns:xlink="http://www.w3.org/1999/xlink" x="0px" y="0px"
	 viewBox="0 0 24 24" style="enable-background:new 0 0 24 24;" xml:space="preserve">
<g id="Retro_Bot_1">
</g>
<g id="Retro_Bot_2">
</g>
<g id="Retro_Bot_3">
</g>
<g id="Retro_Bot_4">
</g>
<g id="Wall-E">
</g>
<g id="Eva">
</g>
<g id="Iron_Giant_1_">
</g>
<g id="Marvin_1_">
</g>
<g id="Atlas_1_">
</g>
<g id="Claptrap_1_">
</g>
<g id="Android_1_">
</g>
<g id="Bender_1_">
</g>
<g id="Roberto_1_">
</g>
<g id="Robot_Devil_1_">
</g>
<g id="Robocop_1_">
</g>
<g id="ED_209_1_">
</g>
<g id="Optimus_Prime_1_">
</g>
<g id="Robot_1">
</g>
<g id="Robot_2">
</g>
<g id="Robot_3">
</g>
<g id="Robot_Arm_1">
</g>
<g id="Robot_Arm_2">
</g>
<g id="Robot_Arm_3">
</g>
<g id="Robot_Arm_4">
</g>
<g id="Robot_Arm_5">
	<g>
		<g>
			<path d="M22.5,24h-22C0.224,24,0,23.776,0,23.5v-20C0,3.224,0.224,3,0.5,3S1,3.224,1,3.5V23h21V3.5C22,3.224,22.224,3,22.5,3
				S23,3.224,23,3.5v20C23,23.776,22.776,24,22.5,24z"/>
		</g>
		<g>
			<path d="M14.5,13h-6C8.224,13,8,12.776,8,12.5v-9C8,2.673,8.673,2,9.5,2h4C14.327,2,15,2.673,15,3.5v9
				C15,12.776,14.776,13,14.5,13z M9,12h5V3.5C14,3.225,13.776,3,13.5,3h-4C9.224,3,9,3.225,9,3.5V12z"/>
		</g>
		<g>
			<path d="M16.5,24h-10C6.224,24,6,23.776,6,23.5v-3C6,20.224,6.224,20,6.5,20h10c0.276,0,0.5,0.224,0.5,0.5v3
				C17,23.776,16.776,24,16.5,24z M7,23h9v-2H7V23z"/>
		</g>
		<g>
			<path d="M12.5,17h-2C9.673,17,9,16.327,9,15.5v-3C9,12.224,9.224,12,9.5,12h4c0.276,0,0.5,0.224,0.5,0.5v3
				C14,16.327,13.327,17,12.5,17z M10,13v2.5c0,0.275,0.224,0.5,0.5,0.5h2c0.276,0,0.5-0.225,0.5-0.5V13H10z"/>
		</g>
		<g>
			<path d="M11.5,19c-0.276,0-0.5-0.224-0.5-0.5v-2c0-0.276,0.224-0.5,0.5-0.5s0.5,0.224,0.5,0.5v2C12,18.776,11.776,19,11.5,19z"/>
		</g>
		<g>
			<path d="M13.5,3h-4C9.224,3,9,2.776,9,2.5C9,1.121,10.122,0,11.5,0S14,1.121,14,2.5C14,2.776,13.776,3,13.5,3z M10.085,2h2.829
				c-0.207-0.582-0.763-1-1.415-1S10.292,1.418,10.085,2z"/>
		</g>
		<g>
			<path d="M22.5,7h-8C14.224,7,14,6.776,14,6.5v-3C14,3.224,14.224,3,14.5,3h8C22.776,3,23,3.224,23,3.5v3
				C23,6.776,22.776,7,22.5,7z M15,6h7V4h-7V6z"/>
		</g>
		<g>
			<path d="M8.5,7h-8C0.224,7,0,6.776,0,6.5v-3C0,3.224,0.224,3,0.5,3h8C8.776,3,9,3.224,9,3.5v3C9,6.776,8.776,7,8.5,7z M1,6h7V4H1
				V6z"/>
		</g>
		<g>
			<path d="M2.5,5C2.224,5,2,4.776,2,4.5v-1C2,3.224,2.224,3,2.5,3S3,3.224,3,3.5v1C3,4.776,2.776,5,2.5,5z"/>
		</g>
		<g>
			<path d="M4.5,5C4.224,5,4,4.776,4,4.5v-1C4,3.224,4.224,3,4.5,3S5,3.224,5,3.5v1C5,4.776,4.776,5,4.5,5z"/>
		</g>
		<g>
			<path d="M6.5,5C6.224,5,6,4.776,6,4.5v-1C6,3.224,6.224,3,6.5,3S7,3.224,7,3.5v1C7,4.776,6.776,5,6.5,5z"/>
		</g>
		<g>
			<path d="M16.5,5C16.224,5,16,4.776,16,4.5v-1C16,3.224,16.224,3,16.5,3S17,3.224,17,3.5v1C17,4.776,16.776,5,16.5,5z"/>
		</g>
		<g>
			<path d="M18.5,5C18.224,5,18,4.776,18,4.5v-1C18,3.224,18.224,3,18.5,3S19,3.224,19,3.5v1C19,4.776,18.776,5,18.5,5z"/>
		</g>
		<g>
			<path d="M20.5,5C20.224,5,20,4.776,20,4.5v-1C20,3.224,20.224,3,20.5,3S21,3.224,21,3.5v1C21,4.776,20.776,5,20.5,5z"/>
		</g>
		<g>
			<path d="M12.5,5h-2C10.224,5,10,4.776,10,4.5S10.224,4,10.5,4h2C12.776,4,13,4.224,13,4.5S12.776,5,12.5,5z"/>
		</g>
		<g>
			<path d="M12.5,7h-2C10.224,7,10,6.776,10,6.5S10.224,6,10.5,6h2C12.776,6,13,6.224,13,6.5S12.776,7,12.5,7z"/>
		</g>
		<g>
			<path d="M12.5,9h-2C10.224,9,10,8.776,10,8.5S10.224,8,10.5,8h2C12.776,8,13,8.224,13,8.5S12.776,9,12.5,9z"/>
		</g>
		<g>
			<path d="M12.5,11h-2c-0.276,0-0.5-0.224-0.5-0.5s0.224-0.5,0.5-0.5h2c0.276,0,0.5,0.224,0.5,0.5S12.776,11,12.5,11z"/>
		</g>
	</g>
</g>
<g id="K5_Robot">
</g>
<g id="Robot_Machine_1_1_">
</g>
<g id="Robot_Machine_2">
</g>
<g id="Artifical_Intelligence_1_1_">
</g>
<g id="Artifical_Intelligence_2">
</g>
<g id="Robot_4">
</g>
<g id="Robot_5">
</g>
<g id="Robot_6">
</g>
<g id="Robot_7">
</g>
<g id="Robot_8">
</g>
<g id="Robot_9">
</g>
<g id="Robot_10">
</g>
<g id="Robot_11">
</g>
<g id="Robot_12">
</g>
<g id="Robot_13">
</g>
</svg>
