<?xml version="1.0" encoding="iso-8859-1"?>
<!-- Generator: Adobe Illustrator 19.2.1, SVG Export Plug-In . SVG Version: 6.00 Build 0)  -->
<svg version="1.1" xmlns="http://www.w3.org/2000/svg" xmlns:xlink="http://www.w3.org/1999/xlink" x="0px" y="0px"
	 viewBox="0 0 24 24" style="enable-background:new 0 0 24 24;" xml:space="preserve">
<g id="Retro_Bot_1">
</g>
<g id="Retro_Bot_2">
</g>
<g id="Retro_Bot_3">
</g>
<g id="Retro_Bot_4">
</g>
<g id="Wall-E">
</g>
<g id="Eva">
</g>
<g id="Iron_Giant_1_">
</g>
<g id="Marvin_1_">
</g>
<g id="Atlas_1_">
</g>
<g id="Claptrap_1_">
</g>
<g id="Android_1_">
</g>
<g id="Bender_1_">
</g>
<g id="Roberto_1_">
</g>
<g id="Robot_Devil_1_">
</g>
<g id="Robocop_1_">
</g>
<g id="ED_209_1_">
</g>
<g id="Optimus_Prime_1_">
</g>
<g id="Robot_1">
</g>
<g id="Robot_2">
</g>
<g id="Robot_3">
</g>
<g id="Robot_Arm_1">
</g>
<g id="Robot_Arm_2">
	<g id="Robot-Arm_2">
		<g>
			<path d="M17.5,24h-11C6.224,24,6,23.776,6,23.5v-2C6,21.224,6.224,21,6.5,21h11c0.276,0,0.5,0.224,0.5,0.5v2
				C18,23.776,17.776,24,17.5,24z M7,23h10v-1H7V23z"/>
		</g>
		<g>
			<path d="M19,6c-1.654,0-3-1.346-3-3s1.346-3,3-3s3,1.346,3,3S20.654,6,19,6z M19,1c-1.103,0-2,0.897-2,2s0.897,2,2,2s2-0.897,2-2
				S20.103,1,19,1z"/>
		</g>
		<g>
			<path d="M16.5,22h-9C7.224,22,7,21.776,7,21.5V21c0-2.757,2.243-5,5-5s5,2.243,5,5v0.5C17,21.776,16.776,22,16.5,22z M8,21h8
				c0-2.206-1.794-4-4-4S8,18.794,8,21z"/>
		</g>
		<g>
			<path d="M16,19c-0.043,0-0.087-0.006-0.13-0.018c-0.267-0.071-0.425-0.346-0.353-0.612l3.5-13
				c0.071-0.268,0.348-0.424,0.613-0.353c0.267,0.071,0.425,0.346,0.353,0.612l-3.5,13C16.423,18.854,16.221,19,16,19z"/>
		</g>
		<g>
			<path d="M10,17.5c-0.083,0-0.167-0.021-0.244-0.063c-0.241-0.135-0.327-0.439-0.192-0.681l7-12.5
				c0.134-0.241,0.439-0.328,0.68-0.192c0.241,0.135,0.327,0.439,0.192,0.681l-7,12.5C10.345,17.408,10.175,17.5,10,17.5z"/>
		</g>
		<g>
			<path d="M5.5,3h-3C2.224,3,2,2.776,2,2.5S2.224,2,2.5,2h3C5.776,2,6,2.224,6,2.5S5.776,3,5.5,3z"/>
		</g>
		<g>
			<path d="M7.5,4h-2C5.224,4,5,3.776,5,3.5v-2C5,1.224,5.224,1,5.5,1h2C7.776,1,8,1.224,8,1.5v2C8,3.776,7.776,4,7.5,4z M6,3h1V2H6
				V3z"/>
		</g>
		<g>
			<path d="M9.5,5h-2C7.224,5,7,4.776,7,4.5v-4C7,0.224,7.224,0,7.5,0h2C9.776,0,10,0.224,10,0.5v4C10,4.776,9.776,5,9.5,5z M8,4h1
				V1H8V4z"/>
		</g>
		<g>
			<path d="M9.5,2C9.238,2,9.018,1.796,9.001,1.531c-0.017-0.275,0.192-0.513,0.468-0.53l8-0.5c0.28-0.028,0.513,0.192,0.53,0.468
				s-0.192,0.513-0.468,0.53l-8,0.5C9.521,2,9.51,2,9.5,2z"/>
		</g>
		<g>
			<path d="M17,5c-0.022,0-0.044-0.001-0.066-0.004l-7.5-1C9.16,3.959,8.968,3.708,9.004,3.434c0.037-0.273,0.287-0.467,0.562-0.43
				l7.5,1c0.274,0.037,0.466,0.288,0.43,0.563C17.462,4.817,17.248,5,17,5z"/>
		</g>
	</g>
</g>
<g id="Robot_Arm_3">
</g>
<g id="Robot_Arm_4">
</g>
<g id="Robot_Arm_5">
</g>
<g id="K5_Robot">
</g>
<g id="Robot_Machine_1_1_">
</g>
<g id="Robot_Machine_2">
</g>
<g id="Artifical_Intelligence_1_1_">
</g>
<g id="Artifical_Intelligence_2">
</g>
<g id="Robot_4">
</g>
<g id="Robot_5">
</g>
<g id="Robot_6">
</g>
<g id="Robot_7">
</g>
<g id="Robot_8">
</g>
<g id="Robot_9">
</g>
<g id="Robot_10">
</g>
<g id="Robot_11">
</g>
<g id="Robot_12">
</g>
<g id="Robot_13">
</g>
</svg>
