<?xml version="1.0" encoding="iso-8859-1"?>
<!-- Generator: Adobe Illustrator 19.2.1, SVG Export Plug-In . SVG Version: 6.00 Build 0)  -->
<svg version="1.1" xmlns="http://www.w3.org/2000/svg" xmlns:xlink="http://www.w3.org/1999/xlink" x="0px" y="0px"
	 viewBox="0 0 24 24" style="enable-background:new 0 0 24 24;" xml:space="preserve">
<g id="Retro_Bot_1">
</g>
<g id="Retro_Bot_2">
</g>
<g id="Retro_Bot_3">
</g>
<g id="Retro_Bot_4">
</g>
<g id="Wall-E">
</g>
<g id="Eva">
</g>
<g id="Iron_Giant_1_">
</g>
<g id="Marvin_1_">
</g>
<g id="Atlas_1_">
</g>
<g id="Claptrap_1_">
</g>
<g id="Android_1_">
</g>
<g id="Bender_1_">
</g>
<g id="Roberto_1_">
</g>
<g id="Robot_Devil_1_">
</g>
<g id="Robocop_1_">
</g>
<g id="ED_209_1_">
</g>
<g id="Optimus_Prime_1_">
</g>
<g id="Robot_1">
</g>
<g id="Robot_2">
</g>
<g id="Robot_3">
	<g id="Flying_Robot_2">
		<g>
			<path d="M11.5,19C8.468,19,6,16.533,6,13.5v-5C6,7.122,7.121,6,8.5,6h6C15.879,6,17,7.122,17,8.5v5C17,16.533,14.532,19,11.5,19z
				 M8.5,7C7.673,7,7,7.673,7,8.5v5c0,2.481,2.019,4.5,4.5,4.5s4.5-2.019,4.5-4.5v-5C16,7.673,15.327,7,14.5,7H8.5z"/>
		</g>
		<g>
			<path d="M11.5,19C8.468,19,6,16.533,6,13.5C6,13.224,6.224,13,6.5,13S7,13.224,7,13.5c0,2.481,2.019,4.5,4.5,4.5
				s4.5-2.019,4.5-4.5c0-0.276,0.224-0.5,0.5-0.5s0.5,0.224,0.5,0.5C17,16.533,14.532,19,11.5,19z"/>
		</g>
		<g>
			<path d="M11.5,21c-1.409,0-2.783-0.395-3.974-1.141c-0.603-0.378-0.995-1.006-1.076-1.724c-0.083-0.739,0.17-1.463,0.694-1.987
				c0.22-0.166,0.562-0.146,0.728,0.076c0.166,0.221,0.148,0.51-0.072,0.676l-0.002,0.001c-0.254,0.261-0.402,0.687-0.354,1.122
				c0.047,0.413,0.271,0.772,0.613,0.988c2.063,1.293,4.822,1.293,6.885,0c0.343-0.215,0.566-0.575,0.613-0.988
				c0.049-0.435-0.1-0.861-0.407-1.168c-0.221-0.166-0.24-0.457-0.074-0.677c0.165-0.221,0.505-0.245,0.726-0.078
				c0.58,0.572,0.833,1.296,0.75,2.035c-0.081,0.717-0.474,1.345-1.076,1.723C14.283,20.605,12.909,21,11.5,21z"/>
		</g>
		<g>
			<path d="M14.5,7h-6C8.224,7,8,6.776,8,6.5v-3C8,1.57,9.57,0,11.5,0S15,1.57,15,3.5v3C15,6.776,14.776,7,14.5,7z M9,6h5V3.5
				C14,2.122,12.879,1,11.5,1S9,2.122,9,3.5V6z"/>
		</g>
		<g>
			<path d="M11.5,4.234c-0.42,0-0.841-0.096-1.224-0.287c-0.247-0.124-0.347-0.424-0.224-0.671c0.124-0.248,0.424-0.345,0.671-0.224
				c0.486,0.243,1.066,0.243,1.553,0c0.248-0.123,0.547-0.024,0.671,0.224c0.123,0.247,0.023,0.547-0.224,0.671
				C12.341,4.139,11.92,4.234,11.5,4.234z"/>
		</g>
		<g>
			<path d="M10.5,12h-2C8.224,12,8,11.776,8,11.5v-2C8,9.224,8.224,9,8.5,9h2C10.776,9,11,9.224,11,9.5v2
				C11,11.776,10.776,12,10.5,12z M9,11h1v-1H9V11z"/>
		</g>
		<g>
			<path d="M14.5,10h-2C12.224,10,12,9.776,12,9.5S12.224,9,12.5,9h2C14.776,9,15,9.224,15,9.5S14.776,10,14.5,10z"/>
		</g>
		<g>
			<path d="M14.5,12h-2c-0.276,0-0.5-0.224-0.5-0.5s0.224-0.5,0.5-0.5h2c0.276,0,0.5,0.224,0.5,0.5S14.776,12,14.5,12z"/>
		</g>
		<g>
			<path d="M11.5,24c-0.157,0-0.306-0.074-0.4-0.2l-1.015-1.353l-0.138,0.276C9.859,22.9,9.688,23.013,9.479,23
				c-0.197-0.008-0.37-0.131-0.443-0.314l-1-2.5c-0.103-0.256,0.021-0.547,0.278-0.65c0.256-0.104,0.547,0.022,0.649,0.279
				l0.587,1.466l0.002-0.004c0.077-0.155,0.229-0.259,0.402-0.274c0.172-0.016,0.341,0.059,0.445,0.198l1.1,1.466l1.1-1.466
				c0.104-0.139,0.272-0.214,0.445-0.198s0.325,0.12,0.402,0.274l0.002,0.004l0.587-1.466c0.103-0.256,0.394-0.382,0.649-0.279
				c0.257,0.103,0.381,0.394,0.278,0.65l-1,2.5c-0.073,0.183-0.246,0.306-0.443,0.314c-0.191,0.014-0.379-0.1-0.468-0.276
				l-0.138-0.276L11.9,23.8C11.806,23.926,11.657,24,11.5,24z"/>
		</g>
		<g>
			<path d="M18.5,10h-2C16.224,10,16,9.776,16,9.5S16.224,9,16.5,9h2C18.776,9,19,9.224,19,9.5S18.776,10,18.5,10z"/>
		</g>
		<g>
			<path d="M6.5,10h-2C4.224,10,4,9.776,4,9.5S4.224,9,4.5,9h2C6.776,9,7,9.224,7,9.5S6.776,10,6.5,10z"/>
		</g>
		<g>
			<path d="M4.5,16h-2C2.224,16,2,15.776,2,15.5v-9C2,6.224,2.224,6,2.5,6h2C4.776,6,5,6.224,5,6.5v9C5,15.776,4.776,16,4.5,16z
				 M3,15h1V7H3V15z"/>
		</g>
		<g>
			<path d="M20.5,16h-2c-0.276,0-0.5-0.224-0.5-0.5v-9C18,6.224,18.224,6,18.5,6h2C20.776,6,21,6.224,21,6.5v9
				C21,15.776,20.776,16,20.5,16z M19,15h1V7h-1V15z"/>
		</g>
	</g>
</g>
<g id="Robot_Arm_1">
</g>
<g id="Robot_Arm_2">
</g>
<g id="Robot_Arm_3">
</g>
<g id="Robot_Arm_4">
</g>
<g id="Robot_Arm_5">
</g>
<g id="K5_Robot">
</g>
<g id="Robot_Machine_1_1_">
</g>
<g id="Robot_Machine_2">
</g>
<g id="Artifical_Intelligence_1_1_">
</g>
<g id="Artifical_Intelligence_2">
</g>
<g id="Robot_4">
</g>
<g id="Robot_5">
</g>
<g id="Robot_6">
</g>
<g id="Robot_7">
</g>
<g id="Robot_8">
</g>
<g id="Robot_9">
</g>
<g id="Robot_10">
</g>
<g id="Robot_11">
</g>
<g id="Robot_12">
</g>
<g id="Robot_13">
</g>
</svg>
