<?xml version="1.0" encoding="iso-8859-1"?>
<!-- Generator: Adobe Illustrator 19.2.1, SVG Export Plug-In . SVG Version: 6.00 Build 0)  -->
<svg version="1.1" xmlns="http://www.w3.org/2000/svg" xmlns:xlink="http://www.w3.org/1999/xlink" x="0px" y="0px"
	 viewBox="0 0 24 24" style="enable-background:new 0 0 24 24;" xml:space="preserve">
<g id="Retro_Bot_1">
</g>
<g id="Retro_Bot_2">
</g>
<g id="Retro_Bot_3">
</g>
<g id="Retro_Bot_4">
</g>
<g id="Wall-E">
	<g id="Wall-e">
		<g>
			<path d="M17.5,21h-12C5.224,21,5,20.776,5,20.5v-11C5,9.224,5.224,9,5.5,9h12C17.776,9,18,9.224,18,9.5v11
				C18,20.776,17.776,21,17.5,21z M6,20h11V10H6V20z"/>
		</g>
		<g>
			<path d="M4.5,24h-3C0.673,24,0,23.327,0,22.5v-8C0,13.673,0.673,13,1.5,13h3C5.327,13,6,13.673,6,14.5v8
				C6,23.327,5.327,24,4.5,24z M1.5,14C1.224,14,1,14.224,1,14.5v8C1,22.776,1.224,23,1.5,23h3C4.776,23,5,22.776,5,22.5v-8
				C5,14.224,4.776,14,4.5,14H1.5z"/>
		</g>
		<g>
			<path d="M21.5,24h-3c-0.827,0-1.5-0.673-1.5-1.5v-8c0-0.827,0.673-1.5,1.5-1.5h3c0.827,0,1.5,0.673,1.5,1.5v8
				C23,23.327,22.327,24,21.5,24z M18.5,14c-0.276,0-0.5,0.224-0.5,0.5v8c0,0.276,0.224,0.5,0.5,0.5h3c0.276,0,0.5-0.224,0.5-0.5v-8
				c0-0.276-0.224-0.5-0.5-0.5H18.5z"/>
		</g>
		<g>
			<path d="M12.5,10h-2C10.224,10,10,9.776,10,9.5v-4C10,5.224,10.224,5,10.5,5h2C12.776,5,13,5.224,13,5.5v4
				C13,9.776,12.776,10,12.5,10z M11,9h1V6h-1V9z"/>
		</g>
		<g>
			<path style="fill:#FFFFFF;" d="M6.5,4.5c-1.105,0-2-0.895-2-2s0.895-2,2-2h4v0C10.5,2.709,8.709,4.5,6.5,4.5L6.5,4.5z"/>
			<path d="M6.5,5C5.122,5,4,3.878,4,2.5S5.122,0,6.5,0h4C10.776,0,11,0.224,11,0.5C11,2.981,8.981,5,6.5,5z M6.5,1
				C5.673,1,5,1.673,5,2.5S5.673,4,6.5,4c1.76,0,3.221-1.306,3.464-3H6.5z"/>
		</g>
		<g>
			<path style="fill:#FFFFFF;" d="M16.5,4.5c1.105,0,2-0.895,2-2s-0.895-2-2-2h-4v0C12.5,2.709,14.291,4.5,16.5,4.5L16.5,4.5z"/>
			<path d="M16.5,5C14.019,5,12,2.981,12,0.5C12,0.224,12.224,0,12.5,0h4C17.878,0,19,1.122,19,2.5S17.878,5,16.5,5z M13.036,1
				c0.243,1.694,1.704,3,3.464,3C17.327,4,18,3.327,18,2.5S17.327,1,16.5,1H13.036z"/>
		</g>
		<g>
			<circle style="fill:#FFFFFF;" cx="7.25" cy="2.25" r="0.75"/>
			<path d="M7.25,3.5C6.561,3.5,6,2.939,6,2.25S6.561,1,7.25,1S8.5,1.561,8.5,2.25S7.939,3.5,7.25,3.5z M7.25,2
				C7.112,2,7,2.112,7,2.25c0,0.275,0.5,0.275,0.5,0C7.5,2.112,7.388,2,7.25,2z"/>
		</g>
		<g>
			<circle style="fill:#FFFFFF;" cx="15.75" cy="2.25" r="0.75"/>
			<path d="M15.75,3.5c-0.689,0-1.25-0.561-1.25-1.25S15.061,1,15.75,1S17,1.561,17,2.25S16.439,3.5,15.75,3.5z M15.75,2
				c-0.138,0-0.25,0.112-0.25,0.25c0,0.275,0.5,0.275,0.5,0C16,2.112,15.888,2,15.75,2z"/>
		</g>
		<g>
			<path d="M11.5,6C11.224,6,11,5.776,11,5.5v-4C11,1.224,11.224,1,11.5,1S12,1.224,12,1.5v4C12,5.776,11.776,6,11.5,6z"/>
		</g>
		<g>
			<path d="M12.5,2h-2C10.224,2,10,1.776,10,1.5S10.224,1,10.5,1h2C12.776,1,13,1.224,13,1.5S12.776,2,12.5,2z"/>
		</g>
		<g>
			<path d="M3.5,16h-1C2.224,16,2,15.776,2,15.5S2.224,15,2.5,15h1C3.776,15,4,15.224,4,15.5S3.776,16,3.5,16z"/>
		</g>
		<g>
			<path d="M3.5,18h-1C2.224,18,2,17.776,2,17.5S2.224,17,2.5,17h1C3.776,17,4,17.224,4,17.5S3.776,18,3.5,18z"/>
		</g>
		<g>
			<path d="M3.5,20h-1C2.224,20,2,19.776,2,19.5S2.224,19,2.5,19h1C3.776,19,4,19.224,4,19.5S3.776,20,3.5,20z"/>
		</g>
		<g>
			<path d="M3.5,22h-1C2.224,22,2,21.776,2,21.5S2.224,21,2.5,21h1C3.776,21,4,21.224,4,21.5S3.776,22,3.5,22z"/>
		</g>
		<g>
			<path d="M20.5,16h-1c-0.276,0-0.5-0.224-0.5-0.5s0.224-0.5,0.5-0.5h1c0.276,0,0.5,0.224,0.5,0.5S20.776,16,20.5,16z"/>
		</g>
		<g>
			<path d="M20.5,18h-1c-0.276,0-0.5-0.224-0.5-0.5s0.224-0.5,0.5-0.5h1c0.276,0,0.5,0.224,0.5,0.5S20.776,18,20.5,18z"/>
		</g>
		<g>
			<path d="M20.5,20h-1c-0.276,0-0.5-0.224-0.5-0.5s0.224-0.5,0.5-0.5h1c0.276,0,0.5,0.224,0.5,0.5S20.776,20,20.5,20z"/>
		</g>
		<g>
			<path d="M20.5,22h-1c-0.276,0-0.5-0.224-0.5-0.5s0.224-0.5,0.5-0.5h1c0.276,0,0.5,0.224,0.5,0.5S20.776,22,20.5,22z"/>
		</g>
		<g>
			<path d="M15.5,14h-2c-0.276,0-0.5-0.224-0.5-0.5v-2c0-0.276,0.224-0.5,0.5-0.5h2c0.276,0,0.5,0.224,0.5,0.5v2
				C16,13.776,15.776,14,15.5,14z M14,13h1v-1h-1V13z"/>
		</g>
		<g>
			<path d="M11.5,12h-4C7.224,12,7,11.776,7,11.5S7.224,11,7.5,11h4c0.276,0,0.5,0.224,0.5,0.5S11.776,12,11.5,12z"/>
		</g>
		<g>
			<path d="M11.5,14h-4C7.224,14,7,13.776,7,13.5S7.224,13,7.5,13h4c0.276,0,0.5,0.224,0.5,0.5S11.776,14,11.5,14z"/>
		</g>
	</g>
</g>
<g id="Eva">
</g>
<g id="Iron_Giant_1_">
</g>
<g id="Marvin_1_">
</g>
<g id="Atlas_1_">
</g>
<g id="Claptrap_1_">
</g>
<g id="Android_1_">
</g>
<g id="Bender_1_">
</g>
<g id="Roberto_1_">
</g>
<g id="Robot_Devil_1_">
</g>
<g id="Robocop_1_">
</g>
<g id="ED_209_1_">
</g>
<g id="Optimus_Prime_1_">
</g>
<g id="Robot_1">
</g>
<g id="Robot_2">
</g>
<g id="Robot_3">
</g>
<g id="Robot_Arm_1">
</g>
<g id="Robot_Arm_2">
</g>
<g id="Robot_Arm_3">
</g>
<g id="Robot_Arm_4">
</g>
<g id="Robot_Arm_5">
</g>
<g id="K5_Robot">
</g>
<g id="Robot_Machine_1_1_">
</g>
<g id="Robot_Machine_2">
</g>
<g id="Artifical_Intelligence_1_1_">
</g>
<g id="Artifical_Intelligence_2">
</g>
<g id="Robot_4">
</g>
<g id="Robot_5">
</g>
<g id="Robot_6">
</g>
<g id="Robot_7">
</g>
<g id="Robot_8">
</g>
<g id="Robot_9">
</g>
<g id="Robot_10">
</g>
<g id="Robot_11">
</g>
<g id="Robot_12">
</g>
<g id="Robot_13">
</g>
</svg>
