<?xml version="1.0" encoding="iso-8859-1"?>
<!-- Generator: Adobe Illustrator 19.0.0, SVG Export Plug-In . SVG Version: 6.00 Build 0)  -->
<svg version="1.1" id="Layer_1" xmlns="http://www.w3.org/2000/svg" xmlns:xlink="http://www.w3.org/1999/xlink" x="0px" y="0px"
	 viewBox="0 0 24 24" style="enable-background:new 0 0 24 24;" xml:space="preserve">
<g>
	<g>
		<path d="M17,9.501c0-3.252-3.893-6-8.5-6S0,6.249,0,9.501c0,1.668,1.077,3.427,2.714,4.478c-0.221,0.587-0.953,1.547-1.49,2.137
			c-0.01,0.011-0.02,0.023-0.029,0.035C1.068,16.299,1,16.482,1,16.674c0,0.455,0.381,0.825,0.848,0.825
			c0.032,0,3.564-0.452,5.418-2.061c0.428,0.042,0.835,0.063,1.234,0.063C13.107,15.501,17,12.753,17,9.501z M8.5,14.5
			c-0.432,0-0.872-0.027-1.349-0.082C7,14.4,6.852,14.452,6.745,14.556c-1.118,1.086-3.443,1.673-4.466,1.87
			c0.532-0.631,1.457-1.841,1.498-2.667c0.009-0.189-0.089-0.367-0.255-0.46C2.013,12.452,1,10.926,1,9.501c0-2.664,3.505-5,7.5-5
			S16,6.836,16,9.5S12.495,14.5,8.5,14.5z M21.287,16.978C22.924,15.927,24,14.168,24,12.5c0-2.512-2.4-4.847-5.838-5.68
			c-0.269-0.066-0.539,0.099-0.604,0.368c-0.065,0.269,0.099,0.539,0.368,0.604C20.865,8.504,23,10.484,23,12.5
			c0,1.424-1.014,2.951-2.523,3.798c-0.166,0.092-0.264,0.271-0.255,0.46c0.038,0.779,0.849,1.892,1.496,2.663
			c-1.064-0.204-3.356-0.789-4.464-1.866c-0.108-0.104-0.258-0.157-0.405-0.138c-0.477,0.055-0.918,0.082-1.349,0.082
			c-1.659,0-3.253-0.389-4.611-1.127c-0.243-0.132-0.546-0.041-0.678,0.201c-0.132,0.242-0.042,0.546,0.201,0.678
			c1.504,0.817,3.263,1.249,5.088,1.249c0.399,0,0.805-0.021,1.234-0.063c1.854,1.61,5.386,2.062,5.418,2.062
			c0.468,0,0.848-0.37,0.849-0.826c0-0.208-0.082-0.409-0.224-0.558C22.255,18.543,21.511,17.566,21.287,16.978z"/>
	</g>
</g>
</svg>
