<?xml version="1.0" encoding="iso-8859-1"?>
<!-- Generator: Adobe Illustrator 19.2.1, SVG Export Plug-In . SVG Version: 6.00 Build 0)  -->
<svg version="1.1" xmlns="http://www.w3.org/2000/svg" xmlns:xlink="http://www.w3.org/1999/xlink" x="0px" y="0px"
	 viewBox="0 0 24 24" style="enable-background:new 0 0 24 24;" xml:space="preserve">
<g id="Dashed_Frame_21">
	<g>
		<g>
			<path d="M18.415,19H5.584c-1.027,0-2.022-0.354-2.824-1H1.5C1.224,18,1,17.776,1,17.5v-2.195l-0.586-1.269
				c-0.594-1.287-0.543-2.797,0.135-4.041L1,9.169V6.5C1,6.224,1.224,6,1.5,6h1.084C3.387,5.354,4.379,5,5.4,5h13.2
				c1.021,0,2.013,0.354,2.815,1H22.5C22.776,6,23,6.224,23,6.5v2.669l0.451,0.826l0,0c0.678,1.244,0.729,2.754,0.135,4.041
				L23,15.305V17.5c0,0.276-0.224,0.5-0.5,0.5h-1.261C20.438,18.646,19.443,19,18.415,19z M2,17h0.943
				c0.122,0,0.239,0.044,0.33,0.125C3.916,17.689,4.736,18,5.584,18h12.831c0.849,0,1.669-0.311,2.312-0.875
				C20.818,17.044,20.935,17,21.057,17H22v-1.805c0-0.072,0.016-0.144,0.046-0.21l0.632-1.369c0.462-1,0.423-2.175-0.105-3.143
				l-0.512-0.938C22.021,9.462,22,9.38,22,9.296V7h-0.767c-0.121,0-0.238-0.044-0.33-0.124C20.26,6.311,19.441,6,18.6,6H5.4
				C4.559,6,3.74,6.311,3.096,6.876C3.005,6.956,2.888,7,2.767,7H2v2.296C2,9.38,1.979,9.462,1.939,9.536l-0.512,0.938
				c-0.528,0.967-0.567,2.143-0.105,3.143l0.632,1.369C1.984,15.052,2,15.123,2,15.195V17z"/>
		</g>
		<g>
			<g>
				<path d="M4.278,16.523c-0.105,0-0.21-0.035-0.3-0.111c-0.003-0.002-0.042-0.036-0.044-0.039L3.5,16C3.224,16,3,15.776,3,15.5
					v-0.634l-0.062-0.133c-0.116-0.251-0.006-0.548,0.244-0.664c0.251-0.115,0.548-0.006,0.664,0.244l0.107,0.232
					C3.984,14.612,4,14.684,4,14.756v0.346c0.01,0.008,0.019,0.015,0.028,0.023l0.566,0.498c0.206,0.181,0.246,0.51,0.067,0.718
					C4.559,16.46,4.418,16.523,4.278,16.523z"/>
			</g>
			<g>
				<path d="M2.636,13.376c-0.2,0-0.389-0.121-0.466-0.319c-0.112-0.289-0.169-0.594-0.169-0.906c0-0.419,0.105-0.833,0.304-1.199
					l0.473,0.178l0.438,0.24c-0.152,0.279-0.215,0.528-0.215,0.781c0,0.188,0.034,0.371,0.101,0.543
					c0.1,0.257-0.027,0.547-0.285,0.647C2.758,13.364,2.697,13.376,2.636,13.376z"/>
			</g>
			<g>
				<path d="M3.5,10C3.224,10,3,9.776,3,9.5v-1c0-0.19,0.106-0.356,0.263-0.44l0.493-0.432c0.074-0.064,0.149-0.124,0.229-0.179
					C4.21,7.292,4.521,7.349,4.68,7.576C4.837,7.803,4.78,8.114,4.553,8.271C4.505,8.305,4.459,8.341,4.415,8.38L4,8.743V9.5
					C4,9.776,3.776,10,3.5,10z"/>
			</g>
			<g>
				<path d="M17.585,8h-2.231c-0.276,0-0.5-0.224-0.5-0.5s0.224-0.5,0.5-0.5h2.231c0.276,0,0.5,0.224,0.5,0.5S17.862,8,17.585,8z
					 M13.123,8h-2.231c-0.276,0-0.5-0.224-0.5-0.5s0.224-0.5,0.5-0.5h2.231c0.276,0,0.5,0.224,0.5,0.5S13.399,8,13.123,8z M8.661,8
					H6.43c-0.276,0-0.5-0.224-0.5-0.5S6.153,7,6.43,7h2.231c0.276,0,0.5,0.224,0.5,0.5S8.937,8,8.661,8z"/>
			</g>
			<g>
				<path d="M20.5,10C20.224,10,20,9.776,20,9.5V8.743L19.585,8.38c-0.044-0.039-0.091-0.075-0.139-0.108
					c-0.227-0.157-0.284-0.469-0.126-0.696c0.157-0.227,0.468-0.284,0.696-0.126c0.079,0.055,0.155,0.114,0.229,0.179l0.521,0.458
					C20.905,8.175,21,8.327,21,8.5v1C21,9.776,20.776,10,20.5,10z"/>
			</g>
			<g>
				<path d="M21.365,13.373c-0.06,0-0.121-0.011-0.181-0.034c-0.257-0.1-0.385-0.389-0.286-0.646
					c0.067-0.172,0.101-0.354,0.101-0.542c0-0.251-0.063-0.5-0.182-0.719l0.404-0.304l0.44-0.238l0.035,0.065
					c0.198,0.364,0.303,0.778,0.303,1.196c0,0.312-0.057,0.615-0.168,0.903C21.754,13.252,21.565,13.373,21.365,13.373z"/>
			</g>
			<g>
				<path d="M20.066,16.373l-0.367-0.343l-0.323-0.382l0.596-0.523c0.009-0.009,0.018-0.016,0.028-0.023v-0.346
					c0-0.072,0.016-0.144,0.046-0.21l0.107-0.232c0.116-0.25,0.412-0.358,0.664-0.244c0.25,0.116,0.36,0.413,0.244,0.664L21,14.866
					V15.5c0,0.276-0.224,0.5-0.5,0.5h-0.009L20.066,16.373z"/>
			</g>
			<g>
				<path d="M17.577,17h-2.231c-0.276,0-0.5-0.224-0.5-0.5s0.224-0.5,0.5-0.5h2.231c0.276,0,0.5,0.224,0.5,0.5S17.854,17,17.577,17z
					 M13.115,17h-2.231c-0.276,0-0.5-0.224-0.5-0.5s0.224-0.5,0.5-0.5h2.231c0.276,0,0.5,0.224,0.5,0.5S13.391,17,13.115,17z
					 M8.652,17H6.421c-0.276,0-0.5-0.224-0.5-0.5s0.224-0.5,0.5-0.5h2.231c0.276,0,0.5,0.224,0.5,0.5S8.929,17,8.652,17z"/>
			</g>
		</g>
	</g>
</g>
<g id="Dashed_Frame_22">
</g>
<g id="Dashed_Frame_23">
</g>
<g id="Dashed_Frame_24">
</g>
<g id="Dashed_Frame_34">
</g>
</svg>
