<?xml version="1.0" encoding="iso-8859-1"?>
<!-- Generator: Adobe Illustrator 19.2.1, SVG Export Plug-In . SVG Version: 6.00 Build 0)  -->
<svg version="1.1" xmlns="http://www.w3.org/2000/svg" xmlns:xlink="http://www.w3.org/1999/xlink" x="0px" y="0px"
	 viewBox="0 0 24 24" style="enable-background:new 0 0 24 24;" xml:space="preserve">
<g id="Photo_frame">
</g>
<g id="Photo_frame_2">
</g>
<g id="Photo_frame_3">
</g>
<g id="Photo_frame__4">
</g>
<g id="Photo_frame_5">
	<g id="Layer_6">
	</g>
</g>
<g id="Photo_frame_6">
</g>
<g id="Photo_frame_7">
</g>
<g id="Round_Frame_1">
</g>
<g id="Rectangle_Frame_1">
</g>
<g id="Square_Frame_1">
</g>
<g id="Rectangle_Frame_2">
</g>
<g id="Oval_Frame_1">
</g>
<g id="Round_Frame_2">
</g>
<g id="Rectangle_Frame_3">
</g>
<g id="Rectangle_Frame_4">
</g>
<g id="Rectangle_Frame_5">
</g>
<g id="Square_Frame_2">
</g>
<g id="Rectangle_Frame_6">
</g>
<g id="Rectangle_Frame_7">
</g>
<g id="Oval_Frame_2">
</g>
<g id="Round_Frame_3">
</g>
<g id="Rectangle_Frame_8">
</g>
<g id="Square_Frame_3">
</g>
<g id="Rectangle_Frame_9">
</g>
<g id="Rectangle_Frame_10">
</g>
<g id="Square_Frame_4">
</g>
<g id="Rectangle_Frame_11">
</g>
<g id="Rectangle_Frame_12">
</g>
<g id="Square_Frame_5">
</g>
<g id="Rectangle_Frame_13">
</g>
<g id="Frame_1">
</g>
<g id="Frame_2">
</g>
<g id="Round_Frame_4">
</g>
<g id="Frame_3">
</g>
<g id="Frame_4">
</g>
<g id="Frame_5">
</g>
<g id="Frame_6">
</g>
<g id="Frame_7">
</g>
<g id="Frame_8">
</g>
<g id="Frame_9">
</g>
<g id="Frame_10">
</g>
<g id="Frame_11">
</g>
<g id="Frame_12">
</g>
<g id="Frame_13">
</g>
<g id="Frame_14">
</g>
<g id="Frame_15">
</g>
<g id="Frame_16">
</g>
<g id="Frame_17">
</g>
<g id="Frame_18">
</g>
<g id="Frame_19">
</g>
<g id="Frame_20">
</g>
<g id="Frame_21">
</g>
<g id="Frame_22">
</g>
<g id="Frame_23">
</g>
<g id="Frame_24">
</g>
<g id="Frame_25">
</g>
<g id="Frame_26">
</g>
<g id="Frame_27">
</g>
<g id="Frame_28">
</g>
<g id="Frame_29">
</g>
<g id="Frame_30">
</g>
<g id="Frame_Hole_1">
</g>
<g id="Frame_Hole_2">
</g>
<g id="Frame_Hole_3">
</g>
<g id="Frame_Hole_4">
</g>
<g id="Frame_31">
</g>
<g id="Frame_32">
</g>
<g id="Frame_33">
</g>
<g id="Frame_34">
</g>
<g id="Frame_35">
</g>
<g id="Dashed_Frame_1">
</g>
<g id="Dashed_Frame_2">
</g>
<g id="Dashed_Frame_3">
</g>
<g id="Dashed_Frame_4">
</g>
<g id="Dashed_Frame_5">
</g>
<g id="Dashed_Frame_6">
</g>
<g id="Dashed_Frame_7">
</g>
<g id="Dashed_Frame_8">
</g>
<g id="Dashed_Frame_9">
</g>
<g id="Dashed_Frame_10">
</g>
<g id="Dashed_Frame_11">
</g>
<g id="Dashed_Frame_12">
</g>
<g id="Dashed_Frame_13">
</g>
<g id="Dashed_Frame_14">
</g>
<g id="Dashed_Frame_15">
</g>
<g id="Dashed_Frame_16">
</g>
<g id="Dashed_Frame_17">
</g>
<g id="Dashed_Frame_18">
</g>
<g id="Dashed_Frame_19">
</g>
<g id="Dashed_Frame_20">
</g>
<g id="Dashed_Frame_25">
</g>
<g id="Dashed_Frame_26">
</g>
<g id="Dashed_Frame_27">
</g>
<g id="Dashed_Frame_28">
</g>
<g id="Dashed_Frame_29">
</g>
<g id="Dashed_Frame_30">
</g>
<g id="Dashed_Frame_31">
	<g>
		<g>
			<path d="M12,20.5c-0.11,0-0.222-0.037-0.313-0.11l-0.158-0.127C10.107,19.126,8.321,18.5,6.501,18.5
				c-0.275,0-0.5-0.224-0.5-0.499v-0.358C2.289,16.495,0,14.354,0,12s2.288-4.495,6-5.643V6c0-0.276,0.224-0.5,0.5-0.5
				c1.821,0,3.607-0.627,5.029-1.765l0.159-0.127c0.182-0.145,0.441-0.145,0.623,0l0.158,0.126C13.893,4.873,15.678,5.5,17.499,5.5
				c0.275,0,0.5,0.224,0.5,0.499v0.358C21.711,7.505,24,9.646,24,12s-2.288,4.495-6,5.643V18c0,0.276-0.224,0.5-0.5,0.5
				c-1.821,0-3.607,0.626-5.029,1.764l-0.158,0.126C12.222,20.463,12.11,20.5,12,20.5z M7,17.514c1.808,0.102,3.56,0.747,5,1.849
				c1.44-1.102,3.193-1.747,5-1.849v-0.245c0-0.223,0.148-0.419,0.363-0.479C20.84,15.799,23,13.964,23,12s-2.16-3.799-5.637-4.789
				C17.148,7.15,17,6.954,17,6.73V6.486c-1.808-0.102-3.56-0.748-5-1.85c-1.439,1.102-3.192,1.748-5,1.85v0.245
				C7,6.954,6.852,7.15,6.637,7.211C3.16,8.201,1,10.036,1,12s2.16,3.799,5.637,4.789C6.852,16.85,7,17.046,7,17.27V17.514z"/>
		</g>
		<g>
			<g>
				<path d="M12,18.048c-0.09,0-0.18-0.024-0.26-0.072c-0.272-0.166-0.552-0.319-0.838-0.458c-0.248-0.121-0.352-0.42-0.231-0.669
					c0.121-0.248,0.421-0.353,0.669-0.231c0.224,0.109,0.443,0.226,0.66,0.35c0.216-0.123,0.437-0.239,0.659-0.349
					c0.248-0.119,0.547-0.018,0.669,0.229c0.121,0.248,0.019,0.548-0.229,0.669c-0.286,0.14-0.566,0.292-0.839,0.458
					C12.181,18.023,12.09,18.048,12,18.048z"/>
			</g>
			<g>
				<path d="M9.47,16.929c-0.047,0-0.094-0.007-0.141-0.021c-0.305-0.089-0.613-0.164-0.926-0.225
					c-0.235-0.046-0.405-0.252-0.405-0.491v-0.057l-0.599-0.171c-0.266-0.075-0.42-0.353-0.344-0.617
					c0.075-0.266,0.354-0.426,0.617-0.344l0.962,0.274c0.215,0.061,0.363,0.257,0.363,0.48v0.029
					c0.206,0.048,0.41,0.102,0.612,0.161c0.266,0.077,0.417,0.355,0.339,0.62C9.886,16.787,9.687,16.929,9.47,16.929z"/>
			</g>
			<g>
				<path d="M5.782,15.421c-0.061,0-0.123-0.011-0.183-0.035c-0.65-0.256-1.232-0.548-1.729-0.868
					c-0.232-0.149-0.3-0.459-0.149-0.69c0.148-0.232,0.461-0.301,0.69-0.149c0.442,0.284,0.965,0.546,1.554,0.778
					c0.258,0.101,0.384,0.391,0.282,0.647C6.17,15.301,5.981,15.421,5.782,15.421z M2.799,13.358c-0.162,0-0.322-0.079-0.418-0.226
					C2.128,12.747,2,12.366,2,12c0-0.363,0.127-0.742,0.378-1.128c0.151-0.229,0.46-0.295,0.692-0.146
					c0.23,0.15,0.296,0.461,0.146,0.692C3.037,11.692,3,11.886,3,12c0,0.166,0.075,0.368,0.217,0.584
					c0.151,0.231,0.087,0.541-0.144,0.692C2.988,13.332,2.894,13.358,2.799,13.358z M4.138,10.405c-0.164,0-0.324-0.081-0.42-0.229
					c-0.15-0.232-0.083-0.542,0.148-0.691c0.497-0.321,1.079-0.613,1.729-0.87C5.851,8.512,6.143,8.64,6.243,8.896
					c0.102,0.257-0.024,0.547-0.281,0.648c-0.589,0.232-1.111,0.495-1.553,0.78C4.325,10.38,4.231,10.405,4.138,10.405z"/>
			</g>
			<g>
				<path d="M7.538,9.015c-0.218,0-0.418-0.144-0.48-0.363C6.981,8.387,7.136,8.109,7.401,8.034L8,7.863V7.808
					c0-0.239,0.17-0.445,0.405-0.491c0.313-0.061,0.621-0.136,0.926-0.226c0.263-0.077,0.543,0.072,0.621,0.338
					C10.03,7.693,9.879,7.972,9.614,8.05C9.411,8.11,9.206,8.164,9,8.212V8.24c0,0.224-0.148,0.42-0.363,0.48L7.675,8.995
					C7.63,9.009,7.583,9.015,7.538,9.015z"/>
			</g>
			<g>
				<path d="M11.12,7.433c-0.186,0-0.363-0.104-0.45-0.281c-0.12-0.249-0.017-0.548,0.231-0.669
					c0.286-0.139,0.566-0.292,0.839-0.458c0.16-0.096,0.361-0.097,0.52,0.001c0.272,0.166,0.552,0.318,0.838,0.458
					c0.248,0.121,0.351,0.421,0.229,0.669s-0.419,0.35-0.669,0.229C12.436,7.272,12.216,7.156,12,7.033
					c-0.217,0.124-0.438,0.24-0.661,0.35C11.269,7.417,11.193,7.433,11.12,7.433z"/>
			</g>
			<g>
				<path d="M16.464,9.016c-0.045,0-0.092-0.006-0.137-0.02l-0.962-0.274c-0.215-0.061-0.363-0.257-0.363-0.48V8.212
					c-0.206-0.048-0.411-0.102-0.613-0.161c-0.266-0.077-0.417-0.355-0.339-0.62c0.077-0.266,0.355-0.416,0.62-0.339
					c0.305,0.089,0.614,0.164,0.927,0.225c0.235,0.046,0.405,0.252,0.405,0.491v0.057l0.599,0.171
					c0.266,0.075,0.42,0.353,0.344,0.617C16.882,8.872,16.682,9.016,16.464,9.016z"/>
			</g>
			<g>
				<path d="M18.222,15.42c-0.199,0-0.388-0.12-0.465-0.316c-0.102-0.257,0.024-0.547,0.281-0.648
					c0.589-0.232,1.111-0.495,1.553-0.78c0.232-0.149,0.542-0.083,0.691,0.148c0.15,0.232,0.083,0.542-0.148,0.691
					c-0.497,0.321-1.079,0.613-1.729,0.87C18.345,15.409,18.283,15.42,18.222,15.42z M21.203,13.354
					c-0.094,0-0.188-0.026-0.273-0.081c-0.23-0.15-0.296-0.461-0.146-0.692C20.963,12.308,21,12.114,21,12
					c0-0.166-0.075-0.368-0.217-0.584c-0.151-0.231-0.087-0.541,0.144-0.692c0.229-0.152,0.54-0.089,0.692,0.144
					C21.872,11.253,22,11.634,22,12c0,0.363-0.127,0.742-0.378,1.128C21.526,13.274,21.366,13.354,21.203,13.354z M19.859,10.402
					c-0.093,0-0.188-0.025-0.271-0.08c-0.442-0.284-0.965-0.546-1.554-0.778c-0.258-0.101-0.384-0.391-0.282-0.647
					C17.854,8.64,18.145,8.51,18.4,8.614c0.65,0.256,1.232,0.548,1.729,0.868c0.232,0.149,0.3,0.459,0.149,0.69
					C20.185,10.321,20.023,10.402,19.859,10.402z"/>
			</g>
			<g>
				<path d="M14.528,16.93c-0.216,0-0.415-0.141-0.479-0.357c-0.078-0.265,0.072-0.543,0.337-0.622
					c0.203-0.06,0.408-0.114,0.614-0.162V15.76c0-0.224,0.148-0.42,0.363-0.48l0.962-0.274c0.262-0.08,0.542,0.079,0.617,0.344
					c0.076,0.265-0.078,0.542-0.344,0.617L16,16.137v0.056c0,0.239-0.17,0.445-0.405,0.491c-0.312,0.061-0.62,0.136-0.924,0.226
					C14.623,16.923,14.575,16.93,14.528,16.93z"/>
			</g>
		</g>
	</g>
</g>
<g id="Dashed_Frame_32">
</g>
<g id="Dashed_Frame_33">
</g>
<g id="Dashed_Frame_35">
</g>
</svg>
