<?xml version="1.0" encoding="iso-8859-1"?>
<!-- Generator: Adobe Illustrator 19.2.1, SVG Export Plug-In . SVG Version: 6.00 Build 0)  -->
<svg version="1.1" xmlns="http://www.w3.org/2000/svg" xmlns:xlink="http://www.w3.org/1999/xlink" x="0px" y="0px"
	 viewBox="0 0 24 24" style="enable-background:new 0 0 24 24;" xml:space="preserve">
<g id="Photo_frame">
</g>
<g id="Photo_frame_2">
</g>
<g id="Photo_frame_3">
</g>
<g id="Photo_frame__4">
</g>
<g id="Photo_frame_5">
	<g id="Layer_6">
	</g>
</g>
<g id="Photo_frame_6">
</g>
<g id="Photo_frame_7">
</g>
<g id="Round_Frame_1">
</g>
<g id="Rectangle_Frame_1">
</g>
<g id="Square_Frame_1">
</g>
<g id="Rectangle_Frame_2">
</g>
<g id="Oval_Frame_1">
</g>
<g id="Round_Frame_2">
</g>
<g id="Rectangle_Frame_3">
</g>
<g id="Rectangle_Frame_4">
</g>
<g id="Rectangle_Frame_5">
</g>
<g id="Square_Frame_2">
</g>
<g id="Rectangle_Frame_6">
</g>
<g id="Rectangle_Frame_7">
</g>
<g id="Oval_Frame_2">
</g>
<g id="Round_Frame_3">
</g>
<g id="Rectangle_Frame_8">
</g>
<g id="Square_Frame_3">
</g>
<g id="Rectangle_Frame_9">
</g>
<g id="Rectangle_Frame_10">
</g>
<g id="Square_Frame_4">
</g>
<g id="Rectangle_Frame_11">
</g>
<g id="Rectangle_Frame_12">
</g>
<g id="Square_Frame_5">
</g>
<g id="Rectangle_Frame_13">
</g>
<g id="Frame_1">
</g>
<g id="Frame_2">
</g>
<g id="Round_Frame_4">
</g>
<g id="Frame_3">
</g>
<g id="Frame_4">
</g>
<g id="Frame_5">
</g>
<g id="Frame_6">
</g>
<g id="Frame_7">
</g>
<g id="Frame_8">
</g>
<g id="Frame_9">
</g>
<g id="Frame_10">
</g>
<g id="Frame_11">
</g>
<g id="Frame_12">
</g>
<g id="Frame_13">
</g>
<g id="Frame_14">
</g>
<g id="Frame_15">
</g>
<g id="Frame_16">
</g>
<g id="Frame_17">
</g>
<g id="Frame_18">
</g>
<g id="Frame_19">
</g>
<g id="Frame_20">
</g>
<g id="Frame_21">
</g>
<g id="Frame_22">
</g>
<g id="Frame_23">
</g>
<g id="Frame_24">
</g>
<g id="Frame_25">
</g>
<g id="Frame_26">
</g>
<g id="Frame_27">
</g>
<g id="Frame_28">
</g>
<g id="Frame_29">
</g>
<g id="Frame_30">
</g>
<g id="Frame_Hole_1">
</g>
<g id="Frame_Hole_2">
</g>
<g id="Frame_Hole_3">
</g>
<g id="Frame_Hole_4">
</g>
<g id="Frame_31">
</g>
<g id="Frame_32">
</g>
<g id="Frame_33">
</g>
<g id="Frame_34">
</g>
<g id="Frame_35">
</g>
<g id="Dashed_Frame_1">
</g>
<g id="Dashed_Frame_2">
</g>
<g id="Dashed_Frame_3">
</g>
<g id="Dashed_Frame_4">
</g>
<g id="Dashed_Frame_5">
	<g>
		<g>
			<path d="M12,21.5c-0.128,0-0.256-0.049-0.354-0.146C10.486,20.193,9.123,19.5,8,19.5H4.999C3.621,19.5,2.5,18.379,2.5,17v-1
				c0-1.123-0.693-2.485-1.854-3.646c-0.195-0.195-0.195-0.512,0-0.707C1.807,10.485,2.5,9.123,2.5,8V7c0-1.379,1.121-2.5,2.499-2.5
				H8c1.123,0,2.486-0.693,3.646-1.854c0.195-0.195,0.512-0.195,0.707,0C13.514,3.807,14.877,4.5,16,4.5h3
				c1.378,0,2.5,1.121,2.5,2.5v1c0,1.123,0.693,2.485,1.854,3.646c0.195,0.195,0.195,0.512,0,0.707
				C22.193,13.515,21.5,14.877,21.5,16v1c0,1.379-1.121,2.5-2.499,2.5H16c-1.123,0-2.486,0.693-3.646,1.854
				C12.256,21.451,12.128,21.5,12,21.5z M1.689,12C2.845,13.28,3.5,14.717,3.5,16v1c0,0.827,0.672,1.5,1.499,1.5H8
				c1.283,0,2.72,0.654,4,1.811c1.28-1.156,2.717-1.811,4-1.811h3.001c0.827,0,1.499-0.673,1.499-1.5v-1c0-1.283,0.655-2.72,1.811-4
				C21.155,10.72,20.5,9.283,20.5,8V7c0-0.827-0.673-1.5-1.5-1.5h-3c-1.283,0-2.72-0.654-4-1.811C10.72,4.846,9.283,5.5,8,5.5H4.999
				C4.172,5.5,3.5,6.173,3.5,7v1C3.5,9.283,2.845,10.72,1.689,12z"/>
		</g>
		<g>
			<g>
				<path d="M12,18.897c-0.1,0-0.199-0.029-0.285-0.089c-0.131-0.091-0.263-0.178-0.396-0.26c-0.235-0.146-0.308-0.454-0.163-0.688
					c0.146-0.236,0.454-0.306,0.688-0.163c0.052,0.032,0.104,0.065,0.156,0.099c0.052-0.033,0.104-0.066,0.156-0.099
					c0.233-0.143,0.542-0.073,0.688,0.163c0.145,0.234,0.072,0.543-0.163,0.688c-0.133,0.082-0.266,0.169-0.396,0.26
					C12.199,18.868,12.1,18.897,12,18.897z"/>
			</g>
			<g>
				<path d="M9.266,17.647c-0.037,0-0.075-0.004-0.112-0.013c-0.386-0.089-0.769-0.134-1.138-0.135
					c-0.276-0.001-0.5-0.225-0.499-0.501s0.225-0.499,0.5-0.499c0,0,0.001,0,0.001,0c0.444,0.001,0.901,0.055,1.359,0.16
					c0.269,0.062,0.438,0.33,0.375,0.599C9.7,17.491,9.494,17.647,9.266,17.647z"/>
			</g>
			<g>
				<path d="M5.499,17.5h-0.5c-0.133,0-0.26-0.053-0.354-0.146c-0.094-0.094-0.146-0.222-0.146-0.354l0-0.5
					C4.5,16.224,4.724,16,5,16h0c0.276,0,0.5,0.224,0.5,0.5c0.276,0,0.5,0.224,0.5,0.5S5.775,17.5,5.499,17.5z"/>
			</g>
			<g>
				<path d="M4.864,15.289c-0.23,0-0.437-0.159-0.488-0.394c-0.056-0.254-0.13-0.509-0.22-0.765
					c-0.092-0.26,0.044-0.546,0.304-0.639c0.259-0.093,0.545,0.044,0.638,0.305c0.105,0.295,0.19,0.591,0.254,0.886
					c0.059,0.27-0.112,0.536-0.381,0.595C4.936,15.285,4.9,15.289,4.864,15.289z"/>
			</g>
			<g>
				<path d="M3.877,12.918c-0.167,0-0.33-0.084-0.425-0.235c-0.083-0.133-0.169-0.266-0.261-0.397c-0.119-0.172-0.119-0.398,0-0.57
					c0.091-0.131,0.177-0.264,0.26-0.396c0.146-0.235,0.455-0.306,0.688-0.163c0.235,0.146,0.308,0.454,0.163,0.688
					C4.27,11.896,4.237,11.948,4.204,12c0.033,0.051,0.065,0.103,0.097,0.153c0.146,0.235,0.074,0.543-0.16,0.689
					C4.059,12.894,3.967,12.918,3.877,12.918z"/>
			</g>
			<g>
				<path d="M4.628,10.534c-0.056,0-0.112-0.009-0.168-0.029c-0.26-0.093-0.396-0.379-0.303-0.639
					c0.091-0.254,0.165-0.509,0.219-0.763C4.434,8.833,4.698,8.667,4.97,8.719c0.27,0.059,0.442,0.324,0.384,0.594
					c-0.063,0.297-0.149,0.593-0.254,0.89C5.026,10.406,4.833,10.534,4.628,10.534z"/>
			</g>
			<g>
				<path d="M5,8C4.724,8,4.5,7.776,4.5,7.5V7c0-0.276,0.224-0.5,0.5-0.5h0.5C5.776,6.5,6,6.724,6,7S5.776,7.5,5.5,7.5
					C5.5,7.776,5.276,8,5,8z"/>
			</g>
			<g>
				<path d="M8.018,7.5c-0.275,0-0.499-0.223-0.5-0.498S7.739,6.501,8.015,6.5c0.37-0.002,0.753-0.047,1.14-0.135
					C9.425,6.3,9.692,6.473,9.754,6.742C9.815,7.011,9.646,7.279,9.377,7.34C8.919,7.444,8.462,7.498,8.02,7.5
					C8.019,7.5,8.019,7.5,8.018,7.5z"/>
			</g>
			<g>
				<path d="M12.418,6.377c-0.09,0-0.181-0.024-0.262-0.074C12.104,6.271,12.052,6.237,12,6.204
					c-0.052,0.033-0.104,0.066-0.156,0.099c-0.234,0.143-0.542,0.073-0.688-0.163c-0.145-0.234-0.072-0.543,0.163-0.688
					c0.132-0.081,0.264-0.168,0.395-0.26c0.172-0.119,0.401-0.119,0.573,0c0.13,0.092,0.262,0.179,0.395,0.26
					c0.235,0.146,0.308,0.454,0.163,0.688C12.749,6.293,12.585,6.377,12.418,6.377z"/>
			</g>
			<g>
				<path d="M15.982,7.5C15.982,7.5,15.981,7.5,15.982,7.5c-0.445-0.001-0.902-0.055-1.36-0.16c-0.269-0.062-0.438-0.33-0.375-0.6
					c0.063-0.27,0.333-0.438,0.599-0.375c0.386,0.089,0.769,0.134,1.138,0.135c0.276,0.001,0.5,0.225,0.499,0.501
					S16.258,7.5,15.982,7.5z"/>
			</g>
			<g>
				<path d="M19,8c-0.276,0-0.5-0.224-0.5-0.5C18.224,7.5,18,7.276,18,7s0.224-0.5,0.5-0.5H19c0.276,0,0.5,0.224,0.5,0.5v0.5
					C19.5,7.776,19.276,8,19,8z"/>
			</g>
			<g>
				<path d="M19.373,10.536c-0.206,0-0.398-0.128-0.471-0.333c-0.105-0.295-0.19-0.591-0.254-0.886
					c-0.059-0.27,0.112-0.536,0.381-0.595c0.269-0.061,0.536,0.111,0.595,0.382c0.056,0.254,0.13,0.509,0.22,0.765
					c0.092,0.26-0.044,0.546-0.304,0.639C19.484,10.527,19.428,10.536,19.373,10.536z"/>
			</g>
			<g>
				<path d="M20.123,12.918c-0.09,0-0.182-0.024-0.264-0.075c-0.234-0.146-0.306-0.454-0.16-0.689
					c0.032-0.051,0.064-0.103,0.097-0.153c-0.033-0.052-0.066-0.104-0.098-0.156c-0.145-0.234-0.072-0.543,0.163-0.688
					c0.234-0.143,0.543-0.072,0.688,0.163c0.083,0.133,0.169,0.266,0.26,0.396c0.119,0.172,0.119,0.398,0,0.57
					c-0.091,0.132-0.178,0.265-0.261,0.397C20.453,12.834,20.29,12.918,20.123,12.918z"/>
			</g>
			<g>
				<path d="M19.136,15.292c-0.035,0-0.07-0.004-0.105-0.011c-0.27-0.059-0.442-0.324-0.384-0.594
					c0.063-0.297,0.149-0.593,0.254-0.89c0.093-0.26,0.378-0.399,0.639-0.303c0.26,0.093,0.396,0.379,0.303,0.639
					c-0.091,0.254-0.165,0.509-0.219,0.763C19.574,15.132,19.366,15.292,19.136,15.292z"/>
			</g>
			<g>
				<path d="M19,17.5h-0.5c-0.276,0-0.5-0.224-0.5-0.5s0.224-0.5,0.5-0.5c0-0.276,0.224-0.5,0.5-0.5s0.5,0.224,0.5,0.5V17
					C19.5,17.276,19.276,17.5,19,17.5z"/>
			</g>
			<g>
				<path d="M14.733,17.647c-0.228,0-0.435-0.157-0.487-0.39c-0.061-0.269,0.108-0.537,0.377-0.598
					c0.458-0.104,0.915-0.158,1.357-0.16c0.277,0.042,0.5,0.221,0.502,0.498c0.001,0.275-0.222,0.501-0.498,0.502
					c-0.37,0.002-0.753,0.047-1.14,0.135C14.807,17.644,14.77,17.647,14.733,17.647z"/>
			</g>
		</g>
	</g>
</g>
<g id="Dashed_Frame_6">
</g>
<g id="Dashed_Frame_7">
</g>
<g id="Dashed_Frame_8">
</g>
<g id="Dashed_Frame_9">
</g>
<g id="Dashed_Frame_10">
</g>
<g id="Dashed_Frame_11">
</g>
<g id="Dashed_Frame_12">
</g>
<g id="Dashed_Frame_13">
</g>
<g id="Dashed_Frame_14">
</g>
<g id="Dashed_Frame_15">
</g>
<g id="Dashed_Frame_16">
</g>
<g id="Dashed_Frame_17">
</g>
<g id="Dashed_Frame_18">
</g>
<g id="Dashed_Frame_19">
</g>
<g id="Dashed_Frame_20">
</g>
<g id="Dashed_Frame_25">
</g>
<g id="Dashed_Frame_26">
</g>
<g id="Dashed_Frame_27">
</g>
<g id="Dashed_Frame_28">
</g>
<g id="Dashed_Frame_29">
</g>
<g id="Dashed_Frame_30">
</g>
<g id="Dashed_Frame_31">
</g>
<g id="Dashed_Frame_32">
</g>
<g id="Dashed_Frame_33">
</g>
<g id="Dashed_Frame_35">
</g>
</svg>
