<?xml version="1.0" encoding="iso-8859-1"?>
<!-- Generator: Adobe Illustrator 19.2.1, SVG Export Plug-In . SVG Version: 6.00 Build 0)  -->
<svg version="1.1" xmlns="http://www.w3.org/2000/svg" xmlns:xlink="http://www.w3.org/1999/xlink" x="0px" y="0px"
	 viewBox="0 0 24 24" style="enable-background:new 0 0 24 24;" xml:space="preserve">
<g id="Photo_frame">
</g>
<g id="Photo_frame_2">
</g>
<g id="Photo_frame_3">
</g>
<g id="Photo_frame__4">
</g>
<g id="Photo_frame_5">
	<g id="Layer_6">
	</g>
</g>
<g id="Photo_frame_6">
</g>
<g id="Photo_frame_7">
</g>
<g id="Round_Frame_1">
</g>
<g id="Rectangle_Frame_1">
</g>
<g id="Square_Frame_1">
</g>
<g id="Rectangle_Frame_2">
</g>
<g id="Oval_Frame_1">
</g>
<g id="Round_Frame_2">
</g>
<g id="Rectangle_Frame_3">
</g>
<g id="Rectangle_Frame_4">
</g>
<g id="Rectangle_Frame_5">
</g>
<g id="Square_Frame_2">
</g>
<g id="Rectangle_Frame_6">
</g>
<g id="Rectangle_Frame_7">
</g>
<g id="Oval_Frame_2">
</g>
<g id="Round_Frame_3">
</g>
<g id="Rectangle_Frame_8">
</g>
<g id="Square_Frame_3">
</g>
<g id="Rectangle_Frame_9">
</g>
<g id="Rectangle_Frame_10">
</g>
<g id="Square_Frame_4">
</g>
<g id="Rectangle_Frame_11">
</g>
<g id="Rectangle_Frame_12">
</g>
<g id="Square_Frame_5">
</g>
<g id="Rectangle_Frame_13">
</g>
<g id="Frame_1">
</g>
<g id="Frame_2">
</g>
<g id="Round_Frame_4">
</g>
<g id="Frame_3">
</g>
<g id="Frame_4">
</g>
<g id="Frame_5">
</g>
<g id="Frame_6">
</g>
<g id="Frame_7">
</g>
<g id="Frame_8">
</g>
<g id="Frame_9">
</g>
<g id="Frame_10">
</g>
<g id="Frame_11">
</g>
<g id="Frame_12">
</g>
<g id="Frame_13">
</g>
<g id="Frame_14">
</g>
<g id="Frame_15">
</g>
<g id="Frame_16">
</g>
<g id="Frame_17">
</g>
<g id="Frame_18">
</g>
<g id="Frame_19">
</g>
<g id="Frame_20">
</g>
<g id="Frame_21">
</g>
<g id="Frame_22">
</g>
<g id="Frame_23">
</g>
<g id="Frame_24">
</g>
<g id="Frame_25">
</g>
<g id="Frame_26">
</g>
<g id="Frame_27">
</g>
<g id="Frame_28">
</g>
<g id="Frame_29">
</g>
<g id="Frame_30">
</g>
<g id="Frame_Hole_1">
</g>
<g id="Frame_Hole_2">
</g>
<g id="Frame_Hole_3">
</g>
<g id="Frame_Hole_4">
</g>
<g id="Frame_31">
</g>
<g id="Frame_32">
</g>
<g id="Frame_33">
</g>
<g id="Frame_34">
</g>
<g id="Frame_35">
</g>
<g id="Dashed_Frame_1">
</g>
<g id="Dashed_Frame_2">
</g>
<g id="Dashed_Frame_3">
</g>
<g id="Dashed_Frame_4">
</g>
<g id="Dashed_Frame_5">
</g>
<g id="Dashed_Frame_6">
</g>
<g id="Dashed_Frame_7">
</g>
<g id="Dashed_Frame_8">
</g>
<g id="Dashed_Frame_9">
</g>
<g id="Dashed_Frame_10">
</g>
<g id="Dashed_Frame_11">
</g>
<g id="Dashed_Frame_12">
</g>
<g id="Dashed_Frame_13">
</g>
<g id="Dashed_Frame_14">
</g>
<g id="Dashed_Frame_15">
</g>
<g id="Dashed_Frame_16">
</g>
<g id="Dashed_Frame_17">
</g>
<g id="Dashed_Frame_18">
</g>
<g id="Dashed_Frame_19">
</g>
<g id="Dashed_Frame_20">
</g>
<g id="Dashed_Frame_25">
</g>
<g id="Dashed_Frame_26">
</g>
<g id="Dashed_Frame_27">
</g>
<g id="Dashed_Frame_28">
</g>
<g id="Dashed_Frame_29">
</g>
<g id="Dashed_Frame_30">
</g>
<g id="Dashed_Frame_31">
</g>
<g id="Dashed_Frame_32">
</g>
<g id="Dashed_Frame_33">
	<g>
		<g>
			<path d="M12,21c-0.044,0-0.087-0.006-0.13-0.018l-5.476-1.422c-0.091-0.023-0.174-0.071-0.238-0.139l-1.975-2.055l-1.876-2.183
				c-0.025-0.03-0.048-0.063-0.065-0.098L2.195,15H0.5C0.224,15,0,14.776,0,14.5v-5C0,9.224,0.224,9,0.5,9h1.695l0.046-0.089
				c0.018-0.034,0.04-0.066,0.065-0.097l1.857-2.161l1.992-2.075c0.064-0.067,0.147-0.115,0.238-0.139l5.476-1.422
				c0.086-0.023,0.174-0.023,0.26,0l5.476,1.422c0.091,0.023,0.174,0.071,0.238,0.139l1.975,2.055l1.876,2.183
				c0.025,0.03,0.048,0.063,0.065,0.098L21.805,9H23.5C23.776,9,24,9.224,24,9.5v5c0,0.276-0.224,0.5-0.5,0.5h-1.695l-0.046,0.089
				c-0.018,0.034-0.04,0.066-0.065,0.097l-1.856,2.161l-1.993,2.075c-0.064,0.067-0.147,0.115-0.239,0.139l-5.475,1.422
				C12.087,20.994,12.044,21,12,21z M6.777,18.625L12,19.982l5.223-1.357l1.875-1.951l1.8-2.096l0.158-0.308
				C21.142,14.104,21.313,14,21.5,14H23v-4h-1.5c-0.188,0-0.358-0.104-0.444-0.271l-0.158-0.306l-1.818-2.117l-1.856-1.931L12,4.018
				L6.777,5.375L4.903,7.326L3.103,9.422L2.944,9.729C2.858,9.896,2.688,10,2.5,10H1v4h1.5c0.188,0,0.358,0.104,0.444,0.271
				l0.158,0.306l1.818,2.117L6.777,18.625z"/>
		</g>
		<g>
			<g>
				<path d="M3.207,13.207c-0.128,0-0.256-0.049-0.354-0.146l-0.707-0.707c-0.195-0.195-0.195-0.512,0-0.707l0.707-0.707
					c0.195-0.195,0.512-0.195,0.707,0s0.195,0.512,0,0.707L3.207,12l0.354,0.354c0.195,0.195,0.195,0.512,0,0.707
					C3.463,13.158,3.335,13.207,3.207,13.207z"/>
			</g>
			<g>
				<path d="M4.644,10.432c-0.115,0-0.231-0.04-0.326-0.121c-0.209-0.18-0.233-0.495-0.053-0.705l1.292-1.504
					c0.18-0.209,0.495-0.231,0.705-0.053c0.209,0.18,0.233,0.495,0.053,0.705l-1.292,1.504C4.924,10.373,4.784,10.432,4.644,10.432z
					 M19.356,10.431c-0.141,0-0.28-0.059-0.379-0.174l-1.292-1.504c-0.181-0.21-0.156-0.525,0.053-0.705
					c0.211-0.179,0.525-0.156,0.705,0.053l1.292,1.504c0.181,0.21,0.156,0.525-0.053,0.705
					C19.588,10.391,19.472,10.431,19.356,10.431z M7.304,7.492c-0.125,0-0.249-0.046-0.347-0.14
					c-0.199-0.19-0.205-0.508-0.014-0.707L7.2,6.378c0.064-0.067,0.147-0.115,0.238-0.139l1.563-0.393
					C9.271,5.78,9.541,5.942,9.609,6.21c0.066,0.269-0.096,0.54-0.363,0.607L7.821,7.175L7.664,7.339
					C7.566,7.44,7.435,7.492,7.304,7.492z M16.696,7.491c-0.131,0-0.262-0.051-0.36-0.153l-0.157-0.163l-1.426-0.357
					c-0.268-0.067-0.43-0.339-0.363-0.607c0.067-0.268,0.336-0.429,0.607-0.363l1.564,0.393c0.091,0.023,0.173,0.071,0.238,0.139
					l0.257,0.267c0.191,0.198,0.186,0.516-0.014,0.707C16.946,7.444,16.821,7.491,16.696,7.491z M12.957,6.329
					c-0.043,0-0.087-0.006-0.13-0.018L12,6.089l-0.828,0.223c-0.268,0.065-0.541-0.087-0.613-0.354
					c-0.071-0.268,0.087-0.541,0.354-0.613l0.958-0.257c0.086-0.021,0.176-0.022,0.26,0.001l0.957,0.258
					c0.267,0.071,0.425,0.346,0.353,0.612C13.38,6.183,13.178,6.329,12.957,6.329z"/>
			</g>
			<g>
				<path d="M20.793,13.207c-0.128,0-0.256-0.049-0.354-0.146c-0.195-0.195-0.195-0.512,0-0.707L20.793,12l-0.354-0.354
					c-0.195-0.195-0.195-0.512,0-0.707s0.512-0.195,0.707,0l0.707,0.707c0.195,0.195,0.195,0.512,0,0.707l-0.707,0.707
					C21.049,13.158,20.921,13.207,20.793,13.207z"/>
			</g>
			<g>
				<path d="M12,18.929c-0.044,0-0.088-0.006-0.13-0.018l-0.957-0.258c-0.267-0.071-0.425-0.346-0.353-0.612
					c0.071-0.267,0.351-0.424,0.612-0.353L12,17.911l0.828-0.223c0.264-0.072,0.541,0.085,0.612,0.353
					c0.072,0.267-0.086,0.541-0.353,0.612l-0.958,0.258C12.087,18.923,12.044,18.929,12,18.929z M9.125,18.168
					c-0.04,0-0.081-0.005-0.122-0.015l-1.564-0.393c-0.091-0.023-0.173-0.071-0.238-0.139l-0.257-0.267
					c-0.191-0.198-0.186-0.516,0.014-0.707c0.198-0.189,0.515-0.186,0.707,0.014l0.157,0.163l1.426,0.357
					c0.268,0.067,0.43,0.339,0.363,0.607C9.553,18.017,9.35,18.168,9.125,18.168z M14.875,18.167c-0.225,0-0.428-0.151-0.485-0.379
					c-0.066-0.268,0.096-0.539,0.364-0.606l1.425-0.356l0.157-0.164c0.192-0.197,0.508-0.205,0.707-0.014
					c0.199,0.19,0.205,0.508,0.014,0.707L16.8,17.622c-0.064,0.067-0.147,0.115-0.239,0.139l-1.564,0.392
					C14.956,18.162,14.915,18.167,14.875,18.167z M5.936,16.073c-0.141,0-0.28-0.059-0.379-0.174l-1.292-1.504
					c-0.181-0.21-0.156-0.525,0.053-0.705c0.21-0.18,0.526-0.156,0.705,0.053l1.292,1.504c0.181,0.21,0.156,0.525-0.053,0.705
					C6.167,16.033,6.051,16.073,5.936,16.073z M18.064,16.072c-0.115,0-0.231-0.04-0.326-0.121c-0.209-0.18-0.233-0.495-0.053-0.705
					l1.292-1.504c0.18-0.21,0.495-0.232,0.705-0.053c0.209,0.18,0.233,0.495,0.053,0.705l-1.292,1.504
					C18.345,16.014,18.205,16.072,18.064,16.072z"/>
			</g>
		</g>
	</g>
</g>
<g id="Dashed_Frame_35">
</g>
</svg>
