<?xml version="1.0" encoding="iso-8859-1"?>
<!-- Generator: Adobe Illustrator 19.2.1, SVG Export Plug-In . SVG Version: 6.00 Build 0)  -->
<svg version="1.1" xmlns="http://www.w3.org/2000/svg" xmlns:xlink="http://www.w3.org/1999/xlink" x="0px" y="0px"
	 viewBox="0 0 24 24" style="enable-background:new 0 0 24 24;" xml:space="preserve">
<g id="Photo_frame">
</g>
<g id="Photo_frame_2">
</g>
<g id="Photo_frame_3">
</g>
<g id="Photo_frame__4">
</g>
<g id="Photo_frame_5">
	<g id="Layer_6">
	</g>
</g>
<g id="Photo_frame_6">
</g>
<g id="Photo_frame_7">
</g>
<g id="Round_Frame_1">
</g>
<g id="Rectangle_Frame_1">
</g>
<g id="Square_Frame_1">
</g>
<g id="Rectangle_Frame_2">
</g>
<g id="Oval_Frame_1">
</g>
<g id="Round_Frame_2">
</g>
<g id="Rectangle_Frame_3">
</g>
<g id="Rectangle_Frame_4">
</g>
<g id="Rectangle_Frame_5">
</g>
<g id="Square_Frame_2">
</g>
<g id="Rectangle_Frame_6">
</g>
<g id="Rectangle_Frame_7">
</g>
<g id="Oval_Frame_2">
</g>
<g id="Round_Frame_3">
</g>
<g id="Rectangle_Frame_8">
</g>
<g id="Square_Frame_3">
</g>
<g id="Rectangle_Frame_9">
</g>
<g id="Rectangle_Frame_10">
</g>
<g id="Square_Frame_4">
</g>
<g id="Rectangle_Frame_11">
</g>
<g id="Rectangle_Frame_12">
</g>
<g id="Square_Frame_5">
</g>
<g id="Rectangle_Frame_13">
</g>
<g id="Frame_1">
</g>
<g id="Frame_2">
</g>
<g id="Round_Frame_4">
</g>
<g id="Frame_3">
</g>
<g id="Frame_4">
</g>
<g id="Frame_5">
</g>
<g id="Frame_6">
</g>
<g id="Frame_7">
</g>
<g id="Frame_8">
</g>
<g id="Frame_9">
</g>
<g id="Frame_10">
</g>
<g id="Frame_11">
</g>
<g id="Frame_12">
</g>
<g id="Frame_13">
</g>
<g id="Frame_14">
</g>
<g id="Frame_15">
</g>
<g id="Frame_16">
</g>
<g id="Frame_17">
</g>
<g id="Frame_18">
</g>
<g id="Frame_19">
</g>
<g id="Frame_20">
</g>
<g id="Frame_21">
</g>
<g id="Frame_22">
</g>
<g id="Frame_23">
</g>
<g id="Frame_24">
</g>
<g id="Frame_25">
</g>
<g id="Frame_26">
</g>
<g id="Frame_27">
</g>
<g id="Frame_28">
</g>
<g id="Frame_29">
</g>
<g id="Frame_30">
</g>
<g id="Frame_Hole_1">
</g>
<g id="Frame_Hole_2">
</g>
<g id="Frame_Hole_3">
</g>
<g id="Frame_Hole_4">
</g>
<g id="Frame_31">
</g>
<g id="Frame_32">
</g>
<g id="Frame_33">
</g>
<g id="Frame_34">
</g>
<g id="Frame_35">
</g>
<g id="Dashed_Frame_1">
</g>
<g id="Dashed_Frame_2">
</g>
<g id="Dashed_Frame_3">
</g>
<g id="Dashed_Frame_4">
</g>
<g id="Dashed_Frame_5">
</g>
<g id="Dashed_Frame_6">
</g>
<g id="Dashed_Frame_7">
</g>
<g id="Dashed_Frame_8">
</g>
<g id="Dashed_Frame_9">
</g>
<g id="Dashed_Frame_10">
</g>
<g id="Dashed_Frame_11">
</g>
<g id="Dashed_Frame_12">
</g>
<g id="Dashed_Frame_13">
</g>
<g id="Dashed_Frame_14">
</g>
<g id="Dashed_Frame_15">
</g>
<g id="Dashed_Frame_16">
</g>
<g id="Dashed_Frame_17">
</g>
<g id="Dashed_Frame_18">
</g>
<g id="Dashed_Frame_19">
</g>
<g id="Dashed_Frame_20">
</g>
<g id="Dashed_Frame_25">
</g>
<g id="Dashed_Frame_26">
</g>
<g id="Dashed_Frame_27">
</g>
<g id="Dashed_Frame_28">
	<g>
		<g>
			<path d="M11.935,22c-0.113,0-0.227-0.038-0.319-0.115L9.347,20H6.5C5.122,20,4,18.879,4,17.5V16H2.5C2.224,16,2,15.776,2,15.5
				v-1.604l-1.819-1.511C0.066,12.289,0,12.148,0,11.999c0-0.148,0.067-0.29,0.182-0.385L2,10.112V8.5C2,8.224,2.224,8,2.5,8H4V6.5
				C4,5.121,5.122,4,6.5,4h2.899l2.282-1.886c0.185-0.152,0.452-0.152,0.637,0L14.601,4h2.956c0.67,0,1.299,0.262,1.772,0.736
				c0.472,0.475,0.731,1.104,0.728,1.774L20.05,8h1.45C21.776,8,22,8.224,22,8.5v1.612l1.818,1.502
				C23.934,11.71,24,11.852,24,12.001s-0.067,0.291-0.183,0.386L22,13.879V15.5c0,0.276-0.224,0.5-0.5,0.5h-1.484l-0.007,1.511
				C20.003,18.884,18.881,20,17.509,20h-2.96l-2.296,1.887C12.16,21.962,12.048,22,11.935,22z M3,15h1.5C4.776,15,5,15.224,5,15.5v2
				C5,18.327,5.673,19,6.5,19h3.028c0.117,0,0.23,0.041,0.319,0.115l2.09,1.736l2.115-1.738C14.142,19.04,14.254,19,14.37,19h3.139
				c0.823,0,1.497-0.67,1.5-1.493l0.009-2.009c0.001-0.275,0.225-0.498,0.5-0.498H21v-1.357c0-0.149,0.067-0.291,0.183-0.387
				l1.531-1.257l-1.532-1.266C21.066,10.638,21,10.497,21,10.348V9h-1.452c-0.133,0-0.26-0.053-0.354-0.147
				c-0.094-0.094-0.146-0.222-0.146-0.354l0.008-1.991c0.002-0.402-0.153-0.78-0.437-1.065C18.336,5.157,17.958,5,17.556,5h-3.135
				c-0.116,0-0.229-0.04-0.318-0.114L12,3.148L9.897,4.886C9.808,4.96,9.695,5,9.579,5H6.5C5.673,5,5,5.673,5,6.5v2
				C5,8.776,4.776,9,4.5,9H3v1.348c0,0.149-0.066,0.29-0.182,0.386l-1.535,1.268l1.536,1.275C2.934,13.371,3,13.513,3,13.661V15z"/>
		</g>
		<g>
			<g>
				<path d="M7.5,18h-1C6.224,18,6,17.776,6,17.5v-1C6,16.224,6.224,16,6.5,16S7,16.224,7,16.5V17h0.5C7.776,17,8,17.224,8,17.5
					S7.776,18,7.5,18z"/>
			</g>
			<g>
				<path d="M6.5,15C6.224,15,6,14.776,6,14.5V14H5.5C5.224,14,5,13.776,5,13.5S5.224,13,5.5,13h1C6.776,13,7,13.224,7,13.5v1
					C7,14.776,6.776,15,6.5,15z"/>
			</g>
			<g>
				<path d="M5.5,14h-1C4.224,14,4,13.776,4,13.5v-0.543l-0.685-0.568c-0.114-0.096-0.181-0.236-0.18-0.386
					c0-0.148,0.067-0.29,0.182-0.385L4,11.055V10.5C4,10.224,4.224,10,4.5,10h1C5.776,10,6,10.224,6,10.5S5.776,11,5.5,11H5v0.29
					c0,0.149-0.066,0.291-0.182,0.386l-0.399,0.329l0.401,0.333C4.934,12.434,5,12.574,5,12.723V13h0.5C5.776,13,6,13.224,6,13.5
					S5.776,14,5.5,14z"/>
			</g>
			<g>
				<path d="M6.5,11h-1C5.224,11,5,10.776,5,10.5S5.224,10,5.5,10H6V9.5C6,9.224,6.224,9,6.5,9S7,9.224,7,9.5v1
					C7,10.776,6.776,11,6.5,11z"/>
			</g>
			<g>
				<path d="M6.5,8C6.224,8,6,7.776,6,7.5v-1C6,6.224,6.224,6,6.5,6h1C7.776,6,8,6.224,8,6.5S7.776,7,7.5,7H7v0.5
					C7,7.776,6.776,8,6.5,8z"/>
			</g>
			<g>
				<path d="M10.171,7H8.835c-0.276,0-0.5-0.224-0.5-0.5S8.559,6,8.835,6h1.335c0.276,0,0.5,0.224,0.5,0.5S10.447,7,10.171,7z"/>
			</g>
			<g>
				<path d="M12.771,6.23c-0.112,0-0.225-0.037-0.318-0.114L12,5.742l-0.453,0.374c-0.213,0.178-0.528,0.146-0.704-0.067
					c-0.176-0.213-0.146-0.528,0.067-0.704l0.771-0.637c0.185-0.152,0.452-0.152,0.637,0l0.771,0.637
					c0.213,0.176,0.243,0.491,0.067,0.704C13.058,6.169,12.915,6.23,12.771,6.23z"/>
			</g>
			<g>
				<path d="M15.202,7h-1.354c-0.276,0-0.5-0.224-0.5-0.5s0.224-0.5,0.5-0.5h1.354c0.276,0,0.5,0.224,0.5,0.5S15.479,7,15.202,7z"/>
			</g>
			<g>
				<path d="M17.552,8c0,0-0.001,0-0.002,0c-0.276-0.001-0.499-0.226-0.498-0.502L17.054,7h-0.498c-0.276,0-0.5-0.224-0.5-0.5
					S16.28,6,16.556,6h1c0.133,0,0.261,0.053,0.354,0.147c0.094,0.094,0.146,0.222,0.146,0.354l-0.004,1
					C18.051,7.777,17.827,8,17.552,8z"/>
			</g>
			<g>
				<path d="M17.522,15c0,0-0.001,0-0.002,0c-0.276-0.001-0.499-0.226-0.498-0.502l0.004-1c0.001-0.275,0.225-0.498,0.5-0.498H19
					v-0.303c0-0.149,0.067-0.291,0.183-0.387l0.385-0.316l-0.386-0.318C19.067,11.581,19,11.439,19,11.29V11h-1.46
					c-0.133,0-0.26-0.053-0.354-0.147c-0.094-0.094-0.146-0.222-0.146-0.354l0.004-1C17.045,9.223,17.269,9,17.544,9
					c0.246,0,0.501,0.225,0.5,0.502L18.042,10H19.5c0.276,0,0.5,0.224,0.5,0.5v0.555l0.673,0.555
					c0.115,0.095,0.182,0.237,0.182,0.387s-0.067,0.29-0.183,0.386L20,12.934V13.5c0,0.276-0.224,0.5-0.5,0.5h-1.476l-0.002,0.502
					C18.021,14.777,17.797,15,17.522,15z"/>
			</g>
			<g>
				<path d="M17.509,18h-1c-0.276,0-0.5-0.224-0.5-0.5s0.224-0.5,0.5-0.5h0.502l0.002-0.502c0.001-0.275,0.225-0.498,0.5-0.498
					c0,0,0.001,0,0.002,0c0.276,0.001,0.499,0.226,0.498,0.502l-0.004,1C18.008,17.777,17.784,18,17.509,18z"/>
			</g>
			<g>
				<path d="M15.152,18h-1.356c-0.276,0-0.5-0.224-0.5-0.5s0.224-0.5,0.5-0.5h1.356c0.276,0,0.5,0.224,0.5,0.5S15.429,18,15.152,18z
					"/>
			</g>
			<g>
				<path d="M11.942,19.405c-0.113,0-0.227-0.038-0.319-0.115l-0.769-0.639c-0.212-0.177-0.242-0.492-0.065-0.704
					c0.177-0.213,0.492-0.241,0.704-0.065l0.452,0.375l0.454-0.373c0.214-0.175,0.529-0.143,0.704,0.069
					c0.175,0.214,0.145,0.528-0.069,0.704l-0.773,0.635C12.167,19.367,12.055,19.405,11.942,19.405z"/>
			</g>
			<g>
				<path d="M10.133,18H8.817c-0.276,0-0.5-0.224-0.5-0.5s0.224-0.5,0.5-0.5h1.316c0.276,0,0.5,0.224,0.5,0.5S10.41,18,10.133,18z"
					/>
			</g>
		</g>
	</g>
</g>
<g id="Dashed_Frame_29">
</g>
<g id="Dashed_Frame_30">
</g>
<g id="Dashed_Frame_31">
</g>
<g id="Dashed_Frame_32">
</g>
<g id="Dashed_Frame_33">
</g>
<g id="Dashed_Frame_35">
</g>
</svg>
