<?xml version="1.0" encoding="iso-8859-1"?>
<!-- Generator: Adobe Illustrator 19.2.1, SVG Export Plug-In . SVG Version: 6.00 Build 0)  -->
<svg version="1.1" xmlns="http://www.w3.org/2000/svg" xmlns:xlink="http://www.w3.org/1999/xlink" x="0px" y="0px"
	 viewBox="0 0 24 24" style="enable-background:new 0 0 24 24;" xml:space="preserve">
<g id="Photo_frame">
</g>
<g id="Photo_frame_2">
</g>
<g id="Photo_frame_3">
</g>
<g id="Photo_frame__4">
</g>
<g id="Photo_frame_5">
	<g id="Layer_6">
	</g>
</g>
<g id="Photo_frame_6">
</g>
<g id="Photo_frame_7">
</g>
<g id="Round_Frame_1">
</g>
<g id="Rectangle_Frame_1">
</g>
<g id="Square_Frame_1">
</g>
<g id="Rectangle_Frame_2">
</g>
<g id="Oval_Frame_1">
</g>
<g id="Round_Frame_2">
</g>
<g id="Rectangle_Frame_3">
</g>
<g id="Rectangle_Frame_4">
</g>
<g id="Rectangle_Frame_5">
</g>
<g id="Square_Frame_2">
</g>
<g id="Rectangle_Frame_6">
</g>
<g id="Rectangle_Frame_7">
</g>
<g id="Oval_Frame_2">
</g>
<g id="Round_Frame_3">
</g>
<g id="Rectangle_Frame_8">
</g>
<g id="Square_Frame_3">
</g>
<g id="Rectangle_Frame_9">
</g>
<g id="Rectangle_Frame_10">
</g>
<g id="Square_Frame_4">
</g>
<g id="Rectangle_Frame_11">
</g>
<g id="Rectangle_Frame_12">
</g>
<g id="Square_Frame_5">
</g>
<g id="Rectangle_Frame_13">
</g>
<g id="Frame_1">
</g>
<g id="Frame_2">
</g>
<g id="Round_Frame_4">
</g>
<g id="Frame_3">
</g>
<g id="Frame_4">
</g>
<g id="Frame_5">
</g>
<g id="Frame_6">
</g>
<g id="Frame_7">
</g>
<g id="Frame_8">
</g>
<g id="Frame_9">
</g>
<g id="Frame_10">
</g>
<g id="Frame_11">
</g>
<g id="Frame_12">
</g>
<g id="Frame_13">
</g>
<g id="Frame_14">
</g>
<g id="Frame_15">
</g>
<g id="Frame_16">
</g>
<g id="Frame_17">
</g>
<g id="Frame_18">
</g>
<g id="Frame_19">
</g>
<g id="Frame_20">
</g>
<g id="Frame_21">
</g>
<g id="Frame_22">
</g>
<g id="Frame_23">
</g>
<g id="Frame_24">
</g>
<g id="Frame_25">
</g>
<g id="Frame_26">
</g>
<g id="Frame_27">
</g>
<g id="Frame_28">
</g>
<g id="Frame_29">
</g>
<g id="Frame_30">
</g>
<g id="Frame_Hole_1">
</g>
<g id="Frame_Hole_2">
</g>
<g id="Frame_Hole_3">
</g>
<g id="Frame_Hole_4">
</g>
<g id="Frame_31">
</g>
<g id="Frame_32">
</g>
<g id="Frame_33">
</g>
<g id="Frame_34">
</g>
<g id="Frame_35">
</g>
<g id="Dashed_Frame_1">
</g>
<g id="Dashed_Frame_2">
</g>
<g id="Dashed_Frame_3">
</g>
<g id="Dashed_Frame_4">
</g>
<g id="Dashed_Frame_5">
</g>
<g id="Dashed_Frame_6">
</g>
<g id="Dashed_Frame_7">
</g>
<g id="Dashed_Frame_8">
</g>
<g id="Dashed_Frame_9">
</g>
<g id="Dashed_Frame_10">
</g>
<g id="Dashed_Frame_11">
</g>
<g id="Dashed_Frame_12">
</g>
<g id="Dashed_Frame_13">
</g>
<g id="Dashed_Frame_14">
</g>
<g id="Dashed_Frame_15">
</g>
<g id="Dashed_Frame_16">
</g>
<g id="Dashed_Frame_17">
</g>
<g id="Dashed_Frame_18">
</g>
<g id="Dashed_Frame_19">
</g>
<g id="Dashed_Frame_20">
</g>
<g id="Dashed_Frame_25">
</g>
<g id="Dashed_Frame_26">
</g>
<g id="Dashed_Frame_27">
</g>
<g id="Dashed_Frame_28">
</g>
<g id="Dashed_Frame_29">
</g>
<g id="Dashed_Frame_30">
</g>
<g id="Dashed_Frame_31">
</g>
<g id="Dashed_Frame_32">
</g>
<g id="Dashed_Frame_33">
</g>
<g id="Dashed_Frame_35">
	<g>
		<g>
			<path d="M12,24c-0.133,0-0.26-0.053-0.354-0.146C11.105,23.304,10.382,23,9.64,23H9.5c-3.432,0-6.251-2.674-6.484-6.047
				C1.868,16.727,1,15.713,1,14.5v-0.64c0-0.749-0.31-1.479-0.848-2.001C0.056,11.766,0.001,11.638,0,11.504
				s0.052-0.263,0.146-0.357C0.696,10.605,1,9.882,1,9.14V8.5c0-1.269,0.95-2.319,2.176-2.479C3.855,3.088,6.453,1,9.5,1h0.14
				c0.749,0,1.479-0.31,2.001-0.848C11.735,0.055,11.866,0.006,12,0c0.133,0,0.26,0.053,0.354,0.146C12.895,0.696,13.618,1,14.36,1
				h0.14c3.05,0,5.65,2.093,6.326,5.031C22.085,6.22,23,7.255,23,8.5v0.64c0,0.749,0.31,1.479,0.848,2.001
				c0.097,0.094,0.151,0.222,0.152,0.355s-0.052,0.263-0.146,0.357C23.304,12.394,23,13.117,23,13.86v0.64
				c0,1.213-0.868,2.227-2.016,2.453C20.751,20.326,17.932,23,14.5,23h-0.14c-0.749,0-1.479,0.31-2.001,0.848
				C12.265,23.944,12.136,23.995,12,24z M1.173,11.5C1.703,12.167,2,13.004,2,13.86v0.64C2,15.327,2.673,16,3.5,16
				C3.776,16,4,16.224,4,16.5C4,19.532,6.468,22,9.5,22h0.14c0.855,0,1.694,0.297,2.36,0.827C12.667,22.297,13.504,22,14.36,22h0.14
				c3.032,0,5.5-2.468,5.5-5.5c0-0.276,0.224-0.5,0.5-0.5c0.827,0,1.5-0.673,1.5-1.5v-0.64c0-0.856,0.297-1.694,0.827-2.36
				C22.297,10.833,22,9.996,22,9.14V8.5C22,7.673,21.327,7,20.5,7c-0.244,0-0.542-0.177-0.583-0.417C19.47,3.928,17.191,2,14.5,2
				h-0.14C13.505,2,12.666,1.703,12,1.173C11.333,1.703,10.496,2,9.64,2H9.5C6.809,2,4.53,3.928,4.083,6.583
				C4.042,6.823,3.834,7,3.59,7C2.673,7,2,7.673,2,8.5v0.64C2,9.995,1.703,10.834,1.173,11.5z"/>
		</g>
		<g>
			<g>
				<path d="M12.002,21.559c-0.076,0-0.152-0.018-0.222-0.052c-0.271-0.134-0.555-0.244-0.844-0.325
					c-0.266-0.076-0.42-0.353-0.345-0.618s0.35-0.42,0.618-0.345c0.269,0.077,0.534,0.173,0.791,0.287
					c0.256-0.114,0.521-0.211,0.793-0.288c0.267-0.076,0.543,0.08,0.618,0.345c0.075,0.266-0.079,0.542-0.345,0.618
					c-0.292,0.082-0.575,0.191-0.842,0.325C12.155,21.541,12.078,21.559,12.002,21.559z"/>
			</g>
			<g>
				<path d="M9.318,20.996c-0.007,0-0.015,0-0.022-0.001c-0.673-0.029-1.314-0.205-1.907-0.521c-0.244-0.13-0.336-0.434-0.206-0.677
					c0.13-0.245,0.435-0.335,0.677-0.206c0.46,0.246,0.959,0.383,1.481,0.406c0.275,0.012,0.489,0.245,0.477,0.521
					C9.806,20.787,9.585,20.996,9.318,20.996z M6.291,19.386c-0.152,0-0.303-0.069-0.4-0.201c-0.398-0.532-0.677-1.157-0.805-1.808
					c-0.054-0.271,0.122-0.533,0.394-0.587c0.266-0.058,0.533,0.122,0.587,0.394c0.1,0.504,0.316,0.989,0.625,1.403
					c0.165,0.221,0.12,0.534-0.102,0.699C6.5,19.354,6.396,19.386,6.291,19.386z"/>
			</g>
			<g>
				<path d="M5.5,16C5.224,16,5,15.776,5,15.5V15H4.5C4.224,15,4,14.776,4,14.5S4.224,14,4.5,14h1C5.776,14,6,14.224,6,14.5v1
					C6,15.776,5.776,16,5.5,16z"/>
			</g>
			<g>
				<path d="M4.5,15h-1C3.224,15,3,14.776,3,14.5v-0.64c0-0.109-0.004-0.218-0.012-0.326c-0.02-0.275,0.188-0.515,0.463-0.535
					c0.252-0.023,0.515,0.186,0.535,0.463C3.996,13.594,4,13.728,4,13.86V14h0.5C4.776,14,5,14.224,5,14.5S4.776,15,4.5,15z"/>
			</g>
			<g>
				<path d="M3.3,12.926c-0.218,0-0.419-0.144-0.481-0.363c-0.081-0.287-0.19-0.57-0.326-0.843c-0.07-0.14-0.07-0.306,0-0.445
					c0.136-0.272,0.246-0.557,0.327-0.846c0.075-0.265,0.35-0.421,0.618-0.345c0.266,0.076,0.42,0.353,0.345,0.618
					c-0.077,0.27-0.174,0.536-0.29,0.795c0.116,0.259,0.213,0.523,0.289,0.792c0.075,0.266-0.079,0.542-0.345,0.618
					C3.391,12.92,3.345,12.926,3.3,12.926z"/>
			</g>
			<g>
				<path d="M3.488,10.001c-0.013,0-0.025,0-0.037-0.001C3.176,9.979,2.969,9.74,2.988,9.465C2.996,9.356,3,9.248,3,9.14V8.5
					C3,8.224,3.224,8,3.5,8h1.29l0.13-0.585c0.06-0.269,0.326-0.438,0.597-0.38c0.27,0.06,0.439,0.327,0.38,0.597L5.68,8.608
					C5.629,8.837,5.426,9,5.191,9H4v0.14c0,0.134-0.004,0.266-0.014,0.397C3.967,9.801,3.747,10.001,3.488,10.001z"/>
			</g>
			<g>
				<path d="M5.798,6.493c-0.063,0-0.126-0.012-0.187-0.036C5.354,6.354,5.23,6.063,5.334,5.807C5.558,5.251,5.885,4.755,6.306,4.33
					c0.193-0.193,0.51-0.199,0.707-0.002C7.208,4.522,7.21,4.839,7.015,5.035C6.688,5.364,6.436,5.749,6.262,6.18
					C6.184,6.375,5.996,6.493,5.798,6.493z M7.961,4.306c-0.195,0-0.382-0.116-0.462-0.308C7.394,3.742,7.514,3.45,7.769,3.344
					C8.318,3.116,8.9,3,9.5,3C9.776,3,10,3.224,10,3.5S9.776,4,9.5,4C9.033,4,8.58,4.09,8.153,4.268
					C8.09,4.293,8.025,4.306,7.961,4.306z"/>
			</g>
			<g>
				<path d="M12.931,3.801c-0.045,0-0.091-0.006-0.137-0.019c-0.269-0.076-0.534-0.174-0.793-0.289
					c-0.259,0.116-0.525,0.213-0.795,0.288c-0.271,0.075-0.543-0.082-0.616-0.347c-0.074-0.266,0.08-0.542,0.347-0.616
					c0.286-0.08,0.569-0.189,0.84-0.325c0.141-0.07,0.306-0.069,0.446-0.001c0.272,0.136,0.557,0.246,0.845,0.327
					c0.266,0.076,0.42,0.353,0.345,0.618C13.35,3.657,13.148,3.801,12.931,3.801z"/>
			</g>
			<g>
				<path d="M18.194,6.474c-0.197,0-0.384-0.117-0.463-0.311c-0.175-0.429-0.43-0.813-0.758-1.141
					c-0.194-0.196-0.194-0.513,0.001-0.708c0.195-0.193,0.511-0.194,0.708,0.001c0.421,0.423,0.749,0.918,0.975,1.469
					c0.104,0.256-0.019,0.548-0.273,0.652C18.321,6.462,18.258,6.474,18.194,6.474z M16.026,4.3c-0.063,0-0.128-0.012-0.189-0.037
					C15.412,4.088,14.962,4,14.5,4c-0.276,0-0.506-0.224-0.506-0.5S14.213,3,14.489,3H14.5c0.593,0,1.17,0.113,1.716,0.337
					c0.256,0.105,0.378,0.397,0.273,0.652C16.41,4.183,16.223,4.3,16.026,4.3z"/>
			</g>
			<g>
				<path d="M20.512,9.996c-0.259,0-0.479-0.2-0.498-0.463C20.004,9.401,20,9.271,20,9.14L19.979,9h-1.261
					c-0.244,0-0.452-0.177-0.493-0.417L18.06,7.597c-0.046-0.272,0.138-0.53,0.41-0.576c0.271-0.044,0.53,0.137,0.576,0.41L19.142,8
					h1.269c0.249,0,0.461,0.184,0.495,0.431l0.09,0.64C21,9.246,21.004,9.353,21.012,9.459c0.02,0.275-0.187,0.516-0.462,0.536
					C20.537,9.996,20.524,9.996,20.512,9.996z"/>
			</g>
			<g>
				<path d="M20.699,12.935c-0.045,0-0.091-0.006-0.137-0.019c-0.266-0.076-0.42-0.353-0.345-0.618
					c0.077-0.272,0.175-0.539,0.289-0.795c-0.114-0.255-0.211-0.521-0.288-0.793c-0.075-0.266,0.079-0.542,0.345-0.618
					c0.267-0.075,0.543,0.079,0.618,0.345c0.082,0.293,0.192,0.576,0.326,0.842c0.07,0.142,0.07,0.308,0,0.449
					c-0.135,0.268-0.245,0.551-0.327,0.844C21.118,12.791,20.917,12.935,20.699,12.935z"/>
			</g>
			<g>
				<path d="M20.5,15h-1c-0.276,0-0.5-0.224-0.5-0.5s0.224-0.5,0.5-0.5H20v-0.14c0-0.134,0.004-0.266,0.014-0.397
					c0.021-0.276,0.28-0.488,0.535-0.463c0.275,0.021,0.482,0.26,0.463,0.535C21.004,13.644,21,13.752,21,13.86v0.64
					C21,14.776,20.776,15,20.5,15z"/>
			</g>
			<g>
				<path d="M18.5,16c-0.276,0-0.5-0.224-0.5-0.5v-1c0-0.276,0.224-0.5,0.5-0.5h1c0.276,0,0.5,0.224,0.5,0.5S19.776,15,19.5,15H19
					v0.5C19,15.776,18.776,16,18.5,16z"/>
			</g>
			<g>
				<path d="M14.696,20.995c-0.266,0-0.486-0.208-0.499-0.476c-0.014-0.276,0.199-0.511,0.475-0.523
					c0.521-0.025,1.02-0.164,1.48-0.411c0.241-0.129,0.547-0.04,0.677,0.204c0.131,0.243,0.039,0.546-0.204,0.677
					c-0.593,0.318-1.233,0.496-1.904,0.528C14.712,20.995,14.704,20.995,14.696,20.995z M17.716,19.376
					c-0.104,0-0.208-0.032-0.297-0.098c-0.223-0.164-0.27-0.478-0.105-0.699c0.313-0.422,0.521-0.896,0.622-1.406
					c0.052-0.272,0.313-0.454,0.587-0.395c0.271,0.053,0.447,0.315,0.394,0.586c-0.129,0.658-0.397,1.267-0.798,1.809
					C18.02,19.306,17.868,19.376,17.716,19.376z"/>
			</g>
		</g>
	</g>
</g>
</svg>
