<?xml version="1.0" encoding="iso-8859-1"?>
<!-- Generator: Adobe Illustrator 19.2.1, SVG Export Plug-In . SVG Version: 6.00 Build 0)  -->
<svg version="1.1" xmlns="http://www.w3.org/2000/svg" xmlns:xlink="http://www.w3.org/1999/xlink" x="0px" y="0px"
	 viewBox="0 0 24 24" style="enable-background:new 0 0 24 24;" xml:space="preserve">
<g id="Photo_frame">
</g>
<g id="Photo_frame_2">
</g>
<g id="Photo_frame_3">
</g>
<g id="Photo_frame__4">
</g>
<g id="Photo_frame_5">
	<g id="Layer_6">
	</g>
</g>
<g id="Photo_frame_6">
</g>
<g id="Photo_frame_7">
</g>
<g id="Round_Frame_1">
</g>
<g id="Rectangle_Frame_1">
</g>
<g id="Square_Frame_1">
</g>
<g id="Rectangle_Frame_2">
</g>
<g id="Oval_Frame_1">
</g>
<g id="Round_Frame_2">
</g>
<g id="Rectangle_Frame_3">
</g>
<g id="Rectangle_Frame_4">
</g>
<g id="Rectangle_Frame_5">
</g>
<g id="Square_Frame_2">
</g>
<g id="Rectangle_Frame_6">
</g>
<g id="Rectangle_Frame_7">
</g>
<g id="Oval_Frame_2">
</g>
<g id="Round_Frame_3">
</g>
<g id="Rectangle_Frame_8">
</g>
<g id="Square_Frame_3">
</g>
<g id="Rectangle_Frame_9">
</g>
<g id="Rectangle_Frame_10">
</g>
<g id="Square_Frame_4">
</g>
<g id="Rectangle_Frame_11">
</g>
<g id="Rectangle_Frame_12">
</g>
<g id="Square_Frame_5">
</g>
<g id="Rectangle_Frame_13">
</g>
<g id="Frame_1">
</g>
<g id="Frame_2">
</g>
<g id="Round_Frame_4">
</g>
<g id="Frame_3">
</g>
<g id="Frame_4">
</g>
<g id="Frame_5">
</g>
<g id="Frame_6">
</g>
<g id="Frame_7">
</g>
<g id="Frame_8">
</g>
<g id="Frame_9">
</g>
<g id="Frame_10">
</g>
<g id="Frame_11">
</g>
<g id="Frame_12">
</g>
<g id="Frame_13">
</g>
<g id="Frame_14">
</g>
<g id="Frame_15">
</g>
<g id="Frame_16">
</g>
<g id="Frame_17">
</g>
<g id="Frame_18">
</g>
<g id="Frame_19">
</g>
<g id="Frame_20">
</g>
<g id="Frame_21">
</g>
<g id="Frame_22">
</g>
<g id="Frame_23">
</g>
<g id="Frame_24">
</g>
<g id="Frame_25">
</g>
<g id="Frame_26">
</g>
<g id="Frame_27">
</g>
<g id="Frame_28">
</g>
<g id="Frame_29">
</g>
<g id="Frame_30">
</g>
<g id="Frame_Hole_1">
</g>
<g id="Frame_Hole_2">
</g>
<g id="Frame_Hole_3">
</g>
<g id="Frame_Hole_4">
</g>
<g id="Frame_31">
</g>
<g id="Frame_32">
</g>
<g id="Frame_33">
</g>
<g id="Frame_34">
</g>
<g id="Frame_35">
</g>
<g id="Dashed_Frame_1">
</g>
<g id="Dashed_Frame_2">
</g>
<g id="Dashed_Frame_3">
</g>
<g id="Dashed_Frame_4">
</g>
<g id="Dashed_Frame_5">
</g>
<g id="Dashed_Frame_6">
</g>
<g id="Dashed_Frame_7">
</g>
<g id="Dashed_Frame_8">
</g>
<g id="Dashed_Frame_9">
	<g>
		<g>
			<path d="M12,23.77c-0.021,0-0.041-0.001-0.061-0.004l-3.059-0.374c-0.125-0.015-0.238-0.076-0.32-0.172l-2.015-2.364
				l-1.963-2.429c-0.057-0.069-0.093-0.152-0.105-0.241l-0.457-3.084l-0.736-2.982c-0.02-0.078-0.02-0.16,0-0.238l0.745-3.027
				l0.449-3.04c0.013-0.089,0.049-0.172,0.105-0.241l1.955-2.418l2.022-2.375c0.082-0.096,0.196-0.157,0.32-0.172l3.058-0.373
				c0.041-0.006,0.082-0.006,0.121,0l3.059,0.374c0.125,0.015,0.238,0.076,0.32,0.172l2.015,2.364l1.963,2.429
				c0.057,0.069,0.093,0.152,0.105,0.241l0.457,3.084l0.736,2.982c0.02,0.078,0.02,0.16,0,0.238l-0.745,3.027l-0.449,3.04
				c-0.013,0.089-0.049,0.172-0.105,0.241l-1.955,2.418l-2.022,2.375c-0.082,0.096-0.196,0.157-0.32,0.172l-3.058,0.373
				C12.04,23.769,12.021,23.77,12,23.77z M9.195,22.423L12,22.766l2.804-0.342l1.888-2.217l1.861-2.302l0.438-2.951L19.716,12
				L19,9.091l-0.446-2.995l-1.869-2.313l-1.88-2.206L12,1.234L9.196,1.576L7.309,3.793L5.447,6.095L5.009,9.046L4.284,12L5,14.909
				l0.446,2.995l1.869,2.313L9.195,22.423z"/>
		</g>
		<g>
			<g>
				<path d="M12,22.19c-0.077,0-0.154-0.018-0.225-0.054l-0.894-0.449c-0.247-0.124-0.346-0.424-0.222-0.671
					c0.123-0.248,0.425-0.349,0.671-0.222L12,21.131l0.669-0.336c0.244-0.127,0.548-0.026,0.671,0.222
					c0.124,0.247,0.025,0.547-0.222,0.671l-0.894,0.449C12.154,22.173,12.077,22.19,12,22.19z"/>
			</g>
			<g>
				<path d="M9.315,20.72c-0.104,0-0.21-0.032-0.301-0.101l-1.482-1.114c-0.08-0.06-0.14-0.143-0.173-0.238L7.29,19.063
					c-0.089-0.261,0.051-0.545,0.313-0.635c0.257-0.088,0.545,0.051,0.635,0.313l0.02,0.057l1.359,1.022
					c0.221,0.166,0.265,0.479,0.099,0.7C9.617,20.65,9.467,20.72,9.315,20.72z M7.101,17.442c-0.209,0-0.403-0.131-0.474-0.34
					l-0.064-0.19l-0.744-1.664c-0.112-0.252,0.001-0.548,0.254-0.66c0.248-0.112,0.548,0,0.66,0.254l0.842,1.94
					c0.089,0.262-0.052,0.545-0.313,0.634C7.208,17.434,7.153,17.442,7.101,17.442z M6.122,13.533c-0.012,0-0.023,0-0.034-0.001
					C5.813,13.514,5.604,13.275,5.622,13l0.069-1.033l-0.069-0.966c-0.019-0.275,0.19-0.514,0.466-0.532
					c0.258-0.023,0.514,0.189,0.532,0.466l0.069,1.032l-0.069,1.1C6.603,13.331,6.383,13.533,6.122,13.533z M6.274,9.455
					c-0.068,0-0.138-0.014-0.204-0.043C5.818,9.299,5.705,9.004,5.817,8.751l0.809-1.852C6.714,6.638,6.998,6.5,7.259,6.585
					c0.262,0.088,0.402,0.371,0.314,0.633L7.51,7.406L6.731,9.159C6.648,9.345,6.466,9.455,6.274,9.455z M7.765,5.6
					c-0.054,0-0.107-0.009-0.161-0.026C7.343,5.484,7.202,5.2,7.291,4.938l0.07-0.207c0.032-0.095,0.093-0.178,0.173-0.238
					l1.479-1.112c0.223-0.168,0.535-0.12,0.7,0.099C9.88,3.7,9.836,4.014,9.615,4.18L8.238,5.261C8.167,5.469,7.973,5.6,7.765,5.6z"
					/>
			</g>
			<g>
				<path d="M12.894,3.259c-0.076,0-0.152-0.017-0.225-0.054L12,2.869l-0.669,0.336c-0.246,0.124-0.548,0.026-0.671-0.222
					c-0.124-0.247-0.025-0.547,0.222-0.671l0.894-0.449c0.141-0.072,0.309-0.072,0.449,0l0.894,0.449
					c0.247,0.124,0.346,0.424,0.222,0.671C13.253,3.158,13.076,3.259,12.894,3.259z"/>
			</g>
			<g>
				<path d="M14.686,20.72c-0.151,0-0.302-0.069-0.399-0.199c-0.166-0.221-0.122-0.534,0.099-0.7l1.377-1.081
					c0.09-0.262,0.374-0.397,0.635-0.313c0.261,0.089,0.401,0.373,0.313,0.635l-0.07,0.207c-0.032,0.095-0.093,0.178-0.173,0.238
					l-1.479,1.112C14.896,20.688,14.79,20.72,14.686,20.72z M16.9,17.441c-0.053,0-0.106-0.009-0.159-0.026
					c-0.262-0.088-0.402-0.371-0.314-0.633l0.063-0.188l0.778-1.753c0.113-0.252,0.409-0.365,0.661-0.253
					c0.252,0.113,0.365,0.408,0.253,0.661l-0.809,1.852C17.304,17.31,17.109,17.441,16.9,17.441z M17.878,13.532
					c-0.261,0-0.48-0.202-0.498-0.467l-0.069-1.032l0.069-1.1c0.019-0.276,0.283-0.489,0.532-0.466
					c0.275,0.019,0.484,0.257,0.466,0.532l-0.069,1.033l0.069,0.966c0.019,0.275-0.19,0.514-0.466,0.532
					C17.901,13.532,17.89,13.532,17.878,13.532z M17.725,9.455c-0.191,0-0.374-0.11-0.457-0.297l-0.842-1.94
					c-0.089-0.262,0.052-0.545,0.313-0.634c0.262-0.087,0.546,0.052,0.634,0.313l0.064,0.19l0.744,1.664
					c0.112,0.252-0.001,0.548-0.254,0.66C17.862,9.441,17.793,9.455,17.725,9.455z M16.236,5.598c-0.208,0-0.402-0.131-0.474-0.339
					l-0.02-0.057L14.384,4.18c-0.221-0.166-0.265-0.479-0.099-0.7c0.166-0.219,0.479-0.266,0.7-0.099l1.482,1.114
					c0.08,0.06,0.14,0.143,0.173,0.238l0.069,0.203c0.089,0.261-0.051,0.545-0.313,0.635C16.345,5.589,16.29,5.598,16.236,5.598z"/>
			</g>
		</g>
	</g>
</g>
<g id="Dashed_Frame_10">
</g>
<g id="Dashed_Frame_11">
</g>
<g id="Dashed_Frame_12">
</g>
<g id="Dashed_Frame_13">
</g>
<g id="Dashed_Frame_14">
</g>
<g id="Dashed_Frame_15">
</g>
<g id="Dashed_Frame_16">
</g>
<g id="Dashed_Frame_17">
</g>
<g id="Dashed_Frame_18">
</g>
<g id="Dashed_Frame_19">
</g>
<g id="Dashed_Frame_20">
</g>
<g id="Dashed_Frame_25">
</g>
<g id="Dashed_Frame_26">
</g>
<g id="Dashed_Frame_27">
</g>
<g id="Dashed_Frame_28">
</g>
<g id="Dashed_Frame_29">
</g>
<g id="Dashed_Frame_30">
</g>
<g id="Dashed_Frame_31">
</g>
<g id="Dashed_Frame_32">
</g>
<g id="Dashed_Frame_33">
</g>
<g id="Dashed_Frame_35">
</g>
</svg>
