<?xml version="1.0" encoding="iso-8859-1"?>
<!-- Generator: Adobe Illustrator 19.2.1, SVG Export Plug-In . SVG Version: 6.00 Build 0)  -->
<svg version="1.1" xmlns="http://www.w3.org/2000/svg" xmlns:xlink="http://www.w3.org/1999/xlink" x="0px" y="0px"
	 viewBox="0 0 24 24" style="enable-background:new 0 0 24 24;" xml:space="preserve">
<g id="Photo_frame">
</g>
<g id="Photo_frame_2">
</g>
<g id="Photo_frame_3">
</g>
<g id="Photo_frame__4">
</g>
<g id="Photo_frame_5">
	<g id="Layer_6">
	</g>
</g>
<g id="Photo_frame_6">
</g>
<g id="Photo_frame_7">
</g>
<g id="Round_Frame_1">
</g>
<g id="Rectangle_Frame_1">
</g>
<g id="Square_Frame_1">
</g>
<g id="Rectangle_Frame_2">
</g>
<g id="Oval_Frame_1">
</g>
<g id="Round_Frame_2">
</g>
<g id="Rectangle_Frame_3">
</g>
<g id="Rectangle_Frame_4">
</g>
<g id="Rectangle_Frame_5">
</g>
<g id="Square_Frame_2">
</g>
<g id="Rectangle_Frame_6">
</g>
<g id="Rectangle_Frame_7">
</g>
<g id="Oval_Frame_2">
</g>
<g id="Round_Frame_3">
</g>
<g id="Rectangle_Frame_8">
</g>
<g id="Square_Frame_3">
</g>
<g id="Rectangle_Frame_9">
</g>
<g id="Rectangle_Frame_10">
</g>
<g id="Square_Frame_4">
</g>
<g id="Rectangle_Frame_11">
</g>
<g id="Rectangle_Frame_12">
</g>
<g id="Square_Frame_5">
</g>
<g id="Rectangle_Frame_13">
</g>
<g id="Frame_1">
</g>
<g id="Frame_2">
</g>
<g id="Round_Frame_4">
</g>
<g id="Frame_3">
</g>
<g id="Frame_4">
</g>
<g id="Frame_5">
</g>
<g id="Frame_6">
</g>
<g id="Frame_7">
</g>
<g id="Frame_8">
</g>
<g id="Frame_9">
</g>
<g id="Frame_10">
</g>
<g id="Frame_11">
</g>
<g id="Frame_12">
</g>
<g id="Frame_13">
</g>
<g id="Frame_14">
</g>
<g id="Frame_15">
</g>
<g id="Frame_16">
</g>
<g id="Frame_17">
</g>
<g id="Frame_18">
</g>
<g id="Frame_19">
</g>
<g id="Frame_20">
</g>
<g id="Frame_21">
</g>
<g id="Frame_22">
</g>
<g id="Frame_23">
</g>
<g id="Frame_24">
</g>
<g id="Frame_25">
</g>
<g id="Frame_26">
</g>
<g id="Frame_27">
</g>
<g id="Frame_28">
</g>
<g id="Frame_29">
</g>
<g id="Frame_30">
</g>
<g id="Frame_Hole_1">
</g>
<g id="Frame_Hole_2">
</g>
<g id="Frame_Hole_3">
</g>
<g id="Frame_Hole_4">
</g>
<g id="Frame_31">
</g>
<g id="Frame_32">
</g>
<g id="Frame_33">
</g>
<g id="Frame_34">
</g>
<g id="Frame_35">
</g>
<g id="Dashed_Frame_1">
	<g>
		<g>
			<path d="M12,24c-5.238,0-9.5-5.383-9.5-12S6.762,0,12,0s9.5,5.383,9.5,12S17.238,24,12,24z M12,1C7.313,1,3.5,5.935,3.5,12
				S7.313,23,12,23s8.5-4.935,8.5-11S16.687,1,12,1z"/>
		</g>
		<g>
			<path d="M12.063,22H12c-0.371,0-0.744-0.037-1.111-0.109c-0.271-0.054-0.447-0.316-0.394-0.587
				c0.054-0.271,0.315-0.448,0.588-0.394C11.386,20.97,11.694,21,12,21c0.276,0,0.531,0.224,0.531,0.5S12.339,22,12.063,22z
				 M14.047,21.587c-0.196,0-0.381-0.115-0.461-0.308c-0.106-0.255,0.014-0.548,0.269-0.654c0.283-0.117,0.562-0.264,0.83-0.433
				c0.233-0.148,0.542-0.079,0.69,0.154c0.148,0.233,0.079,0.542-0.155,0.689c-0.315,0.2-0.645,0.373-0.98,0.513
				C14.176,21.574,14.111,21.587,14.047,21.587z M9.101,21.147c-0.09,0-0.181-0.024-0.263-0.075c-0.3-0.187-0.597-0.403-0.882-0.646
				c-0.21-0.179-0.236-0.494-0.057-0.705c0.179-0.211,0.494-0.235,0.705-0.057c0.248,0.211,0.504,0.398,0.762,0.559
				c0.235,0.146,0.307,0.454,0.161,0.688C9.432,21.063,9.268,21.147,9.101,21.147z M16.491,19.781c-0.118,0-0.235-0.041-0.33-0.125
				c-0.208-0.182-0.228-0.498-0.045-0.705c0.208-0.236,0.405-0.49,0.59-0.759c0.156-0.229,0.468-0.285,0.695-0.129
				c0.227,0.157,0.285,0.468,0.128,0.695c-0.208,0.302-0.429,0.587-0.662,0.853C16.768,19.724,16.629,19.781,16.491,19.781z
				 M6.919,19.028c-0.158,0-0.313-0.074-0.411-0.214c-0.201-0.289-0.391-0.594-0.565-0.912c-0.133-0.242-0.045-0.546,0.197-0.68
				c0.241-0.133,0.546-0.044,0.679,0.197c0.158,0.287,0.328,0.563,0.51,0.822c0.158,0.227,0.103,0.538-0.124,0.696
				C7.118,18.999,7.018,19.028,6.919,19.028z M18.089,17.185c-0.064,0-0.13-0.013-0.193-0.039c-0.255-0.106-0.375-0.399-0.269-0.653
				c0.124-0.297,0.236-0.603,0.335-0.917c0.083-0.264,0.362-0.406,0.627-0.326c0.263,0.083,0.409,0.364,0.326,0.627
				c-0.108,0.344-0.231,0.679-0.366,1.001C18.47,17.069,18.284,17.185,18.089,17.185z M5.58,16.286
				c-0.211,0-0.408-0.135-0.476-0.347c-0.107-0.333-0.201-0.676-0.281-1.028c-0.061-0.269,0.108-0.537,0.377-0.598
				c0.272-0.064,0.538,0.107,0.599,0.377c0.073,0.323,0.16,0.637,0.258,0.942c0.084,0.264-0.06,0.545-0.323,0.629
				C5.682,16.278,5.63,16.286,5.58,16.286z M18.883,14.234c-0.022,0-0.045-0.001-0.068-0.005c-0.274-0.037-0.465-0.289-0.428-0.563
				c0.044-0.32,0.075-0.646,0.094-0.976c0.015-0.276,0.231-0.502,0.527-0.472c0.275,0.015,0.487,0.251,0.471,0.526
				c-0.02,0.357-0.054,0.71-0.101,1.056C19.344,14.053,19.129,14.234,18.883,14.234z M5.022,13.28c-0.262,0-0.482-0.204-0.499-0.47
				C4.508,12.542,4.5,12.271,4.5,11.999l0.002-0.247c0.005-0.273,0.228-0.491,0.5-0.491c0.003,0,0.006,0,0.009,0
				c0.276,0.005,0.496,0.233,0.491,0.509L5.5,12c0,0.252,0.007,0.503,0.022,0.75c0.017,0.275-0.193,0.513-0.469,0.529
				C5.043,13.28,5.033,13.28,5.022,13.28z M18.932,11.18c-0.253,0-0.471-0.191-0.497-0.449c-0.034-0.33-0.081-0.653-0.14-0.97
				c-0.05-0.271,0.128-0.533,0.4-0.583c0.274-0.052,0.533,0.128,0.583,0.399c0.064,0.344,0.115,0.694,0.151,1.052
				c0.028,0.274-0.172,0.521-0.447,0.548C18.966,11.179,18.949,11.18,18.932,11.18z M5.203,10.23c-0.029,0-0.06-0.003-0.089-0.008
				c-0.272-0.05-0.452-0.31-0.403-0.581c0.064-0.354,0.143-0.7,0.233-1.037c0.072-0.269,0.346-0.426,0.613-0.353
				c0.267,0.071,0.424,0.346,0.353,0.612c-0.084,0.312-0.156,0.63-0.215,0.955C5.65,10.062,5.44,10.23,5.203,10.23z M18.242,8.203
				c-0.203,0-0.393-0.124-0.468-0.325c-0.115-0.309-0.244-0.607-0.384-0.894c-0.121-0.248-0.019-0.548,0.229-0.669
				c0.249-0.12,0.548-0.02,0.669,0.229c0.154,0.315,0.295,0.644,0.422,0.983c0.097,0.259-0.035,0.547-0.293,0.644
				C18.359,8.193,18.3,8.203,18.242,8.203z M6.133,7.321c-0.073,0-0.146-0.016-0.216-0.05C5.668,7.152,5.563,6.854,5.683,6.604
				c0.158-0.327,0.329-0.641,0.513-0.941c0.145-0.234,0.452-0.312,0.688-0.164C7.12,5.644,7.193,5.951,7.049,6.187
				C6.882,6.458,6.727,6.742,6.584,7.038C6.498,7.217,6.319,7.321,6.133,7.321z M16.758,5.537c-0.147,0-0.293-0.064-0.392-0.188
				c-0.202-0.255-0.416-0.492-0.641-0.712c-0.198-0.192-0.202-0.509-0.009-0.707c0.194-0.196,0.51-0.201,0.707-0.008
				c0.253,0.247,0.498,0.518,0.726,0.804c0.171,0.217,0.136,0.531-0.081,0.703C16.977,5.502,16.867,5.537,16.758,5.537z
				 M7.881,4.823c-0.128,0-0.257-0.05-0.355-0.147C7.332,4.479,7.333,4.163,7.529,3.969c0.262-0.261,0.54-0.5,0.826-0.713
				c0.222-0.165,0.534-0.12,0.7,0.104c0.165,0.222,0.119,0.534-0.103,0.699c-0.249,0.185-0.49,0.394-0.719,0.619
				C8.136,4.775,8.008,4.823,7.881,4.823z M14.426,3.588c-0.076,0-0.152-0.018-0.225-0.054c-0.281-0.142-0.571-0.257-0.862-0.341
				c-0.265-0.078-0.417-0.355-0.34-0.62c0.077-0.266,0.35-0.413,0.62-0.341c0.349,0.103,0.697,0.24,1.032,0.409
				c0.247,0.124,0.346,0.425,0.221,0.671C14.785,3.487,14.609,3.588,14.426,3.588z M10.462,3.231c-0.214,0-0.412-0.139-0.478-0.354
				c-0.081-0.264,0.067-0.544,0.332-0.624c0.354-0.109,0.722-0.185,1.092-0.224c0.275-0.029,0.521,0.17,0.55,0.444
				s-0.169,0.521-0.444,0.55c-0.306,0.032-0.61,0.095-0.904,0.185C10.56,3.225,10.51,3.231,10.462,3.231z"/>
		</g>
	</g>
</g>
<g id="Dashed_Frame_2">
</g>
<g id="Dashed_Frame_3">
</g>
<g id="Dashed_Frame_4">
</g>
<g id="Dashed_Frame_5">
</g>
<g id="Dashed_Frame_6">
</g>
<g id="Dashed_Frame_7">
</g>
<g id="Dashed_Frame_8">
</g>
<g id="Dashed_Frame_9">
</g>
<g id="Dashed_Frame_10">
</g>
<g id="Dashed_Frame_11">
</g>
<g id="Dashed_Frame_12">
</g>
<g id="Dashed_Frame_13">
</g>
<g id="Dashed_Frame_14">
</g>
<g id="Dashed_Frame_15">
</g>
<g id="Dashed_Frame_16">
</g>
<g id="Dashed_Frame_17">
</g>
<g id="Dashed_Frame_18">
</g>
<g id="Dashed_Frame_19">
</g>
<g id="Dashed_Frame_20">
</g>
<g id="Dashed_Frame_25">
</g>
<g id="Dashed_Frame_26">
</g>
<g id="Dashed_Frame_27">
</g>
<g id="Dashed_Frame_28">
</g>
<g id="Dashed_Frame_29">
</g>
<g id="Dashed_Frame_30">
</g>
<g id="Dashed_Frame_31">
</g>
<g id="Dashed_Frame_32">
</g>
<g id="Dashed_Frame_33">
</g>
<g id="Dashed_Frame_35">
</g>
</svg>
