<?xml version="1.0" encoding="iso-8859-1"?>
<!-- Generator: Adobe Illustrator 19.2.1, SVG Export Plug-In . SVG Version: 6.00 Build 0)  -->
<svg version="1.1" xmlns="http://www.w3.org/2000/svg" xmlns:xlink="http://www.w3.org/1999/xlink" x="0px" y="0px"
	 viewBox="0 0 24 24" style="enable-background:new 0 0 24 24;" xml:space="preserve">
<g id="Dashed_Frame_21">
</g>
<g id="Dashed_Frame_22">
</g>
<g id="Dashed_Frame_23">
</g>
<g id="Dashed_Frame_24">
	<g>
		<g>
			<path d="M12,21c-1.976,0-3.994-0.367-5.684-1.035C6.125,19.89,6,19.705,6,19.5C6,17.57,4.43,16,2.5,16h-1
				c-0.175,0-0.338-0.092-0.428-0.241C0.371,14.597,0,13.297,0,12c0-1.286,0.36-2.536,1.072-3.714
				c0.089-0.148,0.25-0.24,0.423-0.242L2.53,8.035C4.443,8.018,6,6.448,6,4.535c0-0.205,0.125-0.424,0.316-0.5
				c3.379-1.335,7.988-1.335,11.367,0C17.875,4.11,18,4.295,18,4.5c0,1.948,1.557,3.518,3.469,3.535l1.036,0.009
				c0.173,0.001,0.334,0.093,0.423,0.242C23.64,9.464,24,10.714,24,12s-0.36,2.536-1.072,3.715c-0.089,0.148-0.25,0.239-0.423,0.241
				l-1.035,0.01C19.557,15.982,18,17.552,18,19.465c0,0.205-0.125,0.425-0.316,0.5C15.994,20.633,13.976,21,12,21z M6.986,19.149
				c3.023,1.1,7.004,1.1,10.027,0c0.177-2.331,2.104-4.164,4.447-4.184l0.749-0.007C22.734,14.01,23,13.016,23,12
				s-0.266-2.01-0.79-2.958l-0.75-0.007c-2.354-0.021-4.287-1.87-4.449-4.186C13.988,3.751,10.009,3.751,6.986,4.85
				C6.81,7.181,4.883,9.014,2.539,9.035L1.79,9.042C1.266,9.99,1,10.984,1,12c0,1.026,0.272,2.058,0.789,3H2.5
				C4.863,15,6.808,16.831,6.986,19.149z M22.5,15.456h0.01H22.5z"/>
		</g>
		<g>
			<g>
				<path d="M9.776,18.821c-0.026,0-0.053-0.002-0.08-0.006c-0.52-0.083-1.031-0.195-1.521-0.333
					c-0.171-0.049-0.304-0.185-0.349-0.356c-0.114-0.445-0.286-0.875-0.509-1.276c-0.134-0.241-0.047-0.545,0.195-0.68
					c0.237-0.132,0.545-0.048,0.68,0.195c0.216,0.389,0.391,0.801,0.522,1.227c0.369,0.095,0.752,0.174,1.14,0.235
					c0.272,0.044,0.458,0.3,0.415,0.573C10.229,18.646,10.018,18.821,9.776,18.821z"/>
			</g>
			<g>
				<path d="M6.991,16.026c-0.138,0-0.275-0.057-0.375-0.169c-0.404-0.458-0.879-0.843-1.409-1.145
					c-0.24-0.137-0.324-0.441-0.188-0.682c0.136-0.241,0.441-0.326,0.682-0.188c0.627,0.356,1.187,0.811,1.665,1.352
					c0.183,0.207,0.163,0.522-0.044,0.706C7.228,15.985,7.109,16.026,6.991,16.026z"/>
			</g>
			<g>
				<path d="M4.236,14.256c-0.048,0-0.096-0.007-0.144-0.021c-0.442-0.133-0.897-0.21-1.354-0.229
					c-0.205-0.009-0.384-0.142-0.452-0.336C2.102,13.135,2.004,12.585,2,12.037c-0.002-0.276,0.22-0.501,0.496-0.504
					c0.277-0.002,0.502,0.22,0.504,0.496c0.003,0.334,0.049,0.67,0.137,1.002c0.42,0.041,0.837,0.123,1.243,0.246
					c0.265,0.079,0.415,0.358,0.335,0.622C4.65,14.116,4.451,14.256,4.236,14.256z"/>
			</g>
			<g>
				<path d="M2.5,12.5C2.224,12.5,2,12.276,2,12c0-0.552,0.097-1.103,0.287-1.638c0.068-0.192,0.246-0.324,0.45-0.332
					C3.194,10.011,3.649,9.933,4.09,9.8c0.264-0.081,0.543,0.07,0.623,0.333c0.08,0.264-0.069,0.543-0.334,0.624
					c-0.406,0.124-0.824,0.206-1.246,0.247C3.045,11.333,3,11.667,3,12C3,12.276,2.776,12.5,2.5,12.5z"/>
			</g>
			<g>
				<path d="M5.46,10.25c-0.173,0-0.342-0.09-0.435-0.252c-0.137-0.24-0.053-0.545,0.187-0.682C5.746,9.01,6.224,8.621,6.63,8.157
					C6.814,7.95,7.129,7.93,7.336,8.112S7.563,8.61,7.382,8.817c-0.48,0.546-1.043,1.006-1.674,1.366
					C5.63,10.229,5.545,10.25,5.46,10.25z"/>
			</g>
			<g>
				<path d="M7.771,7.894c-0.081,0-0.164-0.02-0.24-0.061C7.288,7.7,7.199,7.396,7.332,7.154c0.221-0.404,0.39-0.835,0.502-1.279
					c0.043-0.174,0.177-0.311,0.35-0.359c0.489-0.137,1.001-0.25,1.521-0.333c0.267-0.048,0.528,0.142,0.573,0.415
					c0.043,0.272-0.143,0.529-0.415,0.573c-0.388,0.062-0.77,0.141-1.14,0.236C8.596,6.831,8.423,7.242,8.209,7.633
					C8.118,7.799,7.947,7.894,7.771,7.894z"/>
			</g>
			<g>
				<path d="M11.045,6.033c-0.261,0-0.48-0.202-0.498-0.466c-0.019-0.275,0.189-0.514,0.465-0.533c0.658-0.044,1.318-0.044,1.975,0
					c0.275,0.019,0.483,0.257,0.465,0.533c-0.02,0.276-0.264,0.476-0.533,0.465c-0.609-0.042-1.227-0.042-1.838,0
					C11.068,6.032,11.057,6.033,11.045,6.033z"/>
			</g>
			<g>
				<path d="M16.234,7.893c-0.177,0-0.349-0.095-0.439-0.261c-0.212-0.391-0.384-0.801-0.513-1.224
					c-0.368-0.094-0.751-0.174-1.14-0.236c-0.273-0.044-0.458-0.301-0.414-0.573c0.043-0.272,0.307-0.458,0.572-0.414
					c0.523,0.084,1.035,0.196,1.522,0.333c0.172,0.048,0.305,0.185,0.349,0.358c0.113,0.443,0.281,0.873,0.502,1.278
					c0.132,0.243,0.042,0.546-0.201,0.678C16.397,7.873,16.315,7.893,16.234,7.893z"/>
			</g>
			<g>
				<path d="M18.538,10.247c-0.085,0-0.17-0.021-0.249-0.066c-0.627-0.359-1.188-0.819-1.668-1.366
					c-0.182-0.208-0.161-0.523,0.047-0.706c0.206-0.181,0.522-0.162,0.705,0.046c0.406,0.464,0.882,0.853,1.414,1.158
					c0.239,0.137,0.322,0.442,0.185,0.682C18.88,10.156,18.711,10.247,18.538,10.247z"/>
			</g>
			<g>
				<path d="M19.766,14.222c-0.215,0-0.413-0.139-0.479-0.355c-0.08-0.264,0.069-0.543,0.334-0.623
					c0.406-0.123,0.824-0.206,1.246-0.247C20.955,12.667,21,12.333,21,12c0-0.333-0.045-0.667-0.133-0.996
					c-0.424-0.042-0.842-0.125-1.247-0.249c-0.265-0.081-0.413-0.36-0.333-0.624c0.081-0.263,0.362-0.415,0.624-0.332
					c0.438,0.133,0.893,0.21,1.353,0.23c0.203,0.009,0.382,0.14,0.449,0.332C21.903,10.897,22,11.448,22,12
					s-0.097,1.104-0.287,1.639c-0.068,0.191-0.246,0.323-0.45,0.332c-0.457,0.019-0.912,0.096-1.353,0.229
					C19.862,14.215,19.813,14.222,19.766,14.222z"/>
			</g>
			<g>
				<path d="M16.995,16.013c-0.117,0-0.234-0.041-0.33-0.124c-0.207-0.183-0.228-0.498-0.046-0.706
					c0.479-0.546,1.042-1.006,1.673-1.366c0.236-0.137,0.544-0.057,0.682,0.186c0.138,0.239,0.055,0.545-0.186,0.682
					c-0.534,0.306-1.011,0.696-1.417,1.159C17.272,15.955,17.134,16.013,16.995,16.013z"/>
			</g>
			<g>
				<path d="M14.215,18.823c-0.241,0-0.453-0.175-0.492-0.421c-0.044-0.272,0.141-0.528,0.414-0.572
					c0.387-0.063,0.77-0.142,1.14-0.236c0.128-0.425,0.301-0.837,0.515-1.228c0.133-0.243,0.438-0.33,0.679-0.198
					c0.242,0.133,0.331,0.437,0.198,0.679c-0.221,0.403-0.39,0.833-0.502,1.278c-0.043,0.174-0.177,0.312-0.35,0.359
					c-0.489,0.137-1.001,0.249-1.521,0.332C14.269,18.821,14.241,18.823,14.215,18.823z"/>
			</g>
			<g>
				<path d="M12,19c-0.33,0-0.66-0.011-0.989-0.034c-0.275-0.02-0.483-0.259-0.464-0.534c0.02-0.276,0.279-0.484,0.534-0.464
					c0.61,0.043,1.225,0.043,1.837,0c0.255-0.022,0.515,0.188,0.534,0.464c0.02,0.275-0.188,0.515-0.464,0.534
					C12.659,18.989,12.329,19,12,19z"/>
			</g>
		</g>
	</g>
</g>
<g id="Dashed_Frame_34">
</g>
</svg>
