<?xml version="1.0" encoding="iso-8859-1"?>
<!-- Generator: Adobe Illustrator 19.2.1, SVG Export Plug-In . SVG Version: 6.00 Build 0)  -->
<svg version="1.1" xmlns="http://www.w3.org/2000/svg" xmlns:xlink="http://www.w3.org/1999/xlink" x="0px" y="0px"
	 viewBox="0 0 24 24" style="enable-background:new 0 0 24 24;" xml:space="preserve">
<g id="Photo_frame">
</g>
<g id="Photo_frame_2">
</g>
<g id="Photo_frame_3">
</g>
<g id="Photo_frame__4">
</g>
<g id="Photo_frame_5">
	<g id="Layer_6">
	</g>
</g>
<g id="Photo_frame_6">
</g>
<g id="Photo_frame_7">
</g>
<g id="Round_Frame_1">
</g>
<g id="Rectangle_Frame_1">
</g>
<g id="Square_Frame_1">
</g>
<g id="Rectangle_Frame_2">
</g>
<g id="Oval_Frame_1">
</g>
<g id="Round_Frame_2">
</g>
<g id="Rectangle_Frame_3">
</g>
<g id="Rectangle_Frame_4">
</g>
<g id="Rectangle_Frame_5">
</g>
<g id="Square_Frame_2">
</g>
<g id="Rectangle_Frame_6">
</g>
<g id="Rectangle_Frame_7">
</g>
<g id="Oval_Frame_2">
</g>
<g id="Round_Frame_3">
</g>
<g id="Rectangle_Frame_8">
</g>
<g id="Square_Frame_3">
</g>
<g id="Rectangle_Frame_9">
</g>
<g id="Rectangle_Frame_10">
</g>
<g id="Square_Frame_4">
</g>
<g id="Rectangle_Frame_11">
</g>
<g id="Rectangle_Frame_12">
</g>
<g id="Square_Frame_5">
</g>
<g id="Rectangle_Frame_13">
</g>
<g id="Frame_1">
</g>
<g id="Frame_2">
</g>
<g id="Round_Frame_4">
</g>
<g id="Frame_3">
</g>
<g id="Frame_4">
</g>
<g id="Frame_5">
</g>
<g id="Frame_6">
</g>
<g id="Frame_7">
</g>
<g id="Frame_8">
</g>
<g id="Frame_9">
</g>
<g id="Frame_10">
</g>
<g id="Frame_11">
</g>
<g id="Frame_12">
</g>
<g id="Frame_13">
</g>
<g id="Frame_14">
</g>
<g id="Frame_15">
</g>
<g id="Frame_16">
</g>
<g id="Frame_17">
</g>
<g id="Frame_18">
</g>
<g id="Frame_19">
</g>
<g id="Frame_20">
</g>
<g id="Frame_21">
</g>
<g id="Frame_22">
</g>
<g id="Frame_23">
</g>
<g id="Frame_24">
</g>
<g id="Frame_25">
</g>
<g id="Frame_26">
</g>
<g id="Frame_27">
</g>
<g id="Frame_28">
</g>
<g id="Frame_29">
</g>
<g id="Frame_30">
</g>
<g id="Frame_Hole_1">
</g>
<g id="Frame_Hole_2">
</g>
<g id="Frame_Hole_3">
</g>
<g id="Frame_Hole_4">
</g>
<g id="Frame_31">
</g>
<g id="Frame_32">
</g>
<g id="Frame_33">
</g>
<g id="Frame_34">
</g>
<g id="Frame_35">
</g>
<g id="Dashed_Frame_1">
</g>
<g id="Dashed_Frame_2">
</g>
<g id="Dashed_Frame_3">
</g>
<g id="Dashed_Frame_4">
</g>
<g id="Dashed_Frame_5">
</g>
<g id="Dashed_Frame_6">
</g>
<g id="Dashed_Frame_7">
</g>
<g id="Dashed_Frame_8">
</g>
<g id="Dashed_Frame_9">
</g>
<g id="Dashed_Frame_10">
</g>
<g id="Dashed_Frame_11">
</g>
<g id="Dashed_Frame_12">
</g>
<g id="Dashed_Frame_13">
</g>
<g id="Dashed_Frame_14">
</g>
<g id="Dashed_Frame_15">
</g>
<g id="Dashed_Frame_16">
</g>
<g id="Dashed_Frame_17">
</g>
<g id="Dashed_Frame_18">
</g>
<g id="Dashed_Frame_19">
</g>
<g id="Dashed_Frame_20">
</g>
<g id="Dashed_Frame_25">
</g>
<g id="Dashed_Frame_26">
</g>
<g id="Dashed_Frame_27">
</g>
<g id="Dashed_Frame_28">
</g>
<g id="Dashed_Frame_29">
</g>
<g id="Dashed_Frame_30">
</g>
<g id="Dashed_Frame_31">
</g>
<g id="Dashed_Frame_32">
	<g>
		<g>
			<path d="M14,19.722c-0.118,0-0.234-0.042-0.325-0.12c-0.464-0.396-1.052-0.627-1.667-0.602c-0.672-0.01-1.219,0.204-1.683,0.602
				c-0.109,0.095-0.257,0.132-0.398,0.115l-1.5-0.222C8.182,19.458,8,19.248,8,19c0-0.552-0.448-1-1-1c-1.103,0-2-0.897-2-2H1.5
				C1.224,16,1,15.776,1,15.5v-1.388c-0.677-0.505-1.053-1.304-0.994-2.146C-0.053,11.184,0.323,10.392,1,9.888V8.5
				C1,8.224,1.224,8,1.5,8H5c0-1.103,0.897-2,2-2c0.552,0,1-0.448,1-1c0-0.248,0.182-0.458,0.427-0.495l1.5-0.222
				c0.142-0.018,0.289,0.021,0.398,0.115C10.789,4.795,11.379,4.983,11.992,5c0.666,0,1.219-0.205,1.683-0.602
				c0.109-0.094,0.258-0.132,0.398-0.115l1.5,0.222C15.818,4.542,16,4.752,16,5c0,0.552,0.448,1,1,1c1.103,0,2,0.897,2,2h3.5
				C22.776,8,23,8.224,23,8.5v1.388c0.676,0.505,1.052,1.303,0.994,2.146c0.058,0.782-0.318,1.574-0.994,2.078V15.5
				c0,0.276-0.224,0.5-0.5,0.5H19c0,1.103-0.897,2-2,2c-0.552,0-1,0.448-1,1c0,0.248-0.182,0.458-0.427,0.495l-1.5,0.222
				C14.049,19.72,14.024,19.722,14,19.722z M8.951,18.562l0.907,0.134C10.462,18.244,11.196,18,11.954,18
				c0.034,0.001,0.071,0,0.105,0c0.746,0,1.479,0.244,2.082,0.695l0.907-0.134C15.249,17.669,16.048,17,17,17c0.552,0,1-0.448,1-1
				v-0.5c0-0.276,0.224-0.5,0.5-0.5H22v-1.155c0-0.178,0.095-0.343,0.248-0.432c0.5-0.291,0.786-0.819,0.748-1.379
				c0.038-0.628-0.248-1.156-0.748-1.447C22.095,10.498,22,10.333,22,10.155V9h-3.5C18.224,9,18,8.776,18,8.5V8c0-0.552-0.448-1-1-1
				c-0.952,0-1.751-0.669-1.951-1.562l-0.907-0.134C13.523,5.766,12.816,6.008,11.992,6c-0.799-0.001-1.517-0.234-2.134-0.695
				L8.951,5.438C8.751,6.331,7.952,7,7,7C6.448,7,6,7.448,6,8v0.5C6,8.776,5.776,9,5.5,9H2v1.155c0,0.178-0.095,0.343-0.248,0.432
				c-0.501,0.292-0.787,0.819-0.748,1.379c-0.039,0.628,0.247,1.155,0.748,1.447C1.905,13.502,2,13.667,2,13.845V15h3.5
				C5.776,15,6,15.224,6,15.5V16c0,0.552,0.448,1,1,1C7.952,17,8.751,17.669,8.951,18.562z"/>
		</g>
		<g>
			<g>
				<path d="M4.5,14h-1C3.224,14,3,13.776,3,13.5v-0.518l-0.745-0.434c-0.165-0.097-0.262-0.277-0.248-0.468l0.007-0.087
					l-0.009-0.063c-0.027-0.2,0.068-0.397,0.243-0.5l0.748-0.435l0.003-0.499C3,10.223,3.224,10,3.499,10h1
					c0.276,0,0.5,0.224,0.5,0.5S4.775,11,4.499,11H3.996l-0.001,0.287c-0.001,0.177-0.096,0.34-0.248,0.43L3.28,11.988l0.471,0.273
					C3.905,12.352,4,12.517,4,12.694V13h0.5C4.776,13,5,13.224,5,13.5S4.776,14,4.5,14z"/>
			</g>
			<g>
				<path d="M17.356,11h-2.143c-0.276,0-0.5-0.224-0.5-0.5s0.224-0.5,0.5-0.5h2.143c0.276,0,0.5,0.224,0.5,0.5S17.633,11,17.356,11z
					 M13.07,11h-2.143c-0.276,0-0.5-0.224-0.5-0.5s0.224-0.5,0.5-0.5h2.143c0.276,0,0.5,0.224,0.5,0.5S13.347,11,13.07,11z
					 M8.785,11H6.642c-0.276,0-0.5-0.224-0.5-0.5s0.224-0.5,0.5-0.5h2.144c0.276,0,0.5,0.224,0.5,0.5S9.062,11,8.785,11z"/>
			</g>
			<g>
				<path d="M20.502,14h-1c-0.276,0-0.5-0.224-0.5-0.5s0.224-0.5,0.5-0.5h0.503l0.001-0.287c0.001-0.177,0.096-0.34,0.248-0.429
					l0.467-0.272l-0.473-0.275C20.095,11.647,20,11.482,20,11.305V11h-0.5c-0.276,0-0.5-0.224-0.5-0.5s0.224-0.5,0.5-0.5h1
					c0.276,0,0.5,0.224,0.5,0.5v0.518l0.745,0.434c0.164,0.096,0.261,0.276,0.247,0.467l-0.006,0.085l0.009,0.063
					c0.028,0.201-0.067,0.4-0.243,0.502l-0.747,0.436l-0.003,0.499C21.001,13.777,20.777,14,20.502,14z"/>
			</g>
			<g>
				<path d="M17.358,14h-2.144c-0.276,0-0.5-0.224-0.5-0.5s0.224-0.5,0.5-0.5h2.144c0.276,0,0.5,0.224,0.5,0.5S17.635,14,17.358,14z
					 M13.072,14H10.93c-0.276,0-0.5-0.224-0.5-0.5s0.224-0.5,0.5-0.5h2.143c0.276,0,0.5,0.224,0.5,0.5S13.349,14,13.072,14z
					 M8.786,14H6.643c-0.276,0-0.5-0.224-0.5-0.5s0.224-0.5,0.5-0.5h2.144c0.276,0,0.5,0.224,0.5,0.5S9.063,14,8.786,14z"/>
			</g>
		</g>
	</g>
</g>
<g id="Dashed_Frame_33">
</g>
<g id="Dashed_Frame_35">
</g>
</svg>
