<?xml version="1.0" encoding="iso-8859-1"?>
<!-- Generator: Adobe Illustrator 19.2.1, SVG Export Plug-In . SVG Version: 6.00 Build 0)  -->
<svg version="1.1" xmlns="http://www.w3.org/2000/svg" xmlns:xlink="http://www.w3.org/1999/xlink" x="0px" y="0px"
	 viewBox="0 0 24 24" style="enable-background:new 0 0 24 24;" xml:space="preserve">
<g id="Photo_frame">
</g>
<g id="Photo_frame_2">
</g>
<g id="Photo_frame_3">
</g>
<g id="Photo_frame__4">
</g>
<g id="Photo_frame_5">
	<g id="Layer_6">
	</g>
</g>
<g id="Photo_frame_6">
</g>
<g id="Photo_frame_7">
</g>
<g id="Round_Frame_1">
</g>
<g id="Rectangle_Frame_1">
</g>
<g id="Square_Frame_1">
</g>
<g id="Rectangle_Frame_2">
</g>
<g id="Oval_Frame_1">
</g>
<g id="Round_Frame_2">
</g>
<g id="Rectangle_Frame_3">
</g>
<g id="Rectangle_Frame_4">
</g>
<g id="Rectangle_Frame_5">
</g>
<g id="Square_Frame_2">
</g>
<g id="Rectangle_Frame_6">
</g>
<g id="Rectangle_Frame_7">
</g>
<g id="Oval_Frame_2">
</g>
<g id="Round_Frame_3">
</g>
<g id="Rectangle_Frame_8">
</g>
<g id="Square_Frame_3">
</g>
<g id="Rectangle_Frame_9">
</g>
<g id="Rectangle_Frame_10">
</g>
<g id="Square_Frame_4">
</g>
<g id="Rectangle_Frame_11">
</g>
<g id="Rectangle_Frame_12">
</g>
<g id="Square_Frame_5">
</g>
<g id="Rectangle_Frame_13">
</g>
<g id="Frame_1">
</g>
<g id="Frame_2">
</g>
<g id="Round_Frame_4">
</g>
<g id="Frame_3">
</g>
<g id="Frame_4">
</g>
<g id="Frame_5">
</g>
<g id="Frame_6">
</g>
<g id="Frame_7">
</g>
<g id="Frame_8">
</g>
<g id="Frame_9">
</g>
<g id="Frame_10">
</g>
<g id="Frame_11">
</g>
<g id="Frame_12">
</g>
<g id="Frame_13">
</g>
<g id="Frame_14">
</g>
<g id="Frame_15">
</g>
<g id="Frame_16">
</g>
<g id="Frame_17">
</g>
<g id="Frame_18">
</g>
<g id="Frame_19">
</g>
<g id="Frame_20">
</g>
<g id="Frame_21">
</g>
<g id="Frame_22">
</g>
<g id="Frame_23">
</g>
<g id="Frame_24">
</g>
<g id="Frame_25">
</g>
<g id="Frame_26">
</g>
<g id="Frame_27">
</g>
<g id="Frame_28">
</g>
<g id="Frame_29">
</g>
<g id="Frame_30">
</g>
<g id="Frame_Hole_1">
</g>
<g id="Frame_Hole_2">
</g>
<g id="Frame_Hole_3">
</g>
<g id="Frame_Hole_4">
</g>
<g id="Frame_31">
</g>
<g id="Frame_32">
</g>
<g id="Frame_33">
</g>
<g id="Frame_34">
</g>
<g id="Frame_35">
</g>
<g id="Dashed_Frame_1">
</g>
<g id="Dashed_Frame_2">
</g>
<g id="Dashed_Frame_3">
</g>
<g id="Dashed_Frame_4">
</g>
<g id="Dashed_Frame_5">
</g>
<g id="Dashed_Frame_6">
	<g>
		<g>
			<path d="M12,24c-2.662,0-5.354-0.685-5.9-2H4.5C4.224,22,4,21.776,4,21.5v-19C4,2.224,4.224,2,4.5,2h1.6
				C7.191-0.631,16.809-0.631,17.9,2h1.6C19.776,2,20,2.224,20,2.5v19c0,0.276-0.224,0.5-0.5,0.5h-1.6
				C17.354,23.315,14.662,24,12,24z M5,21h1.5C6.776,21,7,21.224,7,21.5c0,0.598,1.994,1.5,5,1.5s5-0.902,5-1.5
				c0-0.276,0.224-0.5,0.5-0.5H19V3h-1.5C17.224,3,17,2.776,17,2.5C17,1.902,15.006,1,12,1S7,1.902,7,2.5C7,2.776,6.776,3,6.5,3H5
				V21z M18,2.5h0.01H18z"/>
		</g>
		<g>
			<g>
				<path d="M9.449,21.729c-0.038,0-0.077-0.004-0.116-0.014c-0.41-0.098-0.771-0.217-1.045-0.345C8.112,21.289,8,21.112,8,20.918
					V20H7.5C7.224,20,7,19.776,7,19.5S7.224,19,7.5,19h1C8.776,19,9,19.224,9,19.5v1.08c0.143,0.05,0.329,0.106,0.565,0.163
					c0.269,0.064,0.435,0.334,0.37,0.603C9.881,21.575,9.676,21.729,9.449,21.729z"/>
			</g>
			<g>
				<path d="M7.5,20h-1C6.224,20,6,19.776,6,19.5v-1C6,18.224,6.224,18,6.5,18S7,18.224,7,18.5V19h0.5C7.776,19,8,19.224,8,19.5
					S7.776,20,7.5,20z"/>
			</g>
			<g>
				<path d="M6.5,17.143c-0.276,0-0.5-0.224-0.5-0.5v-1.857c0-0.276,0.224-0.5,0.5-0.5s0.5,0.224,0.5,0.5v1.857
					C7,16.919,6.776,17.143,6.5,17.143z M6.5,13.429c-0.276,0-0.5-0.224-0.5-0.5v-1.857c0-0.276,0.224-0.5,0.5-0.5
					s0.5,0.224,0.5,0.5v1.857C7,13.205,6.776,13.429,6.5,13.429z M6.5,9.714c-0.276,0-0.5-0.224-0.5-0.5V7.356
					c0-0.276,0.224-0.5,0.5-0.5S7,7.08,7,7.356v1.857C7,9.49,6.776,9.714,6.5,9.714z"/>
			</g>
			<g>
				<path d="M6.5,6C6.224,6,6,5.776,6,5.5v-1C6,4.224,6.224,4,6.5,4h1C7.776,4,8,4.224,8,4.5S7.776,5,7.5,5H7v0.5
					C7,5.776,6.776,6,6.5,6z"/>
			</g>
			<g>
				<path d="M8.5,5h-1C7.224,5,7,4.776,7,4.5S7.224,4,7.5,4H8V3.082c0-0.194,0.112-0.371,0.288-0.453
					c0.273-0.128,0.635-0.247,1.045-0.345c0.271-0.07,0.538,0.102,0.603,0.37s-0.102,0.538-0.37,0.603
					C9.329,3.313,9.143,3.37,9,3.42V4.5C9,4.776,8.776,5,8.5,5z"/>
			</g>
			<g>
				<path d="M12.855,3.027c-0.012,0-0.022,0-0.034-0.001c-0.515-0.033-1.129-0.033-1.646,0c-0.25,0.028-0.513-0.189-0.531-0.467
					c-0.018-0.275,0.19-0.513,0.467-0.531c0.556-0.037,1.219-0.037,1.776,0c0.275,0.019,0.483,0.256,0.466,0.532
					C13.336,2.824,13.116,3.027,12.855,3.027z"/>
			</g>
			<g>
				<path d="M16.5,5h-1C15.224,5,15,4.776,15,4.5V3.42c-0.143-0.05-0.329-0.106-0.565-0.163C14.166,3.192,14,2.923,14.064,2.654
					s0.331-0.44,0.603-0.37c0.41,0.098,0.771,0.217,1.045,0.345C15.888,2.711,16,2.888,16,3.082V4h0.5C16.776,4,17,4.224,17,4.5
					S16.776,5,16.5,5z"/>
			</g>
			<g>
				<path d="M17.5,6C17.224,6,17,5.776,17,5.5V5h-0.5C16.224,5,16,4.776,16,4.5S16.224,4,16.5,4h1C17.776,4,18,4.224,18,4.5v1
					C18,5.776,17.776,6,17.5,6z"/>
			</g>
			<g>
				<path d="M17.5,17.144c-0.276,0-0.5-0.224-0.5-0.5v-1.857c0-0.276,0.224-0.5,0.5-0.5s0.5,0.224,0.5,0.5v1.857
					C18,16.92,17.776,17.144,17.5,17.144z M17.5,13.429c-0.276,0-0.5-0.224-0.5-0.5v-1.857c0-0.276,0.224-0.5,0.5-0.5
					s0.5,0.224,0.5,0.5v1.857C18,13.205,17.776,13.429,17.5,13.429z M17.5,9.715c-0.276,0-0.5-0.224-0.5-0.5V7.357
					c0-0.276,0.224-0.5,0.5-0.5s0.5,0.224,0.5,0.5v1.857C18,9.491,17.776,9.715,17.5,9.715z"/>
			</g>
			<g>
				<path d="M17.5,20h-1c-0.276,0-0.5-0.224-0.5-0.5s0.224-0.5,0.5-0.5H17v-0.5c0-0.276,0.224-0.5,0.5-0.5s0.5,0.224,0.5,0.5v1
					C18,19.776,17.776,20,17.5,20z"/>
			</g>
			<g>
				<path d="M14.551,21.729c-0.227,0-0.432-0.154-0.486-0.384c-0.064-0.269,0.102-0.538,0.37-0.603
					c0.236-0.057,0.423-0.113,0.565-0.163V19.5c0-0.276,0.224-0.5,0.5-0.5h1c0.276,0,0.5,0.224,0.5,0.5S16.776,20,16.5,20H16v0.918
					c0,0.194-0.112,0.371-0.288,0.453c-0.273,0.128-0.635,0.247-1.045,0.345C14.628,21.726,14.589,21.729,14.551,21.729z"/>
			</g>
			<g>
				<path d="M12,22c-0.313,0-0.609-0.01-0.888-0.028c-0.275-0.019-0.483-0.256-0.466-0.532c0.019-0.275,0.266-0.482,0.532-0.466
					c0.515,0.033,1.129,0.033,1.646,0c0.258-0.016,0.513,0.19,0.531,0.467c0.018,0.275-0.19,0.513-0.467,0.531
					C12.61,21.99,12.314,22,12,22z"/>
			</g>
		</g>
	</g>
</g>
<g id="Dashed_Frame_7">
</g>
<g id="Dashed_Frame_8">
</g>
<g id="Dashed_Frame_9">
</g>
<g id="Dashed_Frame_10">
</g>
<g id="Dashed_Frame_11">
</g>
<g id="Dashed_Frame_12">
</g>
<g id="Dashed_Frame_13">
</g>
<g id="Dashed_Frame_14">
</g>
<g id="Dashed_Frame_15">
</g>
<g id="Dashed_Frame_16">
</g>
<g id="Dashed_Frame_17">
</g>
<g id="Dashed_Frame_18">
</g>
<g id="Dashed_Frame_19">
</g>
<g id="Dashed_Frame_20">
</g>
<g id="Dashed_Frame_25">
</g>
<g id="Dashed_Frame_26">
</g>
<g id="Dashed_Frame_27">
</g>
<g id="Dashed_Frame_28">
</g>
<g id="Dashed_Frame_29">
</g>
<g id="Dashed_Frame_30">
</g>
<g id="Dashed_Frame_31">
</g>
<g id="Dashed_Frame_32">
</g>
<g id="Dashed_Frame_33">
</g>
<g id="Dashed_Frame_35">
</g>
</svg>
