<?xml version="1.0" encoding="iso-8859-1"?>
<!-- Generator: Adobe Illustrator 19.2.1, SVG Export Plug-In . SVG Version: 6.00 Build 0)  -->
<svg version="1.1" xmlns="http://www.w3.org/2000/svg" xmlns:xlink="http://www.w3.org/1999/xlink" x="0px" y="0px"
	 viewBox="0 0 24 24" style="enable-background:new 0 0 24 24;" xml:space="preserve">
<g id="Photo_frame">
</g>
<g id="Photo_frame_2">
</g>
<g id="Photo_frame_3">
</g>
<g id="Photo_frame__4">
</g>
<g id="Photo_frame_5">
	<g id="Layer_6">
	</g>
</g>
<g id="Photo_frame_6">
</g>
<g id="Photo_frame_7">
</g>
<g id="Round_Frame_1">
</g>
<g id="Rectangle_Frame_1">
</g>
<g id="Square_Frame_1">
</g>
<g id="Rectangle_Frame_2">
</g>
<g id="Oval_Frame_1">
</g>
<g id="Round_Frame_2">
</g>
<g id="Rectangle_Frame_3">
</g>
<g id="Rectangle_Frame_4">
</g>
<g id="Rectangle_Frame_5">
</g>
<g id="Square_Frame_2">
</g>
<g id="Rectangle_Frame_6">
</g>
<g id="Rectangle_Frame_7">
</g>
<g id="Oval_Frame_2">
</g>
<g id="Round_Frame_3">
</g>
<g id="Rectangle_Frame_8">
</g>
<g id="Square_Frame_3">
</g>
<g id="Rectangle_Frame_9">
</g>
<g id="Rectangle_Frame_10">
</g>
<g id="Square_Frame_4">
</g>
<g id="Rectangle_Frame_11">
</g>
<g id="Rectangle_Frame_12">
</g>
<g id="Square_Frame_5">
</g>
<g id="Rectangle_Frame_13">
</g>
<g id="Frame_1">
</g>
<g id="Frame_2">
</g>
<g id="Round_Frame_4">
</g>
<g id="Frame_3">
</g>
<g id="Frame_4">
</g>
<g id="Frame_5">
</g>
<g id="Frame_6">
</g>
<g id="Frame_7">
</g>
<g id="Frame_8">
</g>
<g id="Frame_9">
</g>
<g id="Frame_10">
</g>
<g id="Frame_11">
</g>
<g id="Frame_12">
</g>
<g id="Frame_13">
</g>
<g id="Frame_14">
</g>
<g id="Frame_15">
</g>
<g id="Frame_16">
</g>
<g id="Frame_17">
</g>
<g id="Frame_18">
</g>
<g id="Frame_19">
</g>
<g id="Frame_20">
</g>
<g id="Frame_21">
</g>
<g id="Frame_22">
</g>
<g id="Frame_23">
</g>
<g id="Frame_24">
</g>
<g id="Frame_25">
</g>
<g id="Frame_26">
</g>
<g id="Frame_27">
</g>
<g id="Frame_28">
</g>
<g id="Frame_29">
</g>
<g id="Frame_30">
</g>
<g id="Frame_Hole_1">
</g>
<g id="Frame_Hole_2">
</g>
<g id="Frame_Hole_3">
</g>
<g id="Frame_Hole_4">
</g>
<g id="Frame_31">
</g>
<g id="Frame_32">
</g>
<g id="Frame_33">
</g>
<g id="Frame_34">
</g>
<g id="Frame_35">
</g>
<g id="Dashed_Frame_1">
</g>
<g id="Dashed_Frame_2">
</g>
<g id="Dashed_Frame_3">
</g>
<g id="Dashed_Frame_4">
	<g>
		<g>
			<path d="M19.5,21h-15C3.122,21,2,19.879,2,18.5V18H1.5C1.224,18,1,17.776,1,17.5v-2.64C0.316,14.447,0,13.187,0,12
				s0.316-2.447,1-2.86V6.5C1,6.224,1.224,6,1.5,6H2V5.5C2,4.121,3.122,3,4.5,3h15C20.878,3,22,4.121,22,5.5V6h0.5
				C22.776,6,23,6.224,23,6.5v2.64c0.684,0.413,1,1.674,1,2.86s-0.316,2.447-1,2.86v2.64c0,0.276-0.224,0.5-0.5,0.5H22v0.5
				C22,19.879,20.878,21,19.5,21z M2,17h0.5C2.776,17,3,17.224,3,17.5v1C3,19.327,3.673,20,4.5,20h15c0.827,0,1.5-0.673,1.5-1.5v-1
				c0-0.276,0.224-0.5,0.5-0.5H22v-2.5c0-0.276,0.224-0.5,0.5-0.5c0.123-0.063,0.5-0.758,0.5-2s-0.377-1.938-0.527-2.005
				C22.197,9.995,22,9.776,22,9.5V7h-0.5C21.224,7,21,6.776,21,6.5v-1C21,4.673,20.327,4,19.5,4h-15C3.673,4,3,4.673,3,5.5v1
				C3,6.776,2.776,7,2.5,7H2v2.5C2,9.776,1.776,10,1.5,10C1.377,10.063,1,10.758,1,12s0.377,1.938,0.527,2.005
				C1.803,14.005,2,14.224,2,14.5V17z"/>
		</g>
		<g>
			<g>
				<path d="M5,19H4.5C4.224,19,4,18.776,4,18.5V18c0-0.276,0.224-0.5,0.5-0.5S5,17.724,5,18c0.276,0,0.5,0.224,0.5,0.5
					S5.276,19,5,19z"/>
			</g>
			<g>
				<path d="M4.5,16.5C4.224,16.5,4,16.276,4,16c-0.276,0-0.5-0.224-0.5-0.5S3.724,15,4,15h0.5C4.776,15,5,15.224,5,15.5V16
					C5,16.276,4.776,16.5,4.5,16.5z"/>
			</g>
			<g>
				<path d="M4,16H3.5C3.224,16,3,15.776,3,15.5V15c0-0.276,0.224-0.5,0.5-0.5S4,14.724,4,15c0.276,0,0.5,0.224,0.5,0.5
					S4.276,16,4,16z"/>
			</g>
			<g>
				<path d="M3.5,13.05c-0.276,0-0.5-0.174-0.5-0.45v-1.2c0-0.276,0.224-0.5,0.5-0.5s0.5,0.224,0.5,0.5V12.5
					C4,12.776,3.776,13.05,3.5,13.05z"/>
			</g>
			<g>
				<path d="M3.5,9.5C3.224,9.5,3,9.276,3,9V8.5C3,8.224,3.224,8,3.5,8H4c0.276,0,0.5,0.224,0.5,0.5S4.276,9,4,9
					C4,9.276,3.776,9.5,3.5,9.5z"/>
			</g>
			<g>
				<path d="M4.5,9H4C3.724,9,3.5,8.776,3.5,8.5S3.724,8,4,8c0-0.276,0.224-0.5,0.5-0.5S5,7.724,5,8v0.5C5,8.776,4.776,9,4.5,9z"/>
			</g>
			<g>
				<path d="M4.5,6.5C4.224,6.5,4,6.276,4,6V5.5C4,5.224,4.224,5,4.5,5H5c0.276,0,0.5,0.224,0.5,0.5S5.276,6,5,6
					C5,6.276,4.776,6.5,4.5,6.5z"/>
			</g>
			<g>
				<path d="M17,6h-1c-0.276,0-0.5-0.224-0.5-0.5S15.724,5,16,5h1c0.276,0,0.5,0.224,0.5,0.5S17.276,6,17,6z M14,6h-1
					c-0.276,0-0.5-0.224-0.5-0.5S12.724,5,13,5h1c0.276,0,0.5,0.224,0.5,0.5S14.276,6,14,6z M11,6h-1C9.724,6,9.5,5.776,9.5,5.5
					S9.724,5,10,5h1c0.276,0,0.5,0.224,0.5,0.5S11.276,6,11,6z M8,6H7C6.724,6,6.5,5.776,6.5,5.5S6.724,5,7,5h1
					c0.276,0,0.5,0.224,0.5,0.5S8.276,6,8,6z"/>
			</g>
			<g>
				<path d="M19.5,6.5C19.224,6.5,19,6.276,19,6c-0.276,0-0.5-0.224-0.5-0.5S18.724,5,19,5h0.5C19.776,5,20,5.224,20,5.5V6
					C20,6.276,19.776,6.5,19.5,6.5z"/>
			</g>
			<g>
				<path d="M20,9h-0.5C19.224,9,19,8.776,19,8.5V8c0-0.276,0.224-0.5,0.5-0.5S20,7.724,20,8c0.276,0,0.5,0.224,0.5,0.5
					S20.276,9,20,9z"/>
			</g>
			<g>
				<path d="M20.5,9.5C20.224,9.5,20,9.276,20,9c-0.276,0-0.5-0.224-0.5-0.5S19.724,8,20,8h0.5C20.776,8,21,8.224,21,8.5V9
					C21,9.276,20.776,9.5,20.5,9.5z"/>
			</g>
			<g>
				<path d="M20.5,13.101c-0.276,0-0.5-0.224-0.5-0.5V11.5c0-0.276,0.224-0.55,0.5-0.55S21,11.124,21,11.4v1.2
					C21,12.877,20.776,13.101,20.5,13.101z"/>
			</g>
			<g>
				<path d="M20.5,16H20c-0.276,0-0.5-0.224-0.5-0.5S19.724,15,20,15c0-0.276,0.224-0.5,0.5-0.5S21,14.724,21,15v0.5
					C21,15.776,20.776,16,20.5,16z"/>
			</g>
			<g>
				<path d="M19.5,16.5c-0.276,0-0.5-0.224-0.5-0.5v-0.5c0-0.276,0.224-0.5,0.5-0.5H20c0.276,0,0.5,0.224,0.5,0.5S20.276,16,20,16
					C20,16.276,19.776,16.5,19.5,16.5z"/>
			</g>
			<g>
				<path d="M19.5,19H19c-0.276,0-0.5-0.224-0.5-0.5S18.724,18,19,18c0-0.276,0.224-0.5,0.5-0.5S20,17.724,20,18v0.5
					C20,18.776,19.776,19,19.5,19z"/>
			</g>
			<g>
				<path d="M17,19h-1c-0.276,0-0.5-0.224-0.5-0.5S15.724,18,16,18h1c0.276,0,0.5,0.224,0.5,0.5S17.276,19,17,19z M14,19h-1
					c-0.276,0-0.5-0.224-0.5-0.5S12.724,18,13,18h1c0.276,0,0.5,0.224,0.5,0.5S14.276,19,14,19z M11,19h-1
					c-0.276,0-0.5-0.224-0.5-0.5S9.724,18,10,18h1c0.276,0,0.5,0.224,0.5,0.5S11.276,19,11,19z M8,19H7c-0.276,0-0.5-0.224-0.5-0.5
					S6.724,18,7,18h1c0.276,0,0.5,0.224,0.5,0.5S8.276,19,8,19z"/>
			</g>
		</g>
	</g>
</g>
<g id="Dashed_Frame_5">
</g>
<g id="Dashed_Frame_6">
</g>
<g id="Dashed_Frame_7">
</g>
<g id="Dashed_Frame_8">
</g>
<g id="Dashed_Frame_9">
</g>
<g id="Dashed_Frame_10">
</g>
<g id="Dashed_Frame_11">
</g>
<g id="Dashed_Frame_12">
</g>
<g id="Dashed_Frame_13">
</g>
<g id="Dashed_Frame_14">
</g>
<g id="Dashed_Frame_15">
</g>
<g id="Dashed_Frame_16">
</g>
<g id="Dashed_Frame_17">
</g>
<g id="Dashed_Frame_18">
</g>
<g id="Dashed_Frame_19">
</g>
<g id="Dashed_Frame_20">
</g>
<g id="Dashed_Frame_25">
</g>
<g id="Dashed_Frame_26">
</g>
<g id="Dashed_Frame_27">
</g>
<g id="Dashed_Frame_28">
</g>
<g id="Dashed_Frame_29">
</g>
<g id="Dashed_Frame_30">
</g>
<g id="Dashed_Frame_31">
</g>
<g id="Dashed_Frame_32">
</g>
<g id="Dashed_Frame_33">
</g>
<g id="Dashed_Frame_35">
</g>
</svg>
