<?xml version="1.0" encoding="iso-8859-1"?>
<!-- Generator: Adobe Illustrator 19.2.1, SVG Export Plug-In . SVG Version: 6.00 Build 0)  -->
<svg version="1.1" xmlns="http://www.w3.org/2000/svg" xmlns:xlink="http://www.w3.org/1999/xlink" x="0px" y="0px"
	 viewBox="0 0 24 24" style="enable-background:new 0 0 24 24;" xml:space="preserve">
<g id="Photo_frame">
</g>
<g id="Photo_frame_2">
</g>
<g id="Photo_frame_3">
</g>
<g id="Photo_frame__4">
</g>
<g id="Photo_frame_5">
	<g id="Layer_6">
	</g>
</g>
<g id="Photo_frame_6">
</g>
<g id="Photo_frame_7">
</g>
<g id="Round_Frame_1">
</g>
<g id="Rectangle_Frame_1">
</g>
<g id="Square_Frame_1">
</g>
<g id="Rectangle_Frame_2">
</g>
<g id="Oval_Frame_1">
</g>
<g id="Round_Frame_2">
</g>
<g id="Rectangle_Frame_3">
</g>
<g id="Rectangle_Frame_4">
</g>
<g id="Rectangle_Frame_5">
</g>
<g id="Square_Frame_2">
</g>
<g id="Rectangle_Frame_6">
</g>
<g id="Rectangle_Frame_7">
</g>
<g id="Oval_Frame_2">
</g>
<g id="Round_Frame_3">
</g>
<g id="Rectangle_Frame_8">
</g>
<g id="Square_Frame_3">
</g>
<g id="Rectangle_Frame_9">
</g>
<g id="Rectangle_Frame_10">
</g>
<g id="Square_Frame_4">
</g>
<g id="Rectangle_Frame_11">
</g>
<g id="Rectangle_Frame_12">
</g>
<g id="Square_Frame_5">
</g>
<g id="Rectangle_Frame_13">
</g>
<g id="Frame_1">
</g>
<g id="Frame_2">
</g>
<g id="Round_Frame_4">
</g>
<g id="Frame_3">
</g>
<g id="Frame_4">
</g>
<g id="Frame_5">
</g>
<g id="Frame_6">
</g>
<g id="Frame_7">
</g>
<g id="Frame_8">
</g>
<g id="Frame_9">
</g>
<g id="Frame_10">
</g>
<g id="Frame_11">
</g>
<g id="Frame_12">
</g>
<g id="Frame_13">
</g>
<g id="Frame_14">
</g>
<g id="Frame_15">
</g>
<g id="Frame_16">
</g>
<g id="Frame_17">
</g>
<g id="Frame_18">
</g>
<g id="Frame_19">
</g>
<g id="Frame_20">
</g>
<g id="Frame_21">
</g>
<g id="Frame_22">
</g>
<g id="Frame_23">
</g>
<g id="Frame_24">
</g>
<g id="Frame_25">
</g>
<g id="Frame_26">
</g>
<g id="Frame_27">
</g>
<g id="Frame_28">
</g>
<g id="Frame_29">
</g>
<g id="Frame_30">
</g>
<g id="Frame_Hole_1">
</g>
<g id="Frame_Hole_2">
</g>
<g id="Frame_Hole_3">
</g>
<g id="Frame_Hole_4">
</g>
<g id="Frame_31">
</g>
<g id="Frame_32">
</g>
<g id="Frame_33">
</g>
<g id="Frame_34">
</g>
<g id="Frame_35">
</g>
<g id="Dashed_Frame_1">
</g>
<g id="Dashed_Frame_2">
</g>
<g id="Dashed_Frame_3">
</g>
<g id="Dashed_Frame_4">
</g>
<g id="Dashed_Frame_5">
</g>
<g id="Dashed_Frame_6">
</g>
<g id="Dashed_Frame_7">
</g>
<g id="Dashed_Frame_8">
</g>
<g id="Dashed_Frame_9">
</g>
<g id="Dashed_Frame_10">
</g>
<g id="Dashed_Frame_11">
</g>
<g id="Dashed_Frame_12">
</g>
<g id="Dashed_Frame_13">
</g>
<g id="Dashed_Frame_14">
</g>
<g id="Dashed_Frame_15">
</g>
<g id="Dashed_Frame_16">
</g>
<g id="Dashed_Frame_17">
</g>
<g id="Dashed_Frame_18">
</g>
<g id="Dashed_Frame_19">
</g>
<g id="Dashed_Frame_20">
</g>
<g id="Dashed_Frame_25">
</g>
<g id="Dashed_Frame_26">
	<g>
		<g>
			<path d="M12,23.976c-2.52,0-5.04-0.257-7.542-0.769c-0.175-0.036-0.318-0.163-0.375-0.332c-0.056-0.17-0.018-0.356,0.101-0.49
				C4.703,21.801,5,20.932,5,20c0-2.056-1.498-3.692-2.862-2.682c-0.143,0.106-0.33,0.128-0.492,0.06
				c-0.163-0.069-0.277-0.22-0.301-0.395c-0.442-3.307-0.442-6.66,0-9.967c0.023-0.175,0.138-0.325,0.301-0.395
				c0.162-0.068,0.35-0.047,0.492,0.06C3.502,7.689,5,6.056,5,4c0-0.932-0.297-1.801-0.816-2.385
				c-0.119-0.134-0.157-0.32-0.101-0.49C4.14,0.956,4.283,0.829,4.458,0.793c5.004-1.023,10.08-1.023,15.084,0
				c0.175,0.036,0.318,0.163,0.375,0.332c0.056,0.17,0.018,0.356-0.101,0.49C19.297,2.199,19,3.068,19,4
				c0,2.056,1.496,3.689,2.862,2.682c0.142-0.106,0.329-0.128,0.492-0.06c0.163,0.069,0.277,0.22,0.301,0.395
				c0.442,3.307,0.442,6.66,0,9.967c-0.023,0.175-0.138,0.325-0.301,0.395c-0.163,0.068-0.351,0.047-0.492-0.06
				C20.496,16.308,19,17.944,19,20c0,0.932,0.297,1.801,0.816,2.385c0.119,0.134,0.157,0.32,0.101,0.49
				c-0.057,0.169-0.199,0.296-0.375,0.332C17.04,23.719,14.52,23.976,12,23.976z M5.409,22.373c4.377,0.803,8.805,0.803,13.182,0
				C18.21,21.69,18,20.862,18,20c0-2.206,1.346-4,3-4c0.255,0,0.507,0.044,0.753,0.132c0.312-2.745,0.312-5.519,0-8.264
				C21.507,7.956,21.255,8,21,8c-1.654,0-3-1.794-3-4c0-0.862,0.21-1.69,0.591-2.373c-4.377-0.803-8.805-0.803-13.182,0
				C5.79,2.31,6,3.138,6,4c0,2.206-1.346,4-3,4C2.745,8,2.493,7.956,2.247,7.868c-0.312,2.745-0.312,5.519,0,8.264
				C2.493,16.044,2.745,16,3,16c1.654,0,3,1.794,3,4C6,20.862,5.79,21.69,5.409,22.373z"/>
		</g>
		<g>
			<g>
				<path d="M8.392,21.785c-0.017,0-0.034-0.001-0.052-0.003c-0.337-0.034-0.673-0.074-1.009-0.118
					c-0.135-0.019-0.257-0.091-0.337-0.201c-0.081-0.109-0.113-0.248-0.089-0.382c0.053-0.302,0.084-0.611,0.092-0.92
					c0.007-0.271,0.229-0.487,0.5-0.487c0.005,0,0.009,0,0.014,0c0.276,0.008,0.494,0.237,0.487,0.513
					c-0.005,0.184-0.017,0.366-0.035,0.548c0.16,0.02,0.32,0.037,0.48,0.054c0.274,0.028,0.475,0.273,0.446,0.548
					C8.862,21.594,8.646,21.785,8.392,21.785z"/>
			</g>
			<g>
				<path d="M7.081,18.142c-0.202,0-0.392-0.123-0.468-0.323c-0.142-0.375-0.322-0.727-0.534-1.044
					c-0.154-0.23-0.092-0.54,0.138-0.694c0.23-0.151,0.54-0.09,0.693,0.138c0.255,0.382,0.47,0.801,0.639,1.247
					c0.098,0.258-0.033,0.547-0.291,0.645C7.199,18.131,7.14,18.142,7.081,18.142z"/>
			</g>
			<g>
				<path d="M4.562,15.328c-0.067,0-0.135-0.014-0.201-0.042c-0.267-0.117-0.547-0.2-0.834-0.245
					c-0.229-0.037-0.404-0.227-0.42-0.458c-0.024-0.338-0.044-0.675-0.059-1.014c-0.012-0.275,0.202-0.509,0.478-0.521
					c0.274,0.01,0.509,0.202,0.521,0.479c0.009,0.203,0.02,0.405,0.032,0.608c0.234,0.06,0.463,0.139,0.685,0.235
					c0.253,0.111,0.368,0.406,0.256,0.659C4.938,15.217,4.754,15.328,4.562,15.328z"/>
			</g>
			<g>
				<path d="M3.548,10.952c-0.007,0-0.015,0-0.022,0c-0.276-0.013-0.49-0.246-0.478-0.521c0.015-0.338,0.035-0.676,0.059-1.014
					c0.017-0.231,0.191-0.421,0.42-0.458c0.287-0.045,0.567-0.128,0.834-0.245C4.616,8.604,4.909,8.719,5.02,8.971
					C5.131,9.224,5.017,9.519,4.764,9.63C4.542,9.727,4.313,9.806,4.079,9.865c-0.013,0.203-0.023,0.406-0.032,0.608
					C4.035,10.742,3.814,10.952,3.548,10.952z"/>
			</g>
			<g>
				<path d="M6.49,8.01c-0.096,0-0.192-0.027-0.277-0.084C5.983,7.771,5.921,7.462,6.075,7.231c0.213-0.318,0.393-0.67,0.536-1.045
					c0.098-0.26,0.388-0.389,0.645-0.289c0.258,0.098,0.388,0.387,0.29,0.645c-0.17,0.445-0.385,0.865-0.64,1.246
					C6.81,7.932,6.651,8.01,6.49,8.01z"/>
			</g>
			<g>
				<path d="M7.497,4.326c-0.27,0-0.492-0.216-0.5-0.487C6.99,3.53,6.958,3.221,6.905,2.919C6.881,2.785,6.914,2.646,6.994,2.537
					c0.08-0.11,0.202-0.183,0.337-0.201c0.335-0.044,0.671-0.083,1.007-0.118c0.279-0.03,0.521,0.17,0.55,0.444
					c0.029,0.274-0.17,0.521-0.444,0.55C8.283,3.229,8.123,3.247,7.962,3.266c0.019,0.182,0.03,0.364,0.035,0.548
					c0.007,0.275-0.211,0.505-0.487,0.513C7.506,4.326,7.501,4.326,7.497,4.326z"/>
			</g>
			<g>
				<path d="M11.279,3.037c-0.271,0-0.494-0.217-0.5-0.49c-0.005-0.275,0.214-0.504,0.49-0.51c0.49-0.01,0.978-0.01,1.466,0
					c0.276,0.006,0.495,0.234,0.49,0.51c-0.005,0.277-0.221,0.48-0.51,0.49c-0.476-0.01-0.95-0.01-1.425,0
					C11.286,3.037,11.282,3.037,11.279,3.037z"/>
			</g>
			<g>
				<path d="M16.503,4.326c-0.005,0-0.009,0-0.014,0c-0.276-0.008-0.494-0.237-0.487-0.513c0.005-0.184,0.017-0.366,0.035-0.548
					c-0.16-0.019-0.321-0.036-0.481-0.054c-0.274-0.029-0.474-0.275-0.444-0.55c0.029-0.275,0.266-0.48,0.55-0.444
					c0.336,0.035,0.672,0.074,1.007,0.118c0.135,0.019,0.257,0.091,0.337,0.201c0.081,0.109,0.113,0.248,0.089,0.382
					c-0.053,0.302-0.084,0.611-0.092,0.92C16.995,4.11,16.773,4.326,16.503,4.326z"/>
			</g>
			<g>
				<path d="M17.507,8.005c-0.162,0-0.32-0.078-0.417-0.223c-0.255-0.382-0.47-0.801-0.638-1.245
					c-0.098-0.259,0.032-0.547,0.29-0.646c0.258-0.095,0.547,0.032,0.645,0.29c0.142,0.374,0.322,0.727,0.536,1.046
					c0.153,0.229,0.091,0.54-0.139,0.693C17.699,7.978,17.602,8.005,17.507,8.005z"/>
			</g>
			<g>
				<path d="M20.452,10.952c-0.266,0-0.487-0.21-0.499-0.479c-0.009-0.202-0.02-0.405-0.032-0.608
					c-0.234-0.06-0.463-0.139-0.685-0.235c-0.253-0.111-0.368-0.406-0.256-0.659c0.11-0.252,0.405-0.366,0.659-0.257
					c0.267,0.117,0.547,0.2,0.834,0.245c0.229,0.037,0.404,0.227,0.42,0.458c0.024,0.338,0.044,0.676,0.059,1.014
					c0.012,0.275-0.202,0.509-0.478,0.521C20.467,10.952,20.459,10.952,20.452,10.952z"/>
			</g>
			<g>
				<path d="M19.438,15.328c-0.192,0-0.376-0.111-0.458-0.299c-0.111-0.253,0.003-0.548,0.256-0.659
					c0.221-0.097,0.451-0.176,0.685-0.235c0.013-0.203,0.023-0.405,0.032-0.608c0.012-0.276,0.254-0.468,0.521-0.479
					c0.276,0.013,0.49,0.246,0.478,0.521c-0.015,0.339-0.035,0.676-0.059,1.014c-0.017,0.231-0.191,0.421-0.42,0.458
					c-0.287,0.045-0.567,0.128-0.834,0.245C19.573,15.314,19.505,15.328,19.438,15.328z"/>
			</g>
			<g>
				<path d="M16.922,18.136c-0.059,0-0.12-0.011-0.178-0.033c-0.258-0.098-0.388-0.387-0.29-0.645
					c0.17-0.445,0.385-0.865,0.64-1.246c0.153-0.229,0.464-0.289,0.693-0.138c0.229,0.154,0.292,0.464,0.138,0.694
					c-0.213,0.318-0.393,0.67-0.536,1.045C17.313,18.014,17.123,18.136,16.922,18.136z"/>
			</g>
			<g>
				<path d="M15.608,21.785c-0.253,0-0.47-0.191-0.497-0.449c-0.028-0.274,0.172-0.52,0.446-0.548
					c0.16-0.017,0.321-0.034,0.48-0.054c-0.019-0.182-0.03-0.364-0.035-0.548c-0.007-0.275,0.211-0.505,0.487-0.513
					c0.281,0.02,0.505,0.211,0.513,0.487c0.008,0.309,0.039,0.618,0.092,0.92c0.024,0.134-0.008,0.272-0.089,0.382
					c-0.08,0.11-0.202,0.183-0.337,0.201c-0.335,0.044-0.672,0.084-1.009,0.118C15.642,21.784,15.625,21.785,15.608,21.785z"/>
			</g>
			<g>
				<path d="M12,21.972c-0.245,0-0.49-0.003-0.735-0.008c-0.276-0.006-0.495-0.234-0.49-0.51c0.006-0.277,0.226-0.519,0.51-0.49
					c0.475,0.01,0.95,0.01,1.425,0c0.296-0.024,0.505,0.213,0.51,0.49c0.005,0.275-0.214,0.504-0.49,0.51
					C12.487,21.969,12.244,21.972,12,21.972z"/>
			</g>
		</g>
	</g>
</g>
<g id="Dashed_Frame_27">
</g>
<g id="Dashed_Frame_28">
</g>
<g id="Dashed_Frame_29">
</g>
<g id="Dashed_Frame_30">
</g>
<g id="Dashed_Frame_31">
</g>
<g id="Dashed_Frame_32">
</g>
<g id="Dashed_Frame_33">
</g>
<g id="Dashed_Frame_35">
</g>
</svg>
