<?xml version="1.0" encoding="iso-8859-1"?>
<!-- Generator: Adobe Illustrator 19.2.1, SVG Export Plug-In . SVG Version: 6.00 Build 0)  -->
<svg version="1.1" xmlns="http://www.w3.org/2000/svg" xmlns:xlink="http://www.w3.org/1999/xlink" x="0px" y="0px"
	 viewBox="0 0 24 24" style="enable-background:new 0 0 24 24;" xml:space="preserve">
<g id="Dashed_Frame_21">
</g>
<g id="Dashed_Frame_22">
	<g>
		<g>
			<path d="M23.5,19h-23C0.224,19,0,18.776,0,18.5v-10C0,8.224,0.224,8,0.5,8h2.458C4.601,5.562,8.11,4,12,4s7.399,1.562,9.042,4
				H23.5C23.776,8,24,8.224,24,8.5v10C24,18.776,23.776,19,23.5,19z M1,18h22V9h-2.23c-0.174,0-0.336-0.091-0.427-0.24
				C18.95,6.476,15.675,5,12,5S5.05,6.476,3.657,8.76C3.566,8.909,3.405,9,3.23,9H1V18z"/>
		</g>
		<g>
			<g>
				<path d="M3.5,17h-1C2.224,17,2,16.776,2,16.5v-1C2,15.224,2.224,15,2.5,15S3,15.224,3,15.5V16h0.5C3.776,16,4,16.224,4,16.5
					S3.776,17,3.5,17z"/>
			</g>
			<g>
				<path d="M2.5,14.667c-0.276,0-0.5-0.224-0.5-0.5v-1.333c0-0.276,0.224-0.5,0.5-0.5s0.5,0.224,0.5,0.5v1.333
					C3,14.443,2.776,14.667,2.5,14.667z"/>
			</g>
			<g>
				<path d="M2.5,12C2.224,12,2,11.776,2,11.5v-1C2,10.224,2.224,10,2.5,10h1.573l0.375-0.614c0.144-0.235,0.45-0.311,0.687-0.167
					C5.37,9.363,5.445,9.67,5.301,9.906L4.78,10.76C4.69,10.909,4.528,11,4.354,11H3v0.5C3,11.776,2.776,12,2.5,12z"/>
			</g>
			<g>
				<path d="M6.07,8.81c-0.148,0-0.294-0.065-0.393-0.19C5.506,8.403,5.543,8.088,5.76,7.917C6.239,7.54,6.793,7.208,7.406,6.93
					c0.251-0.114,0.548-0.002,0.662,0.25s0.002,0.548-0.25,0.662C7.279,8.085,6.794,8.375,6.379,8.703
					C6.287,8.775,6.178,8.81,6.07,8.81z M17.923,8.804c-0.108,0-0.217-0.035-0.308-0.107c-0.417-0.327-0.902-0.616-1.44-0.86
					c-0.252-0.113-0.364-0.41-0.25-0.661c0.113-0.252,0.41-0.365,0.661-0.25c0.613,0.276,1.167,0.608,1.646,0.985
					c0.217,0.17,0.255,0.484,0.084,0.702C18.218,8.739,18.072,8.804,17.923,8.804z M9.315,7.307c-0.226,0-0.431-0.154-0.486-0.383
					C8.765,6.655,8.931,6.385,9.199,6.32c0.596-0.143,1.222-0.24,1.86-0.286c0.28-0.017,0.516,0.187,0.535,0.462
					c0.021,0.275-0.187,0.515-0.462,0.535c-0.584,0.043-1.156,0.131-1.7,0.262C9.394,7.302,9.354,7.307,9.315,7.307z M14.676,7.304
					c-0.039,0-0.078-0.004-0.116-0.014c-0.546-0.13-1.118-0.217-1.7-0.26c-0.275-0.02-0.482-0.259-0.462-0.535
					s0.268-0.479,0.535-0.462c0.636,0.046,1.262,0.142,1.859,0.284c0.269,0.064,0.435,0.333,0.371,0.602
					C15.107,7.15,14.902,7.304,14.676,7.304z"/>
			</g>
			<g>
				<path d="M21.5,12c-0.276,0-0.5-0.224-0.5-0.5V11h-1.354c-0.174,0-0.336-0.091-0.427-0.24l-0.521-0.854
					c-0.144-0.236-0.069-0.543,0.167-0.687c0.234-0.144,0.543-0.069,0.687,0.167L19.927,10H21.5c0.276,0,0.5,0.224,0.5,0.5v1
					C22,11.776,21.776,12,21.5,12z"/>
			</g>
			<g>
				<path d="M21.5,14.667c-0.276,0-0.5-0.224-0.5-0.5v-1.333c0-0.276,0.224-0.5,0.5-0.5s0.5,0.224,0.5,0.5v1.333
					C22,14.443,21.776,14.667,21.5,14.667z"/>
			</g>
			<g>
				<path d="M21.5,17h-1c-0.276,0-0.5-0.224-0.5-0.5s0.224-0.5,0.5-0.5H21v-0.5c0-0.276,0.224-0.5,0.5-0.5s0.5,0.224,0.5,0.5v1
					C22,16.776,21.776,17,21.5,17z"/>
			</g>
			<g>
				<path d="M18.611,17h-1.889c-0.276,0-0.5-0.224-0.5-0.5s0.224-0.5,0.5-0.5h1.889c0.276,0,0.5,0.224,0.5,0.5S18.888,17,18.611,17z
					 M14.833,17h-1.889c-0.276,0-0.5-0.224-0.5-0.5s0.224-0.5,0.5-0.5h1.889c0.276,0,0.5,0.224,0.5,0.5S15.11,17,14.833,17z
					 M11.056,17H9.167c-0.276,0-0.5-0.224-0.5-0.5s0.224-0.5,0.5-0.5h1.889c0.276,0,0.5,0.224,0.5,0.5S11.332,17,11.056,17z
					 M7.278,17H5.389c-0.276,0-0.5-0.224-0.5-0.5s0.224-0.5,0.5-0.5h1.889c0.276,0,0.5,0.224,0.5,0.5S7.554,17,7.278,17z"/>
			</g>
		</g>
	</g>
</g>
<g id="Dashed_Frame_23">
</g>
<g id="Dashed_Frame_24">
</g>
<g id="Dashed_Frame_34">
</g>
</svg>
