<?xml version="1.0" encoding="iso-8859-1"?>
<!-- Generator: Adobe Illustrator 19.2.1, SVG Export Plug-In . SVG Version: 6.00 Build 0)  -->
<svg version="1.1" xmlns="http://www.w3.org/2000/svg" xmlns:xlink="http://www.w3.org/1999/xlink" x="0px" y="0px"
	 viewBox="0 0 24 24" style="enable-background:new 0 0 24 24;" xml:space="preserve">
<g id="Photo_frame">
</g>
<g id="Photo_frame_2">
</g>
<g id="Photo_frame_3">
</g>
<g id="Photo_frame__4">
</g>
<g id="Photo_frame_5">
	<g id="Layer_6">
	</g>
</g>
<g id="Photo_frame_6">
</g>
<g id="Photo_frame_7">
</g>
<g id="Round_Frame_1">
</g>
<g id="Rectangle_Frame_1">
</g>
<g id="Square_Frame_1">
</g>
<g id="Rectangle_Frame_2">
</g>
<g id="Oval_Frame_1">
</g>
<g id="Round_Frame_2">
</g>
<g id="Rectangle_Frame_3">
</g>
<g id="Rectangle_Frame_4">
</g>
<g id="Rectangle_Frame_5">
</g>
<g id="Square_Frame_2">
</g>
<g id="Rectangle_Frame_6">
</g>
<g id="Rectangle_Frame_7">
</g>
<g id="Oval_Frame_2">
</g>
<g id="Round_Frame_3">
</g>
<g id="Rectangle_Frame_8">
</g>
<g id="Square_Frame_3">
</g>
<g id="Rectangle_Frame_9">
</g>
<g id="Rectangle_Frame_10">
</g>
<g id="Square_Frame_4">
</g>
<g id="Rectangle_Frame_11">
</g>
<g id="Rectangle_Frame_12">
</g>
<g id="Square_Frame_5">
</g>
<g id="Rectangle_Frame_13">
</g>
<g id="Frame_1">
</g>
<g id="Frame_2">
</g>
<g id="Round_Frame_4">
</g>
<g id="Frame_3">
</g>
<g id="Frame_4">
</g>
<g id="Frame_5">
</g>
<g id="Frame_6">
</g>
<g id="Frame_7">
</g>
<g id="Frame_8">
</g>
<g id="Frame_9">
</g>
<g id="Frame_10">
</g>
<g id="Frame_11">
</g>
<g id="Frame_12">
</g>
<g id="Frame_13">
</g>
<g id="Frame_14">
</g>
<g id="Frame_15">
</g>
<g id="Frame_16">
</g>
<g id="Frame_17">
</g>
<g id="Frame_18">
</g>
<g id="Frame_19">
</g>
<g id="Frame_20">
</g>
<g id="Frame_21">
</g>
<g id="Frame_22">
</g>
<g id="Frame_23">
</g>
<g id="Frame_24">
</g>
<g id="Frame_25">
</g>
<g id="Frame_26">
</g>
<g id="Frame_27">
</g>
<g id="Frame_28">
</g>
<g id="Frame_29">
</g>
<g id="Frame_30">
</g>
<g id="Frame_Hole_1">
</g>
<g id="Frame_Hole_2">
</g>
<g id="Frame_Hole_3">
</g>
<g id="Frame_Hole_4">
</g>
<g id="Frame_31">
</g>
<g id="Frame_32">
</g>
<g id="Frame_33">
</g>
<g id="Frame_34">
</g>
<g id="Frame_35">
</g>
<g id="Dashed_Frame_1">
</g>
<g id="Dashed_Frame_2">
</g>
<g id="Dashed_Frame_3">
</g>
<g id="Dashed_Frame_4">
</g>
<g id="Dashed_Frame_5">
</g>
<g id="Dashed_Frame_6">
</g>
<g id="Dashed_Frame_7">
</g>
<g id="Dashed_Frame_8">
</g>
<g id="Dashed_Frame_9">
</g>
<g id="Dashed_Frame_10">
</g>
<g id="Dashed_Frame_11">
</g>
<g id="Dashed_Frame_12">
</g>
<g id="Dashed_Frame_13">
</g>
<g id="Dashed_Frame_14">
</g>
<g id="Dashed_Frame_15">
</g>
<g id="Dashed_Frame_16">
</g>
<g id="Dashed_Frame_17">
</g>
<g id="Dashed_Frame_18">
	<g>
		<g>
			<path d="M21.5,20.324c-0.018,0-0.035-0.001-0.054-0.003c-0.099-0.011-0.414-0.071-0.884-0.164C18.805,19.812,14.688,19,12,19
				c-2.69,0-6.808,0.812-8.565,1.158c-0.468,0.092-0.782,0.152-0.881,0.163c-0.14,0.015-0.282-0.03-0.388-0.125S2,19.966,2,19.824
				v-0.288C2,18.689,1.311,18,0.464,18c-0.157,0-0.305-0.073-0.399-0.199c-0.094-0.125-0.119-0.304-0.076-0.455
				C0.092,16.982,1,13.745,1,12c0-1.849-1.007-5.325-1.018-5.36c-0.044-0.15-0.014-0.313,0.08-0.439C0.157,6.074,0.306,6,0.463,6
				C1.327,6,2,5.327,2,4.5V4.176C2,4.023,2.069,3.88,2.188,3.785C2.308,3.69,2.467,3.653,2.61,3.688C2.668,3.701,8.439,5,12,5
				c3.56,0,9.332-1.299,9.39-1.312c0.146-0.037,0.304,0.002,0.423,0.097C21.931,3.88,22,4.023,22,4.176V4.5
				C22,5.327,22.673,6,23.5,6c0.157,0,0.324,0.074,0.419,0.2c0.094,0.126,0.143,0.289,0.099,0.439C24.007,6.675,23,10.149,23,12
				c0,1.849,1.005,5.325,1.016,5.36c0.044,0.151,0.014,0.314-0.081,0.439c-0.094,0.126-0.242,0.2-0.399,0.2
				C22.688,18,22,18.689,22,19.536v0.288c0,0.142-0.061,0.277-0.166,0.372C21.742,20.279,21.623,20.324,21.5,20.324z M12,18
				c2.786,0,6.97,0.824,8.756,1.177c0.095,0.019,0.183,0.036,0.263,0.052c0.127-1.041,0.887-1.891,1.882-2.147
				C22.605,15.984,22,13.54,22,12c0-1.541,0.605-3.981,0.9-5.078c-1.007-0.254-1.763-1.096-1.884-2.129C19.427,5.13,15.025,6,12,6
				C8.974,6,4.573,5.13,2.983,4.793c-0.122,1.04-0.886,1.888-1.883,2.134C1.396,8.026,2,10.463,2,12c0,1.541-0.606,3.984-0.901,5.08
				c0.996,0.258,1.756,1.106,1.883,2.148c0.079-0.016,0.166-0.033,0.26-0.052C5.028,18.824,9.212,18,12,18z"/>
		</g>
		<g>
			<g>
				<path d="M20.046,18.01c-0.031,0-0.063-0.003-0.094-0.009l-0.977-0.183c-0.271-0.05-0.452-0.31-0.403-0.581
					c0.05-0.273,0.313-0.448,0.581-0.403l0.652,0.122c0.224-0.322,0.486-0.612,0.785-0.868c-0.051-0.219-0.101-0.446-0.149-0.68
					c-0.057-0.271,0.117-0.535,0.387-0.592c0.271-0.06,0.535,0.117,0.592,0.387c0.07,0.338,0.145,0.663,0.216,0.964
					c0.047,0.195-0.028,0.398-0.189,0.518c-0.396,0.292-0.722,0.654-0.969,1.077C20.387,17.917,20.222,18.01,20.046,18.01z"/>
			</g>
			<g>
				<path d="M17.06,17.486c-0.026,0-0.052-0.002-0.078-0.006c-0.652-0.102-1.327-0.196-1.997-0.274
					c-0.273-0.032-0.47-0.281-0.438-0.556c0.032-0.273,0.275-0.464,0.556-0.438c0.682,0.08,1.37,0.177,2.034,0.28
					c0.272,0.043,0.459,0.298,0.417,0.571C17.515,17.311,17.302,17.486,17.06,17.486z M6.941,17.485
					c-0.242,0-0.455-0.176-0.493-0.423c-0.042-0.273,0.145-0.528,0.417-0.571c0.664-0.104,1.353-0.2,2.034-0.28
					c0.28-0.026,0.522,0.165,0.556,0.438c0.031,0.274-0.165,0.523-0.438,0.556c-0.67,0.078-1.345,0.173-1.997,0.274
					C6.993,17.483,6.968,17.485,6.941,17.485z M13.018,17.029c-0.009,0-0.018,0-0.026-0.001c-0.688-0.035-1.297-0.035-1.98,0
					c-0.276,0.029-0.512-0.197-0.525-0.473c-0.015-0.275,0.197-0.511,0.473-0.525c0.719-0.039,1.363-0.039,2.086,0
					c0.275,0.015,0.487,0.25,0.473,0.525C13.503,16.822,13.282,17.029,13.018,17.029z"/>
			</g>
			<g>
				<path d="M3.953,18.01c-0.176,0-0.342-0.093-0.432-0.248c-0.247-0.424-0.572-0.786-0.969-1.078
					c-0.162-0.118-0.237-0.323-0.19-0.519c0.072-0.303,0.146-0.628,0.216-0.962c0.058-0.271,0.326-0.446,0.592-0.387
					c0.271,0.057,0.443,0.322,0.387,0.592c-0.049,0.232-0.099,0.459-0.149,0.679c0.3,0.256,0.563,0.546,0.786,0.869l0.652-0.122
					c0.256-0.044,0.531,0.13,0.581,0.403c0.049,0.271-0.131,0.531-0.403,0.581l-0.977,0.183C4.016,18.007,3.984,18.01,3.953,18.01z"
					/>
			</g>
			<g>
				<path d="M3.433,13.611c-0.019,0-0.037-0.001-0.056-0.003c-0.274-0.03-0.473-0.277-0.442-0.552C2.976,12.684,3,12.326,3,12
					c0-0.324-0.023-0.681-0.063-1.052c-0.029-0.274,0.169-0.521,0.443-0.551c0.273-0.03,0.521,0.169,0.551,0.443
					C3.975,11.251,4,11.643,4,12c0,0.359-0.026,0.754-0.071,1.166C3.9,13.422,3.684,13.611,3.433,13.611z"/>
			</g>
			<g>
				<path d="M3.069,9.204c-0.231,0-0.439-0.162-0.488-0.397c-0.07-0.338-0.145-0.662-0.216-0.964
					c-0.047-0.196,0.029-0.401,0.192-0.52C2.945,7.042,3.278,6.676,3.52,6.266C3.627,6.083,3.836,5.99,4.046,6.027
					c0.3,0.059,0.626,0.12,0.975,0.183c0.271,0.05,0.452,0.31,0.403,0.581c-0.05,0.273-0.315,0.443-0.581,0.403
					C4.615,7.153,4.396,7.112,4.188,7.073C3.967,7.39,3.707,7.674,3.411,7.924c0.05,0.218,0.1,0.445,0.148,0.678
					c0.057,0.271-0.117,0.535-0.387,0.592C3.138,9.201,3.104,9.204,3.069,9.204z"/>
			</g>
			<g>
				<path d="M11.954,8c-0.319,0-0.654-0.01-0.999-0.027c-0.275-0.014-0.487-0.248-0.474-0.524c0.013-0.274,0.221-0.505,0.524-0.474
					C11.348,6.991,11.693,6.996,11.998,7c0.319,0,0.651-0.01,0.992-0.025c0.271-0.032,0.509,0.199,0.522,0.476
					c0.014,0.275-0.199,0.51-0.476,0.522C12.664,7.991,12.295,7.994,11.954,8z M15.038,7.805c-0.251,0-0.468-0.189-0.496-0.445
					c-0.03-0.274,0.167-0.521,0.442-0.552c0.671-0.074,1.346-0.165,1.996-0.264c0.27-0.037,0.528,0.146,0.569,0.419
					c0.042,0.273-0.146,0.528-0.419,0.569c-0.664,0.101-1.353,0.193-2.037,0.27C15.075,7.804,15.057,7.805,15.038,7.805z
					 M8.955,7.804c-0.019,0-0.037-0.001-0.056-0.003C8.215,7.725,7.526,7.631,6.862,7.53C6.59,7.489,6.401,7.234,6.443,6.961
					C6.484,6.688,6.748,6.5,7.013,6.542c0.65,0.099,1.325,0.19,1.996,0.265c0.275,0.03,0.473,0.277,0.442,0.552
					C9.423,7.614,9.206,7.804,8.955,7.804z"/>
			</g>
			<g>
				<path d="M20.929,9.209c-0.034,0-0.068-0.003-0.104-0.011c-0.27-0.057-0.443-0.321-0.387-0.592
					c0.049-0.232,0.099-0.46,0.149-0.678c-0.297-0.252-0.557-0.538-0.778-0.855c-0.209,0.04-0.428,0.08-0.655,0.121
					c-0.266,0.046-0.532-0.133-0.58-0.404c-0.049-0.271,0.133-0.531,0.404-0.58c0.347-0.063,0.674-0.124,0.975-0.183
					c0.205-0.037,0.419,0.055,0.526,0.238c0.245,0.418,0.568,0.776,0.962,1.063c0.162,0.119,0.238,0.323,0.191,0.52
					c-0.071,0.302-0.146,0.626-0.216,0.964C21.368,9.047,21.16,9.209,20.929,9.209z"/>
			</g>
			<g>
				<path d="M20.566,13.615c-0.252,0-0.469-0.19-0.496-0.447C20.026,12.756,20,12.36,20,12c0-0.355,0.025-0.746,0.069-1.152
					c0.029-0.276,0.284-0.474,0.551-0.443c0.274,0.029,0.473,0.276,0.443,0.551C21.023,11.324,21,11.678,21,12
					c0,0.327,0.024,0.688,0.064,1.063c0.029,0.274-0.17,0.521-0.444,0.55C20.603,13.614,20.585,13.615,20.566,13.615z"/>
			</g>
		</g>
	</g>
</g>
<g id="Dashed_Frame_19">
</g>
<g id="Dashed_Frame_20">
</g>
<g id="Dashed_Frame_25">
</g>
<g id="Dashed_Frame_26">
</g>
<g id="Dashed_Frame_27">
</g>
<g id="Dashed_Frame_28">
</g>
<g id="Dashed_Frame_29">
</g>
<g id="Dashed_Frame_30">
</g>
<g id="Dashed_Frame_31">
</g>
<g id="Dashed_Frame_32">
</g>
<g id="Dashed_Frame_33">
</g>
<g id="Dashed_Frame_35">
</g>
</svg>
