<?xml version="1.0" encoding="iso-8859-1"?>
<!-- Generator: Adobe Illustrator 19.2.1, SVG Export Plug-In . SVG Version: 6.00 Build 0)  -->
<svg version="1.1" xmlns="http://www.w3.org/2000/svg" xmlns:xlink="http://www.w3.org/1999/xlink" x="0px" y="0px"
	 viewBox="0 0 24 24" style="enable-background:new 0 0 24 24;" xml:space="preserve">
<g id="Photo_frame">
</g>
<g id="Photo_frame_2">
</g>
<g id="Photo_frame_3">
</g>
<g id="Photo_frame__4">
</g>
<g id="Photo_frame_5">
	<g id="Layer_6">
	</g>
</g>
<g id="Photo_frame_6">
</g>
<g id="Photo_frame_7">
</g>
<g id="Round_Frame_1">
</g>
<g id="Rectangle_Frame_1">
</g>
<g id="Square_Frame_1">
</g>
<g id="Rectangle_Frame_2">
</g>
<g id="Oval_Frame_1">
</g>
<g id="Round_Frame_2">
</g>
<g id="Rectangle_Frame_3">
</g>
<g id="Rectangle_Frame_4">
</g>
<g id="Rectangle_Frame_5">
</g>
<g id="Square_Frame_2">
</g>
<g id="Rectangle_Frame_6">
</g>
<g id="Rectangle_Frame_7">
</g>
<g id="Oval_Frame_2">
</g>
<g id="Round_Frame_3">
</g>
<g id="Rectangle_Frame_8">
</g>
<g id="Square_Frame_3">
</g>
<g id="Rectangle_Frame_9">
</g>
<g id="Rectangle_Frame_10">
</g>
<g id="Square_Frame_4">
</g>
<g id="Rectangle_Frame_11">
</g>
<g id="Rectangle_Frame_12">
</g>
<g id="Square_Frame_5">
</g>
<g id="Rectangle_Frame_13">
</g>
<g id="Frame_1">
</g>
<g id="Frame_2">
</g>
<g id="Round_Frame_4">
</g>
<g id="Frame_3">
</g>
<g id="Frame_4">
</g>
<g id="Frame_5">
</g>
<g id="Frame_6">
</g>
<g id="Frame_7">
</g>
<g id="Frame_8">
</g>
<g id="Frame_9">
</g>
<g id="Frame_10">
</g>
<g id="Frame_11">
</g>
<g id="Frame_12">
</g>
<g id="Frame_13">
</g>
<g id="Frame_14">
</g>
<g id="Frame_15">
</g>
<g id="Frame_16">
</g>
<g id="Frame_17">
</g>
<g id="Frame_18">
</g>
<g id="Frame_19">
</g>
<g id="Frame_20">
</g>
<g id="Frame_21">
</g>
<g id="Frame_22">
</g>
<g id="Frame_23">
</g>
<g id="Frame_24">
</g>
<g id="Frame_25">
</g>
<g id="Frame_26">
</g>
<g id="Frame_27">
</g>
<g id="Frame_28">
</g>
<g id="Frame_29">
</g>
<g id="Frame_30">
</g>
<g id="Frame_Hole_1">
</g>
<g id="Frame_Hole_2">
</g>
<g id="Frame_Hole_3">
</g>
<g id="Frame_Hole_4">
</g>
<g id="Frame_31">
</g>
<g id="Frame_32">
</g>
<g id="Frame_33">
</g>
<g id="Frame_34">
</g>
<g id="Frame_35">
</g>
<g id="Dashed_Frame_1">
</g>
<g id="Dashed_Frame_2">
</g>
<g id="Dashed_Frame_3">
</g>
<g id="Dashed_Frame_4">
</g>
<g id="Dashed_Frame_5">
</g>
<g id="Dashed_Frame_6">
</g>
<g id="Dashed_Frame_7">
</g>
<g id="Dashed_Frame_8">
</g>
<g id="Dashed_Frame_9">
</g>
<g id="Dashed_Frame_10">
</g>
<g id="Dashed_Frame_11">
</g>
<g id="Dashed_Frame_12">
</g>
<g id="Dashed_Frame_13">
</g>
<g id="Dashed_Frame_14">
</g>
<g id="Dashed_Frame_15">
</g>
<g id="Dashed_Frame_16">
</g>
<g id="Dashed_Frame_17">
</g>
<g id="Dashed_Frame_18">
</g>
<g id="Dashed_Frame_19">
	<g>
		<g>
			<g>
				<path d="M11.999,23.179c-0.883,0-1.767-0.263-2.537-0.789L7.33,20.934c-0.547-0.373-1.141-0.673-1.764-0.889l-2.033-0.708
					c-2.073-0.721-3.318-2.815-2.961-4.981l0.27-1.637c0.08-0.487,0.08-0.98-0.001-1.467L0.438,8.816
					C0.159,7.132,1.127,5.501,2.74,4.939c0-0.001,0-0.001,0-0.001l2.826-0.983c0.623-0.216,1.217-0.516,1.765-0.889L9.462,1.61
					c1.54-1.052,3.533-1.054,5.075,0l2.132,1.456c0.547,0.373,1.141,0.673,1.764,0.889l2.827,0.983
					c1.613,0.563,2.581,2.193,2.303,3.878l-0.405,2.45c-0.08,0.486-0.08,0.98,0,1.468l0.269,1.619
					c0.358,2.166-0.887,4.263-2.961,4.984l-2.032,0.707c-0.623,0.216-1.217,0.516-1.765,0.889l-2.131,1.456
					C13.767,22.916,12.883,23.179,11.999,23.179z M3.068,5.883c-1.151,0.402-1.844,1.566-1.645,2.77l0.403,2.436
					c0.099,0.595,0.1,1.198,0.001,1.793l-0.27,1.637c-0.277,1.685,0.691,3.314,2.303,3.874L5.895,19.1
					c0.706,0.246,1.379,0.585,1.999,1.008l2.133,1.456c1.198,0.819,2.748,0.817,3.946,0l2.132-1.456
					c0.621-0.423,1.294-0.762,2-1.008l2.032-0.707c1.612-0.561,2.581-2.191,2.303-3.875l-0.269-1.62
					c-0.098-0.596-0.098-1.199,0-1.794l0.405-2.451c0.199-1.203-0.493-2.367-1.645-2.77L18.104,4.9
					c-0.706-0.246-1.379-0.585-1.999-1.008l-2.133-1.456c-1.198-0.819-2.748-0.817-3.946,0L7.895,3.893
					c-0.621,0.423-1.294,0.762-2,1.008L3.068,5.883z"/>
			</g>
			<g>
				<path d="M12,21.173c-0.505,0-0.992-0.15-1.409-0.435l-0.663-0.452C9.7,20.13,9.642,19.819,9.797,19.591
					c0.156-0.228,0.468-0.284,0.695-0.131l0.662,0.452c0.5,0.342,1.191,0.341,1.691-0.001c0.226-0.153,0.54-0.104,0.699,0.122
					c0.156,0.225,0.11,0.528-0.112,0.688l-0.014,0.01C12.993,21.022,12.506,21.173,12,21.173z M14.794,19.688
					c-0.159,0-0.316-0.076-0.413-0.218c-0.155-0.229-0.097-0.54,0.131-0.695l0.464-0.316c0.416-0.284,0.854-0.539,1.303-0.76
					c0.248-0.12,0.548-0.02,0.67,0.229c0.121,0.248,0.019,0.548-0.229,0.67c-0.406,0.199-0.804,0.431-1.18,0.688l-0.464,0.316
					C14.989,19.659,14.892,19.688,14.794,19.688z M8.558,19.247c-0.094,0-0.188-0.026-0.273-0.081
					c-0.529-0.346-1.097-0.639-1.684-0.871c-0.257-0.102-0.383-0.392-0.281-0.648s0.393-0.385,0.648-0.281
					c0.65,0.257,1.276,0.581,1.863,0.963c0.231,0.151,0.296,0.461,0.146,0.692C8.881,19.167,8.721,19.247,8.558,19.247z
					 M18.361,17.923c-0.207,0-0.4-0.129-0.473-0.336c-0.09-0.261,0.048-0.546,0.309-0.637l1.282-0.446
					c0.152-0.054,0.295-0.131,0.421-0.229c0.22-0.167,0.533-0.127,0.702,0.091c0.168,0.219,0.128,0.533-0.091,0.702
					c-0.211,0.161-0.446,0.289-0.701,0.38l-1.285,0.447C18.472,17.914,18.416,17.923,18.361,17.923z M4.897,17.665
					c-0.055,0-0.109-0.009-0.164-0.027L4.19,17.449c-0.568-0.198-1.046-0.593-1.345-1.111c-0.139-0.239-0.057-0.545,0.183-0.683
					c0.238-0.139,0.545-0.057,0.683,0.183c0.18,0.312,0.467,0.548,0.808,0.666l0.543,0.188c0.261,0.091,0.398,0.376,0.309,0.637
					C5.298,17.535,5.104,17.665,4.897,17.665z M20.978,15.419c-0.259,0-0.478-0.2-0.498-0.462c-0.002-0.037-0.008-0.075-0.014-0.113
					l-0.3-1.835c-0.036-0.273,0.156-0.524,0.431-0.562c0.265-0.035,0.523,0.156,0.562,0.431l0.294,1.803
					c0.012,0.066,0.02,0.134,0.025,0.2c0.021,0.275-0.186,0.516-0.461,0.537C21.003,15.419,20.99,15.419,20.978,15.419z
					 M3.141,14.646c-0.027,0-0.055-0.002-0.083-0.007c-0.272-0.045-0.456-0.303-0.411-0.575l0.169-1.021
					c0.048-0.295,0.076-0.594,0.084-0.893c0.008-0.271,0.229-0.486,0.5-0.486c0.004,0,0.009,0,0.014,0
					c0.276,0.008,0.494,0.237,0.486,0.514c-0.01,0.342-0.042,0.688-0.098,1.027l-0.169,1.022
					C3.593,14.472,3.381,14.646,3.141,14.646z M20.672,11.403c-0.022,0-0.046-0.002-0.068-0.006
					c-0.272-0.044-0.464-0.255-0.42-0.527l0.326-1.975c0.044-0.272,0.298-0.458,0.575-0.411c0.272,0.045,0.456,0.303,0.411,0.575
					l-0.312,1.881C21.144,11.189,20.918,11.403,20.672,11.403z M3.196,10.679c-0.24,0-0.452-0.174-0.492-0.418L2.411,8.49
					c-0.014-0.086-0.02-0.168-0.02-0.247l0.501-0.04l0.498,0.038l0.3,1.855c0.045,0.272-0.139,0.53-0.411,0.575
					C3.251,10.677,3.224,10.679,3.196,10.679z M20.417,7.793c-0.055,0-0.11-0.009-0.164-0.027l-1.89-0.657
					c-0.261-0.091-0.398-0.376-0.309-0.637c0.092-0.262,0.381-0.397,0.637-0.309l1.89,0.657c0.261,0.091,0.398,0.376,0.309,0.637
					C20.817,7.664,20.624,7.793,20.417,7.793z M4.323,7.535c-0.207,0-0.4-0.129-0.473-0.336c-0.09-0.261,0.048-0.546,0.309-0.637
					l1.889-0.657c0.258-0.089,0.546,0.047,0.637,0.309c0.09,0.261-0.048,0.546-0.309,0.637L4.487,7.508
					C4.434,7.526,4.378,7.535,4.323,7.535z M16.658,6.429c-0.071,0-0.144-0.015-0.212-0.047c-0.51-0.238-1.004-0.521-1.469-0.838
					l-0.32-0.22c-0.229-0.155-0.286-0.467-0.13-0.694s0.469-0.286,0.694-0.13l0.319,0.219c0.421,0.286,0.868,0.541,1.329,0.757
					c0.25,0.117,0.358,0.415,0.241,0.665C17.026,6.322,16.846,6.429,16.658,6.429z M8.038,6.07c-0.174,0-0.343-0.091-0.435-0.253
					c-0.137-0.24-0.053-0.546,0.188-0.682c0.228-0.129,0.45-0.269,0.667-0.417l0.968-0.661c0.229-0.154,0.54-0.097,0.695,0.131
					c0.155,0.229,0.097,0.539-0.131,0.695L9.022,5.545c-0.24,0.164-0.486,0.317-0.737,0.46C8.207,6.05,8.122,6.07,8.038,6.07z
					 M13.288,4.284c-0.098,0-0.195-0.028-0.282-0.087l-0.16-0.109c-0.376-0.257-0.863-0.326-1.295-0.192
					c-0.261,0.083-0.545-0.063-0.627-0.326c-0.083-0.264,0.063-0.544,0.326-0.627c0.722-0.228,1.532-0.108,2.159,0.319l0.161,0.109
					c0.228,0.156,0.286,0.467,0.131,0.695C13.604,4.208,13.447,4.284,13.288,4.284z"/>
			</g>
		</g>
		<g>
			<g>
				<path d="M11.999,23.179c-0.883,0-1.767-0.263-2.537-0.789L7.33,20.934c-0.547-0.373-1.141-0.673-1.764-0.889l-2.033-0.708
					c-2.073-0.721-3.318-2.815-2.961-4.981l0.27-1.637c0.08-0.487,0.08-0.98-0.001-1.467L0.438,8.816
					C0.159,7.132,1.127,5.501,2.74,4.939c0-0.001,0-0.001,0-0.001l2.826-0.983c0.623-0.216,1.217-0.516,1.765-0.889L9.462,1.61
					c1.54-1.052,3.533-1.054,5.075,0l2.132,1.456c0.547,0.373,1.141,0.673,1.764,0.889l2.827,0.983
					c1.613,0.563,2.581,2.193,2.303,3.878l-0.405,2.45c-0.08,0.486-0.08,0.98,0,1.468l0.269,1.619
					c0.358,2.166-0.887,4.263-2.961,4.984l-2.032,0.707c-0.623,0.216-1.217,0.516-1.765,0.889l-2.131,1.456
					C13.767,22.916,12.883,23.179,11.999,23.179z M3.068,5.883c-1.151,0.402-1.844,1.566-1.645,2.77l0.403,2.436
					c0.099,0.595,0.1,1.198,0.001,1.793l-0.27,1.637c-0.277,1.685,0.691,3.314,2.303,3.874L5.895,19.1
					c0.706,0.246,1.379,0.585,1.999,1.008l2.133,1.456c1.198,0.819,2.748,0.817,3.946,0l2.132-1.456
					c0.621-0.423,1.294-0.762,2-1.008l2.032-0.707c1.612-0.561,2.581-2.191,2.303-3.875l-0.269-1.62
					c-0.098-0.596-0.098-1.199,0-1.794l0.405-2.451c0.199-1.203-0.493-2.367-1.645-2.77L18.104,4.9
					c-0.706-0.246-1.379-0.585-1.999-1.008l-2.133-1.456c-1.198-0.819-2.748-0.817-3.946,0L7.895,3.893
					c-0.621,0.423-1.294,0.762-2,1.008L3.068,5.883z"/>
			</g>
			<g>
				<path d="M12,21.173c-0.505,0-0.992-0.15-1.409-0.435l-0.663-0.452C9.7,20.13,9.642,19.819,9.797,19.591
					c0.156-0.228,0.468-0.284,0.695-0.131l0.662,0.452c0.5,0.342,1.191,0.341,1.691-0.001c0.226-0.153,0.54-0.104,0.699,0.122
					c0.156,0.225,0.11,0.528-0.112,0.688l-0.014,0.01C12.993,21.022,12.506,21.173,12,21.173z M14.794,19.688
					c-0.159,0-0.316-0.076-0.413-0.218c-0.155-0.229-0.097-0.54,0.131-0.695l0.464-0.316c0.416-0.284,0.854-0.539,1.303-0.76
					c0.248-0.12,0.548-0.02,0.67,0.229c0.121,0.248,0.019,0.548-0.229,0.67c-0.406,0.199-0.804,0.431-1.18,0.688l-0.464,0.316
					C14.989,19.659,14.892,19.688,14.794,19.688z M8.558,19.247c-0.094,0-0.188-0.026-0.273-0.081
					c-0.529-0.346-1.097-0.639-1.684-0.871c-0.257-0.102-0.383-0.392-0.281-0.648s0.393-0.385,0.648-0.281
					c0.65,0.257,1.276,0.581,1.863,0.963c0.231,0.151,0.296,0.461,0.146,0.692C8.881,19.167,8.721,19.247,8.558,19.247z
					 M18.361,17.923c-0.207,0-0.4-0.129-0.473-0.336c-0.09-0.261,0.048-0.546,0.309-0.637l1.282-0.446
					c0.152-0.054,0.295-0.131,0.421-0.229c0.22-0.167,0.533-0.127,0.702,0.091c0.168,0.219,0.128,0.533-0.091,0.702
					c-0.211,0.161-0.446,0.289-0.701,0.38l-1.285,0.447C18.472,17.914,18.416,17.923,18.361,17.923z M4.897,17.665
					c-0.055,0-0.109-0.009-0.164-0.027L4.19,17.449c-0.568-0.198-1.046-0.593-1.345-1.111c-0.139-0.239-0.057-0.545,0.183-0.683
					c0.238-0.139,0.545-0.057,0.683,0.183c0.18,0.312,0.467,0.548,0.808,0.666l0.543,0.188c0.261,0.091,0.398,0.376,0.309,0.637
					C5.298,17.535,5.104,17.665,4.897,17.665z M20.978,15.419c-0.259,0-0.478-0.2-0.498-0.462c-0.002-0.037-0.008-0.075-0.014-0.113
					l-0.3-1.835c-0.036-0.273,0.156-0.524,0.431-0.562c0.265-0.035,0.523,0.156,0.562,0.431l0.294,1.803
					c0.012,0.066,0.02,0.134,0.025,0.2c0.021,0.275-0.186,0.516-0.461,0.537C21.003,15.419,20.99,15.419,20.978,15.419z
					 M3.141,14.646c-0.027,0-0.055-0.002-0.083-0.007c-0.272-0.045-0.456-0.303-0.411-0.575l0.169-1.021
					c0.048-0.295,0.076-0.594,0.084-0.893c0.008-0.271,0.229-0.486,0.5-0.486c0.004,0,0.009,0,0.014,0
					c0.276,0.008,0.494,0.237,0.486,0.514c-0.01,0.342-0.042,0.688-0.098,1.027l-0.169,1.022
					C3.593,14.472,3.381,14.646,3.141,14.646z M20.672,11.403c-0.022,0-0.046-0.002-0.068-0.006
					c-0.272-0.044-0.464-0.255-0.42-0.527l0.326-1.975c0.044-0.272,0.298-0.458,0.575-0.411c0.272,0.045,0.456,0.303,0.411,0.575
					l-0.312,1.881C21.144,11.189,20.918,11.403,20.672,11.403z M3.196,10.679c-0.24,0-0.452-0.174-0.492-0.418L2.411,8.49
					c-0.014-0.086-0.02-0.168-0.02-0.247l0.501-0.04l0.498,0.038l0.3,1.855c0.045,0.272-0.139,0.53-0.411,0.575
					C3.251,10.677,3.224,10.679,3.196,10.679z M20.417,7.793c-0.055,0-0.11-0.009-0.164-0.027l-1.89-0.657
					c-0.261-0.091-0.398-0.376-0.309-0.637c0.092-0.262,0.381-0.397,0.637-0.309l1.89,0.657c0.261,0.091,0.398,0.376,0.309,0.637
					C20.817,7.664,20.624,7.793,20.417,7.793z M4.323,7.535c-0.207,0-0.4-0.129-0.473-0.336c-0.09-0.261,0.048-0.546,0.309-0.637
					l1.889-0.657c0.258-0.089,0.546,0.047,0.637,0.309c0.09,0.261-0.048,0.546-0.309,0.637L4.487,7.508
					C4.434,7.526,4.378,7.535,4.323,7.535z M16.658,6.429c-0.071,0-0.144-0.015-0.212-0.047c-0.51-0.238-1.004-0.521-1.469-0.838
					l-0.32-0.22c-0.229-0.155-0.286-0.467-0.13-0.694s0.469-0.286,0.694-0.13l0.319,0.219c0.421,0.286,0.868,0.541,1.329,0.757
					c0.25,0.117,0.358,0.415,0.241,0.665C17.026,6.322,16.846,6.429,16.658,6.429z M8.038,6.07c-0.174,0-0.343-0.091-0.435-0.253
					c-0.137-0.24-0.053-0.546,0.188-0.682c0.228-0.129,0.45-0.269,0.667-0.417l0.968-0.661c0.229-0.154,0.54-0.097,0.695,0.131
					c0.155,0.229,0.097,0.539-0.131,0.695L9.022,5.545c-0.24,0.164-0.486,0.317-0.737,0.46C8.207,6.05,8.122,6.07,8.038,6.07z
					 M13.288,4.284c-0.098,0-0.195-0.028-0.282-0.087l-0.16-0.109c-0.376-0.257-0.863-0.326-1.295-0.192
					c-0.261,0.083-0.545-0.063-0.627-0.326c-0.083-0.264,0.063-0.544,0.326-0.627c0.722-0.228,1.532-0.108,2.159,0.319l0.161,0.109
					c0.228,0.156,0.286,0.467,0.131,0.695C13.604,4.208,13.447,4.284,13.288,4.284z"/>
			</g>
		</g>
	</g>
</g>
<g id="Dashed_Frame_20">
</g>
<g id="Dashed_Frame_25">
</g>
<g id="Dashed_Frame_26">
</g>
<g id="Dashed_Frame_27">
</g>
<g id="Dashed_Frame_28">
</g>
<g id="Dashed_Frame_29">
</g>
<g id="Dashed_Frame_30">
</g>
<g id="Dashed_Frame_31">
</g>
<g id="Dashed_Frame_32">
</g>
<g id="Dashed_Frame_33">
</g>
<g id="Dashed_Frame_35">
</g>
</svg>
