<?xml version="1.0" encoding="iso-8859-1"?>
<!-- Generator: Adobe Illustrator 19.2.1, SVG Export Plug-In . SVG Version: 6.00 Build 0)  -->
<svg version="1.1" xmlns="http://www.w3.org/2000/svg" xmlns:xlink="http://www.w3.org/1999/xlink" x="0px" y="0px"
	 viewBox="0 0 24 24" style="enable-background:new 0 0 24 24;" xml:space="preserve">
<g id="Photo_frame">
</g>
<g id="Photo_frame_2">
</g>
<g id="Photo_frame_3">
</g>
<g id="Photo_frame__4">
</g>
<g id="Photo_frame_5">
	<g id="Layer_6">
	</g>
</g>
<g id="Photo_frame_6">
</g>
<g id="Photo_frame_7">
</g>
<g id="Round_Frame_1">
</g>
<g id="Rectangle_Frame_1">
</g>
<g id="Square_Frame_1">
</g>
<g id="Rectangle_Frame_2">
</g>
<g id="Oval_Frame_1">
</g>
<g id="Round_Frame_2">
</g>
<g id="Rectangle_Frame_3">
</g>
<g id="Rectangle_Frame_4">
</g>
<g id="Rectangle_Frame_5">
</g>
<g id="Square_Frame_2">
</g>
<g id="Rectangle_Frame_6">
</g>
<g id="Rectangle_Frame_7">
</g>
<g id="Oval_Frame_2">
</g>
<g id="Round_Frame_3">
</g>
<g id="Rectangle_Frame_8">
</g>
<g id="Square_Frame_3">
</g>
<g id="Rectangle_Frame_9">
</g>
<g id="Rectangle_Frame_10">
</g>
<g id="Square_Frame_4">
</g>
<g id="Rectangle_Frame_11">
</g>
<g id="Rectangle_Frame_12">
</g>
<g id="Square_Frame_5">
</g>
<g id="Rectangle_Frame_13">
</g>
<g id="Frame_1">
</g>
<g id="Frame_2">
</g>
<g id="Round_Frame_4">
</g>
<g id="Frame_3">
</g>
<g id="Frame_4">
</g>
<g id="Frame_5">
</g>
<g id="Frame_6">
</g>
<g id="Frame_7">
</g>
<g id="Frame_8">
</g>
<g id="Frame_9">
</g>
<g id="Frame_10">
</g>
<g id="Frame_11">
</g>
<g id="Frame_12">
</g>
<g id="Frame_13">
</g>
<g id="Frame_14">
</g>
<g id="Frame_15">
</g>
<g id="Frame_16">
</g>
<g id="Frame_17">
</g>
<g id="Frame_18">
</g>
<g id="Frame_19">
</g>
<g id="Frame_20">
</g>
<g id="Frame_21">
</g>
<g id="Frame_22">
</g>
<g id="Frame_23">
</g>
<g id="Frame_24">
</g>
<g id="Frame_25">
</g>
<g id="Frame_26">
</g>
<g id="Frame_27">
</g>
<g id="Frame_28">
</g>
<g id="Frame_29">
</g>
<g id="Frame_30">
</g>
<g id="Frame_Hole_1">
</g>
<g id="Frame_Hole_2">
</g>
<g id="Frame_Hole_3">
</g>
<g id="Frame_Hole_4">
</g>
<g id="Frame_31">
</g>
<g id="Frame_32">
</g>
<g id="Frame_33">
</g>
<g id="Frame_34">
</g>
<g id="Frame_35">
</g>
<g id="Dashed_Frame_1">
</g>
<g id="Dashed_Frame_2">
</g>
<g id="Dashed_Frame_3">
</g>
<g id="Dashed_Frame_4">
</g>
<g id="Dashed_Frame_5">
</g>
<g id="Dashed_Frame_6">
</g>
<g id="Dashed_Frame_7">
</g>
<g id="Dashed_Frame_8">
</g>
<g id="Dashed_Frame_9">
</g>
<g id="Dashed_Frame_10">
</g>
<g id="Dashed_Frame_11">
</g>
<g id="Dashed_Frame_12">
</g>
<g id="Dashed_Frame_13">
</g>
<g id="Dashed_Frame_14">
</g>
<g id="Dashed_Frame_15">
</g>
<g id="Dashed_Frame_16">
</g>
<g id="Dashed_Frame_17">
</g>
<g id="Dashed_Frame_18">
</g>
<g id="Dashed_Frame_19">
</g>
<g id="Dashed_Frame_20">
	<g>
		<g>
			<path d="M12,19.5c-2.804,0-6.902-1.7-7.604-2H3.5C2.121,17.5,1,16.379,1,15v-0.632C0.405,14.04,0,13.13,0,12s0.405-2.04,1-2.368
				V9c0-1.379,1.121-2.5,2.5-2.5h0.896c0.701-0.3,4.8-2,7.604-2s6.902,1.7,7.604,2H20.5C21.879,6.5,23,7.621,23,9v0.632
				C23.595,9.96,24,10.87,24,12s-0.405,2.04-1,2.368V15c0,1.379-1.121,2.5-2.5,2.5h-0.896C18.902,17.8,14.804,19.5,12,19.5z
				 M3.5,7.5C2.673,7.5,2,8.173,2,9v1c0,0.276-0.224,0.5-0.5,0.5C1.376,10.5,1,11.032,1,12s0.376,1.5,0.5,1.5
				C1.776,13.5,2,13.724,2,14v1c0,0.827,0.673,1.5,1.5,1.5h1c0.069,0,0.138,0.015,0.201,0.042C4.745,16.562,9.2,18.5,12,18.5
				s7.255-1.938,7.299-1.958c0.063-0.027,0.132-0.042,0.201-0.042h1c0.827,0,1.5-0.673,1.5-1.5v-1c0-0.276,0.224-0.5,0.5-0.5
				c0.124,0,0.5-0.532,0.5-1.5s-0.376-1.5-0.5-1.5c-0.276,0-0.5-0.224-0.5-0.5V9c0-0.827-0.673-1.5-1.5-1.5h-1
				c-0.069,0-0.138-0.015-0.201-0.042C19.255,7.438,14.8,5.5,12,5.5S4.745,7.438,4.701,7.458C4.638,7.485,4.569,7.5,4.5,7.5H3.5z"/>
		</g>
		<g>
			<g>
				<path d="M4.5,15.5h-1C3.224,15.5,3,15.276,3,15v-1c0-0.276,0.224-0.5,0.5-0.5S4,13.724,4,14v0.5h0.5C4.776,14.5,5,14.724,5,15
					S4.776,15.5,4.5,15.5z"/>
			</g>
			<g>
				<path d="M3.5,13.167c-0.276,0-0.5-0.224-0.5-0.5v-1.333c0-0.276,0.224-0.5,0.5-0.5s0.5,0.224,0.5,0.5v1.333
					C4,12.943,3.776,13.167,3.5,13.167z"/>
			</g>
			<g>
				<path d="M3.5,10.5C3.224,10.5,3,10.276,3,10V9c0-0.276,0.224-0.5,0.5-0.5h1C4.776,8.5,5,8.724,5,9S4.776,9.5,4.5,9.5H4V10
					C4,10.276,3.776,10.5,3.5,10.5z"/>
			</g>
			<g>
				<path d="M6.597,8.813c-0.203,0-0.394-0.124-0.469-0.325C6.031,8.229,6.163,7.941,6.422,7.845
					c0.747-0.278,1.472-0.521,2.153-0.72c0.269-0.073,0.542,0.076,0.62,0.341C9.272,7.73,9.12,8.008,8.854,8.086
					C8.197,8.277,7.496,8.512,6.771,8.782C6.714,8.804,6.655,8.813,6.597,8.813z M17.404,8.813c-0.059,0-0.117-0.01-0.175-0.031
					c-0.709-0.266-1.43-0.507-2.085-0.699c-0.265-0.077-0.417-0.354-0.339-0.62c0.077-0.264,0.351-0.417,0.62-0.339
					c0.688,0.201,1.412,0.443,2.153,0.721c0.259,0.098,0.391,0.386,0.294,0.644C17.798,8.689,17.606,8.813,17.404,8.813z
					 M10.888,7.599c-0.242,0-0.455-0.177-0.493-0.424c-0.042-0.272,0.145-0.528,0.418-0.57c0.435-0.067,0.833-0.103,1.185-0.104
					c0.352,0,0.751,0.034,1.19,0.103c0.272,0.042,0.459,0.298,0.417,0.571c-0.042,0.272-0.292,0.458-0.571,0.417
					C12.646,7.53,12.298,7.5,12,7.5c-0.3,0.002-0.648,0.033-1.035,0.093C10.939,7.597,10.913,7.599,10.888,7.599z"/>
			</g>
			<g>
				<path d="M20.5,10.5c-0.276,0-0.5-0.224-0.5-0.5V9.5h-0.5C19.224,9.5,19,9.276,19,9s0.224-0.5,0.5-0.5h1
					C20.776,8.5,21,8.724,21,9v1C21,10.276,20.776,10.5,20.5,10.5z"/>
			</g>
			<g>
				<path d="M20.5,13.166c-0.276,0-0.5-0.224-0.5-0.5v-1.333c0-0.276,0.224-0.5,0.5-0.5s0.5,0.224,0.5,0.5v1.333
					C21,12.942,20.776,13.166,20.5,13.166z"/>
			</g>
			<g>
				<path d="M20.5,15.5h-1c-0.276,0-0.5-0.224-0.5-0.5s0.224-0.5,0.5-0.5H20V14c0-0.276,0.224-0.5,0.5-0.5S21,13.724,21,14v1
					C21,15.276,20.776,15.5,20.5,15.5z"/>
			</g>
			<g>
				<path d="M12.003,17.5c-0.352,0-0.751-0.034-1.19-0.103c-0.272-0.042-0.459-0.298-0.417-0.571
					c0.042-0.271,0.293-0.457,0.571-0.417C11.354,16.47,11.702,16.5,12,16.5c0.3-0.002,0.648-0.033,1.035-0.093
					c0.268-0.037,0.528,0.146,0.57,0.418s-0.145,0.528-0.418,0.57C12.753,17.463,12.354,17.498,12.003,17.5z M8.715,16.896
					c-0.046,0-0.094-0.007-0.141-0.021c-0.688-0.201-1.412-0.443-2.153-0.721c-0.259-0.098-0.391-0.386-0.294-0.644
					c0.097-0.26,0.388-0.391,0.644-0.294c0.709,0.266,1.43,0.507,2.085,0.699c0.265,0.077,0.417,0.354,0.339,0.62
					C9.131,16.755,8.932,16.896,8.715,16.896z M15.285,16.895c-0.217,0-0.416-0.142-0.48-0.36c-0.077-0.265,0.075-0.542,0.341-0.62
					c0.657-0.191,1.358-0.426,2.083-0.696c0.256-0.097,0.546,0.035,0.644,0.294c0.097,0.259-0.035,0.547-0.294,0.644
					c-0.747,0.278-1.472,0.521-2.153,0.72C15.378,16.888,15.331,16.895,15.285,16.895z"/>
			</g>
		</g>
	</g>
</g>
<g id="Dashed_Frame_25">
</g>
<g id="Dashed_Frame_26">
</g>
<g id="Dashed_Frame_27">
</g>
<g id="Dashed_Frame_28">
</g>
<g id="Dashed_Frame_29">
</g>
<g id="Dashed_Frame_30">
</g>
<g id="Dashed_Frame_31">
</g>
<g id="Dashed_Frame_32">
</g>
<g id="Dashed_Frame_33">
</g>
<g id="Dashed_Frame_35">
</g>
</svg>
