<?xml version="1.0" encoding="iso-8859-1"?>
<!-- Generator: Adobe Illustrator 19.2.1, SVG Export Plug-In . SVG Version: 6.00 Build 0)  -->
<svg version="1.1" xmlns="http://www.w3.org/2000/svg" xmlns:xlink="http://www.w3.org/1999/xlink" x="0px" y="0px"
	 viewBox="0 0 24 24" style="enable-background:new 0 0 24 24;" xml:space="preserve">
<g id="Dashed_Frame_21">
</g>
<g id="Dashed_Frame_22">
</g>
<g id="Dashed_Frame_23">
</g>
<g id="Dashed_Frame_24">
</g>
<g id="Dashed_Frame_34">
	<g>
		<g>
			<path d="M12,23.993c-0.92,0-1.84-0.278-2.625-0.837L7.748,22H2.5C2.224,22,2,21.776,2,21.5v-2.331
				c-1.385-1.07-2.093-2.854-1.813-4.622l0.279-1.763c0.085-0.528,0.085-1.066,0-1.6L0.048,8.561C-0.209,6.944,0.602,5.342,2,4.62
				V2.5C2,2.224,2.224,2,2.5,2h5.248l1.627-1.157c1.569-1.115,3.678-1.116,5.249,0L16.251,2H21.5C21.776,2,22,2.224,22,2.5v2.12
				c1.397,0.722,2.208,2.323,1.952,3.939v0L23.533,11.2c-0.085,0.531-0.085,1.069,0,1.6l0.277,1.746
				c0.28,1.767-0.427,3.551-1.811,4.621V21.5c0,0.276-0.224,0.5-0.5,0.5h-5.249l-1.627,1.156C13.839,23.715,12.919,23.993,12,23.993
				z M3,21h4.907c0.104,0,0.205,0.032,0.29,0.093l1.758,1.249c1.241,0.882,2.846,0.883,4.089,0l1.758-1.249
				C15.887,21.032,15.988,21,16.092,21H21v-2.087c0-0.165,0.081-0.319,0.217-0.412c1.21-0.83,1.841-2.32,1.605-3.799l-0.277-1.745
				c-0.101-0.635-0.101-1.279,0-1.914l0.419-2.64v0c0.203-1.276-0.49-2.536-1.648-2.997C21.125,5.33,21,5.146,21,4.941V3h-4.908
				c-0.104,0-0.205-0.032-0.29-0.092l-1.758-1.25c-1.243-0.884-2.848-0.882-4.089,0l-1.758,1.25C8.112,2.968,8.011,3,7.907,3H3v1.94
				c0,0.205-0.125,0.389-0.315,0.464C1.526,5.866,0.832,7.127,1.036,8.403l0.418,2.624c0.101,0.638,0.101,1.282,0,1.913
				l-0.279,1.763c-0.234,1.479,0.397,2.97,1.607,3.8C2.919,18.596,3,18.75,3,18.915V21z"/>
		</g>
		<g>
			<g>
				<path d="M5.5,20h-1C4.224,20,4,19.776,4,19.5v-1.376l-0.607-0.417c-0.229-0.155-0.286-0.467-0.13-0.694s0.469-0.285,0.694-0.13
					l0.825,0.565C4.919,17.541,5,17.695,5,17.86V19h0.5C5.776,19,6,19.224,6,19.5S5.776,20,5.5,20z"/>
			</g>
			<g>
				<path d="M2.627,15.831c-0.276,0-0.5-0.224-0.5-0.5c0-0.172,0.012-0.322,0.037-0.474l0.295-1.878
					c0.037-0.275,0.291-0.464,0.563-0.43c0.273,0.037,0.466,0.288,0.43,0.562l-0.3,1.904c-0.017,0.103-0.024,0.202-0.024,0.315
					C3.127,15.607,2.903,15.831,2.627,15.831z M2.926,11.242c-0.241,0-0.454-0.175-0.493-0.421L2.069,8.538
					C2.026,8.265,2.212,8.009,2.485,7.965C2.753,7.92,3.015,8.107,3.058,8.38l0.363,2.283c0.043,0.273-0.143,0.529-0.416,0.572
					C2.979,11.24,2.952,11.242,2.926,11.242z"/>
			</g>
			<g>
				<path d="M3.571,7.167c-0.198,0-0.387-0.119-0.465-0.315C3.005,6.596,3.13,6.305,3.386,6.203L4,5.958V4.5C4,4.224,4.224,4,4.5,4
					h1C5.776,4,6,4.224,6,4.5S5.776,5,5.5,5H5v1.297c0,0.205-0.125,0.389-0.314,0.464l-0.929,0.37
					C3.695,7.156,3.633,7.167,3.571,7.167z"/>
			</g>
			<g>
				<path d="M16.468,5h-1.014c-0.104,0-0.205-0.032-0.29-0.092l-0.826-0.587c-0.225-0.16-0.277-0.472-0.117-0.697
					c0.159-0.225,0.474-0.277,0.697-0.118L15.613,4h0.854c0.276,0,0.5,0.224,0.5,0.5S16.744,5,16.468,5z M8.545,5H7.527
					c-0.276,0-0.5-0.224-0.5-0.5S7.251,4,7.527,4h0.858l0.691-0.492C9.302,3.349,9.614,3.4,9.774,3.626
					c0.16,0.225,0.107,0.537-0.117,0.697L8.835,4.908C8.75,4.968,8.648,5,8.545,5z M11.027,3.253c-0.176,0-0.347-0.093-0.438-0.258
					c-0.134-0.242-0.046-0.546,0.196-0.68c0.745-0.41,1.678-0.413,2.423-0.002c0.242,0.133,0.331,0.437,0.198,0.679
					c-0.134,0.243-0.439,0.328-0.679,0.198c-0.461-0.253-1.003-0.25-1.46,0.001C11.192,3.233,11.109,3.253,11.027,3.253z"/>
			</g>
			<g>
				<path d="M20.43,7.168c-0.062,0-0.124-0.011-0.185-0.035l-0.93-0.369C19.125,6.688,19,6.504,19,6.299V5h-0.5
					C18.224,5,18,4.776,18,4.5S18.224,4,18.5,4h1C19.776,4,20,4.224,20,4.5v1.459l0.614,0.244c0.257,0.102,0.382,0.393,0.28,0.649
					C20.816,7.049,20.629,7.168,20.43,7.168z"/>
			</g>
			<g>
				<path d="M21.37,15.823c-0.276,0-0.5-0.221-0.5-0.497c0-0.106-0.007-0.208-0.023-0.31l-0.301-1.91
					c-0.037-0.273,0.154-0.525,0.429-0.562c0.27-0.037,0.525,0.154,0.562,0.429l0.299,1.886c0.024,0.153,0.035,0.308,0.035,0.461
					C21.87,15.597,21.646,15.823,21.37,15.823z M21.075,11.239c-0.026,0-0.053-0.002-0.079-0.006
					c-0.273-0.043-0.459-0.299-0.416-0.572l0.362-2.282c0.043-0.273,0.303-0.458,0.572-0.415c0.273,0.043,0.459,0.299,0.416,0.572
					l-0.362,2.282C21.529,11.064,21.316,11.239,21.075,11.239z"/>
			</g>
			<g>
				<path d="M19.5,20h-1c-0.276,0-0.5-0.224-0.5-0.5s0.224-0.5,0.5-0.5H19v-1.141c0-0.165,0.081-0.319,0.218-0.412l0.825-0.565
					c0.227-0.156,0.539-0.099,0.694,0.13c0.156,0.228,0.099,0.539-0.13,0.694L20,18.123V19.5C20,19.776,19.776,20,19.5,20z"/>
			</g>
			<g>
				<path d="M12,22c-0.418,0-0.836-0.107-1.208-0.312c-0.242-0.133-0.331-0.437-0.198-0.679c0.133-0.243,0.439-0.331,0.679-0.198
					c0.459,0.251,1.004,0.25,1.457-0.003c0.24-0.13,0.545-0.047,0.681,0.194c0.134,0.242,0.047,0.546-0.194,0.681
					C12.842,21.891,12.422,22,12,22z M9.373,20.588c-0.101,0-0.201-0.03-0.289-0.093L8.386,20H7.533c-0.276,0-0.5-0.224-0.5-0.5
					s0.224-0.5,0.5-0.5h1.012c0.104,0,0.205,0.032,0.289,0.093l0.828,0.588c0.226,0.159,0.278,0.472,0.118,0.696
					C9.684,20.515,9.529,20.588,9.373,20.588z M14.633,20.583c-0.156,0-0.311-0.073-0.408-0.211
					c-0.159-0.225-0.106-0.537,0.119-0.697l0.821-0.583C15.249,19.032,15.351,19,15.454,19h1.02c0.276,0,0.5,0.224,0.5,0.5
					s-0.224,0.5-0.5,0.5h-0.86l-0.691,0.49C14.834,20.553,14.733,20.583,14.633,20.583z"/>
			</g>
		</g>
	</g>
</g>
</svg>
