<?xml version="1.0" encoding="iso-8859-1"?>
<!-- Generator: Adobe Illustrator 19.2.1, SVG Export Plug-In . SVG Version: 6.00 Build 0)  -->
<svg version="1.1" xmlns="http://www.w3.org/2000/svg" xmlns:xlink="http://www.w3.org/1999/xlink" x="0px" y="0px"
	 viewBox="0 0 24 24" style="enable-background:new 0 0 24 24;" xml:space="preserve">
<g id="Photo_frame">
</g>
<g id="Photo_frame_2">
</g>
<g id="Photo_frame_3">
</g>
<g id="Photo_frame__4">
</g>
<g id="Photo_frame_5">
	<g id="Layer_6">
	</g>
</g>
<g id="Photo_frame_6">
</g>
<g id="Photo_frame_7">
</g>
<g id="Round_Frame_1">
</g>
<g id="Rectangle_Frame_1">
</g>
<g id="Square_Frame_1">
</g>
<g id="Rectangle_Frame_2">
</g>
<g id="Oval_Frame_1">
</g>
<g id="Round_Frame_2">
</g>
<g id="Rectangle_Frame_3">
</g>
<g id="Rectangle_Frame_4">
</g>
<g id="Rectangle_Frame_5">
</g>
<g id="Square_Frame_2">
</g>
<g id="Rectangle_Frame_6">
</g>
<g id="Rectangle_Frame_7">
</g>
<g id="Oval_Frame_2">
</g>
<g id="Round_Frame_3">
</g>
<g id="Rectangle_Frame_8">
</g>
<g id="Square_Frame_3">
</g>
<g id="Rectangle_Frame_9">
</g>
<g id="Rectangle_Frame_10">
</g>
<g id="Square_Frame_4">
</g>
<g id="Rectangle_Frame_11">
</g>
<g id="Rectangle_Frame_12">
</g>
<g id="Square_Frame_5">
</g>
<g id="Rectangle_Frame_13">
</g>
<g id="Frame_1">
</g>
<g id="Frame_2">
</g>
<g id="Round_Frame_4">
</g>
<g id="Frame_3">
</g>
<g id="Frame_4">
</g>
<g id="Frame_5">
</g>
<g id="Frame_6">
</g>
<g id="Frame_7">
</g>
<g id="Frame_8">
</g>
<g id="Frame_9">
</g>
<g id="Frame_10">
</g>
<g id="Frame_11">
</g>
<g id="Frame_12">
</g>
<g id="Frame_13">
</g>
<g id="Frame_14">
</g>
<g id="Frame_15">
</g>
<g id="Frame_16">
</g>
<g id="Frame_17">
</g>
<g id="Frame_18">
</g>
<g id="Frame_19">
</g>
<g id="Frame_20">
</g>
<g id="Frame_21">
</g>
<g id="Frame_22">
</g>
<g id="Frame_23">
</g>
<g id="Frame_24">
</g>
<g id="Frame_25">
</g>
<g id="Frame_26">
</g>
<g id="Frame_27">
</g>
<g id="Frame_28">
</g>
<g id="Frame_29">
</g>
<g id="Frame_30">
</g>
<g id="Frame_Hole_1">
</g>
<g id="Frame_Hole_2">
</g>
<g id="Frame_Hole_3">
</g>
<g id="Frame_Hole_4">
</g>
<g id="Frame_31">
</g>
<g id="Frame_32">
</g>
<g id="Frame_33">
</g>
<g id="Frame_34">
</g>
<g id="Frame_35">
</g>
<g id="Dashed_Frame_1">
</g>
<g id="Dashed_Frame_2">
</g>
<g id="Dashed_Frame_3">
</g>
<g id="Dashed_Frame_4">
</g>
<g id="Dashed_Frame_5">
</g>
<g id="Dashed_Frame_6">
</g>
<g id="Dashed_Frame_7">
	<g>
		<g>
			<path d="M12,21.94c-0.134,0-0.262-0.054-0.355-0.148l-5.187-5.245l-6.177-4.131C0.143,12.323,0.06,12.167,0.06,12
				s0.083-0.323,0.222-0.416l6.177-4.131l5.187-5.245c0.188-0.189,0.523-0.189,0.711,0l5.187,5.245l6.177,4.131
				c0.139,0.093,0.222,0.249,0.222,0.416s-0.083,0.322-0.222,0.416l-6.185,4.138l-5.179,5.238C12.262,21.887,12.134,21.94,12,21.94z
				 M1.459,12l5.598,3.743c0.027,0.02,0.054,0.041,0.077,0.064L12,20.729l4.858-4.915c0.023-0.023,0.05-0.045,0.077-0.064L22.541,12
				l-5.598-3.743c-0.027-0.02-0.054-0.041-0.077-0.064L12,3.271L7.134,8.192C7.11,8.216,7.084,8.237,7.057,8.257L1.459,12z"/>
		</g>
		<g>
			<g>
				<path d="M4.676,13.056c-0.096,0-0.192-0.027-0.278-0.084l-0.831-0.556C3.428,12.323,3.345,12.167,3.345,12
					s0.083-0.323,0.222-0.416l0.831-0.556c0.23-0.153,0.54-0.092,0.694,0.138c0.153,0.229,0.092,0.54-0.138,0.694L4.744,12
					l0.21,0.14c0.229,0.154,0.291,0.465,0.138,0.694C4.995,12.978,4.837,13.056,4.676,13.056z"/>
			</g>
			<g>
				<path d="M6.11,10.984c-0.161,0-0.319-0.078-0.416-0.222c-0.153-0.23-0.092-0.541,0.138-0.694l1.435-0.959
					c0.229-0.152,0.54-0.091,0.694,0.138c0.153,0.23,0.092,0.541-0.138,0.694L6.389,10.9C6.303,10.957,6.206,10.984,6.11,10.984z
					 M8.871,8.935c-0.127,0-0.254-0.048-0.352-0.145C8.323,8.596,8.321,8.279,8.516,8.083l1.213-1.227
					c0.193-0.195,0.51-0.199,0.707-0.004c0.196,0.194,0.198,0.511,0.004,0.707L9.227,8.786C9.129,8.885,9,8.935,8.871,8.935z"/>
			</g>
			<g>
				<path d="M12.703,6.481c-0.129,0-0.258-0.05-0.355-0.148L12,5.981l-0.348,0.352c-0.194,0.196-0.511,0.198-0.707,0.004
					s-0.198-0.511-0.004-0.707l0.703-0.711c0.188-0.189,0.523-0.189,0.711,0l0.703,0.711c0.194,0.196,0.192,0.513-0.004,0.707
					C12.957,6.434,12.83,6.481,12.703,6.481z"/>
			</g>
			<g>
				<path d="M17.89,10.984c-0.096,0-0.192-0.027-0.278-0.084l-1.435-0.959c-0.229-0.153-0.291-0.464-0.138-0.694
					c0.154-0.229,0.464-0.29,0.694-0.138l1.435,0.959c0.229,0.153,0.291,0.464,0.138,0.694
					C18.209,10.906,18.051,10.984,17.89,10.984z M15.129,8.935c-0.129,0-0.258-0.05-0.355-0.148L13.561,7.56
					c-0.194-0.196-0.192-0.513,0.004-0.707c0.197-0.195,0.514-0.191,0.707,0.004l1.213,1.227c0.194,0.196,0.192,0.513-0.004,0.707
					C15.383,8.887,15.256,8.935,15.129,8.935z"/>
			</g>
			<g>
				<path d="M19.324,13.056c-0.161,0-0.319-0.078-0.416-0.222c-0.153-0.229-0.092-0.54,0.138-0.694l0.21-0.14l-0.21-0.14
					c-0.229-0.154-0.291-0.465-0.138-0.694c0.154-0.229,0.464-0.29,0.694-0.138l0.831,0.556c0.139,0.093,0.222,0.249,0.222,0.416
					s-0.083,0.323-0.222,0.416l-0.831,0.556C19.517,13.028,19.42,13.056,19.324,13.056z"/>
			</g>
			<g>
				<path d="M13.916,17.292c-0.127,0-0.254-0.048-0.352-0.145c-0.196-0.194-0.198-0.511-0.004-0.707l1.213-1.227
					c0.194-0.196,0.511-0.198,0.707-0.004s0.198,0.511,0.004,0.707l-1.213,1.227C14.174,17.242,14.045,17.292,13.916,17.292z
					 M16.455,14.975c-0.161,0-0.319-0.078-0.416-0.222c-0.153-0.23-0.092-0.541,0.138-0.694l1.435-0.959
					c0.23-0.152,0.54-0.092,0.694,0.138c0.153,0.23,0.092,0.541-0.138,0.694l-1.435,0.959
					C16.647,14.947,16.551,14.975,16.455,14.975z"/>
			</g>
			<g>
				<path d="M12,19.229c-0.134,0-0.262-0.054-0.355-0.148l-0.703-0.711c-0.194-0.196-0.192-0.513,0.004-0.707
					s0.513-0.192,0.707,0.004L12,18.019l0.348-0.352c0.194-0.196,0.511-0.198,0.707-0.004s0.198,0.511,0.004,0.707l-0.703,0.711
					C12.262,19.176,12.134,19.229,12,19.229z"/>
			</g>
			<g>
				<path d="M10.083,17.292c-0.129,0-0.258-0.05-0.355-0.148l-1.213-1.227c-0.194-0.196-0.192-0.513,0.004-0.707
					s0.513-0.192,0.707,0.004l1.213,1.227c0.194,0.196,0.192,0.513-0.004,0.707C10.337,17.244,10.21,17.292,10.083,17.292z
					 M7.544,14.975c-0.096,0-0.192-0.027-0.278-0.085l-1.434-0.96c-0.229-0.153-0.291-0.464-0.137-0.693
					c0.152-0.229,0.462-0.291,0.693-0.137l1.434,0.96c0.229,0.153,0.291,0.464,0.137,0.693C7.863,14.896,7.705,14.975,7.544,14.975z
					"/>
			</g>
		</g>
	</g>
</g>
<g id="Dashed_Frame_8">
</g>
<g id="Dashed_Frame_9">
</g>
<g id="Dashed_Frame_10">
</g>
<g id="Dashed_Frame_11">
</g>
<g id="Dashed_Frame_12">
</g>
<g id="Dashed_Frame_13">
</g>
<g id="Dashed_Frame_14">
</g>
<g id="Dashed_Frame_15">
</g>
<g id="Dashed_Frame_16">
</g>
<g id="Dashed_Frame_17">
</g>
<g id="Dashed_Frame_18">
</g>
<g id="Dashed_Frame_19">
</g>
<g id="Dashed_Frame_20">
</g>
<g id="Dashed_Frame_25">
</g>
<g id="Dashed_Frame_26">
</g>
<g id="Dashed_Frame_27">
</g>
<g id="Dashed_Frame_28">
</g>
<g id="Dashed_Frame_29">
</g>
<g id="Dashed_Frame_30">
</g>
<g id="Dashed_Frame_31">
</g>
<g id="Dashed_Frame_32">
</g>
<g id="Dashed_Frame_33">
</g>
<g id="Dashed_Frame_35">
</g>
</svg>
