<?xml version="1.0" encoding="iso-8859-1"?>
<!-- Generator: Adobe Illustrator 19.2.1, SVG Export Plug-In . SVG Version: 6.00 Build 0)  -->
<svg version="1.1" xmlns="http://www.w3.org/2000/svg" xmlns:xlink="http://www.w3.org/1999/xlink" x="0px" y="0px"
	 viewBox="0 0 24 24" style="enable-background:new 0 0 24 24;" xml:space="preserve">
<g id="Photo_frame">
</g>
<g id="Photo_frame_2">
</g>
<g id="Photo_frame_3">
</g>
<g id="Photo_frame__4">
</g>
<g id="Photo_frame_5">
	<g id="Layer_6">
	</g>
</g>
<g id="Photo_frame_6">
</g>
<g id="Photo_frame_7">
</g>
<g id="Round_Frame_1">
</g>
<g id="Rectangle_Frame_1">
</g>
<g id="Square_Frame_1">
</g>
<g id="Rectangle_Frame_2">
</g>
<g id="Oval_Frame_1">
</g>
<g id="Round_Frame_2">
</g>
<g id="Rectangle_Frame_3">
</g>
<g id="Rectangle_Frame_4">
</g>
<g id="Rectangle_Frame_5">
</g>
<g id="Square_Frame_2">
</g>
<g id="Rectangle_Frame_6">
</g>
<g id="Rectangle_Frame_7">
</g>
<g id="Oval_Frame_2">
</g>
<g id="Round_Frame_3">
</g>
<g id="Rectangle_Frame_8">
</g>
<g id="Square_Frame_3">
</g>
<g id="Rectangle_Frame_9">
</g>
<g id="Rectangle_Frame_10">
</g>
<g id="Square_Frame_4">
</g>
<g id="Rectangle_Frame_11">
</g>
<g id="Rectangle_Frame_12">
</g>
<g id="Square_Frame_5">
</g>
<g id="Rectangle_Frame_13">
</g>
<g id="Frame_1">
</g>
<g id="Frame_2">
</g>
<g id="Round_Frame_4">
</g>
<g id="Frame_3">
</g>
<g id="Frame_4">
</g>
<g id="Frame_5">
</g>
<g id="Frame_6">
</g>
<g id="Frame_7">
</g>
<g id="Frame_8">
</g>
<g id="Frame_9">
</g>
<g id="Frame_10">
</g>
<g id="Frame_11">
</g>
<g id="Frame_12">
</g>
<g id="Frame_13">
</g>
<g id="Frame_14">
</g>
<g id="Frame_15">
</g>
<g id="Frame_16">
</g>
<g id="Frame_17">
</g>
<g id="Frame_18">
</g>
<g id="Frame_19">
</g>
<g id="Frame_20">
</g>
<g id="Frame_21">
</g>
<g id="Frame_22">
</g>
<g id="Frame_23">
</g>
<g id="Frame_24">
</g>
<g id="Frame_25">
</g>
<g id="Frame_26">
</g>
<g id="Frame_27">
</g>
<g id="Frame_28">
</g>
<g id="Frame_29">
</g>
<g id="Frame_30">
</g>
<g id="Frame_Hole_1">
</g>
<g id="Frame_Hole_2">
</g>
<g id="Frame_Hole_3">
</g>
<g id="Frame_Hole_4">
</g>
<g id="Frame_31">
</g>
<g id="Frame_32">
</g>
<g id="Frame_33">
</g>
<g id="Frame_34">
</g>
<g id="Frame_35">
</g>
<g id="Dashed_Frame_1">
</g>
<g id="Dashed_Frame_2">
</g>
<g id="Dashed_Frame_3">
</g>
<g id="Dashed_Frame_4">
</g>
<g id="Dashed_Frame_5">
</g>
<g id="Dashed_Frame_6">
</g>
<g id="Dashed_Frame_7">
</g>
<g id="Dashed_Frame_8">
</g>
<g id="Dashed_Frame_9">
</g>
<g id="Dashed_Frame_10">
</g>
<g id="Dashed_Frame_11">
	<g>
		<g>
			<path d="M12,24c-1.722,0-3.117-0.846-3.433-2H7.5C7.224,22,7,21.776,7,21.5C7,19.019,4.981,17,2.5,17C2.224,17,2,16.776,2,16.5
				v-1.067C0.846,15.117,0,13.723,0,12s0.846-3.117,2-3.433V7.5C2,7.224,2.224,7,2.5,7C4.981,7,7,4.981,7,2.5C7,2.224,7.224,2,7.5,2
				h1.067C8.883,0.846,10.278,0,12,0s3.117,0.846,3.433,2H16.5C16.776,2,17,2.224,17,2.5C17,4.981,19.019,7,21.5,7
				C21.776,7,22,7.224,22,7.5v1.067c1.154,0.315,2,1.71,2,3.433s-0.846,3.117-2,3.433V16.5c0,0.276-0.224,0.5-0.5,0.5
				c-2.481,0-4.5,2.019-4.5,4.5c0,0.276-0.224,0.5-0.5,0.5h-1.067C15.117,23.154,13.722,24,12,24z M7.978,21H9
				c0.276,0,0.5,0.224,0.5,0.5c0,0.813,1.145,1.5,2.5,1.5s2.5-0.687,2.5-1.5c0-0.276,0.224-0.5,0.5-0.5h1.022
				c0.238-2.635,2.343-4.739,4.978-4.978V15c0-0.276,0.224-0.5,0.5-0.5c0.813,0,1.5-1.145,1.5-2.5s-0.687-2.5-1.5-2.5
				C21.224,9.5,21,9.276,21,9V7.978C18.365,7.739,16.261,5.635,16.022,3H15c-0.276,0-0.5-0.224-0.5-0.5C14.5,1.687,13.355,1,12,1
				S9.5,1.687,9.5,2.5C9.5,2.776,9.276,3,9,3H7.978C7.739,5.635,5.635,7.739,3,7.978V9c0,0.276-0.224,0.5-0.5,0.5
				C1.687,9.5,1,10.645,1,12s0.687,2.5,1.5,2.5C2.776,14.5,3,14.724,3,15v1.022C5.635,16.261,7.739,18.365,7.978,21z"/>
		</g>
		<g>
			<g>
				<path d="M11.962,22c-0.002,0-0.005,0-0.007,0c-0.669-0.01-1.079-0.227-1.224-0.318C10.587,21.59,10.5,21.431,10.5,21.26V20
					H9.209c-0.221,0-0.416-0.146-0.479-0.357c-0.089-0.296-0.199-0.588-0.329-0.867c-0.116-0.251-0.007-0.548,0.243-0.664
					c0.252-0.118,0.548-0.007,0.664,0.242C9.406,18.564,9.494,18.78,9.572,19H11c0.276,0,0.5,0.224,0.5,0.5v1.434
					c0.121,0.035,0.28,0.063,0.47,0.066c0.276,0.004,0.497,0.231,0.493,0.507C12.458,21.781,12.235,22,11.962,22z"/>
			</g>
			<g>
				<path d="M7.995,17.668c-0.148,0-0.294-0.065-0.393-0.19c-0.315-0.398-0.677-0.762-1.078-1.079
					c-0.217-0.171-0.253-0.485-0.082-0.702c0.171-0.214,0.486-0.253,0.702-0.081c0.462,0.364,0.88,0.783,1.243,1.243
					c0.171,0.217,0.134,0.531-0.083,0.702C8.212,17.633,8.104,17.668,7.995,17.668z"/>
			</g>
			<g>
				<path d="M5.435,15.646c-0.07,0-0.142-0.015-0.21-0.047c-0.282-0.131-0.574-0.241-0.867-0.328C4.146,15.207,4,15.013,4,14.791
					V13.5H2.74c-0.171,0-0.33-0.087-0.421-0.231C2.226,13.124,2.01,12.714,2,12.044c-0.004-0.276,0.217-0.503,0.493-0.507
					c0.002,0,0.005,0,0.007,0c0.273,0,0.496,0.22,0.5,0.493c0.002,0.189,0.031,0.349,0.066,0.47H4.5C4.776,12.5,5,12.724,5,13v1.429
					c0.218,0.077,0.435,0.165,0.646,0.264c0.25,0.116,0.359,0.413,0.243,0.664C5.804,15.538,5.624,15.646,5.435,15.646z"/>
			</g>
			<g>
				<path d="M2.5,12.463c-0.002,0-0.004,0-0.007,0C2.218,12.459,1.997,12.232,2,11.956c0.009-0.67,0.226-1.08,0.318-1.225
					C2.411,10.587,2.569,10.5,2.74,10.5H4V9.209c0-0.222,0.146-0.416,0.357-0.479c0.293-0.087,0.585-0.197,0.867-0.328
					c0.25-0.119,0.548-0.007,0.664,0.242c0.116,0.251,0.007,0.548-0.243,0.664C5.435,9.406,5.218,9.494,5,9.571V11
					c0,0.276-0.224,0.5-0.5,0.5H3.066C3.031,11.621,3.003,11.78,3,11.97C2.997,12.243,2.773,12.463,2.5,12.463z"/>
			</g>
			<g>
				<path d="M6.833,8.495c-0.148,0-0.294-0.065-0.393-0.19C6.269,8.088,6.306,7.773,6.522,7.603
					c0.398-0.314,0.761-0.677,1.078-1.077c0.172-0.215,0.486-0.254,0.703-0.081C8.52,6.615,8.556,6.93,8.385,7.146
					C8.02,7.607,7.602,8.025,7.142,8.388C7.05,8.46,6.941,8.495,6.833,8.495z"/>
			</g>
			<g>
				<path d="M8.854,5.936c-0.07,0-0.142-0.015-0.209-0.046c-0.25-0.116-0.36-0.413-0.244-0.664c0.13-0.282,0.241-0.574,0.329-0.868
					C8.793,4.146,8.988,4,9.209,4H10.5V2.74c0-0.171,0.087-0.33,0.231-0.422C10.876,2.227,11.286,2.01,11.955,2
					c0.247-0.038,0.503,0.216,0.507,0.493C12.466,2.769,12.246,2.996,11.97,3c-0.19,0.003-0.349,0.031-0.47,0.066V4.5
					C11.5,4.776,11.276,5,11,5H9.571C9.494,5.219,9.406,5.435,9.308,5.646C9.224,5.828,9.043,5.936,8.854,5.936z"/>
			</g>
			<g>
				<path d="M15.146,5.936c-0.189,0-0.37-0.107-0.454-0.29C14.594,5.435,14.506,5.219,14.429,5H13c-0.276,0-0.5-0.224-0.5-0.5V3.066
					C12.379,3.031,12.22,3.003,12.03,3c-0.276-0.004-0.497-0.231-0.493-0.507C11.542,2.216,11.756,1.957,12.045,2
					c0.669,0.01,1.079,0.227,1.224,0.318C13.413,2.41,13.5,2.569,13.5,2.74V4h1.291c0.221,0,0.416,0.146,0.479,0.357
					c0.088,0.294,0.199,0.586,0.329,0.868c0.116,0.251,0.007,0.548-0.244,0.664C15.288,5.921,15.216,5.936,15.146,5.936z"/>
			</g>
			<g>
				<path d="M17.165,8.493c-0.108,0-0.218-0.035-0.31-0.108c-0.462-0.364-0.88-0.783-1.243-1.243
					c-0.171-0.217-0.134-0.531,0.083-0.702c0.217-0.171,0.532-0.134,0.702,0.083c0.315,0.398,0.677,0.762,1.078,1.079
					c0.217,0.171,0.253,0.485,0.082,0.702C17.459,8.428,17.313,8.493,17.165,8.493z"/>
			</g>
			<g>
				<path d="M21.5,12.463c-0.273,0-0.496-0.22-0.5-0.493c-0.002-0.189-0.031-0.349-0.066-0.47H19.5c-0.276,0-0.5-0.224-0.5-0.5
					V9.571c-0.218-0.077-0.435-0.165-0.646-0.264c-0.25-0.116-0.359-0.413-0.243-0.664c0.117-0.249,0.413-0.362,0.664-0.242
					c0.282,0.131,0.574,0.241,0.867,0.328C19.854,8.793,20,8.987,20,9.209V10.5h1.26c0.171,0,0.33,0.087,0.421,0.231
					c0.093,0.145,0.309,0.555,0.318,1.225c0.004,0.276-0.217,0.503-0.493,0.507C21.504,12.463,21.501,12.463,21.5,12.463z"/>
			</g>
			<g>
				<path d="M18.565,15.646c-0.189,0-0.369-0.107-0.454-0.289c-0.116-0.251-0.007-0.548,0.243-0.664
					c0.211-0.099,0.427-0.187,0.646-0.264V13c0-0.276,0.224-0.5,0.5-0.5h1.434c0.035-0.121,0.063-0.28,0.066-0.47
					c0.004-0.273,0.227-0.493,0.5-0.493c0.002,0,0.004,0,0.007,0c0.276,0.004,0.497,0.23,0.493,0.507
					c-0.009,0.67-0.226,1.08-0.318,1.225c-0.092,0.145-0.25,0.231-0.421,0.231H20v1.291c0,0.222-0.146,0.416-0.357,0.479
					c-0.293,0.087-0.585,0.197-0.867,0.328C18.708,15.631,18.636,15.646,18.565,15.646z"/>
			</g>
			<g>
				<path d="M16.007,17.664c-0.108,0-0.218-0.035-0.31-0.108c-0.216-0.171-0.253-0.485-0.082-0.702
					c0.365-0.461,0.783-0.879,1.243-1.241c0.218-0.171,0.532-0.134,0.702,0.083c0.171,0.217,0.134,0.531-0.083,0.702
					c-0.398,0.314-0.761,0.677-1.078,1.077C16.301,17.599,16.154,17.664,16.007,17.664z"/>
			</g>
			<g>
				<path d="M12.038,22c-0.273,0-0.496-0.219-0.5-0.493c-0.004-0.275,0.217-0.503,0.493-0.507c0.19-0.003,0.349-0.031,0.47-0.066
					V19.5c0-0.276,0.224-0.5,0.5-0.5h1.428c0.078-0.22,0.166-0.436,0.264-0.646c0.117-0.249,0.413-0.361,0.664-0.242
					c0.25,0.116,0.359,0.413,0.243,0.664c-0.13,0.279-0.24,0.571-0.329,0.867C15.207,19.854,15.012,20,14.791,20H13.5v1.26
					c0,0.171-0.087,0.33-0.231,0.422c-0.145,0.092-0.555,0.309-1.224,0.318C12.042,22,12.04,22,12.038,22z"/>
			</g>
		</g>
	</g>
</g>
<g id="Dashed_Frame_12">
</g>
<g id="Dashed_Frame_13">
</g>
<g id="Dashed_Frame_14">
</g>
<g id="Dashed_Frame_15">
</g>
<g id="Dashed_Frame_16">
</g>
<g id="Dashed_Frame_17">
</g>
<g id="Dashed_Frame_18">
</g>
<g id="Dashed_Frame_19">
</g>
<g id="Dashed_Frame_20">
</g>
<g id="Dashed_Frame_25">
</g>
<g id="Dashed_Frame_26">
</g>
<g id="Dashed_Frame_27">
</g>
<g id="Dashed_Frame_28">
</g>
<g id="Dashed_Frame_29">
</g>
<g id="Dashed_Frame_30">
</g>
<g id="Dashed_Frame_31">
</g>
<g id="Dashed_Frame_32">
</g>
<g id="Dashed_Frame_33">
</g>
<g id="Dashed_Frame_35">
</g>
</svg>
