<?xml version="1.0" encoding="iso-8859-1"?>
<!-- Generator: Adobe Illustrator 19.2.1, SVG Export Plug-In . SVG Version: 6.00 Build 0)  -->
<svg version="1.1" xmlns="http://www.w3.org/2000/svg" xmlns:xlink="http://www.w3.org/1999/xlink" x="0px" y="0px"
	 viewBox="0 0 24 24" style="enable-background:new 0 0 24 24;" xml:space="preserve">
<g id="Photo_frame">
</g>
<g id="Photo_frame_2">
</g>
<g id="Photo_frame_3">
</g>
<g id="Photo_frame__4">
</g>
<g id="Photo_frame_5">
	<g id="Layer_6">
	</g>
</g>
<g id="Photo_frame_6">
</g>
<g id="Photo_frame_7">
</g>
<g id="Round_Frame_1">
</g>
<g id="Rectangle_Frame_1">
</g>
<g id="Square_Frame_1">
</g>
<g id="Rectangle_Frame_2">
</g>
<g id="Oval_Frame_1">
</g>
<g id="Round_Frame_2">
</g>
<g id="Rectangle_Frame_3">
</g>
<g id="Rectangle_Frame_4">
</g>
<g id="Rectangle_Frame_5">
</g>
<g id="Square_Frame_2">
</g>
<g id="Rectangle_Frame_6">
</g>
<g id="Rectangle_Frame_7">
</g>
<g id="Oval_Frame_2">
</g>
<g id="Round_Frame_3">
</g>
<g id="Rectangle_Frame_8">
</g>
<g id="Square_Frame_3">
</g>
<g id="Rectangle_Frame_9">
</g>
<g id="Rectangle_Frame_10">
</g>
<g id="Square_Frame_4">
</g>
<g id="Rectangle_Frame_11">
</g>
<g id="Rectangle_Frame_12">
</g>
<g id="Square_Frame_5">
</g>
<g id="Rectangle_Frame_13">
</g>
<g id="Frame_1">
</g>
<g id="Frame_2">
</g>
<g id="Round_Frame_4">
</g>
<g id="Frame_3">
</g>
<g id="Frame_4">
</g>
<g id="Frame_5">
</g>
<g id="Frame_6">
</g>
<g id="Frame_7">
</g>
<g id="Frame_8">
</g>
<g id="Frame_9">
</g>
<g id="Frame_10">
</g>
<g id="Frame_11">
</g>
<g id="Frame_12">
</g>
<g id="Frame_13">
</g>
<g id="Frame_14">
</g>
<g id="Frame_15">
</g>
<g id="Frame_16">
</g>
<g id="Frame_17">
</g>
<g id="Frame_18">
</g>
<g id="Frame_19">
</g>
<g id="Frame_20">
</g>
<g id="Frame_21">
</g>
<g id="Frame_22">
</g>
<g id="Frame_23">
</g>
<g id="Frame_24">
</g>
<g id="Frame_25">
</g>
<g id="Frame_26">
</g>
<g id="Frame_27">
</g>
<g id="Frame_28">
</g>
<g id="Frame_29">
</g>
<g id="Frame_30">
</g>
<g id="Frame_Hole_1">
</g>
<g id="Frame_Hole_2">
</g>
<g id="Frame_Hole_3">
</g>
<g id="Frame_Hole_4">
</g>
<g id="Frame_31">
</g>
<g id="Frame_32">
</g>
<g id="Frame_33">
</g>
<g id="Frame_34">
</g>
<g id="Frame_35">
</g>
<g id="Dashed_Frame_1">
</g>
<g id="Dashed_Frame_2">
</g>
<g id="Dashed_Frame_3">
</g>
<g id="Dashed_Frame_4">
</g>
<g id="Dashed_Frame_5">
</g>
<g id="Dashed_Frame_6">
</g>
<g id="Dashed_Frame_7">
</g>
<g id="Dashed_Frame_8">
</g>
<g id="Dashed_Frame_9">
</g>
<g id="Dashed_Frame_10">
</g>
<g id="Dashed_Frame_11">
</g>
<g id="Dashed_Frame_12">
</g>
<g id="Dashed_Frame_13">
</g>
<g id="Dashed_Frame_14">
</g>
<g id="Dashed_Frame_15">
</g>
<g id="Dashed_Frame_16">
</g>
<g id="Dashed_Frame_17">
	<g>
		<g>
			<path d="M12,20.5c-1.97,0-3.923-0.346-5.655-1H2.5C2.224,19.5,2,19.276,2,19v-2.293C0.69,15.313,0,13.689,0,12
				s0.69-3.313,2-4.707V5c0-0.276,0.224-0.5,0.5-0.5h3.845c3.465-1.309,7.846-1.309,11.311,0H21.5C21.776,4.5,22,4.724,22,5v2.293
				c1.31,1.395,2,3.018,2,4.707s-0.69,3.313-2,4.707V19c0,0.276-0.224,0.5-0.5,0.5h-3.845C15.923,20.154,13.97,20.5,12,20.5z
				 M3,18.5h3.437c0.062,0,0.122,0.012,0.18,0.033c3.281,1.266,7.486,1.266,10.768,0c0.058-0.021,0.118-0.033,0.18-0.033H21v-1.994
				c0-0.131,0.052-0.257,0.144-0.351C22.358,14.919,23,13.482,23,12s-0.642-2.919-1.856-4.155C21.052,7.751,21,7.625,21,7.494V5.5
				h-3.437c-0.062,0-0.122-0.012-0.18-0.033c-3.281-1.266-7.486-1.266-10.768,0C6.559,5.488,6.498,5.5,6.437,5.5H3v1.994
				c0,0.131-0.052,0.257-0.144,0.351C1.642,9.081,1,10.518,1,12s0.642,2.919,1.856,4.155C2.948,16.249,3,16.375,3,16.506V18.5z"/>
		</g>
		<g>
			<g>
				<path d="M5.5,17.5h-1C4.224,17.5,4,17.276,4,17v-1c0-0.276,0.224-0.5,0.5-0.5S5,15.724,5,16v0.5h0.5C5.776,16.5,6,16.724,6,17
					S5.776,17.5,5.5,17.5z"/>
			</g>
			<g>
				<path d="M3.452,15.062c-0.149,0-0.297-0.066-0.396-0.194c-0.448-0.58-0.759-1.192-0.922-1.82c-0.07-0.267,0.09-0.54,0.357-0.609
					c0.27-0.075,0.54,0.091,0.609,0.357c0.13,0.497,0.381,0.988,0.746,1.461c0.169,0.219,0.129,0.532-0.09,0.701
					C3.667,15.027,3.56,15.062,3.452,15.062z M2.616,11.589c-0.041,0-0.083-0.005-0.125-0.016c-0.268-0.069-0.428-0.342-0.359-0.609
					c0.162-0.628,0.471-1.241,0.917-1.823C3.218,8.922,3.532,8.88,3.75,9.049C3.969,9.217,4.01,9.53,3.842,9.75
					c-0.364,0.474-0.613,0.967-0.741,1.464C3.042,11.439,2.839,11.589,2.616,11.589z"/>
			</g>
			<g>
				<path d="M4.5,8.5C4.224,8.5,4,8.276,4,8V7c0-0.276,0.224-0.5,0.5-0.5h1C5.776,6.5,6,6.724,6,7S5.776,7.5,5.5,7.5H5V8
					C5,8.276,4.776,8.5,4.5,8.5z"/>
			</g>
			<g>
				<path d="M7.354,7.292c-0.204,0-0.396-0.126-0.47-0.329C6.79,6.704,6.924,6.417,7.184,6.322c0.602-0.22,1.238-0.398,1.893-0.531
					c0.268-0.057,0.534,0.12,0.59,0.391c0.055,0.271-0.12,0.534-0.391,0.59c-0.606,0.123-1.194,0.288-1.75,0.49
					C7.47,7.282,7.411,7.292,7.354,7.292z M16.642,7.291c-0.057,0-0.115-0.01-0.171-0.03c-0.555-0.202-1.144-0.367-1.751-0.49
					c-0.271-0.056-0.445-0.319-0.391-0.59c0.056-0.271,0.323-0.446,0.59-0.391c0.656,0.134,1.293,0.313,1.894,0.531
					c0.26,0.095,0.394,0.382,0.299,0.641C17.037,7.165,16.846,7.291,16.642,7.291z M11.051,6.531c-0.261,0-0.48-0.203-0.498-0.468
					c-0.018-0.275,0.191-0.514,0.467-0.531c0.648-0.044,1.306-0.044,1.956,0c0.276,0.019,0.484,0.256,0.467,0.531
					c-0.019,0.276-0.283,0.497-0.531,0.467c-0.607-0.039-1.222-0.039-1.827,0C11.073,6.531,11.063,6.531,11.051,6.531z"/>
			</g>
			<g>
				<path d="M19.5,8.5C19.224,8.5,19,8.276,19,8V7.5h-0.5C18.224,7.5,18,7.276,18,7s0.224-0.5,0.5-0.5h1C19.776,6.5,20,6.724,20,7v1
					C20,8.276,19.776,8.5,19.5,8.5z"/>
			</g>
			<g>
				<path d="M20.555,15.055c-0.106,0-0.214-0.033-0.305-0.104c-0.219-0.168-0.26-0.481-0.092-0.701
					c0.364-0.474,0.613-0.967,0.741-1.464c0.069-0.268,0.339-0.43,0.609-0.359c0.268,0.069,0.428,0.342,0.359,0.609
					c-0.162,0.628-0.471,1.241-0.917,1.823C20.853,14.987,20.704,15.055,20.555,15.055z M21.382,11.579
					c-0.223,0-0.425-0.149-0.483-0.374c-0.13-0.497-0.381-0.988-0.746-1.461c-0.169-0.219-0.129-0.532,0.09-0.701
					c0.217-0.168,0.531-0.131,0.701,0.09c0.448,0.58,0.759,1.192,0.922,1.82c0.07,0.267-0.09,0.54-0.357,0.609
					C21.466,11.574,21.423,11.579,21.382,11.579z"/>
			</g>
			<g>
				<path d="M19.5,17.5h-1c-0.276,0-0.5-0.224-0.5-0.5s0.224-0.5,0.5-0.5H19V16c0-0.276,0.224-0.5,0.5-0.5S20,15.724,20,16v1
					C20,17.276,19.776,17.5,19.5,17.5z"/>
			</g>
			<g>
				<path d="M12,18.5c-0.326,0-0.651-0.011-0.976-0.032c-0.276-0.019-0.484-0.256-0.467-0.531c0.019-0.276,0.285-0.489,0.531-0.467
					c0.607,0.039,1.222,0.039,1.827,0c0.256-0.021,0.514,0.19,0.531,0.467c0.018,0.275-0.191,0.514-0.467,0.531
					C12.655,18.489,12.328,18.5,12,18.5z M9.182,18.22c-0.033,0-0.067-0.003-0.101-0.01c-0.656-0.134-1.293-0.313-1.894-0.531
					c-0.26-0.095-0.394-0.382-0.299-0.641c0.095-0.26,0.386-0.393,0.641-0.299c0.555,0.202,1.144,0.367,1.751,0.49
					c0.271,0.056,0.445,0.319,0.391,0.59C9.622,18.057,9.414,18.22,9.182,18.22z M14.823,18.219c-0.232,0-0.44-0.163-0.489-0.4
					c-0.055-0.271,0.12-0.534,0.391-0.59c0.606-0.123,1.194-0.288,1.75-0.49c0.255-0.094,0.546,0.039,0.641,0.299
					c0.095,0.259-0.039,0.546-0.299,0.641c-0.602,0.22-1.238,0.398-1.893,0.531C14.891,18.216,14.856,18.219,14.823,18.219z"/>
			</g>
		</g>
	</g>
</g>
<g id="Dashed_Frame_18">
</g>
<g id="Dashed_Frame_19">
</g>
<g id="Dashed_Frame_20">
</g>
<g id="Dashed_Frame_25">
</g>
<g id="Dashed_Frame_26">
</g>
<g id="Dashed_Frame_27">
</g>
<g id="Dashed_Frame_28">
</g>
<g id="Dashed_Frame_29">
</g>
<g id="Dashed_Frame_30">
</g>
<g id="Dashed_Frame_31">
</g>
<g id="Dashed_Frame_32">
</g>
<g id="Dashed_Frame_33">
</g>
<g id="Dashed_Frame_35">
</g>
</svg>
