<?xml version="1.0" encoding="iso-8859-1"?>
<!-- Generator: Adobe Illustrator 19.2.1, SVG Export Plug-In . SVG Version: 6.00 Build 0)  -->
<svg version="1.1" xmlns="http://www.w3.org/2000/svg" xmlns:xlink="http://www.w3.org/1999/xlink" x="0px" y="0px"
	 viewBox="0 0 24 24" style="enable-background:new 0 0 24 24;" xml:space="preserve">
<g id="Photo_frame">
</g>
<g id="Photo_frame_2">
</g>
<g id="Photo_frame_3">
</g>
<g id="Photo_frame__4">
</g>
<g id="Photo_frame_5">
	<g id="Layer_6">
	</g>
</g>
<g id="Photo_frame_6">
</g>
<g id="Photo_frame_7">
</g>
<g id="Round_Frame_1">
</g>
<g id="Rectangle_Frame_1">
</g>
<g id="Square_Frame_1">
</g>
<g id="Rectangle_Frame_2">
</g>
<g id="Oval_Frame_1">
</g>
<g id="Round_Frame_2">
</g>
<g id="Rectangle_Frame_3">
</g>
<g id="Rectangle_Frame_4">
</g>
<g id="Rectangle_Frame_5">
</g>
<g id="Square_Frame_2">
</g>
<g id="Rectangle_Frame_6">
</g>
<g id="Rectangle_Frame_7">
</g>
<g id="Oval_Frame_2">
</g>
<g id="Round_Frame_3">
</g>
<g id="Rectangle_Frame_8">
</g>
<g id="Square_Frame_3">
</g>
<g id="Rectangle_Frame_9">
</g>
<g id="Rectangle_Frame_10">
</g>
<g id="Square_Frame_4">
</g>
<g id="Rectangle_Frame_11">
</g>
<g id="Rectangle_Frame_12">
</g>
<g id="Square_Frame_5">
</g>
<g id="Rectangle_Frame_13">
</g>
<g id="Frame_1">
</g>
<g id="Frame_2">
</g>
<g id="Round_Frame_4">
</g>
<g id="Frame_3">
</g>
<g id="Frame_4">
</g>
<g id="Frame_5">
</g>
<g id="Frame_6">
</g>
<g id="Frame_7">
</g>
<g id="Frame_8">
</g>
<g id="Frame_9">
</g>
<g id="Frame_10">
</g>
<g id="Frame_11">
</g>
<g id="Frame_12">
</g>
<g id="Frame_13">
</g>
<g id="Frame_14">
</g>
<g id="Frame_15">
</g>
<g id="Frame_16">
</g>
<g id="Frame_17">
</g>
<g id="Frame_18">
</g>
<g id="Frame_19">
</g>
<g id="Frame_20">
</g>
<g id="Frame_21">
</g>
<g id="Frame_22">
</g>
<g id="Frame_23">
</g>
<g id="Frame_24">
</g>
<g id="Frame_25">
</g>
<g id="Frame_26">
</g>
<g id="Frame_27">
</g>
<g id="Frame_28">
</g>
<g id="Frame_29">
</g>
<g id="Frame_30">
</g>
<g id="Frame_Hole_1">
</g>
<g id="Frame_Hole_2">
</g>
<g id="Frame_Hole_3">
</g>
<g id="Frame_Hole_4">
</g>
<g id="Frame_31">
</g>
<g id="Frame_32">
</g>
<g id="Frame_33">
</g>
<g id="Frame_34">
</g>
<g id="Frame_35">
</g>
<g id="Dashed_Frame_1">
</g>
<g id="Dashed_Frame_2">
</g>
<g id="Dashed_Frame_3">
	<g>
		<g>
			<path d="M12,24c-2.195,0-4.298-1.063-5.945-3H3.5C3.224,21,3,20.776,3,20.5v-2.555C1.063,16.299,0,14.195,0,12
				s1.063-4.299,3-5.945V3.5C3,3.224,3.224,3,3.5,3h2.555C7.702,1.063,9.805,0,12,0s4.298,1.063,5.945,3H20.5
				C20.776,3,21,3.224,21,3.5v2.555c1.937,1.646,3,3.75,3,5.945s-1.063,4.299-3,5.945V20.5c0,0.276-0.224,0.5-0.5,0.5h-2.555
				C16.298,22.937,14.195,24,12,24z M4,20h2.289c0.15,0,0.293,0.067,0.388,0.185C8.153,22,10.043,23,12,23s3.847-1,5.323-2.815
				C17.418,20.067,17.561,20,17.711,20H20v-2.289c0-0.15,0.068-0.293,0.185-0.388C22,15.848,23,13.957,23,12s-1-3.848-2.815-5.323
				C20.068,6.582,20,6.439,20,6.289V4h-2.289c-0.15,0-0.293-0.067-0.388-0.185C15.847,2,13.957,1,12,1S8.153,2,6.677,3.815
				C6.582,3.933,6.439,4,6.289,4H4v2.289c0,0.15-0.068,0.293-0.185,0.388C2,8.152,1,10.043,1,12s1,3.848,2.815,5.323
				C3.932,17.418,4,17.561,4,17.711V20z"/>
		</g>
		<g>
			<g>
				<path d="M7.845,19.765c-0.129,0-0.255-0.052-0.35-0.16c-0.005-0.006-0.032-0.038-0.036-0.044L7.003,19H5.5
					C5.224,19,5,18.776,5,18.5v-1.503l-0.555-0.451l0.279-0.418l0.33-0.375l0.762,0.619C5.932,16.467,6,16.609,6,16.76V18h1.241
					c0.15,0,0.293,0.067,0.388,0.185l0.601,0.738c0.172,0.211,0.158,0.54-0.05,0.716C8.08,19.723,7.961,19.765,7.845,19.765z"/>
			</g>
			<g>
				<path d="M2.67,13.694c-0.217,0-0.417-0.143-0.48-0.362C2.064,12.894,2,12.445,2,12c0-0.444,0.064-0.893,0.19-1.332
					c0.075-0.266,0.352-0.423,0.618-0.343c0.266,0.076,0.419,0.353,0.343,0.618C3.051,11.293,3,11.648,3,12
					c0,0.353,0.051,0.708,0.151,1.057c0.076,0.265-0.077,0.542-0.342,0.618C2.762,13.688,2.716,13.694,2.67,13.694z"/>
			</g>
			<g>
				<path d="M4.738,8.349c-0.142,0-0.282-0.056-0.377-0.169C4.185,7.972,4.189,7.677,4.394,7.497C4.4,7.491,4.436,7.462,4.442,7.456
					L5,7.003V5.5C5,5.224,5.224,5,5.5,5h1.503l0.451-0.554l0.418,0.278l0.376,0.329l-0.62,0.762C7.534,5.933,7.391,6,7.241,6H6v1.24
					c0,0.15-0.068,0.293-0.184,0.388L5.077,8.229C4.98,8.309,4.858,8.349,4.738,8.349z"/>
			</g>
			<g>
				<path d="M13.194,3.17c-0.046,0-0.092-0.006-0.138-0.02c-0.698-0.199-1.413-0.199-2.113,0c-0.264,0.079-0.542-0.076-0.618-0.343
					c-0.076-0.266,0.078-0.543,0.344-0.618c0.878-0.252,1.785-0.252,2.663,0c0.265,0.076,0.419,0.353,0.343,0.618
					C13.612,3.027,13.412,3.17,13.194,3.17z"/>
			</g>
			<g>
				<path d="M18.946,8.247l-0.762-0.619C18.068,7.533,18,7.391,18,7.24V6h-1.241c-0.15,0-0.293-0.067-0.388-0.185l-0.601-0.738
					c-0.172-0.211-0.158-0.54,0.05-0.716c0.208-0.178,0.503-0.173,0.684,0.034c0.005,0.006,0.032,0.038,0.036,0.044L16.997,5H18.5
					C18.776,5,19,5.224,19,5.5v1.503l0.555,0.451l-0.279,0.418L18.946,8.247z"/>
			</g>
			<g>
				<path d="M21.33,13.694c-0.045,0-0.092-0.006-0.138-0.02c-0.266-0.076-0.419-0.353-0.343-0.618C20.949,12.707,21,12.352,21,12
					c0-0.353-0.051-0.708-0.151-1.057c-0.076-0.265,0.077-0.542,0.342-0.618c0.267-0.079,0.542,0.076,0.619,0.343
					C21.936,11.106,22,11.555,22,12c0,0.444-0.064,0.893-0.19,1.332C21.748,13.552,21.547,13.694,21.33,13.694z"/>
			</g>
			<g>
				<path d="M16.546,19.554l-0.418-0.278l-0.376-0.329l0.62-0.762C16.466,18.067,16.609,18,16.759,18H18v-1.24
					c0-0.15,0.068-0.293,0.184-0.388l0.739-0.602c0.211-0.172,0.539-0.16,0.716,0.05c0.176,0.208,0.171,0.503-0.033,0.683
					c-0.006,0.006-0.042,0.035-0.048,0.041L19,16.997V18.5c0,0.276-0.224,0.5-0.5,0.5h-1.503L16.546,19.554z"/>
			</g>
			<g>
				<path d="M12,22c-0.444,0-0.893-0.063-1.332-0.189c-0.265-0.076-0.419-0.353-0.343-0.618c0.076-0.267,0.355-0.422,0.618-0.343
					c0.698,0.199,1.413,0.199,2.113,0c0.265-0.079,0.542,0.077,0.618,0.343c0.076,0.266-0.078,0.543-0.344,0.618
					C12.893,21.937,12.444,22,12,22z"/>
			</g>
		</g>
	</g>
</g>
<g id="Dashed_Frame_4">
</g>
<g id="Dashed_Frame_5">
</g>
<g id="Dashed_Frame_6">
</g>
<g id="Dashed_Frame_7">
</g>
<g id="Dashed_Frame_8">
</g>
<g id="Dashed_Frame_9">
</g>
<g id="Dashed_Frame_10">
</g>
<g id="Dashed_Frame_11">
</g>
<g id="Dashed_Frame_12">
</g>
<g id="Dashed_Frame_13">
</g>
<g id="Dashed_Frame_14">
</g>
<g id="Dashed_Frame_15">
</g>
<g id="Dashed_Frame_16">
</g>
<g id="Dashed_Frame_17">
</g>
<g id="Dashed_Frame_18">
</g>
<g id="Dashed_Frame_19">
</g>
<g id="Dashed_Frame_20">
</g>
<g id="Dashed_Frame_25">
</g>
<g id="Dashed_Frame_26">
</g>
<g id="Dashed_Frame_27">
</g>
<g id="Dashed_Frame_28">
</g>
<g id="Dashed_Frame_29">
</g>
<g id="Dashed_Frame_30">
</g>
<g id="Dashed_Frame_31">
</g>
<g id="Dashed_Frame_32">
</g>
<g id="Dashed_Frame_33">
</g>
<g id="Dashed_Frame_35">
</g>
</svg>
