<?xml version="1.0" encoding="iso-8859-1"?>
<!-- Generator: Adobe Illustrator 19.2.1, SVG Export Plug-In . SVG Version: 6.00 Build 0)  -->
<svg version="1.1" xmlns="http://www.w3.org/2000/svg" xmlns:xlink="http://www.w3.org/1999/xlink" x="0px" y="0px"
	 viewBox="0 0 24 24" style="enable-background:new 0 0 24 24;" xml:space="preserve">
<g id="Photo_frame">
</g>
<g id="Photo_frame_2">
</g>
<g id="Photo_frame_3">
</g>
<g id="Photo_frame__4">
</g>
<g id="Photo_frame_5">
	<g id="Layer_6">
	</g>
</g>
<g id="Photo_frame_6">
</g>
<g id="Photo_frame_7">
</g>
<g id="Round_Frame_1">
</g>
<g id="Rectangle_Frame_1">
</g>
<g id="Square_Frame_1">
</g>
<g id="Rectangle_Frame_2">
</g>
<g id="Oval_Frame_1">
</g>
<g id="Round_Frame_2">
</g>
<g id="Rectangle_Frame_3">
</g>
<g id="Rectangle_Frame_4">
</g>
<g id="Rectangle_Frame_5">
</g>
<g id="Square_Frame_2">
</g>
<g id="Rectangle_Frame_6">
</g>
<g id="Rectangle_Frame_7">
</g>
<g id="Oval_Frame_2">
</g>
<g id="Round_Frame_3">
</g>
<g id="Rectangle_Frame_8">
</g>
<g id="Square_Frame_3">
</g>
<g id="Rectangle_Frame_9">
</g>
<g id="Rectangle_Frame_10">
</g>
<g id="Square_Frame_4">
</g>
<g id="Rectangle_Frame_11">
</g>
<g id="Rectangle_Frame_12">
</g>
<g id="Square_Frame_5">
</g>
<g id="Rectangle_Frame_13">
</g>
<g id="Frame_1">
</g>
<g id="Frame_2">
</g>
<g id="Round_Frame_4">
</g>
<g id="Frame_3">
</g>
<g id="Frame_4">
</g>
<g id="Frame_5">
</g>
<g id="Frame_6">
</g>
<g id="Frame_7">
</g>
<g id="Frame_8">
</g>
<g id="Frame_9">
</g>
<g id="Frame_10">
</g>
<g id="Frame_11">
</g>
<g id="Frame_12">
</g>
<g id="Frame_13">
</g>
<g id="Frame_14">
</g>
<g id="Frame_15">
</g>
<g id="Frame_16">
</g>
<g id="Frame_17">
</g>
<g id="Frame_18">
</g>
<g id="Frame_19">
</g>
<g id="Frame_20">
</g>
<g id="Frame_21">
</g>
<g id="Frame_22">
</g>
<g id="Frame_23">
</g>
<g id="Frame_24">
</g>
<g id="Frame_25">
</g>
<g id="Frame_26">
</g>
<g id="Frame_27">
</g>
<g id="Frame_28">
</g>
<g id="Frame_29">
</g>
<g id="Frame_30">
</g>
<g id="Frame_Hole_1">
</g>
<g id="Frame_Hole_2">
</g>
<g id="Frame_Hole_3">
</g>
<g id="Frame_Hole_4">
</g>
<g id="Frame_31">
</g>
<g id="Frame_32">
</g>
<g id="Frame_33">
</g>
<g id="Frame_34">
</g>
<g id="Frame_35">
</g>
<g id="Dashed_Frame_1">
</g>
<g id="Dashed_Frame_2">
</g>
<g id="Dashed_Frame_3">
</g>
<g id="Dashed_Frame_4">
</g>
<g id="Dashed_Frame_5">
</g>
<g id="Dashed_Frame_6">
</g>
<g id="Dashed_Frame_7">
</g>
<g id="Dashed_Frame_8">
</g>
<g id="Dashed_Frame_9">
</g>
<g id="Dashed_Frame_10">
</g>
<g id="Dashed_Frame_11">
</g>
<g id="Dashed_Frame_12">
</g>
<g id="Dashed_Frame_13">
</g>
<g id="Dashed_Frame_14">
</g>
<g id="Dashed_Frame_15">
</g>
<g id="Dashed_Frame_16">
</g>
<g id="Dashed_Frame_17">
</g>
<g id="Dashed_Frame_18">
</g>
<g id="Dashed_Frame_19">
</g>
<g id="Dashed_Frame_20">
</g>
<g id="Dashed_Frame_25">
</g>
<g id="Dashed_Frame_26">
</g>
<g id="Dashed_Frame_27">
</g>
<g id="Dashed_Frame_28">
</g>
<g id="Dashed_Frame_29">
	<g>
		<g>
			<path d="M18.416,18H5.584c-1.749,0-3.353-1.026-4.086-2.614l-1.084-2.35c-0.593-1.287-0.543-2.798,0.135-4.041l0.9-1.649
				C2.239,5.898,3.752,5,5.4,5h13.2c1.647,0,3.161,0.898,3.951,2.346l0.9,1.649c0.678,1.243,0.729,2.754,0.135,4.04l-1.084,2.351
				C21.769,16.974,20.165,18,18.416,18z M5.4,6C4.119,6,2.941,6.699,2.327,7.824l-0.9,1.649C0.9,10.441,0.86,11.616,1.322,12.617
				l1.084,2.349l0,0C2.977,16.202,4.224,17,5.584,17h12.831c1.36,0,2.608-0.798,3.178-2.034l1.084-2.35
				c0.462-1,0.422-2.175-0.105-3.143l-0.9-1.649C21.059,6.699,19.881,6,18.6,6H5.4z"/>
		</g>
		<g>
			<path d="M17.496,16h-1.979c-0.276,0-0.5-0.224-0.5-0.5s0.224-0.5,0.5-0.5h1.979c0.276,0,0.5,0.224,0.5,0.5S17.772,16,17.496,16z
				 M13.538,16h-1.979c-0.276,0-0.5-0.224-0.5-0.5s0.224-0.5,0.5-0.5h1.979c0.276,0,0.5,0.224,0.5,0.5S13.814,16,13.538,16z
				 M9.58,16H7.601c-0.276,0-0.5-0.224-0.5-0.5s0.224-0.5,0.5-0.5H9.58c0.276,0,0.5,0.224,0.5,0.5S9.856,16,9.58,16z M5.622,16
				H5.584c-0.844,0-1.625-0.421-2.089-1.127c-0.152-0.23-0.088-0.54,0.143-0.692c0.23-0.151,0.542-0.088,0.692,0.144
				C4.609,14.747,5.078,15,5.584,15c0.276,0,0.519,0.224,0.519,0.5S5.898,16,5.622,16z M19.426,15.726
				c-0.172,0-0.339-0.089-0.432-0.247c-0.139-0.238-0.06-0.545,0.179-0.685c0.267-0.156,0.477-0.387,0.605-0.665l0.319-0.691
				c0.115-0.252,0.411-0.362,0.664-0.245c0.25,0.115,0.36,0.413,0.245,0.663l-0.319,0.691c-0.215,0.466-0.563,0.85-1.007,1.11
				C19.599,15.703,19.512,15.726,19.426,15.726z M3.064,13.312c-0.189,0-0.37-0.107-0.455-0.29l-0.38-0.823
				c-0.152-0.331-0.229-0.683-0.229-1.048c0-0.087,0.004-0.174,0.014-0.261c0.029-0.275,0.27-0.479,0.55-0.444
				c0.274,0.029,0.474,0.275,0.444,0.55c-0.005,0.052-0.008,0.104-0.008,0.155c0,0.22,0.046,0.432,0.137,0.629l0.38,0.822
				c0.116,0.251,0.006,0.548-0.245,0.664C3.206,13.297,3.134,13.312,3.064,13.312z M21.374,12.348c-0.058,0-0.117-0.01-0.174-0.031
				c-0.259-0.097-0.391-0.384-0.294-0.643c0.062-0.168,0.094-0.344,0.094-0.523c0-0.251-0.063-0.5-0.182-0.719l-0.128-0.235
				c-0.132-0.242-0.043-0.546,0.2-0.678c0.242-0.133,0.545-0.045,0.678,0.199l0.128,0.235c0.199,0.365,0.304,0.779,0.304,1.197
				c0,0.299-0.053,0.593-0.156,0.871C21.768,12.224,21.577,12.348,21.374,12.348z M3.313,9.649c-0.081,0-0.163-0.02-0.239-0.062
				C2.831,9.456,2.742,9.152,2.874,8.91l0.331-0.606c0.261-0.48,0.662-0.854,1.16-1.078c0.251-0.113,0.548-0.002,0.662,0.249
				s0.002,0.548-0.25,0.661C4.48,8.271,4.24,8.494,4.083,8.782L3.752,9.389C3.661,9.556,3.49,9.649,3.313,9.649z M20.152,8.737
				c-0.146,0-0.29-0.063-0.389-0.185C19.478,8.201,19.054,8,18.6,8h-0.203c-0.276,0-0.5-0.224-0.5-0.5s0.224-0.5,0.5-0.5H18.6
				c0.756,0,1.463,0.336,1.939,0.922c0.174,0.214,0.142,0.529-0.073,0.703C20.374,8.7,20.263,8.737,20.152,8.737z M16.418,8h-1.979
				c-0.276,0-0.5-0.224-0.5-0.5s0.224-0.5,0.5-0.5h1.979c0.276,0,0.5,0.224,0.5,0.5S16.694,8,16.418,8z M12.46,8h-1.979
				c-0.276,0-0.5-0.224-0.5-0.5s0.224-0.5,0.5-0.5h1.979c0.276,0,0.5,0.224,0.5,0.5S12.736,8,12.46,8z M8.502,8H6.523
				c-0.276,0-0.5-0.224-0.5-0.5S6.247,7,6.523,7h1.979c0.276,0,0.5,0.224,0.5,0.5S8.779,8,8.502,8z"/>
		</g>
	</g>
</g>
<g id="Dashed_Frame_30">
</g>
<g id="Dashed_Frame_31">
</g>
<g id="Dashed_Frame_32">
</g>
<g id="Dashed_Frame_33">
</g>
<g id="Dashed_Frame_35">
</g>
</svg>
