<?xml version="1.0" encoding="iso-8859-1"?>
<!-- Generator: Adobe Illustrator 19.2.1, SVG Export Plug-In . SVG Version: 6.00 Build 0)  -->
<svg version="1.1" xmlns="http://www.w3.org/2000/svg" xmlns:xlink="http://www.w3.org/1999/xlink" x="0px" y="0px"
	 viewBox="0 0 24 24" style="enable-background:new 0 0 24 24;" xml:space="preserve">
<g id="Photo_frame">
</g>
<g id="Photo_frame_2">
</g>
<g id="Photo_frame_3">
</g>
<g id="Photo_frame__4">
</g>
<g id="Photo_frame_5">
	<g id="Layer_6">
	</g>
</g>
<g id="Photo_frame_6">
</g>
<g id="Photo_frame_7">
</g>
<g id="Round_Frame_1">
</g>
<g id="Rectangle_Frame_1">
</g>
<g id="Square_Frame_1">
</g>
<g id="Rectangle_Frame_2">
</g>
<g id="Oval_Frame_1">
</g>
<g id="Round_Frame_2">
</g>
<g id="Rectangle_Frame_3">
</g>
<g id="Rectangle_Frame_4">
</g>
<g id="Rectangle_Frame_5">
</g>
<g id="Square_Frame_2">
</g>
<g id="Rectangle_Frame_6">
</g>
<g id="Rectangle_Frame_7">
</g>
<g id="Oval_Frame_2">
</g>
<g id="Round_Frame_3">
</g>
<g id="Rectangle_Frame_8">
</g>
<g id="Square_Frame_3">
</g>
<g id="Rectangle_Frame_9">
</g>
<g id="Rectangle_Frame_10">
</g>
<g id="Square_Frame_4">
</g>
<g id="Rectangle_Frame_11">
</g>
<g id="Rectangle_Frame_12">
</g>
<g id="Square_Frame_5">
</g>
<g id="Rectangle_Frame_13">
</g>
<g id="Frame_1">
</g>
<g id="Frame_2">
</g>
<g id="Round_Frame_4">
</g>
<g id="Frame_3">
</g>
<g id="Frame_4">
</g>
<g id="Frame_5">
</g>
<g id="Frame_6">
</g>
<g id="Frame_7">
</g>
<g id="Frame_8">
</g>
<g id="Frame_9">
</g>
<g id="Frame_10">
</g>
<g id="Frame_11">
</g>
<g id="Frame_12">
</g>
<g id="Frame_13">
</g>
<g id="Frame_14">
</g>
<g id="Frame_15">
</g>
<g id="Frame_16">
</g>
<g id="Frame_17">
</g>
<g id="Frame_18">
</g>
<g id="Frame_19">
</g>
<g id="Frame_20">
</g>
<g id="Frame_21">
</g>
<g id="Frame_22">
</g>
<g id="Frame_23">
</g>
<g id="Frame_24">
</g>
<g id="Frame_25">
</g>
<g id="Frame_26">
</g>
<g id="Frame_27">
</g>
<g id="Frame_28">
</g>
<g id="Frame_29">
</g>
<g id="Frame_30">
</g>
<g id="Frame_Hole_1">
</g>
<g id="Frame_Hole_2">
</g>
<g id="Frame_Hole_3">
</g>
<g id="Frame_Hole_4">
</g>
<g id="Frame_31">
</g>
<g id="Frame_32">
</g>
<g id="Frame_33">
</g>
<g id="Frame_34">
</g>
<g id="Frame_35">
</g>
<g id="Dashed_Frame_1">
</g>
<g id="Dashed_Frame_2">
</g>
<g id="Dashed_Frame_3">
</g>
<g id="Dashed_Frame_4">
</g>
<g id="Dashed_Frame_5">
</g>
<g id="Dashed_Frame_6">
</g>
<g id="Dashed_Frame_7">
</g>
<g id="Dashed_Frame_8">
	<g>
		<g>
			<path d="M17.5,24h-11C5.673,24,5,23.327,5,22.5C5,22.225,4.775,22,4.5,22h-1C2.673,22,2,21.327,2,20.5C2,20.225,1.775,20,1.5,20
				C0.673,20,0,19.327,0,18.5v-13C0,4.673,0.673,4,1.5,4C1.775,4,2,3.775,2,3.5C2,2.673,2.673,2,3.5,2h1C4.775,2,5,1.775,5,1.5
				C5,0.673,5.673,0,6.5,0h11C18.327,0,19,0.673,19,1.5C19,1.775,19.225,2,19.5,2h1C21.327,2,22,2.673,22,3.5
				C22,3.775,22.225,4,22.5,4C23.327,4,24,4.673,24,5.5v13c0,0.827-0.673,1.5-1.5,1.5c-0.275,0-0.5,0.225-0.5,0.5
				c0,0.827-0.673,1.5-1.5,1.5h-1c-0.275,0-0.5,0.225-0.5,0.5C19,23.327,18.327,24,17.5,24z M3.5,3C3.225,3,3,3.225,3,3.5
				C3,4.327,2.327,5,1.5,5C1.225,5,1,5.225,1,5.5v13C1,18.775,1.225,19,1.5,19C2.327,19,3,19.673,3,20.5C3,20.775,3.225,21,3.5,21h1
				C5.327,21,6,21.673,6,22.5C6,22.775,6.225,23,6.5,23h11c0.275,0,0.5-0.225,0.5-0.5c0-0.827,0.673-1.5,1.5-1.5h1
				c0.275,0,0.5-0.225,0.5-0.5c0-0.827,0.673-1.5,1.5-1.5c0.275,0,0.5-0.225,0.5-0.5v-13C23,5.225,22.775,5,22.5,5
				C21.673,5,21,4.327,21,3.5C21,3.225,20.775,3,20.5,3h-1C18.673,3,18,2.327,18,1.5C18,1.225,17.775,1,17.5,1h-11
				C6.225,1,6,1.225,6,1.5C6,2.327,5.327,3,4.5,3H3.5z"/>
		</g>
		<g>
			<g>
				<path d="M7.828,22h-0.5c-0.212,0-0.401-0.134-0.472-0.334c-0.046-0.131-0.103-0.256-0.17-0.376
					c-0.135-0.24-0.049-0.545,0.192-0.681c0.239-0.133,0.545-0.049,0.681,0.192C7.596,20.866,7.63,20.933,7.662,21h0.166
					c0.276,0,0.5,0.224,0.5,0.5S8.104,22,7.828,22z"/>
			</g>
			<g>
				<path d="M6.393,20.674c-0.111,0-0.223-0.037-0.315-0.112c-0.124-0.101-0.257-0.189-0.397-0.266
					c-0.242-0.131-0.333-0.435-0.201-0.678c0.131-0.243,0.435-0.332,0.678-0.201c0.195,0.105,0.381,0.229,0.552,0.369
					c0.215,0.175,0.247,0.489,0.072,0.703C6.682,20.611,6.537,20.674,6.393,20.674z"/>
			</g>
			<g>
				<path d="M4.829,20.018c-0.019,0-0.037-0.001-0.056-0.003C4.685,20.005,4.593,20,4.5,20H4.328c-0.213,0-0.401-0.135-0.472-0.335
					c-0.047-0.132-0.104-0.26-0.172-0.381c-0.135-0.241-0.048-0.546,0.193-0.68c0.239-0.133,0.545-0.049,0.68,0.193
					c0.038,0.067,0.073,0.136,0.106,0.206c0.073,0.003,0.146,0.009,0.219,0.017c0.274,0.03,0.473,0.276,0.442,0.552
					C5.297,19.828,5.081,20.018,4.829,20.018z"/>
			</g>
			<g>
				<path d="M2.959,18.379c-0.083,0-0.167-0.021-0.244-0.063c-0.122-0.068-0.25-0.126-0.383-0.174C2.133,18.071,2,17.883,2,17.671
					v-0.5c0-0.276,0.224-0.5,0.5-0.5s0.5,0.224,0.5,0.5v0.167c0.069,0.032,0.137,0.067,0.203,0.104
					c0.241,0.135,0.327,0.439,0.192,0.681C3.304,18.287,3.134,18.379,2.959,18.379z"/>
			</g>
			<g>
				<path d="M2.5,15.791c-0.276,0-0.5-0.224-0.5-0.5v-0.94c0-0.276,0.224-0.5,0.5-0.5s0.5,0.224,0.5,0.5v0.94
					C3,15.567,2.776,15.791,2.5,15.791z M2.5,12.971c-0.276,0-0.5-0.224-0.5-0.5v-0.94c0-0.276,0.224-0.5,0.5-0.5S3,11.254,3,11.53
					v0.94C3,12.747,2.776,12.971,2.5,12.971z M2.5,10.15c-0.276,0-0.5-0.224-0.5-0.5V8.71c0-0.276,0.224-0.5,0.5-0.5S3,8.434,3,8.71
					v0.94C3,9.927,2.776,10.15,2.5,10.15z"/>
			</g>
			<g>
				<path d="M2.5,7.329c-0.276,0-0.5-0.224-0.5-0.5v-0.5c0-0.212,0.133-0.4,0.332-0.471c0.133-0.048,0.261-0.105,0.383-0.174
					c0.239-0.133,0.545-0.05,0.681,0.192C3.53,6.118,3.444,6.423,3.203,6.558C3.137,6.595,3.069,6.63,3,6.662v0.167
					C3,7.105,2.776,7.329,2.5,7.329z"/>
			</g>
			<g>
				<path d="M4.121,5.459c-0.083,0-0.166-0.021-0.243-0.063C3.637,5.262,3.55,4.957,3.685,4.716C3.752,4.595,3.81,4.467,3.856,4.335
					C3.927,4.135,4.115,4,4.328,4H4.5c0.093,0,0.185-0.005,0.273-0.015C5.049,3.96,5.295,4.153,5.325,4.428
					c0.03,0.275-0.168,0.521-0.442,0.552C4.811,4.987,4.737,4.993,4.664,4.996c-0.033,0.07-0.068,0.139-0.106,0.206
					C4.467,5.366,4.296,5.459,4.121,5.459z"/>
			</g>
			<g>
				<path d="M5.916,4.645c-0.178,0-0.351-0.096-0.44-0.264C5.345,4.138,5.437,3.835,5.68,3.704C5.82,3.628,5.953,3.54,6.076,3.439
					C6.29,3.267,6.605,3.296,6.779,3.512C6.954,3.726,6.922,4.04,6.707,4.215c-0.172,0.14-0.357,0.265-0.555,0.37
					C6.077,4.625,5.996,4.645,5.916,4.645z"/>
			</g>
			<g>
				<path d="M7.123,3.454c-0.083,0-0.167-0.021-0.244-0.063C6.638,3.255,6.552,2.95,6.687,2.71c0.067-0.12,0.124-0.245,0.17-0.376
					C6.927,2.134,7.116,2,7.328,2h0.5c0.276,0,0.5,0.224,0.5,0.5S8.104,3,7.828,3H7.662C7.63,3.067,7.596,3.134,7.56,3.198
					C7.468,3.362,7.298,3.454,7.123,3.454z"/>
			</g>
			<g>
				<path d="M14.086,3h-1.043c-0.276,0-0.5-0.224-0.5-0.5s0.224-0.5,0.5-0.5h1.043c0.276,0,0.5,0.224,0.5,0.5S14.362,3,14.086,3z
					 M10.957,3H9.914c-0.276,0-0.5-0.224-0.5-0.5S9.638,2,9.914,2h1.043c0.276,0,0.5,0.224,0.5,0.5S11.233,3,10.957,3z"/>
			</g>
			<g>
				<path d="M16.877,3.454c-0.175,0-0.345-0.092-0.437-0.256C16.404,3.134,16.37,3.067,16.338,3h-0.166c-0.276,0-0.5-0.224-0.5-0.5
					s0.224-0.5,0.5-0.5h0.5c0.212,0,0.401,0.134,0.472,0.334c0.046,0.131,0.103,0.256,0.17,0.376
					c0.135,0.24,0.049,0.545-0.192,0.681C17.044,3.434,16.96,3.454,16.877,3.454z"/>
			</g>
			<g>
				<path d="M18.082,4.644c-0.081,0-0.162-0.02-0.238-0.061c-0.195-0.105-0.381-0.229-0.552-0.369
					c-0.215-0.175-0.247-0.489-0.072-0.703c0.175-0.217,0.49-0.245,0.703-0.072c0.124,0.101,0.257,0.189,0.397,0.266
					c0.242,0.131,0.333,0.435,0.201,0.678C18.432,4.549,18.26,4.644,18.082,4.644z"/>
			</g>
			<g>
				<path d="M19.879,5.459c-0.175,0-0.346-0.093-0.437-0.257c-0.038-0.067-0.073-0.136-0.106-0.206
					c-0.073-0.003-0.146-0.009-0.219-0.017c-0.274-0.03-0.473-0.276-0.442-0.552c0.03-0.274,0.283-0.469,0.552-0.442
					C19.315,3.995,19.407,4,19.5,4h0.172c0.213,0,0.401,0.135,0.472,0.335c0.047,0.132,0.104,0.26,0.172,0.381
					c0.135,0.241,0.048,0.546-0.193,0.68C20.045,5.438,19.962,5.459,19.879,5.459z"/>
			</g>
			<g>
				<path d="M21.5,7.329c-0.276,0-0.5-0.224-0.5-0.5V6.662c-0.069-0.032-0.137-0.067-0.203-0.104
					c-0.241-0.135-0.327-0.439-0.192-0.681c0.135-0.242,0.439-0.326,0.681-0.192c0.122,0.068,0.25,0.126,0.383,0.174
					C21.867,5.929,22,6.117,22,6.329v0.5C22,7.105,21.776,7.329,21.5,7.329z"/>
			</g>
			<g>
				<path d="M21.5,15.79c-0.276,0-0.5-0.224-0.5-0.5v-0.94c0-0.276,0.224-0.5,0.5-0.5s0.5,0.224,0.5,0.5v0.94
					C22,15.566,21.776,15.79,21.5,15.79z M21.5,12.97c-0.276,0-0.5-0.224-0.5-0.5v-0.94c0-0.276,0.224-0.5,0.5-0.5
					s0.5,0.224,0.5,0.5v0.94C22,12.746,21.776,12.97,21.5,12.97z M21.5,10.149c-0.276,0-0.5-0.224-0.5-0.5v-0.94
					c0-0.276,0.224-0.5,0.5-0.5s0.5,0.224,0.5,0.5v0.94C22,9.926,21.776,10.149,21.5,10.149z"/>
			</g>
			<g>
				<path d="M21.041,18.379c-0.175,0-0.345-0.092-0.437-0.256c-0.135-0.241-0.049-0.546,0.192-0.681
					c0.066-0.037,0.134-0.072,0.203-0.104v-0.167c0-0.276,0.224-0.5,0.5-0.5s0.5,0.224,0.5,0.5v0.5c0,0.212-0.133,0.4-0.332,0.471
					c-0.133,0.048-0.261,0.105-0.383,0.174C21.208,18.358,21.124,18.379,21.041,18.379z"/>
			</g>
			<g>
				<path d="M19.171,20.018c-0.252,0-0.468-0.189-0.496-0.445c-0.03-0.275,0.168-0.521,0.442-0.552
					c0.072-0.008,0.146-0.014,0.219-0.017c0.033-0.07,0.068-0.139,0.106-0.206c0.134-0.242,0.44-0.327,0.68-0.193
					c0.241,0.134,0.328,0.438,0.193,0.68c-0.067,0.121-0.125,0.249-0.172,0.381c-0.07,0.2-0.259,0.335-0.472,0.335H19.5
					c-0.093,0-0.185,0.005-0.273,0.015C19.208,20.017,19.189,20.018,19.171,20.018z"/>
			</g>
			<g>
				<path d="M17.608,20.673c-0.145,0-0.289-0.063-0.388-0.185c-0.175-0.214-0.143-0.528,0.072-0.703
					c0.172-0.14,0.357-0.265,0.555-0.37c0.242-0.129,0.546-0.039,0.677,0.204s0.039,0.546-0.204,0.677
					c-0.141,0.076-0.273,0.164-0.396,0.265C17.831,20.636,17.72,20.673,17.608,20.673z"/>
			</g>
			<g>
				<path d="M16.672,22h-0.5c-0.276,0-0.5-0.224-0.5-0.5s0.224-0.5,0.5-0.5h0.166c0.032-0.067,0.066-0.134,0.103-0.198
					c0.135-0.242,0.44-0.326,0.681-0.192c0.241,0.136,0.327,0.44,0.192,0.681c-0.067,0.12-0.124,0.245-0.17,0.376
					C17.073,21.866,16.884,22,16.672,22z"/>
			</g>
			<g>
				<path d="M14.086,22h-1.043c-0.276,0-0.5-0.224-0.5-0.5s0.224-0.5,0.5-0.5h1.043c0.276,0,0.5,0.224,0.5,0.5S14.362,22,14.086,22z
					 M10.957,22H9.914c-0.276,0-0.5-0.224-0.5-0.5s0.224-0.5,0.5-0.5h1.043c0.276,0,0.5,0.224,0.5,0.5S11.233,22,10.957,22z"/>
			</g>
		</g>
	</g>
</g>
<g id="Dashed_Frame_9">
</g>
<g id="Dashed_Frame_10">
</g>
<g id="Dashed_Frame_11">
</g>
<g id="Dashed_Frame_12">
</g>
<g id="Dashed_Frame_13">
</g>
<g id="Dashed_Frame_14">
</g>
<g id="Dashed_Frame_15">
</g>
<g id="Dashed_Frame_16">
</g>
<g id="Dashed_Frame_17">
</g>
<g id="Dashed_Frame_18">
</g>
<g id="Dashed_Frame_19">
</g>
<g id="Dashed_Frame_20">
</g>
<g id="Dashed_Frame_25">
</g>
<g id="Dashed_Frame_26">
</g>
<g id="Dashed_Frame_27">
</g>
<g id="Dashed_Frame_28">
</g>
<g id="Dashed_Frame_29">
</g>
<g id="Dashed_Frame_30">
</g>
<g id="Dashed_Frame_31">
</g>
<g id="Dashed_Frame_32">
</g>
<g id="Dashed_Frame_33">
</g>
<g id="Dashed_Frame_35">
</g>
</svg>
