<?xml version="1.0" encoding="iso-8859-1"?>
<!-- Generator: Adobe Illustrator 19.2.1, SVG Export Plug-In . SVG Version: 6.00 Build 0)  -->
<svg version="1.1" xmlns="http://www.w3.org/2000/svg" xmlns:xlink="http://www.w3.org/1999/xlink" x="0px" y="0px"
	 viewBox="0 0 24 24" style="enable-background:new 0 0 24 24;" xml:space="preserve">
<g id="Photo_frame">
</g>
<g id="Photo_frame_2">
</g>
<g id="Photo_frame_3">
</g>
<g id="Photo_frame__4">
</g>
<g id="Photo_frame_5">
	<g id="Layer_6">
	</g>
</g>
<g id="Photo_frame_6">
</g>
<g id="Photo_frame_7">
</g>
<g id="Round_Frame_1">
</g>
<g id="Rectangle_Frame_1">
</g>
<g id="Square_Frame_1">
</g>
<g id="Rectangle_Frame_2">
</g>
<g id="Oval_Frame_1">
</g>
<g id="Round_Frame_2">
</g>
<g id="Rectangle_Frame_3">
</g>
<g id="Rectangle_Frame_4">
</g>
<g id="Rectangle_Frame_5">
</g>
<g id="Square_Frame_2">
</g>
<g id="Rectangle_Frame_6">
</g>
<g id="Rectangle_Frame_7">
</g>
<g id="Oval_Frame_2">
</g>
<g id="Round_Frame_3">
</g>
<g id="Rectangle_Frame_8">
</g>
<g id="Square_Frame_3">
</g>
<g id="Rectangle_Frame_9">
</g>
<g id="Rectangle_Frame_10">
</g>
<g id="Square_Frame_4">
</g>
<g id="Rectangle_Frame_11">
</g>
<g id="Rectangle_Frame_12">
</g>
<g id="Square_Frame_5">
</g>
<g id="Rectangle_Frame_13">
</g>
<g id="Frame_1">
</g>
<g id="Frame_2">
</g>
<g id="Round_Frame_4">
</g>
<g id="Frame_3">
</g>
<g id="Frame_4">
</g>
<g id="Frame_5">
</g>
<g id="Frame_6">
</g>
<g id="Frame_7">
</g>
<g id="Frame_8">
</g>
<g id="Frame_9">
</g>
<g id="Frame_10">
</g>
<g id="Frame_11">
</g>
<g id="Frame_12">
</g>
<g id="Frame_13">
</g>
<g id="Frame_14">
</g>
<g id="Frame_15">
</g>
<g id="Frame_16">
</g>
<g id="Frame_17">
</g>
<g id="Frame_18">
</g>
<g id="Frame_19">
</g>
<g id="Frame_20">
</g>
<g id="Frame_21">
</g>
<g id="Frame_22">
</g>
<g id="Frame_23">
</g>
<g id="Frame_24">
</g>
<g id="Frame_25">
</g>
<g id="Frame_26">
</g>
<g id="Frame_27">
</g>
<g id="Frame_28">
</g>
<g id="Frame_29">
</g>
<g id="Frame_30">
</g>
<g id="Frame_Hole_1">
</g>
<g id="Frame_Hole_2">
</g>
<g id="Frame_Hole_3">
</g>
<g id="Frame_Hole_4">
</g>
<g id="Frame_31">
</g>
<g id="Frame_32">
</g>
<g id="Frame_33">
</g>
<g id="Frame_34">
</g>
<g id="Frame_35">
</g>
<g id="Dashed_Frame_1">
</g>
<g id="Dashed_Frame_2">
	<g>
		<g>
			<path d="M12,21c-1.91,0-3.811-0.346-5.503-1H1.5C1.224,20,1,19.776,1,19.5v-3.907C0.336,14.45,0,13.242,0,12s0.336-2.45,1-3.593
				V4.5C1,4.224,1.224,4,1.5,4h4.997c3.385-1.309,7.621-1.309,11.006,0H22.5C22.776,4,23,4.224,23,4.5v3.907
				c0.664,1.143,1,2.351,1,3.593s-0.336,2.45-1,3.593V19.5c0,0.276-0.224,0.5-0.5,0.5h-4.997C15.811,20.654,13.91,21,12,21z M2,19
				h4.591c0.063,0,0.125,0.012,0.184,0.035c3.197,1.262,7.253,1.262,10.45,0C17.284,19.012,17.346,19,17.409,19H22v-3.544
				c0-0.091,0.025-0.181,0.072-0.259C22.688,14.178,23,13.102,23,12s-0.312-2.178-0.928-3.197C22.025,8.725,22,8.635,22,8.544V5
				h-4.591c-0.063,0-0.125-0.012-0.184-0.035c-3.197-1.262-7.253-1.262-10.45,0C6.716,4.988,6.654,5,6.591,5H2v3.544
				c0,0.091-0.025,0.181-0.072,0.259C1.312,9.822,1,10.898,1,12s0.312,2.178,0.928,3.197C1.975,15.275,2,15.365,2,15.456V19z"/>
		</g>
		<g>
			<path d="M12,19c-0.347,0-0.692-0.013-1.036-0.038c-0.275-0.021-0.482-0.261-0.462-0.536c0.02-0.275,0.263-0.492,0.535-0.462
				c0.443,0.032,0.892,0.044,1.337,0.03c0.293-0.003,0.507,0.208,0.515,0.485c0.008,0.275-0.209,0.506-0.485,0.515
				C12.271,18.998,12.135,19,12,19z M14.376,18.788c-0.237,0-0.447-0.169-0.491-0.41c-0.05-0.271,0.13-0.532,0.402-0.582
				c0.318-0.058,0.631-0.127,0.939-0.208c0.268-0.073,0.541,0.09,0.61,0.356c0.07,0.267-0.089,0.54-0.356,0.61
				c-0.332,0.087-0.67,0.162-1.013,0.226C14.436,18.785,14.406,18.788,14.376,18.788z M9.025,18.665
				c-0.037,0-0.075-0.004-0.112-0.013c-0.341-0.078-0.677-0.17-1.005-0.274c-0.263-0.084-0.408-0.366-0.324-0.629
				c0.084-0.263,0.364-0.407,0.628-0.324c0.301,0.097,0.61,0.181,0.924,0.253c0.269,0.062,0.438,0.33,0.375,0.6
				C9.458,18.509,9.252,18.665,9.025,18.665z M20.5,18h-0.244c-0.276,0-0.5-0.224-0.5-0.5c0-0.183,0.098-0.342,0.244-0.43v-0.327
				c0-0.276,0.224-0.5,0.5-0.5s0.5,0.224,0.5,0.5V17.5C21,17.776,20.776,18,20.5,18z M18.256,18h-1c-0.276,0-0.5-0.224-0.5-0.5
				s0.224-0.5,0.5-0.5h1c0.276,0,0.5,0.224,0.5,0.5S18.533,18,18.256,18z M6.132,18h-1c-0.276,0-0.5-0.224-0.5-0.5
				s0.224-0.5,0.5-0.5h1c0.276,0,0.5,0.224,0.5,0.5S6.409,18,6.132,18z M3.5,17.632c-0.276,0-0.5-0.224-0.5-0.5v-1
				c0-0.276,0.224-0.5,0.5-0.5s0.5,0.224,0.5,0.5v1C4,17.408,3.776,17.632,3.5,17.632z M20.58,15.266
				c-0.088,0-0.177-0.023-0.258-0.072c-0.237-0.143-0.313-0.45-0.17-0.687l0.207-0.343c0.097-0.158,0.182-0.318,0.256-0.479
				c0.116-0.25,0.413-0.359,0.664-0.244c0.251,0.116,0.36,0.413,0.245,0.664c-0.09,0.194-0.193,0.388-0.309,0.578l-0.206,0.342
				C20.915,15.18,20.75,15.266,20.58,15.266z M3.107,14.74c-0.176,0-0.346-0.093-0.438-0.257c-0.183-0.33-0.33-0.669-0.438-1.009
				c-0.083-0.264,0.063-0.544,0.327-0.627c0.262-0.083,0.544,0.063,0.627,0.326c0.087,0.275,0.207,0.553,0.357,0.823
				c0.134,0.242,0.047,0.546-0.194,0.681C3.273,14.72,3.189,14.74,3.107,14.74z M21.5,12.457c-0.274,0-0.497-0.221-0.5-0.495
				c-0.003-0.292-0.041-0.586-0.111-0.875c-0.066-0.268,0.098-0.539,0.366-0.604c0.269-0.064,0.539,0.098,0.605,0.366
				c0.089,0.362,0.137,0.734,0.141,1.104c0.003,0.275-0.219,0.502-0.495,0.505C21.503,12.457,21.501,12.457,21.5,12.457z
				 M2.551,11.85c-0.025,0-0.051-0.002-0.076-0.006c-0.273-0.042-0.46-0.297-0.418-0.57c0.055-0.357,0.152-0.717,0.29-1.069
				c0.1-0.258,0.39-0.386,0.647-0.284c0.257,0.101,0.384,0.39,0.284,0.647c-0.111,0.284-0.189,0.573-0.233,0.858
				C3.006,11.673,2.793,11.85,2.551,11.85z M20.497,9.641c-0.154,0-0.299-0.073-0.388-0.221C20.062,9.343,20,9.191,20,9.101V8.173
				c0-0.276,0.224-0.5,0.5-0.5s0.5,0.224,0.5,0.5v0.875c0.027,0.197-0.05,0.407-0.223,0.512C20.688,9.613,20.59,9.641,20.497,9.641z
				 M3.5,9.062c-0.276,0-0.5-0.224-0.5-0.5v-1c0-0.276,0.224-0.5,0.5-0.5S4,7.285,4,7.562v1C4,8.838,3.776,9.062,3.5,9.062z
				 M20.173,7h-1c-0.276,0-0.5-0.224-0.5-0.5s0.224-0.5,0.5-0.5h1c0.276,0,0.5,0.224,0.5,0.5S20.449,7,20.173,7z M17.173,7h-0.145
				c-0.063,0-0.125-0.012-0.183-0.035l-0.354-0.14c-0.142-0.057-0.282-0.108-0.424-0.157c-0.261-0.09-0.4-0.374-0.31-0.636
				c0.089-0.261,0.374-0.399,0.635-0.31c0.159,0.055,0.315,0.112,0.468,0.174L17.173,6c0.276,0,0.5,0.224,0.5,0.5S17.449,7,17.173,7
				z M5.438,7h-1c-0.276,0-0.5-0.224-0.5-0.5S4.162,6,4.438,6h1c0.276,0,0.5,0.224,0.5,0.5S5.715,7,5.438,7z M7.405,6.829
				c-0.2,0-0.39-0.121-0.466-0.319c-0.1-0.258,0.028-0.547,0.286-0.646c0.321-0.125,0.651-0.236,0.988-0.334
				c0.269-0.08,0.543,0.075,0.62,0.341c0.077,0.266-0.075,0.543-0.34,0.62C8.183,6.58,7.88,6.682,7.586,6.795
				C7.526,6.818,7.465,6.829,7.405,6.829z M14.294,6.197c-0.029,0-0.058-0.002-0.087-0.008c-0.313-0.055-0.631-0.099-0.952-0.129
				c-0.275-0.027-0.477-0.271-0.45-0.546c0.026-0.275,0.274-0.467,0.545-0.45c0.347,0.034,0.691,0.08,1.03,0.141
				c0.272,0.048,0.454,0.308,0.405,0.579C14.744,6.026,14.533,6.197,14.294,6.197z M10.309,6.106c-0.248,0-0.463-0.185-0.496-0.437
				c-0.035-0.274,0.159-0.524,0.433-0.56c0.341-0.043,0.687-0.074,1.033-0.092c0.275-0.039,0.511,0.197,0.526,0.473
				c0.014,0.275-0.197,0.511-0.473,0.525c-0.322,0.018-0.642,0.045-0.958,0.086C10.352,6.105,10.33,6.106,10.309,6.106z"/>
		</g>
	</g>
</g>
<g id="Dashed_Frame_3">
</g>
<g id="Dashed_Frame_4">
</g>
<g id="Dashed_Frame_5">
</g>
<g id="Dashed_Frame_6">
</g>
<g id="Dashed_Frame_7">
</g>
<g id="Dashed_Frame_8">
</g>
<g id="Dashed_Frame_9">
</g>
<g id="Dashed_Frame_10">
</g>
<g id="Dashed_Frame_11">
</g>
<g id="Dashed_Frame_12">
</g>
<g id="Dashed_Frame_13">
</g>
<g id="Dashed_Frame_14">
</g>
<g id="Dashed_Frame_15">
</g>
<g id="Dashed_Frame_16">
</g>
<g id="Dashed_Frame_17">
</g>
<g id="Dashed_Frame_18">
</g>
<g id="Dashed_Frame_19">
</g>
<g id="Dashed_Frame_20">
</g>
<g id="Dashed_Frame_25">
</g>
<g id="Dashed_Frame_26">
</g>
<g id="Dashed_Frame_27">
</g>
<g id="Dashed_Frame_28">
</g>
<g id="Dashed_Frame_29">
</g>
<g id="Dashed_Frame_30">
</g>
<g id="Dashed_Frame_31">
</g>
<g id="Dashed_Frame_32">
</g>
<g id="Dashed_Frame_33">
</g>
<g id="Dashed_Frame_35">
</g>
</svg>
