<?xml version="1.0" encoding="iso-8859-1"?>
<!-- Generator: Adobe Illustrator 19.2.1, SVG Export Plug-In . SVG Version: 6.00 Build 0)  -->
<svg version="1.1" xmlns="http://www.w3.org/2000/svg" xmlns:xlink="http://www.w3.org/1999/xlink" x="0px" y="0px"
	 viewBox="0 0 24 24" style="enable-background:new 0 0 24 24;" xml:space="preserve">
<g id="Photo_frame">
</g>
<g id="Photo_frame_2">
</g>
<g id="Photo_frame_3">
</g>
<g id="Photo_frame__4">
</g>
<g id="Photo_frame_5">
	<g id="Layer_6">
	</g>
</g>
<g id="Photo_frame_6">
</g>
<g id="Photo_frame_7">
</g>
<g id="Round_Frame_1">
</g>
<g id="Rectangle_Frame_1">
</g>
<g id="Square_Frame_1">
</g>
<g id="Rectangle_Frame_2">
</g>
<g id="Oval_Frame_1">
</g>
<g id="Round_Frame_2">
</g>
<g id="Rectangle_Frame_3">
</g>
<g id="Rectangle_Frame_4">
</g>
<g id="Rectangle_Frame_5">
</g>
<g id="Square_Frame_2">
</g>
<g id="Rectangle_Frame_6">
</g>
<g id="Rectangle_Frame_7">
</g>
<g id="Oval_Frame_2">
</g>
<g id="Round_Frame_3">
</g>
<g id="Rectangle_Frame_8">
</g>
<g id="Square_Frame_3">
</g>
<g id="Rectangle_Frame_9">
</g>
<g id="Rectangle_Frame_10">
</g>
<g id="Square_Frame_4">
</g>
<g id="Rectangle_Frame_11">
</g>
<g id="Rectangle_Frame_12">
</g>
<g id="Square_Frame_5">
</g>
<g id="Rectangle_Frame_13">
</g>
<g id="Frame_1">
</g>
<g id="Frame_2">
</g>
<g id="Round_Frame_4">
</g>
<g id="Frame_3">
</g>
<g id="Frame_4">
</g>
<g id="Frame_5">
</g>
<g id="Frame_6">
</g>
<g id="Frame_7">
</g>
<g id="Frame_8">
</g>
<g id="Frame_9">
</g>
<g id="Frame_10">
</g>
<g id="Frame_11">
</g>
<g id="Frame_12">
</g>
<g id="Frame_13">
</g>
<g id="Frame_14">
</g>
<g id="Frame_15">
</g>
<g id="Frame_16">
</g>
<g id="Frame_17">
</g>
<g id="Frame_18">
</g>
<g id="Frame_19">
</g>
<g id="Frame_20">
</g>
<g id="Frame_21">
</g>
<g id="Frame_22">
</g>
<g id="Frame_23">
</g>
<g id="Frame_24">
</g>
<g id="Frame_25">
</g>
<g id="Frame_26">
</g>
<g id="Frame_27">
</g>
<g id="Frame_28">
</g>
<g id="Frame_29">
</g>
<g id="Frame_30">
</g>
<g id="Frame_Hole_1">
</g>
<g id="Frame_Hole_2">
</g>
<g id="Frame_Hole_3">
</g>
<g id="Frame_Hole_4">
</g>
<g id="Frame_31">
</g>
<g id="Frame_32">
</g>
<g id="Frame_33">
</g>
<g id="Frame_34">
</g>
<g id="Frame_35">
</g>
<g id="Dashed_Frame_1">
</g>
<g id="Dashed_Frame_2">
</g>
<g id="Dashed_Frame_3">
</g>
<g id="Dashed_Frame_4">
</g>
<g id="Dashed_Frame_5">
</g>
<g id="Dashed_Frame_6">
</g>
<g id="Dashed_Frame_7">
</g>
<g id="Dashed_Frame_8">
</g>
<g id="Dashed_Frame_9">
</g>
<g id="Dashed_Frame_10">
	<g>
		<g>
			<path d="M12.004,24c-0.113,0-0.226-0.038-0.318-0.114l-1.816-1.502l-2.136-0.702c-0.063-0.021-0.121-0.053-0.171-0.097
				l-1.695-1.468l-2.135-0.702c-0.063-0.021-0.12-0.053-0.169-0.096l-1.69-1.451c-0.085-0.072-0.144-0.172-0.165-0.281l-0.429-2.148
				c-0.013-0.065-0.013-0.132,0-0.197l0.441-2.166l-0.441-2.166c-0.013-0.065-0.013-0.133,0-0.198l0.441-2.186L1.309,6.244
				c-0.043-0.236,0.089-0.47,0.313-0.556l2.229-0.854l1.692-1.531c0.048-0.043,0.104-0.077,0.166-0.1l2.144-0.771l1.692-1.529
				C9.593,0.86,9.647,0.827,9.708,0.805l2.12-0.774c0.111-0.041,0.233-0.041,0.343,0l2.116,0.771
				c0.061,0.022,0.117,0.056,0.164,0.099l1.688,1.527l2.144,0.771c0.062,0.022,0.118,0.056,0.166,0.1l1.696,1.533l2.231,0.854
				c0.226,0.086,0.356,0.32,0.313,0.558l-0.41,2.218l0.44,2.102c0.015,0.067,0.015,0.138,0,0.205l-0.439,2.097l0.439,2.1
				c0.014,0.067,0.015,0.136,0.001,0.203l-0.429,2.086c-0.021,0.104-0.076,0.199-0.156,0.271l-1.682,1.513
				c-0.048,0.043-0.104,0.076-0.165,0.099l-2.142,0.771l-1.689,1.527c-0.048,0.043-0.104,0.077-0.165,0.1l-2.152,0.774l-1.81,1.568
				C12.237,23.959,12.121,24,12.004,24z M8.141,20.764l2.131,0.7c0.06,0.02,0.114,0.05,0.162,0.089l1.563,1.292l1.561-1.352
				c0.046-0.04,0.1-0.071,0.157-0.093l2.146-0.772L17.55,19.1c0.048-0.043,0.104-0.077,0.166-0.1l2.143-0.771l1.486-1.337
				l0.375-1.823l-0.439-2.101c-0.015-0.067-0.015-0.138,0-0.205l0.439-2.097L21.28,8.57c-0.014-0.063-0.015-0.13-0.002-0.193
				l0.353-1.905l-1.93-0.739c-0.058-0.021-0.11-0.055-0.156-0.096l-1.692-1.529l-2.144-0.771c-0.062-0.022-0.118-0.057-0.166-0.1
				l-1.689-1.528L12,1.032l-1.857,0.679l-1.693,1.53c-0.048,0.044-0.104,0.077-0.166,0.1L6.14,4.112L4.451,5.64
				C4.406,5.681,4.353,5.714,4.295,5.735L2.366,6.474l0.355,1.968C2.732,8.504,2.732,8.567,2.72,8.629l-0.44,2.181l0.441,2.166
				c0.013,0.065,0.013,0.134,0,0.199l-0.441,2.167l0.376,1.881l1.483,1.273l2.136,0.703c0.063,0.021,0.121,0.054,0.171,0.097
				L8.141,20.764z"/>
		</g>
		<g>
			<g>
				<path d="M4.24,8.915c-0.237,0-0.447-0.17-0.491-0.411L3.571,7.52C3.528,7.283,3.66,7.05,3.885,6.964l0.934-0.357
					c0.256-0.098,0.547,0.029,0.646,0.288c0.099,0.258-0.03,0.547-0.288,0.646L4.629,7.749l0.104,0.577
					C4.782,8.598,4.602,8.858,4.33,8.907C4.3,8.912,4.271,8.915,4.24,8.915z"/>
			</g>
			<g>
				<path d="M6.427,6.376c-0.137,0-0.272-0.056-0.371-0.165C5.871,6.007,5.887,5.69,6.092,5.505l0.501-0.453
					c0.048-0.043,0.104-0.077,0.165-0.1l1.13-0.407c0.261-0.091,0.546,0.041,0.641,0.301c0.094,0.26-0.041,0.547-0.301,0.641
					L7.19,5.859L6.762,6.247C6.666,6.333,6.547,6.376,6.427,6.376z M17.565,6.37c-0.12,0-0.239-0.043-0.335-0.129l-0.427-0.386
					l-1.038-0.374c-0.261-0.094-0.396-0.38-0.302-0.64c0.094-0.261,0.383-0.392,0.64-0.302l1.131,0.407
					c0.062,0.022,0.118,0.057,0.166,0.1l0.5,0.452c0.205,0.186,0.221,0.502,0.036,0.706C17.838,6.314,17.702,6.37,17.565,6.37z
					 M9.684,4.647c-0.137,0-0.272-0.056-0.371-0.165C9.128,4.278,9.144,3.962,9.349,3.776l1.248-1.128
					c0.048-0.043,0.104-0.077,0.164-0.099l0.183-0.066c0.261-0.096,0.547,0.039,0.641,0.299c0.095,0.26-0.039,0.547-0.299,0.641
					l-0.091,0.033l-1.176,1.063C9.923,4.604,9.804,4.647,9.684,4.647z M14.309,4.642c-0.12,0-0.24-0.043-0.336-0.129l-1.266-1.095
					c-0.26-0.095-0.394-0.382-0.299-0.641c0.096-0.26,0.381-0.394,0.641-0.299l0.188,0.068c0.061,0.022,0.117,0.056,0.165,0.099
					l1.243,1.125c0.204,0.186,0.22,0.502,0.035,0.707C14.581,4.586,14.444,4.642,14.309,4.642z"/>
			</g>
			<g>
				<path d="M19.748,8.909c-0.03,0-0.062-0.003-0.092-0.009c-0.271-0.05-0.451-0.311-0.4-0.582l0.105-0.574l-0.545-0.209
					c-0.258-0.099-0.387-0.388-0.288-0.646s0.39-0.385,0.646-0.288l0.934,0.357c0.226,0.086,0.356,0.32,0.313,0.558L20.238,8.5
					C20.194,8.741,19.984,8.909,19.748,8.909z"/>
			</g>
			<g>
				<path d="M14.409,20.056c-0.205,0-0.397-0.127-0.471-0.331c-0.093-0.26,0.042-0.546,0.302-0.64l0.572-0.206l0.75-0.678
					c0.204-0.185,0.521-0.17,0.706,0.036c0.185,0.204,0.169,0.521-0.036,0.706l-0.823,0.744c-0.048,0.044-0.104,0.077-0.166,0.1
					l-0.665,0.239C14.522,20.046,14.466,20.056,14.409,20.056z M17.354,18.036c-0.205,0-0.397-0.127-0.471-0.331
					c-0.093-0.26,0.042-0.546,0.302-0.64l1.71-0.615c0.256-0.091,0.546,0.041,0.64,0.302c0.094,0.26-0.042,0.546-0.302,0.64
					l-1.71,0.615C17.468,18.026,17.411,18.036,17.354,18.036z M20.096,16.023c-0.034,0-0.067-0.003-0.102-0.01
					c-0.271-0.056-0.444-0.32-0.39-0.591l0.072-0.351l-0.256-1.225c-0.057-0.271,0.116-0.535,0.387-0.592
					c0.271-0.061,0.536,0.116,0.592,0.387l0.277,1.326c0.014,0.067,0.015,0.136,0.001,0.203l-0.093,0.452
					C20.536,15.86,20.328,16.023,20.096,16.023z M19.916,12.466c-0.034,0-0.068-0.003-0.104-0.011
					c-0.27-0.057-0.443-0.321-0.387-0.592l0.25-1.197l-0.078-0.377c-0.057-0.27,0.117-0.535,0.388-0.591
					c0.265-0.063,0.535,0.117,0.591,0.388l0.1,0.479c0.015,0.067,0.015,0.137,0,0.204l-0.271,1.3
					C20.355,12.304,20.147,12.466,19.916,12.466z"/>
			</g>
			<g>
				<path d="M11.974,21.38c-0.113,0-0.227-0.038-0.318-0.115l-0.771-0.638c-0.213-0.176-0.243-0.491-0.066-0.703
					c0.176-0.214,0.491-0.242,0.703-0.066l0.445,0.367l0.436-0.377c0.209-0.181,0.524-0.158,0.705,0.051s0.158,0.524-0.051,0.705
					l-0.756,0.654C12.207,21.339,12.091,21.38,11.974,21.38z"/>
			</g>
			<g>
				<path d="M9.49,20.128c-0.052,0-0.104-0.008-0.156-0.025l-0.595-0.195c-0.063-0.021-0.121-0.053-0.171-0.097l-0.909-0.787
					c-0.209-0.181-0.231-0.496-0.051-0.705s0.496-0.231,0.705-0.051l0.833,0.722l0.5,0.164c0.262,0.086,0.405,0.368,0.318,0.631
					C9.896,19.994,9.7,20.128,9.49,20.128z M6.47,18.185c-0.052,0-0.104-0.008-0.156-0.025l-1.579-0.52
					c-0.063-0.021-0.12-0.053-0.17-0.096l-0.126-0.108c-0.209-0.18-0.233-0.496-0.053-0.705c0.18-0.209,0.495-0.232,0.705-0.053
					l0.051,0.043l1.484,0.489c0.263,0.086,0.405,0.368,0.318,0.631C6.875,18.051,6.68,18.185,6.47,18.185z M3.857,16.084
					c-0.233,0-0.441-0.164-0.489-0.402L3.32,15.442c-0.013-0.064-0.013-0.132,0-0.197l0.315-1.553
					c0.056-0.271,0.325-0.446,0.59-0.391c0.271,0.056,0.445,0.319,0.391,0.59L4.32,15.346l0.028,0.141
					c0.055,0.271-0.121,0.534-0.393,0.588C3.924,16.081,3.891,16.084,3.857,16.084z M4.052,12.5c-0.232,0-0.44-0.163-0.489-0.4
					L3.32,10.908c-0.013-0.065-0.013-0.133,0-0.198l0.121-0.601C3.496,9.838,3.766,9.664,4.03,9.718
					c0.271,0.055,0.446,0.318,0.392,0.589L4.32,10.809L4.543,11.9c0.055,0.271-0.12,0.534-0.391,0.59
					C4.119,12.497,4.085,12.5,4.052,12.5z"/>
			</g>
		</g>
	</g>
</g>
<g id="Dashed_Frame_11">
</g>
<g id="Dashed_Frame_12">
</g>
<g id="Dashed_Frame_13">
</g>
<g id="Dashed_Frame_14">
</g>
<g id="Dashed_Frame_15">
</g>
<g id="Dashed_Frame_16">
</g>
<g id="Dashed_Frame_17">
</g>
<g id="Dashed_Frame_18">
</g>
<g id="Dashed_Frame_19">
</g>
<g id="Dashed_Frame_20">
</g>
<g id="Dashed_Frame_25">
</g>
<g id="Dashed_Frame_26">
</g>
<g id="Dashed_Frame_27">
</g>
<g id="Dashed_Frame_28">
</g>
<g id="Dashed_Frame_29">
</g>
<g id="Dashed_Frame_30">
</g>
<g id="Dashed_Frame_31">
</g>
<g id="Dashed_Frame_32">
</g>
<g id="Dashed_Frame_33">
</g>
<g id="Dashed_Frame_35">
</g>
</svg>
