<?xml version="1.0" encoding="iso-8859-1"?>
<!-- Generator: Adobe Illustrator 19.2.1, SVG Export Plug-In . SVG Version: 6.00 Build 0)  -->
<svg version="1.1" xmlns="http://www.w3.org/2000/svg" xmlns:xlink="http://www.w3.org/1999/xlink" x="0px" y="0px"
	 viewBox="0 0 24 24" style="enable-background:new 0 0 24 24;" xml:space="preserve">
<g id="Photo_frame">
</g>
<g id="Photo_frame_2">
</g>
<g id="Photo_frame_3">
</g>
<g id="Photo_frame__4">
</g>
<g id="Photo_frame_5">
	<g id="Layer_6">
	</g>
</g>
<g id="Photo_frame_6">
</g>
<g id="Photo_frame_7">
</g>
<g id="Round_Frame_1">
</g>
<g id="Rectangle_Frame_1">
</g>
<g id="Square_Frame_1">
</g>
<g id="Rectangle_Frame_2">
</g>
<g id="Oval_Frame_1">
</g>
<g id="Round_Frame_2">
</g>
<g id="Rectangle_Frame_3">
</g>
<g id="Rectangle_Frame_4">
</g>
<g id="Rectangle_Frame_5">
</g>
<g id="Square_Frame_2">
</g>
<g id="Rectangle_Frame_6">
</g>
<g id="Rectangle_Frame_7">
</g>
<g id="Oval_Frame_2">
</g>
<g id="Round_Frame_3">
</g>
<g id="Rectangle_Frame_8">
</g>
<g id="Square_Frame_3">
</g>
<g id="Rectangle_Frame_9">
</g>
<g id="Rectangle_Frame_10">
</g>
<g id="Square_Frame_4">
</g>
<g id="Rectangle_Frame_11">
</g>
<g id="Rectangle_Frame_12">
</g>
<g id="Square_Frame_5">
</g>
<g id="Rectangle_Frame_13">
</g>
<g id="Frame_1">
</g>
<g id="Frame_2">
</g>
<g id="Round_Frame_4">
</g>
<g id="Frame_3">
</g>
<g id="Frame_4">
</g>
<g id="Frame_5">
</g>
<g id="Frame_6">
</g>
<g id="Frame_7">
</g>
<g id="Frame_8">
</g>
<g id="Frame_9">
</g>
<g id="Frame_10">
</g>
<g id="Frame_11">
</g>
<g id="Frame_12">
</g>
<g id="Frame_13">
</g>
<g id="Frame_14">
</g>
<g id="Frame_15">
</g>
<g id="Frame_16">
</g>
<g id="Frame_17">
</g>
<g id="Frame_18">
</g>
<g id="Frame_19">
</g>
<g id="Frame_20">
</g>
<g id="Frame_21">
</g>
<g id="Frame_22">
</g>
<g id="Frame_23">
</g>
<g id="Frame_24">
</g>
<g id="Frame_25">
</g>
<g id="Frame_26">
</g>
<g id="Frame_27">
</g>
<g id="Frame_28">
</g>
<g id="Frame_29">
</g>
<g id="Frame_30">
</g>
<g id="Frame_Hole_1">
</g>
<g id="Frame_Hole_2">
</g>
<g id="Frame_Hole_3">
</g>
<g id="Frame_Hole_4">
</g>
<g id="Frame_31">
</g>
<g id="Frame_32">
</g>
<g id="Frame_33">
</g>
<g id="Frame_34">
</g>
<g id="Frame_35">
</g>
<g id="Dashed_Frame_1">
</g>
<g id="Dashed_Frame_2">
</g>
<g id="Dashed_Frame_3">
</g>
<g id="Dashed_Frame_4">
</g>
<g id="Dashed_Frame_5">
</g>
<g id="Dashed_Frame_6">
</g>
<g id="Dashed_Frame_7">
</g>
<g id="Dashed_Frame_8">
</g>
<g id="Dashed_Frame_9">
</g>
<g id="Dashed_Frame_10">
</g>
<g id="Dashed_Frame_11">
</g>
<g id="Dashed_Frame_12">
</g>
<g id="Dashed_Frame_13">
</g>
<g id="Dashed_Frame_14">
	<g>
		<g>
			<path d="M14.5,23.5h-5C8.673,23.5,8,22.827,8,22c0-1.379-1.122-2.5-2.5-2.5C5.224,19.5,5,19.276,5,19c0-1.379-1.122-2.5-2.5-2.5
				S0,15.379,0,14v-4c0-1.379,1.122-2.5,2.5-2.5S5,6.379,5,5c0-0.276,0.224-0.5,0.5-0.5C6.878,4.5,8,3.379,8,2
				c0-0.827,0.673-1.5,1.5-1.5h5C15.327,0.5,16,1.173,16,2c0,1.379,1.122,2.5,2.5,2.5C18.776,4.5,19,4.724,19,5
				c0,1.379,1.122,2.5,2.5,2.5S24,8.621,24,10v4c0,1.379-1.122,2.5-2.5,2.5S19,17.621,19,19c0,0.276-0.224,0.5-0.5,0.5
				c-1.378,0-2.5,1.121-2.5,2.5C16,22.827,15.327,23.5,14.5,23.5z M5.969,18.531C7.678,18.761,9,20.229,9,22
				c0,0.275,0.224,0.5,0.5,0.5h5c0.276,0,0.5-0.225,0.5-0.5c0-1.771,1.322-3.239,3.031-3.469c0.23-1.709,1.698-3.031,3.469-3.031
				c0.827,0,1.5-0.673,1.5-1.5v-4c0-0.827-0.673-1.5-1.5-1.5c-1.771,0-3.239-1.322-3.469-3.031C16.322,5.239,15,3.771,15,2
				c0-0.275-0.224-0.5-0.5-0.5h-5C9.224,1.5,9,1.725,9,2c0,1.771-1.322,3.239-3.031,3.469C5.739,7.178,4.271,8.5,2.5,8.5
				C1.673,8.5,1,9.173,1,10v4c0,0.827,0.673,1.5,1.5,1.5C4.271,15.5,5.739,16.822,5.969,18.531z M6,19h0.01H6z"/>
		</g>
		<g>
			<g>
				<path d="M10.899,21.5h-0.5c-0.237,0-0.442-0.167-0.49-0.399c-0.03-0.147-0.068-0.294-0.112-0.437
					c-0.082-0.264,0.065-0.544,0.329-0.626c0.266-0.083,0.544,0.064,0.626,0.329c0.014,0.044,0.027,0.088,0.04,0.133h0.107
					c0.276,0,0.5,0.224,0.5,0.5S11.176,21.5,10.899,21.5z"/>
			</g>
			<g>
				<path d="M9.538,19.554c-0.154,0-0.306-0.07-0.403-0.204c-0.147-0.199-0.31-0.387-0.486-0.562
					c-0.196-0.194-0.198-0.511-0.004-0.707c0.195-0.195,0.511-0.199,0.707-0.004c0.215,0.213,0.414,0.442,0.588,0.681
					c0.164,0.223,0.116,0.535-0.107,0.699C9.745,19.522,9.641,19.554,9.538,19.554z"/>
			</g>
			<g>
				<path d="M7.665,17.993c-0.072,0-0.146-0.016-0.216-0.05c-0.135-0.064-0.275-0.124-0.417-0.176
					c-0.139-0.051-0.249-0.16-0.299-0.299c-0.052-0.142-0.11-0.28-0.175-0.414c-0.12-0.249-0.015-0.548,0.234-0.668
					s0.547-0.015,0.667,0.234c0.046,0.096,0.089,0.192,0.129,0.29c0.1,0.041,0.197,0.085,0.294,0.132
					c0.249,0.119,0.354,0.418,0.234,0.667C8.03,17.889,7.851,17.993,7.665,17.993z"/>
			</g>
			<g>
				<path d="M5.773,15.723c-0.116,0-0.233-0.04-0.328-0.122c-0.233-0.202-0.486-0.38-0.751-0.528
					c-0.241-0.135-0.327-0.439-0.192-0.681c0.134-0.242,0.438-0.327,0.681-0.192c0.325,0.182,0.633,0.399,0.918,0.646
					c0.208,0.181,0.231,0.497,0.05,0.705C6.052,15.664,5.913,15.723,5.773,15.723z"/>
			</g>
			<g>
				<path d="M3,14.524c-0.016,0-0.032-0.001-0.048-0.002C2.804,14.508,2.652,14.5,2.5,14.5C2.224,14.5,2,14.276,2,14v-0.5
					C2,13.224,2.224,13,2.5,13S3,13.224,3,13.5v0.022c0.016,0.001,0.031,0.003,0.047,0.004c0.275,0.026,0.477,0.271,0.45,0.546
					C3.473,14.331,3.255,14.524,3,14.524z"/>
			</g>
			<g>
				<path d="M2.5,12.8c-0.276,0-0.5-0.224-0.5-0.5v-0.6c0-0.276,0.224-0.5,0.5-0.5S3,11.424,3,11.7v0.6
					C3,12.576,2.776,12.8,2.5,12.8z"/>
			</g>
			<g>
				<path d="M2.5,11C2.224,11,2,10.776,2,10.5V10c0-0.276,0.224-0.5,0.5-0.5c0.152,0,0.304-0.008,0.452-0.022
					C3.23,9.46,3.471,9.653,3.497,9.928c0.026,0.275-0.175,0.52-0.45,0.546C3.031,10.475,3.016,10.477,3,10.478V10.5
					C3,10.776,2.776,11,2.5,11z"/>
			</g>
			<g>
				<path d="M4.94,9.863c-0.175,0-0.345-0.092-0.437-0.256C4.368,9.366,4.454,9.062,4.695,8.927C4.96,8.778,5.213,8.601,5.446,8.398
					C5.655,8.218,5.97,8.24,6.152,8.449c0.181,0.208,0.158,0.524-0.05,0.705C5.817,9.4,5.508,9.618,5.184,9.8
					C5.106,9.843,5.022,9.863,4.94,9.863z"/>
			</g>
			<g>
				<path d="M7.007,7.662c-0.072,0-0.146-0.016-0.216-0.049c-0.249-0.12-0.354-0.419-0.234-0.668
					C6.622,6.812,6.68,6.673,6.732,6.531c0.05-0.139,0.16-0.248,0.299-0.299c0.143-0.052,0.282-0.111,0.417-0.176
					c0.25-0.124,0.548-0.016,0.667,0.233S8.13,6.838,7.882,6.957C7.785,7.004,7.688,7.048,7.588,7.089
					c-0.041,0.098-0.083,0.194-0.129,0.29C7.373,7.558,7.194,7.662,7.007,7.662z"/>
			</g>
			<g>
				<path d="M9.003,6.063c-0.129,0-0.259-0.05-0.357-0.15c-0.193-0.197-0.19-0.514,0.007-0.707c0.175-0.171,0.337-0.359,0.483-0.559
					c0.162-0.222,0.476-0.271,0.698-0.109c0.223,0.163,0.272,0.476,0.109,0.699C9.767,5.48,9.568,5.711,9.354,5.921
					C9.256,6.016,9.13,6.063,9.003,6.063z"/>
			</g>
			<g>
				<path d="M10.275,3.984c-0.049,0-0.099-0.007-0.149-0.022C9.862,3.88,9.715,3.6,9.797,3.336C9.842,3.193,9.879,3.047,9.91,2.899
					C9.958,2.667,10.162,2.5,10.399,2.5h0.5c0.276,0,0.5,0.224,0.5,0.5s-0.224,0.5-0.5,0.5h-0.107
					c-0.013,0.045-0.026,0.089-0.04,0.133C10.686,3.848,10.488,3.984,10.275,3.984z"/>
			</g>
			<g>
				<path d="M13.725,3.984c-0.213,0-0.411-0.137-0.478-0.352c-0.014-0.044-0.027-0.088-0.04-0.133h-0.107
					c-0.276,0-0.5-0.224-0.5-0.5s0.224-0.5,0.5-0.5h0.5c0.237,0,0.442,0.167,0.49,0.399c0.03,0.147,0.068,0.294,0.112,0.437
					c0.082,0.264-0.065,0.544-0.329,0.626C13.824,3.978,13.774,3.984,13.725,3.984z"/>
			</g>
			<g>
				<path d="M15,6.067c-0.127,0-0.254-0.048-0.352-0.145C14.433,5.71,14.234,5.48,14.06,5.242c-0.164-0.223-0.116-0.535,0.107-0.699
					c0.221-0.164,0.536-0.116,0.699,0.107c0.147,0.199,0.31,0.387,0.486,0.562c0.196,0.194,0.198,0.511,0.004,0.707
					C15.257,6.018,15.128,6.067,15,6.067z"/>
			</g>
			<g>
				<path d="M16.993,7.662c-0.187,0-0.365-0.104-0.451-0.283c-0.046-0.096-0.089-0.192-0.129-0.29
					c-0.1-0.041-0.197-0.085-0.294-0.132c-0.249-0.119-0.354-0.418-0.234-0.667c0.119-0.248,0.416-0.356,0.667-0.233
					c0.135,0.064,0.275,0.124,0.417,0.176c0.139,0.051,0.249,0.16,0.299,0.299c0.052,0.142,0.11,0.28,0.175,0.414
					c0.12,0.249,0.015,0.548-0.234,0.668C17.139,7.646,17.065,7.662,16.993,7.662z"/>
			</g>
			<g>
				<path d="M19.061,9.864c-0.083,0-0.167-0.021-0.244-0.063c-0.325-0.182-0.633-0.399-0.918-0.646
					c-0.208-0.181-0.231-0.497-0.05-0.705c0.182-0.209,0.498-0.231,0.706-0.051c0.233,0.202,0.486,0.38,0.751,0.528
					c0.241,0.135,0.327,0.439,0.192,0.681C19.406,9.772,19.236,9.864,19.061,9.864z"/>
			</g>
			<g>
				<path d="M21.5,11c-0.276,0-0.5-0.224-0.5-0.5v-0.022c-0.016-0.001-0.031-0.003-0.047-0.004c-0.275-0.026-0.477-0.271-0.45-0.546
					c0.026-0.274,0.27-0.467,0.545-0.45C21.196,9.492,21.348,9.5,21.5,9.5c0.276,0,0.5,0.224,0.5,0.5v0.5
					C22,10.776,21.776,11,21.5,11z"/>
			</g>
			<g>
				<path d="M21.5,12.8c-0.276,0-0.5-0.224-0.5-0.5v-0.6c0-0.276,0.224-0.5,0.5-0.5s0.5,0.224,0.5,0.5v0.6
					C22,12.576,21.776,12.8,21.5,12.8z"/>
			</g>
			<g>
				<path d="M21,14.524c-0.255,0-0.473-0.193-0.497-0.452c-0.026-0.275,0.175-0.52,0.45-0.546c0.016-0.001,0.031-0.003,0.047-0.004
					V13.5c0-0.276,0.224-0.5,0.5-0.5s0.5,0.224,0.5,0.5V14c0,0.276-0.224,0.5-0.5,0.5c-0.152,0-0.304,0.008-0.452,0.022
					C21.032,14.523,21.016,14.524,21,14.524z"/>
			</g>
			<g>
				<path d="M18.226,15.724c-0.14,0-0.279-0.059-0.378-0.173c-0.181-0.208-0.158-0.524,0.05-0.705
					c0.285-0.246,0.593-0.464,0.918-0.646c0.242-0.135,0.545-0.05,0.681,0.192c0.135,0.241,0.049,0.546-0.192,0.681
					c-0.265,0.148-0.518,0.326-0.751,0.528C18.459,15.684,18.342,15.724,18.226,15.724z"/>
			</g>
			<g>
				<path d="M16.335,17.993c-0.187,0-0.365-0.104-0.451-0.283c-0.12-0.249-0.015-0.548,0.234-0.667
					c0.097-0.047,0.194-0.091,0.294-0.132c0.041-0.098,0.083-0.194,0.129-0.29c0.119-0.248,0.416-0.354,0.667-0.234
					c0.249,0.12,0.354,0.419,0.234,0.668c-0.064,0.134-0.123,0.272-0.175,0.414c-0.05,0.139-0.16,0.248-0.299,0.299
					c-0.143,0.052-0.282,0.111-0.417,0.176C16.482,17.978,16.408,17.993,16.335,17.993z"/>
			</g>
			<g>
				<path d="M14.459,19.558c-0.102,0-0.205-0.031-0.294-0.096c-0.223-0.163-0.272-0.476-0.109-0.699
					c0.177-0.243,0.376-0.474,0.59-0.684c0.197-0.191,0.514-0.191,0.707,0.008c0.193,0.197,0.19,0.514-0.007,0.707
					c-0.175,0.171-0.337,0.359-0.483,0.559C14.766,19.486,14.614,19.558,14.459,19.558z"/>
			</g>
			<g>
				<path d="M13.601,21.5h-0.5c-0.276,0-0.5-0.224-0.5-0.5s0.224-0.5,0.5-0.5h0.107c0.013-0.045,0.026-0.089,0.04-0.133
					c0.083-0.265,0.362-0.411,0.626-0.329c0.264,0.082,0.411,0.362,0.329,0.626c-0.044,0.143-0.082,0.289-0.112,0.437
					C14.042,21.333,13.838,21.5,13.601,21.5z"/>
			</g>
		</g>
	</g>
</g>
<g id="Dashed_Frame_15">
</g>
<g id="Dashed_Frame_16">
</g>
<g id="Dashed_Frame_17">
</g>
<g id="Dashed_Frame_18">
</g>
<g id="Dashed_Frame_19">
</g>
<g id="Dashed_Frame_20">
</g>
<g id="Dashed_Frame_25">
</g>
<g id="Dashed_Frame_26">
</g>
<g id="Dashed_Frame_27">
</g>
<g id="Dashed_Frame_28">
</g>
<g id="Dashed_Frame_29">
</g>
<g id="Dashed_Frame_30">
</g>
<g id="Dashed_Frame_31">
</g>
<g id="Dashed_Frame_32">
</g>
<g id="Dashed_Frame_33">
</g>
<g id="Dashed_Frame_35">
</g>
</svg>
