<?xml version="1.0" encoding="iso-8859-1"?>
<!-- Generator: Adobe Illustrator 19.2.1, SVG Export Plug-In . SVG Version: 6.00 Build 0)  -->
<svg version="1.1" xmlns="http://www.w3.org/2000/svg" xmlns:xlink="http://www.w3.org/1999/xlink" x="0px" y="0px"
	 viewBox="0 0 24 24" style="enable-background:new 0 0 24 24;" xml:space="preserve">
<g id="Photo_frame">
</g>
<g id="Photo_frame_2">
</g>
<g id="Photo_frame_3">
</g>
<g id="Photo_frame__4">
</g>
<g id="Photo_frame_5">
	<g id="Layer_6">
	</g>
</g>
<g id="Photo_frame_6">
</g>
<g id="Photo_frame_7">
</g>
<g id="Round_Frame_1">
</g>
<g id="Rectangle_Frame_1">
</g>
<g id="Square_Frame_1">
</g>
<g id="Rectangle_Frame_2">
</g>
<g id="Oval_Frame_1">
</g>
<g id="Round_Frame_2">
</g>
<g id="Rectangle_Frame_3">
</g>
<g id="Rectangle_Frame_4">
</g>
<g id="Rectangle_Frame_5">
</g>
<g id="Square_Frame_2">
</g>
<g id="Rectangle_Frame_6">
</g>
<g id="Rectangle_Frame_7">
</g>
<g id="Oval_Frame_2">
</g>
<g id="Round_Frame_3">
</g>
<g id="Rectangle_Frame_8">
</g>
<g id="Square_Frame_3">
</g>
<g id="Rectangle_Frame_9">
</g>
<g id="Rectangle_Frame_10">
</g>
<g id="Square_Frame_4">
</g>
<g id="Rectangle_Frame_11">
</g>
<g id="Rectangle_Frame_12">
</g>
<g id="Square_Frame_5">
</g>
<g id="Rectangle_Frame_13">
</g>
<g id="Frame_1">
</g>
<g id="Frame_2">
</g>
<g id="Round_Frame_4">
</g>
<g id="Frame_3">
</g>
<g id="Frame_4">
</g>
<g id="Frame_5">
</g>
<g id="Frame_6">
</g>
<g id="Frame_7">
</g>
<g id="Frame_8">
</g>
<g id="Frame_9">
</g>
<g id="Frame_10">
</g>
<g id="Frame_11">
</g>
<g id="Frame_12">
</g>
<g id="Frame_13">
</g>
<g id="Frame_14">
</g>
<g id="Frame_15">
</g>
<g id="Frame_16">
</g>
<g id="Frame_17">
</g>
<g id="Frame_18">
</g>
<g id="Frame_19">
</g>
<g id="Frame_20">
</g>
<g id="Frame_21">
</g>
<g id="Frame_22">
</g>
<g id="Frame_23">
</g>
<g id="Frame_24">
</g>
<g id="Frame_25">
</g>
<g id="Frame_26">
</g>
<g id="Frame_27">
</g>
<g id="Frame_28">
</g>
<g id="Frame_29">
</g>
<g id="Frame_30">
</g>
<g id="Frame_Hole_1">
</g>
<g id="Frame_Hole_2">
</g>
<g id="Frame_Hole_3">
</g>
<g id="Frame_Hole_4">
</g>
<g id="Frame_31">
</g>
<g id="Frame_32">
</g>
<g id="Frame_33">
</g>
<g id="Frame_34">
</g>
<g id="Frame_35">
</g>
<g id="Dashed_Frame_1">
</g>
<g id="Dashed_Frame_2">
</g>
<g id="Dashed_Frame_3">
</g>
<g id="Dashed_Frame_4">
</g>
<g id="Dashed_Frame_5">
</g>
<g id="Dashed_Frame_6">
</g>
<g id="Dashed_Frame_7">
</g>
<g id="Dashed_Frame_8">
</g>
<g id="Dashed_Frame_9">
</g>
<g id="Dashed_Frame_10">
</g>
<g id="Dashed_Frame_11">
</g>
<g id="Dashed_Frame_12">
</g>
<g id="Dashed_Frame_13">
</g>
<g id="Dashed_Frame_14">
</g>
<g id="Dashed_Frame_15">
</g>
<g id="Dashed_Frame_16">
</g>
<g id="Dashed_Frame_17">
</g>
<g id="Dashed_Frame_18">
</g>
<g id="Dashed_Frame_19">
</g>
<g id="Dashed_Frame_20">
</g>
<g id="Dashed_Frame_25">
	<g>
		<g>
			<path d="M12,24c-1.968,0-3.563-0.846-3.923-2H5.5C5.224,22,5,21.776,5,21.5C5,20.121,3.878,19,2.5,19C2.224,19,2,18.776,2,18.5
				v-2.577C0.846,15.563,0,13.968,0,12s0.846-3.563,2-3.923V5.5C2,5.224,2.224,5,2.5,5C3.878,5,5,3.879,5,2.5C5,2.224,5.224,2,5.5,2
				h2.077C7.938,0.846,9.532,0,11.5,0s3.563,0.846,3.923,2H18.5C18.776,2,19,2.224,19,2.5C19,3.879,20.122,5,21.5,5
				C21.776,5,22,5.224,22,5.5v2.577c1.154,0.36,2,1.955,2,3.923s-0.846,3.563-2,3.923V18.5c0,0.276-0.224,0.5-0.5,0.5
				c-1.378,0-2.5,1.121-2.5,2.5c0,0.276-0.224,0.5-0.5,0.5h-2.577C15.563,23.154,13.968,24,12,24z M5.964,21H8.5
				C8.776,21,9,21.224,9,21.5c0,0.71,1.232,1.5,3,1.5s3-0.79,3-1.5c0-0.276,0.224-0.5,0.5-0.5h2.536
				c0.22-1.53,1.434-2.744,2.964-2.965V15.5c0-0.276,0.224-0.5,0.5-0.5c0.709,0,1.5-1.232,1.5-3s-0.791-3-1.5-3
				C21.224,9,21,8.776,21,8.5V5.965C19.469,5.744,18.255,4.53,18.036,3H15c-0.276,0-0.5-0.224-0.5-0.5c0-0.71-1.232-1.5-3-1.5
				s-3,0.79-3,1.5C8.5,2.776,8.276,3,8,3H5.964C5.745,4.53,4.531,5.744,3,5.965V8.5C3,8.776,2.776,9,2.5,9C1.791,9,1,10.232,1,12
				s0.791,3,1.5,3C2.776,15,3,15.224,3,15.5v2.535C4.531,18.256,5.745,19.47,5.964,21z"/>
		</g>
		<g>
			<g>
				<path d="M11.453,21.964c-0.022,0-0.045-0.002-0.068-0.005c-0.439-0.06-0.854-0.19-1.139-0.358C10.093,21.511,10,21.347,10,21.17
					V20H9.5C9.224,20,9,19.776,9,19.5S9.224,19,9.5,19h1c0.276,0,0.5,0.224,0.5,0.5v1.348c0.138,0.048,0.314,0.093,0.52,0.121
					c0.273,0.037,0.465,0.289,0.428,0.563C11.913,21.782,11.699,21.964,11.453,21.964z"/>
			</g>
			<g>
				<path d="M8.083,20h-1c-0.199,0-0.378-0.117-0.458-0.299c-0.12-0.274-0.27-0.539-0.443-0.786
					c-0.159-0.226-0.105-0.538,0.121-0.697c0.227-0.159,0.538-0.104,0.697,0.121c0.148,0.211,0.282,0.433,0.4,0.661h0.684
					c0.276,0,0.5,0.224,0.5,0.5S8.359,20,8.083,20z"/>
			</g>
			<g>
				<path d="M5.373,17.91c-0.099,0-0.2-0.029-0.287-0.091c-0.249-0.175-0.513-0.324-0.786-0.443C4.118,17.297,4,17.117,4,16.918v-1
					c0-0.276,0.224-0.5,0.5-0.5s0.5,0.224,0.5,0.5v0.684c0.228,0.117,0.449,0.251,0.661,0.399c0.226,0.159,0.28,0.471,0.122,0.696
					C5.686,17.836,5.53,17.91,5.373,17.91z"/>
			</g>
			<g>
				<path d="M4.5,15C4.224,15,4,14.776,4,14.5V14H2.83c-0.177,0-0.341-0.094-0.431-0.246c-0.167-0.285-0.298-0.7-0.358-1.139
					c-0.037-0.273,0.154-0.525,0.428-0.563c0.272-0.036,0.525,0.154,0.563,0.428c0.028,0.205,0.073,0.381,0.12,0.52H4.5
					C4.776,13,5,13.224,5,13.5v1C5,14.776,4.776,15,4.5,15z"/>
			</g>
			<g>
				<path d="M2.537,11.952c-0.022,0-0.045-0.002-0.068-0.005c-0.273-0.037-0.465-0.289-0.428-0.563
					c0.06-0.438,0.19-0.854,0.358-1.139C2.488,10.094,2.652,10,2.83,10H4V9.5C4,9.224,4.224,9,4.5,9S5,9.224,5,9.5v1
					C5,10.776,4.776,11,4.5,11H3.152c-0.047,0.139-0.092,0.314-0.12,0.52C2.997,11.771,2.783,11.952,2.537,11.952z"/>
			</g>
			<g>
				<path d="M4.5,8.582c-0.276,0-0.5-0.224-0.5-0.5v-1c0-0.199,0.118-0.379,0.3-0.458c0.273-0.119,0.537-0.269,0.786-0.443
					c0.226-0.159,0.538-0.104,0.697,0.122C5.941,6.528,5.887,6.84,5.661,6.999C5.449,7.147,5.228,7.281,5,7.398v0.684
					C5,8.358,4.776,8.582,4.5,8.582z"/>
			</g>
			<g>
				<path d="M6.589,5.873c-0.1,0-0.2-0.029-0.288-0.091c-0.226-0.159-0.28-0.472-0.121-0.697c0.174-0.247,0.323-0.512,0.443-0.786
					C6.704,4.117,6.884,4,7.083,4h1c0.276,0,0.5,0.224,0.5,0.5S8.359,5,8.083,5H7.398c-0.118,0.229-0.251,0.45-0.4,0.661
					C6.901,5.799,6.747,5.873,6.589,5.873z"/>
			</g>
			<g>
				<path d="M10,5H9C8.724,5,8.5,4.776,8.5,4.5S8.724,4,9,4h0.5V2.83c0-0.177,0.093-0.341,0.246-0.431
					c0.284-0.168,0.699-0.299,1.139-0.358c0.275-0.037,0.525,0.153,0.563,0.428c0.037,0.273-0.154,0.525-0.428,0.563
					c-0.206,0.028-0.382,0.073-0.52,0.121V4.5C10.5,4.776,10.276,5,10,5z"/>
			</g>
			<g>
				<path d="M14,5h-1c-0.276,0-0.5-0.224-0.5-0.5V3.152c-0.138-0.048-0.314-0.093-0.52-0.121c-0.273-0.037-0.465-0.289-0.428-0.563
					c0.038-0.273,0.286-0.463,0.563-0.428c0.439,0.06,0.854,0.19,1.139,0.358C13.407,2.489,13.5,2.653,13.5,2.83V4H14
					c0.276,0,0.5,0.224,0.5,0.5S14.276,5,14,5z"/>
			</g>
			<g>
				<path d="M17.411,5.873c-0.157,0-0.312-0.074-0.409-0.212C16.853,5.45,16.719,5.229,16.602,5h-0.684c-0.276,0-0.5-0.224-0.5-0.5
					s0.224-0.5,0.5-0.5h1c0.199,0,0.378,0.117,0.458,0.299c0.12,0.274,0.27,0.539,0.443,0.786c0.159,0.226,0.105,0.538-0.121,0.697
					C17.61,5.844,17.51,5.873,17.411,5.873z"/>
			</g>
			<g>
				<path d="M19.5,8.582c-0.276,0-0.5-0.224-0.5-0.5V7.398c-0.228-0.117-0.449-0.251-0.661-0.399
					c-0.226-0.159-0.28-0.471-0.122-0.696c0.159-0.227,0.47-0.281,0.697-0.122c0.249,0.175,0.513,0.324,0.786,0.443
					C19.882,6.703,20,6.883,20,7.082v1C20,8.358,19.776,8.582,19.5,8.582z"/>
			</g>
			<g>
				<path d="M21.463,11.952c-0.246,0-0.46-0.182-0.495-0.433c-0.028-0.205-0.073-0.381-0.12-0.52H19.5c-0.276,0-0.5-0.224-0.5-0.5
					v-1C19,9.224,19.224,9,19.5,9S20,9.224,20,9.5V10h1.17c0.177,0,0.341,0.094,0.431,0.246c0.167,0.285,0.298,0.7,0.358,1.139
					c0.037,0.273-0.154,0.525-0.428,0.563C21.509,11.95,21.486,11.952,21.463,11.952z"/>
			</g>
			<g>
				<path d="M19.5,15c-0.276,0-0.5-0.224-0.5-0.5v-1c0-0.276,0.224-0.5,0.5-0.5h1.348c0.047-0.139,0.092-0.314,0.12-0.52
					c0.038-0.273,0.287-0.462,0.563-0.428c0.273,0.037,0.465,0.289,0.428,0.563c-0.06,0.438-0.19,0.854-0.358,1.139
					C21.512,13.906,21.348,14,21.17,14H20v0.5C20,14.776,19.776,15,19.5,15z"/>
			</g>
			<g>
				<path d="M18.627,17.91c-0.157,0-0.313-0.074-0.41-0.213c-0.159-0.226-0.104-0.537,0.122-0.696
					c0.212-0.148,0.433-0.282,0.661-0.399v-0.684c0-0.276,0.224-0.5,0.5-0.5s0.5,0.224,0.5,0.5v1c0,0.199-0.118,0.379-0.3,0.458
					c-0.273,0.119-0.537,0.269-0.786,0.443C18.827,17.881,18.726,17.91,18.627,17.91z"/>
			</g>
			<g>
				<path d="M16.917,20h-1c-0.276,0-0.5-0.224-0.5-0.5s0.224-0.5,0.5-0.5h0.684c0.118-0.229,0.251-0.45,0.4-0.661
					c0.159-0.225,0.47-0.28,0.697-0.121c0.226,0.159,0.28,0.472,0.121,0.697c-0.174,0.247-0.323,0.512-0.443,0.786
					C17.296,19.883,17.116,20,16.917,20z"/>
			</g>
			<g>
				<path d="M12.547,21.964c-0.246,0-0.46-0.182-0.495-0.433c-0.037-0.273,0.154-0.525,0.428-0.563
					c0.206-0.028,0.382-0.073,0.52-0.121V19.5c0-0.276,0.224-0.5,0.5-0.5h1c0.276,0,0.5,0.224,0.5,0.5S14.776,20,14.5,20H14v1.17
					c0,0.177-0.093,0.341-0.246,0.431c-0.284,0.168-0.699,0.299-1.139,0.358C12.593,21.962,12.57,21.964,12.547,21.964z"/>
			</g>
		</g>
	</g>
</g>
<g id="Dashed_Frame_26">
</g>
<g id="Dashed_Frame_27">
</g>
<g id="Dashed_Frame_28">
</g>
<g id="Dashed_Frame_29">
</g>
<g id="Dashed_Frame_30">
</g>
<g id="Dashed_Frame_31">
</g>
<g id="Dashed_Frame_32">
</g>
<g id="Dashed_Frame_33">
</g>
<g id="Dashed_Frame_35">
</g>
</svg>
