<?xml version="1.0" encoding="iso-8859-1"?>
<!-- Generator: Adobe Illustrator 19.2.1, SVG Export Plug-In . SVG Version: 6.00 Build 0)  -->
<svg version="1.1" xmlns="http://www.w3.org/2000/svg" xmlns:xlink="http://www.w3.org/1999/xlink" x="0px" y="0px"
	 viewBox="0 0 24 24" style="enable-background:new 0 0 24 24;" xml:space="preserve">
<g id="Photo_frame">
</g>
<g id="Photo_frame_2">
</g>
<g id="Photo_frame_3">
</g>
<g id="Photo_frame__4">
</g>
<g id="Photo_frame_5">
	<g id="Layer_6">
	</g>
</g>
<g id="Photo_frame_6">
</g>
<g id="Photo_frame_7">
</g>
<g id="Round_Frame_1">
</g>
<g id="Rectangle_Frame_1">
</g>
<g id="Square_Frame_1">
</g>
<g id="Rectangle_Frame_2">
</g>
<g id="Oval_Frame_1">
</g>
<g id="Round_Frame_2">
</g>
<g id="Rectangle_Frame_3">
</g>
<g id="Rectangle_Frame_4">
</g>
<g id="Rectangle_Frame_5">
</g>
<g id="Square_Frame_2">
</g>
<g id="Rectangle_Frame_6">
</g>
<g id="Rectangle_Frame_7">
</g>
<g id="Oval_Frame_2">
</g>
<g id="Round_Frame_3">
</g>
<g id="Rectangle_Frame_8">
</g>
<g id="Square_Frame_3">
</g>
<g id="Rectangle_Frame_9">
</g>
<g id="Rectangle_Frame_10">
</g>
<g id="Square_Frame_4">
</g>
<g id="Rectangle_Frame_11">
</g>
<g id="Rectangle_Frame_12">
</g>
<g id="Square_Frame_5">
</g>
<g id="Rectangle_Frame_13">
</g>
<g id="Frame_1">
</g>
<g id="Frame_2">
</g>
<g id="Round_Frame_4">
</g>
<g id="Frame_3">
</g>
<g id="Frame_4">
</g>
<g id="Frame_5">
</g>
<g id="Frame_6">
</g>
<g id="Frame_7">
</g>
<g id="Frame_8">
</g>
<g id="Frame_9">
</g>
<g id="Frame_10">
</g>
<g id="Frame_11">
</g>
<g id="Frame_12">
</g>
<g id="Frame_13">
</g>
<g id="Frame_14">
</g>
<g id="Frame_15">
</g>
<g id="Frame_16">
</g>
<g id="Frame_17">
</g>
<g id="Frame_18">
</g>
<g id="Frame_19">
</g>
<g id="Frame_20">
</g>
<g id="Frame_21">
</g>
<g id="Frame_22">
</g>
<g id="Frame_23">
</g>
<g id="Frame_24">
</g>
<g id="Frame_25">
</g>
<g id="Frame_26">
</g>
<g id="Frame_27">
</g>
<g id="Frame_28">
</g>
<g id="Frame_29">
</g>
<g id="Frame_30">
</g>
<g id="Frame_Hole_1">
</g>
<g id="Frame_Hole_2">
</g>
<g id="Frame_Hole_3">
</g>
<g id="Frame_Hole_4">
</g>
<g id="Frame_31">
</g>
<g id="Frame_32">
</g>
<g id="Frame_33">
</g>
<g id="Frame_34">
</g>
<g id="Frame_35">
</g>
<g id="Dashed_Frame_1">
</g>
<g id="Dashed_Frame_2">
</g>
<g id="Dashed_Frame_3">
</g>
<g id="Dashed_Frame_4">
</g>
<g id="Dashed_Frame_5">
</g>
<g id="Dashed_Frame_6">
</g>
<g id="Dashed_Frame_7">
</g>
<g id="Dashed_Frame_8">
</g>
<g id="Dashed_Frame_9">
</g>
<g id="Dashed_Frame_10">
</g>
<g id="Dashed_Frame_11">
</g>
<g id="Dashed_Frame_12">
</g>
<g id="Dashed_Frame_13">
	<g>
		<g>
			<path d="M12,24c-1.678,0-3.203-0.743-4.137-2H7.5c-1.208,0-2.217-0.86-2.45-2H4.45c-0.238,0-0.443-0.168-0.49-0.4
				C3.8,18.812,3.188,18.2,2.401,18.041C2.167,17.993,2,17.789,2,17.551V6.449c0-0.238,0.167-0.442,0.401-0.49
				C3.188,5.8,3.8,5.188,3.959,4.4C4.007,4.168,4.212,4,4.45,4H5.05C5.283,2.86,6.292,2,7.5,2h0.363C8.797,0.743,10.322,0,12,0
				c1.679,0,3.25,0.779,4.171,2.051H16.5c1.208,0,2.217,0.86,2.45,2h0.601c0.238,0,0.443,0.168,0.49,0.4
				C20.2,5.238,20.812,5.85,21.6,6.01C21.833,6.058,22,6.263,22,6.5v11.101c0,0.237-0.167,0.442-0.4,0.49
				c-0.788,0.16-1.399,0.772-1.559,1.56c-0.047,0.232-0.252,0.4-0.49,0.4H18.95c-0.232,1.14-1.242,2-2.45,2h-0.399
				C15.164,23.276,13.651,24,12,24z M4.829,19H5.5C5.776,19,6,19.224,6,19.5C6,20.327,6.673,21,7.5,21h0.624
				c0.168,0,0.326,0.085,0.418,0.226C9.259,22.32,10.584,23,12,23c1.416,0,2.698-0.646,3.431-1.729
				c0.093-0.138,0.248-0.22,0.414-0.22H16.5c0.827,0,1.5-0.673,1.5-1.5c0-0.276,0.224-0.5,0.5-0.5h0.671
				c0.301-0.855,0.973-1.528,1.829-1.83V6.88c-0.856-0.302-1.528-0.974-1.829-1.829H18.5c-0.276,0-0.5-0.224-0.5-0.5
				c0-0.827-0.673-1.5-1.5-1.5h-0.593c-0.171,0-0.331-0.088-0.422-0.232C14.774,1.696,13.439,1,12,1
				c-1.416,0-2.741,0.68-3.458,1.774C8.45,2.915,8.292,3,8.124,3H7.5C6.673,3,6,3.673,6,4.5C6,4.776,5.776,5,5.5,5H4.829
				C4.528,5.856,3.856,6.528,3,6.829v10.342C3.856,17.472,4.528,18.144,4.829,19z"/>
		</g>
		<g>
			<g>
				<path d="M10.06,21.229c-0.129,0-0.259-0.05-0.357-0.15c-0.122-0.124-0.23-0.258-0.324-0.4L8.935,20H7.5
					C7.224,20,7,19.776,7,19.5V18H5.745c-0.167,0-0.323-0.084-0.416-0.223c-0.293-0.44-0.666-0.813-1.105-1.105
					C4.083,16.579,4,16.423,4,16.256v-1.5c0-0.276,0.224-0.5,0.5-0.5s0.5,0.224,0.5,0.5v1.241C5.382,16.282,5.718,16.618,6.003,17
					H7.5C7.776,17,8,17.224,8,17.5V19h1.205c0.168,0,0.326,0.085,0.418,0.226l0.592,0.904c0.058,0.09,0.125,0.173,0.201,0.25
					c0.193,0.196,0.19,0.514-0.007,0.707C10.313,21.182,10.186,21.229,10.06,21.229z"/>
			</g>
			<g>
				<path d="M4.5,13.681c-0.276,0-0.5-0.224-0.5-0.5v-2.362c0-0.276,0.224-0.5,0.5-0.5s0.5,0.224,0.5,0.5v2.362
					C5,13.457,4.776,13.681,4.5,13.681z"/>
			</g>
			<g>
				<path d="M4.5,9.744c-0.276,0-0.5-0.224-0.5-0.5v-1.5c0-0.167,0.083-0.323,0.223-0.416c0.44-0.293,0.812-0.665,1.105-1.105
					C5.421,6.084,5.578,6,5.745,6H7V4.5C7,4.224,7.224,4,7.5,4h1.435l0.444-0.679c0.094-0.143,0.203-0.276,0.324-0.4
					c0.193-0.199,0.51-0.2,0.707-0.008c0.197,0.193,0.2,0.511,0.007,0.707c-0.076,0.077-0.143,0.16-0.202,0.25L9.623,4.774
					C9.53,4.915,9.373,5,9.205,5H8v1.5C8,6.776,7.776,7,7.5,7H6.003C5.718,7.382,5.382,7.718,5,8.003v1.241
					C5,9.521,4.776,9.744,4.5,9.744z"/>
			</g>
			<g>
				<path d="M12.929,3.149c-0.053,0-0.106-0.008-0.159-0.026c-0.476-0.16-1.026-0.164-1.51-0.009
					c-0.266,0.08-0.545-0.063-0.628-0.324c-0.084-0.263,0.061-0.544,0.324-0.629c0.686-0.218,1.457-0.214,2.133,0.015
					c0.262,0.088,0.403,0.371,0.315,0.633C13.333,3.018,13.138,3.149,12.929,3.149z"/>
			</g>
			<g>
				<path d="M19.5,9.795c-0.276,0-0.5-0.224-0.5-0.5V8.054c-0.381-0.286-0.717-0.622-1.003-1.003H16.5c-0.276,0-0.5-0.224-0.5-0.5
					v-1.5h-1.194c-0.171,0-0.331-0.088-0.422-0.232l-0.589-0.931c-0.055-0.087-0.117-0.166-0.187-0.24
					c-0.188-0.202-0.178-0.519,0.024-0.707c0.201-0.187,0.517-0.179,0.707,0.023c0.113,0.121,0.214,0.251,0.301,0.39l0.441,0.697
					H16.5c0.276,0,0.5,0.224,0.5,0.5v1.5h1.256c0.167,0,0.323,0.083,0.416,0.223c0.293,0.439,0.666,0.812,1.106,1.105
					C19.917,7.472,20,7.628,20,7.795v1.5C20,9.571,19.776,9.795,19.5,9.795z"/>
			</g>
			<g>
				<path d="M19.5,13.732c-0.276,0-0.5-0.224-0.5-0.5V10.87c0-0.276,0.224-0.5,0.5-0.5s0.5,0.224,0.5,0.5v2.362
					C20,13.509,19.776,13.732,19.5,13.732z"/>
			</g>
			<g>
				<path d="M13.908,21.265c-0.13,0-0.26-0.051-0.358-0.151c-0.192-0.198-0.188-0.515,0.01-0.707
					c0.081-0.079,0.154-0.165,0.216-0.258l0.594-0.878c0.093-0.138,0.248-0.22,0.414-0.22H16v-1.5c0-0.276,0.224-0.5,0.5-0.5h1.497
					c0.285-0.382,0.622-0.718,1.003-1.003v-1.241c0-0.276,0.224-0.5,0.5-0.5s0.5,0.224,0.5,0.5v1.5c0,0.167-0.083,0.323-0.223,0.416
					c-0.44,0.294-0.813,0.665-1.106,1.105c-0.093,0.139-0.249,0.223-0.416,0.223H17v1.5c0,0.276-0.224,0.5-0.5,0.5h-1.451
					l-0.446,0.659c-0.101,0.148-0.217,0.287-0.347,0.413C14.159,21.218,14.033,21.265,13.908,21.265z"/>
			</g>
			<g>
				<path d="M12,22c-0.365,0-0.723-0.057-1.063-0.167c-0.263-0.086-0.406-0.368-0.321-0.63c0.086-0.264,0.368-0.407,0.63-0.321
					c0.472,0.152,1.004,0.157,1.478,0.009c0.263-0.082,0.544,0.064,0.626,0.328c0.082,0.264-0.065,0.545-0.329,0.627
					C12.693,21.948,12.35,22,12,22z"/>
			</g>
		</g>
	</g>
</g>
<g id="Dashed_Frame_14">
</g>
<g id="Dashed_Frame_15">
</g>
<g id="Dashed_Frame_16">
</g>
<g id="Dashed_Frame_17">
</g>
<g id="Dashed_Frame_18">
</g>
<g id="Dashed_Frame_19">
</g>
<g id="Dashed_Frame_20">
</g>
<g id="Dashed_Frame_25">
</g>
<g id="Dashed_Frame_26">
</g>
<g id="Dashed_Frame_27">
</g>
<g id="Dashed_Frame_28">
</g>
<g id="Dashed_Frame_29">
</g>
<g id="Dashed_Frame_30">
</g>
<g id="Dashed_Frame_31">
</g>
<g id="Dashed_Frame_32">
</g>
<g id="Dashed_Frame_33">
</g>
<g id="Dashed_Frame_35">
</g>
</svg>
