<?xml version="1.0" encoding="iso-8859-1"?>
<!-- Generator: Adobe Illustrator 19.2.1, SVG Export Plug-In . SVG Version: 6.00 Build 0)  -->
<svg version="1.1" xmlns="http://www.w3.org/2000/svg" xmlns:xlink="http://www.w3.org/1999/xlink" x="0px" y="0px"
	 viewBox="0 0 24 24" style="enable-background:new 0 0 24 24;" xml:space="preserve">
<g id="Photo_frame">
</g>
<g id="Photo_frame_2">
</g>
<g id="Photo_frame_3">
</g>
<g id="Photo_frame__4">
</g>
<g id="Photo_frame_5">
	<g id="Layer_6">
	</g>
</g>
<g id="Photo_frame_6">
</g>
<g id="Photo_frame_7">
</g>
<g id="Round_Frame_1">
</g>
<g id="Rectangle_Frame_1">
</g>
<g id="Square_Frame_1">
</g>
<g id="Rectangle_Frame_2">
</g>
<g id="Oval_Frame_1">
</g>
<g id="Round_Frame_2">
</g>
<g id="Rectangle_Frame_3">
</g>
<g id="Rectangle_Frame_4">
</g>
<g id="Rectangle_Frame_5">
</g>
<g id="Square_Frame_2">
</g>
<g id="Rectangle_Frame_6">
</g>
<g id="Rectangle_Frame_7">
</g>
<g id="Oval_Frame_2">
</g>
<g id="Round_Frame_3">
</g>
<g id="Rectangle_Frame_8">
</g>
<g id="Square_Frame_3">
</g>
<g id="Rectangle_Frame_9">
</g>
<g id="Rectangle_Frame_10">
</g>
<g id="Square_Frame_4">
</g>
<g id="Rectangle_Frame_11">
</g>
<g id="Rectangle_Frame_12">
</g>
<g id="Square_Frame_5">
</g>
<g id="Rectangle_Frame_13">
</g>
<g id="Frame_1">
</g>
<g id="Frame_2">
</g>
<g id="Round_Frame_4">
</g>
<g id="Frame_3">
</g>
<g id="Frame_4">
</g>
<g id="Frame_5">
</g>
<g id="Frame_6">
</g>
<g id="Frame_7">
</g>
<g id="Frame_8">
</g>
<g id="Frame_9">
</g>
<g id="Frame_10">
</g>
<g id="Frame_11">
</g>
<g id="Frame_12">
</g>
<g id="Frame_13">
</g>
<g id="Frame_14">
</g>
<g id="Frame_15">
</g>
<g id="Frame_16">
</g>
<g id="Frame_17">
</g>
<g id="Frame_18">
</g>
<g id="Frame_19">
</g>
<g id="Frame_20">
</g>
<g id="Frame_21">
</g>
<g id="Frame_22">
</g>
<g id="Frame_23">
</g>
<g id="Frame_24">
</g>
<g id="Frame_25">
</g>
<g id="Frame_26">
</g>
<g id="Frame_27">
</g>
<g id="Frame_28">
</g>
<g id="Frame_29">
</g>
<g id="Frame_30">
</g>
<g id="Frame_Hole_1">
</g>
<g id="Frame_Hole_2">
</g>
<g id="Frame_Hole_3">
</g>
<g id="Frame_Hole_4">
</g>
<g id="Frame_31">
</g>
<g id="Frame_32">
</g>
<g id="Frame_33">
</g>
<g id="Frame_34">
</g>
<g id="Frame_35">
</g>
<g id="Dashed_Frame_1">
</g>
<g id="Dashed_Frame_2">
</g>
<g id="Dashed_Frame_3">
</g>
<g id="Dashed_Frame_4">
</g>
<g id="Dashed_Frame_5">
</g>
<g id="Dashed_Frame_6">
</g>
<g id="Dashed_Frame_7">
</g>
<g id="Dashed_Frame_8">
</g>
<g id="Dashed_Frame_9">
</g>
<g id="Dashed_Frame_10">
</g>
<g id="Dashed_Frame_11">
</g>
<g id="Dashed_Frame_12">
</g>
<g id="Dashed_Frame_13">
</g>
<g id="Dashed_Frame_14">
</g>
<g id="Dashed_Frame_15">
</g>
<g id="Dashed_Frame_16">
</g>
<g id="Dashed_Frame_17">
</g>
<g id="Dashed_Frame_18">
</g>
<g id="Dashed_Frame_19">
</g>
<g id="Dashed_Frame_20">
</g>
<g id="Dashed_Frame_25">
</g>
<g id="Dashed_Frame_26">
</g>
<g id="Dashed_Frame_27">
	<g>
		<g>
			<path d="M12,19.5c-0.09,0-0.18-0.024-0.26-0.073L8.574,17.5H6.5C6.224,17.5,6,17.276,6,17v-1.066l-5.76-3.507
				C0.091,12.336,0,12.175,0,12s0.091-0.336,0.24-0.427L6,8.066V6c0-0.276,0.224-0.5,0.5-0.5h3.717l1.523-0.927
				c0.159-0.098,0.36-0.098,0.52,0L13.783,5.5H17.5C17.776,5.5,18,5.724,18,6v2.066l5.76,3.507C23.909,11.664,24,11.825,24,12
				s-0.091,0.336-0.24,0.427L18,15.934V17c0,0.276-0.224,0.5-0.5,0.5h-2.074l-3.166,1.927C12.18,19.476,12.09,19.5,12,19.5z M7,16.5
				h1.714c0.092,0,0.182,0.025,0.26,0.073L12,18.415l3.026-1.842c0.078-0.048,0.168-0.073,0.26-0.073H17v-0.848
				c0-0.175,0.091-0.336,0.24-0.427L22.539,12L17.24,8.774C17.091,8.684,17,8.522,17,8.348V6.5h-3.357
				c-0.092,0-0.182-0.025-0.26-0.073L12,5.585l-1.383,0.842C10.539,6.475,10.449,6.5,10.357,6.5H7v1.848
				c0,0.175-0.091,0.336-0.24,0.427L1.461,12l5.298,3.226C6.909,15.316,7,15.478,7,15.652V16.5z"/>
		</g>
		<g>
			<g>
				<path d="M9.467,15.617c-0.089,0-0.179-0.023-0.26-0.073L9.135,15.5H8.5C8.224,15.5,8,15.276,8,15v-0.19l-0.614-0.374
					c-0.236-0.144-0.311-0.451-0.167-0.687c0.143-0.236,0.452-0.313,0.687-0.167l0.854,0.52c0.141,0.085,0.23,0.234,0.239,0.398
					h0.276c0.092,0,0.182,0.025,0.261,0.073l0.192,0.117c0.235,0.144,0.31,0.452,0.166,0.688C9.8,15.532,9.635,15.617,9.467,15.617z
					"/>
			</g>
			<g>
				<path d="M5.2,13.02c-0.088,0-0.178-0.023-0.259-0.073l-0.854-0.52c-0.149-0.09-0.24-0.252-0.24-0.427s0.091-0.337,0.24-0.427
					l0.854-0.52c0.237-0.145,0.544-0.069,0.687,0.167c0.144,0.235,0.068,0.543-0.167,0.687L5.308,12l0.152,0.093
					c0.236,0.144,0.311,0.451,0.167,0.687C5.533,12.935,5.369,13.02,5.2,13.02z"/>
			</g>
			<g>
				<path d="M7.646,10.491c-0.169,0-0.333-0.085-0.428-0.24C7.075,10.016,7.15,9.708,7.386,9.564L8,9.19V8
					c0-0.276,0.224-0.5,0.5-0.5h1C9.776,7.5,10,7.724,10,8S9.776,8.5,9.5,8.5H9v0.972c0,0.175-0.091,0.337-0.24,0.427l-0.854,0.52
					C7.825,10.468,7.735,10.491,7.646,10.491z"/>
			</g>
			<g>
				<path d="M12.854,8.361c-0.089,0-0.178-0.023-0.26-0.073L12,7.927l-0.594,0.361c-0.235,0.145-0.543,0.07-0.687-0.167
					c-0.144-0.235-0.069-0.543,0.167-0.687l0.854-0.521c0.16-0.098,0.36-0.098,0.521,0l0.854,0.521
					c0.236,0.144,0.311,0.451,0.167,0.687C13.187,8.276,13.022,8.361,12.854,8.361z"/>
			</g>
			<g>
				<path d="M16.354,10.491c-0.088,0-0.178-0.023-0.259-0.073l-0.854-0.52C15.091,9.809,15,9.646,15,9.472V8.5h-0.5
					C14.224,8.5,14,8.276,14,8s0.224-0.5,0.5-0.5h1C15.776,7.5,16,7.724,16,8v1.19l0.614,0.374c0.236,0.144,0.311,0.451,0.167,0.687
					C16.687,10.406,16.522,10.491,16.354,10.491z"/>
			</g>
			<g>
				<path d="M18.8,13.02c-0.169,0-0.333-0.085-0.428-0.24c-0.144-0.235-0.068-0.543,0.167-0.687L18.692,12l-0.152-0.093
					c-0.236-0.144-0.311-0.451-0.167-0.687c0.144-0.237,0.451-0.312,0.687-0.167l0.854,0.52c0.149,0.09,0.24,0.252,0.24,0.427
					s-0.091,0.337-0.24,0.427l-0.854,0.52C18.979,12.996,18.889,13.02,18.8,13.02z"/>
			</g>
			<g>
				<path d="M14.533,15.617c-0.168,0-0.333-0.085-0.427-0.239c-0.144-0.235-0.069-0.544,0.166-0.688l0.192-0.117
					c0.079-0.048,0.169-0.073,0.261-0.073h0.276c0.009-0.164,0.098-0.313,0.239-0.398l0.854-0.52
					c0.236-0.145,0.544-0.069,0.687,0.167c0.144,0.235,0.068,0.543-0.167,0.687L16,14.81V15c0,0.276-0.224,0.5-0.5,0.5l-0.707,0.044
					C14.712,15.594,14.622,15.617,14.533,15.617z M15.5,14.528h0.01H15.5z"/>
			</g>
			<g>
				<path d="M12,17.158c-0.09,0-0.18-0.024-0.26-0.073l-0.854-0.52c-0.236-0.144-0.311-0.451-0.167-0.687
					c0.144-0.236,0.45-0.313,0.687-0.167L12,16.073l0.594-0.361c0.236-0.145,0.544-0.069,0.687,0.167
					c0.144,0.235,0.068,0.543-0.167,0.687l-0.854,0.52C12.18,17.134,12.09,17.158,12,17.158z"/>
			</g>
		</g>
	</g>
</g>
<g id="Dashed_Frame_28">
</g>
<g id="Dashed_Frame_29">
</g>
<g id="Dashed_Frame_30">
</g>
<g id="Dashed_Frame_31">
</g>
<g id="Dashed_Frame_32">
</g>
<g id="Dashed_Frame_33">
</g>
<g id="Dashed_Frame_35">
</g>
</svg>
