<?xml version="1.0" encoding="iso-8859-1"?>
<!-- Generator: Adobe Illustrator 19.2.1, SVG Export Plug-In . SVG Version: 6.00 Build 0)  -->
<svg version="1.1" xmlns="http://www.w3.org/2000/svg" xmlns:xlink="http://www.w3.org/1999/xlink" x="0px" y="0px"
	 viewBox="0 0 24 24" style="enable-background:new 0 0 24 24;" xml:space="preserve">
<g id="Photo_frame">
</g>
<g id="Photo_frame_2">
</g>
<g id="Photo_frame_3">
</g>
<g id="Photo_frame__4">
</g>
<g id="Photo_frame_5">
	<g id="Layer_6">
	</g>
</g>
<g id="Photo_frame_6">
</g>
<g id="Photo_frame_7">
</g>
<g id="Round_Frame_1">
</g>
<g id="Rectangle_Frame_1">
</g>
<g id="Square_Frame_1">
</g>
<g id="Rectangle_Frame_2">
</g>
<g id="Oval_Frame_1">
</g>
<g id="Round_Frame_2">
</g>
<g id="Rectangle_Frame_3">
</g>
<g id="Rectangle_Frame_4">
</g>
<g id="Rectangle_Frame_5">
</g>
<g id="Square_Frame_2">
</g>
<g id="Rectangle_Frame_6">
</g>
<g id="Rectangle_Frame_7">
</g>
<g id="Oval_Frame_2">
</g>
<g id="Round_Frame_3">
</g>
<g id="Rectangle_Frame_8">
</g>
<g id="Square_Frame_3">
</g>
<g id="Rectangle_Frame_9">
</g>
<g id="Rectangle_Frame_10">
</g>
<g id="Square_Frame_4">
</g>
<g id="Rectangle_Frame_11">
</g>
<g id="Rectangle_Frame_12">
</g>
<g id="Square_Frame_5">
</g>
<g id="Rectangle_Frame_13">
</g>
<g id="Frame_1">
</g>
<g id="Frame_2">
</g>
<g id="Round_Frame_4">
</g>
<g id="Frame_3">
</g>
<g id="Frame_4">
</g>
<g id="Frame_5">
</g>
<g id="Frame_6">
</g>
<g id="Frame_7">
</g>
<g id="Frame_8">
</g>
<g id="Frame_9">
</g>
<g id="Frame_10">
</g>
<g id="Frame_11">
</g>
<g id="Frame_12">
</g>
<g id="Frame_13">
</g>
<g id="Frame_14">
</g>
<g id="Frame_15">
</g>
<g id="Frame_16">
</g>
<g id="Frame_17">
</g>
<g id="Frame_18">
</g>
<g id="Frame_19">
</g>
<g id="Frame_20">
</g>
<g id="Frame_21">
</g>
<g id="Frame_22">
</g>
<g id="Frame_23">
</g>
<g id="Frame_24">
</g>
<g id="Frame_25">
</g>
<g id="Frame_26">
</g>
<g id="Frame_27">
</g>
<g id="Frame_28">
</g>
<g id="Frame_29">
</g>
<g id="Frame_30">
</g>
<g id="Frame_Hole_1">
</g>
<g id="Frame_Hole_2">
</g>
<g id="Frame_Hole_3">
</g>
<g id="Frame_Hole_4">
</g>
<g id="Frame_31">
</g>
<g id="Frame_32">
</g>
<g id="Frame_33">
</g>
<g id="Frame_34">
</g>
<g id="Frame_35">
</g>
<g id="Dashed_Frame_1">
</g>
<g id="Dashed_Frame_2">
</g>
<g id="Dashed_Frame_3">
</g>
<g id="Dashed_Frame_4">
</g>
<g id="Dashed_Frame_5">
</g>
<g id="Dashed_Frame_6">
</g>
<g id="Dashed_Frame_7">
</g>
<g id="Dashed_Frame_8">
</g>
<g id="Dashed_Frame_9">
</g>
<g id="Dashed_Frame_10">
</g>
<g id="Dashed_Frame_11">
</g>
<g id="Dashed_Frame_12">
	<g>
		<g>
			<path d="M8.086,23.014c-0.011,0-0.021,0-0.033-0.001c-0.12-0.008-0.426-0.072-0.511-0.156L5.654,21H4.182
				c-1.378,0-2.5-1.121-2.5-2.5v-1.406l-1.532-1.507c-0.164-0.16-0.197-0.412-0.081-0.609c0.395-0.674,0.613-1.554,0.613-2.478
				s-0.218-1.804-0.613-2.478c-0.116-0.197-0.083-0.449,0.081-0.609l1.532-1.507V6.5c0-1.379,1.122-2.5,2.5-2.5h1.473l1.888-1.856
				C7.627,2.06,7.74,2.009,7.86,2.001c0.117-0.01,0.428,0.014,0.523,0.083C9.158,2.657,10.391,3,11.682,3s2.523-0.343,3.298-0.916
				c0.095-0.069,0.21-0.109,0.33-0.097c0.002,0,0.101,0.007,0.103,0.007c0.118,0.009,0.324,0.066,0.409,0.149L17.709,4h1.472
				c1.378,0,2.5,1.121,2.5,2.5v1.406l1.532,1.507c0.164,0.16,0.197,0.412,0.081,0.609c-0.395,0.674-0.613,1.554-0.613,2.478
				s0.218,1.804,0.613,2.478c0.116,0.197,0.083,0.449-0.081,0.609l-1.532,1.507V18.5c0,1.379-1.122,2.5-2.5,2.5h-1.472l-1.888,1.856
				c-0.085,0.084-0.198,0.135-0.318,0.143l-0.194,0.014c-0.12,0.01-0.234-0.026-0.33-0.097C14.205,22.343,12.972,22,11.682,22
				s-2.523,0.343-3.298,0.916C8.297,22.979,8.193,23.014,8.086,23.014z M11.682,21c1.392,0,2.7,0.341,3.645,0.941l1.828-1.798
				C17.248,20.052,17.374,20,17.505,20h1.677c0.827,0,1.5-0.673,1.5-1.5v-1.616c0-0.134,0.054-0.263,0.149-0.356l1.416-1.393
				c-0.366-0.765-0.565-1.685-0.565-2.635s0.199-1.87,0.565-2.635l-1.416-1.393c-0.096-0.094-0.149-0.223-0.149-0.356V6.5
				c0-0.827-0.673-1.5-1.5-1.5h-1.677c-0.131,0-0.257-0.052-0.351-0.144l-1.828-1.798C14.382,3.659,13.074,4,11.682,4
				s-2.7-0.341-3.645-0.941L6.209,4.856C6.116,4.948,5.99,5,5.859,5H4.182c-0.827,0-1.5,0.673-1.5,1.5v1.616
				c0,0.134-0.054,0.263-0.149,0.356L1.116,9.865C1.482,10.63,1.682,11.55,1.682,12.5s-0.199,1.87-0.565,2.635l1.416,1.393
				c0.096,0.094,0.149,0.223,0.149,0.356V18.5c0,0.827,0.673,1.5,1.5,1.5h1.677c0.131,0,0.257,0.052,0.351,0.144l1.828,1.798
				C8.981,21.341,10.29,21,11.682,21z"/>
		</g>
		<g>
			<g>
				<path d="M15.038,20.62c-0.063,0-0.126-0.012-0.187-0.036c-0.42-0.169-0.874-0.304-1.35-0.401
					c-0.271-0.056-0.445-0.32-0.389-0.591c0.055-0.271,0.321-0.443,0.59-0.39c0.42,0.087,0.827,0.2,1.213,0.337l0.841-0.827
					c0.196-0.194,0.514-0.192,0.707,0.006c0.194,0.197,0.191,0.514-0.006,0.707l-1.069,1.052
					C15.293,20.57,15.167,20.62,15.038,20.62z"/>
			</g>
			<g>
				<path d="M10.857,20.035c-0.257,0-0.475-0.196-0.498-0.457c-0.024-0.275,0.18-0.518,0.455-0.541c0.573-0.049,1.166-0.048,1.739,0
					c0.275,0.023,0.479,0.266,0.455,0.541s-0.263,0.473-0.541,0.455c-0.516-0.045-1.05-0.045-1.567,0
					C10.886,20.034,10.871,20.035,10.857,20.035z"/>
			</g>
			<g>
				<path d="M8.325,20.62c-0.129,0-0.255-0.05-0.351-0.144l-1.069-1.052c-0.197-0.193-0.2-0.51-0.006-0.707
					c0.192-0.198,0.51-0.2,0.707-0.006l0.841,0.827c0.386-0.138,0.793-0.25,1.213-0.337c0.269-0.054,0.535,0.119,0.59,0.39
					c0.056,0.271-0.119,0.535-0.389,0.591c-0.475,0.097-0.929,0.232-1.35,0.401C8.451,20.608,8.388,20.62,8.325,20.62z"/>
			</g>
			<g>
				<path d="M5.682,19h-1.5c-0.276,0-0.5-0.224-0.5-0.5v-2.245l-1.169-1.149c-0.131-0.129-0.181-0.32-0.129-0.498
					c0.13-0.442,0.219-0.905,0.264-1.378c0.026-0.274,0.275-0.463,0.544-0.451c0.275,0.026,0.477,0.271,0.451,0.545
					c-0.041,0.434-0.114,0.86-0.22,1.274l1.11,1.091c0.096,0.094,0.149,0.223,0.149,0.356V18h1c0.276,0,0.5,0.224,0.5,0.5
					S5.958,19,5.682,19z"/>
			</g>
			<g>
				<path d="M3.144,12.224c-0.255,0-0.473-0.194-0.497-0.453c-0.045-0.473-0.133-0.936-0.264-1.378
					c-0.052-0.178-0.002-0.369,0.129-0.498l1.169-1.149V6.5c0-0.276,0.224-0.5,0.5-0.5h1.5c0.276,0,0.5,0.224,0.5,0.5
					S5.958,7,5.682,7h-1v1.955c0,0.134-0.054,0.263-0.149,0.356l-1.11,1.091c0.105,0.414,0.179,0.841,0.22,1.274
					c0.026,0.274-0.176,0.519-0.451,0.545C3.176,12.223,3.16,12.224,3.144,12.224z"/>
			</g>
			<g>
				<path d="M7.256,6.432c-0.129,0-0.259-0.05-0.356-0.149C6.706,6.085,6.708,5.769,6.905,5.575l1.069-1.052
					c0.142-0.14,0.353-0.181,0.537-0.107c0.421,0.169,0.875,0.305,1.35,0.401c0.271,0.056,0.445,0.32,0.389,0.591
					c-0.055,0.271-0.321,0.443-0.59,0.39c-0.42-0.087-0.827-0.199-1.213-0.337L7.606,6.288C7.509,6.384,7.382,6.432,7.256,6.432z"/>
			</g>
			<g>
				<path d="M11.682,6c-0.293,0-0.584-0.013-0.871-0.037c-0.275-0.023-0.479-0.266-0.456-0.541c0.023-0.275,0.269-0.481,0.541-0.455
					c0.518,0.045,1.051,0.045,1.567,0c0.273-0.026,0.517,0.18,0.541,0.455s-0.18,0.518-0.455,0.541C12.263,5.987,11.974,6,11.682,6z
					"/>
			</g>
			<g>
				<path d="M16.107,6.432c-0.126,0-0.253-0.048-0.351-0.144l-0.841-0.827c-0.386,0.137-0.792,0.25-1.213,0.337
					c-0.269,0.054-0.535-0.119-0.59-0.39c-0.056-0.271,0.119-0.535,0.389-0.591c0.476-0.098,0.93-0.232,1.35-0.401
					c0.185-0.073,0.396-0.032,0.537,0.107l1.069,1.052c0.197,0.193,0.2,0.51,0.006,0.707C16.366,6.382,16.237,6.432,16.107,6.432z"
					/>
			</g>
			<g>
				<path d="M20.219,12.224c-0.016,0-0.032-0.001-0.048-0.002c-0.275-0.026-0.477-0.271-0.45-0.546
					c0.041-0.433,0.115-0.86,0.22-1.273l-1.11-1.091c-0.096-0.094-0.149-0.223-0.149-0.356V7h-1c-0.276,0-0.5-0.224-0.5-0.5
					s0.224-0.5,0.5-0.5h1.5c0.276,0,0.5,0.224,0.5,0.5v2.245l1.169,1.149c0.131,0.129,0.181,0.32,0.129,0.497
					c-0.13,0.442-0.219,0.907-0.264,1.38C20.692,12.03,20.474,12.224,20.219,12.224z"/>
			</g>
			<g>
				<path d="M19.182,19h-1.5c-0.276,0-0.5-0.224-0.5-0.5s0.224-0.5,0.5-0.5h1v-1.955c0-0.134,0.054-0.263,0.149-0.356l1.11-1.091
					c-0.105-0.413-0.179-0.841-0.22-1.273c-0.026-0.275,0.175-0.52,0.45-0.546c0.282-0.014,0.519,0.176,0.545,0.45
					c0.045,0.473,0.134,0.938,0.264,1.38c0.052,0.177,0.002,0.368-0.129,0.497l-1.169,1.149V18.5C19.682,18.776,19.458,19,19.182,19
					z"/>
			</g>
		</g>
	</g>
</g>
<g id="Dashed_Frame_13">
</g>
<g id="Dashed_Frame_14">
</g>
<g id="Dashed_Frame_15">
</g>
<g id="Dashed_Frame_16">
</g>
<g id="Dashed_Frame_17">
</g>
<g id="Dashed_Frame_18">
</g>
<g id="Dashed_Frame_19">
</g>
<g id="Dashed_Frame_20">
</g>
<g id="Dashed_Frame_25">
</g>
<g id="Dashed_Frame_26">
</g>
<g id="Dashed_Frame_27">
</g>
<g id="Dashed_Frame_28">
</g>
<g id="Dashed_Frame_29">
</g>
<g id="Dashed_Frame_30">
</g>
<g id="Dashed_Frame_31">
</g>
<g id="Dashed_Frame_32">
</g>
<g id="Dashed_Frame_33">
</g>
<g id="Dashed_Frame_35">
</g>
</svg>
