<?xml version="1.0" encoding="iso-8859-1"?>
<!-- Generator: Adobe Illustrator 19.2.1, SVG Export Plug-In . SVG Version: 6.00 Build 0)  -->
<svg version="1.1" xmlns="http://www.w3.org/2000/svg" xmlns:xlink="http://www.w3.org/1999/xlink" x="0px" y="0px"
	 viewBox="0 0 24 24" style="enable-background:new 0 0 24 24;" xml:space="preserve">
<g id="Photo_frame">
</g>
<g id="Photo_frame_2">
</g>
<g id="Photo_frame_3">
</g>
<g id="Photo_frame__4">
</g>
<g id="Photo_frame_5">
	<g id="Layer_6">
	</g>
</g>
<g id="Photo_frame_6">
</g>
<g id="Photo_frame_7">
</g>
<g id="Round_Frame_1">
</g>
<g id="Rectangle_Frame_1">
</g>
<g id="Square_Frame_1">
</g>
<g id="Rectangle_Frame_2">
</g>
<g id="Oval_Frame_1">
</g>
<g id="Round_Frame_2">
</g>
<g id="Rectangle_Frame_3">
</g>
<g id="Rectangle_Frame_4">
</g>
<g id="Rectangle_Frame_5">
</g>
<g id="Square_Frame_2">
</g>
<g id="Rectangle_Frame_6">
</g>
<g id="Rectangle_Frame_7">
</g>
<g id="Oval_Frame_2">
</g>
<g id="Round_Frame_3">
</g>
<g id="Rectangle_Frame_8">
</g>
<g id="Square_Frame_3">
</g>
<g id="Rectangle_Frame_9">
</g>
<g id="Rectangle_Frame_10">
</g>
<g id="Square_Frame_4">
</g>
<g id="Rectangle_Frame_11">
</g>
<g id="Rectangle_Frame_12">
</g>
<g id="Square_Frame_5">
</g>
<g id="Rectangle_Frame_13">
</g>
<g id="Frame_1">
</g>
<g id="Frame_2">
</g>
<g id="Round_Frame_4">
</g>
<g id="Frame_3">
</g>
<g id="Frame_4">
</g>
<g id="Frame_5">
</g>
<g id="Frame_6">
</g>
<g id="Frame_7">
</g>
<g id="Frame_8">
</g>
<g id="Frame_9">
</g>
<g id="Frame_10">
</g>
<g id="Frame_11">
</g>
<g id="Frame_12">
</g>
<g id="Frame_13">
</g>
<g id="Frame_14">
</g>
<g id="Frame_15">
</g>
<g id="Frame_16">
</g>
<g id="Frame_17">
</g>
<g id="Frame_18">
</g>
<g id="Frame_19">
</g>
<g id="Frame_20">
</g>
<g id="Frame_21">
</g>
<g id="Frame_22">
</g>
<g id="Frame_23">
</g>
<g id="Frame_24">
</g>
<g id="Frame_25">
</g>
<g id="Frame_26">
</g>
<g id="Frame_27">
</g>
<g id="Frame_28">
</g>
<g id="Frame_29">
</g>
<g id="Frame_30">
</g>
<g id="Frame_Hole_1">
</g>
<g id="Frame_Hole_2">
</g>
<g id="Frame_Hole_3">
</g>
<g id="Frame_Hole_4">
</g>
<g id="Frame_31">
</g>
<g id="Frame_32">
</g>
<g id="Frame_33">
</g>
<g id="Frame_34">
</g>
<g id="Frame_35">
</g>
<g id="Dashed_Frame_1">
</g>
<g id="Dashed_Frame_2">
</g>
<g id="Dashed_Frame_3">
</g>
<g id="Dashed_Frame_4">
</g>
<g id="Dashed_Frame_5">
</g>
<g id="Dashed_Frame_6">
</g>
<g id="Dashed_Frame_7">
</g>
<g id="Dashed_Frame_8">
</g>
<g id="Dashed_Frame_9">
</g>
<g id="Dashed_Frame_10">
</g>
<g id="Dashed_Frame_11">
</g>
<g id="Dashed_Frame_12">
</g>
<g id="Dashed_Frame_13">
</g>
<g id="Dashed_Frame_14">
</g>
<g id="Dashed_Frame_15">
	<g>
		<g>
			<path d="M12,23.5c-0.116,0-0.232-0.04-0.325-0.12c-2.073-1.776-4.899-2.481-7.566-1.892c-0.184,0.04-0.374-0.024-0.493-0.169
				c0,0-1.115-1.345-1.67-2.061c-0.104-0.133-0.133-0.308-0.079-0.467s0.184-0.28,0.347-0.323C3.313,18.18,4.5,15.624,4.5,12
				S3.313,5.82,2.212,5.531C2.05,5.488,1.919,5.367,1.866,5.208S1.841,4.874,1.945,4.741c0.556-0.716,1.67-2.061,1.67-2.061
				c0.119-0.145,0.309-0.208,0.493-0.169c2.664,0.592,5.493-0.114,7.566-1.892c0.187-0.16,0.464-0.16,0.65,0
				c2.073,1.777,4.901,2.484,7.566,1.892c0.184-0.038,0.374,0.024,0.493,0.169c0,0,1.115,1.345,1.67,2.061
				c0.104,0.133,0.133,0.308,0.079,0.467s-0.184,0.28-0.347,0.323C20.688,5.82,19.5,8.376,19.5,12s1.188,6.18,2.288,6.469
				c0.163,0.043,0.293,0.164,0.347,0.323s0.024,0.335-0.079,0.467c-0.556,0.716-1.67,2.061-1.67,2.061
				c-0.12,0.144-0.311,0.209-0.494,0.169c-2.665-0.592-5.493,0.115-7.566,1.892C12.232,23.46,12.116,23.5,12,23.5z M5.982,20.283
				c2.163,0,4.297,0.722,6.018,2.07c2.195-1.721,5.064-2.421,7.806-1.903c0.248-0.302,0.694-0.845,1.076-1.32
				C19.469,18.158,18.5,15.353,18.5,12s0.969-6.158,2.382-7.13c-0.381-0.476-0.828-1.02-1.076-1.32
				C17.063,4.068,14.195,3.367,12,1.646C9.805,3.367,6.939,4.069,4.194,3.55C3.946,3.851,3.5,4.395,3.118,4.87
				C4.531,5.842,5.5,8.647,5.5,12s-0.969,6.158-2.382,7.13c0.381,0.476,0.828,1.02,1.076,1.32
				C4.787,20.338,5.386,20.283,5.982,20.283z"/>
		</g>
		<g>
			<g>
				<path d="M12,21.02c-0.093,0-0.186-0.025-0.268-0.077c-0.269-0.171-0.546-0.329-0.828-0.474
					c-0.246-0.126-0.343-0.427-0.218-0.673c0.126-0.246,0.428-0.342,0.673-0.218c0.217,0.111,0.431,0.229,0.641,0.354
					c0.21-0.125,0.424-0.243,0.641-0.354c0.245-0.126,0.546-0.028,0.673,0.218c0.125,0.246,0.028,0.547-0.218,0.673
					c-0.282,0.145-0.559,0.303-0.828,0.474C12.186,20.994,12.093,21.02,12,21.02z"/>
			</g>
			<g>
				<path d="M9.622,19.881c-0.054,0-0.108-0.009-0.162-0.027c-0.494-0.168-1.004-0.302-1.514-0.395
					c-0.272-0.05-0.452-0.311-0.402-0.582s0.31-0.445,0.582-0.402c0.559,0.103,1.117,0.248,1.658,0.434
					c0.261,0.089,0.401,0.373,0.312,0.635C10.024,19.75,9.83,19.881,9.622,19.881z"/>
			</g>
			<g>
				<path d="M5.404,19.296c-0.176,0-0.339-0.092-0.43-0.244c-0.095-0.159-0.094-0.358,0.003-0.518
					c0.159-0.259,0.305-0.535,0.438-0.828c0.115-0.251,0.411-0.364,0.662-0.249c0.251,0.113,0.363,0.41,0.249,0.661
					c-0.025,0.056-0.051,0.11-0.077,0.165c0.059,0.001,0.117,0.003,0.176,0.005c0.276,0.01,0.492,0.242,0.481,0.518
					c-0.01,0.276-0.251,0.473-0.518,0.482c-0.32-0.011-0.639-0.01-0.959,0.007C5.422,19.296,5.413,19.296,5.404,19.296z"/>
			</g>
			<g>
				<path d="M6.452,16.785c-0.044,0-0.089-0.006-0.133-0.018c-0.266-0.074-0.422-0.349-0.349-0.615
					c0.142-0.515,0.257-1.063,0.343-1.633c0.042-0.273,0.295-0.465,0.569-0.42c0.273,0.041,0.461,0.296,0.42,0.568
					c-0.092,0.609-0.216,1.197-0.368,1.75C6.873,16.64,6.671,16.785,6.452,16.785z M6.979,13.371c-0.008,0-0.017,0-0.025-0.001
					c-0.276-0.013-0.488-0.247-0.475-0.523C6.493,12.563,6.5,12.281,6.5,12c0-0.276-0.007-0.556-0.02-0.834
					c-0.013-0.275,0.2-0.51,0.476-0.522c0.267-0.042,0.51,0.198,0.523,0.476C7.493,11.413,7.5,11.708,7.5,12
					c0,0.297-0.007,0.597-0.022,0.896C7.465,13.163,7.244,13.371,6.979,13.371z M6.809,9.919c-0.243,0-0.457-0.178-0.494-0.426
					c-0.085-0.569-0.201-1.12-0.342-1.637C5.899,7.59,6.056,7.315,6.323,7.242c0.265-0.068,0.542,0.084,0.614,0.351
					c0.151,0.554,0.275,1.144,0.367,1.752c0.041,0.272-0.147,0.527-0.42,0.568C6.858,9.917,6.833,9.919,6.809,9.919z"/>
			</g>
			<g>
				<path d="M5.871,6.588c-0.19,0-0.372-0.109-0.456-0.294C5.282,6.001,5.136,5.725,4.978,5.466C4.88,5.307,4.879,5.107,4.974,4.948
					c0.095-0.16,0.269-0.271,0.457-0.243c0.32,0.018,0.64,0.021,0.959,0.007c0.271,0.011,0.507,0.206,0.518,0.482
					c0.01,0.275-0.206,0.508-0.481,0.518C6.367,5.714,6.308,5.716,6.25,5.717c0.026,0.055,0.051,0.109,0.077,0.165
					C6.44,6.133,6.329,6.43,6.077,6.543C6.01,6.573,5.94,6.588,5.871,6.588z"/>
			</g>
			<g>
				<path d="M8.038,5.533c-0.236,0-0.447-0.168-0.491-0.409c-0.05-0.271,0.129-0.532,0.401-0.582C8.46,4.446,8.97,4.313,9.462,4.146
					c0.259-0.09,0.545,0.05,0.635,0.311c0.089,0.262-0.05,0.546-0.312,0.635C9.248,5.275,8.69,5.421,8.129,5.524
					C8.099,5.53,8.068,5.533,8.038,5.533z"/>
			</g>
			<g>
				<path d="M11.132,4.477c-0.182,0-0.357-0.1-0.446-0.272c-0.125-0.246-0.028-0.547,0.218-0.673
					c0.282-0.145,0.559-0.303,0.828-0.474c0.163-0.104,0.372-0.104,0.535,0c0.27,0.171,0.546,0.329,0.829,0.475
					c0.246,0.126,0.342,0.428,0.216,0.673c-0.126,0.246-0.426,0.345-0.673,0.216C12.423,4.31,12.209,4.192,12,4.067
					c-0.21,0.125-0.424,0.243-0.641,0.354C11.287,4.459,11.209,4.477,11.132,4.477z"/>
			</g>
			<g>
				<path d="M15.964,5.533c-0.03,0-0.061-0.003-0.091-0.009c-0.561-0.104-1.118-0.249-1.656-0.434
					c-0.261-0.089-0.401-0.373-0.312-0.635c0.089-0.261,0.373-0.4,0.635-0.311c0.492,0.168,1.002,0.301,1.515,0.396
					c0.271,0.05,0.451,0.311,0.401,0.582C16.411,5.365,16.2,5.533,15.964,5.533z"/>
			</g>
			<g>
				<path d="M18.129,6.588c-0.069,0-0.139-0.015-0.206-0.045c-0.251-0.113-0.363-0.41-0.249-0.661
					c0.025-0.056,0.051-0.11,0.077-0.165c-0.059-0.001-0.118-0.003-0.176-0.005c-0.276-0.01-0.492-0.242-0.481-0.518
					c0.01-0.277,0.247-0.476,0.518-0.482c0.319,0.012,0.638,0.009,0.959-0.007c0.188-0.021,0.361,0.083,0.457,0.243
					c0.095,0.159,0.094,0.358-0.003,0.518c-0.159,0.259-0.305,0.535-0.438,0.828C18.501,6.479,18.319,6.588,18.129,6.588z"/>
			</g>
			<g>
				<path d="M17.545,16.775c-0.22,0-0.421-0.146-0.482-0.368c-0.151-0.554-0.275-1.144-0.367-1.752
					c-0.041-0.272,0.147-0.527,0.42-0.568c0.276-0.041,0.528,0.147,0.569,0.42c0.085,0.569,0.201,1.12,0.342,1.637
					c0.073,0.267-0.084,0.541-0.351,0.614C17.633,16.77,17.589,16.775,17.545,16.775z M17.02,13.357
					c-0.265,0-0.486-0.208-0.499-0.477C16.507,12.587,16.5,12.292,16.5,12c0-0.297,0.007-0.597,0.022-0.896
					c0.013-0.276,0.244-0.509,0.524-0.475c0.276,0.013,0.488,0.247,0.475,0.523C17.507,11.437,17.5,11.719,17.5,12
					c0,0.276,0.007,0.556,0.02,0.834c0.013,0.275-0.2,0.51-0.476,0.522C17.036,13.357,17.028,13.357,17.02,13.357z M17.193,9.906
					c-0.025,0-0.05-0.002-0.075-0.006c-0.273-0.041-0.461-0.296-0.42-0.568c0.092-0.609,0.216-1.197,0.368-1.75
					c0.073-0.267,0.349-0.421,0.615-0.35c0.266,0.074,0.422,0.349,0.349,0.615c-0.142,0.515-0.257,1.063-0.343,1.633
					C17.65,9.729,17.437,9.906,17.193,9.906z"/>
			</g>
			<g>
				<path d="M18.596,19.296c-0.009,0-0.018,0-0.027-0.001c-0.32-0.017-0.641-0.019-0.959-0.007
					c-0.267-0.005-0.507-0.205-0.518-0.482c-0.01-0.275,0.206-0.507,0.481-0.518c0.059-0.002,0.118-0.004,0.176-0.005
					c-0.026-0.055-0.051-0.109-0.077-0.165c-0.114-0.251-0.002-0.548,0.249-0.661c0.251-0.115,0.548-0.002,0.662,0.249
					c0.133,0.293,0.279,0.569,0.438,0.828c0.097,0.159,0.098,0.358,0.003,0.518C18.935,19.204,18.771,19.296,18.596,19.296z"/>
			</g>
			<g>
				<path d="M14.376,19.882c-0.208,0-0.402-0.131-0.473-0.338c-0.089-0.262,0.05-0.546,0.312-0.635
					c0.538-0.185,1.095-0.33,1.656-0.434c0.27-0.052,0.532,0.128,0.583,0.4c0.05,0.271-0.129,0.532-0.401,0.582
					c-0.513,0.096-1.022,0.229-1.515,0.396C14.484,19.873,14.43,19.882,14.376,19.882z"/>
			</g>
		</g>
	</g>
</g>
<g id="Dashed_Frame_16">
</g>
<g id="Dashed_Frame_17">
</g>
<g id="Dashed_Frame_18">
</g>
<g id="Dashed_Frame_19">
</g>
<g id="Dashed_Frame_20">
</g>
<g id="Dashed_Frame_25">
</g>
<g id="Dashed_Frame_26">
</g>
<g id="Dashed_Frame_27">
</g>
<g id="Dashed_Frame_28">
</g>
<g id="Dashed_Frame_29">
</g>
<g id="Dashed_Frame_30">
</g>
<g id="Dashed_Frame_31">
</g>
<g id="Dashed_Frame_32">
</g>
<g id="Dashed_Frame_33">
</g>
<g id="Dashed_Frame_35">
</g>
</svg>
