<?xml version="1.0" encoding="iso-8859-1"?>
<!-- Generator: Adobe Illustrator 19.2.1, SVG Export Plug-In . SVG Version: 6.00 Build 0)  -->
<svg version="1.1" xmlns="http://www.w3.org/2000/svg" xmlns:xlink="http://www.w3.org/1999/xlink" x="0px" y="0px"
	 viewBox="0 0 24 24" style="enable-background:new 0 0 24 24;" xml:space="preserve">
<g id="Photo_frame">
</g>
<g id="Photo_frame_2">
</g>
<g id="Photo_frame_3">
</g>
<g id="Photo_frame__4">
</g>
<g id="Photo_frame_5">
	<g id="Layer_6">
	</g>
</g>
<g id="Photo_frame_6">
</g>
<g id="Photo_frame_7">
</g>
<g id="Round_Frame_1">
</g>
<g id="Rectangle_Frame_1">
</g>
<g id="Square_Frame_1">
</g>
<g id="Rectangle_Frame_2">
</g>
<g id="Oval_Frame_1">
</g>
<g id="Round_Frame_2">
</g>
<g id="Rectangle_Frame_3">
</g>
<g id="Rectangle_Frame_4">
</g>
<g id="Rectangle_Frame_5">
</g>
<g id="Square_Frame_2">
</g>
<g id="Rectangle_Frame_6">
</g>
<g id="Rectangle_Frame_7">
</g>
<g id="Oval_Frame_2">
</g>
<g id="Round_Frame_3">
</g>
<g id="Rectangle_Frame_8">
</g>
<g id="Square_Frame_3">
</g>
<g id="Rectangle_Frame_9">
</g>
<g id="Rectangle_Frame_10">
</g>
<g id="Square_Frame_4">
</g>
<g id="Rectangle_Frame_11">
</g>
<g id="Rectangle_Frame_12">
</g>
<g id="Square_Frame_5">
</g>
<g id="Rectangle_Frame_13">
</g>
<g id="Frame_1">
</g>
<g id="Frame_2">
</g>
<g id="Round_Frame_4">
</g>
<g id="Frame_3">
</g>
<g id="Frame_4">
</g>
<g id="Frame_5">
</g>
<g id="Frame_6">
</g>
<g id="Frame_7">
</g>
<g id="Frame_8">
</g>
<g id="Frame_9">
</g>
<g id="Frame_10">
</g>
<g id="Frame_11">
</g>
<g id="Frame_12">
</g>
<g id="Frame_13">
</g>
<g id="Frame_14">
</g>
<g id="Frame_15">
</g>
<g id="Frame_16">
</g>
<g id="Frame_17">
</g>
<g id="Frame_18">
</g>
<g id="Frame_19">
</g>
<g id="Frame_20">
</g>
<g id="Frame_21">
</g>
<g id="Frame_22">
</g>
<g id="Frame_23">
</g>
<g id="Frame_24">
</g>
<g id="Frame_25">
</g>
<g id="Frame_26">
</g>
<g id="Frame_27">
</g>
<g id="Frame_28">
</g>
<g id="Frame_29">
</g>
<g id="Frame_30">
</g>
<g id="Frame_Hole_1">
</g>
<g id="Frame_Hole_2">
</g>
<g id="Frame_Hole_3">
</g>
<g id="Frame_Hole_4">
</g>
<g id="Frame_31">
</g>
<g id="Frame_32">
</g>
<g id="Frame_33">
</g>
<g id="Frame_34">
</g>
<g id="Frame_35">
</g>
<g id="Dashed_Frame_1">
</g>
<g id="Dashed_Frame_2">
</g>
<g id="Dashed_Frame_3">
</g>
<g id="Dashed_Frame_4">
</g>
<g id="Dashed_Frame_5">
</g>
<g id="Dashed_Frame_6">
</g>
<g id="Dashed_Frame_7">
</g>
<g id="Dashed_Frame_8">
</g>
<g id="Dashed_Frame_9">
</g>
<g id="Dashed_Frame_10">
</g>
<g id="Dashed_Frame_11">
</g>
<g id="Dashed_Frame_12">
</g>
<g id="Dashed_Frame_13">
</g>
<g id="Dashed_Frame_14">
</g>
<g id="Dashed_Frame_15">
</g>
<g id="Dashed_Frame_16">
</g>
<g id="Dashed_Frame_17">
</g>
<g id="Dashed_Frame_18">
</g>
<g id="Dashed_Frame_19">
</g>
<g id="Dashed_Frame_20">
</g>
<g id="Dashed_Frame_25">
</g>
<g id="Dashed_Frame_26">
</g>
<g id="Dashed_Frame_27">
</g>
<g id="Dashed_Frame_28">
</g>
<g id="Dashed_Frame_29">
</g>
<g id="Dashed_Frame_30">
	<g>
		<g>
			<path d="M11.522,24c-0.145,0-0.294-0.063-0.389-0.172c-0.094-0.108-0.147-0.25-0.13-0.392C10.699,22.093,8.506,22.001,8.482,22
				H4.5C3.121,22,2,20.879,2,19.5v-14C2,3.57,3.57,2,5.5,2H9c0.052-0.003,1.815-0.106,2.004-1.564
				C11.036,0.188,11.247,0.002,11.497,0c0.253,0,0.463,0.182,0.498,0.43C12.22,2.001,14.37,1.996,14.494,2H17.5
				C19.43,2,21,3.57,21,5.5v14c0,1.379-1.121,2.5-2.5,2.5h-4c-0.112-0.008-2.158-0.007-2.481,1.439
				c0.018,0.142-0.026,0.283-0.12,0.391C11.803,23.938,11.666,24,11.522,24z M11.516,1.776C10.854,2.662,9.699,2.971,9.021,3H5.5
				C4.121,3,3,4.121,3,5.5v14C3,20.327,3.673,21,4.5,21h4c0.116,0.004,2.041,0.087,3.003,1.239c0.766-0.977,2.161-1.224,3.005-1.239
				H18.5c0.827,0,1.5-0.673,1.5-1.5v-14C20,4.121,18.879,3,17.5,3h-3C13.708,3.014,12.283,2.741,11.516,1.776z"/>
		</g>
		<g>
			<g>
				<path d="M11.467,20.805c-0.086,0-0.171-0.021-0.248-0.065c-0.253-0.146-0.533-0.273-0.833-0.381
					c-0.26-0.094-0.395-0.381-0.301-0.641c0.095-0.26,0.379-0.39,0.641-0.301c0.257,0.093,0.503,0.199,0.734,0.316
					c0.231-0.124,0.477-0.234,0.732-0.329c0.261-0.098,0.547,0.037,0.643,0.295c0.096,0.259-0.036,0.547-0.295,0.643
					c-0.291,0.108-0.565,0.239-0.813,0.391C11.646,20.78,11.557,20.805,11.467,20.805z"/>
			</g>
			<g>
				<path d="M8.898,20.021c-0.015,0-0.029-0.001-0.044-0.002c-0.105-0.009-0.207-0.016-0.304-0.019L7.197,20
					c-0.276,0-0.5-0.225-0.5-0.5c0-0.276,0.224-0.5,0.5-0.5l0,0l1.372,0.001c0.131,0.005,0.248,0.012,0.371,0.022
					c0.274,0.023,0.479,0.266,0.455,0.541C9.373,19.825,9.155,20.021,8.898,20.021z"/>
			</g>
			<g>
				<path d="M5.5,20h-1C4.224,20,4,19.776,4,19.5v-1C4,18.224,4.224,18,4.5,18S5,18.224,5,18.5V19h0.5C5.776,19,6,19.224,6,19.5
					S5.776,20,5.5,20z"/>
			</g>
			<g>
				<path d="M4.5,16.807c-0.276,0-0.5-0.224-0.5-0.5v-2.193c0-0.276,0.224-0.5,0.5-0.5s0.5,0.224,0.5,0.5v2.193
					C5,16.583,4.776,16.807,4.5,16.807z M4.5,12.421c-0.276,0-0.5-0.224-0.5-0.5V9.728c0-0.276,0.224-0.5,0.5-0.5S5,9.451,5,9.728
					v2.193C5,12.197,4.776,12.421,4.5,12.421z M4.5,8.035c-0.276,0-0.5-0.224-0.5-0.5V5.5c0-0.083,0.007-0.164,0.02-0.242
					c0.048-0.272,0.309-0.462,0.578-0.407C4.87,4.897,5.053,5.156,5.005,5.428L5,7.535C5,7.812,4.776,8.035,4.5,8.035z M8.473,5
					H6.28c-0.276,0-0.5-0.224-0.5-0.5S6.004,4,6.28,4h2.192c0.276,0,0.5,0.224,0.5,0.5S8.749,5,8.473,5z"/>
			</g>
			<g>
				<path d="M10.634,4.676c-0.204,0-0.396-0.126-0.47-0.328c-0.095-0.26,0.039-0.547,0.298-0.642
					c0.288-0.105,0.562-0.236,0.812-0.391c0.156-0.096,0.354-0.099,0.515-0.005c0.249,0.146,0.523,0.272,0.817,0.376
					c0.261,0.092,0.397,0.378,0.306,0.638c-0.092,0.262-0.381,0.399-0.638,0.306c-0.256-0.091-0.502-0.195-0.732-0.314
					c-0.234,0.126-0.48,0.236-0.735,0.33C10.749,4.666,10.69,4.676,10.634,4.676z"/>
			</g>
			<g>
				<path d="M18.5,16.807c-0.276,0-0.5-0.224-0.5-0.5v-2.185c0-0.276,0.224-0.5,0.5-0.5s0.5,0.224,0.5,0.5v2.185
					C19,16.583,18.776,16.807,18.5,16.807z M18.5,12.438c-0.276,0-0.5-0.224-0.5-0.5V9.754c0-0.276,0.224-0.5,0.5-0.5
					s0.5,0.224,0.5,0.5v2.185C19,12.215,18.776,12.438,18.5,12.438z M18.5,8.069c-0.276,0-0.5-0.224-0.5-0.5V5.5
					c-0.029-0.274,0.168-0.552,0.442-0.58c0.269-0.042,0.52,0.138,0.548,0.413c0.006,0.051,0.008,0.102,0.01,0.154v2.082
					C19,7.846,18.776,8.069,18.5,8.069z M16.772,5h-2.185c-0.276,0-0.5-0.224-0.5-0.5s0.224-0.5,0.5-0.5h2.185
					c0.276,0,0.5,0.224,0.5,0.5S17.049,5,16.772,5z"/>
			</g>
			<g>
				<path d="M18.5,20h-1c-0.276,0-0.5-0.224-0.5-0.5s0.224-0.5,0.5-0.5H18v-0.5c0-0.276,0.224-0.5,0.5-0.5s0.5,0.224,0.5,0.5v1
					C19,19.776,18.776,20,18.5,20z"/>
			</g>
			<g>
				<path d="M14.051,20.016c-0.26,0-0.479-0.201-0.498-0.465c-0.02-0.275,0.188-0.515,0.464-0.534C14.179,19.005,14.34,19,14.5,19
					h1.275c0.276,0,0.5,0.224,0.5,0.5s-0.224,0.5-0.5,0.5H14.5c-0.137,0-0.274,0.005-0.413,0.015
					C14.075,20.016,14.063,20.016,14.051,20.016z"/>
			</g>
		</g>
	</g>
</g>
<g id="Dashed_Frame_31">
</g>
<g id="Dashed_Frame_32">
</g>
<g id="Dashed_Frame_33">
</g>
<g id="Dashed_Frame_35">
</g>
</svg>
