<?xml version="1.0" encoding="iso-8859-1"?>
<!-- Generator: Adobe Illustrator 19.2.1, SVG Export Plug-In . SVG Version: 6.00 Build 0)  -->
<svg version="1.1" xmlns="http://www.w3.org/2000/svg" xmlns:xlink="http://www.w3.org/1999/xlink" x="0px" y="0px"
	 viewBox="0 0 24 24" style="enable-background:new 0 0 24 24;" xml:space="preserve">
<g id="Photo_frame">
</g>
<g id="Photo_frame_2">
</g>
<g id="Photo_frame_3">
</g>
<g id="Photo_frame__4">
</g>
<g id="Photo_frame_5">
	<g id="Layer_6">
	</g>
</g>
<g id="Photo_frame_6">
</g>
<g id="Photo_frame_7">
</g>
<g id="Round_Frame_1">
</g>
<g id="Rectangle_Frame_1">
</g>
<g id="Square_Frame_1">
</g>
<g id="Rectangle_Frame_2">
</g>
<g id="Oval_Frame_1">
</g>
<g id="Round_Frame_2">
</g>
<g id="Rectangle_Frame_3">
</g>
<g id="Rectangle_Frame_4">
</g>
<g id="Rectangle_Frame_5">
</g>
<g id="Square_Frame_2">
</g>
<g id="Rectangle_Frame_6">
</g>
<g id="Rectangle_Frame_7">
</g>
<g id="Oval_Frame_2">
</g>
<g id="Round_Frame_3">
</g>
<g id="Rectangle_Frame_8">
</g>
<g id="Square_Frame_3">
</g>
<g id="Rectangle_Frame_9">
</g>
<g id="Rectangle_Frame_10">
</g>
<g id="Square_Frame_4">
</g>
<g id="Rectangle_Frame_11">
</g>
<g id="Rectangle_Frame_12">
</g>
<g id="Square_Frame_5">
</g>
<g id="Rectangle_Frame_13">
</g>
<g id="Frame_1">
</g>
<g id="Frame_2">
</g>
<g id="Round_Frame_4">
</g>
<g id="Frame_3">
</g>
<g id="Frame_4">
</g>
<g id="Frame_5">
</g>
<g id="Frame_6">
</g>
<g id="Frame_7">
</g>
<g id="Frame_8">
</g>
<g id="Frame_9">
</g>
<g id="Frame_10">
</g>
<g id="Frame_11">
</g>
<g id="Frame_12">
</g>
<g id="Frame_13">
</g>
<g id="Frame_14">
</g>
<g id="Frame_15">
</g>
<g id="Frame_16">
</g>
<g id="Frame_17">
</g>
<g id="Frame_18">
</g>
<g id="Frame_19">
</g>
<g id="Frame_20">
</g>
<g id="Frame_21">
</g>
<g id="Frame_22">
</g>
<g id="Frame_23">
</g>
<g id="Frame_24">
</g>
<g id="Frame_25">
</g>
<g id="Frame_26">
</g>
<g id="Frame_27">
</g>
<g id="Frame_28">
</g>
<g id="Frame_29">
</g>
<g id="Frame_30">
</g>
<g id="Frame_Hole_1">
</g>
<g id="Frame_Hole_2">
</g>
<g id="Frame_Hole_3">
</g>
<g id="Frame_Hole_4">
</g>
<g id="Frame_31">
</g>
<g id="Frame_32">
</g>
<g id="Frame_33">
</g>
<g id="Frame_34">
</g>
<g id="Frame_35">
</g>
<g id="Dashed_Frame_1">
</g>
<g id="Dashed_Frame_2">
</g>
<g id="Dashed_Frame_3">
</g>
<g id="Dashed_Frame_4">
</g>
<g id="Dashed_Frame_5">
</g>
<g id="Dashed_Frame_6">
</g>
<g id="Dashed_Frame_7">
</g>
<g id="Dashed_Frame_8">
</g>
<g id="Dashed_Frame_9">
</g>
<g id="Dashed_Frame_10">
</g>
<g id="Dashed_Frame_11">
</g>
<g id="Dashed_Frame_12">
</g>
<g id="Dashed_Frame_13">
</g>
<g id="Dashed_Frame_14">
</g>
<g id="Dashed_Frame_15">
</g>
<g id="Dashed_Frame_16">
	<g>
		<g>
			<path d="M21.5,20.324c-0.018,0-0.035-0.001-0.053-0.003L12,19.313l-9.447,1.009c-0.139,0.015-0.281-0.03-0.387-0.125
				S2,19.966,2,19.824V18H0.463c-0.144,0-0.281-0.063-0.376-0.17c-0.095-0.108-0.139-0.253-0.12-0.396L0.686,12l-0.719-5.435
				c-0.019-0.143,0.025-0.287,0.12-0.396C0.182,6.063,0.319,6,0.463,6H2V4.176c0-0.142,0.061-0.277,0.166-0.372
				s0.248-0.14,0.387-0.125L12,4.688l9.447-1.009c0.139-0.015,0.281,0.03,0.387,0.125S22,4.034,22,4.176V6h1.537
				c0.144,0,0.281,0.063,0.376,0.17c0.095,0.108,0.139,0.253,0.12,0.396l-0.72,5.451l0.718,5.418
				c0.019,0.143-0.025,0.287-0.12,0.395C23.816,17.938,23.68,18,23.535,18H22v1.824c0,0.142-0.061,0.277-0.166,0.372
				C21.742,20.279,21.623,20.324,21.5,20.324z M12,18.31c0.018,0,0.035,0.001,0.053,0.003L21,19.268V17.5c0-0.276,0.224-0.5,0.5-0.5
				h1.465l-0.651-4.918c-0.005-0.043-0.005-0.087,0-0.131L22.967,7H21.5C21.224,7,21,6.776,21,6.5V4.732l-8.947,0.955
				c-0.035,0.004-0.07,0.004-0.105,0L3,4.732V6.5C3,6.776,2.776,7,2.5,7H1.033l0.652,4.935c0.005,0.043,0.005,0.088,0,0.131
				L1.033,17H2.5C2.776,17,3,17.224,3,17.5v1.768l8.947-0.955C11.965,18.311,11.982,18.31,12,18.31z"/>
		</g>
		<g>
			<g>
				<path d="M4.5,18.1c-0.123,0-0.242-0.045-0.334-0.128C4.061,17.877,4,17.741,4,17.6v-1c0-0.276,0.224-0.5,0.5-0.5
					S5,16.323,5,16.6v0.443l0.44-0.047c0.269-0.029,0.521,0.169,0.551,0.443c0.029,0.275-0.169,0.521-0.443,0.551l-0.994,0.106
					C4.535,18.099,4.518,18.1,4.5,18.1z"/>
			</g>
			<g>
				<path d="M4.5,17C4.224,17,4,16.776,4,16.5V16H2.745c-0.144,0-0.281-0.063-0.376-0.17c-0.095-0.108-0.139-0.253-0.12-0.396
					l0.131-0.991c0.036-0.275,0.289-0.466,0.562-0.431c0.273,0.036,0.467,0.288,0.431,0.562L3.315,15H4.5C4.776,15,5,15.224,5,15.5
					v1C5,16.776,4.776,17,4.5,17z"/>
			</g>
			<g>
				<path d="M3.098,13.336c-0.022,0-0.044-0.001-0.066-0.004c-0.273-0.036-0.467-0.288-0.431-0.562L2.703,12l-0.103-0.771
					c-0.036-0.273,0.157-0.525,0.431-0.562c0.27-0.036,0.525,0.155,0.562,0.431l0.11,0.837c0.005,0.044,0.005,0.088,0,0.131
					l-0.11,0.836C3.56,13.153,3.345,13.336,3.098,13.336z"/>
			</g>
			<g>
				<path d="M2.875,9.991c-0.247,0-0.462-0.183-0.495-0.435L2.249,8.565C2.23,8.423,2.274,8.278,2.369,8.17
					C2.464,8.063,2.602,8,2.745,8H4V7.5C4,7.224,4.224,7,4.5,7S5,7.224,5,7.5v1C5,8.776,4.776,9,4.5,9H3.315l0.057,0.426
					c0.036,0.273-0.157,0.525-0.431,0.562C2.919,9.99,2.897,9.991,2.875,9.991z"/>
			</g>
			<g>
				<path d="M4.5,7.9C4.224,7.9,4,7.677,4,7.4v-1c0-0.142,0.061-0.277,0.166-0.372s0.24-0.142,0.388-0.125L5.548,6.01
					c0.274,0.029,0.473,0.275,0.443,0.551S5.708,7.035,5.44,7.004L5,6.957V7.4C5,7.677,4.776,7.9,4.5,7.9z"/>
			</g>
			<g>
				<path d="M12,7.702c-0.018,0-0.035-0.001-0.054-0.003l-0.93-0.1c-0.274-0.029-0.473-0.275-0.443-0.551
					c0.029-0.274,0.282-0.47,0.551-0.443L12,6.699l0.875-0.094c0.273-0.025,0.521,0.169,0.551,0.443
					c0.029,0.275-0.169,0.521-0.443,0.551l-0.929,0.1C12.035,7.701,12.018,7.702,12,7.702z M9.212,7.404
					c-0.019,0-0.036-0.001-0.055-0.003L7.299,7.202C7.024,7.173,6.826,6.927,6.855,6.651c0.029-0.274,0.283-0.471,0.551-0.443
					l1.858,0.199c0.274,0.029,0.473,0.275,0.443,0.551C9.681,7.214,9.464,7.404,9.212,7.404z M14.786,7.404
					c-0.252,0-0.469-0.19-0.496-0.447c-0.029-0.274,0.17-0.521,0.444-0.55l1.859-0.198c0.271-0.031,0.521,0.169,0.55,0.444
					c0.029,0.274-0.17,0.521-0.444,0.55L14.84,7.401C14.822,7.403,14.804,7.404,14.786,7.404z"/>
			</g>
			<g>
				<path d="M19.5,7.9c-0.276,0-0.5-0.224-0.5-0.5V6.957l-0.442,0.047c-0.256,0.032-0.521-0.168-0.55-0.444
					c-0.029-0.274,0.169-0.521,0.444-0.55l0.995-0.106c0.139-0.017,0.281,0.03,0.387,0.125S20,6.259,20,6.4v1
					C20,7.677,19.776,7.9,19.5,7.9z"/>
			</g>
			<g>
				<path d="M21.126,9.991c-0.022,0-0.044-0.001-0.066-0.004c-0.273-0.036-0.467-0.288-0.431-0.562L20.686,9H19.5
					C19.224,9,19,8.776,19,8.5v-1C19,7.224,19.224,7,19.5,7S20,7.224,20,7.5V8h1.256c0.144,0,0.281,0.063,0.376,0.17
					c0.095,0.108,0.139,0.253,0.12,0.396l-0.131,0.991C21.588,9.809,21.373,9.991,21.126,9.991z"/>
			</g>
			<g>
				<path d="M20.899,13.337c-0.247,0-0.462-0.183-0.495-0.435l-0.108-0.819c-0.005-0.043-0.005-0.087,0-0.131l0.112-0.854
					c0.036-0.274,0.29-0.467,0.562-0.431c0.273,0.036,0.467,0.287,0.431,0.562l-0.104,0.788l0.101,0.754
					c0.036,0.273-0.157,0.524-0.431,0.562C20.943,13.336,20.922,13.337,20.899,13.337z"/>
			</g>
			<g>
				<path d="M19.5,17c-0.276,0-0.5-0.224-0.5-0.5v-1c0-0.276,0.224-0.5,0.5-0.5h1.183l-0.057-0.426
					c-0.036-0.273,0.157-0.525,0.431-0.562c0.268-0.036,0.525,0.155,0.562,0.431l0.131,0.991c0.019,0.143-0.025,0.287-0.12,0.396
					C21.534,15.938,21.396,16,21.253,16H20v0.5C20,16.776,19.776,17,19.5,17z"/>
			</g>
			<g>
				<path d="M19.5,18.1c-0.018,0-0.035-0.001-0.053-0.003l-0.995-0.106c-0.275-0.029-0.474-0.275-0.444-0.55
					c0.029-0.275,0.293-0.475,0.55-0.444L19,17.043V16.6c0-0.276,0.224-0.5,0.5-0.5s0.5,0.224,0.5,0.5v1
					c0,0.142-0.061,0.277-0.166,0.372C19.742,18.055,19.623,18.1,19.5,18.1z"/>
			</g>
			<g>
				<path d="M16.647,17.795c-0.019,0-0.036-0.001-0.055-0.003l-1.858-0.199c-0.274-0.029-0.473-0.275-0.443-0.551
					c0.029-0.274,0.28-0.468,0.551-0.443l1.858,0.199c0.274,0.029,0.473,0.275,0.443,0.551
					C17.116,17.604,16.899,17.795,16.647,17.795z M7.352,17.794c-0.252,0-0.469-0.19-0.496-0.447
					c-0.029-0.274,0.17-0.521,0.444-0.55l1.859-0.198c0.271-0.029,0.521,0.17,0.55,0.444s-0.17,0.521-0.444,0.55l-1.859,0.198
					C7.388,17.793,7.369,17.794,7.352,17.794z M11.069,17.397c-0.252,0-0.469-0.19-0.496-0.446
					c-0.029-0.275,0.169-0.521,0.443-0.551l0.93-0.1c0.037-0.004,0.07-0.004,0.107,0l0.929,0.1c0.274,0.029,0.473,0.275,0.443,0.551
					c-0.029,0.274-0.278,0.47-0.551,0.443L12,17.301l-0.876,0.094C11.105,17.396,11.088,17.397,11.069,17.397z"/>
			</g>
		</g>
	</g>
</g>
<g id="Dashed_Frame_17">
</g>
<g id="Dashed_Frame_18">
</g>
<g id="Dashed_Frame_19">
</g>
<g id="Dashed_Frame_20">
</g>
<g id="Dashed_Frame_25">
</g>
<g id="Dashed_Frame_26">
</g>
<g id="Dashed_Frame_27">
</g>
<g id="Dashed_Frame_28">
</g>
<g id="Dashed_Frame_29">
</g>
<g id="Dashed_Frame_30">
</g>
<g id="Dashed_Frame_31">
</g>
<g id="Dashed_Frame_32">
</g>
<g id="Dashed_Frame_33">
</g>
<g id="Dashed_Frame_35">
</g>
</svg>
