<?xml version="1.0" encoding="iso-8859-1"?>
<!-- Generator: Adobe Illustrator 19.2.1, SVG Export Plug-In . SVG Version: 6.00 Build 0)  -->
<svg version="1.1" xmlns="http://www.w3.org/2000/svg" xmlns:xlink="http://www.w3.org/1999/xlink" x="0px" y="0px"
	 viewBox="0 0 24 24" style="enable-background:new 0 0 24 24;" xml:space="preserve">
<g id="Dashed_Frame_21">
</g>
<g id="Dashed_Frame_22">
</g>
<g id="Dashed_Frame_23">
	<g>
		<g>
			<path d="M12,20.5c-0.093,0-0.186-0.025-0.267-0.077l-1.947-1.231C7.003,17.431,3.792,16.5,0.5,16.5
				c-0.169,0-0.327-0.086-0.419-0.228c-0.092-0.142-0.106-0.321-0.038-0.476c1.214-2.73,1.214-5.863,0-8.594
				C-0.026,7.048-0.012,6.87,0.081,6.728S0.331,6.5,0.5,6.5c3.292,0,6.503-0.93,9.286-2.69l1.946-1.232
				c0.164-0.104,0.372-0.104,0.535,0l1.948,1.232l0,0C16.996,5.57,20.207,6.5,23.5,6.5c0.169,0,0.327,0.085,0.419,0.228
				c0.093,0.142,0.106,0.321,0.038,0.476c-1.214,2.73-1.214,5.863,0,8.594c0.068,0.154,0.055,0.334-0.038,0.476
				c-0.092,0.142-0.25,0.228-0.419,0.228c-3.293,0-6.504,0.931-9.285,2.691l-1.948,1.231C12.186,20.475,12.093,20.5,12,20.5z
				 M1.237,15.515c3.223,0.129,6.349,1.102,9.084,2.831L12,19.408l1.68-1.063c2.734-1.73,5.86-2.702,9.084-2.831
				c-0.956-2.587-0.956-5.442,0-8.029c-3.224-0.129-6.35-1.101-9.084-2.831L12,3.592l-1.679,1.063
				c-2.735,1.73-5.861,2.702-9.084,2.831C2.192,10.072,2.192,12.928,1.237,15.515z"/>
		</g>
		<g>
			<g>
				<path d="M4.164,14.84c-0.031,0-0.062-0.003-0.093-0.009c-0.319-0.06-0.64-0.111-0.962-0.155
					c-0.137-0.019-0.261-0.094-0.341-0.207c-0.08-0.113-0.109-0.255-0.081-0.391c0.065-0.314,0.119-0.632,0.161-0.949
					c0.035-0.274,0.281-0.467,0.56-0.431c0.274,0.036,0.467,0.286,0.431,0.56c-0.021,0.168-0.047,0.337-0.075,0.505
					c0.165,0.026,0.329,0.055,0.492,0.086c0.271,0.051,0.45,0.313,0.399,0.584C4.609,14.673,4.399,14.84,4.164,14.84z"/>
			</g>
			<g>
				<path d="M3.441,12.565c-0.007,0-0.015,0-0.022,0c-0.276-0.012-0.49-0.246-0.478-0.521c0.008-0.181,0.012-0.362,0.012-0.544
					s-0.004-0.363-0.012-0.544c-0.012-0.276,0.202-0.509,0.478-0.521c0.271-0.018,0.509,0.202,0.521,0.478
					c0.009,0.195,0.013,0.392,0.013,0.588s-0.004,0.392-0.013,0.588C3.929,12.356,3.708,12.565,3.441,12.565z"/>
			</g>
			<g>
				<path d="M3.343,10.307c-0.248,0-0.462-0.184-0.495-0.436c-0.042-0.318-0.095-0.635-0.161-0.95
					C2.659,8.786,2.688,8.644,2.768,8.531c0.08-0.113,0.204-0.188,0.341-0.207C3.431,8.28,3.752,8.229,4.071,8.169
					c0.272-0.051,0.533,0.128,0.583,0.399c0.051,0.271-0.127,0.533-0.399,0.583c-0.163,0.031-0.327,0.06-0.492,0.086
					c0.028,0.168,0.054,0.336,0.075,0.505c0.036,0.274-0.157,0.525-0.431,0.56C3.386,10.305,3.364,10.307,3.343,10.307z"/>
			</g>
			<g>
				<path d="M6.605,8.54c-0.211,0-0.407-0.135-0.476-0.346C6.044,7.931,6.188,7.649,6.451,7.564C7.227,7.313,7.995,7.01,8.735,6.663
					c0.25-0.119,0.548-0.009,0.665,0.24c0.117,0.25,0.01,0.548-0.24,0.665C8.382,7.934,7.574,8.252,6.759,8.516
					C6.708,8.532,6.656,8.54,6.605,8.54z"/>
			</g>
			<g>
				<path d="M12.844,6.401c-0.091,0-0.184-0.025-0.267-0.078L12,5.958l-0.577,0.366c-0.232,0.149-0.542,0.079-0.69-0.155
					s-0.079-0.542,0.155-0.69l0.845-0.535c0.163-0.104,0.372-0.104,0.535,0l0.845,0.535c0.233,0.148,0.303,0.457,0.155,0.69
					C13.172,6.319,13.01,6.401,12.844,6.401z"/>
			</g>
			<g>
				<path d="M17.395,8.54c-0.051,0-0.103-0.008-0.153-0.024c-0.816-0.264-1.624-0.583-2.401-0.948
					c-0.25-0.118-0.357-0.416-0.239-0.666c0.117-0.25,0.417-0.356,0.665-0.24c0.738,0.348,1.507,0.651,2.282,0.901
					c0.263,0.085,0.407,0.367,0.322,0.629C17.802,8.405,17.605,8.54,17.395,8.54z"/>
			</g>
			<g>
				<path d="M20.657,10.307c-0.021,0-0.044-0.001-0.065-0.004c-0.273-0.035-0.467-0.286-0.432-0.56
					c0.022-0.168,0.047-0.337,0.075-0.505c-0.164-0.026-0.327-0.055-0.491-0.086c-0.271-0.051-0.449-0.312-0.398-0.583
					c0.051-0.272,0.318-0.451,0.584-0.399c0.318,0.06,0.639,0.111,0.962,0.155c0.138,0.019,0.262,0.094,0.342,0.208
					c0.08,0.114,0.108,0.256,0.08,0.392c-0.066,0.314-0.12,0.631-0.161,0.948C21.119,10.123,20.904,10.307,20.657,10.307z"/>
			</g>
			<g>
				<path d="M20.559,12.567c-0.267,0-0.488-0.21-0.5-0.479c-0.008-0.198-0.012-0.395-0.012-0.592c0-0.194,0.004-0.388,0.012-0.582
					c0.012-0.276,0.239-0.499,0.521-0.479c0.276,0.012,0.49,0.245,0.479,0.521c-0.008,0.18-0.012,0.359-0.012,0.54
					c0,0.184,0.004,0.367,0.012,0.551c0.011,0.276-0.204,0.509-0.479,0.52C20.572,12.567,20.565,12.567,20.559,12.567z"/>
			</g>
			<g>
				<path d="M19.836,14.84c-0.235,0-0.445-0.167-0.49-0.407c-0.051-0.271,0.127-0.533,0.398-0.584
					c0.164-0.031,0.327-0.06,0.492-0.086c-0.029-0.168-0.054-0.337-0.076-0.505c-0.035-0.274,0.158-0.524,0.432-0.56
					c0.268-0.041,0.524,0.157,0.561,0.431c0.041,0.317,0.095,0.634,0.161,0.948c0.028,0.136,0,0.277-0.08,0.392
					c-0.08,0.113-0.204,0.188-0.342,0.207c-0.323,0.044-0.644,0.096-0.962,0.155C19.898,14.837,19.867,14.84,19.836,14.84z"/>
			</g>
			<g>
				<path d="M15.054,16.384c-0.188,0-0.367-0.106-0.452-0.287c-0.118-0.25-0.011-0.548,0.239-0.665
					c0.777-0.365,1.585-0.685,2.401-0.947c0.263-0.085,0.545,0.06,0.629,0.322c0.085,0.263-0.06,0.544-0.322,0.629
					c-0.775,0.251-1.544,0.554-2.282,0.9C15.197,16.368,15.125,16.384,15.054,16.384z"/>
			</g>
			<g>
				<path d="M12,18.134c-0.093,0-0.186-0.025-0.268-0.077l-0.845-0.535c-0.233-0.148-0.303-0.457-0.155-0.69
					c0.147-0.233,0.456-0.302,0.69-0.155L12,17.042l0.577-0.366c0.234-0.146,0.543-0.078,0.69,0.155s0.078,0.542-0.155,0.69
					l-0.845,0.535C12.186,18.108,12.093,18.134,12,18.134z"/>
			</g>
			<g>
				<path d="M8.947,16.385c-0.071,0-0.144-0.016-0.212-0.048c-0.738-0.347-1.506-0.65-2.283-0.901
					c-0.263-0.085-0.407-0.366-0.322-0.629s0.365-0.407,0.629-0.322c0.817,0.264,1.625,0.583,2.401,0.948
					c0.25,0.117,0.357,0.415,0.24,0.665C9.315,16.278,9.135,16.385,8.947,16.385z"/>
			</g>
		</g>
	</g>
</g>
<g id="Dashed_Frame_24">
</g>
<g id="Dashed_Frame_34">
</g>
</svg>
