<?xml version="1.0" encoding="iso-8859-1"?>
<!-- Generator: Adobe Illustrator 19.2.1, SVG Export Plug-In . SVG Version: 6.00 Build 0)  -->
<svg version="1.1" xmlns="http://www.w3.org/2000/svg" xmlns:xlink="http://www.w3.org/1999/xlink" x="0px" y="0px"
	 viewBox="0 0 24 24" style="enable-background:new 0 0 24 24;" xml:space="preserve">
<g id="Photo_frame">
</g>
<g id="Photo_frame_2">
</g>
<g id="Photo_frame_3">
</g>
<g id="Photo_frame__4">
</g>
<g id="Photo_frame_5">
	<g id="Layer_6">
	</g>
</g>
<g id="Photo_frame_6">
</g>
<g id="Photo_frame_7">
</g>
<g id="Round_Frame_1">
</g>
<g id="Rectangle_Frame_1">
</g>
<g id="Square_Frame_1">
</g>
<g id="Rectangle_Frame_2">
</g>
<g id="Oval_Frame_1">
</g>
<g id="Round_Frame_2">
</g>
<g id="Rectangle_Frame_3">
</g>
<g id="Rectangle_Frame_4">
</g>
<g id="Rectangle_Frame_5">
</g>
<g id="Square_Frame_2">
</g>
<g id="Rectangle_Frame_6">
</g>
<g id="Rectangle_Frame_7">
</g>
<g id="Oval_Frame_2">
</g>
<g id="Round_Frame_3">
</g>
<g id="Rectangle_Frame_8">
</g>
<g id="Square_Frame_3">
</g>
<g id="Rectangle_Frame_9">
</g>
<g id="Rectangle_Frame_10">
</g>
<g id="Square_Frame_4">
</g>
<g id="Rectangle_Frame_11">
</g>
<g id="Rectangle_Frame_12">
</g>
<g id="Square_Frame_5">
</g>
<g id="Rectangle_Frame_13">
</g>
<g id="Frame_1">
</g>
<g id="Frame_2">
</g>
<g id="Round_Frame_4">
</g>
<g id="Frame_3">
</g>
<g id="Frame_4">
</g>
<g id="Frame_5">
</g>
<g id="Frame_6">
</g>
<g id="Frame_7">
</g>
<g id="Frame_8">
</g>
<g id="Frame_9">
</g>
<g id="Frame_10">
</g>
<g id="Frame_11">
</g>
<g id="Frame_12">
</g>
<g id="Frame_13">
</g>
<g id="Frame_14">
	<g>
		<path d="M11.5,23c-0.116,0-0.232-0.04-0.325-0.121c-2.073-1.776-4.902-2.485-7.566-1.891c-0.184,0.04-0.374-0.025-0.493-0.169
			c0,0-1.115-1.345-1.67-2.06c-0.104-0.133-0.133-0.308-0.079-0.467s0.184-0.281,0.347-0.323C2.813,17.679,4,15.124,4,11.5
			S2.813,5.321,1.712,5.031C1.55,4.989,1.419,4.867,1.366,4.708S1.341,4.374,1.445,4.241c0.556-0.715,1.67-2.06,1.67-2.06
			c0.119-0.145,0.309-0.209,0.493-0.169c2.665,0.594,5.494-0.115,7.566-1.891c0.187-0.161,0.464-0.161,0.65,0
			c2.073,1.776,4.902,2.485,7.566,1.891c0.184-0.039,0.374,0.025,0.494,0.169c0,0,1.114,1.345,1.67,2.06
			c0.103,0.133,0.133,0.308,0.079,0.467s-0.184,0.281-0.347,0.323C20.188,5.321,19,7.876,19,11.5s1.188,6.179,2.288,6.469
			c0.163,0.042,0.293,0.164,0.347,0.323s0.024,0.334-0.079,0.467c-0.556,0.715-1.67,2.06-1.67,2.06
			c-0.12,0.145-0.311,0.208-0.494,0.169c-2.664-0.593-5.494,0.115-7.566,1.891C11.732,22.96,11.616,23,11.5,23z M5.482,19.783
			c2.164,0,4.297,0.722,6.018,2.07c2.194-1.72,5.063-2.42,7.806-1.904c0.248-0.301,0.694-0.844,1.076-1.32
			C18.969,17.658,18,14.853,18,11.5s0.969-6.158,2.382-7.13C20,3.895,19.554,3.351,19.306,3.05
			c-2.744,0.518-5.611-0.185-7.806-1.904C9.305,2.867,6.436,3.567,3.694,3.05C3.446,3.351,3,3.895,2.618,4.37
			C4.031,5.341,5,8.147,5,11.5s-0.969,6.159-2.382,7.13C3,19.105,3.446,19.649,3.694,19.95C4.287,19.838,4.886,19.783,5.482,19.783z
			"/>
	</g>
</g>
<g id="Frame_15">
</g>
<g id="Frame_16">
</g>
<g id="Frame_17">
</g>
<g id="Frame_18">
</g>
<g id="Frame_19">
</g>
<g id="Frame_20">
</g>
<g id="Frame_21">
</g>
<g id="Frame_22">
</g>
<g id="Frame_23">
</g>
<g id="Frame_24">
</g>
<g id="Frame_25">
</g>
<g id="Frame_26">
</g>
<g id="Frame_27">
</g>
<g id="Frame_28">
</g>
<g id="Frame_29">
</g>
<g id="Frame_30">
</g>
<g id="Frame_Hole_1">
</g>
<g id="Frame_Hole_2">
</g>
<g id="Frame_Hole_3">
</g>
<g id="Frame_Hole_4">
</g>
<g id="Frame_31">
</g>
<g id="Frame_32">
</g>
<g id="Frame_33">
</g>
<g id="Frame_34">
</g>
<g id="Frame_35">
</g>
<g id="Dashed_Frame_1">
</g>
<g id="Dashed_Frame_2">
</g>
<g id="Dashed_Frame_3">
</g>
<g id="Dashed_Frame_4">
</g>
<g id="Dashed_Frame_5">
</g>
<g id="Dashed_Frame_6">
</g>
<g id="Dashed_Frame_7">
</g>
<g id="Dashed_Frame_8">
</g>
<g id="Dashed_Frame_9">
</g>
<g id="Dashed_Frame_10">
</g>
<g id="Dashed_Frame_11">
</g>
<g id="Dashed_Frame_12">
</g>
<g id="Dashed_Frame_13">
</g>
<g id="Dashed_Frame_14">
</g>
<g id="Dashed_Frame_15">
</g>
<g id="Dashed_Frame_16">
</g>
<g id="Dashed_Frame_17">
</g>
<g id="Dashed_Frame_18">
</g>
<g id="Dashed_Frame_19">
</g>
<g id="Dashed_Frame_20">
</g>
<g id="Dashed_Frame_25">
</g>
<g id="Dashed_Frame_26">
</g>
<g id="Dashed_Frame_27">
</g>
<g id="Dashed_Frame_28">
</g>
<g id="Dashed_Frame_29">
</g>
<g id="Dashed_Frame_30">
</g>
<g id="Dashed_Frame_31">
</g>
<g id="Dashed_Frame_32">
</g>
<g id="Dashed_Frame_33">
</g>
<g id="Dashed_Frame_35">
</g>
</svg>
