<?xml version="1.0" encoding="iso-8859-1"?>
<!-- Generator: Adobe Illustrator 19.2.1, SVG Export Plug-In . SVG Version: 6.00 Build 0)  -->
<svg version="1.1" xmlns="http://www.w3.org/2000/svg" xmlns:xlink="http://www.w3.org/1999/xlink" x="0px" y="0px"
	 viewBox="0 0 24 24" style="enable-background:new 0 0 24 24;" xml:space="preserve">
<g id="Photo_frame">
</g>
<g id="Photo_frame_2">
</g>
<g id="Photo_frame_3">
</g>
<g id="Photo_frame__4">
</g>
<g id="Photo_frame_5">
	<g id="Layer_6">
	</g>
</g>
<g id="Photo_frame_6">
</g>
<g id="Photo_frame_7">
</g>
<g id="Round_Frame_1">
</g>
<g id="Rectangle_Frame_1">
</g>
<g id="Square_Frame_1">
</g>
<g id="Rectangle_Frame_2">
</g>
<g id="Oval_Frame_1">
</g>
<g id="Round_Frame_2">
</g>
<g id="Rectangle_Frame_3">
</g>
<g id="Rectangle_Frame_4">
</g>
<g id="Rectangle_Frame_5">
</g>
<g id="Square_Frame_2">
</g>
<g id="Rectangle_Frame_6">
</g>
<g id="Rectangle_Frame_7">
</g>
<g id="Oval_Frame_2">
</g>
<g id="Round_Frame_3">
</g>
<g id="Rectangle_Frame_8">
</g>
<g id="Square_Frame_3">
</g>
<g id="Rectangle_Frame_9">
</g>
<g id="Rectangle_Frame_10">
</g>
<g id="Square_Frame_4">
</g>
<g id="Rectangle_Frame_11">
</g>
<g id="Rectangle_Frame_12">
</g>
<g id="Square_Frame_5">
</g>
<g id="Rectangle_Frame_13">
</g>
<g id="Frame_1">
</g>
<g id="Frame_2">
</g>
<g id="Round_Frame_4">
</g>
<g id="Frame_3">
</g>
<g id="Frame_4">
</g>
<g id="Frame_5">
</g>
<g id="Frame_6">
	<g>
		<path d="M12,24c-1.678,0-3.204-0.743-4.137-2H7.5c-1.207,0-2.218-0.86-2.45-2H4.449c-0.238,0-0.442-0.167-0.49-0.401
			C3.8,18.812,3.188,18.2,2.4,18.041C2.168,17.993,2,17.788,2,17.55V6.45c0-0.238,0.168-0.443,0.4-0.49
			C3.188,5.8,3.8,5.188,3.959,4.401C4.007,4.167,4.211,4,4.449,4H5.05C5.282,2.86,6.293,2,7.5,2h0.363C8.796,0.743,10.322,0,12,0
			s3.25,0.779,4.171,2.05H16.5c1.207,0,2.218,0.86,2.45,2h0.601c0.238,0,0.442,0.167,0.49,0.401C20.2,5.238,20.812,5.85,21.6,6.01
			C21.832,6.057,22,6.262,22,6.5v11.101c0,0.238-0.167,0.442-0.4,0.49c-0.788,0.161-1.399,0.772-1.559,1.559
			c-0.048,0.233-0.252,0.401-0.49,0.401H18.95c-0.232,1.14-1.243,2-2.45,2h-0.399C15.164,23.276,13.651,24,12,24z M4.829,19H5.5
			C5.776,19,6,19.224,6,19.5C6,20.327,6.673,21,7.5,21h0.624c0.169,0,0.326,0.085,0.418,0.226C9.259,22.32,10.584,23,12,23
			c1.415,0,2.698-0.646,3.431-1.73c0.093-0.137,0.248-0.22,0.414-0.22H16.5c0.827,0,1.5-0.673,1.5-1.5c0-0.276,0.224-0.5,0.5-0.5
			h0.671c0.301-0.855,0.973-1.528,1.829-1.829V6.879c-0.856-0.301-1.528-0.973-1.829-1.829H18.5c-0.276,0-0.5-0.224-0.5-0.5
			c0-0.827-0.673-1.5-1.5-1.5h-0.594c-0.171,0-0.331-0.088-0.423-0.232C14.773,1.697,13.438,1,12,1c-1.416,0-2.741,0.68-3.458,1.774
			C8.45,2.915,8.293,3,8.124,3H7.5C6.673,3,6,3.673,6,4.5C6,4.776,5.776,5,5.5,5H4.829C4.528,5.856,3.856,6.528,3,6.829v10.342
			C3.856,17.472,4.528,18.144,4.829,19z"/>
	</g>
</g>
<g id="Frame_7">
</g>
<g id="Frame_8">
</g>
<g id="Frame_9">
</g>
<g id="Frame_10">
</g>
<g id="Frame_11">
</g>
<g id="Frame_12">
</g>
<g id="Frame_13">
</g>
<g id="Frame_14">
</g>
<g id="Frame_15">
</g>
<g id="Frame_16">
</g>
<g id="Frame_17">
</g>
<g id="Frame_18">
</g>
<g id="Frame_19">
</g>
<g id="Frame_20">
</g>
<g id="Frame_21">
</g>
<g id="Frame_22">
</g>
<g id="Frame_23">
</g>
<g id="Frame_24">
</g>
<g id="Frame_25">
</g>
<g id="Frame_26">
</g>
<g id="Frame_27">
</g>
<g id="Frame_28">
</g>
<g id="Frame_29">
</g>
<g id="Frame_30">
</g>
<g id="Frame_Hole_1">
</g>
<g id="Frame_Hole_2">
</g>
<g id="Frame_Hole_3">
</g>
<g id="Frame_Hole_4">
</g>
<g id="Frame_31">
</g>
<g id="Frame_32">
</g>
<g id="Frame_33">
</g>
<g id="Frame_34">
</g>
<g id="Frame_35">
</g>
<g id="Dashed_Frame_1">
</g>
<g id="Dashed_Frame_2">
</g>
<g id="Dashed_Frame_3">
</g>
<g id="Dashed_Frame_4">
</g>
<g id="Dashed_Frame_5">
</g>
<g id="Dashed_Frame_6">
</g>
<g id="Dashed_Frame_7">
</g>
<g id="Dashed_Frame_8">
</g>
<g id="Dashed_Frame_9">
</g>
<g id="Dashed_Frame_10">
</g>
<g id="Dashed_Frame_11">
</g>
<g id="Dashed_Frame_12">
</g>
<g id="Dashed_Frame_13">
</g>
<g id="Dashed_Frame_14">
</g>
<g id="Dashed_Frame_15">
</g>
<g id="Dashed_Frame_16">
</g>
<g id="Dashed_Frame_17">
</g>
<g id="Dashed_Frame_18">
</g>
<g id="Dashed_Frame_19">
</g>
<g id="Dashed_Frame_20">
</g>
<g id="Dashed_Frame_25">
</g>
<g id="Dashed_Frame_26">
</g>
<g id="Dashed_Frame_27">
</g>
<g id="Dashed_Frame_28">
</g>
<g id="Dashed_Frame_29">
</g>
<g id="Dashed_Frame_30">
</g>
<g id="Dashed_Frame_31">
</g>
<g id="Dashed_Frame_32">
</g>
<g id="Dashed_Frame_33">
</g>
<g id="Dashed_Frame_35">
</g>
</svg>
