<?xml version="1.0" encoding="iso-8859-1"?>
<!-- Generator: Adobe Illustrator 19.2.1, SVG Export Plug-In . SVG Version: 6.00 Build 0)  -->
<svg version="1.1" xmlns="http://www.w3.org/2000/svg" xmlns:xlink="http://www.w3.org/1999/xlink" x="0px" y="0px"
	 viewBox="0 0 24 24" style="enable-background:new 0 0 24 24;" xml:space="preserve">
<g id="Photo_frame">
</g>
<g id="Photo_frame_2">
</g>
<g id="Photo_frame_3">
</g>
<g id="Photo_frame__4">
</g>
<g id="Photo_frame_5">
	<g id="Layer_6">
	</g>
</g>
<g id="Photo_frame_6">
</g>
<g id="Photo_frame_7">
</g>
<g id="Round_Frame_1">
</g>
<g id="Rectangle_Frame_1">
</g>
<g id="Square_Frame_1">
</g>
<g id="Rectangle_Frame_2">
</g>
<g id="Oval_Frame_1">
</g>
<g id="Round_Frame_2">
</g>
<g id="Rectangle_Frame_3">
</g>
<g id="Rectangle_Frame_4">
</g>
<g id="Rectangle_Frame_5">
</g>
<g id="Square_Frame_2">
</g>
<g id="Rectangle_Frame_6">
</g>
<g id="Rectangle_Frame_7">
</g>
<g id="Oval_Frame_2">
</g>
<g id="Round_Frame_3">
</g>
<g id="Rectangle_Frame_8">
</g>
<g id="Square_Frame_3">
</g>
<g id="Rectangle_Frame_9">
</g>
<g id="Rectangle_Frame_10">
</g>
<g id="Square_Frame_4">
</g>
<g id="Rectangle_Frame_11">
</g>
<g id="Rectangle_Frame_12">
</g>
<g id="Square_Frame_5">
</g>
<g id="Rectangle_Frame_13">
</g>
<g id="Frame_1">
</g>
<g id="Frame_2">
</g>
<g id="Round_Frame_4">
</g>
<g id="Frame_3">
</g>
<g id="Frame_4">
</g>
<g id="Frame_5">
</g>
<g id="Frame_6">
</g>
<g id="Frame_7">
</g>
<g id="Frame_8">
</g>
<g id="Frame_9">
</g>
<g id="Frame_10">
</g>
<g id="Frame_11">
</g>
<g id="Frame_12">
</g>
<g id="Frame_13">
</g>
<g id="Frame_14">
</g>
<g id="Frame_15">
</g>
<g id="Frame_16">
</g>
<g id="Frame_17">
</g>
<g id="Frame_18">
</g>
<g id="Frame_19">
</g>
<g id="Frame_20">
</g>
<g id="Frame_21">
</g>
<g id="Frame_22">
</g>
<g id="Frame_23">
</g>
<g id="Frame_24">
</g>
<g id="Frame_25">
</g>
<g id="Frame_26">
</g>
<g id="Frame_27">
</g>
<g id="Frame_28">
</g>
<g id="Frame_29">
</g>
<g id="Frame_30">
</g>
<g id="Frame_Hole_1">
</g>
<g id="Frame_Hole_2">
</g>
<g id="Frame_Hole_3">
</g>
<g id="Frame_Hole_4">
</g>
<g id="Frame_31">
</g>
<g id="Frame_32">
	<g>
		<path d="M14,19.222c-0.118,0-0.234-0.042-0.325-0.12c-0.464-0.396-1.059-0.616-1.667-0.602c-0.677-0.005-1.219,0.205-1.683,0.602
			c-0.109,0.095-0.254,0.132-0.398,0.115l-1.5-0.222C8.182,18.958,8,18.748,8,18.5c0-0.552-0.448-1-1-1c-1.103,0-2-0.897-2-2H1.5
			C1.224,15.5,1,15.276,1,15v-1.388c-0.677-0.505-1.053-1.304-0.994-2.146C-0.053,10.684,0.323,9.892,1,9.388V8
			c0-0.276,0.224-0.5,0.5-0.5H5c0-1.103,0.897-2,2-2c0.552,0,1-0.448,1-1c0-0.248,0.182-0.458,0.427-0.495l1.5-0.222
			c0.144-0.018,0.289,0.021,0.398,0.115c0.464,0.396,1.047,0.596,1.667,0.602c0.661,0.004,1.219-0.205,1.683-0.602
			c0.109-0.094,0.258-0.132,0.398-0.115l1.5,0.222C15.818,4.042,16,4.252,16,4.5c0,0.552,0.448,1,1,1c1.103,0,2,0.897,2,2h3.5
			C22.776,7.5,23,7.724,23,8v1.388c0.676,0.505,1.052,1.303,0.994,2.146c0.058,0.782-0.318,1.574-0.994,2.078V15
			c0,0.276-0.224,0.5-0.5,0.5H19c0,1.103-0.897,2-2,2c-0.552,0-1,0.448-1,1c0,0.248-0.182,0.458-0.427,0.495l-1.5,0.222
			C14.049,19.22,14.024,19.222,14,19.222z M8.951,18.062l0.907,0.134c0.617-0.462,1.333-0.693,2.149-0.695
			c0.796-0.008,1.517,0.234,2.134,0.695l0.907-0.134c0.2-0.893,0.999-1.562,1.951-1.562c0.552,0,1-0.448,1-1V15
			c0-0.276,0.224-0.5,0.5-0.5H22v-1.155c0-0.178,0.095-0.343,0.248-0.432c0.5-0.291,0.786-0.819,0.748-1.379
			c0.038-0.628-0.248-1.156-0.748-1.447C22.095,9.998,22,9.833,22,9.655V8.5h-3.5C18.224,8.5,18,8.276,18,8V7.5c0-0.552-0.448-1-1-1
			c-0.952,0-1.751-0.669-1.951-1.562l-0.907-0.134c-0.617,0.462-1.335,0.7-2.149,0.695c-0.804-0.01-1.517-0.234-2.134-0.695
			L8.951,4.938C8.751,5.831,7.952,6.5,7,6.5c-0.552,0-1,0.448-1,1V8c0,0.276-0.224,0.5-0.5,0.5H2v1.155
			c0,0.178-0.095,0.343-0.248,0.432c-0.501,0.292-0.787,0.819-0.748,1.379c-0.039,0.628,0.247,1.155,0.748,1.447
			C1.905,13.002,2,13.167,2,13.345V14.5h3.5C5.776,14.5,6,14.724,6,15v0.5c0,0.552,0.448,1,1,1
			C7.952,16.5,8.751,17.169,8.951,18.062z"/>
	</g>
</g>
<g id="Frame_33">
</g>
<g id="Frame_34">
</g>
<g id="Frame_35">
</g>
<g id="Dashed_Frame_1">
</g>
<g id="Dashed_Frame_2">
</g>
<g id="Dashed_Frame_3">
</g>
<g id="Dashed_Frame_4">
</g>
<g id="Dashed_Frame_5">
</g>
<g id="Dashed_Frame_6">
</g>
<g id="Dashed_Frame_7">
</g>
<g id="Dashed_Frame_8">
</g>
<g id="Dashed_Frame_9">
</g>
<g id="Dashed_Frame_10">
</g>
<g id="Dashed_Frame_11">
</g>
<g id="Dashed_Frame_12">
</g>
<g id="Dashed_Frame_13">
</g>
<g id="Dashed_Frame_14">
</g>
<g id="Dashed_Frame_15">
</g>
<g id="Dashed_Frame_16">
</g>
<g id="Dashed_Frame_17">
</g>
<g id="Dashed_Frame_18">
</g>
<g id="Dashed_Frame_19">
</g>
<g id="Dashed_Frame_20">
</g>
<g id="Dashed_Frame_25">
</g>
<g id="Dashed_Frame_26">
</g>
<g id="Dashed_Frame_27">
</g>
<g id="Dashed_Frame_28">
</g>
<g id="Dashed_Frame_29">
</g>
<g id="Dashed_Frame_30">
</g>
<g id="Dashed_Frame_31">
</g>
<g id="Dashed_Frame_32">
</g>
<g id="Dashed_Frame_33">
</g>
<g id="Dashed_Frame_35">
</g>
</svg>
