<?xml version="1.0" encoding="iso-8859-1"?>
<!-- Generator: Adobe Illustrator 19.2.1, SVG Export Plug-In . SVG Version: 6.00 Build 0)  -->
<svg version="1.1" xmlns="http://www.w3.org/2000/svg" xmlns:xlink="http://www.w3.org/1999/xlink" x="0px" y="0px"
	 viewBox="0 0 24 24" style="enable-background:new 0 0 24 24;" xml:space="preserve">
<g id="Photo_frame">
</g>
<g id="Photo_frame_2">
</g>
<g id="Photo_frame_3">
</g>
<g id="Photo_frame__4">
</g>
<g id="Photo_frame_5">
	<g id="Layer_6">
	</g>
</g>
<g id="Photo_frame_6">
</g>
<g id="Photo_frame_7">
</g>
<g id="Round_Frame_1">
</g>
<g id="Rectangle_Frame_1">
</g>
<g id="Square_Frame_1">
</g>
<g id="Rectangle_Frame_2">
</g>
<g id="Oval_Frame_1">
</g>
<g id="Round_Frame_2">
</g>
<g id="Rectangle_Frame_3">
</g>
<g id="Rectangle_Frame_4">
</g>
<g id="Rectangle_Frame_5">
</g>
<g id="Square_Frame_2">
</g>
<g id="Rectangle_Frame_6">
</g>
<g id="Rectangle_Frame_7">
</g>
<g id="Oval_Frame_2">
</g>
<g id="Round_Frame_3">
</g>
<g id="Rectangle_Frame_8">
</g>
<g id="Square_Frame_3">
</g>
<g id="Rectangle_Frame_9">
</g>
<g id="Rectangle_Frame_10">
</g>
<g id="Square_Frame_4">
</g>
<g id="Rectangle_Frame_11">
</g>
<g id="Rectangle_Frame_12">
</g>
<g id="Square_Frame_5">
</g>
<g id="Rectangle_Frame_13">
</g>
<g id="Frame_1">
</g>
<g id="Frame_2">
</g>
<g id="Round_Frame_4">
</g>
<g id="Frame_3">
</g>
<g id="Frame_4">
</g>
<g id="Frame_5">
</g>
<g id="Frame_6">
</g>
<g id="Frame_7">
</g>
<g id="Frame_8">
</g>
<g id="Frame_9">
	<g>
		<path d="M12.004,24c-0.113,0-0.227-0.038-0.318-0.115l-1.816-1.502l-2.136-0.702c-0.063-0.021-0.121-0.054-0.171-0.097
			l-1.695-1.466l-2.135-0.703c-0.063-0.021-0.12-0.053-0.169-0.096l-1.69-1.451c-0.085-0.073-0.144-0.172-0.165-0.282l-0.429-2.148
			c-0.013-0.065-0.013-0.132,0-0.197l0.441-2.166l-0.441-2.167c-0.013-0.065-0.013-0.133,0-0.199l0.441-2.186l-0.412-2.28
			c-0.043-0.236,0.089-0.47,0.313-0.556l2.229-0.854l1.692-1.531c0.048-0.044,0.104-0.078,0.166-0.1l2.144-0.772l1.692-1.53
			C9.593,0.86,9.648,0.826,9.708,0.804l2.12-0.774c0.111-0.04,0.233-0.04,0.343,0l2.116,0.771c0.061,0.022,0.117,0.056,0.164,0.099
			l1.688,1.527l2.144,0.771c0.062,0.022,0.118,0.056,0.166,0.1l1.696,1.534l2.231,0.854c0.226,0.086,0.356,0.321,0.313,0.558
			l-0.41,2.218l0.44,2.102c0.015,0.067,0.015,0.138,0,0.205l-0.439,2.096l0.439,2.1c0.014,0.067,0.015,0.136,0.001,0.203
			l-0.429,2.086c-0.021,0.104-0.076,0.2-0.156,0.271l-1.682,1.513c-0.048,0.043-0.104,0.077-0.165,0.099l-2.142,0.771l-1.689,1.527
			c-0.048,0.044-0.104,0.078-0.165,0.1l-2.152,0.776l-1.81,1.567C12.237,23.959,12.121,24,12.004,24z M8.141,20.763l2.131,0.7
			c0.06,0.02,0.114,0.05,0.162,0.09l1.563,1.292l1.561-1.351c0.046-0.04,0.1-0.072,0.157-0.092l2.146-0.774L17.55,19.1
			c0.048-0.044,0.104-0.078,0.166-0.1l2.143-0.772l1.486-1.337l0.375-1.823l-0.439-2.101c-0.015-0.068-0.015-0.138,0-0.205
			l0.439-2.096L21.28,8.571c-0.014-0.063-0.015-0.129-0.002-0.193l0.353-1.906l-1.93-0.739c-0.058-0.022-0.11-0.055-0.156-0.096
			l-1.692-1.53l-2.144-0.771c-0.062-0.022-0.118-0.056-0.166-0.1l-1.689-1.528L12,1.032L10.143,1.71L8.449,3.241
			C8.401,3.284,8.345,3.318,8.283,3.34L6.141,4.112L4.451,5.639C4.406,5.681,4.353,5.713,4.295,5.735L2.366,6.474l0.355,1.967
			C2.732,8.503,2.732,8.567,2.72,8.629l-0.44,2.18l0.441,2.167c0.013,0.066,0.013,0.133,0,0.199l-0.441,2.167l0.376,1.88
			l1.483,1.274l2.136,0.703c0.063,0.021,0.121,0.054,0.171,0.097L8.141,20.763z"/>
	</g>
</g>
<g id="Frame_10">
</g>
<g id="Frame_11">
</g>
<g id="Frame_12">
</g>
<g id="Frame_13">
</g>
<g id="Frame_14">
</g>
<g id="Frame_15">
</g>
<g id="Frame_16">
</g>
<g id="Frame_17">
</g>
<g id="Frame_18">
</g>
<g id="Frame_19">
</g>
<g id="Frame_20">
</g>
<g id="Frame_21">
</g>
<g id="Frame_22">
</g>
<g id="Frame_23">
</g>
<g id="Frame_24">
</g>
<g id="Frame_25">
</g>
<g id="Frame_26">
</g>
<g id="Frame_27">
</g>
<g id="Frame_28">
</g>
<g id="Frame_29">
</g>
<g id="Frame_30">
</g>
<g id="Frame_Hole_1">
</g>
<g id="Frame_Hole_2">
</g>
<g id="Frame_Hole_3">
</g>
<g id="Frame_Hole_4">
</g>
<g id="Frame_31">
</g>
<g id="Frame_32">
</g>
<g id="Frame_33">
</g>
<g id="Frame_34">
</g>
<g id="Frame_35">
</g>
<g id="Dashed_Frame_1">
</g>
<g id="Dashed_Frame_2">
</g>
<g id="Dashed_Frame_3">
</g>
<g id="Dashed_Frame_4">
</g>
<g id="Dashed_Frame_5">
</g>
<g id="Dashed_Frame_6">
</g>
<g id="Dashed_Frame_7">
</g>
<g id="Dashed_Frame_8">
</g>
<g id="Dashed_Frame_9">
</g>
<g id="Dashed_Frame_10">
</g>
<g id="Dashed_Frame_11">
</g>
<g id="Dashed_Frame_12">
</g>
<g id="Dashed_Frame_13">
</g>
<g id="Dashed_Frame_14">
</g>
<g id="Dashed_Frame_15">
</g>
<g id="Dashed_Frame_16">
</g>
<g id="Dashed_Frame_17">
</g>
<g id="Dashed_Frame_18">
</g>
<g id="Dashed_Frame_19">
</g>
<g id="Dashed_Frame_20">
</g>
<g id="Dashed_Frame_25">
</g>
<g id="Dashed_Frame_26">
</g>
<g id="Dashed_Frame_27">
</g>
<g id="Dashed_Frame_28">
</g>
<g id="Dashed_Frame_29">
</g>
<g id="Dashed_Frame_30">
</g>
<g id="Dashed_Frame_31">
</g>
<g id="Dashed_Frame_32">
</g>
<g id="Dashed_Frame_33">
</g>
<g id="Dashed_Frame_35">
</g>
</svg>
