<?xml version="1.0" encoding="iso-8859-1"?>
<!-- Generator: Adobe Illustrator 19.2.1, SVG Export Plug-In . SVG Version: 6.00 Build 0)  -->
<svg version="1.1" xmlns="http://www.w3.org/2000/svg" xmlns:xlink="http://www.w3.org/1999/xlink" x="0px" y="0px"
	 viewBox="0 0 24 24" style="enable-background:new 0 0 24 24;" xml:space="preserve">
<g id="Photo_frame">
</g>
<g id="Photo_frame_2">
</g>
<g id="Photo_frame_3">
</g>
<g id="Photo_frame__4">
</g>
<g id="Photo_frame_5">
	<g id="Layer_6">
	</g>
</g>
<g id="Photo_frame_6">
</g>
<g id="Photo_frame_7">
</g>
<g id="Round_Frame_1">
</g>
<g id="Rectangle_Frame_1">
</g>
<g id="Square_Frame_1">
</g>
<g id="Rectangle_Frame_2">
</g>
<g id="Oval_Frame_1">
</g>
<g id="Round_Frame_2">
</g>
<g id="Rectangle_Frame_3">
</g>
<g id="Rectangle_Frame_4">
</g>
<g id="Rectangle_Frame_5">
</g>
<g id="Square_Frame_2">
</g>
<g id="Rectangle_Frame_6">
</g>
<g id="Rectangle_Frame_7">
</g>
<g id="Oval_Frame_2">
</g>
<g id="Round_Frame_3">
</g>
<g id="Rectangle_Frame_8">
</g>
<g id="Square_Frame_3">
</g>
<g id="Rectangle_Frame_9">
</g>
<g id="Rectangle_Frame_10">
</g>
<g id="Square_Frame_4">
</g>
<g id="Rectangle_Frame_11">
</g>
<g id="Rectangle_Frame_12">
</g>
<g id="Square_Frame_5">
</g>
<g id="Rectangle_Frame_13">
</g>
<g id="Frame_1">
</g>
<g id="Frame_2">
</g>
<g id="Round_Frame_4">
</g>
<g id="Frame_3">
</g>
<g id="Frame_4">
</g>
<g id="Frame_5">
</g>
<g id="Frame_6">
</g>
<g id="Frame_7">
</g>
<g id="Frame_8">
</g>
<g id="Frame_9">
</g>
<g id="Frame_10">
</g>
<g id="Frame_11">
</g>
<g id="Frame_12">
</g>
<g id="Frame_13">
</g>
<g id="Frame_14">
</g>
<g id="Frame_15">
</g>
<g id="Frame_16">
</g>
<g id="Frame_17">
</g>
<g id="Frame_18">
	<g>
		<path d="M11.609,22.352c-0.884,0-1.767-0.263-2.538-0.789L6.94,20.107c-0.546-0.373-1.14-0.672-1.764-0.89L3.144,18.51
			c-2.073-0.721-3.319-2.816-2.962-4.982l0.27-1.636c0.08-0.487,0.08-0.981,0-1.468L0.048,7.989
			c-0.28-1.686,0.688-3.316,2.303-3.877l2.826-0.984C5.8,2.912,6.394,2.612,6.94,2.239l2.131-1.455c1.541-1.053,3.533-1.053,5.076,0
			l2.132,1.455c0.546,0.374,1.14,0.673,1.764,0.89l2.827,0.984c1.612,0.562,2.58,2.191,2.303,3.876l-0.405,2.451
			c-0.08,0.486-0.08,0.98,0,1.468l0.268,1.62c0.358,2.167-0.887,4.262-2.961,4.983l-2.031,0.707
			c-0.625,0.218-1.219,0.517-1.764,0.889l-2.132,1.456C13.376,22.088,12.493,22.352,11.609,22.352z M11.609,0.996
			c-0.688,0-1.374,0.205-1.974,0.614L7.505,3.065c-0.62,0.423-1.293,0.762-2,1.008L2.679,5.057l0,0
			C1.526,5.458,0.834,6.622,1.034,7.826l0.403,2.436c0.098,0.595,0.098,1.198,0,1.792l-0.27,1.636
			c-0.277,1.684,0.691,3.314,2.304,3.875l2.033,0.708c0.708,0.247,1.381,0.585,2,1.008l2.131,1.456c1.199,0.819,2.748,0.819,3.947,0
			l2.132-1.456c0.618-0.422,1.291-0.761,2-1.008l2.031-0.707c1.612-0.561,2.581-2.191,2.303-3.876l-0.268-1.62
			c-0.098-0.595-0.098-1.199,0-1.793l0.405-2.451c0.198-1.203-0.493-2.368-1.645-2.769l-2.827-0.984
			c-0.708-0.246-1.381-0.584-2-1.008L13.583,1.61C12.983,1.2,12.297,0.996,11.609,0.996z M2.515,4.584h0.01H2.515z"/>
	</g>
</g>
<g id="Frame_19">
</g>
<g id="Frame_20">
</g>
<g id="Frame_21">
</g>
<g id="Frame_22">
</g>
<g id="Frame_23">
</g>
<g id="Frame_24">
</g>
<g id="Frame_25">
</g>
<g id="Frame_26">
</g>
<g id="Frame_27">
</g>
<g id="Frame_28">
</g>
<g id="Frame_29">
</g>
<g id="Frame_30">
</g>
<g id="Frame_Hole_1">
</g>
<g id="Frame_Hole_2">
</g>
<g id="Frame_Hole_3">
</g>
<g id="Frame_Hole_4">
</g>
<g id="Frame_31">
</g>
<g id="Frame_32">
</g>
<g id="Frame_33">
</g>
<g id="Frame_34">
</g>
<g id="Frame_35">
</g>
<g id="Dashed_Frame_1">
</g>
<g id="Dashed_Frame_2">
</g>
<g id="Dashed_Frame_3">
</g>
<g id="Dashed_Frame_4">
</g>
<g id="Dashed_Frame_5">
</g>
<g id="Dashed_Frame_6">
</g>
<g id="Dashed_Frame_7">
</g>
<g id="Dashed_Frame_8">
</g>
<g id="Dashed_Frame_9">
</g>
<g id="Dashed_Frame_10">
</g>
<g id="Dashed_Frame_11">
</g>
<g id="Dashed_Frame_12">
</g>
<g id="Dashed_Frame_13">
</g>
<g id="Dashed_Frame_14">
</g>
<g id="Dashed_Frame_15">
</g>
<g id="Dashed_Frame_16">
</g>
<g id="Dashed_Frame_17">
</g>
<g id="Dashed_Frame_18">
</g>
<g id="Dashed_Frame_19">
</g>
<g id="Dashed_Frame_20">
</g>
<g id="Dashed_Frame_25">
</g>
<g id="Dashed_Frame_26">
</g>
<g id="Dashed_Frame_27">
</g>
<g id="Dashed_Frame_28">
</g>
<g id="Dashed_Frame_29">
</g>
<g id="Dashed_Frame_30">
</g>
<g id="Dashed_Frame_31">
</g>
<g id="Dashed_Frame_32">
</g>
<g id="Dashed_Frame_33">
</g>
<g id="Dashed_Frame_35">
</g>
</svg>
