<?xml version="1.0" encoding="iso-8859-1"?>
<!-- Generator: Adobe Illustrator 19.2.1, SVG Export Plug-In . SVG Version: 6.00 Build 0)  -->
<svg version="1.1" xmlns="http://www.w3.org/2000/svg" xmlns:xlink="http://www.w3.org/1999/xlink" x="0px" y="0px"
	 viewBox="0 0 24 24" style="enable-background:new 0 0 24 24;" xml:space="preserve">
<g id="Photo_frame">
</g>
<g id="Photo_frame_2">
</g>
<g id="Photo_frame_3">
</g>
<g id="Photo_frame__4">
</g>
<g id="Photo_frame_5">
	<g id="Layer_6">
	</g>
</g>
<g id="Photo_frame_6">
</g>
<g id="Photo_frame_7">
</g>
<g id="Round_Frame_1">
</g>
<g id="Rectangle_Frame_1">
</g>
<g id="Square_Frame_1">
</g>
<g id="Rectangle_Frame_2">
</g>
<g id="Oval_Frame_1">
</g>
<g id="Round_Frame_2">
</g>
<g id="Rectangle_Frame_3">
</g>
<g id="Rectangle_Frame_4">
</g>
<g id="Rectangle_Frame_5">
</g>
<g id="Square_Frame_2">
</g>
<g id="Rectangle_Frame_6">
</g>
<g id="Rectangle_Frame_7">
</g>
<g id="Oval_Frame_2">
</g>
<g id="Round_Frame_3">
</g>
<g id="Rectangle_Frame_8">
</g>
<g id="Square_Frame_3">
</g>
<g id="Rectangle_Frame_9">
</g>
<g id="Rectangle_Frame_10">
</g>
<g id="Square_Frame_4">
</g>
<g id="Rectangle_Frame_11">
</g>
<g id="Rectangle_Frame_12">
</g>
<g id="Square_Frame_5">
</g>
<g id="Rectangle_Frame_13">
</g>
<g id="Frame_1">
</g>
<g id="Frame_2">
</g>
<g id="Round_Frame_4">
</g>
<g id="Frame_3">
</g>
<g id="Frame_4">
</g>
<g id="Frame_5">
</g>
<g id="Frame_6">
</g>
<g id="Frame_7">
</g>
<g id="Frame_8">
</g>
<g id="Frame_9">
</g>
<g id="Frame_10">
</g>
<g id="Frame_11">
	<g>
		<path d="M12,24c-1.722,0-3.117-0.846-3.433-2H7.5C7.224,22,7,21.776,7,21.5C7,19.019,4.981,17,2.5,17C2.224,17,2,16.776,2,16.5
			v-1.067C0.846,15.117,0,13.722,0,12s0.846-3.117,2-3.433V7.5C2,7.224,2.224,7,2.5,7C4.981,7,7,4.981,7,2.5C7,2.224,7.224,2,7.5,2
			h1.067C8.883,0.846,10.278,0,12,0s3.117,0.846,3.433,2H16.5C16.776,2,17,2.224,17,2.5C17,4.981,19.019,7,21.5,7
			C21.776,7,22,7.224,22,7.5v1.067c1.154,0.315,2,1.71,2,3.433s-0.846,3.117-2,3.433V16.5c0,0.276-0.224,0.5-0.5,0.5
			c-2.481,0-4.5,2.019-4.5,4.5c0,0.276-0.224,0.5-0.5,0.5h-1.067C15.117,23.154,13.722,24,12,24z M7.978,21H9
			c0.276,0,0.5,0.224,0.5,0.5c0,0.813,1.145,1.5,2.5,1.5s2.5-0.687,2.5-1.5c0-0.276,0.224-0.5,0.5-0.5h1.022
			c0.238-2.635,2.343-4.739,4.978-4.978V15c0-0.276,0.224-0.5,0.5-0.5c0.813,0,1.5-1.145,1.5-2.5s-0.687-2.5-1.5-2.5
			C21.224,9.5,21,9.276,21,9V7.978C18.365,7.739,16.261,5.635,16.022,3H15c-0.276,0-0.5-0.224-0.5-0.5C14.5,1.687,13.355,1,12,1
			S9.5,1.687,9.5,2.5C9.5,2.776,9.276,3,9,3H7.978C7.739,5.635,5.635,7.739,3,7.978V9c0,0.276-0.224,0.5-0.5,0.5
			C1.687,9.5,1,10.645,1,12s0.687,2.5,1.5,2.5C2.776,14.5,3,14.724,3,15v1.022C5.635,16.261,7.739,18.365,7.978,21z"/>
	</g>
</g>
<g id="Frame_12">
</g>
<g id="Frame_13">
</g>
<g id="Frame_14">
</g>
<g id="Frame_15">
</g>
<g id="Frame_16">
</g>
<g id="Frame_17">
</g>
<g id="Frame_18">
</g>
<g id="Frame_19">
</g>
<g id="Frame_20">
</g>
<g id="Frame_21">
</g>
<g id="Frame_22">
</g>
<g id="Frame_23">
</g>
<g id="Frame_24">
</g>
<g id="Frame_25">
</g>
<g id="Frame_26">
</g>
<g id="Frame_27">
</g>
<g id="Frame_28">
</g>
<g id="Frame_29">
</g>
<g id="Frame_30">
</g>
<g id="Frame_Hole_1">
</g>
<g id="Frame_Hole_2">
</g>
<g id="Frame_Hole_3">
</g>
<g id="Frame_Hole_4">
</g>
<g id="Frame_31">
</g>
<g id="Frame_32">
</g>
<g id="Frame_33">
</g>
<g id="Frame_34">
</g>
<g id="Frame_35">
</g>
<g id="Dashed_Frame_1">
</g>
<g id="Dashed_Frame_2">
</g>
<g id="Dashed_Frame_3">
</g>
<g id="Dashed_Frame_4">
</g>
<g id="Dashed_Frame_5">
</g>
<g id="Dashed_Frame_6">
</g>
<g id="Dashed_Frame_7">
</g>
<g id="Dashed_Frame_8">
</g>
<g id="Dashed_Frame_9">
</g>
<g id="Dashed_Frame_10">
</g>
<g id="Dashed_Frame_11">
</g>
<g id="Dashed_Frame_12">
</g>
<g id="Dashed_Frame_13">
</g>
<g id="Dashed_Frame_14">
</g>
<g id="Dashed_Frame_15">
</g>
<g id="Dashed_Frame_16">
</g>
<g id="Dashed_Frame_17">
</g>
<g id="Dashed_Frame_18">
</g>
<g id="Dashed_Frame_19">
</g>
<g id="Dashed_Frame_20">
</g>
<g id="Dashed_Frame_25">
</g>
<g id="Dashed_Frame_26">
</g>
<g id="Dashed_Frame_27">
</g>
<g id="Dashed_Frame_28">
</g>
<g id="Dashed_Frame_29">
</g>
<g id="Dashed_Frame_30">
</g>
<g id="Dashed_Frame_31">
</g>
<g id="Dashed_Frame_32">
</g>
<g id="Dashed_Frame_33">
</g>
<g id="Dashed_Frame_35">
</g>
</svg>
