<?xml version="1.0" encoding="iso-8859-1"?>
<!-- Generator: Adobe Illustrator 19.2.1, SVG Export Plug-In . SVG Version: 6.00 Build 0)  -->
<svg version="1.1" xmlns="http://www.w3.org/2000/svg" xmlns:xlink="http://www.w3.org/1999/xlink" x="0px" y="0px"
	 viewBox="0 0 24 24" style="enable-background:new 0 0 24 24;" xml:space="preserve">
<g id="Photo_frame">
</g>
<g id="Photo_frame_2">
</g>
<g id="Photo_frame_3">
</g>
<g id="Photo_frame__4">
</g>
<g id="Photo_frame_5">
	<g id="Layer_6">
	</g>
</g>
<g id="Photo_frame_6">
</g>
<g id="Photo_frame_7">
</g>
<g id="Round_Frame_1">
</g>
<g id="Rectangle_Frame_1">
</g>
<g id="Square_Frame_1">
</g>
<g id="Rectangle_Frame_2">
</g>
<g id="Oval_Frame_1">
</g>
<g id="Round_Frame_2">
</g>
<g id="Rectangle_Frame_3">
</g>
<g id="Rectangle_Frame_4">
</g>
<g id="Rectangle_Frame_5">
</g>
<g id="Square_Frame_2">
</g>
<g id="Rectangle_Frame_6">
</g>
<g id="Rectangle_Frame_7">
</g>
<g id="Oval_Frame_2">
</g>
<g id="Round_Frame_3">
</g>
<g id="Rectangle_Frame_8">
</g>
<g id="Square_Frame_3">
</g>
<g id="Rectangle_Frame_9">
</g>
<g id="Rectangle_Frame_10">
</g>
<g id="Square_Frame_4">
</g>
<g id="Rectangle_Frame_11">
</g>
<g id="Rectangle_Frame_12">
</g>
<g id="Square_Frame_5">
</g>
<g id="Rectangle_Frame_13">
</g>
<g id="Frame_1">
</g>
<g id="Frame_2">
</g>
<g id="Round_Frame_4">
</g>
<g id="Frame_3">
</g>
<g id="Frame_4">
</g>
<g id="Frame_5">
</g>
<g id="Frame_6">
</g>
<g id="Frame_7">
</g>
<g id="Frame_8">
</g>
<g id="Frame_9">
</g>
<g id="Frame_10">
</g>
<g id="Frame_11">
</g>
<g id="Frame_12">
</g>
<g id="Frame_13">
</g>
<g id="Frame_14">
</g>
<g id="Frame_15">
</g>
<g id="Frame_16">
</g>
<g id="Frame_17">
	<g>
		<path d="M2.5,20.324c-0.123,0-0.242-0.045-0.334-0.128C2.061,20.101,2,19.966,2,19.824v-0.289C2,18.689,1.311,18,0.464,18
			c-0.157,0-0.305-0.074-0.399-0.199c-0.094-0.125-0.119-0.305-0.076-0.456C0.092,16.982,1,13.745,1,12
			c0-1.851-1.007-5.325-1.018-5.36c-0.044-0.151-0.014-0.314,0.08-0.44C0.157,6.074,0.306,6,0.463,6C1.327,6,2,5.327,2,4.5V4.176
			C2,4.024,2.069,3.88,2.188,3.785C2.308,3.69,2.467,3.656,2.61,3.688C2.668,3.701,8.439,5,12,5c3.56,0,9.332-1.299,9.39-1.312
			c0.146-0.033,0.304,0.002,0.423,0.097C21.931,3.88,22,4.024,22,4.176V4.5C22,5.327,22.673,6,23.5,6c0.157,0,0.324,0.074,0.419,0.2
			c0.094,0.125,0.143,0.289,0.099,0.44C24.007,6.675,23,10.149,23,12c0,1.848,1.005,5.325,1.016,5.36
			c0.044,0.151,0.014,0.314-0.081,0.44c-0.094,0.125-0.242,0.2-0.399,0.2C22.688,18,22,18.689,22,19.536v0.289
			c0,0.142-0.061,0.277-0.166,0.372s-0.248,0.14-0.387,0.125c-0.1-0.011-0.418-0.072-0.891-0.165C18.8,19.811,14.686,19,12,19
			c-2.688,0-6.803,0.811-8.56,1.157c-0.472,0.093-0.788,0.153-0.888,0.164C2.535,20.323,2.518,20.324,2.5,20.324z M12,18
			c2.783,0,6.964,0.824,8.75,1.175c0.097,0.019,0.187,0.037,0.269,0.053c0.126-1.042,0.886-1.89,1.882-2.148
			C22.605,15.985,22,13.541,22,12c0-1.541,0.605-3.981,0.9-5.078c-1.007-0.253-1.763-1.096-1.884-2.129C19.427,5.129,15.025,6,12,6
			C8.974,6,4.573,5.129,2.983,4.792C2.861,5.833,2.098,6.68,1.101,6.927C1.396,8.026,2,10.462,2,12c0,1.542-0.606,3.985-0.901,5.081
			c0.996,0.258,1.757,1.106,1.883,2.148c0.081-0.016,0.17-0.034,0.266-0.053C5.033,18.824,9.215,18,12,18z"/>
	</g>
</g>
<g id="Frame_18">
</g>
<g id="Frame_19">
</g>
<g id="Frame_20">
</g>
<g id="Frame_21">
</g>
<g id="Frame_22">
</g>
<g id="Frame_23">
</g>
<g id="Frame_24">
</g>
<g id="Frame_25">
</g>
<g id="Frame_26">
</g>
<g id="Frame_27">
</g>
<g id="Frame_28">
</g>
<g id="Frame_29">
</g>
<g id="Frame_30">
</g>
<g id="Frame_Hole_1">
</g>
<g id="Frame_Hole_2">
</g>
<g id="Frame_Hole_3">
</g>
<g id="Frame_Hole_4">
</g>
<g id="Frame_31">
</g>
<g id="Frame_32">
</g>
<g id="Frame_33">
</g>
<g id="Frame_34">
</g>
<g id="Frame_35">
</g>
<g id="Dashed_Frame_1">
</g>
<g id="Dashed_Frame_2">
</g>
<g id="Dashed_Frame_3">
</g>
<g id="Dashed_Frame_4">
</g>
<g id="Dashed_Frame_5">
</g>
<g id="Dashed_Frame_6">
</g>
<g id="Dashed_Frame_7">
</g>
<g id="Dashed_Frame_8">
</g>
<g id="Dashed_Frame_9">
</g>
<g id="Dashed_Frame_10">
</g>
<g id="Dashed_Frame_11">
</g>
<g id="Dashed_Frame_12">
</g>
<g id="Dashed_Frame_13">
</g>
<g id="Dashed_Frame_14">
</g>
<g id="Dashed_Frame_15">
</g>
<g id="Dashed_Frame_16">
</g>
<g id="Dashed_Frame_17">
</g>
<g id="Dashed_Frame_18">
</g>
<g id="Dashed_Frame_19">
</g>
<g id="Dashed_Frame_20">
</g>
<g id="Dashed_Frame_25">
</g>
<g id="Dashed_Frame_26">
</g>
<g id="Dashed_Frame_27">
</g>
<g id="Dashed_Frame_28">
</g>
<g id="Dashed_Frame_29">
</g>
<g id="Dashed_Frame_30">
</g>
<g id="Dashed_Frame_31">
</g>
<g id="Dashed_Frame_32">
</g>
<g id="Dashed_Frame_33">
</g>
<g id="Dashed_Frame_35">
</g>
</svg>
