<?xml version="1.0" encoding="iso-8859-1"?>
<!-- Generator: Adobe Illustrator 19.2.1, SVG Export Plug-In . SVG Version: 6.00 Build 0)  -->
<svg version="1.1" xmlns="http://www.w3.org/2000/svg" xmlns:xlink="http://www.w3.org/1999/xlink" x="0px" y="0px"
	 viewBox="0 0 24 24" style="enable-background:new 0 0 24 24;" xml:space="preserve">
<g id="Photo_frame">
</g>
<g id="Photo_frame_2">
</g>
<g id="Photo_frame_3">
</g>
<g id="Photo_frame__4">
</g>
<g id="Photo_frame_5">
	<g id="Layer_6">
	</g>
</g>
<g id="Photo_frame_6">
</g>
<g id="Photo_frame_7">
</g>
<g id="Round_Frame_1">
</g>
<g id="Rectangle_Frame_1">
</g>
<g id="Square_Frame_1">
</g>
<g id="Rectangle_Frame_2">
</g>
<g id="Oval_Frame_1">
</g>
<g id="Round_Frame_2">
</g>
<g id="Rectangle_Frame_3">
</g>
<g id="Rectangle_Frame_4">
</g>
<g id="Rectangle_Frame_5">
</g>
<g id="Square_Frame_2">
</g>
<g id="Rectangle_Frame_6">
</g>
<g id="Rectangle_Frame_7">
</g>
<g id="Oval_Frame_2">
</g>
<g id="Round_Frame_3">
</g>
<g id="Rectangle_Frame_8">
</g>
<g id="Square_Frame_3">
</g>
<g id="Rectangle_Frame_9">
</g>
<g id="Rectangle_Frame_10">
</g>
<g id="Square_Frame_4">
</g>
<g id="Rectangle_Frame_11">
</g>
<g id="Rectangle_Frame_12">
</g>
<g id="Square_Frame_5">
</g>
<g id="Rectangle_Frame_13">
</g>
<g id="Frame_1">
</g>
<g id="Frame_2">
</g>
<g id="Round_Frame_4">
</g>
<g id="Frame_3">
</g>
<g id="Frame_4">
</g>
<g id="Frame_5">
</g>
<g id="Frame_6">
</g>
<g id="Frame_7">
</g>
<g id="Frame_8">
</g>
<g id="Frame_9">
</g>
<g id="Frame_10">
</g>
<g id="Frame_11">
</g>
<g id="Frame_12">
	<g>
		<path d="M15.596,22.514c-0.107,0-0.211-0.034-0.297-0.098C14.524,21.842,13.291,21.5,12,21.5s-2.524,0.342-3.298,0.916
			c-0.096,0.071-0.213,0.108-0.333,0.097l-0.103-0.007c-0.119-0.008-0.321-0.065-0.406-0.149L5.973,20.5H4.5
			C3.122,20.5,2,19.378,2,18v-1.406l-1.532-1.507c-0.164-0.161-0.197-0.412-0.081-0.609C0.782,13.804,1,12.924,1,12
			s-0.218-1.804-0.613-2.478C0.271,9.325,0.304,9.074,0.468,8.913L2,7.406V6c0-1.378,1.122-2.5,2.5-2.5h1.473L7.86,1.644
			C7.945,1.56,8.057,1.51,8.175,1.501l0.193-0.014c0.121-0.009,0.237,0.025,0.333,0.097C9.476,2.158,10.709,2.5,12,2.5
			s2.524-0.342,3.298-0.916c0.096-0.071,0.215-0.106,0.333-0.097l0.103,0.007c0.119,0.008,0.321,0.065,0.406,0.149L18.027,3.5H19.5
			C20.878,3.5,22,4.622,22,6v1.406l1.532,1.507c0.164,0.161,0.197,0.412,0.081,0.609C23.218,10.196,23,11.076,23,12
			s0.218,1.804,0.613,2.478c0.116,0.198,0.083,0.449-0.081,0.609L22,16.594V18c0,1.378-1.122,2.5-2.5,2.5h-1.473l-1.888,1.856
			c-0.085,0.083-0.196,0.134-0.315,0.142l-0.193,0.014C15.62,22.513,15.607,22.514,15.596,22.514z M12,20.5
			c1.393,0,2.701,0.34,3.645,0.941l1.828-1.797c0.094-0.092,0.219-0.144,0.351-0.144H19.5c0.827,0,1.5-0.673,1.5-1.5v-1.616
			c0-0.134,0.054-0.263,0.149-0.356l1.416-1.393C22.199,13.87,22,12.95,22,12s0.199-1.87,0.565-2.635l-1.416-1.393
			C21.054,7.878,21,7.75,21,7.616V6c0-0.827-0.673-1.5-1.5-1.5h-1.677c-0.131,0-0.257-0.052-0.351-0.144l-1.828-1.797
			C14.701,3.16,13.393,3.5,12,3.5S9.299,3.16,8.355,2.559L6.528,4.356C6.434,4.448,6.309,4.5,6.177,4.5H4.5C3.673,4.5,3,5.173,3,6
			v1.616C3,7.75,2.946,7.878,2.851,7.972L1.435,9.365C1.801,10.13,2,11.05,2,12s-0.199,1.87-0.565,2.635l1.416,1.393
			C2.946,16.122,3,16.25,3,16.384V18c0,0.827,0.673,1.5,1.5,1.5h1.677c0.131,0,0.257,0.052,0.351,0.144l1.828,1.797
			C9.299,20.84,10.607,20.5,12,20.5z"/>
	</g>
</g>
<g id="Frame_13">
</g>
<g id="Frame_14">
</g>
<g id="Frame_15">
</g>
<g id="Frame_16">
</g>
<g id="Frame_17">
</g>
<g id="Frame_18">
</g>
<g id="Frame_19">
</g>
<g id="Frame_20">
</g>
<g id="Frame_21">
</g>
<g id="Frame_22">
</g>
<g id="Frame_23">
</g>
<g id="Frame_24">
</g>
<g id="Frame_25">
</g>
<g id="Frame_26">
</g>
<g id="Frame_27">
</g>
<g id="Frame_28">
</g>
<g id="Frame_29">
</g>
<g id="Frame_30">
</g>
<g id="Frame_Hole_1">
</g>
<g id="Frame_Hole_2">
</g>
<g id="Frame_Hole_3">
</g>
<g id="Frame_Hole_4">
</g>
<g id="Frame_31">
</g>
<g id="Frame_32">
</g>
<g id="Frame_33">
</g>
<g id="Frame_34">
</g>
<g id="Frame_35">
</g>
<g id="Dashed_Frame_1">
</g>
<g id="Dashed_Frame_2">
</g>
<g id="Dashed_Frame_3">
</g>
<g id="Dashed_Frame_4">
</g>
<g id="Dashed_Frame_5">
</g>
<g id="Dashed_Frame_6">
</g>
<g id="Dashed_Frame_7">
</g>
<g id="Dashed_Frame_8">
</g>
<g id="Dashed_Frame_9">
</g>
<g id="Dashed_Frame_10">
</g>
<g id="Dashed_Frame_11">
</g>
<g id="Dashed_Frame_12">
</g>
<g id="Dashed_Frame_13">
</g>
<g id="Dashed_Frame_14">
</g>
<g id="Dashed_Frame_15">
</g>
<g id="Dashed_Frame_16">
</g>
<g id="Dashed_Frame_17">
</g>
<g id="Dashed_Frame_18">
</g>
<g id="Dashed_Frame_19">
</g>
<g id="Dashed_Frame_20">
</g>
<g id="Dashed_Frame_25">
</g>
<g id="Dashed_Frame_26">
</g>
<g id="Dashed_Frame_27">
</g>
<g id="Dashed_Frame_28">
</g>
<g id="Dashed_Frame_29">
</g>
<g id="Dashed_Frame_30">
</g>
<g id="Dashed_Frame_31">
</g>
<g id="Dashed_Frame_32">
</g>
<g id="Dashed_Frame_33">
</g>
<g id="Dashed_Frame_35">
</g>
</svg>
