<?xml version="1.0" encoding="iso-8859-1"?>
<!-- Generator: Adobe Illustrator 19.2.1, SVG Export Plug-In . SVG Version: 6.00 Build 0)  -->
<svg version="1.1" xmlns="http://www.w3.org/2000/svg" xmlns:xlink="http://www.w3.org/1999/xlink" x="0px" y="0px"
	 viewBox="0 0 24 24" style="enable-background:new 0 0 24 24;" xml:space="preserve">
<g id="Photo_frame">
</g>
<g id="Photo_frame_2">
</g>
<g id="Photo_frame_3">
</g>
<g id="Photo_frame__4">
</g>
<g id="Photo_frame_5">
	<g id="Layer_6">
	</g>
</g>
<g id="Photo_frame_6">
</g>
<g id="Photo_frame_7">
</g>
<g id="Round_Frame_1">
</g>
<g id="Rectangle_Frame_1">
</g>
<g id="Square_Frame_1">
</g>
<g id="Rectangle_Frame_2">
</g>
<g id="Oval_Frame_1">
</g>
<g id="Round_Frame_2">
</g>
<g id="Rectangle_Frame_3">
</g>
<g id="Rectangle_Frame_4">
</g>
<g id="Rectangle_Frame_5">
</g>
<g id="Square_Frame_2">
</g>
<g id="Rectangle_Frame_6">
</g>
<g id="Rectangle_Frame_7">
</g>
<g id="Oval_Frame_2">
</g>
<g id="Round_Frame_3">
</g>
<g id="Rectangle_Frame_8">
</g>
<g id="Square_Frame_3">
</g>
<g id="Rectangle_Frame_9">
</g>
<g id="Rectangle_Frame_10">
</g>
<g id="Square_Frame_4">
</g>
<g id="Rectangle_Frame_11">
</g>
<g id="Rectangle_Frame_12">
</g>
<g id="Square_Frame_5">
</g>
<g id="Rectangle_Frame_13">
</g>
<g id="Frame_1">
</g>
<g id="Frame_2">
</g>
<g id="Round_Frame_4">
</g>
<g id="Frame_3">
</g>
<g id="Frame_4">
</g>
<g id="Frame_5">
</g>
<g id="Frame_6">
</g>
<g id="Frame_7">
</g>
<g id="Frame_8">
</g>
<g id="Frame_9">
</g>
<g id="Frame_10">
</g>
<g id="Frame_11">
</g>
<g id="Frame_12">
</g>
<g id="Frame_13">
</g>
<g id="Frame_14">
</g>
<g id="Frame_15">
</g>
<g id="Frame_16">
</g>
<g id="Frame_17">
</g>
<g id="Frame_18">
</g>
<g id="Frame_19">
</g>
<g id="Frame_20">
</g>
<g id="Frame_21">
</g>
<g id="Frame_22">
</g>
<g id="Frame_23">
</g>
<g id="Frame_24">
</g>
<g id="Frame_25">
</g>
<g id="Frame_26">
</g>
<g id="Frame_27">
</g>
<g id="Frame_28">
</g>
<g id="Frame_29">
</g>
<g id="Frame_30">
</g>
<g id="Frame_Hole_1">
</g>
<g id="Frame_Hole_2">
</g>
<g id="Frame_Hole_3">
</g>
<g id="Frame_Hole_4">
</g>
<g id="Frame_31">
</g>
<g id="Frame_32">
</g>
<g id="Frame_33">
</g>
<g id="Frame_34">
</g>
<g id="Frame_35">
	<g>
		<path d="M12,23.993c-0.92,0-1.84-0.278-2.625-0.837L7.748,22H2.5C2.224,22,2,21.776,2,21.5v-2.331
			c-1.385-1.07-2.093-2.854-1.813-4.622l0.279-1.763c0.085-0.528,0.084-1.066,0-1.601L0.048,8.561C-0.209,6.944,0.602,5.342,2,4.619
			V2.5C2,2.224,2.224,2,2.5,2h5.248l1.627-1.156c1.571-1.118,3.68-1.116,5.249,0L16.251,2H21.5C21.776,2,22,2.224,22,2.5v2.12
			c1.397,0.722,2.209,2.323,1.952,3.938L23.533,11.2c-0.085,0.531-0.085,1.068,0,1.599l0.277,1.747
			c0.28,1.767-0.427,3.551-1.811,4.621V21.5c0,0.276-0.224,0.5-0.5,0.5h-5.249l-1.627,1.156C13.839,23.715,12.919,23.993,12,23.993z
			 M3,21h4.907c0.104,0,0.205,0.032,0.29,0.093l1.758,1.249c1.24,0.882,2.845,0.883,4.089,0l1.758-1.249
			C15.887,21.032,15.988,21,16.092,21H21v-2.087c0-0.165,0.081-0.319,0.217-0.412c1.21-0.83,1.841-2.32,1.605-3.799l-0.277-1.746
			c-0.101-0.634-0.101-1.278,0-1.913l0.419-2.641l0,0c0.203-1.276-0.49-2.536-1.648-2.996C21.125,5.33,21,5.146,21,4.941V3h-4.908
			c-0.104,0-0.205-0.032-0.29-0.093l-1.758-1.249c-1.242-0.883-2.847-0.884-4.089,0L8.197,2.907C8.112,2.968,8.011,3,7.907,3H3v1.94
			c0,0.205-0.125,0.389-0.315,0.465C1.526,5.866,0.832,7.127,1.036,8.402l0.418,2.624c0.101,0.639,0.101,1.283,0,1.915l-0.279,1.762
			c-0.234,1.479,0.397,2.97,1.607,3.8C2.919,18.596,3,18.75,3,18.915V21z"/>
	</g>
</g>
<g id="Dashed_Frame_1">
</g>
<g id="Dashed_Frame_2">
</g>
<g id="Dashed_Frame_3">
</g>
<g id="Dashed_Frame_4">
</g>
<g id="Dashed_Frame_5">
</g>
<g id="Dashed_Frame_6">
</g>
<g id="Dashed_Frame_7">
</g>
<g id="Dashed_Frame_8">
</g>
<g id="Dashed_Frame_9">
</g>
<g id="Dashed_Frame_10">
</g>
<g id="Dashed_Frame_11">
</g>
<g id="Dashed_Frame_12">
</g>
<g id="Dashed_Frame_13">
</g>
<g id="Dashed_Frame_14">
</g>
<g id="Dashed_Frame_15">
</g>
<g id="Dashed_Frame_16">
</g>
<g id="Dashed_Frame_17">
</g>
<g id="Dashed_Frame_18">
</g>
<g id="Dashed_Frame_19">
</g>
<g id="Dashed_Frame_20">
</g>
<g id="Dashed_Frame_25">
</g>
<g id="Dashed_Frame_26">
</g>
<g id="Dashed_Frame_27">
</g>
<g id="Dashed_Frame_28">
</g>
<g id="Dashed_Frame_29">
</g>
<g id="Dashed_Frame_30">
</g>
<g id="Dashed_Frame_31">
</g>
<g id="Dashed_Frame_32">
</g>
<g id="Dashed_Frame_33">
</g>
<g id="Dashed_Frame_35">
</g>
</svg>
