<?xml version="1.0" encoding="iso-8859-1"?>
<!-- Generator: Adobe Illustrator 19.2.1, SVG Export Plug-In . SVG Version: 6.00 Build 0)  -->
<svg version="1.1" xmlns="http://www.w3.org/2000/svg" xmlns:xlink="http://www.w3.org/1999/xlink" x="0px" y="0px"
	 viewBox="0 0 24 24" style="enable-background:new 0 0 24 24;" xml:space="preserve">
<g id="Photo_frame">
</g>
<g id="Photo_frame_2">
</g>
<g id="Photo_frame_3">
</g>
<g id="Photo_frame__4">
</g>
<g id="Photo_frame_5">
	<g id="Layer_6">
	</g>
</g>
<g id="Photo_frame_6">
</g>
<g id="Photo_frame_7">
</g>
<g id="Round_Frame_1">
</g>
<g id="Rectangle_Frame_1">
</g>
<g id="Square_Frame_1">
</g>
<g id="Rectangle_Frame_2">
</g>
<g id="Oval_Frame_1">
</g>
<g id="Round_Frame_2">
</g>
<g id="Rectangle_Frame_3">
</g>
<g id="Rectangle_Frame_4">
</g>
<g id="Rectangle_Frame_5">
</g>
<g id="Square_Frame_2">
</g>
<g id="Rectangle_Frame_6">
</g>
<g id="Rectangle_Frame_7">
</g>
<g id="Oval_Frame_2">
</g>
<g id="Round_Frame_3">
</g>
<g id="Rectangle_Frame_8">
</g>
<g id="Square_Frame_3">
</g>
<g id="Rectangle_Frame_9">
</g>
<g id="Rectangle_Frame_10">
</g>
<g id="Square_Frame_4">
</g>
<g id="Rectangle_Frame_11">
</g>
<g id="Rectangle_Frame_12">
</g>
<g id="Square_Frame_5">
</g>
<g id="Rectangle_Frame_13">
</g>
<g id="Frame_1">
</g>
<g id="Frame_2">
</g>
<g id="Round_Frame_4">
</g>
<g id="Frame_3">
</g>
<g id="Frame_4">
</g>
<g id="Frame_5">
</g>
<g id="Frame_6">
</g>
<g id="Frame_7">
</g>
<g id="Frame_8">
</g>
<g id="Frame_9">
</g>
<g id="Frame_10">
</g>
<g id="Frame_11">
</g>
<g id="Frame_12">
</g>
<g id="Frame_13">
</g>
<g id="Frame_14">
</g>
<g id="Frame_15">
</g>
<g id="Frame_16">
</g>
<g id="Frame_17">
</g>
<g id="Frame_18">
</g>
<g id="Frame_19">
</g>
<g id="Frame_20">
</g>
<g id="Frame_21">
	<g>
		<path d="M12,23.976c-2.52,0-5.04-0.257-7.542-0.769c-0.175-0.036-0.318-0.163-0.375-0.332c-0.056-0.17-0.018-0.356,0.101-0.49
			C4.703,21.801,5,20.932,5,20c0-2.056-1.498-3.691-2.862-2.682c-0.143,0.105-0.33,0.127-0.492,0.06
			c-0.163-0.069-0.277-0.22-0.301-0.395c-0.442-3.307-0.442-6.66,0-9.967c0.023-0.175,0.138-0.325,0.301-0.395
			c0.162-0.069,0.35-0.047,0.492,0.06C3.502,7.69,5,6.056,5,4c0-0.932-0.297-1.801-0.816-2.385c-0.119-0.134-0.157-0.32-0.101-0.49
			C4.14,0.956,4.283,0.829,4.458,0.793c5.004-1.023,10.08-1.023,15.084,0c0.175,0.036,0.318,0.163,0.375,0.332
			c0.056,0.17,0.018,0.356-0.101,0.49C19.297,2.199,19,3.068,19,4c0,2.056,1.496,3.69,2.862,2.682
			c0.142-0.106,0.329-0.129,0.492-0.06s0.277,0.22,0.301,0.395c0.442,3.307,0.442,6.66,0,9.967
			c-0.023,0.175-0.138,0.325-0.301,0.395c-0.163,0.067-0.351,0.046-0.492-0.06C20.496,16.309,19,17.944,19,20
			c0,0.932,0.297,1.801,0.816,2.385c0.119,0.134,0.157,0.32,0.101,0.49c-0.057,0.169-0.199,0.296-0.375,0.332
			C17.04,23.719,14.52,23.976,12,23.976z M5.409,22.373c4.377,0.803,8.805,0.803,13.182,0C18.21,21.69,18,20.862,18,20
			c0-2.206,1.346-4,3-4c0.255,0,0.507,0.044,0.753,0.132c0.312-2.745,0.312-5.519,0-8.264C21.507,7.956,21.255,8,21,8
			c-1.654,0-3-1.794-3-4c0-0.862,0.21-1.69,0.591-2.373c-4.377-0.803-8.805-0.803-13.182,0C5.79,2.31,6,3.138,6,4
			c0,2.206-1.346,4-3,4C2.745,8,2.493,7.956,2.247,7.868c-0.312,2.745-0.312,5.519,0,8.264C2.493,16.044,2.745,16,3,16
			c1.654,0,3,1.794,3,4C6,20.862,5.79,21.69,5.409,22.373z"/>
	</g>
</g>
<g id="Frame_22">
</g>
<g id="Frame_23">
</g>
<g id="Frame_24">
</g>
<g id="Frame_25">
</g>
<g id="Frame_26">
</g>
<g id="Frame_27">
</g>
<g id="Frame_28">
</g>
<g id="Frame_29">
</g>
<g id="Frame_30">
</g>
<g id="Frame_Hole_1">
</g>
<g id="Frame_Hole_2">
</g>
<g id="Frame_Hole_3">
</g>
<g id="Frame_Hole_4">
</g>
<g id="Frame_31">
</g>
<g id="Frame_32">
</g>
<g id="Frame_33">
</g>
<g id="Frame_34">
</g>
<g id="Frame_35">
</g>
<g id="Dashed_Frame_1">
</g>
<g id="Dashed_Frame_2">
</g>
<g id="Dashed_Frame_3">
</g>
<g id="Dashed_Frame_4">
</g>
<g id="Dashed_Frame_5">
</g>
<g id="Dashed_Frame_6">
</g>
<g id="Dashed_Frame_7">
</g>
<g id="Dashed_Frame_8">
</g>
<g id="Dashed_Frame_9">
</g>
<g id="Dashed_Frame_10">
</g>
<g id="Dashed_Frame_11">
</g>
<g id="Dashed_Frame_12">
</g>
<g id="Dashed_Frame_13">
</g>
<g id="Dashed_Frame_14">
</g>
<g id="Dashed_Frame_15">
</g>
<g id="Dashed_Frame_16">
</g>
<g id="Dashed_Frame_17">
</g>
<g id="Dashed_Frame_18">
</g>
<g id="Dashed_Frame_19">
</g>
<g id="Dashed_Frame_20">
</g>
<g id="Dashed_Frame_25">
</g>
<g id="Dashed_Frame_26">
</g>
<g id="Dashed_Frame_27">
</g>
<g id="Dashed_Frame_28">
</g>
<g id="Dashed_Frame_29">
</g>
<g id="Dashed_Frame_30">
</g>
<g id="Dashed_Frame_31">
</g>
<g id="Dashed_Frame_32">
</g>
<g id="Dashed_Frame_33">
</g>
<g id="Dashed_Frame_35">
</g>
</svg>
