<?xml version="1.0" encoding="iso-8859-1"?>
<!-- Generator: Adobe Illustrator 19.2.1, SVG Export Plug-In . SVG Version: 6.00 Build 0)  -->
<svg version="1.1" xmlns="http://www.w3.org/2000/svg" xmlns:xlink="http://www.w3.org/1999/xlink" x="0px" y="0px"
	 viewBox="0 0 24 24" style="enable-background:new 0 0 24 24;" xml:space="preserve">
<g id="Photo_frame">
</g>
<g id="Photo_frame_2">
</g>
<g id="Photo_frame_3">
</g>
<g id="Photo_frame__4">
</g>
<g id="Photo_frame_5">
	<g id="Layer_6">
	</g>
</g>
<g id="Photo_frame_6">
</g>
<g id="Photo_frame_7">
</g>
<g id="Round_Frame_1">
</g>
<g id="Rectangle_Frame_1">
</g>
<g id="Square_Frame_1">
</g>
<g id="Rectangle_Frame_2">
</g>
<g id="Oval_Frame_1">
</g>
<g id="Round_Frame_2">
</g>
<g id="Rectangle_Frame_3">
</g>
<g id="Rectangle_Frame_4">
</g>
<g id="Rectangle_Frame_5">
</g>
<g id="Square_Frame_2">
</g>
<g id="Rectangle_Frame_6">
</g>
<g id="Rectangle_Frame_7">
</g>
<g id="Oval_Frame_2">
</g>
<g id="Round_Frame_3">
</g>
<g id="Rectangle_Frame_8">
</g>
<g id="Square_Frame_3">
</g>
<g id="Rectangle_Frame_9">
</g>
<g id="Rectangle_Frame_10">
</g>
<g id="Square_Frame_4">
</g>
<g id="Rectangle_Frame_11">
</g>
<g id="Rectangle_Frame_12">
</g>
<g id="Square_Frame_5">
</g>
<g id="Rectangle_Frame_13">
</g>
<g id="Frame_1">
</g>
<g id="Frame_2">
</g>
<g id="Round_Frame_4">
</g>
<g id="Frame_3">
</g>
<g id="Frame_4">
</g>
<g id="Frame_5">
</g>
<g id="Frame_6">
</g>
<g id="Frame_7">
</g>
<g id="Frame_8">
</g>
<g id="Frame_9">
</g>
<g id="Frame_10">
</g>
<g id="Frame_11">
</g>
<g id="Frame_12">
</g>
<g id="Frame_13">
</g>
<g id="Frame_14">
</g>
<g id="Frame_15">
</g>
<g id="Frame_16">
</g>
<g id="Frame_17">
</g>
<g id="Frame_18">
</g>
<g id="Frame_19">
</g>
<g id="Frame_20">
</g>
<g id="Frame_21">
</g>
<g id="Frame_22">
	<g>
		<path d="M11.935,22c-0.113,0-0.227-0.038-0.319-0.115L9.347,20H6.5C5.122,20,4,18.879,4,17.5V16H2.5C2.224,16,2,15.776,2,15.5
			v-1.604l-1.819-1.511C0.066,12.289,0,12.148,0,11.999c0-0.148,0.067-0.29,0.182-0.385L2,10.112V8.5C2,8.224,2.224,8,2.5,8H4V6.5
			C4,5.121,5.122,4,6.5,4h2.899l2.282-1.886c0.185-0.152,0.452-0.152,0.637,0L14.601,4h2.956c0.67,0,1.299,0.262,1.772,0.736
			c0.472,0.475,0.731,1.104,0.728,1.774L20.05,8h1.45C21.776,8,22,8.224,22,8.5v1.612l1.818,1.502C23.934,11.71,24,11.852,24,12.001
			s-0.067,0.291-0.183,0.386L22,13.879V15.5c0,0.276-0.224,0.5-0.5,0.5h-1.484l-0.007,1.511C20.003,18.884,18.881,20,17.509,20
			h-2.96l-2.296,1.887C12.16,21.962,12.048,22,11.935,22z M3,15h1.5C4.776,15,5,15.224,5,15.5v2C5,18.327,5.673,19,6.5,19h3.028
			c0.117,0,0.23,0.041,0.319,0.115l2.09,1.736l2.115-1.738C14.142,19.04,14.254,19,14.37,19h3.139c0.823,0,1.497-0.67,1.5-1.493
			l0.009-2.009c0.001-0.275,0.225-0.498,0.5-0.498H21v-1.357c0-0.149,0.067-0.291,0.183-0.387l1.531-1.257l-1.532-1.266
			C21.066,10.638,21,10.497,21,10.348V9h-1.452c-0.133,0-0.26-0.053-0.354-0.147c-0.094-0.094-0.146-0.222-0.146-0.354l0.008-1.991
			c0.002-0.402-0.153-0.78-0.437-1.065C18.336,5.157,17.958,5,17.556,5h-3.135c-0.116,0-0.229-0.04-0.318-0.114L12,3.148
			L9.897,4.886C9.808,4.96,9.695,5,9.579,5H6.5C5.673,5,5,5.673,5,6.5v2C5,8.776,4.776,9,4.5,9H3v1.348
			c0,0.149-0.066,0.29-0.182,0.386l-1.535,1.268l1.536,1.275C2.934,13.371,3,13.513,3,13.661V15z"/>
	</g>
</g>
<g id="Frame_23">
</g>
<g id="Frame_24">
</g>
<g id="Frame_25">
</g>
<g id="Frame_26">
</g>
<g id="Frame_27">
</g>
<g id="Frame_28">
</g>
<g id="Frame_29">
</g>
<g id="Frame_30">
</g>
<g id="Frame_Hole_1">
</g>
<g id="Frame_Hole_2">
</g>
<g id="Frame_Hole_3">
</g>
<g id="Frame_Hole_4">
</g>
<g id="Frame_31">
</g>
<g id="Frame_32">
</g>
<g id="Frame_33">
</g>
<g id="Frame_34">
</g>
<g id="Frame_35">
</g>
<g id="Dashed_Frame_1">
</g>
<g id="Dashed_Frame_2">
</g>
<g id="Dashed_Frame_3">
</g>
<g id="Dashed_Frame_4">
</g>
<g id="Dashed_Frame_5">
</g>
<g id="Dashed_Frame_6">
</g>
<g id="Dashed_Frame_7">
</g>
<g id="Dashed_Frame_8">
</g>
<g id="Dashed_Frame_9">
</g>
<g id="Dashed_Frame_10">
</g>
<g id="Dashed_Frame_11">
</g>
<g id="Dashed_Frame_12">
</g>
<g id="Dashed_Frame_13">
</g>
<g id="Dashed_Frame_14">
</g>
<g id="Dashed_Frame_15">
</g>
<g id="Dashed_Frame_16">
</g>
<g id="Dashed_Frame_17">
</g>
<g id="Dashed_Frame_18">
</g>
<g id="Dashed_Frame_19">
</g>
<g id="Dashed_Frame_20">
</g>
<g id="Dashed_Frame_25">
</g>
<g id="Dashed_Frame_26">
</g>
<g id="Dashed_Frame_27">
</g>
<g id="Dashed_Frame_28">
</g>
<g id="Dashed_Frame_29">
</g>
<g id="Dashed_Frame_30">
</g>
<g id="Dashed_Frame_31">
</g>
<g id="Dashed_Frame_32">
</g>
<g id="Dashed_Frame_33">
</g>
<g id="Dashed_Frame_35">
</g>
</svg>
