<?xml version="1.0" encoding="iso-8859-1"?>
<!-- Generator: Adobe Illustrator 19.2.1, SVG Export Plug-In . SVG Version: 6.00 Build 0)  -->
<svg version="1.1" xmlns="http://www.w3.org/2000/svg" xmlns:xlink="http://www.w3.org/1999/xlink" x="0px" y="0px"
	 viewBox="0 0 24 24" style="enable-background:new 0 0 24 24;" xml:space="preserve">
<g id="Photo_frame">
</g>
<g id="Photo_frame_2">
</g>
<g id="Photo_frame_3">
</g>
<g id="Photo_frame__4">
</g>
<g id="Photo_frame_5">
	<g id="Layer_6">
	</g>
</g>
<g id="Photo_frame_6">
</g>
<g id="Photo_frame_7">
</g>
<g id="Round_Frame_1">
</g>
<g id="Rectangle_Frame_1">
</g>
<g id="Square_Frame_1">
</g>
<g id="Rectangle_Frame_2">
</g>
<g id="Oval_Frame_1">
</g>
<g id="Round_Frame_2">
</g>
<g id="Rectangle_Frame_3">
</g>
<g id="Rectangle_Frame_4">
</g>
<g id="Rectangle_Frame_5">
</g>
<g id="Square_Frame_2">
</g>
<g id="Rectangle_Frame_6">
</g>
<g id="Rectangle_Frame_7">
</g>
<g id="Oval_Frame_2">
	<g>
		<g>
			<path d="M12,20c-2.981,0-5.5-3.664-5.5-8S9.019,4,12,4s5.5,3.664,5.5,8S14.981,20,12,20z M12,5c-2.439,0-4.5,3.206-4.5,7
				s2.061,7,4.5,7s4.5-3.206,4.5-7S14.439,5,12,5z"/>
		</g>
		<g>
			<path d="M12,24c-0.219,0-0.413-0.143-0.478-0.352c-0.147-0.477-0.646-0.8-1.223-1.174c-0.59-0.382-1.253-0.813-1.626-1.515
				c-1.897-1.25-3.304-3.502-3.882-6.219c-0.297-0.319-0.533-0.682-0.762-1.035c-0.375-0.579-0.699-1.079-1.178-1.227
				C2.643,12.413,2.5,12.219,2.5,12s0.143-0.413,0.353-0.478c0.479-0.148,0.803-0.648,1.178-1.227
				C4.259,9.942,4.495,9.579,4.792,9.26C5.37,6.543,6.776,4.291,8.674,3.041C9.047,2.339,9.71,1.909,10.3,1.526
				c0.576-0.374,1.075-0.697,1.223-1.174c0.129-0.419,0.826-0.419,0.955,0c0.147,0.477,0.646,0.8,1.223,1.174
				c0.59,0.382,1.253,0.813,1.626,1.515c1.897,1.25,3.304,3.502,3.882,6.219c0.297,0.319,0.533,0.682,0.762,1.035
				c0.375,0.579,0.699,1.079,1.178,1.227C21.357,11.587,21.5,11.781,21.5,12s-0.143,0.413-0.353,0.478
				c-0.479,0.148-0.803,0.648-1.178,1.227c-0.229,0.353-0.465,0.716-0.762,1.035c-0.578,2.717-1.984,4.969-3.882,6.219
				c-0.373,0.702-1.036,1.132-1.626,1.515c-0.576,0.374-1.075,0.697-1.223,1.174C12.413,23.857,12.219,24,12,24z M3.969,12
				c0.358,0.325,0.633,0.747,0.9,1.161c0.237,0.366,0.462,0.711,0.733,0.979c0.071,0.07,0.12,0.16,0.14,0.258
				c0.516,2.572,1.823,4.683,3.586,5.792c0.083,0.052,0.148,0.128,0.189,0.218c0.233,0.518,0.765,0.862,1.326,1.227
				c0.412,0.267,0.832,0.54,1.156,0.897c0.324-0.357,0.744-0.63,1.156-0.897c0.562-0.365,1.093-0.709,1.326-1.227
				c0.041-0.09,0.106-0.166,0.189-0.218c1.763-1.109,3.07-3.221,3.586-5.792c0.02-0.098,0.068-0.188,0.14-0.258
				c0.271-0.268,0.496-0.613,0.733-0.979c0.268-0.414,0.542-0.836,0.9-1.161c-0.358-0.325-0.633-0.747-0.9-1.161
				c-0.237-0.366-0.462-0.711-0.733-0.979c-0.071-0.07-0.12-0.16-0.14-0.258c-0.516-2.572-1.823-4.683-3.586-5.792
				c-0.083-0.052-0.148-0.128-0.189-0.218c-0.233-0.518-0.765-0.862-1.326-1.227C12.744,2.098,12.324,1.825,12,1.468
				c-0.324,0.357-0.744,0.63-1.156,0.897C10.282,2.73,9.751,3.074,9.518,3.592C9.477,3.682,9.411,3.757,9.328,3.81
				C7.565,4.919,6.258,7.03,5.742,9.602C5.723,9.7,5.674,9.79,5.603,9.86c-0.271,0.268-0.496,0.613-0.733,0.979
				C4.602,11.253,4.327,11.675,3.969,12z"/>
		</g>
	</g>
</g>
<g id="Round_Frame_3">
</g>
<g id="Rectangle_Frame_8">
</g>
<g id="Square_Frame_3">
</g>
<g id="Rectangle_Frame_9">
</g>
<g id="Rectangle_Frame_10">
</g>
<g id="Square_Frame_4">
</g>
<g id="Rectangle_Frame_11">
</g>
<g id="Rectangle_Frame_12">
</g>
<g id="Square_Frame_5">
</g>
<g id="Rectangle_Frame_13">
</g>
<g id="Frame_1">
</g>
<g id="Frame_2">
</g>
<g id="Round_Frame_4">
</g>
<g id="Frame_3">
</g>
<g id="Frame_4">
</g>
<g id="Frame_5">
</g>
<g id="Frame_6">
</g>
<g id="Frame_7">
</g>
<g id="Frame_8">
</g>
<g id="Frame_9">
</g>
<g id="Frame_10">
</g>
<g id="Frame_11">
</g>
<g id="Frame_12">
</g>
<g id="Frame_13">
</g>
<g id="Frame_14">
</g>
<g id="Frame_15">
</g>
<g id="Frame_16">
</g>
<g id="Frame_17">
</g>
<g id="Frame_18">
</g>
<g id="Frame_19">
</g>
<g id="Frame_20">
</g>
<g id="Frame_21">
</g>
<g id="Frame_22">
</g>
<g id="Frame_23">
</g>
<g id="Frame_24">
</g>
<g id="Frame_25">
</g>
<g id="Frame_26">
</g>
<g id="Frame_27">
</g>
<g id="Frame_28">
</g>
<g id="Frame_29">
</g>
<g id="Frame_30">
</g>
<g id="Frame_Hole_1">
</g>
<g id="Frame_Hole_2">
</g>
<g id="Frame_Hole_3">
</g>
<g id="Frame_Hole_4">
</g>
<g id="Frame_31">
</g>
<g id="Frame_32">
</g>
<g id="Frame_33">
</g>
<g id="Frame_34">
</g>
<g id="Frame_35">
</g>
<g id="Dashed_Frame_1">
</g>
<g id="Dashed_Frame_2">
</g>
<g id="Dashed_Frame_3">
</g>
<g id="Dashed_Frame_4">
</g>
<g id="Dashed_Frame_5">
</g>
<g id="Dashed_Frame_6">
</g>
<g id="Dashed_Frame_7">
</g>
<g id="Dashed_Frame_8">
</g>
<g id="Dashed_Frame_9">
</g>
<g id="Dashed_Frame_10">
</g>
<g id="Dashed_Frame_11">
</g>
<g id="Dashed_Frame_12">
</g>
<g id="Dashed_Frame_13">
</g>
<g id="Dashed_Frame_14">
</g>
<g id="Dashed_Frame_15">
</g>
<g id="Dashed_Frame_16">
</g>
<g id="Dashed_Frame_17">
</g>
<g id="Dashed_Frame_18">
</g>
<g id="Dashed_Frame_19">
</g>
<g id="Dashed_Frame_20">
</g>
<g id="Dashed_Frame_25">
</g>
<g id="Dashed_Frame_26">
</g>
<g id="Dashed_Frame_27">
</g>
<g id="Dashed_Frame_28">
</g>
<g id="Dashed_Frame_29">
</g>
<g id="Dashed_Frame_30">
</g>
<g id="Dashed_Frame_31">
</g>
<g id="Dashed_Frame_32">
</g>
<g id="Dashed_Frame_33">
</g>
<g id="Dashed_Frame_35">
</g>
</svg>
