<?xml version="1.0" encoding="iso-8859-1"?>
<!-- Generator: Adobe Illustrator 19.2.1, SVG Export Plug-In . SVG Version: 6.00 Build 0)  -->
<svg version="1.1" xmlns="http://www.w3.org/2000/svg" xmlns:xlink="http://www.w3.org/1999/xlink" x="0px" y="0px"
	 viewBox="0 0 24 24" style="enable-background:new 0 0 24 24;" xml:space="preserve">
<g id="Photo_frame">
</g>
<g id="Photo_frame_2">
</g>
<g id="Photo_frame_3">
</g>
<g id="Photo_frame__4">
</g>
<g id="Photo_frame_5">
	<g>
		<g>
			<g>
				<path d="M22.505,23.976h-22c-0.276,0-0.5-0.224-0.5-0.5v-23c0-0.276,0.224-0.5,0.5-0.5h22c0.276,0,0.5,0.224,0.5,0.5v23
					C23.005,23.752,22.781,23.976,22.505,23.976z M1.005,22.976h21v-22h-21V22.976z"/>
			</g>
			<g>
				<path d="M19.505,20.976h-16c-0.276,0-0.5-0.224-0.5-0.5v-17c0-0.276,0.224-0.5,0.5-0.5h16c0.276,0,0.5,0.224,0.5,0.5v17
					C20.005,20.752,19.781,20.976,19.505,20.976z M4.005,19.976h15v-16h-15V19.976z"/>
			</g>
		</g>
		<g>
			<path d="M3.505,3.976c-0.128,0-0.256-0.049-0.354-0.146L0.146,0.825c-0.195-0.195-0.195-0.512,0-0.707s0.512-0.195,0.707,0
				l3.005,3.005c0.195,0.195,0.195,0.512,0,0.707C3.761,3.927,3.633,3.976,3.505,3.976z"/>
		</g>
		<g>
			<path d="M19.505,3.976c-0.128,0-0.256-0.049-0.354-0.146c-0.195-0.195-0.195-0.512,0-0.707l3-3c0.195-0.195,0.512-0.195,0.707,0
				s0.195,0.512,0,0.707l-3,3C19.761,3.927,19.633,3.976,19.505,3.976z"/>
		</g>
		<g>
			<path d="M22.558,24.029c-0.128,0-0.256-0.049-0.354-0.146l-3.053-3.053c-0.195-0.195-0.195-0.512,0-0.707s0.512-0.195,0.707,0
				l3.053,3.053c0.195,0.195,0.195,0.512,0,0.707C22.813,23.98,22.686,24.029,22.558,24.029z"/>
		</g>
		<g>
			<path d="M0.5,23.981c-0.128,0-0.256-0.049-0.354-0.146c-0.195-0.195-0.195-0.512,0-0.707l3.005-3.005
				c0.195-0.195,0.512-0.195,0.707,0s0.195,0.512,0,0.707l-3.005,3.005C0.756,23.932,0.628,23.981,0.5,23.981z"/>
		</g>
	</g>
	<g id="Layer_6">
	</g>
</g>
<g id="Photo_frame_6">
</g>
<g id="Photo_frame_7">
</g>
<g id="Round_Frame_1">
</g>
<g id="Rectangle_Frame_1">
</g>
<g id="Square_Frame_1">
</g>
<g id="Rectangle_Frame_2">
</g>
<g id="Oval_Frame_1">
</g>
<g id="Round_Frame_2">
</g>
<g id="Rectangle_Frame_3">
</g>
<g id="Rectangle_Frame_4">
</g>
<g id="Rectangle_Frame_5">
</g>
<g id="Square_Frame_2">
</g>
<g id="Rectangle_Frame_6">
</g>
<g id="Rectangle_Frame_7">
</g>
<g id="Oval_Frame_2">
</g>
<g id="Round_Frame_3">
</g>
<g id="Rectangle_Frame_8">
</g>
<g id="Square_Frame_3">
</g>
<g id="Rectangle_Frame_9">
</g>
<g id="Rectangle_Frame_10">
</g>
<g id="Square_Frame_4">
</g>
<g id="Rectangle_Frame_11">
</g>
<g id="Rectangle_Frame_12">
</g>
<g id="Square_Frame_5">
</g>
<g id="Rectangle_Frame_13">
</g>
<g id="Frame_1">
</g>
<g id="Frame_2">
</g>
<g id="Round_Frame_4">
</g>
<g id="Frame_3">
</g>
<g id="Frame_4">
</g>
<g id="Frame_5">
</g>
<g id="Frame_6">
</g>
<g id="Frame_7">
</g>
<g id="Frame_8">
</g>
<g id="Frame_9">
</g>
<g id="Frame_10">
</g>
<g id="Frame_11">
</g>
<g id="Frame_12">
</g>
<g id="Frame_13">
</g>
<g id="Frame_14">
</g>
<g id="Frame_15">
</g>
<g id="Frame_16">
</g>
<g id="Frame_17">
</g>
<g id="Frame_18">
</g>
<g id="Frame_19">
</g>
<g id="Frame_20">
</g>
<g id="Frame_21">
</g>
<g id="Frame_22">
</g>
<g id="Frame_23">
</g>
<g id="Frame_24">
</g>
<g id="Frame_25">
</g>
<g id="Frame_26">
</g>
<g id="Frame_27">
</g>
<g id="Frame_28">
</g>
<g id="Frame_29">
</g>
<g id="Frame_30">
</g>
<g id="Frame_Hole_1">
</g>
<g id="Frame_Hole_2">
</g>
<g id="Frame_Hole_3">
</g>
<g id="Frame_Hole_4">
</g>
<g id="Frame_31">
</g>
<g id="Frame_32">
</g>
<g id="Frame_33">
</g>
<g id="Frame_34">
</g>
<g id="Frame_35">
</g>
<g id="Dashed_Frame_1">
</g>
<g id="Dashed_Frame_2">
</g>
<g id="Dashed_Frame_3">
</g>
<g id="Dashed_Frame_4">
</g>
<g id="Dashed_Frame_5">
</g>
<g id="Dashed_Frame_6">
</g>
<g id="Dashed_Frame_7">
</g>
<g id="Dashed_Frame_8">
</g>
<g id="Dashed_Frame_9">
</g>
<g id="Dashed_Frame_10">
</g>
<g id="Dashed_Frame_11">
</g>
<g id="Dashed_Frame_12">
</g>
<g id="Dashed_Frame_13">
</g>
<g id="Dashed_Frame_14">
</g>
<g id="Dashed_Frame_15">
</g>
<g id="Dashed_Frame_16">
</g>
<g id="Dashed_Frame_17">
</g>
<g id="Dashed_Frame_18">
</g>
<g id="Dashed_Frame_19">
</g>
<g id="Dashed_Frame_20">
</g>
<g id="Dashed_Frame_25">
</g>
<g id="Dashed_Frame_26">
</g>
<g id="Dashed_Frame_27">
</g>
<g id="Dashed_Frame_28">
</g>
<g id="Dashed_Frame_29">
</g>
<g id="Dashed_Frame_30">
</g>
<g id="Dashed_Frame_31">
</g>
<g id="Dashed_Frame_32">
</g>
<g id="Dashed_Frame_33">
</g>
<g id="Dashed_Frame_35">
</g>
</svg>
