<?xml version="1.0" encoding="iso-8859-1"?>
<!-- Generator: Adobe Illustrator 19.2.1, SVG Export Plug-In . SVG Version: 6.00 Build 0)  -->
<svg version="1.1" xmlns="http://www.w3.org/2000/svg" xmlns:xlink="http://www.w3.org/1999/xlink" x="0px" y="0px"
	 viewBox="0 0 24 24" style="enable-background:new 0 0 24 24;" xml:space="preserve">
<g id="Photo_frame">
</g>
<g id="Photo_frame_2">
</g>
<g id="Photo_frame_3">
</g>
<g id="Photo_frame__4">
</g>
<g id="Photo_frame_5">
	<g id="Layer_6">
	</g>
</g>
<g id="Photo_frame_6">
</g>
<g id="Photo_frame_7">
</g>
<g id="Round_Frame_1">
</g>
<g id="Rectangle_Frame_1">
</g>
<g id="Square_Frame_1">
</g>
<g id="Rectangle_Frame_2">
</g>
<g id="Oval_Frame_1">
</g>
<g id="Round_Frame_2">
</g>
<g id="Rectangle_Frame_3">
</g>
<g id="Rectangle_Frame_4">
</g>
<g id="Rectangle_Frame_5">
</g>
<g id="Square_Frame_2">
</g>
<g id="Rectangle_Frame_6">
</g>
<g id="Rectangle_Frame_7">
</g>
<g id="Oval_Frame_2">
</g>
<g id="Round_Frame_3">
</g>
<g id="Rectangle_Frame_8">
</g>
<g id="Square_Frame_3">
</g>
<g id="Rectangle_Frame_9">
</g>
<g id="Rectangle_Frame_10">
</g>
<g id="Square_Frame_4">
</g>
<g id="Rectangle_Frame_11">
</g>
<g id="Rectangle_Frame_12">
</g>
<g id="Square_Frame_5">
</g>
<g id="Rectangle_Frame_13">
</g>
<g id="Frame_1">
</g>
<g id="Frame_2">
</g>
<g id="Round_Frame_4">
	<g>
		<g>
			<path d="M13.967,22.868c-0.335,0-0.67-0.02-1.001-0.039c-0.643-0.038-1.289-0.038-1.932,0c-0.83,0.049-1.686,0.099-2.499-0.165
				c-0.844-0.274-1.508-0.824-2.15-1.355c-0.241-0.2-0.481-0.399-0.728-0.579c-0.251-0.183-0.519-0.353-0.786-0.523
				c-0.701-0.447-1.426-0.909-1.941-1.617c-0.512-0.703-0.73-1.539-0.94-2.347c-0.08-0.306-0.159-0.611-0.255-0.908
				c-0.092-0.284-0.206-0.569-0.32-0.856C1.108,13.704,0.79,12.902,0.79,12c0-0.902,0.318-1.704,0.625-2.479
				c0.114-0.288,0.228-0.572,0.32-0.857c0.097-0.297,0.176-0.604,0.256-0.91c0.21-0.807,0.428-1.641,0.939-2.344
				c0.515-0.708,1.241-1.171,1.943-1.618c0.267-0.17,0.533-0.339,0.784-0.522c0.246-0.18,0.486-0.378,0.727-0.578
				C7.027,2.16,7.691,1.61,8.535,1.336c0.813-0.264,1.669-0.214,2.499-0.165c0.643,0.038,1.289,0.038,1.932,0
				c0.829-0.049,1.686-0.099,2.499,0.165c0.844,0.274,1.508,0.824,2.15,1.355c0.241,0.2,0.481,0.399,0.728,0.579
				c0.251,0.183,0.519,0.353,0.786,0.523c0.701,0.447,1.426,0.909,1.941,1.617c0.512,0.703,0.73,1.539,0.94,2.347
				c0.08,0.306,0.159,0.611,0.255,0.908c0.092,0.284,0.206,0.569,0.32,0.856c0.308,0.775,0.625,1.577,0.625,2.479
				c0,0.902-0.318,1.704-0.625,2.479c-0.114,0.288-0.228,0.572-0.32,0.857c-0.097,0.297-0.176,0.604-0.256,0.91
				c-0.21,0.807-0.428,1.641-0.939,2.344c-0.515,0.708-1.241,1.171-1.943,1.618c-0.267,0.17-0.533,0.339-0.784,0.522
				c-0.246,0.18-0.486,0.378-0.727,0.578c-0.643,0.532-1.307,1.082-2.15,1.356C14.976,22.823,14.472,22.868,13.967,22.868z
				 M12,21.79c0.341,0,0.684,0.02,1.025,0.04c0.771,0.045,1.498,0.089,2.131-0.117c0.662-0.215,1.225-0.681,1.821-1.175
				c0.257-0.213,0.513-0.425,0.776-0.617c0.268-0.194,0.551-0.375,0.835-0.557c0.652-0.416,1.268-0.808,1.672-1.363
				c0.4-0.55,0.585-1.258,0.78-2.008c0.085-0.325,0.17-0.651,0.272-0.967c0.099-0.304,0.22-0.609,0.341-0.917
				c0.286-0.72,0.555-1.399,0.555-2.11s-0.27-1.391-0.555-2.11c-0.122-0.308-0.243-0.612-0.341-0.917
				c-0.102-0.315-0.187-0.64-0.271-0.964c-0.196-0.75-0.38-1.46-0.781-2.01c-0.403-0.555-1.019-0.947-1.67-1.362
				c-0.285-0.182-0.569-0.363-0.836-0.558c-0.263-0.192-0.52-0.404-0.777-0.617c-0.596-0.493-1.159-0.959-1.821-1.174
				c-0.633-0.206-1.36-0.162-2.131-0.117c-0.682,0.04-1.368,0.04-2.05,0c-0.77-0.045-1.498-0.089-2.131,0.117
				C8.182,2.502,7.619,2.968,7.022,3.462C6.765,3.675,6.509,3.887,6.246,4.079C5.979,4.273,5.695,4.454,5.411,4.635
				C4.759,5.051,4.143,5.443,3.739,5.999c-0.4,0.55-0.585,1.258-0.78,2.008c-0.085,0.325-0.17,0.651-0.272,0.967
				C2.587,9.278,2.467,9.583,2.345,9.89C2.06,10.61,1.79,11.289,1.79,12s0.27,1.391,0.555,2.11c0.122,0.308,0.243,0.612,0.341,0.917
				c0.102,0.315,0.187,0.64,0.271,0.964c0.196,0.75,0.38,1.46,0.781,2.01c0.403,0.555,1.019,0.947,1.67,1.362
				c0.285,0.182,0.569,0.363,0.836,0.558c0.263,0.192,0.52,0.404,0.777,0.617c0.596,0.493,1.159,0.959,1.821,1.174
				c0.634,0.207,1.361,0.162,2.131,0.117C11.316,21.81,11.659,21.79,12,21.79z"/>
		</g>
		<g>
			<path d="M12,21c-4.962,0-9-4.038-9-9s4.038-9,9-9s9,4.038,9,9S16.962,21,12,21z M12,4c-4.411,0-8,3.589-8,8s3.589,8,8,8
				s8-3.589,8-8S16.411,4,12,4z"/>
		</g>
	</g>
</g>
<g id="Frame_3">
</g>
<g id="Frame_4">
</g>
<g id="Frame_5">
</g>
<g id="Frame_6">
</g>
<g id="Frame_7">
</g>
<g id="Frame_8">
</g>
<g id="Frame_9">
</g>
<g id="Frame_10">
</g>
<g id="Frame_11">
</g>
<g id="Frame_12">
</g>
<g id="Frame_13">
</g>
<g id="Frame_14">
</g>
<g id="Frame_15">
</g>
<g id="Frame_16">
</g>
<g id="Frame_17">
</g>
<g id="Frame_18">
</g>
<g id="Frame_19">
</g>
<g id="Frame_20">
</g>
<g id="Frame_21">
</g>
<g id="Frame_22">
</g>
<g id="Frame_23">
</g>
<g id="Frame_24">
</g>
<g id="Frame_25">
</g>
<g id="Frame_26">
</g>
<g id="Frame_27">
</g>
<g id="Frame_28">
</g>
<g id="Frame_29">
</g>
<g id="Frame_30">
</g>
<g id="Frame_Hole_1">
</g>
<g id="Frame_Hole_2">
</g>
<g id="Frame_Hole_3">
</g>
<g id="Frame_Hole_4">
</g>
<g id="Frame_31">
</g>
<g id="Frame_32">
</g>
<g id="Frame_33">
</g>
<g id="Frame_34">
</g>
<g id="Frame_35">
</g>
<g id="Dashed_Frame_1">
</g>
<g id="Dashed_Frame_2">
</g>
<g id="Dashed_Frame_3">
</g>
<g id="Dashed_Frame_4">
</g>
<g id="Dashed_Frame_5">
</g>
<g id="Dashed_Frame_6">
</g>
<g id="Dashed_Frame_7">
</g>
<g id="Dashed_Frame_8">
</g>
<g id="Dashed_Frame_9">
</g>
<g id="Dashed_Frame_10">
</g>
<g id="Dashed_Frame_11">
</g>
<g id="Dashed_Frame_12">
</g>
<g id="Dashed_Frame_13">
</g>
<g id="Dashed_Frame_14">
</g>
<g id="Dashed_Frame_15">
</g>
<g id="Dashed_Frame_16">
</g>
<g id="Dashed_Frame_17">
</g>
<g id="Dashed_Frame_18">
</g>
<g id="Dashed_Frame_19">
</g>
<g id="Dashed_Frame_20">
</g>
<g id="Dashed_Frame_25">
</g>
<g id="Dashed_Frame_26">
</g>
<g id="Dashed_Frame_27">
</g>
<g id="Dashed_Frame_28">
</g>
<g id="Dashed_Frame_29">
</g>
<g id="Dashed_Frame_30">
</g>
<g id="Dashed_Frame_31">
</g>
<g id="Dashed_Frame_32">
</g>
<g id="Dashed_Frame_33">
</g>
<g id="Dashed_Frame_35">
</g>
</svg>
