<?xml version="1.0" encoding="iso-8859-1"?>
<!-- Generator: Adobe Illustrator 19.2.1, SVG Export Plug-In . SVG Version: 6.00 Build 0)  -->
<svg version="1.1" xmlns="http://www.w3.org/2000/svg" xmlns:xlink="http://www.w3.org/1999/xlink" x="0px" y="0px"
	 viewBox="0 0 24 24" style="enable-background:new 0 0 24 24;" xml:space="preserve">
<g id="Photo_frame">
</g>
<g id="Photo_frame_2">
</g>
<g id="Photo_frame_3">
</g>
<g id="Photo_frame__4">
</g>
<g id="Photo_frame_5">
	<g id="Layer_6">
	</g>
</g>
<g id="Photo_frame_6">
</g>
<g id="Photo_frame_7">
</g>
<g id="Round_Frame_1">
</g>
<g id="Rectangle_Frame_1">
</g>
<g id="Square_Frame_1">
</g>
<g id="Rectangle_Frame_2">
</g>
<g id="Oval_Frame_1">
</g>
<g id="Round_Frame_2">
</g>
<g id="Rectangle_Frame_3">
</g>
<g id="Rectangle_Frame_4">
</g>
<g id="Rectangle_Frame_5">
</g>
<g id="Square_Frame_2">
</g>
<g id="Rectangle_Frame_6">
</g>
<g id="Rectangle_Frame_7">
</g>
<g id="Oval_Frame_2">
</g>
<g id="Round_Frame_3">
	<g>
		<g>
			<path d="M12,23.5c-0.219,0-0.413-0.143-0.478-0.352c-0.148-0.478-0.647-0.801-1.226-1.176c-0.417-0.271-0.848-0.549-1.201-0.927
				c-2.923-0.937-5.204-3.218-6.141-6.141c-0.377-0.354-0.656-0.784-0.927-1.201c-0.375-0.578-0.699-1.078-1.176-1.226
				C0.643,12.413,0.5,12.219,0.5,12s0.143-0.413,0.352-0.478c0.478-0.148,0.801-0.647,1.176-1.226
				c0.271-0.417,0.549-0.848,0.927-1.201c0.937-2.923,3.218-5.204,6.141-6.141c0.354-0.377,0.784-0.656,1.201-0.927
				c0.578-0.375,1.078-0.699,1.226-1.176c0.13-0.419,0.825-0.419,0.955,0c0.148,0.478,0.647,0.801,1.226,1.176
				c0.417,0.271,0.848,0.549,1.201,0.927c2.923,0.937,5.204,3.218,6.141,6.141c0.377,0.354,0.656,0.784,0.927,1.201
				c0.375,0.578,0.699,1.078,1.176,1.226C23.357,11.587,23.5,11.781,23.5,12s-0.143,0.413-0.352,0.478
				c-0.478,0.148-0.801,0.647-1.176,1.226c-0.271,0.417-0.549,0.848-0.927,1.201c-0.937,2.923-3.218,5.204-6.141,6.141
				c-0.354,0.377-0.784,0.656-1.201,0.927c-0.578,0.375-1.078,0.699-1.226,1.176C12.413,23.357,12.219,23.5,12,23.5z M1.968,12
				c0.358,0.324,0.632,0.746,0.899,1.159c0.27,0.416,0.524,0.808,0.848,1.083c0.073,0.062,0.127,0.144,0.155,0.235
				c0.826,2.713,2.939,4.827,5.652,5.652c0.092,0.028,0.173,0.082,0.235,0.155c0.275,0.324,0.668,0.578,1.083,0.848
				c0.413,0.268,0.835,0.541,1.159,0.899c0.324-0.358,0.746-0.632,1.159-0.899c0.416-0.27,0.808-0.524,1.083-0.848
				c0.062-0.073,0.144-0.127,0.235-0.155c2.713-0.826,4.827-2.939,5.652-5.652c0.028-0.092,0.082-0.173,0.155-0.235
				c0.324-0.275,0.578-0.668,0.848-1.083c0.268-0.413,0.541-0.835,0.899-1.159c-0.358-0.324-0.632-0.746-0.899-1.159
				c-0.27-0.416-0.524-0.808-0.848-1.083c-0.073-0.062-0.127-0.144-0.155-0.235c-0.826-2.713-2.939-4.827-5.652-5.652
				c-0.092-0.028-0.173-0.082-0.235-0.155c-0.275-0.324-0.668-0.578-1.083-0.848C12.746,2.6,12.324,2.326,12,1.968
				c-0.324,0.358-0.746,0.632-1.159,0.899c-0.416,0.27-0.808,0.524-1.083,0.848C9.695,3.788,9.614,3.842,9.522,3.87
				C6.809,4.695,4.695,6.809,3.87,9.522C3.842,9.614,3.788,9.695,3.715,9.757c-0.324,0.275-0.578,0.668-0.848,1.083
				C2.6,11.254,2.326,11.676,1.968,12z"/>
		</g>
		<g>
			<path d="M12,19.5c-4.136,0-7.5-3.364-7.5-7.5S7.864,4.5,12,4.5s7.5,3.364,7.5,7.5S16.136,19.5,12,19.5z M12,5.5
				c-3.584,0-6.5,2.916-6.5,6.5s2.916,6.5,6.5,6.5s6.5-2.916,6.5-6.5S15.584,5.5,12,5.5z"/>
		</g>
	</g>
</g>
<g id="Rectangle_Frame_8">
</g>
<g id="Square_Frame_3">
</g>
<g id="Rectangle_Frame_9">
</g>
<g id="Rectangle_Frame_10">
</g>
<g id="Square_Frame_4">
</g>
<g id="Rectangle_Frame_11">
</g>
<g id="Rectangle_Frame_12">
</g>
<g id="Square_Frame_5">
</g>
<g id="Rectangle_Frame_13">
</g>
<g id="Frame_1">
</g>
<g id="Frame_2">
</g>
<g id="Round_Frame_4">
</g>
<g id="Frame_3">
</g>
<g id="Frame_4">
</g>
<g id="Frame_5">
</g>
<g id="Frame_6">
</g>
<g id="Frame_7">
</g>
<g id="Frame_8">
</g>
<g id="Frame_9">
</g>
<g id="Frame_10">
</g>
<g id="Frame_11">
</g>
<g id="Frame_12">
</g>
<g id="Frame_13">
</g>
<g id="Frame_14">
</g>
<g id="Frame_15">
</g>
<g id="Frame_16">
</g>
<g id="Frame_17">
</g>
<g id="Frame_18">
</g>
<g id="Frame_19">
</g>
<g id="Frame_20">
</g>
<g id="Frame_21">
</g>
<g id="Frame_22">
</g>
<g id="Frame_23">
</g>
<g id="Frame_24">
</g>
<g id="Frame_25">
</g>
<g id="Frame_26">
</g>
<g id="Frame_27">
</g>
<g id="Frame_28">
</g>
<g id="Frame_29">
</g>
<g id="Frame_30">
</g>
<g id="Frame_Hole_1">
</g>
<g id="Frame_Hole_2">
</g>
<g id="Frame_Hole_3">
</g>
<g id="Frame_Hole_4">
</g>
<g id="Frame_31">
</g>
<g id="Frame_32">
</g>
<g id="Frame_33">
</g>
<g id="Frame_34">
</g>
<g id="Frame_35">
</g>
<g id="Dashed_Frame_1">
</g>
<g id="Dashed_Frame_2">
</g>
<g id="Dashed_Frame_3">
</g>
<g id="Dashed_Frame_4">
</g>
<g id="Dashed_Frame_5">
</g>
<g id="Dashed_Frame_6">
</g>
<g id="Dashed_Frame_7">
</g>
<g id="Dashed_Frame_8">
</g>
<g id="Dashed_Frame_9">
</g>
<g id="Dashed_Frame_10">
</g>
<g id="Dashed_Frame_11">
</g>
<g id="Dashed_Frame_12">
</g>
<g id="Dashed_Frame_13">
</g>
<g id="Dashed_Frame_14">
</g>
<g id="Dashed_Frame_15">
</g>
<g id="Dashed_Frame_16">
</g>
<g id="Dashed_Frame_17">
</g>
<g id="Dashed_Frame_18">
</g>
<g id="Dashed_Frame_19">
</g>
<g id="Dashed_Frame_20">
</g>
<g id="Dashed_Frame_25">
</g>
<g id="Dashed_Frame_26">
</g>
<g id="Dashed_Frame_27">
</g>
<g id="Dashed_Frame_28">
</g>
<g id="Dashed_Frame_29">
</g>
<g id="Dashed_Frame_30">
</g>
<g id="Dashed_Frame_31">
</g>
<g id="Dashed_Frame_32">
</g>
<g id="Dashed_Frame_33">
</g>
<g id="Dashed_Frame_35">
</g>
</svg>
