<?xml version="1.0" encoding="iso-8859-1"?>
<!-- Generator: Adobe Illustrator 19.2.1, SVG Export Plug-In . SVG Version: 6.00 Build 0)  -->
<svg version="1.1" xmlns="http://www.w3.org/2000/svg" xmlns:xlink="http://www.w3.org/1999/xlink" x="0px" y="0px"
	 viewBox="0 0 24 24" style="enable-background:new 0 0 24 24;" xml:space="preserve">
<g id="Photo_frame">
</g>
<g id="Photo_frame_2">
</g>
<g id="Photo_frame_3">
</g>
<g id="Photo_frame__4">
</g>
<g id="Photo_frame_5">
	<g id="Layer_6">
	</g>
</g>
<g id="Photo_frame_6">
</g>
<g id="Photo_frame_7">
</g>
<g id="Round_Frame_1">
</g>
<g id="Rectangle_Frame_1">
</g>
<g id="Square_Frame_1">
	<g>
		<g>
			<path d="M17.5,4c-0.075,0-0.151-0.017-0.224-0.053L11.5,1.059L5.724,3.947C5.477,4.069,5.177,3.971,5.053,3.724
				C4.93,3.477,5.029,3.176,5.276,3.053l6-3c0.141-0.07,0.307-0.07,0.447,0l6,3c0.247,0.124,0.347,0.424,0.224,0.671
				C17.859,3.899,17.683,4,17.5,4z"/>
		</g>
		<g>
			<path d="M22.5,24h-22C0.224,24,0,23.776,0,23.5v-20C0,3.224,0.224,3,0.5,3h22C22.776,3,23,3.224,23,3.5v20
				C23,23.776,22.776,24,22.5,24z M1,23h21V4H1V23z"/>
		</g>
		<g>
			<path d="M20.5,22h-18C2.224,22,2,21.776,2,21.5v-16C2,5.224,2.224,5,2.5,5h18C20.776,5,21,5.224,21,5.5v16
				C21,21.776,20.776,22,20.5,22z M3,21h17V6H3V21z"/>
		</g>
	</g>
</g>
<g id="Rectangle_Frame_2">
</g>
<g id="Oval_Frame_1">
</g>
<g id="Round_Frame_2">
</g>
<g id="Rectangle_Frame_3">
</g>
<g id="Rectangle_Frame_4">
</g>
<g id="Rectangle_Frame_5">
</g>
<g id="Square_Frame_2">
</g>
<g id="Rectangle_Frame_6">
</g>
<g id="Rectangle_Frame_7">
</g>
<g id="Oval_Frame_2">
</g>
<g id="Round_Frame_3">
</g>
<g id="Rectangle_Frame_8">
</g>
<g id="Square_Frame_3">
</g>
<g id="Rectangle_Frame_9">
</g>
<g id="Rectangle_Frame_10">
</g>
<g id="Square_Frame_4">
</g>
<g id="Rectangle_Frame_11">
</g>
<g id="Rectangle_Frame_12">
</g>
<g id="Square_Frame_5">
</g>
<g id="Rectangle_Frame_13">
</g>
<g id="Frame_1">
</g>
<g id="Frame_2">
</g>
<g id="Round_Frame_4">
</g>
<g id="Frame_3">
</g>
<g id="Frame_4">
</g>
<g id="Frame_5">
</g>
<g id="Frame_6">
</g>
<g id="Frame_7">
</g>
<g id="Frame_8">
</g>
<g id="Frame_9">
</g>
<g id="Frame_10">
</g>
<g id="Frame_11">
</g>
<g id="Frame_12">
</g>
<g id="Frame_13">
</g>
<g id="Frame_14">
</g>
<g id="Frame_15">
</g>
<g id="Frame_16">
</g>
<g id="Frame_17">
</g>
<g id="Frame_18">
</g>
<g id="Frame_19">
</g>
<g id="Frame_20">
</g>
<g id="Frame_21">
</g>
<g id="Frame_22">
</g>
<g id="Frame_23">
</g>
<g id="Frame_24">
</g>
<g id="Frame_25">
</g>
<g id="Frame_26">
</g>
<g id="Frame_27">
</g>
<g id="Frame_28">
</g>
<g id="Frame_29">
</g>
<g id="Frame_30">
</g>
<g id="Frame_Hole_1">
</g>
<g id="Frame_Hole_2">
</g>
<g id="Frame_Hole_3">
</g>
<g id="Frame_Hole_4">
</g>
<g id="Frame_31">
</g>
<g id="Frame_32">
</g>
<g id="Frame_33">
</g>
<g id="Frame_34">
</g>
<g id="Frame_35">
</g>
<g id="Dashed_Frame_1">
</g>
<g id="Dashed_Frame_2">
</g>
<g id="Dashed_Frame_3">
</g>
<g id="Dashed_Frame_4">
</g>
<g id="Dashed_Frame_5">
</g>
<g id="Dashed_Frame_6">
</g>
<g id="Dashed_Frame_7">
</g>
<g id="Dashed_Frame_8">
</g>
<g id="Dashed_Frame_9">
</g>
<g id="Dashed_Frame_10">
</g>
<g id="Dashed_Frame_11">
</g>
<g id="Dashed_Frame_12">
</g>
<g id="Dashed_Frame_13">
</g>
<g id="Dashed_Frame_14">
</g>
<g id="Dashed_Frame_15">
</g>
<g id="Dashed_Frame_16">
</g>
<g id="Dashed_Frame_17">
</g>
<g id="Dashed_Frame_18">
</g>
<g id="Dashed_Frame_19">
</g>
<g id="Dashed_Frame_20">
</g>
<g id="Dashed_Frame_25">
</g>
<g id="Dashed_Frame_26">
</g>
<g id="Dashed_Frame_27">
</g>
<g id="Dashed_Frame_28">
</g>
<g id="Dashed_Frame_29">
</g>
<g id="Dashed_Frame_30">
</g>
<g id="Dashed_Frame_31">
</g>
<g id="Dashed_Frame_32">
</g>
<g id="Dashed_Frame_33">
</g>
<g id="Dashed_Frame_35">
</g>
</svg>
