<?xml version="1.0" encoding="iso-8859-1"?>
<!-- Generator: Adobe Illustrator 19.2.1, SVG Export Plug-In . SVG Version: 6.00 Build 0)  -->
<svg version="1.1" xmlns="http://www.w3.org/2000/svg" xmlns:xlink="http://www.w3.org/1999/xlink" x="0px" y="0px"
	 viewBox="0 0 24 24" style="enable-background:new 0 0 24 24;" xml:space="preserve">
<g id="Credit_Card">
</g>
<g id="Banknote">
</g>
<g id="Wallet">
</g>
<g id="Compass">
</g>
<g id="Camera_1">
</g>
<g id="Photo">
</g>
<g id="Picture">
</g>
<g id="Camera_2">
</g>
<g id="No_Camera">
</g>
<g id="Video">
</g>
<g id="Audio">
</g>
<g id="Microphone_1">
</g>
<g id="Microphone_2">
</g>
<g id="No_Microphone">
</g>
<g id="Shopping_Cart">
</g>
<g id="Add_Shopping_Cart">
</g>
<g id="Remove_Shopping_Cart">
</g>
<g id="Shopping_Basket">
</g>
<g id="Jing-Jang">
</g>
<g id="Leaf">
</g>
<g id="Glass">
</g>
<g id="Cup">
</g>
<g id="Mug">
</g>
<g id="Refresh">
</g>
<g id="Login">
</g>
<g id="Logout">
</g>
<g id="Flowchart">
</g>
<g id="Pin_1">
</g>
<g id="Pin_2">
</g>
<g id="User_1">
</g>
<g id="User_2">
</g>
<g id="Users">
</g>
<g id="Adjustments">
</g>
<g id="Type">
</g>
<g id="Format_Size">
</g>
<g id="Menu_1">
</g>
<g id="Other">
</g>
<g id="Flash">
</g>
<g id="No_Flash">
</g>
<g id="Switch_Button_1">
</g>
<g id="Switch_Button_2">
</g>
<g id="Cut">
</g>
<g id="Crop">
</g>
<g id="Sun">
</g>
<g id="USB">
</g>
<g id="Pie_Chart_1">
</g>
<g id="Pie_Chart_2">
</g>
<g id="Line_Chart">
</g>
<g id="Bar_Chart">
</g>
<g id="Target">
</g>
<g id="Flashlight">
</g>
<g id="USB_Device">
</g>
<g id="Eject">
</g>
<g id="Lightbulb">
</g>
<g id="Information">
</g>
<g id="Deactivate_Protection">
</g>
<g id="Active_Protection">
</g>
<g id="Bug">
</g>
<g id="Protection">
</g>
<g id="Phone">
</g>
<g id="List">
</g>
<g id="Plugin_1">
</g>
<g id="Bookmarrk">
</g>
<g id="Handshake">
</g>
<g id="Minimize">
</g>
<g id="Maximize">
</g>
<g id="Diamond">
</g>
<g id="Stop">
</g>
<g id="Shuffle">
</g>
<g id="Undo">
</g>
<g id="Upgrade">
</g>
<g id="Coding">
</g>
<g id="Syncronizaion">
</g>
<g id="Radio">
</g>
<g id="Presentation">
</g>
<g id="Door">
</g>
<g id="Thumbs_Up">
</g>
<g id="Thumbs_Down">
</g>
<g id="Keyboard">
</g>
<g id="_x33_D_Cube">
	<g>
		<g>
			<path d="M11.506,24c-0.084,0-0.167-0.021-0.243-0.063l-9.006-5C2.099,18.849,2,18.682,2,18.5v-10
				c0-0.182,0.099-0.349,0.257-0.438l9.006-5c0.152-0.084,0.334-0.085,0.486,0.001l8.994,5C20.901,8.151,21,8.318,21,8.5v10
				c0,0.182-0.099,0.349-0.257,0.437l-8.994,5C11.673,23.979,11.59,24,11.506,24z M3,18.206l8.506,4.722L20,18.206V8.794
				l-8.494-4.722L3,8.794V18.206z"/>
		</g>
		<g>
			<path d="M11.506,24c-0.276,0-0.5-0.224-0.5-0.5v-9.706L2.257,8.938C2.093,8.846,2,8.675,2,8.499c0-0.082,0.021-0.165,0.063-0.242
				c0.136-0.242,0.44-0.325,0.681-0.194l8.763,4.865l8.751-4.864c0.239-0.134,0.545-0.048,0.68,0.193s0.048,0.546-0.193,0.68
				l-8.737,4.857V23.5C12.006,23.776,11.782,24,11.506,24z"/>
		</g>
		<g>
			<path d="M11.5,3c-0.001,0-0.001,0-0.002,0C11.222,2.999,10.999,2.774,11,2.498l0.004-0.785l-0.142,0.141
				c-0.195,0.195-0.512,0.195-0.707,0c-0.098-0.098-0.146-0.226-0.146-0.354s0.049-0.256,0.146-0.354l1-1l0.001-0.001
				c0.09-0.09,0.205-0.138,0.322-0.145l0,0C11.479,0.003,11.498,0,11.509,0c0.021,0,0.042,0.001,0.063,0.004
				c0.094,0.012,0.185,0.05,0.261,0.115c0.012,0.01,0.022,0.02,0.033,0.03l0.997,0.997c0.195,0.195,0.195,0.512,0,0.707
				s-0.512,0.195-0.707,0l-0.151-0.151L12,2.502C11.999,2.777,11.775,3,11.5,3z"/>
		</g>
		<g>
			<path d="M22.5,22c-0.001,0-0.002,0-0.004,0h-1.41c-0.276,0-0.5-0.224-0.5-0.5s0.224-0.5,0.5-0.5h0.207l-0.646-0.646
				c-0.195-0.195-0.195-0.512,0-0.707s0.512-0.195,0.707,0L22,20.293V20c0-0.276,0.224-0.5,0.5-0.5S23,19.724,23,20v1.5v0.001
				c0,0.001,0,0.001,0,0.001v0.001c0,0,0,0,0,0.001l0,0c0,0.001,0,0.001,0,0.002l0,0c-0.002,0.122-0.047,0.234-0.121,0.32
				l-0.001,0.001l0,0c-0.022,0.025-0.047,0.049-0.074,0.07c-0.075,0.058-0.168,0.095-0.269,0.102C22.523,22,22.512,22,22.5,22z"/>
		</g>
		<g>
			<path d="M0.5,22c-0.012,0-0.023,0-0.035-0.001c-0.101-0.007-0.193-0.044-0.269-0.102c-0.027-0.021-0.052-0.045-0.074-0.07l0,0
				l-0.001-0.001C0.047,21.74,0.002,21.628,0,21.506l0,0c0-0.001,0-0.001,0-0.002l0,0c0-0.001,0-0.001,0-0.001v-0.001
				c0,0,0,0,0-0.001V21.5v-1.414c0-0.276,0.224-0.5,0.5-0.5S1,19.81,1,20.086v0.207l0.646-0.646c0.195-0.195,0.512-0.195,0.707,0
				s0.195,0.512,0,0.707L1.707,21h0.207c0.276,0,0.5,0.224,0.5,0.5S2.19,22,1.914,22h-1.41C0.502,22,0.501,22,0.5,22z"/>
		</g>
	</g>
</g>
<g id="Signal">
</g>
<g id="Dice">
</g>
<g id="Upload">
</g>
<g id="Download">
</g>
<g id="Plugin_2">
</g>
<g id="Shopping_Bag">
</g>
<g id="Lifebelt">
</g>
<g id="Glasses">
</g>
<g id="Parabolic_Antenna">
</g>
<g id="Loudspeaker">
</g>
<g id="Play">
</g>
<g id="Pause">
</g>
<g id="Signpost">
</g>
<g id="Bluetooth">
</g>
<g id="Present">
</g>
<g id="Ruler">
</g>
<g id="Connection">
</g>
<g id="Money">
</g>
<g id="Paper_Plane">
</g>
<g id="Wallet_2">
</g>
</svg>
