<?xml version="1.0" encoding="iso-8859-1"?>
<!-- Generator: Adobe Illustrator 19.2.1, SVG Export Plug-In . SVG Version: 6.00 Build 0)  -->
<svg version="1.1" xmlns="http://www.w3.org/2000/svg" xmlns:xlink="http://www.w3.org/1999/xlink" x="0px" y="0px"
	 viewBox="0 0 24 24" style="enable-background:new 0 0 24 24;" xml:space="preserve">
<g id="Mail">
</g>
<g id="Open_Mail">
</g>
<g id="Mail_Attachmet">
</g>
<g id="Mails">
</g>
<g id="Trash">
</g>
<g id="Trash_Full">
</g>
<g id="Preferences_1">
</g>
<g id="Preferences_2">
</g>
<g id="Mouse">
</g>
<g id="Computer">
</g>
<g id="Notebook">
</g>
<g id="Mobile_Phone">
</g>
<g id="Print">
</g>
<g id="Calculator">
</g>
<g id="Tag">
</g>
<g id="Paperclip">
</g>
<g id="Heart">
</g>
<g id="Lock">
</g>
<g id="Lock_Open">
</g>
<g id="Key_1">
</g>
<g id="Star">
</g>
<g id="Add">
</g>
<g id="Remove">
</g>
<g id="Error">
</g>
<g id="Check_1">
</g>
<g id="Time">
</g>
<g id="Question_Mark">
</g>
<g id="Error_Mark">
</g>
<g id="Sand-Glass">
</g>
<g id="Battery_Full">
</g>
<g id="Battery_Charge">
</g>
<g id="Battery_Half">
</g>
<g id="Battery_Low">
</g>
<g id="No_Battery">
</g>
<g id="Key_2">
</g>
<g id="Link">
</g>
<g id="Brake_Link">
</g>
<g id="Pencil">
</g>
<g id="At">
</g>
<g id="Reply">
</g>
<g id="Accessible">
	<g>
		<g>
			<path d="M18.979,24c-0.995,0-1.835-0.712-2-1.693l-0.835-3.866C16.099,18.176,15.892,18,15.646,18h-3.153
				c-1.93,0-3.5-1.57-3.5-3.5v-6c0-0.827,0.673-1.5,1.5-1.5h1.172c0.667,0,1.295,0.26,1.768,0.732l2.122,2.121
				C15.647,9.947,15.776,10,15.908,10h1.585c0.827,0,1.5,0.673,1.5,1.5s-0.673,1.5-1.5,1.5h-2.171c-0.667,0-1.295-0.26-1.768-0.732
				l-0.561-0.561V13.5c0,0.276,0.224,0.5,0.5,0.5h3.315c1.786,0,3.282,1.338,3.479,3.114l0.704,4.615
				c0.066,0.592-0.117,1.167-0.501,1.596C20.106,23.754,19.555,24,18.979,24z M10.493,8c-0.276,0-0.5,0.224-0.5,0.5v6
				c0,1.378,1.122,2.5,2.5,2.5h3.153c0.736,0,1.358,0.527,1.479,1.253l0.835,3.866C18.049,22.639,18.475,23,18.979,23
				c0.296,0,0.568-0.122,0.766-0.342c0.198-0.22,0.288-0.504,0.255-0.798l-0.704-4.615C19.152,15.956,18.084,15,16.808,15h-3.315
				c-0.827,0-1.5-0.673-1.5-1.5v-3c0-0.202,0.122-0.384,0.309-0.462c0.188-0.078,0.401-0.034,0.545,0.108l1.415,1.414
				C14.541,11.84,14.927,12,15.322,12h2.171c0.276,0,0.5-0.224,0.5-0.5s-0.224-0.5-0.5-0.5h-1.585c-0.4,0-0.777-0.156-1.061-0.439
				l-2.122-2.121C12.446,8.16,12.06,8,11.665,8H10.493z"/>
		</g>
		<g>
			<path d="M10.993,6c-1.654,0-3-1.346-3-3s1.346-3,3-3s3,1.346,3,3S12.647,6,10.993,6z M10.993,1c-1.103,0-2,0.897-2,2s0.897,2,2,2
				s2-0.897,2-2S12.096,1,10.993,1z"/>
		</g>
		<g>
			<path d="M8.493,24c-3.584,0-6.5-2.916-6.5-6.5c0-3.182,2.278-5.875,5.417-6.403c0.275-0.044,0.53,0.138,0.576,0.41
				c0.046,0.272-0.138,0.53-0.41,0.576C4.92,12.53,2.993,14.808,2.993,17.5c0,3.033,2.467,5.5,5.5,5.5
				c2.322,0,4.404-1.474,5.18-3.667c0.092-0.26,0.378-0.397,0.638-0.304c0.26,0.092,0.396,0.377,0.304,0.638
				C13.699,22.259,11.238,24,8.493,24z"/>
		</g>
	</g>
</g>
<g id="Up_Arrow">
</g>
<g id="Brush">
</g>
<g id="Design_Mug">
</g>
<g id="Design">
</g>
<g id="Server">
</g>
<g id="Database">
</g>
<g id="Save">
</g>
<g id="Female">
</g>
<g id="Male">
</g>
<g id="Book">
</g>
<g id="Power">
</g>
<g id="Reload">
</g>
<g id="Map">
</g>
<g id="Loction_1">
</g>
<g id="Location_2">
</g>
<g id="Globe">
</g>
<g id="Suitcase">
</g>
<g id="Callendar">
</g>
<g id="Cloud_Off">
</g>
<g id="File_1">
</g>
<g id="File_2">
</g>
<g id="Folder">
</g>
<g id="Open_Folder">
</g>
<g id="Cloud">
</g>
<g id="Upload_Cloud">
</g>
<g id="Download_Cloud">
</g>
<g id="Eye">
</g>
<g id="Invisible">
</g>
<g id="Assignment">
</g>
<g id="Note_Book">
</g>
<g id="Webpage">
</g>
<g id="Mailbox">
</g>
<g id="Drive">
</g>
<g id="Disc">
</g>
<g id="Wifi_1">
</g>
<g id="Wifi_2">
</g>
<g id="Archive">
</g>
<g id="Archive_File">
</g>
<g id="News">
</g>
<g id="Home">
</g>
<g id="Collaboration">
</g>
<g id="Announcement">
</g>
<g id="Watch">
</g>
<g id="Clock">
</g>
<g id="Volume">
</g>
<g id="Mute">
</g>
<g id="Hand">
</g>
<g id="Layers">
</g>
<g id="Bell">
</g>
<g id="Speach_Bubble">
</g>
<g id="Speach_Bubbles">
</g>
<g id="Zoom_In">
</g>
<g id="Zoom_Out">
</g>
<g id="Search">
</g>
<g id="Back_Arrow">
</g>
<g id="Close">
</g>
<g id="Check_2">
</g>
<g id="Left_Arrow_2">
</g>
<g id="Right_Arrow_2">
</g>
</svg>
