<?xml version="1.0" encoding="iso-8859-1"?>
<!-- Generator: Adobe Illustrator 19.2.1, SVG Export Plug-In . SVG Version: 6.00 Build 0)  -->
<svg version="1.1" xmlns="http://www.w3.org/2000/svg" xmlns:xlink="http://www.w3.org/1999/xlink" x="0px" y="0px"
	 viewBox="0 0 24 24" style="enable-background:new 0 0 24 24;" xml:space="preserve">
<g id="Credit_Card">
</g>
<g id="Banknote">
</g>
<g id="Wallet">
</g>
<g id="Compass">
</g>
<g id="Camera_1">
</g>
<g id="Photo">
</g>
<g id="Picture">
</g>
<g id="Camera_2">
</g>
<g id="No_Camera">
</g>
<g id="Video">
</g>
<g id="Audio">
</g>
<g id="Microphone_1">
</g>
<g id="Microphone_2">
</g>
<g id="No_Microphone">
</g>
<g id="Shopping_Cart">
</g>
<g id="Add_Shopping_Cart">
</g>
<g id="Remove_Shopping_Cart">
</g>
<g id="Shopping_Basket">
</g>
<g id="Jing-Jang">
</g>
<g id="Leaf">
</g>
<g id="Glass">
</g>
<g id="Cup">
</g>
<g id="Mug">
</g>
<g id="Refresh">
</g>
<g id="Login">
</g>
<g id="Logout">
</g>
<g id="Flowchart">
</g>
<g id="Pin_1">
</g>
<g id="Pin_2">
</g>
<g id="User_1">
</g>
<g id="User_2">
</g>
<g id="Users">
</g>
<g id="Adjustments">
	<g>
		<g>
			<path d="M4.5,10h-2C1.122,10,0,8.878,0,7.5v-2C0,4.122,1.122,3,2.5,3h2C5.878,3,7,4.122,7,5.5v2C7,8.878,5.878,10,4.5,10z M2.5,4
				C1.673,4,1,4.673,1,5.5v2C1,8.327,1.673,9,2.5,9h2C5.327,9,6,8.327,6,7.5v-2C6,4.673,5.327,4,4.5,4H2.5z"/>
		</g>
		<g>
			<path d="M20.5,22h-2c-1.378,0-2.5-1.122-2.5-2.5v-2c0-1.378,1.122-2.5,2.5-2.5h2c1.378,0,2.5,1.122,2.5,2.5v2
				C23,20.878,21.878,22,20.5,22z M18.5,16c-0.827,0-1.5,0.673-1.5,1.5v2c0,0.827,0.673,1.5,1.5,1.5h2c0.827,0,1.5-0.673,1.5-1.5v-2
				c0-0.827-0.673-1.5-1.5-1.5H18.5z"/>
		</g>
		<g>
			<path d="M12.5,16h-2C9.122,16,8,14.878,8,13.5v-2C8,10.122,9.122,9,10.5,9h2c1.378,0,2.5,1.122,2.5,2.5v2
				C15,14.878,13.878,16,12.5,16z M10.5,10C9.673,10,9,10.673,9,11.5v2c0,0.827,0.673,1.5,1.5,1.5h2c0.827,0,1.5-0.673,1.5-1.5v-2
				c0-0.827-0.673-1.5-1.5-1.5H10.5z"/>
		</g>
		<g>
			<path d="M3.5,4C3.224,4,3,3.776,3,3.5v-2C3,1.224,3.224,1,3.5,1S4,1.224,4,1.5v2C4,3.776,3.776,4,3.5,4z"/>
		</g>
		<g>
			<path d="M3.5,24C3.224,24,3,23.776,3,23.5v-14C3,9.224,3.224,9,3.5,9S4,9.224,4,9.5v14C4,23.776,3.776,24,3.5,24z"/>
		</g>
		<g>
			<path d="M11.5,24c-0.276,0-0.5-0.224-0.5-0.5v-8c0-0.276,0.224-0.5,0.5-0.5s0.5,0.224,0.5,0.5v8C12,23.776,11.776,24,11.5,24z"/>
		</g>
		<g>
			<path d="M11.5,10C11.224,10,11,9.776,11,9.5v-8C11,1.224,11.224,1,11.5,1S12,1.224,12,1.5v8C12,9.776,11.776,10,11.5,10z"/>
		</g>
		<g>
			<path d="M19.5,16c-0.276,0-0.5-0.224-0.5-0.5v-14C19,1.224,19.224,1,19.5,1S20,1.224,20,1.5v14C20,15.776,19.776,16,19.5,16z"/>
		</g>
		<g>
			<path d="M19.5,24c-0.276,0-0.5-0.224-0.5-0.5v-2c0-0.276,0.224-0.5,0.5-0.5s0.5,0.224,0.5,0.5v2C20,23.776,19.776,24,19.5,24z"/>
		</g>
	</g>
</g>
<g id="Type">
</g>
<g id="Format_Size">
</g>
<g id="Menu_1">
</g>
<g id="Other">
</g>
<g id="Flash">
</g>
<g id="No_Flash">
</g>
<g id="Switch_Button_1">
</g>
<g id="Switch_Button_2">
</g>
<g id="Cut">
</g>
<g id="Crop">
</g>
<g id="Sun">
</g>
<g id="USB">
</g>
<g id="Pie_Chart_1">
</g>
<g id="Pie_Chart_2">
</g>
<g id="Line_Chart">
</g>
<g id="Bar_Chart">
</g>
<g id="Target">
</g>
<g id="Flashlight">
</g>
<g id="USB_Device">
</g>
<g id="Eject">
</g>
<g id="Lightbulb">
</g>
<g id="Information">
</g>
<g id="Deactivate_Protection">
</g>
<g id="Active_Protection">
</g>
<g id="Bug">
</g>
<g id="Protection">
</g>
<g id="Phone">
</g>
<g id="List">
</g>
<g id="Plugin_1">
</g>
<g id="Bookmarrk">
</g>
<g id="Handshake">
</g>
<g id="Minimize">
</g>
<g id="Maximize">
</g>
<g id="Diamond">
</g>
<g id="Stop">
</g>
<g id="Shuffle">
</g>
<g id="Undo">
</g>
<g id="Upgrade">
</g>
<g id="Coding">
</g>
<g id="Syncronizaion">
</g>
<g id="Radio">
</g>
<g id="Presentation">
</g>
<g id="Door">
</g>
<g id="Thumbs_Up">
</g>
<g id="Thumbs_Down">
</g>
<g id="Keyboard">
</g>
<g id="_x33_D_Cube">
</g>
<g id="Signal">
</g>
<g id="Dice">
</g>
<g id="Upload">
</g>
<g id="Download">
</g>
<g id="Plugin_2">
</g>
<g id="Shopping_Bag">
</g>
<g id="Lifebelt">
</g>
<g id="Glasses">
</g>
<g id="Parabolic_Antenna">
</g>
<g id="Loudspeaker">
</g>
<g id="Play">
</g>
<g id="Pause">
</g>
<g id="Signpost">
</g>
<g id="Bluetooth">
</g>
<g id="Present">
</g>
<g id="Ruler">
</g>
<g id="Connection">
</g>
<g id="Money">
</g>
<g id="Paper_Plane">
</g>
<g id="Wallet_2">
</g>
</svg>
