<?xml version="1.0" encoding="iso-8859-1"?>
<!-- Generator: Adobe Illustrator 19.2.1, SVG Export Plug-In . SVG Version: 6.00 Build 0)  -->
<svg version="1.1" xmlns="http://www.w3.org/2000/svg" xmlns:xlink="http://www.w3.org/1999/xlink" x="0px" y="0px"
	 viewBox="0 0 24 24" style="enable-background:new 0 0 24 24;" xml:space="preserve">
<g id="Flag">
</g>
<g id="Umbrella">
</g>
<g id="Briefcase">
</g>
<g id="Box">
</g>
<g id="Magnet">
</g>
<g id="Percent">
</g>
<g id="Rocket">
</g>
<g id="Share">
</g>
<g id="Transmitter">
</g>
<g id="Record_2">
</g>
<g id="Record_1">
</g>
<g id="Anchor">
</g>
<g id="Airplane">
	<g>
		<path d="M16.5,24c-0.036,0-0.073-0.004-0.108-0.012L12,23.013l-4.392,0.976c-0.146,0.033-0.302-0.003-0.421-0.098
			C7.069,23.795,7,23.652,7,23.5v-1c0-0.168,0.084-0.325,0.225-0.417l3.501-2.313l-0.159-1.571
			c-0.154-1.538-0.281-2.802-0.374-4.317L0.77,19.921c-0.153,0.1-0.349,0.106-0.509,0.018C0.1,19.852,0,19.683,0,19.5v-1.171
			c0-0.667,0.26-1.295,0.732-1.768L10,7.293v-4.11c0-0.649,0.144-1.303,0.417-1.892l0.233-0.445C10.887,0.333,11.409,0,12,0
			s1.113,0.333,1.361,0.87l0.211,0.399C13.856,1.88,14,2.534,14,3.183v4.11l9.271,9.271c0.47,0.47,0.729,1.097,0.729,1.765V19.5
			c0,0.183-0.1,0.351-0.26,0.438c-0.159,0.088-0.354,0.082-0.509-0.018l-9.424-6.038c-0.093,1.514-0.219,2.777-0.374,4.313
			l-0.159,1.577l3.501,2.309C16.916,22.176,17,22.333,17,22.5v1c0,0.152-0.069,0.295-0.187,0.39C16.723,23.962,16.613,24,16.5,24z
			 M12,22c0.036,0,0.073,0.004,0.108,0.012L16,22.877V22.77l-3.53-2.328c-0.156-0.103-0.241-0.284-0.222-0.469l0.19-1.875
			c0.188-1.874,0.323-3.227,0.417-5.121c0.009-0.178,0.112-0.338,0.271-0.42c0.158-0.081,0.35-0.072,0.499,0.023L23,18.586v-0.257
			c0-0.401-0.155-0.776-0.436-1.058l-9.417-9.417C13.053,7.76,13,7.633,13,7.5V3.183c0-0.505-0.112-1.014-0.324-1.471l-0.211-0.4
			C12.329,1.021,12.075,1,12,1s-0.329,0.021-0.454,0.29l-0.233,0.445C11.112,2.169,11,2.678,11,3.183V7.5
			c0,0.133-0.053,0.26-0.146,0.354l-9.414,9.415C1.16,17.548,1,17.935,1,18.329v0.257l9.376-6.008
			c0.15-0.096,0.34-0.104,0.499-0.023c0.159,0.082,0.262,0.242,0.271,0.42c0.093,1.895,0.229,3.25,0.417,5.125l0.189,1.868
			c0.02,0.186-0.066,0.367-0.222,0.469L8,22.77v0.107l3.892-0.865C11.927,22.004,11.964,22,12,22z"/>
	</g>
</g>
<g id="Car">
</g>
<g id="Newsfeed">
</g>
<g id="Wifi_Tethering">
</g>
<g id="No_Wifi_Tethering">
</g>
<g id="Bar_Chart_2">
</g>
<g id="Shop">
</g>
<g id="Alarm">
</g>
<g id="Sim_Card">
</g>
<g id="Radar">
</g>
<g id="Hand_2">
</g>
<g id="Palette">
</g>
<g id="Cake">
</g>
<g id="Blende">
</g>
<g id="Feather_Pen">
</g>
<g id="Ticket">
</g>
<g id="Medal">
</g>
<g id="Mouse_Pointer_1">
</g>
<g id="Mouse_Pointer_2">
</g>
<g id="Fingerprint">
</g>
<g id="Earth">
</g>
</svg>
