<?xml version="1.0" encoding="iso-8859-1"?>
<!-- Generator: Adobe Illustrator 19.2.1, SVG Export Plug-In . SVG Version: 6.00 Build 0)  -->
<svg version="1.1" xmlns="http://www.w3.org/2000/svg" xmlns:xlink="http://www.w3.org/1999/xlink" x="0px" y="0px"
	 viewBox="0 0 24 24" style="enable-background:new 0 0 24 24;" xml:space="preserve">
<g id="Flag">
</g>
<g id="Umbrella">
</g>
<g id="Briefcase">
</g>
<g id="Box">
</g>
<g id="Magnet">
</g>
<g id="Percent">
</g>
<g id="Rocket">
</g>
<g id="Share">
</g>
<g id="Transmitter">
</g>
<g id="Record_2">
</g>
<g id="Record_1">
</g>
<g id="Anchor">
</g>
<g id="Airplane">
</g>
<g id="Car">
</g>
<g id="Newsfeed">
</g>
<g id="Wifi_Tethering">
</g>
<g id="No_Wifi_Tethering">
</g>
<g id="Bar_Chart_2">
</g>
<g id="Shop">
</g>
<g id="Alarm">
	<g>
		<g>
			<path d="M11.5,22C6.262,22,2,17.738,2,12.5S6.262,3,11.5,3S21,7.262,21,12.5S16.738,22,11.5,22z M11.5,4C6.813,4,3,7.813,3,12.5
				S6.813,21,11.5,21s8.5-3.813,8.5-8.5S16.187,4,11.5,4z"/>
		</g>
		<g>
			<path d="M1.116,9.403c-0.176,0-0.347-0.093-0.438-0.259C0.234,8.338,0,7.424,0,6.5C0,3.467,2.468,1,5.5,1
				c0.921,0,1.835,0.234,2.644,0.678c0.242,0.133,0.331,0.437,0.198,0.679C8.209,2.6,7.903,2.687,7.663,2.555
				C7.001,2.192,6.254,2,5.5,2C3.019,2,1,4.019,1,6.5c0,0.756,0.191,1.503,0.555,2.162C1.688,8.904,1.6,9.208,1.357,9.341
				C1.281,9.383,1.198,9.403,1.116,9.403z"/>
		</g>
		<g>
			<path d="M21.884,9.403c-0.082,0-0.165-0.02-0.241-0.062c-0.242-0.133-0.33-0.437-0.197-0.679C21.809,8.003,22,7.256,22,6.5
				C22,4.019,19.981,2,17.5,2c-0.754,0-1.501,0.192-2.163,0.555c-0.24,0.13-0.546,0.045-0.679-0.198
				c-0.133-0.242-0.044-0.546,0.198-0.679C15.665,1.234,16.579,1,17.5,1C20.532,1,23,3.467,23,6.5c0,0.924-0.234,1.838-0.678,2.645
				C22.23,9.31,22.06,9.403,21.884,9.403z"/>
		</g>
		<g>
			<path d="M14.5,16c-0.128,0-0.256-0.049-0.354-0.146l-3-3C11.053,12.76,11,12.633,11,12.5v-6C11,6.224,11.224,6,11.5,6
				S12,6.224,12,6.5v5.793l2.854,2.854c0.195,0.195,0.195,0.512,0,0.707C14.756,15.951,14.628,16,14.5,16z"/>
		</g>
	</g>
</g>
<g id="Sim_Card">
</g>
<g id="Radar">
</g>
<g id="Hand_2">
</g>
<g id="Palette">
</g>
<g id="Cake">
</g>
<g id="Blende">
</g>
<g id="Feather_Pen">
</g>
<g id="Ticket">
</g>
<g id="Medal">
</g>
<g id="Mouse_Pointer_1">
</g>
<g id="Mouse_Pointer_2">
</g>
<g id="Fingerprint">
</g>
<g id="Earth">
</g>
</svg>
