<?xml version="1.0" encoding="iso-8859-1"?>
<!-- Generator: Adobe Illustrator 19.2.1, SVG Export Plug-In . SVG Version: 6.00 Build 0)  -->
<svg version="1.1" xmlns="http://www.w3.org/2000/svg" xmlns:xlink="http://www.w3.org/1999/xlink" x="0px" y="0px"
	 viewBox="0 0 24 24" style="enable-background:new 0 0 24 24;" xml:space="preserve">
<g id="Flag">
</g>
<g id="Umbrella">
</g>
<g id="Briefcase">
</g>
<g id="Box">
</g>
<g id="Magnet">
</g>
<g id="Percent">
</g>
<g id="Rocket">
</g>
<g id="Share">
</g>
<g id="Transmitter">
</g>
<g id="Record_2">
</g>
<g id="Record_1">
</g>
<g id="Anchor">
	<g>
		<g>
			<path d="M11.5,5C10.122,5,9,3.878,9,2.5S10.122,0,11.5,0S14,1.122,14,2.5S12.878,5,11.5,5z M11.5,1C10.673,1,10,1.673,10,2.5
				S10.673,4,11.5,4S13,3.327,13,2.5S12.327,1,11.5,1z"/>
		</g>
		<g>
			<path d="M15.5,12.979h-8c-0.276,0-0.5-0.224-0.5-0.5s0.224-0.5,0.5-0.5h8c0.276,0,0.5,0.224,0.5,0.5S15.776,12.979,15.5,12.979z"
				/>
		</g>
		<g>
			<path d="M11.5,23.5c-0.276,0-0.5-0.224-0.5-0.5V4.5C11,4.224,11.224,4,11.5,4S12,4.224,12,4.5V23
				C12,23.276,11.776,23.5,11.5,23.5z"/>
		</g>
		<g>
			<path d="M11.5,24c-4.548,0-8.924-2.386-11.419-6.228c-0.116-0.178-0.106-0.41,0.024-0.578c0.13-0.168,0.352-0.236,0.554-0.168
				l3,1c0.262,0.087,0.403,0.37,0.316,0.632c-0.087,0.262-0.368,0.403-0.632,0.316l-1.495-0.498C4.23,21.297,7.804,23,11.5,23
				c3.862,0,7.391-1.674,9.708-4.542l-1.55,0.517c-0.263,0.087-0.545-0.054-0.632-0.316c-0.087-0.262,0.054-0.545,0.316-0.632l3-1
				c0.2-0.068,0.42-0.001,0.551,0.164c0.13,0.166,0.144,0.395,0.032,0.574C20.5,21.668,16.229,24,11.5,24z"/>
		</g>
	</g>
</g>
<g id="Airplane">
</g>
<g id="Car">
</g>
<g id="Newsfeed">
</g>
<g id="Wifi_Tethering">
</g>
<g id="No_Wifi_Tethering">
</g>
<g id="Bar_Chart_2">
</g>
<g id="Shop">
</g>
<g id="Alarm">
</g>
<g id="Sim_Card">
</g>
<g id="Radar">
</g>
<g id="Hand_2">
</g>
<g id="Palette">
</g>
<g id="Cake">
</g>
<g id="Blende">
</g>
<g id="Feather_Pen">
</g>
<g id="Ticket">
</g>
<g id="Medal">
</g>
<g id="Mouse_Pointer_1">
</g>
<g id="Mouse_Pointer_2">
</g>
<g id="Fingerprint">
</g>
<g id="Earth">
</g>
</svg>
