<?xml version="1.0" encoding="iso-8859-1"?>
<!-- Generator: Adobe Illustrator 19.2.1, SVG Export Plug-In . SVG Version: 6.00 Build 0)  -->
<svg version="1.1" xmlns="http://www.w3.org/2000/svg" xmlns:xlink="http://www.w3.org/1999/xlink" x="0px" y="0px"
	 viewBox="0 0 24 24" style="enable-background:new 0 0 24 24;" xml:space="preserve">
<g id="Mail">
</g>
<g id="Open_Mail">
</g>
<g id="Mail_Attachmet">
</g>
<g id="Mails">
</g>
<g id="Trash">
</g>
<g id="Trash_Full">
</g>
<g id="Preferences_1">
</g>
<g id="Preferences_2">
</g>
<g id="Mouse">
</g>
<g id="Computer">
</g>
<g id="Notebook">
</g>
<g id="Mobile_Phone">
</g>
<g id="Print">
</g>
<g id="Calculator">
</g>
<g id="Tag">
</g>
<g id="Paperclip">
</g>
<g id="Heart">
</g>
<g id="Lock">
</g>
<g id="Lock_Open">
</g>
<g id="Key_1">
</g>
<g id="Star">
</g>
<g id="Add">
</g>
<g id="Remove">
</g>
<g id="Error">
</g>
<g id="Check_1">
</g>
<g id="Time">
</g>
<g id="Question_Mark">
</g>
<g id="Error_Mark">
</g>
<g id="Sand-Glass">
</g>
<g id="Battery_Full">
</g>
<g id="Battery_Charge">
</g>
<g id="Battery_Half">
</g>
<g id="Battery_Low">
</g>
<g id="No_Battery">
</g>
<g id="Key_2">
</g>
<g id="Link">
</g>
<g id="Brake_Link">
</g>
<g id="Pencil">
</g>
<g id="At">
</g>
<g id="Reply">
</g>
<g id="Accessible">
</g>
<g id="Up_Arrow">
</g>
<g id="Brush">
</g>
<g id="Design_Mug">
</g>
<g id="Design">
</g>
<g id="Server">
</g>
<g id="Database">
</g>
<g id="Save">
</g>
<g id="Female">
</g>
<g id="Male">
</g>
<g id="Book">
</g>
<g id="Power">
</g>
<g id="Reload">
</g>
<g id="Map">
</g>
<g id="Loction_1">
</g>
<g id="Location_2">
</g>
<g id="Globe">
</g>
<g id="Suitcase">
</g>
<g id="Callendar">
</g>
<g id="Cloud_Off">
</g>
<g id="File_1">
</g>
<g id="File_2">
</g>
<g id="Folder">
</g>
<g id="Open_Folder">
</g>
<g id="Cloud">
</g>
<g id="Upload_Cloud">
</g>
<g id="Download_Cloud">
</g>
<g id="Eye">
</g>
<g id="Invisible">
</g>
<g id="Assignment">
</g>
<g id="Note_Book">
</g>
<g id="Webpage">
</g>
<g id="Mailbox">
</g>
<g id="Drive">
</g>
<g id="Disc">
</g>
<g id="Wifi_1">
</g>
<g id="Wifi_2">
</g>
<g id="Archive">
</g>
<g id="Archive_File">
</g>
<g id="News">
</g>
<g id="Home">
</g>
<g id="Collaboration">
</g>
<g id="Announcement">
	<g>
		<g>
			<path d="M19.5,23.5c-0.13,0-0.258-0.051-0.354-0.146L14.293,18.5H3.5C1.57,18.5,0,16.93,0,15V4c0-1.93,1.57-3.5,3.5-3.5h16
				C21.43,0.5,23,2.07,23,4v11c0,1.76-1.306,3.221-3,3.465V23c0,0.202-0.122,0.385-0.309,0.462C19.629,23.487,19.564,23.5,19.5,23.5
				z M3.5,1.5C2.122,1.5,1,2.621,1,4v11c0,1.379,1.122,2.5,2.5,2.5h11c0.133,0,0.26,0.053,0.354,0.146L19,21.793V18
				c0-0.276,0.224-0.5,0.5-0.5c1.378,0,2.5-1.121,2.5-2.5V4c0-1.379-1.122-2.5-2.5-2.5H3.5z"/>
		</g>
		<g>
			<path d="M11.5,15.5c-0.827,0-1.5-0.673-1.5-1.5s0.673-1.5,1.5-1.5S13,13.173,13,14S12.327,15.5,11.5,15.5z M11.5,13.5
				c-0.276,0-0.5,0.225-0.5,0.5s0.224,0.5,0.5,0.5S12,14.275,12,14S11.776,13.5,11.5,13.5z"/>
		</g>
		<g>
			<path d="M11.5,11.5c-0.827,0-1.515-0.641-1.573-1.459L9.504,5.114C9.475,4.692,9.62,4.281,9.903,3.978
				C10.186,3.674,10.585,3.5,11,3.5h1c0.415,0,0.815,0.174,1.098,0.478s0.428,0.715,0.398,1.129l-0.431,4.942
				C13.008,10.859,12.32,11.5,11.5,11.5z M11,4.5c-0.14,0-0.27,0.057-0.366,0.159s-0.143,0.236-0.133,0.377l0.422,4.927
				c0.022,0.305,0.271,0.537,0.569,0.537c0.305,0,0.555-0.232,0.576-0.529L12.5,5.028c0.009-0.133-0.038-0.267-0.134-0.369
				S12.14,4.5,12,4.5H11z"/>
		</g>
	</g>
</g>
<g id="Watch">
</g>
<g id="Clock">
</g>
<g id="Volume">
</g>
<g id="Mute">
</g>
<g id="Hand">
</g>
<g id="Layers">
</g>
<g id="Bell">
</g>
<g id="Speach_Bubble">
</g>
<g id="Speach_Bubbles">
</g>
<g id="Zoom_In">
</g>
<g id="Zoom_Out">
</g>
<g id="Search">
</g>
<g id="Back_Arrow">
</g>
<g id="Close">
</g>
<g id="Check_2">
</g>
<g id="Left_Arrow_2">
</g>
<g id="Right_Arrow_2">
</g>
</svg>
