<?xml version="1.0" encoding="iso-8859-1"?>
<!-- Generator: Adobe Illustrator 19.2.1, SVG Export Plug-In . SVG Version: 6.00 Build 0)  -->
<svg version="1.1" xmlns="http://www.w3.org/2000/svg" xmlns:xlink="http://www.w3.org/1999/xlink" x="0px" y="0px"
	 viewBox="0 0 24 24" style="enable-background:new 0 0 24 24;" xml:space="preserve">
<g id="Mail">
</g>
<g id="Open_Mail">
</g>
<g id="Mail_Attachmet">
</g>
<g id="Mails">
</g>
<g id="Trash">
</g>
<g id="Trash_Full">
</g>
<g id="Preferences_1">
</g>
<g id="Preferences_2">
</g>
<g id="Mouse">
</g>
<g id="Computer">
</g>
<g id="Notebook">
</g>
<g id="Mobile_Phone">
</g>
<g id="Print">
</g>
<g id="Calculator">
</g>
<g id="Tag">
</g>
<g id="Paperclip">
</g>
<g id="Heart">
</g>
<g id="Lock">
</g>
<g id="Lock_Open">
</g>
<g id="Key_1">
</g>
<g id="Star">
</g>
<g id="Add">
</g>
<g id="Remove">
</g>
<g id="Error">
</g>
<g id="Check_1">
</g>
<g id="Time">
</g>
<g id="Question_Mark">
</g>
<g id="Error_Mark">
</g>
<g id="Sand-Glass">
</g>
<g id="Battery_Full">
</g>
<g id="Battery_Charge">
</g>
<g id="Battery_Half">
</g>
<g id="Battery_Low">
</g>
<g id="No_Battery">
</g>
<g id="Key_2">
</g>
<g id="Link">
</g>
<g id="Brake_Link">
</g>
<g id="Pencil">
</g>
<g id="At">
</g>
<g id="Reply">
</g>
<g id="Accessible">
</g>
<g id="Up_Arrow">
</g>
<g id="Brush">
</g>
<g id="Design_Mug">
</g>
<g id="Design">
</g>
<g id="Server">
</g>
<g id="Database">
</g>
<g id="Save">
</g>
<g id="Female">
</g>
<g id="Male">
</g>
<g id="Book">
</g>
<g id="Power">
</g>
<g id="Reload">
</g>
<g id="Map">
</g>
<g id="Loction_1">
</g>
<g id="Location_2">
</g>
<g id="Globe">
</g>
<g id="Suitcase">
</g>
<g id="Callendar">
</g>
<g id="Cloud_Off">
</g>
<g id="File_1">
</g>
<g id="File_2">
</g>
<g id="Folder">
</g>
<g id="Open_Folder">
</g>
<g id="Cloud">
</g>
<g id="Upload_Cloud">
</g>
<g id="Download_Cloud">
</g>
<g id="Eye">
</g>
<g id="Invisible">
</g>
<g id="Assignment">
</g>
<g id="Note_Book">
</g>
<g id="Webpage">
</g>
<g id="Mailbox">
</g>
<g id="Drive">
</g>
<g id="Disc">
</g>
<g id="Wifi_1">
</g>
<g id="Wifi_2">
</g>
<g id="Archive">
</g>
<g id="Archive_File">
	<g>
		<g>
			<g>
				<path d="M20.5,24h-17C1.57,24,0,22.43,0,20.5V14c0-0.75,0.234-1.467,0.678-2.07l1.401-2.183c0.149-0.232,0.459-0.299,0.691-0.15
					c0.232,0.149,0.3,0.459,0.15,0.691l-1.419,2.208C1.172,12.946,1,13.472,1,14v6.5C1,21.879,2.121,23,3.5,23h17
					c1.379,0,2.5-1.121,2.5-2.5v-6.592c0-0.494-0.146-0.974-0.42-1.387l-1.496-2.244c-0.153-0.229-0.091-0.54,0.139-0.693
					c0.227-0.152,0.539-0.093,0.693,0.139l1.496,2.244C23.797,12.545,24,13.216,24,13.908V20.5C24,22.43,22.43,24,20.5,24z"/>
			</g>
			<g>
				<path d="M15.5,19h-7C6.57,19,5,17.43,5,15.5C5,14.673,4.327,14,3.5,14H1c-0.276,0-0.5-0.224-0.5-0.5S0.724,13,1,13h2.5
					C4.879,13,6,14.121,6,15.5S7.121,18,8.5,18h7c1.379,0,2.5-1.121,2.5-2.5c0-0.276,0.224-0.5,0.5-0.5s0.5,0.224,0.5,0.5
					C19,17.43,17.43,19,15.5,19z"/>
			</g>
			<g>
				<path d="M18.5,16c-0.276,0-0.5-0.224-0.5-0.5c0-1.379,1.121-2.5,2.5-2.5H23c0.276,0,0.5,0.224,0.5,0.5S23.276,14,23,14h-2.5
					c-0.827,0-1.5,0.673-1.5,1.5C19,15.776,18.776,16,18.5,16z"/>
			</g>
		</g>
		<g>
			<g>
				<path d="M21.5,14c-0.276,0-0.5-0.224-0.5-0.5V8h-5.5C14.673,8,14,7.327,14,6.5V1H3.5C3.225,1,3,1.225,3,1.5v12
					C3,13.776,2.776,14,2.5,14S2,13.776,2,13.5v-12C2,0.673,2.673,0,3.5,0h11C14.776,0,15,0.224,15,0.5v6C15,6.775,15.225,7,15.5,7
					h6C21.776,7,22,7.224,22,7.5v6C22,13.776,21.776,14,21.5,14z"/>
			</g>
			<g>
				<path d="M21.5,8c-0.128,0-0.256-0.049-0.354-0.146l-7-7c-0.195-0.195-0.195-0.512,0-0.707s0.512-0.195,0.707,0l7,7
					c0.195,0.195,0.195,0.512,0,0.707C21.756,7.951,21.628,8,21.5,8z"/>
			</g>
		</g>
	</g>
</g>
<g id="News">
</g>
<g id="Home">
</g>
<g id="Collaboration">
</g>
<g id="Announcement">
</g>
<g id="Watch">
</g>
<g id="Clock">
</g>
<g id="Volume">
</g>
<g id="Mute">
</g>
<g id="Hand">
</g>
<g id="Layers">
</g>
<g id="Bell">
</g>
<g id="Speach_Bubble">
</g>
<g id="Speach_Bubbles">
</g>
<g id="Zoom_In">
</g>
<g id="Zoom_Out">
</g>
<g id="Search">
</g>
<g id="Back_Arrow">
</g>
<g id="Close">
</g>
<g id="Check_2">
</g>
<g id="Left_Arrow_2">
</g>
<g id="Right_Arrow_2">
</g>
</svg>
