<?xml version="1.0" encoding="iso-8859-1"?>
<!-- Generator: Adobe Illustrator 19.2.1, SVG Export Plug-In . SVG Version: 6.00 Build 0)  -->
<svg version="1.1" xmlns="http://www.w3.org/2000/svg" xmlns:xlink="http://www.w3.org/1999/xlink" x="0px" y="0px"
	 viewBox="0 0 24 24" style="enable-background:new 0 0 24 24;" xml:space="preserve">
<g id="Mail">
</g>
<g id="Open_Mail">
</g>
<g id="Mail_Attachmet">
</g>
<g id="Mails">
</g>
<g id="Trash">
</g>
<g id="Trash_Full">
</g>
<g id="Preferences_1">
</g>
<g id="Preferences_2">
</g>
<g id="Mouse">
</g>
<g id="Computer">
</g>
<g id="Notebook">
</g>
<g id="Mobile_Phone">
</g>
<g id="Print">
</g>
<g id="Calculator">
</g>
<g id="Tag">
</g>
<g id="Paperclip">
</g>
<g id="Heart">
</g>
<g id="Lock">
</g>
<g id="Lock_Open">
</g>
<g id="Key_1">
</g>
<g id="Star">
</g>
<g id="Add">
</g>
<g id="Remove">
</g>
<g id="Error">
</g>
<g id="Check_1">
</g>
<g id="Time">
</g>
<g id="Question_Mark">
</g>
<g id="Error_Mark">
</g>
<g id="Sand-Glass">
</g>
<g id="Battery_Full">
</g>
<g id="Battery_Charge">
</g>
<g id="Battery_Half">
</g>
<g id="Battery_Low">
</g>
<g id="No_Battery">
</g>
<g id="Key_2">
</g>
<g id="Link">
</g>
<g id="Brake_Link">
</g>
<g id="Pencil">
</g>
<g id="At">
</g>
<g id="Reply">
</g>
<g id="Accessible">
</g>
<g id="Up_Arrow">
</g>
<g id="Brush">
</g>
<g id="Design_Mug">
</g>
<g id="Design">
</g>
<g id="Server">
</g>
<g id="Database">
</g>
<g id="Save">
</g>
<g id="Female">
</g>
<g id="Male">
</g>
<g id="Book">
</g>
<g id="Power">
</g>
<g id="Reload">
</g>
<g id="Map">
</g>
<g id="Loction_1">
</g>
<g id="Location_2">
</g>
<g id="Globe">
</g>
<g id="Suitcase">
</g>
<g id="Callendar">
</g>
<g id="Cloud_Off">
</g>
<g id="File_1">
</g>
<g id="File_2">
</g>
<g id="Folder">
</g>
<g id="Open_Folder">
</g>
<g id="Cloud">
</g>
<g id="Upload_Cloud">
</g>
<g id="Download_Cloud">
</g>
<g id="Eye">
</g>
<g id="Invisible">
</g>
<g id="Assignment">
	<g>
		<g>
			<path d="M18.5,24h-13C4.673,24,4,23.327,4,22.5v-18C4,3.673,4.673,3,5.5,3h2C7.776,3,8,3.224,8,3.5S7.776,4,7.5,4h-2
				C5.225,4,5,4.225,5,4.5v18C5,22.775,5.225,23,5.5,23h13c0.275,0,0.5-0.225,0.5-0.5v-18C19,4.225,18.775,4,18.5,4h-2
				C16.224,4,16,3.776,16,3.5S16.224,3,16.5,3h2C19.327,3,20,3.673,20,4.5v18C20,23.327,19.327,24,18.5,24z"/>
		</g>
		<g>
			<path d="M16.5,5h-9C7.224,5,7,4.776,7,4.5v-1C7,2.673,7.673,2,8.5,2H10c0-1.103,0.897-2,2-2s2,0.897,2,2h1.5
				C16.327,2,17,2.673,17,3.5v1C17,4.776,16.776,5,16.5,5z M8,4h8V3.5C16,3.225,15.775,3,15.5,3h-2C13.224,3,13,2.776,13,2.5V2
				c0-0.552-0.448-1-1-1s-1,0.448-1,1v0.5C11,2.776,10.776,3,10.5,3h-2C8.225,3,8,3.225,8,3.5V4z"/>
		</g>
		<g>
			<circle cx="7.5" cy="12.5" r="0.5"/>
		</g>
		<g>
			<circle cx="7.5" cy="15.5" r="0.5"/>
		</g>
		<g>
			<circle cx="7.5" cy="18.5" r="0.5"/>
		</g>
		<g>
			<path d="M16.5,13h-7C9.224,13,9,12.776,9,12.5S9.224,12,9.5,12h7c0.276,0,0.5,0.224,0.5,0.5S16.776,13,16.5,13z"/>
		</g>
		<g>
			<circle cx="7.5" cy="9.5" r="0.5"/>
		</g>
		<g>
			<path d="M16.5,10h-7C9.224,10,9,9.776,9,9.5S9.224,9,9.5,9h7C16.776,9,17,9.224,17,9.5S16.776,10,16.5,10z"/>
		</g>
		<g>
			<path d="M16.5,16h-7C9.224,16,9,15.776,9,15.5S9.224,15,9.5,15h7c0.276,0,0.5,0.224,0.5,0.5S16.776,16,16.5,16z"/>
		</g>
		<g>
			<path d="M16.5,19h-7C9.224,19,9,18.776,9,18.5S9.224,18,9.5,18h7c0.276,0,0.5,0.224,0.5,0.5S16.776,19,16.5,19z"/>
		</g>
	</g>
</g>
<g id="Note_Book">
</g>
<g id="Webpage">
</g>
<g id="Mailbox">
</g>
<g id="Drive">
</g>
<g id="Disc">
</g>
<g id="Wifi_1">
</g>
<g id="Wifi_2">
</g>
<g id="Archive">
</g>
<g id="Archive_File">
</g>
<g id="News">
</g>
<g id="Home">
</g>
<g id="Collaboration">
</g>
<g id="Announcement">
</g>
<g id="Watch">
</g>
<g id="Clock">
</g>
<g id="Volume">
</g>
<g id="Mute">
</g>
<g id="Hand">
</g>
<g id="Layers">
</g>
<g id="Bell">
</g>
<g id="Speach_Bubble">
</g>
<g id="Speach_Bubbles">
</g>
<g id="Zoom_In">
</g>
<g id="Zoom_Out">
</g>
<g id="Search">
</g>
<g id="Back_Arrow">
</g>
<g id="Close">
</g>
<g id="Check_2">
</g>
<g id="Left_Arrow_2">
</g>
<g id="Right_Arrow_2">
</g>
</svg>
