<?xml version="1.0" encoding="iso-8859-1"?>
<!-- Generator: Adobe Illustrator 19.2.1, SVG Export Plug-In . SVG Version: 6.00 Build 0)  -->
<svg version="1.1" xmlns="http://www.w3.org/2000/svg" xmlns:xlink="http://www.w3.org/1999/xlink" x="0px" y="0px"
	 viewBox="0 0 24 24" style="enable-background:new 0 0 24 24;" xml:space="preserve">
<g id="Mail">
</g>
<g id="Open_Mail">
</g>
<g id="Mail_Attachmet">
</g>
<g id="Mails">
</g>
<g id="Trash">
</g>
<g id="Trash_Full">
</g>
<g id="Preferences_1">
</g>
<g id="Preferences_2">
</g>
<g id="Mouse">
</g>
<g id="Computer">
</g>
<g id="Notebook">
</g>
<g id="Mobile_Phone">
</g>
<g id="Print">
</g>
<g id="Calculator">
</g>
<g id="Tag">
</g>
<g id="Paperclip">
</g>
<g id="Heart">
</g>
<g id="Lock">
</g>
<g id="Lock_Open">
</g>
<g id="Key_1">
</g>
<g id="Star">
</g>
<g id="Add">
</g>
<g id="Remove">
</g>
<g id="Error">
</g>
<g id="Check_1">
</g>
<g id="Time">
</g>
<g id="Question_Mark">
</g>
<g id="Error_Mark">
</g>
<g id="Sand-Glass">
</g>
<g id="Battery_Full">
</g>
<g id="Battery_Charge">
</g>
<g id="Battery_Half">
</g>
<g id="Battery_Low">
</g>
<g id="No_Battery">
</g>
<g id="Key_2">
</g>
<g id="Link">
</g>
<g id="Brake_Link">
</g>
<g id="Pencil">
</g>
<g id="At">
	<g>
		<g>
			<g>
				<path d="M12,24C5.383,24,0,18.617,0,12S5.383,0,12,0s12,5.383,12,12c0,2.862-2.376,5-4.5,5c-2.24,0-4.5-1.237-4.5-4l1.008-5.589
					c0.05-0.273,0.313-0.454,0.582-0.402c0.271,0.049,0.451,0.31,0.402,0.581l-1,5.5C16,15.214,17.886,16,19.5,16
					c1.618,0,3.5-1.747,3.5-4c0-6.065-4.935-11-11-11S1,5.935,1,12s4.935,11,11,11c2.513,0,4.878-0.825,6.84-2.385
					c0.217-0.171,0.531-0.137,0.703,0.08c0.172,0.216,0.136,0.53-0.08,0.702C17.322,23.1,14.741,24,12,24z"/>
			</g>
		</g>
		<g>
			<g>
				<path d="M11.5,17c-1.305,0-2.511-0.625-3.308-1.713c-0.837-1.142-1.087-2.614-0.669-3.938c0.673-2.132,2.224-3.648,4.255-4.159
					c1.737-0.438,3.53-0.063,4.57,0.952c0.198,0.192,0.202,0.509,0.01,0.707c-0.194,0.199-0.511,0.201-0.707,0.009
					c-0.786-0.766-2.244-1.047-3.63-0.698c-0.991,0.249-2.77,1.034-3.545,3.49c-0.322,1.021-0.127,2.16,0.521,3.046
					C9.605,15.525,10.518,16,11.5,16c2.043,0,3.221-1.862,3.513-3.114c0.063-0.268,0.324-0.434,0.602-0.373
					c0.269,0.063,0.436,0.332,0.373,0.601C15.535,15.045,13.85,17,11.5,17z"/>
			</g>
		</g>
	</g>
</g>
<g id="Reply">
</g>
<g id="Accessible">
</g>
<g id="Up_Arrow">
</g>
<g id="Brush">
</g>
<g id="Design_Mug">
</g>
<g id="Design">
</g>
<g id="Server">
</g>
<g id="Database">
</g>
<g id="Save">
</g>
<g id="Female">
</g>
<g id="Male">
</g>
<g id="Book">
</g>
<g id="Power">
</g>
<g id="Reload">
</g>
<g id="Map">
</g>
<g id="Loction_1">
</g>
<g id="Location_2">
</g>
<g id="Globe">
</g>
<g id="Suitcase">
</g>
<g id="Callendar">
</g>
<g id="Cloud_Off">
</g>
<g id="File_1">
</g>
<g id="File_2">
</g>
<g id="Folder">
</g>
<g id="Open_Folder">
</g>
<g id="Cloud">
</g>
<g id="Upload_Cloud">
</g>
<g id="Download_Cloud">
</g>
<g id="Eye">
</g>
<g id="Invisible">
</g>
<g id="Assignment">
</g>
<g id="Note_Book">
</g>
<g id="Webpage">
</g>
<g id="Mailbox">
</g>
<g id="Drive">
</g>
<g id="Disc">
</g>
<g id="Wifi_1">
</g>
<g id="Wifi_2">
</g>
<g id="Archive">
</g>
<g id="Archive_File">
</g>
<g id="News">
</g>
<g id="Home">
</g>
<g id="Collaboration">
</g>
<g id="Announcement">
</g>
<g id="Watch">
</g>
<g id="Clock">
</g>
<g id="Volume">
</g>
<g id="Mute">
</g>
<g id="Hand">
</g>
<g id="Layers">
</g>
<g id="Bell">
</g>
<g id="Speach_Bubble">
</g>
<g id="Speach_Bubbles">
</g>
<g id="Zoom_In">
</g>
<g id="Zoom_Out">
</g>
<g id="Search">
</g>
<g id="Back_Arrow">
</g>
<g id="Close">
</g>
<g id="Check_2">
</g>
<g id="Left_Arrow_2">
</g>
<g id="Right_Arrow_2">
</g>
</svg>
