<?xml version="1.0" encoding="iso-8859-1"?>
<!-- Generator: Adobe Illustrator 19.2.1, SVG Export Plug-In . SVG Version: 6.00 Build 0)  -->
<svg version="1.1" xmlns="http://www.w3.org/2000/svg" xmlns:xlink="http://www.w3.org/1999/xlink" x="0px" y="0px"
	 viewBox="0 0 24 24" style="enable-background:new 0 0 24 24;" xml:space="preserve">
<g id="Credit_Card">
</g>
<g id="Banknote">
</g>
<g id="Wallet">
</g>
<g id="Compass">
</g>
<g id="Camera_1">
</g>
<g id="Photo">
</g>
<g id="Picture">
</g>
<g id="Camera_2">
</g>
<g id="No_Camera">
</g>
<g id="Video">
</g>
<g id="Audio">
	<g>
		<g>
			<path d="M7.5,21.505c-0.276,0-0.5-0.224-0.5-0.5V5.786c0-0.632,0.4-1.2,0.996-1.413l12-4.286c0.458-0.165,0.97-0.094,1.369,0.187
				C21.762,0.555,22,1.014,22,1.5v16.005c0,0.276-0.224,0.5-0.5,0.5s-0.5-0.224-0.5-0.5V1.5c0-0.165-0.077-0.313-0.212-0.409
				c-0.135-0.096-0.302-0.117-0.457-0.063l-12,4.286C8.133,5.386,8,5.575,8,5.786v15.219C8,21.282,7.776,21.505,7.5,21.505z"/>
		</g>
		<g>
			<path d="M7.5,10c-0.206,0-0.398-0.127-0.471-0.332C6.936,9.409,7.072,9.123,7.332,9.03l14-5c0.257-0.094,0.546,0.043,0.639,0.303
				c0.093,0.26-0.042,0.546-0.303,0.639l-14,5C7.613,9.991,7.556,10,7.5,10z"/>
		</g>
		<g>
			<path d="M3.913,24.003c-1.424,0-2.585-0.657-2.856-1.727c-0.129-0.512-0.036-1.053,0.271-1.563
				c0.478-0.795,1.436-1.435,2.562-1.711c1.93-0.474,3.71,0.22,4.055,1.578c0.129,0.512,0.036,1.053-0.271,1.563
				c-0.478,0.795-1.436,1.435-2.562,1.711C4.701,23.955,4.297,24.003,3.913,24.003z M5.08,19.855c-0.305,0-0.627,0.038-0.952,0.118
				c-0.86,0.211-1.604,0.692-1.943,1.255c-0.116,0.193-0.238,0.49-0.158,0.803c0.2,0.792,1.504,1.184,2.847,0.852
				c0.86-0.211,1.604-0.692,1.943-1.255c0.116-0.193,0.238-0.49,0.158-0.803C6.822,20.225,6.036,19.855,5.08,19.855z"/>
		</g>
		<g>
			<path d="M17.913,21.003c-1.424,0-2.585-0.657-2.856-1.727c-0.129-0.512-0.036-1.053,0.271-1.563
				c0.478-0.795,1.436-1.435,2.562-1.711c1.928-0.475,3.711,0.22,4.055,1.578c0.129,0.512,0.036,1.053-0.271,1.563
				c-0.478,0.795-1.436,1.435-2.562,1.711C18.701,20.955,18.297,21.003,17.913,21.003z M19.08,16.855
				c-0.305,0-0.627,0.038-0.952,0.118c-0.86,0.211-1.604,0.692-1.943,1.255c-0.116,0.193-0.238,0.49-0.158,0.803
				c0.2,0.792,1.504,1.184,2.847,0.852c0.86-0.211,1.604-0.692,1.943-1.255c0.116-0.193,0.238-0.49,0.158-0.803
				C20.822,17.225,20.036,16.855,19.08,16.855z"/>
		</g>
	</g>
</g>
<g id="Microphone_1">
</g>
<g id="Microphone_2">
</g>
<g id="No_Microphone">
</g>
<g id="Shopping_Cart">
</g>
<g id="Add_Shopping_Cart">
</g>
<g id="Remove_Shopping_Cart">
</g>
<g id="Shopping_Basket">
</g>
<g id="Jing-Jang">
</g>
<g id="Leaf">
</g>
<g id="Glass">
</g>
<g id="Cup">
</g>
<g id="Mug">
</g>
<g id="Refresh">
</g>
<g id="Login">
</g>
<g id="Logout">
</g>
<g id="Flowchart">
</g>
<g id="Pin_1">
</g>
<g id="Pin_2">
</g>
<g id="User_1">
</g>
<g id="User_2">
</g>
<g id="Users">
</g>
<g id="Adjustments">
</g>
<g id="Type">
</g>
<g id="Format_Size">
</g>
<g id="Menu_1">
</g>
<g id="Other">
</g>
<g id="Flash">
</g>
<g id="No_Flash">
</g>
<g id="Switch_Button_1">
</g>
<g id="Switch_Button_2">
</g>
<g id="Cut">
</g>
<g id="Crop">
</g>
<g id="Sun">
</g>
<g id="USB">
</g>
<g id="Pie_Chart_1">
</g>
<g id="Pie_Chart_2">
</g>
<g id="Line_Chart">
</g>
<g id="Bar_Chart">
</g>
<g id="Target">
</g>
<g id="Flashlight">
</g>
<g id="USB_Device">
</g>
<g id="Eject">
</g>
<g id="Lightbulb">
</g>
<g id="Information">
</g>
<g id="Deactivate_Protection">
</g>
<g id="Active_Protection">
</g>
<g id="Bug">
</g>
<g id="Protection">
</g>
<g id="Phone">
</g>
<g id="List">
</g>
<g id="Plugin_1">
</g>
<g id="Bookmarrk">
</g>
<g id="Handshake">
</g>
<g id="Minimize">
</g>
<g id="Maximize">
</g>
<g id="Diamond">
</g>
<g id="Stop">
</g>
<g id="Shuffle">
</g>
<g id="Undo">
</g>
<g id="Upgrade">
</g>
<g id="Coding">
</g>
<g id="Syncronizaion">
</g>
<g id="Radio">
</g>
<g id="Presentation">
</g>
<g id="Door">
</g>
<g id="Thumbs_Up">
</g>
<g id="Thumbs_Down">
</g>
<g id="Keyboard">
</g>
<g id="_x33_D_Cube">
</g>
<g id="Signal">
</g>
<g id="Dice">
</g>
<g id="Upload">
</g>
<g id="Download">
</g>
<g id="Plugin_2">
</g>
<g id="Shopping_Bag">
</g>
<g id="Lifebelt">
</g>
<g id="Glasses">
</g>
<g id="Parabolic_Antenna">
</g>
<g id="Loudspeaker">
</g>
<g id="Play">
</g>
<g id="Pause">
</g>
<g id="Signpost">
</g>
<g id="Bluetooth">
</g>
<g id="Present">
</g>
<g id="Ruler">
</g>
<g id="Connection">
</g>
<g id="Money">
</g>
<g id="Paper_Plane">
</g>
<g id="Wallet_2">
</g>
</svg>
