<?xml version="1.0" encoding="iso-8859-1"?>
<!-- Generator: Adobe Illustrator 19.2.1, SVG Export Plug-In . SVG Version: 6.00 Build 0)  -->
<svg version="1.1" xmlns="http://www.w3.org/2000/svg" xmlns:xlink="http://www.w3.org/1999/xlink" x="0px" y="0px"
	 viewBox="0 0 24 24" style="enable-background:new 0 0 24 24;" xml:space="preserve">
<g id="Credit_Card">
</g>
<g id="Banknote">
	<g>
		<g>
			<path d="M16.989,19.019c-1.866,0-3.731-0.176-5.581-0.528c-3.432-0.652-6.917-0.68-10.356-0.08l-0.465,0.081
				c-0.147,0.024-0.295-0.015-0.408-0.11C0.065,18.288,0,18.147,0,18V5c0-0.243,0.175-0.451,0.414-0.493l0.465-0.081
				c3.56-0.62,7.164-0.592,10.713,0.083c3.432,0.652,6.917,0.679,10.356,0.08l0.465-0.081c0.148-0.024,0.295,0.015,0.408,0.11
				C22.935,4.712,23,4.853,23,5v13c0,0.243-0.175,0.451-0.414,0.493l-0.465,0.081C20.417,18.871,18.702,19.019,16.989,19.019z
				 M6.011,16.981c1.866,0,3.731,0.176,5.581,0.528c3.432,0.652,6.917,0.679,10.356,0.08L22,17.58V5.594
				c-3.52,0.599-7.084,0.563-10.592-0.103C7.976,4.839,4.491,4.812,1.051,5.412L1,5.42v11.985
				C2.664,17.123,4.338,16.981,6.011,16.981z"/>
		</g>
		<g>
			<path d="M16.974,16.5c-0.161,0-0.321-0.001-0.482-0.004c-0.276-0.004-0.496-0.232-0.492-0.508c0.004-0.273,0.228-0.492,0.5-0.492
				c0.002,0,0.005,0,0.008,0c0.978,0.017,1.968-0.019,2.937-0.102c0.281-0.026,0.517,0.18,0.541,0.455
				c0.024,0.275-0.18,0.518-0.455,0.541C18.687,16.463,17.829,16.5,16.974,16.5z"/>
		</g>
		<g>
			<path d="M3.499,7.604c-0.257,0-0.475-0.197-0.498-0.457c-0.024-0.275,0.18-0.518,0.455-0.541C4.464,6.519,5.49,6.486,6.508,6.5
				C6.784,6.505,7.004,6.732,7,7.008C6.996,7.282,6.772,7.5,6.5,7.5c-0.002,0-0.005,0-0.008,0c-0.984-0.019-1.976,0.018-2.95,0.102
				C3.527,7.603,3.513,7.604,3.499,7.604z"/>
		</g>
		<g>
			<path d="M11.499,15.004c-1.334,0-2.408-0.801-2.497-1.862c-0.023-0.275,0.181-0.517,0.456-0.54
				c0.276-0.027,0.517,0.181,0.54,0.456c0.044,0.522,0.717,0.946,1.5,0.946c0.814,0,1.501-0.458,1.501-1
				c0-0.488-0.474-0.802-1.491-0.99L11.4,11.994C9.778,11.695,9,11.031,9,10.004c0-1.103,1.122-2,2.501-2
				c1.334,0,2.407,0.8,2.497,1.862c0.023,0.275-0.181,0.517-0.456,0.54c-0.269,0.034-0.517-0.181-0.54-0.456
				c-0.044-0.521-0.717-0.946-1.5-0.946c-0.814,0-1.501,0.458-1.501,1c0,0.488,0.475,0.802,1.493,0.99l0.11,0.021
				c1.62,0.299,2.397,0.962,2.397,1.99C14,14.107,12.878,15.004,11.499,15.004z"/>
		</g>
		<g>
			<path d="M11.5,15.5c-0.276,0-0.5-0.224-0.5-0.5V8c0-0.276,0.224-0.5,0.5-0.5S12,7.724,12,8v7C12,15.276,11.776,15.5,11.5,15.5z"
				/>
		</g>
	</g>
</g>
<g id="Wallet">
</g>
<g id="Compass">
</g>
<g id="Camera_1">
</g>
<g id="Photo">
</g>
<g id="Picture">
</g>
<g id="Camera_2">
</g>
<g id="No_Camera">
</g>
<g id="Video">
</g>
<g id="Audio">
</g>
<g id="Microphone_1">
</g>
<g id="Microphone_2">
</g>
<g id="No_Microphone">
</g>
<g id="Shopping_Cart">
</g>
<g id="Add_Shopping_Cart">
</g>
<g id="Remove_Shopping_Cart">
</g>
<g id="Shopping_Basket">
</g>
<g id="Jing-Jang">
</g>
<g id="Leaf">
</g>
<g id="Glass">
</g>
<g id="Cup">
</g>
<g id="Mug">
</g>
<g id="Refresh">
</g>
<g id="Login">
</g>
<g id="Logout">
</g>
<g id="Flowchart">
</g>
<g id="Pin_1">
</g>
<g id="Pin_2">
</g>
<g id="User_1">
</g>
<g id="User_2">
</g>
<g id="Users">
</g>
<g id="Adjustments">
</g>
<g id="Type">
</g>
<g id="Format_Size">
</g>
<g id="Menu_1">
</g>
<g id="Other">
</g>
<g id="Flash">
</g>
<g id="No_Flash">
</g>
<g id="Switch_Button_1">
</g>
<g id="Switch_Button_2">
</g>
<g id="Cut">
</g>
<g id="Crop">
</g>
<g id="Sun">
</g>
<g id="USB">
</g>
<g id="Pie_Chart_1">
</g>
<g id="Pie_Chart_2">
</g>
<g id="Line_Chart">
</g>
<g id="Bar_Chart">
</g>
<g id="Target">
</g>
<g id="Flashlight">
</g>
<g id="USB_Device">
</g>
<g id="Eject">
</g>
<g id="Lightbulb">
</g>
<g id="Information">
</g>
<g id="Deactivate_Protection">
</g>
<g id="Active_Protection">
</g>
<g id="Bug">
</g>
<g id="Protection">
</g>
<g id="Phone">
</g>
<g id="List">
</g>
<g id="Plugin_1">
</g>
<g id="Bookmarrk">
</g>
<g id="Handshake">
</g>
<g id="Minimize">
</g>
<g id="Maximize">
</g>
<g id="Diamond">
</g>
<g id="Stop">
</g>
<g id="Shuffle">
</g>
<g id="Undo">
</g>
<g id="Upgrade">
</g>
<g id="Coding">
</g>
<g id="Syncronizaion">
</g>
<g id="Radio">
</g>
<g id="Presentation">
</g>
<g id="Door">
</g>
<g id="Thumbs_Up">
</g>
<g id="Thumbs_Down">
</g>
<g id="Keyboard">
</g>
<g id="_x33_D_Cube">
</g>
<g id="Signal">
</g>
<g id="Dice">
</g>
<g id="Upload">
</g>
<g id="Download">
</g>
<g id="Plugin_2">
</g>
<g id="Shopping_Bag">
</g>
<g id="Lifebelt">
</g>
<g id="Glasses">
</g>
<g id="Parabolic_Antenna">
</g>
<g id="Loudspeaker">
</g>
<g id="Play">
</g>
<g id="Pause">
</g>
<g id="Signpost">
</g>
<g id="Bluetooth">
</g>
<g id="Present">
</g>
<g id="Ruler">
</g>
<g id="Connection">
</g>
<g id="Money">
</g>
<g id="Paper_Plane">
</g>
<g id="Wallet_2">
</g>
</svg>
