<?xml version="1.0" encoding="iso-8859-1"?>
<!-- Generator: Adobe Illustrator 19.2.1, SVG Export Plug-In . SVG Version: 6.00 Build 0)  -->
<svg version="1.1" xmlns="http://www.w3.org/2000/svg" xmlns:xlink="http://www.w3.org/1999/xlink" x="0px" y="0px"
	 viewBox="0 0 24 24" style="enable-background:new 0 0 24 24;" xml:space="preserve">
<g id="Flag">
</g>
<g id="Umbrella">
</g>
<g id="Briefcase">
</g>
<g id="Box">
</g>
<g id="Magnet">
</g>
<g id="Percent">
</g>
<g id="Rocket">
</g>
<g id="Share">
</g>
<g id="Transmitter">
</g>
<g id="Record_2">
</g>
<g id="Record_1">
</g>
<g id="Anchor">
</g>
<g id="Airplane">
</g>
<g id="Car">
</g>
<g id="Newsfeed">
</g>
<g id="Wifi_Tethering">
</g>
<g id="No_Wifi_Tethering">
</g>
<g id="Bar_Chart_2">
	<g>
		<g>
			<path d="M23.5,24h-23C0.224,24,0,23.776,0,23.5S0.224,23,0.5,23h23c0.276,0,0.5,0.224,0.5,0.5S23.776,24,23.5,24z"/>
		</g>
		<g>
			<path d="M4.5,24h-3C1.224,24,1,23.776,1,23.5v-6C1,17.224,1.224,17,1.5,17h3C4.776,17,5,17.224,5,17.5v6
				C5,23.776,4.776,24,4.5,24z M2,23h2v-5H2V23z"/>
		</g>
		<g>
			<path d="M10.5,24h-3C7.224,24,7,23.776,7,23.5v-11C7,12.224,7.224,12,7.5,12h3c0.276,0,0.5,0.224,0.5,0.5v11
				C11,23.776,10.776,24,10.5,24z M8,23h2V13H8V23z"/>
		</g>
		<g>
			<path d="M16.5,24h-3c-0.276,0-0.5-0.224-0.5-0.5v-9c0-0.276,0.224-0.5,0.5-0.5h3c0.276,0,0.5,0.224,0.5,0.5v9
				C17,23.776,16.776,24,16.5,24z M14,23h2v-8h-2V23z"/>
		</g>
		<g>
			<path d="M22.5,24h-3c-0.276,0-0.5-0.224-0.5-0.5v-15C19,8.224,19.224,8,19.5,8h3C22.776,8,23,8.224,23,8.5v15
				C23,23.776,22.776,24,22.5,24z M20,23h2V9h-2V23z"/>
		</g>
		<g>
			<path d="M3,13c-1.103,0-2-0.897-2-2s0.897-2,2-2s2,0.897,2,2S4.103,13,3,13z M3,10c-0.552,0-1,0.449-1,1s0.448,1,1,1s1-0.449,1-1
				S3.552,10,3,10z"/>
		</g>
		<g>
			<path d="M9,8C7.897,8,7,7.103,7,6s0.897-2,2-2s2,0.897,2,2S10.103,8,9,8z M9,5C8.448,5,8,5.449,8,6s0.448,1,1,1s1-0.449,1-1
				S9.552,5,9,5z"/>
		</g>
		<g>
			<path d="M15,10c-1.103,0-2-0.897-2-2s0.897-2,2-2s2,0.897,2,2S16.103,10,15,10z M15,7c-0.552,0-1,0.449-1,1s0.448,1,1,1
				s1-0.449,1-1S15.552,7,15,7z"/>
		</g>
		<g>
			<path d="M21,4c-1.103,0-2-0.897-2-2s0.897-2,2-2s2,0.897,2,2S22.103,4,21,4z M21,1c-0.552,0-1,0.449-1,1s0.448,1,1,1s1-0.449,1-1
				S21.552,1,21,1z"/>
		</g>
		<g>
			<path d="M16.061,7.439c-0.128,0-0.256-0.049-0.354-0.146c-0.195-0.195-0.195-0.512,0-0.707l3.88-3.88
				c0.195-0.195,0.512-0.195,0.707,0s0.195,0.512,0,0.707l-3.88,3.88C16.316,7.391,16.188,7.439,16.061,7.439z"/>
		</g>
		<g>
			<path d="M13.654,7.827c-0.045,0-0.091-0.006-0.137-0.019l-3.212-0.916C10.04,6.816,9.886,6.54,9.962,6.274
				c0.075-0.266,0.348-0.422,0.617-0.344l3.212,0.916c0.266,0.076,0.42,0.353,0.344,0.618C14.072,7.684,13.872,7.827,13.654,7.827z"
				/>
		</g>
		<g>
			<path d="M4.06,10.44c-0.146,0-0.292-0.064-0.391-0.188c-0.173-0.216-0.137-0.53,0.079-0.703l3.77-3.006
				c0.216-0.171,0.53-0.136,0.702,0.08c0.173,0.216,0.137,0.53-0.079,0.703l-3.77,3.006C4.279,10.404,4.169,10.44,4.06,10.44z"/>
		</g>
	</g>
</g>
<g id="Shop">
</g>
<g id="Alarm">
</g>
<g id="Sim_Card">
</g>
<g id="Radar">
</g>
<g id="Hand_2">
</g>
<g id="Palette">
</g>
<g id="Cake">
</g>
<g id="Blende">
</g>
<g id="Feather_Pen">
</g>
<g id="Ticket">
</g>
<g id="Medal">
</g>
<g id="Mouse_Pointer_1">
</g>
<g id="Mouse_Pointer_2">
</g>
<g id="Fingerprint">
</g>
<g id="Earth">
</g>
</svg>
