<?xml version="1.0" encoding="iso-8859-1"?>
<!-- Generator: Adobe Illustrator 19.2.1, SVG Export Plug-In . SVG Version: 6.00 Build 0)  -->
<svg version="1.1" xmlns="http://www.w3.org/2000/svg" xmlns:xlink="http://www.w3.org/1999/xlink" x="0px" y="0px"
	 viewBox="0 0 24 24" style="enable-background:new 0 0 24 24;" xml:space="preserve">
<g id="Mail">
</g>
<g id="Open_Mail">
</g>
<g id="Mail_Attachmet">
</g>
<g id="Mails">
</g>
<g id="Trash">
</g>
<g id="Trash_Full">
</g>
<g id="Preferences_1">
</g>
<g id="Preferences_2">
</g>
<g id="Mouse">
</g>
<g id="Computer">
</g>
<g id="Notebook">
</g>
<g id="Mobile_Phone">
</g>
<g id="Print">
</g>
<g id="Calculator">
</g>
<g id="Tag">
</g>
<g id="Paperclip">
</g>
<g id="Heart">
</g>
<g id="Lock">
</g>
<g id="Lock_Open">
</g>
<g id="Key_1">
</g>
<g id="Star">
</g>
<g id="Add">
</g>
<g id="Remove">
</g>
<g id="Error">
</g>
<g id="Check_1">
</g>
<g id="Time">
</g>
<g id="Question_Mark">
</g>
<g id="Error_Mark">
</g>
<g id="Sand-Glass">
</g>
<g id="Battery_Full">
</g>
<g id="Battery_Charge">
	<g>
		<g>
			<path d="M19.5,18h-17C1.122,18,0,16.878,0,15.5v-6C0,8.122,1.122,7,2.5,7h17C20.878,7,22,8.122,22,9.5V10h0.5
				c0.827,0,1.5,0.673,1.5,1.5v2c0,0.827-0.673,1.5-1.5,1.5H22v0.5C22,16.878,20.878,18,19.5,18z M2.5,8C1.673,8,1,8.673,1,9.5v6
				C1,16.327,1.673,17,2.5,17h17c0.827,0,1.5-0.673,1.5-1.5v-1c0-0.276,0.224-0.5,0.5-0.5h1c0.276,0,0.5-0.224,0.5-0.5v-2
				c0-0.276-0.224-0.5-0.5-0.5h-1c-0.276,0-0.5-0.224-0.5-0.5v-1C21,8.673,20.327,8,19.5,8H2.5z"/>
		</g>
		<g>
			<path d="M10.5,16c-0.084,0-0.169-0.021-0.248-0.066c-0.24-0.137-0.323-0.442-0.186-0.682l1.351-2.364l-1.758,0.586
				c-0.196,0.067-0.413,0.003-0.545-0.157c-0.131-0.16-0.15-0.385-0.047-0.565l2-3.5c0.137-0.24,0.441-0.325,0.682-0.186
				c0.24,0.137,0.323,0.442,0.186,0.682l-1.351,2.364l1.758-0.586c0.199-0.065,0.414-0.003,0.545,0.157
				c0.131,0.16,0.15,0.385,0.047,0.565l-2,3.5C10.842,15.91,10.673,16,10.5,16z"/>
		</g>
		<g>
			<path d="M10.5,16c-0.084,0-0.169-0.021-0.248-0.066c-0.24-0.137-0.323-0.442-0.186-0.682l2-3.5
				c0.136-0.24,0.441-0.325,0.682-0.186c0.24,0.137,0.323,0.442,0.186,0.682l-2,3.5C10.842,15.91,10.673,16,10.5,16z"/>
		</g>
		<g>
			<path d="M8.196,16H2.5C2.224,16,2,15.776,2,15.5v-6C2,9.224,2.224,9,2.5,9h6.697c0.276,0,0.5,0.224,0.5,0.5S9.473,10,9.197,10H3
				v5h5.196c0.276,0,0.5,0.224,0.5,0.5S8.473,16,8.196,16z"/>
		</g>
		<g>
			<path d="M19.5,16h-6.697c-0.276,0-0.5-0.224-0.5-0.5s0.224-0.5,0.5-0.5H19v-5h-5.184c-0.276,0-0.5-0.224-0.5-0.5
				S13.54,9,13.816,9H19.5C19.776,9,20,9.224,20,9.5v6C20,15.776,19.776,16,19.5,16z"/>
		</g>
	</g>
</g>
<g id="Battery_Half">
</g>
<g id="Battery_Low">
</g>
<g id="No_Battery">
</g>
<g id="Key_2">
</g>
<g id="Link">
</g>
<g id="Brake_Link">
</g>
<g id="Pencil">
</g>
<g id="At">
</g>
<g id="Reply">
</g>
<g id="Accessible">
</g>
<g id="Up_Arrow">
</g>
<g id="Brush">
</g>
<g id="Design_Mug">
</g>
<g id="Design">
</g>
<g id="Server">
</g>
<g id="Database">
</g>
<g id="Save">
</g>
<g id="Female">
</g>
<g id="Male">
</g>
<g id="Book">
</g>
<g id="Power">
</g>
<g id="Reload">
</g>
<g id="Map">
</g>
<g id="Loction_1">
</g>
<g id="Location_2">
</g>
<g id="Globe">
</g>
<g id="Suitcase">
</g>
<g id="Callendar">
</g>
<g id="Cloud_Off">
</g>
<g id="File_1">
</g>
<g id="File_2">
</g>
<g id="Folder">
</g>
<g id="Open_Folder">
</g>
<g id="Cloud">
</g>
<g id="Upload_Cloud">
</g>
<g id="Download_Cloud">
</g>
<g id="Eye">
</g>
<g id="Invisible">
</g>
<g id="Assignment">
</g>
<g id="Note_Book">
</g>
<g id="Webpage">
</g>
<g id="Mailbox">
</g>
<g id="Drive">
</g>
<g id="Disc">
</g>
<g id="Wifi_1">
</g>
<g id="Wifi_2">
</g>
<g id="Archive">
</g>
<g id="Archive_File">
</g>
<g id="News">
</g>
<g id="Home">
</g>
<g id="Collaboration">
</g>
<g id="Announcement">
</g>
<g id="Watch">
</g>
<g id="Clock">
</g>
<g id="Volume">
</g>
<g id="Mute">
</g>
<g id="Hand">
</g>
<g id="Layers">
</g>
<g id="Bell">
</g>
<g id="Speach_Bubble">
</g>
<g id="Speach_Bubbles">
</g>
<g id="Zoom_In">
</g>
<g id="Zoom_Out">
</g>
<g id="Search">
</g>
<g id="Back_Arrow">
</g>
<g id="Close">
</g>
<g id="Check_2">
</g>
<g id="Left_Arrow_2">
</g>
<g id="Right_Arrow_2">
</g>
</svg>
