<?xml version="1.0" encoding="iso-8859-1"?>
<!-- Generator: Adobe Illustrator 19.2.1, SVG Export Plug-In . SVG Version: 6.00 Build 0)  -->
<svg version="1.1" xmlns="http://www.w3.org/2000/svg" xmlns:xlink="http://www.w3.org/1999/xlink" x="0px" y="0px"
	 viewBox="0 0 24 24" style="enable-background:new 0 0 24 24;" xml:space="preserve">
<g id="Mail">
</g>
<g id="Open_Mail">
</g>
<g id="Mail_Attachmet">
</g>
<g id="Mails">
</g>
<g id="Trash">
</g>
<g id="Trash_Full">
</g>
<g id="Preferences_1">
</g>
<g id="Preferences_2">
</g>
<g id="Mouse">
</g>
<g id="Computer">
</g>
<g id="Notebook">
</g>
<g id="Mobile_Phone">
</g>
<g id="Print">
</g>
<g id="Calculator">
</g>
<g id="Tag">
</g>
<g id="Paperclip">
</g>
<g id="Heart">
</g>
<g id="Lock">
</g>
<g id="Lock_Open">
</g>
<g id="Key_1">
</g>
<g id="Star">
</g>
<g id="Add">
</g>
<g id="Remove">
</g>
<g id="Error">
</g>
<g id="Check_1">
</g>
<g id="Time">
</g>
<g id="Question_Mark">
</g>
<g id="Error_Mark">
</g>
<g id="Sand-Glass">
</g>
<g id="Battery_Full">
</g>
<g id="Battery_Charge">
</g>
<g id="Battery_Half">
</g>
<g id="Battery_Low">
</g>
<g id="No_Battery">
</g>
<g id="Key_2">
</g>
<g id="Link">
</g>
<g id="Brake_Link">
</g>
<g id="Pencil">
</g>
<g id="At">
</g>
<g id="Reply">
</g>
<g id="Accessible">
</g>
<g id="Up_Arrow">
</g>
<g id="Brush">
</g>
<g id="Design_Mug">
</g>
<g id="Design">
</g>
<g id="Server">
</g>
<g id="Database">
</g>
<g id="Save">
</g>
<g id="Female">
</g>
<g id="Male">
</g>
<g id="Book">
</g>
<g id="Power">
</g>
<g id="Reload">
</g>
<g id="Map">
</g>
<g id="Loction_1">
</g>
<g id="Location_2">
</g>
<g id="Globe">
</g>
<g id="Suitcase">
</g>
<g id="Callendar">
</g>
<g id="Cloud_Off">
</g>
<g id="File_1">
</g>
<g id="File_2">
</g>
<g id="Folder">
</g>
<g id="Open_Folder">
</g>
<g id="Cloud">
</g>
<g id="Upload_Cloud">
</g>
<g id="Download_Cloud">
</g>
<g id="Eye">
</g>
<g id="Invisible">
</g>
<g id="Assignment">
</g>
<g id="Note_Book">
</g>
<g id="Webpage">
</g>
<g id="Mailbox">
</g>
<g id="Drive">
</g>
<g id="Disc">
</g>
<g id="Wifi_1">
</g>
<g id="Wifi_2">
</g>
<g id="Archive">
</g>
<g id="Archive_File">
</g>
<g id="News">
</g>
<g id="Home">
</g>
<g id="Collaboration">
</g>
<g id="Announcement">
</g>
<g id="Watch">
</g>
<g id="Clock">
</g>
<g id="Volume">
</g>
<g id="Mute">
</g>
<g id="Hand">
</g>
<g id="Layers">
</g>
<g id="Bell">
	<g>
		<g>
			<path d="M21.5,21h-19c-0.18,0-0.347-0.097-0.436-0.254c-0.088-0.156-0.086-0.349,0.007-0.503l1.718-2.862
				C4.581,16.06,5,14.548,5,13.007V10.5c0-3.859,3.141-7,7-7s7,3.141,7,7v2.507c0,1.541,0.419,3.053,1.211,4.374l1.718,2.862
				c0.093,0.154,0.095,0.347,0.007,0.503C21.847,20.903,21.68,21,21.5,21z M3.383,20h17.234l-1.264-2.105
				C18.468,16.419,18,14.729,18,13.007V10.5c0-3.309-2.691-6-6-6s-6,2.691-6,6v2.507c0,1.722-0.468,3.412-1.354,4.888L3.383,20z"/>
		</g>
		<g>
			<path d="M13.5,4.5C13.224,4.5,13,4.276,13,4V2c0-0.552-0.448-1-1-1s-1,0.448-1,1v2c0,0.276-0.224,0.5-0.5,0.5S10,4.276,10,4V2
				c0-1.103,0.897-2,2-2s2,0.897,2,2v2C14,4.276,13.776,4.5,13.5,4.5z"/>
		</g>
		<g>
			<path d="M12,24c-1.379,0-2.5-1.121-2.5-2.5c0-0.442,0.117-0.875,0.338-1.253c0.14-0.238,0.444-0.316,0.685-0.179
				c0.238,0.14,0.318,0.446,0.179,0.685c-0.13,0.221-0.201,0.486-0.201,0.747c0,0.827,0.673,1.5,1.5,1.5s1.5-0.673,1.5-1.5
				c0-0.261-0.071-0.526-0.201-0.747c-0.14-0.238-0.06-0.545,0.179-0.685c0.239-0.137,0.544-0.059,0.685,0.179
				c0.221,0.378,0.338,0.811,0.338,1.253C14.5,22.879,13.379,24,12,24z"/>
		</g>
	</g>
</g>
<g id="Speach_Bubble">
</g>
<g id="Speach_Bubbles">
</g>
<g id="Zoom_In">
</g>
<g id="Zoom_Out">
</g>
<g id="Search">
</g>
<g id="Back_Arrow">
</g>
<g id="Close">
</g>
<g id="Check_2">
</g>
<g id="Left_Arrow_2">
</g>
<g id="Right_Arrow_2">
</g>
</svg>
