<?xml version="1.0" encoding="iso-8859-1"?>
<!-- Generator: Adobe Illustrator 19.2.1, SVG Export Plug-In . SVG Version: 6.00 Build 0)  -->
<svg version="1.1" xmlns="http://www.w3.org/2000/svg" xmlns:xlink="http://www.w3.org/1999/xlink" x="0px" y="0px"
	 viewBox="0 0 24 24" style="enable-background:new 0 0 24 24;" xml:space="preserve">
<g id="Flag">
</g>
<g id="Umbrella">
</g>
<g id="Briefcase">
</g>
<g id="Box">
</g>
<g id="Magnet">
</g>
<g id="Percent">
</g>
<g id="Rocket">
</g>
<g id="Share">
</g>
<g id="Transmitter">
</g>
<g id="Record_2">
</g>
<g id="Record_1">
</g>
<g id="Anchor">
</g>
<g id="Airplane">
</g>
<g id="Car">
</g>
<g id="Newsfeed">
</g>
<g id="Wifi_Tethering">
</g>
<g id="No_Wifi_Tethering">
</g>
<g id="Bar_Chart_2">
</g>
<g id="Shop">
</g>
<g id="Alarm">
</g>
<g id="Sim_Card">
</g>
<g id="Radar">
</g>
<g id="Hand_2">
</g>
<g id="Palette">
</g>
<g id="Cake">
</g>
<g id="Blende">
	<g>
		<g>
			<path d="M12,24C5.383,24,0,18.617,0,12S5.383,0,12,0s12,5.383,12,12S18.617,24,12,24z M12,1C5.935,1,1,5.935,1,12s4.935,11,11,11
				s11-4.935,11-11S18.065,1,12,1z"/>
		</g>
		<g>
			<path d="M22.586,17H9.544c-0.276,0-0.5-0.224-0.5-0.5s0.224-0.5,0.5-0.5h13.042c0.276,0,0.5,0.224,0.5,0.5S22.862,17,22.586,17z"
				/>
		</g>
		<g>
			<path d="M13.449,23.909c-0.174,0-0.344-0.092-0.436-0.254L6.546,12.201c-0.136-0.24-0.051-0.546,0.189-0.682
				c0.239-0.136,0.546-0.052,0.682,0.189l6.468,11.454c0.136,0.24,0.051,0.546-0.189,0.682
				C13.617,23.889,13.533,23.909,13.449,23.909z"/>
		</g>
		<g>
			<path d="M2.952,19.6c-0.084,0-0.168-0.021-0.246-0.064c-0.24-0.136-0.325-0.44-0.189-0.682l6.548-11.6
				C9.2,7.013,9.506,6.93,9.746,7.064c0.24,0.136,0.325,0.44,0.189,0.682l-6.548,11.6C3.296,19.508,3.126,19.6,2.952,19.6z"/>
		</g>
		<g>
			<path d="M14.456,8H1.436c-0.276,0-0.5-0.224-0.5-0.5S1.159,7,1.436,7h13.021c0.276,0,0.5,0.224,0.5,0.5S14.732,8,14.456,8z"/>
		</g>
		<g>
			<path d="M17.022,12.538c-0.174,0-0.344-0.092-0.436-0.254L10.122,0.836c-0.136-0.24-0.051-0.546,0.189-0.682
				c0.239-0.135,0.545-0.052,0.682,0.189l6.465,11.448c0.136,0.24,0.051,0.546-0.189,0.682
				C17.19,12.518,17.106,12.538,17.022,12.538z"/>
		</g>
		<g>
			<path d="M14.5,17c-0.084,0-0.169-0.021-0.246-0.064c-0.24-0.137-0.325-0.441-0.189-0.682l6.558-11.587
				c0.138-0.242,0.443-0.325,0.682-0.189c0.24,0.137,0.325,0.441,0.189,0.682l-6.558,11.587C14.843,16.909,14.674,17,14.5,17z"/>
		</g>
	</g>
</g>
<g id="Feather_Pen">
</g>
<g id="Ticket">
</g>
<g id="Medal">
</g>
<g id="Mouse_Pointer_1">
</g>
<g id="Mouse_Pointer_2">
</g>
<g id="Fingerprint">
</g>
<g id="Earth">
</g>
</svg>
