<?xml version="1.0" encoding="iso-8859-1"?>
<!-- Generator: Adobe Illustrator 19.2.1, SVG Export Plug-In . SVG Version: 6.00 Build 0)  -->
<svg version="1.1" xmlns="http://www.w3.org/2000/svg" xmlns:xlink="http://www.w3.org/1999/xlink" x="0px" y="0px"
	 viewBox="0 0 24 24" style="enable-background:new 0 0 24 24;" xml:space="preserve">
<g id="Flag">
</g>
<g id="Umbrella">
</g>
<g id="Briefcase">
</g>
<g id="Box">
	<g>
		<g>
			<path d="M21.5,24h-19C1.122,24,0,22.878,0,21.5v-17C0,4.224,0.224,4,0.5,4h23C23.776,4,24,4.224,24,4.5v17
				C24,22.878,22.878,24,21.5,24z M1,5v16.5C1,22.327,1.673,23,2.5,23h19c0.827,0,1.5-0.673,1.5-1.5V5H1z"/>
		</g>
		<g>
			<path d="M23.5,5c-0.109,0-0.22-0.036-0.312-0.109L18.325,1H5.675L0.813,4.891C0.596,5.063,0.282,5.027,0.109,4.813
				c-0.172-0.216-0.137-0.53,0.078-0.703l5-4C5.276,0.039,5.386,0,5.5,0h13c0.114,0,0.224,0.039,0.313,0.109l5,4
				c0.215,0.173,0.25,0.487,0.078,0.703C23.792,4.936,23.646,5,23.5,5z"/>
		</g>
		<g>
			<path d="M15.5,12h-7C8.224,12,8,11.776,8,11.5v-3C8,8.224,8.224,8,8.5,8h7C15.776,8,16,8.224,16,8.5v3
				C16,11.776,15.776,12,15.5,12z M9,11h6V9H9V11z"/>
		</g>
	</g>
</g>
<g id="Magnet">
</g>
<g id="Percent">
</g>
<g id="Rocket">
</g>
<g id="Share">
</g>
<g id="Transmitter">
</g>
<g id="Record_2">
</g>
<g id="Record_1">
</g>
<g id="Anchor">
</g>
<g id="Airplane">
</g>
<g id="Car">
</g>
<g id="Newsfeed">
</g>
<g id="Wifi_Tethering">
</g>
<g id="No_Wifi_Tethering">
</g>
<g id="Bar_Chart_2">
</g>
<g id="Shop">
</g>
<g id="Alarm">
</g>
<g id="Sim_Card">
</g>
<g id="Radar">
</g>
<g id="Hand_2">
</g>
<g id="Palette">
</g>
<g id="Cake">
</g>
<g id="Blende">
</g>
<g id="Feather_Pen">
</g>
<g id="Ticket">
</g>
<g id="Medal">
</g>
<g id="Mouse_Pointer_1">
</g>
<g id="Mouse_Pointer_2">
</g>
<g id="Fingerprint">
</g>
<g id="Earth">
</g>
</svg>
