<?xml version="1.0" encoding="iso-8859-1"?>
<!-- Generator: Adobe Illustrator 19.2.1, SVG Export Plug-In . SVG Version: 6.00 Build 0)  -->
<svg version="1.1" xmlns="http://www.w3.org/2000/svg" xmlns:xlink="http://www.w3.org/1999/xlink" x="0px" y="0px"
	 viewBox="0 0 24 24" style="enable-background:new 0 0 24 24;" xml:space="preserve">
<g id="Mail">
</g>
<g id="Open_Mail">
</g>
<g id="Mail_Attachmet">
</g>
<g id="Mails">
</g>
<g id="Trash">
</g>
<g id="Trash_Full">
</g>
<g id="Preferences_1">
</g>
<g id="Preferences_2">
</g>
<g id="Mouse">
</g>
<g id="Computer">
</g>
<g id="Notebook">
</g>
<g id="Mobile_Phone">
</g>
<g id="Print">
</g>
<g id="Calculator">
</g>
<g id="Tag">
</g>
<g id="Paperclip">
</g>
<g id="Heart">
</g>
<g id="Lock">
</g>
<g id="Lock_Open">
</g>
<g id="Key_1">
</g>
<g id="Star">
</g>
<g id="Add">
</g>
<g id="Remove">
</g>
<g id="Error">
</g>
<g id="Check_1">
</g>
<g id="Time">
</g>
<g id="Question_Mark">
</g>
<g id="Error_Mark">
</g>
<g id="Sand-Glass">
</g>
<g id="Battery_Full">
</g>
<g id="Battery_Charge">
</g>
<g id="Battery_Half">
</g>
<g id="Battery_Low">
</g>
<g id="No_Battery">
</g>
<g id="Key_2">
</g>
<g id="Link">
</g>
<g id="Brake_Link">
	<g>
		<g>
			<path d="M5.505,6C5.377,6,5.249,5.951,5.152,5.854l-3.01-3C1.946,2.659,1.946,2.343,2.141,2.147
				c0.195-0.196,0.514-0.195,0.707-0.001l3.01,3c0.196,0.195,0.196,0.511,0.002,0.707C5.762,5.951,5.633,6,5.505,6z"/>
		</g>
		<g>
			<path d="M4.495,8h-4c-0.276,0-0.5-0.224-0.5-0.5S0.219,7,0.495,7h4c0.276,0,0.5,0.224,0.5,0.5S4.771,8,4.495,8z"/>
		</g>
		<g>
			<path d="M7.505,5c-0.276,0-0.5-0.224-0.5-0.5v-4c0-0.276,0.224-0.5,0.5-0.5s0.5,0.224,0.5,0.5v4C8.005,4.776,7.781,5,7.505,5z"/>
		</g>
		<g>
			<path d="M21.505,21c-0.128,0-0.256-0.049-0.353-0.146l-3.01-3c-0.196-0.195-0.196-0.511-0.002-0.707
				c0.195-0.196,0.514-0.195,0.707-0.001l3.01,3c0.196,0.195,0.196,0.511,0.002,0.707C21.762,20.951,21.633,21,21.505,21z"/>
		</g>
		<g>
			<path d="M23.505,16h-4c-0.276,0-0.5-0.224-0.5-0.5s0.224-0.5,0.5-0.5h4c0.276,0,0.5,0.224,0.5,0.5S23.781,16,23.505,16z"/>
		</g>
		<g>
			<path d="M16.495,23c-0.276,0-0.5-0.224-0.5-0.5v-4c0-0.276,0.224-0.5,0.5-0.5s0.5,0.224,0.5,0.5v4
				C16.995,22.776,16.771,23,16.495,23z"/>
		</g>
		<g>
			<path d="M13.136,15.357c-1.152,0-2.305-0.438-3.182-1.316c-0.195-0.195-0.195-0.512,0-0.707s0.512-0.195,0.707,0
				c1.366,1.366,3.586,1.364,4.95,0l6.363-6.364c1.364-1.365,1.364-3.585,0-4.95c-1.365-1.364-3.584-1.364-4.949,0l-4.364,4.364
				c-0.195,0.195-0.512,0.195-0.707,0s-0.195-0.512,0-0.707l4.364-4.364c1.754-1.754,4.609-1.754,6.363,0
				c1.755,1.754,1.755,4.61,0,6.364l-6.363,6.364C15.441,14.918,14.289,15.357,13.136,15.357z"/>
		</g>
		<g>
			<path d="M4.49,24.002c-1.152,0-2.305-0.438-3.182-1.315c-1.755-1.754-1.755-4.61,0-6.364l6.363-6.364
				c1.752-1.754,4.608-1.756,6.364,0c0.195,0.195,0.195,0.512,0,0.707s-0.512,0.195-0.707,0c-1.365-1.364-3.585-1.363-4.95,0
				L2.016,17.03c-1.364,1.365-1.364,3.585,0,4.95c1.365,1.364,3.584,1.364,4.949,0l4.364-4.364c0.195-0.195,0.512-0.195,0.707,0
				s0.195,0.512,0,0.707l-4.364,4.364C6.795,23.564,5.643,24.002,4.49,24.002z"/>
		</g>
	</g>
</g>
<g id="Pencil">
</g>
<g id="At">
</g>
<g id="Reply">
</g>
<g id="Accessible">
</g>
<g id="Up_Arrow">
</g>
<g id="Brush">
</g>
<g id="Design_Mug">
</g>
<g id="Design">
</g>
<g id="Server">
</g>
<g id="Database">
</g>
<g id="Save">
</g>
<g id="Female">
</g>
<g id="Male">
</g>
<g id="Book">
</g>
<g id="Power">
</g>
<g id="Reload">
</g>
<g id="Map">
</g>
<g id="Loction_1">
</g>
<g id="Location_2">
</g>
<g id="Globe">
</g>
<g id="Suitcase">
</g>
<g id="Callendar">
</g>
<g id="Cloud_Off">
</g>
<g id="File_1">
</g>
<g id="File_2">
</g>
<g id="Folder">
</g>
<g id="Open_Folder">
</g>
<g id="Cloud">
</g>
<g id="Upload_Cloud">
</g>
<g id="Download_Cloud">
</g>
<g id="Eye">
</g>
<g id="Invisible">
</g>
<g id="Assignment">
</g>
<g id="Note_Book">
</g>
<g id="Webpage">
</g>
<g id="Mailbox">
</g>
<g id="Drive">
</g>
<g id="Disc">
</g>
<g id="Wifi_1">
</g>
<g id="Wifi_2">
</g>
<g id="Archive">
</g>
<g id="Archive_File">
</g>
<g id="News">
</g>
<g id="Home">
</g>
<g id="Collaboration">
</g>
<g id="Announcement">
</g>
<g id="Watch">
</g>
<g id="Clock">
</g>
<g id="Volume">
</g>
<g id="Mute">
</g>
<g id="Hand">
</g>
<g id="Layers">
</g>
<g id="Bell">
</g>
<g id="Speach_Bubble">
</g>
<g id="Speach_Bubbles">
</g>
<g id="Zoom_In">
</g>
<g id="Zoom_Out">
</g>
<g id="Search">
</g>
<g id="Back_Arrow">
</g>
<g id="Close">
</g>
<g id="Check_2">
</g>
<g id="Left_Arrow_2">
</g>
<g id="Right_Arrow_2">
</g>
</svg>
