<?xml version="1.0" encoding="iso-8859-1"?>
<!-- Generator: Adobe Illustrator 19.2.1, SVG Export Plug-In . SVG Version: 6.00 Build 0)  -->
<svg version="1.1" xmlns="http://www.w3.org/2000/svg" xmlns:xlink="http://www.w3.org/1999/xlink" x="0px" y="0px"
	 viewBox="0 0 24 24" style="enable-background:new 0 0 24 24;" xml:space="preserve">
<g id="Flag">
</g>
<g id="Umbrella">
</g>
<g id="Briefcase">
	<g id="brifcase_1_">
		<g>
			<path d="M22.5,22h-21C0.673,22,0,21.327,0,20.5v-14C0,5.673,0.673,5,1.5,5h21C23.327,5,24,5.673,24,6.5v14
				C24,21.327,23.327,22,22.5,22z M1.5,6C1.224,6,1,6.224,1,6.5v14C1,20.776,1.224,21,1.5,21h21c0.276,0,0.5-0.224,0.5-0.5v-14
				C23,6.224,22.776,6,22.5,6H1.5z"/>
		</g>
		<g>
			<path d="M15.5,6h-7C8.224,6,8,5.776,8,5.5v-2C8,2.673,8.673,2,9.5,2h5C15.327,2,16,2.673,16,3.5v2C16,5.776,15.776,6,15.5,6z
				 M9,5h6V3.5C15,3.224,14.776,3,14.5,3h-5C9.224,3,9,3.224,9,3.5V5z"/>
		</g>
		<g>
			<path d="M12,13c-1.103,0-2-0.897-2-2s0.897-2,2-2s2,0.897,2,2S13.103,13,12,13z M12,10c-0.551,0-1,0.449-1,1s0.449,1,1,1
				s1-0.449,1-1S12.551,10,12,10z"/>
		</g>
		<g>
			<path d="M10.5,11h-10C0.224,11,0,10.776,0,10.5S0.224,10,0.5,10h10c0.276,0,0.5,0.224,0.5,0.5S10.776,11,10.5,11z"/>
		</g>
		<g>
			<path d="M23.5,11h-10c-0.276,0-0.5-0.224-0.5-0.5s0.224-0.5,0.5-0.5h10c0.276,0,0.5,0.224,0.5,0.5S23.776,11,23.5,11z"/>
		</g>
	</g>
</g>
<g id="Box">
</g>
<g id="Magnet">
</g>
<g id="Percent">
</g>
<g id="Rocket">
</g>
<g id="Share">
</g>
<g id="Transmitter">
</g>
<g id="Record_2">
</g>
<g id="Record_1">
</g>
<g id="Anchor">
</g>
<g id="Airplane">
</g>
<g id="Car">
</g>
<g id="Newsfeed">
</g>
<g id="Wifi_Tethering">
</g>
<g id="No_Wifi_Tethering">
</g>
<g id="Bar_Chart_2">
</g>
<g id="Shop">
</g>
<g id="Alarm">
</g>
<g id="Sim_Card">
</g>
<g id="Radar">
</g>
<g id="Hand_2">
</g>
<g id="Palette">
</g>
<g id="Cake">
</g>
<g id="Blende">
</g>
<g id="Feather_Pen">
</g>
<g id="Ticket">
</g>
<g id="Medal">
</g>
<g id="Mouse_Pointer_1">
</g>
<g id="Mouse_Pointer_2">
</g>
<g id="Fingerprint">
</g>
<g id="Earth">
</g>
</svg>
