<?xml version="1.0" encoding="iso-8859-1"?>
<!-- Generator: Adobe Illustrator 19.2.1, SVG Export Plug-In . SVG Version: 6.00 Build 0)  -->
<svg version="1.1" xmlns="http://www.w3.org/2000/svg" xmlns:xlink="http://www.w3.org/1999/xlink" x="0px" y="0px"
	 viewBox="0 0 24 24" style="enable-background:new 0 0 24 24;" xml:space="preserve">
<g id="Mail">
</g>
<g id="Open_Mail">
</g>
<g id="Mail_Attachmet">
</g>
<g id="Mails">
</g>
<g id="Trash">
</g>
<g id="Trash_Full">
</g>
<g id="Preferences_1">
</g>
<g id="Preferences_2">
</g>
<g id="Mouse">
</g>
<g id="Computer">
</g>
<g id="Notebook">
</g>
<g id="Mobile_Phone">
</g>
<g id="Print">
</g>
<g id="Calculator">
</g>
<g id="Tag">
</g>
<g id="Paperclip">
</g>
<g id="Heart">
</g>
<g id="Lock">
</g>
<g id="Lock_Open">
</g>
<g id="Key_1">
</g>
<g id="Star">
</g>
<g id="Add">
</g>
<g id="Remove">
</g>
<g id="Error">
</g>
<g id="Check_1">
</g>
<g id="Time">
</g>
<g id="Question_Mark">
</g>
<g id="Error_Mark">
</g>
<g id="Sand-Glass">
</g>
<g id="Battery_Full">
</g>
<g id="Battery_Charge">
</g>
<g id="Battery_Half">
</g>
<g id="Battery_Low">
</g>
<g id="No_Battery">
</g>
<g id="Key_2">
</g>
<g id="Link">
</g>
<g id="Brake_Link">
</g>
<g id="Pencil">
</g>
<g id="At">
</g>
<g id="Reply">
</g>
<g id="Accessible">
</g>
<g id="Up_Arrow">
</g>
<g id="Brush">
	<g>
		<g>
			<path d="M0.5,24c-0.064,0-0.129-0.012-0.191-0.038C0.122,23.885,0,23.702,0,23.5C0,18.89,3.993,15,6.5,15
				c0.133,0,0.26,0.053,0.354,0.146l2,2C8.947,17.24,9,17.367,9,17.5c0,2.552-1.215,4.147-3.422,4.494L4.942,22.09
				c-1.702,0.252-2.729,0.404-4.088,1.763C0.758,23.949,0.63,24,0.5,24z M6.305,16.012c-1.715,0.198-4.637,2.891-5.207,6.316
				c1.19-0.855,2.289-1.019,3.697-1.227l0.627-0.095c1.653-0.259,2.519-1.37,2.575-3.302L6.305,16.012z"/>
		</g>
		<g>
			<path d="M8.5,18c-0.171,0-0.338-0.088-0.431-0.246c-0.14-0.238-0.061-0.544,0.177-0.685c0.036-0.021,3.648-2.171,7.9-6.423
				c3.564-3.564,5.993-7.018,6.711-8.082l-1.422-1.422c-1.065,0.719-4.522,3.151-8.082,6.711c-4.252,4.252-6.401,7.864-6.423,7.9
				c-0.141,0.238-0.446,0.316-0.685,0.177c-0.238-0.14-0.317-0.446-0.177-0.684c0.089-0.151,2.228-3.751,6.577-8.1
				c4.342-4.342,8.542-7.041,8.584-7.068c0.198-0.126,0.457-0.098,0.623,0.068l2,2c0.166,0.166,0.194,0.425,0.068,0.623
				c-0.027,0.042-2.726,4.242-7.068,8.584c-4.349,4.349-7.949,6.488-8.1,6.577C8.674,17.978,8.587,18,8.5,18z"/>
		</g>
		<g>
			<path d="M13,14.5c-0.128,0-0.256-0.049-0.354-0.146l-3-3c-0.195-0.195-0.195-0.512,0-0.707s0.512-0.195,0.707,0l3,3
				c0.195,0.195,0.195,0.512,0,0.707C13.256,14.451,13.128,14.5,13,14.5z"/>
		</g>
	</g>
</g>
<g id="Design_Mug">
</g>
<g id="Design">
</g>
<g id="Server">
</g>
<g id="Database">
</g>
<g id="Save">
</g>
<g id="Female">
</g>
<g id="Male">
</g>
<g id="Book">
</g>
<g id="Power">
</g>
<g id="Reload">
</g>
<g id="Map">
</g>
<g id="Loction_1">
</g>
<g id="Location_2">
</g>
<g id="Globe">
</g>
<g id="Suitcase">
</g>
<g id="Callendar">
</g>
<g id="Cloud_Off">
</g>
<g id="File_1">
</g>
<g id="File_2">
</g>
<g id="Folder">
</g>
<g id="Open_Folder">
</g>
<g id="Cloud">
</g>
<g id="Upload_Cloud">
</g>
<g id="Download_Cloud">
</g>
<g id="Eye">
</g>
<g id="Invisible">
</g>
<g id="Assignment">
</g>
<g id="Note_Book">
</g>
<g id="Webpage">
</g>
<g id="Mailbox">
</g>
<g id="Drive">
</g>
<g id="Disc">
</g>
<g id="Wifi_1">
</g>
<g id="Wifi_2">
</g>
<g id="Archive">
</g>
<g id="Archive_File">
</g>
<g id="News">
</g>
<g id="Home">
</g>
<g id="Collaboration">
</g>
<g id="Announcement">
</g>
<g id="Watch">
</g>
<g id="Clock">
</g>
<g id="Volume">
</g>
<g id="Mute">
</g>
<g id="Hand">
</g>
<g id="Layers">
</g>
<g id="Bell">
</g>
<g id="Speach_Bubble">
</g>
<g id="Speach_Bubbles">
</g>
<g id="Zoom_In">
</g>
<g id="Zoom_Out">
</g>
<g id="Search">
</g>
<g id="Back_Arrow">
</g>
<g id="Close">
</g>
<g id="Check_2">
</g>
<g id="Left_Arrow_2">
</g>
<g id="Right_Arrow_2">
</g>
</svg>
