<?xml version="1.0" encoding="iso-8859-1"?>
<!-- Generator: Adobe Illustrator 19.2.1, SVG Export Plug-In . SVG Version: 6.00 Build 0)  -->
<svg version="1.1" xmlns="http://www.w3.org/2000/svg" xmlns:xlink="http://www.w3.org/1999/xlink" x="0px" y="0px"
	 viewBox="0 0 24 24" style="enable-background:new 0 0 24 24;" xml:space="preserve">
<g id="Credit_Card">
</g>
<g id="Banknote">
</g>
<g id="Wallet">
</g>
<g id="Compass">
</g>
<g id="Camera_1">
</g>
<g id="Photo">
</g>
<g id="Picture">
</g>
<g id="Camera_2">
</g>
<g id="No_Camera">
</g>
<g id="Video">
</g>
<g id="Audio">
</g>
<g id="Microphone_1">
</g>
<g id="Microphone_2">
</g>
<g id="No_Microphone">
</g>
<g id="Shopping_Cart">
</g>
<g id="Add_Shopping_Cart">
</g>
<g id="Remove_Shopping_Cart">
</g>
<g id="Shopping_Basket">
</g>
<g id="Jing-Jang">
</g>
<g id="Leaf">
</g>
<g id="Glass">
</g>
<g id="Cup">
</g>
<g id="Mug">
</g>
<g id="Refresh">
</g>
<g id="Login">
</g>
<g id="Logout">
</g>
<g id="Flowchart">
</g>
<g id="Pin_1">
</g>
<g id="Pin_2">
</g>
<g id="User_1">
</g>
<g id="User_2">
</g>
<g id="Users">
</g>
<g id="Adjustments">
</g>
<g id="Type">
</g>
<g id="Format_Size">
</g>
<g id="Menu_1">
</g>
<g id="Other">
</g>
<g id="Flash">
</g>
<g id="No_Flash">
</g>
<g id="Switch_Button_1">
</g>
<g id="Switch_Button_2">
</g>
<g id="Cut">
</g>
<g id="Crop">
</g>
<g id="Sun">
</g>
<g id="USB">
</g>
<g id="Pie_Chart_1">
</g>
<g id="Pie_Chart_2">
</g>
<g id="Line_Chart">
</g>
<g id="Bar_Chart">
</g>
<g id="Target">
</g>
<g id="Flashlight">
</g>
<g id="USB_Device">
</g>
<g id="Eject">
</g>
<g id="Lightbulb">
</g>
<g id="Information">
</g>
<g id="Deactivate_Protection">
</g>
<g id="Active_Protection">
</g>
<g id="Bug">
	<g>
		<g>
			<path d="M11.5,9c-1.289,0-2.252-0.324-2.862-0.964c-0.658-0.689-0.642-1.473-0.637-1.56c0.003-0.069,0.021-0.138,0.052-0.2l1.5-3
				C9.638,3.107,9.811,3,10,3h3c0.189,0,0.362,0.107,0.447,0.276l1.5,3c0.031,0.063,0.049,0.131,0.052,0.2
				c0.005,0.087,0.021,0.87-0.637,1.56C13.752,8.676,12.789,9,11.5,9z M9.005,6.607c0.018,0.148,0.088,0.466,0.371,0.754
				C9.786,7.779,10.521,8,11.5,8s1.714-0.221,2.124-0.639c0.282-0.287,0.353-0.603,0.37-0.754L12.691,4h-2.383L9.005,6.607z"/>
		</g>
		<g>
			<path d="M10,4C9.992,4,9.983,4,9.975,3.999C9.699,3.985,9.487,3.75,9.501,3.475c0.021-0.424-0.03-1.752-0.524-2.271
				C8.845,1.064,8.693,1,8.5,1C8.224,1,8,0.776,8,0.5S8.224,0,8.5,0c0.467,0,0.882,0.179,1.202,0.516
				c0.879,0.926,0.809,2.8,0.797,3.011C10.485,3.793,10.265,4,10,4z"/>
		</g>
		<g>
			<path d="M13.004,4c-0.265,0-0.485-0.207-0.499-0.474c-0.012-0.211-0.082-2.085,0.797-3.011C13.622,0.179,14.037,0,14.504,0
				c0.276,0,0.5,0.224,0.5,0.5S14.78,1,14.504,1c-0.193,0-0.345,0.064-0.477,0.204c-0.497,0.523-0.546,1.848-0.524,2.27
				c0.015,0.276-0.197,0.512-0.473,0.525C13.021,4,13.013,4,13.004,4z"/>
		</g>
		<g>
			<path d="M11.5,24C7.065,24,5,18.331,5,14.5c0-3.809,0.499-5.566,0.52-5.64c0.029-0.099,0.088-0.187,0.168-0.251l2.5-2
				c0.217-0.17,0.531-0.136,0.703,0.078c0.172,0.216,0.138,0.53-0.078,0.703L6.444,9.285C6.332,9.769,6,11.457,6,14.5
				c0,3.428,1.748,8.5,5.5,8.5s5.5-5.072,5.5-8.5c0-3.043-0.332-4.731-0.444-5.215l-2.368-1.895
				c-0.216-0.173-0.25-0.487-0.078-0.703c0.174-0.216,0.488-0.248,0.703-0.078l2.5,2c0.08,0.064,0.139,0.152,0.168,0.251
				C17.501,8.934,18,10.691,18,14.5C18,18.331,15.935,24,11.5,24z"/>
		</g>
		<g>
			<path d="M11.5,24c-0.276,0-0.5-0.224-0.5-0.5v-15C11,8.224,11.224,8,11.5,8S12,8.224,12,8.5v15C12,23.776,11.776,24,11.5,24z"/>
		</g>
		<g>
			<path d="M17.5,12c-0.161,0-0.319-0.078-0.416-0.223c-0.153-0.229-0.091-0.54,0.139-0.693l3-2
				c0.228-0.152,0.538-0.092,0.693,0.139c0.153,0.229,0.091,0.54-0.139,0.693l-3,2C17.692,11.973,17.596,12,17.5,12z"/>
		</g>
		<g>
			<path d="M20.5,16h-3c-0.276,0-0.5-0.224-0.5-0.5s0.224-0.5,0.5-0.5h3c0.276,0,0.5,0.224,0.5,0.5S20.776,16,20.5,16z"/>
		</g>
		<g>
			<path d="M19.5,23c-0.128,0-0.256-0.049-0.354-0.146l-3-3c-0.195-0.195-0.195-0.512,0-0.707s0.512-0.195,0.707,0l3,3
				c0.195,0.195,0.195,0.512,0,0.707C19.756,22.951,19.628,23,19.5,23z"/>
		</g>
		<g>
			<path d="M5.5,12c-0.096,0-0.192-0.027-0.277-0.084l-3-2C1.993,9.763,1.931,9.452,2.084,9.223s0.466-0.29,0.693-0.139l3,2
				c0.229,0.153,0.292,0.464,0.139,0.693C5.819,11.922,5.661,12,5.5,12z"/>
		</g>
		<g>
			<path d="M5.5,16h-3C2.224,16,2,15.776,2,15.5S2.224,15,2.5,15h3C5.776,15,6,15.224,6,15.5S5.776,16,5.5,16z"/>
		</g>
		<g>
			<path d="M3.5,23c-0.128,0-0.256-0.049-0.354-0.146c-0.195-0.195-0.195-0.512,0-0.707l3-3c0.195-0.195,0.512-0.195,0.707,0
				s0.195,0.512,0,0.707l-3,3C3.756,22.951,3.628,23,3.5,23z"/>
		</g>
	</g>
</g>
<g id="Protection">
</g>
<g id="Phone">
</g>
<g id="List">
</g>
<g id="Plugin_1">
</g>
<g id="Bookmarrk">
</g>
<g id="Handshake">
</g>
<g id="Minimize">
</g>
<g id="Maximize">
</g>
<g id="Diamond">
</g>
<g id="Stop">
</g>
<g id="Shuffle">
</g>
<g id="Undo">
</g>
<g id="Upgrade">
</g>
<g id="Coding">
</g>
<g id="Syncronizaion">
</g>
<g id="Radio">
</g>
<g id="Presentation">
</g>
<g id="Door">
</g>
<g id="Thumbs_Up">
</g>
<g id="Thumbs_Down">
</g>
<g id="Keyboard">
</g>
<g id="_x33_D_Cube">
</g>
<g id="Signal">
</g>
<g id="Dice">
</g>
<g id="Upload">
</g>
<g id="Download">
</g>
<g id="Plugin_2">
</g>
<g id="Shopping_Bag">
</g>
<g id="Lifebelt">
</g>
<g id="Glasses">
</g>
<g id="Parabolic_Antenna">
</g>
<g id="Loudspeaker">
</g>
<g id="Play">
</g>
<g id="Pause">
</g>
<g id="Signpost">
</g>
<g id="Bluetooth">
</g>
<g id="Present">
</g>
<g id="Ruler">
</g>
<g id="Connection">
</g>
<g id="Money">
</g>
<g id="Paper_Plane">
</g>
<g id="Wallet_2">
</g>
</svg>
