<?xml version="1.0" encoding="iso-8859-1"?>
<!-- Generator: Adobe Illustrator 19.2.1, SVG Export Plug-In . SVG Version: 6.00 Build 0)  -->
<svg version="1.1" xmlns="http://www.w3.org/2000/svg" xmlns:xlink="http://www.w3.org/1999/xlink" x="0px" y="0px"
	 viewBox="0 0 24 24" style="enable-background:new 0 0 24 24;" xml:space="preserve">
<g id="Flag">
</g>
<g id="Umbrella">
</g>
<g id="Briefcase">
</g>
<g id="Box">
</g>
<g id="Magnet">
</g>
<g id="Percent">
</g>
<g id="Rocket">
</g>
<g id="Share">
</g>
<g id="Transmitter">
</g>
<g id="Record_2">
</g>
<g id="Record_1">
</g>
<g id="Anchor">
</g>
<g id="Airplane">
</g>
<g id="Car">
</g>
<g id="Newsfeed">
</g>
<g id="Wifi_Tethering">
</g>
<g id="No_Wifi_Tethering">
</g>
<g id="Bar_Chart_2">
</g>
<g id="Shop">
</g>
<g id="Alarm">
</g>
<g id="Sim_Card">
</g>
<g id="Radar">
</g>
<g id="Hand_2">
</g>
<g id="Palette">
</g>
<g id="Cake">
	<g>
		<g>
			<path d="M18.998,19c-1.03,0-2-0.386-2.75-1.099c-0.302-0.286-0.553-0.61-0.749-0.963C14.814,18.167,13.503,19,12,19
				s-2.814-0.833-3.498-2.062c-0.196,0.353-0.447,0.677-0.749,0.963c-0.803,0.763-1.863,1.155-2.967,1.093
				C2.698,18.885,1,17.004,1,14.802V13.5C1,11.57,2.57,10,4.5,10h15c1.93,0,3.5,1.57,3.5,3.5v1.302c0,2.202-1.698,4.083-3.786,4.192
				C19.142,18.998,19.069,19,18.998,19z M4.5,11C3.122,11,2,12.121,2,13.5v1.302c0,1.679,1.273,3.111,2.838,3.194
				c0.83,0.041,1.624-0.248,2.227-0.819C7.668,16.604,8,15.831,8,15c0-0.276,0.224-0.5,0.5-0.5S9,14.724,9,15c0,1.654,1.346,3,3,3
				s3-1.346,3-3c0-0.276,0.224-0.5,0.5-0.5S16,14.724,16,15c0,0.831,0.332,1.604,0.935,2.177c0.603,0.571,1.394,0.865,2.227,0.819
				C20.727,17.913,22,16.48,22,14.802V13.5c0-1.379-1.122-2.5-2.5-2.5H4.5z"/>
		</g>
		<g>
			<path d="M18.5,24h-13C4.122,24,3,22.879,3,21.5v-3.355c0-0.276,0.224-0.5,0.5-0.5s0.5,0.224,0.5,0.5V21.5
				C4,22.327,4.673,23,5.5,23h13c0.827,0,1.5-0.673,1.5-1.5v-3.356c0-0.276,0.224-0.5,0.5-0.5s0.5,0.224,0.5,0.5V21.5
				C21,22.879,19.878,24,18.5,24z"/>
		</g>
		<g>
			<path d="M13.5,11h-3c-0.276,0-0.5-0.224-0.5-0.5v-4C10,5.673,10.673,5,11.5,5h1C13.327,5,14,5.673,14,6.5v4
				C14,10.776,13.776,11,13.5,11z M11,10h2V6.5C13,6.225,12.776,6,12.5,6h-1C11.224,6,11,6.225,11,6.5V10z"/>
		</g>
		<g>
			<path d="M12,6c-1.103,0-2-0.897-2-2c0-0.739,1.193-3.045,1.558-3.734C11.646,0.103,11.841,0.022,12.001,0
				c0.186,0.001,0.356,0.104,0.442,0.269C12.911,1.166,14,3.325,14,4C14,5.103,13.103,6,12,6z M11.997,1.602
				C11.466,2.675,11.006,3.732,11,4.001C11,4.552,11.449,5,12,5c0.551,0,0.999-0.447,1-0.998
				C12.986,3.731,12.524,2.675,11.997,1.602z"/>
		</g>
	</g>
</g>
<g id="Blende">
</g>
<g id="Feather_Pen">
</g>
<g id="Ticket">
</g>
<g id="Medal">
</g>
<g id="Mouse_Pointer_1">
</g>
<g id="Mouse_Pointer_2">
</g>
<g id="Fingerprint">
</g>
<g id="Earth">
</g>
</svg>
