<?xml version="1.0" encoding="iso-8859-1"?>
<!-- Generator: Adobe Illustrator 19.2.1, SVG Export Plug-In . SVG Version: 6.00 Build 0)  -->
<svg version="1.1" xmlns="http://www.w3.org/2000/svg" xmlns:xlink="http://www.w3.org/1999/xlink" x="0px" y="0px"
	 viewBox="0 0 24 24" style="enable-background:new 0 0 24 24;" xml:space="preserve">
<g id="Flag">
</g>
<g id="Umbrella">
</g>
<g id="Briefcase">
</g>
<g id="Box">
</g>
<g id="Magnet">
</g>
<g id="Percent">
</g>
<g id="Rocket">
</g>
<g id="Share">
</g>
<g id="Transmitter">
</g>
<g id="Record_2">
</g>
<g id="Record_1">
</g>
<g id="Anchor">
</g>
<g id="Airplane">
</g>
<g id="Car">
	<g>
		<g>
			<path d="M22.5,18h-21C0.673,18,0,17.327,0,16.5v-4C0,10.57,1.57,9,3.5,9h17c1.93,0,3.5,1.57,3.5,3.5v4
				C24,17.327,23.327,18,22.5,18z M3.5,10C2.122,10,1,11.122,1,12.5v4C1,16.776,1.224,17,1.5,17h21c0.276,0,0.5-0.224,0.5-0.5v-4
				c0-1.378-1.122-2.5-2.5-2.5H3.5z"/>
		</g>
		<g>
			<path d="M5.5,22h-2C2.673,22,2,21.327,2,20.5v-3C2,17.224,2.224,17,2.5,17h4C6.776,17,7,17.224,7,17.5v3
				C7,21.327,6.327,22,5.5,22z M3,18v2.5C3,20.776,3.224,21,3.5,21h2C5.776,21,6,20.776,6,20.5V18H3z"/>
		</g>
		<g>
			<path d="M20.5,22h-2c-0.827,0-1.5-0.673-1.5-1.5v-3c0-0.276,0.224-0.5,0.5-0.5h4c0.276,0,0.5,0.224,0.5,0.5v3
				C22,21.327,21.327,22,20.5,22z M18,18v2.5c0,0.276,0.224,0.5,0.5,0.5h2c0.276,0,0.5-0.224,0.5-0.5V18H18z"/>
		</g>
		<g>
			<path d="M21.575,10.199c-0.194,0-0.379-0.114-0.46-0.304L18.3,3.302C18.221,3.119,18.041,3,17.841,3H6.159
				c-0.2,0-0.38,0.119-0.459,0.303L2.885,9.895c-0.109,0.254-0.404,0.372-0.656,0.264C1.975,10.05,1.856,9.756,1.965,9.502
				L4.78,2.91C5.018,2.357,5.559,2,6.159,2h11.682c0.601,0,1.142,0.357,1.378,0.909l2.816,6.594c0.108,0.254-0.01,0.548-0.264,0.656
				C21.708,10.186,21.641,10.199,21.575,10.199z"/>
		</g>
		<g>
			<path d="M4.5,16C3.122,16,2,14.878,2,13.5S3.122,11,4.5,11S7,12.122,7,13.5S5.878,16,4.5,16z M4.5,12C3.673,12,3,12.673,3,13.5
				S3.673,15,4.5,15S6,14.327,6,13.5S5.327,12,4.5,12z"/>
		</g>
		<g>
			<path d="M19.5,16c-1.378,0-2.5-1.122-2.5-2.5s1.122-2.5,2.5-2.5s2.5,1.122,2.5,2.5S20.878,16,19.5,16z M19.5,12
				c-0.827,0-1.5,0.673-1.5,1.5s0.673,1.5,1.5,1.5s1.5-0.673,1.5-1.5S20.327,12,19.5,12z"/>
		</g>
		<g>
			<path d="M15.5,15h-7C8.224,15,8,14.776,8,14.5S8.224,14,8.5,14h7c0.276,0,0.5,0.224,0.5,0.5S15.776,15,15.5,15z"/>
		</g>
		<g>
			<path d="M15.5,13h-7C8.224,13,8,12.776,8,12.5S8.224,12,8.5,12h7c0.276,0,0.5,0.224,0.5,0.5S15.776,13,15.5,13z"/>
		</g>
	</g>
</g>
<g id="Newsfeed">
</g>
<g id="Wifi_Tethering">
</g>
<g id="No_Wifi_Tethering">
</g>
<g id="Bar_Chart_2">
</g>
<g id="Shop">
</g>
<g id="Alarm">
</g>
<g id="Sim_Card">
</g>
<g id="Radar">
</g>
<g id="Hand_2">
</g>
<g id="Palette">
</g>
<g id="Cake">
</g>
<g id="Blende">
</g>
<g id="Feather_Pen">
</g>
<g id="Ticket">
</g>
<g id="Medal">
</g>
<g id="Mouse_Pointer_1">
</g>
<g id="Mouse_Pointer_2">
</g>
<g id="Fingerprint">
</g>
<g id="Earth">
</g>
</svg>
