<?xml version="1.0" encoding="iso-8859-1"?>
<!-- Generator: Adobe Illustrator 19.2.1, SVG Export Plug-In . SVG Version: 6.00 Build 0)  -->
<svg version="1.1" xmlns="http://www.w3.org/2000/svg" xmlns:xlink="http://www.w3.org/1999/xlink" x="0px" y="0px"
	 viewBox="0 0 24 24" style="enable-background:new 0 0 24 24;" xml:space="preserve">
<g id="Mail">
</g>
<g id="Open_Mail">
</g>
<g id="Mail_Attachmet">
</g>
<g id="Mails">
</g>
<g id="Trash">
</g>
<g id="Trash_Full">
</g>
<g id="Preferences_1">
</g>
<g id="Preferences_2">
</g>
<g id="Mouse">
</g>
<g id="Computer">
</g>
<g id="Notebook">
</g>
<g id="Mobile_Phone">
</g>
<g id="Print">
</g>
<g id="Calculator">
</g>
<g id="Tag">
</g>
<g id="Paperclip">
</g>
<g id="Heart">
</g>
<g id="Lock">
</g>
<g id="Lock_Open">
</g>
<g id="Key_1">
</g>
<g id="Star">
</g>
<g id="Add">
</g>
<g id="Remove">
</g>
<g id="Error">
</g>
<g id="Check_1">
</g>
<g id="Time">
</g>
<g id="Question_Mark">
</g>
<g id="Error_Mark">
</g>
<g id="Sand-Glass">
</g>
<g id="Battery_Full">
</g>
<g id="Battery_Charge">
</g>
<g id="Battery_Half">
</g>
<g id="Battery_Low">
</g>
<g id="No_Battery">
</g>
<g id="Key_2">
</g>
<g id="Link">
</g>
<g id="Brake_Link">
</g>
<g id="Pencil">
</g>
<g id="At">
</g>
<g id="Reply">
</g>
<g id="Accessible">
</g>
<g id="Up_Arrow">
</g>
<g id="Brush">
</g>
<g id="Design_Mug">
</g>
<g id="Design">
</g>
<g id="Server">
</g>
<g id="Database">
</g>
<g id="Save">
</g>
<g id="Female">
</g>
<g id="Male">
</g>
<g id="Book">
</g>
<g id="Power">
</g>
<g id="Reload">
</g>
<g id="Map">
</g>
<g id="Loction_1">
</g>
<g id="Location_2">
</g>
<g id="Globe">
</g>
<g id="Suitcase">
</g>
<g id="Callendar">
</g>
<g id="Cloud_Off">
	<g>
		<g>
			<g>
				<path d="M2.323,19.349c-0.094,0-0.188-0.026-0.272-0.081C0.767,18.433,0,17.023,0,15.5c0-2.32,1.765-4.235,4.022-4.475
					C4.007,10.843,4,10.67,4,10.5C4,6.364,7.364,3,11.5,3c1.769,0,3.486,0.632,4.836,1.778c0.211,0.179,0.236,0.494,0.058,0.704
					C16.216,5.694,15.9,5.72,15.689,5.54C14.52,4.547,13.031,4,11.5,4C7.916,4,5,6.916,5,10.5c0,0.281,0.024,0.579,0.076,0.937
					c0.021,0.144-0.022,0.289-0.117,0.398c-0.11,0.128-0.319,0.188-0.492,0.164C2.57,12,1,13.57,1,15.5
					c0,1.185,0.597,2.279,1.596,2.93c0.231,0.15,0.297,0.46,0.146,0.691C2.646,19.269,2.486,19.349,2.323,19.349z"/>
			</g>
			<g>
				<path d="M18.5,20h-14c-0.202,0-0.385-0.122-0.462-0.309s-0.034-0.402,0.108-0.545L16.988,6.305
					c0.105-0.106,0.253-0.161,0.404-0.144c0.149,0.015,0.284,0.097,0.367,0.223c0.531,0.809,0.896,1.69,1.084,2.627
					C21.717,9.188,24,11.583,24,14.5C24,17.532,21.532,20,18.5,20z M5.707,19H18.5c2.481,0,4.5-2.019,4.5-4.5
					c0-2.475-2.008-4.489-4.48-4.5c-0.031,0.004-0.079,0.008-0.098,0.008c-0.249,0-0.46-0.183-0.495-0.43
					c-0.105-0.744-0.336-1.451-0.687-2.111L5.707,19z"/>
			</g>
		</g>
		<g>
			<path d="M0.5,24c-0.128,0-0.256-0.049-0.354-0.146c-0.195-0.195-0.195-0.512,0-0.707l23-23c0.195-0.195,0.512-0.195,0.707,0
				s0.195,0.512,0,0.707l-23,23C0.756,23.951,0.628,24,0.5,24z"/>
		</g>
	</g>
</g>
<g id="File_1">
</g>
<g id="File_2">
</g>
<g id="Folder">
</g>
<g id="Open_Folder">
</g>
<g id="Cloud">
</g>
<g id="Upload_Cloud">
</g>
<g id="Download_Cloud">
</g>
<g id="Eye">
</g>
<g id="Invisible">
</g>
<g id="Assignment">
</g>
<g id="Note_Book">
</g>
<g id="Webpage">
</g>
<g id="Mailbox">
</g>
<g id="Drive">
</g>
<g id="Disc">
</g>
<g id="Wifi_1">
</g>
<g id="Wifi_2">
</g>
<g id="Archive">
</g>
<g id="Archive_File">
</g>
<g id="News">
</g>
<g id="Home">
</g>
<g id="Collaboration">
</g>
<g id="Announcement">
</g>
<g id="Watch">
</g>
<g id="Clock">
</g>
<g id="Volume">
</g>
<g id="Mute">
</g>
<g id="Hand">
</g>
<g id="Layers">
</g>
<g id="Bell">
</g>
<g id="Speach_Bubble">
</g>
<g id="Speach_Bubbles">
</g>
<g id="Zoom_In">
</g>
<g id="Zoom_Out">
</g>
<g id="Search">
</g>
<g id="Back_Arrow">
</g>
<g id="Close">
</g>
<g id="Check_2">
</g>
<g id="Left_Arrow_2">
</g>
<g id="Right_Arrow_2">
</g>
</svg>
