<?xml version="1.0" encoding="iso-8859-1"?>
<!-- Generator: Adobe Illustrator 19.2.1, SVG Export Plug-In . SVG Version: 6.00 Build 0)  -->
<svg version="1.1" xmlns="http://www.w3.org/2000/svg" xmlns:xlink="http://www.w3.org/1999/xlink" x="0px" y="0px"
	 viewBox="0 0 24 24" style="enable-background:new 0 0 24 24;" xml:space="preserve">
<g id="Mail">
</g>
<g id="Open_Mail">
</g>
<g id="Mail_Attachmet">
</g>
<g id="Mails">
</g>
<g id="Trash">
</g>
<g id="Trash_Full">
</g>
<g id="Preferences_1">
</g>
<g id="Preferences_2">
</g>
<g id="Mouse">
</g>
<g id="Computer">
</g>
<g id="Notebook">
</g>
<g id="Mobile_Phone">
</g>
<g id="Print">
</g>
<g id="Calculator">
</g>
<g id="Tag">
</g>
<g id="Paperclip">
</g>
<g id="Heart">
</g>
<g id="Lock">
</g>
<g id="Lock_Open">
</g>
<g id="Key_1">
</g>
<g id="Star">
</g>
<g id="Add">
</g>
<g id="Remove">
</g>
<g id="Error">
</g>
<g id="Check_1">
</g>
<g id="Time">
</g>
<g id="Question_Mark">
</g>
<g id="Error_Mark">
</g>
<g id="Sand-Glass">
</g>
<g id="Battery_Full">
</g>
<g id="Battery_Charge">
</g>
<g id="Battery_Half">
</g>
<g id="Battery_Low">
</g>
<g id="No_Battery">
</g>
<g id="Key_2">
</g>
<g id="Link">
</g>
<g id="Brake_Link">
</g>
<g id="Pencil">
</g>
<g id="At">
</g>
<g id="Reply">
</g>
<g id="Accessible">
</g>
<g id="Up_Arrow">
</g>
<g id="Brush">
</g>
<g id="Design_Mug">
</g>
<g id="Design">
</g>
<g id="Server">
</g>
<g id="Database">
</g>
<g id="Save">
</g>
<g id="Female">
</g>
<g id="Male">
</g>
<g id="Book">
</g>
<g id="Power">
</g>
<g id="Reload">
</g>
<g id="Map">
</g>
<g id="Loction_1">
</g>
<g id="Location_2">
</g>
<g id="Globe">
</g>
<g id="Suitcase">
</g>
<g id="Callendar">
</g>
<g id="Cloud_Off">
</g>
<g id="File_1">
</g>
<g id="File_2">
</g>
<g id="Folder">
</g>
<g id="Open_Folder">
</g>
<g id="Cloud">
</g>
<g id="Upload_Cloud">
</g>
<g id="Download_Cloud">
</g>
<g id="Eye">
</g>
<g id="Invisible">
</g>
<g id="Assignment">
</g>
<g id="Note_Book">
</g>
<g id="Webpage">
</g>
<g id="Mailbox">
</g>
<g id="Drive">
</g>
<g id="Disc">
</g>
<g id="Wifi_1">
</g>
<g id="Wifi_2">
</g>
<g id="Archive">
</g>
<g id="Archive_File">
</g>
<g id="News">
</g>
<g id="Home">
</g>
<g id="Collaboration">
	<g>
		<g>
			<path d="M19.5,22c-1.93,0-3.5-1.57-3.5-3.5s1.57-3.5,3.5-3.5s3.5,1.57,3.5,3.5S21.43,22,19.5,22z M19.5,16
				c-1.378,0-2.5,1.121-2.5,2.5s1.122,2.5,2.5,2.5s2.5-1.121,2.5-2.5S20.878,16,19.5,16z"/>
		</g>
		<g>
			<path d="M11.5,8C9.57,8,8,6.43,8,4.5S9.57,1,11.5,1S15,2.57,15,4.5S13.43,8,11.5,8z M11.5,2C10.122,2,9,3.121,9,4.5
				S10.122,7,11.5,7S14,5.879,14,4.5S12.878,2,11.5,2z"/>
		</g>
		<g>
			<path d="M3.5,22C1.57,22,0,20.43,0,18.5S1.57,15,3.5,15S7,16.57,7,18.5S5.43,22,3.5,22z M3.5,16C2.122,16,1,17.121,1,18.5
				S2.122,21,3.5,21S6,19.879,6,18.5S4.878,16,3.5,16z"/>
		</g>
		<g>
			<path d="M11.5,23c-2.199,0-4.343-0.769-6.038-2.165c-0.213-0.176-0.244-0.49-0.068-0.704c0.175-0.212,0.49-0.245,0.704-0.067
				C7.614,21.313,9.533,22,11.5,22c1.969,0,3.889-0.688,5.405-1.939c0.214-0.177,0.528-0.146,0.704,0.067s0.146,0.528-0.067,0.704
				C15.846,22.23,13.701,23,11.5,23z"/>
		</g>
		<g>
			<path d="M20.254,16.099c-0.039,0-0.078-0.004-0.117-0.014c-0.269-0.064-0.435-0.334-0.37-0.603C19.922,14.839,20,14.172,20,13.5
				c0-3.596-2.276-6.816-5.663-8.015c-0.26-0.093-0.396-0.378-0.304-0.639c0.092-0.26,0.376-0.396,0.638-0.305
				C18.457,5.882,21,9.481,21,13.5c0,0.75-0.087,1.495-0.26,2.215C20.685,15.944,20.48,16.099,20.254,16.099z"/>
		</g>
		<g>
			<path d="M2.745,16.096c-0.226,0-0.431-0.154-0.486-0.384C2.087,14.99,2,14.246,2,13.5c0-4.041,2.563-7.648,6.378-8.976
				c0.259-0.089,0.546,0.047,0.636,0.309C9.105,5.094,8.968,5.379,8.707,5.47C5.293,6.656,3,9.884,3,13.5
				c0,0.668,0.078,1.335,0.231,1.979c0.064,0.27-0.102,0.539-0.371,0.603C2.822,16.092,2.783,16.096,2.745,16.096z"/>
		</g>
	</g>
</g>
<g id="Announcement">
</g>
<g id="Watch">
</g>
<g id="Clock">
</g>
<g id="Volume">
</g>
<g id="Mute">
</g>
<g id="Hand">
</g>
<g id="Layers">
</g>
<g id="Bell">
</g>
<g id="Speach_Bubble">
</g>
<g id="Speach_Bubbles">
</g>
<g id="Zoom_In">
</g>
<g id="Zoom_Out">
</g>
<g id="Search">
</g>
<g id="Back_Arrow">
</g>
<g id="Close">
</g>
<g id="Check_2">
</g>
<g id="Left_Arrow_2">
</g>
<g id="Right_Arrow_2">
</g>
</svg>
