<?xml version="1.0" encoding="iso-8859-1"?>
<!-- Generator: Adobe Illustrator 19.2.1, SVG Export Plug-In . SVG Version: 6.00 Build 0)  -->
<svg version="1.1" xmlns="http://www.w3.org/2000/svg" xmlns:xlink="http://www.w3.org/1999/xlink" x="0px" y="0px"
	 viewBox="0 0 24 24" style="enable-background:new 0 0 24 24;" xml:space="preserve">
<g id="Mail">
</g>
<g id="Open_Mail">
</g>
<g id="Mail_Attachmet">
</g>
<g id="Mails">
</g>
<g id="Trash">
</g>
<g id="Trash_Full">
</g>
<g id="Preferences_1">
</g>
<g id="Preferences_2">
</g>
<g id="Mouse">
</g>
<g id="Computer">
	<g>
		<g>
			<path d="M20.5,19h-18C1.121,19,0,17.878,0,16.5v-13C0,2.122,1.121,1,2.5,1h18C21.879,1,23,2.122,23,3.5v13
				C23,17.878,21.879,19,20.5,19z M2.5,2C1.673,2,1,2.673,1,3.5v13C1,17.327,1.673,18,2.5,18h18c0.827,0,1.5-0.673,1.5-1.5v-13
				C22,2.673,21.327,2,20.5,2H2.5z"/>
		</g>
		<g>
			<path d="M17.5,23h-12C5.224,23,5,22.776,5,22.5S5.224,22,5.5,22h12c0.276,0,0.5,0.224,0.5,0.5S17.776,23,17.5,23z"/>
		</g>
		<g>
			<path d="M22.5,15h-22C0.224,15,0,14.776,0,14.5S0.224,14,0.5,14h22c0.276,0,0.5,0.224,0.5,0.5S22.776,15,22.5,15z"/>
		</g>
		<g>
			<path d="M15.5,23c-1.848,0-2.403-3.697-2.496-4.438c-0.034-0.274,0.16-0.524,0.434-0.558c0.271-0.03,0.523,0.159,0.559,0.434
				C14.184,19.931,14.811,22,15.5,22c0.276,0,0.5,0.224,0.5,0.5S15.776,23,15.5,23z"/>
		</g>
		<g>
			<path d="M7.5,23C7.224,23,7,22.776,7,22.5S7.224,22,7.5,22c0.689,0,1.316-2.069,1.504-3.562c0.035-0.275,0.287-0.464,0.559-0.434
				c0.273,0.034,0.468,0.284,0.434,0.558C9.903,19.303,9.348,23,7.5,23z"/>
		</g>
	</g>
</g>
<g id="Notebook">
</g>
<g id="Mobile_Phone">
</g>
<g id="Print">
</g>
<g id="Calculator">
</g>
<g id="Tag">
</g>
<g id="Paperclip">
</g>
<g id="Heart">
</g>
<g id="Lock">
</g>
<g id="Lock_Open">
</g>
<g id="Key_1">
</g>
<g id="Star">
</g>
<g id="Add">
</g>
<g id="Remove">
</g>
<g id="Error">
</g>
<g id="Check_1">
</g>
<g id="Time">
</g>
<g id="Question_Mark">
</g>
<g id="Error_Mark">
</g>
<g id="Sand-Glass">
</g>
<g id="Battery_Full">
</g>
<g id="Battery_Charge">
</g>
<g id="Battery_Half">
</g>
<g id="Battery_Low">
</g>
<g id="No_Battery">
</g>
<g id="Key_2">
</g>
<g id="Link">
</g>
<g id="Brake_Link">
</g>
<g id="Pencil">
</g>
<g id="At">
</g>
<g id="Reply">
</g>
<g id="Accessible">
</g>
<g id="Up_Arrow">
</g>
<g id="Brush">
</g>
<g id="Design_Mug">
</g>
<g id="Design">
</g>
<g id="Server">
</g>
<g id="Database">
</g>
<g id="Save">
</g>
<g id="Female">
</g>
<g id="Male">
</g>
<g id="Book">
</g>
<g id="Power">
</g>
<g id="Reload">
</g>
<g id="Map">
</g>
<g id="Loction_1">
</g>
<g id="Location_2">
</g>
<g id="Globe">
</g>
<g id="Suitcase">
</g>
<g id="Callendar">
</g>
<g id="Cloud_Off">
</g>
<g id="File_1">
</g>
<g id="File_2">
</g>
<g id="Folder">
</g>
<g id="Open_Folder">
</g>
<g id="Cloud">
</g>
<g id="Upload_Cloud">
</g>
<g id="Download_Cloud">
</g>
<g id="Eye">
</g>
<g id="Invisible">
</g>
<g id="Assignment">
</g>
<g id="Note_Book">
</g>
<g id="Webpage">
</g>
<g id="Mailbox">
</g>
<g id="Drive">
</g>
<g id="Disc">
</g>
<g id="Wifi_1">
</g>
<g id="Wifi_2">
</g>
<g id="Archive">
</g>
<g id="Archive_File">
</g>
<g id="News">
</g>
<g id="Home">
</g>
<g id="Collaboration">
</g>
<g id="Announcement">
</g>
<g id="Watch">
</g>
<g id="Clock">
</g>
<g id="Volume">
</g>
<g id="Mute">
</g>
<g id="Hand">
</g>
<g id="Layers">
</g>
<g id="Bell">
</g>
<g id="Speach_Bubble">
</g>
<g id="Speach_Bubbles">
</g>
<g id="Zoom_In">
</g>
<g id="Zoom_Out">
</g>
<g id="Search">
</g>
<g id="Back_Arrow">
</g>
<g id="Close">
</g>
<g id="Check_2">
</g>
<g id="Left_Arrow_2">
</g>
<g id="Right_Arrow_2">
</g>
</svg>
