<?xml version="1.0" encoding="iso-8859-1"?>
<!-- Generator: Adobe Illustrator 19.2.1, SVG Export Plug-In . SVG Version: 6.00 Build 0)  -->
<svg version="1.1" xmlns="http://www.w3.org/2000/svg" xmlns:xlink="http://www.w3.org/1999/xlink" x="0px" y="0px"
	 viewBox="0 0 24 24" style="enable-background:new 0 0 24 24;" xml:space="preserve">
<g id="Credit_Card">
</g>
<g id="Banknote">
</g>
<g id="Wallet">
</g>
<g id="Compass">
</g>
<g id="Camera_1">
</g>
<g id="Photo">
</g>
<g id="Picture">
</g>
<g id="Camera_2">
</g>
<g id="No_Camera">
</g>
<g id="Video">
</g>
<g id="Audio">
</g>
<g id="Microphone_1">
</g>
<g id="Microphone_2">
</g>
<g id="No_Microphone">
</g>
<g id="Shopping_Cart">
</g>
<g id="Add_Shopping_Cart">
</g>
<g id="Remove_Shopping_Cart">
</g>
<g id="Shopping_Basket">
</g>
<g id="Jing-Jang">
</g>
<g id="Leaf">
</g>
<g id="Glass">
</g>
<g id="Cup">
</g>
<g id="Mug">
</g>
<g id="Refresh">
</g>
<g id="Login">
</g>
<g id="Logout">
</g>
<g id="Flowchart">
</g>
<g id="Pin_1">
</g>
<g id="Pin_2">
</g>
<g id="User_1">
</g>
<g id="User_2">
</g>
<g id="Users">
</g>
<g id="Adjustments">
</g>
<g id="Type">
</g>
<g id="Format_Size">
</g>
<g id="Menu_1">
</g>
<g id="Other">
</g>
<g id="Flash">
</g>
<g id="No_Flash">
</g>
<g id="Switch_Button_1">
</g>
<g id="Switch_Button_2">
</g>
<g id="Cut">
</g>
<g id="Crop">
</g>
<g id="Sun">
</g>
<g id="USB">
</g>
<g id="Pie_Chart_1">
</g>
<g id="Pie_Chart_2">
</g>
<g id="Line_Chart">
</g>
<g id="Bar_Chart">
</g>
<g id="Target">
</g>
<g id="Flashlight">
</g>
<g id="USB_Device">
</g>
<g id="Eject">
</g>
<g id="Lightbulb">
</g>
<g id="Information">
</g>
<g id="Deactivate_Protection">
</g>
<g id="Active_Protection">
</g>
<g id="Bug">
</g>
<g id="Protection">
</g>
<g id="Phone">
</g>
<g id="List">
</g>
<g id="Plugin_1">
</g>
<g id="Bookmarrk">
</g>
<g id="Handshake">
</g>
<g id="Minimize">
</g>
<g id="Maximize">
</g>
<g id="Diamond">
</g>
<g id="Stop">
</g>
<g id="Shuffle">
</g>
<g id="Undo">
</g>
<g id="Upgrade">
</g>
<g id="Coding">
</g>
<g id="Syncronizaion">
</g>
<g id="Radio">
</g>
<g id="Presentation">
</g>
<g id="Door">
</g>
<g id="Thumbs_Up">
</g>
<g id="Thumbs_Down">
</g>
<g id="Keyboard">
</g>
<g id="_x33_D_Cube">
</g>
<g id="Signal">
</g>
<g id="Dice">
</g>
<g id="Upload">
</g>
<g id="Download">
</g>
<g id="Plugin_2">
</g>
<g id="Shopping_Bag">
</g>
<g id="Lifebelt">
</g>
<g id="Glasses">
</g>
<g id="Parabolic_Antenna">
</g>
<g id="Loudspeaker">
</g>
<g id="Play">
</g>
<g id="Pause">
</g>
<g id="Signpost">
</g>
<g id="Bluetooth">
</g>
<g id="Present">
</g>
<g id="Ruler">
</g>
<g id="Connection">
	<g>
		<g>
			<path d="M19.5,22c-1.93,0-3.5-1.57-3.5-3.5s1.57-3.5,3.5-3.5s3.5,1.57,3.5,3.5S21.43,22,19.5,22z M19.5,16
				c-1.379,0-2.5,1.121-2.5,2.5s1.121,2.5,2.5,2.5s2.5-1.121,2.5-2.5S20.879,16,19.5,16z"/>
		</g>
		<g>
			<path d="M11.5,8C9.57,8,8,6.43,8,4.5S9.57,1,11.5,1S15,2.57,15,4.5S13.43,8,11.5,8z M11.5,2C10.121,2,9,3.121,9,4.5
				S10.121,7,11.5,7S14,5.879,14,4.5S12.879,2,11.5,2z"/>
		</g>
		<g>
			<path d="M3.5,22C1.57,22,0,20.43,0,18.5S1.57,15,3.5,15S7,16.57,7,18.5S5.43,22,3.5,22z M3.5,16C2.121,16,1,17.121,1,18.5
				S2.121,21,3.5,21S6,19.879,6,18.5S4.879,16,3.5,16z"/>
		</g>
		<g>
			<path d="M11.5,23c-2.199,0-4.344-0.769-6.038-2.165c-0.213-0.176-0.243-0.49-0.067-0.704c0.175-0.212,0.49-0.243,0.704-0.067
				C7.613,21.313,9.532,22,11.5,22c1.97,0,3.89-0.688,5.404-1.939c0.211-0.177,0.528-0.147,0.704,0.067
				c0.176,0.213,0.146,0.528-0.067,0.704C15.847,22.23,13.701,23,11.5,23z"/>
		</g>
		<g>
			<path d="M20.254,16.099c-0.038,0-0.077-0.004-0.116-0.014c-0.269-0.064-0.435-0.334-0.37-0.603C19.922,14.839,20,14.172,20,13.5
				c0-3.595-2.275-6.816-5.663-8.015c-0.26-0.093-0.396-0.378-0.305-0.639c0.094-0.261,0.379-0.395,0.639-0.305
				C18.456,5.882,21,9.482,21,13.5c0,0.75-0.088,1.495-0.26,2.215C20.686,15.944,20.48,16.099,20.254,16.099z"/>
		</g>
		<g>
			<path d="M2.745,16.096c-0.227,0-0.432-0.154-0.486-0.384C2.087,14.99,2,14.246,2,13.5c0-4.041,2.563-7.648,6.379-8.976
				c0.257-0.089,0.545,0.047,0.637,0.309c0.09,0.261-0.048,0.546-0.309,0.637C5.294,6.656,3,9.884,3,13.5
				c0,0.668,0.078,1.335,0.231,1.979c0.064,0.27-0.102,0.539-0.37,0.603C2.822,16.092,2.783,16.096,2.745,16.096z"/>
		</g>
	</g>
</g>
<g id="Money">
</g>
<g id="Paper_Plane">
</g>
<g id="Wallet_2">
</g>
</svg>
