<?xml version="1.0" encoding="iso-8859-1"?>
<!-- Generator: Adobe Illustrator 19.2.1, SVG Export Plug-In . SVG Version: 6.00 Build 0)  -->
<svg fill="#d6d6d6" version="1.1" xmlns="http://www.w3.org/2000/svg" xmlns:xlink="http://www.w3.org/1999/xlink" x="0px" y="0px"
	 viewBox="0 0 24 24" style="enable-background:new 0 0 24 24;" xml:space="preserve">
<g id="Credit_Card">
</g>
<g id="Banknote">
</g>
<g id="Wallet">
</g>
<g id="Compass">
</g>
<g id="Camera_1">
</g>
<g id="Photo">
</g>
<g id="Picture">
</g>
<g id="Camera_2">
</g>
<g id="No_Camera">
</g>
<g id="Video">
</g>
<g id="Audio">
</g>
<g id="Microphone_1">
</g>
<g id="Microphone_2">
</g>
<g id="No_Microphone">
</g>
<g id="Shopping_Cart">
</g>
<g id="Add_Shopping_Cart">
</g>
<g id="Remove_Shopping_Cart">
</g>
<g id="Shopping_Basket">
</g>
<g id="Jing-Jang">
</g>
<g id="Leaf">
</g>
<g id="Glass">
</g>
<g id="Cup">
	<g>
		<g>
			<path d="M11.5,15C7.855,15,5,8.631,5,0.5C5,0.224,5.224,0,5.5,0S6,0.224,6,0.5C6,7.818,8.519,14,11.5,14S17,7.818,17,0.5
				C17,0.224,17.224,0,17.5,0S18,0.224,18,0.5C18,8.631,15.145,15,11.5,15z"/>
		</g>
		<g>
			<path d="M15.5,24h-8C7.224,24,7,23.776,7,23.5C7,22.122,8.122,21,9.5,21h4c1.378,0,2.5,1.122,2.5,2.5
				C16,23.776,15.776,24,15.5,24z M8.085,23h6.829c-0.207-0.582-0.763-1-1.415-1h-4C8.848,22,8.292,22.418,8.085,23z"/>
		</g>
		<g>
			<path d="M11.5,22c-0.276,0-0.5-0.224-0.5-0.5v-7c0-0.276,0.224-0.5,0.5-0.5s0.5,0.224,0.5,0.5v7C12,21.776,11.776,22,11.5,22z"/>
		</g>
		<g>
			<path d="M18.5,1h-14C4.224,1,4,0.776,4,0.5S4.224,0,4.5,0h14C18.776,0,19,0.224,19,0.5S18.776,1,18.5,1z"/>
		</g>
		<g>
			<path d="M14.75,13c-0.276,0-0.5-0.224-0.5-0.5s0.224-0.5,0.5-0.5C18.196,12,21,9.196,21,5.75C21,4.785,20.215,4,19.25,4
				c-0.675,0-1.297,0.396-1.585,1.007C17.547,5.257,17.25,5.364,17,5.247c-0.25-0.118-0.357-0.416-0.24-0.666
				C17.211,3.621,18.189,3,19.25,3C20.767,3,22,4.233,22,5.75C22,9.748,18.748,13,14.75,13z"/>
		</g>
		<g>
			<path d="M8.25,13C4.252,13,1,9.748,1,5.75C1,4.233,2.233,3,3.75,3c1.061,0,2.039,0.621,2.49,1.582
				C6.357,4.832,6.25,5.129,6,5.247c-0.251,0.117-0.548,0.009-0.666-0.24C5.047,4.396,4.425,4,3.75,4C2.785,4,2,4.785,2,5.75
				C2,9.196,4.804,12,8.25,12c0.276,0,0.5,0.224,0.5,0.5S8.526,13,8.25,13z"/>
		</g>
	</g>
</g>
<g id="Mug">
</g>
<g id="Refresh">
</g>
<g id="Login">
</g>
<g id="Logout">
</g>
<g id="Flowchart">
</g>
<g id="Pin_1">
</g>
<g id="Pin_2">
</g>
<g id="User_1">
</g>
<g id="User_2">
</g>
<g id="Users">
</g>
<g id="Adjustments">
</g>
<g id="Type">
</g>
<g id="Format_Size">
</g>
<g id="Menu_1">
</g>
<g id="Other">
</g>
<g id="Flash">
</g>
<g id="No_Flash">
</g>
<g id="Switch_Button_1">
</g>
<g id="Switch_Button_2">
</g>
<g id="Cut">
</g>
<g id="Crop">
</g>
<g id="Sun">
</g>
<g id="USB">
</g>
<g id="Pie_Chart_1">
</g>
<g id="Pie_Chart_2">
</g>
<g id="Line_Chart">
</g>
<g id="Bar_Chart">
</g>
<g id="Target">
</g>
<g id="Flashlight">
</g>
<g id="USB_Device">
</g>
<g id="Eject">
</g>
<g id="Lightbulb">
</g>
<g id="Information">
</g>
<g id="Deactivate_Protection">
</g>
<g id="Active_Protection">
</g>
<g id="Bug">
</g>
<g id="Protection">
</g>
<g id="Phone">
</g>
<g id="List">
</g>
<g id="Plugin_1">
</g>
<g id="Bookmarrk">
</g>
<g id="Handshake">
</g>
<g id="Minimize">
</g>
<g id="Maximize">
</g>
<g id="Diamond">
</g>
<g id="Stop">
</g>
<g id="Shuffle">
</g>
<g id="Undo">
</g>
<g id="Upgrade">
</g>
<g id="Coding">
</g>
<g id="Syncronizaion">
</g>
<g id="Radio">
</g>
<g id="Presentation">
</g>
<g id="Door">
</g>
<g id="Thumbs_Up">
</g>
<g id="Thumbs_Down">
</g>
<g id="Keyboard">
</g>
<g id="_x33_D_Cube">
</g>
<g id="Signal">
</g>
<g id="Dice">
</g>
<g id="Upload">
</g>
<g id="Download">
</g>
<g id="Plugin_2">
</g>
<g id="Shopping_Bag">
</g>
<g id="Lifebelt">
</g>
<g id="Glasses">
</g>
<g id="Parabolic_Antenna">
</g>
<g id="Loudspeaker">
</g>
<g id="Play">
</g>
<g id="Pause">
</g>
<g id="Signpost">
</g>
<g id="Bluetooth">
</g>
<g id="Present">
</g>
<g id="Ruler">
</g>
<g id="Connection">
</g>
<g id="Money">
</g>
<g id="Paper_Plane">
</g>
<g id="Wallet_2">
</g>
</svg>
