<?xml version="1.0" encoding="iso-8859-1"?>
<!-- Generator: Adobe Illustrator 19.2.1, SVG Export Plug-In . SVG Version: 6.00 Build 0)  -->
<svg version="1.1" xmlns="http://www.w3.org/2000/svg" xmlns:xlink="http://www.w3.org/1999/xlink" x="0px" y="0px"
	 viewBox="0 0 24 24" style="enable-background:new 0 0 24 24;" xml:space="preserve">
<g id="Credit_Card">
</g>
<g id="Banknote">
</g>
<g id="Wallet">
</g>
<g id="Compass">
</g>
<g id="Camera_1">
</g>
<g id="Photo">
</g>
<g id="Picture">
</g>
<g id="Camera_2">
</g>
<g id="No_Camera">
</g>
<g id="Video">
</g>
<g id="Audio">
</g>
<g id="Microphone_1">
</g>
<g id="Microphone_2">
</g>
<g id="No_Microphone">
</g>
<g id="Shopping_Cart">
</g>
<g id="Add_Shopping_Cart">
</g>
<g id="Remove_Shopping_Cart">
</g>
<g id="Shopping_Basket">
</g>
<g id="Jing-Jang">
</g>
<g id="Leaf">
</g>
<g id="Glass">
</g>
<g id="Cup">
</g>
<g id="Mug">
</g>
<g id="Refresh">
</g>
<g id="Login">
</g>
<g id="Logout">
</g>
<g id="Flowchart">
</g>
<g id="Pin_1">
</g>
<g id="Pin_2">
</g>
<g id="User_1">
</g>
<g id="User_2">
</g>
<g id="Users">
</g>
<g id="Adjustments">
</g>
<g id="Type">
</g>
<g id="Format_Size">
</g>
<g id="Menu_1">
</g>
<g id="Other">
</g>
<g id="Flash">
</g>
<g id="No_Flash">
</g>
<g id="Switch_Button_1">
</g>
<g id="Switch_Button_2">
</g>
<g id="Cut">
	<g>
		<g>
			<g>
				<path d="M11.5,2.5C11.224,2.5,11,2.276,11,2V0.5C11,0.224,11.224,0,11.5,0S12,0.224,12,0.5V2C12,2.276,11.776,2.5,11.5,2.5z"/>
			</g>
			<g>
				<path d="M11.5,19.643c-0.276,0-0.5-0.224-0.5-0.5v-2.857c0-0.276,0.224-0.5,0.5-0.5s0.5,0.224,0.5,0.5v2.857
					C12,19.419,11.776,19.643,11.5,19.643z M11.5,13.928c-0.276,0-0.5-0.224-0.5-0.5v-2.857c0-0.276,0.224-0.5,0.5-0.5
					s0.5,0.224,0.5,0.5v2.857C12,13.705,11.776,13.928,11.5,13.928z M11.5,8.214c-0.276,0-0.5-0.224-0.5-0.5V4.857
					c0-0.276,0.224-0.5,0.5-0.5s0.5,0.224,0.5,0.5v2.857C12,7.99,11.776,8.214,11.5,8.214z"/>
			</g>
			<g>
				<path d="M11.5,24c-0.276,0-0.5-0.224-0.5-0.5V22c0-0.276,0.224-0.5,0.5-0.5S12,21.724,12,22v1.5C12,23.776,11.776,24,11.5,24z"
					/>
			</g>
		</g>
		<g>
			<path d="M14.768,19c-0.175,0-0.345-0.092-0.437-0.256l-7.268-13C6.929,5.503,7.015,5.198,7.256,5.063
				c0.241-0.134,0.546-0.048,0.681,0.192l7.268,13c0.135,0.241,0.048,0.546-0.192,0.681C14.935,18.979,14.851,19,14.768,19z"/>
		</g>
		<g>
			<path d="M16.5,20c-1.378,0-2.5-1.122-2.5-2.5s1.122-2.5,2.5-2.5s2.5,1.122,2.5,2.5S17.878,20,16.5,20z M16.5,16
				c-0.827,0-1.5,0.673-1.5,1.5s0.673,1.5,1.5,1.5s1.5-0.673,1.5-1.5S17.327,16,16.5,16z"/>
		</g>
		<g>
			<path d="M8.232,19c-0.083,0-0.167-0.021-0.244-0.063c-0.241-0.135-0.327-0.439-0.192-0.681l7.268-13
				c0.135-0.24,0.438-0.328,0.681-0.192c0.241,0.135,0.327,0.439,0.192,0.681l-7.268,13C8.577,18.908,8.407,19,8.232,19z"/>
		</g>
		<g>
			<path d="M6.5,20C5.122,20,4,18.878,4,17.5S5.122,15,6.5,15S9,16.122,9,17.5S7.878,20,6.5,20z M6.5,16C5.673,16,5,16.673,5,17.5
				S5.673,19,6.5,19S8,18.327,8,17.5S7.327,16,6.5,16z"/>
		</g>
	</g>
</g>
<g id="Crop">
</g>
<g id="Sun">
</g>
<g id="USB">
</g>
<g id="Pie_Chart_1">
</g>
<g id="Pie_Chart_2">
</g>
<g id="Line_Chart">
</g>
<g id="Bar_Chart">
</g>
<g id="Target">
</g>
<g id="Flashlight">
</g>
<g id="USB_Device">
</g>
<g id="Eject">
</g>
<g id="Lightbulb">
</g>
<g id="Information">
</g>
<g id="Deactivate_Protection">
</g>
<g id="Active_Protection">
</g>
<g id="Bug">
</g>
<g id="Protection">
</g>
<g id="Phone">
</g>
<g id="List">
</g>
<g id="Plugin_1">
</g>
<g id="Bookmarrk">
</g>
<g id="Handshake">
</g>
<g id="Minimize">
</g>
<g id="Maximize">
</g>
<g id="Diamond">
</g>
<g id="Stop">
</g>
<g id="Shuffle">
</g>
<g id="Undo">
</g>
<g id="Upgrade">
</g>
<g id="Coding">
</g>
<g id="Syncronizaion">
</g>
<g id="Radio">
</g>
<g id="Presentation">
</g>
<g id="Door">
</g>
<g id="Thumbs_Up">
</g>
<g id="Thumbs_Down">
</g>
<g id="Keyboard">
</g>
<g id="_x33_D_Cube">
</g>
<g id="Signal">
</g>
<g id="Dice">
</g>
<g id="Upload">
</g>
<g id="Download">
</g>
<g id="Plugin_2">
</g>
<g id="Shopping_Bag">
</g>
<g id="Lifebelt">
</g>
<g id="Glasses">
</g>
<g id="Parabolic_Antenna">
</g>
<g id="Loudspeaker">
</g>
<g id="Play">
</g>
<g id="Pause">
</g>
<g id="Signpost">
</g>
<g id="Bluetooth">
</g>
<g id="Present">
</g>
<g id="Ruler">
</g>
<g id="Connection">
</g>
<g id="Money">
</g>
<g id="Paper_Plane">
</g>
<g id="Wallet_2">
</g>
</svg>
