<?xml version="1.0" encoding="iso-8859-1"?>
<!-- Generator: Adobe Illustrator 19.2.1, SVG Export Plug-In . SVG Version: 6.00 Build 0)  -->
<svg version="1.1" xmlns="http://www.w3.org/2000/svg" xmlns:xlink="http://www.w3.org/1999/xlink" x="0px" y="0px"
	 viewBox="0 0 24 24" style="enable-background:new 0 0 24 24;" xml:space="preserve">
<g id="Mail">
</g>
<g id="Open_Mail">
</g>
<g id="Mail_Attachmet">
</g>
<g id="Mails">
</g>
<g id="Trash">
</g>
<g id="Trash_Full">
</g>
<g id="Preferences_1">
</g>
<g id="Preferences_2">
</g>
<g id="Mouse">
</g>
<g id="Computer">
</g>
<g id="Notebook">
</g>
<g id="Mobile_Phone">
</g>
<g id="Print">
</g>
<g id="Calculator">
</g>
<g id="Tag">
</g>
<g id="Paperclip">
</g>
<g id="Heart">
</g>
<g id="Lock">
</g>
<g id="Lock_Open">
</g>
<g id="Key_1">
</g>
<g id="Star">
</g>
<g id="Add">
</g>
<g id="Remove">
</g>
<g id="Error">
</g>
<g id="Check_1">
</g>
<g id="Time">
</g>
<g id="Question_Mark">
</g>
<g id="Error_Mark">
</g>
<g id="Sand-Glass">
</g>
<g id="Battery_Full">
</g>
<g id="Battery_Charge">
</g>
<g id="Battery_Half">
</g>
<g id="Battery_Low">
</g>
<g id="No_Battery">
</g>
<g id="Key_2">
</g>
<g id="Link">
</g>
<g id="Brake_Link">
</g>
<g id="Pencil">
</g>
<g id="At">
</g>
<g id="Reply">
</g>
<g id="Accessible">
</g>
<g id="Up_Arrow">
</g>
<g id="Brush">
</g>
<g id="Design_Mug">
	<g>
		<g>
			<path d="M17.5,24h-9C7.122,24,6,22.878,6,21.5v-11C6,10.224,6.224,10,6.5,10h13c0.276,0,0.5,0.224,0.5,0.5v11
				C20,22.878,18.878,24,17.5,24z M7,11v10.5C7,22.327,7.673,23,8.5,23h9c0.827,0,1.5-0.673,1.5-1.5V11H7z"/>
		</g>
		<g>
			<path d="M14.5,11c-0.276,0-0.5-0.224-0.5-0.5V1h-3v9.5c0,0.276-0.224,0.5-0.5,0.5S10,10.776,10,10.5v-10
				C10,0.224,10.224,0,10.5,0h4C14.776,0,15,0.224,15,0.5v10C15,10.776,14.776,11,14.5,11z"/>
		</g>
		<g>
			<path d="M12.5,9h-2C10.224,9,10,8.776,10,8.5S10.224,8,10.5,8h2C12.776,8,13,8.224,13,8.5S12.776,9,12.5,9z"/>
		</g>
		<g>
			<path d="M11.5,7h-1C10.224,7,10,6.776,10,6.5S10.224,6,10.5,6h1C11.776,6,12,6.224,12,6.5S11.776,7,11.5,7z"/>
		</g>
		<g>
			<path d="M12.5,5h-2C10.224,5,10,4.776,10,4.5S10.224,4,10.5,4h2C12.776,4,13,4.224,13,4.5S12.776,5,12.5,5z"/>
		</g>
		<g>
			<path d="M11.5,3h-1C10.224,3,10,2.776,10,2.5S10.224,2,10.5,2h1C11.776,2,12,2.224,12,2.5S11.776,3,11.5,3z"/>
		</g>
		<g>
			<path d="M9.5,11c-0.176,0-0.346-0.093-0.438-0.257l-2.5-4.5c-0.134-0.241-0.047-0.545,0.194-0.68
				c0.241-0.134,0.546-0.047,0.68,0.194l2.5,4.5c0.134,0.241,0.047,0.545-0.194,0.68C9.666,10.98,9.583,11,9.5,11z"/>
		</g>
		<g>
			<path d="M7.5,11c-0.202,0-0.393-0.124-0.468-0.324l-1.5-4C5.435,6.417,5.566,6.129,5.824,6.032
				c0.258-0.095,0.547,0.034,0.644,0.292l1.5,4c0.097,0.259-0.034,0.547-0.292,0.644C7.618,10.99,7.559,11,7.5,11z"/>
		</g>
		<g>
			<path d="M5.5,7C4.004,7,3,5.449,3,4c0-1.436,1.169-4,3.5-4C6.776,0,7,0.224,7,0.5V2c0,0.289,0.121,0.465,0.354,0.778
				C7.642,3.166,8,3.647,8,4.5C8,6.042,7.042,7,5.5,7z M6,1.064C4.62,1.429,4,3.258,4,4c0,0.817,0.534,2,1.5,2
				C6.495,6,7,5.495,7,4.5c0-0.521-0.198-0.788-0.449-1.125C6.292,3.027,6,2.634,6,2V1.064z"/>
		</g>
		<g>
			<path d="M18.5,11c-0.095,0-0.191-0.027-0.277-0.084c-0.23-0.153-0.292-0.463-0.139-0.693L20,7.349V5.194l-2.194,0.731L14.9,9.8
				c-0.165,0.222-0.479,0.267-0.7,0.1c-0.221-0.166-0.266-0.479-0.1-0.7l3-4c0.061-0.082,0.146-0.143,0.242-0.174l3-1
				C20.494,3.974,20.661,4,20.792,4.094C20.923,4.188,21,4.339,21,4.5v3c0,0.099-0.029,0.195-0.084,0.277l-2,3
				C18.82,10.922,18.661,11,18.5,11z"/>
		</g>
		<g>
			<path d="M20.5,8c-0.095,0-0.191-0.027-0.277-0.084l-3-2c-0.23-0.153-0.292-0.463-0.139-0.693c0.152-0.23,0.462-0.292,0.693-0.139
				l3,2c0.23,0.153,0.292,0.463,0.139,0.693C20.82,7.922,20.661,8,20.5,8z"/>
		</g>
		<g>
			<path d="M6.5,19h-1C3.57,19,2,17.43,2,15.5S3.57,12,5.5,12h1C6.776,12,7,12.224,7,12.5S6.776,13,6.5,13h-1
				C4.122,13,3,14.122,3,15.5S4.122,18,5.5,18h1C6.776,18,7,18.224,7,18.5S6.776,19,6.5,19z"/>
		</g>
	</g>
</g>
<g id="Design">
</g>
<g id="Server">
</g>
<g id="Database">
</g>
<g id="Save">
</g>
<g id="Female">
</g>
<g id="Male">
</g>
<g id="Book">
</g>
<g id="Power">
</g>
<g id="Reload">
</g>
<g id="Map">
</g>
<g id="Loction_1">
</g>
<g id="Location_2">
</g>
<g id="Globe">
</g>
<g id="Suitcase">
</g>
<g id="Callendar">
</g>
<g id="Cloud_Off">
</g>
<g id="File_1">
</g>
<g id="File_2">
</g>
<g id="Folder">
</g>
<g id="Open_Folder">
</g>
<g id="Cloud">
</g>
<g id="Upload_Cloud">
</g>
<g id="Download_Cloud">
</g>
<g id="Eye">
</g>
<g id="Invisible">
</g>
<g id="Assignment">
</g>
<g id="Note_Book">
</g>
<g id="Webpage">
</g>
<g id="Mailbox">
</g>
<g id="Drive">
</g>
<g id="Disc">
</g>
<g id="Wifi_1">
</g>
<g id="Wifi_2">
</g>
<g id="Archive">
</g>
<g id="Archive_File">
</g>
<g id="News">
</g>
<g id="Home">
</g>
<g id="Collaboration">
</g>
<g id="Announcement">
</g>
<g id="Watch">
</g>
<g id="Clock">
</g>
<g id="Volume">
</g>
<g id="Mute">
</g>
<g id="Hand">
</g>
<g id="Layers">
</g>
<g id="Bell">
</g>
<g id="Speach_Bubble">
</g>
<g id="Speach_Bubbles">
</g>
<g id="Zoom_In">
</g>
<g id="Zoom_Out">
</g>
<g id="Search">
</g>
<g id="Back_Arrow">
</g>
<g id="Close">
</g>
<g id="Check_2">
</g>
<g id="Left_Arrow_2">
</g>
<g id="Right_Arrow_2">
</g>
</svg>
