<?xml version="1.0" encoding="iso-8859-1"?>
<!-- Generator: Adobe Illustrator 19.2.1, SVG Export Plug-In . SVG Version: 6.00 Build 0)  -->
<svg version="1.1" xmlns="http://www.w3.org/2000/svg" xmlns:xlink="http://www.w3.org/1999/xlink" x="0px" y="0px"
	 viewBox="0 0 24 24" style="enable-background:new 0 0 24 24;" xml:space="preserve">
<g id="Credit_Card">
</g>
<g id="Banknote">
</g>
<g id="Wallet">
</g>
<g id="Compass">
</g>
<g id="Camera_1">
</g>
<g id="Photo">
</g>
<g id="Picture">
</g>
<g id="Camera_2">
</g>
<g id="No_Camera">
</g>
<g id="Video">
</g>
<g id="Audio">
</g>
<g id="Microphone_1">
</g>
<g id="Microphone_2">
</g>
<g id="No_Microphone">
</g>
<g id="Shopping_Cart">
</g>
<g id="Add_Shopping_Cart">
</g>
<g id="Remove_Shopping_Cart">
</g>
<g id="Shopping_Basket">
</g>
<g id="Jing-Jang">
</g>
<g id="Leaf">
</g>
<g id="Glass">
</g>
<g id="Cup">
</g>
<g id="Mug">
</g>
<g id="Refresh">
</g>
<g id="Login">
</g>
<g id="Logout">
</g>
<g id="Flowchart">
</g>
<g id="Pin_1">
</g>
<g id="Pin_2">
</g>
<g id="User_1">
</g>
<g id="User_2">
</g>
<g id="Users">
</g>
<g id="Adjustments">
</g>
<g id="Type">
</g>
<g id="Format_Size">
</g>
<g id="Menu_1">
</g>
<g id="Other">
</g>
<g id="Flash">
</g>
<g id="No_Flash">
</g>
<g id="Switch_Button_1">
</g>
<g id="Switch_Button_2">
</g>
<g id="Cut">
</g>
<g id="Crop">
</g>
<g id="Sun">
</g>
<g id="USB">
</g>
<g id="Pie_Chart_1">
</g>
<g id="Pie_Chart_2">
</g>
<g id="Line_Chart">
</g>
<g id="Bar_Chart">
</g>
<g id="Target">
</g>
<g id="Flashlight">
</g>
<g id="USB_Device">
</g>
<g id="Eject">
</g>
<g id="Lightbulb">
</g>
<g id="Information">
</g>
<g id="Deactivate_Protection">
</g>
<g id="Active_Protection">
</g>
<g id="Bug">
</g>
<g id="Protection">
</g>
<g id="Phone">
</g>
<g id="List">
</g>
<g id="Plugin_1">
</g>
<g id="Bookmarrk">
</g>
<g id="Handshake">
</g>
<g id="Minimize">
</g>
<g id="Maximize">
</g>
<g id="Diamond">
</g>
<g id="Stop">
</g>
<g id="Shuffle">
</g>
<g id="Undo">
</g>
<g id="Upgrade">
</g>
<g id="Coding">
</g>
<g id="Syncronizaion">
</g>
<g id="Radio">
</g>
<g id="Presentation">
</g>
<g id="Door">
</g>
<g id="Thumbs_Up">
</g>
<g id="Thumbs_Down">
</g>
<g id="Keyboard">
</g>
<g id="_x33_D_Cube">
</g>
<g id="Signal">
</g>
<g id="Dice">
	<g>
		<g>
			<path d="M11.5,24c-0.077,0-0.153-0.018-0.224-0.053l-11-5.5C0.107,18.362,0,18.189,0,18V5.5c0-0.196,0.115-0.374,0.293-0.455
				l11-5c0.132-0.061,0.282-0.061,0.414,0l11,5C22.885,5.126,23,5.304,23,5.5V18c0,0.189-0.107,0.362-0.276,0.447l-11,5.5
				C11.653,23.982,11.577,24,11.5,24z M1,17.691l10.5,5.25l10.5-5.25V5.822L11.5,1.049L1,5.822V17.691z"/>
		</g>
		<g>
			<path d="M11.5,11c-0.071,0-0.141-0.015-0.207-0.045l-11-5c-0.251-0.114-0.362-0.41-0.248-0.662
				c0.114-0.252,0.408-0.361,0.662-0.248L11.5,9.951l10.793-4.906c0.253-0.113,0.548-0.004,0.662,0.248
				c0.114,0.252,0.003,0.548-0.248,0.662l-11,5C11.641,10.985,11.571,11,11.5,11z"/>
		</g>
		<g>
			<path d="M11.5,24c-0.276,0-0.5-0.224-0.5-0.5v-13c0-0.276,0.224-0.5,0.5-0.5s0.5,0.224,0.5,0.5v13C12,23.776,11.776,24,11.5,24z"
				/>
		</g>
		<g>
			<path d="M11.5,6.5c-0.869,0-1.5-0.421-1.5-1s0.631-1,1.5-1s1.5,0.421,1.5,1S12.369,6.5,11.5,6.5z M11.5,5.5h0.01H11.5z"/>
		</g>
		<g>
			<path d="M9,14c-0.58,0-1-0.631-1-1.5S8.42,11,9,11s1,0.631,1,1.5S9.58,14,9,14z"/>
		</g>
		<g>
			<path d="M6,15.772c-0.58,0-1-0.631-1-1.5s0.42-1.5,1-1.5s1,0.631,1,1.5S6.58,15.772,6,15.772z"/>
		</g>
		<g>
			<path d="M3,17.5c-0.58,0-1-0.631-1-1.5s0.42-1.5,1-1.5s1,0.631,1,1.5S3.58,17.5,3,17.5z"/>
		</g>
		<g>
			<path d="M14.5,14.5c-0.58,0-1-0.631-1-1.5s0.42-1.5,1-1.5s1,0.631,1,1.5S15.08,14.5,14.5,14.5z"/>
		</g>
		<g>
			<path d="M19.5,17c-0.58,0-1-0.631-1-1.5s0.42-1.5,1-1.5s1,0.631,1,1.5S20.08,17,19.5,17z"/>
		</g>
	</g>
</g>
<g id="Upload">
</g>
<g id="Download">
</g>
<g id="Plugin_2">
</g>
<g id="Shopping_Bag">
</g>
<g id="Lifebelt">
</g>
<g id="Glasses">
</g>
<g id="Parabolic_Antenna">
</g>
<g id="Loudspeaker">
</g>
<g id="Play">
</g>
<g id="Pause">
</g>
<g id="Signpost">
</g>
<g id="Bluetooth">
</g>
<g id="Present">
</g>
<g id="Ruler">
</g>
<g id="Connection">
</g>
<g id="Money">
</g>
<g id="Paper_Plane">
</g>
<g id="Wallet_2">
</g>
</svg>
