<?xml version="1.0" encoding="iso-8859-1"?>
<!-- Generator: Adobe Illustrator 19.2.1, SVG Export Plug-In . SVG Version: 6.00 Build 0)  -->
<svg version="1.1" xmlns="http://www.w3.org/2000/svg" xmlns:xlink="http://www.w3.org/1999/xlink" x="0px" y="0px"
	 viewBox="0 0 24 24" style="enable-background:new 0 0 24 24;" xml:space="preserve">
<g id="Mail">
</g>
<g id="Open_Mail">
</g>
<g id="Mail_Attachmet">
</g>
<g id="Mails">
</g>
<g id="Trash">
</g>
<g id="Trash_Full">
</g>
<g id="Preferences_1">
</g>
<g id="Preferences_2">
</g>
<g id="Mouse">
</g>
<g id="Computer">
</g>
<g id="Notebook">
</g>
<g id="Mobile_Phone">
</g>
<g id="Print">
</g>
<g id="Calculator">
</g>
<g id="Tag">
</g>
<g id="Paperclip">
</g>
<g id="Heart">
</g>
<g id="Lock">
</g>
<g id="Lock_Open">
</g>
<g id="Key_1">
</g>
<g id="Star">
</g>
<g id="Add">
</g>
<g id="Remove">
</g>
<g id="Error">
</g>
<g id="Check_1">
</g>
<g id="Time">
</g>
<g id="Question_Mark">
</g>
<g id="Error_Mark">
</g>
<g id="Sand-Glass">
</g>
<g id="Battery_Full">
</g>
<g id="Battery_Charge">
</g>
<g id="Battery_Half">
</g>
<g id="Battery_Low">
</g>
<g id="No_Battery">
</g>
<g id="Key_2">
</g>
<g id="Link">
</g>
<g id="Brake_Link">
</g>
<g id="Pencil">
</g>
<g id="At">
</g>
<g id="Reply">
</g>
<g id="Accessible">
</g>
<g id="Up_Arrow">
</g>
<g id="Brush">
</g>
<g id="Design_Mug">
</g>
<g id="Design">
</g>
<g id="Server">
</g>
<g id="Database">
</g>
<g id="Save">
</g>
<g id="Female">
</g>
<g id="Male">
</g>
<g id="Book">
</g>
<g id="Power">
</g>
<g id="Reload">
</g>
<g id="Map">
</g>
<g id="Loction_1">
</g>
<g id="Location_2">
</g>
<g id="Globe">
</g>
<g id="Suitcase">
</g>
<g id="Callendar">
</g>
<g id="Cloud_Off">
</g>
<g id="File_1">
</g>
<g id="File_2">
</g>
<g id="Folder">
</g>
<g id="Open_Folder">
</g>
<g id="Cloud">
</g>
<g id="Upload_Cloud">
</g>
<g id="Download_Cloud">
</g>
<g id="Eye">
</g>
<g id="Invisible">
</g>
<g id="Assignment">
</g>
<g id="Note_Book">
</g>
<g id="Webpage">
</g>
<g id="Mailbox">
</g>
<g id="Drive">
	<g>
		<g id="XMLID_1046_">
			<g id="XMLID_1044_">
				<path d="M22,21H2c-1.103,0-2-0.897-2-2v-4c0-1.103,0.897-2,2-2h20c1.103,0,2,0.897,2,2v4C24,20.103,23.103,21,22,21z M2,14
					c-0.551,0-1,0.448-1,1v4c0,0.552,0.449,1,1,1h20c0.551,0,1-0.448,1-1v-4c0-0.552-0.449-1-1-1H2z"/>
			</g>
			<g id="XMLID_1048_">
				<path d="M23.365,14.88c-0.184,0-0.36-0.102-0.448-0.276l-4.981-9.968c-0.014-0.02-0.025-0.041-0.036-0.062
					C17.732,4.22,17.387,4,17,4H7C6.613,4,6.268,4.22,6.1,4.574C6.089,4.597,6.077,4.619,6.063,4.64l-4.979,9.964
					c-0.123,0.247-0.423,0.349-0.671,0.224c-0.247-0.123-0.347-0.424-0.224-0.671L5.194,4.141c0.01-0.02,0.021-0.038,0.033-0.057
					C5.569,3.424,6.257,3,7,3h10c0.744,0,1.434,0.425,1.775,1.088c0.012,0.018,0.022,0.035,0.031,0.053l5.005,10.016
					c0.124,0.247,0.023,0.548-0.224,0.671C23.516,14.863,23.44,14.88,23.365,14.88z"/>
			</g>
		</g>
		<g>
			<path d="M3,17c-0.551,0-1-0.448-1-1s0.449-1,1-1s1,0.448,1,1S3.551,17,3,17z M3,15.999C3,15.999,3,16,3,15.999L3.5,16L3,15.999z"
				/>
		</g>
		<g>
			<path d="M6,17c-0.551,0-1-0.448-1-1s0.449-1,1-1s1,0.448,1,1S6.551,17,6,17z M6,15.999C6,15.999,6,16,6,15.999L6.5,16L6,15.999z"
				/>
		</g>
		<g>
			<path d="M21.5,19h-19C2.224,19,2,18.776,2,18.5S2.224,18,2.5,18h19c0.276,0,0.5,0.224,0.5,0.5S21.776,19,21.5,19z"/>
		</g>
	</g>
</g>
<g id="Disc">
</g>
<g id="Wifi_1">
</g>
<g id="Wifi_2">
</g>
<g id="Archive">
</g>
<g id="Archive_File">
</g>
<g id="News">
</g>
<g id="Home">
</g>
<g id="Collaboration">
</g>
<g id="Announcement">
</g>
<g id="Watch">
</g>
<g id="Clock">
</g>
<g id="Volume">
</g>
<g id="Mute">
</g>
<g id="Hand">
</g>
<g id="Layers">
</g>
<g id="Bell">
</g>
<g id="Speach_Bubble">
</g>
<g id="Speach_Bubbles">
</g>
<g id="Zoom_In">
</g>
<g id="Zoom_Out">
</g>
<g id="Search">
</g>
<g id="Back_Arrow">
</g>
<g id="Close">
</g>
<g id="Check_2">
</g>
<g id="Left_Arrow_2">
</g>
<g id="Right_Arrow_2">
</g>
</svg>
