<?xml version="1.0" encoding="iso-8859-1"?>
<!-- Generator: Adobe Illustrator 19.2.1, SVG Export Plug-In . SVG Version: 6.00 Build 0)  -->
<svg version="1.1" xmlns="http://www.w3.org/2000/svg" xmlns:xlink="http://www.w3.org/1999/xlink" x="0px" y="0px"
	 viewBox="0 0 24 24" style="enable-background:new 0 0 24 24;" xml:space="preserve">
<g id="Flag">
</g>
<g id="Umbrella">
</g>
<g id="Briefcase">
</g>
<g id="Box">
</g>
<g id="Magnet">
</g>
<g id="Percent">
</g>
<g id="Rocket">
</g>
<g id="Share">
</g>
<g id="Transmitter">
</g>
<g id="Record_2">
</g>
<g id="Record_1">
</g>
<g id="Anchor">
</g>
<g id="Airplane">
</g>
<g id="Car">
</g>
<g id="Newsfeed">
</g>
<g id="Wifi_Tethering">
</g>
<g id="No_Wifi_Tethering">
</g>
<g id="Bar_Chart_2">
</g>
<g id="Shop">
</g>
<g id="Alarm">
</g>
<g id="Sim_Card">
</g>
<g id="Radar">
</g>
<g id="Hand_2">
</g>
<g id="Palette">
</g>
<g id="Cake">
</g>
<g id="Blende">
</g>
<g id="Feather_Pen">
</g>
<g id="Ticket">
</g>
<g id="Medal">
</g>
<g id="Mouse_Pointer_1">
</g>
<g id="Mouse_Pointer_2">
</g>
<g id="Fingerprint">
</g>
<g id="Earth">
	<g>
		<g>
			<path d="M12,24C5.383,24,0,18.617,0,12S5.383,0,12,0s12,5.383,12,12S18.617,24,12,24z M12,1C5.935,1,1,5.935,1,12s4.935,11,11,11
				s11-4.935,11-11S18.065,1,12,1z"/>
		</g>
		<g>
			<path d="M3.551,20.301c-0.02,0-0.039-0.001-0.059-0.004c-0.274-0.032-0.47-0.28-0.438-0.555c0.095-0.809,0.274-3.12-0.031-4.092
				c-0.107-0.343-0.368-0.604-0.67-0.905c-0.283-0.283-0.604-0.604-0.806-1.032C1.091,12.74,0.563,9.116,0.505,8.706
				C0.466,8.434,0.656,8.18,0.929,8.141c0.27-0.038,0.527,0.15,0.566,0.425c0.222,1.551,0.66,4.088,0.958,4.722
				c0.126,0.271,0.36,0.504,0.607,0.751c0.345,0.345,0.736,0.736,0.917,1.312c0.432,1.375,0.085,4.382,0.07,4.51
				C4.018,20.113,3.801,20.301,3.551,20.301z"/>
		</g>
		<g>
			<path d="M12.915,21.004c-0.945,0-2.095-0.883-2.404-2.404c-0.077-0.376,0.112-0.762,0.294-1.134
				c0.07-0.145,0.189-0.387,0.195-0.47c0-1.544-0.309-2.781-0.769-3.074c-0.194-0.122-0.864-0.03-1.309,0.032
				c-0.589,0.08-1.144,0.158-1.575,0.022c-0.526-0.168-1.135-0.881-1.307-1.278c-0.249-0.577-0.36-1.856,0.04-2.472
				c0.892-1.368,1.407-1.978,2.292-2.21c0.712-0.188,1.936-0.065,3.118,0.053c0.701,0.07,1.731,0.175,2.093,0.108
				c0.023-0.115-0.001-0.228-0.075-0.342C13.235,7.415,12.302,6.962,10.507,7C10.16,7.005,9.745,7.247,9.344,7.482
				C8.888,7.748,8.458,8,8,8C7.564,8,7.227,7.798,7.074,7.445C6.822,6.867,7.166,6.121,7.617,5.638
				c0.46-0.493,1.023-0.749,1.59-0.703c0.119-0.257,0.275-0.572,0.388-0.728c0.747-1.036,1.531-2.005,2.284-2.192
				c0.456-0.111,1.272,0.131,1.854,0.345c0.269-0.56,0.789-1.448,1.502-1.785c0.251-0.116,0.548-0.011,0.666,0.238
				c0.118,0.25,0.011,0.548-0.238,0.666c-0.552,0.261-1.061,1.34-1.195,1.697c-0.047,0.127-0.145,0.229-0.269,0.283
				c-0.125,0.054-0.266,0.054-0.391,0.003c-0.699-0.291-1.489-0.514-1.69-0.476c-0.499,0.124-1.403,1.377-1.7,1.789
				c-0.094,0.13-0.308,0.576-0.459,0.924C9.853,5.94,9.579,6.059,9.333,5.972c-0.39-0.139-0.738,0.111-0.911,0.273
				c-0.343,0.322-0.457,0.711-0.43,0.807C8.187,7,8.534,6.798,8.839,6.619C9.328,6.333,9.883,6.009,10.493,6
				c1.903-0.049,3.296,0.431,3.854,1.292c0.283,0.437,0.322,0.954,0.106,1.419c-0.282,0.604-1.143,0.546-3.062,0.354
				c-1.043-0.105-2.225-0.224-2.764-0.081c-0.483,0.127-0.814,0.416-1.708,1.79c-0.15,0.229-0.126,1.144,0.04,1.528
				c0.103,0.238,0.536,0.671,0.693,0.722c0.212,0.067,0.724-0.003,1.133-0.061c0.728-0.102,1.481-0.205,1.984,0.115
				C11.84,13.761,12,15.828,12,17c0,0.298-0.145,0.593-0.297,0.905c-0.078,0.158-0.208,0.425-0.21,0.518
				c0.228,1.109,1.062,1.605,1.463,1.579c1.043-0.093,2.869-1.646,3.054-2.597c0.047-0.246,0.015-0.786-0.014-1.262
				c-0.039-0.638-0.078-1.296,0.015-1.745c0.094-0.453,0.562-1.304,0.853-1.805c-0.266-0.249-0.62-0.596-0.769-0.802
				c-0.348-0.482-0.981-1.929-1.053-2.093c-0.076-0.175-0.046-0.377,0.077-0.522c0.123-0.145,0.32-0.207,0.503-0.162
				c0.207,0.053,1.258,0.323,1.642,0.561c0.585,0.361,1.627,1.483,2.209,2.136c0.014-0.093,0.026-0.189,0.035-0.266
				c0.063-0.5,0.157-1.256,0.874-1.431c1.119-0.273,1.817,0.852,2.441,1.841c0.3,0.477,0.611,0.969,0.886,1.17
				c0.223,0.163,0.271,0.477,0.107,0.699c-0.164,0.223-0.476,0.271-0.699,0.107c-0.428-0.314-0.773-0.862-1.14-1.442
				c-0.423-0.67-0.947-1.488-1.358-1.404c-0.053,0.063-0.096,0.401-0.118,0.584c-0.063,0.508-0.159,1.275-0.904,1.421
				c-0.171,0.038-0.357-0.027-0.476-0.164c-0.472-0.55-1.821-2.054-2.383-2.4c-0.058-0.036-0.175-0.084-0.325-0.137
				c0.19,0.395,0.379,0.76,0.494,0.919c0.121,0.168,0.616,0.639,0.928,0.92c0.179,0.161,0.218,0.427,0.093,0.633
				c-0.349,0.572-0.871,1.522-0.937,1.841c-0.066,0.319-0.029,0.937,0.004,1.481c0.035,0.587,0.069,1.142-0.003,1.512
				c-0.291,1.5-2.565,3.28-3.946,3.403C13.001,21.002,12.958,21.004,12.915,21.004z"/>
		</g>
	</g>
</g>
</svg>
