<?xml version="1.0" encoding="iso-8859-1"?>
<!-- Generator: Adobe Illustrator 19.2.1, SVG Export Plug-In . SVG Version: 6.00 Build 0)  -->
<svg version="1.1" xmlns="http://www.w3.org/2000/svg" xmlns:xlink="http://www.w3.org/1999/xlink" x="0px" y="0px"
	 viewBox="0 0 24 24" style="enable-background:new 0 0 24 24;" xml:space="preserve">
<g id="Flag">
</g>
<g id="Umbrella">
</g>
<g id="Briefcase">
</g>
<g id="Box">
</g>
<g id="Magnet">
</g>
<g id="Percent">
</g>
<g id="Rocket">
</g>
<g id="Share">
</g>
<g id="Transmitter">
</g>
<g id="Record_2">
</g>
<g id="Record_1">
</g>
<g id="Anchor">
</g>
<g id="Airplane">
</g>
<g id="Car">
</g>
<g id="Newsfeed">
</g>
<g id="Wifi_Tethering">
</g>
<g id="No_Wifi_Tethering">
</g>
<g id="Bar_Chart_2">
</g>
<g id="Shop">
</g>
<g id="Alarm">
</g>
<g id="Sim_Card">
</g>
<g id="Radar">
</g>
<g id="Hand_2">
</g>
<g id="Palette">
</g>
<g id="Cake">
</g>
<g id="Blende">
</g>
<g id="Feather_Pen">
	<g>
		<g>
			<path d="M1.5,24c-0.068,0-0.138-0.014-0.205-0.044c-0.252-0.113-0.364-0.409-0.251-0.661c1.981-4.417,4.837-7.798,9.099-12.145
				c0.195-0.197,0.511-0.199,0.707-0.008c0.197,0.193,0.201,0.511,0.008,0.707c-4.184,4.267-6.981,7.574-8.901,11.855
				C1.873,23.89,1.69,24,1.5,24z"/>
		</g>
		<g>
			<path d="M3.5,20C3.224,20,3,19.776,3,19.5C3,8.748,11.748,0,22.5,0C22.776,0,23,0.224,23,0.5c0,2.131-0.36,4.261-1.071,6.33
				c-0.039,0.115-0.119,0.212-0.225,0.272L18.383,9h1.852c0.176,0,0.339,0.093,0.43,0.244c0.09,0.15,0.094,0.338,0.011,0.493
				C17.263,16.067,10.682,20,3.5,20z M21.993,1.007c-9.8,0.265-17.722,8.187-17.986,17.986C10.34,18.821,16.123,15.429,19.375,10
				H16.5c-0.227,0-0.425-0.152-0.483-0.372c-0.058-0.219,0.038-0.449,0.235-0.563l4.791-2.737
				C21.623,4.584,21.942,2.797,21.993,1.007z"/>
		</g>
	</g>
</g>
<g id="Ticket">
</g>
<g id="Medal">
</g>
<g id="Mouse_Pointer_1">
</g>
<g id="Mouse_Pointer_2">
</g>
<g id="Fingerprint">
</g>
<g id="Earth">
</g>
</svg>
