<?xml version="1.0" encoding="iso-8859-1"?>
<!-- Generator: Adobe Illustrator 19.2.1, SVG Export Plug-In . SVG Version: 6.00 Build 0)  -->
<svg version="1.1" xmlns="http://www.w3.org/2000/svg" xmlns:xlink="http://www.w3.org/1999/xlink" x="0px" y="0px"
	 viewBox="0 0 24 24" style="enable-background:new 0 0 24 24;" xml:space="preserve">
<g id="Flag">
	<g>
		<g>
			<path d="M3.5,24C3.224,24,3,23.776,3,23.5v-23C3,0.224,3.224,0,3.5,0S4,0.224,4,0.5v23C4,23.776,3.776,24,3.5,24z"/>
		</g>
		<g>
			<path d="M19.5,14h-6c-0.827,0-1.5-0.673-1.5-1.5c0-0.276-0.224-0.5-0.5-0.5h-8C3.224,12,3,11.776,3,11.5S3.224,11,3.5,11h8
				c0.827,0,1.5,0.673,1.5,1.5c0,0.276,0.224,0.5,0.5,0.5H19V3h-6.5C12.224,3,12,2.776,12,2.5v-1C12,1.224,11.776,1,11.5,1h-8
				C3.224,1,3,0.776,3,0.5S3.224,0,3.5,0h8C12.327,0,13,0.673,13,1.5V2h6.5C19.776,2,20,2.224,20,2.5v11
				C20,13.776,19.776,14,19.5,14z"/>
		</g>
		<g>
			<path d="M12.5,7C12.224,7,12,6.776,12,6.5v-5C12,1.224,12.224,1,12.5,1S13,1.224,13,1.5v5C13,6.776,12.776,7,12.5,7z"/>
		</g>
	</g>
</g>
<g id="Umbrella">
</g>
<g id="Briefcase">
</g>
<g id="Box">
</g>
<g id="Magnet">
</g>
<g id="Percent">
</g>
<g id="Rocket">
</g>
<g id="Share">
</g>
<g id="Transmitter">
</g>
<g id="Record_2">
</g>
<g id="Record_1">
</g>
<g id="Anchor">
</g>
<g id="Airplane">
</g>
<g id="Car">
</g>
<g id="Newsfeed">
</g>
<g id="Wifi_Tethering">
</g>
<g id="No_Wifi_Tethering">
</g>
<g id="Bar_Chart_2">
</g>
<g id="Shop">
</g>
<g id="Alarm">
</g>
<g id="Sim_Card">
</g>
<g id="Radar">
</g>
<g id="Hand_2">
</g>
<g id="Palette">
</g>
<g id="Cake">
</g>
<g id="Blende">
</g>
<g id="Feather_Pen">
</g>
<g id="Ticket">
</g>
<g id="Medal">
</g>
<g id="Mouse_Pointer_1">
</g>
<g id="Mouse_Pointer_2">
</g>
<g id="Fingerprint">
</g>
<g id="Earth">
</g>
</svg>
