<?xml version="1.0" encoding="iso-8859-1"?>
<!-- Generator: Adobe Illustrator 19.2.1, SVG Export Plug-In . SVG Version: 6.00 Build 0)  -->
<svg version="1.1" xmlns="http://www.w3.org/2000/svg" xmlns:xlink="http://www.w3.org/1999/xlink" x="0px" y="0px"
	 viewBox="0 0 24 24" style="enable-background:new 0 0 24 24;" xml:space="preserve">
<g id="Credit_Card">
</g>
<g id="Banknote">
</g>
<g id="Wallet">
</g>
<g id="Compass">
</g>
<g id="Camera_1">
</g>
<g id="Photo">
</g>
<g id="Picture">
</g>
<g id="Camera_2">
</g>
<g id="No_Camera">
</g>
<g id="Video">
</g>
<g id="Audio">
</g>
<g id="Microphone_1">
</g>
<g id="Microphone_2">
</g>
<g id="No_Microphone">
</g>
<g id="Shopping_Cart">
</g>
<g id="Add_Shopping_Cart">
</g>
<g id="Remove_Shopping_Cart">
</g>
<g id="Shopping_Basket">
</g>
<g id="Jing-Jang">
</g>
<g id="Leaf">
</g>
<g id="Glass">
</g>
<g id="Cup">
</g>
<g id="Mug">
</g>
<g id="Refresh">
</g>
<g id="Login">
</g>
<g id="Logout">
</g>
<g id="Flowchart">
</g>
<g id="Pin_1">
</g>
<g id="Pin_2">
</g>
<g id="User_1">
</g>
<g id="User_2">
</g>
<g id="Users">
</g>
<g id="Adjustments">
</g>
<g id="Type">
</g>
<g id="Format_Size">
</g>
<g id="Menu_1">
</g>
<g id="Other">
</g>
<g id="Flash">
</g>
<g id="No_Flash">
</g>
<g id="Switch_Button_1">
</g>
<g id="Switch_Button_2">
</g>
<g id="Cut">
</g>
<g id="Crop">
</g>
<g id="Sun">
</g>
<g id="USB">
</g>
<g id="Pie_Chart_1">
</g>
<g id="Pie_Chart_2">
</g>
<g id="Line_Chart">
</g>
<g id="Bar_Chart">
</g>
<g id="Target">
</g>
<g id="Flashlight">
	<g>
		<g>
			<path d="M13.5,24h-4C8.673,24,8,23.327,8,22.5V10.711c0-0.693-0.203-1.364-0.588-1.941L6.924,8.037C6.319,7.131,6,6.076,6,4.986
				V1.5C6,0.673,6.673,0,7.5,0h8C16.327,0,17,0.673,17,1.5v3.486c0,1.09-0.319,2.145-0.924,3.051L15.588,8.77
				C15.203,9.347,15,10.018,15,10.711V22.5C15,23.327,14.327,24,13.5,24z M7.5,1C7.224,1,7,1.225,7,1.5v3.486
				c0,0.892,0.261,1.755,0.756,2.496l0.488,0.732C8.739,8.957,9,9.82,9,10.711V22.5C9,22.775,9.224,23,9.5,23h4
				c0.276,0,0.5-0.225,0.5-0.5V10.711c0-0.891,0.261-1.754,0.756-2.496l0.488-0.732C15.739,6.741,16,5.878,16,4.986V1.5
				C16,1.225,15.776,1,15.5,1H7.5z"/>
		</g>
		<g>
			<path d="M16.5,4h-10C6.224,4,6,3.776,6,3.5S6.224,3,6.5,3h10C16.776,3,17,3.224,17,3.5S16.776,4,16.5,4z"/>
		</g>
		<g>
			<path d="M14.5,21h-6C8.224,21,8,20.776,8,20.5S8.224,20,8.5,20h6c0.276,0,0.5,0.224,0.5,0.5S14.776,21,14.5,21z"/>
		</g>
		<g>
			<path d="M11.5,13.5c-0.551,0-1-0.448-1-1s0.449-1,1-1s1,0.448,1,1S12.051,13.5,11.5,13.5z M11.5,12.499
				C11.5,12.499,11.5,12.5,11.5,12.499L12,12.5L11.5,12.499z"/>
		</g>
	</g>
</g>
<g id="USB_Device">
</g>
<g id="Eject">
</g>
<g id="Lightbulb">
</g>
<g id="Information">
</g>
<g id="Deactivate_Protection">
</g>
<g id="Active_Protection">
</g>
<g id="Bug">
</g>
<g id="Protection">
</g>
<g id="Phone">
</g>
<g id="List">
</g>
<g id="Plugin_1">
</g>
<g id="Bookmarrk">
</g>
<g id="Handshake">
</g>
<g id="Minimize">
</g>
<g id="Maximize">
</g>
<g id="Diamond">
</g>
<g id="Stop">
</g>
<g id="Shuffle">
</g>
<g id="Undo">
</g>
<g id="Upgrade">
</g>
<g id="Coding">
</g>
<g id="Syncronizaion">
</g>
<g id="Radio">
</g>
<g id="Presentation">
</g>
<g id="Door">
</g>
<g id="Thumbs_Up">
</g>
<g id="Thumbs_Down">
</g>
<g id="Keyboard">
</g>
<g id="_x33_D_Cube">
</g>
<g id="Signal">
</g>
<g id="Dice">
</g>
<g id="Upload">
</g>
<g id="Download">
</g>
<g id="Plugin_2">
</g>
<g id="Shopping_Bag">
</g>
<g id="Lifebelt">
</g>
<g id="Glasses">
</g>
<g id="Parabolic_Antenna">
</g>
<g id="Loudspeaker">
</g>
<g id="Play">
</g>
<g id="Pause">
</g>
<g id="Signpost">
</g>
<g id="Bluetooth">
</g>
<g id="Present">
</g>
<g id="Ruler">
</g>
<g id="Connection">
</g>
<g id="Money">
</g>
<g id="Paper_Plane">
</g>
<g id="Wallet_2">
</g>
</svg>
