<?xml version="1.0" encoding="iso-8859-1"?>
<!-- Generator: Adobe Illustrator 19.2.1, SVG Export Plug-In . SVG Version: 6.00 Build 0)  -->
<svg version="1.1" xmlns="http://www.w3.org/2000/svg" xmlns:xlink="http://www.w3.org/1999/xlink" x="0px" y="0px"
	 viewBox="0 0 24 24" style="enable-background:new 0 0 24 24;" xml:space="preserve">
<g id="Credit_Card">
</g>
<g id="Banknote">
</g>
<g id="Wallet">
</g>
<g id="Compass">
</g>
<g id="Camera_1">
</g>
<g id="Photo">
</g>
<g id="Picture">
</g>
<g id="Camera_2">
</g>
<g id="No_Camera">
</g>
<g id="Video">
</g>
<g id="Audio">
</g>
<g id="Microphone_1">
</g>
<g id="Microphone_2">
</g>
<g id="No_Microphone">
</g>
<g id="Shopping_Cart">
</g>
<g id="Add_Shopping_Cart">
</g>
<g id="Remove_Shopping_Cart">
</g>
<g id="Shopping_Basket">
</g>
<g id="Jing-Jang">
</g>
<g id="Leaf">
</g>
<g id="Glass">
</g>
<g id="Cup">
</g>
<g id="Mug">
</g>
<g id="Refresh">
</g>
<g id="Login">
</g>
<g id="Logout">
</g>
<g id="Flowchart">
	<g>
		<g>
			<path d="M13.5,10h-4C8.121,10,7,8.878,7,7.5v-4C7,2.122,8.121,1,9.5,1h4C14.879,1,16,2.122,16,3.5v4C16,8.878,14.879,10,13.5,10z
				 M9.5,2C8.673,2,8,2.673,8,3.5v4C8,8.327,8.673,9,9.5,9h4C14.327,9,15,8.327,15,7.5v-4C15,2.673,14.327,2,13.5,2H9.5z"/>
		</g>
		<g>
			<path d="M12.7,24h-2.4C9.583,24,9,23.417,9,22.7v-2.4c0-0.717,0.583-1.3,1.3-1.3h2.4c0.717,0,1.3,0.583,1.3,1.3v2.4
				C14,23.417,13.417,24,12.7,24z M10.3,20c-0.165,0-0.3,0.134-0.3,0.3v2.4c0,0.166,0.135,0.3,0.3,0.3h2.4
				c0.165,0,0.3-0.134,0.3-0.3v-2.4c0-0.166-0.135-0.3-0.3-0.3H10.3z"/>
		</g>
		<g>
			<path d="M21.7,24h-2.4c-0.717,0-1.3-0.583-1.3-1.3v-2.4c0-0.717,0.583-1.3,1.3-1.3h2.4c0.717,0,1.3,0.583,1.3,1.3v2.4
				C23,23.417,22.417,24,21.7,24z M19.3,20c-0.165,0-0.3,0.134-0.3,0.3v2.4c0,0.166,0.135,0.3,0.3,0.3h2.4
				c0.165,0,0.3-0.134,0.3-0.3v-2.4c0-0.166-0.135-0.3-0.3-0.3H19.3z"/>
		</g>
		<g>
			<path d="M3.7,24H1.3C0.583,24,0,23.417,0,22.7v-2.4C0,19.583,0.583,19,1.3,19h2.4C4.417,19,5,19.583,5,20.3v2.4
				C5,23.417,4.417,24,3.7,24z M1.3,20C1.135,20,1,20.134,1,20.3v2.4C1,22.866,1.135,23,1.3,23h2.4C3.865,23,4,22.866,4,22.7v-2.4
				C4,20.134,3.865,20,3.7,20H1.3z"/>
		</g>
		<g>
			<path d="M11.5,18c-0.276,0-0.5-0.224-0.5-0.5v-6c0-0.276,0.224-0.5,0.5-0.5s0.5,0.224,0.5,0.5v6C12,17.776,11.776,18,11.5,18z"/>
		</g>
		<g>
			<path d="M20.5,18c-0.276,0-0.5-0.224-0.5-0.5c0-1.378-1.121-2.5-2.5-2.5h-12C4.121,15,3,16.122,3,17.5C3,17.776,2.776,18,2.5,18
				S2,17.776,2,17.5C2,15.57,3.57,14,5.5,14h12c1.93,0,3.5,1.57,3.5,3.5C21,17.776,20.776,18,20.5,18z"/>
		</g>
	</g>
</g>
<g id="Pin_1">
</g>
<g id="Pin_2">
</g>
<g id="User_1">
</g>
<g id="User_2">
</g>
<g id="Users">
</g>
<g id="Adjustments">
</g>
<g id="Type">
</g>
<g id="Format_Size">
</g>
<g id="Menu_1">
</g>
<g id="Other">
</g>
<g id="Flash">
</g>
<g id="No_Flash">
</g>
<g id="Switch_Button_1">
</g>
<g id="Switch_Button_2">
</g>
<g id="Cut">
</g>
<g id="Crop">
</g>
<g id="Sun">
</g>
<g id="USB">
</g>
<g id="Pie_Chart_1">
</g>
<g id="Pie_Chart_2">
</g>
<g id="Line_Chart">
</g>
<g id="Bar_Chart">
</g>
<g id="Target">
</g>
<g id="Flashlight">
</g>
<g id="USB_Device">
</g>
<g id="Eject">
</g>
<g id="Lightbulb">
</g>
<g id="Information">
</g>
<g id="Deactivate_Protection">
</g>
<g id="Active_Protection">
</g>
<g id="Bug">
</g>
<g id="Protection">
</g>
<g id="Phone">
</g>
<g id="List">
</g>
<g id="Plugin_1">
</g>
<g id="Bookmarrk">
</g>
<g id="Handshake">
</g>
<g id="Minimize">
</g>
<g id="Maximize">
</g>
<g id="Diamond">
</g>
<g id="Stop">
</g>
<g id="Shuffle">
</g>
<g id="Undo">
</g>
<g id="Upgrade">
</g>
<g id="Coding">
</g>
<g id="Syncronizaion">
</g>
<g id="Radio">
</g>
<g id="Presentation">
</g>
<g id="Door">
</g>
<g id="Thumbs_Up">
</g>
<g id="Thumbs_Down">
</g>
<g id="Keyboard">
</g>
<g id="_x33_D_Cube">
</g>
<g id="Signal">
</g>
<g id="Dice">
</g>
<g id="Upload">
</g>
<g id="Download">
</g>
<g id="Plugin_2">
</g>
<g id="Shopping_Bag">
</g>
<g id="Lifebelt">
</g>
<g id="Glasses">
</g>
<g id="Parabolic_Antenna">
</g>
<g id="Loudspeaker">
</g>
<g id="Play">
</g>
<g id="Pause">
</g>
<g id="Signpost">
</g>
<g id="Bluetooth">
</g>
<g id="Present">
</g>
<g id="Ruler">
</g>
<g id="Connection">
</g>
<g id="Money">
</g>
<g id="Paper_Plane">
</g>
<g id="Wallet_2">
</g>
</svg>
