<?xml version="1.0" encoding="iso-8859-1"?>
<!-- Generator: Adobe Illustrator 19.2.1, SVG Export Plug-In . SVG Version: 6.00 Build 0)  -->
<svg version="1.1" xmlns="http://www.w3.org/2000/svg" xmlns:xlink="http://www.w3.org/1999/xlink" x="0px" y="0px"
	 viewBox="0 0 24 24" style="enable-background:new 0 0 24 24;" xml:space="preserve">
<g id="Credit_Card">
</g>
<g id="Banknote">
</g>
<g id="Wallet">
</g>
<g id="Compass">
</g>
<g id="Camera_1">
</g>
<g id="Photo">
</g>
<g id="Picture">
</g>
<g id="Camera_2">
</g>
<g id="No_Camera">
</g>
<g id="Video">
</g>
<g id="Audio">
</g>
<g id="Microphone_1">
</g>
<g id="Microphone_2">
</g>
<g id="No_Microphone">
</g>
<g id="Shopping_Cart">
</g>
<g id="Add_Shopping_Cart">
</g>
<g id="Remove_Shopping_Cart">
</g>
<g id="Shopping_Basket">
</g>
<g id="Jing-Jang">
</g>
<g id="Leaf">
</g>
<g id="Glass">
</g>
<g id="Cup">
</g>
<g id="Mug">
</g>
<g id="Refresh">
</g>
<g id="Login">
</g>
<g id="Logout">
</g>
<g id="Flowchart">
</g>
<g id="Pin_1">
</g>
<g id="Pin_2">
</g>
<g id="User_1">
</g>
<g id="User_2">
</g>
<g id="Users">
</g>
<g id="Adjustments">
</g>
<g id="Type">
</g>
<g id="Format_Size">
</g>
<g id="Menu_1">
</g>
<g id="Other">
</g>
<g id="Flash">
</g>
<g id="No_Flash">
</g>
<g id="Switch_Button_1">
</g>
<g id="Switch_Button_2">
</g>
<g id="Cut">
</g>
<g id="Crop">
</g>
<g id="Sun">
</g>
<g id="USB">
</g>
<g id="Pie_Chart_1">
</g>
<g id="Pie_Chart_2">
</g>
<g id="Line_Chart">
</g>
<g id="Bar_Chart">
</g>
<g id="Target">
</g>
<g id="Flashlight">
</g>
<g id="USB_Device">
</g>
<g id="Eject">
</g>
<g id="Lightbulb">
</g>
<g id="Information">
</g>
<g id="Deactivate_Protection">
</g>
<g id="Active_Protection">
</g>
<g id="Bug">
</g>
<g id="Protection">
</g>
<g id="Phone">
</g>
<g id="List">
</g>
<g id="Plugin_1">
</g>
<g id="Bookmarrk">
</g>
<g id="Handshake">
</g>
<g id="Minimize">
</g>
<g id="Maximize">
</g>
<g id="Diamond">
</g>
<g id="Stop">
</g>
<g id="Shuffle">
</g>
<g id="Undo">
</g>
<g id="Upgrade">
</g>
<g id="Coding">
</g>
<g id="Syncronizaion">
</g>
<g id="Radio">
</g>
<g id="Presentation">
</g>
<g id="Door">
</g>
<g id="Thumbs_Up">
</g>
<g id="Thumbs_Down">
</g>
<g id="Keyboard">
</g>
<g id="_x33_D_Cube">
</g>
<g id="Signal">
</g>
<g id="Dice">
</g>
<g id="Upload">
</g>
<g id="Download">
</g>
<g id="Plugin_2">
</g>
<g id="Shopping_Bag">
</g>
<g id="Lifebelt">
</g>
<g id="Glasses">
	<g>
		<g>
			<path d="M7,21H4c-2.206,0-4-1.794-4-4s1.794-4,4-4h3c2.206,0,4,1.794,4,4S9.206,21,7,21z M4,14c-1.654,0-3,1.346-3,3s1.346,3,3,3
				h3c1.654,0,3-1.346,3-3s-1.346-3-3-3H4z"/>
		</g>
		<g>
			<path d="M20,21h-3c-2.206,0-4-1.794-4-4s1.794-4,4-4h3c2.206,0,4,1.794,4,4S22.206,21,20,21z M17,14c-1.654,0-3,1.346-3,3
				s1.346,3,3,3h3c1.654,0,3-1.346,3-3s-1.346-3-3-3H17z"/>
		</g>
		<g>
			<path d="M13.5,17.5c-0.105,0-0.211-0.032-0.301-0.101c-0.695-0.523-1.703-0.523-2.398,0c-0.219,0.167-0.534,0.124-0.7-0.099
				c-0.166-0.221-0.122-0.534,0.099-0.7c1.045-0.785,2.557-0.785,3.602,0c0.221,0.166,0.265,0.479,0.099,0.7
				C13.802,17.432,13.651,17.5,13.5,17.5z"/>
		</g>
		<g>
			<path d="M0.729,16.253c-0.058,0-0.117-0.01-0.175-0.031c-0.259-0.097-0.39-0.385-0.294-0.644l3.85-10.346
				C4.358,4.66,4.823,4.25,5.396,4.082c0.571-0.169,1.183-0.074,1.679,0.256c0.229,0.153,0.292,0.464,0.139,0.693
				C7.059,5.262,6.748,5.322,6.52,5.17C6.27,5.003,5.962,4.958,5.677,5.041C5.39,5.126,5.156,5.332,5.036,5.606L1.197,15.928
				C1.122,16.129,0.932,16.253,0.729,16.253z"/>
		</g>
		<g>
			<path d="M23.269,16.253c-0.203,0-0.394-0.124-0.469-0.326L18.953,5.581c-0.109-0.249-0.343-0.455-0.63-0.54
				C18.037,4.958,17.73,5.003,17.48,5.17c-0.229,0.151-0.539,0.091-0.693-0.139c-0.153-0.229-0.091-0.54,0.139-0.693
				c0.495-0.33,1.107-0.424,1.679-0.256c0.572,0.168,1.037,0.578,1.275,1.126l3.857,10.371c0.096,0.259-0.036,0.546-0.295,0.643
				C23.386,16.243,23.326,16.253,23.269,16.253z"/>
		</g>
	</g>
</g>
<g id="Parabolic_Antenna">
</g>
<g id="Loudspeaker">
</g>
<g id="Play">
</g>
<g id="Pause">
</g>
<g id="Signpost">
</g>
<g id="Bluetooth">
</g>
<g id="Present">
</g>
<g id="Ruler">
</g>
<g id="Connection">
</g>
<g id="Money">
</g>
<g id="Paper_Plane">
</g>
<g id="Wallet_2">
</g>
</svg>
