<?xml version="1.0" encoding="iso-8859-1"?>
<!-- Generator: Adobe Illustrator 19.2.1, SVG Export Plug-In . SVG Version: 6.00 Build 0)  -->
<svg version="1.1" xmlns="http://www.w3.org/2000/svg" xmlns:xlink="http://www.w3.org/1999/xlink" x="0px" y="0px"
	 viewBox="0 0 24 24" style="enable-background:new 0 0 24 24;" xml:space="preserve">
<g id="Credit_Card">
</g>
<g id="Banknote">
</g>
<g id="Wallet">
</g>
<g id="Compass">
</g>
<g id="Camera_1">
</g>
<g id="Photo">
</g>
<g id="Picture">
</g>
<g id="Camera_2">
</g>
<g id="No_Camera">
</g>
<g id="Video">
</g>
<g id="Audio">
</g>
<g id="Microphone_1">
</g>
<g id="Microphone_2">
</g>
<g id="No_Microphone">
</g>
<g id="Shopping_Cart">
</g>
<g id="Add_Shopping_Cart">
</g>
<g id="Remove_Shopping_Cart">
</g>
<g id="Shopping_Basket">
</g>
<g id="Jing-Jang">
</g>
<g id="Leaf">
</g>
<g id="Glass">
</g>
<g id="Cup">
</g>
<g id="Mug">
</g>
<g id="Refresh">
</g>
<g id="Login">
</g>
<g id="Logout">
</g>
<g id="Flowchart">
</g>
<g id="Pin_1">
</g>
<g id="Pin_2">
</g>
<g id="User_1">
</g>
<g id="User_2">
</g>
<g id="Users">
</g>
<g id="Adjustments">
</g>
<g id="Type">
</g>
<g id="Format_Size">
</g>
<g id="Menu_1">
</g>
<g id="Other">
</g>
<g id="Flash">
</g>
<g id="No_Flash">
</g>
<g id="Switch_Button_1">
</g>
<g id="Switch_Button_2">
</g>
<g id="Cut">
</g>
<g id="Crop">
</g>
<g id="Sun">
</g>
<g id="USB">
</g>
<g id="Pie_Chart_1">
</g>
<g id="Pie_Chart_2">
</g>
<g id="Line_Chart">
</g>
<g id="Bar_Chart">
</g>
<g id="Target">
</g>
<g id="Flashlight">
</g>
<g id="USB_Device">
</g>
<g id="Eject">
</g>
<g id="Lightbulb">
</g>
<g id="Information">
</g>
<g id="Deactivate_Protection">
</g>
<g id="Active_Protection">
</g>
<g id="Bug">
</g>
<g id="Protection">
</g>
<g id="Phone">
</g>
<g id="List">
</g>
<g id="Plugin_1">
</g>
<g id="Bookmarrk">
</g>
<g id="Handshake">
	<g>
		<g>
			<path d="M3,15.5c-0.087,0-0.176-0.022-0.257-0.071l-2.5-1.5c-0.237-0.142-0.313-0.449-0.171-0.686s0.449-0.316,0.686-0.172
				l2.5,1.5c0.237,0.142,0.313,0.449,0.171,0.686C3.335,15.413,3.169,15.5,3,15.5z"/>
		</g>
		<g>
			<path d="M11.316,5.502c-0.048,0-0.097-0.007-0.146-0.021C9.392,4.937,7.277,4.854,4.885,5.236
				C3.878,5.394,2.858,5.115,2.083,4.47L0.18,2.884C-0.032,2.707-0.061,2.392,0.116,2.18C0.293,1.969,0.607,1.938,0.82,2.116
				l1.903,1.586C3.276,4.163,4.01,4.365,4.728,4.248c2.543-0.403,4.81-0.312,6.734,0.275c0.264,0.081,0.413,0.36,0.332,0.624
				C11.729,5.363,11.531,5.502,11.316,5.502z"/>
		</g>
		<g>
			<path d="M15.251,21c-0.597,0-1.184-0.206-1.65-0.579l-2.425-2.063c-0.21-0.179-0.236-0.494-0.057-0.705
				c0.179-0.21,0.496-0.235,0.705-0.057l2.413,2.053C14.516,19.872,14.88,20,15.251,20C15.664,20,16,19.664,16,19.251
				c0-0.217-0.093-0.422-0.256-0.563l-4.564-3.804c-0.212-0.177-0.241-0.492-0.064-0.704c0.177-0.21,0.491-0.241,0.705-0.063
				l4.551,3.792c0.006,0.005,0.013,0.011,0.02,0.017l1.051,0.876C17.596,18.93,17.792,19,17.992,19h0.148
				c0.474,0,0.86-0.386,0.86-0.86c0-0.25-0.105-0.484-0.291-0.647l-5.529-4.608c-0.212-0.177-0.241-0.492-0.064-0.704
				c0.178-0.211,0.492-0.241,0.705-0.063l5.51,4.592c0.01,0.008,0.019,0.016,0.028,0.023l0.081,0.067
				C19.595,16.929,19.793,17,19.996,17h0.134c0.48,0,0.87-0.391,0.87-0.87c0-0.257-0.109-0.497-0.3-0.662L13.17,8.876
				c-0.208-0.182-0.229-0.497-0.046-0.705c0.181-0.209,0.497-0.229,0.706-0.047l7.527,6.59C21.765,15.068,22,15.583,22,16.126
				C22,17.161,21.161,18,20.13,18h-0.134c0,0,0,0-0.001,0C19.999,18.045,20,18.091,20,18.137C20,19.165,19.166,20,18.14,20h-0.148
				c-0.374,0-0.738-0.113-1.045-0.321C16.756,20.437,16.068,21,15.251,21z"/>
		</g>
		<g>
			<path d="M12.5,22c-0.4,0-0.777-0.156-1.061-0.439l-1.281-1.195c-0.202-0.188-0.212-0.505-0.024-0.706
				c0.189-0.203,0.504-0.213,0.707-0.024l1.293,1.207c0.214,0.213,0.53,0.201,0.719,0.012c0.256-0.256,0.353-0.751,0.223-0.881
				c-0.195-0.195-0.195-0.512,0-0.707s0.512-0.195,0.707,0c0.593,0.593,0.371,1.7-0.223,2.295C13.277,21.844,12.9,22,12.5,22z"/>
		</g>
		<g>
			<path d="M21,15.5c-0.17,0-0.335-0.087-0.429-0.243c-0.142-0.236-0.065-0.544,0.171-0.686l2.5-1.5
				c0.237-0.145,0.544-0.064,0.686,0.172c0.142,0.236,0.065,0.544-0.171,0.686l-2.5,1.5C21.177,15.478,21.088,15.5,21,15.5z"/>
		</g>
		<g>
			<path d="M8.933,12h-0.4c-0.827,0-1.571-0.46-1.941-1.199C6.173,9.964,6.336,8.957,6.998,8.295l2.649-2.648
				c0.029-0.029,0.061-0.055,0.096-0.075c0.182-0.109,0.367-0.23,0.556-0.354C11.167,4.646,12.15,4,13.5,4
				c0.783,0,1.504,0.237,2.267,0.489c1.087,0.358,2.314,0.764,4.018,0.536l3.39-2.905c0.21-0.178,0.525-0.154,0.705,0.055
				c0.18,0.209,0.156,0.525-0.054,0.705l-3.5,3c-0.071,0.061-0.158,0.101-0.25,0.114c-2.01,0.309-3.458-0.171-4.621-0.556
				C14.74,5.203,14.123,5,13.5,5c-1.051,0-1.865,0.535-2.652,1.052c-0.183,0.12-0.361,0.237-0.537,0.345L7.705,9.002
				c-0.356,0.356-0.444,0.9-0.219,1.352C7.685,10.752,8.086,11,8.532,11h0.4c0.272,0,0.527-0.09,0.737-0.261
				c0.189-0.154,0.408-0.337,0.643-0.533c1.282-1.072,2.318-1.914,3.012-2.174c0.258-0.1,0.547,0.034,0.644,0.292
				c0.097,0.259-0.034,0.547-0.292,0.644c-0.589,0.222-1.873,1.295-2.722,2.006c-0.238,0.199-0.46,0.385-0.654,0.542
				C9.916,11.828,9.43,12,8.933,12z"/>
		</g>
		<g>
			<path d="M3.977,17.5c-0.814,0-1.477-0.663-1.477-1.478v-0.227c0-0.293,0.086-0.576,0.248-0.819l0.546-0.818
				C3.568,13.746,4.027,13.5,4.523,13.5C5.337,13.5,6,14.163,6,14.978v0.227c0,0.293-0.086,0.576-0.248,0.819l-0.546,0.818
				C4.932,17.254,4.473,17.5,3.977,17.5z M4.523,14.5c-0.16,0-0.308,0.079-0.396,0.212L3.58,15.531
				c-0.052,0.078-0.08,0.17-0.08,0.265v0.227c0,0.264,0.214,0.478,0.477,0.478c0.16,0,0.308-0.079,0.396-0.212l0.546-0.819
				C4.972,15.391,5,15.299,5,15.204v-0.227C5,14.714,4.786,14.5,4.523,14.5z"/>
		</g>
		<g>
			<path d="M5.511,19C4.663,19,4,18.337,4,17.522v-0.196c0-0.318,0.105-0.634,0.295-0.888l1.012-1.348
				c0.277-0.37,0.719-0.591,1.182-0.591C7.337,14.5,8,15.163,8,15.978v0.196c0,0.318-0.105,0.634-0.295,0.888l-1.012,1.348
				C6.416,18.779,5.974,19,5.511,19z M6.523,15.5c-0.184,0-0.326,0.071-0.416,0.19l-1.012,1.349C5.034,17.121,5,17.223,5,17.326
				v0.196C5,17.786,5.214,18,5.477,18c0.184,0,0.326-0.071,0.416-0.19l1.012-1.349C6.966,16.379,7,16.277,7,16.174v-0.196
				C7,15.714,6.786,15.5,6.523,15.5z"/>
		</g>
		<g>
			<path d="M7.511,20C6.663,20,6,19.337,6,18.522v-0.196c0-0.318,0.105-0.634,0.295-0.888l1.012-1.348
				c0.277-0.37,0.719-0.591,1.182-0.591C9.337,15.5,10,16.163,10,16.978v0.196c0,0.318-0.105,0.634-0.295,0.888l-1.012,1.348
				C8.416,19.779,7.974,20,7.511,20z M8.523,16.5c-0.184,0-0.326,0.071-0.416,0.19l-1.012,1.349C7.034,18.121,7,18.223,7,18.326
				v0.196C7,18.786,7.214,19,7.477,19c0.184,0,0.326-0.071,0.416-0.19l1.012-1.349C8.966,17.379,9,17.277,9,17.174v-0.196
				C9,16.714,8.786,16.5,8.523,16.5z"/>
		</g>
		<g>
			<path d="M9.511,21C8.663,21,8,20.337,8,19.522v-0.196c0-0.318,0.105-0.634,0.295-0.888l1.012-1.348
				c0.277-0.37,0.719-0.591,1.182-0.591c0.849,0,1.511,0.663,1.511,1.478v0.196c0,0.318-0.105,0.634-0.295,0.888l-1.012,1.348
				C10.416,20.779,9.974,21,9.511,21z M10.523,17.5c-0.184,0-0.326,0.071-0.416,0.19l-1.012,1.349C9.034,19.121,9,19.223,9,19.326
				v0.196C9,19.786,9.214,20,9.477,20c0.184,0,0.326-0.071,0.416-0.19l1.012-1.349C10.966,18.379,11,18.277,11,18.174v-0.196
				C11,17.714,10.786,17.5,10.523,17.5z"/>
		</g>
	</g>
</g>
<g id="Minimize">
</g>
<g id="Maximize">
</g>
<g id="Diamond">
</g>
<g id="Stop">
</g>
<g id="Shuffle">
</g>
<g id="Undo">
</g>
<g id="Upgrade">
</g>
<g id="Coding">
</g>
<g id="Syncronizaion">
</g>
<g id="Radio">
</g>
<g id="Presentation">
</g>
<g id="Door">
</g>
<g id="Thumbs_Up">
</g>
<g id="Thumbs_Down">
</g>
<g id="Keyboard">
</g>
<g id="_x33_D_Cube">
</g>
<g id="Signal">
</g>
<g id="Dice">
</g>
<g id="Upload">
</g>
<g id="Download">
</g>
<g id="Plugin_2">
</g>
<g id="Shopping_Bag">
</g>
<g id="Lifebelt">
</g>
<g id="Glasses">
</g>
<g id="Parabolic_Antenna">
</g>
<g id="Loudspeaker">
</g>
<g id="Play">
</g>
<g id="Pause">
</g>
<g id="Signpost">
</g>
<g id="Bluetooth">
</g>
<g id="Present">
</g>
<g id="Ruler">
</g>
<g id="Connection">
</g>
<g id="Money">
</g>
<g id="Paper_Plane">
</g>
<g id="Wallet_2">
</g>
</svg>
