<?xml version="1.0" encoding="iso-8859-1"?>
<!-- Generator: Adobe Illustrator 19.2.1, SVG Export Plug-In . SVG Version: 6.00 Build 0)  -->
<svg version="1.1" xmlns="http://www.w3.org/2000/svg" xmlns:xlink="http://www.w3.org/1999/xlink" x="0px" y="0px"
	 viewBox="0 0 24 24" style="enable-background:new 0 0 24 24;" xml:space="preserve">
<g id="Mail">
</g>
<g id="Open_Mail">
</g>
<g id="Mail_Attachmet">
</g>
<g id="Mails">
</g>
<g id="Trash">
</g>
<g id="Trash_Full">
</g>
<g id="Preferences_1">
</g>
<g id="Preferences_2">
</g>
<g id="Mouse">
</g>
<g id="Computer">
</g>
<g id="Notebook">
</g>
<g id="Mobile_Phone">
</g>
<g id="Print">
</g>
<g id="Calculator">
</g>
<g id="Tag">
</g>
<g id="Paperclip">
</g>
<g id="Heart">
</g>
<g id="Lock">
</g>
<g id="Lock_Open">
</g>
<g id="Key_1">
</g>
<g id="Star">
</g>
<g id="Add">
</g>
<g id="Remove">
</g>
<g id="Error">
</g>
<g id="Check_1">
</g>
<g id="Time">
</g>
<g id="Question_Mark">
</g>
<g id="Error_Mark">
</g>
<g id="Sand-Glass">
</g>
<g id="Battery_Full">
</g>
<g id="Battery_Charge">
</g>
<g id="Battery_Half">
</g>
<g id="Battery_Low">
</g>
<g id="No_Battery">
</g>
<g id="Key_2">
</g>
<g id="Link">
</g>
<g id="Brake_Link">
</g>
<g id="Pencil">
</g>
<g id="At">
</g>
<g id="Reply">
</g>
<g id="Accessible">
</g>
<g id="Up_Arrow">
</g>
<g id="Brush">
</g>
<g id="Design_Mug">
</g>
<g id="Design">
</g>
<g id="Server">
</g>
<g id="Database">
</g>
<g id="Save">
</g>
<g id="Female">
</g>
<g id="Male">
</g>
<g id="Book">
</g>
<g id="Power">
</g>
<g id="Reload">
</g>
<g id="Map">
</g>
<g id="Loction_1">
</g>
<g id="Location_2">
</g>
<g id="Globe">
</g>
<g id="Suitcase">
</g>
<g id="Callendar">
</g>
<g id="Cloud_Off">
</g>
<g id="File_1">
</g>
<g id="File_2">
</g>
<g id="Folder">
</g>
<g id="Open_Folder">
</g>
<g id="Cloud">
</g>
<g id="Upload_Cloud">
</g>
<g id="Download_Cloud">
</g>
<g id="Eye">
</g>
<g id="Invisible">
</g>
<g id="Assignment">
</g>
<g id="Note_Book">
</g>
<g id="Webpage">
</g>
<g id="Mailbox">
</g>
<g id="Drive">
</g>
<g id="Disc">
</g>
<g id="Wifi_1">
</g>
<g id="Wifi_2">
</g>
<g id="Archive">
</g>
<g id="Archive_File">
</g>
<g id="News">
</g>
<g id="Home">
</g>
<g id="Collaboration">
</g>
<g id="Announcement">
</g>
<g id="Watch">
</g>
<g id="Clock">
</g>
<g id="Volume">
</g>
<g id="Mute">
</g>
<g id="Hand">
	<g>
		<g>
			<path d="M3.5,16.018h-3c-0.276,0-0.5-0.224-0.5-0.5v-9c0-0.138,0.057-0.27,0.157-0.364C0.258,6.06,0.396,6.011,0.529,6.019
				C1.56,6.08,4.986,6.343,5.844,7.154c0.11,0.105,0.168,0.255,0.154,0.407c-0.227,2.6-1.949,7.888-2.022,8.111
				C3.908,15.879,3.716,16.018,3.5,16.018z M1,15.018h2.135c0.372-1.175,1.571-5.065,1.837-7.255C4.341,7.457,2.606,7.181,1,7.054
				V15.018z"/>
		</g>
		<g>
			<path d="M13.396,17.986c-0.652,0-1.232-0.184-2.073-0.501l-7.481-2.493c-0.262-0.088-0.403-0.371-0.316-0.633
				c0.089-0.262,0.372-0.401,0.633-0.316l7.5,2.5c1.801,0.682,1.949,0.734,6.152-0.988l4.957-2.253
				c-0.551-0.668-1.44-0.977-2.315-0.756l-3.831,0.957c-0.274,0.063-0.54-0.097-0.606-0.364s0.097-0.539,0.364-0.606l3.831-0.957
				c1.505-0.376,3.044,0.331,3.737,1.719c0.061,0.121,0.069,0.263,0.024,0.391c-0.046,0.128-0.142,0.232-0.265,0.288l-5.5,2.5
				C15.598,17.543,14.41,17.986,13.396,17.986z"/>
		</g>
		<g>
			<path d="M14.426,13.943c-0.23,0-0.46-0.022-0.685-0.067l-4.339-0.868C9.131,12.954,8.955,12.69,9.01,12.42
				c0.055-0.271,0.33-0.449,0.588-0.393l4.339,0.868c0.362,0.071,0.739,0.063,1.097-0.026l0.96-0.24
				c-0.062-0.913-0.507-1.35-1.614-1.626L5.392,9.006c-0.27-0.061-0.439-0.327-0.38-0.597s0.325-0.437,0.597-0.38l9,2
				C16.267,10.443,17,11.315,17,12.86v0.157c0,0.229-0.156,0.43-0.379,0.485l-1.346,0.337
				C14.999,13.908,14.712,13.943,14.426,13.943z M16.5,13.018h0.01H16.5z"/>
		</g>
	</g>
</g>
<g id="Layers">
</g>
<g id="Bell">
</g>
<g id="Speach_Bubble">
</g>
<g id="Speach_Bubbles">
</g>
<g id="Zoom_In">
</g>
<g id="Zoom_Out">
</g>
<g id="Search">
</g>
<g id="Back_Arrow">
</g>
<g id="Close">
</g>
<g id="Check_2">
</g>
<g id="Left_Arrow_2">
</g>
<g id="Right_Arrow_2">
</g>
</svg>
