<?xml version="1.0" encoding="iso-8859-1"?>
<!-- Generator: Adobe Illustrator 19.2.1, SVG Export Plug-In . SVG Version: 6.00 Build 0)  -->
<svg version="1.1" xmlns="http://www.w3.org/2000/svg" xmlns:xlink="http://www.w3.org/1999/xlink" x="0px" y="0px"
	 viewBox="0 0 24 24" style="enable-background:new 0 0 24 24;" xml:space="preserve">
<g id="Flag">
</g>
<g id="Umbrella">
</g>
<g id="Briefcase">
</g>
<g id="Box">
</g>
<g id="Magnet">
</g>
<g id="Percent">
</g>
<g id="Rocket">
</g>
<g id="Share">
</g>
<g id="Transmitter">
</g>
<g id="Record_2">
</g>
<g id="Record_1">
</g>
<g id="Anchor">
</g>
<g id="Airplane">
</g>
<g id="Car">
</g>
<g id="Newsfeed">
</g>
<g id="Wifi_Tethering">
</g>
<g id="No_Wifi_Tethering">
</g>
<g id="Bar_Chart_2">
</g>
<g id="Shop">
</g>
<g id="Alarm">
</g>
<g id="Sim_Card">
</g>
<g id="Radar">
</g>
<g id="Hand_2">
	<g>
		<g>
			<path d="M15.5,13c-0.276,0-0.5-0.224-0.5-0.5V2c0-0.552-0.449-1-1-1s-1,0.448-1,1v10.5c0,0.276-0.224,0.5-0.5,0.5
				S12,12.776,12,12.5V2c0-1.103,0.897-2,2-2s2,0.897,2,2v10.5C16,12.776,15.776,13,15.5,13z"/>
		</g>
		<g>
			<path d="M18.5,13c-0.276,0-0.5-0.224-0.5-0.5V4c0-0.552-0.449-1-1-1s-1,0.448-1,1c0,0.276-0.224,0.5-0.5,0.5S15,4.276,15,4
				c0-1.103,0.897-2,2-2s2,0.897,2,2v8.5C19,12.776,18.776,13,18.5,13z"/>
		</g>
		<g>
			<path d="M15.5,24h-2.881c-2.639,0-5.086-1.436-6.546-3.841l-3.83-6.207C2.075,13.634,2,13.324,2,13c0-1.103,0.897-2,2-2
				c0.627,0,1.206,0.286,1.588,0.784l2.51,2.389c0.243,0.27,0.503,0.194,0.58,0.164C8.753,14.309,9,14.189,9,13.87V4
				c0-1.103,0.897-2,2-2s2,0.897,2,2c0,0.276-0.224,0.5-0.5,0.5S12,4.276,12,4c0-0.552-0.449-1-1-1s-1,0.448-1,1v9.87
				c0,0.628-0.38,1.179-0.967,1.402c-0.586,0.223-1.236,0.064-1.654-0.406L4.846,12.45C4.175,11.604,3,12.134,3,13
				c0,0.162,0.038,0.316,0.111,0.459l3.813,6.178C8.204,21.744,10.332,23,12.619,23H15.5c3.033,0,5.5-2.468,5.5-5.5V7
				c0-0.552-0.449-1-1-1s-1,0.448-1,1c0,0.276-0.224,0.5-0.5,0.5S18,7.276,18,7c0-1.103,0.897-2,2-2s2,0.897,2,2v10.5
				C22,21.084,19.084,24,15.5,24z"/>
		</g>
	</g>
</g>
<g id="Palette">
</g>
<g id="Cake">
</g>
<g id="Blende">
</g>
<g id="Feather_Pen">
</g>
<g id="Ticket">
</g>
<g id="Medal">
</g>
<g id="Mouse_Pointer_1">
</g>
<g id="Mouse_Pointer_2">
</g>
<g id="Fingerprint">
</g>
<g id="Earth">
</g>
</svg>
