<?xml version="1.0" encoding="iso-8859-1"?>
<!-- Generator: Adobe Illustrator 19.2.1, SVG Export Plug-In . SVG Version: 6.00 Build 0)  -->
<svg version="1.1" xmlns="http://www.w3.org/2000/svg" xmlns:xlink="http://www.w3.org/1999/xlink" x="0px" y="0px"
	 viewBox="0 0 24 24" style="enable-background:new 0 0 24 24;" xml:space="preserve">
<g id="Mail">
</g>
<g id="Open_Mail">
</g>
<g id="Mail_Attachmet">
</g>
<g id="Mails">
</g>
<g id="Trash">
</g>
<g id="Trash_Full">
</g>
<g id="Preferences_1">
</g>
<g id="Preferences_2">
</g>
<g id="Mouse">
</g>
<g id="Computer">
</g>
<g id="Notebook">
</g>
<g id="Mobile_Phone">
</g>
<g id="Print">
</g>
<g id="Calculator">
</g>
<g id="Tag">
</g>
<g id="Paperclip">
</g>
<g id="Heart">
</g>
<g id="Lock">
</g>
<g id="Lock_Open">
</g>
<g id="Key_1">
</g>
<g id="Star">
</g>
<g id="Add">
</g>
<g id="Remove">
</g>
<g id="Error">
</g>
<g id="Check_1">
</g>
<g id="Time">
</g>
<g id="Question_Mark">
</g>
<g id="Error_Mark">
</g>
<g id="Sand-Glass">
</g>
<g id="Battery_Full">
</g>
<g id="Battery_Charge">
</g>
<g id="Battery_Half">
</g>
<g id="Battery_Low">
</g>
<g id="No_Battery">
</g>
<g id="Key_2">
</g>
<g id="Link">
</g>
<g id="Brake_Link">
</g>
<g id="Pencil">
</g>
<g id="At">
</g>
<g id="Reply">
</g>
<g id="Accessible">
</g>
<g id="Up_Arrow">
</g>
<g id="Brush">
</g>
<g id="Design_Mug">
</g>
<g id="Design">
</g>
<g id="Server">
</g>
<g id="Database">
</g>
<g id="Save">
</g>
<g id="Female">
</g>
<g id="Male">
</g>
<g id="Book">
</g>
<g id="Power">
</g>
<g id="Reload">
</g>
<g id="Map">
</g>
<g id="Loction_1">
</g>
<g id="Location_2">
</g>
<g id="Globe">
</g>
<g id="Suitcase">
</g>
<g id="Callendar">
</g>
<g id="Cloud_Off">
</g>
<g id="File_1">
</g>
<g id="File_2">
</g>
<g id="Folder">
</g>
<g id="Open_Folder">
</g>
<g id="Cloud">
</g>
<g id="Upload_Cloud">
</g>
<g id="Download_Cloud">
</g>
<g id="Eye">
</g>
<g id="Invisible">
	<g>
		<g>
			<g>
				<path d="M12,16c-1.069,0-2.074-0.416-2.828-1.172c-0.195-0.195-0.195-0.513,0-0.707c0.195-0.195,0.512-0.195,0.707,0
					C10.445,14.688,11.198,15,12,15c1.654,0,3-1.346,3-3c0-0.802-0.313-1.555-0.879-2.121c-0.195-0.194-0.195-0.512,0-0.707
					s0.512-0.195,0.707,0C15.584,9.926,16,10.931,16,12C16,14.206,14.206,16,12,16z"/>
			</g>
			<g>
				<path d="M8.561,13.11c-0.237,0-0.448-0.171-0.491-0.413C8.029,12.47,8,12.238,8,12c0-2.206,1.794-4,4-4
					c0.238,0,0.47,0.029,0.697,0.069c0.271,0.048,0.453,0.308,0.405,0.579s-0.313,0.459-0.579,0.405C12.353,9.023,12.18,9,12,9
					c-1.654,0-3,1.346-3,3c0,0.18,0.023,0.353,0.054,0.523c0.048,0.271-0.134,0.531-0.405,0.579
					C8.619,13.108,8.59,13.11,8.561,13.11z"/>
			</g>
		</g>
		<g>
			<g>
				<path d="M12,19c-1.829,0-3.667-0.438-5.462-1.305c-0.249-0.12-0.354-0.419-0.233-0.667c0.12-0.249,0.421-0.354,0.667-0.233
					C8.631,17.595,10.322,18,12,18c4.945,0,9.636-4.709,10.828-6c-0.785-0.848-3.081-3.17-5.955-4.658
					c-0.246-0.127-0.342-0.429-0.215-0.674c0.127-0.246,0.432-0.342,0.674-0.215c3.731,1.933,6.436,5.09,6.549,5.224
					c0.158,0.187,0.159,0.46,0.001,0.646C23.651,12.596,18.161,19,12,19z"/>
			</g>
			<g>
				<path d="M4.953,16.719c-0.096,0-0.191-0.027-0.276-0.084c-2.865-1.903-4.518-4.25-4.587-4.349
					c-0.13-0.187-0.118-0.437,0.028-0.609C0.349,11.404,5.839,5,12,5c1.039,0,2.143,0.193,3.281,0.576
					c0.262,0.088,0.402,0.371,0.314,0.633c-0.087,0.263-0.371,0.408-0.633,0.314C13.928,6.176,12.931,6,12,6
					c-4.981,0-9.703,4.777-10.854,6.027c0.539,0.687,1.979,2.376,4.083,3.775c0.23,0.152,0.293,0.463,0.14,0.692
					C5.273,16.641,5.114,16.719,4.953,16.719z"/>
			</g>
		</g>
		<g>
			<path d="M3.5,21c-0.128,0-0.256-0.049-0.354-0.146c-0.195-0.195-0.195-0.512,0-0.707l17-17c0.195-0.195,0.512-0.195,0.707,0
				s0.195,0.512,0,0.707l-17,17C3.756,20.951,3.628,21,3.5,21z"/>
		</g>
	</g>
</g>
<g id="Assignment">
</g>
<g id="Note_Book">
</g>
<g id="Webpage">
</g>
<g id="Mailbox">
</g>
<g id="Drive">
</g>
<g id="Disc">
</g>
<g id="Wifi_1">
</g>
<g id="Wifi_2">
</g>
<g id="Archive">
</g>
<g id="Archive_File">
</g>
<g id="News">
</g>
<g id="Home">
</g>
<g id="Collaboration">
</g>
<g id="Announcement">
</g>
<g id="Watch">
</g>
<g id="Clock">
</g>
<g id="Volume">
</g>
<g id="Mute">
</g>
<g id="Hand">
</g>
<g id="Layers">
</g>
<g id="Bell">
</g>
<g id="Speach_Bubble">
</g>
<g id="Speach_Bubbles">
</g>
<g id="Zoom_In">
</g>
<g id="Zoom_Out">
</g>
<g id="Search">
</g>
<g id="Back_Arrow">
</g>
<g id="Close">
</g>
<g id="Check_2">
</g>
<g id="Left_Arrow_2">
</g>
<g id="Right_Arrow_2">
</g>
</svg>
