<?xml version="1.0" encoding="iso-8859-1"?>
<!-- Generator: Adobe Illustrator 19.2.1, SVG Export Plug-In . SVG Version: 6.00 Build 0)  -->
<svg version="1.1" xmlns="http://www.w3.org/2000/svg" xmlns:xlink="http://www.w3.org/1999/xlink" x="0px" y="0px"
	 viewBox="0 0 24 24" style="enable-background:new 0 0 24 24;" xml:space="preserve">
<g id="Mail">
</g>
<g id="Open_Mail">
</g>
<g id="Mail_Attachmet">
</g>
<g id="Mails">
</g>
<g id="Trash">
</g>
<g id="Trash_Full">
</g>
<g id="Preferences_1">
</g>
<g id="Preferences_2">
</g>
<g id="Mouse">
</g>
<g id="Computer">
</g>
<g id="Notebook">
</g>
<g id="Mobile_Phone">
</g>
<g id="Print">
</g>
<g id="Calculator">
</g>
<g id="Tag">
</g>
<g id="Paperclip">
</g>
<g id="Heart">
</g>
<g id="Lock">
</g>
<g id="Lock_Open">
</g>
<g id="Key_1">
	<g>
		<g>
			<path d="M11.5,24c-0.128,0-0.256-0.049-0.354-0.146l-2-2C9.053,21.76,9,21.633,9,21.5v-1.793l-0.854-0.854
				c-0.195-0.195-0.195-0.512,0-0.707L9,17.293v-0.586l-0.854-0.854c-0.195-0.195-0.195-0.512,0-0.707L9,14.293V13H8.5
				C8.224,13,8,12.776,8,12.5v-0.528C6.143,10.781,5,8.71,5,6.5C5,2.916,7.916,0,11.5,0S18,2.916,18,6.5c0,2.21-1.143,4.281-3,5.472
				V12.5c0,0.276-0.224,0.5-0.5,0.5H14v8.5c0,0.133-0.053,0.26-0.146,0.354l-2,2C11.756,23.951,11.628,24,11.5,24z M10,21.293
				l1.5,1.5l1.5-1.5V12.5c0-0.276,0.224-0.5,0.5-0.5H14v-0.309c0-0.178,0.095-0.343,0.249-0.433C15.946,10.275,17,8.452,17,6.5
				C17,3.467,14.532,1,11.5,1S6,3.467,6,6.5c0,1.952,1.054,3.775,2.751,4.758C8.905,11.348,9,11.513,9,11.691V12h0.5
				c0.276,0,0.5,0.224,0.5,0.5v2c0,0.133-0.053,0.26-0.146,0.354L9.207,15.5l0.646,0.646C9.947,16.24,10,16.367,10,16.5v1
				c0,0.133-0.053,0.26-0.146,0.354L9.207,18.5l0.646,0.646C9.947,19.24,10,19.367,10,19.5V21.293z"/>
		</g>
		<g>
			<path d="M11.5,7C10.121,7,9,5.878,9,4.5S10.121,2,11.5,2S14,3.122,14,4.5S12.879,7,11.5,7z M11.5,3C10.673,3,10,3.673,10,4.5
				S10.673,6,11.5,6S13,5.327,13,4.5S12.327,3,11.5,3z"/>
		</g>
		<g>
			<path d="M11.5,21c-0.276,0-0.5-0.224-0.5-0.5v-7c0-0.276,0.224-0.5,0.5-0.5s0.5,0.224,0.5,0.5v7C12,20.776,11.776,21,11.5,21z"/>
		</g>
	</g>
</g>
<g id="Star">
</g>
<g id="Add">
</g>
<g id="Remove">
</g>
<g id="Error">
</g>
<g id="Check_1">
</g>
<g id="Time">
</g>
<g id="Question_Mark">
</g>
<g id="Error_Mark">
</g>
<g id="Sand-Glass">
</g>
<g id="Battery_Full">
</g>
<g id="Battery_Charge">
</g>
<g id="Battery_Half">
</g>
<g id="Battery_Low">
</g>
<g id="No_Battery">
</g>
<g id="Key_2">
</g>
<g id="Link">
</g>
<g id="Brake_Link">
</g>
<g id="Pencil">
</g>
<g id="At">
</g>
<g id="Reply">
</g>
<g id="Accessible">
</g>
<g id="Up_Arrow">
</g>
<g id="Brush">
</g>
<g id="Design_Mug">
</g>
<g id="Design">
</g>
<g id="Server">
</g>
<g id="Database">
</g>
<g id="Save">
</g>
<g id="Female">
</g>
<g id="Male">
</g>
<g id="Book">
</g>
<g id="Power">
</g>
<g id="Reload">
</g>
<g id="Map">
</g>
<g id="Loction_1">
</g>
<g id="Location_2">
</g>
<g id="Globe">
</g>
<g id="Suitcase">
</g>
<g id="Callendar">
</g>
<g id="Cloud_Off">
</g>
<g id="File_1">
</g>
<g id="File_2">
</g>
<g id="Folder">
</g>
<g id="Open_Folder">
</g>
<g id="Cloud">
</g>
<g id="Upload_Cloud">
</g>
<g id="Download_Cloud">
</g>
<g id="Eye">
</g>
<g id="Invisible">
</g>
<g id="Assignment">
</g>
<g id="Note_Book">
</g>
<g id="Webpage">
</g>
<g id="Mailbox">
</g>
<g id="Drive">
</g>
<g id="Disc">
</g>
<g id="Wifi_1">
</g>
<g id="Wifi_2">
</g>
<g id="Archive">
</g>
<g id="Archive_File">
</g>
<g id="News">
</g>
<g id="Home">
</g>
<g id="Collaboration">
</g>
<g id="Announcement">
</g>
<g id="Watch">
</g>
<g id="Clock">
</g>
<g id="Volume">
</g>
<g id="Mute">
</g>
<g id="Hand">
</g>
<g id="Layers">
</g>
<g id="Bell">
</g>
<g id="Speach_Bubble">
</g>
<g id="Speach_Bubbles">
</g>
<g id="Zoom_In">
</g>
<g id="Zoom_Out">
</g>
<g id="Search">
</g>
<g id="Back_Arrow">
</g>
<g id="Close">
</g>
<g id="Check_2">
</g>
<g id="Left_Arrow_2">
</g>
<g id="Right_Arrow_2">
</g>
</svg>
