<?xml version="1.0" encoding="iso-8859-1"?>
<!-- Generator: Adobe Illustrator 19.2.1, SVG Export Plug-In . SVG Version: 6.00 Build 0)  -->
<svg version="1.1" xmlns="http://www.w3.org/2000/svg" xmlns:xlink="http://www.w3.org/1999/xlink" x="0px" y="0px"
	 viewBox="0 0 24 24" style="enable-background:new 0 0 24 24;" xml:space="preserve">
<g id="Credit_Card">
</g>
<g id="Banknote">
</g>
<g id="Wallet">
</g>
<g id="Compass">
</g>
<g id="Camera_1">
</g>
<g id="Photo">
</g>
<g id="Picture">
</g>
<g id="Camera_2">
</g>
<g id="No_Camera">
</g>
<g id="Video">
</g>
<g id="Audio">
</g>
<g id="Microphone_1">
</g>
<g id="Microphone_2">
</g>
<g id="No_Microphone">
</g>
<g id="Shopping_Cart">
</g>
<g id="Add_Shopping_Cart">
</g>
<g id="Remove_Shopping_Cart">
</g>
<g id="Shopping_Basket">
</g>
<g id="Jing-Jang">
</g>
<g id="Leaf">
</g>
<g id="Glass">
</g>
<g id="Cup">
</g>
<g id="Mug">
</g>
<g id="Refresh">
</g>
<g id="Login">
</g>
<g id="Logout">
</g>
<g id="Flowchart">
</g>
<g id="Pin_1">
</g>
<g id="Pin_2">
</g>
<g id="User_1">
</g>
<g id="User_2">
</g>
<g id="Users">
</g>
<g id="Adjustments">
</g>
<g id="Type">
</g>
<g id="Format_Size">
</g>
<g id="Menu_1">
</g>
<g id="Other">
</g>
<g id="Flash">
</g>
<g id="No_Flash">
</g>
<g id="Switch_Button_1">
</g>
<g id="Switch_Button_2">
</g>
<g id="Cut">
</g>
<g id="Crop">
</g>
<g id="Sun">
</g>
<g id="USB">
</g>
<g id="Pie_Chart_1">
</g>
<g id="Pie_Chart_2">
</g>
<g id="Line_Chart">
</g>
<g id="Bar_Chart">
</g>
<g id="Target">
</g>
<g id="Flashlight">
</g>
<g id="USB_Device">
</g>
<g id="Eject">
</g>
<g id="Lightbulb">
</g>
<g id="Information">
</g>
<g id="Deactivate_Protection">
</g>
<g id="Active_Protection">
</g>
<g id="Bug">
</g>
<g id="Protection">
</g>
<g id="Phone">
</g>
<g id="List">
</g>
<g id="Plugin_1">
</g>
<g id="Bookmarrk">
</g>
<g id="Handshake">
</g>
<g id="Minimize">
</g>
<g id="Maximize">
</g>
<g id="Diamond">
</g>
<g id="Stop">
</g>
<g id="Shuffle">
</g>
<g id="Undo">
</g>
<g id="Upgrade">
</g>
<g id="Coding">
</g>
<g id="Syncronizaion">
</g>
<g id="Radio">
</g>
<g id="Presentation">
</g>
<g id="Door">
</g>
<g id="Thumbs_Up">
</g>
<g id="Thumbs_Down">
</g>
<g id="Keyboard">
	<g>
		<g>
			<path d="M21.5,23h-19C1.121,23,0,21.879,0,20.5v-10C0,9.121,1.121,8,2.5,8h19c1.379,0,2.5,1.121,2.5,2.5v10
				C24,21.879,22.879,23,21.5,23z M2.5,9C1.673,9,1,9.673,1,10.5v10C1,21.327,1.673,22,2.5,22h19c0.827,0,1.5-0.673,1.5-1.5v-10
				C23,9.673,22.327,9,21.5,9H2.5z"/>
		</g>
		<g>
			<path d="M9.5,8.5C9.224,8.5,9,8.276,9,8c0-1.774,1.515-2.258,2.621-2.61C12.559,5.09,13,4.904,13,4.5
				c0-0.531-0.412-0.768-1.287-1.145c-0.789-0.34-1.771-0.763-1.712-1.882c0.014-0.275,0.249-0.493,0.525-0.473
				c0.275,0.015,0.487,0.249,0.473,0.525c-0.02,0.384,0.323,0.572,1.109,0.911C12.907,2.781,14,3.252,14,4.5
				c0,1.18-1.15,1.547-2.075,1.842C10.728,6.724,10,7.026,10,8C10,8.276,9.776,8.5,9.5,8.5z"/>
		</g>
		<g>
			<path d="M5.5,13h-2C3.224,13,3,12.776,3,12.5v-2C3,10.224,3.224,10,3.5,10S4,10.224,4,10.5V12h1.5C5.776,12,6,12.224,6,12.5
				S5.776,13,5.5,13z"/>
		</g>
		<g>
			<path d="M10.5,13h-2C8.224,13,8,12.776,8,12.5v-2C8,10.224,8.224,10,8.5,10S9,10.224,9,10.5V12h1.5c0.276,0,0.5,0.224,0.5,0.5
				S10.776,13,10.5,13z"/>
		</g>
		<g>
			<path d="M15.5,13h-2c-0.276,0-0.5-0.224-0.5-0.5v-2c0-0.276,0.224-0.5,0.5-0.5s0.5,0.224,0.5,0.5V12h1.5
				c0.276,0,0.5,0.224,0.5,0.5S15.776,13,15.5,13z"/>
		</g>
		<g>
			<path d="M5.5,17h-2C3.224,17,3,16.776,3,16.5v-2C3,14.224,3.224,14,3.5,14S4,14.224,4,14.5V16h1.5C5.776,16,6,16.224,6,16.5
				S5.776,17,5.5,17z"/>
		</g>
		<g>
			<path d="M10.5,17h-2C8.224,17,8,16.776,8,16.5v-2C8,14.224,8.224,14,8.5,14S9,14.224,9,14.5V16h1.5c0.276,0,0.5,0.224,0.5,0.5
				S10.776,17,10.5,17z"/>
		</g>
		<g>
			<path d="M15.5,17h-2c-0.276,0-0.5-0.224-0.5-0.5v-2c0-0.276,0.224-0.5,0.5-0.5s0.5,0.224,0.5,0.5V16h1.5
				c0.276,0,0.5,0.224,0.5,0.5S15.776,17,15.5,17z"/>
		</g>
		<g>
			<path d="M20.5,13h-2c-0.276,0-0.5-0.224-0.5-0.5v-2c0-0.276,0.224-0.5,0.5-0.5s0.5,0.224,0.5,0.5V12h1.5
				c0.276,0,0.5,0.224,0.5,0.5S20.776,13,20.5,13z"/>
		</g>
		<g>
			<path d="M20.5,17h-2c-0.276,0-0.5-0.224-0.5-0.5v-2c0-0.276,0.224-0.5,0.5-0.5s0.5,0.224,0.5,0.5V16h1.5
				c0.276,0,0.5,0.224,0.5,0.5S20.776,17,20.5,17z"/>
		</g>
		<g>
			<path d="M6.5,21h-2C4.224,21,4,20.776,4,20.5v-2C4,18.224,4.224,18,4.5,18S5,18.224,5,18.5V20h1.5C6.776,20,7,20.224,7,20.5
				S6.776,21,6.5,21z"/>
		</g>
		<g>
			<path d="M14.5,21h-5C9.224,21,9,20.776,9,20.5v-2C9,18.224,9.224,18,9.5,18s0.5,0.224,0.5,0.5V20h4.5c0.276,0,0.5,0.224,0.5,0.5
				S14.776,21,14.5,21z"/>
		</g>
		<g>
			<path d="M19.5,21h-2c-0.276,0-0.5-0.224-0.5-0.5v-2c0-0.276,0.224-0.5,0.5-0.5s0.5,0.224,0.5,0.5V20h1.5
				c0.276,0,0.5,0.224,0.5,0.5S19.776,21,19.5,21z"/>
		</g>
	</g>
</g>
<g id="_x33_D_Cube">
</g>
<g id="Signal">
</g>
<g id="Dice">
</g>
<g id="Upload">
</g>
<g id="Download">
</g>
<g id="Plugin_2">
</g>
<g id="Shopping_Bag">
</g>
<g id="Lifebelt">
</g>
<g id="Glasses">
</g>
<g id="Parabolic_Antenna">
</g>
<g id="Loudspeaker">
</g>
<g id="Play">
</g>
<g id="Pause">
</g>
<g id="Signpost">
</g>
<g id="Bluetooth">
</g>
<g id="Present">
</g>
<g id="Ruler">
</g>
<g id="Connection">
</g>
<g id="Money">
</g>
<g id="Paper_Plane">
</g>
<g id="Wallet_2">
</g>
</svg>
