<?xml version="1.0" encoding="iso-8859-1"?>
<!-- Generator: Adobe Illustrator 19.2.1, SVG Export Plug-In . SVG Version: 6.00 Build 0)  -->
<svg version="1.1" xmlns="http://www.w3.org/2000/svg" xmlns:xlink="http://www.w3.org/1999/xlink" x="0px" y="0px"
	 viewBox="0 0 24 24" style="enable-background:new 0 0 24 24;" xml:space="preserve">
<g id="Credit_Card">
</g>
<g id="Banknote">
</g>
<g id="Wallet">
</g>
<g id="Compass">
</g>
<g id="Camera_1">
</g>
<g id="Photo">
</g>
<g id="Picture">
</g>
<g id="Camera_2">
</g>
<g id="No_Camera">
</g>
<g id="Video">
</g>
<g id="Audio">
</g>
<g id="Microphone_1">
</g>
<g id="Microphone_2">
</g>
<g id="No_Microphone">
</g>
<g id="Shopping_Cart">
</g>
<g id="Add_Shopping_Cart">
</g>
<g id="Remove_Shopping_Cart">
</g>
<g id="Shopping_Basket">
</g>
<g id="Jing-Jang">
</g>
<g id="Leaf">
</g>
<g id="Glass">
</g>
<g id="Cup">
</g>
<g id="Mug">
</g>
<g id="Refresh">
</g>
<g id="Login">
</g>
<g id="Logout">
</g>
<g id="Flowchart">
</g>
<g id="Pin_1">
</g>
<g id="Pin_2">
</g>
<g id="User_1">
</g>
<g id="User_2">
</g>
<g id="Users">
</g>
<g id="Adjustments">
</g>
<g id="Type">
</g>
<g id="Format_Size">
</g>
<g id="Menu_1">
</g>
<g id="Other">
</g>
<g id="Flash">
</g>
<g id="No_Flash">
</g>
<g id="Switch_Button_1">
</g>
<g id="Switch_Button_2">
</g>
<g id="Cut">
</g>
<g id="Crop">
</g>
<g id="Sun">
</g>
<g id="USB">
</g>
<g id="Pie_Chart_1">
</g>
<g id="Pie_Chart_2">
</g>
<g id="Line_Chart">
</g>
<g id="Bar_Chart">
</g>
<g id="Target">
</g>
<g id="Flashlight">
</g>
<g id="USB_Device">
</g>
<g id="Eject">
</g>
<g id="Lightbulb">
</g>
<g id="Information">
</g>
<g id="Deactivate_Protection">
</g>
<g id="Active_Protection">
</g>
<g id="Bug">
</g>
<g id="Protection">
</g>
<g id="Phone">
</g>
<g id="List">
</g>
<g id="Plugin_1">
</g>
<g id="Bookmarrk">
</g>
<g id="Handshake">
</g>
<g id="Minimize">
</g>
<g id="Maximize">
</g>
<g id="Diamond">
</g>
<g id="Stop">
</g>
<g id="Shuffle">
</g>
<g id="Undo">
</g>
<g id="Upgrade">
</g>
<g id="Coding">
</g>
<g id="Syncronizaion">
</g>
<g id="Radio">
</g>
<g id="Presentation">
</g>
<g id="Door">
</g>
<g id="Thumbs_Up">
</g>
<g id="Thumbs_Down">
</g>
<g id="Keyboard">
</g>
<g id="_x33_D_Cube">
</g>
<g id="Signal">
</g>
<g id="Dice">
</g>
<g id="Upload">
</g>
<g id="Download">
</g>
<g id="Plugin_2">
</g>
<g id="Shopping_Bag">
</g>
<g id="Lifebelt">
	<g>
		<g>
			<path d="M12,24C5.383,24,0,18.617,0,12S5.383,0,12,0s12,5.383,12,12S18.617,24,12,24z M12,1C5.935,1,1,5.935,1,12s4.935,11,11,11
				s11-4.935,11-11S18.065,1,12,1z"/>
		</g>
		<g>
			<path d="M12,18c-3.309,0-6-2.691-6-6s2.691-6,6-6s6,2.691,6,6S15.309,18,12,18z M12,7c-2.757,0-5,2.243-5,5s2.243,5,5,5
				s5-2.243,5-5S14.757,7,12,7z"/>
		</g>
		<g>
			<path d="M6.768,10.803c-0.128,0-0.256-0.049-0.354-0.146L1.939,6.183c-0.195-0.195-0.195-0.512,0-0.707s0.512-0.195,0.707,0
				l4.475,4.474c0.195,0.195,0.195,0.512,0,0.707C7.023,10.754,6.896,10.803,6.768,10.803z"/>
		</g>
		<g>
			<path d="M10.303,7.268c-0.128,0-0.256-0.049-0.354-0.146L5.476,2.646c-0.195-0.195-0.195-0.512,0-0.707s0.512-0.195,0.707,0
				l4.474,4.475c0.195,0.195,0.195,0.512,0,0.707C10.559,7.219,10.431,7.268,10.303,7.268z"/>
		</g>
		<g>
			<path d="M18.171,22.207c-0.128,0-0.256-0.049-0.354-0.146l-4.475-4.475c-0.195-0.195-0.195-0.512,0-0.707s0.512-0.195,0.707,0
				l4.475,4.475c0.195,0.195,0.195,0.512,0,0.707C18.427,22.158,18.299,22.207,18.171,22.207z"/>
		</g>
		<g>
			<path d="M21.707,18.671c-0.128,0-0.256-0.049-0.354-0.146l-4.475-4.474c-0.195-0.195-0.195-0.512,0-0.707s0.512-0.195,0.707,0
				l4.475,4.474c0.195,0.195,0.195,0.512,0,0.707C21.963,18.622,21.835,18.671,21.707,18.671z"/>
		</g>
		<g>
			<path d="M2.293,18.671c-0.128,0-0.256-0.049-0.354-0.146c-0.195-0.195-0.195-0.512,0-0.707l4.475-4.474
				c0.195-0.195,0.512-0.195,0.707,0s0.195,0.512,0,0.707l-4.475,4.474C2.549,18.622,2.421,18.671,2.293,18.671z"/>
		</g>
		<g>
			<path d="M5.829,22.207c-0.128,0-0.256-0.049-0.354-0.146c-0.195-0.195-0.195-0.512,0-0.707l4.474-4.475
				c0.195-0.195,0.512-0.195,0.707,0s0.195,0.512,0,0.707l-4.474,4.475C6.085,22.158,5.957,22.207,5.829,22.207z"/>
		</g>
		<g>
			<path d="M13.697,7.268c-0.128,0-0.256-0.049-0.354-0.146c-0.195-0.195-0.195-0.512,0-0.707l4.474-4.475
				c0.195-0.195,0.512-0.195,0.707,0s0.195,0.512,0,0.707l-4.474,4.475C13.953,7.219,13.825,7.268,13.697,7.268z"/>
		</g>
		<g>
			<path d="M17.232,10.803c-0.128,0-0.256-0.049-0.354-0.146c-0.195-0.195-0.195-0.512,0-0.707l4.475-4.474
				c0.195-0.195,0.512-0.195,0.707,0s0.195,0.512,0,0.707l-4.475,4.474C17.488,10.754,17.36,10.803,17.232,10.803z"/>
		</g>
	</g>
</g>
<g id="Glasses">
</g>
<g id="Parabolic_Antenna">
</g>
<g id="Loudspeaker">
</g>
<g id="Play">
</g>
<g id="Pause">
</g>
<g id="Signpost">
</g>
<g id="Bluetooth">
</g>
<g id="Present">
</g>
<g id="Ruler">
</g>
<g id="Connection">
</g>
<g id="Money">
</g>
<g id="Paper_Plane">
</g>
<g id="Wallet_2">
</g>
</svg>
