<?xml version="1.0" encoding="iso-8859-1"?>
<!-- Generator: Adobe Illustrator 19.2.1, SVG Export Plug-In . SVG Version: 6.00 Build 0)  -->
<svg version="1.1" xmlns="http://www.w3.org/2000/svg" xmlns:xlink="http://www.w3.org/1999/xlink" x="0px" y="0px"
	 viewBox="0 0 24 24" style="enable-background:new 0 0 24 24;" xml:space="preserve">
<g id="Mail">
</g>
<g id="Open_Mail">
</g>
<g id="Mail_Attachmet">
</g>
<g id="Mails">
</g>
<g id="Trash">
</g>
<g id="Trash_Full">
</g>
<g id="Preferences_1">
</g>
<g id="Preferences_2">
</g>
<g id="Mouse">
</g>
<g id="Computer">
</g>
<g id="Notebook">
</g>
<g id="Mobile_Phone">
</g>
<g id="Print">
</g>
<g id="Calculator">
</g>
<g id="Tag">
</g>
<g id="Paperclip">
</g>
<g id="Heart">
</g>
<g id="Lock">
</g>
<g id="Lock_Open">
</g>
<g id="Key_1">
</g>
<g id="Star">
</g>
<g id="Add">
</g>
<g id="Remove">
</g>
<g id="Error">
</g>
<g id="Check_1">
</g>
<g id="Time">
</g>
<g id="Question_Mark">
</g>
<g id="Error_Mark">
</g>
<g id="Sand-Glass">
</g>
<g id="Battery_Full">
</g>
<g id="Battery_Charge">
</g>
<g id="Battery_Half">
</g>
<g id="Battery_Low">
</g>
<g id="No_Battery">
</g>
<g id="Key_2">
</g>
<g id="Link">
	<g>
		<g>
			<path d="M16.853,11.991c-1.202,0-2.332-0.468-3.183-1.318l-0.343-0.343c-1.754-1.754-1.754-4.609,0-6.364l2.646-2.646
				c0.85-0.85,1.979-1.318,3.182-1.318s2.332,0.468,3.183,1.318l0,0l0.343,0.343c1.754,1.754,1.754,4.609,0,6.364l-2.646,2.646
				C19.185,11.523,18.055,11.991,16.853,11.991z M19.155,1.001c-0.935,0-1.813,0.364-2.475,1.025l-2.646,2.646
				c-1.364,1.365-1.364,3.585,0,4.95l0.343,0.343c1.322,1.322,3.628,1.323,4.95,0l2.646-2.646c1.364-1.365,1.364-3.585,0-4.95
				l-0.343-0.343C20.97,1.365,20.091,1.001,19.155,1.001z"/>
		</g>
		<g>
			<path d="M4.845,23.999c-1.202,0-2.332-0.468-3.183-1.318l-0.343-0.343c-1.754-1.754-1.754-4.609,0-6.364l2.646-2.646
				c0.85-0.85,1.979-1.318,3.182-1.318s2.332,0.468,3.183,1.318l0,0l0.343,0.343c1.754,1.754,1.754,4.609,0,6.364l-2.646,2.646
				C7.177,23.531,6.047,23.999,4.845,23.999z M7.147,13.009c-0.935,0-1.813,0.364-2.475,1.025l-2.646,2.646
				c-1.364,1.365-1.364,3.585,0,4.95l0.343,0.343c1.322,1.322,3.628,1.323,4.95,0l2.646-2.646c1.364-1.365,1.364-3.585,0-4.95
				l-0.343-0.343C8.962,13.373,8.083,13.009,7.147,13.009z"/>
		</g>
		<g>
			<path d="M7.511,16.989c-0.127,0-0.255-0.048-0.352-0.145c-0.196-0.194-0.198-0.511-0.004-0.707l8.917-9
				c0.193-0.196,0.513-0.198,0.707-0.003c0.196,0.194,0.198,0.511,0.004,0.707l-8.917,9C7.769,16.939,7.64,16.989,7.511,16.989z"/>
		</g>
	</g>
</g>
<g id="Brake_Link">
</g>
<g id="Pencil">
</g>
<g id="At">
</g>
<g id="Reply">
</g>
<g id="Accessible">
</g>
<g id="Up_Arrow">
</g>
<g id="Brush">
</g>
<g id="Design_Mug">
</g>
<g id="Design">
</g>
<g id="Server">
</g>
<g id="Database">
</g>
<g id="Save">
</g>
<g id="Female">
</g>
<g id="Male">
</g>
<g id="Book">
</g>
<g id="Power">
</g>
<g id="Reload">
</g>
<g id="Map">
</g>
<g id="Loction_1">
</g>
<g id="Location_2">
</g>
<g id="Globe">
</g>
<g id="Suitcase">
</g>
<g id="Callendar">
</g>
<g id="Cloud_Off">
</g>
<g id="File_1">
</g>
<g id="File_2">
</g>
<g id="Folder">
</g>
<g id="Open_Folder">
</g>
<g id="Cloud">
</g>
<g id="Upload_Cloud">
</g>
<g id="Download_Cloud">
</g>
<g id="Eye">
</g>
<g id="Invisible">
</g>
<g id="Assignment">
</g>
<g id="Note_Book">
</g>
<g id="Webpage">
</g>
<g id="Mailbox">
</g>
<g id="Drive">
</g>
<g id="Disc">
</g>
<g id="Wifi_1">
</g>
<g id="Wifi_2">
</g>
<g id="Archive">
</g>
<g id="Archive_File">
</g>
<g id="News">
</g>
<g id="Home">
</g>
<g id="Collaboration">
</g>
<g id="Announcement">
</g>
<g id="Watch">
</g>
<g id="Clock">
</g>
<g id="Volume">
</g>
<g id="Mute">
</g>
<g id="Hand">
</g>
<g id="Layers">
</g>
<g id="Bell">
</g>
<g id="Speach_Bubble">
</g>
<g id="Speach_Bubbles">
</g>
<g id="Zoom_In">
</g>
<g id="Zoom_Out">
</g>
<g id="Search">
</g>
<g id="Back_Arrow">
</g>
<g id="Close">
</g>
<g id="Check_2">
</g>
<g id="Left_Arrow_2">
</g>
<g id="Right_Arrow_2">
</g>
</svg>
