<?xml version="1.0" encoding="iso-8859-1"?>
<!-- Generator: Adobe Illustrator 19.2.1, SVG Export Plug-In . SVG Version: 6.00 Build 0)  -->
<svg version="1.1" xmlns="http://www.w3.org/2000/svg" xmlns:xlink="http://www.w3.org/1999/xlink" x="0px" y="0px"
	 viewBox="0 0 24 24" style="enable-background:new 0 0 24 24;" xml:space="preserve">
<g id="Credit_Card">
</g>
<g id="Banknote">
</g>
<g id="Wallet">
</g>
<g id="Compass">
</g>
<g id="Camera_1">
</g>
<g id="Photo">
</g>
<g id="Picture">
</g>
<g id="Camera_2">
</g>
<g id="No_Camera">
</g>
<g id="Video">
</g>
<g id="Audio">
</g>
<g id="Microphone_1">
</g>
<g id="Microphone_2">
</g>
<g id="No_Microphone">
</g>
<g id="Shopping_Cart">
</g>
<g id="Add_Shopping_Cart">
</g>
<g id="Remove_Shopping_Cart">
</g>
<g id="Shopping_Basket">
</g>
<g id="Jing-Jang">
</g>
<g id="Leaf">
</g>
<g id="Glass">
</g>
<g id="Cup">
</g>
<g id="Mug">
</g>
<g id="Refresh">
</g>
<g id="Login">
</g>
<g id="Logout">
</g>
<g id="Flowchart">
</g>
<g id="Pin_1">
</g>
<g id="Pin_2">
</g>
<g id="User_1">
</g>
<g id="User_2">
</g>
<g id="Users">
</g>
<g id="Adjustments">
</g>
<g id="Type">
</g>
<g id="Format_Size">
</g>
<g id="Menu_1">
</g>
<g id="Other">
</g>
<g id="Flash">
</g>
<g id="No_Flash">
</g>
<g id="Switch_Button_1">
</g>
<g id="Switch_Button_2">
</g>
<g id="Cut">
</g>
<g id="Crop">
</g>
<g id="Sun">
</g>
<g id="USB">
</g>
<g id="Pie_Chart_1">
</g>
<g id="Pie_Chart_2">
</g>
<g id="Line_Chart">
</g>
<g id="Bar_Chart">
</g>
<g id="Target">
</g>
<g id="Flashlight">
</g>
<g id="USB_Device">
</g>
<g id="Eject">
</g>
<g id="Lightbulb">
</g>
<g id="Information">
</g>
<g id="Deactivate_Protection">
</g>
<g id="Active_Protection">
</g>
<g id="Bug">
</g>
<g id="Protection">
</g>
<g id="Phone">
</g>
<g id="List">
	<g>
		<g>
			<path d="M23.5,6h-16C7.224,6,7,5.776,7,5.5S7.224,5,7.5,5h16C23.776,5,24,5.224,24,5.5S23.776,6,23.5,6z"/>
		</g>
		<g>
			<path d="M23.5,13h-16C7.224,13,7,12.776,7,12.5S7.224,12,7.5,12h16c0.276,0,0.5,0.224,0.5,0.5S23.776,13,23.5,13z"/>
		</g>
		<g>
			<path d="M23.5,20h-16C7.224,20,7,19.776,7,19.5S7.224,19,7.5,19h16c0.276,0,0.5,0.224,0.5,0.5S23.776,20,23.5,20z"/>
		</g>
		<g>
			<path d="M2.5,22C1.122,22,0,20.879,0,19.5S1.122,17,2.5,17S5,18.121,5,19.5S3.878,22,2.5,22z M2.5,18C1.673,18,1,18.673,1,19.5
				S1.673,21,2.5,21S4,20.327,4,19.5S3.327,18,2.5,18z"/>
		</g>
		<g>
			<path d="M2.5,15C1.122,15,0,13.879,0,12.5S1.122,10,2.5,10S5,11.121,5,12.5S3.878,15,2.5,15z M2.5,11C1.673,11,1,11.673,1,12.5
				S1.673,14,2.5,14S4,13.327,4,12.5S3.327,11,2.5,11z"/>
		</g>
		<g>
			<path d="M2.5,8C1.122,8,0,6.879,0,5.5S1.122,3,2.5,3S5,4.121,5,5.5S3.878,8,2.5,8z M2.5,4C1.673,4,1,4.673,1,5.5S1.673,7,2.5,7
				S4,6.327,4,5.5S3.327,4,2.5,4z"/>
		</g>
	</g>
</g>
<g id="Plugin_1">
</g>
<g id="Bookmarrk">
</g>
<g id="Handshake">
</g>
<g id="Minimize">
</g>
<g id="Maximize">
</g>
<g id="Diamond">
</g>
<g id="Stop">
</g>
<g id="Shuffle">
</g>
<g id="Undo">
</g>
<g id="Upgrade">
</g>
<g id="Coding">
</g>
<g id="Syncronizaion">
</g>
<g id="Radio">
</g>
<g id="Presentation">
</g>
<g id="Door">
</g>
<g id="Thumbs_Up">
</g>
<g id="Thumbs_Down">
</g>
<g id="Keyboard">
</g>
<g id="_x33_D_Cube">
</g>
<g id="Signal">
</g>
<g id="Dice">
</g>
<g id="Upload">
</g>
<g id="Download">
</g>
<g id="Plugin_2">
</g>
<g id="Shopping_Bag">
</g>
<g id="Lifebelt">
</g>
<g id="Glasses">
</g>
<g id="Parabolic_Antenna">
</g>
<g id="Loudspeaker">
</g>
<g id="Play">
</g>
<g id="Pause">
</g>
<g id="Signpost">
</g>
<g id="Bluetooth">
</g>
<g id="Present">
</g>
<g id="Ruler">
</g>
<g id="Connection">
</g>
<g id="Money">
</g>
<g id="Paper_Plane">
</g>
<g id="Wallet_2">
</g>
</svg>
