<?xml version="1.0" encoding="iso-8859-1"?>
<!-- Generator: Adobe Illustrator 19.2.1, SVG Export Plug-In . SVG Version: 6.00 Build 0)  -->
<svg version="1.1" xmlns="http://www.w3.org/2000/svg" xmlns:xlink="http://www.w3.org/1999/xlink" x="0px" y="0px"
	 viewBox="0 0 24 24" style="enable-background:new 0 0 24 24;" xml:space="preserve">
<g id="Credit_Card">
</g>
<g id="Banknote">
</g>
<g id="Wallet">
</g>
<g id="Compass">
</g>
<g id="Camera_1">
</g>
<g id="Photo">
</g>
<g id="Picture">
</g>
<g id="Camera_2">
</g>
<g id="No_Camera">
</g>
<g id="Video">
</g>
<g id="Audio">
</g>
<g id="Microphone_1">
</g>
<g id="Microphone_2">
</g>
<g id="No_Microphone">
</g>
<g id="Shopping_Cart">
</g>
<g id="Add_Shopping_Cart">
</g>
<g id="Remove_Shopping_Cart">
</g>
<g id="Shopping_Basket">
</g>
<g id="Jing-Jang">
</g>
<g id="Leaf">
</g>
<g id="Glass">
</g>
<g id="Cup">
</g>
<g id="Mug">
</g>
<g id="Refresh">
</g>
<g id="Login">
</g>
<g id="Logout">
</g>
<g id="Flowchart">
</g>
<g id="Pin_1">
</g>
<g id="Pin_2">
</g>
<g id="User_1">
</g>
<g id="User_2">
</g>
<g id="Users">
</g>
<g id="Adjustments">
</g>
<g id="Type">
</g>
<g id="Format_Size">
</g>
<g id="Menu_1">
</g>
<g id="Other">
</g>
<g id="Flash">
</g>
<g id="No_Flash">
</g>
<g id="Switch_Button_1">
</g>
<g id="Switch_Button_2">
</g>
<g id="Cut">
</g>
<g id="Crop">
</g>
<g id="Sun">
</g>
<g id="USB">
</g>
<g id="Pie_Chart_1">
</g>
<g id="Pie_Chart_2">
</g>
<g id="Line_Chart">
</g>
<g id="Bar_Chart">
</g>
<g id="Target">
</g>
<g id="Flashlight">
</g>
<g id="USB_Device">
</g>
<g id="Eject">
</g>
<g id="Lightbulb">
</g>
<g id="Information">
</g>
<g id="Deactivate_Protection">
</g>
<g id="Active_Protection">
</g>
<g id="Bug">
</g>
<g id="Protection">
</g>
<g id="Phone">
</g>
<g id="List">
</g>
<g id="Plugin_1">
</g>
<g id="Bookmarrk">
</g>
<g id="Handshake">
</g>
<g id="Minimize">
</g>
<g id="Maximize">
</g>
<g id="Diamond">
</g>
<g id="Stop">
</g>
<g id="Shuffle">
</g>
<g id="Undo">
</g>
<g id="Upgrade">
</g>
<g id="Coding">
</g>
<g id="Syncronizaion">
</g>
<g id="Radio">
</g>
<g id="Presentation">
</g>
<g id="Door">
</g>
<g id="Thumbs_Up">
</g>
<g id="Thumbs_Down">
</g>
<g id="Keyboard">
</g>
<g id="_x33_D_Cube">
</g>
<g id="Signal">
</g>
<g id="Dice">
</g>
<g id="Upload">
</g>
<g id="Download">
</g>
<g id="Plugin_2">
</g>
<g id="Shopping_Bag">
</g>
<g id="Lifebelt">
</g>
<g id="Glasses">
</g>
<g id="Parabolic_Antenna">
</g>
<g id="Loudspeaker">
	<g>
		<g>
			<path d="M23.5,24c-0.144,0-0.283-0.062-0.38-0.175C19.402,19.487,13.993,17,8.28,17H7.5C6.673,17,6,16.327,6,15.5v-7
				C6,7.673,6.673,7,7.5,7h0.78c5.713,0,11.122-2.487,14.84-6.825c0.137-0.159,0.358-0.218,0.554-0.144C23.87,0.104,24,0.291,24,0.5
				v23c0,0.209-0.13,0.396-0.326,0.469C23.617,23.99,23.559,24,23.5,24z M7.5,8C7.225,8,7,8.225,7,8.5v7C7,15.775,7.225,16,7.5,16
				h0.78c5.569,0,10.863,2.249,14.72,6.212V1.788C19.144,5.751,13.85,8,8.28,8H7.5z"/>
		</g>
		<g>
			<path d="M6.5,16h-4C1.121,16,0,14.879,0,13.5v-3C0,9.121,1.121,8,2.5,8h4C6.776,8,7,8.224,7,8.5v7C7,15.776,6.776,16,6.5,16z
				 M2.5,9C1.673,9,1,9.673,1,10.5v3C1,14.327,1.673,15,2.5,15H6V9H2.5z"/>
		</g>
		<g>
			<path d="M9.5,24H8.104c-1.181,0-2.185-0.806-2.44-1.958l-1.648-6.418c-0.068-0.268,0.093-0.54,0.36-0.608
				c0.266-0.07,0.54,0.092,0.608,0.36l1.652,6.434C6.794,22.517,7.396,23,8.104,23H9.5c0.264,0,0.393-0.178,0.436-0.254
				c0.042-0.075,0.126-0.271,0-0.492c-0.013-0.005-0.252-0.274-0.333-0.376c-0.253-0.315-0.488-0.669-0.702-1.05
				c-0.667-1.193-0.847-2.603-0.506-3.97l0.12-0.479c0.067-0.269,0.342-0.43,0.606-0.364c0.269,0.067,0.431,0.339,0.364,0.606
				l-0.12,0.479C9.086,18.22,9.23,19.37,9.773,20.34c0.187,0.334,0.392,0.641,0.609,0.913c0.082,0.103,0.347,0.398,0.348,0.399
				c0.338,0.545,0.345,1.11,0.075,1.587S10.048,24,9.5,24z"/>
		</g>
		<g>
			<path d="M2.5,13C2.224,13,2,12.776,2,12.5v-1C2,11.224,2.224,11,2.5,11S3,11.224,3,11.5v1C3,12.776,2.776,13,2.5,13z"/>
		</g>
		<g>
			<path d="M4.5,13C4.224,13,4,12.776,4,12.5v-1C4,11.224,4.224,11,4.5,11S5,11.224,5,11.5v1C5,12.776,4.776,13,4.5,13z"/>
		</g>
	</g>
</g>
<g id="Play">
</g>
<g id="Pause">
</g>
<g id="Signpost">
</g>
<g id="Bluetooth">
</g>
<g id="Present">
</g>
<g id="Ruler">
</g>
<g id="Connection">
</g>
<g id="Money">
</g>
<g id="Paper_Plane">
</g>
<g id="Wallet_2">
</g>
</svg>
