<?xml version="1.0" encoding="iso-8859-1"?>
<!-- Generator: Adobe Illustrator 19.2.1, SVG Export Plug-In . SVG Version: 6.00 Build 0)  -->
<svg version="1.1" xmlns="http://www.w3.org/2000/svg" xmlns:xlink="http://www.w3.org/1999/xlink" x="0px" y="0px"
	 viewBox="0 0 24 24" style="enable-background:new 0 0 24 24;" xml:space="preserve">
<g id="Flag">
</g>
<g id="Umbrella">
</g>
<g id="Briefcase">
</g>
<g id="Box">
</g>
<g id="Magnet">
	<g>
		<g>
			<path d="M12,24C5.383,24,0,18.617,0,12V1.5C0,0.673,0.673,0,1.5,0h5C7.327,0,8,0.673,8,1.5V12c0,2.206,1.794,4,4,4s4-1.794,4-4
				V1.5C16,0.673,16.673,0,17.5,0h5C23.327,0,24,0.673,24,1.5V12C24,18.617,18.617,24,12,24z M1.5,1C1.224,1,1,1.224,1,1.5V12
				c0,6.065,4.935,11,11,11s11-4.935,11-11V1.5C23,1.224,22.776,1,22.5,1h-5C17.224,1,17,1.224,17,1.5V12c0,2.757-2.243,5-5,5
				s-5-2.243-5-5V1.5C7,1.224,6.776,1,6.5,1H1.5z"/>
		</g>
		<g>
			<path d="M7.5,7h-7C0.224,7,0,6.776,0,6.5S0.224,6,0.5,6h7C7.776,6,8,6.224,8,6.5S7.776,7,7.5,7z"/>
		</g>
		<g>
			<path d="M23.5,7h-7C16.224,7,16,6.776,16,6.5S16.224,6,16.5,6h7C23.776,6,24,6.224,24,6.5S23.776,7,23.5,7z"/>
		</g>
	</g>
</g>
<g id="Percent">
</g>
<g id="Rocket">
</g>
<g id="Share">
</g>
<g id="Transmitter">
</g>
<g id="Record_2">
</g>
<g id="Record_1">
</g>
<g id="Anchor">
</g>
<g id="Airplane">
</g>
<g id="Car">
</g>
<g id="Newsfeed">
</g>
<g id="Wifi_Tethering">
</g>
<g id="No_Wifi_Tethering">
</g>
<g id="Bar_Chart_2">
</g>
<g id="Shop">
</g>
<g id="Alarm">
</g>
<g id="Sim_Card">
</g>
<g id="Radar">
</g>
<g id="Hand_2">
</g>
<g id="Palette">
</g>
<g id="Cake">
</g>
<g id="Blende">
</g>
<g id="Feather_Pen">
</g>
<g id="Ticket">
</g>
<g id="Medal">
</g>
<g id="Mouse_Pointer_1">
</g>
<g id="Mouse_Pointer_2">
</g>
<g id="Fingerprint">
</g>
<g id="Earth">
</g>
</svg>
