<?xml version="1.0" encoding="iso-8859-1"?>
<!-- Generator: Adobe Illustrator 19.2.1, SVG Export Plug-In . SVG Version: 6.00 Build 0)  -->
<svg version="1.1" xmlns="http://www.w3.org/2000/svg" xmlns:xlink="http://www.w3.org/1999/xlink" x="0px" y="0px"
	 viewBox="0 0 24 24" style="enable-background:new 0 0 24 24;" xml:space="preserve">
<g id="Mail">
</g>
<g id="Open_Mail">
</g>
<g id="Mail_Attachmet">
</g>
<g id="Mails">
	<g>
		<g>
			<path d="M18.5,20h-17C0.673,20,0,19.327,0,18.5v-10C0,7.673,0.673,7,1.5,7h17C19.327,7,20,7.673,20,8.5v10
				C20,19.327,19.327,20,18.5,20z M1.5,8C1.224,8,1,8.224,1,8.5v10C1,18.776,1.224,19,1.5,19h17c0.276,0,0.5-0.224,0.5-0.5v-10
				C19,8.224,18.776,8,18.5,8H1.5z"/>
		</g>
		<g>
			<path d="M22.5,16h-3c-0.276,0-0.5-0.224-0.5-0.5s0.224-0.5,0.5-0.5h3c0.276,0,0.5-0.224,0.5-0.5v-10C23,4.224,22.776,4,22.5,4
				h-17C5.224,4,5,4.224,5,4.5v3C5,7.776,4.776,8,4.5,8S4,7.776,4,7.5v-3C4,3.673,4.673,3,5.5,3h17C23.327,3,24,3.673,24,4.5v10
				C24,15.327,23.327,16,22.5,16z"/>
		</g>
		<g>
			<path d="M9.99,15c-0.482,0-0.96-0.141-1.377-0.419l-8.16-6.358c-0.218-0.17-0.257-0.484-0.087-0.702
				c0.169-0.219,0.483-0.256,0.702-0.087l8.13,6.336c0.476,0.315,1.128,0.316,1.634-0.021l8.101-6.315
				c0.217-0.169,0.531-0.131,0.702,0.087c0.169,0.218,0.131,0.532-0.087,0.702l-8.13,6.336C10.977,14.854,10.481,15,9.99,15z"/>
		</g>
		<g>
			<path d="M0.76,19.671c-0.163,0-0.322-0.08-0.418-0.226c-0.151-0.231-0.087-0.541,0.144-0.692l7.902-5.186
				c0.23-0.152,0.541-0.087,0.692,0.144c0.151,0.231,0.087,0.541-0.144,0.692l-7.902,5.186C0.949,19.645,0.854,19.671,0.76,19.671z"
				/>
		</g>
		<g>
			<path d="M19.244,19.666c-0.094,0-0.189-0.026-0.273-0.082l-7.906-5.18c-0.231-0.151-0.295-0.461-0.145-0.692
				c0.152-0.23,0.461-0.295,0.692-0.145l7.906,5.18c0.231,0.151,0.295,0.461,0.145,0.692C19.567,19.586,19.407,19.666,19.244,19.666
				z"/>
		</g>
	</g>
</g>
<g id="Trash">
</g>
<g id="Trash_Full">
</g>
<g id="Preferences_1">
</g>
<g id="Preferences_2">
</g>
<g id="Mouse">
</g>
<g id="Computer">
</g>
<g id="Notebook">
</g>
<g id="Mobile_Phone">
</g>
<g id="Print">
</g>
<g id="Calculator">
</g>
<g id="Tag">
</g>
<g id="Paperclip">
</g>
<g id="Heart">
</g>
<g id="Lock">
</g>
<g id="Lock_Open">
</g>
<g id="Key_1">
</g>
<g id="Star">
</g>
<g id="Add">
</g>
<g id="Remove">
</g>
<g id="Error">
</g>
<g id="Check_1">
</g>
<g id="Time">
</g>
<g id="Question_Mark">
</g>
<g id="Error_Mark">
</g>
<g id="Sand-Glass">
</g>
<g id="Battery_Full">
</g>
<g id="Battery_Charge">
</g>
<g id="Battery_Half">
</g>
<g id="Battery_Low">
</g>
<g id="No_Battery">
</g>
<g id="Key_2">
</g>
<g id="Link">
</g>
<g id="Brake_Link">
</g>
<g id="Pencil">
</g>
<g id="At">
</g>
<g id="Reply">
</g>
<g id="Accessible">
</g>
<g id="Up_Arrow">
</g>
<g id="Brush">
</g>
<g id="Design_Mug">
</g>
<g id="Design">
</g>
<g id="Server">
</g>
<g id="Database">
</g>
<g id="Save">
</g>
<g id="Female">
</g>
<g id="Male">
</g>
<g id="Book">
</g>
<g id="Power">
</g>
<g id="Reload">
</g>
<g id="Map">
</g>
<g id="Loction_1">
</g>
<g id="Location_2">
</g>
<g id="Globe">
</g>
<g id="Suitcase">
</g>
<g id="Callendar">
</g>
<g id="Cloud_Off">
</g>
<g id="File_1">
</g>
<g id="File_2">
</g>
<g id="Folder">
</g>
<g id="Open_Folder">
</g>
<g id="Cloud">
</g>
<g id="Upload_Cloud">
</g>
<g id="Download_Cloud">
</g>
<g id="Eye">
</g>
<g id="Invisible">
</g>
<g id="Assignment">
</g>
<g id="Note_Book">
</g>
<g id="Webpage">
</g>
<g id="Mailbox">
</g>
<g id="Drive">
</g>
<g id="Disc">
</g>
<g id="Wifi_1">
</g>
<g id="Wifi_2">
</g>
<g id="Archive">
</g>
<g id="Archive_File">
</g>
<g id="News">
</g>
<g id="Home">
</g>
<g id="Collaboration">
</g>
<g id="Announcement">
</g>
<g id="Watch">
</g>
<g id="Clock">
</g>
<g id="Volume">
</g>
<g id="Mute">
</g>
<g id="Hand">
</g>
<g id="Layers">
</g>
<g id="Bell">
</g>
<g id="Speach_Bubble">
</g>
<g id="Speach_Bubbles">
</g>
<g id="Zoom_In">
</g>
<g id="Zoom_Out">
</g>
<g id="Search">
</g>
<g id="Back_Arrow">
</g>
<g id="Close">
</g>
<g id="Check_2">
</g>
<g id="Left_Arrow_2">
</g>
<g id="Right_Arrow_2">
</g>
</svg>
