<?xml version="1.0" encoding="iso-8859-1"?>
<!-- Generator: Adobe Illustrator 19.2.1, SVG Export Plug-In . SVG Version: 6.00 Build 0)  -->
<svg version="1.1" xmlns="http://www.w3.org/2000/svg" xmlns:xlink="http://www.w3.org/1999/xlink" x="0px" y="0px"
	 viewBox="0 0 24 24" style="enable-background:new 0 0 24 24;" xml:space="preserve">
<g id="Mail">
	<g>
		<g>
			<path d="M22.5,20h-21C0.673,20,0,19.327,0,18.5v-13C0,4.673,0.673,4,1.5,4h21C23.327,4,24,4.673,24,5.5v13
				C24,19.327,23.327,20,22.5,20z M1.5,5C1.224,5,1,5.224,1,5.5v13C1,18.776,1.224,19,1.5,19h21c0.276,0,0.5-0.224,0.5-0.5v-13
				C23,5.224,22.776,5,22.5,5H1.5z"/>
		</g>
		<g>
			<path d="M12,13.002c-0.516,0-1.031-0.16-1.471-0.48L0.461,5.242C0.238,5.08,0.188,4.767,0.349,4.543
				C0.51,4.319,0.823,4.269,1.047,4.431l10.069,7.281c0.529,0.385,1.238,0.384,1.766,0.001l10.073-7.282
				c0.222-0.162,0.536-0.112,0.698,0.112c0.162,0.224,0.111,0.537-0.112,0.698l-10.072,7.281C13.03,12.842,12.515,13.002,12,13.002z
				"/>
		</g>
		<g>
			<path d="M0.769,19.681c-0.155,0-0.307-0.071-0.405-0.206c-0.162-0.224-0.112-0.536,0.111-0.699l9.893-7.181
				c0.225-0.163,0.536-0.112,0.699,0.111c0.162,0.224,0.112,0.536-0.111,0.699l-9.893,7.181C0.973,19.65,0.87,19.681,0.769,19.681z"
				/>
		</g>
		<g>
			<path d="M23.23,19.681c-0.102,0-0.205-0.031-0.293-0.095l-9.892-7.181c-0.223-0.163-0.273-0.475-0.111-0.699
				c0.162-0.224,0.473-0.274,0.699-0.111l9.892,7.181c0.223,0.163,0.273,0.475,0.111,0.699C23.538,19.61,23.385,19.681,23.23,19.681
				z"/>
		</g>
	</g>
</g>
<g id="Open_Mail">
</g>
<g id="Mail_Attachmet">
</g>
<g id="Mails">
</g>
<g id="Trash">
</g>
<g id="Trash_Full">
</g>
<g id="Preferences_1">
</g>
<g id="Preferences_2">
</g>
<g id="Mouse">
</g>
<g id="Computer">
</g>
<g id="Notebook">
</g>
<g id="Mobile_Phone">
</g>
<g id="Print">
</g>
<g id="Calculator">
</g>
<g id="Tag">
</g>
<g id="Paperclip">
</g>
<g id="Heart">
</g>
<g id="Lock">
</g>
<g id="Lock_Open">
</g>
<g id="Key_1">
</g>
<g id="Star">
</g>
<g id="Add">
</g>
<g id="Remove">
</g>
<g id="Error">
</g>
<g id="Check_1">
</g>
<g id="Time">
</g>
<g id="Question_Mark">
</g>
<g id="Error_Mark">
</g>
<g id="Sand-Glass">
</g>
<g id="Battery_Full">
</g>
<g id="Battery_Charge">
</g>
<g id="Battery_Half">
</g>
<g id="Battery_Low">
</g>
<g id="No_Battery">
</g>
<g id="Key_2">
</g>
<g id="Link">
</g>
<g id="Brake_Link">
</g>
<g id="Pencil">
</g>
<g id="At">
</g>
<g id="Reply">
</g>
<g id="Accessible">
</g>
<g id="Up_Arrow">
</g>
<g id="Brush">
</g>
<g id="Design_Mug">
</g>
<g id="Design">
</g>
<g id="Server">
</g>
<g id="Database">
</g>
<g id="Save">
</g>
<g id="Female">
</g>
<g id="Male">
</g>
<g id="Book">
</g>
<g id="Power">
</g>
<g id="Reload">
</g>
<g id="Map">
</g>
<g id="Loction_1">
</g>
<g id="Location_2">
</g>
<g id="Globe">
</g>
<g id="Suitcase">
</g>
<g id="Callendar">
</g>
<g id="Cloud_Off">
</g>
<g id="File_1">
</g>
<g id="File_2">
</g>
<g id="Folder">
</g>
<g id="Open_Folder">
</g>
<g id="Cloud">
</g>
<g id="Upload_Cloud">
</g>
<g id="Download_Cloud">
</g>
<g id="Eye">
</g>
<g id="Invisible">
</g>
<g id="Assignment">
</g>
<g id="Note_Book">
</g>
<g id="Webpage">
</g>
<g id="Mailbox">
</g>
<g id="Drive">
</g>
<g id="Disc">
</g>
<g id="Wifi_1">
</g>
<g id="Wifi_2">
</g>
<g id="Archive">
</g>
<g id="Archive_File">
</g>
<g id="News">
</g>
<g id="Home">
</g>
<g id="Collaboration">
</g>
<g id="Announcement">
</g>
<g id="Watch">
</g>
<g id="Clock">
</g>
<g id="Volume">
</g>
<g id="Mute">
</g>
<g id="Hand">
</g>
<g id="Layers">
</g>
<g id="Bell">
</g>
<g id="Speach_Bubble">
</g>
<g id="Speach_Bubbles">
</g>
<g id="Zoom_In">
</g>
<g id="Zoom_Out">
</g>
<g id="Search">
</g>
<g id="Back_Arrow">
</g>
<g id="Close">
</g>
<g id="Check_2">
</g>
<g id="Left_Arrow_2">
</g>
<g id="Right_Arrow_2">
</g>
</svg>
