<?xml version="1.0" encoding="iso-8859-1"?>
<!-- Generator: Adobe Illustrator 19.2.1, SVG Export Plug-In . SVG Version: 6.00 Build 0)  -->
<svg version="1.1" xmlns="http://www.w3.org/2000/svg" xmlns:xlink="http://www.w3.org/1999/xlink" x="0px" y="0px"
	 viewBox="0 0 24 24" style="enable-background:new 0 0 24 24;" xml:space="preserve">
<g id="Mail">
</g>
<g id="Open_Mail">
</g>
<g id="Mail_Attachmet">
	<g>
		<g>
			<path d="M23.236,23.675c-0.102,0-0.204-0.031-0.293-0.095l-10.061-7.292c-0.529-0.384-1.238-0.384-1.765,0L1.058,23.58
				c-0.225,0.162-0.536,0.112-0.698-0.111c-0.162-0.224-0.112-0.536,0.111-0.698l10.06-7.292c0.879-0.639,2.06-0.639,2.94,0
				l10.06,7.292c0.224,0.162,0.273,0.475,0.111,0.698C23.544,23.603,23.391,23.675,23.236,23.675z"/>
		</g>
		<g>
			<path d="M13.339,16.5c-0.155,0-0.308-0.072-0.406-0.207c-0.162-0.224-0.112-0.536,0.112-0.698l10.116-7.322
				c0.223-0.162,0.536-0.111,0.698,0.112c0.162,0.224,0.112,0.536-0.112,0.698l-10.116,7.322C13.543,16.469,13.441,16.5,13.339,16.5
				z"/>
		</g>
		<g>
			<path d="M10.661,16.5c-0.102,0-0.204-0.031-0.292-0.095L0.252,9.083C0.028,8.921-0.021,8.608,0.141,8.385
				C0.302,8.16,0.614,8.109,0.838,8.273l10.116,7.322c0.224,0.162,0.274,0.474,0.112,0.698C10.968,16.428,10.815,16.5,10.661,16.5z"
				/>
		</g>
		<g>
			<path d="M22.5,24h-21C0.673,24,0,23.327,0,22.5V8.968c0-0.446,0.197-0.867,0.54-1.152l1.64-1.367
				c0.213-0.176,0.528-0.148,0.705,0.064C3.061,6.726,3.032,7.041,2.82,7.218L1.18,8.584C1.065,8.68,1,8.819,1,8.968V22.5
				C1,22.776,1.224,23,1.5,23h21c0.276,0,0.5-0.224,0.5-0.5V8.968c0-0.149-0.065-0.289-0.18-0.384L21.18,7.218
				c-0.212-0.177-0.241-0.492-0.064-0.705c0.177-0.212,0.492-0.24,0.705-0.064l1.64,1.367C23.803,8.102,24,8.522,24,8.968V22.5
				C24,23.327,23.327,24,22.5,24z"/>
		</g>
		<g>
			<path d="M21.5,10.593c-0.276,0-0.5-0.224-0.5-0.5V1H3v9.087c0,0.276-0.224,0.5-0.5,0.5S2,10.364,2,10.087V0.5
				C2,0.224,2.224,0,2.5,0h19C21.776,0,22,0.224,22,0.5v9.593C22,10.37,21.776,10.593,21.5,10.593z"/>
		</g>
		<g>
			<path d="M16.5,10h-8C6.57,10,5,8.43,5,6.5S6.57,3,8.5,3h6C14.776,3,15,3.224,15,3.5S14.776,4,14.5,4h-6C7.122,4,6,5.122,6,6.5
				S7.122,9,8.5,9h8C17.327,9,18,8.327,18,7.5S17.327,6,16.5,6h-7C9.224,6,9,6.224,9,6.5S9.224,7,9.5,7h5C14.776,7,15,7.224,15,7.5
				S14.776,8,14.5,8h-5C8.673,8,8,7.327,8,6.5S8.673,5,9.5,5h7C17.878,5,19,6.122,19,7.5S17.878,10,16.5,10z"/>
		</g>
	</g>
</g>
<g id="Mails">
</g>
<g id="Trash">
</g>
<g id="Trash_Full">
</g>
<g id="Preferences_1">
</g>
<g id="Preferences_2">
</g>
<g id="Mouse">
</g>
<g id="Computer">
</g>
<g id="Notebook">
</g>
<g id="Mobile_Phone">
</g>
<g id="Print">
</g>
<g id="Calculator">
</g>
<g id="Tag">
</g>
<g id="Paperclip">
</g>
<g id="Heart">
</g>
<g id="Lock">
</g>
<g id="Lock_Open">
</g>
<g id="Key_1">
</g>
<g id="Star">
</g>
<g id="Add">
</g>
<g id="Remove">
</g>
<g id="Error">
</g>
<g id="Check_1">
</g>
<g id="Time">
</g>
<g id="Question_Mark">
</g>
<g id="Error_Mark">
</g>
<g id="Sand-Glass">
</g>
<g id="Battery_Full">
</g>
<g id="Battery_Charge">
</g>
<g id="Battery_Half">
</g>
<g id="Battery_Low">
</g>
<g id="No_Battery">
</g>
<g id="Key_2">
</g>
<g id="Link">
</g>
<g id="Brake_Link">
</g>
<g id="Pencil">
</g>
<g id="At">
</g>
<g id="Reply">
</g>
<g id="Accessible">
</g>
<g id="Up_Arrow">
</g>
<g id="Brush">
</g>
<g id="Design_Mug">
</g>
<g id="Design">
</g>
<g id="Server">
</g>
<g id="Database">
</g>
<g id="Save">
</g>
<g id="Female">
</g>
<g id="Male">
</g>
<g id="Book">
</g>
<g id="Power">
</g>
<g id="Reload">
</g>
<g id="Map">
</g>
<g id="Loction_1">
</g>
<g id="Location_2">
</g>
<g id="Globe">
</g>
<g id="Suitcase">
</g>
<g id="Callendar">
</g>
<g id="Cloud_Off">
</g>
<g id="File_1">
</g>
<g id="File_2">
</g>
<g id="Folder">
</g>
<g id="Open_Folder">
</g>
<g id="Cloud">
</g>
<g id="Upload_Cloud">
</g>
<g id="Download_Cloud">
</g>
<g id="Eye">
</g>
<g id="Invisible">
</g>
<g id="Assignment">
</g>
<g id="Note_Book">
</g>
<g id="Webpage">
</g>
<g id="Mailbox">
</g>
<g id="Drive">
</g>
<g id="Disc">
</g>
<g id="Wifi_1">
</g>
<g id="Wifi_2">
</g>
<g id="Archive">
</g>
<g id="Archive_File">
</g>
<g id="News">
</g>
<g id="Home">
</g>
<g id="Collaboration">
</g>
<g id="Announcement">
</g>
<g id="Watch">
</g>
<g id="Clock">
</g>
<g id="Volume">
</g>
<g id="Mute">
</g>
<g id="Hand">
</g>
<g id="Layers">
</g>
<g id="Bell">
</g>
<g id="Speach_Bubble">
</g>
<g id="Speach_Bubbles">
</g>
<g id="Zoom_In">
</g>
<g id="Zoom_Out">
</g>
<g id="Search">
</g>
<g id="Back_Arrow">
</g>
<g id="Close">
</g>
<g id="Check_2">
</g>
<g id="Left_Arrow_2">
</g>
<g id="Right_Arrow_2">
</g>
</svg>
