<?xml version="1.0" encoding="iso-8859-1"?>
<!-- Generator: Adobe Illustrator 19.2.1, SVG Export Plug-In . SVG Version: 6.00 Build 0)  -->
<svg version="1.1" xmlns="http://www.w3.org/2000/svg" xmlns:xlink="http://www.w3.org/1999/xlink" x="0px" y="0px"
	 viewBox="0 0 24 24" style="enable-background:new 0 0 24 24;" xml:space="preserve">
<g id="Flag">
</g>
<g id="Umbrella">
</g>
<g id="Briefcase">
</g>
<g id="Box">
</g>
<g id="Magnet">
</g>
<g id="Percent">
</g>
<g id="Rocket">
</g>
<g id="Share">
</g>
<g id="Transmitter">
</g>
<g id="Record_2">
</g>
<g id="Record_1">
</g>
<g id="Anchor">
</g>
<g id="Airplane">
</g>
<g id="Car">
</g>
<g id="Newsfeed">
</g>
<g id="Wifi_Tethering">
</g>
<g id="No_Wifi_Tethering">
</g>
<g id="Bar_Chart_2">
</g>
<g id="Shop">
</g>
<g id="Alarm">
</g>
<g id="Sim_Card">
</g>
<g id="Radar">
</g>
<g id="Hand_2">
</g>
<g id="Palette">
</g>
<g id="Cake">
</g>
<g id="Blende">
</g>
<g id="Feather_Pen">
</g>
<g id="Ticket">
</g>
<g id="Medal">
	<g>
		<g>
			<g>
				<g>
					<path d="M16.772,24c-0.075,0-0.149-0.017-0.22-0.051L12,21.724l-4.553,2.226c-0.17,0.084-0.375,0.063-0.525-0.054
						c-0.151-0.117-0.223-0.309-0.185-0.496l0.968-4.732L4.15,15.19c-0.137-0.134-0.186-0.334-0.125-0.516
						c0.062-0.182,0.221-0.313,0.41-0.338l4.856-0.629l2.263-4.436c0.17-0.334,0.721-0.334,0.891,0l2.263,4.436l4.856,0.629
						c0.189,0.024,0.349,0.156,0.41,0.338c0.061,0.182,0.012,0.382-0.125,0.516l-3.555,3.477l0.968,4.732
						c0.038,0.188-0.033,0.379-0.185,0.496C16.989,23.965,16.881,24,16.772,24z M12,20.667c0.075,0,0.15,0.017,0.22,0.051
						l3.859,1.887l-0.819-4.004c-0.033-0.167,0.02-0.339,0.141-0.458l3.013-2.946l-4.095-0.53c-0.163-0.021-0.306-0.122-0.381-0.269
						L12,10.601l-1.938,3.797c-0.075,0.146-0.218,0.247-0.381,0.269l-4.095,0.53L8.6,18.143c0.121,0.119,0.174,0.291,0.141,0.458
						l-0.819,4.004l3.859-1.887C11.85,20.684,11.925,20.667,12,20.667z"/>
				</g>
			</g>
		</g>
		<g>
			<path d="M16.029,14.884c-0.04,0-0.08-0.005-0.121-0.015c-0.268-0.067-0.431-0.339-0.364-0.606l3.16-12.642
				c0.038-0.15,0.005-0.307-0.091-0.429S18.374,1,18.219,1H5.781C5.626,1,5.482,1.07,5.387,1.192S5.258,1.471,5.296,1.621
				l3.16,12.642c0.066,0.268-0.097,0.539-0.364,0.606c-0.273,0.062-0.54-0.097-0.606-0.364L4.325,1.863
				C4.213,1.412,4.313,0.942,4.599,0.576S5.316,0,5.781,0h12.438c0.465,0,0.896,0.21,1.183,0.576s0.386,0.836,0.273,1.287
				l-3.16,12.642C16.458,14.732,16.254,14.884,16.029,14.884z"/>
		</g>
		<g>
			<path d="M10.499,12.94c-0.248,0-0.463-0.185-0.495-0.438l-1.5-11.94C8.47,0.288,8.664,0.038,8.938,0.004
				c0.267-0.04,0.523,0.159,0.559,0.434l1.5,11.94c0.034,0.274-0.16,0.524-0.434,0.559C10.541,12.939,10.521,12.94,10.499,12.94z"/>
		</g>
		<g>
			<path d="M13.507,12.952c-0.021,0-0.042-0.001-0.063-0.004c-0.273-0.034-0.468-0.284-0.434-0.559l1.494-11.952
				c0.034-0.274,0.287-0.474,0.559-0.434c0.273,0.034,0.468,0.284,0.434,0.559l-1.494,11.952
				C13.971,12.768,13.755,12.952,13.507,12.952z"/>
		</g>
	</g>
</g>
<g id="Mouse_Pointer_1">
</g>
<g id="Mouse_Pointer_2">
</g>
<g id="Fingerprint">
</g>
<g id="Earth">
</g>
</svg>
