<?xml version="1.0" encoding="iso-8859-1"?>
<!-- Generator: Adobe Illustrator 19.2.1, SVG Export Plug-In . SVG Version: 6.00 Build 0)  -->
<svg version="1.1" xmlns="http://www.w3.org/2000/svg" xmlns:xlink="http://www.w3.org/1999/xlink" x="0px" y="0px"
	 viewBox="0 0 24 24" style="enable-background:new 0 0 24 24;" xml:space="preserve">
<g id="Credit_Card">
</g>
<g id="Banknote">
</g>
<g id="Wallet">
</g>
<g id="Compass">
</g>
<g id="Camera_1">
</g>
<g id="Photo">
</g>
<g id="Picture">
</g>
<g id="Camera_2">
</g>
<g id="No_Camera">
</g>
<g id="Video">
</g>
<g id="Audio">
</g>
<g id="Microphone_1">
	<g>
		<g>
			<path d="M6.5,13C2.916,13,0,10.084,0,6.5S2.916,0,6.5,0S13,2.916,13,6.5S10.084,13,6.5,13z M6.5,1C3.467,1,1,3.467,1,6.5
				S3.467,12,6.5,12S12,9.533,12,6.5S9.533,1,6.5,1z"/>
		</g>
		<g>
			<path d="M4.5,11c-1.199,0-2.371-0.329-3.388-0.952c-0.235-0.144-0.31-0.452-0.165-0.688c0.145-0.235,0.452-0.31,0.688-0.165
				C2.494,9.722,3.485,10,4.5,10C7.533,10,10,7.533,10,4.5c0-1.012-0.277-2.002-0.802-2.863C9.054,1.401,9.128,1.094,9.364,0.95
				C9.6,0.807,9.908,0.88,10.051,1.117C10.672,2.134,11,3.304,11,4.5C11,8.084,8.084,11,4.5,11z"/>
		</g>
		<g>
			<path d="M21.777,24.001c-0.334,0-0.669-0.112-0.947-0.338L8.173,12.732c-0.132-0.114-0.195-0.288-0.167-0.459
				c0.028-0.172,0.144-0.316,0.305-0.382c1.617-0.657,2.921-1.961,3.578-3.578c0.066-0.162,0.21-0.277,0.382-0.305
				c0.173-0.03,0.346,0.035,0.459,0.167l10.922,12.646c0.003,0.003,0.006,0.007,0.009,0.011c0.487,0.599,0.443,1.462-0.103,2.008
				l-0.723,0.723C22.546,23.853,22.163,24.001,21.777,24.001z M9.409,12.478l12.063,10.419c0.189,0.153,0.476,0.138,0.659-0.043
				l0.723-0.723c0.181-0.181,0.196-0.465,0.038-0.665L12.478,9.409C11.78,10.706,10.706,11.78,9.409,12.478z"/>
		</g>
		<g>
			<path d="M14.5,15c-0.128,0-0.256-0.049-0.354-0.146l-2-2c-0.195-0.195-0.195-0.512,0-0.707s0.512-0.195,0.707,0l2,2
				c0.195,0.195,0.195,0.512,0,0.707C14.756,14.951,14.628,15,14.5,15z"/>
		</g>
	</g>
</g>
<g id="Microphone_2">
</g>
<g id="No_Microphone">
</g>
<g id="Shopping_Cart">
</g>
<g id="Add_Shopping_Cart">
</g>
<g id="Remove_Shopping_Cart">
</g>
<g id="Shopping_Basket">
</g>
<g id="Jing-Jang">
</g>
<g id="Leaf">
</g>
<g id="Glass">
</g>
<g id="Cup">
</g>
<g id="Mug">
</g>
<g id="Refresh">
</g>
<g id="Login">
</g>
<g id="Logout">
</g>
<g id="Flowchart">
</g>
<g id="Pin_1">
</g>
<g id="Pin_2">
</g>
<g id="User_1">
</g>
<g id="User_2">
</g>
<g id="Users">
</g>
<g id="Adjustments">
</g>
<g id="Type">
</g>
<g id="Format_Size">
</g>
<g id="Menu_1">
</g>
<g id="Other">
</g>
<g id="Flash">
</g>
<g id="No_Flash">
</g>
<g id="Switch_Button_1">
</g>
<g id="Switch_Button_2">
</g>
<g id="Cut">
</g>
<g id="Crop">
</g>
<g id="Sun">
</g>
<g id="USB">
</g>
<g id="Pie_Chart_1">
</g>
<g id="Pie_Chart_2">
</g>
<g id="Line_Chart">
</g>
<g id="Bar_Chart">
</g>
<g id="Target">
</g>
<g id="Flashlight">
</g>
<g id="USB_Device">
</g>
<g id="Eject">
</g>
<g id="Lightbulb">
</g>
<g id="Information">
</g>
<g id="Deactivate_Protection">
</g>
<g id="Active_Protection">
</g>
<g id="Bug">
</g>
<g id="Protection">
</g>
<g id="Phone">
</g>
<g id="List">
</g>
<g id="Plugin_1">
</g>
<g id="Bookmarrk">
</g>
<g id="Handshake">
</g>
<g id="Minimize">
</g>
<g id="Maximize">
</g>
<g id="Diamond">
</g>
<g id="Stop">
</g>
<g id="Shuffle">
</g>
<g id="Undo">
</g>
<g id="Upgrade">
</g>
<g id="Coding">
</g>
<g id="Syncronizaion">
</g>
<g id="Radio">
</g>
<g id="Presentation">
</g>
<g id="Door">
</g>
<g id="Thumbs_Up">
</g>
<g id="Thumbs_Down">
</g>
<g id="Keyboard">
</g>
<g id="_x33_D_Cube">
</g>
<g id="Signal">
</g>
<g id="Dice">
</g>
<g id="Upload">
</g>
<g id="Download">
</g>
<g id="Plugin_2">
</g>
<g id="Shopping_Bag">
</g>
<g id="Lifebelt">
</g>
<g id="Glasses">
</g>
<g id="Parabolic_Antenna">
</g>
<g id="Loudspeaker">
</g>
<g id="Play">
</g>
<g id="Pause">
</g>
<g id="Signpost">
</g>
<g id="Bluetooth">
</g>
<g id="Present">
</g>
<g id="Ruler">
</g>
<g id="Connection">
</g>
<g id="Money">
</g>
<g id="Paper_Plane">
</g>
<g id="Wallet_2">
</g>
</svg>
