<?xml version="1.0" encoding="iso-8859-1"?>
<!-- Generator: Adobe Illustrator 19.2.1, SVG Export Plug-In . SVG Version: 6.00 Build 0)  -->
<svg version="1.1" xmlns="http://www.w3.org/2000/svg" xmlns:xlink="http://www.w3.org/1999/xlink" x="0px" y="0px"
	 viewBox="0 0 24 24" style="enable-background:new 0 0 24 24;" xml:space="preserve">
<g id="Credit_Card">
</g>
<g id="Banknote">
</g>
<g id="Wallet">
</g>
<g id="Compass">
</g>
<g id="Camera_1">
</g>
<g id="Photo">
</g>
<g id="Picture">
</g>
<g id="Camera_2">
</g>
<g id="No_Camera">
</g>
<g id="Video">
</g>
<g id="Audio">
</g>
<g id="Microphone_1">
</g>
<g id="Microphone_2">
</g>
<g id="No_Microphone">
</g>
<g id="Shopping_Cart">
</g>
<g id="Add_Shopping_Cart">
</g>
<g id="Remove_Shopping_Cart">
</g>
<g id="Shopping_Basket">
</g>
<g id="Jing-Jang">
</g>
<g id="Leaf">
</g>
<g id="Glass">
</g>
<g id="Cup">
</g>
<g id="Mug">
</g>
<g id="Refresh">
</g>
<g id="Login">
</g>
<g id="Logout">
</g>
<g id="Flowchart">
</g>
<g id="Pin_1">
</g>
<g id="Pin_2">
</g>
<g id="User_1">
</g>
<g id="User_2">
</g>
<g id="Users">
</g>
<g id="Adjustments">
</g>
<g id="Type">
</g>
<g id="Format_Size">
</g>
<g id="Menu_1">
</g>
<g id="Other">
</g>
<g id="Flash">
</g>
<g id="No_Flash">
</g>
<g id="Switch_Button_1">
</g>
<g id="Switch_Button_2">
</g>
<g id="Cut">
</g>
<g id="Crop">
</g>
<g id="Sun">
</g>
<g id="USB">
</g>
<g id="Pie_Chart_1">
</g>
<g id="Pie_Chart_2">
</g>
<g id="Line_Chart">
</g>
<g id="Bar_Chart">
</g>
<g id="Target">
</g>
<g id="Flashlight">
</g>
<g id="USB_Device">
</g>
<g id="Eject">
</g>
<g id="Lightbulb">
</g>
<g id="Information">
</g>
<g id="Deactivate_Protection">
</g>
<g id="Active_Protection">
</g>
<g id="Bug">
</g>
<g id="Protection">
</g>
<g id="Phone">
</g>
<g id="List">
</g>
<g id="Plugin_1">
</g>
<g id="Bookmarrk">
</g>
<g id="Handshake">
</g>
<g id="Minimize">
</g>
<g id="Maximize">
</g>
<g id="Diamond">
</g>
<g id="Stop">
</g>
<g id="Shuffle">
</g>
<g id="Undo">
</g>
<g id="Upgrade">
</g>
<g id="Coding">
</g>
<g id="Syncronizaion">
</g>
<g id="Radio">
</g>
<g id="Presentation">
</g>
<g id="Door">
</g>
<g id="Thumbs_Up">
</g>
<g id="Thumbs_Down">
</g>
<g id="Keyboard">
</g>
<g id="_x33_D_Cube">
</g>
<g id="Signal">
</g>
<g id="Dice">
</g>
<g id="Upload">
</g>
<g id="Download">
</g>
<g id="Plugin_2">
</g>
<g id="Shopping_Bag">
</g>
<g id="Lifebelt">
</g>
<g id="Glasses">
</g>
<g id="Parabolic_Antenna">
</g>
<g id="Loudspeaker">
</g>
<g id="Play">
</g>
<g id="Pause">
</g>
<g id="Signpost">
</g>
<g id="Bluetooth">
</g>
<g id="Present">
</g>
<g id="Ruler">
</g>
<g id="Connection">
</g>
<g id="Money">
	<g>
		<g>
			<path d="M11.5,24c-0.276,0-0.5-0.224-0.5-0.5v-23C11,0.224,11.224,0,11.5,0S12,0.224,12,0.5v23C12,23.776,11.776,24,11.5,24z"/>
		</g>
		<g>
			<path d="M8.752,11.502c-0.061,0-0.121-0.011-0.181-0.034C6.368,10.615,5,8.903,5,7c0-2.757,2.916-5,6.5-5S18,4.243,18,7
				c0,0.276-0.224,0.5-0.5,0.5S17,7.276,17,7c0-2.206-2.468-4-5.5-4S6,4.794,6,7c0,1.48,1.124,2.835,2.933,3.536
				c0.258,0.1,0.386,0.389,0.285,0.646C9.142,11.381,8.952,11.502,8.752,11.502z"/>
		</g>
		<g>
			<path d="M11.5,22C7.916,22,5,19.757,5,17c0-0.276,0.224-0.5,0.5-0.5S6,16.724,6,17c0,2.206,2.468,4,5.5,4s5.5-1.794,5.5-4
				c0-1.48-1.124-2.835-2.933-3.536c-0.258-0.1-0.386-0.389-0.285-0.646c0.1-0.258,0.389-0.386,0.646-0.285
				C16.632,13.385,18,15.097,18,17C18,19.757,15.084,22,11.5,22z"/>
		</g>
		<g>
			<path d="M14.248,13.498c-0.063,0-0.126-0.012-0.187-0.036c-1.434-0.578-2.112-0.802-2.83-1.039
				c-0.663-0.219-1.349-0.445-2.661-0.955c-0.257-0.1-0.385-0.39-0.284-0.647c0.101-0.257,0.391-0.387,0.647-0.284
				c1.287,0.5,1.96,0.723,2.611,0.938c0.733,0.242,1.427,0.471,2.89,1.061c0.257,0.104,0.381,0.395,0.277,0.65
				C14.633,13.38,14.446,13.498,14.248,13.498z"/>
		</g>
	</g>
</g>
<g id="Paper_Plane">
</g>
<g id="Wallet_2">
</g>
</svg>
