<?xml version="1.0" encoding="iso-8859-1"?>
<!-- Generator: Adobe Illustrator 19.2.1, SVG Export Plug-In . SVG Version: 6.00 Build 0)  -->
<svg version="1.1" xmlns="http://www.w3.org/2000/svg" xmlns:xlink="http://www.w3.org/1999/xlink" x="0px" y="0px"
	 viewBox="0 0 24 24" style="enable-background:new 0 0 24 24;" xml:space="preserve">
<g id="Flag">
</g>
<g id="Umbrella">
</g>
<g id="Briefcase">
</g>
<g id="Box">
</g>
<g id="Magnet">
</g>
<g id="Percent">
</g>
<g id="Rocket">
</g>
<g id="Share">
</g>
<g id="Transmitter">
</g>
<g id="Record_2">
</g>
<g id="Record_1">
</g>
<g id="Anchor">
</g>
<g id="Airplane">
</g>
<g id="Car">
</g>
<g id="Newsfeed">
</g>
<g id="Wifi_Tethering">
</g>
<g id="No_Wifi_Tethering">
</g>
<g id="Bar_Chart_2">
</g>
<g id="Shop">
</g>
<g id="Alarm">
</g>
<g id="Sim_Card">
</g>
<g id="Radar">
</g>
<g id="Hand_2">
</g>
<g id="Palette">
</g>
<g id="Cake">
</g>
<g id="Blende">
</g>
<g id="Feather_Pen">
</g>
<g id="Ticket">
</g>
<g id="Medal">
</g>
<g id="Mouse_Pointer_1">
</g>
<g id="Mouse_Pointer_2">
	<g>
		<path d="M3.5,24c-0.058,0-0.117-0.01-0.173-0.031C3.13,23.896,3,23.709,3,23.5v-23c0-0.202,0.122-0.385,0.309-0.462
			C3.496-0.037,3.71,0.004,3.854,0.146l16,16c0.143,0.143,0.186,0.358,0.108,0.545C19.885,16.878,19.702,17,19.5,17H9.73
			l-5.851,6.825C3.783,23.938,3.643,24,3.5,24z M4,1.707v20.441l5.121-5.974C9.215,16.063,9.354,16,9.5,16h8.793L4,1.707z"/>
	</g>
</g>
<g id="Fingerprint">
</g>
<g id="Earth">
</g>
</svg>
