<?xml version="1.0" encoding="iso-8859-1"?>
<!-- Generator: Adobe Illustrator 19.2.1, SVG Export Plug-In . SVG Version: 6.00 Build 0)  -->
<svg version="1.1" xmlns="http://www.w3.org/2000/svg" xmlns:xlink="http://www.w3.org/1999/xlink" x="0px" y="0px"
	 viewBox="0 0 24 24" style="enable-background:new 0 0 24 24;" xml:space="preserve">
<g id="Flag">
</g>
<g id="Umbrella">
</g>
<g id="Briefcase">
</g>
<g id="Box">
</g>
<g id="Magnet">
</g>
<g id="Percent">
</g>
<g id="Rocket">
</g>
<g id="Share">
</g>
<g id="Transmitter">
</g>
<g id="Record_2">
</g>
<g id="Record_1">
</g>
<g id="Anchor">
</g>
<g id="Airplane">
</g>
<g id="Car">
</g>
<g id="Newsfeed">
</g>
<g id="Wifi_Tethering">
</g>
<g id="No_Wifi_Tethering">
</g>
<g id="Bar_Chart_2">
</g>
<g id="Shop">
</g>
<g id="Alarm">
</g>
<g id="Sim_Card">
</g>
<g id="Radar">
</g>
<g id="Hand_2">
</g>
<g id="Palette">
</g>
<g id="Cake">
</g>
<g id="Blende">
</g>
<g id="Feather_Pen">
</g>
<g id="Ticket">
</g>
<g id="Medal">
</g>
<g id="Mouse_Pointer_1">
	<g>
		<path d="M12,24c-0.189,0-0.37-0.108-0.454-0.29l-2.665-5.774l-3.994,4.881c-0.135,0.163-0.357,0.225-0.555,0.154
			C4.133,22.899,4,22.711,4,22.5v-22c0-0.202,0.122-0.385,0.309-0.462c0.187-0.076,0.402-0.035,0.545,0.108l15,15
			c0.143,0.143,0.186,0.358,0.108,0.545S19.702,16,19.5,16h-6.219l2.673,5.79c0.057,0.123,0.062,0.264,0.013,0.39
			s-0.146,0.227-0.27,0.28l-3.5,1.5C12.133,23.987,12.066,24,12,24z M9,16.5c0.021,0,0.042,0.001,0.063,0.004
			c0.171,0.021,0.318,0.13,0.391,0.286l2.796,6.059l2.581-1.105l-2.785-6.033c-0.071-0.155-0.059-0.336,0.033-0.479
			S12.329,15,12.5,15h5.793L5,1.707V21.1l3.613-4.416C8.709,16.566,8.852,16.5,9,16.5z"/>
	</g>
</g>
<g id="Mouse_Pointer_2">
</g>
<g id="Fingerprint">
</g>
<g id="Earth">
</g>
</svg>
