<?xml version="1.0" encoding="iso-8859-1"?>
<!-- Generator: Adobe Illustrator 19.2.1, SVG Export Plug-In . SVG Version: 6.00 Build 0)  -->
<svg version="1.1" xmlns="http://www.w3.org/2000/svg" xmlns:xlink="http://www.w3.org/1999/xlink" x="0px" y="0px"
	 viewBox="0 0 24 24" style="enable-background:new 0 0 24 24;" xml:space="preserve">
<g id="Credit_Card">
</g>
<g id="Banknote">
</g>
<g id="Wallet">
</g>
<g id="Compass">
</g>
<g id="Camera_1">
</g>
<g id="Photo">
</g>
<g id="Picture">
</g>
<g id="Camera_2">
</g>
<g id="No_Camera">
</g>
<g id="Video">
</g>
<g id="Audio">
</g>
<g id="Microphone_1">
</g>
<g id="Microphone_2">
</g>
<g id="No_Microphone">
</g>
<g id="Shopping_Cart">
</g>
<g id="Add_Shopping_Cart">
</g>
<g id="Remove_Shopping_Cart">
</g>
<g id="Shopping_Basket">
</g>
<g id="Jing-Jang">
</g>
<g id="Leaf">
</g>
<g id="Glass">
</g>
<g id="Cup">
</g>
<g id="Mug">
	<g>
		<g>
			<path d="M14.627,20.999c-0.181,0-0.356-0.099-0.445-0.271c-0.126-0.245-0.031-0.547,0.215-0.674
				C17.236,18.587,19,15.692,19,12.499v-1c0-0.276-0.224-0.5-0.5-0.5h-14c-0.276,0-0.5,0.224-0.5,0.5v1
				c0,3.193,1.764,6.088,4.602,7.556c0.246,0.127,0.341,0.429,0.215,0.674c-0.127,0.246-0.429,0.341-0.674,0.215
				C4.971,19.303,3,16.067,3,12.499v-1c0-0.827,0.673-1.5,1.5-1.5h14c0.827,0,1.5,0.673,1.5,1.5v1c0,3.569-1.971,6.804-5.144,8.444
				C14.783,20.981,14.705,20.999,14.627,20.999z"/>
		</g>
		<g>
			<path d="M19.257,22.999H3.743c-0.935,0-1.813-0.364-2.475-1.025l-1.121-1.122c-0.143-0.143-0.186-0.358-0.108-0.545
				s0.26-0.309,0.462-0.309h22c0.202,0,0.384,0.122,0.462,0.309s0.035,0.402-0.108,0.545l-1.121,1.122
				C21.071,22.635,20.192,22.999,19.257,22.999z M1.707,20.999l0.268,0.268c0.472,0.472,1.101,0.732,1.768,0.732h15.515
				c0.667,0,1.296-0.26,1.768-0.732l0.268-0.268H1.707z"/>
		</g>
		<g>
			<path d="M17.145,19.069c-0.234,0-0.443-0.165-0.49-0.403c-0.053-0.271,0.123-0.534,0.394-0.587l0.354-0.07
				C18.962,17.711,23,16.501,23,14.499c0-0.652-0.167-1.077-0.508-1.296c-0.756-0.487-2.302,0.032-2.784,0.251
				c-0.253,0.115-0.548,0.004-0.663-0.248s-0.003-0.548,0.248-0.663c0.241-0.109,2.393-1.049,3.74-0.183
				C23.674,12.774,24,13.493,24,14.499c0,3.236-6.145,4.441-6.407,4.491l-0.351,0.069C17.209,19.066,17.177,19.069,17.145,19.069z"
				/>
		</g>
		<g>
			<path d="M15.002,8.999c-0.147,0-0.292-0.064-0.391-0.188c-0.814-1.016-0.814-2.607,0-3.623c0.516-0.645,0.516-1.732,0.001-2.375
				c-0.173-0.216-0.138-0.53,0.078-0.703c0.217-0.174,0.53-0.138,0.703,0.078c0.813,1.016,0.813,2.607,0,3.623
				c-0.517,0.645-0.517,1.732-0.001,2.375c0.173,0.215,0.138,0.53-0.078,0.703C15.222,8.963,15.111,8.999,15.002,8.999z"/>
		</g>
		<g>
			<path d="M11.998,8.999c-0.147,0-0.292-0.064-0.391-0.188c-0.813-1.016-0.813-2.607,0-3.623c0.517-0.645,0.517-1.732,0.001-2.375
				c-0.173-0.215-0.138-0.53,0.078-0.703c0.216-0.173,0.531-0.138,0.703,0.078c0.814,1.016,0.814,2.607,0,3.623
				c-0.516,0.645-0.516,1.732-0.001,2.375c0.173,0.216,0.138,0.53-0.078,0.703C12.217,8.963,12.107,8.999,11.998,8.999z"/>
		</g>
		<g>
			<path d="M9.002,8.999c-0.147,0-0.292-0.064-0.391-0.188c-0.814-1.016-0.814-2.607,0-3.623c0.516-0.645,0.516-1.732,0.001-2.375
				C8.44,2.598,8.475,2.283,8.69,2.111c0.217-0.174,0.531-0.138,0.703,0.078c0.813,1.016,0.813,2.607,0,3.623
				C8.876,6.457,8.876,7.543,9.392,8.187c0.173,0.215,0.138,0.53-0.078,0.703C9.222,8.963,9.111,8.999,9.002,8.999z"/>
		</g>
	</g>
</g>
<g id="Refresh">
</g>
<g id="Login">
</g>
<g id="Logout">
</g>
<g id="Flowchart">
</g>
<g id="Pin_1">
</g>
<g id="Pin_2">
</g>
<g id="User_1">
</g>
<g id="User_2">
</g>
<g id="Users">
</g>
<g id="Adjustments">
</g>
<g id="Type">
</g>
<g id="Format_Size">
</g>
<g id="Menu_1">
</g>
<g id="Other">
</g>
<g id="Flash">
</g>
<g id="No_Flash">
</g>
<g id="Switch_Button_1">
</g>
<g id="Switch_Button_2">
</g>
<g id="Cut">
</g>
<g id="Crop">
</g>
<g id="Sun">
</g>
<g id="USB">
</g>
<g id="Pie_Chart_1">
</g>
<g id="Pie_Chart_2">
</g>
<g id="Line_Chart">
</g>
<g id="Bar_Chart">
</g>
<g id="Target">
</g>
<g id="Flashlight">
</g>
<g id="USB_Device">
</g>
<g id="Eject">
</g>
<g id="Lightbulb">
</g>
<g id="Information">
</g>
<g id="Deactivate_Protection">
</g>
<g id="Active_Protection">
</g>
<g id="Bug">
</g>
<g id="Protection">
</g>
<g id="Phone">
</g>
<g id="List">
</g>
<g id="Plugin_1">
</g>
<g id="Bookmarrk">
</g>
<g id="Handshake">
</g>
<g id="Minimize">
</g>
<g id="Maximize">
</g>
<g id="Diamond">
</g>
<g id="Stop">
</g>
<g id="Shuffle">
</g>
<g id="Undo">
</g>
<g id="Upgrade">
</g>
<g id="Coding">
</g>
<g id="Syncronizaion">
</g>
<g id="Radio">
</g>
<g id="Presentation">
</g>
<g id="Door">
</g>
<g id="Thumbs_Up">
</g>
<g id="Thumbs_Down">
</g>
<g id="Keyboard">
</g>
<g id="_x33_D_Cube">
</g>
<g id="Signal">
</g>
<g id="Dice">
</g>
<g id="Upload">
</g>
<g id="Download">
</g>
<g id="Plugin_2">
</g>
<g id="Shopping_Bag">
</g>
<g id="Lifebelt">
</g>
<g id="Glasses">
</g>
<g id="Parabolic_Antenna">
</g>
<g id="Loudspeaker">
</g>
<g id="Play">
</g>
<g id="Pause">
</g>
<g id="Signpost">
</g>
<g id="Bluetooth">
</g>
<g id="Present">
</g>
<g id="Ruler">
</g>
<g id="Connection">
</g>
<g id="Money">
</g>
<g id="Paper_Plane">
</g>
<g id="Wallet_2">
</g>
</svg>
