<?xml version="1.0" encoding="iso-8859-1"?>
<!-- Generator: Adobe Illustrator 19.2.1, SVG Export Plug-In . SVG Version: 6.00 Build 0)  -->
<svg version="1.1" xmlns="http://www.w3.org/2000/svg" xmlns:xlink="http://www.w3.org/1999/xlink" x="0px" y="0px"
	 viewBox="0 0 24 24" style="enable-background:new 0 0 24 24;" xml:space="preserve">
<g id="Mail">
</g>
<g id="Open_Mail">
</g>
<g id="Mail_Attachmet">
</g>
<g id="Mails">
</g>
<g id="Trash">
</g>
<g id="Trash_Full">
</g>
<g id="Preferences_1">
</g>
<g id="Preferences_2">
</g>
<g id="Mouse">
</g>
<g id="Computer">
</g>
<g id="Notebook">
</g>
<g id="Mobile_Phone">
</g>
<g id="Print">
</g>
<g id="Calculator">
</g>
<g id="Tag">
</g>
<g id="Paperclip">
</g>
<g id="Heart">
</g>
<g id="Lock">
</g>
<g id="Lock_Open">
</g>
<g id="Key_1">
</g>
<g id="Star">
</g>
<g id="Add">
</g>
<g id="Remove">
</g>
<g id="Error">
</g>
<g id="Check_1">
</g>
<g id="Time">
</g>
<g id="Question_Mark">
</g>
<g id="Error_Mark">
</g>
<g id="Sand-Glass">
</g>
<g id="Battery_Full">
</g>
<g id="Battery_Charge">
</g>
<g id="Battery_Half">
</g>
<g id="Battery_Low">
</g>
<g id="No_Battery">
</g>
<g id="Key_2">
</g>
<g id="Link">
</g>
<g id="Brake_Link">
</g>
<g id="Pencil">
</g>
<g id="At">
</g>
<g id="Reply">
</g>
<g id="Accessible">
</g>
<g id="Up_Arrow">
</g>
<g id="Brush">
</g>
<g id="Design_Mug">
</g>
<g id="Design">
</g>
<g id="Server">
</g>
<g id="Database">
</g>
<g id="Save">
</g>
<g id="Female">
</g>
<g id="Male">
</g>
<g id="Book">
</g>
<g id="Power">
</g>
<g id="Reload">
</g>
<g id="Map">
</g>
<g id="Loction_1">
</g>
<g id="Location_2">
</g>
<g id="Globe">
</g>
<g id="Suitcase">
</g>
<g id="Callendar">
</g>
<g id="Cloud_Off">
</g>
<g id="File_1">
</g>
<g id="File_2">
</g>
<g id="Folder">
</g>
<g id="Open_Folder">
</g>
<g id="Cloud">
</g>
<g id="Upload_Cloud">
</g>
<g id="Download_Cloud">
</g>
<g id="Eye">
</g>
<g id="Invisible">
</g>
<g id="Assignment">
</g>
<g id="Note_Book">
</g>
<g id="Webpage">
</g>
<g id="Mailbox">
</g>
<g id="Drive">
</g>
<g id="Disc">
</g>
<g id="Wifi_1">
</g>
<g id="Wifi_2">
</g>
<g id="Archive">
</g>
<g id="Archive_File">
</g>
<g id="News">
	<g>
		<g>
			<g>
				<path d="M21.5,22h-19C2.224,22,2,21.776,2,21.5S2.224,21,2.5,21h19c0.827,0,1.5-0.673,1.5-1.5v-14C23,4.673,22.327,4,21.5,4h-17
					C3.673,4,3,4.673,3,5.5v14C3,19.776,2.776,20,2.5,20S2,19.776,2,19.5v-14C2,4.121,3.121,3,4.5,3h17C22.879,3,24,4.121,24,5.5v14
					C24,20.879,22.879,22,21.5,22z"/>
			</g>
		</g>
		<g>
			<g>
				<path d="M4.5,22h-2C1.121,22,0,20.879,0,19.5v-11C0,7.121,1.121,6,2.5,6C2.776,6,3,6.224,3,6.5S2.776,7,2.5,7
					C1.673,7,1,7.673,1,8.5v11C1,20.327,1.673,21,2.5,21h2C4.776,21,5,21.224,5,21.5S4.776,22,4.5,22z"/>
			</g>
		</g>
		<g>
			<path d="M12.5,19h-8C4.224,19,4,18.776,4,18.5v-6C4,12.224,4.224,12,4.5,12h8c0.276,0,0.5,0.224,0.5,0.5v6
				C13,18.776,12.776,19,12.5,19z M5,18h7v-5H5V18z"/>
		</g>
		<g>
			<path d="M21.5,13h-7c-0.276,0-0.5-0.224-0.5-0.5s0.224-0.5,0.5-0.5h7c0.276,0,0.5,0.224,0.5,0.5S21.776,13,21.5,13z"/>
		</g>
		<g>
			<path d="M21.5,16h-7c-0.276,0-0.5-0.224-0.5-0.5s0.224-0.5,0.5-0.5h7c0.276,0,0.5,0.224,0.5,0.5S21.776,16,21.5,16z"/>
		</g>
		<g>
			<path d="M21.5,19h-7c-0.276,0-0.5-0.224-0.5-0.5s0.224-0.5,0.5-0.5h7c0.276,0,0.5,0.224,0.5,0.5S21.776,19,21.5,19z"/>
		</g>
		<g>
			<path d="M21.5,10h-17C4.224,10,4,9.776,4,9.5S4.224,9,4.5,9h17C21.776,9,22,9.224,22,9.5S21.776,10,21.5,10z"/>
		</g>
		<g>
			<path d="M21.5,7h-17C4.224,7,4,6.776,4,6.5S4.224,6,4.5,6h17C21.776,6,22,6.224,22,6.5S21.776,7,21.5,7z"/>
		</g>
	</g>
</g>
<g id="Home">
</g>
<g id="Collaboration">
</g>
<g id="Announcement">
</g>
<g id="Watch">
</g>
<g id="Clock">
</g>
<g id="Volume">
</g>
<g id="Mute">
</g>
<g id="Hand">
</g>
<g id="Layers">
</g>
<g id="Bell">
</g>
<g id="Speach_Bubble">
</g>
<g id="Speach_Bubbles">
</g>
<g id="Zoom_In">
</g>
<g id="Zoom_Out">
</g>
<g id="Search">
</g>
<g id="Back_Arrow">
</g>
<g id="Close">
</g>
<g id="Check_2">
</g>
<g id="Left_Arrow_2">
</g>
<g id="Right_Arrow_2">
</g>
</svg>
