<?xml version="1.0" encoding="iso-8859-1"?>
<!-- Generator: Adobe Illustrator 19.2.1, SVG Export Plug-In . SVG Version: 6.00 Build 0)  -->
<svg version="1.1" xmlns="http://www.w3.org/2000/svg" xmlns:xlink="http://www.w3.org/1999/xlink" x="0px" y="0px"
	 viewBox="0 0 24 24" style="enable-background:new 0 0 24 24;" xml:space="preserve">
<g id="Flag">
</g>
<g id="Umbrella">
</g>
<g id="Briefcase">
</g>
<g id="Box">
</g>
<g id="Magnet">
</g>
<g id="Percent">
</g>
<g id="Rocket">
</g>
<g id="Share">
</g>
<g id="Transmitter">
</g>
<g id="Record_2">
</g>
<g id="Record_1">
</g>
<g id="Anchor">
</g>
<g id="Airplane">
</g>
<g id="Car">
</g>
<g id="Newsfeed">
	<g>
		<g>
			<path d="M23.5,24h-4c-0.276,0-0.5-0.224-0.5-0.5C19,13.299,10.701,5,0.5,5C0.224,5,0,4.776,0,4.5v-4C0,0.224,0.224,0,0.5,0
				C13.458,0,24,10.542,24,23.5C24,23.776,23.776,24,23.5,24z M19.994,23h3.001C22.731,10.99,13.01,1.269,1,1.005v3.001
				C11.355,4.269,19.731,12.645,19.994,23z"/>
		</g>
		<g>
			<path d="M15.5,24h-4c-0.276,0-0.5-0.224-0.5-0.5C11,17.71,6.29,13,0.5,13C0.224,13,0,12.776,0,12.5v-4C0,8.224,0.224,8,0.5,8
				C9.047,8,16,14.953,16,23.5C16,23.776,15.776,24,15.5,24z M12,23.5h0.01H12z M11.989,23h3.002C14.732,15.401,8.599,9.268,1,9.008
				v3.002C6.944,12.267,11.733,17.056,11.989,23z"/>
		</g>
		<g>
			<path d="M3.5,24C1.57,24,0,22.43,0,20.5S1.57,17,3.5,17S7,18.57,7,20.5S5.43,24,3.5,24z M3.5,18C2.122,18,1,19.122,1,20.5
				S2.122,23,3.5,23S6,21.878,6,20.5S4.878,18,3.5,18z"/>
		</g>
	</g>
</g>
<g id="Wifi_Tethering">
</g>
<g id="No_Wifi_Tethering">
</g>
<g id="Bar_Chart_2">
</g>
<g id="Shop">
</g>
<g id="Alarm">
</g>
<g id="Sim_Card">
</g>
<g id="Radar">
</g>
<g id="Hand_2">
</g>
<g id="Palette">
</g>
<g id="Cake">
</g>
<g id="Blende">
</g>
<g id="Feather_Pen">
</g>
<g id="Ticket">
</g>
<g id="Medal">
</g>
<g id="Mouse_Pointer_1">
</g>
<g id="Mouse_Pointer_2">
</g>
<g id="Fingerprint">
</g>
<g id="Earth">
</g>
</svg>
