<?xml version="1.0" encoding="iso-8859-1"?>
<!-- Generator: Adobe Illustrator 19.2.1, SVG Export Plug-In . SVG Version: 6.00 Build 0)  -->
<svg version="1.1" xmlns="http://www.w3.org/2000/svg" xmlns:xlink="http://www.w3.org/1999/xlink" x="0px" y="0px"
	 viewBox="0 0 24 24" style="enable-background:new 0 0 24 24;" xml:space="preserve">
<g id="Credit_Card">
</g>
<g id="Banknote">
</g>
<g id="Wallet">
</g>
<g id="Compass">
</g>
<g id="Camera_1">
</g>
<g id="Photo">
</g>
<g id="Picture">
</g>
<g id="Camera_2">
</g>
<g id="No_Camera">
</g>
<g id="Video">
</g>
<g id="Audio">
</g>
<g id="Microphone_1">
</g>
<g id="Microphone_2">
</g>
<g id="No_Microphone">
	<g>
		<g>
			<path d="M1.5,24c-0.125,0-0.249-0.046-0.346-0.139c-0.199-0.191-0.207-0.507-0.016-0.707l22-23
				c0.191-0.199,0.506-0.208,0.707-0.016c0.199,0.191,0.207,0.507,0.016,0.707l-22,23C1.763,23.948,1.632,24,1.5,24z"/>
		</g>
		<g>
			<g>
				<path d="M16.5,24h-8C8.224,24,8,23.776,8,23.5S8.224,23,8.5,23h8c0.276,0,0.5,0.224,0.5,0.5S16.776,24,16.5,24z"/>
			</g>
			<g>
				<path d="M13.5,17h-2c-0.276,0-0.5-0.224-0.5-0.5s0.224-0.5,0.5-0.5h2c1.378,0,2.5-1.122,2.5-2.5v-3c0-0.276,0.224-0.5,0.5-0.5
					s0.5,0.224,0.5,0.5v3C17,15.43,15.43,17,13.5,17z"/>
			</g>
			<g>
				<path d="M8.5,14C8.224,14,8,13.776,8,13.5v-10C8,1.57,9.57,0,11.5,0h2C15.43,0,17,1.57,17,3.5v2C17,5.776,16.776,6,16.5,6
					S16,5.776,16,5.5v-2C16,2.122,14.878,1,13.5,1h-2C10.122,1,9,2.122,9,3.5v10C9,13.776,8.776,14,8.5,14z"/>
			</g>
			<g>
				<path d="M6.774,16.458c-0.2,0-0.388-0.121-0.466-0.318C6.104,15.618,6,15.065,6,14.5v-5C6,9.224,6.224,9,6.5,9S7,9.224,7,9.5v5
					c0,0.44,0.081,0.87,0.24,1.276c0.101,0.257-0.026,0.547-0.284,0.648C6.896,16.447,6.834,16.458,6.774,16.458z"/>
			</g>
			<g>
				<path d="M14.5,19h-4c-0.892,0-1.629-0.175-2.252-0.536c-0.239-0.138-0.321-0.444-0.182-0.683
					c0.138-0.239,0.443-0.322,0.683-0.182C9.216,17.869,9.789,18,10.5,18h4c1.93,0,3.5-1.57,3.5-3.5v-5C18,9.224,18.224,9,18.5,9
					S19,9.224,19,9.5v5C19,16.981,16.981,19,14.5,19z"/>
			</g>
			<g>
				<path d="M12.5,24c-0.276,0-0.5-0.224-0.5-0.5v-5c0-0.276,0.224-0.5,0.5-0.5s0.5,0.224,0.5,0.5v5C13,23.776,12.776,24,12.5,24z"
					/>
			</g>
			<g>
				<path d="M13.5,9h-5C8.224,9,8,8.776,8,8.5S8.224,8,8.5,8h5C13.776,8,14,8.224,14,8.5S13.776,9,13.5,9z"/>
			</g>
		</g>
	</g>
</g>
<g id="Shopping_Cart">
</g>
<g id="Add_Shopping_Cart">
</g>
<g id="Remove_Shopping_Cart">
</g>
<g id="Shopping_Basket">
</g>
<g id="Jing-Jang">
</g>
<g id="Leaf">
</g>
<g id="Glass">
</g>
<g id="Cup">
</g>
<g id="Mug">
</g>
<g id="Refresh">
</g>
<g id="Login">
</g>
<g id="Logout">
</g>
<g id="Flowchart">
</g>
<g id="Pin_1">
</g>
<g id="Pin_2">
</g>
<g id="User_1">
</g>
<g id="User_2">
</g>
<g id="Users">
</g>
<g id="Adjustments">
</g>
<g id="Type">
</g>
<g id="Format_Size">
</g>
<g id="Menu_1">
</g>
<g id="Other">
</g>
<g id="Flash">
</g>
<g id="No_Flash">
</g>
<g id="Switch_Button_1">
</g>
<g id="Switch_Button_2">
</g>
<g id="Cut">
</g>
<g id="Crop">
</g>
<g id="Sun">
</g>
<g id="USB">
</g>
<g id="Pie_Chart_1">
</g>
<g id="Pie_Chart_2">
</g>
<g id="Line_Chart">
</g>
<g id="Bar_Chart">
</g>
<g id="Target">
</g>
<g id="Flashlight">
</g>
<g id="USB_Device">
</g>
<g id="Eject">
</g>
<g id="Lightbulb">
</g>
<g id="Information">
</g>
<g id="Deactivate_Protection">
</g>
<g id="Active_Protection">
</g>
<g id="Bug">
</g>
<g id="Protection">
</g>
<g id="Phone">
</g>
<g id="List">
</g>
<g id="Plugin_1">
</g>
<g id="Bookmarrk">
</g>
<g id="Handshake">
</g>
<g id="Minimize">
</g>
<g id="Maximize">
</g>
<g id="Diamond">
</g>
<g id="Stop">
</g>
<g id="Shuffle">
</g>
<g id="Undo">
</g>
<g id="Upgrade">
</g>
<g id="Coding">
</g>
<g id="Syncronizaion">
</g>
<g id="Radio">
</g>
<g id="Presentation">
</g>
<g id="Door">
</g>
<g id="Thumbs_Up">
</g>
<g id="Thumbs_Down">
</g>
<g id="Keyboard">
</g>
<g id="_x33_D_Cube">
</g>
<g id="Signal">
</g>
<g id="Dice">
</g>
<g id="Upload">
</g>
<g id="Download">
</g>
<g id="Plugin_2">
</g>
<g id="Shopping_Bag">
</g>
<g id="Lifebelt">
</g>
<g id="Glasses">
</g>
<g id="Parabolic_Antenna">
</g>
<g id="Loudspeaker">
</g>
<g id="Play">
</g>
<g id="Pause">
</g>
<g id="Signpost">
</g>
<g id="Bluetooth">
</g>
<g id="Present">
</g>
<g id="Ruler">
</g>
<g id="Connection">
</g>
<g id="Money">
</g>
<g id="Paper_Plane">
</g>
<g id="Wallet_2">
</g>
</svg>
