<?xml version="1.0" encoding="iso-8859-1"?>
<!-- Generator: Adobe Illustrator 19.2.1, SVG Export Plug-In . SVG Version: 6.00 Build 0)  -->
<svg version="1.1" xmlns="http://www.w3.org/2000/svg" xmlns:xlink="http://www.w3.org/1999/xlink" x="0px" y="0px"
	 viewBox="0 0 24 24" style="enable-background:new 0 0 24 24;" xml:space="preserve">
<g id="Flag">
</g>
<g id="Umbrella">
</g>
<g id="Briefcase">
</g>
<g id="Box">
</g>
<g id="Magnet">
</g>
<g id="Percent">
</g>
<g id="Rocket">
</g>
<g id="Share">
</g>
<g id="Transmitter">
</g>
<g id="Record_2">
</g>
<g id="Record_1">
</g>
<g id="Anchor">
</g>
<g id="Airplane">
</g>
<g id="Car">
</g>
<g id="Newsfeed">
</g>
<g id="Wifi_Tethering">
</g>
<g id="No_Wifi_Tethering">
	<g>
		<g>
			<g>
				<path d="M2.192,19.479c-0.168,0-0.332-0.085-0.427-0.239C0.61,17.349,0,15.198,0,13.019c0-6.617,5.383-12,12-12
					c2.189,0,4.344,0.607,6.229,1.757c0.235,0.144,0.31,0.451,0.166,0.687s-0.45,0.31-0.688,0.167
					C15.979,2.576,14.006,2.019,12,2.019c-6.065,0-11,4.935-11,11c0,1.995,0.56,3.965,1.619,5.699
					c0.144,0.236,0.069,0.543-0.166,0.688C2.372,19.456,2.281,19.479,2.192,19.479z"/>
			</g>
			<g>
				<path d="M5.508,23c-0.098,0-0.196-0.028-0.283-0.088c-0.805-0.553-1.55-1.214-2.215-1.965c-0.183-0.207-0.163-0.523,0.044-0.706
					c0.204-0.183,0.521-0.164,0.706,0.043c0.609,0.69,1.293,1.297,2.031,1.803c0.228,0.156,0.285,0.467,0.129,0.695
					C5.823,22.924,5.667,23,5.508,23z"/>
			</g>
			<g>
				<path d="M18.494,22.999c-0.159,0-0.315-0.076-0.412-0.217c-0.156-0.228-0.099-0.539,0.129-0.695
					C21.21,20.029,23,16.64,23,13.019c0-3.144-1.36-6.148-3.733-8.242c-0.207-0.183-0.227-0.499-0.044-0.706
					s0.498-0.227,0.706-0.044C22.516,6.311,24,9.588,24,13.019c0,3.951-1.952,7.648-5.223,9.892
					C18.69,22.97,18.592,22.999,18.494,22.999z"/>
			</g>
		</g>
		<g>
			<g>
				<path d="M7.202,20.527c-0.098,0-0.196-0.028-0.282-0.087c-0.644-0.441-1.245-0.99-1.788-1.63
					c-0.178-0.211-0.152-0.526,0.059-0.705c0.21-0.178,0.526-0.152,0.705,0.058c0.484,0.572,1.02,1.061,1.589,1.451
					c0.229,0.156,0.286,0.467,0.13,0.695C7.518,20.451,7.361,20.527,7.202,20.527z"/>
			</g>
			<g>
				<path d="M16.8,20.526c-0.159,0-0.315-0.076-0.412-0.217c-0.156-0.228-0.099-0.539,0.129-0.695
					C18.698,18.118,20,15.652,20,13.019c0-2.359-1.037-4.587-2.846-6.113c-0.211-0.178-0.238-0.494-0.06-0.705
					c0.179-0.211,0.495-0.236,0.704-0.06C19.833,7.858,21,10.365,21,13.019c0,2.963-1.465,5.737-3.917,7.419
					C16.996,20.498,16.897,20.526,16.8,20.526z"/>
			</g>
			<g>
				<path d="M4.393,17.28c-0.184,0-0.36-0.102-0.447-0.277C3.318,15.743,3,14.402,3,13.019c0-4.962,4.037-9,9-9
					c1.388,0,2.729,0.316,3.986,0.94c0.248,0.123,0.349,0.422,0.227,0.67c-0.123,0.248-0.425,0.348-0.67,0.226
					C14.424,5.3,13.232,5.019,12,5.019c-4.411,0-8,3.589-8,8c0,1.227,0.282,2.417,0.84,3.538c0.123,0.247,0.022,0.547-0.225,0.67
					C4.544,17.263,4.468,17.28,4.393,17.28z"/>
			</g>
		</g>
		<g>
			<g>
				<path d="M6.7,14.972c-0.22,0-0.421-0.146-0.482-0.367C6.073,14.081,6,13.547,6,13.019c0-3.309,2.691-6,6-6
					c0.521,0,1.055,0.073,1.584,0.218c0.267,0.073,0.423,0.348,0.351,0.614c-0.072,0.266-0.343,0.424-0.614,0.351
					C10.051,7.308,7,9.829,7,13.019c0,0.438,0.062,0.882,0.183,1.32c0.073,0.267-0.083,0.542-0.35,0.615
					C6.789,14.966,6.744,14.972,6.7,14.972z"/>
			</g>
			<g>
				<path d="M8.896,18.054c-0.098,0-0.196-0.028-0.283-0.088c-0.51-0.35-0.969-0.789-1.365-1.304
					c-0.168-0.219-0.127-0.533,0.092-0.701c0.218-0.168,0.532-0.128,0.701,0.092c0.332,0.432,0.715,0.799,1.139,1.089
					c0.228,0.156,0.285,0.467,0.129,0.695C9.211,17.978,9.055,18.054,8.896,18.054z"/>
			</g>
			<g>
				<path d="M15.105,18.053c-0.159,0-0.315-0.076-0.412-0.217c-0.156-0.228-0.099-0.539,0.13-0.695
					C16.187,16.206,17,14.665,17,13.019c0-1.563-0.715-3.007-1.963-3.964c-0.219-0.168-0.26-0.482-0.092-0.701
					c0.169-0.219,0.482-0.26,0.701-0.092C17.142,9.409,18,11.143,18,13.019c0,1.976-0.977,3.825-2.612,4.946
					C15.302,18.024,15.203,18.053,15.105,18.053z"/>
			</g>
		</g>
		<g>
			<path d="M12,15.019c-0.88,0-1.667-0.594-1.915-1.445c-0.077-0.265,0.076-0.542,0.341-0.62c0.269-0.079,0.543,0.076,0.62,0.34
				c0.126,0.433,0.509,0.724,0.954,0.724c0.552,0,1-0.449,1-1c0-0.438-0.298-0.831-0.725-0.954c-0.265-0.077-0.417-0.354-0.341-0.62
				s0.351-0.417,0.62-0.341C13.405,11.351,14,12.138,14,13.019C14,14.122,13.103,15.019,12,15.019z"/>
		</g>
		<g>
			<path d="M0.5,24c-0.128,0-0.256-0.049-0.354-0.146c-0.195-0.195-0.195-0.512,0-0.707l23-23c0.195-0.195,0.512-0.195,0.707,0
				s0.195,0.512,0,0.707l-23,23C0.756,23.951,0.628,24,0.5,24z"/>
		</g>
	</g>
</g>
<g id="Bar_Chart_2">
</g>
<g id="Shop">
</g>
<g id="Alarm">
</g>
<g id="Sim_Card">
</g>
<g id="Radar">
</g>
<g id="Hand_2">
</g>
<g id="Palette">
</g>
<g id="Cake">
</g>
<g id="Blende">
</g>
<g id="Feather_Pen">
</g>
<g id="Ticket">
</g>
<g id="Medal">
</g>
<g id="Mouse_Pointer_1">
</g>
<g id="Mouse_Pointer_2">
</g>
<g id="Fingerprint">
</g>
<g id="Earth">
</g>
</svg>
