<?xml version="1.0" encoding="iso-8859-1"?>
<!-- Generator: Adobe Illustrator 19.2.1, SVG Export Plug-In . SVG Version: 6.00 Build 0)  -->
<svg version="1.1" xmlns="http://www.w3.org/2000/svg" xmlns:xlink="http://www.w3.org/1999/xlink" x="0px" y="0px"
	 viewBox="0 0 24 24" style="enable-background:new 0 0 24 24;" xml:space="preserve">
<g id="Mail">
</g>
<g id="Open_Mail">
</g>
<g id="Mail_Attachmet">
</g>
<g id="Mails">
</g>
<g id="Trash">
</g>
<g id="Trash_Full">
</g>
<g id="Preferences_1">
</g>
<g id="Preferences_2">
</g>
<g id="Mouse">
</g>
<g id="Computer">
</g>
<g id="Notebook">
</g>
<g id="Mobile_Phone">
</g>
<g id="Print">
</g>
<g id="Calculator">
</g>
<g id="Tag">
</g>
<g id="Paperclip">
</g>
<g id="Heart">
</g>
<g id="Lock">
</g>
<g id="Lock_Open">
</g>
<g id="Key_1">
</g>
<g id="Star">
</g>
<g id="Add">
</g>
<g id="Remove">
</g>
<g id="Error">
</g>
<g id="Check_1">
</g>
<g id="Time">
</g>
<g id="Question_Mark">
</g>
<g id="Error_Mark">
</g>
<g id="Sand-Glass">
</g>
<g id="Battery_Full">
</g>
<g id="Battery_Charge">
</g>
<g id="Battery_Half">
</g>
<g id="Battery_Low">
</g>
<g id="No_Battery">
</g>
<g id="Key_2">
</g>
<g id="Link">
</g>
<g id="Brake_Link">
</g>
<g id="Pencil">
</g>
<g id="At">
</g>
<g id="Reply">
</g>
<g id="Accessible">
</g>
<g id="Up_Arrow">
</g>
<g id="Brush">
</g>
<g id="Design_Mug">
</g>
<g id="Design">
</g>
<g id="Server">
</g>
<g id="Database">
</g>
<g id="Save">
</g>
<g id="Female">
</g>
<g id="Male">
</g>
<g id="Book">
</g>
<g id="Power">
</g>
<g id="Reload">
</g>
<g id="Map">
</g>
<g id="Loction_1">
</g>
<g id="Location_2">
</g>
<g id="Globe">
</g>
<g id="Suitcase">
</g>
<g id="Callendar">
</g>
<g id="Cloud_Off">
</g>
<g id="File_1">
</g>
<g id="File_2">
</g>
<g id="Folder">
</g>
<g id="Open_Folder">
	<g>
		<g>
			<path d="M20.97,21H2.941c-0.726,0-1.346-0.519-1.476-1.231l-1.422-7.821c-0.133-0.731,0.064-1.479,0.54-2.049
				C1.06,9.327,1.759,9,2.503,9h5.29c0.386,0,0.773-0.091,1.118-0.264l2.733-1.367C12.128,7.128,12.669,7,13.209,7h8.288
				c0.73,0,1.422,0.318,1.897,0.872c0.476,0.555,0.685,1.286,0.573,2.008l-1.515,9.849C22.339,20.465,21.716,21,20.97,21z M2.503,10
				c-0.446,0-0.866,0.196-1.152,0.539c-0.286,0.342-0.404,0.79-0.324,1.229l1.422,7.821C2.493,19.827,2.7,20,2.941,20H20.97
				c0.249,0,0.457-0.179,0.495-0.424l1.515-9.849c0.066-0.433-0.059-0.871-0.344-1.204C22.35,8.19,21.935,8,21.497,8h-8.288
				c-0.386,0-0.772,0.091-1.118,0.264L9.358,9.631C8.875,9.872,8.333,10,7.793,10H2.503z"/>
		</g>
		<g>
			<path d="M2.501,10c-0.276,0-0.5-0.224-0.5-0.5v-4c0-1.379,1.122-2.5,2.5-2.5h4c0.667,0,1.295,0.26,1.768,0.732l0.829,0.828
				C11.377,4.84,11.764,5,12.158,5h8.343c0.827,0,1.5,0.673,1.5,1.5v1c0,0.276-0.224,0.5-0.5,0.5s-0.5-0.224-0.5-0.5v-1
				c0-0.275-0.224-0.5-0.5-0.5h-8.343c-0.667,0-1.295-0.26-1.768-0.732L9.562,4.439C9.283,4.16,8.896,4,8.501,4h-4
				c-0.827,0-1.5,0.673-1.5,1.5v4C3.001,9.776,2.778,10,2.501,10z"/>
		</g>
	</g>
</g>
<g id="Cloud">
</g>
<g id="Upload_Cloud">
</g>
<g id="Download_Cloud">
</g>
<g id="Eye">
</g>
<g id="Invisible">
</g>
<g id="Assignment">
</g>
<g id="Note_Book">
</g>
<g id="Webpage">
</g>
<g id="Mailbox">
</g>
<g id="Drive">
</g>
<g id="Disc">
</g>
<g id="Wifi_1">
</g>
<g id="Wifi_2">
</g>
<g id="Archive">
</g>
<g id="Archive_File">
</g>
<g id="News">
</g>
<g id="Home">
</g>
<g id="Collaboration">
</g>
<g id="Announcement">
</g>
<g id="Watch">
</g>
<g id="Clock">
</g>
<g id="Volume">
</g>
<g id="Mute">
</g>
<g id="Hand">
</g>
<g id="Layers">
</g>
<g id="Bell">
</g>
<g id="Speach_Bubble">
</g>
<g id="Speach_Bubbles">
</g>
<g id="Zoom_In">
</g>
<g id="Zoom_Out">
</g>
<g id="Search">
</g>
<g id="Back_Arrow">
</g>
<g id="Close">
</g>
<g id="Check_2">
</g>
<g id="Left_Arrow_2">
</g>
<g id="Right_Arrow_2">
</g>
</svg>
