<?xml version="1.0" encoding="iso-8859-1"?>
<!-- Generator: Adobe Illustrator 19.2.1, SVG Export Plug-In . SVG Version: 6.00 Build 0)  -->
<svg version="1.1" xmlns="http://www.w3.org/2000/svg" xmlns:xlink="http://www.w3.org/1999/xlink" x="0px" y="0px"
	 viewBox="0 0 24 24" style="enable-background:new 0 0 24 24;" xml:space="preserve">
<g id="Flag">
</g>
<g id="Umbrella">
</g>
<g id="Briefcase">
</g>
<g id="Box">
</g>
<g id="Magnet">
</g>
<g id="Percent">
</g>
<g id="Rocket">
</g>
<g id="Share">
</g>
<g id="Transmitter">
</g>
<g id="Record_2">
</g>
<g id="Record_1">
</g>
<g id="Anchor">
</g>
<g id="Airplane">
</g>
<g id="Car">
</g>
<g id="Newsfeed">
</g>
<g id="Wifi_Tethering">
</g>
<g id="No_Wifi_Tethering">
</g>
<g id="Bar_Chart_2">
</g>
<g id="Shop">
</g>
<g id="Alarm">
</g>
<g id="Sim_Card">
</g>
<g id="Radar">
</g>
<g id="Hand_2">
</g>
<g id="Palette">
	<g>
		<g>
			<path d="M11.5,24c-0.043,0-0.085-0.006-0.125-0.016C4.971,23.659,0,18.453,0,12c0-3.292,1.306-6.362,3.678-8.646
				c2.371-2.282,5.48-3.469,8.789-3.346c6.296,0.239,11.469,5.563,11.532,11.868c0.009,0.912,0.029,2.81-1.712,4.032
				c-2.354,1.653-4.867,1.022-6.888,0.518C14.523,16.207,13.696,16,13,16c-0.551,0-1,0.448-1,1c0,0.056,0.005,0.11,0.013,0.164
				c0.078,0.902,0.357,1.277,0.864,1.959c0.19,0.255,0.403,0.542,0.636,0.895c0.003,0.003,0.006,0.007,0.008,0.011
				C13.834,20.459,14,20.968,14,21.5c0,1.269-0.949,2.319-2.175,2.479c-0.046,0.013-0.099,0.018-0.144,0.018
				c-0.009,0-0.017-0.001-0.026-0.001C11.604,23.998,11.552,24,11.5,24z M11.996,1C9.133,1,6.44,2.083,4.371,4.075
				C2.197,6.168,1,8.982,1,12c0,5.984,4.665,10.8,10.634,10.994C12.398,22.926,13,22.282,13,21.5c0-0.312-0.094-0.609-0.272-0.863
				c-0.011-0.013-0.021-0.027-0.031-0.042c-0.228-0.347-0.436-0.626-0.621-0.875c-0.534-0.718-0.957-1.286-1.052-2.43h0.001
				C11.005,17.172,11,17.087,11,17c0-1.103,0.897-2,2-2c0.82,0,1.705,0.222,2.643,0.456c2.01,0.506,4.089,1.024,6.07-0.365
				c1.31-0.92,1.295-2.405,1.287-3.204c-0.058-5.779-4.8-10.659-10.57-10.878C12.284,1.003,12.14,1,11.996,1z"/>
		</g>
		<g>
			<path d="M18.5,13c-1.378,0-2.5-1.121-2.5-2.5S17.121,8,18.5,8S21,9.121,21,10.5S19.878,13,18.5,13z M18.5,9
				C17.672,9,17,9.673,17,10.5s0.673,1.5,1.5,1.5s1.5-0.673,1.5-1.5S19.327,9,18.5,9z"/>
		</g>
		<g>
			<path d="M13.5,8C12.121,8,11,6.879,11,5.5S12.121,3,13.5,3S16,4.121,16,5.5S14.878,8,13.5,8z M13.5,4C12.672,4,12,4.673,12,5.5
				S12.672,7,13.5,7S15,6.327,15,5.5S14.327,4,13.5,4z"/>
		</g>
		<g>
			<path d="M6.5,10C5.121,10,4,8.879,4,7.5S5.121,5,6.5,5S9,6.121,9,7.5S7.878,10,6.5,10z M6.5,6C5.672,6,5,6.673,5,7.5
				S5.672,9,6.5,9S8,8.327,8,7.5S7.327,6,6.5,6z"/>
		</g>
		<g>
			<path d="M5.5,17C4.121,17,3,15.879,3,14.5S4.121,12,5.5,12S8,13.121,8,14.5S6.878,17,5.5,17z M5.5,13C4.672,13,4,13.673,4,14.5
				S4.672,16,5.5,16S7,15.327,7,14.5S6.327,13,5.5,13z"/>
		</g>
	</g>
</g>
<g id="Cake">
</g>
<g id="Blende">
</g>
<g id="Feather_Pen">
</g>
<g id="Ticket">
</g>
<g id="Medal">
</g>
<g id="Mouse_Pointer_1">
</g>
<g id="Mouse_Pointer_2">
</g>
<g id="Fingerprint">
</g>
<g id="Earth">
</g>
</svg>
