<?xml version="1.0" encoding="iso-8859-1"?>
<!-- Generator: Adobe Illustrator 19.2.1, SVG Export Plug-In . SVG Version: 6.00 Build 0)  -->
<svg version="1.1" xmlns="http://www.w3.org/2000/svg" xmlns:xlink="http://www.w3.org/1999/xlink" x="0px" y="0px"
	 viewBox="0 0 24 24" style="enable-background:new 0 0 24 24;" xml:space="preserve">
<g id="Credit_Card">
</g>
<g id="Banknote">
</g>
<g id="Wallet">
</g>
<g id="Compass">
</g>
<g id="Camera_1">
</g>
<g id="Photo">
</g>
<g id="Picture">
</g>
<g id="Camera_2">
</g>
<g id="No_Camera">
</g>
<g id="Video">
</g>
<g id="Audio">
</g>
<g id="Microphone_1">
</g>
<g id="Microphone_2">
</g>
<g id="No_Microphone">
</g>
<g id="Shopping_Cart">
</g>
<g id="Add_Shopping_Cart">
</g>
<g id="Remove_Shopping_Cart">
</g>
<g id="Shopping_Basket">
</g>
<g id="Jing-Jang">
</g>
<g id="Leaf">
</g>
<g id="Glass">
</g>
<g id="Cup">
</g>
<g id="Mug">
</g>
<g id="Refresh">
</g>
<g id="Login">
</g>
<g id="Logout">
</g>
<g id="Flowchart">
</g>
<g id="Pin_1">
</g>
<g id="Pin_2">
</g>
<g id="User_1">
</g>
<g id="User_2">
</g>
<g id="Users">
</g>
<g id="Adjustments">
</g>
<g id="Type">
</g>
<g id="Format_Size">
</g>
<g id="Menu_1">
</g>
<g id="Other">
</g>
<g id="Flash">
</g>
<g id="No_Flash">
</g>
<g id="Switch_Button_1">
</g>
<g id="Switch_Button_2">
</g>
<g id="Cut">
</g>
<g id="Crop">
</g>
<g id="Sun">
</g>
<g id="USB">
</g>
<g id="Pie_Chart_1">
</g>
<g id="Pie_Chart_2">
</g>
<g id="Line_Chart">
</g>
<g id="Bar_Chart">
</g>
<g id="Target">
</g>
<g id="Flashlight">
</g>
<g id="USB_Device">
</g>
<g id="Eject">
</g>
<g id="Lightbulb">
</g>
<g id="Information">
</g>
<g id="Deactivate_Protection">
</g>
<g id="Active_Protection">
</g>
<g id="Bug">
</g>
<g id="Protection">
</g>
<g id="Phone">
</g>
<g id="List">
</g>
<g id="Plugin_1">
</g>
<g id="Bookmarrk">
</g>
<g id="Handshake">
</g>
<g id="Minimize">
</g>
<g id="Maximize">
</g>
<g id="Diamond">
</g>
<g id="Stop">
</g>
<g id="Shuffle">
</g>
<g id="Undo">
</g>
<g id="Upgrade">
</g>
<g id="Coding">
</g>
<g id="Syncronizaion">
</g>
<g id="Radio">
</g>
<g id="Presentation">
</g>
<g id="Door">
</g>
<g id="Thumbs_Up">
</g>
<g id="Thumbs_Down">
</g>
<g id="Keyboard">
</g>
<g id="_x33_D_Cube">
</g>
<g id="Signal">
</g>
<g id="Dice">
</g>
<g id="Upload">
</g>
<g id="Download">
</g>
<g id="Plugin_2">
</g>
<g id="Shopping_Bag">
</g>
<g id="Lifebelt">
</g>
<g id="Glasses">
</g>
<g id="Parabolic_Antenna">
	<g>
		<g>
			<path d="M21.49,18.018c-2.469,0.001-6.354-2.138-9.864-5.647c-2.179-2.179-3.91-4.576-4.874-6.749
				C5.745,3.349,5.7,1.588,6.626,0.663c1.725-1.724,6.375,0.058,10.815,4.145c0.203,0.188,0.216,0.504,0.029,0.707
				c-0.187,0.202-0.502,0.215-0.707,0.029C12.527,1.643,8.468,0.235,7.333,1.37C6.738,1.965,6.862,3.402,7.666,5.215
				c0.915,2.064,2.573,4.354,4.667,6.448c4.377,4.376,9.046,6.249,10.293,5c1.138-1.139-0.256-5.187-4.143-9.398
				c-0.188-0.203-0.175-0.519,0.028-0.706s0.519-0.175,0.706,0.028c4.076,4.416,5.846,9.052,4.115,10.783
				C22.894,17.81,22.261,18.018,21.49,18.018z"/>
		</g>
		<g>
			<path d="M15.996,20c-6.617,0-12-5.383-12-12c0-2.677,0.789-4.992,2.413-7.079c0.169-0.22,0.484-0.258,0.701-0.088
				c0.219,0.17,0.258,0.483,0.088,0.701C5.696,3.466,4.996,5.521,4.996,8c0,6.065,4.935,11,11,11c2.439,0,4.566-0.729,6.504-2.23
				c0.22-0.169,0.532-0.129,0.702,0.089c0.169,0.219,0.129,0.533-0.089,0.702C20.993,19.202,18.665,20,15.996,20z"/>
		</g>
		<g>
			<path d="M14.496,14.5c-0.089,0-0.179-0.023-0.26-0.073c-0.236-0.144-0.311-0.451-0.167-0.687L20,3.996l-9.744,5.931
				c-0.235,0.144-0.543,0.07-0.687-0.167C9.426,9.524,9.5,9.217,9.736,9.073l11.5-7c0.194-0.122,0.449-0.091,0.613,0.073
				c0.163,0.163,0.193,0.416,0.073,0.613l-7,11.5C14.829,14.415,14.664,14.5,14.496,14.5z"/>
		</g>
		<g>
			<path d="M10.496,22h-5c-0.164,0-0.318-0.081-0.412-0.216c-0.093-0.136-0.113-0.309-0.055-0.462l2.136-5.607
				c0.098-0.26,0.389-0.388,0.645-0.289c0.258,0.098,0.388,0.387,0.289,0.645L6.222,21h3.552l-1.455-3.864
				c-0.098-0.258,0.033-0.546,0.292-0.644c0.258-0.1,0.546,0.033,0.644,0.292l1.71,4.54c0.058,0.153,0.037,0.325-0.057,0.46
				C10.813,21.92,10.66,22,10.496,22z"/>
		</g>
		<g>
			<path d="M15.496,24h-15c-0.276,0-0.5-0.224-0.5-0.5v-2c0-0.276,0.224-0.5,0.5-0.5h15c0.276,0,0.5,0.224,0.5,0.5v2
				C15.996,23.776,15.772,24,15.496,24z M0.996,23h14v-1h-14V23z"/>
		</g>
		<g>
			<path d="M22.496,3c-0.827,0-1.5-0.673-1.5-1.5s0.673-1.5,1.5-1.5s1.5,0.673,1.5,1.5S23.323,3,22.496,3z M22.496,1
				c-0.275,0-0.5,0.225-0.5,0.5s0.225,0.5,0.5,0.5s0.5-0.225,0.5-0.5S22.771,1,22.496,1z"/>
		</g>
	</g>
</g>
<g id="Loudspeaker">
</g>
<g id="Play">
</g>
<g id="Pause">
</g>
<g id="Signpost">
</g>
<g id="Bluetooth">
</g>
<g id="Present">
</g>
<g id="Ruler">
</g>
<g id="Connection">
</g>
<g id="Money">
</g>
<g id="Paper_Plane">
</g>
<g id="Wallet_2">
</g>
</svg>
