<?xml version="1.0" encoding="iso-8859-1"?>
<!-- Generator: Adobe Illustrator 19.2.1, SVG Export Plug-In . SVG Version: 6.00 Build 0)  -->
<svg version="1.1" xmlns="http://www.w3.org/2000/svg" xmlns:xlink="http://www.w3.org/1999/xlink" x="0px" y="0px"
	 viewBox="0 0 24 24" style="enable-background:new 0 0 24 24;" xml:space="preserve">
<g id="Credit_Card">
</g>
<g id="Banknote">
</g>
<g id="Wallet">
</g>
<g id="Compass">
</g>
<g id="Camera_1">
</g>
<g id="Photo">
</g>
<g id="Picture">
</g>
<g id="Camera_2">
</g>
<g id="No_Camera">
</g>
<g id="Video">
</g>
<g id="Audio">
</g>
<g id="Microphone_1">
</g>
<g id="Microphone_2">
</g>
<g id="No_Microphone">
</g>
<g id="Shopping_Cart">
</g>
<g id="Add_Shopping_Cart">
</g>
<g id="Remove_Shopping_Cart">
</g>
<g id="Shopping_Basket">
</g>
<g id="Jing-Jang">
</g>
<g id="Leaf">
</g>
<g id="Glass">
</g>
<g id="Cup">
</g>
<g id="Mug">
</g>
<g id="Refresh">
</g>
<g id="Login">
</g>
<g id="Logout">
</g>
<g id="Flowchart">
</g>
<g id="Pin_1">
</g>
<g id="Pin_2">
</g>
<g id="User_1">
</g>
<g id="User_2">
</g>
<g id="Users">
</g>
<g id="Adjustments">
</g>
<g id="Type">
</g>
<g id="Format_Size">
</g>
<g id="Menu_1">
</g>
<g id="Other">
</g>
<g id="Flash">
</g>
<g id="No_Flash">
</g>
<g id="Switch_Button_1">
</g>
<g id="Switch_Button_2">
</g>
<g id="Cut">
</g>
<g id="Crop">
</g>
<g id="Sun">
</g>
<g id="USB">
</g>
<g id="Pie_Chart_1">
</g>
<g id="Pie_Chart_2">
</g>
<g id="Line_Chart">
</g>
<g id="Bar_Chart">
</g>
<g id="Target">
</g>
<g id="Flashlight">
</g>
<g id="USB_Device">
</g>
<g id="Eject">
</g>
<g id="Lightbulb">
</g>
<g id="Information">
</g>
<g id="Deactivate_Protection">
</g>
<g id="Active_Protection">
</g>
<g id="Bug">
</g>
<g id="Protection">
</g>
<g id="Phone">
	<g>
		<g id="XMLID_124_">
			<g id="XMLID_247_">
				<path d="M20.165,10.5c-0.372,0-0.741-0.147-1.014-0.405c-0.713-0.667-1.534-1.236-2.439-1.688C16.269,8.191,16,7.664,16,7V6.371
					C14.764,6.03,13.351,6,12,6c-1.275,0-2.725,0.031-4,0.373V7c0,0.506-0.191,1.14-0.728,1.399
					c-0.864,0.433-1.684,1.002-2.428,1.689c-0.506,0.508-1.494,0.523-2.043-0.021L0.425,7.689C0.158,7.438,0,7.062,0,6.665
					c0-0.393,0.15-0.761,0.425-1.034C3.077,3.117,6.645,2,12,2s8.923,1.117,11.565,3.621C23.85,5.904,24,6.272,24,6.665
					s-0.15,0.761-0.425,1.034l-2.376,2.376C20.926,10.35,20.558,10.5,20.165,10.5z M12,5c1.559,0,3.203,0.041,4.658,0.525
					C16.862,5.594,17,5.785,17,6v1c0,0.297,0.092,0.479,0.153,0.509c0.998,0.499,1.898,1.123,2.683,1.857
					c0.187,0.177,0.491,0.168,0.656,0.002l2.376-2.376C22.953,6.907,23,6.791,23,6.665s-0.047-0.242-0.132-0.327
					C20.435,4.032,17.08,3,12,3S3.565,4.032,1.122,6.348C1.047,6.423,1,6.539,1,6.665c0,0.122,0.044,0.234,0.121,0.308l2.387,2.387
					c0.17,0.168,0.486,0.167,0.645,0.009C4.979,8.604,5.876,7.98,6.831,7.502C6.905,7.466,7,7.274,7,7V6
					c0-0.217,0.14-0.409,0.346-0.476C8.839,5.04,10.531,5,12,5z"/>
			</g>
		</g>
		<g>
			<path d="M12,14c-2.804,0-5-1.537-5-3.5S9.196,7,12,7s5,1.537,5,3.5S14.804,14,12,14z M12,8c-2.168,0-4,1.145-4,2.5
				S9.832,13,12,13s4-1.145,4-2.5S14.168,8,12,8z"/>
		</g>
		<g>
			<path d="M21.5,22h-19C1.121,22,0,20.879,0,19.5v-2.172c0-0.726,0.308-1.343,1.029-2.065l2.793-2.792
				c0.352-0.352,0.819-0.519,1.303-0.474c0.519,0.047,0.991,0.33,1.298,0.776C7.338,14.105,9.579,15,12,15s4.662-0.895,5.577-2.227
				c0.306-0.444,0.778-0.728,1.297-0.774c0.498-0.045,0.955,0.123,1.307,0.475l3.087,3.087C23.74,16.033,24,16.66,24,17.328V19.5
				C24,20.879,22.879,22,21.5,22z M4.973,12.99c-0.128,0-0.293,0.037-0.443,0.188L1.736,15.97C1.089,16.618,1,17.006,1,17.328V19.5
				C1,20.327,1.673,21,2.5,21h19c0.827,0,1.5-0.673,1.5-1.5v-2.172c0-0.395-0.16-0.781-0.439-1.061l-3.087-3.087
				c-0.177-0.177-0.378-0.2-0.508-0.187c-0.222,0.021-0.428,0.146-0.564,0.346C17.291,14.956,14.778,16,12,16
				s-5.291-1.044-6.401-2.66c-0.138-0.2-0.344-0.327-0.565-0.348C5.015,12.991,4.994,12.99,4.973,12.99z"/>
		</g>
	</g>
</g>
<g id="List">
</g>
<g id="Plugin_1">
</g>
<g id="Bookmarrk">
</g>
<g id="Handshake">
</g>
<g id="Minimize">
</g>
<g id="Maximize">
</g>
<g id="Diamond">
</g>
<g id="Stop">
</g>
<g id="Shuffle">
</g>
<g id="Undo">
</g>
<g id="Upgrade">
</g>
<g id="Coding">
</g>
<g id="Syncronizaion">
</g>
<g id="Radio">
</g>
<g id="Presentation">
</g>
<g id="Door">
</g>
<g id="Thumbs_Up">
</g>
<g id="Thumbs_Down">
</g>
<g id="Keyboard">
</g>
<g id="_x33_D_Cube">
</g>
<g id="Signal">
</g>
<g id="Dice">
</g>
<g id="Upload">
</g>
<g id="Download">
</g>
<g id="Plugin_2">
</g>
<g id="Shopping_Bag">
</g>
<g id="Lifebelt">
</g>
<g id="Glasses">
</g>
<g id="Parabolic_Antenna">
</g>
<g id="Loudspeaker">
</g>
<g id="Play">
</g>
<g id="Pause">
</g>
<g id="Signpost">
</g>
<g id="Bluetooth">
</g>
<g id="Present">
</g>
<g id="Ruler">
</g>
<g id="Connection">
</g>
<g id="Money">
</g>
<g id="Paper_Plane">
</g>
<g id="Wallet_2">
</g>
</svg>
