<?xml version="1.0" encoding="iso-8859-1"?>
<!-- Generator: Adobe Illustrator 19.2.1, SVG Export Plug-In . SVG Version: 6.00 Build 0)  -->
<svg version="1.1" xmlns="http://www.w3.org/2000/svg" xmlns:xlink="http://www.w3.org/1999/xlink" x="0px" y="0px"
	 viewBox="0 0 24 24" style="enable-background:new 0 0 24 24;" xml:space="preserve">
<g id="Credit_Card">
</g>
<g id="Banknote">
</g>
<g id="Wallet">
</g>
<g id="Compass">
</g>
<g id="Camera_1">
</g>
<g id="Photo">
	<g>
		<g>
			<path d="M20.5,24h-17C2.121,24,1,22.878,1,21.5v-19C1,1.122,2.121,0,3.5,0h17C21.879,0,23,1.122,23,2.5v19
				C23,22.878,21.879,24,20.5,24z M3.5,1C2.673,1,2,1.673,2,2.5v19C2,22.327,2.673,23,3.5,23h17c0.827,0,1.5-0.673,1.5-1.5v-19
				C22,1.673,21.327,1,20.5,1H3.5z"/>
		</g>
		<g>
			<path d="M19.5,16h-15C4.224,16,4,15.776,4,15.5v-12C4,3.224,4.224,3,4.5,3h15C19.776,3,20,3.224,20,3.5v12
				C20,15.776,19.776,16,19.5,16z M5,15h14V4H5V15z"/>
		</g>
		<g>
			<path d="M14.5,13c-0.143,0-0.285-0.061-0.384-0.18L9.5,7.281L4.884,12.82c-0.177,0.213-0.492,0.239-0.704,0.064
				c-0.212-0.177-0.24-0.492-0.063-0.705l5-6c0.189-0.228,0.578-0.228,0.768,0l5,6c0.177,0.212,0.148,0.528-0.063,0.705
				C14.727,12.962,14.613,13,14.5,13z"/>
		</g>
		<g>
			<path d="M19.5,14.5c-0.136,0-0.271-0.055-0.37-0.164l-4.647-5.112l-1.129,1.129c-0.195,0.195-0.512,0.195-0.707,0
				s-0.195-0.512,0-0.707l1.5-1.5C14.243,8.05,14.381,7.997,14.512,8c0.137,0.003,0.267,0.063,0.358,0.164l5,5.5
				c0.186,0.205,0.171,0.521-0.034,0.707C19.74,14.457,19.62,14.5,19.5,14.5z"/>
		</g>
	</g>
</g>
<g id="Picture">
</g>
<g id="Camera_2">
</g>
<g id="No_Camera">
</g>
<g id="Video">
</g>
<g id="Audio">
</g>
<g id="Microphone_1">
</g>
<g id="Microphone_2">
</g>
<g id="No_Microphone">
</g>
<g id="Shopping_Cart">
</g>
<g id="Add_Shopping_Cart">
</g>
<g id="Remove_Shopping_Cart">
</g>
<g id="Shopping_Basket">
</g>
<g id="Jing-Jang">
</g>
<g id="Leaf">
</g>
<g id="Glass">
</g>
<g id="Cup">
</g>
<g id="Mug">
</g>
<g id="Refresh">
</g>
<g id="Login">
</g>
<g id="Logout">
</g>
<g id="Flowchart">
</g>
<g id="Pin_1">
</g>
<g id="Pin_2">
</g>
<g id="User_1">
</g>
<g id="User_2">
</g>
<g id="Users">
</g>
<g id="Adjustments">
</g>
<g id="Type">
</g>
<g id="Format_Size">
</g>
<g id="Menu_1">
</g>
<g id="Other">
</g>
<g id="Flash">
</g>
<g id="No_Flash">
</g>
<g id="Switch_Button_1">
</g>
<g id="Switch_Button_2">
</g>
<g id="Cut">
</g>
<g id="Crop">
</g>
<g id="Sun">
</g>
<g id="USB">
</g>
<g id="Pie_Chart_1">
</g>
<g id="Pie_Chart_2">
</g>
<g id="Line_Chart">
</g>
<g id="Bar_Chart">
</g>
<g id="Target">
</g>
<g id="Flashlight">
</g>
<g id="USB_Device">
</g>
<g id="Eject">
</g>
<g id="Lightbulb">
</g>
<g id="Information">
</g>
<g id="Deactivate_Protection">
</g>
<g id="Active_Protection">
</g>
<g id="Bug">
</g>
<g id="Protection">
</g>
<g id="Phone">
</g>
<g id="List">
</g>
<g id="Plugin_1">
</g>
<g id="Bookmarrk">
</g>
<g id="Handshake">
</g>
<g id="Minimize">
</g>
<g id="Maximize">
</g>
<g id="Diamond">
</g>
<g id="Stop">
</g>
<g id="Shuffle">
</g>
<g id="Undo">
</g>
<g id="Upgrade">
</g>
<g id="Coding">
</g>
<g id="Syncronizaion">
</g>
<g id="Radio">
</g>
<g id="Presentation">
</g>
<g id="Door">
</g>
<g id="Thumbs_Up">
</g>
<g id="Thumbs_Down">
</g>
<g id="Keyboard">
</g>
<g id="_x33_D_Cube">
</g>
<g id="Signal">
</g>
<g id="Dice">
</g>
<g id="Upload">
</g>
<g id="Download">
</g>
<g id="Plugin_2">
</g>
<g id="Shopping_Bag">
</g>
<g id="Lifebelt">
</g>
<g id="Glasses">
</g>
<g id="Parabolic_Antenna">
</g>
<g id="Loudspeaker">
</g>
<g id="Play">
</g>
<g id="Pause">
</g>
<g id="Signpost">
</g>
<g id="Bluetooth">
</g>
<g id="Present">
</g>
<g id="Ruler">
</g>
<g id="Connection">
</g>
<g id="Money">
</g>
<g id="Paper_Plane">
</g>
<g id="Wallet_2">
</g>
</svg>
