<?xml version="1.0" encoding="iso-8859-1"?>
<!-- Generator: Adobe Illustrator 19.2.1, SVG Export Plug-In . SVG Version: 6.00 Build 0)  -->
<svg version="1.1" xmlns="http://www.w3.org/2000/svg" xmlns:xlink="http://www.w3.org/1999/xlink" x="0px" y="0px"
	 viewBox="0 0 24 24" style="enable-background:new 0 0 24 24;" xml:space="preserve">
<g id="Credit_Card">
</g>
<g id="Banknote">
</g>
<g id="Wallet">
</g>
<g id="Compass">
</g>
<g id="Camera_1">
</g>
<g id="Photo">
</g>
<g id="Picture">
</g>
<g id="Camera_2">
</g>
<g id="No_Camera">
</g>
<g id="Video">
</g>
<g id="Audio">
</g>
<g id="Microphone_1">
</g>
<g id="Microphone_2">
</g>
<g id="No_Microphone">
</g>
<g id="Shopping_Cart">
</g>
<g id="Add_Shopping_Cart">
</g>
<g id="Remove_Shopping_Cart">
</g>
<g id="Shopping_Basket">
</g>
<g id="Jing-Jang">
</g>
<g id="Leaf">
</g>
<g id="Glass">
</g>
<g id="Cup">
</g>
<g id="Mug">
</g>
<g id="Refresh">
</g>
<g id="Login">
</g>
<g id="Logout">
</g>
<g id="Flowchart">
</g>
<g id="Pin_1">
</g>
<g id="Pin_2">
</g>
<g id="User_1">
</g>
<g id="User_2">
</g>
<g id="Users">
</g>
<g id="Adjustments">
</g>
<g id="Type">
</g>
<g id="Format_Size">
</g>
<g id="Menu_1">
</g>
<g id="Other">
</g>
<g id="Flash">
</g>
<g id="No_Flash">
</g>
<g id="Switch_Button_1">
</g>
<g id="Switch_Button_2">
</g>
<g id="Cut">
</g>
<g id="Crop">
</g>
<g id="Sun">
</g>
<g id="USB">
</g>
<g id="Pie_Chart_1">
	<g>
		<g>
			<path d="M11.5,24C5.159,24,0,18.841,0,12.5S5.159,1,11.5,1S23,6.159,23,12.5S17.841,24,11.5,24z M11.5,2C5.71,2,1,6.71,1,12.5
				S5.71,23,11.5,23S22,18.29,22,12.5S17.29,2,11.5,2z"/>
		</g>
		<g>
			<path d="M11.5,19C7.916,19,5,16.084,5,12.5S7.916,6,11.5,6S18,8.916,18,12.5S15.084,19,11.5,19z M11.5,7C8.468,7,6,9.467,6,12.5
				S8.468,18,11.5,18s5.5-2.467,5.5-5.5S14.532,7,11.5,7z"/>
		</g>
		<g>
			<path d="M11.5,7C11.224,7,11,6.776,11,6.5v-5C11,1.224,11.224,1,11.5,1S12,1.224,12,1.5v5C12,6.776,11.776,7,11.5,7z"/>
		</g>
		<g>
			<path d="M5.71,11.421c-0.043,0-0.088-0.005-0.132-0.018l-4.825-1.316C0.486,10.015,0.33,9.74,0.402,9.474
				c0.073-0.266,0.346-0.425,0.614-0.351l4.825,1.316c0.267,0.073,0.423,0.348,0.351,0.614C6.132,11.275,5.93,11.421,5.71,11.421z"
				/>
		</g>
	</g>
</g>
<g id="Pie_Chart_2">
</g>
<g id="Line_Chart">
</g>
<g id="Bar_Chart">
</g>
<g id="Target">
</g>
<g id="Flashlight">
</g>
<g id="USB_Device">
</g>
<g id="Eject">
</g>
<g id="Lightbulb">
</g>
<g id="Information">
</g>
<g id="Deactivate_Protection">
</g>
<g id="Active_Protection">
</g>
<g id="Bug">
</g>
<g id="Protection">
</g>
<g id="Phone">
</g>
<g id="List">
</g>
<g id="Plugin_1">
</g>
<g id="Bookmarrk">
</g>
<g id="Handshake">
</g>
<g id="Minimize">
</g>
<g id="Maximize">
</g>
<g id="Diamond">
</g>
<g id="Stop">
</g>
<g id="Shuffle">
</g>
<g id="Undo">
</g>
<g id="Upgrade">
</g>
<g id="Coding">
</g>
<g id="Syncronizaion">
</g>
<g id="Radio">
</g>
<g id="Presentation">
</g>
<g id="Door">
</g>
<g id="Thumbs_Up">
</g>
<g id="Thumbs_Down">
</g>
<g id="Keyboard">
</g>
<g id="_x33_D_Cube">
</g>
<g id="Signal">
</g>
<g id="Dice">
</g>
<g id="Upload">
</g>
<g id="Download">
</g>
<g id="Plugin_2">
</g>
<g id="Shopping_Bag">
</g>
<g id="Lifebelt">
</g>
<g id="Glasses">
</g>
<g id="Parabolic_Antenna">
</g>
<g id="Loudspeaker">
</g>
<g id="Play">
</g>
<g id="Pause">
</g>
<g id="Signpost">
</g>
<g id="Bluetooth">
</g>
<g id="Present">
</g>
<g id="Ruler">
</g>
<g id="Connection">
</g>
<g id="Money">
</g>
<g id="Paper_Plane">
</g>
<g id="Wallet_2">
</g>
</svg>
