<?xml version="1.0" encoding="iso-8859-1"?>
<!-- Generator: Adobe Illustrator 19.2.1, SVG Export Plug-In . SVG Version: 6.00 Build 0)  -->
<svg version="1.1" xmlns="http://www.w3.org/2000/svg" xmlns:xlink="http://www.w3.org/1999/xlink" x="0px" y="0px"
	 viewBox="0 0 24 24" style="enable-background:new 0 0 24 24;" xml:space="preserve">
<g id="Credit_Card">
</g>
<g id="Banknote">
</g>
<g id="Wallet">
</g>
<g id="Compass">
</g>
<g id="Camera_1">
</g>
<g id="Photo">
</g>
<g id="Picture">
</g>
<g id="Camera_2">
</g>
<g id="No_Camera">
</g>
<g id="Video">
</g>
<g id="Audio">
</g>
<g id="Microphone_1">
</g>
<g id="Microphone_2">
</g>
<g id="No_Microphone">
</g>
<g id="Shopping_Cart">
</g>
<g id="Add_Shopping_Cart">
</g>
<g id="Remove_Shopping_Cart">
</g>
<g id="Shopping_Basket">
</g>
<g id="Jing-Jang">
</g>
<g id="Leaf">
</g>
<g id="Glass">
</g>
<g id="Cup">
</g>
<g id="Mug">
</g>
<g id="Refresh">
</g>
<g id="Login">
</g>
<g id="Logout">
</g>
<g id="Flowchart">
</g>
<g id="Pin_1">
</g>
<g id="Pin_2">
</g>
<g id="User_1">
</g>
<g id="User_2">
</g>
<g id="Users">
</g>
<g id="Adjustments">
</g>
<g id="Type">
</g>
<g id="Format_Size">
</g>
<g id="Menu_1">
</g>
<g id="Other">
</g>
<g id="Flash">
</g>
<g id="No_Flash">
</g>
<g id="Switch_Button_1">
</g>
<g id="Switch_Button_2">
</g>
<g id="Cut">
</g>
<g id="Crop">
</g>
<g id="Sun">
</g>
<g id="USB">
</g>
<g id="Pie_Chart_1">
</g>
<g id="Pie_Chart_2">
</g>
<g id="Line_Chart">
</g>
<g id="Bar_Chart">
</g>
<g id="Target">
</g>
<g id="Flashlight">
</g>
<g id="USB_Device">
</g>
<g id="Eject">
</g>
<g id="Lightbulb">
</g>
<g id="Information">
</g>
<g id="Deactivate_Protection">
</g>
<g id="Active_Protection">
</g>
<g id="Bug">
</g>
<g id="Protection">
</g>
<g id="Phone">
</g>
<g id="List">
</g>
<g id="Plugin_1">
	<g>
		<g>
			<path d="M11.972,8.528c-0.128,0-0.256-0.049-0.354-0.146c-0.195-0.195-0.195-0.512,0-0.707l5.125-5.125
				c0.355-0.354,0.355-0.933,0-1.287c-0.355-0.355-0.949-0.35-1.293-0.006l-5.13,5.13c-0.195,0.195-0.512,0.195-0.707,0
				s-0.195-0.512,0-0.707l5.13-5.13c0.722-0.724,1.98-0.721,2.701,0c0.75,0.751,0.75,1.962,0.006,2.707l-5.125,5.125
				C12.228,8.479,12.1,8.528,11.972,8.528z"/>
		</g>
		<g>
			<path d="M17.986,14.514c-0.128,0-0.256-0.049-0.354-0.146c-0.195-0.195-0.195-0.512,0-0.707l5.11-5.11
				c0.355-0.354,0.355-0.933,0-1.287c-0.355-0.355-0.949-0.35-1.293-0.006l-5.115,5.115c-0.195,0.195-0.512,0.195-0.707,0
				s-0.195-0.512,0-0.707l5.115-5.115c0.722-0.724,1.98-0.721,2.701,0c0.75,0.751,0.75,1.962,0.006,2.707l-5.11,5.11
				C18.242,14.465,18.114,14.514,17.986,14.514z"/>
		</g>
		<g>
			<path d="M0.49,22.01c-0.128,0-0.256-0.049-0.354-0.146c-0.195-0.195-0.195-0.512,0-0.707l3.5-3.5
				c0.195-0.195,0.512-0.195,0.707,0s0.195,0.512,0,0.707l-3.5,3.5C0.746,21.961,0.618,22.01,0.49,22.01z"/>
		</g>
		<g>
			<path d="M2.49,24.01c-0.128,0-0.256-0.049-0.354-0.146c-0.195-0.195-0.195-0.512,0-0.707l3.5-3.5
				c0.195-0.195,0.512-0.195,0.707,0s0.195,0.512,0,0.707l-3.5,3.5C2.746,23.961,2.618,24.01,2.49,24.01z"/>
		</g>
		<g>
			<path d="M9.49,21.937c-1.409,0-2.817-0.536-3.889-1.608l-1.929-1.929c-1.039-1.039-1.611-2.42-1.611-3.89
				c0-1.469,0.572-2.851,1.611-3.889L6.783,7.51L6.137,6.863C6.043,6.77,5.99,6.643,5.99,6.51s0.053-0.26,0.146-0.354L8.11,4.184
				c0.195-0.194,0.511-0.195,0.706-0.001l11.054,11c0.095,0.095,0.148,0.224,0.147,0.357c-0.001,0.134-0.055,0.262-0.151,0.355
				l-2.027,1.973c-0.197,0.19-0.509,0.188-0.702-0.005l-0.646-0.646l-3.111,3.111C12.307,21.4,10.898,21.937,9.49,21.937z
				 M7.197,6.51l0.646,0.646c0.195,0.195,0.195,0.512,0,0.707l-3.464,3.465c-0.85,0.85-1.318,1.979-1.318,3.182
				s0.468,2.332,1.318,3.183l1.929,1.929c1.755,1.754,4.609,1.754,6.364,0l3.464-3.465c0.188-0.188,0.52-0.188,0.707,0l0.651,0.651
				l1.309-1.274L8.464,5.243L7.197,6.51z"/>
		</g>
	</g>
</g>
<g id="Bookmarrk">
</g>
<g id="Handshake">
</g>
<g id="Minimize">
</g>
<g id="Maximize">
</g>
<g id="Diamond">
</g>
<g id="Stop">
</g>
<g id="Shuffle">
</g>
<g id="Undo">
</g>
<g id="Upgrade">
</g>
<g id="Coding">
</g>
<g id="Syncronizaion">
</g>
<g id="Radio">
</g>
<g id="Presentation">
</g>
<g id="Door">
</g>
<g id="Thumbs_Up">
</g>
<g id="Thumbs_Down">
</g>
<g id="Keyboard">
</g>
<g id="_x33_D_Cube">
</g>
<g id="Signal">
</g>
<g id="Dice">
</g>
<g id="Upload">
</g>
<g id="Download">
</g>
<g id="Plugin_2">
</g>
<g id="Shopping_Bag">
</g>
<g id="Lifebelt">
</g>
<g id="Glasses">
</g>
<g id="Parabolic_Antenna">
</g>
<g id="Loudspeaker">
</g>
<g id="Play">
</g>
<g id="Pause">
</g>
<g id="Signpost">
</g>
<g id="Bluetooth">
</g>
<g id="Present">
</g>
<g id="Ruler">
</g>
<g id="Connection">
</g>
<g id="Money">
</g>
<g id="Paper_Plane">
</g>
<g id="Wallet_2">
</g>
</svg>
