<?xml version="1.0" encoding="iso-8859-1"?>
<!-- Generator: Adobe Illustrator 19.2.1, SVG Export Plug-In . SVG Version: 6.00 Build 0)  -->
<svg version="1.1" xmlns="http://www.w3.org/2000/svg" xmlns:xlink="http://www.w3.org/1999/xlink" x="0px" y="0px"
	 viewBox="0 0 24 24" style="enable-background:new 0 0 24 24;" xml:space="preserve">
<g id="Credit_Card">
</g>
<g id="Banknote">
</g>
<g id="Wallet">
</g>
<g id="Compass">
</g>
<g id="Camera_1">
</g>
<g id="Photo">
</g>
<g id="Picture">
</g>
<g id="Camera_2">
</g>
<g id="No_Camera">
</g>
<g id="Video">
</g>
<g id="Audio">
</g>
<g id="Microphone_1">
</g>
<g id="Microphone_2">
</g>
<g id="No_Microphone">
</g>
<g id="Shopping_Cart">
</g>
<g id="Add_Shopping_Cart">
</g>
<g id="Remove_Shopping_Cart">
</g>
<g id="Shopping_Basket">
</g>
<g id="Jing-Jang">
</g>
<g id="Leaf">
</g>
<g id="Glass">
</g>
<g id="Cup">
</g>
<g id="Mug">
</g>
<g id="Refresh">
</g>
<g id="Login">
</g>
<g id="Logout">
</g>
<g id="Flowchart">
</g>
<g id="Pin_1">
</g>
<g id="Pin_2">
</g>
<g id="User_1">
</g>
<g id="User_2">
</g>
<g id="Users">
</g>
<g id="Adjustments">
</g>
<g id="Type">
</g>
<g id="Format_Size">
</g>
<g id="Menu_1">
</g>
<g id="Other">
</g>
<g id="Flash">
</g>
<g id="No_Flash">
</g>
<g id="Switch_Button_1">
</g>
<g id="Switch_Button_2">
</g>
<g id="Cut">
</g>
<g id="Crop">
</g>
<g id="Sun">
</g>
<g id="USB">
</g>
<g id="Pie_Chart_1">
</g>
<g id="Pie_Chart_2">
</g>
<g id="Line_Chart">
</g>
<g id="Bar_Chart">
</g>
<g id="Target">
</g>
<g id="Flashlight">
</g>
<g id="USB_Device">
</g>
<g id="Eject">
</g>
<g id="Lightbulb">
</g>
<g id="Information">
</g>
<g id="Deactivate_Protection">
</g>
<g id="Active_Protection">
</g>
<g id="Bug">
</g>
<g id="Protection">
</g>
<g id="Phone">
</g>
<g id="List">
</g>
<g id="Plugin_1">
</g>
<g id="Bookmarrk">
</g>
<g id="Handshake">
</g>
<g id="Minimize">
</g>
<g id="Maximize">
</g>
<g id="Diamond">
</g>
<g id="Stop">
</g>
<g id="Shuffle">
</g>
<g id="Undo">
</g>
<g id="Upgrade">
</g>
<g id="Coding">
</g>
<g id="Syncronizaion">
</g>
<g id="Radio">
</g>
<g id="Presentation">
</g>
<g id="Door">
</g>
<g id="Thumbs_Up">
</g>
<g id="Thumbs_Down">
</g>
<g id="Keyboard">
</g>
<g id="_x33_D_Cube">
</g>
<g id="Signal">
</g>
<g id="Dice">
</g>
<g id="Upload">
</g>
<g id="Download">
</g>
<g id="Plugin_2">
	<g>
		<path d="M14.5,24H10c-0.551,0-1-0.448-1-1c0-0.57,0.288-1.065,0.75-1.335C10.521,21.218,11,20.389,11,19.5
			c0-0.743-0.327-1.442-0.898-1.92c-0.579-0.483-1.314-0.677-2.072-0.537c-0.987,0.178-1.804,0.991-1.985,1.978
			c-0.198,1.075,0.28,2.116,1.217,2.652C7.717,21.933,8,22.426,8,22.958C8,23.552,7.551,24,7,24H2.5C1.122,24,0,22.879,0,21.5v-12
			C0,8.121,1.122,7,2.5,7H7c0-0.186-0.1-0.383-0.234-0.459c-1.312-0.75-1.98-2.203-1.705-3.701c0.255-1.388,1.403-2.531,2.792-2.781
			c1.041-0.186,2.092,0.087,2.891,0.755C11.542,1.48,12,2.46,12,3.5c0,1.244-0.669,2.405-1.747,3.029
			C10.107,6.614,10,6.813,10,6.999L14.5,7C15.878,7,17,8.121,17,9.5V14c0.001,0,0.002,0,0.003,0c0.215,0,0.374-0.09,0.456-0.234
			c0.749-1.311,2.202-1.979,3.701-1.705c1.387,0.255,2.53,1.402,2.781,2.791c0.188,1.039-0.087,2.093-0.754,2.892
			C22.52,18.542,21.54,19,20.5,19c-1.244,0-2.405-0.669-3.03-1.746C17.378,17.095,17.218,17,17.042,17L17,21.5
			C17,22.879,15.878,24,14.5,24z M8.493,16.001c0.821,0,1.615,0.282,2.25,0.813C11.542,17.48,12,18.46,12,19.5
			c0,1.244-0.669,2.405-1.747,3.029C10.095,22.621,10,22.781,10,22.958L14.5,23c0.827,0,1.5-0.673,1.5-1.5V17c0-0.552,0.449-1,1-1
			c0.571,0,1.067,0.288,1.335,0.752C18.782,17.521,19.611,18,20.5,18c0.743,0,1.442-0.327,1.919-0.898
			c0.483-0.578,0.675-1.314,0.538-2.072l0,0c-0.178-0.987-0.991-1.804-1.977-1.984c-1.075-0.205-2.117,0.279-2.652,1.217
			c-0.26,0.456-0.753,0.739-1.286,0.739C16.449,15,16,14.552,16,14V9.5C16,8.673,15.327,8,14.5,8H10C9.449,8,9,7.552,9,7
			c0-0.546,0.295-1.069,0.751-1.335C10.522,5.218,11,4.389,11,3.5c0-0.743-0.327-1.442-0.898-1.92
			C9.523,1.097,8.788,0.903,8.03,1.043C7.042,1.221,6.226,2.034,6.044,3.021c-0.197,1.075,0.28,2.116,1.217,2.652
			C7.71,5.929,8.001,6.45,8.001,7C7.999,7.552,7.55,8,7,8H2.5C1.673,8,1,8.673,1,9.5v12C1,22.327,1.673,23,2.5,23H7
			c0-0.217-0.09-0.377-0.235-0.459c-1.312-0.75-1.98-2.203-1.705-3.702c0.255-1.387,1.403-2.53,2.791-2.78
			C8.066,16.021,8.28,16.001,8.493,16.001z"/>
	</g>
</g>
<g id="Shopping_Bag">
</g>
<g id="Lifebelt">
</g>
<g id="Glasses">
</g>
<g id="Parabolic_Antenna">
</g>
<g id="Loudspeaker">
</g>
<g id="Play">
</g>
<g id="Pause">
</g>
<g id="Signpost">
</g>
<g id="Bluetooth">
</g>
<g id="Present">
</g>
<g id="Ruler">
</g>
<g id="Connection">
</g>
<g id="Money">
</g>
<g id="Paper_Plane">
</g>
<g id="Wallet_2">
</g>
</svg>
