<?xml version="1.0" encoding="iso-8859-1"?>
<!-- Generator: Adobe Illustrator 19.2.1, SVG Export Plug-In . SVG Version: 6.00 Build 0)  -->
<svg version="1.1" xmlns="http://www.w3.org/2000/svg" xmlns:xlink="http://www.w3.org/1999/xlink" x="0px" y="0px"
	 viewBox="0 0 24 24" style="enable-background:new 0 0 24 24;" xml:space="preserve">
<g id="Mail">
</g>
<g id="Open_Mail">
</g>
<g id="Mail_Attachmet">
</g>
<g id="Mails">
</g>
<g id="Trash">
</g>
<g id="Trash_Full">
</g>
<g id="Preferences_1">
</g>
<g id="Preferences_2">
	<g>
		<g>
			<g>
				<path d="M3,24c-0.77,0-1.52-0.311-2.062-0.853L0.845,23.05C0.303,22.508,0,21.777,0,21c0-0.77,0.311-1.52,0.853-2.061
					l6.898-6.225c0.092-0.083,0.211-0.129,0.335-0.129l0,0c0.001,0,0.001,0,0.002,0c0.399,0,0.775-0.156,1.059-0.439
					c0.195-0.195,0.512-0.195,0.707,0c0.195,0.195,0.195,0.512,0,0.708c-0.424,0.425-0.975,0.678-1.566,0.724l-6.746,6.086
					C1.204,20.001,1,20.494,1,20.997c0,0.514,0.199,0.993,0.56,1.354l0.094,0.098c0.703,0.703,1.982,0.707,2.697-0.008
					c3.563-3.846,5.631-6.078,6.157-6.646c0.048-0.591,0.301-1.14,0.725-1.563c0.195-0.194,0.512-0.195,0.707,0
					c0.195,0.196,0.195,0.512,0,0.708C11.656,15.223,11.5,15.599,11.5,16c0,0.127-0.05,0.251-0.137,0.344
					c-0.1,0.106-6.292,6.79-6.292,6.79C4.508,23.697,3.777,24,3,24z"/>
			</g>
			<g>
				<path d="M14.25,11.75c-0.128,0-0.256-0.049-0.354-0.146c-0.195-0.195-0.195-0.512,0-0.707l5.75-5.75C19.74,5.053,19.867,5,20,5
					h1.191l1.7-3.401l-0.49-0.49L19,2.809V4c0,0.133-0.053,0.26-0.146,0.354l-5.75,5.75c-0.195,0.195-0.512,0.195-0.707,0
					s-0.195-0.512,0-0.707L18,3.793V2.5c0-0.189,0.107-0.362,0.276-0.447l4-2c0.193-0.097,0.425-0.059,0.577,0.094l1,1
					c0.152,0.152,0.19,0.385,0.094,0.577l-2,4C21.862,5.893,21.689,6,21.5,6h-1.293l-5.604,5.604
					C14.506,11.701,14.378,11.75,14.25,11.75z"/>
			</g>
		</g>
		<g>
			<g>
				<path d="M22,24c-0.7,0-1.358-0.272-1.853-0.768L7.484,10.215C7.106,9.827,6.547,9.671,6.022,9.813C5.548,9.94,5.223,10,5,10
					c-1.371,0-2.697-0.572-3.639-1.57C0.407,7.417-0.073,6.092,0.009,4.699c0.01-0.172,0.108-0.327,0.26-0.41
					c0.154-0.085,0.364-0.092,0.517,0L3.521,5.93C4.353,5.5,4.896,4.693,4.986,3.775L1.931,1.941C1.79,1.857,1.7,1.71,1.688,1.547
					C1.678,1.384,1.746,1.226,1.874,1.124c0.88-0.71,1.925-1.099,3.02-1.123c1.234-0.022,2.438,0.485,3.395,1.44
					c1.227,1.226,1.722,2.836,1.433,4.659c-0.078,0.49,0.083,0.983,0.431,1.321l13.076,12.72C23.721,20.634,24,21.31,24,21.999
					C24,23.103,23.103,24,22,24z M6.41,8.762c0.665,0,1.314,0.266,1.791,0.756L20.859,22.53C21.16,22.832,21.567,23,22,23
					c0.552,0,1-0.449,1-1c0-0.433-0.169-0.84-0.475-1.146L9.454,8.139c-0.58-0.564-0.85-1.384-0.722-2.194
					c0.24-1.515-0.146-2.792-1.151-3.795C6.82,1.389,5.918,0.981,4.915,1.001c-0.63,0.014-1.24,0.18-1.798,0.487l2.64,1.583
					C5.908,3.162,6,3.324,6,3.5c0,1.424-0.791,2.705-2.065,3.342L3.724,6.947C3.57,7.023,3.388,7.016,3.243,6.929L1.045,5.61
					c0.121,0.796,0.479,1.533,1.044,2.133C2.854,8.554,3.887,9,5,9c0.059,0,0.25-0.015,0.763-0.153
					C5.977,8.79,6.194,8.762,6.41,8.762z"/>
			</g>
		</g>
	</g>
</g>
<g id="Mouse">
</g>
<g id="Computer">
</g>
<g id="Notebook">
</g>
<g id="Mobile_Phone">
</g>
<g id="Print">
</g>
<g id="Calculator">
</g>
<g id="Tag">
</g>
<g id="Paperclip">
</g>
<g id="Heart">
</g>
<g id="Lock">
</g>
<g id="Lock_Open">
</g>
<g id="Key_1">
</g>
<g id="Star">
</g>
<g id="Add">
</g>
<g id="Remove">
</g>
<g id="Error">
</g>
<g id="Check_1">
</g>
<g id="Time">
</g>
<g id="Question_Mark">
</g>
<g id="Error_Mark">
</g>
<g id="Sand-Glass">
</g>
<g id="Battery_Full">
</g>
<g id="Battery_Charge">
</g>
<g id="Battery_Half">
</g>
<g id="Battery_Low">
</g>
<g id="No_Battery">
</g>
<g id="Key_2">
</g>
<g id="Link">
</g>
<g id="Brake_Link">
</g>
<g id="Pencil">
</g>
<g id="At">
</g>
<g id="Reply">
</g>
<g id="Accessible">
</g>
<g id="Up_Arrow">
</g>
<g id="Brush">
</g>
<g id="Design_Mug">
</g>
<g id="Design">
</g>
<g id="Server">
</g>
<g id="Database">
</g>
<g id="Save">
</g>
<g id="Female">
</g>
<g id="Male">
</g>
<g id="Book">
</g>
<g id="Power">
</g>
<g id="Reload">
</g>
<g id="Map">
</g>
<g id="Loction_1">
</g>
<g id="Location_2">
</g>
<g id="Globe">
</g>
<g id="Suitcase">
</g>
<g id="Callendar">
</g>
<g id="Cloud_Off">
</g>
<g id="File_1">
</g>
<g id="File_2">
</g>
<g id="Folder">
</g>
<g id="Open_Folder">
</g>
<g id="Cloud">
</g>
<g id="Upload_Cloud">
</g>
<g id="Download_Cloud">
</g>
<g id="Eye">
</g>
<g id="Invisible">
</g>
<g id="Assignment">
</g>
<g id="Note_Book">
</g>
<g id="Webpage">
</g>
<g id="Mailbox">
</g>
<g id="Drive">
</g>
<g id="Disc">
</g>
<g id="Wifi_1">
</g>
<g id="Wifi_2">
</g>
<g id="Archive">
</g>
<g id="Archive_File">
</g>
<g id="News">
</g>
<g id="Home">
</g>
<g id="Collaboration">
</g>
<g id="Announcement">
</g>
<g id="Watch">
</g>
<g id="Clock">
</g>
<g id="Volume">
</g>
<g id="Mute">
</g>
<g id="Hand">
</g>
<g id="Layers">
</g>
<g id="Bell">
</g>
<g id="Speach_Bubble">
</g>
<g id="Speach_Bubbles">
</g>
<g id="Zoom_In">
</g>
<g id="Zoom_Out">
</g>
<g id="Search">
</g>
<g id="Back_Arrow">
</g>
<g id="Close">
</g>
<g id="Check_2">
</g>
<g id="Left_Arrow_2">
</g>
<g id="Right_Arrow_2">
</g>
</svg>
