<?xml version="1.0" encoding="iso-8859-1"?>
<!-- Generator: Adobe Illustrator 19.2.1, SVG Export Plug-In . SVG Version: 6.00 Build 0)  -->
<svg version="1.1" xmlns="http://www.w3.org/2000/svg" xmlns:xlink="http://www.w3.org/1999/xlink" x="0px" y="0px"
	 viewBox="0 0 24 24" style="enable-background:new 0 0 24 24;" xml:space="preserve">
<g id="Credit_Card">
</g>
<g id="Banknote">
</g>
<g id="Wallet">
</g>
<g id="Compass">
</g>
<g id="Camera_1">
</g>
<g id="Photo">
</g>
<g id="Picture">
</g>
<g id="Camera_2">
</g>
<g id="No_Camera">
</g>
<g id="Video">
</g>
<g id="Audio">
</g>
<g id="Microphone_1">
</g>
<g id="Microphone_2">
</g>
<g id="No_Microphone">
</g>
<g id="Shopping_Cart">
</g>
<g id="Add_Shopping_Cart">
</g>
<g id="Remove_Shopping_Cart">
</g>
<g id="Shopping_Basket">
</g>
<g id="Jing-Jang">
</g>
<g id="Leaf">
</g>
<g id="Glass">
</g>
<g id="Cup">
</g>
<g id="Mug">
</g>
<g id="Refresh">
</g>
<g id="Login">
</g>
<g id="Logout">
</g>
<g id="Flowchart">
</g>
<g id="Pin_1">
</g>
<g id="Pin_2">
</g>
<g id="User_1">
</g>
<g id="User_2">
</g>
<g id="Users">
</g>
<g id="Adjustments">
</g>
<g id="Type">
</g>
<g id="Format_Size">
</g>
<g id="Menu_1">
</g>
<g id="Other">
</g>
<g id="Flash">
</g>
<g id="No_Flash">
</g>
<g id="Switch_Button_1">
</g>
<g id="Switch_Button_2">
</g>
<g id="Cut">
</g>
<g id="Crop">
</g>
<g id="Sun">
</g>
<g id="USB">
</g>
<g id="Pie_Chart_1">
</g>
<g id="Pie_Chart_2">
</g>
<g id="Line_Chart">
</g>
<g id="Bar_Chart">
</g>
<g id="Target">
</g>
<g id="Flashlight">
</g>
<g id="USB_Device">
</g>
<g id="Eject">
</g>
<g id="Lightbulb">
</g>
<g id="Information">
</g>
<g id="Deactivate_Protection">
</g>
<g id="Active_Protection">
</g>
<g id="Bug">
</g>
<g id="Protection">
</g>
<g id="Phone">
</g>
<g id="List">
</g>
<g id="Plugin_1">
</g>
<g id="Bookmarrk">
</g>
<g id="Handshake">
</g>
<g id="Minimize">
</g>
<g id="Maximize">
</g>
<g id="Diamond">
</g>
<g id="Stop">
</g>
<g id="Shuffle">
</g>
<g id="Undo">
</g>
<g id="Upgrade">
</g>
<g id="Coding">
</g>
<g id="Syncronizaion">
</g>
<g id="Radio">
</g>
<g id="Presentation">
</g>
<g id="Door">
</g>
<g id="Thumbs_Up">
</g>
<g id="Thumbs_Down">
</g>
<g id="Keyboard">
</g>
<g id="_x33_D_Cube">
</g>
<g id="Signal">
</g>
<g id="Dice">
</g>
<g id="Upload">
</g>
<g id="Download">
</g>
<g id="Plugin_2">
</g>
<g id="Shopping_Bag">
</g>
<g id="Lifebelt">
</g>
<g id="Glasses">
</g>
<g id="Parabolic_Antenna">
</g>
<g id="Loudspeaker">
</g>
<g id="Play">
</g>
<g id="Pause">
</g>
<g id="Signpost">
</g>
<g id="Bluetooth">
</g>
<g id="Present">
	<g>
		<g>
			<path d="M21.5,24h-20C1.224,24,1,23.776,1,23.5v-14C1,9.224,1.224,9,1.5,9h20C21.776,9,22,9.224,22,9.5v14
				C22,23.776,21.776,24,21.5,24z M2,23h19V10H2V23z"/>
		</g>
		<g>
			<path d="M22.5,10h-22C0.224,10,0,9.776,0,9.5v-4C0,5.224,0.224,5,0.5,5h22C22.776,5,23,5.224,23,5.5v4
				C23,9.776,22.776,10,22.5,10z M1,9h21V6H1V9z"/>
		</g>
		<g>
			<path d="M11.5,24c-0.276,0-0.5-0.224-0.5-0.5v-18C11,5.224,11.224,5,11.5,5S12,5.224,12,5.5v18C12,23.776,11.776,24,11.5,24z"/>
		</g>
		<g>
			<path d="M11.521,5.986c-0.022,0-0.045-0.002-0.068-0.005c-0.562-0.077-5.505-0.804-6.99-2.701
				C4.46,3.276,4.457,3.271,4.453,3.268C4.161,2.911,4,2.461,4,2c0-1.103,0.897-2,2-2c0.133,0,0.262,0.013,0.388,0.038
				c2.043,0.346,5.109,2.933,5.623,5.344c0.034,0.159-0.012,0.325-0.123,0.444C11.792,5.929,11.66,5.986,11.521,5.986z M5.208,2.61
				c0.01,0.011,0.02,0.022,0.029,0.035c0.866,1.144,3.805,1.893,5.546,2.214C9.97,3.089,7.707,1.275,6.208,1.021
				C6.131,1.007,6.066,1,6,1C5.449,1,5,1.448,5,2C5,2.224,5.072,2.435,5.208,2.61z"/>
		</g>
		<g>
			<path d="M11.479,5.986c-0.138,0-0.271-0.058-0.366-0.16c-0.111-0.119-0.157-0.285-0.123-0.444
				c0.514-2.411,3.58-4.998,5.636-5.347C16.738,0.013,16.867,0,17,0c1.103,0,2,0.897,2,2c0,0.461-0.161,0.911-0.453,1.268
				c-0.004,0.004-0.007,0.009-0.011,0.013c-1.485,1.897-6.428,2.624-6.99,2.701C11.524,5.984,11.501,5.986,11.479,5.986z M17,1
				c-0.066,0-0.131,0.007-0.194,0.019c-1.511,0.256-3.775,2.069-4.589,3.841c1.742-0.321,4.681-1.072,5.546-2.214
				c0.009-0.013,0.019-0.024,0.029-0.035C17.928,2.434,18,2.224,18,2C18,1.448,17.551,1,17,1z"/>
		</g>
	</g>
</g>
<g id="Ruler">
</g>
<g id="Connection">
</g>
<g id="Money">
</g>
<g id="Paper_Plane">
</g>
<g id="Wallet_2">
</g>
</svg>
