<?xml version="1.0" encoding="iso-8859-1"?>
<!-- Generator: Adobe Illustrator 19.2.1, SVG Export Plug-In . SVG Version: 6.00 Build 0)  -->
<svg version="1.1" xmlns="http://www.w3.org/2000/svg" xmlns:xlink="http://www.w3.org/1999/xlink" x="0px" y="0px"
	 viewBox="0 0 24 24" style="enable-background:new 0 0 24 24;" xml:space="preserve">
<g id="Credit_Card">
</g>
<g id="Banknote">
</g>
<g id="Wallet">
</g>
<g id="Compass">
</g>
<g id="Camera_1">
</g>
<g id="Photo">
</g>
<g id="Picture">
</g>
<g id="Camera_2">
</g>
<g id="No_Camera">
</g>
<g id="Video">
</g>
<g id="Audio">
</g>
<g id="Microphone_1">
</g>
<g id="Microphone_2">
</g>
<g id="No_Microphone">
</g>
<g id="Shopping_Cart">
</g>
<g id="Add_Shopping_Cart">
</g>
<g id="Remove_Shopping_Cart">
</g>
<g id="Shopping_Basket">
</g>
<g id="Jing-Jang">
</g>
<g id="Leaf">
</g>
<g id="Glass">
</g>
<g id="Cup">
</g>
<g id="Mug">
</g>
<g id="Refresh">
</g>
<g id="Login">
</g>
<g id="Logout">
</g>
<g id="Flowchart">
</g>
<g id="Pin_1">
</g>
<g id="Pin_2">
</g>
<g id="User_1">
</g>
<g id="User_2">
</g>
<g id="Users">
</g>
<g id="Adjustments">
</g>
<g id="Type">
</g>
<g id="Format_Size">
</g>
<g id="Menu_1">
</g>
<g id="Other">
</g>
<g id="Flash">
</g>
<g id="No_Flash">
</g>
<g id="Switch_Button_1">
</g>
<g id="Switch_Button_2">
</g>
<g id="Cut">
</g>
<g id="Crop">
</g>
<g id="Sun">
</g>
<g id="USB">
</g>
<g id="Pie_Chart_1">
</g>
<g id="Pie_Chart_2">
</g>
<g id="Line_Chart">
</g>
<g id="Bar_Chart">
</g>
<g id="Target">
</g>
<g id="Flashlight">
</g>
<g id="USB_Device">
</g>
<g id="Eject">
</g>
<g id="Lightbulb">
</g>
<g id="Information">
</g>
<g id="Deactivate_Protection">
</g>
<g id="Active_Protection">
</g>
<g id="Bug">
</g>
<g id="Protection">
	<g>
		<g>
			<path d="M11.499,24c-0.083,0-0.167-0.021-0.242-0.063c-0.378-0.209-9.258-5.194-9.258-11.438V1.656
				c0-0.197,0.116-0.376,0.296-0.456c0.181-0.08,0.392-0.048,0.538,0.084c1.008,0.903,2.31,1.4,3.666,1.4
				c1.848,0,3.562-0.92,4.586-2.461C11.177,0.084,11.334,0,11.501,0l0,0c0.168,0,0.324,0.084,0.417,0.224
				c1.021,1.541,2.735,2.461,4.583,2.461c1.341,0,2.63-0.486,3.635-1.371c0.221-0.236,0.705-0.164,0.832,0.164
				c0.027,0.072,0.037,0.148,0.031,0.223v10.8c0,6.243-8.88,11.229-9.258,11.438C11.666,23.979,11.582,24,11.499,24z M2.999,2.663
				V12.5c0,5.122,7.088,9.584,8.5,10.422c1.411-0.838,8.5-5.305,8.5-10.422V2.664c-1.038,0.663-2.249,1.021-3.498,1.021
				c-1.949,0-3.772-0.866-5.002-2.348c-1.228,1.481-3.051,2.348-5,2.348C5.249,3.685,4.038,3.327,2.999,2.663z"/>
		</g>
		<g>
			<path d="M11.501,21.666c-0.082,0-0.165-0.021-0.24-0.062c-0.16-0.088-0.26-0.256-0.26-0.438V13H4.498
				c-0.133,0-0.26-0.053-0.354-0.146S3.998,12.633,3.998,12.5l0.001-7.568c0-0.154,0.071-0.301,0.193-0.396
				C4.315,4.44,4.475,4.407,4.624,4.447c2.242,0.579,4.748,0.049,6.563-1.406c0.148-0.121,0.354-0.144,0.529-0.062
				C11.89,3.063,12,3.238,12,3.431V12h6.498c0.276,0,0.5,0.224,0.5,0.5c0.001,4.138-5.531,8.001-7.228,9.087
				C11.688,21.64,11.595,21.666,11.501,21.666z M12.001,13v7.233c2.839-1.961,5.628-4.706,5.964-7.233H12.001z M4.999,12H11V4.396
				c-1.766,1.1-3.944,1.521-6.001,1.155V12z"/>
		</g>
	</g>
</g>
<g id="Phone">
</g>
<g id="List">
</g>
<g id="Plugin_1">
</g>
<g id="Bookmarrk">
</g>
<g id="Handshake">
</g>
<g id="Minimize">
</g>
<g id="Maximize">
</g>
<g id="Diamond">
</g>
<g id="Stop">
</g>
<g id="Shuffle">
</g>
<g id="Undo">
</g>
<g id="Upgrade">
</g>
<g id="Coding">
</g>
<g id="Syncronizaion">
</g>
<g id="Radio">
</g>
<g id="Presentation">
</g>
<g id="Door">
</g>
<g id="Thumbs_Up">
</g>
<g id="Thumbs_Down">
</g>
<g id="Keyboard">
</g>
<g id="_x33_D_Cube">
</g>
<g id="Signal">
</g>
<g id="Dice">
</g>
<g id="Upload">
</g>
<g id="Download">
</g>
<g id="Plugin_2">
</g>
<g id="Shopping_Bag">
</g>
<g id="Lifebelt">
</g>
<g id="Glasses">
</g>
<g id="Parabolic_Antenna">
</g>
<g id="Loudspeaker">
</g>
<g id="Play">
</g>
<g id="Pause">
</g>
<g id="Signpost">
</g>
<g id="Bluetooth">
</g>
<g id="Present">
</g>
<g id="Ruler">
</g>
<g id="Connection">
</g>
<g id="Money">
</g>
<g id="Paper_Plane">
</g>
<g id="Wallet_2">
</g>
</svg>
