<?xml version="1.0" encoding="iso-8859-1"?>
<!-- Generator: Adobe Illustrator 19.2.1, SVG Export Plug-In . SVG Version: 6.00 Build 0)  -->
<svg version="1.1" xmlns="http://www.w3.org/2000/svg" xmlns:xlink="http://www.w3.org/1999/xlink" x="0px" y="0px"
	 viewBox="0 0 24 24" style="enable-background:new 0 0 24 24;" xml:space="preserve">
<g id="Flag">
</g>
<g id="Umbrella">
</g>
<g id="Briefcase">
</g>
<g id="Box">
</g>
<g id="Magnet">
</g>
<g id="Percent">
</g>
<g id="Rocket">
</g>
<g id="Share">
</g>
<g id="Transmitter">
</g>
<g id="Record_2">
</g>
<g id="Record_1">
</g>
<g id="Anchor">
</g>
<g id="Airplane">
</g>
<g id="Car">
</g>
<g id="Newsfeed">
</g>
<g id="Wifi_Tethering">
</g>
<g id="No_Wifi_Tethering">
</g>
<g id="Bar_Chart_2">
</g>
<g id="Shop">
</g>
<g id="Alarm">
</g>
<g id="Sim_Card">
</g>
<g id="Radar">
	<g>
		<g>
			<path d="M11.5,14c-0.827,0-1.5-0.673-1.5-1.5s0.673-1.5,1.5-1.5s1.5,0.673,1.5,1.5S12.327,14,11.5,14z M11.5,12
				c-0.276,0-0.5,0.225-0.5,0.5s0.224,0.5,0.5,0.5s0.5-0.225,0.5-0.5S11.776,12,11.5,12z"/>
		</g>
		<g>
			<path d="M11.5,18C8.467,18,6,15.532,6,12.5S8.467,7,11.5,7C11.776,7,12,7.224,12,7.5S11.776,8,11.5,8C9.019,8,7,10.019,7,12.5
				S9.019,17,11.5,17s4.5-2.019,4.5-4.5c0-1.202-0.468-2.332-1.318-3.182c-0.195-0.195-0.195-0.512,0-0.707s0.512-0.195,0.707,0
				C16.428,9.649,17,11.03,17,12.5C17,15.532,14.533,18,11.5,18z"/>
		</g>
		<g>
			<path d="M11.5,21C6.813,21,3,17.187,3,12.5S6.813,4,11.5,4C11.776,4,12,4.224,12,4.5S11.776,5,11.5,5C7.364,5,4,8.364,4,12.5
				S7.364,20,11.5,20s7.5-3.364,7.5-7.5c0-2.003-0.78-3.887-2.197-5.304c-0.195-0.195-0.195-0.512,0-0.707s0.512-0.195,0.707,0
				C19.116,8.096,20,10.229,20,12.5C20,17.187,16.187,21,11.5,21z"/>
		</g>
		<g>
			<path d="M11.5,24C5.159,24,0,18.841,0,12.5S5.159,1,11.5,1C11.776,1,12,1.224,12,1.5v11c0,0.276-0.224,0.5-0.5,0.5
				S11,12.776,11,12.5V2.012C5.441,2.273,1,6.878,1,12.5C1,18.29,5.71,23,11.5,23S22,18.29,22,12.5c0-2.804-1.092-5.44-3.075-7.425
				c-0.195-0.195-0.195-0.512,0-0.707s0.512-0.195,0.707,0C21.804,6.541,23,9.429,23,12.5C23,18.841,17.841,24,11.5,24z"/>
		</g>
	</g>
</g>
<g id="Hand_2">
</g>
<g id="Palette">
</g>
<g id="Cake">
</g>
<g id="Blende">
</g>
<g id="Feather_Pen">
</g>
<g id="Ticket">
</g>
<g id="Medal">
</g>
<g id="Mouse_Pointer_1">
</g>
<g id="Mouse_Pointer_2">
</g>
<g id="Fingerprint">
</g>
<g id="Earth">
</g>
</svg>
