<?xml version="1.0" encoding="iso-8859-1"?>
<!-- Generator: Adobe Illustrator 19.2.1, SVG Export Plug-In . SVG Version: 6.00 Build 0)  -->
<svg version="1.1" xmlns="http://www.w3.org/2000/svg" xmlns:xlink="http://www.w3.org/1999/xlink" x="0px" y="0px"
	 viewBox="0 0 24 24" style="enable-background:new 0 0 24 24;" xml:space="preserve">
<g id="Credit_Card">
</g>
<g id="Banknote">
</g>
<g id="Wallet">
</g>
<g id="Compass">
</g>
<g id="Camera_1">
</g>
<g id="Photo">
</g>
<g id="Picture">
</g>
<g id="Camera_2">
</g>
<g id="No_Camera">
</g>
<g id="Video">
</g>
<g id="Audio">
</g>
<g id="Microphone_1">
</g>
<g id="Microphone_2">
</g>
<g id="No_Microphone">
</g>
<g id="Shopping_Cart">
</g>
<g id="Add_Shopping_Cart">
</g>
<g id="Remove_Shopping_Cart">
</g>
<g id="Shopping_Basket">
</g>
<g id="Jing-Jang">
</g>
<g id="Leaf">
</g>
<g id="Glass">
</g>
<g id="Cup">
</g>
<g id="Mug">
</g>
<g id="Refresh">
</g>
<g id="Login">
</g>
<g id="Logout">
</g>
<g id="Flowchart">
</g>
<g id="Pin_1">
</g>
<g id="Pin_2">
</g>
<g id="User_1">
</g>
<g id="User_2">
</g>
<g id="Users">
</g>
<g id="Adjustments">
</g>
<g id="Type">
</g>
<g id="Format_Size">
</g>
<g id="Menu_1">
</g>
<g id="Other">
</g>
<g id="Flash">
</g>
<g id="No_Flash">
</g>
<g id="Switch_Button_1">
</g>
<g id="Switch_Button_2">
</g>
<g id="Cut">
</g>
<g id="Crop">
</g>
<g id="Sun">
</g>
<g id="USB">
</g>
<g id="Pie_Chart_1">
</g>
<g id="Pie_Chart_2">
</g>
<g id="Line_Chart">
</g>
<g id="Bar_Chart">
</g>
<g id="Target">
</g>
<g id="Flashlight">
</g>
<g id="USB_Device">
</g>
<g id="Eject">
</g>
<g id="Lightbulb">
</g>
<g id="Information">
</g>
<g id="Deactivate_Protection">
</g>
<g id="Active_Protection">
</g>
<g id="Bug">
</g>
<g id="Protection">
</g>
<g id="Phone">
</g>
<g id="List">
</g>
<g id="Plugin_1">
</g>
<g id="Bookmarrk">
</g>
<g id="Handshake">
</g>
<g id="Minimize">
</g>
<g id="Maximize">
</g>
<g id="Diamond">
</g>
<g id="Stop">
</g>
<g id="Shuffle">
</g>
<g id="Undo">
</g>
<g id="Upgrade">
</g>
<g id="Coding">
</g>
<g id="Syncronizaion">
</g>
<g id="Radio">
	<g>
		<g>
			<path d="M20.5,24h-17C1.57,24,0,22.43,0,20.5v-8C0,10.57,1.57,9,3.5,9h17c1.93,0,3.5,1.57,3.5,3.5v8C24,22.43,22.43,24,20.5,24z
				 M3.5,10C2.122,10,1,11.121,1,12.5v8C1,21.879,2.122,23,3.5,23h17c1.378,0,2.5-1.121,2.5-2.5v-8c0-1.379-1.122-2.5-2.5-2.5H3.5z"
				/>
		</g>
		<g>
			<path d="M7.5,22C4.467,22,2,19.532,2,16.5S4.467,11,7.5,11s5.5,2.468,5.5,5.5S10.533,22,7.5,22z M7.5,12
				C5.019,12,3,14.019,3,16.5S5.019,21,7.5,21s4.5-2.019,4.5-4.5S9.981,12,7.5,12z"/>
		</g>
		<g>
			<path d="M21.5,14h-7.659c-0.276,0-0.5-0.224-0.5-0.5s0.224-0.5,0.5-0.5H21.5c0.276,0,0.5,0.224,0.5,0.5S21.776,14,21.5,14z"/>
		</g>
		<g>
			<path d="M21.5,17h-7c-0.276,0-0.5-0.224-0.5-0.5s0.224-0.5,0.5-0.5h7c0.276,0,0.5,0.224,0.5,0.5S21.776,17,21.5,17z"/>
		</g>
		<g>
			<path d="M21.5,20h-7.682c-0.276,0-0.5-0.224-0.5-0.5s0.224-0.5,0.5-0.5H21.5c0.276,0,0.5,0.224,0.5,0.5S21.776,20,21.5,20z"/>
		</g>
		<g>
			<path d="M7.5,18C6.673,18,6,17.327,6,16.5S6.673,15,7.5,15S9,15.673,9,16.5S8.327,18,7.5,18z M7.5,16C7.224,16,7,16.225,7,16.5
				S7.224,17,7.5,17S8,16.775,8,16.5S7.776,16,7.5,16z"/>
		</g>
		<g>
			<path d="M4.5,10C4.311,10,4.13,9.892,4.046,9.709C3.93,9.458,4.041,9.161,4.291,9.046l18.5-8.5
				c0.252-0.116,0.548-0.005,0.663,0.245c0.116,0.251,0.005,0.548-0.245,0.663l-18.5,8.5C4.641,9.985,4.57,10,4.5,10z"/>
		</g>
		<g>
			<path d="M23,2c-0.551,0-1-0.448-1-1s0.449-1,1-1s1,0.448,1,1S23.551,2,23,2z M23,0.999C23,0.999,23,1,23,0.999L23.5,1L23,0.999z"
				/>
		</g>
	</g>
</g>
<g id="Presentation">
</g>
<g id="Door">
</g>
<g id="Thumbs_Up">
</g>
<g id="Thumbs_Down">
</g>
<g id="Keyboard">
</g>
<g id="_x33_D_Cube">
</g>
<g id="Signal">
</g>
<g id="Dice">
</g>
<g id="Upload">
</g>
<g id="Download">
</g>
<g id="Plugin_2">
</g>
<g id="Shopping_Bag">
</g>
<g id="Lifebelt">
</g>
<g id="Glasses">
</g>
<g id="Parabolic_Antenna">
</g>
<g id="Loudspeaker">
</g>
<g id="Play">
</g>
<g id="Pause">
</g>
<g id="Signpost">
</g>
<g id="Bluetooth">
</g>
<g id="Present">
</g>
<g id="Ruler">
</g>
<g id="Connection">
</g>
<g id="Money">
</g>
<g id="Paper_Plane">
</g>
<g id="Wallet_2">
</g>
</svg>
