<?xml version="1.0" encoding="iso-8859-1"?>
<!-- Generator: Adobe Illustrator 19.2.1, SVG Export Plug-In . SVG Version: 6.00 Build 0)  -->
<svg version="1.1" xmlns="http://www.w3.org/2000/svg" xmlns:xlink="http://www.w3.org/1999/xlink" x="0px" y="0px"
	 viewBox="0 0 24 24" style="enable-background:new 0 0 24 24;" xml:space="preserve">
<g id="Flag">
</g>
<g id="Umbrella">
</g>
<g id="Briefcase">
</g>
<g id="Box">
</g>
<g id="Magnet">
</g>
<g id="Percent">
</g>
<g id="Rocket">
</g>
<g id="Share">
</g>
<g id="Transmitter">
</g>
<g id="Record_2">
</g>
<g id="Record_1">
	<g>
		<g>
			<path d="M5,17c-2.757,0-5-2.243-5-5s2.243-5,5-5s5,2.243,5,5S7.757,17,5,17z M5,8c-2.206,0-4,1.794-4,4s1.794,4,4,4s4-1.794,4-4
				S7.206,8,5,8z"/>
		</g>
		<g>
			<path d="M19,17c-2.757,0-5-2.243-5-5s2.243-5,5-5s5,2.243,5,5S21.757,17,19,17z M19,8c-2.206,0-4,1.794-4,4s1.794,4,4,4
				s4-1.794,4-4S21.206,8,19,8z"/>
		</g>
		<g>
			<path d="M19,17H5c-0.276,0-0.5-0.224-0.5-0.5S4.724,16,5,16h14c0.276,0,0.5,0.224,0.5,0.5S19.276,17,19,17z"/>
		</g>
	</g>
</g>
<g id="Anchor">
</g>
<g id="Airplane">
</g>
<g id="Car">
</g>
<g id="Newsfeed">
</g>
<g id="Wifi_Tethering">
</g>
<g id="No_Wifi_Tethering">
</g>
<g id="Bar_Chart_2">
</g>
<g id="Shop">
</g>
<g id="Alarm">
</g>
<g id="Sim_Card">
</g>
<g id="Radar">
</g>
<g id="Hand_2">
</g>
<g id="Palette">
</g>
<g id="Cake">
</g>
<g id="Blende">
</g>
<g id="Feather_Pen">
</g>
<g id="Ticket">
</g>
<g id="Medal">
</g>
<g id="Mouse_Pointer_1">
</g>
<g id="Mouse_Pointer_2">
</g>
<g id="Fingerprint">
</g>
<g id="Earth">
</g>
</svg>
