<?xml version="1.0" encoding="iso-8859-1"?>
<!-- Generator: Adobe Illustrator 19.2.1, SVG Export Plug-In . SVG Version: 6.00 Build 0)  -->
<svg version="1.1" xmlns="http://www.w3.org/2000/svg" xmlns:xlink="http://www.w3.org/1999/xlink" x="0px" y="0px"
	 viewBox="0 0 24 24" style="enable-background:new 0 0 24 24;" xml:space="preserve">
<g id="Flag">
</g>
<g id="Umbrella">
</g>
<g id="Briefcase">
</g>
<g id="Box">
</g>
<g id="Magnet">
</g>
<g id="Percent">
</g>
<g id="Rocket">
</g>
<g id="Share">
</g>
<g id="Transmitter">
</g>
<g id="Record_2">
	<g>
		<g>
			<path d="M20.5,20h-17C1.57,20,0,18.43,0,16.5v-9C0,5.57,1.57,4,3.5,4h17C22.43,4,24,5.57,24,7.5v9C24,18.43,22.43,20,20.5,20z
				 M3.5,5C2.121,5,1,6.122,1,7.5v9C1,17.878,2.121,19,3.5,19h17c1.379,0,2.5-1.122,2.5-2.5v-9C23,6.122,21.879,5,20.5,5H3.5z"/>
		</g>
		<g>
			<path d="M17,16H7c-0.276,0-0.5-0.224-0.5-0.5S6.724,15,7,15h10c0.276,0,0.5,0.224,0.5,0.5S17.276,16,17,16z"/>
		</g>
		<g>
			<path d="M8,13.5c-0.128,0-0.256-0.049-0.354-0.146l-2-2c-0.195-0.195-0.195-0.512,0-0.707s0.512-0.195,0.707,0l2,2
				c0.195,0.195,0.195,0.512,0,0.707C8.256,13.451,8.128,13.5,8,13.5z"/>
		</g>
		<g>
			<path d="M6,13.5c-0.128,0-0.256-0.049-0.354-0.146c-0.195-0.195-0.195-0.512,0-0.707l2-2c0.195-0.195,0.512-0.195,0.707,0
				s0.195,0.512,0,0.707l-2,2C6.256,13.451,6.128,13.5,6,13.5z"/>
		</g>
		<g>
			<path d="M7,16c-2.206,0-4-1.794-4-4s1.794-4,4-4s4,1.794,4,4S9.206,16,7,16z M7,9c-1.654,0-3,1.346-3,3s1.346,3,3,3s3-1.346,3-3
				S8.654,9,7,9z"/>
		</g>
		<g>
			<path d="M18,13.5c-0.128,0-0.256-0.049-0.354-0.146l-2-2c-0.195-0.195-0.195-0.512,0-0.707s0.512-0.195,0.707,0l2,2
				c0.195,0.195,0.195,0.512,0,0.707C18.256,13.451,18.128,13.5,18,13.5z"/>
		</g>
		<g>
			<path d="M16,13.5c-0.128,0-0.256-0.049-0.354-0.146c-0.195-0.195-0.195-0.512,0-0.707l2-2c0.195-0.195,0.512-0.195,0.707,0
				s0.195,0.512,0,0.707l-2,2C16.256,13.451,16.128,13.5,16,13.5z"/>
		</g>
		<g>
			<path d="M17,16c-2.206,0-4-1.794-4-4s1.794-4,4-4s4,1.794,4,4S19.206,16,17,16z M17,9c-1.654,0-3,1.346-3,3s1.346,3,3,3
				s3-1.346,3-3S18.654,9,17,9z"/>
		</g>
	</g>
</g>
<g id="Record_1">
</g>
<g id="Anchor">
</g>
<g id="Airplane">
</g>
<g id="Car">
</g>
<g id="Newsfeed">
</g>
<g id="Wifi_Tethering">
</g>
<g id="No_Wifi_Tethering">
</g>
<g id="Bar_Chart_2">
</g>
<g id="Shop">
</g>
<g id="Alarm">
</g>
<g id="Sim_Card">
</g>
<g id="Radar">
</g>
<g id="Hand_2">
</g>
<g id="Palette">
</g>
<g id="Cake">
</g>
<g id="Blende">
</g>
<g id="Feather_Pen">
</g>
<g id="Ticket">
</g>
<g id="Medal">
</g>
<g id="Mouse_Pointer_1">
</g>
<g id="Mouse_Pointer_2">
</g>
<g id="Fingerprint">
</g>
<g id="Earth">
</g>
</svg>
