<?xml version="1.0" encoding="iso-8859-1"?>
<!-- Generator: Adobe Illustrator 19.2.1, SVG Export Plug-In . SVG Version: 6.00 Build 0)  -->
<svg version="1.1" xmlns="http://www.w3.org/2000/svg" xmlns:xlink="http://www.w3.org/1999/xlink" x="0px" y="0px"
	 viewBox="0 0 24 24" style="enable-background:new 0 0 24 24;" xml:space="preserve">
<g id="Flag">
</g>
<g id="Umbrella">
</g>
<g id="Briefcase">
</g>
<g id="Box">
</g>
<g id="Magnet">
</g>
<g id="Percent">
</g>
<g id="Rocket">
	<g>
		<g>
			<path d="M9,20c-0.129,0-0.257-0.05-0.354-0.146l-4.5-4.5c-0.164-0.164-0.193-0.42-0.071-0.618C4.449,14.134,13.354,0,23.5,0
				C23.776,0,24,0.224,24,0.5C24,10.646,9.865,19.55,9.264,19.925C9.183,19.975,9.091,20,9,20z M5.14,14.932l3.928,3.928
				c2.104-1.388,13.475-9.282,13.919-17.847C14.416,1.458,6.526,12.83,5.14,14.932z"/>
		</g>
		<g>
			<path d="M0.5,17c-0.105,0-0.211-0.034-0.298-0.099C0.065,16.8-0.01,16.637,0.001,16.467C0.006,16.393,0.581,9,8.5,9
				C8.776,9,9,9.224,9,9.5S8.776,10,8.5,10c-5.577,0-7.019,3.985-7.382,5.734l3.206-1.203c0.256-0.095,0.547,0.034,0.644,0.292
				c0.098,0.259-0.033,0.547-0.292,0.644l-4,1.5C0.618,16.99,0.56,17,0.5,17z"/>
		</g>
		<g>
			<path d="M7.5,24c-0.157,0-0.307-0.074-0.401-0.202c-0.102-0.136-0.126-0.314-0.066-0.474l1.5-4
				c0.097-0.259,0.386-0.388,0.644-0.292c0.259,0.097,0.39,0.385,0.292,0.644l-1.201,3.204C10.018,22.509,14,21.056,14,15.5
				c0-0.276,0.224-0.5,0.5-0.5s0.5,0.224,0.5,0.5c0,7.918-7.393,8.494-7.468,8.499C7.521,24,7.511,24,7.5,24z"/>
		</g>
		<g>
			<path d="M0.579,23.996c-0.144,0-0.319-0.06-0.415-0.167c-0.095-0.108-0.178-0.249-0.16-0.391c0.07-0.564,0.757-5.535,3.034-6.316
				c0.861-0.296,1.79,0.025,2.75,0.96c0.03,0.019,0.058,0.04,0.082,0.064c0.983,0.983,1.328,1.93,1.024,2.815
				C6.114,23.239,1.144,23.925,0.579,23.996z M3.664,18.019c-0.104,0-0.205,0.016-0.302,0.049c-1.139,0.391-1.94,2.951-2.269,4.843
				c1.863-0.321,4.463-1.127,4.855-2.273c0.163-0.478-0.079-1.055-0.721-1.718c-0.029-0.019-0.057-0.041-0.082-0.066
				C4.591,18.298,4.094,18.019,3.664,18.019z"/>
		</g>
		<g>
			<path d="M16,11c-1.654,0-3-1.346-3-3s1.346-3,3-3s3,1.346,3,3S17.654,11,16,11z M16,6c-1.103,0-2,0.897-2,2s0.897,2,2,2
				s2-0.897,2-2S17.103,6,16,6z"/>
		</g>
	</g>
</g>
<g id="Share">
</g>
<g id="Transmitter">
</g>
<g id="Record_2">
</g>
<g id="Record_1">
</g>
<g id="Anchor">
</g>
<g id="Airplane">
</g>
<g id="Car">
</g>
<g id="Newsfeed">
</g>
<g id="Wifi_Tethering">
</g>
<g id="No_Wifi_Tethering">
</g>
<g id="Bar_Chart_2">
</g>
<g id="Shop">
</g>
<g id="Alarm">
</g>
<g id="Sim_Card">
</g>
<g id="Radar">
</g>
<g id="Hand_2">
</g>
<g id="Palette">
</g>
<g id="Cake">
</g>
<g id="Blende">
</g>
<g id="Feather_Pen">
</g>
<g id="Ticket">
</g>
<g id="Medal">
</g>
<g id="Mouse_Pointer_1">
</g>
<g id="Mouse_Pointer_2">
</g>
<g id="Fingerprint">
</g>
<g id="Earth">
</g>
</svg>
