<?xml version="1.0" encoding="iso-8859-1"?>
<!-- Generator: Adobe Illustrator 19.2.1, SVG Export Plug-In . SVG Version: 6.00 Build 0)  -->
<svg version="1.1" xmlns="http://www.w3.org/2000/svg" xmlns:xlink="http://www.w3.org/1999/xlink" x="0px" y="0px"
	 viewBox="0 0 24 24" style="enable-background:new 0 0 24 24;" xml:space="preserve">
<g id="Credit_Card">
</g>
<g id="Banknote">
</g>
<g id="Wallet">
</g>
<g id="Compass">
</g>
<g id="Camera_1">
</g>
<g id="Photo">
</g>
<g id="Picture">
</g>
<g id="Camera_2">
</g>
<g id="No_Camera">
</g>
<g id="Video">
</g>
<g id="Audio">
</g>
<g id="Microphone_1">
</g>
<g id="Microphone_2">
</g>
<g id="No_Microphone">
</g>
<g id="Shopping_Cart">
</g>
<g id="Add_Shopping_Cart">
</g>
<g id="Remove_Shopping_Cart">
</g>
<g id="Shopping_Basket">
</g>
<g id="Jing-Jang">
</g>
<g id="Leaf">
</g>
<g id="Glass">
</g>
<g id="Cup">
</g>
<g id="Mug">
</g>
<g id="Refresh">
</g>
<g id="Login">
</g>
<g id="Logout">
</g>
<g id="Flowchart">
</g>
<g id="Pin_1">
</g>
<g id="Pin_2">
</g>
<g id="User_1">
</g>
<g id="User_2">
</g>
<g id="Users">
</g>
<g id="Adjustments">
</g>
<g id="Type">
</g>
<g id="Format_Size">
</g>
<g id="Menu_1">
</g>
<g id="Other">
</g>
<g id="Flash">
</g>
<g id="No_Flash">
</g>
<g id="Switch_Button_1">
</g>
<g id="Switch_Button_2">
</g>
<g id="Cut">
</g>
<g id="Crop">
</g>
<g id="Sun">
</g>
<g id="USB">
</g>
<g id="Pie_Chart_1">
</g>
<g id="Pie_Chart_2">
</g>
<g id="Line_Chart">
</g>
<g id="Bar_Chart">
</g>
<g id="Target">
</g>
<g id="Flashlight">
</g>
<g id="USB_Device">
</g>
<g id="Eject">
</g>
<g id="Lightbulb">
</g>
<g id="Information">
</g>
<g id="Deactivate_Protection">
</g>
<g id="Active_Protection">
</g>
<g id="Bug">
</g>
<g id="Protection">
</g>
<g id="Phone">
</g>
<g id="List">
</g>
<g id="Plugin_1">
</g>
<g id="Bookmarrk">
</g>
<g id="Handshake">
</g>
<g id="Minimize">
</g>
<g id="Maximize">
</g>
<g id="Diamond">
</g>
<g id="Stop">
</g>
<g id="Shuffle">
</g>
<g id="Undo">
</g>
<g id="Upgrade">
</g>
<g id="Coding">
</g>
<g id="Syncronizaion">
</g>
<g id="Radio">
</g>
<g id="Presentation">
</g>
<g id="Door">
</g>
<g id="Thumbs_Up">
</g>
<g id="Thumbs_Down">
</g>
<g id="Keyboard">
</g>
<g id="_x33_D_Cube">
</g>
<g id="Signal">
</g>
<g id="Dice">
</g>
<g id="Upload">
</g>
<g id="Download">
</g>
<g id="Plugin_2">
</g>
<g id="Shopping_Bag">
</g>
<g id="Lifebelt">
</g>
<g id="Glasses">
</g>
<g id="Parabolic_Antenna">
</g>
<g id="Loudspeaker">
</g>
<g id="Play">
</g>
<g id="Pause">
</g>
<g id="Signpost">
</g>
<g id="Bluetooth">
</g>
<g id="Present">
</g>
<g id="Ruler">
	<g>
		<g>
			<path d="M4.5,24h-4C0.224,24,0,23.776,0,23.5v-23C0,0.224,0.224,0,0.5,0h4C4.776,0,5,0.224,5,0.5v19C5,19.776,4.776,20,4.5,20
				S4,19.776,4,19.5V1H1v22h3.5C4.776,23,5,23.224,5,23.5S4.776,24,4.5,24z"/>
		</g>
		<g>
			<path d="M23.5,24h-19C4.224,24,4,23.776,4,23.5S4.224,23,4.5,23H23v-3H4.5C4.224,20,4,19.776,4,19.5S4.224,19,4.5,19h19
				c0.276,0,0.5,0.224,0.5,0.5v4C24,23.776,23.776,24,23.5,24z"/>
		</g>
		<g>
			<path d="M4.5,19h-2C2.224,19,2,18.776,2,18.5S2.224,18,2.5,18H4v-2H3.5C3.224,16,3,15.776,3,15.5S3.224,15,3.5,15H4v-2H3.5
				C3.224,13,3,12.776,3,12.5S3.224,12,3.5,12H4v-2H2.5C2.224,10,2,9.776,2,9.5S2.224,9,2.5,9H4V7H3.5C3.224,7,3,6.776,3,6.5
				S3.224,6,3.5,6H4V4H3.5C3.224,4,3,3.776,3,3.5S3.224,3,3.5,3h1C4.776,3,5,3.224,5,3.5v15C5,18.776,4.776,19,4.5,19z"/>
		</g>
		<g>
			<path d="M14.5,22c-0.276,0-0.5-0.224-0.5-0.5V20h-2v0.5c0,0.276-0.224,0.5-0.5,0.5S11,20.776,11,20.5V20H9v0.5
				C9,20.776,8.776,21,8.5,21S8,20.776,8,20.5V20H6v1.5C6,21.776,5.776,22,5.5,22S5,21.776,5,21.5v-2C5,19.224,5.224,19,5.5,19h15
				c0.276,0,0.5,0.224,0.5,0.5v1c0,0.276-0.224,0.5-0.5,0.5S20,20.776,20,20.5V20h-2v0.5c0,0.276-0.224,0.5-0.5,0.5
				S17,20.776,17,20.5V20h-2v1.5C15,21.776,14.776,22,14.5,22z"/>
		</g>
		<g>
			<path d="M22.5,4h-16C6.224,4,6,3.776,6,3.5S6.224,3,6.5,3h16C22.776,3,23,3.224,23,3.5S22.776,4,22.5,4z"/>
		</g>
		<g>
			<path d="M22.5,10h-16C6.224,10,6,9.776,6,9.5S6.224,9,6.5,9h16C22.776,9,23,9.224,23,9.5S22.776,10,22.5,10z"/>
		</g>
		<g>
			<path d="M22.5,16h-16C6.224,16,6,15.776,6,15.5S6.224,15,6.5,15h16c0.276,0,0.5,0.224,0.5,0.5S22.776,16,22.5,16z"/>
		</g>
		<g>
			<path d="M20.5,18c-0.276,0-0.5-0.224-0.5-0.5v-16C20,1.224,20.224,1,20.5,1S21,1.224,21,1.5v16C21,17.776,20.776,18,20.5,18z"/>
		</g>
		<g>
			<path d="M14.5,18c-0.276,0-0.5-0.224-0.5-0.5v-16C14,1.224,14.224,1,14.5,1S15,1.224,15,1.5v16C15,17.776,14.776,18,14.5,18z"/>
		</g>
		<g>
			<path d="M8.5,18C8.224,18,8,17.776,8,17.5v-16C8,1.224,8.224,1,8.5,1S9,1.224,9,1.5v16C9,17.776,8.776,18,8.5,18z"/>
		</g>
	</g>
</g>
<g id="Connection">
</g>
<g id="Money">
</g>
<g id="Paper_Plane">
</g>
<g id="Wallet_2">
</g>
</svg>
