<?xml version="1.0" encoding="iso-8859-1"?>
<!-- Generator: Adobe Illustrator 19.2.1, SVG Export Plug-In . SVG Version: 6.00 Build 0)  -->
<svg version="1.1" xmlns="http://www.w3.org/2000/svg" xmlns:xlink="http://www.w3.org/1999/xlink" x="0px" y="0px"
	 viewBox="0 0 24 24" style="enable-background:new 0 0 24 24;" xml:space="preserve">
<g id="Mail">
</g>
<g id="Open_Mail">
</g>
<g id="Mail_Attachmet">
</g>
<g id="Mails">
</g>
<g id="Trash">
</g>
<g id="Trash_Full">
</g>
<g id="Preferences_1">
</g>
<g id="Preferences_2">
</g>
<g id="Mouse">
</g>
<g id="Computer">
</g>
<g id="Notebook">
</g>
<g id="Mobile_Phone">
</g>
<g id="Print">
</g>
<g id="Calculator">
</g>
<g id="Tag">
</g>
<g id="Paperclip">
</g>
<g id="Heart">
</g>
<g id="Lock">
</g>
<g id="Lock_Open">
</g>
<g id="Key_1">
</g>
<g id="Star">
</g>
<g id="Add">
</g>
<g id="Remove">
</g>
<g id="Error">
</g>
<g id="Check_1">
</g>
<g id="Time">
</g>
<g id="Question_Mark">
</g>
<g id="Error_Mark">
</g>
<g id="Sand-Glass">
	<g>
		<g>
			<path d="M17.5,22c-0.276,0-0.5-0.224-0.5-0.5c0-4.254-1.242-6.855-3.691-7.731C12.514,13.485,12,12.791,12,12.001
				c0-0.791,0.514-1.486,1.309-1.77C15.758,9.355,17,6.754,17,2.5C17,2.224,17.224,2,17.5,2S18,2.224,18,2.5
				c0,4.655-1.506,7.654-4.355,8.673C13.253,11.313,13,11.637,13,11.999c0,0.363,0.253,0.688,0.645,0.828
				C16.494,13.846,18,16.845,18,21.5C18,21.776,17.776,22,17.5,22z"/>
		</g>
		<g>
			<path d="M5.5,22C5.224,22,5,21.776,5,21.5c0-4.655,1.506-7.654,4.355-8.673C9.747,12.687,10,12.363,10,12.001
				c0-0.363-0.253-0.688-0.645-0.828C6.506,10.154,5,7.155,5,2.5C5,2.224,5.224,2,5.5,2S6,2.224,6,2.5
				c0,4.254,1.242,6.855,3.691,7.731C10.486,10.515,11,11.209,11,11.999c0,0.791-0.514,1.486-1.309,1.77
				C7.242,14.645,6,17.246,6,21.5C6,21.776,5.776,22,5.5,22z"/>
		</g>
		<g>
			<path d="M18.5,3h-14C3.673,3,3,2.327,3,1.5S3.673,0,4.5,0h14C19.327,0,20,0.673,20,1.5S19.327,3,18.5,3z M4.5,1
				C4.225,1,4,1.224,4,1.5S4.225,2,4.5,2h14C18.775,2,19,1.776,19,1.5S18.775,1,18.5,1H4.5z"/>
		</g>
		<g>
			<path d="M18.5,24h-14C3.673,24,3,23.327,3,22.5S3.673,21,4.5,21h14c0.827,0,1.5,0.673,1.5,1.5S19.327,24,18.5,24z M4.5,22
				C4.225,22,4,22.224,4,22.5S4.225,23,4.5,23h14c0.275,0,0.5-0.224,0.5-0.5S18.775,22,18.5,22H4.5z"/>
		</g>
	</g>
</g>
<g id="Battery_Full">
</g>
<g id="Battery_Charge">
</g>
<g id="Battery_Half">
</g>
<g id="Battery_Low">
</g>
<g id="No_Battery">
</g>
<g id="Key_2">
</g>
<g id="Link">
</g>
<g id="Brake_Link">
</g>
<g id="Pencil">
</g>
<g id="At">
</g>
<g id="Reply">
</g>
<g id="Accessible">
</g>
<g id="Up_Arrow">
</g>
<g id="Brush">
</g>
<g id="Design_Mug">
</g>
<g id="Design">
</g>
<g id="Server">
</g>
<g id="Database">
</g>
<g id="Save">
</g>
<g id="Female">
</g>
<g id="Male">
</g>
<g id="Book">
</g>
<g id="Power">
</g>
<g id="Reload">
</g>
<g id="Map">
</g>
<g id="Loction_1">
</g>
<g id="Location_2">
</g>
<g id="Globe">
</g>
<g id="Suitcase">
</g>
<g id="Callendar">
</g>
<g id="Cloud_Off">
</g>
<g id="File_1">
</g>
<g id="File_2">
</g>
<g id="Folder">
</g>
<g id="Open_Folder">
</g>
<g id="Cloud">
</g>
<g id="Upload_Cloud">
</g>
<g id="Download_Cloud">
</g>
<g id="Eye">
</g>
<g id="Invisible">
</g>
<g id="Assignment">
</g>
<g id="Note_Book">
</g>
<g id="Webpage">
</g>
<g id="Mailbox">
</g>
<g id="Drive">
</g>
<g id="Disc">
</g>
<g id="Wifi_1">
</g>
<g id="Wifi_2">
</g>
<g id="Archive">
</g>
<g id="Archive_File">
</g>
<g id="News">
</g>
<g id="Home">
</g>
<g id="Collaboration">
</g>
<g id="Announcement">
</g>
<g id="Watch">
</g>
<g id="Clock">
</g>
<g id="Volume">
</g>
<g id="Mute">
</g>
<g id="Hand">
</g>
<g id="Layers">
</g>
<g id="Bell">
</g>
<g id="Speach_Bubble">
</g>
<g id="Speach_Bubbles">
</g>
<g id="Zoom_In">
</g>
<g id="Zoom_Out">
</g>
<g id="Search">
</g>
<g id="Back_Arrow">
</g>
<g id="Close">
</g>
<g id="Check_2">
</g>
<g id="Left_Arrow_2">
</g>
<g id="Right_Arrow_2">
</g>
</svg>
