<?xml version="1.0" encoding="iso-8859-1"?>
<!-- Generator: Adobe Illustrator 19.2.1, SVG Export Plug-In . SVG Version: 6.00 Build 0)  -->
<svg version="1.1" xmlns="http://www.w3.org/2000/svg" xmlns:xlink="http://www.w3.org/1999/xlink" x="0px" y="0px"
	 viewBox="0 0 24 24" style="enable-background:new 0 0 24 24;" xml:space="preserve">
<g id="Mail">
</g>
<g id="Open_Mail">
</g>
<g id="Mail_Attachmet">
</g>
<g id="Mails">
</g>
<g id="Trash">
</g>
<g id="Trash_Full">
</g>
<g id="Preferences_1">
</g>
<g id="Preferences_2">
</g>
<g id="Mouse">
</g>
<g id="Computer">
</g>
<g id="Notebook">
</g>
<g id="Mobile_Phone">
</g>
<g id="Print">
</g>
<g id="Calculator">
</g>
<g id="Tag">
</g>
<g id="Paperclip">
</g>
<g id="Heart">
</g>
<g id="Lock">
</g>
<g id="Lock_Open">
</g>
<g id="Key_1">
</g>
<g id="Star">
</g>
<g id="Add">
</g>
<g id="Remove">
</g>
<g id="Error">
</g>
<g id="Check_1">
</g>
<g id="Time">
</g>
<g id="Question_Mark">
</g>
<g id="Error_Mark">
</g>
<g id="Sand-Glass">
</g>
<g id="Battery_Full">
</g>
<g id="Battery_Charge">
</g>
<g id="Battery_Half">
</g>
<g id="Battery_Low">
</g>
<g id="No_Battery">
</g>
<g id="Key_2">
</g>
<g id="Link">
</g>
<g id="Brake_Link">
</g>
<g id="Pencil">
</g>
<g id="At">
</g>
<g id="Reply">
</g>
<g id="Accessible">
</g>
<g id="Up_Arrow">
</g>
<g id="Brush">
</g>
<g id="Design_Mug">
</g>
<g id="Design">
</g>
<g id="Server">
</g>
<g id="Database">
</g>
<g id="Save">
	<g>
		<g>
			<path d="M22.5,24h-21C0.673,24,0,23.327,0,22.5v-21C0,0.673,0.673,0,1.5,0h18c0.133,0,0.26,0.053,0.354,0.146l4,4
				C23.947,4.24,24,4.367,24,4.5v18C24,23.327,23.327,24,22.5,24z M1.5,1C1.225,1,1,1.224,1,1.5v21C1,22.776,1.225,23,1.5,23h21
				c0.275,0,0.5-0.224,0.5-0.5V4.707L19.293,1H1.5z"/>
		</g>
		<g>
			<path d="M16.5,8h-9C6.673,8,6,7.327,6,6.5v-6C6,0.224,6.224,0,6.5,0h11C17.776,0,18,0.224,18,0.5v6C18,7.327,17.327,8,16.5,8z
				 M7,1v5.5C7,6.776,7.225,7,7.5,7h9C16.775,7,17,6.776,17,6.5V1H7z"/>
		</g>
		<g>
			<path d="M20.5,24h-17C3.224,24,3,23.776,3,23.5v-12C3,10.122,4.121,9,5.5,9h13c1.379,0,2.5,1.122,2.5,2.5v12
				C21,23.776,20.776,24,20.5,24z M4,23h16V11.5c0-0.827-0.673-1.5-1.5-1.5h-13C4.673,10,4,10.673,4,11.5V23z"/>
		</g>
		<g>
			<path d="M15.5,6h-2C13.224,6,13,5.776,13,5.5v-3C13,2.224,13.224,2,13.5,2h2C15.776,2,16,2.224,16,2.5v3
				C16,5.776,15.776,6,15.5,6z M14,5h1V3h-1V5z"/>
		</g>
		<g>
			<path d="M17.5,14h-11C6.224,14,6,13.776,6,13.5S6.224,13,6.5,13h11c0.276,0,0.5,0.224,0.5,0.5S17.776,14,17.5,14z"/>
		</g>
		<g>
			<path d="M17.5,17h-11C6.224,17,6,16.776,6,16.5S6.224,16,6.5,16h11c0.276,0,0.5,0.224,0.5,0.5S17.776,17,17.5,17z"/>
		</g>
		<g>
			<path d="M17.5,20h-11C6.224,20,6,19.776,6,19.5S6.224,19,6.5,19h11c0.276,0,0.5,0.224,0.5,0.5S17.776,20,17.5,20z"/>
		</g>
	</g>
</g>
<g id="Female">
</g>
<g id="Male">
</g>
<g id="Book">
</g>
<g id="Power">
</g>
<g id="Reload">
</g>
<g id="Map">
</g>
<g id="Loction_1">
</g>
<g id="Location_2">
</g>
<g id="Globe">
</g>
<g id="Suitcase">
</g>
<g id="Callendar">
</g>
<g id="Cloud_Off">
</g>
<g id="File_1">
</g>
<g id="File_2">
</g>
<g id="Folder">
</g>
<g id="Open_Folder">
</g>
<g id="Cloud">
</g>
<g id="Upload_Cloud">
</g>
<g id="Download_Cloud">
</g>
<g id="Eye">
</g>
<g id="Invisible">
</g>
<g id="Assignment">
</g>
<g id="Note_Book">
</g>
<g id="Webpage">
</g>
<g id="Mailbox">
</g>
<g id="Drive">
</g>
<g id="Disc">
</g>
<g id="Wifi_1">
</g>
<g id="Wifi_2">
</g>
<g id="Archive">
</g>
<g id="Archive_File">
</g>
<g id="News">
</g>
<g id="Home">
</g>
<g id="Collaboration">
</g>
<g id="Announcement">
</g>
<g id="Watch">
</g>
<g id="Clock">
</g>
<g id="Volume">
</g>
<g id="Mute">
</g>
<g id="Hand">
</g>
<g id="Layers">
</g>
<g id="Bell">
</g>
<g id="Speach_Bubble">
</g>
<g id="Speach_Bubbles">
</g>
<g id="Zoom_In">
</g>
<g id="Zoom_Out">
</g>
<g id="Search">
</g>
<g id="Back_Arrow">
</g>
<g id="Close">
</g>
<g id="Check_2">
</g>
<g id="Left_Arrow_2">
</g>
<g id="Right_Arrow_2">
</g>
</svg>
