<?xml version="1.0" encoding="iso-8859-1"?>
<!-- Generator: Adobe Illustrator 19.2.1, SVG Export Plug-In . SVG Version: 6.00 Build 0)  -->
<svg version="1.1" xmlns="http://www.w3.org/2000/svg" xmlns:xlink="http://www.w3.org/1999/xlink" x="0px" y="0px"
	 viewBox="0 0 24 24" style="enable-background:new 0 0 24 24;" xml:space="preserve">
<g id="Mail">
</g>
<g id="Open_Mail">
</g>
<g id="Mail_Attachmet">
</g>
<g id="Mails">
</g>
<g id="Trash">
</g>
<g id="Trash_Full">
</g>
<g id="Preferences_1">
</g>
<g id="Preferences_2">
</g>
<g id="Mouse">
</g>
<g id="Computer">
</g>
<g id="Notebook">
</g>
<g id="Mobile_Phone">
</g>
<g id="Print">
</g>
<g id="Calculator">
</g>
<g id="Tag">
</g>
<g id="Paperclip">
</g>
<g id="Heart">
</g>
<g id="Lock">
</g>
<g id="Lock_Open">
</g>
<g id="Key_1">
</g>
<g id="Star">
</g>
<g id="Add">
</g>
<g id="Remove">
</g>
<g id="Error">
</g>
<g id="Check_1">
</g>
<g id="Time">
</g>
<g id="Question_Mark">
</g>
<g id="Error_Mark">
</g>
<g id="Sand-Glass">
</g>
<g id="Battery_Full">
</g>
<g id="Battery_Charge">
</g>
<g id="Battery_Half">
</g>
<g id="Battery_Low">
</g>
<g id="No_Battery">
</g>
<g id="Key_2">
</g>
<g id="Link">
</g>
<g id="Brake_Link">
</g>
<g id="Pencil">
</g>
<g id="At">
</g>
<g id="Reply">
</g>
<g id="Accessible">
</g>
<g id="Up_Arrow">
</g>
<g id="Brush">
</g>
<g id="Design_Mug">
</g>
<g id="Design">
</g>
<g id="Server">
	<g>
		<g>
			<g>
				<path d="M21.5,17h-19C1.121,17,0,15.878,0,14.5v-2C0,11.122,1.121,10,2.5,10h19c1.379,0,2.5,1.122,2.5,2.5v2
					C24,15.878,22.879,17,21.5,17z M2.5,11C1.673,11,1,11.673,1,12.5v2C1,15.327,1.673,16,2.5,16h19c0.827,0,1.5-0.673,1.5-1.5v-2
					c0-0.827-0.673-1.5-1.5-1.5H2.5z"/>
			</g>
			<g>
				<path d="M3.5,15C2.673,15,2,14.327,2,13.5S2.673,12,3.5,12S5,12.673,5,13.5S4.327,15,3.5,15z M3.5,13C3.225,13,3,13.224,3,13.5
					S3.225,14,3.5,14S4,13.776,4,13.5S3.775,13,3.5,13z"/>
			</g>
			<g>
				<path d="M20.5,15c-0.276,0-0.5-0.224-0.5-0.5v-2c0-0.276,0.224-0.5,0.5-0.5s0.5,0.224,0.5,0.5v2C21,14.776,20.776,15,20.5,15z"
					/>
			</g>
			<g>
				<path d="M18.5,15c-0.276,0-0.5-0.224-0.5-0.5v-2c0-0.276,0.224-0.5,0.5-0.5s0.5,0.224,0.5,0.5v2C19,14.776,18.776,15,18.5,15z"
					/>
			</g>
			<g>
				<path d="M16.5,15c-0.276,0-0.5-0.224-0.5-0.5v-2c0-0.276,0.224-0.5,0.5-0.5s0.5,0.224,0.5,0.5v2C17,14.776,16.776,15,16.5,15z"
					/>
			</g>
			<g>
				<path d="M14.5,15c-0.276,0-0.5-0.224-0.5-0.5v-2c0-0.276,0.224-0.5,0.5-0.5s0.5,0.224,0.5,0.5v2C15,14.776,14.776,15,14.5,15z"
					/>
			</g>
		</g>
		<g>
			<g>
				<path d="M21.5,9h-19C1.121,9,0,7.878,0,6.5v-2C0,3.122,1.121,2,2.5,2h19C22.879,2,24,3.122,24,4.5v2C24,7.878,22.879,9,21.5,9z
					 M2.5,3C1.673,3,1,3.673,1,4.5v2C1,7.327,1.673,8,2.5,8h19C22.327,8,23,7.327,23,6.5v-2C23,3.673,22.327,3,21.5,3H2.5z"/>
			</g>
			<g>
				<path d="M3.5,7C2.673,7,2,6.327,2,5.5S2.673,4,3.5,4S5,4.673,5,5.5S4.327,7,3.5,7z M3.5,5C3.225,5,3,5.224,3,5.5S3.225,6,3.5,6
					S4,5.776,4,5.5S3.775,5,3.5,5z"/>
			</g>
			<g>
				<path d="M20.5,7C20.224,7,20,6.776,20,6.5v-2C20,4.224,20.224,4,20.5,4S21,4.224,21,4.5v2C21,6.776,20.776,7,20.5,7z"/>
			</g>
			<g>
				<path d="M18.5,7C18.224,7,18,6.776,18,6.5v-2C18,4.224,18.224,4,18.5,4S19,4.224,19,4.5v2C19,6.776,18.776,7,18.5,7z"/>
			</g>
			<g>
				<path d="M16.5,7C16.224,7,16,6.776,16,6.5v-2C16,4.224,16.224,4,16.5,4S17,4.224,17,4.5v2C17,6.776,16.776,7,16.5,7z"/>
			</g>
			<g>
				<path d="M14.5,7C14.224,7,14,6.776,14,6.5v-2C14,4.224,14.224,4,14.5,4S15,4.224,15,4.5v2C15,6.776,14.776,7,14.5,7z"/>
			</g>
		</g>
		<g>
			<path d="M9.5,11C9.224,11,9,10.776,9,10.5v-2C9,8.224,9.224,8,9.5,8S10,8.224,10,8.5v2C10,10.776,9.776,11,9.5,11z"/>
		</g>
		<g>
			<g>
				<g>
					<path d="M11.5,22h-4C7.224,22,7,21.776,7,21.5v-2C7,19.224,7.224,19,7.5,19H8v-0.5C8,18.224,8.224,18,8.5,18h2
						c0.276,0,0.5,0.224,0.5,0.5V19h0.5c0.276,0,0.5,0.224,0.5,0.5v2C12,21.776,11.776,22,11.5,22z M8,21h3v-1h-0.5
						c-0.276,0-0.5-0.224-0.5-0.5V19H9v0.5C9,19.776,8.776,20,8.5,20H8V21z"/>
				</g>
				<g>
					<path d="M9.5,19C9.224,19,9,18.776,9,18.5v-2C9,16.224,9.224,16,9.5,16s0.5,0.224,0.5,0.5v2C10,18.776,9.776,19,9.5,19z"/>
				</g>
				<g>
					<path d="M16.5,21h-5c-0.276,0-0.5-0.224-0.5-0.5s0.224-0.5,0.5-0.5h5c0.276,0,0.5,0.224,0.5,0.5S16.776,21,16.5,21z"/>
				</g>
				<g>
					<path d="M7.5,21h-5C2.224,21,2,20.776,2,20.5S2.224,20,2.5,20h5C7.776,20,8,20.224,8,20.5S7.776,21,7.5,21z"/>
				</g>
			</g>
		</g>
	</g>
</g>
<g id="Database">
</g>
<g id="Save">
</g>
<g id="Female">
</g>
<g id="Male">
</g>
<g id="Book">
</g>
<g id="Power">
</g>
<g id="Reload">
</g>
<g id="Map">
</g>
<g id="Loction_1">
</g>
<g id="Location_2">
</g>
<g id="Globe">
</g>
<g id="Suitcase">
</g>
<g id="Callendar">
</g>
<g id="Cloud_Off">
</g>
<g id="File_1">
</g>
<g id="File_2">
</g>
<g id="Folder">
</g>
<g id="Open_Folder">
</g>
<g id="Cloud">
</g>
<g id="Upload_Cloud">
</g>
<g id="Download_Cloud">
</g>
<g id="Eye">
</g>
<g id="Invisible">
</g>
<g id="Assignment">
</g>
<g id="Note_Book">
</g>
<g id="Webpage">
</g>
<g id="Mailbox">
</g>
<g id="Drive">
</g>
<g id="Disc">
</g>
<g id="Wifi_1">
</g>
<g id="Wifi_2">
</g>
<g id="Archive">
</g>
<g id="Archive_File">
</g>
<g id="News">
</g>
<g id="Home">
</g>
<g id="Collaboration">
</g>
<g id="Announcement">
</g>
<g id="Watch">
</g>
<g id="Clock">
</g>
<g id="Volume">
</g>
<g id="Mute">
</g>
<g id="Hand">
</g>
<g id="Layers">
</g>
<g id="Bell">
</g>
<g id="Speach_Bubble">
</g>
<g id="Speach_Bubbles">
</g>
<g id="Zoom_In">
</g>
<g id="Zoom_Out">
</g>
<g id="Search">
</g>
<g id="Back_Arrow">
</g>
<g id="Close">
</g>
<g id="Check_2">
</g>
<g id="Left_Arrow_2">
</g>
<g id="Right_Arrow_2">
</g>
</svg>
