<?xml version="1.0" encoding="iso-8859-1"?>
<!-- Generator: Adobe Illustrator 19.2.1, SVG Export Plug-In . SVG Version: 6.00 Build 0)  -->
<svg version="1.1" xmlns="http://www.w3.org/2000/svg" xmlns:xlink="http://www.w3.org/1999/xlink" x="0px" y="0px"
	 viewBox="0 0 24 24" style="enable-background:new 0 0 24 24;" xml:space="preserve">
<g id="Flag">
</g>
<g id="Umbrella">
</g>
<g id="Briefcase">
</g>
<g id="Box">
</g>
<g id="Magnet">
</g>
<g id="Percent">
</g>
<g id="Rocket">
</g>
<g id="Share">
	<g>
		<g>
			<path d="M20,8c-2.206,0-4-1.794-4-4s1.794-4,4-4s4,1.794,4,4S22.206,8,20,8z M20,1c-1.654,0-3,1.346-3,3s1.346,3,3,3s3-1.346,3-3
				S21.654,1,20,1z"/>
		</g>
		<g>
			<path d="M20,24c-2.206,0-4-1.794-4-4s1.794-4,4-4s4,1.794,4,4S22.206,24,20,24z M20,17c-1.654,0-3,1.346-3,3s1.346,3,3,3
				s3-1.346,3-3S21.654,17,20,17z"/>
		</g>
		<g>
			<path d="M4,16c-2.206,0-4-1.794-4-4s1.794-4,4-4s4,1.794,4,4S6.206,16,4,16z M4,9c-1.654,0-3,1.346-3,3s1.346,3,3,3s3-1.346,3-3
				S5.654,9,4,9z"/>
		</g>
		<g>
			<path d="M7.131,10.935c-0.183,0-0.359-0.101-0.447-0.276c-0.123-0.247-0.023-0.547,0.224-0.671l9.738-4.869
				c0.248-0.122,0.546-0.024,0.671,0.224c0.123,0.247,0.023,0.547-0.224,0.671l-9.738,4.869C7.282,10.917,7.206,10.935,7.131,10.935
				z"/>
		</g>
		<g>
			<path d="M16.869,18.935c-0.075,0-0.151-0.017-0.224-0.053l-9.738-4.869c-0.247-0.124-0.347-0.424-0.224-0.671
				c0.124-0.248,0.425-0.344,0.671-0.224l9.738,4.869c0.247,0.124,0.347,0.424,0.224,0.671
				C17.229,18.833,17.052,18.935,16.869,18.935z"/>
		</g>
	</g>
</g>
<g id="Transmitter">
</g>
<g id="Record_2">
</g>
<g id="Record_1">
</g>
<g id="Anchor">
</g>
<g id="Airplane">
</g>
<g id="Car">
</g>
<g id="Newsfeed">
</g>
<g id="Wifi_Tethering">
</g>
<g id="No_Wifi_Tethering">
</g>
<g id="Bar_Chart_2">
</g>
<g id="Shop">
</g>
<g id="Alarm">
</g>
<g id="Sim_Card">
</g>
<g id="Radar">
</g>
<g id="Hand_2">
</g>
<g id="Palette">
</g>
<g id="Cake">
</g>
<g id="Blende">
</g>
<g id="Feather_Pen">
</g>
<g id="Ticket">
</g>
<g id="Medal">
</g>
<g id="Mouse_Pointer_1">
</g>
<g id="Mouse_Pointer_2">
</g>
<g id="Fingerprint">
</g>
<g id="Earth">
</g>
</svg>
