<?xml version="1.0" encoding="iso-8859-1"?>
<!-- Generator: Adobe Illustrator 19.2.1, SVG Export Plug-In . SVG Version: 6.00 Build 0)  -->
<svg version="1.1" xmlns="http://www.w3.org/2000/svg" xmlns:xlink="http://www.w3.org/1999/xlink" x="0px" y="0px"
	 viewBox="0 0 24 24" style="enable-background:new 0 0 24 24;" xml:space="preserve">
<g id="Flag">
</g>
<g id="Umbrella">
</g>
<g id="Briefcase">
</g>
<g id="Box">
</g>
<g id="Magnet">
</g>
<g id="Percent">
</g>
<g id="Rocket">
</g>
<g id="Share">
</g>
<g id="Transmitter">
</g>
<g id="Record_2">
</g>
<g id="Record_1">
</g>
<g id="Anchor">
</g>
<g id="Airplane">
</g>
<g id="Car">
</g>
<g id="Newsfeed">
</g>
<g id="Wifi_Tethering">
</g>
<g id="No_Wifi_Tethering">
</g>
<g id="Bar_Chart_2">
</g>
<g id="Shop">
	<g>
		<g>
			<path d="M4,11c-2.206,0-4-1.794-4-4V6.5C0,6.224,0.224,6,0.5,6S1,6.224,1,6.5V7c0,1.654,1.346,3,3,3
				c0.629,0,1.23-0.192,1.739-0.556c0.227-0.16,0.537-0.108,0.698,0.116c0.16,0.225,0.108,0.537-0.116,0.697
				C5.642,10.744,4.839,11,4,11z"/>
		</g>
		<g>
			<path d="M9,12c-1.39,0-2.658-0.705-3.395-1.885C5.459,9.881,5.53,9.573,5.765,9.426c0.232-0.145,0.542-0.075,0.688,0.16
				C7.006,10.471,7.958,11,9,11c1.062,0,2.023-0.544,2.571-1.455c0.145-0.237,0.453-0.313,0.687-0.17
				c0.236,0.143,0.313,0.45,0.171,0.686C11.697,11.275,10.415,12,9,12z"/>
		</g>
		<g>
			<path d="M15,12c-1.396,0-2.71-0.744-3.431-1.941c-0.143-0.237-0.065-0.544,0.171-0.687c0.238-0.14,0.544-0.065,0.687,0.171
				C12.975,10.456,13.938,11,15,11c1.042,0,1.994-0.528,2.547-1.413c0.146-0.234,0.458-0.304,0.688-0.16
				c0.234,0.146,0.306,0.455,0.159,0.689C17.658,11.296,16.389,12,15,12z"/>
		</g>
		<g>
			<path d="M20,11c-0.835,0-1.636-0.255-2.315-0.738c-0.226-0.16-0.278-0.472-0.118-0.697c0.16-0.226,0.473-0.278,0.696-0.118
				C18.772,9.809,19.373,10,20,10c1.654,0,3-1.346,3-3V6.5C23,6.224,23.224,6,23.5,6S24,6.224,24,6.5V7C24,9.206,22.206,11,20,11z"
				/>
		</g>
		<g>
			<path d="M6,10.303c-0.276,0-0.5-0.224-0.5-0.5V6.5C5.5,6.224,5.724,6,6,6s0.5,0.224,0.5,0.5v3.303
				C6.5,10.08,6.276,10.303,6,10.303z"/>
		</g>
		<g>
			<path d="M12,10.303c-0.276,0-0.5-0.224-0.5-0.5V2.5C11.5,2.224,11.724,2,12,2s0.5,0.224,0.5,0.5v7.303
				C12.5,10.08,12.276,10.303,12,10.303z"/>
		</g>
		<g>
			<path d="M18,10.32c-0.276,0-0.5-0.224-0.5-0.5V6.5C17.5,6.224,17.724,6,18,6s0.5,0.224,0.5,0.5v3.32
				C18.5,10.096,18.276,10.32,18,10.32z"/>
		</g>
		<g>
			<path d="M23.5,7h-23C0.224,7,0,6.776,0,6.5S0.224,6,0.5,6h23C23.776,6,24,6.224,24,6.5S23.776,7,23.5,7z"/>
		</g>
		<g>
			<path d="M23.5,7c-0.151,0-0.302-0.069-0.4-0.2L20.25,3H3.75L0.9,6.8C0.734,7.022,0.421,7.065,0.2,6.9
				C-0.021,6.734-0.065,6.421,0.1,6.2l3-4C3.194,2.074,3.343,2,3.5,2h17c0.157,0,0.306,0.074,0.4,0.2l3,4
				c0.165,0.221,0.12,0.534-0.101,0.7C23.71,6.967,23.604,7,23.5,7z"/>
		</g>
		<g>
			<path d="M20.5,22h-17C3.224,22,3,21.776,3,21.5v-11C3,10.224,3.224,10,3.5,10S4,10.224,4,10.5V21h16V10.5
				c0-0.276,0.224-0.5,0.5-0.5s0.5,0.224,0.5,0.5v11C21,21.776,20.776,22,20.5,22z"/>
		</g>
		<g>
			<path d="M18.5,22h-5c-0.276,0-0.5-0.224-0.5-0.5v-8c0-0.276,0.224-0.5,0.5-0.5h5c0.276,0,0.5,0.224,0.5,0.5v8
				C19,21.776,18.776,22,18.5,22z M14,21h4v-7h-4V21z"/>
		</g>
		<g>
			<path d="M11.5,18h-6C5.224,18,5,17.776,5,17.5v-4C5,13.224,5.224,13,5.5,13h6c0.276,0,0.5,0.224,0.5,0.5v4
				C12,17.776,11.776,18,11.5,18z M6,17h5v-3H6V17z"/>
		</g>
		<g>
			<path d="M6,7C5.925,7,5.849,6.983,5.776,6.947C5.529,6.824,5.43,6.523,5.553,6.276l2-4c0.125-0.247,0.424-0.345,0.671-0.224
				C8.471,2.176,8.57,2.477,8.447,2.724l-2,4C6.359,6.899,6.183,7,6,7z"/>
		</g>
		<g>
			<path d="M18,7c-0.183,0-0.359-0.101-0.447-0.276l-2-4c-0.123-0.247-0.023-0.547,0.224-0.671c0.247-0.122,0.547-0.023,0.671,0.224
				l2,4c0.123,0.247,0.023,0.547-0.224,0.671C18.151,6.983,18.075,7,18,7z"/>
		</g>
	</g>
</g>
<g id="Alarm">
</g>
<g id="Sim_Card">
</g>
<g id="Radar">
</g>
<g id="Hand_2">
</g>
<g id="Palette">
</g>
<g id="Cake">
</g>
<g id="Blende">
</g>
<g id="Feather_Pen">
</g>
<g id="Ticket">
</g>
<g id="Medal">
</g>
<g id="Mouse_Pointer_1">
</g>
<g id="Mouse_Pointer_2">
</g>
<g id="Fingerprint">
</g>
<g id="Earth">
</g>
</svg>
