<?xml version="1.0" encoding="iso-8859-1"?>
<!-- Generator: Adobe Illustrator 19.2.1, SVG Export Plug-In . SVG Version: 6.00 Build 0)  -->
<svg version="1.1" xmlns="http://www.w3.org/2000/svg" xmlns:xlink="http://www.w3.org/1999/xlink" x="0px" y="0px"
	 viewBox="0 0 24 24" style="enable-background:new 0 0 24 24;" xml:space="preserve">
<g id="Credit_Card">
</g>
<g id="Banknote">
</g>
<g id="Wallet">
</g>
<g id="Compass">
</g>
<g id="Camera_1">
</g>
<g id="Photo">
</g>
<g id="Picture">
</g>
<g id="Camera_2">
</g>
<g id="No_Camera">
</g>
<g id="Video">
</g>
<g id="Audio">
</g>
<g id="Microphone_1">
</g>
<g id="Microphone_2">
</g>
<g id="No_Microphone">
</g>
<g id="Shopping_Cart">
</g>
<g id="Add_Shopping_Cart">
</g>
<g id="Remove_Shopping_Cart">
</g>
<g id="Shopping_Basket">
</g>
<g id="Jing-Jang">
</g>
<g id="Leaf">
</g>
<g id="Glass">
</g>
<g id="Cup">
</g>
<g id="Mug">
</g>
<g id="Refresh">
</g>
<g id="Login">
</g>
<g id="Logout">
</g>
<g id="Flowchart">
</g>
<g id="Pin_1">
</g>
<g id="Pin_2">
</g>
<g id="User_1">
</g>
<g id="User_2">
</g>
<g id="Users">
</g>
<g id="Adjustments">
</g>
<g id="Type">
</g>
<g id="Format_Size">
</g>
<g id="Menu_1">
</g>
<g id="Other">
</g>
<g id="Flash">
</g>
<g id="No_Flash">
</g>
<g id="Switch_Button_1">
</g>
<g id="Switch_Button_2">
</g>
<g id="Cut">
</g>
<g id="Crop">
</g>
<g id="Sun">
</g>
<g id="USB">
</g>
<g id="Pie_Chart_1">
</g>
<g id="Pie_Chart_2">
</g>
<g id="Line_Chart">
</g>
<g id="Bar_Chart">
</g>
<g id="Target">
</g>
<g id="Flashlight">
</g>
<g id="USB_Device">
</g>
<g id="Eject">
</g>
<g id="Lightbulb">
</g>
<g id="Information">
</g>
<g id="Deactivate_Protection">
</g>
<g id="Active_Protection">
</g>
<g id="Bug">
</g>
<g id="Protection">
</g>
<g id="Phone">
</g>
<g id="List">
</g>
<g id="Plugin_1">
</g>
<g id="Bookmarrk">
</g>
<g id="Handshake">
</g>
<g id="Minimize">
</g>
<g id="Maximize">
</g>
<g id="Diamond">
</g>
<g id="Stop">
</g>
<g id="Shuffle">
	<g>
		<g>
			<path d="M23.5,18H22c-6.806,0-8.938-3.391-11-6.669C8.953,8.075,7.019,5,0.5,5C0.224,5,0,4.776,0,4.5S0.224,4,0.5,4
				c7.071,0,9.245,3.456,11.347,6.799C13.853,13.987,15.747,17,22,17h1.5c0.276,0,0.5,0.224,0.5,0.5S23.776,18,23.5,18z"/>
		</g>
		<g>
			<g>
				<path d="M13.637,11.318c-0.118,0-0.236-0.041-0.331-0.126c-0.207-0.183-0.227-0.499-0.043-0.705C15.398,8.075,18.094,7,22,7h1.5
					C23.776,7,24,7.224,24,7.5S23.776,8,23.5,8H22c-4.608,0-6.689,1.684-7.989,3.149C13.912,11.262,13.774,11.318,13.637,11.318z"/>
			</g>
			<g>
				<path d="M11.039,15.043c-0.093,0-0.187-0.025-0.27-0.079c-0.232-0.149-0.301-0.458-0.151-0.69l0.143-0.226
					c0.149-0.234,0.46-0.303,0.689-0.158c0.234,0.147,0.305,0.456,0.158,0.689l-0.148,0.233
					C11.364,14.962,11.203,15.043,11.039,15.043z"/>
			</g>
			<g>
				<path d="M0.5,21C0.224,21,0,20.776,0,20.5S0.224,20,0.5,20c5.984,0,8.123-2.593,10.117-5.726c0.15-0.232,0.461-0.299,0.69-0.153
					c0.233,0.148,0.302,0.457,0.153,0.69C9.384,18.072,6.983,21,0.5,21z"/>
			</g>
		</g>
		<g>
			<path d="M20.5,21c-0.128,0-0.256-0.049-0.354-0.146c-0.195-0.195-0.195-0.512,0-0.707l2.646-2.646l-2.646-2.646
				c-0.195-0.195-0.195-0.512,0-0.707s0.512-0.195,0.707,0l3,3c0.195,0.195,0.195,0.512,0,0.707l-3,3
				C20.756,20.951,20.628,21,20.5,21z"/>
		</g>
		<g>
			<path d="M20.5,11c-0.128,0-0.256-0.049-0.354-0.146c-0.195-0.195-0.195-0.512,0-0.707L22.793,7.5l-2.646-2.646
				c-0.195-0.195-0.195-0.512,0-0.707s0.512-0.195,0.707,0l3,3c0.195,0.195,0.195,0.512,0,0.707l-3,3
				C20.756,10.951,20.628,11,20.5,11z"/>
		</g>
	</g>
</g>
<g id="Undo">
</g>
<g id="Upgrade">
</g>
<g id="Coding">
</g>
<g id="Syncronizaion">
</g>
<g id="Radio">
</g>
<g id="Presentation">
</g>
<g id="Door">
</g>
<g id="Thumbs_Up">
</g>
<g id="Thumbs_Down">
</g>
<g id="Keyboard">
</g>
<g id="_x33_D_Cube">
</g>
<g id="Signal">
</g>
<g id="Dice">
</g>
<g id="Upload">
</g>
<g id="Download">
</g>
<g id="Plugin_2">
</g>
<g id="Shopping_Bag">
</g>
<g id="Lifebelt">
</g>
<g id="Glasses">
</g>
<g id="Parabolic_Antenna">
</g>
<g id="Loudspeaker">
</g>
<g id="Play">
</g>
<g id="Pause">
</g>
<g id="Signpost">
</g>
<g id="Bluetooth">
</g>
<g id="Present">
</g>
<g id="Ruler">
</g>
<g id="Connection">
</g>
<g id="Money">
</g>
<g id="Paper_Plane">
</g>
<g id="Wallet_2">
</g>
</svg>
