<?xml version="1.0" encoding="iso-8859-1"?>
<!-- Generator: Adobe Illustrator 19.2.1, SVG Export Plug-In . SVG Version: 6.00 Build 0)  -->
<svg version="1.1" xmlns="http://www.w3.org/2000/svg" xmlns:xlink="http://www.w3.org/1999/xlink" x="0px" y="0px"
	 viewBox="0 0 24 24" style="enable-background:new 0 0 24 24;" xml:space="preserve">
<g id="Credit_Card">
</g>
<g id="Banknote">
</g>
<g id="Wallet">
</g>
<g id="Compass">
</g>
<g id="Camera_1">
</g>
<g id="Photo">
</g>
<g id="Picture">
</g>
<g id="Camera_2">
</g>
<g id="No_Camera">
</g>
<g id="Video">
</g>
<g id="Audio">
</g>
<g id="Microphone_1">
</g>
<g id="Microphone_2">
</g>
<g id="No_Microphone">
</g>
<g id="Shopping_Cart">
</g>
<g id="Add_Shopping_Cart">
</g>
<g id="Remove_Shopping_Cart">
</g>
<g id="Shopping_Basket">
</g>
<g id="Jing-Jang">
</g>
<g id="Leaf">
</g>
<g id="Glass">
</g>
<g id="Cup">
</g>
<g id="Mug">
</g>
<g id="Refresh">
</g>
<g id="Login">
</g>
<g id="Logout">
</g>
<g id="Flowchart">
</g>
<g id="Pin_1">
</g>
<g id="Pin_2">
</g>
<g id="User_1">
</g>
<g id="User_2">
</g>
<g id="Users">
</g>
<g id="Adjustments">
</g>
<g id="Type">
</g>
<g id="Format_Size">
</g>
<g id="Menu_1">
</g>
<g id="Other">
</g>
<g id="Flash">
</g>
<g id="No_Flash">
</g>
<g id="Switch_Button_1">
</g>
<g id="Switch_Button_2">
</g>
<g id="Cut">
</g>
<g id="Crop">
</g>
<g id="Sun">
</g>
<g id="USB">
</g>
<g id="Pie_Chart_1">
</g>
<g id="Pie_Chart_2">
</g>
<g id="Line_Chart">
</g>
<g id="Bar_Chart">
</g>
<g id="Target">
</g>
<g id="Flashlight">
</g>
<g id="USB_Device">
</g>
<g id="Eject">
</g>
<g id="Lightbulb">
</g>
<g id="Information">
</g>
<g id="Deactivate_Protection">
</g>
<g id="Active_Protection">
</g>
<g id="Bug">
</g>
<g id="Protection">
</g>
<g id="Phone">
</g>
<g id="List">
</g>
<g id="Plugin_1">
</g>
<g id="Bookmarrk">
</g>
<g id="Handshake">
</g>
<g id="Minimize">
</g>
<g id="Maximize">
</g>
<g id="Diamond">
</g>
<g id="Stop">
</g>
<g id="Shuffle">
</g>
<g id="Undo">
</g>
<g id="Upgrade">
</g>
<g id="Coding">
</g>
<g id="Syncronizaion">
</g>
<g id="Radio">
</g>
<g id="Presentation">
</g>
<g id="Door">
</g>
<g id="Thumbs_Up">
</g>
<g id="Thumbs_Down">
</g>
<g id="Keyboard">
</g>
<g id="_x33_D_Cube">
</g>
<g id="Signal">
</g>
<g id="Dice">
</g>
<g id="Upload">
</g>
<g id="Download">
</g>
<g id="Plugin_2">
</g>
<g id="Shopping_Bag">
</g>
<g id="Lifebelt">
</g>
<g id="Glasses">
</g>
<g id="Parabolic_Antenna">
</g>
<g id="Loudspeaker">
</g>
<g id="Play">
</g>
<g id="Pause">
</g>
<g id="Signpost">
	<g>
		<g>
			<path d="M17.5,7h-13C4.367,7,4.24,6.947,4.146,6.854l-2-2c-0.195-0.195-0.195-0.512,0-0.707l2-2C4.24,2.053,4.367,2,4.5,2h13
				C18.327,2,19,2.673,19,3.5v2C19,6.327,18.327,7,17.5,7z M4.707,6H17.5C17.776,6,18,5.775,18,5.5v-2C18,3.225,17.776,3,17.5,3
				H4.707l-1.5,1.5L4.707,6z"/>
		</g>
		<g>
			<path d="M18.5,14h-13C4.673,14,4,13.327,4,12.5v-2C4,9.673,4.673,9,5.5,9h13c0.133,0,0.26,0.053,0.354,0.146l2,2
				c0.195,0.195,0.195,0.512,0,0.707l-2,2C18.76,13.947,18.633,14,18.5,14z M5.5,10C5.224,10,5,10.225,5,10.5v2
				C5,12.775,5.224,13,5.5,13h12.793l1.5-1.5l-1.5-1.5H5.5z"/>
		</g>
		<g>
			<path d="M11.5,3C11.224,3,11,2.776,11,2.5v-2C11,0.224,11.224,0,11.5,0S12,0.224,12,0.5v2C12,2.776,11.776,3,11.5,3z"/>
		</g>
		<g>
			<path d="M11.5,10C11.224,10,11,9.776,11,9.5v-3C11,6.224,11.224,6,11.5,6S12,6.224,12,6.5v3C12,9.776,11.776,10,11.5,10z"/>
		</g>
		<g>
			<path d="M11.5,24c-0.276,0-0.5-0.224-0.5-0.5v-10c0-0.276,0.224-0.5,0.5-0.5s0.5,0.224,0.5,0.5v10C12,23.776,11.776,24,11.5,24z"
				/>
		</g>
		<g>
			<path d="M14.5,24h-6C8.224,24,8,23.776,8,23.5S8.224,23,8.5,23h6c0.276,0,0.5,0.224,0.5,0.5S14.776,24,14.5,24z"/>
		</g>
	</g>
</g>
<g id="Bluetooth">
</g>
<g id="Present">
</g>
<g id="Ruler">
</g>
<g id="Connection">
</g>
<g id="Money">
</g>
<g id="Paper_Plane">
</g>
<g id="Wallet_2">
</g>
</svg>
