<?xml version="1.0" encoding="iso-8859-1"?>
<!-- Generator: Adobe Illustrator 19.2.1, SVG Export Plug-In . SVG Version: 6.00 Build 0)  -->
<svg version="1.1" xmlns="http://www.w3.org/2000/svg" xmlns:xlink="http://www.w3.org/1999/xlink" x="0px" y="0px"
	 viewBox="0 0 24 24" style="enable-background:new 0 0 24 24;" xml:space="preserve">
<g id="Flag">
</g>
<g id="Umbrella">
</g>
<g id="Briefcase">
</g>
<g id="Box">
</g>
<g id="Magnet">
</g>
<g id="Percent">
</g>
<g id="Rocket">
</g>
<g id="Share">
</g>
<g id="Transmitter">
</g>
<g id="Record_2">
</g>
<g id="Record_1">
</g>
<g id="Anchor">
</g>
<g id="Airplane">
</g>
<g id="Car">
</g>
<g id="Newsfeed">
</g>
<g id="Wifi_Tethering">
</g>
<g id="No_Wifi_Tethering">
</g>
<g id="Bar_Chart_2">
</g>
<g id="Shop">
</g>
<g id="Alarm">
</g>
<g id="Sim_Card">
	<g>
		<g>
			<path d="M19.5,24h-15C3.122,24,2,22.879,2,21.5v-19C2,1.121,3.122,0,4.5,0h12c0.133,0,0.26,0.053,0.354,0.146l5,5
				C21.947,5.24,22,5.367,22,5.5v16C22,22.879,20.878,24,19.5,24z M4.5,1C3.673,1,3,1.673,3,2.5v19C3,22.327,3.673,23,4.5,23h15
				c0.827,0,1.5-0.673,1.5-1.5V5.707L16.293,1H4.5z"/>
		</g>
		<g>
			<path d="M13.5,22h-6C5.57,22,4,20.43,4,18.5v-10C4,6.57,5.57,5,7.5,5h6C15.43,5,17,6.57,17,8.5v10C17,20.43,15.43,22,13.5,22z
				 M7.5,6C6.122,6,5,7.121,5,8.5v10C5,19.879,6.122,21,7.5,21h6c1.378,0,2.5-1.121,2.5-2.5v-10C16,7.121,14.878,6,13.5,6H7.5z"/>
		</g>
		<g>
			<path d="M8.5,22C8.224,22,8,21.776,8,21.5v-4C8,17.224,8.224,17,8.5,17S9,17.224,9,17.5v4C9,21.776,8.776,22,8.5,22z"/>
		</g>
		<g>
			<path d="M12.5,22c-0.276,0-0.5-0.224-0.5-0.5v-4c0-0.276,0.224-0.5,0.5-0.5s0.5,0.224,0.5,0.5v4C13,21.776,12.776,22,12.5,22z"/>
		</g>
		<g>
			<path d="M8.5,10C8.224,10,8,9.776,8,9.5v-4C8,5.224,8.224,5,8.5,5S9,5.224,9,5.5v4C9,9.776,8.776,10,8.5,10z"/>
		</g>
		<g>
			<path d="M12.5,10C12.224,10,12,9.776,12,9.5v-4C12,5.224,12.224,5,12.5,5S13,5.224,13,5.5v4C13,9.776,12.776,10,12.5,10z"/>
		</g>
		<g>
			<path d="M6.5,14h-2C4.224,14,4,13.776,4,13.5S4.224,13,4.5,13h2C6.776,13,7,13.224,7,13.5S6.776,14,6.5,14z"/>
		</g>
		<g>
			<path d="M16.5,14h-2c-0.276,0-0.5-0.224-0.5-0.5s0.224-0.5,0.5-0.5h2c0.276,0,0.5,0.224,0.5,0.5S16.776,14,16.5,14z"/>
		</g>
	</g>
</g>
<g id="Radar">
</g>
<g id="Hand_2">
</g>
<g id="Palette">
</g>
<g id="Cake">
</g>
<g id="Blende">
</g>
<g id="Feather_Pen">
</g>
<g id="Ticket">
</g>
<g id="Medal">
</g>
<g id="Mouse_Pointer_1">
</g>
<g id="Mouse_Pointer_2">
</g>
<g id="Fingerprint">
</g>
<g id="Earth">
</g>
</svg>
