<?xml version="1.0" encoding="iso-8859-1"?>
<!-- Generator: Adobe Illustrator 19.2.1, SVG Export Plug-In . SVG Version: 6.00 Build 0)  -->
<svg version="1.1" xmlns="http://www.w3.org/2000/svg" xmlns:xlink="http://www.w3.org/1999/xlink" x="0px" y="0px"
	 viewBox="0 0 24 24" style="enable-background:new 0 0 24 24;" xml:space="preserve">
<g id="Mail">
</g>
<g id="Open_Mail">
</g>
<g id="Mail_Attachmet">
</g>
<g id="Mails">
</g>
<g id="Trash">
</g>
<g id="Trash_Full">
</g>
<g id="Preferences_1">
</g>
<g id="Preferences_2">
</g>
<g id="Mouse">
</g>
<g id="Computer">
</g>
<g id="Notebook">
</g>
<g id="Mobile_Phone">
</g>
<g id="Print">
</g>
<g id="Calculator">
</g>
<g id="Tag">
</g>
<g id="Paperclip">
</g>
<g id="Heart">
</g>
<g id="Lock">
</g>
<g id="Lock_Open">
</g>
<g id="Key_1">
</g>
<g id="Star">
</g>
<g id="Add">
</g>
<g id="Remove">
</g>
<g id="Error">
</g>
<g id="Check_1">
</g>
<g id="Time">
</g>
<g id="Question_Mark">
</g>
<g id="Error_Mark">
</g>
<g id="Sand-Glass">
</g>
<g id="Battery_Full">
</g>
<g id="Battery_Charge">
</g>
<g id="Battery_Half">
</g>
<g id="Battery_Low">
</g>
<g id="No_Battery">
</g>
<g id="Key_2">
</g>
<g id="Link">
</g>
<g id="Brake_Link">
</g>
<g id="Pencil">
</g>
<g id="At">
</g>
<g id="Reply">
</g>
<g id="Accessible">
</g>
<g id="Up_Arrow">
</g>
<g id="Brush">
</g>
<g id="Design_Mug">
</g>
<g id="Design">
</g>
<g id="Server">
</g>
<g id="Database">
</g>
<g id="Save">
</g>
<g id="Female">
</g>
<g id="Male">
</g>
<g id="Book">
</g>
<g id="Power">
</g>
<g id="Reload">
</g>
<g id="Map">
</g>
<g id="Loction_1">
</g>
<g id="Location_2">
</g>
<g id="Globe">
</g>
<g id="Suitcase">
</g>
<g id="Callendar">
</g>
<g id="Cloud_Off">
</g>
<g id="File_1">
</g>
<g id="File_2">
</g>
<g id="Folder">
</g>
<g id="Open_Folder">
</g>
<g id="Cloud">
</g>
<g id="Upload_Cloud">
</g>
<g id="Download_Cloud">
</g>
<g id="Eye">
</g>
<g id="Invisible">
</g>
<g id="Assignment">
</g>
<g id="Note_Book">
</g>
<g id="Webpage">
</g>
<g id="Mailbox">
</g>
<g id="Drive">
</g>
<g id="Disc">
</g>
<g id="Wifi_1">
</g>
<g id="Wifi_2">
</g>
<g id="Archive">
</g>
<g id="Archive_File">
</g>
<g id="News">
</g>
<g id="Home">
</g>
<g id="Collaboration">
</g>
<g id="Announcement">
</g>
<g id="Watch">
</g>
<g id="Clock">
</g>
<g id="Volume">
</g>
<g id="Mute">
</g>
<g id="Hand">
</g>
<g id="Layers">
</g>
<g id="Bell">
</g>
<g id="Speach_Bubble">
</g>
<g id="Speach_Bubbles">
	<g>
		<g>
			<g>
				<path d="M20.5,21c-0.13,0-0.258-0.051-0.354-0.146L15.293,16H6.5C4.57,16,3,14.43,3,12.5v-9C3,1.57,4.57,0,6.5,0h14
					C22.43,0,24,1.57,24,3.5v9c0,1.76-1.306,3.221-3,3.465V20.5c0,0.202-0.122,0.385-0.309,0.462C20.629,20.987,20.564,21,20.5,21z
					 M6.5,1C5.122,1,4,2.121,4,3.5v9C4,13.879,5.122,15,6.5,15h9c0.133,0,0.26,0.053,0.354,0.146L20,19.293V15.5
					c0-0.276,0.224-0.5,0.5-0.5c1.378,0,2.5-1.121,2.5-2.5v-9C23,2.121,21.878,1,20.5,1H6.5z"/>
			</g>
		</g>
		<g>
			<g>
				<path d="M3.5,24c-0.064,0-0.129-0.013-0.191-0.038C3.122,23.885,3,23.702,3,23.5v-4.535C1.306,18.721,0,17.26,0,15.5v-9
					c0-0.994,0.425-1.945,1.166-2.608c0.207-0.184,0.521-0.166,0.706,0.04c0.184,0.205,0.167,0.521-0.039,0.706
					C1.303,5.11,1,5.79,1,6.5v9C1,16.879,2.122,18,3.5,18C3.776,18,4,18.224,4,18.5v3.793l4.146-4.146C8.24,18.053,8.367,18,8.5,18
					h7.172c0.276,0,0.5,0.224,0.5,0.5s-0.224,0.5-0.5,0.5H8.707l-4.854,4.854C3.758,23.949,3.63,24,3.5,24z"/>
			</g>
		</g>
	</g>
</g>
<g id="Zoom_In">
</g>
<g id="Zoom_Out">
</g>
<g id="Search">
</g>
<g id="Back_Arrow">
</g>
<g id="Close">
</g>
<g id="Check_2">
</g>
<g id="Left_Arrow_2">
</g>
<g id="Right_Arrow_2">
</g>
</svg>
