<?xml version="1.0" encoding="iso-8859-1"?>
<!-- Generator: Adobe Illustrator 19.2.1, SVG Export Plug-In . SVG Version: 6.00 Build 0)  -->
<svg version="1.1" xmlns="http://www.w3.org/2000/svg" xmlns:xlink="http://www.w3.org/1999/xlink" x="0px" y="0px"
	 viewBox="0 0 24 24" style="enable-background:new 0 0 24 24;" xml:space="preserve">
<g id="Credit_Card">
</g>
<g id="Banknote">
</g>
<g id="Wallet">
</g>
<g id="Compass">
</g>
<g id="Camera_1">
</g>
<g id="Photo">
</g>
<g id="Picture">
</g>
<g id="Camera_2">
</g>
<g id="No_Camera">
</g>
<g id="Video">
</g>
<g id="Audio">
</g>
<g id="Microphone_1">
</g>
<g id="Microphone_2">
</g>
<g id="No_Microphone">
</g>
<g id="Shopping_Cart">
</g>
<g id="Add_Shopping_Cart">
</g>
<g id="Remove_Shopping_Cart">
</g>
<g id="Shopping_Basket">
</g>
<g id="Jing-Jang">
</g>
<g id="Leaf">
</g>
<g id="Glass">
</g>
<g id="Cup">
</g>
<g id="Mug">
</g>
<g id="Refresh">
</g>
<g id="Login">
</g>
<g id="Logout">
</g>
<g id="Flowchart">
</g>
<g id="Pin_1">
</g>
<g id="Pin_2">
</g>
<g id="User_1">
</g>
<g id="User_2">
</g>
<g id="Users">
</g>
<g id="Adjustments">
</g>
<g id="Type">
</g>
<g id="Format_Size">
</g>
<g id="Menu_1">
</g>
<g id="Other">
</g>
<g id="Flash">
</g>
<g id="No_Flash">
</g>
<g id="Switch_Button_1">
</g>
<g id="Switch_Button_2">
</g>
<g id="Cut">
</g>
<g id="Crop">
</g>
<g id="Sun">
	<g>
		<g>
			<path d="M11.5,18C8.467,18,6,15.533,6,12.5S8.467,7,11.5,7S17,9.467,17,12.5S14.533,18,11.5,18z M11.5,8C9.019,8,7,10.019,7,12.5
				S9.019,17,11.5,17s4.5-2.019,4.5-4.5S13.981,8,11.5,8z"/>
		</g>
		<g>
			<path d="M11.5,6C11.224,6,11,5.776,11,5.5v-4C11,1.224,11.224,1,11.5,1S12,1.224,12,1.5v4C12,5.776,11.776,6,11.5,6z"/>
		</g>
		<g>
			<path d="M11.5,24c-0.276,0-0.5-0.224-0.5-0.5v-4c0-0.276,0.224-0.5,0.5-0.5s0.5,0.224,0.5,0.5v4C12,23.776,11.776,24,11.5,24z"/>
		</g>
		<g>
			<path d="M22.5,13h-4c-0.276,0-0.5-0.224-0.5-0.5s0.224-0.5,0.5-0.5h4c0.276,0,0.5,0.224,0.5,0.5S22.776,13,22.5,13z"/>
		</g>
		<g>
			<path d="M4.5,13h-4C0.224,13,0,12.776,0,12.5S0.224,12,0.5,12h4C4.776,12,5,12.224,5,12.5S4.776,13,4.5,13z"/>
		</g>
		<g>
			<path d="M19.278,20.778c-0.128,0-0.256-0.049-0.354-0.146l-2.829-2.829c-0.195-0.195-0.195-0.512,0-0.707s0.512-0.195,0.707,0
				l2.829,2.829c0.195,0.195,0.195,0.512,0,0.707C19.534,20.729,19.406,20.778,19.278,20.778z"/>
		</g>
		<g>
			<path d="M6.55,8.05c-0.128,0-0.256-0.049-0.354-0.146L3.368,5.075c-0.195-0.195-0.195-0.512,0-0.707s0.512-0.195,0.707,0
				l2.829,2.829c0.195,0.195,0.195,0.512,0,0.707C6.806,8.001,6.678,8.05,6.55,8.05z"/>
		</g>
		<g>
			<path d="M16.45,8.05c-0.128,0-0.256-0.049-0.354-0.146c-0.195-0.195-0.195-0.512,0-0.707l2.829-2.829
				c0.195-0.195,0.512-0.195,0.707,0s0.195,0.512,0,0.707l-2.829,2.829C16.706,8.001,16.578,8.05,16.45,8.05z"/>
		</g>
		<g>
			<path d="M3.722,20.778c-0.128,0-0.256-0.049-0.354-0.146c-0.195-0.195-0.195-0.512,0-0.707l2.829-2.829
				c0.195-0.195,0.512-0.195,0.707,0s0.195,0.512,0,0.707l-2.829,2.829C3.978,20.729,3.85,20.778,3.722,20.778z"/>
		</g>
	</g>
</g>
<g id="USB">
</g>
<g id="Pie_Chart_1">
</g>
<g id="Pie_Chart_2">
</g>
<g id="Line_Chart">
</g>
<g id="Bar_Chart">
</g>
<g id="Target">
</g>
<g id="Flashlight">
</g>
<g id="USB_Device">
</g>
<g id="Eject">
</g>
<g id="Lightbulb">
</g>
<g id="Information">
</g>
<g id="Deactivate_Protection">
</g>
<g id="Active_Protection">
</g>
<g id="Bug">
</g>
<g id="Protection">
</g>
<g id="Phone">
</g>
<g id="List">
</g>
<g id="Plugin_1">
</g>
<g id="Bookmarrk">
</g>
<g id="Handshake">
</g>
<g id="Minimize">
</g>
<g id="Maximize">
</g>
<g id="Diamond">
</g>
<g id="Stop">
</g>
<g id="Shuffle">
</g>
<g id="Undo">
</g>
<g id="Upgrade">
</g>
<g id="Coding">
</g>
<g id="Syncronizaion">
</g>
<g id="Radio">
</g>
<g id="Presentation">
</g>
<g id="Door">
</g>
<g id="Thumbs_Up">
</g>
<g id="Thumbs_Down">
</g>
<g id="Keyboard">
</g>
<g id="_x33_D_Cube">
</g>
<g id="Signal">
</g>
<g id="Dice">
</g>
<g id="Upload">
</g>
<g id="Download">
</g>
<g id="Plugin_2">
</g>
<g id="Shopping_Bag">
</g>
<g id="Lifebelt">
</g>
<g id="Glasses">
</g>
<g id="Parabolic_Antenna">
</g>
<g id="Loudspeaker">
</g>
<g id="Play">
</g>
<g id="Pause">
</g>
<g id="Signpost">
</g>
<g id="Bluetooth">
</g>
<g id="Present">
</g>
<g id="Ruler">
</g>
<g id="Connection">
</g>
<g id="Money">
</g>
<g id="Paper_Plane">
</g>
<g id="Wallet_2">
</g>
</svg>
