<?xml version="1.0" encoding="iso-8859-1"?>
<!-- Generator: Adobe Illustrator 19.2.1, SVG Export Plug-In . SVG Version: 6.00 Build 0)  -->
<svg version="1.1" xmlns="http://www.w3.org/2000/svg" xmlns:xlink="http://www.w3.org/1999/xlink" x="0px" y="0px"
	 viewBox="0 0 24 24" style="enable-background:new 0 0 24 24;" xml:space="preserve">
<g id="Credit_Card">
</g>
<g id="Banknote">
</g>
<g id="Wallet">
</g>
<g id="Compass">
</g>
<g id="Camera_1">
</g>
<g id="Photo">
</g>
<g id="Picture">
</g>
<g id="Camera_2">
</g>
<g id="No_Camera">
</g>
<g id="Video">
</g>
<g id="Audio">
</g>
<g id="Microphone_1">
</g>
<g id="Microphone_2">
</g>
<g id="No_Microphone">
</g>
<g id="Shopping_Cart">
</g>
<g id="Add_Shopping_Cart">
</g>
<g id="Remove_Shopping_Cart">
</g>
<g id="Shopping_Basket">
</g>
<g id="Jing-Jang">
</g>
<g id="Leaf">
</g>
<g id="Glass">
</g>
<g id="Cup">
</g>
<g id="Mug">
</g>
<g id="Refresh">
</g>
<g id="Login">
</g>
<g id="Logout">
</g>
<g id="Flowchart">
</g>
<g id="Pin_1">
</g>
<g id="Pin_2">
</g>
<g id="User_1">
</g>
<g id="User_2">
</g>
<g id="Users">
</g>
<g id="Adjustments">
</g>
<g id="Type">
</g>
<g id="Format_Size">
</g>
<g id="Menu_1">
</g>
<g id="Other">
</g>
<g id="Flash">
</g>
<g id="No_Flash">
</g>
<g id="Switch_Button_1">
</g>
<g id="Switch_Button_2">
</g>
<g id="Cut">
</g>
<g id="Crop">
</g>
<g id="Sun">
</g>
<g id="USB">
</g>
<g id="Pie_Chart_1">
</g>
<g id="Pie_Chart_2">
</g>
<g id="Line_Chart">
</g>
<g id="Bar_Chart">
</g>
<g id="Target">
</g>
<g id="Flashlight">
</g>
<g id="USB_Device">
</g>
<g id="Eject">
</g>
<g id="Lightbulb">
</g>
<g id="Information">
</g>
<g id="Deactivate_Protection">
</g>
<g id="Active_Protection">
</g>
<g id="Bug">
</g>
<g id="Protection">
</g>
<g id="Phone">
</g>
<g id="List">
</g>
<g id="Plugin_1">
</g>
<g id="Bookmarrk">
</g>
<g id="Handshake">
</g>
<g id="Minimize">
</g>
<g id="Maximize">
</g>
<g id="Diamond">
</g>
<g id="Stop">
</g>
<g id="Shuffle">
</g>
<g id="Undo">
</g>
<g id="Upgrade">
</g>
<g id="Coding">
</g>
<g id="Syncronizaion">
</g>
<g id="Radio">
</g>
<g id="Presentation">
</g>
<g id="Door">
</g>
<g id="Thumbs_Up">
</g>
<g id="Thumbs_Down">
	<g>
		<g>
			<path d="M13,23c-1.038,0-1.781-0.585-1.813-0.609C11.069,22.296,11,22.152,11,22v-3.391l-2.881-6.24L8,12.309V12.5
				C8,12.776,7.776,13,7.5,13h-5C1.121,13,0,11.879,0,10.5v-8C0,1.121,1.121,0,2.5,0h3c1.081,0,2.005,0.69,2.353,1.653
				C8.685,1.225,9.805,1,10.5,1h9.179c1.089,0,2.042,0.734,2.266,1.747c0.115,0.521,0.048,1.046-0.18,1.502
				C22.503,4.62,23,5.383,23,6.25c0,0.354-0.081,0.693-0.234,0.999C23.504,7.621,24,8.383,24,9.25c0,0.601-0.239,1.161-0.65,1.574
				c0.467,0.511,0.705,1.196,0.64,1.909C23.872,14.004,22.727,15,21.381,15h-6.177C15.51,15.929,16,17.632,16,19
				C16,21.169,14.157,23,13,23z M12,21.729C12.207,21.843,12.569,22,13,22c0.548,0,2-1.362,2-3c0-1.76-0.958-4.297-0.967-4.322
				c-0.059-0.153-0.038-0.326,0.055-0.462C14.182,14.081,14.336,14,14.5,14h6.881c0.834,0,1.542-0.597,1.612-1.358
				c0.053-0.57-0.221-1.112-0.712-1.415c-0.153-0.095-0.244-0.265-0.237-0.445c0.008-0.181,0.111-0.343,0.271-0.426
				C22.738,10.14,23,9.716,23,9.25c0-0.631-0.477-1.161-1.108-1.233c-0.193-0.022-0.356-0.154-0.418-0.339
				c-0.062-0.186-0.01-0.389,0.132-0.522C21.859,6.916,22,6.594,22,6.25c0-0.631-0.477-1.161-1.108-1.233
				c-0.193-0.022-0.356-0.154-0.418-0.339c-0.062-0.186-0.01-0.389,0.132-0.522c0.329-0.311,0.461-0.745,0.362-1.192
				C20.845,2.404,20.303,2,19.679,2H10.5C9.688,2,8.326,2.381,7.854,2.854C7.71,2.996,7.495,3.038,7.309,2.962
				C7.122,2.885,7,2.702,7,2.5C7,1.673,6.327,1,5.5,1h-3C1.673,1,1,1.673,1,2.5v8C1,11.327,1.673,12,2.5,12H7v-0.5
				c0-0.173,0.09-0.334,0.237-0.426c0.146-0.089,0.331-0.099,0.486-0.021l1,0.5c0.102,0.051,0.183,0.135,0.23,0.237l3,6.5
				C11.984,18.356,12,18.428,12,18.5V21.729z"/>
		</g>
	</g>
	<g>
		<path d="M7.5,12C7.224,12,7,11.776,7,11.5v-9C7,2.224,7.224,2,7.5,2S8,2.224,8,2.5v9C8,11.776,7.776,12,7.5,12z"/>
	</g>
</g>
<g id="Keyboard">
</g>
<g id="_x33_D_Cube">
</g>
<g id="Signal">
</g>
<g id="Dice">
</g>
<g id="Upload">
</g>
<g id="Download">
</g>
<g id="Plugin_2">
</g>
<g id="Shopping_Bag">
</g>
<g id="Lifebelt">
</g>
<g id="Glasses">
</g>
<g id="Parabolic_Antenna">
</g>
<g id="Loudspeaker">
</g>
<g id="Play">
</g>
<g id="Pause">
</g>
<g id="Signpost">
</g>
<g id="Bluetooth">
</g>
<g id="Present">
</g>
<g id="Ruler">
</g>
<g id="Connection">
</g>
<g id="Money">
</g>
<g id="Paper_Plane">
</g>
<g id="Wallet_2">
</g>
</svg>
