<?xml version="1.0" encoding="iso-8859-1"?>
<!-- Generator: Adobe Illustrator 19.2.1, SVG Export Plug-In . SVG Version: 6.00 Build 0)  -->
<svg version="1.1" xmlns="http://www.w3.org/2000/svg" xmlns:xlink="http://www.w3.org/1999/xlink" x="0px" y="0px"
	 viewBox="0 0 24 24" style="enable-background:new 0 0 24 24;" xml:space="preserve">
<g id="Credit_Card">
</g>
<g id="Banknote">
</g>
<g id="Wallet">
</g>
<g id="Compass">
</g>
<g id="Camera_1">
</g>
<g id="Photo">
</g>
<g id="Picture">
</g>
<g id="Camera_2">
</g>
<g id="No_Camera">
</g>
<g id="Video">
</g>
<g id="Audio">
</g>
<g id="Microphone_1">
</g>
<g id="Microphone_2">
</g>
<g id="No_Microphone">
</g>
<g id="Shopping_Cart">
</g>
<g id="Add_Shopping_Cart">
</g>
<g id="Remove_Shopping_Cart">
</g>
<g id="Shopping_Basket">
</g>
<g id="Jing-Jang">
</g>
<g id="Leaf">
</g>
<g id="Glass">
</g>
<g id="Cup">
</g>
<g id="Mug">
</g>
<g id="Refresh">
</g>
<g id="Login">
</g>
<g id="Logout">
</g>
<g id="Flowchart">
</g>
<g id="Pin_1">
</g>
<g id="Pin_2">
</g>
<g id="User_1">
</g>
<g id="User_2">
</g>
<g id="Users">
</g>
<g id="Adjustments">
</g>
<g id="Type">
</g>
<g id="Format_Size">
</g>
<g id="Menu_1">
</g>
<g id="Other">
</g>
<g id="Flash">
</g>
<g id="No_Flash">
</g>
<g id="Switch_Button_1">
</g>
<g id="Switch_Button_2">
</g>
<g id="Cut">
</g>
<g id="Crop">
</g>
<g id="Sun">
</g>
<g id="USB">
</g>
<g id="Pie_Chart_1">
</g>
<g id="Pie_Chart_2">
</g>
<g id="Line_Chart">
</g>
<g id="Bar_Chart">
</g>
<g id="Target">
</g>
<g id="Flashlight">
</g>
<g id="USB_Device">
</g>
<g id="Eject">
</g>
<g id="Lightbulb">
</g>
<g id="Information">
</g>
<g id="Deactivate_Protection">
</g>
<g id="Active_Protection">
</g>
<g id="Bug">
</g>
<g id="Protection">
</g>
<g id="Phone">
</g>
<g id="List">
</g>
<g id="Plugin_1">
</g>
<g id="Bookmarrk">
</g>
<g id="Handshake">
</g>
<g id="Minimize">
</g>
<g id="Maximize">
</g>
<g id="Diamond">
</g>
<g id="Stop">
</g>
<g id="Shuffle">
</g>
<g id="Undo">
</g>
<g id="Upgrade">
</g>
<g id="Coding">
</g>
<g id="Syncronizaion">
</g>
<g id="Radio">
</g>
<g id="Presentation">
</g>
<g id="Door">
</g>
<g id="Thumbs_Up">
	<g>
		<path d="M5.5,24h-3C1.121,24,0,22.879,0,21.5v-8C0,12.121,1.121,11,2.5,11h5C7.776,11,8,11.224,8,11.5v0.191l0.119-0.061L11,5.391
			V2c0-0.152,0.069-0.296,0.188-0.391C11.219,1.585,11.962,1,13,1c1.157,0,3,1.831,3,4c0,1.368-0.49,3.071-0.796,4h6.177
			c1.346,0,2.491,0.996,2.608,2.267c0.065,0.713-0.173,1.398-0.64,1.909C23.761,13.589,24,14.149,24,14.75
			c0,0.867-0.496,1.629-1.234,2.001C22.919,17.057,23,17.396,23,17.75c0,0.867-0.497,1.63-1.235,2.001
			c0.228,0.456,0.295,0.981,0.18,1.503C21.721,22.266,20.768,23,19.679,23H10.5c-0.695,0-1.815-0.225-2.647-0.653
			C7.505,23.31,6.581,24,5.5,24z M2.5,12C1.673,12,1,12.673,1,13.5v8C1,22.327,1.673,23,2.5,23h3C6.327,23,7,22.327,7,21.5
			c0-0.202,0.122-0.385,0.309-0.462c0.186-0.076,0.402-0.034,0.545,0.108C8.326,21.619,9.688,22,10.5,22h9.179
			c0.624,0,1.166-0.404,1.289-0.962c0.099-0.448-0.033-0.883-0.362-1.193c-0.142-0.134-0.193-0.337-0.132-0.522
			c0.062-0.185,0.225-0.316,0.418-0.339C21.523,18.911,22,18.381,22,17.75c0-0.344-0.141-0.666-0.395-0.905
			c-0.142-0.134-0.193-0.337-0.132-0.522c0.062-0.185,0.225-0.316,0.418-0.339C22.523,15.911,23,15.381,23,14.75
			c0-0.466-0.262-0.89-0.685-1.105c-0.16-0.083-0.264-0.245-0.271-0.426c-0.007-0.181,0.084-0.351,0.237-0.445
			c0.491-0.303,0.765-0.845,0.712-1.415C22.923,10.597,22.215,10,21.381,10H14.5c-0.164,0-0.318-0.081-0.412-0.216
			c-0.093-0.136-0.113-0.309-0.055-0.462C14.042,9.297,15,6.76,15,5c0-1.638-1.452-3-2-3c-0.431,0-0.792,0.156-1,0.271V5.5
			c0,0.072-0.016,0.144-0.046,0.21l-3,6.5c-0.048,0.103-0.129,0.187-0.23,0.237l-1,0.5c-0.156,0.076-0.34,0.067-0.486-0.021
			C7.09,12.834,7,12.673,7,12.5V12H2.5z"/>
	</g>
	<g>
		<path d="M7.5,22C7.224,22,7,21.776,7,21.5v-9C7,12.224,7.224,12,7.5,12S8,12.224,8,12.5v9C8,21.776,7.776,22,7.5,22z"/>
	</g>
</g>
<g id="Thumbs_Down">
</g>
<g id="Keyboard">
</g>
<g id="_x33_D_Cube">
</g>
<g id="Signal">
</g>
<g id="Dice">
</g>
<g id="Upload">
</g>
<g id="Download">
</g>
<g id="Plugin_2">
</g>
<g id="Shopping_Bag">
</g>
<g id="Lifebelt">
</g>
<g id="Glasses">
</g>
<g id="Parabolic_Antenna">
</g>
<g id="Loudspeaker">
</g>
<g id="Play">
</g>
<g id="Pause">
</g>
<g id="Signpost">
</g>
<g id="Bluetooth">
</g>
<g id="Present">
</g>
<g id="Ruler">
</g>
<g id="Connection">
</g>
<g id="Money">
</g>
<g id="Paper_Plane">
</g>
<g id="Wallet_2">
</g>
</svg>
