<?xml version="1.0" encoding="iso-8859-1"?>
<!-- Generator: Adobe Illustrator 19.2.1, SVG Export Plug-In . SVG Version: 6.00 Build 0)  -->
<svg version="1.1" xmlns="http://www.w3.org/2000/svg" xmlns:xlink="http://www.w3.org/1999/xlink" x="0px" y="0px"
	 viewBox="0 0 24 24" style="enable-background:new 0 0 24 24;" xml:space="preserve">
<g id="Flag">
</g>
<g id="Umbrella">
</g>
<g id="Briefcase">
</g>
<g id="Box">
</g>
<g id="Magnet">
</g>
<g id="Percent">
</g>
<g id="Rocket">
</g>
<g id="Share">
</g>
<g id="Transmitter">
</g>
<g id="Record_2">
</g>
<g id="Record_1">
</g>
<g id="Anchor">
</g>
<g id="Airplane">
</g>
<g id="Car">
</g>
<g id="Newsfeed">
</g>
<g id="Wifi_Tethering">
</g>
<g id="No_Wifi_Tethering">
</g>
<g id="Bar_Chart_2">
</g>
<g id="Shop">
</g>
<g id="Alarm">
</g>
<g id="Sim_Card">
</g>
<g id="Radar">
</g>
<g id="Hand_2">
</g>
<g id="Palette">
</g>
<g id="Cake">
</g>
<g id="Blende">
</g>
<g id="Feather_Pen">
</g>
<g id="Ticket">
	<g>
		<g>
			<path d="M7.5,24c-0.128,0-0.256-0.049-0.354-0.146l-7-7c-0.173-0.173-0.195-0.444-0.053-0.644
				c0.041-0.058,0.092-0.104,0.15-0.139c0.731-0.619,9.865-9.817,15.9-15.923C16.238,0.054,16.365,0,16.499,0H16.5
				c0.133,0,0.26,0.053,0.354,0.146l1.293,1.293c0.195,0.195,0.195,0.512,0,0.707C18.052,2.241,18,2.366,18,2.5
				c0,0.409,0.564,0.644,0.854,0.354c0.195-0.195,0.512-0.195,0.707,0l1.586,1.586c0.195,0.195,0.195,0.512,0,0.707
				C21.052,5.241,21,5.366,21,5.5c0,0.409,0.563,0.644,0.854,0.354c0.195-0.195,0.512-0.195,0.707,0l1.293,1.293
				c0.195,0.195,0.195,0.512,0,0.707l-16,16C7.756,23.951,7.628,24,7.5,24z M1.203,16.495L7.5,22.793L22.793,7.5l-0.646-0.646
				C21.947,6.949,21.728,7,21.5,7C20.673,7,20,6.327,20,5.5c0-0.228,0.051-0.447,0.146-0.647l-0.998-0.998
				C18.947,3.949,18.728,4,18.5,4C17.673,4,17,3.327,17,2.5c0-0.228,0.051-0.447,0.146-0.647l-0.644-0.644
				C6.013,11.821,2.503,15.365,1.203,16.495z"/>
		</g>
		<g>
			<path d="M4.5,17c-0.128,0-0.256-0.049-0.354-0.146c-0.195-0.195-0.195-0.512,0-0.707l5-5c0.195-0.195,0.512-0.195,0.707,0
				s0.195,0.512,0,0.707l-5,5C4.756,16.951,4.628,17,4.5,17z"/>
		</g>
		<g>
			<path d="M6.5,19c-0.128,0-0.256-0.049-0.354-0.146c-0.195-0.195-0.195-0.512,0-0.707l9-9c0.195-0.195,0.512-0.195,0.707,0
				s0.195,0.512,0,0.707l-9,9C6.756,18.951,6.628,19,6.5,19z"/>
		</g>
	</g>
</g>
<g id="Medal">
</g>
<g id="Mouse_Pointer_1">
</g>
<g id="Mouse_Pointer_2">
</g>
<g id="Fingerprint">
</g>
<g id="Earth">
</g>
</svg>
