<?xml version="1.0" encoding="iso-8859-1"?>
<!-- Generator: Adobe Illustrator 19.2.1, SVG Export Plug-In . SVG Version: 6.00 Build 0)  -->
<svg version="1.1" xmlns="http://www.w3.org/2000/svg" xmlns:xlink="http://www.w3.org/1999/xlink" x="0px" y="0px"
	 viewBox="0 0 24 24" style="enable-background:new 0 0 24 24;" xml:space="preserve">
<g id="Flag">
</g>
<g id="Umbrella">
</g>
<g id="Briefcase">
</g>
<g id="Box">
</g>
<g id="Magnet">
</g>
<g id="Percent">
</g>
<g id="Rocket">
</g>
<g id="Share">
</g>
<g id="Transmitter">
	<g>
		<g>
			<path d="M11.5,23.986c-0.276,0-0.5-0.224-0.5-0.5v-15c0-0.276,0.224-0.5,0.5-0.5S12,8.21,12,8.486v15
				C12,23.763,11.776,23.986,11.5,23.986z"/>
		</g>
		<g>
			<path d="M11.5,8.986c-1.379,0-2.5-1.122-2.5-2.5s1.121-2.5,2.5-2.5s2.5,1.122,2.5,2.5S12.879,8.986,11.5,8.986z M11.5,4.986
				c-0.827,0-1.5,0.673-1.5,1.5s0.673,1.5,1.5,1.5s1.5-0.673,1.5-1.5S12.327,4.986,11.5,4.986z"/>
		</g>
		<g>
			<path d="M7.311,9.692c-0.163,0-0.323-0.08-0.419-0.227C6.309,8.569,6,7.539,6,6.486C6,5.432,6.31,4.4,6.895,3.502
				c0.151-0.231,0.46-0.294,0.692-0.146c0.231,0.151,0.296,0.461,0.146,0.692C7.253,4.783,7,5.626,7,6.486
				c0,0.858,0.252,1.7,0.729,2.433c0.15,0.231,0.085,0.542-0.146,0.692C7.499,9.666,7.404,9.692,7.311,9.692z"/>
		</g>
		<g>
			<path d="M4.792,11.332c-0.163,0-0.323-0.08-0.419-0.227C3.475,9.725,3,8.127,3,6.486C3,4.857,3.469,3.27,4.355,1.895
				c0.15-0.233,0.46-0.297,0.691-0.149c0.231,0.15,0.299,0.459,0.148,0.691C4.413,3.65,4,5.05,4,6.486
				c0,1.447,0.419,2.855,1.211,4.073c0.15,0.231,0.085,0.542-0.146,0.692C4.98,11.306,4.886,11.332,4.792,11.332z"/>
		</g>
		<g>
			<path d="M2.272,12.956c-0.163,0-0.323-0.08-0.419-0.228C0.641,10.862,0,8.704,0,6.486c0-2.219,0.642-4.379,1.856-6.245
				C2.008,0.01,2.318-0.056,2.548,0.095c0.231,0.15,0.297,0.46,0.146,0.691C1.586,2.49,1,4.461,1,6.486
				c0,2.023,0.585,3.994,1.691,5.697c0.15,0.231,0.085,0.542-0.146,0.692C2.461,12.93,2.366,12.956,2.272,12.956z"/>
		</g>
		<g>
			<path d="M15.689,9.723c-0.094,0-0.188-0.026-0.272-0.081c-0.231-0.15-0.297-0.46-0.146-0.692C15.748,8.216,16,7.375,16,6.517
				c0-0.86-0.253-1.703-0.732-2.437c-0.15-0.231-0.086-0.542,0.146-0.692c0.233-0.149,0.542-0.086,0.692,0.146
				C16.69,4.43,17,5.462,17,6.517c0,1.053-0.309,2.083-0.892,2.979C16.013,9.643,15.853,9.723,15.689,9.723z"/>
		</g>
		<g>
			<path d="M18.208,11.362c-0.094,0-0.188-0.026-0.272-0.081c-0.231-0.15-0.297-0.46-0.146-0.692C18.581,9.372,19,7.964,19,6.517
				c0-1.437-0.413-2.836-1.195-4.049c-0.15-0.232-0.083-0.542,0.148-0.691c0.231-0.146,0.541-0.083,0.691,0.149
				C19.531,3.3,20,4.888,20,6.517c0,1.641-0.475,3.238-1.373,4.619C18.531,11.282,18.371,11.362,18.208,11.362z"/>
		</g>
		<g>
			<path d="M20.728,12.986c-0.094,0-0.188-0.026-0.272-0.081c-0.231-0.15-0.297-0.46-0.146-0.692C21.415,10.51,22,8.54,22,6.517
				c0-2.025-0.586-3.996-1.694-5.7c-0.15-0.231-0.085-0.541,0.146-0.691c0.23-0.151,0.541-0.086,0.691,0.146
				C22.358,2.138,23,4.297,23,6.517c0,2.217-0.641,4.376-1.854,6.242C21.051,12.906,20.891,12.986,20.728,12.986z"/>
		</g>
	</g>
</g>
<g id="Record_2">
</g>
<g id="Record_1">
</g>
<g id="Anchor">
</g>
<g id="Airplane">
</g>
<g id="Car">
</g>
<g id="Newsfeed">
</g>
<g id="Wifi_Tethering">
</g>
<g id="No_Wifi_Tethering">
</g>
<g id="Bar_Chart_2">
</g>
<g id="Shop">
</g>
<g id="Alarm">
</g>
<g id="Sim_Card">
</g>
<g id="Radar">
</g>
<g id="Hand_2">
</g>
<g id="Palette">
</g>
<g id="Cake">
</g>
<g id="Blende">
</g>
<g id="Feather_Pen">
</g>
<g id="Ticket">
</g>
<g id="Medal">
</g>
<g id="Mouse_Pointer_1">
</g>
<g id="Mouse_Pointer_2">
</g>
<g id="Fingerprint">
</g>
<g id="Earth">
</g>
</svg>
