<?xml version="1.0" encoding="iso-8859-1"?>
<!-- Generator: Adobe Illustrator 19.2.1, SVG Export Plug-In . SVG Version: 6.00 Build 0)  -->
<svg version="1.1" xmlns="http://www.w3.org/2000/svg" xmlns:xlink="http://www.w3.org/1999/xlink" x="0px" y="0px"
	 viewBox="0 0 24 24" style="enable-background:new 0 0 24 24;" xml:space="preserve">
<g id="Mail">
</g>
<g id="Open_Mail">
</g>
<g id="Mail_Attachmet">
</g>
<g id="Mails">
</g>
<g id="Trash">
</g>
<g id="Trash_Full">
	<g>
		<g>
			<path d="M13.5,24h-11C1.121,24,0,22.878,0,21.5v-14C0,7.224,0.224,7,0.5,7h15C15.776,7,16,7.224,16,7.5v14
				C16,22.878,14.879,24,13.5,24z M1,8v13.5C1,22.327,1.673,23,2.5,23h11c0.827,0,1.5-0.673,1.5-1.5V8H1z"/>
		</g>
		<g>
			<path d="M22.086,14.435L22.086,14.435c-0.133,0-0.26-0.053-0.354-0.146L9.712,2.268c-0.195-0.195-0.195-0.512,0-0.707
				l1.414-1.414c0.195-0.195,0.512-0.195,0.707,0l0.389,0.389C13.192-0.105,14.515,0,15.368,0.854l0,0l7.778,7.778
				c0.473,0.472,0.732,1.1,0.732,1.768c0,0.498-0.145,0.974-0.414,1.379l0.389,0.389c0.195,0.195,0.195,0.512,0,0.707l-1.414,1.414
				C22.346,14.382,22.219,14.435,22.086,14.435z M10.772,1.914l11.313,11.314l0.707-0.707l-0.354-0.354
				c-0.195-0.195-0.195-0.512,0-0.707c0.283-0.283,0.439-0.66,0.439-1.061s-0.156-0.777-0.439-1.061l-7.778-7.778
				c-0.584-0.584-1.537-0.584-2.121,0c-0.195,0.195-0.512,0.195-0.707,0l-0.354-0.354L10.772,1.914z"/>
		</g>
		<g>
			<path d="M3.5,21C3.224,21,3,20.776,3,20.5v-10C3,10.224,3.224,10,3.5,10S4,10.224,4,10.5v10C4,20.776,3.776,21,3.5,21z"/>
		</g>
		<g>
			<path d="M8,21c-0.276,0-0.5-0.224-0.5-0.5v-10C7.5,10.224,7.724,10,8,10s0.5,0.224,0.5,0.5v10C8.5,20.776,8.276,21,8,21z"/>
		</g>
		<g>
			<path d="M12.5,21c-0.276,0-0.5-0.224-0.5-0.5v-10c0-0.276,0.224-0.5,0.5-0.5s0.5,0.224,0.5,0.5v10C13,20.776,12.776,21,12.5,21z"
				/>
		</g>
		<g>
			<path d="M12.5,8C12.224,8,12,7.776,12,7.5C12,6.673,11.327,6,10.5,6h-2C8.224,6,8,5.776,8,5.5C8,4.673,7.327,4,6.5,4
				S5,4.673,5,5.5C5,5.776,4.776,6,4.5,6h-1C2.673,6,2,6.673,2,7.5C2,7.776,1.776,8,1.5,8S1,7.776,1,7.5C1,6.122,2.121,5,3.5,5h0.55
				C4.282,3.86,5.293,3,6.5,3s2.218,0.86,2.45,2h1.55C11.879,5,13,6.122,13,7.5C13,7.776,12.776,8,12.5,8z"/>
		</g>
	</g>
</g>
<g id="Preferences_1">
</g>
<g id="Preferences_2">
</g>
<g id="Mouse">
</g>
<g id="Computer">
</g>
<g id="Notebook">
</g>
<g id="Mobile_Phone">
</g>
<g id="Print">
</g>
<g id="Calculator">
</g>
<g id="Tag">
</g>
<g id="Paperclip">
</g>
<g id="Heart">
</g>
<g id="Lock">
</g>
<g id="Lock_Open">
</g>
<g id="Key_1">
</g>
<g id="Star">
</g>
<g id="Add">
</g>
<g id="Remove">
</g>
<g id="Error">
</g>
<g id="Check_1">
</g>
<g id="Time">
</g>
<g id="Question_Mark">
</g>
<g id="Error_Mark">
</g>
<g id="Sand-Glass">
</g>
<g id="Battery_Full">
</g>
<g id="Battery_Charge">
</g>
<g id="Battery_Half">
</g>
<g id="Battery_Low">
</g>
<g id="No_Battery">
</g>
<g id="Key_2">
</g>
<g id="Link">
</g>
<g id="Brake_Link">
</g>
<g id="Pencil">
</g>
<g id="At">
</g>
<g id="Reply">
</g>
<g id="Accessible">
</g>
<g id="Up_Arrow">
</g>
<g id="Brush">
</g>
<g id="Design_Mug">
</g>
<g id="Design">
</g>
<g id="Server">
</g>
<g id="Database">
</g>
<g id="Save">
</g>
<g id="Female">
</g>
<g id="Male">
</g>
<g id="Book">
</g>
<g id="Power">
</g>
<g id="Reload">
</g>
<g id="Map">
</g>
<g id="Loction_1">
</g>
<g id="Location_2">
</g>
<g id="Globe">
</g>
<g id="Suitcase">
</g>
<g id="Callendar">
</g>
<g id="Cloud_Off">
</g>
<g id="File_1">
</g>
<g id="File_2">
</g>
<g id="Folder">
</g>
<g id="Open_Folder">
</g>
<g id="Cloud">
</g>
<g id="Upload_Cloud">
</g>
<g id="Download_Cloud">
</g>
<g id="Eye">
</g>
<g id="Invisible">
</g>
<g id="Assignment">
</g>
<g id="Note_Book">
</g>
<g id="Webpage">
</g>
<g id="Mailbox">
</g>
<g id="Drive">
</g>
<g id="Disc">
</g>
<g id="Wifi_1">
</g>
<g id="Wifi_2">
</g>
<g id="Archive">
</g>
<g id="Archive_File">
</g>
<g id="News">
</g>
<g id="Home">
</g>
<g id="Collaboration">
</g>
<g id="Announcement">
</g>
<g id="Watch">
</g>
<g id="Clock">
</g>
<g id="Volume">
</g>
<g id="Mute">
</g>
<g id="Hand">
</g>
<g id="Layers">
</g>
<g id="Bell">
</g>
<g id="Speach_Bubble">
</g>
<g id="Speach_Bubbles">
</g>
<g id="Zoom_In">
</g>
<g id="Zoom_Out">
</g>
<g id="Search">
</g>
<g id="Back_Arrow">
</g>
<g id="Close">
</g>
<g id="Check_2">
</g>
<g id="Left_Arrow_2">
</g>
<g id="Right_Arrow_2">
</g>
</svg>
