<?xml version="1.0" encoding="iso-8859-1"?>
<!-- Generator: Adobe Illustrator 19.2.1, SVG Export Plug-In . SVG Version: 6.00 Build 0)  -->
<svg version="1.1" xmlns="http://www.w3.org/2000/svg" xmlns:xlink="http://www.w3.org/1999/xlink" x="0px" y="0px"
	 viewBox="0 0 24 24" style="enable-background:new 0 0 24 24;" xml:space="preserve">
<g id="Flag">
</g>
<g id="Umbrella">
	<g>
		<g>
			<path d="M21.5,10.5c-0.161,0-0.315-0.078-0.411-0.215C20.678,9.692,19.884,9,19,9c-0.92,0-1.679,0.658-2.082,1.274
				c-0.092,0.141-0.25,0.226-0.418,0.226l0,0c-0.169,0-0.326-0.085-0.418-0.227C15.679,9.658,14.921,9,14,9
				c-0.92,0-1.679,0.658-2.082,1.274c-0.092,0.141-0.25,0.226-0.418,0.226l0,0c-0.169,0-0.326-0.085-0.418-0.227
				C10.679,9.658,9.921,9,9,9c-0.92,0-1.679,0.658-2.082,1.274C6.826,10.415,6.669,10.5,6.5,10.5l0,0
				c-0.169,0-0.326-0.085-0.418-0.227C5.679,9.658,4.921,9,4,9c-0.884,0-1.678,0.692-2.089,1.285
				c-0.128,0.185-0.364,0.26-0.577,0.187c-0.212-0.075-0.349-0.282-0.333-0.506C1.392,4.377,6.004,0,11.5,0
				s10.108,4.377,10.499,9.965c0.016,0.224-0.121,0.432-0.333,0.506C21.611,10.491,21.556,10.5,21.5,10.5z M9,8
				c0.903,0,1.815,0.442,2.499,1.186C12.183,8.434,13.082,8,14,8c0.903,0,1.815,0.442,2.499,1.186C17.183,8.434,18.082,8,19,8
				c0.668,0,1.28,0.246,1.794,0.599C19.833,4.239,15.993,1,11.5,1S3.167,4.239,2.206,8.599C2.72,8.246,3.332,8,4,8
				c0.903,0,1.815,0.442,2.499,1.186C7.183,8.434,8.082,8,9,8z"/>
		</g>
		<g>
			<path d="M13.5,24c-1.378,0-2.5-1.122-2.5-2.5V10c0-0.276,0.224-0.5,0.5-0.5S12,9.724,12,10v11.5c0,0.827,0.673,1.5,1.5,1.5
				s1.5-0.673,1.5-1.5c0-0.276,0.224-0.5,0.5-0.5s0.5,0.224,0.5,0.5C16,22.878,14.878,24,13.5,24z"/>
		</g>
	</g>
</g>
<g id="Briefcase">
</g>
<g id="Box">
</g>
<g id="Magnet">
</g>
<g id="Percent">
</g>
<g id="Rocket">
</g>
<g id="Share">
</g>
<g id="Transmitter">
</g>
<g id="Record_2">
</g>
<g id="Record_1">
</g>
<g id="Anchor">
</g>
<g id="Airplane">
</g>
<g id="Car">
</g>
<g id="Newsfeed">
</g>
<g id="Wifi_Tethering">
</g>
<g id="No_Wifi_Tethering">
</g>
<g id="Bar_Chart_2">
</g>
<g id="Shop">
</g>
<g id="Alarm">
</g>
<g id="Sim_Card">
</g>
<g id="Radar">
</g>
<g id="Hand_2">
</g>
<g id="Palette">
</g>
<g id="Cake">
</g>
<g id="Blende">
</g>
<g id="Feather_Pen">
</g>
<g id="Ticket">
</g>
<g id="Medal">
</g>
<g id="Mouse_Pointer_1">
</g>
<g id="Mouse_Pointer_2">
</g>
<g id="Fingerprint">
</g>
<g id="Earth">
</g>
</svg>
