<?xml version="1.0" encoding="iso-8859-1"?>
<!-- Generator: Adobe Illustrator 19.2.1, SVG Export Plug-In . SVG Version: 6.00 Build 0)  -->
<svg version="1.1" xmlns="http://www.w3.org/2000/svg" xmlns:xlink="http://www.w3.org/1999/xlink" x="0px" y="0px"
	 viewBox="0 0 24 24" style="enable-background:new 0 0 24 24;" xml:space="preserve">
<g id="Credit_Card">
</g>
<g id="Banknote">
</g>
<g id="Wallet">
</g>
<g id="Compass">
</g>
<g id="Camera_1">
</g>
<g id="Photo">
</g>
<g id="Picture">
</g>
<g id="Camera_2">
</g>
<g id="No_Camera">
</g>
<g id="Video">
</g>
<g id="Audio">
</g>
<g id="Microphone_1">
</g>
<g id="Microphone_2">
</g>
<g id="No_Microphone">
</g>
<g id="Shopping_Cart">
</g>
<g id="Add_Shopping_Cart">
</g>
<g id="Remove_Shopping_Cart">
</g>
<g id="Shopping_Basket">
</g>
<g id="Jing-Jang">
</g>
<g id="Leaf">
</g>
<g id="Glass">
</g>
<g id="Cup">
</g>
<g id="Mug">
</g>
<g id="Refresh">
</g>
<g id="Login">
</g>
<g id="Logout">
</g>
<g id="Flowchart">
</g>
<g id="Pin_1">
</g>
<g id="Pin_2">
</g>
<g id="User_1">
</g>
<g id="User_2">
</g>
<g id="Users">
</g>
<g id="Adjustments">
</g>
<g id="Type">
</g>
<g id="Format_Size">
</g>
<g id="Menu_1">
</g>
<g id="Other">
</g>
<g id="Flash">
</g>
<g id="No_Flash">
</g>
<g id="Switch_Button_1">
</g>
<g id="Switch_Button_2">
</g>
<g id="Cut">
</g>
<g id="Crop">
</g>
<g id="Sun">
</g>
<g id="USB">
</g>
<g id="Pie_Chart_1">
</g>
<g id="Pie_Chart_2">
</g>
<g id="Line_Chart">
</g>
<g id="Bar_Chart">
</g>
<g id="Target">
</g>
<g id="Flashlight">
</g>
<g id="USB_Device">
</g>
<g id="Eject">
</g>
<g id="Lightbulb">
</g>
<g id="Information">
</g>
<g id="Deactivate_Protection">
</g>
<g id="Active_Protection">
</g>
<g id="Bug">
</g>
<g id="Protection">
</g>
<g id="Phone">
</g>
<g id="List">
</g>
<g id="Plugin_1">
</g>
<g id="Bookmarrk">
</g>
<g id="Handshake">
</g>
<g id="Minimize">
</g>
<g id="Maximize">
</g>
<g id="Diamond">
</g>
<g id="Stop">
</g>
<g id="Shuffle">
</g>
<g id="Undo">
</g>
<g id="Upgrade">
	<g>
		<g>
			<path d="M20.5,24h-18C1.122,24,0,22.879,0,21.5v-4.586c0-0.395,0.16-0.781,0.439-1.061l2.058-2.828
				C2.966,12.384,3.721,12,4.516,12H5.5C5.776,12,6,12.224,6,12.5S5.776,13,5.5,13H4.516c-0.478,0-0.93,0.229-1.211,0.615
				l-2.108,2.887C1.053,16.653,1,16.782,1,16.914V21.5C1,22.327,1.673,23,2.5,23h18c0.827,0,1.5-0.673,1.5-1.5v-4.586
				c0-0.132-0.053-0.261-0.146-0.354l-2.158-2.945C19.414,13.229,18.961,13,18.484,13H17.5c-0.276,0-0.5-0.224-0.5-0.5
				s0.224-0.5,0.5-0.5h0.984c0.795,0,1.55,0.384,2.019,1.025l2.108,2.887C22.84,16.133,23,16.52,23,16.914V21.5
				C23,22.879,21.878,24,20.5,24z"/>
		</g>
		<g>
			<path d="M22,17H1c-0.276,0-0.5-0.224-0.5-0.5S0.724,16,1,16h21c0.276,0,0.5,0.224,0.5,0.5S22.276,17,22,17z"/>
		</g>
		<g>
			<path d="M15.5,15c-0.276,0-0.5-0.224-0.5-0.5v-6C15,8.224,15.224,8,15.5,8h0.913L11.5,2.269L6.587,8H7.5C7.776,8,8,8.224,8,8.5v6
				C8,14.776,7.776,15,7.5,15S7,14.776,7,14.5V9H5.5C5.305,9,5.127,8.887,5.046,8.709S4.993,8.323,5.121,8.175l6-7
				c0.189-0.223,0.569-0.223,0.759,0l6,7c0.127,0.148,0.156,0.356,0.075,0.534S17.695,9,17.5,9H16v5.5C16,14.776,15.776,15,15.5,15z
				"/>
		</g>
	</g>
</g>
<g id="Coding">
</g>
<g id="Syncronizaion">
</g>
<g id="Radio">
</g>
<g id="Presentation">
</g>
<g id="Door">
</g>
<g id="Thumbs_Up">
</g>
<g id="Thumbs_Down">
</g>
<g id="Keyboard">
</g>
<g id="_x33_D_Cube">
</g>
<g id="Signal">
</g>
<g id="Dice">
</g>
<g id="Upload">
</g>
<g id="Download">
</g>
<g id="Plugin_2">
</g>
<g id="Shopping_Bag">
</g>
<g id="Lifebelt">
</g>
<g id="Glasses">
</g>
<g id="Parabolic_Antenna">
</g>
<g id="Loudspeaker">
</g>
<g id="Play">
</g>
<g id="Pause">
</g>
<g id="Signpost">
</g>
<g id="Bluetooth">
</g>
<g id="Present">
</g>
<g id="Ruler">
</g>
<g id="Connection">
</g>
<g id="Money">
</g>
<g id="Paper_Plane">
</g>
<g id="Wallet_2">
</g>
</svg>
