<?xml version="1.0" encoding="iso-8859-1"?>
<!-- Generator: Adobe Illustrator 19.2.1, SVG Export Plug-In . SVG Version: 6.00 Build 0)  -->
<svg version="1.1" xmlns="http://www.w3.org/2000/svg" xmlns:xlink="http://www.w3.org/1999/xlink" x="0px" y="0px"
	 viewBox="0 0 24 24" style="enable-background:new 0 0 24 24;" xml:space="preserve">
<g id="Credit_Card">
</g>
<g id="Banknote">
</g>
<g id="Wallet">
</g>
<g id="Compass">
</g>
<g id="Camera_1">
</g>
<g id="Photo">
</g>
<g id="Picture">
</g>
<g id="Camera_2">
</g>
<g id="No_Camera">
</g>
<g id="Video">
</g>
<g id="Audio">
</g>
<g id="Microphone_1">
</g>
<g id="Microphone_2">
</g>
<g id="No_Microphone">
</g>
<g id="Shopping_Cart">
</g>
<g id="Add_Shopping_Cart">
</g>
<g id="Remove_Shopping_Cart">
</g>
<g id="Shopping_Basket">
</g>
<g id="Jing-Jang">
</g>
<g id="Leaf">
</g>
<g id="Glass">
</g>
<g id="Cup">
</g>
<g id="Mug">
</g>
<g id="Refresh">
</g>
<g id="Login">
</g>
<g id="Logout">
</g>
<g id="Flowchart">
</g>
<g id="Pin_1">
</g>
<g id="Pin_2">
</g>
<g id="User_1">
</g>
<g id="User_2">
</g>
<g id="Users">
</g>
<g id="Adjustments">
</g>
<g id="Type">
</g>
<g id="Format_Size">
</g>
<g id="Menu_1">
</g>
<g id="Other">
</g>
<g id="Flash">
</g>
<g id="No_Flash">
</g>
<g id="Switch_Button_1">
</g>
<g id="Switch_Button_2">
</g>
<g id="Cut">
</g>
<g id="Crop">
</g>
<g id="Sun">
</g>
<g id="USB">
	<g>
		<g>
			<path d="M21.5,15c-1.378,0-2.5-1.122-2.5-2.5s1.122-2.5,2.5-2.5s2.5,1.122,2.5,2.5S22.878,15,21.5,15z M21.5,11
				c-0.827,0-1.5,0.673-1.5,1.5s0.673,1.5,1.5,1.5s1.5-0.673,1.5-1.5S22.327,11,21.5,11z"/>
		</g>
		<g>
			<path d="M19.5,13h-19C0.224,13,0,12.776,0,12.5S0.224,12,0.5,12h19c0.276,0,0.5,0.224,0.5,0.5S19.776,13,19.5,13z"/>
		</g>
		<g>
			<path d="M0.5,13c-0.128,0-0.256-0.049-0.354-0.146c-0.195-0.195-0.195-0.512,0-0.707l3-3c0.195-0.195,0.512-0.195,0.707,0
				s0.195,0.512,0,0.707l-3,3C0.756,12.951,0.628,13,0.5,13z"/>
		</g>
		<g>
			<path d="M3.5,16c-0.128,0-0.256-0.049-0.354-0.146l-3-3c-0.195-0.195-0.195-0.512,0-0.707s0.512-0.195,0.707,0l3,3
				c0.195,0.195,0.195,0.512,0,0.707C3.756,15.951,3.628,16,3.5,16z"/>
		</g>
		<g>
			<path d="M13.646,19H12.5c-0.276,0-0.5-0.224-0.5-0.5s0.224-0.5,0.5-0.5h1.146c0.953,0,1.81-0.529,2.236-1.382l2.171-4.342
				c0.124-0.248,0.424-0.347,0.671-0.224s0.347,0.424,0.224,0.671l-2.171,4.342C16.179,18.259,14.98,19,13.646,19z"/>
		</g>
		<g>
			<path d="M17.5,13c-0.184,0-0.36-0.101-0.448-0.276l-2.171-4.342C14.456,7.529,13.599,7,12.646,7H11.5C11.224,7,11,6.776,11,6.5
				S11.224,6,11.5,6h1.146c1.334,0,2.533,0.741,3.13,1.935l2.171,4.342c0.124,0.247,0.023,0.547-0.224,0.671
				C17.652,12.983,17.576,13,17.5,13z"/>
		</g>
		<g>
			<path d="M10.5,21C9.122,21,8,19.878,8,18.5S9.122,16,10.5,16s2.5,1.122,2.5,2.5S11.878,21,10.5,21z M10.5,17
				C9.673,17,9,17.673,9,18.5S9.673,20,10.5,20s1.5-0.673,1.5-1.5S11.327,17,10.5,17z"/>
		</g>
		<g>
			<path d="M11.5,9h-4C7.224,9,7,8.776,7,8.5v-4C7,4.224,7.224,4,7.5,4h4C11.776,4,12,4.224,12,4.5v4C12,8.776,11.776,9,11.5,9z
				 M8,8h3V5H8V8z"/>
		</g>
	</g>
</g>
<g id="Pie_Chart_1">
</g>
<g id="Pie_Chart_2">
</g>
<g id="Line_Chart">
</g>
<g id="Bar_Chart">
</g>
<g id="Target">
</g>
<g id="Flashlight">
</g>
<g id="USB_Device">
</g>
<g id="Eject">
</g>
<g id="Lightbulb">
</g>
<g id="Information">
</g>
<g id="Deactivate_Protection">
</g>
<g id="Active_Protection">
</g>
<g id="Bug">
</g>
<g id="Protection">
</g>
<g id="Phone">
</g>
<g id="List">
</g>
<g id="Plugin_1">
</g>
<g id="Bookmarrk">
</g>
<g id="Handshake">
</g>
<g id="Minimize">
</g>
<g id="Maximize">
</g>
<g id="Diamond">
</g>
<g id="Stop">
</g>
<g id="Shuffle">
</g>
<g id="Undo">
</g>
<g id="Upgrade">
</g>
<g id="Coding">
</g>
<g id="Syncronizaion">
</g>
<g id="Radio">
</g>
<g id="Presentation">
</g>
<g id="Door">
</g>
<g id="Thumbs_Up">
</g>
<g id="Thumbs_Down">
</g>
<g id="Keyboard">
</g>
<g id="_x33_D_Cube">
</g>
<g id="Signal">
</g>
<g id="Dice">
</g>
<g id="Upload">
</g>
<g id="Download">
</g>
<g id="Plugin_2">
</g>
<g id="Shopping_Bag">
</g>
<g id="Lifebelt">
</g>
<g id="Glasses">
</g>
<g id="Parabolic_Antenna">
</g>
<g id="Loudspeaker">
</g>
<g id="Play">
</g>
<g id="Pause">
</g>
<g id="Signpost">
</g>
<g id="Bluetooth">
</g>
<g id="Present">
</g>
<g id="Ruler">
</g>
<g id="Connection">
</g>
<g id="Money">
</g>
<g id="Paper_Plane">
</g>
<g id="Wallet_2">
</g>
</svg>
