<?xml version="1.0" encoding="iso-8859-1"?>
<!-- Generator: Adobe Illustrator 19.2.1, SVG Export Plug-In . SVG Version: 6.00 Build 0)  -->
<svg version="1.1" xmlns="http://www.w3.org/2000/svg" xmlns:xlink="http://www.w3.org/1999/xlink" x="0px" y="0px"
	 viewBox="0 0 24 24" style="enable-background:new 0 0 24 24;" xml:space="preserve">
<g id="Credit_Card">
</g>
<g id="Banknote">
</g>
<g id="Wallet">
</g>
<g id="Compass">
</g>
<g id="Camera_1">
</g>
<g id="Photo">
</g>
<g id="Picture">
</g>
<g id="Camera_2">
</g>
<g id="No_Camera">
</g>
<g id="Video">
	<g>
		<g>
			<path d="M21.486,23.997h-18c-1.379,0-2.5-1.122-2.5-2.5v-12c0-0.276,0.224-0.5,0.5-0.5h22c0.276,0,0.5,0.224,0.5,0.5v12
				C23.986,22.875,22.865,23.997,21.486,23.997z M1.986,9.997v11.5c0,0.827,0.673,1.5,1.5,1.5h18c0.827,0,1.5-0.673,1.5-1.5v-11.5
				H1.986z"/>
		</g>
		<g>
			<path d="M1.486,10.751c-0.224,0-0.428-0.151-0.484-0.377L0.06,6.65C-0.04,6.254,0.023,5.846,0.236,5.5s0.548-0.587,0.944-0.677
				l20.146-4.78c0.795-0.18,1.597,0.313,1.793,1.098l0.851,3.229c0.034,0.131,0.015,0.271-0.056,0.387
				c-0.07,0.116-0.185,0.198-0.317,0.229L1.916,9.912l0.055,0.217c0.068,0.268-0.094,0.54-0.361,0.607
				C1.567,10.747,1.526,10.751,1.486,10.751z M21.662,1.004c-0.036,0-0.073,0.004-0.109,0.013L1.407,5.796
				C1.271,5.828,1.159,5.908,1.088,6.023c-0.07,0.116-0.092,0.252-0.059,0.384l0.642,2.535l21.2-4.818L22.15,1.389
				C22.093,1.158,21.886,1.004,21.662,1.004z"/>
		</g>
		<g>
			<path d="M3.486,13.997c-0.075,0-0.151-0.017-0.224-0.053c-0.247-0.124-0.347-0.424-0.224-0.671l2-4
				C5.164,9.026,5.462,8.928,5.71,9.049C5.957,9.173,6.057,9.473,5.934,9.72l-2,4C3.846,13.896,3.669,13.997,3.486,13.997z"/>
		</g>
		<g>
			<path d="M8.486,13.997c-0.075,0-0.151-0.017-0.224-0.053c-0.247-0.124-0.347-0.424-0.224-0.671l2-4
				c0.124-0.247,0.424-0.345,0.671-0.224c0.247,0.124,0.347,0.424,0.224,0.671l-2,4C8.846,13.896,8.669,13.997,8.486,13.997z"/>
		</g>
		<g>
			<path d="M13.486,13.997c-0.075,0-0.151-0.017-0.224-0.053c-0.247-0.124-0.347-0.424-0.224-0.671l2-4
				c0.125-0.247,0.425-0.345,0.671-0.224c0.247,0.124,0.347,0.424,0.224,0.671l-2,4C13.846,13.896,13.669,13.997,13.486,13.997z"/>
		</g>
		<g>
			<path d="M18.486,13.997c-0.075,0-0.151-0.017-0.224-0.053c-0.247-0.124-0.347-0.424-0.224-0.671l2-4
				c0.125-0.247,0.423-0.345,0.671-0.224c0.247,0.124,0.347,0.424,0.224,0.671l-2,4C18.846,13.896,18.669,13.997,18.486,13.997z"/>
		</g>
		<g>
			<path d="M23.486,13.997h-22c-0.276,0-0.5-0.224-0.5-0.5s0.224-0.5,0.5-0.5h22c0.276,0,0.5,0.224,0.5,0.5
				S23.763,13.997,23.486,13.997z"/>
		</g>
		<g>
			<path d="M5.968,8.978c-0.128,0-0.256-0.049-0.354-0.146L2.17,5.387c-0.195-0.195-0.195-0.512,0-0.707s0.512-0.195,0.707,0
				l3.444,3.444c0.195,0.195,0.195,0.512,0,0.707C6.224,8.929,6.096,8.978,5.968,8.978z"/>
		</g>
		<g>
			<path d="M10.859,7.866c-0.128,0-0.256-0.049-0.354-0.146L7.059,4.276c-0.195-0.195-0.195-0.512,0-0.707s0.512-0.195,0.707,0
				l3.447,3.444c0.195,0.195,0.195,0.512,0,0.707C11.115,7.817,10.987,7.866,10.859,7.866z"/>
		</g>
		<g>
			<path d="M15.748,6.755c-0.128,0-0.256-0.049-0.354-0.146l-3.441-3.445c-0.195-0.195-0.195-0.512,0-0.707
				c0.195-0.195,0.512-0.195,0.707,0l3.441,3.445c0.195,0.195,0.195,0.512,0,0.707C16.004,6.707,15.876,6.755,15.748,6.755z"/>
		</g>
		<g>
			<path d="M20.634,5.645c-0.128,0-0.256-0.049-0.354-0.146l-3.442-3.445c-0.195-0.195-0.195-0.512,0-0.707
				c0.195-0.195,0.512-0.195,0.707,0l3.442,3.445c0.195,0.195,0.195,0.512,0,0.707C20.89,5.596,20.762,5.645,20.634,5.645z"/>
		</g>
	</g>
</g>
<g id="Audio">
</g>
<g id="Microphone_1">
</g>
<g id="Microphone_2">
</g>
<g id="No_Microphone">
</g>
<g id="Shopping_Cart">
</g>
<g id="Add_Shopping_Cart">
</g>
<g id="Remove_Shopping_Cart">
</g>
<g id="Shopping_Basket">
</g>
<g id="Jing-Jang">
</g>
<g id="Leaf">
</g>
<g id="Glass">
</g>
<g id="Cup">
</g>
<g id="Mug">
</g>
<g id="Refresh">
</g>
<g id="Login">
</g>
<g id="Logout">
</g>
<g id="Flowchart">
</g>
<g id="Pin_1">
</g>
<g id="Pin_2">
</g>
<g id="User_1">
</g>
<g id="User_2">
</g>
<g id="Users">
</g>
<g id="Adjustments">
</g>
<g id="Type">
</g>
<g id="Format_Size">
</g>
<g id="Menu_1">
</g>
<g id="Other">
</g>
<g id="Flash">
</g>
<g id="No_Flash">
</g>
<g id="Switch_Button_1">
</g>
<g id="Switch_Button_2">
</g>
<g id="Cut">
</g>
<g id="Crop">
</g>
<g id="Sun">
</g>
<g id="USB">
</g>
<g id="Pie_Chart_1">
</g>
<g id="Pie_Chart_2">
</g>
<g id="Line_Chart">
</g>
<g id="Bar_Chart">
</g>
<g id="Target">
</g>
<g id="Flashlight">
</g>
<g id="USB_Device">
</g>
<g id="Eject">
</g>
<g id="Lightbulb">
</g>
<g id="Information">
</g>
<g id="Deactivate_Protection">
</g>
<g id="Active_Protection">
</g>
<g id="Bug">
</g>
<g id="Protection">
</g>
<g id="Phone">
</g>
<g id="List">
</g>
<g id="Plugin_1">
</g>
<g id="Bookmarrk">
</g>
<g id="Handshake">
</g>
<g id="Minimize">
</g>
<g id="Maximize">
</g>
<g id="Diamond">
</g>
<g id="Stop">
</g>
<g id="Shuffle">
</g>
<g id="Undo">
</g>
<g id="Upgrade">
</g>
<g id="Coding">
</g>
<g id="Syncronizaion">
</g>
<g id="Radio">
</g>
<g id="Presentation">
</g>
<g id="Door">
</g>
<g id="Thumbs_Up">
</g>
<g id="Thumbs_Down">
</g>
<g id="Keyboard">
</g>
<g id="_x33_D_Cube">
</g>
<g id="Signal">
</g>
<g id="Dice">
</g>
<g id="Upload">
</g>
<g id="Download">
</g>
<g id="Plugin_2">
</g>
<g id="Shopping_Bag">
</g>
<g id="Lifebelt">
</g>
<g id="Glasses">
</g>
<g id="Parabolic_Antenna">
</g>
<g id="Loudspeaker">
</g>
<g id="Play">
</g>
<g id="Pause">
</g>
<g id="Signpost">
</g>
<g id="Bluetooth">
</g>
<g id="Present">
</g>
<g id="Ruler">
</g>
<g id="Connection">
</g>
<g id="Money">
</g>
<g id="Paper_Plane">
</g>
<g id="Wallet_2">
</g>
</svg>
