<?xml version="1.0" encoding="iso-8859-1"?>
<!-- Generator: Adobe Illustrator 19.2.1, SVG Export Plug-In . SVG Version: 6.00 Build 0)  -->
<svg version="1.1" xmlns="http://www.w3.org/2000/svg" xmlns:xlink="http://www.w3.org/1999/xlink" x="0px" y="0px"
	 viewBox="0 0 24 24" style="enable-background:new 0 0 24 24;" xml:space="preserve">
<g id="Mail">
</g>
<g id="Open_Mail">
</g>
<g id="Mail_Attachmet">
</g>
<g id="Mails">
</g>
<g id="Trash">
</g>
<g id="Trash_Full">
</g>
<g id="Preferences_1">
</g>
<g id="Preferences_2">
</g>
<g id="Mouse">
</g>
<g id="Computer">
</g>
<g id="Notebook">
</g>
<g id="Mobile_Phone">
</g>
<g id="Print">
</g>
<g id="Calculator">
</g>
<g id="Tag">
</g>
<g id="Paperclip">
</g>
<g id="Heart">
</g>
<g id="Lock">
</g>
<g id="Lock_Open">
</g>
<g id="Key_1">
</g>
<g id="Star">
</g>
<g id="Add">
</g>
<g id="Remove">
</g>
<g id="Error">
</g>
<g id="Check_1">
</g>
<g id="Time">
</g>
<g id="Question_Mark">
</g>
<g id="Error_Mark">
</g>
<g id="Sand-Glass">
</g>
<g id="Battery_Full">
</g>
<g id="Battery_Charge">
</g>
<g id="Battery_Half">
</g>
<g id="Battery_Low">
</g>
<g id="No_Battery">
</g>
<g id="Key_2">
</g>
<g id="Link">
</g>
<g id="Brake_Link">
</g>
<g id="Pencil">
</g>
<g id="At">
</g>
<g id="Reply">
</g>
<g id="Accessible">
</g>
<g id="Up_Arrow">
</g>
<g id="Brush">
</g>
<g id="Design_Mug">
</g>
<g id="Design">
</g>
<g id="Server">
</g>
<g id="Database">
</g>
<g id="Save">
</g>
<g id="Female">
</g>
<g id="Male">
</g>
<g id="Book">
</g>
<g id="Power">
</g>
<g id="Reload">
</g>
<g id="Map">
</g>
<g id="Loction_1">
</g>
<g id="Location_2">
</g>
<g id="Globe">
</g>
<g id="Suitcase">
</g>
<g id="Callendar">
</g>
<g id="Cloud_Off">
</g>
<g id="File_1">
</g>
<g id="File_2">
</g>
<g id="Folder">
</g>
<g id="Open_Folder">
</g>
<g id="Cloud">
</g>
<g id="Upload_Cloud">
</g>
<g id="Download_Cloud">
</g>
<g id="Eye">
</g>
<g id="Invisible">
</g>
<g id="Assignment">
</g>
<g id="Note_Book">
</g>
<g id="Webpage">
</g>
<g id="Mailbox">
</g>
<g id="Drive">
</g>
<g id="Disc">
</g>
<g id="Wifi_1">
</g>
<g id="Wifi_2">
</g>
<g id="Archive">
</g>
<g id="Archive_File">
</g>
<g id="News">
</g>
<g id="Home">
</g>
<g id="Collaboration">
</g>
<g id="Announcement">
</g>
<g id="Watch">
</g>
<g id="Clock">
</g>
<g id="Volume">
	<g>
		<g>
			<path d="M13.5,24c-0.119,0-0.236-0.042-0.329-0.124L5.313,17H1.5C0.673,17,0,16.327,0,15.5v-7C0,7.673,0.673,7,1.5,7h3.813
				l7.858-6.876c0.147-0.131,0.356-0.16,0.536-0.079C13.886,0.126,14,0.304,14,0.5v23c0,0.196-0.114,0.374-0.293,0.455
				C13.641,23.985,13.57,24,13.5,24z M1.5,8C1.225,8,1,8.225,1,8.5v7C1,15.775,1.225,16,1.5,16h4c0.121,0,0.238,0.044,0.329,0.124
				L13,22.398V1.602L5.829,7.876C5.738,7.956,5.621,8,5.5,8H1.5z"/>
		</g>
		<g>
			<path d="M17.079,15.795c-0.041,0-0.084-0.005-0.126-0.017c-0.268-0.069-0.428-0.343-0.357-0.609C16.864,14.139,17,13.072,17,12
				c0-1.074-0.137-2.142-0.405-3.172c-0.07-0.267,0.09-0.54,0.357-0.609c0.262-0.077,0.539,0.089,0.609,0.357
				C17.853,9.688,18,10.84,18,12c0,1.157-0.147,2.309-0.438,3.421C17.504,15.646,17.302,15.795,17.079,15.795z"/>
		</g>
		<g>
			<path d="M19.288,18.618c-0.064,0-0.129-0.012-0.191-0.038c-0.255-0.105-0.376-0.398-0.271-0.653C19.605,16.048,20,14.054,20,12
				c0-2.053-0.396-4.048-1.175-5.93c-0.105-0.255,0.016-0.548,0.271-0.653c0.256-0.106,0.548,0.016,0.653,0.271
				C20.579,7.691,21,9.815,21,12c0,2.186-0.421,4.309-1.25,6.31C19.67,18.502,19.484,18.618,19.288,18.618z"/>
		</g>
		<g>
			<path d="M21.361,21.267c-0.078,0-0.157-0.019-0.231-0.057c-0.244-0.128-0.34-0.43-0.212-0.675C22.28,17.92,23,14.969,23,12
				c0-2.971-0.721-5.924-2.085-8.54c-0.128-0.245-0.032-0.547,0.212-0.675c0.244-0.126,0.547-0.033,0.675,0.212
				C23.24,5.756,24,8.868,24,12c0,3.129-0.759,6.24-2.195,8.998C21.716,21.169,21.541,21.267,21.361,21.267z"/>
		</g>
	</g>
</g>
<g id="Mute">
</g>
<g id="Hand">
</g>
<g id="Layers">
</g>
<g id="Bell">
</g>
<g id="Speach_Bubble">
</g>
<g id="Speach_Bubbles">
</g>
<g id="Zoom_In">
</g>
<g id="Zoom_Out">
</g>
<g id="Search">
</g>
<g id="Back_Arrow">
</g>
<g id="Close">
</g>
<g id="Check_2">
</g>
<g id="Left_Arrow_2">
</g>
<g id="Right_Arrow_2">
</g>
</svg>
