<?xml version="1.0" encoding="iso-8859-1"?>
<!-- Generator: Adobe Illustrator 19.2.1, SVG Export Plug-In . SVG Version: 6.00 Build 0)  -->
<svg version="1.1" xmlns="http://www.w3.org/2000/svg" xmlns:xlink="http://www.w3.org/1999/xlink" x="0px" y="0px"
	 viewBox="0 0 24 24" style="enable-background:new 0 0 24 24;" xml:space="preserve">
<g id="Credit_Card">
</g>
<g id="Banknote">
</g>
<g id="Wallet">
</g>
<g id="Compass">
</g>
<g id="Camera_1">
</g>
<g id="Photo">
</g>
<g id="Picture">
</g>
<g id="Camera_2">
</g>
<g id="No_Camera">
</g>
<g id="Video">
</g>
<g id="Audio">
</g>
<g id="Microphone_1">
</g>
<g id="Microphone_2">
</g>
<g id="No_Microphone">
</g>
<g id="Shopping_Cart">
</g>
<g id="Add_Shopping_Cart">
</g>
<g id="Remove_Shopping_Cart">
</g>
<g id="Shopping_Basket">
</g>
<g id="Jing-Jang">
</g>
<g id="Leaf">
</g>
<g id="Glass">
</g>
<g id="Cup">
</g>
<g id="Mug">
</g>
<g id="Refresh">
</g>
<g id="Login">
</g>
<g id="Logout">
</g>
<g id="Flowchart">
</g>
<g id="Pin_1">
</g>
<g id="Pin_2">
</g>
<g id="User_1">
</g>
<g id="User_2">
</g>
<g id="Users">
</g>
<g id="Adjustments">
</g>
<g id="Type">
</g>
<g id="Format_Size">
</g>
<g id="Menu_1">
</g>
<g id="Other">
</g>
<g id="Flash">
</g>
<g id="No_Flash">
</g>
<g id="Switch_Button_1">
</g>
<g id="Switch_Button_2">
</g>
<g id="Cut">
</g>
<g id="Crop">
</g>
<g id="Sun">
</g>
<g id="USB">
</g>
<g id="Pie_Chart_1">
</g>
<g id="Pie_Chart_2">
</g>
<g id="Line_Chart">
</g>
<g id="Bar_Chart">
</g>
<g id="Target">
</g>
<g id="Flashlight">
</g>
<g id="USB_Device">
</g>
<g id="Eject">
</g>
<g id="Lightbulb">
</g>
<g id="Information">
</g>
<g id="Deactivate_Protection">
</g>
<g id="Active_Protection">
</g>
<g id="Bug">
</g>
<g id="Protection">
</g>
<g id="Phone">
</g>
<g id="List">
</g>
<g id="Plugin_1">
</g>
<g id="Bookmarrk">
</g>
<g id="Handshake">
</g>
<g id="Minimize">
</g>
<g id="Maximize">
</g>
<g id="Diamond">
</g>
<g id="Stop">
</g>
<g id="Shuffle">
</g>
<g id="Undo">
</g>
<g id="Upgrade">
</g>
<g id="Coding">
</g>
<g id="Syncronizaion">
</g>
<g id="Radio">
</g>
<g id="Presentation">
</g>
<g id="Door">
</g>
<g id="Thumbs_Up">
</g>
<g id="Thumbs_Down">
</g>
<g id="Keyboard">
</g>
<g id="_x33_D_Cube">
</g>
<g id="Signal">
</g>
<g id="Dice">
</g>
<g id="Upload">
</g>
<g id="Download">
</g>
<g id="Plugin_2">
</g>
<g id="Shopping_Bag">
</g>
<g id="Lifebelt">
</g>
<g id="Glasses">
</g>
<g id="Parabolic_Antenna">
</g>
<g id="Loudspeaker">
</g>
<g id="Play">
</g>
<g id="Pause">
</g>
<g id="Signpost">
</g>
<g id="Bluetooth">
</g>
<g id="Present">
</g>
<g id="Ruler">
</g>
<g id="Connection">
</g>
<g id="Money">
</g>
<g id="Paper_Plane">
</g>
<g id="Wallet_2">
	<g>
		<g>
			<path d="M15.5,22.002h-14c-0.827,0-1.5-0.673-1.5-1.5v-12c0-0.827,0.673-1.5,1.5-1.5l11.918-1.995
				c0.267-0.049,0.529,0.138,0.575,0.411c0.046,0.272-0.139,0.529-0.411,0.575l-12,2.002C1.225,8.002,1,8.227,1,8.502
				s0.225,0.5,0.5,0.5h14c1.379,0,2.5,1.121,2.5,2.5v8C18,20.881,16.879,22.002,15.5,22.002z M1,9.916v10.586
				c0,0.275,0.225,0.5,0.5,0.5h14c0.827,0,1.5-0.673,1.5-1.5v-8c0-0.827-0.673-1.5-1.5-1.5h-14C1.325,10.002,1.156,9.972,1,9.916z"
				/>
		</g>
		<g>
			<path d="M17.498,16c-0.128,0-0.256-0.049-0.354-0.146c-0.195-0.195-0.195-0.512,0-0.707l5.709-5.709
				c0.195-0.195,0.195-0.512,0-0.707l-5.586-5.586c-0.195-0.195-0.512-0.195-0.707,0L9.852,9.854c-0.195,0.195-0.512,0.195-0.707,0
				s-0.195-0.512,0-0.707l6.709-6.709c0.584-0.584,1.537-0.584,2.121,0l5.586,5.586c0.585,0.585,0.585,1.536,0,2.121l-5.709,5.709
				C17.754,15.951,17.626,16,17.498,16z"/>
		</g>
		<g>
			<path d="M12.5,10c-0.128,0-0.256-0.049-0.354-0.146c-0.195-0.195-0.195-0.512,0-0.707l5.915-5.915
				c0.195-0.195,0.512-0.195,0.707,0s0.195,0.512,0,0.707l-5.915,5.915C12.756,9.951,12.628,10,12.5,10z"/>
		</g>
		<g>
			<path d="M15.5,10c-0.128,0-0.256-0.049-0.354-0.146c-0.195-0.195-0.195-0.512,0-0.707l4.415-4.415
				c0.195-0.195,0.512-0.195,0.707,0s0.195,0.512,0,0.707l-4.415,4.415C15.756,9.951,15.628,10,15.5,10z"/>
		</g>
		<g>
			<path d="M14.5,17c-0.827,0-1.5-0.673-1.5-1.5s0.673-1.5,1.5-1.5s1.5,0.673,1.5,1.5S15.327,17,14.5,17z M14.5,15
				c-0.275,0-0.5,0.225-0.5,0.5s0.225,0.5,0.5,0.5s0.5-0.225,0.5-0.5S14.775,15,14.5,15z"/>
		</g>
		<g>
			<path d="M17.5,19h-4c-1.379,0-2.5-1.121-2.5-2.5v-2c0-1.379,1.121-2.5,2.5-2.5h4c0.276,0,0.5,0.224,0.5,0.5S17.776,13,17.5,13h-4
				c-0.827,0-1.5,0.673-1.5,1.5v2c0,0.827,0.673,1.5,1.5,1.5h4c0.276,0,0.5,0.224,0.5,0.5S17.776,19,17.5,19z"/>
		</g>
	</g>
</g>
</svg>
