<?xml version="1.0" encoding="iso-8859-1"?>
<!-- Generator: Adobe Illustrator 19.2.1, SVG Export Plug-In . SVG Version: 6.00 Build 0)  -->
<svg version="1.1" xmlns="http://www.w3.org/2000/svg" xmlns:xlink="http://www.w3.org/1999/xlink" x="0px" y="0px"
	 viewBox="0 0 24 24" style="enable-background:new 0 0 24 24;" xml:space="preserve">
<g id="Flag">
</g>
<g id="Umbrella">
</g>
<g id="Briefcase">
</g>
<g id="Box">
</g>
<g id="Magnet">
</g>
<g id="Percent">
</g>
<g id="Rocket">
</g>
<g id="Share">
</g>
<g id="Transmitter">
</g>
<g id="Record_2">
</g>
<g id="Record_1">
</g>
<g id="Anchor">
</g>
<g id="Airplane">
</g>
<g id="Car">
</g>
<g id="Newsfeed">
</g>
<g id="Wifi_Tethering">
	<g>
		<g>
			<path d="M5.508,22.99c-0.098,0-0.196-0.028-0.282-0.087C1.953,20.66,0,16.961,0,13.01c0-6.617,5.383-12,12-12s12,5.383,12,12
				c0,3.951-1.952,7.648-5.223,9.892c-0.228,0.156-0.539,0.099-0.695-0.13c-0.156-0.228-0.099-0.539,0.129-0.695
				C21.21,20.02,23,16.631,23,13.01c0-6.065-4.935-11-11-11s-11,4.935-11,11c0,3.622,1.791,7.012,4.79,9.068
				c0.229,0.156,0.286,0.468,0.13,0.695C5.823,22.914,5.667,22.99,5.508,22.99z"/>
		</g>
		<g>
			<path d="M7.202,20.517c-0.098,0-0.196-0.028-0.282-0.087C4.465,18.748,3,15.974,3,13.01c0-4.962,4.037-9,9-9s9,4.038,9,9
				c0,2.963-1.465,5.737-3.917,7.419c-0.229,0.156-0.538,0.099-0.695-0.13c-0.156-0.228-0.099-0.539,0.129-0.695
				C18.698,18.108,20,15.643,20,13.01c0-4.411-3.589-8-8-8s-8,3.589-8,8c0,2.634,1.303,5.099,3.484,6.595
				c0.229,0.156,0.286,0.467,0.13,0.695C7.518,20.441,7.361,20.517,7.202,20.517z"/>
		</g>
		<g>
			<path d="M8.896,18.044c-0.098,0-0.196-0.028-0.282-0.087C6.977,16.835,6,14.986,6,13.01c0-3.309,2.691-6,6-6s6,2.691,6,6
				c0,1.976-0.977,3.825-2.612,4.946c-0.226,0.156-0.538,0.099-0.694-0.13c-0.156-0.228-0.099-0.539,0.13-0.695
				C16.187,16.196,17,14.656,17,13.01c0-2.757-2.243-5-5-5s-5,2.243-5,5c0,1.646,0.814,3.187,2.178,4.122
				c0.229,0.156,0.286,0.467,0.13,0.695C9.211,17.968,9.055,18.044,8.896,18.044z"/>
		</g>
		<g>
			<path d="M12,15.01c-1.103,0-2-0.897-2-2s0.897-2,2-2s2,0.897,2,2S13.103,15.01,12,15.01z M12,12.01c-0.552,0-1,0.449-1,1
				s0.448,1,1,1s1-0.449,1-1S12.552,12.01,12,12.01z"/>
		</g>
	</g>
</g>
<g id="No_Wifi_Tethering">
</g>
<g id="Bar_Chart_2">
</g>
<g id="Shop">
</g>
<g id="Alarm">
</g>
<g id="Sim_Card">
</g>
<g id="Radar">
</g>
<g id="Hand_2">
</g>
<g id="Palette">
</g>
<g id="Cake">
</g>
<g id="Blende">
</g>
<g id="Feather_Pen">
</g>
<g id="Ticket">
</g>
<g id="Medal">
</g>
<g id="Mouse_Pointer_1">
</g>
<g id="Mouse_Pointer_2">
</g>
<g id="Fingerprint">
</g>
<g id="Earth">
</g>
</svg>
