<?xml version="1.0" encoding="iso-8859-1"?>
<!-- Generator: Adobe Illustrator 19.2.1, SVG Export Plug-In . SVG Version: 6.00 Build 0)  -->
<svg version="1.1" xmlns="http://www.w3.org/2000/svg" xmlns:xlink="http://www.w3.org/1999/xlink" x="0px" y="0px"
	 viewBox="0 0 24 24" style="enable-background:new 0 0 24 24;" xml:space="preserve">
<g id="Mail">
</g>
<g id="Open_Mail">
</g>
<g id="Mail_Attachmet">
</g>
<g id="Mails">
</g>
<g id="Trash">
</g>
<g id="Trash_Full">
</g>
<g id="Preferences_1">
</g>
<g id="Preferences_2">
</g>
<g id="Mouse">
</g>
<g id="Computer">
</g>
<g id="Notebook">
</g>
<g id="Mobile_Phone">
</g>
<g id="Print">
</g>
<g id="Calculator">
</g>
<g id="Tag">
</g>
<g id="Paperclip">
</g>
<g id="Heart">
</g>
<g id="Lock">
</g>
<g id="Lock_Open">
</g>
<g id="Key_1">
</g>
<g id="Star">
</g>
<g id="Add">
</g>
<g id="Remove">
</g>
<g id="Error">
</g>
<g id="Check_1">
</g>
<g id="Time">
</g>
<g id="Question_Mark">
</g>
<g id="Error_Mark">
</g>
<g id="Sand-Glass">
</g>
<g id="Battery_Full">
</g>
<g id="Battery_Charge">
</g>
<g id="Battery_Half">
</g>
<g id="Battery_Low">
</g>
<g id="No_Battery">
</g>
<g id="Key_2">
</g>
<g id="Link">
</g>
<g id="Brake_Link">
</g>
<g id="Pencil">
</g>
<g id="At">
</g>
<g id="Reply">
</g>
<g id="Accessible">
</g>
<g id="Up_Arrow">
</g>
<g id="Brush">
</g>
<g id="Design_Mug">
</g>
<g id="Design">
</g>
<g id="Server">
</g>
<g id="Database">
</g>
<g id="Save">
</g>
<g id="Female">
</g>
<g id="Male">
</g>
<g id="Book">
</g>
<g id="Power">
</g>
<g id="Reload">
</g>
<g id="Map">
</g>
<g id="Loction_1">
</g>
<g id="Location_2">
</g>
<g id="Globe">
</g>
<g id="Suitcase">
</g>
<g id="Callendar">
</g>
<g id="Cloud_Off">
</g>
<g id="File_1">
</g>
<g id="File_2">
</g>
<g id="Folder">
</g>
<g id="Open_Folder">
</g>
<g id="Cloud">
</g>
<g id="Upload_Cloud">
</g>
<g id="Download_Cloud">
</g>
<g id="Eye">
</g>
<g id="Invisible">
</g>
<g id="Assignment">
</g>
<g id="Note_Book">
</g>
<g id="Webpage">
</g>
<g id="Mailbox">
</g>
<g id="Drive">
</g>
<g id="Disc">
</g>
<g id="Wifi_1">
</g>
<g id="Wifi_2">
	<g>
		<g>
			<path d="M12,21c-3.021,0-5.795-1.49-7.474-4H3.5C1.57,17,0,15.43,0,13.5v-3C0,8.57,1.57,7,3.5,7h1.026C6.205,4.49,8.979,3,12,3
				s5.795,1.49,7.474,4H20.5c1.93,0,3.5,1.57,3.5,3.5v3c0,1.93-1.57,3.5-3.5,3.5h-1.026C17.795,19.51,15.021,21,12,21z M3.5,8
				C2.121,8,1,9.121,1,10.5v3C1,14.879,2.121,16,3.5,16h1.298c0.172,0,0.332,0.089,0.424,0.234C6.698,18.593,9.232,20,12,20
				s5.302-1.407,6.778-3.766C18.87,16.089,19.03,16,19.202,16H20.5c1.379,0,2.5-1.121,2.5-2.5v-3C23,9.121,21.879,8,20.5,8h-1.298
				c-0.172,0-0.332-0.089-0.424-0.234C17.302,5.407,14.768,4,12,4S6.698,5.407,5.222,7.766C5.13,7.911,4.97,8,4.798,8H3.5z"/>
		</g>
		<g>
			<path d="M19.202,8H4.798c-0.276,0-0.5-0.224-0.5-0.5S4.521,7,4.798,7h14.404c0.276,0,0.5,0.224,0.5,0.5S19.479,8,19.202,8z"/>
		</g>
		<g>
			<path d="M19.202,17H4.798c-0.276,0-0.5-0.224-0.5-0.5s0.224-0.5,0.5-0.5h14.404c0.276,0,0.5,0.224,0.5,0.5S19.479,17,19.202,17z"
				/>
		</g>
		<g>
			<path d="M10.5,17c-0.276,0-0.5-0.224-0.5-0.5s0.224-0.5,0.5-0.5c0.87,0,1.5-2.39,1.5-4c0-1.632,0.611-5,2.5-5
				C14.776,7,15,7.224,15,7.5S14.776,8,14.5,8c-0.87,0-1.5,2.39-1.5,4C13,13.632,12.389,17,10.5,17z"/>
		</g>
		<g>
			<path d="M7,15c-0.221,0-0.415-0.145-0.479-0.356L5.5,11.24l-1.021,3.403c-0.127,0.424-0.83,0.424-0.957,0l-1.5-5
				c-0.08-0.265,0.07-0.543,0.335-0.622C2.618,8.939,2.9,9.092,2.979,9.356L4,12.76l1.021-3.403c0.127-0.424,0.83-0.424,0.957,0
				L7,12.76l1.021-3.403c0.079-0.265,0.36-0.416,0.622-0.335c0.265,0.079,0.415,0.357,0.335,0.622l-1.5,5
				C7.415,14.855,7.221,15,7,15z"/>
		</g>
		<g>
			<path d="M10.5,15c-0.276,0-0.5-0.224-0.5-0.5v-3c0-0.276,0.224-0.5,0.5-0.5s0.5,0.224,0.5,0.5v3C11,14.776,10.776,15,10.5,15z"/>
		</g>
		<g>
			<path d="M14.5,15c-0.276,0-0.5-0.224-0.5-0.5v-5C14,9.224,14.224,9,14.5,9h4C18.776,9,19,9.224,19,9.5S18.776,10,18.5,10H15v4.5
				C15,14.776,14.776,15,14.5,15z"/>
		</g>
		<g>
			<path d="M18,13h-3.5c-0.276,0-0.5-0.224-0.5-0.5s0.224-0.5,0.5-0.5H18c0.276,0,0.5,0.224,0.5,0.5S18.276,13,18,13z"/>
		</g>
		<g>
			<path d="M20.5,15c-0.276,0-0.5-0.224-0.5-0.5v-3c0-0.276,0.224-0.5,0.5-0.5s0.5,0.224,0.5,0.5v3C21,14.776,20.776,15,20.5,15z"/>
		</g>
		<g>
			<circle cx="10.5" cy="9.5" r="0.5"/>
		</g>
		<g>
			<circle cx="20.5" cy="9.5" r="0.5"/>
		</g>
	</g>
</g>
<g id="Archive">
</g>
<g id="Archive_File">
</g>
<g id="News">
</g>
<g id="Home">
</g>
<g id="Collaboration">
</g>
<g id="Announcement">
</g>
<g id="Watch">
</g>
<g id="Clock">
</g>
<g id="Volume">
</g>
<g id="Mute">
</g>
<g id="Hand">
</g>
<g id="Layers">
</g>
<g id="Bell">
</g>
<g id="Speach_Bubble">
</g>
<g id="Speach_Bubbles">
</g>
<g id="Zoom_In">
</g>
<g id="Zoom_Out">
</g>
<g id="Search">
</g>
<g id="Back_Arrow">
</g>
<g id="Close">
</g>
<g id="Check_2">
</g>
<g id="Left_Arrow_2">
</g>
<g id="Right_Arrow_2">
</g>
</svg>
