<?xml version="1.0" encoding="iso-8859-1"?>
<!-- Generator: Adobe Illustrator 19.2.1, SVG Export Plug-In . SVG Version: 6.00 Build 0)  -->
<svg version="1.1" xmlns="http://www.w3.org/2000/svg" xmlns:xlink="http://www.w3.org/1999/xlink" x="0px" y="0px"
	 viewBox="0 0 24 24" style="enable-background:new 0 0 24 24;" xml:space="preserve">
<g id="Mail">
</g>
<g id="Open_Mail">
</g>
<g id="Mail_Attachmet">
</g>
<g id="Mails">
</g>
<g id="Trash">
</g>
<g id="Trash_Full">
</g>
<g id="Preferences_1">
</g>
<g id="Preferences_2">
</g>
<g id="Mouse">
</g>
<g id="Computer">
</g>
<g id="Notebook">
</g>
<g id="Mobile_Phone">
</g>
<g id="Print">
</g>
<g id="Calculator">
</g>
<g id="Tag">
</g>
<g id="Paperclip">
</g>
<g id="Heart">
</g>
<g id="Lock">
</g>
<g id="Lock_Open">
</g>
<g id="Key_1">
</g>
<g id="Star">
</g>
<g id="Add">
</g>
<g id="Remove">
</g>
<g id="Error">
</g>
<g id="Check_1">
</g>
<g id="Time">
</g>
<g id="Question_Mark">
</g>
<g id="Error_Mark">
</g>
<g id="Sand-Glass">
</g>
<g id="Battery_Full">
</g>
<g id="Battery_Charge">
</g>
<g id="Battery_Half">
</g>
<g id="Battery_Low">
</g>
<g id="No_Battery">
</g>
<g id="Key_2">
</g>
<g id="Link">
</g>
<g id="Brake_Link">
</g>
<g id="Pencil">
</g>
<g id="At">
</g>
<g id="Reply">
</g>
<g id="Accessible">
</g>
<g id="Up_Arrow">
</g>
<g id="Brush">
</g>
<g id="Design_Mug">
</g>
<g id="Design">
</g>
<g id="Server">
</g>
<g id="Database">
</g>
<g id="Save">
</g>
<g id="Female">
</g>
<g id="Male">
</g>
<g id="Book">
</g>
<g id="Power">
</g>
<g id="Reload">
</g>
<g id="Map">
</g>
<g id="Loction_1">
</g>
<g id="Location_2">
</g>
<g id="Globe">
</g>
<g id="Suitcase">
</g>
<g id="Callendar">
</g>
<g id="Cloud_Off">
</g>
<g id="File_1">
</g>
<g id="File_2">
</g>
<g id="Folder">
</g>
<g id="Open_Folder">
</g>
<g id="Cloud">
</g>
<g id="Upload_Cloud">
</g>
<g id="Download_Cloud">
</g>
<g id="Eye">
</g>
<g id="Invisible">
</g>
<g id="Assignment">
</g>
<g id="Note_Book">
</g>
<g id="Webpage">
</g>
<g id="Mailbox">
</g>
<g id="Drive">
</g>
<g id="Disc">
</g>
<g id="Wifi_1">
	<g>
		<g>
			<path d="M12,21c-0.827,0-1.5-0.673-1.5-1.5S11.173,18,12,18s1.5,0.673,1.5,1.5S12.827,21,12,21z M12,19
				c-0.275,0-0.5,0.225-0.5,0.5S11.725,20,12,20s0.5-0.225,0.5-0.5S12.275,19,12,19z"/>
		</g>
		<g>
			<path d="M15.809,16.364c-0.112,0-0.225-0.037-0.317-0.114c-1.961-1.611-5.021-1.611-6.982,0
				c-0.213,0.177-0.528,0.145-0.703-0.068c-0.176-0.213-0.146-0.528,0.068-0.703C9.032,14.525,10.498,14,12,14
				s2.968,0.525,4.126,1.479c0.214,0.175,0.244,0.49,0.068,0.703C16.096,16.302,15.952,16.364,15.809,16.364z"/>
		</g>
		<g>
			<path d="M19.432,12.906c-0.121,0-0.242-0.044-0.338-0.132C17.145,10.985,14.626,10,12,10s-5.145,0.985-7.094,2.774
				c-0.201,0.186-0.519,0.174-0.706-0.03c-0.187-0.203-0.174-0.52,0.03-0.706C6.363,10.079,9.123,9,12,9s5.637,1.079,7.77,3.038
				c0.204,0.187,0.217,0.503,0.03,0.706C19.701,12.852,19.566,12.906,19.432,12.906z"/>
		</g>
		<g>
			<path d="M23,9.417c-0.124,0-0.248-0.046-0.345-0.138C19.756,6.52,15.972,5,12,5C8.026,5,4.242,6.515,1.344,9.264
				C1.145,9.453,0.827,9.447,0.638,9.245c-0.19-0.2-0.183-0.517,0.019-0.706C3.74,5.612,7.769,4,12,4
				c4.229,0,8.258,1.617,11.345,4.555c0.2,0.19,0.208,0.507,0.018,0.707C23.264,9.365,23.132,9.417,23,9.417z"/>
		</g>
	</g>
</g>
<g id="Wifi_2">
</g>
<g id="Archive">
</g>
<g id="Archive_File">
</g>
<g id="News">
</g>
<g id="Home">
</g>
<g id="Collaboration">
</g>
<g id="Announcement">
</g>
<g id="Watch">
</g>
<g id="Clock">
</g>
<g id="Volume">
</g>
<g id="Mute">
</g>
<g id="Hand">
</g>
<g id="Layers">
</g>
<g id="Bell">
</g>
<g id="Speach_Bubble">
</g>
<g id="Speach_Bubbles">
</g>
<g id="Zoom_In">
</g>
<g id="Zoom_Out">
</g>
<g id="Search">
</g>
<g id="Back_Arrow">
</g>
<g id="Close">
</g>
<g id="Check_2">
</g>
<g id="Left_Arrow_2">
</g>
<g id="Right_Arrow_2">
</g>
</svg>
