<?xml version="1.0" encoding="iso-8859-1"?>
<!-- Generator: Adobe Illustrator 19.2.1, SVG Export Plug-In . SVG Version: 6.00 Build 0)  -->
<svg version="1.1" xmlns="http://www.w3.org/2000/svg" xmlns:xlink="http://www.w3.org/1999/xlink" x="0px" y="0px"
	 viewBox="0 0 24 24" style="enable-background:new 0 0 24 24;" xml:space="preserve">
<g id="Pompkin">
</g>
<g id="Layer_10">
</g>
<g id="Bat">
	<g>
		<g>
			<path d="M15.833,20c-0.153,0-0.303-0.071-0.399-0.199c-0.139-0.184-0.133-0.439,0.013-0.618c0.423-0.517,0.859-1.285,0.529-2.011
				c-0.277-0.611-0.988-1.003-1.635-1.126c-0.083,0.135-0.197,0.261-0.341,0.375v1.08c0,0.202-0.122,0.385-0.309,0.462
				c-0.187,0.078-0.402,0.035-0.545-0.108l-0.864-0.864c-0.185,0.014-0.381,0.014-0.564,0l-0.864,0.864
				c-0.143,0.144-0.357,0.186-0.545,0.108C10.122,17.885,10,17.702,10,17.5v-1.08c-0.144-0.113-0.258-0.239-0.341-0.375
				c-0.647,0.123-1.358,0.515-1.635,1.126c-0.33,0.726,0.106,1.495,0.529,2.011c0.146,0.178,0.151,0.434,0.013,0.618
				c-0.139,0.185-0.386,0.25-0.598,0.158c-4.396-1.896-7.131-3.314-7.962-8.378c-0.03-0.184,0.044-0.369,0.194-0.481
				c0.148-0.112,0.346-0.131,0.516-0.051c1.353,0.647,2.64,1.198,3.505,0.816c0.474-0.208,0.824-0.702,1.072-1.511
				c0.08-0.262,0.355-0.409,0.617-0.334c0.606,0.176,1.414,0.225,1.865-0.163c0.366-0.315,0.492-0.917,0.375-1.79
				c-0.029-0.221,0.09-0.434,0.294-0.524c0.203-0.09,0.442-0.034,0.585,0.136c0.37,0.442,0.986,0.606,1.532,0.408
				C11.158,7.87,11.5,7.292,11.5,6.5C11.5,6.224,11.724,6,12,6s0.5,0.224,0.5,0.5c0,0.792,0.342,1.37,0.939,1.587
				c0.546,0.199,1.162,0.035,1.532-0.408c0.143-0.17,0.38-0.228,0.585-0.136c0.204,0.09,0.323,0.303,0.294,0.524
				c-0.117,0.873,0.009,1.475,0.375,1.79c0.451,0.388,1.259,0.339,1.865,0.163c0.264-0.074,0.539,0.074,0.617,0.334
				c0.248,0.809,0.598,1.303,1.072,1.511c0.866,0.383,2.152-0.167,3.505-0.816c0.169-0.08,0.368-0.061,0.516,0.051
				c0.149,0.112,0.224,0.297,0.194,0.481c-0.831,5.063-3.566,6.482-7.962,8.378C15.967,19.987,15.9,20,15.833,20z M13.999,15.005
				c0.005,0,0.011,0,0.016,0c1.014,0.032,2.346,0.595,2.872,1.753c0.188,0.414,0.308,0.987,0.101,1.687
				c3.179-1.444,5.033-2.732,5.831-6.083c-1.246,0.538-2.428,0.862-3.442,0.417c-0.64-0.281-1.134-0.85-1.471-1.694
				c-0.624,0.106-1.616,0.146-2.333-0.472c-0.439-0.378-0.69-0.922-0.75-1.625c-0.539,0.222-1.155,0.244-1.726,0.038
				C12.642,8.861,12.27,8.575,12,8.197c-0.27,0.378-0.642,0.664-1.097,0.83c-0.571,0.207-1.188,0.184-1.726-0.038
				c-0.06,0.703-0.311,1.247-0.75,1.625c-0.717,0.617-1.708,0.579-2.333,0.472c-0.337,0.844-0.831,1.413-1.471,1.694
				c-1.014,0.445-2.197,0.12-3.442-0.417c0.798,3.351,2.652,4.638,5.831,6.083c-0.207-0.7-0.087-1.273,0.101-1.687
				c0.526-1.158,1.857-1.721,2.872-1.753c0.144-0.008,0.265,0.046,0.362,0.139c0.097,0.093,0.152,0.222,0.154,0.356
				c0.002,0.017,0.054,0.11,0.248,0.221c0.153,0.088,0.248,0.249,0.251,0.424c0.108-0.143,0.29-0.221,0.476-0.19
				c0.315,0.05,0.677,0.053,0.997,0.008c0.213-0.031,0.421,0.08,0.517,0.272c0.004,0.007,0.007,0.015,0.011,0.022v-0.102
				c0-0.179,0.096-0.345,0.251-0.434c0.194-0.111,0.245-0.205,0.248-0.222c0.001-0.135,0.057-0.263,0.154-0.356
				C13.746,15.054,13.87,15.005,13.999,15.005z"/>
		</g>
		<g>
			<path d="M16.5,19.5c-0.109,0-0.22-0.036-0.312-0.109c-0.215-0.173-0.25-0.487-0.078-0.703l2-2.5
				c0.174-0.214,0.487-0.251,0.703-0.078c0.215,0.173,0.25,0.487,0.078,0.703l-2,2.5C16.792,19.436,16.646,19.5,16.5,19.5z"/>
		</g>
		<g>
			<path d="M7.5,19.5c-0.147,0-0.292-0.064-0.391-0.188l-2-2.5c-0.172-0.216-0.137-0.53,0.078-0.703
				c0.217-0.173,0.53-0.137,0.703,0.078l2,2.5c0.172,0.216,0.137,0.53-0.078,0.703C7.72,19.464,7.61,19.5,7.5,19.5z"/>
		</g>
		<g>
			<path d="M23.5,6h-23C0.224,6,0,5.776,0,5.5S0.224,5,0.5,5h23C23.776,5,24,5.224,24,5.5S23.776,6,23.5,6z"/>
		</g>
		<g>
			<path d="M13,9c-0.052,0-0.105-0.008-0.158-0.026c-0.262-0.087-0.403-0.37-0.316-0.632l1-3c0.087-0.262,0.368-0.403,0.632-0.316
				c0.262,0.087,0.403,0.37,0.316,0.632l-1,3C13.404,8.868,13.209,9,13,9z"/>
		</g>
		<g>
			<path d="M11,8.5c-0.198,0-0.386-0.119-0.464-0.314l-1-2.5c-0.103-0.256,0.022-0.547,0.279-0.65
				c0.253-0.102,0.548,0.021,0.65,0.279l1,2.5c0.103,0.256-0.022,0.547-0.279,0.65C11.125,8.489,11.062,8.5,11,8.5z"/>
		</g>
	</g>
</g>
<g id="Ghost">
</g>
<g id="Bone_Hand">
</g>
<g id="Tree_Ghost">
</g>
<g id="Gate">
</g>
<g id="Cemetery_1">
</g>
<g id="Cemetery_2">
</g>
<g id="Devil_x27_s_Fork">
</g>
<g id="Night_Candle">
</g>
<g id="Canlestick">
</g>
<g id="Black_Cat">
</g>
<g id="Witch_Cauldron">
</g>
<g id="Corn_Candy">
</g>
<g id="Layer_29">
</g>
<g id="Bones">
</g>
<g id="Witch_Broom">
</g>
<g id="Owl">
</g>
<g id="Scythe">
</g>
<g id="Grim_Reaper">
</g>
<g id="Coffin">
</g>
<g id="Dracula">
</g>
<g id="Frankenstein">
</g>
<g id="Layer_40">
</g>
<g id="Toilet_Paper">
</g>
<g id="Skull">
</g>
<g id="Skull_Cake">
</g>
<g id="Eyeball">
</g>
<g id="Castle">
</g>
<g id="Witch_x27_s_Hat">
</g>
<g id="Cobweb_1">
</g>
<g id="Cobweb_2">
</g>
<g id="Spider">
</g>
<g id="Full_Moon">
</g>
<g id="Crescent">
</g>
<g id="Crow">
</g>
<g id="Candy_Holder">
</g>
<g id="Bloody_Knife">
</g>
<g id="Bloody_Axe">
</g>
</svg>
