<?xml version="1.0" encoding="iso-8859-1"?>
<!-- Generator: Adobe Illustrator 19.2.1, SVG Export Plug-In . SVG Version: 6.00 Build 0)  -->
<svg version="1.1" xmlns="http://www.w3.org/2000/svg" xmlns:xlink="http://www.w3.org/1999/xlink" x="0px" y="0px"
	 viewBox="0 0 24 24" style="enable-background:new 0 0 24 24;" xml:space="preserve">
<g id="Pompkin">
</g>
<g id="Layer_10">
</g>
<g id="Bat">
</g>
<g id="Ghost">
</g>
<g id="Bone_Hand">
</g>
<g id="Tree_Ghost">
</g>
<g id="Gate">
</g>
<g id="Cemetery_1">
</g>
<g id="Cemetery_2">
</g>
<g id="Devil_x27_s_Fork">
</g>
<g id="Night_Candle">
</g>
<g id="Canlestick">
</g>
<g id="Black_Cat">
	<g>
		<g>
			<path d="M18.941,23.994c-1.367,0-2.647-0.626-3.36-1.721c-0.151-0.231-0.085-0.542,0.146-0.692
				c0.232-0.15,0.542-0.085,0.692,0.146c0.697,1.07,2.151,1.531,3.535,1.118C21.861,22.279,23,20.281,23,17.5
				c0-2.435-1.612-3.851-3.32-5.35C17.871,10.562,16,8.919,16,6c0-2.953,2.155-4,4-4c2.355,0,4,1.439,4,3.5C24,7.43,22.43,9,20.5,9
				C20.224,9,20,8.776,20,8.5S20.224,8,20.5,8C21.878,8,23,6.878,23,5.5C23,3.981,21.822,3,20,3c-0.704,0-3,0.216-3,3
				c0,2.466,1.623,3.891,3.34,5.399C22.139,12.979,24,14.612,24,17.5c0,3.248-1.406,5.604-3.762,6.304
				C19.807,23.932,19.37,23.994,18.941,23.994z"/>
		</g>
		<g>
			<path d="M9.5,5C9.224,5,9,4.776,9,4.5v-3L7.8,2.4C7.578,2.565,7.265,2.521,7.1,2.3C6.934,2.079,6.979,1.766,7.2,1.6l2-1.5
				c0.151-0.114,0.354-0.131,0.523-0.047C9.893,0.138,10,0.311,10,0.5v4C10,4.776,9.776,5,9.5,5z"/>
		</g>
		<g>
			<path d="M0.5,5C0.224,5,0,4.776,0,4.5v-4c0-0.189,0.107-0.362,0.276-0.447C0.446-0.031,0.648-0.014,0.8,0.1l2,1.5
				c0.221,0.166,0.266,0.479,0.1,0.7C2.735,2.521,2.421,2.566,2.2,2.4L1,1.5v3C1,4.776,0.776,5,0.5,5z"/>
		</g>
		<g>
			<path d="M11.5,24h-5c-0.235,0-0.439-0.164-0.489-0.395c-0.012-0.056-0.107-0.56,0.283-1.011c0.261-0.301,0.665-0.491,1.207-0.569
				c-0.468-0.886-0.637-2.088-0.326-2.931c0.075-0.205,0.177-0.382,0.3-0.528c-0.062-0.03-0.121-0.06-0.179-0.088
				c-0.129-0.064-0.274-0.068-0.409-0.014c-0.136,0.057-0.237,0.165-0.284,0.306l-1.629,4.889C4.906,23.862,4.715,24,4.5,24h-2
				C2.224,24,2,23.776,2,23.5c0-0.628,0.486-0.932,0.842-1.153c0.114-0.071,0.232-0.142,0.335-0.229
				c0.504-0.569,0.515-5.835-0.154-7.969c-0.442-1.408-0.609-2.981-0.771-4.502C2.201,9.169,2.151,8.701,2.093,8.251
				C0.777,7.501,0,6.302,0,5c0-2.206,2.243-4,5-4s5,1.794,5,4c0,0.916-0.387,1.789-1.098,2.496c0.481,0.595,1.349,1.136,2.261,1.704
				c0.92,0.573,1.871,1.166,2.682,1.938l0,0c2.545,2.426,3.78,6.138,3.146,9.456C16.577,22.758,14.576,24,11.5,24z M8.503,23H11.5
				c1.499,0,4.078-0.337,4.509-2.594c0.572-2.993-0.548-6.347-2.854-8.544h0c-0.737-0.702-1.644-1.267-2.521-1.813
				c-1.188-0.74-2.31-1.438-2.828-2.396C7.692,7.441,7.744,7.178,7.931,7.026C8.62,6.466,9,5.746,9,5c0-1.654-1.794-3-4-3
				S1,3.346,1,5c0,0.993,0.666,1.922,1.781,2.486C2.927,7.56,3.028,7.701,3.05,7.864c0.074,0.534,0.134,1.099,0.195,1.677
				c0.157,1.473,0.319,2.996,0.731,4.309c0.628,2.002,0.935,8.03-0.139,9.018C3.782,22.916,3.726,22.959,3.669,23h0.47l1.516-4.547
				c0.138-0.414,0.447-0.746,0.849-0.913c0.399-0.166,0.85-0.151,1.237,0.042c0.28,0.14,0.609,0.298,0.967,0.463l0.148,0.074
				c0.211,0.105,0.32,0.345,0.26,0.573s-0.261,0.396-0.507,0.374c-0.165,0-0.37,0.031-0.498,0.375
				c-0.285,0.771,0.085,2.191,0.694,2.665c0.173,0.135,0.238,0.368,0.16,0.573C8.893,22.872,8.708,22.999,8.503,23z M7.77,23h0.728
				c-0.01,0-0.021,0-0.032-0.001C8.183,22.979,7.954,22.982,7.77,23z"/>
		</g>
		<g>
			<path d="M6.345,5.228c-0.14,0-0.274-0.059-0.37-0.164c-0.117-0.129-0.159-0.31-0.109-0.477c0.036-0.124,0.12-0.355,0.27-0.504
				c0.15-0.151,0.38-0.231,0.504-0.266c0.163-0.046,0.342-0.005,0.47,0.11c0.127,0.115,0.187,0.287,0.157,0.456
				C7.243,4.525,7.176,4.788,7.008,4.957c0,0,0,0.001-0.001,0.001C6.841,5.122,6.58,5.192,6.439,5.219
				C6.408,5.225,6.376,5.228,6.345,5.228z"/>
		</g>
		<g>
			<path d="M3.574,5.214c-0.031,0-0.062-0.003-0.093-0.009c-0.142-0.027-0.404-0.096-0.57-0.262C2.742,4.774,2.676,4.512,2.652,4.37
				C2.624,4.201,2.683,4.029,2.81,3.915C2.937,3.8,3.114,3.758,3.279,3.804C3.402,3.838,3.632,3.918,3.784,4.07
				C3.934,4.22,4.017,4.449,4.053,4.573C4.103,4.74,4.062,4.921,3.944,5.05C3.849,5.156,3.713,5.214,3.574,5.214z M3.665,4.297h0.01
				H3.665z"/>
		</g>
	</g>
</g>
<g id="Witch_Cauldron">
</g>
<g id="Corn_Candy">
</g>
<g id="Layer_29">
</g>
<g id="Bones">
</g>
<g id="Witch_Broom">
</g>
<g id="Owl">
</g>
<g id="Scythe">
</g>
<g id="Grim_Reaper">
</g>
<g id="Coffin">
</g>
<g id="Dracula">
</g>
<g id="Frankenstein">
</g>
<g id="Layer_40">
</g>
<g id="Toilet_Paper">
</g>
<g id="Skull">
</g>
<g id="Skull_Cake">
</g>
<g id="Eyeball">
</g>
<g id="Castle">
</g>
<g id="Witch_x27_s_Hat">
</g>
<g id="Cobweb_1">
</g>
<g id="Cobweb_2">
</g>
<g id="Spider">
</g>
<g id="Full_Moon">
</g>
<g id="Crescent">
</g>
<g id="Crow">
</g>
<g id="Candy_Holder">
</g>
<g id="Bloody_Knife">
</g>
<g id="Bloody_Axe">
</g>
</svg>
