<?xml version="1.0" encoding="iso-8859-1"?>
<!-- Generator: Adobe Illustrator 19.2.1, SVG Export Plug-In . SVG Version: 6.00 Build 0)  -->
<svg version="1.1" xmlns="http://www.w3.org/2000/svg" xmlns:xlink="http://www.w3.org/1999/xlink" x="0px" y="0px"
	 viewBox="0 0 24 24" style="enable-background:new 0 0 24 24;" xml:space="preserve">
<g id="Pompkin">
</g>
<g id="Layer_10">
</g>
<g id="Bat">
</g>
<g id="Ghost">
</g>
<g id="Bone_Hand">
</g>
<g id="Tree_Ghost">
</g>
<g id="Gate">
</g>
<g id="Cemetery_1">
</g>
<g id="Cemetery_2">
</g>
<g id="Devil_x27_s_Fork">
</g>
<g id="Night_Candle">
</g>
<g id="Canlestick">
</g>
<g id="Black_Cat">
</g>
<g id="Witch_Cauldron">
</g>
<g id="Corn_Candy">
</g>
<g id="Layer_29">
</g>
<g id="Bones">
</g>
<g id="Witch_Broom">
</g>
<g id="Owl">
</g>
<g id="Scythe">
</g>
<g id="Grim_Reaper">
</g>
<g id="Coffin">
</g>
<g id="Dracula">
</g>
<g id="Frankenstein">
</g>
<g id="Layer_40">
</g>
<g id="Toilet_Paper">
</g>
<g id="Skull">
</g>
<g id="Skull_Cake">
</g>
<g id="Eyeball">
</g>
<g id="Castle">
</g>
<g id="Witch_x27_s_Hat">
</g>
<g id="Cobweb_1">
</g>
<g id="Cobweb_2">
</g>
<g id="Spider">
</g>
<g id="Full_Moon">
</g>
<g id="Crescent">
</g>
<g id="Crow">
</g>
<g id="Candy_Holder">
</g>
<g id="Bloody_Knife">
</g>
<g id="Bloody_Axe">
	<g>
		<g>
			<g>
				<path d="M21.629,14.098c-0.086,0-0.171-0.022-0.247-0.065l-0.938-0.536c-0.214-0.123-0.307-0.384-0.217-0.614
					c0.537-1.386,1.273-3.023,1.665-3.877c0.113-0.25,0.406-0.361,0.657-0.249l1.154,0.513c0.124,0.055,0.22,0.158,0.267,0.285
					c0.046,0.127,0.039,0.268-0.02,0.39l-1.871,3.872c-0.061,0.124-0.169,0.219-0.302,0.26
					C21.729,14.09,21.679,14.098,21.629,14.098z M21.316,12.843l0.096,0.055l1.413-2.925l-0.229-0.102
					C22.237,10.663,21.736,11.797,21.316,12.843z"/>
			</g>
			<g>
				<path d="M16.166,10.897c-0.091,0-0.181-0.024-0.26-0.072c-0.49-0.298-0.894-0.575-1.254-0.823
					c-0.51-0.351-0.911-0.627-1.352-0.817c-1.387-0.603-4.129-0.699-6.332-0.777c-1.423-0.05-2.547-0.09-3.136-0.251l-0.24-0.065
					C2.253,7.728,0.868,7.353,0.04,5.423C-0.019,5.286-0.013,5.13,0.055,4.998l2.279-4.451c0.076-0.149,0.223-0.25,0.389-0.269
					c0.173-0.016,0.332,0.047,0.439,0.175C3.173,0.465,4.19,1.657,6.164,2.565c1.876,0.862,2.9,1.056,3.984,1.261
					c1.203,0.228,2.447,0.463,4.859,1.527l2.956,1.366c0.122,0.057,0.217,0.16,0.262,0.287s0.036,0.267-0.022,0.388
					c-0.428,0.869-1.036,2.107-1.589,3.225c-0.063,0.126-0.174,0.22-0.309,0.259C16.26,10.891,16.213,10.897,16.166,10.897z
					 M1.056,5.238c0.635,1.301,1.552,1.55,2.799,1.888l0.243,0.065c0.476,0.131,1.656,0.173,2.906,0.217
					c2.287,0.081,5.135,0.181,6.695,0.858c0.528,0.229,0.987,0.545,1.52,0.911c0.227,0.156,0.471,0.324,0.744,0.502
					c0.389-0.786,0.786-1.595,1.116-2.267l-2.483-1.148C12.297,5.25,11.11,5.026,9.962,4.809C8.816,4.593,7.733,4.388,5.746,3.474
					C4.387,2.849,3.441,2.104,2.91,1.617L1.056,5.238z"/>
			</g>
		</g>
		<g>
			<path d="M20.915,20.772c-0.429,0-1.188-0.05-2.223-0.313c-0.142-0.036-0.261-0.132-0.325-0.264
				c-0.065-0.132-0.068-0.284-0.011-0.419c0.159-0.368,0.367-0.646,0.62-0.833c-0.088-0.102-0.329-0.229-0.903-0.489
				c-0.24-0.109-0.507-0.23-0.797-0.375c-0.947-0.474-1.249-0.781-1.666-1.206c-0.201-0.204-0.438-0.446-0.815-0.767
				c-0.936-0.794-2.546-0.677-3.814-0.461c-0.045,0.115-0.127,0.216-0.237,0.27c-0.192,0.096-0.415,0.082-0.567-0.065
				c-0.256-0.248-0.538-0.578-0.45-0.921c0.046-0.178,0.186-0.316,0.363-0.361c1.089-0.271,4.066-1.275,4.757-2.643
				c0.945-1.873,3.008-6.093,3.008-6.093c0.059-0.12,0.164-0.212,0.291-0.255c0.13-0.041,0.267-0.03,0.386,0.029l4.45,2.279
				c0.24,0.123,0.34,0.415,0.225,0.659c-0.019,0.04-1.898,4.028-2.492,5.947c-0.458,1.479,0.566,4.525,1,5.574
				c0.06,0.144,0.049,0.307-0.029,0.441c-0.077,0.135-0.214,0.226-0.367,0.246C21.302,20.756,21.164,20.772,20.915,20.772z
				 M19.744,19.662c0.308,0.053,0.569,0.081,0.782,0.096c-0.45-1.262-1.27-3.944-0.769-5.562c0.501-1.62,1.825-4.532,2.338-5.64
				l-3.567-1.828c-0.561,1.145-2.033,4.147-2.79,5.647c-0.459,0.909-1.51,1.618-2.567,2.133c0.833,0.065,1.639,0.299,2.271,0.836
				c0.407,0.346,0.663,0.606,0.881,0.828c0.375,0.382,0.602,0.612,1.4,1.012c0.277,0.139,0.533,0.255,0.763,0.358
				c0.897,0.406,1.745,0.791,1.5,1.801C19.953,19.479,19.864,19.595,19.744,19.662z M19.5,19.226h0.01H19.5z"/>
		</g>
		<g>
			<path d="M17.5,23.726c-0.827,0-1.5-0.673-1.5-1.5c0-0.274,0.132-0.622,0.332-1.121c0.079-0.198,0.155-0.378,0.18-0.488
				c0.045-0.199,0.096-0.551-0.065-0.667c-0.354-0.256-1.436,0.051-1.686,0.203c-0.671,0.409-0.98,0.79-0.897,1.101
				C13.964,21.628,14,22.012,14,22.226c0,0.827-0.673,1.5-1.5,1.5s-1.5-0.673-1.5-1.5c0-0.275,0.132-0.624,0.333-1.125
				c0.079-0.196,0.154-0.376,0.18-0.485c0.446-1.985-0.028-2.547-0.577-3.198c-0.424-0.502-0.903-1.07-0.936-2.177
				c-0.007-0.245,0.164-0.459,0.405-0.506c1.51-0.292,3.675-0.547,5.037,0.61c0.407,0.346,0.663,0.606,0.881,0.828
				c0.375,0.382,0.602,0.612,1.4,1.012c0.277,0.139,0.533,0.255,0.763,0.358c0.897,0.406,1.745,0.791,1.5,1.801
				c-0.04,0.163-0.159,0.295-0.316,0.353c-0.349,0.125-0.707,0.838-0.671,2.46C19,23.053,18.327,23.726,17.5,23.726z M16,18.854
				c0.372,0,0.738,0.075,1.027,0.281c0.33,0.237,0.679,0.724,0.461,1.7c-0.032,0.144-0.125,0.383-0.229,0.642
				c-0.088,0.22-0.253,0.629-0.26,0.753c0,0.271,0.225,0.496,0.5,0.496s0.5-0.225,0.5-0.5c-0.037-1.685,0.299-2.796,0.976-3.283
				c-0.09-0.102-0.331-0.229-0.902-0.488c-0.24-0.109-0.507-0.23-0.797-0.375c-0.947-0.474-1.249-0.781-1.666-1.206
				c-0.201-0.204-0.438-0.446-0.815-0.767c-0.92-0.78-2.491-0.684-3.747-0.472c0.102,0.485,0.352,0.781,0.651,1.138
				c0.631,0.746,1.345,1.593,0.789,4.063c-0.033,0.144-0.124,0.381-0.228,0.638c-0.089,0.221-0.254,0.632-0.261,0.757
				c0,0.271,0.225,0.496,0.5,0.496s0.5-0.225,0.5-0.5c0-0.159-0.032-0.451-0.103-0.714c-0.213-0.794,0.238-1.538,1.342-2.213
				C14.47,19.158,15.248,18.854,16,18.854z"/>
		</g>
	</g>
</g>
</svg>
