<?xml version="1.0" encoding="iso-8859-1"?>
<!-- Generator: Adobe Illustrator 19.2.1, SVG Export Plug-In . SVG Version: 6.00 Build 0)  -->
<svg version="1.1" xmlns="http://www.w3.org/2000/svg" xmlns:xlink="http://www.w3.org/1999/xlink" x="0px" y="0px"
	 viewBox="0 0 24 24" style="enable-background:new 0 0 24 24;" xml:space="preserve">
<g id="Pompkin">
</g>
<g id="Layer_10">
</g>
<g id="Bat">
</g>
<g id="Ghost">
</g>
<g id="Bone_Hand">
</g>
<g id="Tree_Ghost">
</g>
<g id="Gate">
</g>
<g id="Cemetery_1">
</g>
<g id="Cemetery_2">
</g>
<g id="Devil_x27_s_Fork">
</g>
<g id="Night_Candle">
</g>
<g id="Canlestick">
</g>
<g id="Black_Cat">
</g>
<g id="Witch_Cauldron">
</g>
<g id="Corn_Candy">
</g>
<g id="Layer_29">
</g>
<g id="Bones">
</g>
<g id="Witch_Broom">
</g>
<g id="Owl">
</g>
<g id="Scythe">
</g>
<g id="Grim_Reaper">
</g>
<g id="Coffin">
</g>
<g id="Dracula">
</g>
<g id="Frankenstein">
</g>
<g id="Layer_40">
</g>
<g id="Toilet_Paper">
</g>
<g id="Skull">
</g>
<g id="Skull_Cake">
</g>
<g id="Eyeball">
</g>
<g id="Castle">
</g>
<g id="Witch_x27_s_Hat">
</g>
<g id="Cobweb_1">
</g>
<g id="Cobweb_2">
</g>
<g id="Spider">
</g>
<g id="Full_Moon">
</g>
<g id="Crescent">
</g>
<g id="Crow">
</g>
<g id="Candy_Holder">
</g>
<g id="Bloody_Knife">
	<g>
		<g>
			<path d="M9.523,8.731c-0.082,0-0.164-0.021-0.237-0.061L4.007,5.817C3.2,6.109,2.327,6.049,1.574,5.64
				C0.119,4.853-0.425,3.028,0.361,1.574c0.787-1.455,2.611-2.002,4.065-1.213l7.236,3.911c0.117,0.063,0.204,0.17,0.242,0.297
				c0.037,0.127,0.023,0.264-0.04,0.38l-1.902,3.52C9.9,8.586,9.793,8.673,9.666,8.711C9.619,8.725,9.571,8.731,9.523,8.731z
				 M4.037,4.766c0.082,0,0.164,0.021,0.237,0.061l5.047,2.728l1.427-2.64L3.952,1.24C2.979,0.718,1.766,1.079,1.24,2.05
				C0.717,3.019,1.08,4.235,2.05,4.761c0.551,0.296,1.2,0.315,1.779,0.05C3.896,4.78,3.967,4.766,4.037,4.766z"/>
		</g>
		<g>
			<path d="M2.998,4c-0.16,0-0.322-0.038-0.473-0.119C2.041,3.618,1.859,3.011,2.12,2.525C2.247,2.29,2.458,2.118,2.715,2.042
				C2.969,1.966,3.239,1.993,3.476,2.12l0.001,0.001C3.96,2.383,4.142,2.99,3.881,3.476C3.699,3.81,3.354,4,2.998,4z"/>
		</g>
		<g>
			<path d="M20.465,13.854c-0.16,0-0.322-0.038-0.473-0.119c-0.235-0.128-0.407-0.339-0.483-0.595s-0.049-0.526,0.079-0.762
				c0.126-0.234,0.337-0.406,0.594-0.482c0.255-0.076,0.524-0.047,0.761,0.078c0,0.001,0.001,0.001,0.002,0.001
				c0.482,0.263,0.663,0.87,0.403,1.354C21.166,13.664,20.82,13.854,20.465,13.854z"/>
		</g>
		<g>
			<path d="M19.17,19.907c-0.246,0-0.489-0.062-0.712-0.182l-1.305-0.755c-0.167-0.097-0.264-0.282-0.247-0.475
				c0.017-0.193,0.143-0.359,0.324-0.427c0.001-0.001,0.099-0.039,0.1-0.04c0.281-0.102,0.442-0.228,0.479-0.375
				c0.068-0.278-0.197-0.795-0.677-1.315c-0.506-0.551-0.94-0.57-1.598-0.6c-0.53-0.023-1.131-0.05-1.844-0.367
				c-0.823-0.366-1.195-0.703-1.523-1.001c-0.313-0.282-0.581-0.526-1.259-0.827c-0.335-0.149-0.601-0.28-0.829-0.393
				c-0.773-0.381-1.009-0.494-2.148-0.406c-0.122,0.151-0.323,0.218-0.51,0.171c-0.188-0.045-0.336-0.195-0.375-0.385
				c-0.076-0.361-0.028-0.714,0.137-1.019l3.804-7.038c0.063-0.119,0.173-0.207,0.303-0.244c0.13-0.038,0.269-0.02,0.387,0.048
				l11.55,6.657c0.34,0.184,0.597,0.5,0.712,0.884c0.114,0.385,0.072,0.79-0.118,1.143l-3.328,6.157
				c-0.19,0.354-0.507,0.61-0.891,0.725C19.459,19.887,19.313,19.907,19.17,19.907z M18.401,18.537l0.546,0.316
				c0.105,0.058,0.242,0.071,0.367,0.032c0.128-0.038,0.233-0.124,0.298-0.241l3.328-6.158c0.063-0.118,0.077-0.253,0.039-0.381
				s-0.124-0.233-0.241-0.296L11.621,5.401l-3.418,6.324c1.084-0.055,1.507,0.13,2.317,0.528c0.219,0.108,0.474,0.233,0.794,0.376
				c0.823,0.366,1.195,0.703,1.523,1.001c0.313,0.282,0.581,0.526,1.259,0.827c0.54,0.24,0.998,0.261,1.481,0.282
				c0.706,0.031,1.505,0.066,2.29,0.922c0.525,0.571,1.109,1.422,0.911,2.23C18.732,18.086,18.627,18.32,18.401,18.537z"/>
		</g>
		<g>
			<path d="M11.5,24c-0.827,0-1.5-0.673-1.5-1.5c0-0.259,0.115-0.559,0.306-1.021c0.074-0.181,0.187-0.454,0.198-0.54
				c0.446-3.619-0.894-4.906-2.076-6.041C7.709,14.207,7.03,13.556,7,12.515c-0.012-0.488,0.557-0.743,0.852-0.766l0,0
				c1.359-0.11,1.777,0.066,2.669,0.505c0.219,0.108,0.474,0.233,0.794,0.376c0.823,0.366,1.195,0.703,1.523,1.001
				c0.313,0.282,0.581,0.526,1.259,0.827c0.54,0.24,0.998,0.261,1.481,0.282c0.706,0.031,1.505,0.066,2.29,0.922
				c0.525,0.571,1.109,1.422,0.911,2.23c-0.083,0.339-0.343,0.801-1.109,1.078c-0.813,0.293-0.813,0.293-0.674,1.47
				c0.068,0.232,0.038,0.601,0.017,0.87C17.006,21.387,17,21.453,17,21.5c0,0.827-0.673,1.5-1.5,1.5S14,22.327,14,21.5
				c0-0.273,0.131-0.621,0.331-1.119c0.079-0.198,0.156-0.379,0.181-0.489c0.081-0.362,0.047-0.586-0.101-0.665
				c-0.397-0.212-1.305,0.097-1.479,0.277c-0.313,0.688-0.214,1.486-0.069,2.024C12.964,21.903,13,22.286,13,22.5
				C13,23.327,12.327,24,11.5,24z M8.031,12.738c0.108,0.475,0.487,0.859,1.089,1.438c1.217,1.169,2.884,2.77,2.376,6.886
				c-0.026,0.214-0.138,0.484-0.266,0.797c-0.083,0.202-0.222,0.541-0.23,0.648C11,22.775,11.225,23,11.5,23s0.5-0.225,0.5-0.5
				c0-0.159-0.032-0.45-0.103-0.713c-0.269-1.002-0.213-1.956,0.162-2.759c0.266-0.567,1.711-1.083,2.61-0.775
				c0.345,0.117,1.114,0.534,0.818,1.856c-0.032,0.144-0.125,0.385-0.229,0.645c-0.088,0.219-0.251,0.627-0.259,0.75
				C15,21.775,15.225,22,15.5,22s0.5-0.225,0.5-0.5c0-0.067,0.007-0.162,0.016-0.271c0.015-0.174,0.038-0.465,0.002-0.6
				c-0.184-1.497-0.113-2.085,1.313-2.601c0.281-0.102,0.442-0.228,0.479-0.375c0.068-0.278-0.197-0.795-0.677-1.315
				c-0.506-0.551-0.94-0.57-1.598-0.6c-0.53-0.023-1.131-0.05-1.844-0.367c-0.823-0.366-1.195-0.703-1.523-1.001
				c-0.313-0.282-0.581-0.526-1.259-0.827c-0.335-0.149-0.601-0.28-0.829-0.393C9.329,12.782,9.086,12.663,8.031,12.738z
				 M7.891,12.247H7.9H7.891z"/>
		</g>
	</g>
</g>
<g id="Bloody_Axe">
</g>
</svg>
