<?xml version="1.0" encoding="iso-8859-1"?>
<!-- Generator: Adobe Illustrator 19.2.1, SVG Export Plug-In . SVG Version: 6.00 Build 0)  -->
<svg version="1.1" xmlns="http://www.w3.org/2000/svg" xmlns:xlink="http://www.w3.org/1999/xlink" x="0px" y="0px"
	 viewBox="0 0 24 24" style="enable-background:new 0 0 24 24;" xml:space="preserve">
<g id="Pompkin">
</g>
<g id="Layer_10">
</g>
<g id="Bat">
</g>
<g id="Ghost">
</g>
<g id="Bone_Hand">
	<g>
		<g>
			<path d="M15.047,8.797c-0.058,0-0.117-0.01-0.174-0.031c-0.259-0.096-0.391-0.384-0.294-0.643
				c0.086-0.232,0.197-0.461,0.305-0.683c0.126-0.259,0.246-0.503,0.293-0.704c0.064-0.269,0.335-0.432,0.602-0.371
				c0.269,0.064,0.435,0.333,0.371,0.602c-0.073,0.308-0.223,0.614-0.367,0.911c-0.094,0.193-0.191,0.391-0.267,0.593
				C15.441,8.672,15.25,8.797,15.047,8.797z"/>
		</g>
		<g>
			<path d="M16.001,6.073c-0.032,0-0.065-0.003-0.098-0.01c-0.271-0.054-0.447-0.317-0.393-0.588
				c0.033-0.166,0.026-0.197,0.018-0.237c-0.013-0.061-0.025-0.122-0.028-0.207c-0.012-0.276,0.202-0.509,0.478-0.521
				c0.282-0.005,0.509,0.202,0.521,0.478l0.007,0.043c0.032,0.148,0.052,0.299-0.016,0.639C16.444,5.908,16.235,6.073,16.001,6.073z
				"/>
		</g>
		<g>
			<path d="M12.5,12c-0.092,0-0.186-0.025-0.27-0.079c-0.232-0.149-0.3-0.458-0.151-0.691c0.225-0.35,0.459-0.788,0.646-1.927
				c0.045-0.273,0.297-0.458,0.574-0.413c0.273,0.045,0.458,0.302,0.413,0.574c-0.196,1.195-0.458,1.786-0.792,2.306
				C12.826,11.919,12.664,12,12.5,12z"/>
		</g>
		<g>
			<path d="M13.541,8.594c-0.017,0-0.033-0.001-0.05-0.002c-0.275-0.027-0.475-0.272-0.448-0.547
				c0.048-0.481,0.053-1.188,0.057-1.755c0.002-0.261,0.004-0.5,0.009-0.693c0.008-0.276,0.239-0.476,0.514-0.486
				c0.276,0.008,0.494,0.237,0.486,0.514c-0.005,0.187-0.007,0.42-0.009,0.673c-0.004,0.618-0.009,1.319-0.062,1.847
				C14.012,8.401,13.794,8.594,13.541,8.594z"/>
		</g>
		<g>
			<path d="M13.54,4.594c-0.265,0-0.486-0.208-0.499-0.477c-0.006-0.136-0.006-0.23-0.006-0.305c0-0.109,0-0.121-0.016-0.179
				c-0.074-0.266,0.083-0.542,0.349-0.615c0.266-0.071,0.542,0.083,0.615,0.349c0.052,0.189,0.052,0.308,0.052,0.445
				c0,0.063,0,0.143,0.005,0.258c0.013,0.275-0.2,0.51-0.476,0.523C13.556,4.594,13.548,4.594,13.54,4.594z"/>
		</g>
		<g>
			<path d="M11.5,12c-0.024,0-0.048-0.001-0.073-0.005c-0.273-0.04-0.462-0.293-0.422-0.567c0.101-0.692,0.075-1.587-0.004-2.897
				c-0.017-0.276,0.193-0.513,0.469-0.529c0.274-0.012,0.513,0.193,0.529,0.469c0.083,1.376,0.109,2.325-0.004,3.103
				C11.958,11.821,11.745,12,11.5,12z"/>
		</g>
		<g>
			<path d="M11.5,7.094c-0.246,0-0.459-0.181-0.495-0.43c-0.038-0.268-0.144-0.69-0.238-1.07c-0.071-0.286-0.136-0.55-0.168-0.72
				c-0.051-0.271,0.128-0.533,0.4-0.583c0.271-0.045,0.532,0.128,0.583,0.4c0.029,0.157,0.09,0.399,0.155,0.663
				c0.103,0.416,0.216,0.878,0.257,1.171c0.039,0.273-0.152,0.526-0.425,0.565C11.546,7.092,11.522,7.094,11.5,7.094z"/>
		</g>
		<g>
			<path d="M10.769,3.731c-0.221,0-0.423-0.148-0.483-0.372c-0.116-0.437-0.19-0.563-0.204-0.583
				c-0.152-0.231-0.088-0.541,0.142-0.693c0.233-0.152,0.542-0.087,0.693,0.142c0.117,0.178,0.224,0.457,0.335,0.878
				c0.071,0.267-0.088,0.541-0.355,0.611C10.854,3.726,10.812,3.731,10.769,3.731z"/>
		</g>
		<g>
			<path d="M13.5,12.5c-0.027,0-0.055-0.002-0.082-0.007l-3-0.5c-0.094-0.016-0.181-0.057-0.251-0.121
				c-0.236-0.211-0.61-0.742-1.123-2.905C8.98,8.699,9.146,8.429,9.415,8.366c0.268-0.064,0.538,0.103,0.602,0.371
				c0.366,1.542,0.635,2.109,0.752,2.301l2.542,0.423c0.2-0.221,0.415-0.499,0.761-1.556c0.086-0.263,0.368-0.408,0.63-0.32
				c0.263,0.086,0.406,0.368,0.32,0.63c-0.437,1.335-0.744,1.67-1.015,1.966l-0.122,0.137C13.789,12.435,13.647,12.5,13.5,12.5z"/>
		</g>
		<g>
			<path d="M9.062,8C8.839,8,8.635,7.85,8.578,7.623c-0.081-0.32-0.141-0.725-0.198-1.119C8.321,6.108,8.262,5.698,8.186,5.469
				C8.1,5.207,8.242,4.924,8.505,4.837C8.766,4.75,9.05,4.894,9.136,5.156C9.239,5.468,9.302,5.901,9.369,6.36
				c0.052,0.358,0.104,0.726,0.179,1.017c0.068,0.268-0.094,0.54-0.362,0.608C9.144,7.995,9.103,8,9.062,8z"/>
		</g>
		<g>
			<path d="M8.229,4.497c-0.199,0-0.388-0.12-0.465-0.317C7.697,4.009,7.631,3.863,7.565,3.748c-0.137-0.24-0.053-0.545,0.187-0.682
				c0.238-0.138,0.545-0.053,0.682,0.187c0.085,0.15,0.173,0.339,0.26,0.561c0.101,0.257-0.025,0.547-0.282,0.648
				C8.353,4.485,8.291,4.497,8.229,4.497z"/>
		</g>
		<g>
			<path d="M9,13c-0.081,0-0.162-0.02-0.238-0.061l-0.197-0.1c-0.282-0.137-0.573-0.278-1.177-0.826
				c-0.205-0.186-0.22-0.502-0.035-0.707c0.186-0.206,0.502-0.22,0.707-0.035c0.498,0.452,0.704,0.552,0.942,0.667
				c0.076,0.037,0.152,0.074,0.236,0.12c0.243,0.132,0.333,0.435,0.201,0.678C9.349,12.905,9.177,13,9,13z"/>
		</g>
		<g>
			<path d="M6.761,11.174c-0.139,0-0.277-0.058-0.376-0.17C5.98,10.542,5.692,10.12,5.527,9.75C5.416,9.498,5.529,9.202,5.781,9.09
				c0.253-0.114,0.547,0.002,0.66,0.254c0.122,0.274,0.362,0.621,0.695,1.001c0.182,0.208,0.161,0.524-0.046,0.706
				C6.995,11.134,6.878,11.174,6.761,11.174z"/>
		</g>
		<g>
			<path d="M5.165,8.746c-0.196,0-0.383-0.116-0.462-0.309c-0.157-0.38-0.223-0.7-0.201-0.976c0.021-0.275,0.264-0.476,0.538-0.459
				C5.314,7.023,5.52,7.264,5.499,7.539c-0.004,0.052,0,0.206,0.129,0.516c0.105,0.255-0.017,0.548-0.271,0.653
				C5.293,8.734,5.229,8.746,5.165,8.746z"/>
		</g>
		<g>
			<path d="M11.5,15c-0.967,0-2-0.263-2-1s1.033-1,2-1s2,0.263,2,1S12.467,15,11.5,15z M12.573,14.198h0.01H12.573z M11.5,14h0.01
				H11.5z"/>
		</g>
		<g>
			<path d="M23,23H1c-0.276,0-0.5-0.224-0.5-0.5c0-2.29,4.011-4.117,9.754-4.445c0.254-0.012,0.512,0.195,0.527,0.471
				c0.016,0.275-0.195,0.512-0.471,0.527C5.497,19.328,2.306,20.706,1.633,22h20.74c-0.721-1.441-4.464-2.881-9.765-2.989
				c-0.276-0.006-0.495-0.234-0.49-0.51c0.006-0.275,0.227-0.491,0.51-0.49C18.031,18.121,23.5,19.698,23.5,22.5
				C23.5,22.776,23.276,23,23,23z"/>
		</g>
		<g>
			<path d="M10.5,20.5c-0.205,0-0.397-0.126-0.47-0.33c-0.122-0.337-0.18-0.912-0.252-1.638c-0.064-0.645-0.138-1.375-0.264-1.918
				c-0.032-0.136-0.128-0.55,0.173-0.813c0.305-0.264,0.675-0.125,1.002-0.001C10.926,15.888,11.222,16,11.5,16
				c0.292,0,0.622-0.106,0.887-0.191c0.38-0.123,0.775-0.249,1.05,0.07c0.271,0.314,0.075,0.712,0.011,0.842
				c-0.282,0.573-0.316,1.405-0.347,2.138c-0.019,0.46-0.036,0.894-0.114,1.248c-0.058,0.27-0.326,0.443-0.595,0.382
				c-0.27-0.059-0.441-0.325-0.382-0.595c0.059-0.269,0.074-0.661,0.091-1.076c0.026-0.627,0.054-1.318,0.227-1.947
				c-0.546,0.152-1.272,0.119-1.756-0.05c0.091,0.54,0.147,1.101,0.199,1.611c0.058,0.579,0.118,1.177,0.198,1.398
				c0.094,0.26-0.041,0.546-0.3,0.64C10.614,20.491,10.556,20.5,10.5,20.5z"/>
		</g>
	</g>
</g>
<g id="Tree_Ghost">
</g>
<g id="Gate">
</g>
<g id="Cemetery_1">
</g>
<g id="Cemetery_2">
</g>
<g id="Devil_x27_s_Fork">
</g>
<g id="Night_Candle">
</g>
<g id="Canlestick">
</g>
<g id="Black_Cat">
</g>
<g id="Witch_Cauldron">
</g>
<g id="Corn_Candy">
</g>
<g id="Layer_29">
</g>
<g id="Bones">
</g>
<g id="Witch_Broom">
</g>
<g id="Owl">
</g>
<g id="Scythe">
</g>
<g id="Grim_Reaper">
</g>
<g id="Coffin">
</g>
<g id="Dracula">
</g>
<g id="Frankenstein">
</g>
<g id="Layer_40">
</g>
<g id="Toilet_Paper">
</g>
<g id="Skull">
</g>
<g id="Skull_Cake">
</g>
<g id="Eyeball">
</g>
<g id="Castle">
</g>
<g id="Witch_x27_s_Hat">
</g>
<g id="Cobweb_1">
</g>
<g id="Cobweb_2">
</g>
<g id="Spider">
</g>
<g id="Full_Moon">
</g>
<g id="Crescent">
</g>
<g id="Crow">
</g>
<g id="Candy_Holder">
</g>
<g id="Bloody_Knife">
</g>
<g id="Bloody_Axe">
</g>
</svg>
