<?xml version="1.0" encoding="iso-8859-1"?>
<!-- Generator: Adobe Illustrator 19.2.1, SVG Export Plug-In . SVG Version: 6.00 Build 0)  -->
<svg version="1.1" xmlns="http://www.w3.org/2000/svg" xmlns:xlink="http://www.w3.org/1999/xlink" x="0px" y="0px"
	 viewBox="0 0 24 24" style="enable-background:new 0 0 24 24;" xml:space="preserve">
<g id="Pompkin">
</g>
<g id="Layer_10">
</g>
<g id="Bat">
</g>
<g id="Ghost">
</g>
<g id="Bone_Hand">
</g>
<g id="Tree_Ghost">
</g>
<g id="Gate">
</g>
<g id="Cemetery_1">
</g>
<g id="Cemetery_2">
</g>
<g id="Devil_x27_s_Fork">
</g>
<g id="Night_Candle">
</g>
<g id="Canlestick">
</g>
<g id="Black_Cat">
</g>
<g id="Witch_Cauldron">
</g>
<g id="Corn_Candy">
</g>
<g id="Layer_29">
</g>
<g id="Bones">
	<g>
		<g>
			<path d="M22.621,4c-0.128,0-0.256-0.049-0.354-0.146c-0.629-0.629-1.554-0.874-2.414-0.648c-0.271,0.075-0.541-0.088-0.612-0.354
				c-0.071-0.267,0.088-0.541,0.354-0.612c1.206-0.322,2.499,0.026,3.379,0.907c0.195,0.195,0.195,0.512,0,0.707
				C22.877,3.951,22.749,4,22.621,4z"/>
		</g>
		<g>
			<path d="M2.723,4.775c-0.222,0-0.424-0.147-0.483-0.371C1.919,3.2,2.267,1.905,3.146,1.025c0.195-0.195,0.512-0.195,0.707,0
				s0.195,0.512,0,0.707C3.225,2.361,2.977,3.286,3.206,4.146c0.071,0.267-0.088,0.541-0.354,0.612
				C2.809,4.77,2.765,4.775,2.723,4.775z"/>
		</g>
		<g>
			<g>
				<path d="M14.753,12.5c-0.127,0-0.253-0.048-0.351-0.144c-0.912-0.897-1.862-1.847-2.759-2.759c-0.191-0.195-0.191-0.506,0-0.701
					c1.766-1.796,3.068-3.183,3.606-3.836c-0.675-1.34-0.427-2.956,0.654-4.035c1.32-1.321,3.626-1.323,4.949,0
					c0.367,0.366,0.64,0.805,0.813,1.308c0.503,0.174,0.941,0.447,1.308,0.813C23.636,3.807,24,4.687,24,5.621
					c0,0.935-0.364,1.814-1.025,2.475c-1.08,1.08-2.694,1.329-4.035,0.654c-0.651,0.537-2.038,1.839-3.836,3.606
					C15.006,12.452,14.88,12.5,14.753,12.5z M12.701,9.246c0.674,0.682,1.37,1.379,2.053,2.053c1.283-1.255,3.188-3.085,3.853-3.556
					c0.167-0.116,0.388-0.122,0.557-0.014c0.979,0.621,2.286,0.48,3.104-0.34C22.74,6.917,23,6.289,23,5.621
					c0-0.667-0.26-1.295-0.732-1.768c-0.305-0.305-0.685-0.52-1.129-0.637c-0.174-0.046-0.31-0.182-0.355-0.355
					c-0.117-0.444-0.332-0.824-0.637-1.128c-0.945-0.945-2.592-0.944-3.535,0c-0.819,0.819-0.963,2.124-0.341,3.104
					c0.109,0.171,0.104,0.392-0.014,0.557C15.772,6.077,13.814,8.107,12.701,9.246z"/>
			</g>
			<g>
				<path d="M5.621,24c-0.935,0-1.813-0.364-2.475-1.025c-0.367-0.366-0.64-0.805-0.813-1.308c-0.503-0.174-0.941-0.447-1.308-0.813
					C0.364,20.193,0,19.313,0,18.379c0-0.935,0.364-1.814,1.025-2.475c1.079-1.08,2.695-1.329,4.035-0.654
					c0.652-0.537,2.039-1.84,3.836-3.606c0.195-0.191,0.506-0.191,0.701,0c0.912,0.897,1.862,1.847,2.759,2.759
					c0.191,0.195,0.191,0.507,0,0.701c-1.738,1.768-3.063,3.18-3.606,3.836c0.675,1.341,0.427,2.956-0.654,4.035
					C7.436,23.636,6.557,24,5.621,24z M3.501,15.885c-0.647,0-1.291,0.248-1.769,0.726C1.26,17.083,1,17.711,1,18.379
					c0,0.667,0.26,1.295,0.732,1.768c0.305,0.305,0.685,0.52,1.129,0.637c0.174,0.046,0.31,0.182,0.355,0.355
					c0.117,0.444,0.332,0.824,0.637,1.128c0.946,0.946,2.593,0.945,3.535,0c0.819-0.819,0.963-2.124,0.341-3.104
					c-0.109-0.171-0.104-0.392,0.014-0.557c0.486-0.686,2.442-2.714,3.556-3.853c-0.674-0.682-1.37-1.379-2.053-2.053
					c-1.14,1.115-3.171,3.074-3.853,3.556c-0.165,0.117-0.386,0.124-0.557,0.014C4.429,16.012,3.964,15.885,3.501,15.885z"/>
			</g>
		</g>
		<g>
			<path d="M18.379,24c-0.936,0-1.814-0.364-2.475-1.025c-1.081-1.08-1.329-2.695-0.654-4.036
				C13.775,17.145,6.856,10.226,5.062,8.75C3.718,9.426,2.104,9.176,1.025,8.096C0.364,7.436,0,6.556,0,5.622
				c0-0.935,0.364-1.814,1.025-2.475C1.392,2.78,1.83,2.507,2.333,2.333C2.507,1.831,2.78,1.392,3.146,1.025
				c1.323-1.322,3.63-1.32,4.949,0C9.177,2.105,9.425,3.72,8.75,5.061c1.475,1.794,8.394,8.713,10.188,10.189
				c1.344-0.676,2.956-0.426,4.036,0.654C23.636,16.564,24,17.444,24,18.378c0,0.935-0.364,1.814-1.025,2.475
				c-0.366,0.367-0.805,0.64-1.308,0.813c-0.174,0.502-0.447,0.941-0.813,1.308C20.192,23.636,19.313,24,18.379,24z M5.104,7.651
				c0.102,0,0.202,0.031,0.289,0.092c1.428,1.01,9.855,9.437,10.863,10.864c0.117,0.166,0.123,0.385,0.014,0.557
				c-0.622,0.98-0.479,2.285,0.341,3.104c0.943,0.944,2.59,0.945,3.535,0c0.305-0.305,0.52-0.685,0.637-1.129
				c0.046-0.174,0.182-0.31,0.355-0.355c0.444-0.117,0.824-0.332,1.129-0.637C22.74,19.674,23,19.046,23,18.378
				c0-0.667-0.26-1.295-0.732-1.768c-0.819-0.821-2.126-0.961-3.104-0.34c-0.169,0.11-0.39,0.104-0.557-0.014
				C17.179,15.247,8.751,6.82,7.743,5.393C7.626,5.228,7.62,5.008,7.729,4.836c0.622-0.98,0.479-2.285-0.341-3.104
				c-0.942-0.944-2.589-0.945-3.535,0c-0.305,0.305-0.52,0.685-0.637,1.129c-0.046,0.174-0.182,0.31-0.355,0.355
				C2.417,3.334,2.037,3.548,1.732,3.854C1.26,4.326,1,4.954,1,5.622c0,0.667,0.26,1.295,0.732,1.768
				c0.818,0.819,2.125,0.96,3.104,0.34C4.918,7.677,5.012,7.651,5.104,7.651z"/>
		</g>
	</g>
</g>
<g id="Witch_Broom">
</g>
<g id="Owl">
</g>
<g id="Scythe">
</g>
<g id="Grim_Reaper">
</g>
<g id="Coffin">
</g>
<g id="Dracula">
</g>
<g id="Frankenstein">
</g>
<g id="Layer_40">
</g>
<g id="Toilet_Paper">
</g>
<g id="Skull">
</g>
<g id="Skull_Cake">
</g>
<g id="Eyeball">
</g>
<g id="Castle">
</g>
<g id="Witch_x27_s_Hat">
</g>
<g id="Cobweb_1">
</g>
<g id="Cobweb_2">
</g>
<g id="Spider">
</g>
<g id="Full_Moon">
</g>
<g id="Crescent">
</g>
<g id="Crow">
</g>
<g id="Candy_Holder">
</g>
<g id="Bloody_Knife">
</g>
<g id="Bloody_Axe">
</g>
</svg>
