<?xml version="1.0" encoding="iso-8859-1"?>
<!-- Generator: Adobe Illustrator 19.2.1, SVG Export Plug-In . SVG Version: 6.00 Build 0)  -->
<svg version="1.1" xmlns="http://www.w3.org/2000/svg" xmlns:xlink="http://www.w3.org/1999/xlink" x="0px" y="0px"
	 viewBox="0 0 24 24" style="enable-background:new 0 0 24 24;" xml:space="preserve">
<g id="Pompkin">
</g>
<g id="Layer_10">
</g>
<g id="Bat">
</g>
<g id="Ghost">
</g>
<g id="Bone_Hand">
</g>
<g id="Tree_Ghost">
</g>
<g id="Gate">
</g>
<g id="Cemetery_1">
</g>
<g id="Cemetery_2">
</g>
<g id="Devil_x27_s_Fork">
</g>
<g id="Night_Candle">
</g>
<g id="Canlestick">
</g>
<g id="Black_Cat">
</g>
<g id="Witch_Cauldron">
</g>
<g id="Corn_Candy">
</g>
<g id="Layer_29">
</g>
<g id="Bones">
</g>
<g id="Witch_Broom">
</g>
<g id="Owl">
</g>
<g id="Scythe">
</g>
<g id="Grim_Reaper">
</g>
<g id="Coffin">
</g>
<g id="Dracula">
</g>
<g id="Frankenstein">
</g>
<g id="Layer_40">
</g>
<g id="Toilet_Paper">
</g>
<g id="Skull">
</g>
<g id="Skull_Cake">
</g>
<g id="Eyeball">
</g>
<g id="Castle">
</g>
<g id="Witch_x27_s_Hat">
</g>
<g id="Cobweb_1">
</g>
<g id="Cobweb_2">
</g>
<g id="Spider">
</g>
<g id="Full_Moon">
</g>
<g id="Crescent">
</g>
<g id="Crow">
</g>
<g id="Candy_Holder">
	<g>
		<g>
			<path d="M12.054,24c-3.261,0-7.182-1.471-8.542-4.282c-1.152-2.382-0.168-5.273,0.896-7.324
				c-0.085-1.215-0.173-2.587,1.279-3.338c1.191-0.616,2.151-1.721,2.28-2.627c0.011-0.075,0.039-0.146,0.082-0.21
				c0.49-0.723,1.999-1.088,3.247-1.188c0.753-0.063,3.309-0.161,4.529,1.126c0.071,0.075,0.117,0.171,0.132,0.272
				c0.129,0.906,1.089,2.011,2.28,2.627c1.452,0.751,1.364,2.123,1.279,3.338c1.558,2.994,1.891,5.458,0.987,7.324
				C19.144,22.529,15.223,24,12.054,24z M8.932,6.719c-0.275,1.367-1.616,2.62-2.786,3.226c-0.835,0.432-0.826,1.156-0.739,2.399
				l0.009,0.122c0.006,0.093-0.014,0.186-0.057,0.268c-0.803,1.518-1.993,4.386-0.946,6.549C5.581,21.697,9.174,23,11.962,23
				c2.88,0,6.473-1.303,7.642-3.718c0.77-1.59,0.42-3.793-1.038-6.549c-0.043-0.082-0.063-0.175-0.057-0.268l0.009-0.122
				c0.087-1.243,0.096-1.968-0.739-2.399c-1.161-0.601-2.492-1.841-2.78-3.196c-0.649-0.567-2.039-0.85-3.622-0.722
				C10.062,6.133,9.191,6.479,8.932,6.719z"/>
		</g>
		<g>
			<path d="M7.57,16.018c-0.835,0-1.416-0.515-1.599-1.419c-0.166-0.822,0.153-1.929,0.775-2.689C7.228,11.323,7.836,11,8.462,11
				c0.818,0,1.552,0.307,2.013,0.84c0.407,0.473,0.578,1.088,0.481,1.733l0,0c-0.139,0.935-1.95,2.408-3.333,2.443
				C7.605,16.018,7.588,16.018,7.57,16.018z M8.462,12c-0.433,0-0.775,0.34-0.941,0.543c-0.432,0.527-0.676,1.326-0.568,1.858
				c0.111,0.553,0.371,0.61,0.642,0.616c0.975-0.021,2.316-1.226,2.374-1.591l0.494,0.073l-0.494-0.073
				c0.053-0.359-0.033-0.682-0.251-0.934C9.446,12.18,8.989,12,8.462,12z"/>
		</g>
		<g>
			<path d="M16.354,16.018c-0.018,0-0.035,0-0.053-0.001c-1.383-0.035-3.194-1.509-3.333-2.443
				c-0.097-0.646,0.074-1.261,0.481-1.733C13.91,11.307,14.644,11,15.462,11c0.626,0,1.234,0.323,1.715,0.909
				c0.622,0.761,0.941,1.867,0.775,2.689C17.77,15.503,17.188,16.018,16.354,16.018z M13.956,13.427
				c0.058,0.365,1.399,1.569,2.374,1.591c0.263-0.007,0.53-0.064,0.642-0.616c0.107-0.532-0.137-1.331-0.568-1.858
				C16.237,12.34,15.895,12,15.462,12c-0.527,0-0.984,0.18-1.255,0.493C13.989,12.745,13.903,13.067,13.956,13.427L13.462,13.5
				L13.956,13.427z"/>
		</g>
		<g>
			<path d="M11.462,10.5c-0.125,0-0.249-0.047-0.344-0.137c-0.271-0.257-1.156-1.15-1.156-1.863c0-0.869,0.421-1.5,1-1.5
				s1,0.631,1,1.5V10c0,0.2-0.119,0.38-0.303,0.459C11.596,10.486,11.528,10.5,11.462,10.5z"/>
		</g>
		<g>
			<path d="M12.462,10.5c-0.066,0-0.134-0.014-0.197-0.041C12.081,10.38,11.962,10.2,11.962,10V8.5c0-0.869,0.421-1.5,1-1.5
				s1,0.631,1,1.5c0,0.713-0.885,1.606-1.156,1.863C12.711,10.453,12.587,10.5,12.462,10.5z M13.462,8.5h0.01H13.462z"/>
		</g>
		<g>
			<path d="M17.508,22.5c-0.04,0-0.08-0.005-0.121-0.015l-2-0.5c-0.269-0.067-0.431-0.339-0.364-0.606l0.395-1.577l-2.095-0.838
				c-0.257-0.103-0.381-0.394-0.278-0.649s0.395-0.381,0.649-0.278l2.5,1c0.232,0.093,0.36,0.343,0.3,0.585l-0.379,1.515
				l1.515,0.379c0.269,0.067,0.431,0.339,0.364,0.606C17.937,22.349,17.732,22.5,17.508,22.5z"/>
		</g>
		<g>
			<path d="M13.462,6c-0.072,0-0.146-0.016-0.215-0.048c-0.249-0.119-0.355-0.417-0.237-0.667l2.146-4.52
				c0.233-0.388,0.563-0.628,0.951-0.723c0.391-0.096,0.793-0.034,1.135,0.176c0.707,0.432,0.932,1.356,0.501,2.062l-0.52,0.854
				c-0.144,0.237-0.452,0.312-0.687,0.167C16.3,3.157,16.226,2.85,16.369,2.614l0.52-0.854c0.144-0.235,0.068-0.545-0.168-0.688
				c-0.112-0.068-0.245-0.092-0.377-0.058c-0.13,0.031-0.239,0.111-0.31,0.226l-2.12,4.475C13.828,5.895,13.648,6,13.462,6z"/>
		</g>
		<g>
			<path d="M10.462,6c-0.226,0-0.431-0.153-0.486-0.382L8.951,1.396C8.92,1.26,8.842,1.148,8.729,1.077
				c-0.113-0.07-0.246-0.095-0.377-0.064S8.11,1.121,8.039,1.234C7.968,1.347,7.945,1.48,7.975,1.61l0.222,0.977
				c0.062,0.269-0.107,0.537-0.377,0.598C7.545,3.249,7.283,3.076,7.222,2.808L7,1.832c-0.09-0.39-0.021-0.791,0.192-1.13
				c0.214-0.34,0.546-0.576,0.938-0.664C8.521-0.051,8.922,0.018,9.261,0.23C9.6,0.444,9.836,0.776,9.925,1.167l1.023,4.215
				c0.064,0.269-0.1,0.539-0.368,0.604C10.54,5.995,10.501,6,10.462,6z"/>
		</g>
		<g>
			<path d="M11.962,6c-0.048,0-0.096-0.007-0.144-0.021c-0.265-0.079-0.415-0.357-0.335-0.622l1.5-5
				c0.079-0.265,0.361-0.415,0.622-0.335c0.265,0.079,0.415,0.357,0.335,0.622l-1.5,5C12.376,5.86,12.177,6,11.962,6z"/>
		</g>
		<g>
			<path d="M9.962,6c-0.085,0-0.17-0.021-0.248-0.065l-3.5-2c-0.24-0.138-0.323-0.443-0.187-0.683
				c0.139-0.241,0.445-0.32,0.683-0.187l3.5,2c0.24,0.138,0.323,0.443,0.187,0.683C10.304,5.909,10.135,6,9.962,6z"/>
		</g>
		<g>
			<path d="M12.461,6c-0.233,0-0.441-0.164-0.489-0.402l-1-5c-0.055-0.271,0.121-0.534,0.393-0.588
				c0.257-0.056,0.533,0.12,0.588,0.393l1,5c0.055,0.271-0.121,0.534-0.393,0.588C12.527,5.997,12.494,6,12.461,6z"/>
		</g>
	</g>
</g>
<g id="Bloody_Knife">
</g>
<g id="Bloody_Axe">
</g>
</svg>
