<?xml version="1.0" encoding="iso-8859-1"?>
<!-- Generator: Adobe Illustrator 19.2.1, SVG Export Plug-In . SVG Version: 6.00 Build 0)  -->
<svg version="1.1" xmlns="http://www.w3.org/2000/svg" xmlns:xlink="http://www.w3.org/1999/xlink" x="0px" y="0px"
	 viewBox="0 0 24 24" style="enable-background:new 0 0 24 24;" xml:space="preserve">
<g id="Pompkin">
</g>
<g id="Layer_10">
</g>
<g id="Bat">
</g>
<g id="Ghost">
</g>
<g id="Bone_Hand">
</g>
<g id="Tree_Ghost">
</g>
<g id="Gate">
</g>
<g id="Cemetery_1">
</g>
<g id="Cemetery_2">
</g>
<g id="Devil_x27_s_Fork">
</g>
<g id="Night_Candle">
</g>
<g id="Canlestick">
	<g>
		<g>
			<path d="M14.5,23.989h-6c-0.276,0-0.5-0.224-0.5-0.5v-1.781c-1.274-1.053-2-2.577-2-4.219c0-3.033,2.467-5.5,5.5-5.5
				s5.5,2.467,5.5,5.5c0,1.642-0.726,3.166-2,4.219v1.781C15,23.765,14.776,23.989,14.5,23.989z M9,22.989h5v-1.523
				c0-0.157,0.074-0.305,0.199-0.399C15.343,20.202,16,18.898,16,17.489c0-2.481-2.019-4.5-4.5-4.5S7,15.007,7,17.489
				c0,1.409,0.657,2.713,1.801,3.578C8.926,21.161,9,21.309,9,21.466V22.989z"/>
		</g>
		<g>
			<path d="M12.5,23.989c-0.276,0-0.5-0.224-0.5-0.5v-1c0-0.276,0.224-0.5,0.5-0.5s0.5,0.224,0.5,0.5v1
				C13,23.765,12.776,23.989,12.5,23.989z"/>
		</g>
		<g>
			<path d="M10.5,23.989c-0.276,0-0.5-0.224-0.5-0.5v-1c0-0.276,0.224-0.5,0.5-0.5s0.5,0.224,0.5,0.5v1
				C11,23.765,10.776,23.989,10.5,23.989z"/>
		</g>
		<g>
			<path d="M13.491,20.025c-0.474,0-0.905-0.184-1.181-0.503c-0.255-0.295-0.364-0.68-0.305-1.083
				c0.092-0.631,1.138-1.431,1.896-1.45c0.55-0.031,0.955,0.329,1.072,0.918c0.098,0.499-0.082,1.134-0.449,1.58
				C14.24,19.834,13.873,20.025,13.491,20.025z M12.992,18.606c-0.011,0.104,0.014,0.192,0.074,0.262
				c0.086,0.1,0.241,0.157,0.425,0.157c0.076,0,0.171-0.063,0.261-0.172c0.194-0.235,0.275-0.574,0.24-0.752
				c-0.015-0.075-0.035-0.11-0.042-0.118C13.759,17.922,13.107,18.366,12.992,18.606z M12.986,18.618L12.986,18.618L12.986,18.618
				L12.986,18.618z M12.5,18.511h0.01H12.5z"/>
		</g>
		<g>
			<path d="M9.5,20.025c-0.386,0-0.757-0.193-1.044-0.543c-0.366-0.446-0.545-1.08-0.446-1.576c0.117-0.588,0.485-0.946,1.076-0.917
				c0.764,0.019,1.816,0.818,1.909,1.449l0,0c0.059,0.402-0.049,0.785-0.304,1.08C10.413,19.84,9.979,20.025,9.5,20.025z
				 M9.021,17.992c0.004,0-0.016,0.035-0.031,0.11c-0.035,0.176,0.046,0.511,0.239,0.746C9.321,18.96,9.42,19.025,9.5,19.025
				c0.188,0,0.347-0.058,0.435-0.16c0.059-0.068,0.084-0.155,0.074-0.258C9.883,18.35,9.203,17.917,9.021,17.992L9.021,17.992z"/>
		</g>
		<g>
			<path d="M12.5,13.011h-2c-0.276,0-0.5-0.224-0.5-0.5v-8c0-0.276,0.224-0.5,0.5-0.5h2c0.276,0,0.5,0.224,0.5,0.5v8
				C13,12.788,12.776,13.011,12.5,13.011z M11,12.011h1v-7h-1V12.011z"/>
		</g>
		<g>
			<path d="M11.5,5.011c-0.276,0-0.5-0.224-0.5-0.5v-1c0-0.276,0.224-0.5,0.5-0.5s0.5,0.224,0.5,0.5v1
				C12,4.788,11.776,5.011,11.5,5.011z"/>
		</g>
		<g>
			<path d="M11.5,4.011c-0.827,0-1.5-0.673-1.5-1.5c0-0.639,0.761-1.81,1.088-2.284c0.188-0.271,0.636-0.271,0.823,0
				C12.239,0.701,13,1.872,13,2.511C13,3.338,12.327,4.011,11.5,4.011z M11.5,1.438c-0.288,0.485-0.496,0.921-0.5,1.074
				c0,0.275,0.224,0.5,0.5,0.5c0.275,0,0.5-0.224,0.5-0.5C11.996,2.358,11.788,1.922,11.5,1.438z"/>
		</g>
	</g>
</g>
<g id="Black_Cat">
</g>
<g id="Witch_Cauldron">
</g>
<g id="Corn_Candy">
</g>
<g id="Layer_29">
</g>
<g id="Bones">
</g>
<g id="Witch_Broom">
</g>
<g id="Owl">
</g>
<g id="Scythe">
</g>
<g id="Grim_Reaper">
</g>
<g id="Coffin">
</g>
<g id="Dracula">
</g>
<g id="Frankenstein">
</g>
<g id="Layer_40">
</g>
<g id="Toilet_Paper">
</g>
<g id="Skull">
</g>
<g id="Skull_Cake">
</g>
<g id="Eyeball">
</g>
<g id="Castle">
</g>
<g id="Witch_x27_s_Hat">
</g>
<g id="Cobweb_1">
</g>
<g id="Cobweb_2">
</g>
<g id="Spider">
</g>
<g id="Full_Moon">
</g>
<g id="Crescent">
</g>
<g id="Crow">
</g>
<g id="Candy_Holder">
</g>
<g id="Bloody_Knife">
</g>
<g id="Bloody_Axe">
</g>
</svg>
