<?xml version="1.0" encoding="iso-8859-1"?>
<!-- Generator: Adobe Illustrator 19.2.1, SVG Export Plug-In . SVG Version: 6.00 Build 0)  -->
<svg version="1.1" xmlns="http://www.w3.org/2000/svg" xmlns:xlink="http://www.w3.org/1999/xlink" x="0px" y="0px"
	 viewBox="0 0 24 24" style="enable-background:new 0 0 24 24;" xml:space="preserve">
<g id="Pompkin">
</g>
<g id="Layer_10">
</g>
<g id="Bat">
</g>
<g id="Ghost">
</g>
<g id="Bone_Hand">
</g>
<g id="Tree_Ghost">
</g>
<g id="Gate">
</g>
<g id="Cemetery_1">
</g>
<g id="Cemetery_2">
</g>
<g id="Devil_x27_s_Fork">
</g>
<g id="Night_Candle">
</g>
<g id="Canlestick">
</g>
<g id="Black_Cat">
</g>
<g id="Witch_Cauldron">
</g>
<g id="Corn_Candy">
</g>
<g id="Layer_29">
</g>
<g id="Bones">
</g>
<g id="Witch_Broom">
</g>
<g id="Owl">
</g>
<g id="Scythe">
</g>
<g id="Grim_Reaper">
</g>
<g id="Coffin">
</g>
<g id="Dracula">
</g>
<g id="Frankenstein">
</g>
<g id="Layer_40">
</g>
<g id="Toilet_Paper">
</g>
<g id="Skull">
</g>
<g id="Skull_Cake">
</g>
<g id="Eyeball">
</g>
<g id="Castle">
	<g>
		<g>
			<path d="M19.5,24h-16c-0.226,0-0.423-0.151-0.482-0.368l-3-11c-0.047-0.174,0.002-0.358,0.129-0.485l4-4
				c0.195-0.195,0.512-0.195,0.707,0L8,11.293V2.5c0-0.167,0.084-0.323,0.223-0.416l3-2c0.168-0.111,0.387-0.111,0.555,0l3,2
				C14.916,2.177,15,2.333,15,2.5v8.793l3.146-3.146c0.195-0.195,0.512-0.195,0.707,0l4,4c0.127,0.127,0.176,0.312,0.129,0.485
				l-3,11C19.923,23.849,19.726,24,19.5,24z M3.882,23h15.236l2.823-10.352L18.5,9.207l-3.646,3.646
				c-0.144,0.144-0.359,0.186-0.545,0.108C14.122,12.885,14,12.702,14,12.5V2.768l-2.5-1.667L9,2.768V12.5
				c0,0.202-0.122,0.385-0.309,0.462c-0.186,0.077-0.401,0.036-0.545-0.108L4.5,9.207l-3.441,3.441L3.882,23z"/>
		</g>
		<g>
			<path d="M14.5,24c-0.276,0-0.5-0.224-0.5-0.5v-5c0-1.379-1.121-2.5-2.5-2.5S9,17.121,9,18.5v5C9,23.776,8.776,24,8.5,24
				S8,23.776,8,23.5v-5c0-1.93,1.57-3.5,3.5-3.5s3.5,1.57,3.5,3.5v5C15,23.776,14.776,24,14.5,24z"/>
		</g>
		<g>
			<path d="M11.5,24c-0.276,0-0.5-0.224-0.5-0.5v-8c0-0.276,0.224-0.5,0.5-0.5s0.5,0.224,0.5,0.5v8C12,23.776,11.776,24,11.5,24z"/>
		</g>
		<g>
			<path d="M12.5,9h-2C10.224,9,10,8.776,10,8.5v-3C10,4.673,10.673,4,11.5,4S13,4.673,13,5.5v3C13,8.776,12.776,9,12.5,9z M11,8h1
				V5.5C12,5.225,11.775,5,11.5,5S11,5.225,11,5.5V8z"/>
		</g>
		<g>
			<path d="M5.5,17H4c-0.244,0-0.453-0.177-0.493-0.418l-0.5-3C3,12.673,3.673,12,4.5,12S6,12.673,6,13.5v3
				C6,16.776,5.776,17,5.5,17z M4.423,16H5v-2.5C5,13.225,4.775,13,4.5,13S4,13.225,4,13.5L4.423,16z"/>
		</g>
		<g>
			<path d="M19,17h-1.5c-0.276,0-0.5-0.224-0.5-0.5v-3c0-0.827,0.673-1.5,1.5-1.5s1.5,0.673,1.5,1.5l-0.507,3.082
				C19.453,16.823,19.244,17,19,17z M18,16h0.576l0.431-2.582C19,13.225,18.775,13,18.5,13S18,13.225,18,13.5V16z"/>
		</g>
		<g>
			<path d="M3,6C1.346,6,0,4.654,0,3s1.346-3,3-3c0.189,0,0.368,0.107,0.453,0.277c0.084,0.17,0.071,0.374-0.043,0.525
				C3.142,1.157,3,1.571,3,2c0,1.098,0.894,1.994,1.991,1.999C5.181,4,5.354,4.107,5.438,4.277C5.521,4.446,5.502,4.649,5.389,4.8
				C4.813,5.563,3.942,6,3,6z M2.107,1.213C1.449,1.542,1,2.22,1,3c0,1.103,0.897,2,2,2c0.315,0,0.619-0.074,0.893-0.213
				C2.785,4.345,2,3.261,2,2C2,1.731,2.036,1.468,2.107,1.213z"/>
		</g>
	</g>
</g>
<g id="Witch_x27_s_Hat">
</g>
<g id="Cobweb_1">
</g>
<g id="Cobweb_2">
</g>
<g id="Spider">
</g>
<g id="Full_Moon">
</g>
<g id="Crescent">
</g>
<g id="Crow">
</g>
<g id="Candy_Holder">
</g>
<g id="Bloody_Knife">
</g>
<g id="Bloody_Axe">
</g>
</svg>
