<?xml version="1.0" encoding="iso-8859-1"?>
<!-- Generator: Adobe Illustrator 19.2.1, SVG Export Plug-In . SVG Version: 6.00 Build 0)  -->
<svg version="1.1" xmlns="http://www.w3.org/2000/svg" xmlns:xlink="http://www.w3.org/1999/xlink" x="0px" y="0px"
	 viewBox="0 0 24 24" style="enable-background:new 0 0 24 24;" xml:space="preserve">
<g id="Pompkin">
</g>
<g id="Layer_10">
</g>
<g id="Bat">
</g>
<g id="Ghost">
</g>
<g id="Bone_Hand">
</g>
<g id="Tree_Ghost">
</g>
<g id="Gate">
</g>
<g id="Cemetery_1">
</g>
<g id="Cemetery_2">
	<g>
		<g>
			<path d="M15.646,15.421c-0.048,0-0.097-0.007-0.145-0.021l-2.872-0.867c-0.127-0.038-0.233-0.125-0.296-0.242
				c-0.063-0.117-0.076-0.254-0.038-0.381l1.013-3.351L9.958,9.547c-0.265-0.08-0.414-0.359-0.334-0.623l0.867-2.872
				c0.038-0.127,0.125-0.233,0.242-0.296c0.117-0.063,0.255-0.077,0.381-0.038l3.351,1.012l0.724-2.393
				c0.08-0.264,0.36-0.413,0.623-0.334l2.871,0.868c0.265,0.08,0.414,0.359,0.334,0.623l-0.723,2.393l3.351,1.012
				c0.265,0.08,0.414,0.359,0.334,0.623l-0.867,2.872c-0.038,0.127-0.125,0.233-0.242,0.296c-0.116,0.063-0.256,0.077-0.381,0.038
				l-3.351-1.012l-1.013,3.35C16.06,15.282,15.861,15.421,15.646,15.421z M13.397,13.72l1.915,0.578l1.013-3.35
				c0.08-0.264,0.36-0.414,0.623-0.334l3.351,1.012l0.578-1.915l-3.351-1.012c-0.265-0.08-0.414-0.359-0.334-0.623l0.723-2.393
				l-1.914-0.579l-0.724,2.393c-0.08,0.265-0.358,0.416-0.623,0.334l-3.351-1.012l-0.578,1.915l3.351,1.012
				c0.127,0.038,0.233,0.125,0.296,0.242c0.063,0.117,0.076,0.254,0.038,0.381L13.397,13.72z"/>
		</g>
		<g>
			<path d="M16.693,18.872c-0.048,0-0.097-0.007-0.145-0.021l-6.701-2.024c-0.127-0.038-0.233-0.125-0.296-0.242
				c-0.063-0.117-0.076-0.254-0.038-0.381l0.868-2.872c0.08-0.264,0.36-0.414,0.623-0.334l6.701,2.024
				c0.127,0.038,0.233,0.125,0.296,0.242c0.063,0.117,0.076,0.254,0.038,0.381l-0.868,2.872
				C17.106,18.733,16.908,18.872,16.693,18.872z M10.615,16.014l5.744,1.735l0.579-1.915l-5.744-1.735L10.615,16.014z"/>
		</g>
		<g>
			<g>
				<path d="M6.5,11.877c-0.196,0-0.383-0.117-0.463-0.31L1.617,0.813C1.513,0.557,1.635,0.265,1.89,0.16
					c0.258-0.103,0.548,0.017,0.653,0.272l4.42,10.755c0.104,0.255-0.018,0.547-0.272,0.652C6.628,11.865,6.563,11.877,6.5,11.877z"
					/>
			</g>
			<g>
				<path d="M0.695,5.927c-0.201,0-0.392-0.123-0.468-0.323C0.13,5.346,0.26,5.057,0.518,4.959l5.609-2.13
					c0.258-0.101,0.547,0.032,0.646,0.29C6.87,3.377,6.74,3.667,6.482,3.764l-5.609,2.13C0.814,5.917,0.754,5.927,0.695,5.927z"/>
			</g>
			<g>
				<path d="M3.503,6.862c-1.009,0-1.961-0.615-2.341-1.612C0.674,3.96,1.324,2.514,2.612,2.025c1.289-0.49,2.735,0.161,3.226,1.449
					v0c0.488,1.289-0.162,2.735-1.45,3.224C4.097,6.81,3.797,6.862,3.503,6.862z M3.498,2.862c-0.177,0-0.355,0.031-0.53,0.098
					c-0.773,0.294-1.164,1.162-0.87,1.935c0.295,0.773,1.162,1.165,1.935,0.87c0.773-0.294,1.164-1.162,0.87-1.935
					C4.675,3.231,4.104,2.862,3.498,2.862z"/>
			</g>
		</g>
		<g>
			<path d="M22.5,23.877c-0.276,0-0.5-0.224-0.5-0.5c0-0.829-2.552-2.197-8.027-2.501c-0.276-0.015-0.487-0.251-0.472-0.527
				c0.016-0.274,0.265-0.476,0.526-0.471C18.167,20.107,23,21.162,23,23.377C23,23.654,22.776,23.877,22.5,23.877z"/>
		</g>
		<g>
			<path d="M0.5,23.877c-0.276,0-0.5-0.224-0.5-0.5c0-2.232,5.479-3.372,10.57-3.487c0.26,0.025,0.506,0.213,0.512,0.489
				s-0.213,0.505-0.488,0.511C4.649,21.024,1,22.429,1,23.377C1,23.654,0.776,23.877,0.5,23.877z"/>
		</g>
		<g>
			<path d="M13.395,22.877c-0.048,0-0.097-0.007-0.145-0.021c-0.265-0.08-0.414-0.359-0.334-0.623l1.24-4.105l-1.915-0.579
				l-1.352,4.473c-0.08,0.265-0.358,0.415-0.623,0.334c-0.265-0.08-0.414-0.359-0.334-0.623l1.496-4.952
				c0.08-0.264,0.362-0.414,0.623-0.334l2.872,0.868c0.265,0.08,0.414,0.359,0.334,0.623l-1.385,4.584
				C13.808,22.738,13.609,22.877,13.395,22.877z"/>
		</g>
		<g>
			<path d="M8.5,12.877c-0.276,0-0.5-0.224-0.5-0.5c0-0.827-0.897-1.5-2-1.5s-2,0.673-2,1.5c0,0.276-0.224,0.5-0.5,0.5
				S3,12.654,3,12.377c0-1.378,1.346-2.5,3-2.5s3,1.122,3,2.5C9,12.654,8.776,12.877,8.5,12.877z"/>
		</g>
		<g>
			<path d="M5.5,22.877c-0.267,0-0.488-0.21-0.5-0.479c-0.058-1.408-0.346-2.018-0.893-2.711c-0.171-0.217-0.134-0.531,0.083-0.702
				c0.216-0.171,0.53-0.134,0.702,0.083C5.542,19.891,5.932,20.693,6,22.357c0.011,0.276-0.203,0.509-0.479,0.52
				C5.514,22.877,5.507,22.877,5.5,22.877z"/>
		</g>
		<g>
			<path d="M5.499,22.877c-0.237,0-0.447-0.169-0.491-0.411C4.803,21.329,5.19,20.729,5.533,20.2
				c0.189-0.293,0.369-0.57,0.488-0.966c0.079-0.265,0.36-0.414,0.622-0.335c0.265,0.08,0.415,0.358,0.335,0.623
				c-0.159,0.533-0.396,0.899-0.605,1.223c-0.311,0.48-0.516,0.797-0.381,1.545c0.049,0.272-0.132,0.532-0.403,0.581
				C5.559,22.875,5.529,22.877,5.499,22.877z"/>
		</g>
		<g>
			<path d="M15.646,15.421c-0.048,0-0.097-0.007-0.145-0.021l-2.872-0.867c-0.127-0.038-0.233-0.125-0.296-0.242
				c-0.063-0.117-0.076-0.254-0.038-0.381l1.013-3.351L9.958,9.547c-0.265-0.08-0.414-0.359-0.334-0.623l0.867-2.872
				c0.038-0.127,0.125-0.233,0.242-0.296c0.117-0.063,0.255-0.077,0.381-0.038l3.351,1.012l0.724-2.393
				c0.08-0.264,0.36-0.413,0.623-0.334l2.871,0.868c0.265,0.08,0.414,0.359,0.334,0.623l-0.723,2.393l3.351,1.012
				c0.265,0.08,0.414,0.359,0.334,0.623l-0.867,2.872c-0.038,0.127-0.125,0.233-0.242,0.296c-0.116,0.063-0.256,0.077-0.381,0.038
				l-3.351-1.012l-1.013,3.35C16.06,15.282,15.861,15.421,15.646,15.421z M13.397,13.72l1.915,0.578l1.013-3.35
				c0.08-0.264,0.36-0.414,0.623-0.334l3.351,1.012l0.578-1.915l-3.351-1.012c-0.265-0.08-0.414-0.359-0.334-0.623l0.723-2.393
				l-1.914-0.579l-0.724,2.393c-0.08,0.265-0.358,0.416-0.623,0.334l-3.351-1.012l-0.578,1.915l3.351,1.012
				c0.127,0.038,0.233,0.125,0.296,0.242c0.063,0.117,0.076,0.254,0.038,0.381L13.397,13.72z"/>
		</g>
		<g>
			<path d="M16.693,18.872c-0.048,0-0.097-0.007-0.145-0.021l-6.701-2.024c-0.127-0.038-0.233-0.125-0.296-0.242
				c-0.063-0.117-0.076-0.254-0.038-0.381l0.868-2.872c0.08-0.264,0.36-0.414,0.623-0.334l6.701,2.024
				c0.127,0.038,0.233,0.125,0.296,0.242c0.063,0.117,0.076,0.254,0.038,0.381l-0.868,2.872
				C17.106,18.733,16.908,18.872,16.693,18.872z M10.615,16.014l5.744,1.735l0.579-1.915l-5.744-1.735L10.615,16.014z"/>
		</g>
		<g>
			<g>
				<path d="M6.5,11.877c-0.196,0-0.383-0.117-0.463-0.31L1.617,0.813C1.513,0.557,1.635,0.265,1.89,0.16
					c0.258-0.103,0.548,0.017,0.653,0.272l4.42,10.755c0.104,0.255-0.018,0.547-0.272,0.652C6.628,11.865,6.563,11.877,6.5,11.877z"
					/>
			</g>
			<g>
				<path d="M0.695,5.927c-0.201,0-0.392-0.123-0.468-0.323C0.13,5.346,0.26,5.057,0.518,4.959l5.609-2.13
					c0.258-0.101,0.547,0.032,0.646,0.29C6.87,3.377,6.74,3.667,6.482,3.764l-5.609,2.13C0.814,5.917,0.754,5.927,0.695,5.927z"/>
			</g>
			<g>
				<path d="M3.503,6.862c-1.009,0-1.961-0.615-2.341-1.612C0.674,3.96,1.324,2.514,2.612,2.025c1.289-0.49,2.735,0.161,3.226,1.449
					v0c0.488,1.289-0.162,2.735-1.45,3.224C4.097,6.81,3.797,6.862,3.503,6.862z M3.498,2.862c-0.177,0-0.355,0.031-0.53,0.098
					c-0.773,0.294-1.164,1.162-0.87,1.935c0.295,0.773,1.162,1.165,1.935,0.87c0.773-0.294,1.164-1.162,0.87-1.935
					C4.675,3.231,4.104,2.862,3.498,2.862z"/>
			</g>
		</g>
		<g>
			<path d="M22.5,23.877c-0.276,0-0.5-0.224-0.5-0.5c0-0.829-2.552-2.197-8.027-2.501c-0.276-0.015-0.487-0.251-0.472-0.527
				c0.016-0.274,0.265-0.476,0.526-0.471C18.167,20.107,23,21.162,23,23.377C23,23.654,22.776,23.877,22.5,23.877z"/>
		</g>
		<g>
			<path d="M0.5,23.877c-0.276,0-0.5-0.224-0.5-0.5c0-2.232,5.479-3.372,10.57-3.487c0.26,0.025,0.506,0.213,0.512,0.489
				s-0.213,0.505-0.488,0.511C4.649,21.024,1,22.429,1,23.377C1,23.654,0.776,23.877,0.5,23.877z"/>
		</g>
		<g>
			<path d="M13.395,22.877c-0.048,0-0.097-0.007-0.145-0.021c-0.265-0.08-0.414-0.359-0.334-0.623l1.24-4.105l-1.915-0.579
				l-1.352,4.473c-0.08,0.265-0.358,0.415-0.623,0.334c-0.265-0.08-0.414-0.359-0.334-0.623l1.496-4.952
				c0.08-0.264,0.362-0.414,0.623-0.334l2.872,0.868c0.265,0.08,0.414,0.359,0.334,0.623l-1.385,4.584
				C13.808,22.738,13.609,22.877,13.395,22.877z"/>
		</g>
		<g>
			<path d="M8.5,12.877c-0.276,0-0.5-0.224-0.5-0.5c0-0.827-0.897-1.5-2-1.5s-2,0.673-2,1.5c0,0.276-0.224,0.5-0.5,0.5
				S3,12.654,3,12.377c0-1.378,1.346-2.5,3-2.5s3,1.122,3,2.5C9,12.654,8.776,12.877,8.5,12.877z"/>
		</g>
		<g>
			<path d="M5.5,22.877c-0.267,0-0.488-0.21-0.5-0.479c-0.058-1.408-0.346-2.018-0.893-2.711c-0.171-0.217-0.134-0.531,0.083-0.702
				c0.216-0.171,0.53-0.134,0.702,0.083C5.542,19.891,5.932,20.693,6,22.357c0.011,0.276-0.203,0.509-0.479,0.52
				C5.514,22.877,5.507,22.877,5.5,22.877z"/>
		</g>
		<g>
			<path d="M5.499,22.877c-0.237,0-0.447-0.169-0.491-0.411C4.803,21.329,5.19,20.729,5.533,20.2
				c0.189-0.293,0.369-0.57,0.488-0.966c0.079-0.265,0.36-0.414,0.622-0.335c0.265,0.08,0.415,0.358,0.335,0.623
				c-0.159,0.533-0.396,0.899-0.605,1.223c-0.311,0.48-0.516,0.797-0.381,1.545c0.049,0.272-0.132,0.532-0.403,0.581
				C5.559,22.875,5.529,22.877,5.499,22.877z"/>
		</g>
	</g>
</g>
<g id="Devil_x27_s_Fork">
</g>
<g id="Night_Candle">
</g>
<g id="Canlestick">
</g>
<g id="Black_Cat">
</g>
<g id="Witch_Cauldron">
</g>
<g id="Corn_Candy">
</g>
<g id="Layer_29">
</g>
<g id="Bones">
</g>
<g id="Witch_Broom">
</g>
<g id="Owl">
</g>
<g id="Scythe">
</g>
<g id="Grim_Reaper">
</g>
<g id="Coffin">
</g>
<g id="Dracula">
</g>
<g id="Frankenstein">
</g>
<g id="Layer_40">
</g>
<g id="Toilet_Paper">
</g>
<g id="Skull">
</g>
<g id="Skull_Cake">
</g>
<g id="Eyeball">
</g>
<g id="Castle">
</g>
<g id="Witch_x27_s_Hat">
</g>
<g id="Cobweb_1">
</g>
<g id="Cobweb_2">
</g>
<g id="Spider">
</g>
<g id="Full_Moon">
</g>
<g id="Crescent">
</g>
<g id="Crow">
</g>
<g id="Candy_Holder">
</g>
<g id="Bloody_Knife">
</g>
<g id="Bloody_Axe">
</g>
</svg>
