<?xml version="1.0" encoding="iso-8859-1"?>
<!-- Generator: Adobe Illustrator 19.2.1, SVG Export Plug-In . SVG Version: 6.00 Build 0)  -->
<svg version="1.1" xmlns="http://www.w3.org/2000/svg" xmlns:xlink="http://www.w3.org/1999/xlink" x="0px" y="0px"
	 viewBox="0 0 24 24" style="enable-background:new 0 0 24 24;" xml:space="preserve">
<g id="Pompkin">
</g>
<g id="Layer_10">
</g>
<g id="Bat">
</g>
<g id="Ghost">
</g>
<g id="Bone_Hand">
</g>
<g id="Tree_Ghost">
</g>
<g id="Gate">
</g>
<g id="Cemetery_1">
	<g>
		<g>
			<path d="M19.5,22h-15C4.224,22,4,21.776,4,21.5V8c0-4.411,3.589-8,8-8s8,3.589,8,8v13.5C20,21.776,19.776,22,19.5,22z M5,21h14V8
				c0-3.86-3.141-7-7-7S5,4.14,5,8V21z"/>
		</g>
		<g>
			<path d="M21.5,24h-19C2.224,24,2,23.776,2,23.5v-2C2,21.224,2.224,21,2.5,21h19c0.276,0,0.5,0.224,0.5,0.5v2
				C22,23.776,21.776,24,21.5,24z M3,23h18v-1H3V23z"/>
		</g>
		<g>
			<path d="M15.5,7h-7C8.224,7,8,6.776,8,6.5S8.224,6,8.5,6h7C15.776,6,16,6.224,16,6.5S15.776,7,15.5,7z"/>
		</g>
		<g>
			<path d="M14.5,10h-5C9.224,10,9,9.776,9,9.5S9.224,9,9.5,9h5C14.776,9,15,9.224,15,9.5S14.776,10,14.5,10z"/>
		</g>
	</g>
</g>
<g id="Cemetery_2">
</g>
<g id="Devil_x27_s_Fork">
</g>
<g id="Night_Candle">
</g>
<g id="Canlestick">
</g>
<g id="Black_Cat">
</g>
<g id="Witch_Cauldron">
</g>
<g id="Corn_Candy">
</g>
<g id="Layer_29">
</g>
<g id="Bones">
</g>
<g id="Witch_Broom">
</g>
<g id="Owl">
</g>
<g id="Scythe">
</g>
<g id="Grim_Reaper">
</g>
<g id="Coffin">
</g>
<g id="Dracula">
</g>
<g id="Frankenstein">
</g>
<g id="Layer_40">
</g>
<g id="Toilet_Paper">
</g>
<g id="Skull">
</g>
<g id="Skull_Cake">
</g>
<g id="Eyeball">
</g>
<g id="Castle">
</g>
<g id="Witch_x27_s_Hat">
</g>
<g id="Cobweb_1">
</g>
<g id="Cobweb_2">
</g>
<g id="Spider">
</g>
<g id="Full_Moon">
</g>
<g id="Crescent">
</g>
<g id="Crow">
</g>
<g id="Candy_Holder">
</g>
<g id="Bloody_Knife">
</g>
<g id="Bloody_Axe">
</g>
</svg>
