<?xml version="1.0" encoding="iso-8859-1"?>
<!-- Generator: Adobe Illustrator 19.2.1, SVG Export Plug-In . SVG Version: 6.00 Build 0)  -->
<svg version="1.1" xmlns="http://www.w3.org/2000/svg" xmlns:xlink="http://www.w3.org/1999/xlink" x="0px" y="0px"
	 viewBox="0 0 24 24" style="enable-background:new 0 0 24 24;" xml:space="preserve">
<g id="Pompkin">
</g>
<g id="Layer_10">
</g>
<g id="Bat">
</g>
<g id="Ghost">
</g>
<g id="Bone_Hand">
</g>
<g id="Tree_Ghost">
</g>
<g id="Gate">
</g>
<g id="Cemetery_1">
</g>
<g id="Cemetery_2">
</g>
<g id="Devil_x27_s_Fork">
</g>
<g id="Night_Candle">
</g>
<g id="Canlestick">
</g>
<g id="Black_Cat">
</g>
<g id="Witch_Cauldron">
</g>
<g id="Corn_Candy">
</g>
<g id="Layer_29">
</g>
<g id="Bones">
</g>
<g id="Witch_Broom">
</g>
<g id="Owl">
</g>
<g id="Scythe">
</g>
<g id="Grim_Reaper">
</g>
<g id="Coffin">
</g>
<g id="Dracula">
</g>
<g id="Frankenstein">
</g>
<g id="Layer_40">
</g>
<g id="Toilet_Paper">
</g>
<g id="Skull">
</g>
<g id="Skull_Cake">
</g>
<g id="Eyeball">
</g>
<g id="Castle">
</g>
<g id="Witch_x27_s_Hat">
</g>
<g id="Cobweb_1">
</g>
<g id="Cobweb_2">
	<g>
		<g>
			<path d="M0.5,24C0.224,24,0,23.776,0,23.5v-23C0,0.224,0.224,0,0.5,0h23C23.776,0,24,0.224,24,0.5S23.776,1,23.5,1H1v22.5
				C1,23.776,0.776,24,0.5,24z"/>
		</g>
		<g>
			<path d="M13.5,14c-0.128,0-0.256-0.049-0.354-0.146l-13-13c-0.195-0.195-0.195-0.512,0-0.707s0.512-0.195,0.707,0l13,13
				c0.195,0.195,0.195,0.512,0,0.707C13.756,13.951,13.628,14,13.5,14z"/>
		</g>
		<g>
			<path d="M6.73,7.21c-0.141,0-0.284-0.056-0.387-0.159C5.811,6.519,6.168,5.183,6.291,4.786c0.198-0.642,0.695-1.883,1.807-2.995
				c0.946-0.946,2.127-1.396,3.076-1.758c0.256-0.101,0.546,0.03,0.646,0.289c0.098,0.258-0.031,0.547-0.289,0.645
				C10.67,1.295,9.6,1.703,8.805,2.498c-1.618,1.618-1.85,3.596-1.718,3.894C7.282,6.587,7.264,6.88,7.069,7.075
				C6.977,7.167,6.854,7.21,6.73,7.21z"/>
		</g>
		<g>
			<path d="M9.525,10.025c-0.128,0-0.256-0.049-0.354-0.146C8.417,9.124,9.677,5.839,12,3.515C14.403,1.112,16.828,0.013,17.783,0
				c0.002,0,0.005,0,0.007,0c0.273,0,0.496,0.22,0.5,0.493C18.293,0.77,18.072,0.996,17.796,1c-0.639,0.009-2.858,0.991-5.089,3.222
				c-2.052,2.053-2.853,4.504-2.771,5.02c0.135,0.194,0.116,0.464-0.058,0.638C9.781,9.977,9.653,10.025,9.525,10.025z M9.879,9.172
				C9.879,9.172,9.879,9.172,9.879,9.172C9.879,9.172,9.879,9.172,9.879,9.172z"/>
		</g>
		<g>
			<path d="M17.03,15.511c-0.139,0-0.281-0.055-0.384-0.157c-0.617-0.617-1.559-6.225,1.457-10.158
				c0.652-0.851,4.359-5.089,5.345-5.192c0.265-0.034,0.521,0.169,0.549,0.444c0.028,0.261-0.15,0.496-0.403,0.544
				c-0.569,0.246-3.484,3.23-4.697,4.813c-2.655,3.463-1.789,8.416-1.508,8.885c0.195,0.195,0.178,0.491-0.018,0.687
				C17.279,15.467,17.155,15.511,17.03,15.511z"/>
		</g>
		<g>
			<path d="M3.515,4.015c-0.128,0-0.256-0.049-0.354-0.146C2.546,3.253,3.562,2.054,4.222,1.394C4.557,1.059,5.714,0.001,6.386,0
				c0.276,0.012,0.49,0.245,0.479,0.521C6.854,0.798,6.606,0.999,6.344,1C6.23,1.028,5.646,1.383,4.929,2.101
				c-0.57,0.57-0.873,1.052-0.944,1.245c0.063,0.177,0.024,0.381-0.117,0.522C3.771,3.966,3.643,4.015,3.515,4.015z"/>
		</g>
		<g>
			<path d="M0.5,11.852c-0.06,0-0.12-0.011-0.178-0.033c-0.258-0.098-0.387-0.387-0.289-0.646c0.362-0.949,0.813-2.13,1.758-3.075
				c1.74-1.74,4.527-2.487,5.26-1.754c0.195,0.195,0.195,0.512,0,0.707C6.866,7.234,6.573,7.246,6.377,7.082
				C5.969,6.927,4.018,7.284,2.498,8.805c-0.793,0.794-1.185,1.82-1.53,2.726C0.891,11.729,0.701,11.852,0.5,11.852z M6.392,7.088
				L6.392,7.088L6.392,7.088z"/>
		</g>
		<g>
			<path d="M0.5,18.289c-0.002,0-0.004,0-0.006,0C0.217,18.285-0.003,18.059,0,17.782C0.013,16.829,1.111,14.404,3.515,12
				c2.324-2.324,5.61-3.582,6.364-2.828c0.195,0.195,0.195,0.512,0,0.707c-0.174,0.173-0.443,0.193-0.638,0.058
				c-0.516-0.091-2.966,0.718-5.019,2.771C1.99,14.939,1.008,17.157,1,17.796C0.997,18.069,0.773,18.289,0.5,18.289z M9.268,9.942
				L9.268,9.942L9.268,9.942z M9.172,9.879L9.172,9.879L9.172,9.879z"/>
		</g>
		<g>
			<path d="M0.499,23.989c-0.032,0-0.064-0.003-0.096-0.01c-0.266-0.054-0.442-0.3-0.395-0.566c0.12-0.68,2.182-4.431,5.275-7.523
				c2.993-2.994,5.762-3.958,7.244-3.889c0.276,0.015,0.487,0.25,0.473,0.525c-0.015,0.275-0.238,0.497-0.526,0.473
				c-1.029-0.059-3.531,0.645-6.484,3.598c-2.934,2.934-4.884,6.5-4.999,6.995C0.938,23.824,0.729,23.989,0.499,23.989z"/>
		</g>
		<g>
			<path d="M0.5,6.885c-0.267,0-0.489-0.229-0.5-0.498c-0.029-0.688,1.059-1.831,1.393-2.165c0.661-0.66,1.861-1.676,2.475-1.061
				c0.195,0.195,0.195,0.512,0,0.707c-0.141,0.141-0.346,0.18-0.522,0.117C3.152,4.057,2.671,4.359,2.101,4.929
				C1.383,5.646,1.028,6.23,0.998,6.384c0.012,0.275-0.201,0.489-0.477,0.501C0.514,6.885,0.507,6.885,0.5,6.885z"/>
		</g>
		<g>
			<path d="M20.5,20c-0.224,0-0.428-0.151-0.484-0.379L19.609,18H18.5c-0.276,0-0.5-0.224-0.5-0.5s0.224-0.5,0.5-0.5H20
				c0.229,0,0.429,0.156,0.485,0.379l0.5,2c0.067,0.268-0.096,0.539-0.364,0.606C20.581,19.995,20.54,20,20.5,20z"/>
		</g>
		<g>
			<path d="M19.5,22c-0.276,0-0.5-0.224-0.5-0.5v-0.691l-0.724-0.361c-0.247-0.124-0.347-0.424-0.224-0.671
				c0.124-0.246,0.425-0.349,0.671-0.224l1,0.5C19.893,20.138,20,20.311,20,20.5v1C20,21.776,19.776,22,19.5,22z"/>
		</g>
		<g>
			<path d="M20.5,17c-0.128,0-0.256-0.049-0.354-0.146l-0.745-0.745l-0.678,0.339c-0.246,0.124-0.547,0.022-0.671-0.224
				c-0.124-0.247-0.023-0.547,0.224-0.671l1-0.5c0.194-0.095,0.425-0.059,0.577,0.094l1,1c0.195,0.195,0.195,0.512,0,0.707
				C20.756,16.951,20.628,17,20.5,17z"/>
		</g>
		<g>
			<path d="M13.5,20c-0.04,0-0.081-0.005-0.122-0.015c-0.268-0.067-0.431-0.339-0.364-0.606l0.5-2C13.571,17.156,13.771,17,14,17
				h1.5c0.276,0,0.5,0.224,0.5,0.5S15.776,18,15.5,18h-1.109l-0.406,1.621C13.928,19.849,13.725,20,13.5,20z"/>
		</g>
		<g>
			<path d="M14.5,22c-0.276,0-0.5-0.224-0.5-0.5v-1c0-0.189,0.107-0.362,0.276-0.447l1-0.5c0.247-0.125,0.546-0.022,0.671,0.224
				c0.124,0.247,0.023,0.547-0.224,0.671L15,20.809V21.5C15,21.776,14.776,22,14.5,22z"/>
		</g>
		<g>
			<path d="M13.5,17c-0.128,0-0.256-0.049-0.354-0.146c-0.195-0.195-0.195-0.512,0-0.707l1-1c0.152-0.152,0.385-0.189,0.577-0.094
				l1,0.5c0.247,0.124,0.347,0.424,0.224,0.671c-0.125,0.246-0.424,0.348-0.671,0.224l-0.678-0.339l-0.745,0.745
				C13.756,16.951,13.628,17,13.5,17z"/>
		</g>
		<g>
			<path d="M16,15.5c-0.128,0-0.256-0.049-0.354-0.146l-1-1c-0.195-0.195-0.195-0.512,0-0.707s0.512-0.195,0.707,0l1,1
				c0.195,0.195,0.195,0.512,0,0.707C16.256,15.451,16.128,15.5,16,15.5z"/>
		</g>
		<g>
			<path d="M18,15.5c-0.128,0-0.256-0.049-0.354-0.146c-0.195-0.195-0.195-0.512,0-0.707l1-1c0.195-0.195,0.512-0.195,0.707,0
				s0.195,0.512,0,0.707l-1,1C18.256,15.451,18.128,15.5,18,15.5z"/>
		</g>
		<g>
			<path d="M17,21.5c-1.14,0-2-1.505-2-3.5s0.86-3.5,2-3.5s2,1.505,2,3.5S18.14,21.5,17,21.5z M17,15.5c-0.408,0-1,0.974-1,2.5
				s0.592,2.5,1,2.5s1-0.974,1-2.5S17.408,15.5,17,15.5z"/>
		</g>
	</g>
</g>
<g id="Spider">
</g>
<g id="Full_Moon">
</g>
<g id="Crescent">
</g>
<g id="Crow">
</g>
<g id="Candy_Holder">
</g>
<g id="Bloody_Knife">
</g>
<g id="Bloody_Axe">
</g>
</svg>
