<?xml version="1.0" encoding="iso-8859-1"?>
<!-- Generator: Adobe Illustrator 19.2.1, SVG Export Plug-In . SVG Version: 6.00 Build 0)  -->
<svg version="1.1" xmlns="http://www.w3.org/2000/svg" xmlns:xlink="http://www.w3.org/1999/xlink" x="0px" y="0px"
	 viewBox="0 0 24 24" style="enable-background:new 0 0 24 24;" xml:space="preserve">
<g id="Pompkin">
</g>
<g id="Layer_10">
</g>
<g id="Bat">
</g>
<g id="Ghost">
</g>
<g id="Bone_Hand">
</g>
<g id="Tree_Ghost">
</g>
<g id="Gate">
</g>
<g id="Cemetery_1">
</g>
<g id="Cemetery_2">
</g>
<g id="Devil_x27_s_Fork">
</g>
<g id="Night_Candle">
</g>
<g id="Canlestick">
</g>
<g id="Black_Cat">
</g>
<g id="Witch_Cauldron">
</g>
<g id="Corn_Candy">
</g>
<g id="Layer_29">
</g>
<g id="Bones">
</g>
<g id="Witch_Broom">
</g>
<g id="Owl">
</g>
<g id="Scythe">
</g>
<g id="Grim_Reaper">
</g>
<g id="Coffin">
</g>
<g id="Dracula">
</g>
<g id="Frankenstein">
</g>
<g id="Layer_40">
</g>
<g id="Toilet_Paper">
</g>
<g id="Skull">
</g>
<g id="Skull_Cake">
</g>
<g id="Eyeball">
</g>
<g id="Castle">
</g>
<g id="Witch_x27_s_Hat">
</g>
<g id="Cobweb_1">
	<g>
		<g>
			<path d="M3.5,24c-0.119,0-0.239-0.042-0.334-0.128c-0.205-0.186-0.222-0.501-0.037-0.707L12,13.309V0.5C12,0.224,12.224,0,12.5,0
				S13,0.224,13,0.5v13c0,0.123-0.046,0.242-0.128,0.335l-9,10C3.773,23.944,3.637,24,3.5,24z"/>
		</g>
		<g>
			<path d="M11.5,24c-0.017,0-0.033-0.001-0.05-0.003c-0.275-0.027-0.475-0.272-0.448-0.547l1-10
				c0.015-0.145,0.091-0.276,0.211-0.359l10-7c0.225-0.159,0.538-0.104,0.696,0.122c0.158,0.227,0.104,0.538-0.123,0.696
				l-9.812,6.869l-0.977,9.771C11.972,23.808,11.754,24,11.5,24z"/>
		</g>
		<g>
			<path d="M23.5,21c-0.092,0-0.185-0.025-0.268-0.078l-11-7L1.184,4.887C0.97,4.712,0.938,4.397,1.113,4.184
				c0.175-0.215,0.49-0.246,0.704-0.07l11,9l10.952,6.965c0.233,0.148,0.302,0.457,0.153,0.69C23.827,20.918,23.665,21,23.5,21z"/>
		</g>
		<g>
			<path d="M12.5,14h-12C0.224,14,0,13.776,0,13.5S0.224,13,0.5,13h12c0.276,0,0.5,0.224,0.5,0.5S12.776,14,12.5,14z"/>
		</g>
		<g>
			<path d="M7,24c-0.027,0-0.055-0.002-0.083-0.007l-3-0.5C3.732,23.462,3.58,23.33,3.523,23.15l-3-9.5
				c-0.021-0.067-0.028-0.139-0.02-0.209l1-8.5c0.022-0.192,0.155-0.354,0.338-0.416l10.5-3.5c0.146-0.048,0.307-0.027,0.436,0.059
				l9,6C21.917,7.177,22,7.333,22,7.5v12c0,0.213-0.134,0.401-0.335,0.472l-10,3.5c-0.129,0.044-0.268,0.036-0.389-0.024l-5-2.5
				c-0.125-0.063-0.219-0.175-0.257-0.31l-2-7c-0.026-0.092-0.025-0.189,0.002-0.281l1.5-5c0.048-0.16,0.172-0.285,0.332-0.334
				l6.5-2c0.148-0.048,0.308-0.021,0.434,0.068l5,3.5c0.124,0.086,0.201,0.224,0.212,0.374l0.5,7c0.015,0.207-0.1,0.402-0.289,0.489
				l-6.5,3c-0.158,0.071-0.342,0.059-0.487-0.038l-3-2c-0.107-0.071-0.183-0.182-0.211-0.308l-1-4.5
				c-0.028-0.125-0.006-0.256,0.06-0.365l1.5-2.5c0.054-0.091,0.135-0.161,0.232-0.203l3.5-1.5c0.154-0.064,0.333-0.051,0.474,0.044
				l3,2c0.16,0.106,0.245,0.296,0.218,0.486l-0.5,3.5c-0.018,0.123-0.08,0.234-0.175,0.313l-3,2.5
				c-0.17,0.143-0.413,0.156-0.598,0.032l-1.5-1c-0.23-0.153-0.292-0.464-0.139-0.693c0.152-0.229,0.462-0.292,0.693-0.139
				l1.189,0.793l2.565-2.138l0.428-2.998l-2.512-1.675l-3.103,1.329l-1.314,2.19l0.913,4.109l2.6,1.733l5.932-2.738l-0.458-6.417
				L12.414,7.05l-6.011,1.85l-1.381,4.604l1.899,6.647l4.614,2.307L21,19.146V7.768l-8.574-5.716L2.459,5.374l-0.95,8.078
				l2.875,9.105l2.698,0.449c0.272,0.045,0.457,0.303,0.411,0.575C7.453,23.827,7.241,24,7,24z"/>
		</g>
	</g>
</g>
<g id="Cobweb_2">
</g>
<g id="Spider">
</g>
<g id="Full_Moon">
</g>
<g id="Crescent">
</g>
<g id="Crow">
</g>
<g id="Candy_Holder">
</g>
<g id="Bloody_Knife">
</g>
<g id="Bloody_Axe">
</g>
</svg>
