<?xml version="1.0" encoding="iso-8859-1"?>
<!-- Generator: Adobe Illustrator 19.2.1, SVG Export Plug-In . SVG Version: 6.00 Build 0)  -->
<svg version="1.1" xmlns="http://www.w3.org/2000/svg" xmlns:xlink="http://www.w3.org/1999/xlink" x="0px" y="0px"
	 viewBox="0 0 24 24" style="enable-background:new 0 0 24 24;" xml:space="preserve">
<g id="Pompkin">
</g>
<g id="Layer_10">
</g>
<g id="Bat">
</g>
<g id="Ghost">
</g>
<g id="Bone_Hand">
</g>
<g id="Tree_Ghost">
</g>
<g id="Gate">
</g>
<g id="Cemetery_1">
</g>
<g id="Cemetery_2">
</g>
<g id="Devil_x27_s_Fork">
</g>
<g id="Night_Candle">
</g>
<g id="Canlestick">
</g>
<g id="Black_Cat">
</g>
<g id="Witch_Cauldron">
</g>
<g id="Corn_Candy">
</g>
<g id="Layer_29">
</g>
<g id="Bones">
</g>
<g id="Witch_Broom">
</g>
<g id="Owl">
</g>
<g id="Scythe">
</g>
<g id="Grim_Reaper">
</g>
<g id="Coffin">
	<g>
		<g>
			<path d="M15.5,24h-8c-0.243,0-0.45-0.174-0.492-0.413l-3-17C3.989,6.481,4.005,6.372,4.053,6.276l3-6C7.138,0.107,7.311,0,7.5,0
				h8c0.189,0,0.362,0.107,0.447,0.276l3,6c0.048,0.096,0.064,0.205,0.045,0.311l-3,17C15.95,23.826,15.743,24,15.5,24z M7.919,23
				h7.161l2.898-16.424L15.191,1H7.809L5.021,6.576L7.919,23z"/>
		</g>
		<g>
			<path d="M13.791,22H9.209c-0.242,0-0.449-0.174-0.492-0.411L6.115,7.112C6.098,7.017,6.109,6.919,6.146,6.83l1.893-4.523
				C8.117,2.121,8.298,2,8.5,2h6c0.202,0,0.383,0.121,0.461,0.307l1.893,4.523c0.037,0.089,0.048,0.187,0.031,0.282l-2.602,14.477
				C14.24,21.826,14.033,22,13.791,22z M9.627,21h3.746l2.501-13.92L14.167,3H8.833L7.125,7.08L9.627,21z"/>
		</g>
	</g>
</g>
<g id="Dracula">
</g>
<g id="Frankenstein">
</g>
<g id="Layer_40">
</g>
<g id="Toilet_Paper">
</g>
<g id="Skull">
</g>
<g id="Skull_Cake">
</g>
<g id="Eyeball">
</g>
<g id="Castle">
</g>
<g id="Witch_x27_s_Hat">
</g>
<g id="Cobweb_1">
</g>
<g id="Cobweb_2">
</g>
<g id="Spider">
</g>
<g id="Full_Moon">
</g>
<g id="Crescent">
</g>
<g id="Crow">
</g>
<g id="Candy_Holder">
</g>
<g id="Bloody_Knife">
</g>
<g id="Bloody_Axe">
</g>
</svg>
