<?xml version="1.0" encoding="iso-8859-1"?>
<!-- Generator: Adobe Illustrator 19.2.1, SVG Export Plug-In . SVG Version: 6.00 Build 0)  -->
<svg version="1.1" xmlns="http://www.w3.org/2000/svg" xmlns:xlink="http://www.w3.org/1999/xlink" x="0px" y="0px"
	 viewBox="0 0 24 24" style="enable-background:new 0 0 24 24;" xml:space="preserve">
<g id="Pompkin">
</g>
<g id="Layer_10">
</g>
<g id="Bat">
</g>
<g id="Ghost">
</g>
<g id="Bone_Hand">
</g>
<g id="Tree_Ghost">
</g>
<g id="Gate">
</g>
<g id="Cemetery_1">
</g>
<g id="Cemetery_2">
</g>
<g id="Devil_x27_s_Fork">
</g>
<g id="Night_Candle">
</g>
<g id="Canlestick">
</g>
<g id="Black_Cat">
</g>
<g id="Witch_Cauldron">
</g>
<g id="Corn_Candy">
	<g>
		<g>
			<path d="M21.626,8.986c-0.739,0-1.534-0.486-2.635-1.587c-1.232-1.231-1.686-2.088-1.567-2.958
				c0.037-0.274,0.287-0.461,0.563-0.428c0.274,0.038,0.465,0.29,0.428,0.563c-0.047,0.342,0.057,0.891,1.283,2.117
				c0.979,0.979,1.617,1.367,2.075,1.279c0.269-0.06,0.534,0.117,0.591,0.387c0.057,0.27-0.117,0.535-0.387,0.591
				C21.861,8.973,21.744,8.986,21.626,8.986z"/>
		</g>
		<g>
			<path d="M19.698,13.556c-0.005,0-0.01,0-0.014,0c-0.665-0.019-2.339-0.732-4.229-2.622c-1.635-1.635-2.664-3.31-2.621-4.265
				c0.013-0.276,0.243-0.497,0.522-0.477c0.276,0.013,0.489,0.246,0.477,0.522c-0.02,0.438,0.595,1.779,2.329,3.513
				c1.75,1.75,3.214,2.319,3.549,2.329c0.276,0.008,0.494,0.238,0.486,0.514C20.19,13.341,19.968,13.556,19.698,13.556z"/>
		</g>
		<g>
			<path d="M17.43,18.56c-0.479,0-1.182-0.376-2.232-1.174c-0.22-0.167-0.262-0.48-0.095-0.701c0.167-0.22,0.479-0.262,0.701-0.095
				c0.996,0.757,1.432,0.924,1.566,0.96c0.186-0.083,0.409-0.05,0.561,0.102c0.195,0.195,0.195,0.512,0,0.707
				C17.797,18.492,17.633,18.56,17.43,18.56z"/>
		</g>
		<g>
			<path d="M16.572,21.082c-0.039,0-0.078-0.004-0.117-0.014c-0.233-0.056-0.394-0.269-0.383-0.508
				c0.011-0.25-0.037-0.487-0.143-0.704L11.239,7.318c-0.092-0.247,0.022-0.522,0.262-0.631l9.08-4.118
				c0.014-0.006,0.029-0.012,0.043-0.017c0.921-0.316,1.924-0.081,2.621,0.616c0.696,0.696,0.932,1.701,0.615,2.621L17.027,20.79
				C16.945,20.971,16.765,21.082,16.572,21.082z M12.339,7.405l4.367,11.678l6.226-13.665c0.177-0.519,0.036-1.113-0.395-1.543
				c-0.425-0.426-1.01-0.568-1.567-0.384L12.339,7.405z"/>
		</g>
		<g>
			<path d="M14.541,23h-12c-0.888,0-1.696-0.445-2.161-1.189c-0.451-0.721-0.501-1.605-0.137-2.37L6.25,3.461
				C6.695,2.543,7.572,2,8.557,2s1.862,0.543,2.288,1.418l6.002,16.044c0.356,0.727,0.31,1.621-0.146,2.348
				C16.237,22.555,15.429,23,14.541,23z M8.557,3c-0.608,0-1.128,0.32-1.39,0.856L1.17,19.813c-0.005,0.015-0.012,0.029-0.019,0.043
				c-0.227,0.465-0.199,0.984,0.076,1.424C1.509,21.731,2,22,2.541,22h12c0.541,0,1.032-0.269,1.314-0.72
				c0.274-0.44,0.302-0.959,0.076-1.424L9.928,3.813C9.685,3.32,9.166,3,8.557,3z M0.702,19.637h0.01H0.702z"/>
		</g>
		<g>
			<path d="M8.541,8c-1.742,0-2.669-0.285-3.2-0.984c-0.167-0.22-0.124-0.534,0.096-0.701C5.657,6.149,5.97,6.19,6.137,6.411
				C6.345,6.685,6.807,7,8.541,7c1.385,0,2.117-0.174,2.372-0.563c0.151-0.23,0.461-0.295,0.692-0.145
				c0.231,0.151,0.296,0.461,0.145,0.692C11.277,7.706,10.347,8,8.541,8z"/>
		</g>
		<g>
			<path d="M8.541,13c-2.313,0-4.224-0.457-4.869-1.163c-0.186-0.204-0.172-0.521,0.032-0.707c0.204-0.185,0.52-0.172,0.707,0.032
				C4.706,11.486,6.088,12,8.541,12c2.477,0,3.913-0.632,4.156-0.863c0.201-0.19,0.517-0.181,0.707,0.019
				c0.19,0.201,0.182,0.517-0.019,0.707C12.902,12.32,11.214,13,8.541,13z"/>
		</g>
		<g>
			<path d="M8.541,18c-2.614,0-7-0.195-7-1.5c0-0.276,0.224-0.5,0.5-0.5c0.216,0,0.4,0.137,0.47,0.329
				C2.914,16.579,4.958,17,8.541,17s5.627-0.421,6.03-0.671c0.07-0.192,0.254-0.329,0.47-0.329c0.276,0,0.5,0.224,0.5,0.5
				C15.541,17.805,11.155,18,8.541,18z"/>
		</g>
	</g>
</g>
<g id="Layer_29">
</g>
<g id="Bones">
</g>
<g id="Witch_Broom">
</g>
<g id="Owl">
</g>
<g id="Scythe">
</g>
<g id="Grim_Reaper">
</g>
<g id="Coffin">
</g>
<g id="Dracula">
</g>
<g id="Frankenstein">
</g>
<g id="Layer_40">
</g>
<g id="Toilet_Paper">
</g>
<g id="Skull">
</g>
<g id="Skull_Cake">
</g>
<g id="Eyeball">
</g>
<g id="Castle">
</g>
<g id="Witch_x27_s_Hat">
</g>
<g id="Cobweb_1">
</g>
<g id="Cobweb_2">
</g>
<g id="Spider">
</g>
<g id="Full_Moon">
</g>
<g id="Crescent">
</g>
<g id="Crow">
</g>
<g id="Candy_Holder">
</g>
<g id="Bloody_Knife">
</g>
<g id="Bloody_Axe">
</g>
</svg>
