<?xml version="1.0" encoding="iso-8859-1"?>
<!-- Generator: Adobe Illustrator 19.2.1, SVG Export Plug-In . SVG Version: 6.00 Build 0)  -->
<svg version="1.1" xmlns="http://www.w3.org/2000/svg" xmlns:xlink="http://www.w3.org/1999/xlink" x="0px" y="0px"
	 viewBox="0 0 24 24" style="enable-background:new 0 0 24 24;" xml:space="preserve">
<g id="Pompkin">
</g>
<g id="Layer_10">
</g>
<g id="Bat">
</g>
<g id="Ghost">
</g>
<g id="Bone_Hand">
</g>
<g id="Tree_Ghost">
</g>
<g id="Gate">
</g>
<g id="Cemetery_1">
</g>
<g id="Cemetery_2">
</g>
<g id="Devil_x27_s_Fork">
</g>
<g id="Night_Candle">
</g>
<g id="Canlestick">
</g>
<g id="Black_Cat">
</g>
<g id="Witch_Cauldron">
</g>
<g id="Corn_Candy">
</g>
<g id="Layer_29">
</g>
<g id="Bones">
</g>
<g id="Witch_Broom">
</g>
<g id="Owl">
</g>
<g id="Scythe">
</g>
<g id="Grim_Reaper">
</g>
<g id="Coffin">
</g>
<g id="Dracula">
</g>
<g id="Frankenstein">
</g>
<g id="Layer_40">
</g>
<g id="Toilet_Paper">
</g>
<g id="Skull">
</g>
<g id="Skull_Cake">
</g>
<g id="Eyeball">
</g>
<g id="Castle">
</g>
<g id="Witch_x27_s_Hat">
</g>
<g id="Cobweb_1">
</g>
<g id="Cobweb_2">
</g>
<g id="Spider">
</g>
<g id="Full_Moon">
</g>
<g id="Crescent">
	<g>
		<g>
			<path d="M11.5,23.77c-2.945,0-5.89-1.121-8.132-3.363c-4.484-4.484-4.484-11.779,0-16.264c1.149-1.149,2.51-2.027,4.044-2.61
				c0.184-0.068,0.393-0.025,0.531,0.114c0.14,0.14,0.184,0.348,0.114,0.531C7.678,3.175,7.457,4.263,7.401,5.41
				C7.388,5.686,7.187,5.927,6.878,5.885C6.603,5.872,6.39,5.638,6.403,5.361c0.041-0.852,0.166-1.675,0.373-2.46
				C5.774,3.403,4.869,4.056,4.075,4.85c-4.094,4.094-4.094,10.756,0,14.85s10.756,4.094,14.85,0
				c0.793-0.793,1.444-1.696,1.945-2.695c-3.946,1.065-8.214-0.038-11.138-2.962c-1.597-1.596-2.679-3.605-3.13-5.813
				c-0.055-0.271,0.12-0.534,0.391-0.59c0.265-0.054,0.534,0.119,0.59,0.391c0.411,2.014,1.398,3.848,2.856,5.305
				c2.914,2.914,7.296,3.851,11.157,2.383c0.184-0.068,0.392-0.024,0.531,0.114c0.14,0.14,0.184,0.347,0.114,0.531
				c-0.583,1.534-1.462,2.895-2.61,4.043C17.39,22.648,14.445,23.77,11.5,23.77z M13.5,20.774c-0.827,0-1.5-0.673-1.5-1.5
				s0.673-1.5,1.5-1.5s1.5,0.673,1.5,1.5S14.327,20.774,13.5,20.774z M13.5,18.774c-0.275,0-0.5,0.225-0.5,0.5s0.225,0.5,0.5,0.5
				s0.5-0.225,0.5-0.5S13.775,18.774,13.5,18.774z M7.5,19.774c-1.379,0-2.5-1.121-2.5-2.5s1.121-2.5,2.5-2.5s2.5,1.121,2.5,2.5
				S8.879,19.774,7.5,19.774z M7.5,15.774c-0.827,0-1.5,0.673-1.5,1.5s0.673,1.5,1.5,1.5s1.5-0.673,1.5-1.5S8.327,15.774,7.5,15.774
				z"/>
		</g>
		<g>
			<g>
				<path d="M14.608,12.716c-0.276,0-0.5-0.224-0.5-0.5c0-0.427-0.157-0.714-0.468-0.854c-0.402-0.18-0.934-0.071-1.179,0.144
					c-0.157,0.142-0.385,0.167-0.571,0.065c-0.186-0.101-0.287-0.308-0.255-0.516c0.067-0.429-0.03-0.753-0.297-0.989
					c-0.485-0.43-1.354-0.468-1.703-0.369C9.396,9.766,9.143,9.646,9.043,9.418C8.648,8.523,7.134,8.551,5.551,8.713
					c-0.157,0.017-0.31-0.042-0.415-0.155C5.028,8.444,4.981,8.287,5.007,8.133c0.527-3.145,2.307-3.827,4.77-4.771
					c0.477-0.182,0.986-0.378,1.529-0.606c0.214-0.089,0.459-0.021,0.597,0.164c0.137,0.186,0.129,0.441-0.02,0.618
					c-0.491,0.586-0.324,0.958-0.27,1.081c0.201,0.451,0.814,0.839,1.388,1.008C13.001,5.053,13,4.275,13,4.275
					c0-0.23,0.156-0.431,0.379-0.486c0.222-0.054,0.455,0.048,0.563,0.251l0.352,0.662c0.132-0.002,0.274-0.003,0.405-0.001
					l0.354-0.709c0.104-0.207,0.338-0.321,0.563-0.263C15.841,3.782,16,3.984,16,4.217c0,0-0.001,0.817-0.001,1.409
					c0.573-0.169,1.187-0.557,1.388-1.008c0.055-0.123,0.222-0.495-0.27-1.081c-0.148-0.177-0.156-0.433-0.02-0.618
					s0.382-0.253,0.597-0.164c0.543,0.229,1.053,0.425,1.529,0.606c2.463,0.944,4.242,1.627,4.77,4.771
					c0.026,0.16-0.025,0.323-0.141,0.438c-0.114,0.113-0.278,0.165-0.438,0.139c-1.164-0.201-2.786-0.105-3.524,0.819
					c-0.126,0.156-0.332,0.224-0.526,0.169c-0.288-0.085-0.903,0.075-1.329,0.43c-0.229,0.19-0.492,0.512-0.449,0.959
					c0.02,0.207-0.091,0.404-0.277,0.496c-0.186,0.091-0.41,0.059-0.563-0.084c-0.265-0.247-0.78-0.32-1.148-0.16
					c-0.324,0.142-0.489,0.437-0.489,0.878C15.108,12.492,14.885,12.716,14.608,12.716z M13.186,10.273
					c0.3,0,0.599,0.058,0.864,0.177c0.215,0.096,0.4,0.228,0.554,0.389c0.163-0.175,0.363-0.316,0.597-0.418
					c0.466-0.2,1.012-0.219,1.488-0.071c0.127-0.369,0.366-0.707,0.707-0.99c0.549-0.458,1.289-0.704,1.913-0.679
					c0.88-0.887,2.291-1.131,3.557-1.043c-0.543-2.017-1.828-2.51-4-3.342c-0.137-0.053-0.275-0.106-0.417-0.161
					c0.035,0.378-0.058,0.688-0.148,0.892c-0.448,1.003-1.795,1.658-2.784,1.689c-0.134,0-0.265-0.047-0.361-0.139
					C15.057,6.483,15.002,6.355,15,6.222c-0.001-0.055-0.001-0.253-0.001-0.506c-0.025,0-0.052-0.002-0.077-0.006
					c-0.119-0.015-0.739-0.011-0.854,0.001c-0.022,0.002-0.045,0.004-0.066,0.003c0,0.253,0,0.452-0.001,0.508
					c-0.002,0.134-0.057,0.262-0.154,0.355c-0.097,0.092-0.229,0.14-0.361,0.139c-0.989-0.031-2.336-0.687-2.784-1.689
					c-0.091-0.204-0.184-0.514-0.148-0.892c-0.142,0.055-0.28,0.108-0.417,0.161C7.957,5.13,6.67,5.624,6.131,7.655
					c1.229-0.097,2.873-0.069,3.63,1.009c0.665-0.054,1.6,0.086,2.241,0.654c0.243,0.215,0.503,0.546,0.607,1.026
					C12.796,10.298,12.991,10.273,13.186,10.273z"/>
			</g>
			<g>
				<path d="M9.5,5.716c-0.128,0-0.256-0.049-0.354-0.146c-0.195-0.195-0.195-0.512,0-0.707l1.5-1.5
					c0.195-0.195,0.512-0.195,0.707,0s0.195,0.512,0,0.707l-1.5,1.5C9.756,5.667,9.628,5.716,9.5,5.716z"/>
			</g>
			<g>
				<path d="M19.5,5.716c-0.161,0-0.319-0.078-0.416-0.223l-1-1.5c-0.153-0.229-0.091-0.54,0.139-0.693
					c0.228-0.152,0.539-0.093,0.693,0.139l1,1.5c0.153,0.229,0.091,0.54-0.139,0.693C19.692,5.688,19.596,5.716,19.5,5.716z"/>
			</g>
		</g>
	</g>
</g>
<g id="Crow">
</g>
<g id="Candy_Holder">
</g>
<g id="Bloody_Knife">
</g>
<g id="Bloody_Axe">
</g>
</svg>
