<?xml version="1.0" encoding="iso-8859-1"?>
<!-- Generator: Adobe Illustrator 19.2.1, SVG Export Plug-In . SVG Version: 6.00 Build 0)  -->
<svg version="1.1" xmlns="http://www.w3.org/2000/svg" xmlns:xlink="http://www.w3.org/1999/xlink" x="0px" y="0px"
	 viewBox="0 0 24 24" style="enable-background:new 0 0 24 24;" xml:space="preserve">
<g id="Pompkin">
</g>
<g id="Layer_10">
</g>
<g id="Bat">
</g>
<g id="Ghost">
</g>
<g id="Bone_Hand">
</g>
<g id="Tree_Ghost">
</g>
<g id="Gate">
</g>
<g id="Cemetery_1">
</g>
<g id="Cemetery_2">
</g>
<g id="Devil_x27_s_Fork">
</g>
<g id="Night_Candle">
</g>
<g id="Canlestick">
</g>
<g id="Black_Cat">
</g>
<g id="Witch_Cauldron">
</g>
<g id="Corn_Candy">
</g>
<g id="Layer_29">
</g>
<g id="Bones">
</g>
<g id="Witch_Broom">
</g>
<g id="Owl">
</g>
<g id="Scythe">
</g>
<g id="Grim_Reaper">
</g>
<g id="Coffin">
</g>
<g id="Dracula">
</g>
<g id="Frankenstein">
</g>
<g id="Layer_40">
</g>
<g id="Toilet_Paper">
</g>
<g id="Skull">
</g>
<g id="Skull_Cake">
</g>
<g id="Eyeball">
</g>
<g id="Castle">
</g>
<g id="Witch_x27_s_Hat">
</g>
<g id="Cobweb_1">
</g>
<g id="Cobweb_2">
</g>
<g id="Spider">
</g>
<g id="Full_Moon">
</g>
<g id="Crescent">
</g>
<g id="Crow">
	<g>
		<g>
			<path d="M18.769,23.897c-0.747,0-1.274-0.02-1.292-0.021c-1.242-0.059-2.161-1.283-3.049-2.467
				c-0.675-0.898-1.371-1.828-2.081-2.057c-0.278-0.089-0.609-0.188-0.976-0.295c-2.142-0.633-5.378-1.59-6.766-3.374
				c-2.7-3.471-3.294-7.485-1.769-11.942c-0.738-0.271-1.17-0.883-1.532-1.395c-0.304-0.43-0.59-0.835-1-1.01
				C0.117,1.259-0.003,1.074,0,0.871s0.129-0.385,0.317-0.459c1.601-0.627,2.796-0.214,4.283,0.462
				c2.12-0.043,3.742,0.977,4.373,2.844c0.205,0.607,1.18,1.81,2.211,3.082c1.37,1.689,2.923,3.605,3.767,5.361
				c0.483,1.01,0.896,1.921,1.257,2.716c0.694,1.534,1.243,2.745,1.646,3.147c0.185,0.185,0.844,0.588,1.542,1.016
				c1.725,1.057,3.872,2.371,4.543,3.598c0.061,0.11,0.077,0.239,0.047,0.361C23.789,23.782,20.61,23.897,18.769,23.897z
				 M1.622,1.116C1.809,1.328,1.97,1.555,2.121,1.77C2.585,2.425,2.9,2.829,3.539,2.88c0.157,0.012,0.299,0.098,0.383,0.23
				c0.085,0.133,0.102,0.297,0.046,0.444c-1.634,4.324-1.153,8.199,1.427,11.517c1.19,1.53,4.241,2.432,6.26,3.027
				c0.375,0.111,0.714,0.212,0.999,0.304c1.012,0.325,1.807,1.384,2.574,2.408c0.749,0.998,1.524,2.031,2.296,2.068
				c1.503,0.066,4.07-0.065,5.176-0.244c-0.842-0.915-2.6-1.99-3.826-2.742c-0.931-0.57-1.471-0.905-1.727-1.161
				c-0.531-0.53-1.056-1.688-1.85-3.441c-0.357-0.79-0.767-1.694-1.248-2.695c-0.792-1.651-2.306-3.519-3.641-5.166
				c-1.185-1.46-2.119-2.613-2.382-3.391c-0.638-1.886-2.265-2.222-3.505-2.16C4.446,1.881,4.363,1.865,4.292,1.832
				C3.259,1.359,2.465,1.044,1.622,1.116z"/>
		</g>
		<g>
			<path d="M12.898,16.901c-0.149,0-0.302-0.009-0.456-0.026c-3.73-0.431-6.608-3.596-7.422-6.355
				c-0.078-0.265,0.073-0.543,0.338-0.621c0.268-0.078,0.543,0.072,0.621,0.338c0.619,2.101,3.069,5.24,6.578,5.645
				c0.655,0.075,1.247-0.063,1.615-0.381c0.208-0.181,0.524-0.158,0.705,0.051c0.181,0.208,0.158,0.524-0.051,0.705
				C14.344,16.675,13.657,16.901,12.898,16.901z"/>
		</g>
		<g>
			<circle cx="6" cy="2.877" r="0.5"/>
		</g>
		<g>
			<path d="M6.5,22.878c-0.069,0-0.139-0.014-0.205-0.044c-0.252-0.113-0.364-0.41-0.251-0.661c0.791-1.755,1.116-3.812,0.963-4.711
				c-0.046-0.272,0.137-0.53,0.409-0.577c0.268-0.044,0.53,0.137,0.577,0.409c0.21,1.238-0.235,3.512-1.037,5.289
				C6.872,22.769,6.69,22.878,6.5,22.878z"/>
		</g>
		<g>
			<path d="M6.5,22.878c-0.04,0-0.081-0.005-0.121-0.015l-4-1c-0.269-0.067-0.431-0.339-0.364-0.606
				c0.066-0.269,0.335-0.431,0.606-0.364l2.249,0.563l-0.724-0.724c-0.195-0.195-0.195-0.512,0-0.707s0.512-0.195,0.707,0l2,2
				c0.159,0.159,0.192,0.404,0.082,0.6C6.845,22.783,6.677,22.878,6.5,22.878z"/>
		</g>
		<g>
			<path d="M3.5,23.878c-0.209,0-0.404-0.133-0.475-0.342c-0.087-0.262,0.055-0.545,0.316-0.633l3-1
				c0.051-0.017,0.104-0.025,0.158-0.025h2c0.276,0,0.5,0.224,0.5,0.5s-0.224,0.5-0.5,0.5H6.581l-2.923,0.975
				C3.605,23.87,3.553,23.878,3.5,23.878z"/>
		</g>
		<g>
			<path d="M12.5,21.878c-0.076,0-0.153-0.018-0.224-0.053l-2-1c-0.247-0.124-0.347-0.424-0.224-0.671
				c0.124-0.246,0.424-0.347,0.671-0.224L12,20.569v-1.691c0-0.276,0.224-0.5,0.5-0.5s0.5,0.224,0.5,0.5v2.5
				c0,0.173-0.09,0.334-0.237,0.426C12.683,21.853,12.592,21.878,12.5,21.878z"/>
		</g>
		<g>
			<path d="M13.5,22.878c-0.128,0-0.256-0.049-0.354-0.146l-0.818-0.818l-2.746,0.458c-0.266,0.047-0.529-0.138-0.575-0.411
				c-0.046-0.272,0.139-0.53,0.411-0.575l3-0.5c0.159-0.027,0.321,0.025,0.436,0.14l1,1c0.195,0.195,0.195,0.512,0,0.707
				C13.756,22.829,13.628,22.878,13.5,22.878z"/>
		</g>
		<g>
			<path d="M12,22.878c-0.075,0-0.151-0.017-0.224-0.053c-0.247-0.124-0.347-0.424-0.224-0.671l0.5-1
				c0.125-0.247,0.424-0.347,0.671-0.224c0.247,0.124,0.347,0.424,0.224,0.671l-0.5,1C12.359,22.776,12.183,22.878,12,22.878z"/>
		</g>
		<g>
			<path d="M20.703,23.737c-0.071,0-0.145-0.016-0.213-0.048c-1.117-0.525-2.35-1.684-3.437-2.706
				c-0.517-0.484-1.004-0.942-1.354-1.205c-0.221-0.166-0.266-0.479-0.101-0.7c0.167-0.221,0.481-0.266,0.7-0.101
				c0.395,0.297,0.879,0.751,1.438,1.277c0.982,0.923,2.204,2.071,3.178,2.53c0.25,0.117,0.357,0.415,0.239,0.665
				C21.07,23.631,20.891,23.737,20.703,23.737z"/>
		</g>
	</g>
</g>
<g id="Candy_Holder">
</g>
<g id="Bloody_Knife">
</g>
<g id="Bloody_Axe">
</g>
</svg>
