<?xml version="1.0" encoding="iso-8859-1"?>
<!-- Generator: Adobe Illustrator 19.2.1, SVG Export Plug-In . SVG Version: 6.00 Build 0)  -->
<svg version="1.1" xmlns="http://www.w3.org/2000/svg" xmlns:xlink="http://www.w3.org/1999/xlink" x="0px" y="0px"
	 viewBox="0 0 24 24" style="enable-background:new 0 0 24 24;" xml:space="preserve">
<g id="Pompkin">
</g>
<g id="Layer_10">
</g>
<g id="Bat">
</g>
<g id="Ghost">
</g>
<g id="Bone_Hand">
</g>
<g id="Tree_Ghost">
</g>
<g id="Gate">
</g>
<g id="Cemetery_1">
</g>
<g id="Cemetery_2">
</g>
<g id="Devil_x27_s_Fork">
	<g>
		<g>
			<path d="M9.692,17.188c-1.921,0-3.842-0.731-5.304-2.193l-3.182-3.182c-0.195-0.195-0.195-0.512,0-0.707s0.512-0.195,0.707,0
				l3.182,3.182c2.535,2.534,6.658,2.533,9.193,0c1.228-1.228,1.903-2.86,1.903-4.596s-0.676-3.369-1.903-4.596l-3.536-3.536
				c-0.195-0.195-0.195-0.512,0-0.707s0.512-0.195,0.707,0l3.536,3.536c2.924,2.924,2.924,7.682,0,10.606
				C13.534,16.458,11.613,17.188,9.692,17.188z"/>
		</g>
		<g>
			<path d="M23.5,24c-0.128,0-0.256-0.049-0.354-0.146L5.804,6.51c-0.195-0.195-0.195-0.512,0-0.707s0.512-0.195,0.707,0
				l17.343,17.343c0.195,0.195,0.195,0.512,0,0.707C23.756,23.951,23.628,24,23.5,24z"/>
		</g>
		<g>
			<path d="M1.206,13.02c-0.212,0-0.404-0.134-0.474-0.341l-0.707-2.122c-0.06-0.18-0.013-0.378,0.121-0.512
				C0.28,9.913,0.479,9.865,0.658,9.925l2.121,0.707c0.23,0.077,0.371,0.308,0.336,0.547c-0.036,0.24-0.24,0.42-0.482,0.427
				c-0.221,0.006-0.593,0.081-0.719,0.207s-0.201,0.499-0.207,0.719C1.7,12.775,1.521,12.979,1.28,13.015
				C1.256,13.019,1.23,13.02,1.206,13.02z"/>
		</g>
		<g>
			<path d="M6.156,8.07c-0.212,0-0.404-0.134-0.474-0.341L4.976,5.608c-0.06-0.18-0.013-0.378,0.121-0.512
				C5.23,4.963,5.429,4.915,5.608,4.976l2.121,0.707C7.96,5.759,8.101,5.99,8.065,6.23c-0.036,0.24-0.24,0.42-0.482,0.427
				C7.362,6.663,6.99,6.738,6.864,6.864S6.663,7.362,6.657,7.583C6.65,7.826,6.471,8.029,6.23,8.065
				C6.206,8.069,6.181,8.07,6.156,8.07z"/>
		</g>
		<g>
			<path d="M11.105,3.12c-0.212,0-0.404-0.134-0.474-0.341L9.925,0.658c-0.06-0.18-0.013-0.378,0.121-0.512
				c0.135-0.133,0.332-0.18,0.512-0.121l2.121,0.707c0.23,0.077,0.371,0.308,0.336,0.547c-0.036,0.24-0.24,0.42-0.482,0.427
				c-0.221,0.006-0.593,0.081-0.719,0.207s-0.201,0.499-0.207,0.719C11.6,2.875,11.42,3.079,11.18,3.115
				C11.155,3.119,11.13,3.12,11.105,3.12z"/>
		</g>
		<g>
			<path d="M12.934,17.322c-0.644,0-1.248-0.095-1.712-0.406c-0.229-0.154-0.291-0.464-0.137-0.694
				c0.152-0.229,0.465-0.291,0.693-0.137c0.547,0.368,1.683,0.232,2.684,0.113c0.597-0.071,1.148-0.138,1.621-0.114
				c-0.017-0.433,0.049-0.916,0.116-1.415c0.117-0.866,0.249-1.848-0.114-2.391c-0.154-0.229-0.093-0.54,0.137-0.694
				c0.227-0.154,0.539-0.092,0.693,0.137c0.575,0.858,0.416,2.039,0.275,3.082c-0.089,0.655-0.189,1.396-0.013,1.688
				c0.119,0.197,0.089,0.45-0.074,0.613c-0.164,0.163-0.416,0.193-0.612,0.074c-0.296-0.179-1.153-0.077-1.911,0.013
				C14.044,17.254,13.475,17.322,12.934,17.322z"/>
		</g>
	</g>
</g>
<g id="Night_Candle">
</g>
<g id="Canlestick">
</g>
<g id="Black_Cat">
</g>
<g id="Witch_Cauldron">
</g>
<g id="Corn_Candy">
</g>
<g id="Layer_29">
</g>
<g id="Bones">
</g>
<g id="Witch_Broom">
</g>
<g id="Owl">
</g>
<g id="Scythe">
</g>
<g id="Grim_Reaper">
</g>
<g id="Coffin">
</g>
<g id="Dracula">
</g>
<g id="Frankenstein">
</g>
<g id="Layer_40">
</g>
<g id="Toilet_Paper">
</g>
<g id="Skull">
</g>
<g id="Skull_Cake">
</g>
<g id="Eyeball">
</g>
<g id="Castle">
</g>
<g id="Witch_x27_s_Hat">
</g>
<g id="Cobweb_1">
</g>
<g id="Cobweb_2">
</g>
<g id="Spider">
</g>
<g id="Full_Moon">
</g>
<g id="Crescent">
</g>
<g id="Crow">
</g>
<g id="Candy_Holder">
</g>
<g id="Bloody_Knife">
</g>
<g id="Bloody_Axe">
</g>
</svg>
