<?xml version="1.0" encoding="iso-8859-1"?>
<!-- Generator: Adobe Illustrator 19.2.1, SVG Export Plug-In . SVG Version: 6.00 Build 0)  -->
<svg version="1.1" xmlns="http://www.w3.org/2000/svg" xmlns:xlink="http://www.w3.org/1999/xlink" x="0px" y="0px"
	 viewBox="0 0 24 24" style="enable-background:new 0 0 24 24;" xml:space="preserve">
<g id="Pompkin">
</g>
<g id="Layer_10">
</g>
<g id="Bat">
</g>
<g id="Ghost">
</g>
<g id="Bone_Hand">
</g>
<g id="Tree_Ghost">
</g>
<g id="Gate">
</g>
<g id="Cemetery_1">
</g>
<g id="Cemetery_2">
</g>
<g id="Devil_x27_s_Fork">
</g>
<g id="Night_Candle">
</g>
<g id="Canlestick">
</g>
<g id="Black_Cat">
</g>
<g id="Witch_Cauldron">
</g>
<g id="Corn_Candy">
</g>
<g id="Layer_29">
</g>
<g id="Bones">
</g>
<g id="Witch_Broom">
</g>
<g id="Owl">
</g>
<g id="Scythe">
</g>
<g id="Grim_Reaper">
</g>
<g id="Coffin">
</g>
<g id="Dracula">
	<g id="XMLID_1474_">
		<g id="XMLID_1479_">
			<path d="M19.438,11c-0.194,0-0.374-0.113-0.456-0.294l-0.222-0.492c-1.205-2.675-2-4.442-3.213-4.891
				c-0.762-0.279-1.823-0.082-3.334,0.629c-0.135,0.064-0.291,0.064-0.426,0C10.275,5.24,9.213,5.044,8.453,5.323
				C7.24,5.771,6.444,7.539,5.24,10.214l-0.222,0.492c-0.091,0.201-0.299,0.316-0.521,0.29c-0.219-0.029-0.393-0.198-0.428-0.416
				C3.85,9.23,3.182,5.123,5.466,2.438C6.842,0.82,9.041,0,12,0s5.158,0.82,6.534,2.438c2.284,2.686,1.617,6.793,1.397,8.143
				c-0.036,0.218-0.209,0.387-0.428,0.416C19.481,10.999,19.459,11,19.438,11z M14.802,4.197c0.394,0,0.755,0.063,1.092,0.188
				c1.387,0.513,2.22,2.014,3.265,4.285c0.117-1.673-0.014-3.972-1.387-5.585C16.595,1.702,14.653,1,12,1S7.405,1.702,6.228,3.086
				C4.855,4.699,4.725,6.998,4.841,8.671c1.044-2.271,1.878-3.772,3.265-4.285C9.108,4.014,10.316,4.187,12,4.949
				C13.117,4.444,14.024,4.197,14.802,4.197z"/>
		</g>
		<g id="XMLID_1476_">
			<path d="M10.5,11c-0.083,0-0.167-0.021-0.244-0.064C9.563,10.547,8.405,10,8,10c-0.276,0-0.5-0.224-0.5-0.5S7.724,9,8,9
				c0.809,0,2.428,0.887,2.745,1.064c0.241,0.135,0.327,0.439,0.191,0.681C10.844,10.908,10.674,11,10.5,11z"/>
		</g>
		<g id="XMLID_1480_">
			<path d="M13.5,11c-0.175,0-0.345-0.092-0.437-0.255c-0.135-0.241-0.049-0.546,0.191-0.681C13.572,9.887,15.191,9,16,9
				c0.276,0,0.5,0.224,0.5,0.5S16.276,10,16,10c-0.405,0-1.563,0.547-2.255,0.936C13.667,10.979,13.583,11,13.5,11z"/>
		</g>
		<g id="XMLID_1481_">
			<path d="M14.5,17.5c-0.084,0-0.169-0.021-0.248-0.065C14.247,17.432,13.451,17,12,17s-2.247,0.432-2.255,0.436
				c-0.24,0.135-0.545,0.049-0.679-0.191c-0.135-0.239-0.053-0.542,0.186-0.679C9.292,16.543,10.262,16,12,16
				s2.708,0.543,2.748,0.565c0.24,0.138,0.323,0.443,0.186,0.683C14.842,17.409,14.673,17.5,14.5,17.5z"/>
		</g>
		<g id="XMLID_1482_">
			<path d="M10.5,18c-0.276,0-0.5-0.224-0.5-0.5V17c0-0.276,0.224-0.5,0.5-0.5S11,16.724,11,17v0.5C11,17.776,10.776,18,10.5,18z"/>
		</g>
		<g id="XMLID_1483_">
			<path d="M13.5,18c-0.276,0-0.5-0.224-0.5-0.5V17c0-0.276,0.224-0.5,0.5-0.5S14,16.724,14,17v0.5C14,17.776,13.776,18,13.5,18z"/>
		</g>
		<g id="XMLID_1484_">
			<path d="M9.5,11H9c-0.276,0-0.5-0.224-0.5-0.5S8.724,10,9,10h0.5c0.276,0,0.5,0.224,0.5,0.5S9.776,11,9.5,11z"/>
		</g>
		<g id="XMLID_1485_">
			<path d="M15,11h-0.5c-0.276,0-0.5-0.224-0.5-0.5s0.224-0.5,0.5-0.5H15c0.276,0,0.5,0.224,0.5,0.5S15.276,11,15,11z"/>
		</g>
		<g>
			<path d="M12,23c-0.08,0-0.16-0.02-0.233-0.058l-9.5-5C2.101,17.855,1.998,17.683,2,17.495s0.109-0.358,0.276-0.442l3-1.5
				c0.165-0.082,0.357-0.067,0.508,0.036l0.624,0.432c0.061,0.042,0.111,0.097,0.148,0.161C7.563,17.924,9.324,20,12,20
				s4.438-2.076,5.443-3.818c0.037-0.064,0.088-0.119,0.148-0.161l0.624-0.432c0.151-0.104,0.344-0.118,0.508-0.036l3,1.5
				c0.167,0.084,0.274,0.255,0.276,0.442s-0.101,0.36-0.267,0.447l-9.5,5C12.16,22.98,12.08,23,12,23z M3.595,17.512L12,21.935
				l8.405-4.423l-1.864-0.932l-0.289,0.199C17.105,18.729,15.102,21,12,21s-5.105-2.271-6.252-4.221L5.459,16.58L3.595,17.512z"/>
		</g>
		<g id="XMLID_1475_">
			<g id="XMLID_1477_">
				<path d="M12,21c-1.874,0-4.549-0.879-6.701-5.038C3.953,15.648,3,13.468,3,12.5c0-1.256,0.446-2.061,1.363-2.459
					c0.253-0.107,0.549,0.007,0.658,0.26c0.11,0.253-0.006,0.548-0.259,0.658C4.366,11.131,4,11.437,4,12.5
					C4,13.284,4.927,15,5.625,15c0.188,0,0.36,0.105,0.445,0.272l0.05,0.1C7.674,18.443,9.652,20,12,20s4.326-1.557,5.879-4.628
					l0.05-0.1C18.015,15.105,18.188,15,18.375,15C19.073,15,20,13.284,20,12.5c0-1.063-0.366-1.369-0.762-1.541
					c-0.253-0.11-0.37-0.405-0.259-0.658c0.109-0.253,0.403-0.368,0.658-0.26C20.554,10.439,21,11.244,21,12.5
					c0,0.968-0.953,3.148-2.299,3.462C16.549,20.121,13.874,21,12,21z"/>
			</g>
		</g>
		<g>
			<path d="M5.498,23.979c-0.081,0-0.163-0.02-0.237-0.063c-0.239-0.138-0.332-0.426-0.194-0.665
				c0.427-0.743,1.185-2.063,0.85-3.097c-0.085-0.263,0.059-0.545,0.322-0.63c0.262-0.084,0.545,0.06,0.629,0.321
				c0.472,1.456-0.43,3.025-0.914,3.869C5.858,23.88,5.679,23.979,5.498,23.979z"/>
		</g>
		<g>
			<path d="M18.2,23.771c-0.569-0.884-1.585-2.463-1.05-3.94c0.094-0.261,0.381-0.395,0.641-0.3c0.26,0.094,0.394,0.381,0.3,0.64
				c-0.367,1.013,0.475,2.321,0.928,3.024L18.2,23.771z"/>
		</g>
	</g>
</g>
<g id="Frankenstein">
</g>
<g id="Layer_40">
</g>
<g id="Toilet_Paper">
</g>
<g id="Skull">
</g>
<g id="Skull_Cake">
</g>
<g id="Eyeball">
</g>
<g id="Castle">
</g>
<g id="Witch_x27_s_Hat">
</g>
<g id="Cobweb_1">
</g>
<g id="Cobweb_2">
</g>
<g id="Spider">
</g>
<g id="Full_Moon">
</g>
<g id="Crescent">
</g>
<g id="Crow">
</g>
<g id="Candy_Holder">
</g>
<g id="Bloody_Knife">
</g>
<g id="Bloody_Axe">
</g>
</svg>
