<?xml version="1.0" encoding="iso-8859-1"?>
<!-- Generator: Adobe Illustrator 19.2.1, SVG Export Plug-In . SVG Version: 6.00 Build 0)  -->
<svg version="1.1" xmlns="http://www.w3.org/2000/svg" xmlns:xlink="http://www.w3.org/1999/xlink" x="0px" y="0px"
	 viewBox="0 0 24 24" style="enable-background:new 0 0 24 24;" xml:space="preserve">
<g id="Pompkin">
</g>
<g id="Layer_10">
</g>
<g id="Bat">
</g>
<g id="Ghost">
</g>
<g id="Bone_Hand">
</g>
<g id="Tree_Ghost">
</g>
<g id="Gate">
</g>
<g id="Cemetery_1">
</g>
<g id="Cemetery_2">
</g>
<g id="Devil_x27_s_Fork">
</g>
<g id="Night_Candle">
</g>
<g id="Canlestick">
</g>
<g id="Black_Cat">
</g>
<g id="Witch_Cauldron">
</g>
<g id="Corn_Candy">
</g>
<g id="Layer_29">
</g>
<g id="Bones">
</g>
<g id="Witch_Broom">
</g>
<g id="Owl">
</g>
<g id="Scythe">
</g>
<g id="Grim_Reaper">
</g>
<g id="Coffin">
</g>
<g id="Dracula">
</g>
<g id="Frankenstein">
	<g id="XMLID_1488_">
		<g id="XMLID_1501_">
			<path d="M12,21c-5.1,0-6.184-3.355-6.647-4.789c-0.03-0.094-0.058-0.18-0.083-0.256C3.938,15.616,3,13.461,3,12.5
				c0-1.256,0.446-2.061,1.363-2.459c0.254-0.107,0.548,0.007,0.658,0.26c0.11,0.253-0.006,0.548-0.259,0.658
				C4.366,11.131,4,11.437,4,12.5C4,13.284,4.927,15,5.625,15c0.188,0,0.36,0.105,0.445,0.272c0.072,0.141,0.146,0.358,0.234,0.632
				C6.767,17.335,7.628,20,12,20c4.554,0,5.295-2.623,5.693-4.032c0.082-0.29,0.146-0.52,0.236-0.695
				C18.015,15.105,18.188,15,18.375,15C19.073,15,20,13.284,20,12.5c0-1.063-0.366-1.369-0.762-1.541
				c-0.253-0.11-0.37-0.405-0.259-0.658c0.109-0.253,0.402-0.368,0.658-0.26C20.554,10.439,21,11.244,21,12.5
				c0,0.959-0.936,3.109-2.263,3.453c-0.025,0.084-0.051,0.181-0.082,0.286C18.253,17.664,17.31,21,12,21z"/>
		</g>
		<g id="XMLID_1491_">
			<path d="M19.5,11c-0.276,0-0.5-0.224-0.5-0.5C19,2.266,19,1,12,1s-7,1.266-7,9.5C5,10.776,4.776,11,4.5,11S4,10.776,4,10.5
				C4,2.005,4.293,0,12,0s8,2.005,8,10.5C20,10.776,19.776,11,19.5,11z"/>
		</g>
		<g id="XMLID_1498_">
			<path d="M10.5,10H8c-0.276,0-0.5-0.224-0.5-0.5S7.724,9,8,9h2.5C10.776,9,11,9.224,11,9.5S10.776,10,10.5,10z"/>
		</g>
		<g id="XMLID_1497_">
			<path d="M16,10h-2.5C13.224,10,13,9.776,13,9.5S13.224,9,13.5,9H16c0.276,0,0.5,0.224,0.5,0.5S16.276,10,16,10z"/>
		</g>
		<g id="XMLID_1496_">
			<path d="M14.5,17.5c-0.276,0-0.5-0.224-0.5-0.5h-4c0,0.276-0.224,0.5-0.5,0.5S9,17.276,9,17v-0.5C9,16.224,9.224,16,9.5,16h5
				c0.276,0,0.5,0.224,0.5,0.5V17C15,17.276,14.776,17.5,14.5,17.5z"/>
		</g>
		<g id="XMLID_1493_">
			<path d="M9.5,11H9c-0.276,0-0.5-0.224-0.5-0.5S8.724,10,9,10h0.5c0.276,0,0.5,0.224,0.5,0.5S9.776,11,9.5,11z"/>
		</g>
		<g id="XMLID_1492_">
			<path d="M15,11h-0.5c-0.276,0-0.5-0.224-0.5-0.5s0.224-0.5,0.5-0.5H15c0.276,0,0.5,0.224,0.5,0.5S15.276,11,15,11z"/>
		</g>
		<g id="XMLID_1499_">
			<path d="M19,5c-0.091,0-0.183-0.024-0.266-0.077c-1.088-0.685-3.461-1.486-3.88-1.069c-0.149,0.148-0.375,0.187-0.565,0.1
				c-1.262-0.59-3.315-0.59-4.577,0c-0.19,0.089-0.416,0.05-0.565-0.1c-0.418-0.419-2.791,0.384-3.88,1.069
				c-0.234,0.149-0.542,0.076-0.69-0.156C4.43,4.533,4.5,4.224,4.733,4.077c0.533-0.336,3.471-1.826,4.822-1.145
				c1.446-0.568,3.443-0.568,4.89,0c1.35-0.682,4.289,0.809,4.822,1.145c0.233,0.146,0.304,0.456,0.157,0.689
				C19.328,4.917,19.166,5,19,5z"/>
		</g>
		<g id="XMLID_1495_">
			<path d="M7.5,24C7.224,24,7,23.776,7,23.5v-4C7,19.224,7.224,19,7.5,19S8,19.224,8,19.5v4C8,23.776,7.776,24,7.5,24z"/>
		</g>
		<g id="XMLID_1502_">
			<path d="M16.5,24c-0.276,0-0.5-0.224-0.5-0.5v-4c0-0.276,0.224-0.5,0.5-0.5s0.5,0.224,0.5,0.5v4C17,23.776,16.776,24,16.5,24z"/>
		</g>
		<g id="XMLID_1503_">
			<path d="M18.5,22h-2c-0.276,0-0.5-0.224-0.5-0.5s0.224-0.5,0.5-0.5h2c0.276,0,0.5,0.224,0.5,0.5S18.776,22,18.5,22z"/>
		</g>
		<g id="XMLID_1504_">
			<path d="M18.5,22.5c-0.276,0-0.5-0.224-0.5-0.5v-1c0-0.276,0.224-0.5,0.5-0.5S19,20.724,19,21v1C19,22.276,18.776,22.5,18.5,22.5
				z"/>
		</g>
		<g id="XMLID_1505_">
			<path d="M7.5,22h-2C5.224,22,5,21.776,5,21.5S5.224,21,5.5,21h2C7.776,21,8,21.224,8,21.5S7.776,22,7.5,22z"/>
		</g>
		<g id="XMLID_1511_">
			<path d="M5.5,22.5C5.224,22.5,5,22.276,5,22v-1c0-0.276,0.224-0.5,0.5-0.5S6,20.724,6,21v1C6,22.276,5.776,22.5,5.5,22.5z"/>
		</g>
		<g>
			<path d="M11,7.5c-0.04,0-0.081-0.005-0.122-0.015l-6-1.5C4.611,5.918,4.448,5.646,4.515,5.379
				C4.582,5.11,4.852,4.948,5.121,5.015l6,1.5c0.268,0.067,0.431,0.339,0.364,0.606C11.428,7.349,11.225,7.5,11,7.5z"/>
		</g>
		<g>
			<path d="M6,7C5.924,7,5.848,6.983,5.776,6.947C5.529,6.823,5.429,6.523,5.553,6.276l0.5-1C6.177,5.03,6.476,4.929,6.724,5.053
				c0.247,0.124,0.347,0.424,0.224,0.671l-0.5,1C6.359,6.898,6.183,7,6,7z"/>
		</g>
		<g>
			<path d="M8,7.5c-0.075,0-0.151-0.017-0.223-0.053C7.529,7.323,7.429,7.023,7.553,6.776l0.5-1C8.176,5.53,8.478,5.428,8.724,5.553
				c0.247,0.124,0.347,0.424,0.224,0.671l-0.5,1C8.359,7.398,8.183,7.5,8,7.5z"/>
		</g>
		<g>
			<path d="M10,8C9.924,8,9.848,7.983,9.776,7.947C9.529,7.823,9.429,7.523,9.553,7.276l0.5-1c0.124-0.246,0.424-0.348,0.671-0.224
				c0.247,0.124,0.347,0.424,0.224,0.671l-0.5,1C10.359,7.898,10.183,8,10,8z"/>
		</g>
	</g>
</g>
<g id="Layer_40">
</g>
<g id="Toilet_Paper">
</g>
<g id="Skull">
</g>
<g id="Skull_Cake">
</g>
<g id="Eyeball">
</g>
<g id="Castle">
</g>
<g id="Witch_x27_s_Hat">
</g>
<g id="Cobweb_1">
</g>
<g id="Cobweb_2">
</g>
<g id="Spider">
</g>
<g id="Full_Moon">
</g>
<g id="Crescent">
</g>
<g id="Crow">
</g>
<g id="Candy_Holder">
</g>
<g id="Bloody_Knife">
</g>
<g id="Bloody_Axe">
</g>
</svg>
