<?xml version="1.0" encoding="iso-8859-1"?>
<!-- Generator: Adobe Illustrator 19.2.1, SVG Export Plug-In . SVG Version: 6.00 Build 0)  -->
<svg version="1.1" xmlns="http://www.w3.org/2000/svg" xmlns:xlink="http://www.w3.org/1999/xlink" x="0px" y="0px"
	 viewBox="0 0 24 24" style="enable-background:new 0 0 24 24;" xml:space="preserve">
<g id="Pompkin">
</g>
<g id="Layer_10">
</g>
<g id="Bat">
</g>
<g id="Ghost">
</g>
<g id="Bone_Hand">
</g>
<g id="Tree_Ghost">
</g>
<g id="Gate">
</g>
<g id="Cemetery_1">
</g>
<g id="Cemetery_2">
</g>
<g id="Devil_x27_s_Fork">
</g>
<g id="Night_Candle">
</g>
<g id="Canlestick">
</g>
<g id="Black_Cat">
</g>
<g id="Witch_Cauldron">
</g>
<g id="Corn_Candy">
</g>
<g id="Layer_29">
</g>
<g id="Bones">
</g>
<g id="Witch_Broom">
</g>
<g id="Owl">
</g>
<g id="Scythe">
</g>
<g id="Grim_Reaper">
</g>
<g id="Coffin">
</g>
<g id="Dracula">
</g>
<g id="Frankenstein">
</g>
<g id="Layer_40">
</g>
<g id="Toilet_Paper">
</g>
<g id="Skull">
</g>
<g id="Skull_Cake">
</g>
<g id="Eyeball">
</g>
<g id="Castle">
</g>
<g id="Witch_x27_s_Hat">
</g>
<g id="Cobweb_1">
</g>
<g id="Cobweb_2">
</g>
<g id="Spider">
</g>
<g id="Full_Moon">
	<g>
		<g>
			<path d="M6.5,11C5.122,11,4,9.879,4,8.5S5.122,6,6.5,6S9,7.121,9,8.5S7.878,11,6.5,11z M6.5,7C5.673,7,5,7.673,5,8.5
				S5.673,10,6.5,10S8,9.327,8,8.5S7.327,7,6.5,7z"/>
		</g>
		<g>
			<path d="M11.5,6C10.673,6,10,5.327,10,4.5S10.673,3,11.5,3S13,3.673,13,4.5S12.327,6,11.5,6z M11.5,4C11.224,4,11,4.225,11,4.5
				S11.224,5,11.5,5S12,4.775,12,4.5S11.776,4,11.5,4z"/>
		</g>
		<g>
			<path d="M11.5,24C5.159,24,0,18.841,0,12.5S5.159,1,11.5,1S23,6.159,23,12.5c0,0.802-0.087,1.614-0.259,2.415
				c-0.058,0.271-0.32,0.436-0.594,0.385c-0.27-0.059-0.442-0.324-0.384-0.594C21.92,13.974,22,13.231,22,12.5
				C22,6.71,17.29,2,11.5,2S1,6.71,1,12.5S5.71,23,11.5,23c3.95,0,7.529-2.19,9.338-5.716c0.126-0.245,0.427-0.343,0.673-0.216
				c0.246,0.126,0.342,0.427,0.216,0.673C19.746,21.602,15.827,24,11.5,24z"/>
		</g>
		<g>
			<g>
				<path d="M14.609,22c-0.276,0-0.5-0.224-0.5-0.5c0-0.427-0.157-0.713-0.467-0.853c-0.403-0.18-0.937-0.073-1.18,0.144
					c-0.158,0.141-0.387,0.165-0.572,0.064s-0.287-0.308-0.254-0.516c0.067-0.43-0.03-0.753-0.297-0.989
					c-0.484-0.43-1.352-0.468-1.702-0.369c-0.241,0.069-0.493-0.052-0.594-0.279c-0.395-0.894-1.912-0.867-3.491-0.705
					c-0.155,0.02-0.309-0.041-0.416-0.155c-0.107-0.113-0.154-0.271-0.128-0.425c0.528-3.145,2.308-3.827,4.771-4.771
					c0.476-0.183,0.985-0.378,1.528-0.606c0.21-0.088,0.459-0.022,0.596,0.164c0.137,0.186,0.129,0.441-0.02,0.618
					c-0.491,0.586-0.325,0.959-0.27,1.081c0.202,0.451,0.815,0.839,1.388,1.009c0-0.573-0.001-1.351-0.001-1.351
					c0-0.23,0.156-0.431,0.379-0.486c0.22-0.056,0.455,0.049,0.563,0.251l0.353,0.662c0.129-0.002,0.271-0.003,0.404,0l0.355-0.711
					c0.104-0.207,0.335-0.32,0.563-0.263C15.841,13.066,16,13.269,16,13.501c0,0-0.001,0.817-0.001,1.41
					c0.573-0.17,1.186-0.558,1.388-1.009c0.055-0.122,0.221-0.495-0.27-1.081c-0.148-0.177-0.157-0.433-0.02-0.618
					c0.138-0.187,0.386-0.252,0.596-0.164c0.543,0.229,1.052,0.424,1.528,0.606c2.463,0.944,4.244,1.627,4.771,4.771
					c0.027,0.16-0.025,0.323-0.14,0.438c-0.115,0.113-0.276,0.165-0.438,0.139c-1.163-0.2-2.786-0.104-3.525,0.819
					c-0.126,0.156-0.335,0.224-0.527,0.169c-0.287-0.087-0.902,0.075-1.328,0.43c-0.229,0.19-0.493,0.512-0.451,0.959
					c0.02,0.207-0.091,0.404-0.277,0.496c-0.187,0.091-0.41,0.058-0.562-0.084c-0.264-0.247-0.78-0.318-1.147-0.159
					c-0.325,0.141-0.49,0.436-0.49,0.877C15.109,21.776,14.885,22,14.609,22z M13.186,19.559c0.3,0,0.6,0.058,0.866,0.177
					c0.214,0.097,0.399,0.228,0.552,0.388c0.163-0.175,0.363-0.316,0.597-0.418c0.465-0.201,1.009-0.217,1.488-0.071
					c0.127-0.369,0.367-0.707,0.708-0.99c0.55-0.458,1.306-0.711,1.912-0.679c0.881-0.886,2.291-1.13,3.557-1.043
					c-0.542-2.017-1.829-2.51-4.001-3.343c-0.136-0.052-0.274-0.105-0.416-0.16c0.035,0.379-0.057,0.688-0.148,0.892
					c-0.449,1.004-1.794,1.658-2.784,1.689c-0.13,0.005-0.265-0.046-0.362-0.139c-0.097-0.094-0.152-0.222-0.154-0.355
					c0-0.055-0.001-0.253-0.001-0.506c-0.024,0-0.049-0.002-0.074-0.006c-0.12-0.013-0.745-0.011-0.861,0.002
					c-0.021,0.002-0.041,0.005-0.063,0.003c0,0.252,0,0.451-0.001,0.507c-0.001,0.134-0.057,0.262-0.154,0.355
					c-0.097,0.093-0.22,0.142-0.362,0.139c-0.99-0.031-2.335-0.686-2.784-1.689c-0.091-0.203-0.183-0.513-0.148-0.892
					c-0.142,0.055-0.28,0.108-0.416,0.16c-2.179,0.835-3.466,1.329-4.006,3.36c1.232-0.096,2.873-0.069,3.63,1.009
					c0.665-0.059,1.601,0.086,2.241,0.653c0.243,0.216,0.503,0.547,0.607,1.028C12.795,19.583,12.991,19.559,13.186,19.559z"/>
			</g>
			<g>
				<path d="M9.5,15c-0.128,0-0.256-0.049-0.354-0.146c-0.195-0.195-0.195-0.512,0-0.707l1.5-1.5c0.195-0.195,0.512-0.195,0.707,0
					s0.195,0.512,0,0.707l-1.5,1.5C9.756,14.951,9.628,15,9.5,15z"/>
			</g>
			<g>
				<path d="M19.5,15c-0.162,0-0.32-0.078-0.417-0.223l-1-1.5c-0.153-0.229-0.091-0.54,0.139-0.693
					c0.229-0.154,0.54-0.091,0.693,0.139l1,1.5c0.153,0.229,0.091,0.54-0.139,0.693C19.692,14.973,19.596,15,19.5,15z"/>
			</g>
		</g>
	</g>
</g>
<g id="Crescent">
</g>
<g id="Crow">
</g>
<g id="Candy_Holder">
</g>
<g id="Bloody_Knife">
</g>
<g id="Bloody_Axe">
</g>
</svg>
