<?xml version="1.0" encoding="iso-8859-1"?>
<!-- Generator: Adobe Illustrator 19.2.1, SVG Export Plug-In . SVG Version: 6.00 Build 0)  -->
<svg version="1.1" xmlns="http://www.w3.org/2000/svg" xmlns:xlink="http://www.w3.org/1999/xlink" x="0px" y="0px"
	 viewBox="0 0 24 24" style="enable-background:new 0 0 24 24;" xml:space="preserve">
<g id="Pompkin">
</g>
<g id="Layer_10">
</g>
<g id="Bat">
</g>
<g id="Ghost">
</g>
<g id="Bone_Hand">
</g>
<g id="Tree_Ghost">
</g>
<g id="Gate">
	<g>
		<g>
			<path d="M1.5,24C1.224,24,1,23.776,1,23.5v-18C1,5.224,1.224,5,1.5,5S2,5.224,2,5.5v18C2,23.776,1.776,24,1.5,24z"/>
		</g>
		<g>
			<path d="M2.5,6h-2C0.298,6,0.115,5.878,0.038,5.691S0.004,5.29,0.146,5.146l1-1c0.195-0.195,0.512-0.195,0.707,0l1,1
				C2.996,5.29,3.039,5.504,2.962,5.691S2.702,6,2.5,6z"/>
		</g>
		<g>
			<path d="M6.5,24C6.224,24,6,23.776,6,23.5v-20C6,3.224,6.224,3,6.5,3S7,3.224,7,3.5v20C7,23.776,6.776,24,6.5,24z"/>
		</g>
		<g>
			<path d="M7.5,4h-2C5.298,4,5.115,3.878,5.038,3.691S5.004,3.29,5.146,3.146l1-1c0.195-0.195,0.512-0.195,0.707,0l1,1
				C7.996,3.29,8.039,3.504,7.962,3.691S7.702,4,7.5,4z"/>
		</g>
		<g>
			<path d="M21.5,24c-0.276,0-0.5-0.224-0.5-0.5v-18C21,5.224,21.224,5,21.5,5S22,5.224,22,5.5v18C22,23.776,21.776,24,21.5,24z"/>
		</g>
		<g>
			<path d="M22.5,6h-2c-0.202,0-0.385-0.122-0.462-0.309s-0.034-0.402,0.108-0.545l1-1c0.195-0.195,0.512-0.195,0.707,0l1,1
				c0.143,0.143,0.186,0.358,0.108,0.545S22.702,6,22.5,6z"/>
		</g>
		<g>
			<path d="M16.5,24c-0.276,0-0.5-0.224-0.5-0.5v-20C16,3.224,16.224,3,16.5,3S17,3.224,17,3.5v20C17,23.776,16.776,24,16.5,24z"/>
		</g>
		<g>
			<path d="M17.5,4h-2c-0.202,0-0.385-0.122-0.462-0.309s-0.034-0.402,0.108-0.545l1-1c0.195-0.195,0.512-0.195,0.707,0l1,1
				c0.143,0.143,0.186,0.358,0.108,0.545S17.702,4,17.5,4z"/>
		</g>
		<g>
			<path d="M11.5,24c-0.276,0-0.5-0.224-0.5-0.5v-22C11,1.224,11.224,1,11.5,1S12,1.224,12,1.5v22C12,23.776,11.776,24,11.5,24z"/>
		</g>
		<g>
			<path d="M12.5,2h-2c-0.202,0-0.385-0.122-0.462-0.309s-0.034-0.402,0.108-0.545l1-1c0.195-0.195,0.512-0.195,0.707,0l1,1
				c0.143,0.143,0.186,0.358,0.108,0.545S12.702,2,12.5,2z"/>
		</g>
		<g>
			<path d="M22.5,20h-22C0.224,20,0,19.776,0,19.5S0.224,19,0.5,19h22c0.276,0,0.5,0.224,0.5,0.5S22.776,20,22.5,20z"/>
		</g>
		<g>
			<path d="M22.5,14h-22C0.224,14,0,13.776,0,13.5S0.224,13,0.5,13h22c0.276,0,0.5,0.224,0.5,0.5S22.776,14,22.5,14z"/>
		</g>
		<g>
			<path d="M22.501,8c-0.016,0-0.031,0-0.046-0.002l-11-1l-10.91,1C0.291,8.023,0.026,7.821,0.002,7.545
				C-0.023,7.27,0.18,7.027,0.455,7.002l11-1l11.09,1c0.275,0.025,0.479,0.268,0.453,0.543C22.975,7.805,22.756,8,22.501,8z"/>
		</g>
	</g>
</g>
<g id="Cemetery_1">
</g>
<g id="Cemetery_2">
</g>
<g id="Devil_x27_s_Fork">
</g>
<g id="Night_Candle">
</g>
<g id="Canlestick">
</g>
<g id="Black_Cat">
</g>
<g id="Witch_Cauldron">
</g>
<g id="Corn_Candy">
</g>
<g id="Layer_29">
</g>
<g id="Bones">
</g>
<g id="Witch_Broom">
</g>
<g id="Owl">
</g>
<g id="Scythe">
</g>
<g id="Grim_Reaper">
</g>
<g id="Coffin">
</g>
<g id="Dracula">
</g>
<g id="Frankenstein">
</g>
<g id="Layer_40">
</g>
<g id="Toilet_Paper">
</g>
<g id="Skull">
</g>
<g id="Skull_Cake">
</g>
<g id="Eyeball">
</g>
<g id="Castle">
</g>
<g id="Witch_x27_s_Hat">
</g>
<g id="Cobweb_1">
</g>
<g id="Cobweb_2">
</g>
<g id="Spider">
</g>
<g id="Full_Moon">
</g>
<g id="Crescent">
</g>
<g id="Crow">
</g>
<g id="Candy_Holder">
</g>
<g id="Bloody_Knife">
</g>
<g id="Bloody_Axe">
</g>
</svg>
