<?xml version="1.0" encoding="iso-8859-1"?>
<!-- Generator: Adobe Illustrator 19.2.1, SVG Export Plug-In . SVG Version: 6.00 Build 0)  -->
<svg version="1.1" xmlns="http://www.w3.org/2000/svg" xmlns:xlink="http://www.w3.org/1999/xlink" x="0px" y="0px"
	 viewBox="0 0 24 24" style="enable-background:new 0 0 24 24;" xml:space="preserve">
<g id="Pompkin">
</g>
<g id="Layer_10">
</g>
<g id="Bat">
</g>
<g id="Ghost">
	<g>
		<g>
			<path d="M13.5,24c-1.144,0-1.724-0.548-2.236-1.032C10.714,22.449,10.239,22,9,22c-1.11,0-1.64,0.366-2.151,0.72
				c-0.632,0.438-1.285,0.891-2.578,0.224C2.25,21.902,0,17.767,0,13.5c0-3.199,1.279-9.678,2.537-10.418
				c0.229-0.134,0.486-0.141,0.706-0.019c0.464,0.258,0.664,0.921,0.941,1.839C4.694,6.597,5.221,8,6.5,8
				c0.653,0,1.097-0.122,1.32-0.362c0.292-0.315,0.25-0.902,0.208-1.469C8.01,5.927,7.995,5.694,8,5.486V4c0-2.206,1.794-4,4-4
				s4,1.794,4,4v1.5C16.083,8,16.498,8,17.5,8c1.298,0,1.802-1.197,2.326-2.761c0.267-0.795,0.477-1.424,0.931-1.676
				c0.195-0.109,0.43-0.115,0.64-0.016c1.07,0.506,1.895,4.615,2.122,5.862C23.83,11.108,24,12.738,24,14
				c0,1.188-0.172,2.411-0.512,3.634c-0.763,2.745-2.238,5.026-3.759,5.811c-0.44,0.226-0.825,0.261-1.141,0.102
				c-0.537-0.269-0.65-0.943-0.77-1.658C17.622,20.713,17.435,20,16.5,20c-0.7,0-1.119,1.113-1.489,2.095
				C14.626,23.117,14.293,24,13.5,24z M9,21c1.636,0,2.365,0.688,2.951,1.241C12.417,22.682,12.754,23,13.5,23
				c0.135-0.088,0.4-0.792,0.576-1.258C14.536,20.521,15.108,19,16.5,19c1.849,0,2.134,1.705,2.305,2.724
				c0.054,0.326,0.136,0.815,0.237,0.929c0.007-0.01,0.083-0.021,0.229-0.097c1.246-0.643,2.584-2.777,3.254-5.189
				C22.84,16.23,23,15.098,23,14c0-1.204-0.165-2.77-0.464-4.411c-0.465-2.551-1.064-4.329-1.426-4.941
				c-0.11,0.235-0.235,0.61-0.335,0.908C20.315,6.928,19.621,9,17.5,9c-2.041,0-2.42-1.075-2.5-3.483L15,4c0-1.654-1.346-3-3-3
				S9,2.346,9,4v1.5C8.995,5.691,9.01,5.889,9.025,6.095c0.052,0.708,0.117,1.589-0.473,2.223C8.127,8.777,7.455,9,6.5,9
				C4.375,9,3.683,6.708,3.226,5.191C3.124,4.852,2.995,4.425,2.879,4.159C2.206,5.295,1,10.014,1,13.5
				c0,3.795,1.969,7.647,3.729,8.556c0.758,0.392,0.99,0.23,1.55-0.158C6.827,21.519,7.577,21,9,21z"/>
		</g>
		<g>
			<path d="M13.5,5c-0.435,0-0.75-0.42-0.75-1c0-0.323,0.112-0.625,0.298-0.806C13.183,3.063,13.342,2.997,13.531,3
				c0.43,0.014,0.719,0.416,0.719,1C14.25,4.58,13.935,5,13.5,5z"/>
		</g>
		<g>
			<path d="M10.5,5c-0.435,0-0.75-0.42-0.75-1c0-0.323,0.112-0.625,0.298-0.806C10.183,3.063,10.346,2.997,10.531,3
				c0.43,0.014,0.719,0.416,0.719,1C11.25,4.58,10.935,5,10.5,5z"/>
		</g>
		<g>
			<path d="M12,8.5c-0.58,0-1-0.631-1-1.5s0.42-1.5,1-1.5s1,0.631,1,1.5S12.58,8.5,12,8.5z"/>
		</g>
	</g>
</g>
<g id="Bone_Hand">
</g>
<g id="Tree_Ghost">
</g>
<g id="Gate">
</g>
<g id="Cemetery_1">
</g>
<g id="Cemetery_2">
</g>
<g id="Devil_x27_s_Fork">
</g>
<g id="Night_Candle">
</g>
<g id="Canlestick">
</g>
<g id="Black_Cat">
</g>
<g id="Witch_Cauldron">
</g>
<g id="Corn_Candy">
</g>
<g id="Layer_29">
</g>
<g id="Bones">
</g>
<g id="Witch_Broom">
</g>
<g id="Owl">
</g>
<g id="Scythe">
</g>
<g id="Grim_Reaper">
</g>
<g id="Coffin">
</g>
<g id="Dracula">
</g>
<g id="Frankenstein">
</g>
<g id="Layer_40">
</g>
<g id="Toilet_Paper">
</g>
<g id="Skull">
</g>
<g id="Skull_Cake">
</g>
<g id="Eyeball">
</g>
<g id="Castle">
</g>
<g id="Witch_x27_s_Hat">
</g>
<g id="Cobweb_1">
</g>
<g id="Cobweb_2">
</g>
<g id="Spider">
</g>
<g id="Full_Moon">
</g>
<g id="Crescent">
</g>
<g id="Crow">
</g>
<g id="Candy_Holder">
</g>
<g id="Bloody_Knife">
</g>
<g id="Bloody_Axe">
</g>
</svg>
