<?xml version="1.0" encoding="iso-8859-1"?>
<!-- Generator: Adobe Illustrator 19.2.1, SVG Export Plug-In . SVG Version: 6.00 Build 0)  -->
<svg version="1.1" xmlns="http://www.w3.org/2000/svg" xmlns:xlink="http://www.w3.org/1999/xlink" x="0px" y="0px"
	 viewBox="0 0 24 24" style="enable-background:new 0 0 24 24;" xml:space="preserve">
<g id="Pompkin">
</g>
<g id="Layer_10">
</g>
<g id="Bat">
</g>
<g id="Ghost">
</g>
<g id="Bone_Hand">
</g>
<g id="Tree_Ghost">
</g>
<g id="Gate">
</g>
<g id="Cemetery_1">
</g>
<g id="Cemetery_2">
</g>
<g id="Devil_x27_s_Fork">
</g>
<g id="Night_Candle">
</g>
<g id="Canlestick">
</g>
<g id="Black_Cat">
</g>
<g id="Witch_Cauldron">
</g>
<g id="Corn_Candy">
</g>
<g id="Layer_29">
</g>
<g id="Bones">
</g>
<g id="Witch_Broom">
</g>
<g id="Owl">
</g>
<g id="Scythe">
</g>
<g id="Grim_Reaper">
	<g>
		<g>
			<path d="M4.494,10.967c-0.174,0-0.342-0.091-0.435-0.252l-4-7c-0.12-0.209-0.073-0.474,0.11-0.629
				c0.245-0.208,6.179-5.055,22.413-2.111c0.257,0.047,0.435,0.283,0.408,0.543s-0.209,0.441-0.51,0.449
				C16.129,1.799,4.868,2.617,2.946,6.681C2.94,6.693,2.934,6.705,2.927,6.717l2.001,3.502c0.137,0.239,0.054,0.545-0.186,0.683
				C4.664,10.945,4.578,10.967,4.494,10.967z M1.152,3.611l1.2,2.1c2.084-3.087,8.569-4.188,13.66-4.567
				C6.762,0.51,2.335,2.843,1.152,3.611z"/>
		</g>
		<g>
			<path d="M23.494,23.967h-20c-0.229,0-0.429-0.156-0.485-0.379c-0.111-0.442,0.134-1.059,0.539-2.08
				c0.563-1.421,1.335-3.368,1.447-5.566c0.191-3.751,2.596-11.975,8.5-11.975c5.749,0,8.264,7.345,8.5,11.975
				c0.112,2.198,0.883,4.146,1.447,5.566c0.405,1.021,0.649,1.638,0.539,2.08C23.923,23.811,23.723,23.967,23.494,23.967z
				 M4.067,22.967h18.854c-0.097-0.298-0.261-0.71-0.412-1.09c-0.556-1.402-1.396-3.521-1.516-5.885
				c-0.183-3.598-2.257-11.025-7.5-11.025c-5.192,0-7.325,7.571-7.5,11.025c-0.12,2.363-0.96,4.482-1.516,5.885
				C4.327,22.256,4.164,22.666,4.067,22.967z"/>
		</g>
		<g>
			<path d="M16.494,18.967h-6c-0.276,0-0.5-0.224-0.5-0.5v-1.78c-1.274-1.055-2-2.578-2-4.22c0-3.032,2.467-5.5,5.5-5.5
				s5.5,2.468,5.5,5.5c0,1.642-0.726,3.166-2,4.22v1.78C16.994,18.743,16.77,18.967,16.494,18.967z M10.994,17.967h5v-1.522
				c0-0.156,0.073-0.305,0.199-0.398c1.145-0.866,1.801-2.17,1.801-3.579c0-2.481-2.019-4.5-4.5-4.5s-4.5,2.019-4.5,4.5
				c0,1.408,0.657,2.713,1.802,3.579c0.125,0.094,0.198,0.242,0.198,0.398V17.967z"/>
		</g>
		<g>
			<path d="M14.494,18.967c-0.276,0-0.5-0.224-0.5-0.5v-1c0-0.276,0.224-0.5,0.5-0.5s0.5,0.224,0.5,0.5v1
				C14.994,18.743,14.77,18.967,14.494,18.967z"/>
		</g>
		<g>
			<path d="M12.494,18.967c-0.276,0-0.5-0.224-0.5-0.5v-1c0-0.276,0.224-0.5,0.5-0.5s0.5,0.224,0.5,0.5v1
				C12.994,18.743,12.77,18.967,12.494,18.967z"/>
		</g>
		<g>
			<path d="M15.485,15.003c-0.474,0-0.905-0.184-1.181-0.503c-0.255-0.296-0.364-0.68-0.305-1.083l0,0
				c0.092-0.631,1.138-1.431,1.896-1.45c0.546-0.014,0.955,0.329,1.072,0.919c0.098,0.499-0.082,1.134-0.449,1.58
				C16.234,14.813,15.867,15.003,15.485,15.003z M14.986,13.584c-0.011,0.104,0.014,0.192,0.074,0.262
				c0.086,0.1,0.241,0.157,0.425,0.157c0.076,0,0.171-0.063,0.261-0.172c0.193-0.235,0.275-0.573,0.24-0.752
				c-0.015-0.075-0.035-0.11-0.042-0.118C15.751,12.897,15.101,13.344,14.986,13.584z M14.98,13.596L14.98,13.596L14.98,13.596
				L14.98,13.596z M14.494,13.489h0.01H14.494z"/>
		</g>
		<g>
			<path d="M11.494,15.003c-0.386,0-0.756-0.192-1.043-0.542c-0.366-0.446-0.546-1.08-0.447-1.576
				c0.117-0.588,0.516-0.912,1.076-0.918c0.763,0.02,1.816,0.818,1.909,1.449c0,0,0,0,0,0.001c0.059,0.401-0.049,0.784-0.304,1.079
				C12.407,14.818,11.973,15.003,11.494,15.003z M11.062,12.963c-0.018,0-0.034,0.002-0.047,0.007c0.004,0-0.016,0.035-0.031,0.11
				c-0.035,0.176,0.046,0.512,0.239,0.746c0.092,0.112,0.191,0.177,0.271,0.177c0.188,0,0.347-0.059,0.435-0.16
				c0.059-0.068,0.084-0.155,0.074-0.258C11.887,13.347,11.295,12.963,11.062,12.963z"/>
		</g>
	</g>
</g>
<g id="Coffin">
</g>
<g id="Dracula">
</g>
<g id="Frankenstein">
</g>
<g id="Layer_40">
</g>
<g id="Toilet_Paper">
</g>
<g id="Skull">
</g>
<g id="Skull_Cake">
</g>
<g id="Eyeball">
</g>
<g id="Castle">
</g>
<g id="Witch_x27_s_Hat">
</g>
<g id="Cobweb_1">
</g>
<g id="Cobweb_2">
</g>
<g id="Spider">
</g>
<g id="Full_Moon">
</g>
<g id="Crescent">
</g>
<g id="Crow">
</g>
<g id="Candy_Holder">
</g>
<g id="Bloody_Knife">
</g>
<g id="Bloody_Axe">
</g>
</svg>
