<?xml version="1.0" encoding="iso-8859-1"?>
<!-- Generator: Adobe Illustrator 19.2.1, SVG Export Plug-In . SVG Version: 6.00 Build 0)  -->
<svg version="1.1" xmlns="http://www.w3.org/2000/svg" xmlns:xlink="http://www.w3.org/1999/xlink" x="0px" y="0px"
	 viewBox="0 0 24 24" style="enable-background:new 0 0 24 24;" xml:space="preserve">
<g id="Pompkin">
</g>
<g id="Layer_10">
</g>
<g id="Bat">
</g>
<g id="Ghost">
</g>
<g id="Bone_Hand">
</g>
<g id="Tree_Ghost">
</g>
<g id="Gate">
</g>
<g id="Cemetery_1">
</g>
<g id="Cemetery_2">
</g>
<g id="Devil_x27_s_Fork">
</g>
<g id="Night_Candle">
</g>
<g id="Canlestick">
</g>
<g id="Black_Cat">
</g>
<g id="Witch_Cauldron">
</g>
<g id="Corn_Candy">
</g>
<g id="Layer_29">
	<g>
		<g>
			<path d="M7.501,14.999c-2.003,0-3.887-0.78-5.304-2.197c-2.924-2.924-2.924-7.682,0-10.606c2.924-2.924,7.683-2.924,10.606,0l0,0
				l0,0c2.487,2.487,2.919,6.305,1.049,9.284c0,0-0.001,0-0.001,0.001c-0.308,0.489-0.66,0.934-1.048,1.321
				C11.388,14.219,9.504,14.999,7.501,14.999z M3.03,8.523c0,2.725,2.217,4.942,4.942,4.942c2.007,0,3.85-0.929,5.055-2.549
				c1.599-2.549,1.225-5.858-0.931-8.013l0,0c-2.534-2.535-6.658-2.534-9.192,0c-2.534,2.535-2.534,6.658,0,9.192
				c0.383,0.383,0.805,0.711,1.257,0.983C2.859,11.988,2.03,10.35,2.03,8.523c0-2.676,2.178-4.854,4.854-4.854
				c2.196,0,3.983,1.787,3.983,3.983c0,1.812-1.475,3.287-3.286,3.287c-1.505,0-2.729-1.224-2.729-2.729
				c0-1.259,1.024-2.284,2.283-2.284c1.063,0,1.927,0.864,1.927,1.927c0,0.276-0.224,0.5-0.5,0.5s-0.5-0.224-0.5-0.5
				c0-0.511-0.416-0.927-0.927-0.927c-0.708,0-1.283,0.576-1.283,1.284c0,0.954,0.775,1.729,1.729,1.729
				c1.261,0,2.286-1.026,2.286-2.287c0-1.645-1.338-2.983-2.983-2.983C4.759,4.669,3.03,6.398,3.03,8.523z"/>
		</g>
		<g>
			<path d="M22.499,24c-0.384,0-0.769-0.146-1.061-0.438L11.387,13.509c-0.195-0.195-0.195-0.512,0-0.707l1.414-1.414
				c0.188-0.188,0.52-0.188,0.707,0L23.56,21.44c0.283,0.283,0.439,0.66,0.439,1.061c0,0.4-0.156,0.777-0.439,1.061
				C23.268,23.854,22.883,24,22.499,24z M12.447,13.156l9.698,9.699c0.195,0.194,0.512,0.195,0.707,0
				c0.095-0.095,0.146-0.22,0.146-0.354c0-0.134-0.052-0.259-0.146-0.353l-9.698-9.699L12.447,13.156z"/>
		</g>
	</g>
</g>
<g id="Bones">
</g>
<g id="Witch_Broom">
</g>
<g id="Owl">
</g>
<g id="Scythe">
</g>
<g id="Grim_Reaper">
</g>
<g id="Coffin">
</g>
<g id="Dracula">
</g>
<g id="Frankenstein">
</g>
<g id="Layer_40">
</g>
<g id="Toilet_Paper">
</g>
<g id="Skull">
</g>
<g id="Skull_Cake">
</g>
<g id="Eyeball">
</g>
<g id="Castle">
</g>
<g id="Witch_x27_s_Hat">
</g>
<g id="Cobweb_1">
</g>
<g id="Cobweb_2">
</g>
<g id="Spider">
</g>
<g id="Full_Moon">
</g>
<g id="Crescent">
</g>
<g id="Crow">
</g>
<g id="Candy_Holder">
</g>
<g id="Bloody_Knife">
</g>
<g id="Bloody_Axe">
</g>
</svg>
