<?xml version="1.0" encoding="iso-8859-1"?>
<!-- Generator: Adobe Illustrator 19.2.1, SVG Export Plug-In . SVG Version: 6.00 Build 0)  -->
<svg version="1.1" xmlns="http://www.w3.org/2000/svg" xmlns:xlink="http://www.w3.org/1999/xlink" x="0px" y="0px"
	 viewBox="0 0 24 24" style="enable-background:new 0 0 24 24;" xml:space="preserve">
<g id="Pompkin">
</g>
<g id="Layer_10">
</g>
<g id="Bat">
</g>
<g id="Ghost">
</g>
<g id="Bone_Hand">
</g>
<g id="Tree_Ghost">
</g>
<g id="Gate">
</g>
<g id="Cemetery_1">
</g>
<g id="Cemetery_2">
</g>
<g id="Devil_x27_s_Fork">
</g>
<g id="Night_Candle">
</g>
<g id="Canlestick">
</g>
<g id="Black_Cat">
</g>
<g id="Witch_Cauldron">
</g>
<g id="Corn_Candy">
</g>
<g id="Layer_29">
</g>
<g id="Bones">
</g>
<g id="Witch_Broom">
</g>
<g id="Owl">
</g>
<g id="Scythe">
</g>
<g id="Grim_Reaper">
</g>
<g id="Coffin">
</g>
<g id="Dracula">
</g>
<g id="Frankenstein">
</g>
<g id="Layer_40">
	<g>
		<g>
			<path d="M12.5,24c-0.276,0-0.5-0.224-0.5-0.5v-13c0-0.276,0.224-0.5,0.5-0.5s0.5,0.224,0.5,0.5v13C13,23.776,12.776,24,12.5,24z"
				/>
		</g>
		<g>
			<path d="M23.5,13h-23C0.224,13,0,12.776,0,12.5S0.224,12,0.5,12h23c0.276,0,0.5,0.224,0.5,0.5S23.776,13,23.5,13z"/>
		</g>
		<g>
			<path d="M14.5,11h-4c-0.276,0-0.5-0.224-0.5-0.5V9.222C8.759,8.388,8,6.987,8,5.5c0-0.783,0.217-1.563,0.626-2.255
				C8.716,3.093,8.88,3,9.057,3h6.887c0.177,0,0.34,0.093,0.43,0.245C16.783,3.938,17,4.717,17,5.5c0,1.487-0.759,2.888-2,3.722
				V10.5C15,10.776,14.776,11,14.5,11z M11,10h3V8.945c0-0.178,0.095-0.343,0.249-0.432C15.345,7.874,16,6.748,16,5.5
				c0-0.521-0.119-1.025-0.354-1.5H9.354C9.119,4.475,9,4.979,9,5.5c0,1.248,0.655,2.374,1.751,3.014
				C10.905,8.603,11,8.768,11,8.945V10z"/>
		</g>
		<g>
			<path d="M16.5,4h-8C8.224,4,8,3.776,8,3.5v-2C8,0.673,8.673,0,9.5,0h6C16.327,0,17,0.673,17,1.5v2C17,3.776,16.776,4,16.5,4z
				 M9,3h7V1.5C16,1.225,15.776,1,15.5,1h-6C9.224,1,9,1.225,9,1.5V3z"/>
		</g>
		<g>
			<path d="M17.5,4h-10C7.224,4,7,3.776,7,3.5S7.224,3,7.5,3h10C17.776,3,18,3.224,18,3.5S17.776,4,17.5,4z"/>
		</g>
		<g>
			<path d="M14,6c-0.128,0-0.256-0.049-0.354-0.146c-0.195-0.195-0.195-0.512,0-0.707l0.5-0.5c0.195-0.195,0.512-0.195,0.707,0
				s0.195,0.512,0,0.707l-0.5,0.5C14.256,5.951,14.128,6,14,6z"/>
		</g>
		<g>
			<path d="M11,6c-0.128,0-0.256-0.049-0.354-0.146l-0.5-0.5c-0.195-0.195-0.195-0.512,0-0.707s0.512-0.195,0.707,0l0.5,0.5
				c0.195,0.195,0.195,0.512,0,0.707C11.256,5.951,11.128,6,11,6z"/>
		</g>
		<g>
			<path d="M12.5,23c-0.045,0-0.092-0.006-0.137-0.02c-0.21-0.06-0.357-0.249-0.363-0.468c-0.026-1-0.631-1.479-1.133-1.703
				c-0.792-0.355-1.676-0.237-2.043,0.071c-0.148,0.126-0.357,0.152-0.533,0.073C8.113,20.872,8,20.694,8,20.5l0.005-0.53
				c0.015-1.011,0.029-1.965-0.43-2.707c-0.106-0.171-0.77-0.521-1.378-0.417c-0.39,0.069-0.614,0.31-0.707,0.756
				c-0.054,0.26-0.301,0.436-0.565,0.393c-0.263-0.04-0.448-0.278-0.422-0.543c0.097-0.998-0.25-1.584-0.652-2.263
				C3.444,14.501,2.983,13.723,3,12.493C3.004,12.217,3.222,12.007,3.507,12C3.783,12.004,4.004,12.23,4,12.507
				c-0.013,0.948,0.339,1.543,0.711,2.172c0.245,0.415,0.51,0.861,0.667,1.415c0.189-0.111,0.405-0.19,0.645-0.232
				c0.96-0.17,2.061,0.321,2.403,0.876c0.56,0.904,0.594,1.94,0.583,2.959c0.688-0.188,1.53-0.13,2.266,0.2
				c0.713,0.319,1.23,0.848,1.504,1.513c0.998-0.927,2.439-1.521,3.768-1.47c0.544,0.019,1.028,0.146,1.435,0.37
				c-0.002-0.096-0.005-0.191-0.008-0.288c-0.068-2.613-0.067-3.991,0.715-4.309c0.224-0.09,0.457-0.071,0.698,0.057
				c0.134-0.18,0.273-0.345,0.409-0.506c0.548-0.651,1.066-1.266,1.206-2.809c0.025-0.275,0.263-0.473,0.543-0.453
				c0.275,0.025,0.478,0.269,0.453,0.543c-0.169,1.856-0.843,2.656-1.437,3.362c-0.23,0.274-0.448,0.532-0.628,0.844
				c-0.08,0.138-0.22,0.229-0.378,0.246c-0.158,0.021-0.315-0.041-0.422-0.159c-0.025-0.026-0.047-0.05-0.068-0.07
				c-0.16,0.593-0.118,2.213-0.091,3.229C18.987,20.517,19,21.031,19,21.5c0,0.228-0.153,0.426-0.373,0.483
				c-0.22,0.06-0.451-0.041-0.563-0.237c-0.359-0.637-1.042-0.79-1.552-0.808c-1.323-0.034-2.878,0.745-3.595,1.836
				C12.824,22.918,12.666,23,12.5,23z"/>
		</g>
		<g>
			<path d="M16.5,18h-2c-0.276,0-0.5-0.224-0.5-0.5v-2c0-0.276,0.224-0.5,0.5-0.5h2c0.276,0,0.5,0.224,0.5,0.5v2
				C17,17.776,16.776,18,16.5,18z M15,17h1v-1h-1V17z"/>
		</g>
		<g>
			<path d="M9.5,16h-1C8.224,16,8,15.776,8,15.5v-1C8,14.224,8.224,14,8.5,14h1c0.276,0,0.5,0.224,0.5,0.5v1
				C10,15.776,9.776,16,9.5,16z"/>
		</g>
		<g>
			<path d="M21.5,13c-0.128,0-0.256-0.049-0.354-0.146c-0.195-0.195-0.195-0.512,0-0.707l1-1c0.195-0.195,0.512-0.195,0.707,0
				s0.195,0.512,0,0.707l-1,1C21.756,12.951,21.628,13,21.5,13z"/>
		</g>
		<g>
			<path d="M22.5,14c-0.128,0-0.256-0.049-0.354-0.146l-1-1c-0.195-0.195-0.195-0.512,0-0.707s0.512-0.195,0.707,0l1,1
				c0.195,0.195,0.195,0.512,0,0.707C22.756,13.951,22.628,14,22.5,14z"/>
		</g>
		<g>
			<path d="M1.5,14c-0.128,0-0.256-0.049-0.354-0.146c-0.195-0.195-0.195-0.512,0-0.707l1-1c0.195-0.195,0.512-0.195,0.707,0
				s0.195,0.512,0,0.707l-1,1C1.756,13.951,1.628,14,1.5,14z"/>
		</g>
		<g>
			<path d="M2.5,13c-0.128,0-0.256-0.049-0.354-0.146l-1-1c-0.195-0.195-0.195-0.512,0-0.707s0.512-0.195,0.707,0l1,1
				c0.195,0.195,0.195,0.512,0,0.707C2.756,12.951,2.628,13,2.5,13z"/>
		</g>
	</g>
</g>
<g id="Toilet_Paper">
</g>
<g id="Skull">
</g>
<g id="Skull_Cake">
</g>
<g id="Eyeball">
</g>
<g id="Castle">
</g>
<g id="Witch_x27_s_Hat">
</g>
<g id="Cobweb_1">
</g>
<g id="Cobweb_2">
</g>
<g id="Spider">
</g>
<g id="Full_Moon">
</g>
<g id="Crescent">
</g>
<g id="Crow">
</g>
<g id="Candy_Holder">
</g>
<g id="Bloody_Knife">
</g>
<g id="Bloody_Axe">
</g>
</svg>
