<?xml version="1.0" encoding="iso-8859-1"?>
<!-- Generator: Adobe Illustrator 19.2.1, SVG Export Plug-In . SVG Version: 6.00 Build 0)  -->
<svg version="1.1" xmlns="http://www.w3.org/2000/svg" xmlns:xlink="http://www.w3.org/1999/xlink" x="0px" y="0px"
	 viewBox="0 0 24 24" style="enable-background:new 0 0 24 24;" xml:space="preserve">
<g id="Pompkin">
</g>
<g id="Layer_10">
	<g>
		<g>
			<path d="M16.501,14c-1.047,0-2.025-0.663-2.374-1.709c-0.087-0.262,0.054-0.545,0.316-0.632l3.795-1.265
				c0.127-0.042,0.264-0.032,0.382,0.027c0.119,0.06,0.209,0.164,0.251,0.289c0.436,1.308-0.274,2.726-1.582,3.162
				C17.029,13.958,16.763,14,16.501,14z M15.315,12.421c0.136,0.174,0.31,0.318,0.514,0.42c0.358,0.179,0.764,0.208,1.145,0.082
				c0.618-0.207,1.014-0.779,1.026-1.396L15.315,12.421z"/>
		</g>
		<g>
			<path d="M8.499,14c-0.261,0-0.527-0.041-0.789-0.128c-1.308-0.437-2.017-1.855-1.582-3.163c0.042-0.125,0.132-0.229,0.251-0.289
				c0.119-0.06,0.255-0.07,0.382-0.027l3.795,1.265c0.262,0.087,0.403,0.37,0.316,0.632C10.523,13.336,9.545,14,8.499,14z M7,11.527
				c0.012,0.617,0.408,1.189,1.026,1.396c0.379,0.126,0.786,0.098,1.145-0.082c0.204-0.102,0.378-0.246,0.514-0.42L7,11.527z"/>
		</g>
		<g>
			<path d="M14.611,20.834c-0.242,0-0.454-0.175-0.493-0.422l-0.313-1.976c-0.043-0.272,0.143-0.529,0.416-0.572
				c0.275-0.047,0.528,0.143,0.572,0.416l0.313,1.976c0.043,0.272-0.143,0.529-0.416,0.572
				C14.664,20.832,14.637,20.834,14.611,20.834z"/>
		</g>
		<g>
			<path d="M16.672,20.339c-0.211,0-0.407-0.134-0.476-0.346l-0.618-1.902c-0.085-0.262,0.059-0.544,0.321-0.63
				c0.262-0.086,0.544,0.059,0.63,0.321l0.618,1.902c0.085,0.262-0.059,0.544-0.321,0.63C16.775,20.332,16.723,20.339,16.672,20.339
				z"/>
		</g>
		<g>
			<path d="M18.629,19.529c-0.182,0-0.357-0.1-0.446-0.273l-0.908-1.782c-0.125-0.246-0.028-0.547,0.218-0.672
				c0.246-0.126,0.547-0.028,0.672,0.218l0.908,1.782c0.125,0.246,0.028,0.547-0.218,0.672
				C18.783,19.511,18.706,19.529,18.629,19.529z"/>
		</g>
		<g>
			<path d="M20.436,18.422c-0.155,0-0.307-0.071-0.405-0.206l-1.175-1.618c-0.162-0.224-0.112-0.536,0.111-0.699
				c0.225-0.161,0.536-0.112,0.699,0.111l1.175,1.618c0.162,0.224,0.112,0.536-0.111,0.699
				C20.64,18.391,20.537,18.422,20.436,18.422z"/>
		</g>
		<g>
			<path d="M10.389,20.834c-0.026,0-0.052-0.002-0.079-0.006c-0.273-0.043-0.459-0.299-0.416-0.572l0.313-1.976
				c0.043-0.272,0.301-0.461,0.572-0.416c0.273,0.043,0.459,0.299,0.416,0.572l-0.313,1.976
				C10.843,20.659,10.63,20.834,10.389,20.834z"/>
		</g>
		<g>
			<path d="M8.328,20.339c-0.051,0-0.103-0.008-0.154-0.024c-0.263-0.085-0.407-0.368-0.321-0.63l0.618-1.902
				c0.085-0.263,0.367-0.407,0.63-0.321c0.263,0.085,0.407,0.368,0.321,0.63l-0.618,1.902C8.735,20.205,8.539,20.339,8.328,20.339z"
				/>
		</g>
		<g>
			<path d="M6.371,19.529c-0.076,0-0.154-0.018-0.227-0.055c-0.246-0.125-0.344-0.426-0.218-0.672l0.908-1.782
				c0.125-0.246,0.425-0.344,0.672-0.218c0.246,0.125,0.344,0.426,0.218,0.672l-0.908,1.782C6.728,19.429,6.553,19.529,6.371,19.529
				z"/>
		</g>
		<g>
			<path d="M4.564,18.422c-0.102,0-0.205-0.031-0.293-0.095c-0.223-0.163-0.273-0.475-0.111-0.699l1.175-1.618
				c0.162-0.224,0.474-0.273,0.699-0.111c0.223,0.163,0.273,0.475,0.111,0.699L4.97,18.216C4.872,18.351,4.719,18.422,4.564,18.422z
				"/>
		</g>
		<g>
			<path d="M12.5,20c-3.324,0-6.487-1.254-8.907-3.531c-0.201-0.189-0.21-0.506-0.021-0.707c0.189-0.202,0.506-0.211,0.707-0.021
				C6.512,17.843,9.432,19,12.5,19s5.988-1.157,8.222-3.259c0.201-0.189,0.517-0.18,0.707,0.021c0.189,0.201,0.18,0.518-0.021,0.707
				C18.987,18.746,15.824,20,12.5,20z"/>
		</g>
		<g>
			<path d="M12.5,21c-0.276,0-0.5-0.224-0.5-0.5v-2c0-0.276,0.224-0.5,0.5-0.5s0.5,0.224,0.5,0.5v2C13,20.776,12.776,21,12.5,21z"/>
		</g>
		<g>
			<path d="M15.5,24c-1.325,0-2.638-0.33-3.815-0.956C10.548,23.67,9.28,24,8,24c-4.411,0-8-3.799-8-8.469
				c0-4.345,3.134-8.358,6.987-8.946c0.261-0.039,0.497,0.122,0.561,0.372C7.6,7.165,7.513,7.378,7.343,7.494
				C8.102,7.728,9.841,8,12.5,8c2.63,0,4.361-0.267,5.133-0.499c-0.534-0.16-1.543-0.344-3.083-0.439
				c-0.258-0.016-0.461-0.226-0.469-0.484c-0.007-0.258,0.183-0.48,0.439-0.511C14.842,6.027,15.167,6,15.5,6
				c4.687,0,8.5,4.038,8.5,9S20.187,24,15.5,24z M11.681,21.97c0.086,0,0.173,0.022,0.25,0.067C13.02,22.667,14.254,23,15.5,23
				c4.136,0,7.5-3.589,7.5-8c0-3.114-1.677-5.818-4.118-7.139C18.198,8.842,14.684,9,12.5,9c-2.204,0-5.765-0.161-6.401-1.167
				C3.208,8.84,1,12.065,1,15.531C1,19.649,4.14,23,8,23c1.195,0,2.378-0.332,3.423-0.958C11.502,21.994,11.592,21.97,11.681,21.97z
				 M18.065,7.689h0.01H18.065z"/>
		</g>
		<g>
			<path d="M12.5,9C10.072,9,6,8.805,6,7.5S10.072,6,12.5,6S19,6.195,19,7.5S14.928,9,12.5,9z M7.364,7.5
				C8.134,7.732,9.866,8,12.5,8s4.366-0.268,5.136-0.5C16.866,7.268,15.134,7,12.5,7S8.134,7.268,7.364,7.5z M18.065,7.688h0.01
				H18.065z"/>
		</g>
		<g>
			<path d="M18.5,8C18.224,8,18,7.776,18,7.5v-1C18,3.467,15.533,1,12.5,1S7,3.467,7,6.5v1C7,7.776,6.776,8,6.5,8S6,7.776,6,7.5v-1
				C6,2.916,8.916,0,12.5,0S19,2.916,19,6.5v1C19,7.776,18.776,8,18.5,8z"/>
		</g>
	</g>
</g>
<g id="Bat">
</g>
<g id="Ghost">
</g>
<g id="Bone_Hand">
</g>
<g id="Tree_Ghost">
</g>
<g id="Gate">
</g>
<g id="Cemetery_1">
</g>
<g id="Cemetery_2">
</g>
<g id="Devil_x27_s_Fork">
</g>
<g id="Night_Candle">
</g>
<g id="Canlestick">
</g>
<g id="Black_Cat">
</g>
<g id="Witch_Cauldron">
</g>
<g id="Corn_Candy">
</g>
<g id="Layer_29">
</g>
<g id="Bones">
</g>
<g id="Witch_Broom">
</g>
<g id="Owl">
</g>
<g id="Scythe">
</g>
<g id="Grim_Reaper">
</g>
<g id="Coffin">
</g>
<g id="Dracula">
</g>
<g id="Frankenstein">
</g>
<g id="Layer_40">
</g>
<g id="Toilet_Paper">
</g>
<g id="Skull">
</g>
<g id="Skull_Cake">
</g>
<g id="Eyeball">
</g>
<g id="Castle">
</g>
<g id="Witch_x27_s_Hat">
</g>
<g id="Cobweb_1">
</g>
<g id="Cobweb_2">
</g>
<g id="Spider">
</g>
<g id="Full_Moon">
</g>
<g id="Crescent">
</g>
<g id="Crow">
</g>
<g id="Candy_Holder">
</g>
<g id="Bloody_Knife">
</g>
<g id="Bloody_Axe">
</g>
</svg>
