<?xml version="1.0" encoding="iso-8859-1"?>
<!-- Generator: Adobe Illustrator 19.2.1, SVG Export Plug-In . SVG Version: 6.00 Build 0)  -->
<svg version="1.1" xmlns="http://www.w3.org/2000/svg" xmlns:xlink="http://www.w3.org/1999/xlink" x="0px" y="0px"
	 viewBox="0 0 24 24" style="enable-background:new 0 0 24 24;" xml:space="preserve">
<g id="Pompkin">
</g>
<g id="Layer_10">
</g>
<g id="Bat">
</g>
<g id="Ghost">
</g>
<g id="Bone_Hand">
</g>
<g id="Tree_Ghost">
</g>
<g id="Gate">
</g>
<g id="Cemetery_1">
</g>
<g id="Cemetery_2">
</g>
<g id="Devil_x27_s_Fork">
</g>
<g id="Night_Candle">
	<g>
		<g>
			<path d="M15.5,24h-10C3.019,24,1,21.981,1,19.5C1,19.224,1.224,19,1.5,19h18c0.276,0,0.5,0.224,0.5,0.5
				C20,21.981,17.981,24,15.5,24z M2.036,20c0.243,1.694,1.704,3,3.464,3h10c1.76,0,3.221-1.306,3.464-3H2.036z"/>
		</g>
		<g>
			<path d="M19.5,20c-1.378,0-2.5-1.122-2.5-2.5s1.122-2.5,2.5-2.5s2.5,1.122,2.5,2.5S20.878,20,19.5,20z M19.5,16
				c-0.827,0-1.5,0.673-1.5,1.5s0.673,1.5,1.5,1.5s1.5-0.673,1.5-1.5S20.327,16,19.5,16z"/>
		</g>
		<g>
			<path d="M10.5,7C9.553,7,8.767,6.579,8.344,5.844C7.846,4.979,7.928,3.851,8.567,2.749c1.12-1.929,1.501-2.503,1.517-2.526
				c0.141-0.21,0.417-0.282,0.642-0.169c0.225,0.114,0.33,0.378,0.245,0.615c-0.006-0.021-0.025,0.569,1.383,1.978
				c0.72,0.72,0.918,1.706,0.532,2.638C12.468,6.294,11.486,7,10.5,7z M10.337,1.716c-0.224,0.372-0.52,0.873-0.904,1.535
				C8.983,4.024,8.9,4.807,9.21,5.345C9.454,5.767,9.912,6,10.5,6c0.574,0,1.203-0.472,1.462-1.098
				c0.135-0.325,0.273-0.959-0.315-1.548C10.988,2.695,10.582,2.152,10.337,1.716z"/>
		</g>
		<g>
			<path d="M14.5,20h-8C6.224,20,6,19.776,6,19.5v-11C6,7.673,6.673,7,7.5,7h6C14.327,7,15,7.673,15,8.5v11
				C15,19.776,14.776,20,14.5,20z M7,19h7V8.5C14,8.224,13.776,8,13.5,8h-6C7.224,8,7,8.224,7,8.5V19z"/>
		</g>
		<g>
			<path d="M10.5,8C10.224,8,10,7.776,10,7.5v-2C10,5.224,10.224,5,10.5,5S11,5.224,11,5.5v2C11,7.776,10.776,8,10.5,8z"/>
		</g>
		<g>
			<path d="M9.5,13c-0.902,0-1.179-1.133-1.422-2.133c-0.056-0.229-0.131-0.538-0.202-0.747c-0.04,0.046-0.081,0.097-0.112,0.136
				C7.525,10.553,7.166,11,6.5,11C6.224,11,6,10.776,6,10.5S6.224,10,6.5,10c0.169,0,0.272-0.107,0.484-0.371
				C7.198,9.364,7.491,9,8,9c0.652,0,0.836,0.755,1.049,1.63c0.1,0.408,0.307,1.258,0.496,1.381c0.102-0.097,0.368-0.821,0.512-1.21
				C10.382,9.916,10.719,9,11.5,9c0.708,0,1.304,0.448,1.739,0.774c0.068,0.051,0.149,0.112,0.218,0.16
				c0.068-0.083,0.148-0.197,0.204-0.276C13.899,9.32,14.125,9,14.5,9C14.776,9,15,9.224,15,9.5c0,0.214-0.135,0.397-0.324,0.468
				c-0.053,0.061-0.138,0.182-0.198,0.266C14.212,10.611,13.938,11,13.5,11c-0.294,0-0.544-0.188-0.861-0.426
				C12.298,10.318,11.874,10,11.5,10c-0.116,0.087-0.36,0.75-0.505,1.146C10.659,12.058,10.313,13,9.5,13z"/>
		</g>
	</g>
</g>
<g id="Canlestick">
</g>
<g id="Black_Cat">
</g>
<g id="Witch_Cauldron">
</g>
<g id="Corn_Candy">
</g>
<g id="Layer_29">
</g>
<g id="Bones">
</g>
<g id="Witch_Broom">
</g>
<g id="Owl">
</g>
<g id="Scythe">
</g>
<g id="Grim_Reaper">
</g>
<g id="Coffin">
</g>
<g id="Dracula">
</g>
<g id="Frankenstein">
</g>
<g id="Layer_40">
</g>
<g id="Toilet_Paper">
</g>
<g id="Skull">
</g>
<g id="Skull_Cake">
</g>
<g id="Eyeball">
</g>
<g id="Castle">
</g>
<g id="Witch_x27_s_Hat">
</g>
<g id="Cobweb_1">
</g>
<g id="Cobweb_2">
</g>
<g id="Spider">
</g>
<g id="Full_Moon">
</g>
<g id="Crescent">
</g>
<g id="Crow">
</g>
<g id="Candy_Holder">
</g>
<g id="Bloody_Knife">
</g>
<g id="Bloody_Axe">
</g>
</svg>
