<?xml version="1.0" encoding="iso-8859-1"?>
<!-- Generator: Adobe Illustrator 19.2.1, SVG Export Plug-In . SVG Version: 6.00 Build 0)  -->
<svg version="1.1" xmlns="http://www.w3.org/2000/svg" xmlns:xlink="http://www.w3.org/1999/xlink" x="0px" y="0px"
	 viewBox="0 0 24 24" style="enable-background:new 0 0 24 24;" xml:space="preserve">
<g id="Pompkin">
</g>
<g id="Layer_10">
</g>
<g id="Bat">
</g>
<g id="Ghost">
</g>
<g id="Bone_Hand">
</g>
<g id="Tree_Ghost">
</g>
<g id="Gate">
</g>
<g id="Cemetery_1">
</g>
<g id="Cemetery_2">
</g>
<g id="Devil_x27_s_Fork">
</g>
<g id="Night_Candle">
</g>
<g id="Canlestick">
</g>
<g id="Black_Cat">
</g>
<g id="Witch_Cauldron">
</g>
<g id="Corn_Candy">
</g>
<g id="Layer_29">
</g>
<g id="Bones">
</g>
<g id="Witch_Broom">
</g>
<g id="Owl">
	<g>
		<g>
			<path d="M9,5C8.448,5,8,4.551,8,4s0.448-1,1-1s1,0.449,1,1S9.552,5,9,5z M9,3.999C9,4,9,4,9,3.999L9.5,4L9,3.999z"/>
		</g>
		<g>
			<path d="M7.5,2.5C7.224,2.5,7,2.276,7,2V0.5c0-0.185,0.102-0.354,0.264-0.441c0.163-0.087,0.359-0.078,0.514,0.025l1.5,1
				c0.229,0.153,0.292,0.463,0.139,0.693C9.262,2.008,8.95,2.068,8.723,1.916L8,1.434V2C8,2.276,7.776,2.5,7.5,2.5z"/>
		</g>
		<g>
			<path d="M15.5,2.5C15.224,2.5,15,2.276,15,2V1.434l-0.723,0.482c-0.229,0.151-0.539,0.091-0.693-0.139
				c-0.153-0.23-0.091-0.54,0.139-0.693l1.5-1c0.154-0.103,0.351-0.112,0.514-0.025C15.898,0.146,16,0.315,16,0.5V2
				C16,2.276,15.776,2.5,15.5,2.5z"/>
		</g>
		<g>
			<path d="M14.001,2c-0.033,0-0.065-0.003-0.099-0.01c-1.572-0.313-3.232-0.313-4.805,0C8.83,2.043,8.564,1.87,8.51,1.598
				C8.456,1.327,8.631,1.064,8.902,1.01c1.699-0.34,3.496-0.34,5.195,0c0.271,0.054,0.446,0.317,0.393,0.588
				C14.442,1.836,14.234,2,14.001,2z"/>
		</g>
		<g>
			<path d="M11.5,8c-0.128,0-0.256-0.049-0.354-0.146l-1-1c-0.195-0.195-0.195-0.512,0-0.707s0.512-0.195,0.707,0L11.5,6.793
				l0.646-0.646c0.195-0.195,0.512-0.195,0.707,0s0.195,0.512,0,0.707l-1,1C11.756,7.951,11.628,8,11.5,8z"/>
		</g>
		<g>
			<path d="M14,5c-0.552,0-1-0.449-1-1s0.448-1,1-1s1,0.449,1,1S14.552,5,14,5z M14,3.999C14,4,14,4,14,3.999L14.5,4L14,3.999z"/>
		</g>
		<g>
			<path d="M8.5,19.5c-0.093,0-0.188-0.026-0.271-0.08c-0.232-0.15-0.3-0.459-0.149-0.691c1.032-1.602,0.948-4.348,0.898-5.988
				l-0.007-0.227C8.964,12.238,9.182,12.008,9.457,12c0.274,0.002,0.507,0.209,0.515,0.485l0.007,0.225
				c0.053,1.757,0.143,4.697-1.059,6.561C8.824,19.419,8.664,19.5,8.5,19.5z"/>
		</g>
		<g>
			<path d="M14.5,19.5c-0.164,0-0.324-0.081-0.42-0.229c-1.201-1.864-1.111-4.804-1.059-6.561l0.007-0.225
				c0.008-0.276,0.217-0.483,0.515-0.485c0.275,0.008,0.493,0.238,0.485,0.515l-0.007,0.227c-0.05,1.64-0.134,4.386,0.898,5.988
				c0.15,0.232,0.083,0.542-0.149,0.691C14.688,19.474,14.593,19.5,14.5,19.5z"/>
		</g>
		<g>
			<path d="M11.5,21C7.916,21,5,17.187,5,12.5c0-2.606,0.896-5.032,2.459-6.656c0.193-0.199,0.51-0.205,0.707-0.014
				C8.365,6.022,8.371,6.339,8.18,6.538C6.794,7.977,6,10.15,6,12.5c0,4.136,2.468,7.5,5.5,7.5s5.5-3.364,5.5-7.5
				c0-2.35-0.794-4.523-2.18-5.962c-0.191-0.199-0.186-0.516,0.014-0.707c0.198-0.191,0.515-0.186,0.707,0.014
				C17.104,7.468,18,9.894,18,12.5C18,17.187,15.084,21,11.5,21z"/>
		</g>
		<g>
			<path d="M9,7C7.346,7,6,5.654,6,4s1.346-3,3-3s3,1.346,3,3S10.654,7,9,7z M9,2C7.897,2,7,2.897,7,4s0.897,2,2,2s2-0.897,2-2
				S10.103,2,9,2z"/>
		</g>
		<g>
			<path d="M14,7c-1.654,0-3-1.346-3-3s1.346-3,3-3s3,1.346,3,3S15.654,7,14,7z M14,2c-1.103,0-2,0.897-2,2s0.897,2,2,2s2-0.897,2-2
				S15.103,2,14,2z"/>
		</g>
		<g>
			<path d="M15.5,24h-8c-0.168,0-0.325-0.084-0.417-0.225c-0.093-0.141-0.108-0.318-0.043-0.472l1.5-3.5
				c0.109-0.255,0.403-0.373,0.657-0.263c0.254,0.109,0.371,0.403,0.263,0.656L8.258,23h6.484l-1.202-2.803
				c-0.108-0.253,0.009-0.547,0.263-0.656c0.251-0.109,0.548,0.008,0.657,0.263l1.5,3.5c0.065,0.154,0.05,0.332-0.043,0.472
				C15.825,23.916,15.668,24,15.5,24z"/>
		</g>
	</g>
</g>
<g id="Scythe">
</g>
<g id="Grim_Reaper">
</g>
<g id="Coffin">
</g>
<g id="Dracula">
</g>
<g id="Frankenstein">
</g>
<g id="Layer_40">
</g>
<g id="Toilet_Paper">
</g>
<g id="Skull">
</g>
<g id="Skull_Cake">
</g>
<g id="Eyeball">
</g>
<g id="Castle">
</g>
<g id="Witch_x27_s_Hat">
</g>
<g id="Cobweb_1">
</g>
<g id="Cobweb_2">
</g>
<g id="Spider">
</g>
<g id="Full_Moon">
</g>
<g id="Crescent">
</g>
<g id="Crow">
</g>
<g id="Candy_Holder">
</g>
<g id="Bloody_Knife">
</g>
<g id="Bloody_Axe">
</g>
</svg>
