<?xml version="1.0" encoding="iso-8859-1"?>
<!-- Generator: Adobe Illustrator 19.2.1, SVG Export Plug-In . SVG Version: 6.00 Build 0)  -->
<svg version="1.1" xmlns="http://www.w3.org/2000/svg" xmlns:xlink="http://www.w3.org/1999/xlink" x="0px" y="0px"
	 viewBox="0 0 24 24" style="enable-background:new 0 0 24 24;" xml:space="preserve">
<g id="Pompkin">
	<g>
		<g>
			<path d="M10.5,8.498c-0.276,0-0.5-0.224-0.5-0.5V5.721c0-1.334,0.741-2.534,1.935-3.13l2.291-1.51
				c0.187-0.123,0.435-0.107,0.604,0.042c0.169,0.147,0.219,0.39,0.123,0.592c-0.121,0.253-0.188,0.574-0.188,0.903
				c0,0.409,0.098,0.79,0.269,1.047c0.08,0.119,0.104,0.267,0.067,0.405c-0.037,0.138-0.131,0.254-0.259,0.318l-0.194,0.097
				C14.614,4.5,14.58,4.513,14.545,4.522C13.75,4.725,13,5.525,13,5.998v1c0,0.276-0.224,0.5-0.5,0.5S12,7.274,12,6.998v-1
				c0-0.946,0.959-1.924,1.934-2.323c-0.112-0.321-0.171-0.682-0.171-1.058c0-0.012,0-0.024,0-0.036l-1.33,0.875
				C11.529,3.911,11,4.768,11,5.721v2.277C11,8.274,10.776,8.498,10.5,8.498z"/>
		</g>
		<g>
			<path d="M15.5,23.998c-1.326,0-2.639-0.33-3.815-0.956C10.548,23.668,9.28,23.998,8,23.998c-4.411,0-8-3.799-8-8.469
				s3.589-8.469,8-8.469c0.928,0,1.841,0.17,2.717,0.507c1.419-1.028,3.066-1.57,4.783-1.57c4.687,0,8.5,4.038,8.5,9
				S20.187,23.998,15.5,23.998z M11.681,21.968c0.086,0,0.173,0.022,0.25,0.067c1.088,0.629,2.322,0.962,3.569,0.962
				c4.136,0,7.5-3.589,7.5-8s-3.364-8-7.5-8c-1.586,0-3.109,0.53-4.402,1.534c-0.144,0.112-0.335,0.137-0.503,0.065
				C9.761,8.241,8.888,8.061,8,8.061c-3.86,0-7,3.351-7,7.469s3.14,7.469,7,7.469c1.195,0,2.378-0.332,3.423-0.958
				C11.502,21.992,11.592,21.968,11.681,21.968z"/>
		</g>
		<g>
			<path d="M18.5,13.998h-5c-0.202,0-0.385-0.122-0.462-0.309c-0.078-0.187-0.035-0.402,0.108-0.545l3-3
				c0.106-0.105,0.252-0.158,0.403-0.144c0.149,0.015,0.284,0.096,0.367,0.22l2,3c0.102,0.153,0.112,0.351,0.025,0.513
				S18.685,13.998,18.5,13.998z M14.707,12.998h2.859l-1.144-1.715L14.707,12.998z"/>
		</g>
		<g>
			<path d="M10.5,13.998H6c-0.173,0-0.334-0.09-0.425-0.237s-0.1-0.332-0.022-0.486l1.5-3c0.072-0.144,0.208-0.244,0.367-0.27
				c0.161-0.026,0.321,0.026,0.434,0.14l3,3c0.143,0.143,0.186,0.358,0.108,0.545C10.885,13.876,10.702,13.998,10.5,13.998z
				 M6.809,12.998h2.484l-1.656-1.656L6.809,12.998z"/>
		</g>
		<g>
			<path d="M12.5,20.998c-0.296,0-0.57-0.025-0.845-0.05l-0.198-0.018C11.199,20.908,11,20.691,11,20.432v-0.434h-1v0.101
				c0,0.157-0.073,0.304-0.198,0.398c-0.125,0.095-0.286,0.125-0.438,0.083c-3.34-0.942-4.896-3.166-5.292-3.824
				c-0.101-0.167-0.095-0.378,0.015-0.54c0.11-0.161,0.302-0.243,0.496-0.212c0.722,0.121,1.362,0.241,1.965,0.354l1.04,0.192
				c0.224,0.04,0.39,0.225,0.41,0.447h1.136c0.01-0.011,0.021-0.022,0.033-0.032c0.106-0.095,0.247-0.138,0.389-0.125
				c1.511,0.168,2.93,0.224,4.907,0.078c0.136-0.012,0.275,0.038,0.377,0.132c0.102,0.094,0.16,0.227,0.16,0.366v0.581h1v-0.796
				c0-0.249,0.184-0.46,0.43-0.495c1.027-0.145,1.962-0.323,2.787-0.48c0.426-0.081,0.826-0.157,1.198-0.221
				c0.191-0.034,0.387,0.049,0.498,0.21s0.117,0.373,0.016,0.54C19.693,18.807,16.83,20.998,12.5,20.998z M12,19.975
				c0.162,0.013,0.327,0.023,0.5,0.023c3.645,0,5.775-1.63,6.821-2.773c-0.699,0.133-1.474,0.279-2.321,0.409v0.864
				c0,0.276-0.224,0.5-0.5,0.5h-2c-0.276,0-0.5-0.224-0.5-0.5v-0.546c-1.586,0.094-2.874,0.049-4.172-0.077
				C9.74,17.952,9.625,17.998,9.5,17.998h-2c-0.276,0-0.5-0.224-0.5-0.5v-0.039l-0.637-0.117c-0.228-0.043-0.46-0.086-0.701-0.131
				c0.653,0.721,1.728,1.624,3.344,2.206c0.039-0.237,0.245-0.418,0.493-0.418h2c0.276,0,0.5,0.224,0.5,0.5V19.975z"/>
		</g>
		<g>
			<path d="M10.512,7.934c-0.042,0-0.085-0.005-0.127-0.017c-0.891-0.233-2.688-1.24-4.257-2.465C5.706,5.807,5.152,5.998,4.5,5.998
				c-4.43,0-4.499-2.394-4.5-2.496C-0.002,3.226,0.22,3,0.496,2.998C0.796,3.012,0.999,3.218,1,3.494
				c0.003,0.05,0.126,1.504,3.5,1.504c0.33,0,0.608-0.068,0.833-0.205C4.321,3.901,3.514,2.95,3.291,2.125
				C3.083,1.359,3.376,0.862,3.658,0.58C4.267-0.029,4.985-0.166,5.63,0.207c1.059,0.611,1.665,2.503,1.271,3.97
				C6.856,4.349,6.797,4.51,6.727,4.66c1.418,1.108,3.069,2.069,3.912,2.29c0.267,0.07,0.427,0.344,0.356,0.611
				C10.937,7.785,10.734,7.934,10.512,7.934z M4.895,1C4.765,1,4.59,1.063,4.365,1.287C4.262,1.391,4.168,1.54,4.256,1.863
				C4.42,2.47,5.073,3.233,5.917,3.985C5.923,3.963,5.93,3.941,5.936,3.918c0.292-1.091-0.207-2.5-0.806-2.845
				C5.082,1.045,5.004,1,4.895,1z"/>
		</g>
	</g>
</g>
<g id="Layer_10">
</g>
<g id="Bat">
</g>
<g id="Ghost">
</g>
<g id="Bone_Hand">
</g>
<g id="Tree_Ghost">
</g>
<g id="Gate">
</g>
<g id="Cemetery_1">
</g>
<g id="Cemetery_2">
</g>
<g id="Devil_x27_s_Fork">
</g>
<g id="Night_Candle">
</g>
<g id="Canlestick">
</g>
<g id="Black_Cat">
</g>
<g id="Witch_Cauldron">
</g>
<g id="Corn_Candy">
</g>
<g id="Layer_29">
</g>
<g id="Bones">
</g>
<g id="Witch_Broom">
</g>
<g id="Owl">
</g>
<g id="Scythe">
</g>
<g id="Grim_Reaper">
</g>
<g id="Coffin">
</g>
<g id="Dracula">
</g>
<g id="Frankenstein">
</g>
<g id="Layer_40">
</g>
<g id="Toilet_Paper">
</g>
<g id="Skull">
</g>
<g id="Skull_Cake">
</g>
<g id="Eyeball">
</g>
<g id="Castle">
</g>
<g id="Witch_x27_s_Hat">
</g>
<g id="Cobweb_1">
</g>
<g id="Cobweb_2">
</g>
<g id="Spider">
</g>
<g id="Full_Moon">
</g>
<g id="Crescent">
</g>
<g id="Crow">
</g>
<g id="Candy_Holder">
</g>
<g id="Bloody_Knife">
</g>
<g id="Bloody_Axe">
</g>
</svg>
