<?xml version="1.0" encoding="iso-8859-1"?>
<!-- Generator: Adobe Illustrator 19.2.1, SVG Export Plug-In . SVG Version: 6.00 Build 0)  -->
<svg version="1.1" xmlns="http://www.w3.org/2000/svg" xmlns:xlink="http://www.w3.org/1999/xlink" x="0px" y="0px"
	 viewBox="0 0 24 24" style="enable-background:new 0 0 24 24;" xml:space="preserve">
<g id="Pompkin">
</g>
<g id="Layer_10">
</g>
<g id="Bat">
</g>
<g id="Ghost">
</g>
<g id="Bone_Hand">
</g>
<g id="Tree_Ghost">
</g>
<g id="Gate">
</g>
<g id="Cemetery_1">
</g>
<g id="Cemetery_2">
</g>
<g id="Devil_x27_s_Fork">
</g>
<g id="Night_Candle">
</g>
<g id="Canlestick">
</g>
<g id="Black_Cat">
</g>
<g id="Witch_Cauldron">
</g>
<g id="Corn_Candy">
</g>
<g id="Layer_29">
</g>
<g id="Bones">
</g>
<g id="Witch_Broom">
</g>
<g id="Owl">
</g>
<g id="Scythe">
	<g>
		<g id="XMLID_1470_">
			<g id="XMLID_1478_">
				<path d="M22,24c-0.662,0-1.281-0.328-1.653-0.876L8.26,2.984C8.241,2.953,8.227,2.921,8.216,2.888C8.072,2.604,8,2.306,8,2
					c0-1.103,0.897-2,2-2c0.572,0,1.114,0.248,1.496,0.684c0.035,0.031,0.065,0.066,0.09,0.106c0.106,0.138,0.195,0.287,0.261,0.442
					l11.807,19.646C23.88,21.212,24,21.599,24,22C24,23.103,23.103,24,22,24z M9.156,2.534l0.024,0.04l12,20
					C21.359,22.836,21.669,23,22,23c0.552,0,1-0.449,1-1c0-0.205-0.063-0.404-0.185-0.575c-0.007-0.01-0.014-0.021-0.021-0.031
					L10.957,1.684c-0.063-0.135-0.108-0.21-0.171-0.292c-0.006-0.006-0.011-0.013-0.016-0.019C10.576,1.136,10.296,1,10,1
					C9.448,1,9,1.449,9,2c0,0.162,0.044,0.324,0.131,0.48C9.141,2.498,9.149,2.516,9.156,2.534z"/>
			</g>
			<g id="XMLID_1473_">
				<path d="M11.335,7.636c-0.166,0-0.328-0.083-0.423-0.233c-0.147-0.234-0.077-0.542,0.156-0.69l2.525-1.59
					c0.234-0.145,0.543-0.077,0.689,0.157c0.147,0.234,0.077,0.542-0.156,0.69l-2.525,1.59C11.519,7.611,11.427,7.636,11.335,7.636z
					"/>
			</g>
			<g id="XMLID_1472_">
				<path d="M0.5,14c-0.064,0-0.13-0.012-0.191-0.038C0.122,13.885,0,13.702,0,13.5C0,9.385,2.361,6.246,8.421,2.304
					c0.23-0.152,0.54-0.086,0.691,0.146c0.15,0.231,0.085,0.541-0.146,0.691c-5.682,3.697-7.475,6.316-7.872,9
					c0.014-0.015,0.028-0.03,0.042-0.045c1.879-2.047,4.718-5.14,9.613-6.242c0.267-0.06,0.537,0.109,0.597,0.378
					c0.062,0.27-0.108,0.537-0.378,0.598C6.379,7.863,3.774,10.7,1.873,12.772c-0.366,0.398-0.703,0.765-1.02,1.082
					C0.758,13.949,0.63,14,0.5,14z"/>
			</g>
		</g>
		<g>
			<path d="M11.5,24h-8C3.224,24,3,23.776,3,23.5V16c0-2.481,2.019-4.5,4.5-4.5S12,13.519,12,16v7.5C12,23.776,11.776,24,11.5,24z
				 M4,23h7v-7c0-1.93-1.57-3.5-3.5-3.5S4,14.07,4,16V23z"/>
		</g>
		<g>
			<path d="M9.5,17h-4C5.224,17,5,16.776,5,16.5S5.224,16,5.5,16h4c0.276,0,0.5,0.224,0.5,0.5S9.776,17,9.5,17z"/>
		</g>
		<g>
			<path d="M8.5,19h-2C6.224,19,6,18.776,6,18.5S6.224,18,6.5,18h2C8.776,18,9,18.224,9,18.5S8.776,19,8.5,19z"/>
		</g>
		<g>
			<path d="M12.5,24h-10C2.224,24,2,23.776,2,23.5S2.224,23,2.5,23h10c0.276,0,0.5,0.224,0.5,0.5S12.776,24,12.5,24z"/>
		</g>
	</g>
</g>
<g id="Grim_Reaper">
</g>
<g id="Coffin">
</g>
<g id="Dracula">
</g>
<g id="Frankenstein">
</g>
<g id="Layer_40">
</g>
<g id="Toilet_Paper">
</g>
<g id="Skull">
</g>
<g id="Skull_Cake">
</g>
<g id="Eyeball">
</g>
<g id="Castle">
</g>
<g id="Witch_x27_s_Hat">
</g>
<g id="Cobweb_1">
</g>
<g id="Cobweb_2">
</g>
<g id="Spider">
</g>
<g id="Full_Moon">
</g>
<g id="Crescent">
</g>
<g id="Crow">
</g>
<g id="Candy_Holder">
</g>
<g id="Bloody_Knife">
</g>
<g id="Bloody_Axe">
</g>
</svg>
