<?xml version="1.0" encoding="iso-8859-1"?>
<!-- Generator: Adobe Illustrator 19.2.1, SVG Export Plug-In . SVG Version: 6.00 Build 0)  -->
<svg version="1.1" xmlns="http://www.w3.org/2000/svg" xmlns:xlink="http://www.w3.org/1999/xlink" x="0px" y="0px"
	 viewBox="0 0 24 24" style="enable-background:new 0 0 24 24;" xml:space="preserve">
<g id="Pompkin">
</g>
<g id="Layer_10">
</g>
<g id="Bat">
</g>
<g id="Ghost">
</g>
<g id="Bone_Hand">
</g>
<g id="Tree_Ghost">
</g>
<g id="Gate">
</g>
<g id="Cemetery_1">
</g>
<g id="Cemetery_2">
</g>
<g id="Devil_x27_s_Fork">
</g>
<g id="Night_Candle">
</g>
<g id="Canlestick">
</g>
<g id="Black_Cat">
</g>
<g id="Witch_Cauldron">
</g>
<g id="Corn_Candy">
</g>
<g id="Layer_29">
</g>
<g id="Bones">
</g>
<g id="Witch_Broom">
</g>
<g id="Owl">
</g>
<g id="Scythe">
</g>
<g id="Grim_Reaper">
</g>
<g id="Coffin">
</g>
<g id="Dracula">
</g>
<g id="Frankenstein">
</g>
<g id="Layer_40">
</g>
<g id="Toilet_Paper">
</g>
<g id="Skull">
	<g>
		<g>
			<path d="M11.874,20.001c-1.093,0-2.805-0.174-3.737-1.157c-0.071-0.075-0.117-0.171-0.132-0.272
				c-0.129-0.906-1.089-2.011-2.28-2.627c-1.453-0.752-1.364-2.125-1.279-3.341c-0.624-1.263-2.265-5.586-0.941-8.321
				C4.864,1.471,8.785,0,11.954,0c3.261,0,7.182,1.471,8.542,4.282c1.323,2.735-0.317,7.059-0.941,8.321
				c0.085,1.216,0.174,2.589-1.279,3.341c-1.191,0.616-2.151,1.721-2.28,2.627c-0.011,0.075-0.039,0.146-0.082,0.21
				c-0.49,0.723-1.999,1.088-3.247,1.188C12.488,19.984,12.211,20.001,11.874,20.001z M8.964,18.252
				c0.649,0.567,2.039,0.852,3.622,0.722c1.314-0.106,2.185-0.453,2.444-0.692c0.275-1.367,1.616-2.62,2.786-3.226
				c0.835-0.432,0.826-1.156,0.739-2.399l-0.009-0.122c-0.006-0.093,0.014-0.186,0.057-0.268c0.481-0.91,2.171-5.112,0.992-7.549
				C18.427,2.303,14.834,1,12.046,1c-2.88,0-6.473,1.303-7.642,3.718c-1.179,2.437,0.511,6.639,0.992,7.549
				c0.043,0.082,0.063,0.175,0.057,0.268l-0.009,0.122c-0.087,1.243-0.096,1.968,0.739,2.399
				C7.345,15.656,8.676,16.896,8.964,18.252z"/>
		</g>
		<g>
			<path d="M12,24c-4.663,0-5-1.7-5-4.5c0-0.231,0.159-0.433,0.385-0.486c0.223-0.059,0.457,0.055,0.563,0.262
				C8.723,20.821,10.632,21,12,21s3.277-0.179,4.053-1.725c0.104-0.207,0.341-0.319,0.563-0.262C16.841,19.067,17,19.269,17,19.5
				C17,21.072,17,24,12,24z M8.052,20.946C8.22,22.314,8.937,23,12,23c2.789,0,3.634-0.904,3.889-2.008C14.552,22,12.717,22,12,22
				C11.272,22,9.394,22,8.052,20.946z"/>
		</g>
		<g>
			<path d="M15.5,14c-0.818,0-1.552-0.307-2.013-0.84c-0.407-0.473-0.578-1.088-0.481-1.733c0.139-0.935,1.95-2.408,3.333-2.443
				c0.846-0.043,1.465,0.494,1.651,1.418c0.166,0.822-0.153,1.929-0.775,2.689C16.734,13.677,16.126,14,15.5,14z M13.5,11.5
				l0.494,0.073c-0.053,0.359,0.033,0.682,0.251,0.934C14.516,12.82,14.973,13,15.5,13c0.433,0,0.775-0.34,0.941-0.543
				c0.432-0.527,0.676-1.326,0.568-1.858c-0.111-0.552-0.379-0.62-0.642-0.616c-0.975,0.021-2.316,1.226-2.374,1.591L13.5,11.5z
				 M13.5,11.5h0.01H13.5z"/>
		</g>
		<g>
			<path d="M8.5,14c-0.626,0-1.234-0.323-1.715-0.909c-0.622-0.761-0.941-1.867-0.775-2.689c0.187-0.924,0.796-1.467,1.651-1.418
				c1.383,0.035,3.194,1.509,3.333,2.443l0,0c0.097,0.646-0.074,1.261-0.481,1.733C10.052,13.693,9.318,14,8.5,14z M7.604,9.982
				c-0.258,0-0.506,0.084-0.613,0.616s0.137,1.331,0.568,1.858C7.725,12.66,8.067,13,8.5,13c0.527,0,0.984-0.18,1.255-0.493
				c0.218-0.252,0.304-0.574,0.251-0.934L10.5,11.5l-0.494,0.073c-0.058-0.365-1.399-1.569-2.374-1.591
				C7.622,9.982,7.613,9.982,7.604,9.982z"/>
		</g>
		<g>
			<path d="M13,18c-0.579,0-1-0.631-1-1.5V15c0-0.2,0.119-0.38,0.303-0.459c0.184-0.078,0.396-0.041,0.541,0.096
				C13.115,14.894,14,15.787,14,16.5C14,17.369,13.579,18,13,18z"/>
		</g>
		<g>
			<path d="M11,18c-0.579,0-1-0.631-1-1.5c0-0.713,0.885-1.606,1.156-1.863c0.146-0.137,0.359-0.174,0.541-0.096
				C11.881,14.62,12,14.8,12,15v1.5C12,17.369,11.579,18,11,18z M11.13,17.041h0.01H11.13z"/>
		</g>
		<g>
			<path d="M10.5,6c-0.062,0-0.125-0.012-0.186-0.036l-2.5-1c-0.232-0.093-0.36-0.343-0.3-0.585l0.379-1.515L6.379,2.485
				C6.11,2.418,5.948,2.146,6.015,1.879C6.081,1.61,6.348,1.45,6.621,1.515l2,0.5C8.89,2.082,9.052,2.354,8.985,2.621L8.591,4.198
				l2.095,0.838c0.257,0.103,0.381,0.394,0.278,0.649C10.886,5.881,10.698,6,10.5,6z"/>
		</g>
	</g>
</g>
<g id="Skull_Cake">
</g>
<g id="Eyeball">
</g>
<g id="Castle">
</g>
<g id="Witch_x27_s_Hat">
</g>
<g id="Cobweb_1">
</g>
<g id="Cobweb_2">
</g>
<g id="Spider">
</g>
<g id="Full_Moon">
</g>
<g id="Crescent">
</g>
<g id="Crow">
</g>
<g id="Candy_Holder">
</g>
<g id="Bloody_Knife">
</g>
<g id="Bloody_Axe">
</g>
</svg>
