<?xml version="1.0" encoding="iso-8859-1"?>
<!-- Generator: Adobe Illustrator 19.2.1, SVG Export Plug-In . SVG Version: 6.00 Build 0)  -->
<svg version="1.1" xmlns="http://www.w3.org/2000/svg" xmlns:xlink="http://www.w3.org/1999/xlink" x="0px" y="0px"
	 viewBox="0 0 24 24" style="enable-background:new 0 0 24 24;" xml:space="preserve">
<g id="Pompkin">
</g>
<g id="Layer_10">
</g>
<g id="Bat">
</g>
<g id="Ghost">
</g>
<g id="Bone_Hand">
</g>
<g id="Tree_Ghost">
</g>
<g id="Gate">
</g>
<g id="Cemetery_1">
</g>
<g id="Cemetery_2">
</g>
<g id="Devil_x27_s_Fork">
</g>
<g id="Night_Candle">
</g>
<g id="Canlestick">
</g>
<g id="Black_Cat">
</g>
<g id="Witch_Cauldron">
</g>
<g id="Corn_Candy">
</g>
<g id="Layer_29">
</g>
<g id="Bones">
</g>
<g id="Witch_Broom">
</g>
<g id="Owl">
</g>
<g id="Scythe">
</g>
<g id="Grim_Reaper">
</g>
<g id="Coffin">
</g>
<g id="Dracula">
</g>
<g id="Frankenstein">
</g>
<g id="Layer_40">
</g>
<g id="Toilet_Paper">
</g>
<g id="Skull">
</g>
<g id="Skull_Cake">
	<g>
		<g>
			<path d="M15.5,24h-8C6.121,24,5,22.879,5,21.5v-6C5,14.121,6.121,13,7.5,13h8c1.379,0,2.5,1.121,2.5,2.5v6
				C18,22.879,16.879,24,15.5,24z M7.5,14C6.673,14,6,14.673,6,15.5v6C6,22.327,6.673,23,7.5,23h8c0.827,0,1.5-0.673,1.5-1.5v-6
				c0-0.827-0.673-1.5-1.5-1.5H7.5z"/>
		</g>
		<g>
			<path d="M14.5,12h-6C8.224,12,8,11.776,8,11.5V9.72C6.726,8.666,6,7.142,6,5.5C6,2.468,8.468,0,11.5,0S17,2.468,17,5.5
				c0,1.642-0.726,3.166-2,4.22v1.78C15,11.776,14.776,12,14.5,12z M9,11h5V9.478c0-0.156,0.073-0.305,0.198-0.398
				C15.344,8.213,16,6.909,16,5.5C16,3.019,13.981,1,11.5,1S7,3.019,7,5.5c0,1.409,0.656,2.713,1.802,3.579
				C8.927,9.173,9,9.321,9,9.478V11z"/>
		</g>
		<g>
			<path d="M12.5,12c-0.276,0-0.5-0.224-0.5-0.5v-1c0-0.276,0.224-0.5,0.5-0.5s0.5,0.224,0.5,0.5v1C13,11.776,12.776,12,12.5,12z"/>
		</g>
		<g>
			<path d="M10.5,12c-0.276,0-0.5-0.224-0.5-0.5v-1c0-0.276,0.224-0.5,0.5-0.5s0.5,0.224,0.5,0.5v1C11,11.776,10.776,12,10.5,12z"/>
		</g>
		<g>
			<path d="M13.491,8.036c-0.481,0-0.901-0.179-1.182-0.503c-0.255-0.295-0.363-0.68-0.305-1.083l0,0
				c0.093-0.631,1.139-1.431,1.897-1.449c0.546-0.039,0.955,0.329,1.07,0.918c0.099,0.499-0.081,1.135-0.448,1.581
				C14.24,7.846,13.873,8.036,13.491,8.036z M12.992,6.617c-0.011,0.104,0.014,0.192,0.074,0.262c0.086,0.1,0.241,0.157,0.425,0.157
				c0.076,0,0.171-0.063,0.261-0.172c0.193-0.235,0.275-0.573,0.24-0.752c-0.016-0.075-0.035-0.11-0.042-0.117
				C13.766,5.934,13.106,6.377,12.992,6.617z M12.986,6.629L12.986,6.629L12.986,6.629L12.986,6.629z M12.5,6.522h0.01H12.5z"/>
		</g>
		<g>
			<path d="M9.5,8.036c-0.386,0-0.757-0.192-1.044-0.542C8.09,7.048,7.911,6.415,8.01,5.918c0.116-0.589,0.518-0.98,1.075-0.917
				c0.764,0.019,1.816,0.817,1.91,1.448l0,0c0.059,0.401-0.049,0.785-0.304,1.08C10.414,7.852,9.979,8.036,9.5,8.036z M9.021,6.004
				c0.004,0-0.017,0.034-0.031,0.109C8.955,6.289,9.037,6.625,9.229,6.859C9.321,6.972,9.42,7.036,9.5,7.036
				c0.188,0,0.347-0.059,0.435-0.16c0.06-0.068,0.084-0.155,0.073-0.258C9.884,6.362,9.203,5.935,9.021,6.004L9.021,6.004z"/>
		</g>
		<g>
			<path d="M19.5,24h-16C3.224,24,3,23.776,3,23.5S3.224,23,3.5,23h16c0.276,0,0.5,0.224,0.5,0.5S19.776,24,19.5,24z"/>
		</g>
		<g>
			<path d="M15.996,17c-0.626,0-0.942-0.421-1.151-0.699C14.654,16.048,14.599,16,14.492,16c-0.105,0-0.161,0.048-0.35,0.3
				c-0.21,0.279-0.525,0.7-1.151,0.7c-0.625,0-0.94-0.422-1.149-0.7c-0.188-0.252-0.244-0.3-0.349-0.3
				c-0.105,0-0.161,0.048-0.35,0.3c-0.209,0.279-0.525,0.7-1.15,0.7s-0.94-0.422-1.149-0.7C8.655,16.048,8.6,16,8.495,16
				c-0.104,0-0.159,0.048-0.348,0.3C7.938,16.578,7.623,17,6.999,17c-0.625,0-0.941-0.422-1.15-0.7C5.66,16.048,5.604,16,5.5,16
				C5.224,16,5,15.776,5,15.5S5.224,15,5.5,15c0.624,0,0.94,0.421,1.149,0.7c0.188,0.252,0.244,0.3,0.35,0.3
				c0.104,0,0.159-0.048,0.348-0.3C7.556,15.422,7.871,15,8.495,15c0.625,0,0.94,0.422,1.149,0.7C9.833,15.952,9.889,16,9.993,16
				c0.105,0,0.161-0.048,0.35-0.3c0.209-0.279,0.525-0.7,1.15-0.7s0.94,0.422,1.149,0.7c0.188,0.252,0.244,0.3,0.349,0.3
				c0.105,0,0.161-0.048,0.352-0.301C13.552,15.421,13.867,15,14.492,15c0.626,0,0.942,0.421,1.151,0.699
				C15.834,15.952,15.89,16,15.996,16s0.162-0.048,0.353-0.301C16.558,15.421,16.874,15,17.5,15c0.276,0,0.5,0.224,0.5,0.5
				S17.776,16,17.5,16c-0.106,0-0.162,0.048-0.353,0.301C16.938,16.579,16.622,17,15.996,17z"/>
		</g>
	</g>
</g>
<g id="Eyeball">
</g>
<g id="Castle">
</g>
<g id="Witch_x27_s_Hat">
</g>
<g id="Cobweb_1">
</g>
<g id="Cobweb_2">
</g>
<g id="Spider">
</g>
<g id="Full_Moon">
</g>
<g id="Crescent">
</g>
<g id="Crow">
</g>
<g id="Candy_Holder">
</g>
<g id="Bloody_Knife">
</g>
<g id="Bloody_Axe">
</g>
</svg>
