<?xml version="1.0" encoding="iso-8859-1"?>
<!-- Generator: Adobe Illustrator 19.2.1, SVG Export Plug-In . SVG Version: 6.00 Build 0)  -->
<svg version="1.1" xmlns="http://www.w3.org/2000/svg" xmlns:xlink="http://www.w3.org/1999/xlink" x="0px" y="0px"
	 viewBox="0 0 24 24" style="enable-background:new 0 0 24 24;" xml:space="preserve">
<g id="Pompkin">
</g>
<g id="Layer_10">
</g>
<g id="Bat">
</g>
<g id="Ghost">
</g>
<g id="Bone_Hand">
</g>
<g id="Tree_Ghost">
</g>
<g id="Gate">
</g>
<g id="Cemetery_1">
</g>
<g id="Cemetery_2">
</g>
<g id="Devil_x27_s_Fork">
</g>
<g id="Night_Candle">
</g>
<g id="Canlestick">
</g>
<g id="Black_Cat">
</g>
<g id="Witch_Cauldron">
</g>
<g id="Corn_Candy">
</g>
<g id="Layer_29">
</g>
<g id="Bones">
</g>
<g id="Witch_Broom">
</g>
<g id="Owl">
</g>
<g id="Scythe">
</g>
<g id="Grim_Reaper">
</g>
<g id="Coffin">
</g>
<g id="Dracula">
</g>
<g id="Frankenstein">
</g>
<g id="Layer_40">
</g>
<g id="Toilet_Paper">
</g>
<g id="Skull">
</g>
<g id="Skull_Cake">
</g>
<g id="Eyeball">
</g>
<g id="Castle">
</g>
<g id="Witch_x27_s_Hat">
</g>
<g id="Cobweb_1">
</g>
<g id="Cobweb_2">
</g>
<g id="Spider">
	<g>
		<g>
			<path d="M12.232,12.169c-0.065,0-0.131-0.013-0.193-0.039c-0.425-0.178-0.654-0.178-1.079,0c-0.123,0.053-0.262,0.053-0.386,0
				c-0.124-0.052-0.221-0.151-0.271-0.275l-0.527-1.317c-0.228-0.57-0.159-1.215,0.186-1.724C10.307,8.304,10.879,8,11.494,8
				c0.626,0,1.199,0.304,1.544,0.813c0.344,0.509,0.414,1.153,0.186,1.724l-0.527,1.317c-0.05,0.124-0.147,0.224-0.271,0.275
				C12.364,12.156,12.298,12.169,12.232,12.169z M11.5,11c0.145,0,0.291,0.017,0.441,0.05l0.354-0.884
				c0.106-0.267,0.076-0.555-0.085-0.792c-0.328-0.486-1.104-0.467-1.42,0c-0.161,0.237-0.191,0.525-0.085,0.792l0.354,0.884
				C11.209,11.017,11.355,11,11.5,11z"/>
		</g>
		<g>
			<path d="M11.5,19C9.57,19,8,17.43,8,15.5c0-1.813,1.47-4.5,3.5-4.5s3.5,2.688,3.5,4.5C15,17.43,13.43,19,11.5,19z M11.5,12
				C10.236,12,9,14.004,9,15.5c0,1.379,1.122,2.5,2.5,2.5s2.5-1.121,2.5-2.5C14,14.004,12.764,12,11.5,12z"/>
		</g>
		<g>
			<path d="M10.498,8.999c-0.153,0-0.304-0.07-0.402-0.204c-0.302-0.413-0.682-1.393,0.044-2.143
				c0.192-0.198,0.509-0.203,0.707-0.012c0.199,0.192,0.204,0.509,0.012,0.707c-0.316,0.326,0.008,0.807,0.046,0.86
				c0.159,0.224,0.108,0.536-0.115,0.696C10.702,8.968,10.6,8.999,10.498,8.999z"/>
		</g>
		<g>
			<path d="M12.222,9c-0.103,0-0.206-0.031-0.295-0.097c-0.222-0.162-0.271-0.473-0.11-0.695c0.039-0.056,0.362-0.535,0.046-0.86
				c-0.192-0.198-0.187-0.515,0.012-0.707c0.199-0.19,0.515-0.187,0.707,0.012c0.726,0.75,0.346,1.729,0.044,2.143
				C12.528,8.929,12.376,9,12.222,9z"/>
		</g>
		<g>
			<path d="M13,10c-0.119,0-0.239-0.042-0.334-0.128c-0.205-0.186-0.222-0.501-0.037-0.707L17,4.309V0.5C17,0.224,17.224,0,17.5,0
				S18,0.224,18,0.5v4c0,0.123-0.046,0.242-0.128,0.335l-4.5,5C13.273,9.944,13.137,10,13,10z"/>
		</g>
		<g>
			<path d="M13,11c-0.189,0-0.37-0.107-0.455-0.29c-0.116-0.251-0.006-0.548,0.245-0.664l6.419-2.963l2.937-2.937
				c0.195-0.195,0.512-0.195,0.707,0s0.195,0.512,0,0.707l-3,3c-0.042,0.042-0.09,0.076-0.144,0.101l-6.5,3
				C13.142,10.985,13.07,11,13,11z"/>
		</g>
		<g>
			<path d="M22.5,14c-0.128,0-0.256-0.049-0.354-0.146l-2.823-2.823l-6.752,0.965c-0.278,0.03-0.527-0.151-0.566-0.425
				c-0.039-0.273,0.151-0.526,0.424-0.565l7-1c0.159-0.019,0.313,0.029,0.424,0.142l3,3c0.195,0.195,0.195,0.512,0,0.707
				C22.756,13.951,22.628,14,22.5,14z"/>
		</g>
		<g>
			<path d="M19.5,24c-0.233,0-0.442-0.164-0.49-0.402l-0.975-4.873l-5.417-6.401c-0.178-0.211-0.152-0.526,0.059-0.705
				c0.211-0.178,0.525-0.15,0.705,0.059l5.5,6.5c0.055,0.064,0.092,0.143,0.108,0.226l1,5c0.054,0.271-0.122,0.534-0.392,0.588
				C19.565,23.997,19.532,24,19.5,24z"/>
		</g>
		<g>
			<path d="M10,10c-0.137,0-0.273-0.056-0.372-0.165l-4.5-5C5.046,4.742,5,4.623,5,4.5v-4C5,0.224,5.224,0,5.5,0S6,0.224,6,0.5
				v3.809l4.372,4.856c0.185,0.206,0.168,0.521-0.037,0.707C10.239,9.958,10.119,10,10,10z"/>
		</g>
		<g>
			<path d="M10,11c-0.07,0-0.141-0.015-0.209-0.046l-6.5-3C3.237,7.93,3.188,7.896,3.146,7.854l-3-3
				c-0.195-0.195-0.195-0.512,0-0.707s0.512-0.195,0.707,0l2.937,2.937l6.419,2.963c0.251,0.116,0.36,0.413,0.245,0.664
				C10.37,10.893,10.188,11,10,11z"/>
		</g>
		<g>
			<path d="M0.5,14c-0.128,0-0.256-0.049-0.354-0.146c-0.195-0.195-0.195-0.512,0-0.707l3-3c0.111-0.111,0.268-0.159,0.424-0.142
				l7,1c0.273,0.039,0.463,0.292,0.424,0.565c-0.039,0.274-0.288,0.459-0.566,0.425L3.677,11.03l-2.823,2.823
				C0.756,13.951,0.628,14,0.5,14z"/>
		</g>
		<g>
			<path d="M3.5,24c-0.032,0-0.065-0.003-0.099-0.01c-0.271-0.054-0.446-0.317-0.392-0.588l1-5c0.017-0.083,0.054-0.161,0.108-0.226
				l5.5-6.5c0.179-0.209,0.494-0.236,0.705-0.059c0.211,0.179,0.237,0.494,0.059,0.705l-5.417,6.401L3.99,23.598
				C3.943,23.836,3.734,24,3.5,24z"/>
		</g>
		<g>
			<path d="M11.5,17c-0.276,0-0.5-0.224-0.5-0.5v-3c0-0.276,0.224-0.5,0.5-0.5s0.5,0.224,0.5,0.5v3C12,16.776,11.776,17,11.5,17z"/>
		</g>
		<g>
			<path d="M12.5,15h-2c-0.276,0-0.5-0.224-0.5-0.5s0.224-0.5,0.5-0.5h2c0.276,0,0.5,0.224,0.5,0.5S12.776,15,12.5,15z"/>
		</g>
	</g>
</g>
<g id="Full_Moon">
</g>
<g id="Crescent">
</g>
<g id="Crow">
</g>
<g id="Candy_Holder">
</g>
<g id="Bloody_Knife">
</g>
<g id="Bloody_Axe">
</g>
</svg>
