<?xml version="1.0" encoding="iso-8859-1"?>
<!-- Generator: Adobe Illustrator 19.2.1, SVG Export Plug-In . SVG Version: 6.00 Build 0)  -->
<svg version="1.1" xmlns="http://www.w3.org/2000/svg" xmlns:xlink="http://www.w3.org/1999/xlink" x="0px" y="0px"
	 viewBox="0 0 24 24" style="enable-background:new 0 0 24 24;" xml:space="preserve">
<g id="Pompkin">
</g>
<g id="Layer_10">
</g>
<g id="Bat">
</g>
<g id="Ghost">
</g>
<g id="Bone_Hand">
</g>
<g id="Tree_Ghost">
</g>
<g id="Gate">
</g>
<g id="Cemetery_1">
</g>
<g id="Cemetery_2">
</g>
<g id="Devil_x27_s_Fork">
</g>
<g id="Night_Candle">
</g>
<g id="Canlestick">
</g>
<g id="Black_Cat">
</g>
<g id="Witch_Cauldron">
</g>
<g id="Corn_Candy">
</g>
<g id="Layer_29">
</g>
<g id="Bones">
</g>
<g id="Witch_Broom">
</g>
<g id="Owl">
</g>
<g id="Scythe">
</g>
<g id="Grim_Reaper">
</g>
<g id="Coffin">
</g>
<g id="Dracula">
</g>
<g id="Frankenstein">
</g>
<g id="Layer_40">
</g>
<g id="Toilet_Paper">
	<g>
		<g>
			<path d="M19.5,13.5c-1.036,0-1.5-1.758-1.5-3.5s0.464-3.5,1.5-3.5S21,8.258,21,10S20.536,13.5,19.5,13.5z M19.56,12.513h0.01
				H19.56z M19.5,7.545C19.315,7.779,19,8.617,19,10s0.315,2.221,0.5,2.455C19.685,12.221,20,11.383,20,10S19.685,7.779,19.5,7.545z
				"/>
		</g>
		<g>
			<path d="M19.5,20c-2.523,0-4.5-4.393-4.5-10s1.977-10,4.5-10S24,4.393,24,10S22.023,20,19.5,20z M19.5,1C17.845,1,16,4.696,16,10
				s1.845,9,3.5,9s3.5-3.696,3.5-9S21.155,1,19.5,1z"/>
		</g>
		<g>
			<path d="M19.5,20h-4c-0.276,0-0.5-0.224-0.5-0.5s0.224-0.5,0.5-0.5h4c0.276,0,0.5,0.224,0.5,0.5S19.776,20,19.5,20z"/>
		</g>
		<g>
			<path d="M15.5,24c-0.212,0-0.405-0.135-0.475-0.342l-1.568-4.705l-1.493,3.732c-0.068,0.173-0.228,0.293-0.412,0.312
				s-0.364-0.065-0.468-0.22L9.5,20.401l-1.584,2.376c-0.107,0.161-0.293,0.248-0.49,0.217c-0.191-0.028-0.349-0.165-0.404-0.351
				l-0.978-3.258l-1.059,4.235C4.931,23.841,4.734,23.996,4.509,24c-0.241,0.007-0.427-0.145-0.489-0.362l-1.599-5.594l-1.457,3.642
				c-0.088,0.223-0.318,0.351-0.559,0.306C0.17,21.945,0,21.739,0,21.5V10C0,4.393,1.977,0,4.5,0h15C19.776,0,20,0.224,20,0.5
				S19.776,1,19.5,1h-15C2.845,1,1,4.696,1,10v8.903l1.036-2.589c0.079-0.198,0.286-0.331,0.489-0.313
				c0.214,0.011,0.396,0.156,0.455,0.361l1.487,5.205l1.047-4.188C5.569,17.16,5.764,17.005,5.988,17
				c0.232,0.002,0.426,0.141,0.49,0.356l1.195,3.981l1.41-2.115c0.186-0.277,0.646-0.277,0.832,0l1.473,2.209l1.647-4.117
				c0.078-0.195,0.272-0.308,0.479-0.314c0.21,0.007,0.394,0.143,0.46,0.342L15,20.419V9.5C15,9.224,15.224,9,15.5,9
				S16,9.224,16,9.5v14c0,0.245-0.178,0.454-0.42,0.493C15.553,23.998,15.526,24,15.5,24z"/>
		</g>
	</g>
</g>
<g id="Skull">
</g>
<g id="Skull_Cake">
</g>
<g id="Eyeball">
</g>
<g id="Castle">
</g>
<g id="Witch_x27_s_Hat">
</g>
<g id="Cobweb_1">
</g>
<g id="Cobweb_2">
</g>
<g id="Spider">
</g>
<g id="Full_Moon">
</g>
<g id="Crescent">
</g>
<g id="Crow">
</g>
<g id="Candy_Holder">
</g>
<g id="Bloody_Knife">
</g>
<g id="Bloody_Axe">
</g>
</svg>
