<?xml version="1.0" encoding="iso-8859-1"?>
<!-- Generator: Adobe Illustrator 19.2.1, SVG Export Plug-In . SVG Version: 6.00 Build 0)  -->
<svg version="1.1" xmlns="http://www.w3.org/2000/svg" xmlns:xlink="http://www.w3.org/1999/xlink" x="0px" y="0px"
	 viewBox="0 0 24 24" style="enable-background:new 0 0 24 24;" xml:space="preserve">
<g id="Pompkin">
</g>
<g id="Layer_10">
</g>
<g id="Bat">
</g>
<g id="Ghost">
</g>
<g id="Bone_Hand">
</g>
<g id="Tree_Ghost">
	<g>
		<g>
			<path d="M19.5,23.503c-0.046,0-0.093-0.006-0.139-0.02c-4.886-1.416-5.863-0.315-5.958-0.185
				c-0.129,0.177-0.357,0.246-0.563,0.178c-0.023-0.008-2.312-0.782-3.428-0.981c-0.419-0.076-0.899,0.076-1.561,0.288
				c-0.764,0.247-1.81,0.583-3.307,0.718c-0.228,0.017-0.42-0.103-0.505-0.302s-0.031-0.431,0.132-0.573l0.097-0.084
				c0.899-0.783,2.238-1.947,3.761-2.844C8.252,17.065,8.243,4.216,8.003,2.058L8,1c0-0.211,0.133-0.399,0.331-0.471
				c0.2-0.069,0.421-0.01,0.555,0.152L9.33,1.22l0.443-0.538C9.868,0.567,10.01,0.5,10.158,0.5c0.001,0,0.001,0,0.001,0
				c0.149,0,0.29,0.066,0.385,0.181l0.448,0.542l0.449-0.542C11.536,0.566,11.677,0.5,11.826,0.5l0,0
				c0.148,0,0.289,0.066,0.385,0.18l0.573,0.69l1.477-0.806c0.154-0.083,0.344-0.08,0.494,0.009C14.907,0.663,15,0.826,15,1.003
				l0.017,1.388c0.414,9.969,0.743,15.871,0.979,17.542c0.174,1.237,0.459,1.306,1.304,1.511c0.635,0.154,1.503,0.364,2.513,1.168
				c0.187,0.148,0.242,0.409,0.133,0.621C19.856,23.402,19.684,23.503,19.5,23.503z M9.171,21.473c0.139,0,0.278,0.012,0.42,0.038
				c0.946,0.169,2.589,0.694,3.267,0.917c0.439-0.375,1.276-0.718,2.83-0.65c-0.329-0.333-0.562-0.847-0.683-1.706
				c-0.239-1.704-0.572-7.639-0.987-17.641L14,1.846l-1.098,0.6c-0.208,0.113-0.471,0.064-0.624-0.119l-0.451-0.543l-0.45,0.542
				c-0.095,0.115-0.236,0.181-0.385,0.181l0,0c-0.149,0-0.29-0.066-0.385-0.181l-0.447-0.54L9.716,2.324
				C9.554,2.523,9.239,2.56,9.035,2.41c0.213,3.136,0.2,15.783-0.039,17.657c-0.021,0.156-0.113,0.294-0.25,0.372
				c-0.942,0.532-1.809,1.175-2.561,1.787c0.526-0.125,0.968-0.268,1.359-0.394C8.151,21.636,8.657,21.473,9.171,21.473z
				 M8.5,20.003h0.01H8.5z"/>
		</g>
		<g>
			<path d="M3.5,10.503c-0.128,0-0.256-0.049-0.354-0.146c-0.191-0.192-0.195-0.5-0.011-0.696c0.142-0.229,0.234-1.608-1.04-3.363
				c-0.162-0.224-0.113-0.536,0.11-0.699c0.223-0.161,0.536-0.113,0.698,0.111c1.536,2.116,1.538,4.058,0.949,4.647
				C3.756,10.454,3.628,10.503,3.5,10.503z"/>
		</g>
		<g>
			<path d="M8.685,13.003c-0.009,0-0.019,0-0.028-0.001c-1.859-0.104-5.188-1.882-7.539-4.678C0.939,8.113,0.967,7.798,1.178,7.62
				c0.211-0.176,0.527-0.15,0.705,0.061c2.147,2.554,5.218,4.233,6.83,4.323c0.275,0.015,0.486,0.251,0.471,0.527
				C9.169,12.797,8.948,13.003,8.685,13.003z"/>
		</g>
		<g>
			<path d="M15,11.503c-0.222,0-0.425-0.148-0.483-0.373c-0.07-0.267,0.089-0.541,0.356-0.61c3.7-0.973,6.832-3.859,7.13-6.571
				c0.03-0.275,0.281-0.47,0.552-0.442c0.274,0.03,0.473,0.277,0.442,0.552c-0.346,3.146-3.729,6.34-7.87,7.429
				C15.085,11.498,15.042,11.503,15,11.503z"/>
		</g>
		<g>
			<path d="M11,16.003c-0.076,0-0.152-0.018-0.224-0.053l-1-0.5c-0.247-0.124-0.347-0.424-0.224-0.671l0.5-1
				c0.09-0.181,0.286-0.289,0.482-0.275c0.202,0.014,0.375,0.148,0.439,0.34l0.5,1.5c0.063,0.192,0.006,0.403-0.147,0.536
				C11.234,15.961,11.118,16.003,11,16.003z"/>
		</g>
		<g>
			<path d="M13,16.003c-0.118,0-0.234-0.042-0.327-0.122c-0.153-0.133-0.211-0.344-0.147-0.536l0.5-1.5
				c0.064-0.192,0.237-0.326,0.439-0.34c0.201-0.015,0.392,0.094,0.482,0.275l0.5,1c0.123,0.247,0.023,0.547-0.224,0.671l-1,0.5
				C13.152,15.985,13.076,16.003,13,16.003z"/>
		</g>
		<g>
			<path d="M20.999,7.503c-0.239,0-0.451-0.173-0.492-0.418l-0.5-3c-0.046-0.272,0.139-0.53,0.411-0.575
				c0.265-0.047,0.529,0.139,0.575,0.411l0.5,3c0.046,0.272-0.139,0.53-0.411,0.575C21.055,7.501,21.026,7.503,20.999,7.503z"/>
		</g>
	</g>
</g>
<g id="Gate">
</g>
<g id="Cemetery_1">
</g>
<g id="Cemetery_2">
</g>
<g id="Devil_x27_s_Fork">
</g>
<g id="Night_Candle">
</g>
<g id="Canlestick">
</g>
<g id="Black_Cat">
</g>
<g id="Witch_Cauldron">
</g>
<g id="Corn_Candy">
</g>
<g id="Layer_29">
</g>
<g id="Bones">
</g>
<g id="Witch_Broom">
</g>
<g id="Owl">
</g>
<g id="Scythe">
</g>
<g id="Grim_Reaper">
</g>
<g id="Coffin">
</g>
<g id="Dracula">
</g>
<g id="Frankenstein">
</g>
<g id="Layer_40">
</g>
<g id="Toilet_Paper">
</g>
<g id="Skull">
</g>
<g id="Skull_Cake">
</g>
<g id="Eyeball">
</g>
<g id="Castle">
</g>
<g id="Witch_x27_s_Hat">
</g>
<g id="Cobweb_1">
</g>
<g id="Cobweb_2">
</g>
<g id="Spider">
</g>
<g id="Full_Moon">
</g>
<g id="Crescent">
</g>
<g id="Crow">
</g>
<g id="Candy_Holder">
</g>
<g id="Bloody_Knife">
</g>
<g id="Bloody_Axe">
</g>
</svg>
