<?xml version="1.0" encoding="iso-8859-1"?>
<!-- Generator: Adobe Illustrator 19.2.1, SVG Export Plug-In . SVG Version: 6.00 Build 0)  -->
<svg version="1.1" xmlns="http://www.w3.org/2000/svg" xmlns:xlink="http://www.w3.org/1999/xlink" x="0px" y="0px"
	 viewBox="0 0 24 24" style="enable-background:new 0 0 24 24;" xml:space="preserve">
<g id="Pompkin">
</g>
<g id="Layer_10">
</g>
<g id="Bat">
</g>
<g id="Ghost">
</g>
<g id="Bone_Hand">
</g>
<g id="Tree_Ghost">
</g>
<g id="Gate">
</g>
<g id="Cemetery_1">
</g>
<g id="Cemetery_2">
</g>
<g id="Devil_x27_s_Fork">
</g>
<g id="Night_Candle">
</g>
<g id="Canlestick">
</g>
<g id="Black_Cat">
</g>
<g id="Witch_Cauldron">
</g>
<g id="Corn_Candy">
</g>
<g id="Layer_29">
</g>
<g id="Bones">
</g>
<g id="Witch_Broom">
</g>
<g id="Owl">
</g>
<g id="Scythe">
</g>
<g id="Grim_Reaper">
</g>
<g id="Coffin">
</g>
<g id="Dracula">
</g>
<g id="Frankenstein">
</g>
<g id="Layer_40">
</g>
<g id="Toilet_Paper">
</g>
<g id="Skull">
</g>
<g id="Skull_Cake">
</g>
<g id="Eyeball">
</g>
<g id="Castle">
</g>
<g id="Witch_x27_s_Hat">
	<g>
		<g>
			<path d="M11,15.995c-2.408,0-5-0.626-5-2c0-0.276,0.224-0.5,0.5-0.5s0.5,0.224,0.5,0.5c0,0.257,1.375,1,4,1
				c1.993,0,3.404-0.435,3.872-0.838c0.209-0.18,0.524-0.158,0.706,0.053c0.18,0.209,0.157,0.524-0.052,0.705
				C14.752,15.581,13.018,15.995,11,15.995z"/>
		</g>
		<g>
			<path d="M11,14.015c-1.785,0-4.115-0.364-4.806-1.392c-0.154-0.229-0.093-0.54,0.136-0.694c0.229-0.154,0.54-0.094,0.694,0.136
				c0.257,0.384,1.7,0.95,3.976,0.95c1.427,0,2.742-0.229,3.517-0.613c0.248-0.123,0.547-0.021,0.67,0.227
				c0.123,0.247,0.021,0.547-0.226,0.67C14.055,13.747,12.574,14.015,11,14.015z"/>
		</g>
		<g>
			<path d="M9.5,15.495c-0.276,0-0.5-0.224-0.5-0.5v-1.5c0-0.276,0.224-0.5,0.5-0.5s0.5,0.224,0.5,0.5v1.5
				C10,15.271,9.776,15.495,9.5,15.495z"/>
		</g>
		<g>
			<path d="M12.5,15.495c-0.276,0-0.5-0.224-0.5-0.5v-1.5c0-0.276,0.224-0.5,0.5-0.5s0.5,0.224,0.5,0.5v1.5
				C13,15.271,12.776,15.495,12.5,15.495z"/>
		</g>
		<g>
			<path d="M11.5,23.995c-5.715,0-11.5-1.202-11.5-3.5c0-2.044,4.491-2.894,6.421-3.163c0.141-0.018,0.286,0.022,0.395,0.115
				c0.109,0.094,0.172,0.229,0.174,0.373l0.007,0.505c0.45,0.255,2.222,0.67,4.502,0.67c2.188,0,3.907-0.382,4.44-0.638l-0.12-0.421
				c-0.047-0.162-0.008-0.337,0.102-0.464c0.11-0.128,0.277-0.192,0.444-0.17C18.361,17.568,23,18.41,23,20.495
				C23,22.793,17.215,23.995,11.5,23.995z M5.999,18.406C2.369,18.989,1,19.981,1,20.495c0,1.02,4.09,2.5,10.5,2.5
				s10.5-1.48,10.5-2.5c0-0.52-1.375-1.509-5.008-2.09c0.005,0.029,0.008,0.06,0.008,0.09c0,1.459-5.445,1.5-5.5,1.5
				S6,19.954,6,18.495L5.999,18.406z M7,18.48v0.01C7,18.486,7,18.483,7,18.48z"/>
		</g>
		<g>
			<path d="M11.5,19.995c-0.055,0-5.5-0.041-5.5-1.5l-0.006-0.418C5.94,14.36,5.774,3.049,10.776,0.548
				c2.911-1.455,6.49,0.25,8.137,2.666c0.129,0.189,0.113,0.442-0.039,0.613c-0.154,0.171-0.402,0.216-0.605,0.111
				c-1.798-0.937-3.075-1.208-3.697-0.782c-0.573,0.393-0.772,1.528-0.575,3.283c0.29,2.578,1.812,7.851,2.629,10.684l0.355,1.236
				C16.994,18.403,17,18.449,17,18.495C17,19.954,11.555,19.995,11.5,19.995z M6.998,18.325c0.45,0.255,2.222,0.67,4.502,0.67
				c2.187,0,3.907-0.382,4.44-0.638L15.666,17.4c-0.826-2.861-2.363-8.187-2.663-10.85c-0.248-2.206,0.081-3.587,1.004-4.22
				c0.588-0.402,1.36-0.481,2.36-0.235c-1.437-0.986-3.36-1.544-5.143-0.653c-2.946,1.474-4.37,7.064-4.229,16.62L6.998,18.325z
				 M7,18.479v0.01C7,18.486,7,18.483,7,18.479z"/>
		</g>
	</g>
</g>
<g id="Cobweb_1">
</g>
<g id="Cobweb_2">
</g>
<g id="Spider">
</g>
<g id="Full_Moon">
</g>
<g id="Crescent">
</g>
<g id="Crow">
</g>
<g id="Candy_Holder">
</g>
<g id="Bloody_Knife">
</g>
<g id="Bloody_Axe">
</g>
</svg>
