<?xml version="1.0" encoding="iso-8859-1"?>
<!-- Generator: Adobe Illustrator 19.2.1, SVG Export Plug-In . SVG Version: 6.00 Build 0)  -->
<svg version="1.1" xmlns="http://www.w3.org/2000/svg" xmlns:xlink="http://www.w3.org/1999/xlink" x="0px" y="0px"
	 viewBox="0 0 24 24" style="enable-background:new 0 0 24 24;" xml:space="preserve">
<g id="Pompkin">
</g>
<g id="Layer_10">
</g>
<g id="Bat">
</g>
<g id="Ghost">
</g>
<g id="Bone_Hand">
</g>
<g id="Tree_Ghost">
</g>
<g id="Gate">
</g>
<g id="Cemetery_1">
</g>
<g id="Cemetery_2">
</g>
<g id="Devil_x27_s_Fork">
</g>
<g id="Night_Candle">
</g>
<g id="Canlestick">
</g>
<g id="Black_Cat">
</g>
<g id="Witch_Cauldron">
	<g>
		<g>
			<path d="M17.5,24h-2c-0.189,0-0.362-0.107-0.447-0.276l-0.623-1.245c-1.879,0.692-3.981,0.692-5.86,0l-0.623,1.245
				C7.862,23.893,7.689,24,7.5,24h-2C4.673,24,4,23.327,4,22.5S4.673,21,5.5,21L6,20.975c-1.91-1.622-3-3.968-3-6.475
				c0-1.951,0.646-3.788,1.87-5.313C4.965,9.069,5.108,9,5.26,9H17.74c0.152,0,0.295,0.069,0.39,0.187
				C19.354,10.712,20,12.549,20,14.5c0,2.507-1.09,4.854-3,6.475V21h0.5c0.827,0,1.5,0.673,1.5,1.5S18.327,24,17.5,24z M15.809,23
				H17.5c0.276,0,0.5-0.224,0.5-0.5S17.776,22,17.5,22h-1c-0.276,0-0.5-0.224-0.5-0.5v-0.76c0-0.152,0.069-0.295,0.187-0.39
				C17.975,18.915,19,16.783,19,14.5c0-1.642-0.52-3.192-1.505-4.5H5.505C4.52,11.308,4,12.858,4,14.5
				c0,2.283,1.025,4.415,2.813,5.85C6.931,20.445,7,20.588,7,20.74v0.76C7,21.776,6.776,22,6.5,22h-1C5.224,22,5,22.224,5,22.5
				S5.224,23,5.5,23h1.691l0.69-1.38C8,21.383,8.283,21.279,8.526,21.385c1.89,0.816,4.058,0.816,5.947,0
				c0.243-0.105,0.526-0.002,0.646,0.235L15.809,23z"/>
		</g>
		<g>
			<path d="M17.5,10h-12C4.673,10,4,9.327,4,8.5S4.673,7,5.5,7h12C18.327,7,19,7.673,19,8.5S18.327,10,17.5,10z M5.5,8
				C5.224,8,5,8.224,5,8.5S5.224,9,5.5,9h12C17.776,9,18,8.776,18,8.5S17.776,8,17.5,8H5.5z"/>
		</g>
		<g>
			<path d="M6.045,17.502c-0.189,0-0.371-0.108-0.455-0.292C5.199,16.357,5,15.445,5,14.5C5,14.224,5.224,14,5.5,14S6,14.224,6,14.5
				c0,0.8,0.168,1.572,0.5,2.294c0.115,0.251,0.005,0.548-0.246,0.663C6.186,17.488,6.115,17.502,6.045,17.502z"/>
		</g>
		<g>
			<path d="M13,6c-0.551,0-1-0.449-1-1s0.449-1,1-1s1,0.449,1,1S13.551,6,13,6z M13,4.999C13,5,13,5,13,4.999L13.5,5L13,4.999z"/>
		</g>
		<g>
			<path d="M9.5,6C8.673,6,8,5.327,8,4.5S8.673,3,9.5,3S11,3.673,11,4.5S10.327,6,9.5,6z M9.5,4C9.224,4,9,4.224,9,4.5
				S9.224,5,9.5,5S10,4.776,10,4.5S9.776,4,9.5,4z"/>
		</g>
		<g>
			<path d="M12.5,3C11.673,3,11,2.327,11,1.5S11.673,0,12.5,0S14,0.673,14,1.5S13.327,3,12.5,3z M12.5,1C12.224,1,12,1.224,12,1.5
				S12.224,2,12.5,2S13,1.776,13,1.5S12.776,1,12.5,1z"/>
		</g>
	</g>
</g>
<g id="Corn_Candy">
</g>
<g id="Layer_29">
</g>
<g id="Bones">
</g>
<g id="Witch_Broom">
</g>
<g id="Owl">
</g>
<g id="Scythe">
</g>
<g id="Grim_Reaper">
</g>
<g id="Coffin">
</g>
<g id="Dracula">
</g>
<g id="Frankenstein">
</g>
<g id="Layer_40">
</g>
<g id="Toilet_Paper">
</g>
<g id="Skull">
</g>
<g id="Skull_Cake">
</g>
<g id="Eyeball">
</g>
<g id="Castle">
</g>
<g id="Witch_x27_s_Hat">
</g>
<g id="Cobweb_1">
</g>
<g id="Cobweb_2">
</g>
<g id="Spider">
</g>
<g id="Full_Moon">
</g>
<g id="Crescent">
</g>
<g id="Crow">
</g>
<g id="Candy_Holder">
</g>
<g id="Bloody_Knife">
</g>
<g id="Bloody_Axe">
</g>
</svg>
