<?xml version="1.0" encoding="iso-8859-1"?>
<!-- Generator: Adobe Illustrator 19.2.1, SVG Export Plug-In . SVG Version: 6.00 Build 0)  -->
<svg version="1.1" xmlns="http://www.w3.org/2000/svg" xmlns:xlink="http://www.w3.org/1999/xlink" x="0px" y="0px"
	 viewBox="0 0 24 24" style="enable-background:new 0 0 24 24;" xml:space="preserve">
<g id="Add_Users">
	<g>
		<g>
			<g>
				<g>
					<g>
						<g>
							<g>
								<path d="M18.5,24c-3.033,0-5.5-2.467-5.5-5.5s2.467-5.5,5.5-5.5s5.5,2.467,5.5,5.5S21.533,24,18.5,24z M18.5,14
									c-2.481,0-4.5,2.019-4.5,4.5s2.019,4.5,4.5,4.5s4.5-2.019,4.5-4.5S20.981,14,18.5,14z"/>
							</g>
						</g>
						<g>
							<path d="M20.5,19h-4c-0.276,0-0.5-0.224-0.5-0.5s0.224-0.5,0.5-0.5h4c0.276,0,0.5,0.224,0.5,0.5S20.776,19,20.5,19z"/>
						</g>
						<g>
							<path d="M18.5,21c-0.276,0-0.5-0.224-0.5-0.5v-4c0-0.276,0.224-0.5,0.5-0.5s0.5,0.224,0.5,0.5v4C19,20.776,18.776,21,18.5,21
								z"/>
						</g>
					</g>
				</g>
			</g>
		</g>
		<g>
			<g>
				<path d="M17.3,12.11c-0.133,0-0.267-0.053-0.365-0.158c-0.188-0.202-0.178-0.518,0.023-0.707
					c0.73-0.683,1.211-1.675,1.289-2.654c0.021-0.26,0.238-0.46,0.499-0.46c0.06,0,0.093-0.01,0.135-0.029
					c0.077-0.036,0.129-0.104,0.139-0.18l0.185-1.479c0.011-0.092-0.031-0.155-0.057-0.185c-0.026-0.03-0.084-0.081-0.178-0.082
					c-0.136-0.001-0.266-0.058-0.358-0.157c-0.093-0.099-0.142-0.231-0.136-0.367l0.09-1.85c0.006-0.124,0.058-0.241,0.146-0.329
					l0.369-0.37c0.209-0.222,0.375-0.551-0.064-1.22C18.633,1.297,17.936,1,16.944,1c-0.419,0-0.973,0.025-1.545,0.218
					c-0.261,0.089-0.545-0.051-0.634-0.313c-0.088-0.262,0.052-0.545,0.313-0.634C15.789,0.031,16.449,0,16.944,0
					c1.351,0,2.33,0.449,2.909,1.335c0.768,1.171,0.395,1.986-0.054,2.464l-0.243,0.244l-0.062,1.25
					c0.154,0.072,0.293,0.176,0.407,0.307c0.231,0.265,0.339,0.617,0.295,0.967l-0.185,1.478c-0.052,0.42-0.317,0.781-0.71,0.964
					c-0.035,0.016-0.069,0.031-0.104,0.043c-0.179,1.092-0.744,2.162-1.556,2.923C17.545,12.065,17.423,12.11,17.3,12.11z"/>
			</g>
		</g>
		<g>
			<path d="M0.5,17.998c-0.276,0-0.5-0.224-0.5-0.5c0-1.969,1.334-3.679,3.246-4.156l2.755-0.688l0.221-0.884
				c-0.685-0.729-1.163-1.694-1.33-2.682c-0.474-0.13-0.84-0.535-0.903-1.042L3.803,6.567C3.759,6.214,3.869,5.859,4.104,5.593
				C4.229,5.451,4.385,5.34,4.557,5.269C4.504,4.81,4.435,4.144,4.435,3.826c0-1.398,0.421-3.003,3.667-3.084
				C9.228,0,10.423,0,10.944,0c1.351,0,2.33,0.449,2.909,1.335c0.768,1.171,0.395,1.986-0.054,2.464l-0.243,0.244l-0.062,1.25
				c0.154,0.072,0.293,0.176,0.407,0.307c0.231,0.265,0.339,0.617,0.295,0.967l-0.185,1.478c-0.059,0.475-0.384,0.86-0.814,1.014
				c-0.168,1.032-0.672,2.033-1.402,2.778l0.204,0.816l1.668,0.417c0.268,0.067,0.431,0.338,0.364,0.606
				c-0.067,0.268-0.339,0.431-0.606,0.364l-1.959-0.489c-0.179-0.044-0.319-0.185-0.364-0.364l-0.347-1.389
				c-0.045-0.18,0.013-0.37,0.151-0.493c0.76-0.681,1.261-1.695,1.342-2.713c0.021-0.26,0.238-0.46,0.499-0.46
				c0.157,0,0.259-0.09,0.273-0.209l0.185-1.479c0.011-0.092-0.031-0.155-0.057-0.185c-0.026-0.03-0.084-0.081-0.178-0.082
				c-0.136-0.001-0.266-0.058-0.358-0.157c-0.093-0.099-0.142-0.231-0.136-0.367l0.09-1.85c0.006-0.124,0.058-0.241,0.146-0.329
				l0.369-0.37c0.209-0.222,0.375-0.551-0.064-1.22C12.633,1.297,11.936,1,10.944,1c-0.737,0-1.597,0.077-2.393,0.646
				c-0.083,0.06-0.184,0.092-0.286,0.093C5.435,1.767,5.435,2.909,5.435,3.826c0,0.354,0.124,1.409,0.171,1.785
				c0.018,0.142-0.026,0.286-0.121,0.393C5.39,6.112,5.253,6.174,5.109,6.174c-0.17,0-0.229,0.051-0.256,0.081
				S4.784,6.35,4.795,6.443L4.98,7.921C4.995,8.041,5.097,8.13,5.218,8.13h0.12c0.261,0,0.478,0.2,0.499,0.46
				c0.079,0.987,0.558,1.982,1.281,2.66c0.132,0.124,0.188,0.31,0.143,0.486l-0.362,1.45c-0.044,0.179-0.185,0.319-0.364,0.364
				l-3.046,0.761C2.023,14.678,1,15.988,1,17.498C1,17.774,0.776,17.998,0.5,17.998z"/>
		</g>
	</g>
</g>
<g id="Remove_Users">
</g>
<g id="Delete_Users">
</g>
<g id="Done_3">
</g>
<g id="At_Symbol_3">
</g>
<g id="Question_3">
</g>
<g id="Answer_3">
</g>
<g id="Bring_Up_3">
</g>
<g id="Bring_Down_3">
</g>
<g id="Dismiss_Users">
</g>
<g id="Users_Speed_3">
</g>
<g id="Users_Settings">
</g>
<g id="Refresh_Users">
</g>
<g id="Time_3">
</g>
<g id="Dollar_3">
</g>
<g id="Euro_3">
</g>
<g id="Pound_3">
</g>
<g id="Bitcoin_3">
</g>
<g id="Global_Users">
</g>
<g id="Waiting_Users">
</g>
<g id="Writing_Users">
</g>
<g id="Search_Users">
</g>
<g id="Lock_Users">
</g>
<g id="Mark_Users">
</g>
<g id="Share_Users">
</g>
<g id="Shopping_3">
</g>
<g id="Download_3">
</g>
<g id="Upload_3">
</g>
<g id="Users_Statistics">
</g>
<g id="Users_Defense">
</g>
<g id="Car_3">
</g>
<g id="Home_3">
</g>
<g id="Park_3">
</g>
<g id="Recicle_Users">
</g>
<g id="Wifi_3">
</g>
<g id="Attach_3">
</g>
<g id="Disabled_Users">
</g>
<g id="Users_Card">
</g>
<g id="Gaming_3">
</g>
<g id="Cloud_3">
</g>
<g id="Database_3">
</g>
<g id="Copyright_3">
</g>
<g id="No_Copzright_3">
</g>
<g id="Creative_Commun_3">
</g>
<g id="Eco-Friendly_3">
</g>
<g id="Percentage_3">
</g>
<g id="Users_Love">
</g>
<g id="Users_Place">
</g>
<g id="Users_Key">
</g>
<g id="Sleeping_3">
</g>
</svg>
