<?xml version="1.0" encoding="iso-8859-1"?>
<!-- Generator: Adobe Illustrator 19.2.1, SVG Export Plug-In . SVG Version: 6.00 Build 0)  -->
<svg version="1.1" xmlns="http://www.w3.org/2000/svg" xmlns:xlink="http://www.w3.org/1999/xlink" x="0px" y="0px"
	 viewBox="0 0 24 24" style="enable-background:new 0 0 24 24;" xml:space="preserve">
<g id="Add_User">
</g>
<g id="Remove_User">
</g>
<g id="Delete_User">
</g>
<g id="Done">
</g>
<g id="At_Symbol">
</g>
<g id="Question">
</g>
<g id="Answer">
</g>
<g id="Bring_Up">
</g>
<g id="Bring_Down">
</g>
<g id="Dismiss_User">
</g>
<g id="User_Speed">
</g>
<g id="User_Settings">
</g>
<g id="User_Refresh">
</g>
<g id="User_Time">
</g>
<g id="Dollar">
</g>
<g id="Euro">
</g>
<g id="Pound">
</g>
<g id="Bitcoin">
</g>
<g id="Global_User">
</g>
<g id="Waiting_User">
</g>
<g id="Writing_User_2">
</g>
<g id="Search_User">
</g>
<g id="Lock_User">
</g>
<g id="Mark_User">
</g>
<g id="Share_User">
</g>
<g id="Shopping">
</g>
<g id="User_Download">
</g>
<g id="User_Upload">
</g>
<g id="User_Statistics">
</g>
<g id="User_Defense">
</g>
<g id="User_Car">
</g>
<g id="User_Home">
</g>
<g id="Park">
</g>
<g id="Recicle_User">
</g>
<g id="Wifi">
</g>
<g id="Attach_User">
</g>
<g id="Disabled_User">
</g>
<g id="User_Card">
</g>
<g id="Gaming">
</g>
<g id="User_Cloud">
</g>
<g id="User_Database">
</g>
<g id="Copyright">
</g>
<g id="No_Copyright">
</g>
<g id="Creative_Commun">
</g>
<g id="Eco-Friendly">
</g>
<g id="Percentage">
</g>
<g id="User_Love">
</g>
<g id="User_Place">
</g>
<g id="User_Key">
</g>
<g id="Sleeping">
</g>
<g id="Add_User_2">
</g>
<g id="Remove_User_2">
</g>
<g id="Delete_User_2">
</g>
<g id="Done_2">
</g>
<g id="At_Symbol_2">
</g>
<g id="Question_2">
</g>
<g id="Answer_2">
</g>
<g id="Bring_Up_2">
</g>
<g id="Bring_Down_2">
</g>
<g id="Dismiss_User_2">
</g>
<g id="User_Speed_2">
</g>
<g id="User_Settings_2">
</g>
<g id="Refresh_2">
</g>
<g id="Time_2">
</g>
<g id="Dollar_2">
</g>
<g id="Euro_2">
</g>
<g id="Pound_2">
</g>
<g id="Bitcoin_2">
</g>
<g id="Global_User_2">
</g>
<g id="Waiting_User_2">
</g>
<g id="Writing_User">
</g>
<g id="Search_User_2">
</g>
<g id="Lock_User_2">
</g>
<g id="Mark_User_2">
</g>
<g id="Share_User_2">
</g>
<g id="Shopping_2">
</g>
<g id="Download_2">
</g>
<g id="Upload_2">
</g>
<g id="User_Statistics_2">
</g>
<g id="User_Defense_2">
</g>
<g id="Car_2">
</g>
<g id="Home_2">
</g>
<g id="Park_2">
</g>
<g id="Recicle_User_2">
</g>
<g id="User_Wifi">
</g>
<g id="Attach_2">
	<g>
		<g>
			<g>
				<g>
					<path d="M11.025,24H0.501c-0.276,0-0.5-0.224-0.5-0.5v-2.402c0-0.041,0.005-0.081,0.015-0.121
						c0.261-1.043,0.669-2.064,1.889-2.472l4.438-1.479c1.043-0.436,1.531-2.162,1.636-2.817c-0.765-0.702-1.478-1.759-1.478-2.708
						c0-0.354-0.105-0.5-0.16-0.527c-0.156-0.039-0.244-0.138-0.304-0.287C5.981,10.549,5.501,9.322,5.501,8.5
						c0-0.041,0.005-0.082,0.015-0.121c0.055-0.22,0.208-0.54,0.485-0.728V5c0-2.088,1.902-5,5-5c3.061,0,3.892,1.569,3.989,2.345
						C15.509,2.729,16.001,3.389,16.001,5v2.651c0.277,0.188,0.431,0.508,0.485,0.728c0.01,0.039,0.015,0.08,0.015,0.121
						c0,0.822-0.48,2.049-0.536,2.186c-0.06,0.149-0.187,0.261-0.343,0.3C15.606,11,15.501,11.146,15.501,11.5
						c0,0.949-0.713,2.006-1.478,2.707c0.042,0.266,0.147,0.726,0.354,1.229c0.104,0.256-0.018,0.548-0.273,0.652
						c-0.257,0.104-0.548-0.019-0.652-0.273c-0.328-0.802-0.45-1.539-0.45-1.815c0-0.149,0.066-0.29,0.182-0.386
						c0.655-0.541,1.318-1.441,1.318-2.114c0-0.747,0.309-1.161,0.602-1.357c0.144-0.392,0.373-1.104,0.396-1.567
						c-0.018-0.039-0.041-0.08-0.057-0.094c-0.276,0-0.441-0.205-0.441-0.481V5c0-1.472-0.473-1.771-0.675-1.9
						c-0.121-0.077-0.325-0.206-0.355-0.48c-0.006-0.06,0.003-0.127,0.022-0.195C13.923,2.027,13.322,1,11.001,1
						c-2.441,0-4,2.369-4,4v3c0,0.276-0.224,0.5-0.5,0.5c0.024,0,0.015,0.034,0.002,0.072c0.022,0.466,0.253,1.179,0.396,1.57
						c0.293,0.195,0.602,0.61,0.602,1.357c0,0.673,0.663,1.573,1.318,2.114C8.935,13.71,9.001,13.851,9.001,14
						c0,0.635-0.577,3.24-2.308,3.962l-4.473,1.492c-0.71,0.236-0.989,0.805-1.22,1.706V23h10.024c0.276,0,0.5,0.224,0.5,0.5
						S11.302,24,11.025,24z"/>
				</g>
			</g>
			<g>
				<path d="M19.999,24h-5c-1.93,0-3.5-1.57-3.5-3.5s1.57-3.5,3.5-3.5h6.5c1.379,0,2.5,1.121,2.5,2.5s-1.121,2.5-2.5,2.5h-6.5
					c-0.827,0-1.5-0.673-1.5-1.5s0.673-1.5,1.5-1.5h5c0.276,0,0.5,0.224,0.5,0.5s-0.224,0.5-0.5,0.5h-5c-0.275,0-0.5,0.225-0.5,0.5
					s0.225,0.5,0.5,0.5h6.5c0.827,0,1.5-0.673,1.5-1.5s-0.673-1.5-1.5-1.5h-6.5c-1.379,0-2.5,1.121-2.5,2.5s1.121,2.5,2.5,2.5h5
					c0.276,0,0.5,0.224,0.5,0.5S20.275,24,19.999,24z"/>
			</g>
		</g>
	</g>
</g>
<g id="Disabled_User_2">
</g>
<g id="User_Card_2">
</g>
<g id="Gaming_2">
</g>
<g id="Cloud_2">
</g>
<g id="Database_2">
</g>
<g id="Copyright_2">
</g>
<g id="No_Copyright_2">
</g>
<g id="Creative_Commun_2">
</g>
<g id="Eco-Friendly_2">
</g>
<g id="Percentage_2">
</g>
<g id="User_Love_2">
</g>
<g id="User_Rate_2">
</g>
<g id="User_Key_2">
</g>
<g id="Sleeping_2">
</g>
</svg>
