<?xml version="1.0" encoding="iso-8859-1"?>
<!-- Generator: Adobe Illustrator 19.2.1, SVG Export Plug-In . SVG Version: 6.00 Build 0)  -->
<svg version="1.1" xmlns="http://www.w3.org/2000/svg" xmlns:xlink="http://www.w3.org/1999/xlink" x="0px" y="0px"
	 viewBox="0 0 24 24" style="enable-background:new 0 0 24 24;" xml:space="preserve">
<g id="Add_User">
</g>
<g id="Remove_User">
</g>
<g id="Delete_User">
</g>
<g id="Done">
</g>
<g id="At_Symbol">
</g>
<g id="Question">
</g>
<g id="Answer">
</g>
<g id="Bring_Up">
	<g>
		<g>
			<path d="M0.501,24c-0.133,0-0.26-0.053-0.354-0.146S0.001,23.633,0.001,23.5c0-3.123,1.065-4.907,3.258-5.455l3.83-0.958
				l0.348-1.393c-0.966-0.998-1.631-2.347-1.839-3.722c-0.625-0.122-1.121-0.634-1.202-1.287l-0.25-2
				C4.092,8.26,4.224,7.83,4.509,7.508C4.69,7.301,4.924,7.151,5.182,7.07C5.11,6.459,5.001,5.449,5.001,5
				c0-1.93,0.579-3.909,4.84-3.998C11.332,0,12.936,0,13.631,0c1.764,0,3.039,0.581,3.788,1.726c0.976,1.49,0.509,2.517-0.054,3.116
				l-0.374,0.375L16.899,7.1c0.229,0.087,0.436,0.229,0.6,0.417c0.28,0.321,0.41,0.747,0.357,1.169l-0.25,2
				c-0.076,0.612-0.518,1.102-1.089,1.26c-0.005,0.032-0.01,0.064-0.015,0.097c-0.043,0.273-0.305,0.46-0.572,0.416
				c-0.272-0.043-0.459-0.299-0.416-0.572c0.022-0.142,0.045-0.285,0.057-0.427C15.592,11.2,15.809,11,16.069,11
				c0.301,0,0.514-0.188,0.545-0.438l0.25-2c0.018-0.142-0.024-0.28-0.118-0.388c-0.096-0.109-0.228-0.17-0.373-0.172
				c-0.136-0.001-0.265-0.059-0.358-0.157c-0.093-0.099-0.142-0.231-0.135-0.367l0.122-2.502c0.006-0.124,0.058-0.241,0.146-0.329
				l0.5-0.5c0.313-0.333,0.599-0.858-0.064-1.873C16.029,1.429,15.036,1,13.631,1c-1.024,0-2.223,0.108-3.339,0.907
				C10.209,1.966,10.108,1.999,10.006,2C6.308,2.037,6.001,3.44,6.001,5c0,0.489,0.168,1.925,0.232,2.438
				C6.251,7.58,6.207,7.723,6.112,7.831C6.018,7.938,5.881,8,5.737,8H5.634C5.488,8,5.354,8.06,5.259,8.169
				c-0.097,0.109-0.14,0.248-0.121,0.392l0.25,2C5.419,10.812,5.632,11,5.884,11h0.162c0.261,0,0.478,0.2,0.498,0.46
				c0.11,1.379,0.779,2.768,1.789,3.714c0.133,0.124,0.188,0.31,0.144,0.486l-0.49,1.961C7.941,17.8,7.802,17.94,7.622,17.985
				l-4.121,1.03c-1.595,0.399-2.393,1.67-2.49,3.985l12.594-0.001c0.276,0,0.5,0.224,0.5,0.5c0,0.276-0.224,0.5-0.5,0.5L0.501,24z"
				/>
		</g>
		<g>
			<g>
				<g>
					<g>
						<g>
							<g>
								<g>
									<path d="M18.499,24c-3.032,0-5.5-2.467-5.5-5.5s2.468-5.5,5.5-5.5s5.5,2.467,5.5,5.5S21.531,24,18.499,24z M18.499,14
										c-2.481,0-4.5,2.019-4.5,4.5s2.019,4.5,4.5,4.5s4.5-2.019,4.5-4.5S20.98,14,18.499,14z"/>
								</g>
							</g>
							<g>
								<path d="M18.499,22c-0.276,0-0.5-0.224-0.5-0.5v-6c0-0.276,0.224-0.5,0.5-0.5s0.5,0.224,0.5,0.5v6
									C18.999,21.776,18.775,22,18.499,22z"/>
							</g>
							<g>
								<path d="M20.499,18c-0.128,0-0.256-0.049-0.354-0.146l-1.646-1.646l-1.646,1.646c-0.195,0.195-0.512,0.195-0.707,0
									s-0.195-0.512,0-0.707l2-2c0.195-0.195,0.512-0.195,0.707,0l2,2c0.195,0.195,0.195,0.512,0,0.707
									C20.755,17.951,20.627,18,20.499,18z"/>
							</g>
						</g>
					</g>
				</g>
			</g>
		</g>
	</g>
</g>
<g id="Bring_Down">
</g>
<g id="Dismiss_User">
</g>
<g id="User_Speed">
</g>
<g id="User_Settings">
</g>
<g id="User_Refresh">
</g>
<g id="User_Time">
</g>
<g id="Dollar">
</g>
<g id="Euro">
</g>
<g id="Pound">
</g>
<g id="Bitcoin">
</g>
<g id="Global_User">
</g>
<g id="Waiting_User">
</g>
<g id="Writing_User_2">
</g>
<g id="Search_User">
</g>
<g id="Lock_User">
</g>
<g id="Mark_User">
</g>
<g id="Share_User">
</g>
<g id="Shopping">
</g>
<g id="User_Download">
</g>
<g id="User_Upload">
</g>
<g id="User_Statistics">
</g>
<g id="User_Defense">
</g>
<g id="User_Car">
</g>
<g id="User_Home">
</g>
<g id="Park">
</g>
<g id="Recicle_User">
</g>
<g id="Wifi">
</g>
<g id="Attach_User">
</g>
<g id="Disabled_User">
</g>
<g id="User_Card">
</g>
<g id="Gaming">
</g>
<g id="User_Cloud">
</g>
<g id="User_Database">
</g>
<g id="Copyright">
</g>
<g id="No_Copyright">
</g>
<g id="Creative_Commun">
</g>
<g id="Eco-Friendly">
</g>
<g id="Percentage">
</g>
<g id="User_Love">
</g>
<g id="User_Place">
</g>
<g id="User_Key">
</g>
<g id="Sleeping">
</g>
<g id="Add_User_2">
</g>
<g id="Remove_User_2">
</g>
<g id="Delete_User_2">
</g>
<g id="Done_2">
</g>
<g id="At_Symbol_2">
</g>
<g id="Question_2">
</g>
<g id="Answer_2">
</g>
<g id="Bring_Up_2">
</g>
<g id="Bring_Down_2">
</g>
<g id="Dismiss_User_2">
</g>
<g id="User_Speed_2">
</g>
<g id="User_Settings_2">
</g>
<g id="Refresh_2">
</g>
<g id="Time_2">
</g>
<g id="Dollar_2">
</g>
<g id="Euro_2">
</g>
<g id="Pound_2">
</g>
<g id="Bitcoin_2">
</g>
<g id="Global_User_2">
</g>
<g id="Waiting_User_2">
</g>
<g id="Writing_User">
</g>
<g id="Search_User_2">
</g>
<g id="Lock_User_2">
</g>
<g id="Mark_User_2">
</g>
<g id="Share_User_2">
</g>
<g id="Shopping_2">
</g>
<g id="Download_2">
</g>
<g id="Upload_2">
</g>
<g id="User_Statistics_2">
</g>
<g id="User_Defense_2">
</g>
<g id="Car_2">
</g>
<g id="Home_2">
</g>
<g id="Park_2">
</g>
<g id="Recicle_User_2">
</g>
<g id="User_Wifi">
</g>
<g id="Attach_2">
</g>
<g id="Disabled_User_2">
</g>
<g id="User_Card_2">
</g>
<g id="Gaming_2">
</g>
<g id="Cloud_2">
</g>
<g id="Database_2">
</g>
<g id="Copyright_2">
</g>
<g id="No_Copyright_2">
</g>
<g id="Creative_Commun_2">
</g>
<g id="Eco-Friendly_2">
</g>
<g id="Percentage_2">
</g>
<g id="User_Love_2">
</g>
<g id="User_Rate_2">
</g>
<g id="User_Key_2">
</g>
<g id="Sleeping_2">
</g>
</svg>
