<?xml version="1.0" encoding="iso-8859-1"?>
<!-- Generator: Adobe Illustrator 19.2.1, SVG Export Plug-In . SVG Version: 6.00 Build 0)  -->
<svg version="1.1" xmlns="http://www.w3.org/2000/svg" xmlns:xlink="http://www.w3.org/1999/xlink" x="0px" y="0px"
	 viewBox="0 0 24 24" style="enable-background:new 0 0 24 24;" xml:space="preserve">
<g id="Add_Users">
</g>
<g id="Remove_Users">
</g>
<g id="Delete_Users">
</g>
<g id="Done_3">
</g>
<g id="At_Symbol_3">
</g>
<g id="Question_3">
</g>
<g id="Answer_3">
</g>
<g id="Bring_Up_3">
</g>
<g id="Bring_Down_3">
</g>
<g id="Dismiss_Users">
</g>
<g id="Users_Speed_3">
</g>
<g id="Users_Settings">
</g>
<g id="Refresh_Users">
</g>
<g id="Time_3">
</g>
<g id="Dollar_3">
</g>
<g id="Euro_3">
</g>
<g id="Pound_3">
</g>
<g id="Bitcoin_3">
</g>
<g id="Global_Users">
</g>
<g id="Waiting_Users">
</g>
<g id="Writing_Users">
</g>
<g id="Search_Users">
</g>
<g id="Lock_Users">
</g>
<g id="Mark_Users">
</g>
<g id="Share_Users">
</g>
<g id="Shopping_3">
</g>
<g id="Download_3">
</g>
<g id="Upload_3">
</g>
<g id="Users_Statistics">
</g>
<g id="Users_Defense">
</g>
<g id="Car_3">
</g>
<g id="Home_3">
</g>
<g id="Park_3">
</g>
<g id="Recicle_Users">
</g>
<g id="Wifi_3">
</g>
<g id="Attach_3">
</g>
<g id="Disabled_Users">
</g>
<g id="Users_Card">
</g>
<g id="Gaming_3">
</g>
<g id="Cloud_3">
	<g>
		<g>
			<path d="M20.5,24h-8c-1.379,0-2.5-1.121-2.5-2.5c0-1.216,0.872-2.23,2.022-2.454C12.251,16.776,14.172,15,16.5,15
				c1.497,0,2.896,0.764,3.729,2.013C20.318,17.005,20.408,17,20.5,17c1.93,0,3.5,1.57,3.5,3.5S22.43,24,20.5,24z M16.5,16
				c-1.93,0-3.5,1.57-3.5,3.5c0,0.276-0.224,0.5-0.5,0.5c-0.827,0-1.5,0.673-1.5,1.5s0.673,1.5,1.5,1.5h8c1.379,0,2.5-1.121,2.5-2.5
				S21.879,18,20.5,18c-0.151,0-0.296,0.02-0.439,0.045c-0.211,0.039-0.419-0.063-0.522-0.247C18.915,16.688,17.751,16,16.5,16z"/>
		</g>
		<g>
			<path d="M17.447,13.02c-0.225,0-0.429-0.151-0.485-0.379l-0.207-0.832c-0.045-0.18,0.014-0.37,0.151-0.493
				c0.76-0.681,1.261-1.695,1.342-2.713c0.021-0.261,0.237-0.461,0.498-0.461c0.156,0,0.259-0.09,0.273-0.209l0.185-1.479
				c0.012-0.093-0.03-0.156-0.057-0.187c-0.026-0.029-0.084-0.08-0.178-0.081c-0.136-0.002-0.265-0.059-0.358-0.157
				c-0.093-0.099-0.142-0.231-0.135-0.367l0.09-1.85c0.006-0.124,0.058-0.241,0.146-0.329l0.369-0.369
				c0.209-0.223,0.374-0.551-0.064-1.22c-0.384-0.587-1.081-0.884-2.072-0.884c-0.418,0-0.972,0.024-1.545,0.219
				c-0.261,0.087-0.546-0.052-0.634-0.313c-0.089-0.262,0.052-0.545,0.313-0.634c0.711-0.24,1.37-0.271,1.865-0.271
				c1.351,0,2.329,0.449,2.908,1.336c0.769,1.172,0.395,1.986-0.054,2.464l-0.243,0.243l-0.061,1.251
				C19.648,5.376,19.787,5.48,19.9,5.61c0.231,0.265,0.34,0.617,0.296,0.967l-0.185,1.479c-0.059,0.476-0.384,0.86-0.814,1.015
				c-0.168,1.031-0.672,2.032-1.402,2.777l0.138,0.551c0.066,0.269-0.097,0.54-0.364,0.606C17.527,13.015,17.487,13.02,17.447,13.02
				z"/>
		</g>
		<g>
			<path d="M0.5,17.998c-0.276,0-0.5-0.224-0.5-0.5c0-1.97,1.334-3.679,3.245-4.156l2.756-0.688l0.221-0.884
				c-0.686-0.73-1.163-1.695-1.33-2.683c-0.474-0.13-0.84-0.534-0.903-1.042L3.804,6.566c-0.045-0.352,0.064-0.707,0.3-0.973
				C4.229,5.45,4.385,5.341,4.557,5.269C4.504,4.811,4.435,4.144,4.435,3.826c0-1.397,0.421-3.003,3.667-3.084
				C9.229,0,10.423,0,10.944,0c1.351,0,2.329,0.449,2.908,1.335c0.769,1.173,0.396,1.987-0.054,2.464l-0.243,0.244l-0.061,1.251
				C13.648,5.365,13.787,5.47,13.9,5.6c0.231,0.265,0.34,0.617,0.296,0.967l-0.185,1.479c-0.059,0.476-0.384,0.86-0.814,1.015
				c-0.168,1.03-0.672,2.031-1.401,2.777l0.203,0.816l1.668,0.416c0.268,0.067,0.431,0.339,0.364,0.606
				c-0.066,0.269-0.337,0.429-0.606,0.364l-1.959-0.489c-0.18-0.045-0.319-0.185-0.364-0.364l-0.347-1.389
				c-0.045-0.18,0.014-0.369,0.151-0.493c0.76-0.682,1.261-1.696,1.342-2.713c0.021-0.261,0.237-0.461,0.498-0.461
				c0.156,0,0.259-0.09,0.273-0.209l0.185-1.479c0.012-0.093-0.03-0.156-0.057-0.187c-0.026-0.029-0.084-0.08-0.178-0.081
				c-0.136-0.002-0.265-0.059-0.358-0.157c-0.093-0.099-0.142-0.231-0.135-0.367l0.09-1.85c0.006-0.124,0.058-0.241,0.145-0.329
				l0.369-0.37c0.21-0.222,0.375-0.551-0.063-1.22C12.633,1.297,11.937,1,10.944,1c-0.736,0-1.597,0.077-2.393,0.646
				C8.468,1.706,8.368,1.738,8.266,1.739c-2.831,0.028-2.831,1.17-2.831,2.087c0,0.354,0.123,1.409,0.171,1.785
				c0.018,0.143-0.026,0.285-0.121,0.394C5.39,6.112,5.253,6.174,5.109,6.174c-0.171,0-0.229,0.051-0.256,0.081
				S4.784,6.35,4.796,6.442L4.98,7.922c0.015,0.119,0.117,0.209,0.237,0.209h0.12c0.261,0,0.478,0.2,0.498,0.461
				c0.078,0.985,0.558,1.98,1.281,2.66c0.133,0.124,0.188,0.31,0.144,0.485l-0.362,1.449c-0.045,0.18-0.185,0.319-0.364,0.364
				l-3.047,0.762C2.022,14.678,1,15.988,1,17.498C1,17.774,0.776,17.998,0.5,17.998z"/>
		</g>
	</g>
</g>
<g id="Database_3">
</g>
<g id="Copyright_3">
</g>
<g id="No_Copzright_3">
</g>
<g id="Creative_Commun_3">
</g>
<g id="Eco-Friendly_3">
</g>
<g id="Percentage_3">
</g>
<g id="Users_Love">
</g>
<g id="Users_Place">
</g>
<g id="Users_Key">
</g>
<g id="Sleeping_3">
</g>
</svg>
