<?xml version="1.0" encoding="iso-8859-1"?>
<!-- Generator: Adobe Illustrator 19.2.1, SVG Export Plug-In . SVG Version: 6.00 Build 0)  -->
<svg version="1.1" xmlns="http://www.w3.org/2000/svg" xmlns:xlink="http://www.w3.org/1999/xlink" x="0px" y="0px"
	 viewBox="0 0 24 24" style="enable-background:new 0 0 24 24;" xml:space="preserve">
<g id="Add_Users">
</g>
<g id="Remove_Users">
</g>
<g id="Delete_Users">
</g>
<g id="Done_3">
</g>
<g id="At_Symbol_3">
</g>
<g id="Question_3">
</g>
<g id="Answer_3">
</g>
<g id="Bring_Up_3">
</g>
<g id="Bring_Down_3">
</g>
<g id="Dismiss_Users">
</g>
<g id="Users_Speed_3">
</g>
<g id="Users_Settings">
</g>
<g id="Refresh_Users">
</g>
<g id="Time_3">
</g>
<g id="Dollar_3">
</g>
<g id="Euro_3">
</g>
<g id="Pound_3">
</g>
<g id="Bitcoin_3">
</g>
<g id="Global_Users">
</g>
<g id="Waiting_Users">
</g>
<g id="Writing_Users">
</g>
<g id="Search_Users">
</g>
<g id="Lock_Users">
</g>
<g id="Mark_Users">
</g>
<g id="Share_Users">
</g>
<g id="Shopping_3">
</g>
<g id="Download_3">
</g>
<g id="Upload_3">
</g>
<g id="Users_Statistics">
</g>
<g id="Users_Defense">
</g>
<g id="Car_3">
</g>
<g id="Home_3">
</g>
<g id="Park_3">
</g>
<g id="Recicle_Users">
</g>
<g id="Wifi_3">
</g>
<g id="Attach_3">
</g>
<g id="Disabled_Users">
</g>
<g id="Users_Card">
</g>
<g id="Gaming_3">
</g>
<g id="Cloud_3">
</g>
<g id="Database_3">
	<g>
		<g>
			<path d="M19.5,18c-2.236,0-4.5-0.687-4.5-2c0-2.627,9-2.627,9,0C24,17.313,21.736,18,19.5,18z M19.5,15c-2.273,0-3.5,0.71-3.5,1
				s1.227,1,3.5,1s3.5-0.71,3.5-1S21.773,15,19.5,15z"/>
		</g>
		<g>
			<path d="M19.5,20.071c-2.236,0-4.5-0.724-4.5-2.107c0-0.276,0.224-0.5,0.5-0.5s0.5,0.224,0.5,0.5c0,0.391,1.329,1.107,3.5,1.107
				s3.5-0.717,3.5-1.107c0-0.276,0.224-0.5,0.5-0.5s0.5,0.224,0.5,0.5C24,19.348,21.736,20.071,19.5,20.071z"/>
		</g>
		<g>
			<path d="M19.5,22c-2.236,0-4.5-0.724-4.5-2.107c0-0.276,0.224-0.5,0.5-0.5s0.5,0.224,0.5,0.5C16,20.283,17.329,21,19.5,21
				s3.5-0.717,3.5-1.107c0-0.276,0.224-0.5,0.5-0.5s0.5,0.224,0.5,0.5C24,21.276,21.736,22,19.5,22z"/>
		</g>
		<g>
			<path d="M19.5,24c-2.167,0-4.5-0.659-4.5-2.107v-5.785c0-0.276,0.224-0.5,0.5-0.5s0.5,0.224,0.5,0.5v5.785
				C16,22.344,17.363,23,19.5,23s3.5-0.656,3.5-1.107v-5.785c0-0.276,0.224-0.5,0.5-0.5s0.5,0.224,0.5,0.5v5.785
				C24,23.341,21.667,24,19.5,24z"/>
		</g>
		<g>
			<g>
				<path d="M17.3,12.11c-0.133,0-0.267-0.053-0.365-0.158c-0.189-0.201-0.179-0.518,0.023-0.707
					c0.729-0.684,1.211-1.676,1.289-2.653c0.021-0.261,0.238-0.461,0.499-0.461c0.06,0,0.093-0.01,0.135-0.029
					c0.077-0.035,0.129-0.104,0.139-0.18l0.185-1.479c0.011-0.091-0.031-0.154-0.057-0.185c-0.026-0.03-0.084-0.081-0.178-0.082
					c-0.136-0.002-0.266-0.059-0.358-0.157c-0.093-0.099-0.142-0.231-0.136-0.367l0.09-1.85c0.006-0.124,0.058-0.241,0.146-0.329
					l0.369-0.37c0.209-0.222,0.375-0.551-0.064-1.22C18.633,1.297,17.936,1,16.944,1c-0.419,0-0.974,0.024-1.545,0.218
					c-0.261,0.088-0.545-0.051-0.634-0.313c-0.088-0.262,0.052-0.545,0.313-0.634C15.788,0.03,16.448,0,16.944,0
					c1.351,0,2.329,0.449,2.909,1.335c0.769,1.173,0.395,1.987-0.055,2.464l-0.243,0.244l-0.062,1.251
					c0.154,0.072,0.293,0.176,0.407,0.306c0.231,0.266,0.339,0.618,0.295,0.967l-0.185,1.479c-0.052,0.42-0.317,0.78-0.71,0.963
					c-0.035,0.016-0.069,0.03-0.104,0.043c-0.179,1.092-0.744,2.163-1.556,2.924C17.546,12.065,17.423,12.11,17.3,12.11z"/>
			</g>
		</g>
		<g>
			<path d="M0.5,17.998c-0.276,0-0.5-0.224-0.5-0.5c0-1.97,1.334-3.679,3.246-4.156l2.755-0.688l0.221-0.884
				c-0.685-0.729-1.163-1.694-1.33-2.683c-0.474-0.129-0.84-0.534-0.903-1.042L3.803,6.567C3.759,6.214,3.869,5.859,4.104,5.593
				C4.229,5.45,4.385,5.341,4.557,5.269C4.504,4.811,4.435,4.144,4.435,3.826c0-1.397,0.421-3.003,3.667-3.084
				C9.229,0,10.423,0,10.944,0c1.351,0,2.329,0.449,2.909,1.335c0.769,1.173,0.395,1.987-0.055,2.464l-0.243,0.244l-0.062,1.251
				c0.154,0.072,0.293,0.176,0.407,0.306c0.231,0.266,0.339,0.618,0.295,0.967l-0.185,1.479c-0.059,0.475-0.384,0.859-0.814,1.014
				c-0.168,1.03-0.672,2.031-1.402,2.777l0.204,0.816l1.668,0.416c0.268,0.067,0.431,0.339,0.364,0.606
				c-0.067,0.269-0.339,0.427-0.606,0.364l-1.959-0.489c-0.179-0.045-0.319-0.185-0.364-0.364l-0.347-1.389
				c-0.045-0.18,0.013-0.369,0.151-0.493c0.76-0.682,1.261-1.696,1.342-2.713c0.021-0.261,0.238-0.461,0.499-0.461
				c0.157,0,0.258-0.09,0.273-0.209l0.185-1.479c0.011-0.091-0.031-0.154-0.057-0.185c-0.026-0.03-0.084-0.081-0.178-0.082
				c-0.136-0.002-0.266-0.059-0.358-0.157c-0.093-0.099-0.142-0.231-0.136-0.367l0.09-1.85c0.006-0.124,0.058-0.241,0.146-0.329
				l0.369-0.37c0.209-0.222,0.375-0.551-0.064-1.22C12.633,1.297,11.936,1,10.944,1c-0.736,0-1.597,0.077-2.393,0.646
				C8.468,1.706,8.368,1.738,8.266,1.739c-2.831,0.027-2.831,1.17-2.831,2.087c0,0.354,0.124,1.409,0.171,1.785
				c0.018,0.143-0.026,0.285-0.121,0.394C5.39,6.112,5.253,6.174,5.109,6.174c-0.17,0-0.229,0.051-0.256,0.081
				S4.784,6.35,4.795,6.442L4.98,7.921c0.015,0.12,0.117,0.21,0.237,0.21h0.12c0.261,0,0.478,0.2,0.499,0.46
				c0.079,0.987,0.558,1.982,1.281,2.661c0.132,0.124,0.187,0.31,0.143,0.485l-0.362,1.449c-0.044,0.18-0.185,0.319-0.364,0.364
				l-3.046,0.762C2.023,14.678,1,15.988,1,17.498C1,17.774,0.776,17.998,0.5,17.998z"/>
		</g>
	</g>
</g>
<g id="Copyright_3">
</g>
<g id="No_Copzright_3">
</g>
<g id="Creative_Commun_3">
</g>
<g id="Eco-Friendly_3">
</g>
<g id="Percentage_3">
</g>
<g id="Users_Love">
</g>
<g id="Users_Place">
</g>
<g id="Users_Key">
</g>
<g id="Sleeping_3">
</g>
</svg>
