<?xml version="1.0" encoding="iso-8859-1"?>
<!-- Generator: Adobe Illustrator 19.2.1, SVG Export Plug-In . SVG Version: 6.00 Build 0)  -->
<svg version="1.1" xmlns="http://www.w3.org/2000/svg" xmlns:xlink="http://www.w3.org/1999/xlink" x="0px" y="0px"
	 viewBox="0 0 24 24" style="enable-background:new 0 0 24 24;" xml:space="preserve">
<g id="Add_Users">
</g>
<g id="Remove_Users">
</g>
<g id="Delete_Users">
</g>
<g id="Done_3">
</g>
<g id="At_Symbol_3">
</g>
<g id="Question_3">
</g>
<g id="Answer_3">
</g>
<g id="Bring_Up_3">
</g>
<g id="Bring_Down_3">
</g>
<g id="Dismiss_Users">
</g>
<g id="Users_Speed_3">
</g>
<g id="Users_Settings">
</g>
<g id="Refresh_Users">
</g>
<g id="Time_3">
</g>
<g id="Dollar_3">
</g>
<g id="Euro_3">
</g>
<g id="Pound_3">
</g>
<g id="Bitcoin_3">
</g>
<g id="Global_Users">
</g>
<g id="Waiting_Users">
</g>
<g id="Writing_Users">
</g>
<g id="Search_Users">
</g>
<g id="Lock_Users">
</g>
<g id="Mark_Users">
</g>
<g id="Share_Users">
</g>
<g id="Shopping_3">
</g>
<g id="Download_3">
</g>
<g id="Upload_3">
</g>
<g id="Users_Statistics">
</g>
<g id="Users_Defense">
</g>
<g id="Car_3">
</g>
<g id="Home_3">
</g>
<g id="Park_3">
</g>
<g id="Recicle_Users">
</g>
<g id="Wifi_3">
</g>
<g id="Attach_3">
</g>
<g id="Disabled_Users">
</g>
<g id="Users_Card">
</g>
<g id="Gaming_3">
</g>
<g id="Cloud_3">
</g>
<g id="Database_3">
</g>
<g id="Copyright_3">
</g>
<g id="No_Copzright_3">
</g>
<g id="Creative_Commun_3">
</g>
<g id="Eco-Friendly_3">
	<g>
		<g>
			<g id="XMLID_4_">
				<g id="XMLID_6_">
					<path d="M17.526,23.004c-1.002,0-1.851-0.287-2.381-0.818C14.407,21.447,14,20.466,14,19.422s0.407-2.025,1.145-2.764
						c1.565-1.566,5.001-2.66,8.355-2.66c0.202,0,0.385,0.122,0.462,0.309c0.078,0.187,0.035,0.402-0.108,0.545
						c-0.735,0.735-0.944,1.751-1.187,2.927c-0.275,1.334-0.586,2.846-1.813,4.073c-0.576,0.575-1.628,1.005-2.748,1.122
						C17.908,22.994,17.714,23.004,17.526,23.004z M22.483,15.032c-3.029,0.202-5.572,1.273-6.631,2.333
						C15.303,17.915,15,18.645,15,19.422s0.303,1.507,0.852,2.057c0.41,0.41,1.211,0.593,2.15,0.5
						c0.875-0.091,1.736-0.426,2.144-0.834c1.016-1.016,1.283-2.313,1.541-3.568C21.867,16.706,22.05,15.815,22.483,15.032z"/>
				</g>
				<g id="XMLID_5_">
					<path d="M14.5,23.998c-0.276,0-0.5-0.224-0.5-0.5c0-2.623,3.159-5.5,4.5-5.5c0.276,0,0.5,0.224,0.5,0.5s-0.224,0.5-0.5,0.5
						c-0.608,0-3.5,2.247-3.5,4.5C15,23.774,14.776,23.998,14.5,23.998z"/>
				</g>
			</g>
		</g>
		<g>
			<g>
				<path d="M0.5,18.001c-0.276,0-0.5-0.224-0.5-0.5c0-1.971,1.334-3.68,3.246-4.157l2.755-0.688l0.221-0.884
					c-0.685-0.73-1.163-1.694-1.33-2.683c-0.473-0.13-0.84-0.534-0.903-1.041L3.803,6.569c-0.044-0.353,0.065-0.707,0.3-0.974
					c0.126-0.143,0.282-0.253,0.454-0.324C4.504,4.813,4.435,4.146,4.435,3.828c0-1.397,0.421-3.003,3.667-3.084
					c1.126-0.742,2.321-0.742,2.842-0.742c1.35,0,2.329,0.449,2.909,1.336c0.768,1.172,0.395,1.986-0.054,2.464l-0.243,0.243
					l-0.062,1.251c0.154,0.072,0.294,0.177,0.408,0.308c0.23,0.266,0.338,0.617,0.294,0.966l-0.185,1.479
					c-0.06,0.475-0.385,0.859-0.814,1.013c-0.168,1.032-0.672,2.033-1.402,2.778l0.204,0.816l2.755,0.688
					c0.575,0.144,1.104,0.399,1.572,0.76c0.219,0.169,0.26,0.482,0.092,0.701c-0.169,0.218-0.483,0.258-0.701,0.092
					c-0.359-0.276-0.765-0.473-1.205-0.582l-3.046-0.762c-0.179-0.045-0.319-0.185-0.364-0.364L10.755,11.8
					c-0.045-0.18,0.013-0.37,0.151-0.493c0.76-0.681,1.261-1.695,1.342-2.713c0.021-0.261,0.238-0.461,0.499-0.461
					c0.156,0,0.258-0.09,0.273-0.21l0.185-1.479c0.011-0.091-0.03-0.154-0.057-0.184c-0.026-0.03-0.085-0.082-0.18-0.083
					c-0.135-0.002-0.265-0.059-0.357-0.157c-0.093-0.1-0.142-0.231-0.135-0.367l0.09-1.85c0.006-0.124,0.058-0.241,0.146-0.329
					l0.369-0.369c0.208-0.223,0.374-0.551-0.065-1.22c-0.383-0.587-1.081-0.884-2.072-0.884c-0.736,0-1.597,0.077-2.393,0.646
					C8.468,1.708,8.368,1.74,8.266,1.741C5.435,1.77,5.435,2.911,5.435,3.828c0,0.355,0.124,1.41,0.171,1.786
					C5.624,5.757,5.58,5.899,5.484,6.008C5.39,6.115,5.253,6.177,5.109,6.177c-0.17,0-0.229,0.051-0.256,0.081
					c-0.027,0.03-0.07,0.095-0.058,0.187L4.98,7.923c0.015,0.12,0.117,0.21,0.237,0.21h0.12c0.261,0,0.478,0.2,0.499,0.46
					c0.079,0.987,0.558,1.982,1.281,2.661c0.132,0.124,0.187,0.31,0.143,0.485l-0.362,1.449c-0.044,0.18-0.185,0.319-0.364,0.364
					l-3.046,0.762C2.023,14.68,1,15.99,1,17.501C1,17.777,0.776,18.001,0.5,18.001z"/>
			</g>
		</g>
		<g>
			<path d="M17.586,13.567c-0.224,0-0.428-0.151-0.484-0.379L16.755,11.8c-0.045-0.18,0.013-0.37,0.151-0.493
				c0.76-0.681,1.261-1.695,1.342-2.713c0.021-0.261,0.238-0.461,0.499-0.461c0.156,0,0.258-0.09,0.273-0.21l0.185-1.479
				c0.011-0.091-0.03-0.154-0.057-0.184c-0.026-0.03-0.085-0.082-0.18-0.083c-0.135-0.002-0.265-0.059-0.357-0.157
				c-0.093-0.1-0.142-0.231-0.135-0.367l0.09-1.85c0.006-0.124,0.058-0.241,0.146-0.329l0.369-0.369
				c0.208-0.223,0.374-0.551-0.065-1.22c-0.383-0.587-1.081-0.884-2.072-0.884c-0.418,0-0.972,0.024-1.545,0.219
				c-0.26,0.088-0.545-0.051-0.634-0.313c-0.088-0.262,0.052-0.545,0.313-0.634c0.711-0.24,1.371-0.271,1.865-0.271
				c1.35,0,2.329,0.449,2.909,1.336c0.768,1.172,0.395,1.986-0.054,2.464l-0.243,0.243l-0.062,1.251
				c0.154,0.072,0.294,0.177,0.408,0.308c0.23,0.266,0.338,0.617,0.294,0.966l-0.185,1.479c-0.06,0.475-0.385,0.859-0.814,1.013
				c-0.168,1.032-0.672,2.033-1.402,2.778l0.277,1.107c0.067,0.268-0.096,0.539-0.364,0.606
				C17.667,13.563,17.626,13.567,17.586,13.567z"/>
		</g>
	</g>
</g>
<g id="Percentage_3">
</g>
<g id="Users_Love">
</g>
<g id="Users_Place">
</g>
<g id="Users_Key">
</g>
<g id="Sleeping_3">
</g>
</svg>
