<?xml version="1.0" encoding="iso-8859-1"?>
<!-- Generator: Adobe Illustrator 19.2.1, SVG Export Plug-In . SVG Version: 6.00 Build 0)  -->
<svg version="1.1" xmlns="http://www.w3.org/2000/svg" xmlns:xlink="http://www.w3.org/1999/xlink" x="0px" y="0px"
	 viewBox="0 0 24 24" style="enable-background:new 0 0 24 24;" xml:space="preserve">
<g id="Add_Users">
</g>
<g id="Remove_Users">
</g>
<g id="Delete_Users">
</g>
<g id="Done_3">
</g>
<g id="At_Symbol_3">
</g>
<g id="Question_3">
</g>
<g id="Answer_3">
</g>
<g id="Bring_Up_3">
</g>
<g id="Bring_Down_3">
</g>
<g id="Dismiss_Users">
</g>
<g id="Users_Speed_3">
</g>
<g id="Users_Settings">
</g>
<g id="Refresh_Users">
</g>
<g id="Time_3">
</g>
<g id="Dollar_3">
</g>
<g id="Euro_3">
</g>
<g id="Pound_3">
</g>
<g id="Bitcoin_3">
</g>
<g id="Global_Users">
</g>
<g id="Waiting_Users">
</g>
<g id="Writing_Users">
</g>
<g id="Search_Users">
</g>
<g id="Lock_Users">
</g>
<g id="Mark_Users">
</g>
<g id="Share_Users">
</g>
<g id="Shopping_3">
</g>
<g id="Download_3">
</g>
<g id="Upload_3">
</g>
<g id="Users_Statistics">
</g>
<g id="Users_Defense">
</g>
<g id="Car_3">
</g>
<g id="Home_3">
</g>
<g id="Park_3">
</g>
<g id="Recicle_Users">
</g>
<g id="Wifi_3">
</g>
<g id="Attach_3">
</g>
<g id="Disabled_Users">
</g>
<g id="Users_Card">
</g>
<g id="Gaming_3">
	<g>
		<g>
			<g>
				<path d="M22,24c-2.074,0-3.095-1.946-3.385-2.615C18.271,21.257,17.459,21,16.5,21s-1.771,0.257-2.115,0.385
					C14.095,22.054,13.074,24,11,24c-1.327,0-2-1.178-2-3.5c0-1.735,1.304-6.5,5.5-6.5h4c4.196,0,5.5,4.765,5.5,6.5
					C24,22.822,23.327,24,22,24z M16.5,20c1.498,0,2.659,0.523,2.708,0.545c0.123,0.057,0.218,0.161,0.264,0.289
					C19.479,20.855,20.262,23,22,23c0.247,0,1,0,1-2.5c0-0.854-0.83-5.5-4.5-5.5h-4c-3.67,0-4.5,4.646-4.5,5.5
					c0,2.5,0.753,2.5,1,2.5c1.738,0,2.521-2.145,2.528-2.166c0.046-0.128,0.141-0.232,0.264-0.289C13.841,20.523,15.002,20,16.5,20z
					"/>
			</g>
			<g>
				<circle cx="18.5" cy="17.5" r="0.5"/>
			</g>
			<g>
				<circle cx="19.5" cy="18.5" r="0.5"/>
			</g>
			<g>
				<circle cx="19.5" cy="16.5" r="0.5"/>
			</g>
			<g>
				<circle cx="20.5" cy="17.5" r="0.5"/>
			</g>
			<g>
				<path d="M13.5,19c-0.276,0-0.5-0.224-0.5-0.5v-2c0-0.276,0.224-0.5,0.5-0.5s0.5,0.224,0.5,0.5v2C14,18.776,13.776,19,13.5,19z"
					/>
			</g>
			<g>
				<path d="M14.5,18h-2c-0.276,0-0.5-0.224-0.5-0.5s0.224-0.5,0.5-0.5h2c0.276,0,0.5,0.224,0.5,0.5S14.776,18,14.5,18z"/>
			</g>
		</g>
		<g>
			<path d="M17.447,13.008c-0.225,0-0.429-0.151-0.485-0.379l-0.207-0.832c-0.045-0.18,0.014-0.37,0.151-0.493
				c0.76-0.681,1.261-1.695,1.342-2.713c0.021-0.261,0.237-0.461,0.498-0.461c0.156,0,0.259-0.09,0.273-0.209l0.185-1.479
				c0.012-0.092-0.03-0.155-0.057-0.186s-0.084-0.081-0.179-0.082c-0.136-0.002-0.265-0.059-0.357-0.157
				c-0.093-0.1-0.142-0.231-0.135-0.367l0.09-1.85c0.006-0.124,0.058-0.241,0.146-0.329l0.369-0.369
				c0.209-0.223,0.374-0.551-0.064-1.22C18.633,1.297,17.937,1,16.944,1c-0.42,0-0.975,0.024-1.545,0.218
				c-0.263,0.089-0.546-0.052-0.634-0.313c-0.089-0.262,0.052-0.545,0.313-0.634C15.788,0.03,16.448,0,16.944,0
				c1.351,0,2.329,0.449,2.908,1.335c0.769,1.172,0.395,1.986-0.054,2.464l-0.243,0.243l-0.061,1.251
				c0.153,0.072,0.293,0.177,0.406,0.308c0.231,0.265,0.339,0.617,0.295,0.966l-0.185,1.478c-0.059,0.476-0.384,0.86-0.814,1.015
				c-0.168,1.031-0.672,2.032-1.402,2.777l0.138,0.551c0.066,0.269-0.097,0.54-0.364,0.606
				C17.527,13.003,17.487,13.008,17.447,13.008z"/>
		</g>
		<g>
			<path d="M0.5,17.999c-0.276,0-0.5-0.224-0.5-0.5c0-1.97,1.334-3.68,3.245-4.157l2.756-0.688l0.221-0.884
				c-0.686-0.73-1.163-1.695-1.33-2.683c-0.474-0.13-0.841-0.534-0.903-1.042L3.804,6.566c-0.045-0.351,0.064-0.706,0.3-0.972
				C4.229,5.451,4.385,5.342,4.558,5.27C4.504,4.811,4.435,4.144,4.435,3.826c0-1.397,0.421-3.003,3.667-3.084
				C9.229,0,10.423,0,10.944,0c1.351,0,2.329,0.449,2.908,1.336c0.769,1.172,0.395,1.986-0.054,2.464l-0.243,0.243l-0.061,1.251
				c0.153,0.072,0.293,0.177,0.406,0.308c0.231,0.265,0.339,0.617,0.295,0.966l-0.185,1.478c-0.059,0.476-0.384,0.86-0.814,1.015
				c-0.167,1.031-0.672,2.032-1.401,2.777l0.276,1.107c0.066,0.268-0.097,0.539-0.364,0.606c-0.271,0.063-0.54-0.097-0.606-0.364
				l-0.347-1.389c-0.045-0.18,0.014-0.37,0.151-0.493c0.76-0.681,1.261-1.695,1.342-2.713c0.021-0.261,0.237-0.461,0.498-0.461
				c0.156,0,0.259-0.09,0.273-0.209l0.185-1.479c0.012-0.092-0.03-0.155-0.057-0.186s-0.084-0.081-0.179-0.082
				c-0.136-0.002-0.265-0.059-0.357-0.157c-0.093-0.1-0.142-0.231-0.135-0.367l0.09-1.85c0.006-0.124,0.058-0.241,0.146-0.329
				l0.369-0.369c0.209-0.223,0.374-0.551-0.064-1.22C12.633,1.297,11.936,1,10.944,1c-0.736,0-1.597,0.077-2.393,0.646
				C8.468,1.706,8.368,1.738,8.266,1.739c-2.831,0.028-2.831,1.17-2.831,2.087c0,0.354,0.123,1.409,0.171,1.786
				c0.018,0.143-0.026,0.285-0.121,0.394C5.39,6.113,5.253,6.175,5.109,6.175c-0.171,0-0.229,0.051-0.256,0.081
				S4.784,6.35,4.796,6.442L4.98,7.922c0.015,0.119,0.117,0.209,0.237,0.209h0.12c0.261,0,0.478,0.2,0.498,0.461
				c0.078,0.985,0.558,1.98,1.281,2.66c0.133,0.124,0.188,0.31,0.144,0.485l-0.362,1.449c-0.045,0.18-0.185,0.319-0.364,0.364
				l-3.047,0.762C2.022,14.678,1,15.988,1,17.499C1,17.775,0.776,17.999,0.5,17.999z"/>
		</g>
	</g>
</g>
<g id="Cloud_3">
</g>
<g id="Database_3">
</g>
<g id="Copyright_3">
</g>
<g id="No_Copzright_3">
</g>
<g id="Creative_Commun_3">
</g>
<g id="Eco-Friendly_3">
</g>
<g id="Percentage_3">
</g>
<g id="Users_Love">
</g>
<g id="Users_Place">
</g>
<g id="Users_Key">
</g>
<g id="Sleeping_3">
</g>
</svg>
