<?xml version="1.0" encoding="iso-8859-1"?>
<!-- Generator: Adobe Illustrator 19.2.1, SVG Export Plug-In . SVG Version: 6.00 Build 0)  -->
<svg version="1.1" xmlns="http://www.w3.org/2000/svg" xmlns:xlink="http://www.w3.org/1999/xlink" x="0px" y="0px"
	 viewBox="0 0 24 24" style="enable-background:new 0 0 24 24;" xml:space="preserve">
<g id="Add_User">
</g>
<g id="Remove_User">
</g>
<g id="Delete_User">
</g>
<g id="Done">
</g>
<g id="At_Symbol">
</g>
<g id="Question">
</g>
<g id="Answer">
</g>
<g id="Bring_Up">
</g>
<g id="Bring_Down">
</g>
<g id="Dismiss_User">
</g>
<g id="User_Speed">
</g>
<g id="User_Settings">
</g>
<g id="User_Refresh">
</g>
<g id="User_Time">
</g>
<g id="Dollar">
</g>
<g id="Euro">
</g>
<g id="Pound">
</g>
<g id="Bitcoin">
</g>
<g id="Global_User">
</g>
<g id="Waiting_User">
</g>
<g id="Writing_User_2">
</g>
<g id="Search_User">
</g>
<g id="Lock_User">
</g>
<g id="Mark_User">
</g>
<g id="Share_User">
</g>
<g id="Shopping">
</g>
<g id="User_Download">
</g>
<g id="User_Upload">
</g>
<g id="User_Statistics">
</g>
<g id="User_Defense">
</g>
<g id="User_Car">
</g>
<g id="User_Home">
</g>
<g id="Park">
</g>
<g id="Recicle_User">
</g>
<g id="Wifi">
</g>
<g id="Attach_User">
</g>
<g id="Disabled_User">
</g>
<g id="User_Card">
</g>
<g id="Gaming">
</g>
<g id="User_Cloud">
</g>
<g id="User_Database">
</g>
<g id="Copyright">
</g>
<g id="No_Copyright">
</g>
<g id="Creative_Commun">
</g>
<g id="Eco-Friendly">
</g>
<g id="Percentage">
</g>
<g id="User_Love">
</g>
<g id="User_Place">
</g>
<g id="User_Key">
</g>
<g id="Sleeping">
</g>
<g id="Add_User_2">
</g>
<g id="Remove_User_2">
</g>
<g id="Delete_User_2">
</g>
<g id="Done_2">
</g>
<g id="At_Symbol_2">
</g>
<g id="Question_2">
</g>
<g id="Answer_2">
</g>
<g id="Bring_Up_2">
</g>
<g id="Bring_Down_2">
</g>
<g id="Dismiss_User_2">
</g>
<g id="User_Speed_2">
</g>
<g id="User_Settings_2">
</g>
<g id="Refresh_2">
</g>
<g id="Time_2">
</g>
<g id="Dollar_2">
</g>
<g id="Euro_2">
</g>
<g id="Pound_2">
</g>
<g id="Bitcoin_2">
</g>
<g id="Global_User_2">
</g>
<g id="Waiting_User_2">
</g>
<g id="Writing_User">
</g>
<g id="Search_User_2">
</g>
<g id="Lock_User_2">
</g>
<g id="Mark_User_2">
</g>
<g id="Share_User_2">
</g>
<g id="Shopping_2">
</g>
<g id="Download_2">
</g>
<g id="Upload_2">
</g>
<g id="User_Statistics_2">
</g>
<g id="User_Defense_2">
</g>
<g id="Car_2">
</g>
<g id="Home_2">
</g>
<g id="Park_2">
</g>
<g id="Recicle_User_2">
</g>
<g id="User_Wifi">
</g>
<g id="Attach_2">
</g>
<g id="Disabled_User_2">
</g>
<g id="User_Card_2">
</g>
<g id="Gaming_2">
	<g>
		<g>
			<path d="M11.005,23.973c-1.318,0-1.994-1.174-2.007-3.489c-0.009-1.736,1.271-6.508,5.466-6.529l4-0.021c0.01,0,0.019,0,0.028,0
				c1.857,0,3.383,0.959,4.411,2.775c0.797,1.407,1.091,2.981,1.095,3.696c0.005,0.906-0.078,1.581-0.263,2.121
				c-0.389,1.143-1.149,1.386-1.719,1.389c-0.007,0-0.013,0-0.019,0c-2.063,0-3.087-1.931-3.38-2.597
				c-0.345-0.127-1.181-0.343-2.117-0.374c-0.96,0.005-1.77,0.266-2.113,0.396c-0.287,0.671-1.298,2.622-3.371,2.634
				C11.013,23.973,11.009,23.973,11.005,23.973z M18.492,14.933c-0.008,0-0.016,0-0.022,0l-4,0.021
				c-3.669,0.019-4.476,4.669-4.472,5.524c0.014,2.495,0.744,2.505,1.013,2.494c1.75-0.01,2.51-2.157,2.518-2.18
				c0.044-0.128,0.139-0.233,0.263-0.291c0.049-0.022,1.207-0.55,2.704-0.559c1.459,0,2.663,0.51,2.712,0.531
				c0.123,0.056,0.219,0.16,0.265,0.287c0.008,0.021,0.797,2.152,2.527,2.152c0.257-0.023,0.573-0.073,0.79-0.711
				c0.145-0.426,0.213-1.013,0.209-1.794c-0.003-0.587-0.268-1.977-0.965-3.208C21.181,15.695,19.989,14.933,18.492,14.933z"/>
		</g>
		<g>
			<ellipse transform="matrix(1 -0.0053 0.0053 1 -0.0915 0.0975)" cx="18.482" cy="17.433" rx="0.5" ry="0.5"/>
		</g>
		<g>
			<ellipse transform="matrix(1 -0.0053 0.0053 1 -0.0967 0.1028)" cx="19.488" cy="18.428" rx="0.5" ry="0.5"/>
		</g>
		<g>
			<ellipse transform="matrix(1 -0.0053 0.0053 1 -0.0862 0.1027)" cx="19.477" cy="16.428" rx="0.5" ry="0.5"/>
		</g>
		<g>
			<ellipse transform="matrix(1 -0.0053 0.0053 1 -0.0914 0.108)" cx="20.482" cy="17.422" rx="0.5" ry="0.5"/>
		</g>
		<g>
			<path d="M13.487,18.959c-0.275,0-0.499-0.223-0.5-0.498l-0.01-2c-0.001-0.275,0.222-0.501,0.498-0.502c0,0,0.001,0,0.002,0
				c0.275,0,0.499,0.223,0.5,0.498l0.01,2c0.001,0.275-0.222,0.501-0.498,0.502C13.489,18.959,13.488,18.959,13.487,18.959z"/>
		</g>
		<g>
			<g>
				<path d="M0.515,24.027c-0.275,0-0.499-0.222-0.5-0.497l-0.013-2.402c0-0.041,0.005-0.082,0.015-0.121
					c0.255-1.045,0.658-2.069,1.876-2.481l4.429-1.503c1.043-0.441,1.521-2.171,1.622-2.826c-0.769-0.697-1.487-1.75-1.492-2.7
					c-0.002-0.354-0.107-0.499-0.163-0.526c-0.156-0.038-0.246-0.137-0.306-0.286c-0.056-0.137-0.543-1.359-0.547-2.182
					c0-0.041,0.005-0.082,0.015-0.121c0.053-0.22,0.204-0.542,0.48-0.73L5.917,4.999C5.911,3.938,6.404,2.69,7.203,1.745
					c0.96-1.136,2.27-1.766,3.688-1.772c1.328-0.039,2.383,0.288,3.116,0.877c0.583,0.468,0.835,1.027,0.887,1.447
					c0.52,0.381,1.015,1.038,1.023,2.649l0.014,2.651c0.278,0.186,0.434,0.506,0.489,0.725c0.01,0.04,0.016,0.08,0.016,0.121
					c0.004,0.823-0.471,2.052-0.525,2.189c-0.059,0.149-0.186,0.262-0.342,0.301c-0.016,0.016-0.119,0.161-0.117,0.515
					c0.001,0.383-0.108,0.796-0.324,1.229c-0.124,0.247-0.422,0.35-0.671,0.224c-0.247-0.124-0.347-0.424-0.224-0.671
					c0.144-0.287,0.22-0.556,0.219-0.776c-0.004-0.746,0.303-1.162,0.594-1.359c0.142-0.393,0.367-1.105,0.389-1.569
					c-0.018-0.039-0.041-0.08-0.057-0.093c-0.001,0-0.002,0-0.003,0c-0.274,0-0.439-0.204-0.441-0.479l-0.016-3
					c-0.008-1.473-0.482-1.771-0.686-1.897c-0.121-0.076-0.325-0.205-0.357-0.479c-0.007-0.058,0.002-0.126,0.021-0.194
					c-0.031-0.17-0.163-0.47-0.515-0.752c-0.378-0.303-1.088-0.672-2.484-0.656C9.46,0.98,8.511,1.748,7.967,2.391
					c-0.652,0.771-1.055,1.77-1.05,2.603l0.016,3c0.001,0.133-0.052,0.261-0.145,0.354C6.694,8.442,6.567,8.495,6.436,8.496
					c0.019,0.003,0.012,0.037,0.002,0.069c0.024,0.464,0.259,1.179,0.405,1.571c0.293,0.194,0.604,0.606,0.608,1.354
					c0.004,0.674,0.672,1.57,1.329,2.108c0.115,0.094,0.183,0.234,0.184,0.384c0.004,0.635-0.558,3.243-2.287,3.975l-4.463,1.516
					c-0.709,0.239-0.986,0.81-1.212,1.712l0.01,1.84l7.032-0.036c0.001,0,0.002,0,0.003,0c0.275,0,0.499,0.222,0.5,0.497
					c0.001,0.276-0.222,0.502-0.497,0.503l-7.532,0.039C0.517,24.027,0.516,24.027,0.515,24.027z"/>
			</g>
		</g>
		<g>
			<path d="M12.482,17.965c-0.275,0-0.498-0.222-0.5-0.497c-0.002-0.276,0.221-0.501,0.497-0.503l2-0.011
				c0.286,0.022,0.501,0.22,0.503,0.497c0.002,0.276-0.221,0.501-0.497,0.503l-2,0.011C12.484,17.965,12.483,17.965,12.482,17.965z"
				/>
		</g>
	</g>
</g>
<g id="Cloud_2">
</g>
<g id="Database_2">
</g>
<g id="Copyright_2">
</g>
<g id="No_Copyright_2">
</g>
<g id="Creative_Commun_2">
</g>
<g id="Eco-Friendly_2">
</g>
<g id="Percentage_2">
</g>
<g id="User_Love_2">
</g>
<g id="User_Rate_2">
</g>
<g id="User_Key_2">
</g>
<g id="Sleeping_2">
</g>
</svg>
