<?xml version="1.0" encoding="iso-8859-1"?>
<!-- Generator: Adobe Illustrator 19.2.1, SVG Export Plug-In . SVG Version: 6.00 Build 0)  -->
<svg version="1.1" xmlns="http://www.w3.org/2000/svg" xmlns:xlink="http://www.w3.org/1999/xlink" x="0px" y="0px"
	 viewBox="0 0 24 24" style="enable-background:new 0 0 24 24;" xml:space="preserve">
<g id="Add_Users">
</g>
<g id="Remove_Users">
</g>
<g id="Delete_Users">
</g>
<g id="Done_3">
</g>
<g id="At_Symbol_3">
</g>
<g id="Question_3">
</g>
<g id="Answer_3">
</g>
<g id="Bring_Up_3">
</g>
<g id="Bring_Down_3">
</g>
<g id="Dismiss_Users">
</g>
<g id="Users_Speed_3">
</g>
<g id="Users_Settings">
</g>
<g id="Refresh_Users">
</g>
<g id="Time_3">
</g>
<g id="Dollar_3">
</g>
<g id="Euro_3">
</g>
<g id="Pound_3">
</g>
<g id="Bitcoin_3">
</g>
<g id="Global_Users">
</g>
<g id="Waiting_Users">
</g>
<g id="Writing_Users">
</g>
<g id="Search_Users">
</g>
<g id="Lock_Users">
</g>
<g id="Mark_Users">
</g>
<g id="Share_Users">
</g>
<g id="Shopping_3">
</g>
<g id="Download_3">
</g>
<g id="Upload_3">
</g>
<g id="Users_Statistics">
</g>
<g id="Users_Defense">
</g>
<g id="Car_3">
</g>
<g id="Home_3">
	<g>
		<g>
			<g>
				<path d="M22.5,24h-2c-0.276,0-0.5-0.224-0.5-0.5V21h-1v2.5c0,0.276-0.224,0.5-0.5,0.5h-2c-0.276,0-0.5-0.224-0.5-0.5V20h-0.5
					c-0.202,0-0.385-0.122-0.462-0.309c-0.078-0.187-0.035-0.402,0.108-0.545l4-4c0.195-0.195,0.512-0.195,0.707,0l4,4
					c0.143,0.143,0.186,0.358,0.108,0.545C23.885,19.878,23.702,20,23.5,20H23v3.5C23,23.776,22.776,24,22.5,24z M21,23h1v-3.5
					c0-0.215,0.135-0.397,0.325-0.469L19.5,16.207l-2.825,2.824C16.865,19.103,17,19.285,17,19.5V23h1v-2.5
					c0-0.276,0.224-0.5,0.5-0.5h2c0.276,0,0.5,0.224,0.5,0.5V23z"/>
			</g>
		</g>
		<g>
			<g>
				<path d="M0.5,17.998c-0.276,0-0.5-0.224-0.5-0.5c0-1.971,1.334-3.68,3.246-4.157l2.755-0.688l0.221-0.884
					c-0.685-0.73-1.163-1.694-1.33-2.683c-0.473-0.13-0.84-0.534-0.903-1.041L3.803,6.566c-0.044-0.353,0.065-0.707,0.3-0.974
					C4.229,5.45,4.385,5.34,4.557,5.269C4.504,4.81,4.435,4.144,4.435,3.825c0-1.397,0.421-3.003,3.667-3.084
					C9.228,0,10.423,0,10.944,0c1.351,0,2.329,0.449,2.909,1.335c0.768,1.172,0.395,1.986-0.054,2.464l-0.243,0.243l-0.062,1.251
					c0.154,0.072,0.294,0.177,0.408,0.308c0.23,0.266,0.338,0.617,0.294,0.966l-0.185,1.479c-0.06,0.475-0.385,0.859-0.814,1.013
					c-0.168,1.032-0.672,2.033-1.402,2.778l0.204,0.816l2.755,0.688c0.872,0.219,1.639,0.694,2.221,1.377
					c0.179,0.21,0.154,0.525-0.056,0.705c-0.209,0.179-0.526,0.154-0.705-0.057c-0.446-0.522-1.035-0.888-1.703-1.055l-3.046-0.762
					c-0.179-0.045-0.319-0.185-0.364-0.364l-0.347-1.389c-0.045-0.18,0.013-0.37,0.151-0.493c0.76-0.681,1.261-1.695,1.342-2.713
					c0.021-0.261,0.238-0.461,0.499-0.461c0.156,0,0.258-0.09,0.273-0.21l0.185-1.479c0.011-0.091-0.03-0.154-0.057-0.184
					c-0.026-0.03-0.085-0.082-0.18-0.083c-0.135-0.002-0.265-0.059-0.357-0.157c-0.093-0.1-0.142-0.231-0.135-0.367l0.09-1.85
					c0.006-0.124,0.058-0.241,0.146-0.329l0.369-0.369c0.208-0.223,0.374-0.551-0.065-1.22C12.633,1.297,11.936,1,10.944,1
					C10.46,1,9.454,1,8.552,1.645C8.468,1.705,8.368,1.737,8.266,1.738c-2.831,0.028-2.831,1.17-2.831,2.087
					c0,0.355,0.124,1.41,0.171,1.786c0.018,0.143-0.026,0.285-0.121,0.394C5.39,6.112,5.253,6.174,5.109,6.174
					c-0.17,0-0.229,0.051-0.256,0.081c-0.027,0.03-0.07,0.095-0.058,0.187L4.98,7.92c0.015,0.12,0.117,0.21,0.237,0.21h0.12
					c0.261,0,0.478,0.2,0.499,0.46c0.079,0.987,0.558,1.982,1.281,2.661c0.132,0.124,0.187,0.31,0.143,0.485l-0.362,1.449
					c-0.044,0.18-0.185,0.319-0.364,0.364l-3.046,0.762C2.023,14.677,1,15.987,1,17.498C1,17.774,0.776,17.998,0.5,17.998z"/>
			</g>
		</g>
		<g>
			<path d="M23.22,16.568c-0.197,0-0.384-0.117-0.463-0.311c-0.394-0.966-1.233-1.693-2.246-1.946l-3.046-0.762
				c-0.179-0.045-0.319-0.185-0.364-0.364l-0.347-1.389c-0.045-0.18,0.013-0.37,0.151-0.493c0.76-0.681,1.261-1.695,1.342-2.713
				c0.021-0.261,0.238-0.461,0.499-0.461c0.157,0,0.259-0.09,0.273-0.209l0.185-1.479c0.011-0.091-0.03-0.154-0.057-0.184
				c-0.026-0.03-0.085-0.082-0.18-0.083c-0.135-0.002-0.265-0.059-0.357-0.157c-0.093-0.1-0.142-0.231-0.135-0.367l0.09-1.85
				c0.006-0.124,0.058-0.241,0.146-0.329l0.369-0.369c0.208-0.223,0.374-0.551-0.065-1.22C18.633,1.297,17.936,1,16.944,1
				c-0.419,0-0.974,0.024-1.545,0.218c-0.261,0.088-0.545-0.051-0.634-0.313c-0.088-0.262,0.052-0.545,0.313-0.634
				C15.788,0.03,16.448,0,16.944,0c1.351,0,2.329,0.449,2.909,1.335c0.768,1.172,0.395,1.986-0.054,2.464l-0.243,0.243l-0.062,1.251
				c0.154,0.072,0.294,0.177,0.408,0.308c0.23,0.266,0.338,0.617,0.294,0.966l-0.185,1.479c-0.059,0.475-0.384,0.859-0.814,1.014
				c-0.168,1.031-0.672,2.032-1.402,2.777l0.204,0.816l2.755,0.688c1.32,0.331,2.415,1.279,2.929,2.538
				c0.104,0.256-0.018,0.548-0.274,0.652C23.347,16.557,23.283,16.568,23.22,16.568z"/>
		</g>
	</g>
</g>
<g id="Park_3">
</g>
<g id="Recicle_Users">
</g>
<g id="Wifi_3">
</g>
<g id="Attach_3">
</g>
<g id="Disabled_Users">
</g>
<g id="Users_Card">
</g>
<g id="Gaming_3">
</g>
<g id="Cloud_3">
</g>
<g id="Database_3">
</g>
<g id="Copyright_3">
</g>
<g id="No_Copzright_3">
</g>
<g id="Creative_Commun_3">
</g>
<g id="Eco-Friendly_3">
</g>
<g id="Percentage_3">
</g>
<g id="Users_Love">
</g>
<g id="Users_Place">
</g>
<g id="Users_Key">
</g>
<g id="Sleeping_3">
</g>
</svg>
