<?xml version="1.0" encoding="iso-8859-1"?>
<!-- Generator: Adobe Illustrator 19.2.1, SVG Export Plug-In . SVG Version: 6.00 Build 0)  -->
<svg version="1.1" xmlns="http://www.w3.org/2000/svg" xmlns:xlink="http://www.w3.org/1999/xlink" x="0px" y="0px"
	 viewBox="0 0 24 24" style="enable-background:new 0 0 24 24;" xml:space="preserve">
<g id="Add_User">
</g>
<g id="Remove_User">
</g>
<g id="Delete_User">
</g>
<g id="Done">
</g>
<g id="At_Symbol">
</g>
<g id="Question">
</g>
<g id="Answer">
</g>
<g id="Bring_Up">
</g>
<g id="Bring_Down">
</g>
<g id="Dismiss_User">
</g>
<g id="User_Speed">
</g>
<g id="User_Settings">
</g>
<g id="User_Refresh">
</g>
<g id="User_Time">
</g>
<g id="Dollar">
</g>
<g id="Euro">
</g>
<g id="Pound">
</g>
<g id="Bitcoin">
</g>
<g id="Global_User">
</g>
<g id="Waiting_User">
</g>
<g id="Writing_User_2">
</g>
<g id="Search_User">
</g>
<g id="Lock_User">
	<g>
		<g>
			<path d="M13.5,24h-13C0.224,24,0,23.776,0,23.5c0-3.123,1.066-4.907,3.258-5.455l3.83-0.958l0.348-1.393
				c-0.966-0.998-1.632-2.347-1.839-3.722c-0.625-0.122-1.121-0.634-1.203-1.287l-0.25-2C4.091,8.259,4.224,7.83,4.508,7.507
				C4.69,7.301,4.924,7.151,5.181,7.07C5.109,6.46,5,5.449,5,5c0-1.93,0.58-3.909,4.84-3.998C11.332,0,12.935,0,13.63,0
				c1.764,0,3.038,0.581,3.788,1.726c0.976,1.49,0.509,2.517-0.054,3.116L16.99,5.217L16.898,7.1c0.229,0.087,0.436,0.229,0.6,0.417
				c0.28,0.321,0.41,0.747,0.357,1.169l-0.25,2c-0.076,0.611-0.516,1.099-1.084,1.258c-0.223,1.532-1.011,3.021-2.157,4.049
				c-0.206,0.185-0.522,0.167-0.706-0.038c-0.185-0.206-0.167-0.522,0.038-0.706c1.061-0.951,1.761-2.367,1.874-3.789
				c0.021-0.26,0.238-0.46,0.499-0.46c0.3,0,0.514-0.188,0.545-0.438l0.25-2c0.018-0.143-0.024-0.28-0.119-0.388
				c-0.095-0.109-0.227-0.17-0.372-0.171c-0.136-0.001-0.265-0.058-0.358-0.157c-0.093-0.099-0.142-0.231-0.136-0.367L16,4.976
				c0.006-0.124,0.058-0.241,0.146-0.329l0.5-0.5c0.313-0.333,0.599-0.858-0.065-1.873C16.028,1.429,15.036,1,13.63,1
				c-1.025,0-2.223,0.108-3.339,0.907C10.208,1.966,10.107,1.999,10.005,2C6.306,2.037,6,3.44,6,5c0,0.489,0.168,1.925,0.232,2.438
				C6.25,7.58,6.206,7.723,6.111,7.831C6.017,7.938,5.88,8,5.736,8H5.633C5.487,8,5.354,8.06,5.258,8.169
				C5.162,8.278,5.119,8.417,5.137,8.562l0.25,2C5.418,10.812,5.631,11,5.883,11h0.163c0.261,0,0.478,0.2,0.499,0.46
				c0.11,1.378,0.778,2.767,1.788,3.714c0.132,0.124,0.188,0.31,0.143,0.486l-0.49,1.961C7.94,17.8,7.8,17.94,7.621,17.985
				L3.5,19.015C1.906,19.414,1.107,20.685,1.01,23H13.5c0.276,0,0.5,0.224,0.5,0.5S13.776,24,13.5,24z"/>
		</g>
		<g>
			<g>
				<path d="M23.5,24h-8c-0.276,0-0.5-0.224-0.5-0.5v-6c0-0.276,0.224-0.5,0.5-0.5h8c0.276,0,0.5,0.224,0.5,0.5v6
					C24,23.776,23.776,24,23.5,24z M16,23h7v-5h-7V23z"/>
			</g>
			<g>
				<path d="M19.5,22c-0.276,0-0.5-0.224-0.5-0.5V20c0-0.276,0.224-0.5,0.5-0.5S20,19.724,20,20v1.5C20,21.776,19.776,22,19.5,22z"
					/>
			</g>
			<g>
				<path d="M19.5,21c-0.551,0-1-0.449-1-1s0.449-1,1-1s1,0.449,1,1S20.051,21,19.5,21z M19.5,20C19.5,20,19.5,20,19.5,20l0.5,0
					L19.5,20z"/>
			</g>
			<g>
				<path d="M22.5,18c-0.276,0-0.5-0.224-0.5-0.5v-1c0-1.378-1.122-2.5-2.5-2.5S17,15.122,17,16.5v1c0,0.276-0.224,0.5-0.5,0.5
					S16,17.776,16,17.5v-1c0-1.93,1.57-3.5,3.5-3.5s3.5,1.57,3.5,3.5v1C23,17.776,22.776,18,22.5,18z"/>
			</g>
		</g>
	</g>
</g>
<g id="Mark_User">
</g>
<g id="Share_User">
</g>
<g id="Shopping">
</g>
<g id="User_Download">
</g>
<g id="User_Upload">
</g>
<g id="User_Statistics">
</g>
<g id="User_Defense">
</g>
<g id="User_Car">
</g>
<g id="User_Home">
</g>
<g id="Park">
</g>
<g id="Recicle_User">
</g>
<g id="Wifi">
</g>
<g id="Attach_User">
</g>
<g id="Disabled_User">
</g>
<g id="User_Card">
</g>
<g id="Gaming">
</g>
<g id="User_Cloud">
</g>
<g id="User_Database">
</g>
<g id="Copyright">
</g>
<g id="No_Copyright">
</g>
<g id="Creative_Commun">
</g>
<g id="Eco-Friendly">
</g>
<g id="Percentage">
</g>
<g id="User_Love">
</g>
<g id="User_Place">
</g>
<g id="User_Key">
</g>
<g id="Sleeping">
</g>
<g id="Add_User_2">
</g>
<g id="Remove_User_2">
</g>
<g id="Delete_User_2">
</g>
<g id="Done_2">
</g>
<g id="At_Symbol_2">
</g>
<g id="Question_2">
</g>
<g id="Answer_2">
</g>
<g id="Bring_Up_2">
</g>
<g id="Bring_Down_2">
</g>
<g id="Dismiss_User_2">
</g>
<g id="User_Speed_2">
</g>
<g id="User_Settings_2">
</g>
<g id="Refresh_2">
</g>
<g id="Time_2">
</g>
<g id="Dollar_2">
</g>
<g id="Euro_2">
</g>
<g id="Pound_2">
</g>
<g id="Bitcoin_2">
</g>
<g id="Global_User_2">
</g>
<g id="Waiting_User_2">
</g>
<g id="Writing_User">
</g>
<g id="Search_User_2">
</g>
<g id="Lock_User_2">
</g>
<g id="Mark_User_2">
</g>
<g id="Share_User_2">
</g>
<g id="Shopping_2">
</g>
<g id="Download_2">
</g>
<g id="Upload_2">
</g>
<g id="User_Statistics_2">
</g>
<g id="User_Defense_2">
</g>
<g id="Car_2">
</g>
<g id="Home_2">
</g>
<g id="Park_2">
</g>
<g id="Recicle_User_2">
</g>
<g id="User_Wifi">
</g>
<g id="Attach_2">
</g>
<g id="Disabled_User_2">
</g>
<g id="User_Card_2">
</g>
<g id="Gaming_2">
</g>
<g id="Cloud_2">
</g>
<g id="Database_2">
</g>
<g id="Copyright_2">
</g>
<g id="No_Copyright_2">
</g>
<g id="Creative_Commun_2">
</g>
<g id="Eco-Friendly_2">
</g>
<g id="Percentage_2">
</g>
<g id="User_Love_2">
</g>
<g id="User_Rate_2">
</g>
<g id="User_Key_2">
</g>
<g id="Sleeping_2">
</g>
</svg>
