<?xml version="1.0" encoding="iso-8859-1"?>
<!-- Generator: Adobe Illustrator 19.2.1, SVG Export Plug-In . SVG Version: 6.00 Build 0)  -->
<svg version="1.1" xmlns="http://www.w3.org/2000/svg" xmlns:xlink="http://www.w3.org/1999/xlink" x="0px" y="0px"
	 viewBox="0 0 24 24" style="enable-background:new 0 0 24 24;" xml:space="preserve">
<g id="Add_User">
</g>
<g id="Remove_User">
</g>
<g id="Delete_User">
</g>
<g id="Done">
</g>
<g id="At_Symbol">
</g>
<g id="Question">
</g>
<g id="Answer">
</g>
<g id="Bring_Up">
</g>
<g id="Bring_Down">
</g>
<g id="Dismiss_User">
</g>
<g id="User_Speed">
</g>
<g id="User_Settings">
</g>
<g id="User_Refresh">
</g>
<g id="User_Time">
</g>
<g id="Dollar">
</g>
<g id="Euro">
</g>
<g id="Pound">
</g>
<g id="Bitcoin">
</g>
<g id="Global_User">
</g>
<g id="Waiting_User">
</g>
<g id="Writing_User_2">
</g>
<g id="Search_User">
</g>
<g id="Lock_User">
</g>
<g id="Mark_User">
</g>
<g id="Share_User">
</g>
<g id="Shopping">
</g>
<g id="User_Download">
</g>
<g id="User_Upload">
</g>
<g id="User_Statistics">
</g>
<g id="User_Defense">
</g>
<g id="User_Car">
</g>
<g id="User_Home">
</g>
<g id="Park">
</g>
<g id="Recicle_User">
</g>
<g id="Wifi">
</g>
<g id="Attach_User">
</g>
<g id="Disabled_User">
</g>
<g id="User_Card">
</g>
<g id="Gaming">
</g>
<g id="User_Cloud">
</g>
<g id="User_Database">
</g>
<g id="Copyright">
</g>
<g id="No_Copyright">
</g>
<g id="Creative_Commun">
</g>
<g id="Eco-Friendly">
</g>
<g id="Percentage">
</g>
<g id="User_Love">
</g>
<g id="User_Place">
</g>
<g id="User_Key">
</g>
<g id="Sleeping">
</g>
<g id="Add_User_2">
</g>
<g id="Remove_User_2">
</g>
<g id="Delete_User_2">
</g>
<g id="Done_2">
</g>
<g id="At_Symbol_2">
</g>
<g id="Question_2">
</g>
<g id="Answer_2">
</g>
<g id="Bring_Up_2">
</g>
<g id="Bring_Down_2">
</g>
<g id="Dismiss_User_2">
</g>
<g id="User_Speed_2">
</g>
<g id="User_Settings_2">
</g>
<g id="Refresh_2">
</g>
<g id="Time_2">
</g>
<g id="Dollar_2">
</g>
<g id="Euro_2">
</g>
<g id="Pound_2">
</g>
<g id="Bitcoin_2">
</g>
<g id="Global_User_2">
</g>
<g id="Waiting_User_2">
</g>
<g id="Writing_User">
</g>
<g id="Search_User_2">
</g>
<g id="Lock_User_2">
</g>
<g id="Mark_User_2">
	<g>
		<g>
			<path d="M12.12,24H0.598c-0.276,0-0.5-0.224-0.5-0.5v-2.402c0-0.041,0.005-0.082,0.015-0.121c0.261-1.044,0.67-2.065,1.889-2.472
				l4.438-1.479c1.043-0.436,1.531-2.162,1.636-2.817c-0.765-0.702-1.478-1.759-1.478-2.708c0-0.354-0.105-0.5-0.161-0.527
				c-0.156-0.039-0.244-0.138-0.304-0.287C6.079,10.549,5.598,9.322,5.598,8.5c0-0.041,0.005-0.082,0.015-0.121
				c0.055-0.22,0.208-0.54,0.485-0.728V5c0-2.088,1.902-5,5-5c3.06,0,3.892,1.569,3.99,2.345c0.518,0.384,1.01,1.044,1.01,2.655
				v2.651c0.277,0.188,0.43,0.508,0.485,0.728c0.01,0.039,0.015,0.08,0.015,0.121c0,0.822-0.481,2.049-0.536,2.186
				c-0.06,0.149-0.188,0.261-0.343,0.3C15.703,11,15.598,11.146,15.598,11.5c0,0.949-0.713,2.006-1.478,2.708
				c0.011,0.067,0.025,0.15,0.047,0.247c0.059,0.27-0.113,0.536-0.382,0.595c-0.273,0.06-0.537-0.113-0.595-0.382
				c-0.058-0.269-0.092-0.513-0.092-0.668c0-0.149,0.066-0.29,0.182-0.386c0.655-0.541,1.318-1.441,1.318-2.114
				c0-0.747,0.309-1.161,0.601-1.357c0.144-0.392,0.373-1.104,0.397-1.567c-0.017-0.039-0.041-0.08-0.057-0.094
				c-0.276,0-0.441-0.205-0.441-0.481V5c0-1.472-0.473-1.771-0.675-1.9c-0.122-0.077-0.325-0.206-0.355-0.48
				c-0.006-0.06,0.002-0.127,0.022-0.195C14.02,2.027,13.419,1,11.098,1c-2.442,0-4,2.369-4,4v3c0,0.276-0.224,0.5-0.5,0.5
				c0.024,0,0.015,0.034,0.002,0.072c0.023,0.466,0.253,1.179,0.397,1.57c0.292,0.195,0.601,0.61,0.601,1.357
				c0,0.673,0.663,1.573,1.318,2.114C9.032,13.71,9.098,13.851,9.098,14c0,0.635-0.577,3.24-2.308,3.962l-4.472,1.492
				c-0.709,0.236-0.99,0.805-1.221,1.706V23H12.12c0.276,0,0.5,0.224,0.5,0.5S12.396,24,12.12,24z"/>
		</g>
		<g>
			<g>
				<g>
					<g>
						<path d="M21.097,24c-0.104,0-0.208-0.032-0.295-0.097l-3.205-2.349l-3.205,2.349c-0.173,0.127-0.409,0.129-0.585,0.004
							s-0.251-0.348-0.188-0.554l1.178-3.836l-3.298-2.396c-0.175-0.127-0.249-0.353-0.182-0.559s0.259-0.346,0.476-0.346h4.071
							l1.258-3.872C17.188,12.14,17.38,12,17.597,12l0,0c0.217,0,0.409,0.14,0.476,0.346l1.258,3.872h4.071
							c0.217,0,0.409,0.14,0.476,0.346s-0.006,0.432-0.182,0.559l-3.299,2.396l1.178,3.836c0.063,0.206-0.013,0.429-0.188,0.554
							C21.3,23.969,21.199,24,21.097,24z M13.332,17.218l2.342,1.701c0.173,0.125,0.247,0.347,0.184,0.551l-0.84,2.735l2.284-1.674
							c0.176-0.129,0.415-0.129,0.591,0l2.284,1.674l-0.84-2.735c-0.063-0.204,0.011-0.426,0.184-0.551l2.342-1.701h-2.895
							c-0.217,0-0.409-0.14-0.476-0.346l-0.895-2.754l-0.895,2.754c-0.067,0.206-0.259,0.346-0.476,0.346H13.332z"/>
					</g>
				</g>
			</g>
		</g>
	</g>
</g>
<g id="Share_User_2">
</g>
<g id="Shopping_2">
</g>
<g id="Download_2">
</g>
<g id="Upload_2">
</g>
<g id="User_Statistics_2">
</g>
<g id="User_Defense_2">
</g>
<g id="Car_2">
</g>
<g id="Home_2">
</g>
<g id="Park_2">
</g>
<g id="Recicle_User_2">
</g>
<g id="User_Wifi">
</g>
<g id="Attach_2">
</g>
<g id="Disabled_User_2">
</g>
<g id="User_Card_2">
</g>
<g id="Gaming_2">
</g>
<g id="Cloud_2">
</g>
<g id="Database_2">
</g>
<g id="Copyright_2">
</g>
<g id="No_Copyright_2">
</g>
<g id="Creative_Commun_2">
</g>
<g id="Eco-Friendly_2">
</g>
<g id="Percentage_2">
</g>
<g id="User_Love_2">
</g>
<g id="User_Rate_2">
</g>
<g id="User_Key_2">
</g>
<g id="Sleeping_2">
</g>
</svg>
