<?xml version="1.0" encoding="iso-8859-1"?>
<!-- Generator: Adobe Illustrator 19.2.1, SVG Export Plug-In . SVG Version: 6.00 Build 0)  -->
<svg version="1.1" xmlns="http://www.w3.org/2000/svg" xmlns:xlink="http://www.w3.org/1999/xlink" x="0px" y="0px"
	 viewBox="0 0 24 24" style="enable-background:new 0 0 24 24;" xml:space="preserve">
<g id="Add_User">
</g>
<g id="Remove_User">
</g>
<g id="Delete_User">
</g>
<g id="Done">
</g>
<g id="At_Symbol">
</g>
<g id="Question">
</g>
<g id="Answer">
</g>
<g id="Bring_Up">
</g>
<g id="Bring_Down">
</g>
<g id="Dismiss_User">
</g>
<g id="User_Speed">
</g>
<g id="User_Settings">
</g>
<g id="User_Refresh">
</g>
<g id="User_Time">
</g>
<g id="Dollar">
</g>
<g id="Euro">
</g>
<g id="Pound">
</g>
<g id="Bitcoin">
</g>
<g id="Global_User">
</g>
<g id="Waiting_User">
</g>
<g id="Writing_User_2">
</g>
<g id="Search_User">
</g>
<g id="Lock_User">
</g>
<g id="Mark_User">
	<g>
		<g>
			<path d="M0.598,24c-0.132,0-0.26-0.053-0.354-0.146S0.098,23.633,0.098,23.5c0-3.123,1.066-4.907,3.258-5.455l3.83-0.958
				l0.348-1.393c-0.966-0.998-1.631-2.348-1.839-3.722c-0.625-0.122-1.121-0.634-1.203-1.287l-0.25-2
				C4.189,8.26,4.322,7.83,4.606,7.507C4.789,7.301,5.022,7.151,5.279,7.07C5.208,6.46,5.098,5.449,5.098,5
				c0-1.93,0.58-3.909,4.84-3.998C11.43,0,13.033,0,13.729,0c1.764,0,3.038,0.581,3.788,1.726c0.976,1.49,0.509,2.517-0.054,3.117
				l-0.374,0.374L16.997,7.1c0.229,0.087,0.436,0.229,0.6,0.417c0.28,0.321,0.411,0.747,0.358,1.169l-0.25,2
				c-0.076,0.612-0.518,1.102-1.089,1.26c-0.005,0.033-0.01,0.065-0.016,0.099c-0.044,0.272-0.304,0.455-0.573,0.414
				c-0.272-0.044-0.458-0.3-0.414-0.573c0.023-0.141,0.044-0.283,0.056-0.424C15.688,11.201,15.906,11,16.167,11
				c0.301,0,0.514-0.188,0.545-0.438l0.25-2c0.018-0.142-0.024-0.28-0.119-0.388c-0.095-0.109-0.228-0.17-0.373-0.171
				c-0.136-0.001-0.265-0.058-0.358-0.157c-0.093-0.099-0.142-0.231-0.136-0.367l0.122-2.502c0.006-0.124,0.058-0.241,0.146-0.329
				l0.5-0.5c0.313-0.333,0.6-0.858-0.065-1.873C16.126,1.429,15.134,1,13.729,1c-1.025,0-2.223,0.108-3.339,0.907
				C10.306,1.966,10.206,1.999,10.103,2C6.404,2.037,6.098,3.44,6.098,5c0,0.489,0.168,1.925,0.232,2.438
				C6.349,7.58,6.304,7.723,6.209,7.831C6.115,7.938,5.978,8,5.834,8H5.731C5.585,8,5.453,8.06,5.356,8.169
				C5.26,8.278,5.217,8.418,5.235,8.562l0.25,2C5.516,10.812,5.729,11,5.981,11h0.163c0.261,0,0.478,0.2,0.499,0.46
				c0.11,1.378,0.778,2.767,1.789,3.714c0.132,0.124,0.187,0.31,0.143,0.486l-0.49,1.961C8.039,17.8,7.898,17.94,7.719,17.985
				l-4.121,1.03c-1.595,0.399-2.393,1.67-2.49,3.985l10.99-0.001c0.276,0,0.5,0.224,0.5,0.5c0,0.276-0.224,0.5-0.5,0.5L0.598,24z"/>
		</g>
		<g>
			<g>
				<g>
					<g>
						<path d="M14.097,24c-0.102,0-0.203-0.031-0.29-0.092c-0.176-0.125-0.251-0.349-0.188-0.555l1.178-3.834l-3.298-2.397
							c-0.175-0.127-0.249-0.353-0.182-0.559c0.067-0.206,0.259-0.346,0.476-0.346h4.071l1.258-3.872
							C17.188,12.14,17.38,12,17.597,12l0,0c0.217,0,0.409,0.14,0.476,0.346l1.258,3.872h4.071c0.217,0,0.409,0.14,0.476,0.346
							s-0.006,0.432-0.182,0.559l-3.299,2.397l1.178,3.834c0.063,0.206-0.013,0.43-0.188,0.554
							c-0.175,0.125-0.411,0.123-0.585-0.004l-3.205-2.349l-3.205,2.349C14.305,23.968,14.201,24,14.097,24z M13.332,17.217
							l2.342,1.702c0.173,0.125,0.247,0.347,0.184,0.551l-0.84,2.734l2.284-1.674c0.176-0.129,0.415-0.129,0.591,0l2.284,1.674
							l-0.84-2.734c-0.063-0.205,0.011-0.426,0.184-0.551l2.343-1.702h-2.896c-0.217,0-0.409-0.14-0.476-0.346l-0.895-2.753
							l-0.895,2.754c-0.067,0.206-0.259,0.345-0.476,0.345H13.332z"/>
					</g>
				</g>
			</g>
		</g>
	</g>
</g>
<g id="Share_User">
</g>
<g id="Shopping">
</g>
<g id="User_Download">
</g>
<g id="User_Upload">
</g>
<g id="User_Statistics">
</g>
<g id="User_Defense">
</g>
<g id="User_Car">
</g>
<g id="User_Home">
</g>
<g id="Park">
</g>
<g id="Recicle_User">
</g>
<g id="Wifi">
</g>
<g id="Attach_User">
</g>
<g id="Disabled_User">
</g>
<g id="User_Card">
</g>
<g id="Gaming">
</g>
<g id="User_Cloud">
</g>
<g id="User_Database">
</g>
<g id="Copyright">
</g>
<g id="No_Copyright">
</g>
<g id="Creative_Commun">
</g>
<g id="Eco-Friendly">
</g>
<g id="Percentage">
</g>
<g id="User_Love">
</g>
<g id="User_Place">
</g>
<g id="User_Key">
</g>
<g id="Sleeping">
</g>
<g id="Add_User_2">
</g>
<g id="Remove_User_2">
</g>
<g id="Delete_User_2">
</g>
<g id="Done_2">
</g>
<g id="At_Symbol_2">
</g>
<g id="Question_2">
</g>
<g id="Answer_2">
</g>
<g id="Bring_Up_2">
</g>
<g id="Bring_Down_2">
</g>
<g id="Dismiss_User_2">
</g>
<g id="User_Speed_2">
</g>
<g id="User_Settings_2">
</g>
<g id="Refresh_2">
</g>
<g id="Time_2">
</g>
<g id="Dollar_2">
</g>
<g id="Euro_2">
</g>
<g id="Pound_2">
</g>
<g id="Bitcoin_2">
</g>
<g id="Global_User_2">
</g>
<g id="Waiting_User_2">
</g>
<g id="Writing_User">
</g>
<g id="Search_User_2">
</g>
<g id="Lock_User_2">
</g>
<g id="Mark_User_2">
</g>
<g id="Share_User_2">
</g>
<g id="Shopping_2">
</g>
<g id="Download_2">
</g>
<g id="Upload_2">
</g>
<g id="User_Statistics_2">
</g>
<g id="User_Defense_2">
</g>
<g id="Car_2">
</g>
<g id="Home_2">
</g>
<g id="Park_2">
</g>
<g id="Recicle_User_2">
</g>
<g id="User_Wifi">
</g>
<g id="Attach_2">
</g>
<g id="Disabled_User_2">
</g>
<g id="User_Card_2">
</g>
<g id="Gaming_2">
</g>
<g id="Cloud_2">
</g>
<g id="Database_2">
</g>
<g id="Copyright_2">
</g>
<g id="No_Copyright_2">
</g>
<g id="Creative_Commun_2">
</g>
<g id="Eco-Friendly_2">
</g>
<g id="Percentage_2">
</g>
<g id="User_Love_2">
</g>
<g id="User_Rate_2">
</g>
<g id="User_Key_2">
</g>
<g id="Sleeping_2">
</g>
</svg>
