<?xml version="1.0" encoding="iso-8859-1"?>
<!-- Generator: Adobe Illustrator 19.2.1, SVG Export Plug-In . SVG Version: 6.00 Build 0)  -->
<svg version="1.1" xmlns="http://www.w3.org/2000/svg" xmlns:xlink="http://www.w3.org/1999/xlink" x="0px" y="0px"
	 viewBox="0 0 24 24" style="enable-background:new 0 0 24 24;" xml:space="preserve">
<g id="Add_Users">
</g>
<g id="Remove_Users">
</g>
<g id="Delete_Users">
</g>
<g id="Done_3">
</g>
<g id="At_Symbol_3">
</g>
<g id="Question_3">
</g>
<g id="Answer_3">
</g>
<g id="Bring_Up_3">
</g>
<g id="Bring_Down_3">
</g>
<g id="Dismiss_Users">
</g>
<g id="Users_Speed_3">
</g>
<g id="Users_Settings">
</g>
<g id="Refresh_Users">
</g>
<g id="Time_3">
</g>
<g id="Dollar_3">
</g>
<g id="Euro_3">
</g>
<g id="Pound_3">
</g>
<g id="Bitcoin_3">
</g>
<g id="Global_Users">
</g>
<g id="Waiting_Users">
</g>
<g id="Writing_Users">
</g>
<g id="Search_Users">
</g>
<g id="Lock_Users">
</g>
<g id="Mark_Users">
	<g>
		<g>
			<g>
				<g>
					<g>
						<path d="M21.097,24c-0.104,0-0.208-0.032-0.295-0.097l-3.205-2.349l-3.205,2.349c-0.173,0.128-0.409,0.129-0.585,0.004
							s-0.251-0.348-0.188-0.554l1.178-3.836l-3.298-2.396c-0.175-0.127-0.249-0.353-0.182-0.559s0.259-0.346,0.476-0.346h4.071
							l1.258-3.872C17.188,12.14,17.38,12,17.597,12l0,0c0.217,0,0.409,0.14,0.476,0.346l1.258,3.872h4.071
							c0.217,0,0.409,0.14,0.476,0.346s-0.006,0.432-0.182,0.559l-3.299,2.396l1.178,3.836c0.063,0.206-0.013,0.429-0.188,0.554
							C21.3,23.969,21.199,24,21.097,24z M13.332,17.218l2.342,1.701c0.173,0.125,0.247,0.347,0.184,0.551l-0.84,2.735l2.284-1.674
							c0.176-0.129,0.415-0.129,0.591,0l2.284,1.674l-0.84-2.735c-0.063-0.204,0.011-0.426,0.184-0.551l2.342-1.701h-2.895
							c-0.217,0-0.409-0.14-0.476-0.346l-0.895-2.754l-0.895,2.754c-0.067,0.206-0.259,0.346-0.476,0.346H13.332z"/>
					</g>
				</g>
			</g>
		</g>
		<g>
			<g>
				<path d="M18.291,10.95c-0.081,0-0.163-0.02-0.239-0.061c-0.243-0.132-0.332-0.436-0.2-0.678c0.28-0.514,0.451-1.074,0.494-1.62
					c0.021-0.26,0.238-0.46,0.499-0.46c0.06,0,0.091-0.009,0.132-0.028c0.038-0.018,0.127-0.07,0.141-0.182l0.185-1.478
					c0.011-0.092-0.031-0.155-0.057-0.186c-0.026-0.03-0.084-0.081-0.178-0.082c-0.136-0.001-0.266-0.058-0.358-0.157
					c-0.093-0.099-0.142-0.231-0.136-0.367l0.09-1.85c0.006-0.124,0.058-0.241,0.146-0.329l0.37-0.37
					c0.208-0.222,0.374-0.551-0.065-1.22C18.731,1.297,18.034,1,17.042,1c-0.419,0-0.973,0.025-1.544,0.218
					c-0.261,0.09-0.545-0.051-0.634-0.313c-0.088-0.261,0.052-0.545,0.313-0.634C15.887,0.031,16.547,0,17.042,0
					c1.351,0,2.329,0.449,2.909,1.335c0.768,1.172,0.394,1.987-0.054,2.464l-0.244,0.244l-0.061,1.25
					C19.747,5.366,19.885,5.469,20,5.6c0.231,0.265,0.339,0.618,0.295,0.967L20.11,8.045c-0.053,0.421-0.319,0.781-0.711,0.963
					c-0.035,0.016-0.068,0.031-0.103,0.043c-0.091,0.56-0.284,1.119-0.567,1.637C18.639,10.855,18.468,10.95,18.291,10.95z"/>
			</g>
		</g>
		<g>
			<path d="M0.598,17.998c-0.276,0-0.5-0.224-0.5-0.5c0-1.97,1.334-3.679,3.246-4.156l2.755-0.688l0.221-0.885
				c-0.685-0.73-1.163-1.694-1.33-2.682C4.517,8.957,4.15,8.552,4.086,8.045L3.902,6.567C3.858,6.214,3.967,5.859,4.203,5.593
				C4.328,5.45,4.483,5.34,4.655,5.269C4.603,4.81,4.533,4.144,4.533,3.826c0-1.398,0.421-3.003,3.667-3.084
				C9.326,0,10.521,0,11.042,0c1.351,0,2.329,0.449,2.909,1.335c0.768,1.172,0.394,1.987-0.054,2.464l-0.244,0.244l-0.061,1.25
				C13.747,5.366,13.885,5.469,14,5.6c0.231,0.265,0.339,0.618,0.295,0.967L14.11,8.045c-0.06,0.475-0.385,0.86-0.814,1.014
				c-0.168,1.032-0.672,2.033-1.402,2.778l0.207,0.828l2.86,0.818c0.265,0.075,0.419,0.353,0.343,0.618
				c-0.076,0.267-0.353,0.423-0.619,0.343l-3.138-0.897c-0.171-0.049-0.304-0.186-0.347-0.359l-0.348-1.389
				c-0.045-0.18,0.013-0.37,0.151-0.494c0.759-0.68,1.261-1.695,1.342-2.713c0.021-0.26,0.238-0.46,0.499-0.46
				c0.156,0,0.258-0.09,0.273-0.209l0.185-1.478c0.011-0.092-0.031-0.155-0.057-0.186c-0.026-0.03-0.084-0.081-0.178-0.082
				c-0.136-0.001-0.266-0.058-0.358-0.157c-0.093-0.099-0.142-0.231-0.136-0.367l0.09-1.85c0.006-0.124,0.058-0.241,0.146-0.329
				l0.37-0.37c0.208-0.222,0.374-0.551-0.065-1.22C12.731,1.297,12.034,1,11.042,1C10.306,1,9.445,1.077,8.65,1.646
				c-0.083,0.06-0.184,0.092-0.286,0.093C5.533,1.767,5.533,2.909,5.533,3.826c0,0.354,0.123,1.409,0.17,1.785
				c0.018,0.143-0.026,0.286-0.121,0.393C5.488,6.112,5.351,6.174,5.208,6.174c-0.17,0-0.229,0.051-0.255,0.081
				c-0.027,0.03-0.07,0.095-0.058,0.188l0.185,1.478C5.094,8.04,5.196,8.13,5.316,8.13h0.12c0.261,0,0.478,0.2,0.499,0.46
				c0.079,0.987,0.558,1.981,1.281,2.66c0.132,0.124,0.187,0.31,0.143,0.486l-0.362,1.45c-0.044,0.18-0.185,0.319-0.364,0.364
				l-3.046,0.762c-1.465,0.366-2.488,1.676-2.488,3.186C1.098,17.774,0.875,17.998,0.598,17.998z"/>
		</g>
	</g>
</g>
<g id="Share_Users">
</g>
<g id="Shopping_3">
</g>
<g id="Download_3">
</g>
<g id="Upload_3">
</g>
<g id="Users_Statistics">
</g>
<g id="Users_Defense">
</g>
<g id="Car_3">
</g>
<g id="Home_3">
</g>
<g id="Park_3">
</g>
<g id="Recicle_Users">
</g>
<g id="Wifi_3">
</g>
<g id="Attach_3">
</g>
<g id="Disabled_Users">
</g>
<g id="Users_Card">
</g>
<g id="Gaming_3">
</g>
<g id="Cloud_3">
</g>
<g id="Database_3">
</g>
<g id="Copyright_3">
</g>
<g id="No_Copzright_3">
</g>
<g id="Creative_Commun_3">
</g>
<g id="Eco-Friendly_3">
</g>
<g id="Percentage_3">
</g>
<g id="Users_Love">
</g>
<g id="Users_Place">
</g>
<g id="Users_Key">
</g>
<g id="Sleeping_3">
</g>
</svg>
