<?xml version="1.0" encoding="iso-8859-1"?>
<!-- Generator: Adobe Illustrator 19.2.1, SVG Export Plug-In . SVG Version: 6.00 Build 0)  -->
<svg version="1.1" xmlns="http://www.w3.org/2000/svg" xmlns:xlink="http://www.w3.org/1999/xlink" x="0px" y="0px"
	 viewBox="0 0 24 24" style="enable-background:new 0 0 24 24;" xml:space="preserve">
<g id="Add_Users">
</g>
<g id="Remove_Users">
</g>
<g id="Delete_Users">
</g>
<g id="Done_3">
</g>
<g id="At_Symbol_3">
</g>
<g id="Question_3">
	<g>
		<g>
			<g>
				<g>
					<g>
						<g>
							<g>
								<g>
									<path d="M18.499,24c-3.032,0-5.5-2.467-5.5-5.5s2.468-5.5,5.5-5.5s5.5,2.467,5.5,5.5S21.531,24,18.499,24z M18.499,14
										c-2.481,0-4.5,2.019-4.5,4.5s2.019,4.5,4.5,4.5s4.5-2.019,4.5-4.5S20.98,14,18.499,14z"/>
								</g>
							</g>
							<g>
								<path d="M18.5,22c-0.13,0-0.26-0.05-0.351-0.15C18.05,21.76,18,21.63,18,21.5c0-0.13,0.05-0.26,0.149-0.35
									c0.131-0.14,0.351-0.19,0.54-0.11c0.061,0.02,0.12,0.06,0.16,0.11C18.95,21.24,19,21.37,19,21.5c0,0.13-0.05,0.26-0.15,0.35
									c-0.04,0.05-0.1,0.09-0.16,0.11C18.63,21.99,18.56,22,18.5,22z"/>
							</g>
							<g>
								<path d="M18.499,20L18.499,20c-0.277,0-0.501-0.225-0.5-0.501l0.002-1c0-0.236,0.167-0.44,0.398-0.489l0.111-0.021
									c1.016-0.188,1.488-0.502,1.488-0.99c0-0.542-0.688-1-1.501-1c-0.783,0-1.457,0.425-1.501,0.947
									c-0.022,0.276-0.284,0.485-0.54,0.456c-0.275-0.023-0.479-0.265-0.456-0.54C16.091,15.801,17.164,15,18.498,15
									c1.379,0,2.501,0.897,2.501,2c0,0.955-0.672,1.596-1.999,1.909l-0.001,0.593C18.998,19.777,18.774,20,18.499,20z"/>
							</g>
						</g>
					</g>
				</g>
			</g>
		</g>
		<g>
			<g>
				<path d="M17.301,12.11c-0.134,0-0.267-0.053-0.365-0.158c-0.188-0.202-0.178-0.518,0.023-0.707
					c0.73-0.684,1.212-1.676,1.29-2.654c0.021-0.26,0.237-0.46,0.498-0.46l0.133-0.028c0.038-0.018,0.127-0.07,0.141-0.181
					l0.185-1.479c0.012-0.091-0.03-0.155-0.057-0.185c-0.026-0.03-0.084-0.081-0.178-0.082c-0.136-0.001-0.265-0.058-0.358-0.157
					c-0.093-0.099-0.142-0.231-0.135-0.367l0.09-1.85c0.006-0.124,0.058-0.241,0.146-0.329l0.369-0.369
					c0.209-0.222,0.374-0.551-0.064-1.221C18.634,1.297,17.938,1,16.945,1c-0.419,0-0.973,0.025-1.545,0.218
					c-0.262,0.09-0.545-0.053-0.634-0.313c-0.089-0.262,0.052-0.545,0.313-0.634C15.79,0.031,16.45,0,16.945,0
					c1.351,0,2.329,0.449,2.908,1.334c0.769,1.173,0.395,1.988-0.054,2.465l-0.243,0.243l-0.061,1.251
					c0.153,0.072,0.292,0.176,0.405,0.307c0.231,0.265,0.34,0.617,0.296,0.966l-0.185,1.479c-0.052,0.42-0.318,0.781-0.711,0.963
					c-0.034,0.016-0.068,0.031-0.103,0.043c-0.179,1.092-0.744,2.163-1.557,2.923C17.546,12.065,17.423,12.11,17.301,12.11z"/>
			</g>
		</g>
		<g>
			<path d="M0.501,17.998c-0.276,0-0.5-0.224-0.5-0.5c0-1.969,1.334-3.679,3.245-4.156l2.756-0.689l0.221-0.884
				c-0.686-0.73-1.163-1.694-1.33-2.682C4.419,8.957,4.052,8.552,3.989,8.044L3.805,6.566C3.76,6.215,3.869,5.86,4.104,5.593
				C4.23,5.451,4.386,5.34,4.558,5.269C4.505,4.81,4.436,4.144,4.436,3.826c0-1.397,0.421-3.003,3.667-3.084
				C9.229,0,10.424,0,10.945,0c1.351,0,2.329,0.449,2.908,1.334c0.769,1.173,0.395,1.988-0.054,2.465l-0.243,0.243l-0.061,1.251
				c0.153,0.072,0.292,0.176,0.405,0.306c0.231,0.265,0.34,0.617,0.296,0.966l-0.185,1.479c-0.059,0.475-0.384,0.86-0.814,1.014
				c-0.169,1.032-0.673,2.032-1.402,2.778L12,12.653l1.668,0.417c0.269,0.067,0.431,0.338,0.364,0.606
				c-0.066,0.268-0.337,0.431-0.606,0.364l-1.959-0.49c-0.18-0.044-0.319-0.185-0.364-0.363l-0.348-1.389
				c-0.045-0.18,0.014-0.37,0.151-0.494c0.76-0.681,1.262-1.696,1.343-2.713c0.021-0.26,0.237-0.46,0.498-0.46
				c0.156,0,0.259-0.09,0.273-0.209l0.185-1.479c0.012-0.091-0.03-0.155-0.057-0.185c-0.026-0.03-0.084-0.081-0.178-0.082
				c-0.136-0.001-0.265-0.058-0.358-0.157c-0.093-0.099-0.142-0.231-0.135-0.367l0.09-1.85c0.006-0.124,0.058-0.241,0.146-0.329
				l0.369-0.369c0.209-0.222,0.374-0.551-0.064-1.221C12.634,1.297,11.938,1,10.945,1c-0.737,0-1.598,0.077-2.393,0.646
				c-0.084,0.06-0.184,0.092-0.286,0.093c-2.831,0.028-2.831,1.17-2.831,2.087c0,0.355,0.123,1.409,0.171,1.786
				C5.624,5.753,5.58,5.897,5.485,6.004C5.391,6.112,5.254,6.174,5.11,6.174c-0.171,0-0.229,0.051-0.256,0.081
				c-0.026,0.03-0.069,0.094-0.058,0.187l0.185,1.479C4.996,8.041,5.099,8.13,5.219,8.13h0.12c0.261,0,0.478,0.201,0.498,0.46
				c0.078,0.986,0.558,1.981,1.281,2.66c0.133,0.124,0.188,0.31,0.144,0.486l-0.362,1.449c-0.045,0.179-0.185,0.319-0.364,0.364
				l-3.047,0.762c-1.465,0.367-2.487,1.677-2.487,3.187C1.001,17.774,0.777,17.998,0.501,17.998z"/>
		</g>
	</g>
</g>
<g id="Answer_3">
</g>
<g id="Bring_Up_3">
</g>
<g id="Bring_Down_3">
</g>
<g id="Dismiss_Users">
</g>
<g id="Users_Speed_3">
</g>
<g id="Users_Settings">
</g>
<g id="Refresh_Users">
</g>
<g id="Time_3">
</g>
<g id="Dollar_3">
</g>
<g id="Euro_3">
</g>
<g id="Pound_3">
</g>
<g id="Bitcoin_3">
</g>
<g id="Global_Users">
</g>
<g id="Waiting_Users">
</g>
<g id="Writing_Users">
</g>
<g id="Search_Users">
</g>
<g id="Lock_Users">
</g>
<g id="Mark_Users">
</g>
<g id="Share_Users">
</g>
<g id="Shopping_3">
</g>
<g id="Download_3">
</g>
<g id="Upload_3">
</g>
<g id="Users_Statistics">
</g>
<g id="Users_Defense">
</g>
<g id="Car_3">
</g>
<g id="Home_3">
</g>
<g id="Park_3">
</g>
<g id="Recicle_Users">
</g>
<g id="Wifi_3">
</g>
<g id="Attach_3">
</g>
<g id="Disabled_Users">
</g>
<g id="Users_Card">
</g>
<g id="Gaming_3">
</g>
<g id="Cloud_3">
</g>
<g id="Database_3">
</g>
<g id="Copyright_3">
</g>
<g id="No_Copzright_3">
</g>
<g id="Creative_Commun_3">
</g>
<g id="Eco-Friendly_3">
</g>
<g id="Percentage_3">
</g>
<g id="Users_Love">
</g>
<g id="Users_Place">
</g>
<g id="Users_Key">
</g>
<g id="Sleeping_3">
</g>
</svg>
