<?xml version="1.0" encoding="iso-8859-1"?>
<!-- Generator: Adobe Illustrator 19.2.1, SVG Export Plug-In . SVG Version: 6.00 Build 0)  -->
<svg version="1.1" xmlns="http://www.w3.org/2000/svg" xmlns:xlink="http://www.w3.org/1999/xlink" x="0px" y="0px"
	 viewBox="0 0 24 24" style="enable-background:new 0 0 24 24;" xml:space="preserve">
<g id="Add_User">
</g>
<g id="Remove_User">
</g>
<g id="Delete_User">
</g>
<g id="Done">
</g>
<g id="At_Symbol">
</g>
<g id="Question">
</g>
<g id="Answer">
</g>
<g id="Bring_Up">
</g>
<g id="Bring_Down">
</g>
<g id="Dismiss_User">
</g>
<g id="User_Speed">
</g>
<g id="User_Settings">
</g>
<g id="User_Refresh">
</g>
<g id="User_Time">
</g>
<g id="Dollar">
</g>
<g id="Euro">
</g>
<g id="Pound">
</g>
<g id="Bitcoin">
</g>
<g id="Global_User">
</g>
<g id="Waiting_User">
</g>
<g id="Writing_User_2">
</g>
<g id="Search_User">
</g>
<g id="Lock_User">
</g>
<g id="Mark_User">
</g>
<g id="Share_User">
	<g>
		<g>
			<g>
				<path d="M13.5,20c-1.103,0-2-0.897-2-2s0.897-2,2-2s2,0.897,2,2S14.603,20,13.5,20z M13.5,17c-0.551,0-1,0.449-1,1s0.449,1,1,1
					s1-0.449,1-1S14.051,17,13.5,17z"/>
			</g>
			<g>
				<path d="M21.5,16c-1.103,0-2-0.897-2-2s0.897-2,2-2s2,0.897,2,2S22.603,16,21.5,16z M21.5,13c-0.551,0-1,0.449-1,1s0.449,1,1,1
					s1-0.449,1-1S22.051,13,21.5,13z"/>
			</g>
			<g>
				<path d="M21.5,24c-1.103,0-2-0.897-2-2s0.897-2,2-2s2,0.897,2,2S22.603,24,21.5,24z M21.5,21c-0.551,0-1,0.449-1,1s0.449,1,1,1
					s1-0.449,1-1S22.051,21,21.5,21z"/>
			</g>
			<g>
				<path d="M15,17.5c-0.184,0-0.36-0.101-0.448-0.276c-0.124-0.247-0.023-0.547,0.224-0.671l5-2.5
					c0.247-0.123,0.547-0.023,0.671,0.224c0.124,0.247,0.023,0.547-0.224,0.671l-5,2.5C15.151,17.483,15.075,17.5,15,17.5z"/>
			</g>
			<g>
				<g>
					<path d="M1,24c-0.132,0-0.26-0.053-0.354-0.146S0.5,23.633,0.5,23.5c0-3.123,1.066-4.907,3.258-5.455l3.83-0.958l0.348-1.393
						c-0.966-0.998-1.631-2.348-1.839-3.722c-0.625-0.122-1.121-0.634-1.203-1.287l-0.25-2C4.592,8.259,4.724,7.83,5.009,7.507
						C5.191,7.301,5.424,7.151,5.681,7.07C5.61,6.46,5.5,5.449,5.5,5c0-1.93,0.58-3.909,4.84-3.998C11.833,0,13.435,0,14.131,0
						c1.764,0,3.038,0.581,3.788,1.726c0.976,1.49,0.509,2.517-0.054,3.116l-0.374,0.375L17.399,7.1
						c0.229,0.087,0.436,0.229,0.6,0.417c0.28,0.321,0.411,0.747,0.358,1.169l-0.25,2c-0.077,0.611-0.517,1.099-1.085,1.259
						c-0.147,0.992-0.542,1.995-1.133,2.862c-0.048,0.07-0.113,0.127-0.189,0.166l-0.56,0.28c-0.247,0.123-0.547,0.023-0.671-0.224
						c-0.124-0.247-0.023-0.547,0.224-0.671l0.441-0.221c0.533-0.82,0.865-1.766,0.937-2.677c0.021-0.26,0.238-0.46,0.499-0.46
						c0.3,0,0.514-0.188,0.545-0.438l0.25-2c0.018-0.142-0.024-0.28-0.119-0.388c-0.095-0.109-0.228-0.17-0.373-0.171
						c-0.136-0.001-0.265-0.058-0.358-0.157c-0.093-0.099-0.142-0.231-0.136-0.367l0.122-2.502c0.006-0.124,0.058-0.241,0.146-0.329
						l0.5-0.5c0.313-0.333,0.599-0.858-0.065-1.873C16.529,1.429,15.536,1,14.131,1c-1.025,0-2.223,0.108-3.339,0.907
						C10.708,1.966,10.608,1.999,10.505,2C6.807,2.037,6.5,3.44,6.5,5c0,0.489,0.168,1.925,0.232,2.438
						C6.751,7.58,6.707,7.723,6.612,7.831C6.517,7.938,6.38,8,6.237,8H6.133C5.988,8,5.854,8.06,5.758,8.169
						C5.662,8.278,5.619,8.417,5.637,8.562l0.25,2C5.918,10.812,6.132,11,6.383,11h0.163c0.261,0,0.478,0.2,0.499,0.46
						c0.11,1.378,0.778,2.767,1.789,3.714c0.132,0.124,0.187,0.31,0.143,0.486l-0.49,1.961C8.441,17.8,8.301,17.94,8.122,17.985
						l-4.121,1.03c-1.595,0.399-2.393,1.67-2.49,3.985l16.844-0.002c0.276,0,0.5,0.224,0.5,0.5c0,0.276-0.224,0.5-0.5,0.5L1,24z"/>
				</g>
			</g>
			<g>
				<path d="M19.999,22c-0.075,0-0.151-0.017-0.223-0.053l-5-2.5c-0.247-0.124-0.347-0.424-0.224-0.671s0.424-0.346,0.671-0.224
					l5,2.5c0.247,0.124,0.347,0.424,0.224,0.671C20.359,21.899,20.183,22,19.999,22z"/>
			</g>
		</g>
	</g>
</g>
<g id="Shopping">
</g>
<g id="User_Download">
</g>
<g id="User_Upload">
</g>
<g id="User_Statistics">
</g>
<g id="User_Defense">
</g>
<g id="User_Car">
</g>
<g id="User_Home">
</g>
<g id="Park">
</g>
<g id="Recicle_User">
</g>
<g id="Wifi">
</g>
<g id="Attach_User">
</g>
<g id="Disabled_User">
</g>
<g id="User_Card">
</g>
<g id="Gaming">
</g>
<g id="User_Cloud">
</g>
<g id="User_Database">
</g>
<g id="Copyright">
</g>
<g id="No_Copyright">
</g>
<g id="Creative_Commun">
</g>
<g id="Eco-Friendly">
</g>
<g id="Percentage">
</g>
<g id="User_Love">
</g>
<g id="User_Place">
</g>
<g id="User_Key">
</g>
<g id="Sleeping">
</g>
<g id="Add_User_2">
</g>
<g id="Remove_User_2">
</g>
<g id="Delete_User_2">
</g>
<g id="Done_2">
</g>
<g id="At_Symbol_2">
</g>
<g id="Question_2">
</g>
<g id="Answer_2">
</g>
<g id="Bring_Up_2">
</g>
<g id="Bring_Down_2">
</g>
<g id="Dismiss_User_2">
</g>
<g id="User_Speed_2">
</g>
<g id="User_Settings_2">
</g>
<g id="Refresh_2">
</g>
<g id="Time_2">
</g>
<g id="Dollar_2">
</g>
<g id="Euro_2">
</g>
<g id="Pound_2">
</g>
<g id="Bitcoin_2">
</g>
<g id="Global_User_2">
</g>
<g id="Waiting_User_2">
</g>
<g id="Writing_User">
</g>
<g id="Search_User_2">
</g>
<g id="Lock_User_2">
</g>
<g id="Mark_User_2">
</g>
<g id="Share_User_2">
</g>
<g id="Shopping_2">
</g>
<g id="Download_2">
</g>
<g id="Upload_2">
</g>
<g id="User_Statistics_2">
</g>
<g id="User_Defense_2">
</g>
<g id="Car_2">
</g>
<g id="Home_2">
</g>
<g id="Park_2">
</g>
<g id="Recicle_User_2">
</g>
<g id="User_Wifi">
</g>
<g id="Attach_2">
</g>
<g id="Disabled_User_2">
</g>
<g id="User_Card_2">
</g>
<g id="Gaming_2">
</g>
<g id="Cloud_2">
</g>
<g id="Database_2">
</g>
<g id="Copyright_2">
</g>
<g id="No_Copyright_2">
</g>
<g id="Creative_Commun_2">
</g>
<g id="Eco-Friendly_2">
</g>
<g id="Percentage_2">
</g>
<g id="User_Love_2">
</g>
<g id="User_Rate_2">
</g>
<g id="User_Key_2">
</g>
<g id="Sleeping_2">
</g>
</svg>
