<?xml version="1.0" encoding="iso-8859-1"?>
<!-- Generator: Adobe Illustrator 19.2.1, SVG Export Plug-In . SVG Version: 6.00 Build 0)  -->
<svg version="1.1" xmlns="http://www.w3.org/2000/svg" xmlns:xlink="http://www.w3.org/1999/xlink" x="0px" y="0px"
	 viewBox="0 0 24 24" style="enable-background:new 0 0 24 24;" xml:space="preserve">
<g id="Add_User">
</g>
<g id="Remove_User">
</g>
<g id="Delete_User">
</g>
<g id="Done">
</g>
<g id="At_Symbol">
</g>
<g id="Question">
</g>
<g id="Answer">
</g>
<g id="Bring_Up">
</g>
<g id="Bring_Down">
</g>
<g id="Dismiss_User">
</g>
<g id="User_Speed">
</g>
<g id="User_Settings">
</g>
<g id="User_Refresh">
</g>
<g id="User_Time">
</g>
<g id="Dollar">
</g>
<g id="Euro">
</g>
<g id="Pound">
</g>
<g id="Bitcoin">
</g>
<g id="Global_User">
</g>
<g id="Waiting_User">
</g>
<g id="Writing_User_2">
</g>
<g id="Search_User">
</g>
<g id="Lock_User">
</g>
<g id="Mark_User">
</g>
<g id="Share_User">
</g>
<g id="Shopping">
</g>
<g id="User_Download">
</g>
<g id="User_Upload">
</g>
<g id="User_Statistics">
</g>
<g id="User_Defense">
</g>
<g id="User_Car">
</g>
<g id="User_Home">
</g>
<g id="Park">
</g>
<g id="Recicle_User">
</g>
<g id="Wifi">
</g>
<g id="Attach_User">
</g>
<g id="Disabled_User">
</g>
<g id="User_Card">
</g>
<g id="Gaming">
</g>
<g id="User_Cloud">
</g>
<g id="User_Database">
</g>
<g id="Copyright">
</g>
<g id="No_Copyright">
</g>
<g id="Creative_Commun">
</g>
<g id="Eco-Friendly">
</g>
<g id="Percentage">
</g>
<g id="User_Love">
</g>
<g id="User_Place">
</g>
<g id="User_Key">
</g>
<g id="Sleeping">
</g>
<g id="Add_User_2">
</g>
<g id="Remove_User_2">
</g>
<g id="Delete_User_2">
</g>
<g id="Done_2">
</g>
<g id="At_Symbol_2">
</g>
<g id="Question_2">
</g>
<g id="Answer_2">
</g>
<g id="Bring_Up_2">
</g>
<g id="Bring_Down_2">
</g>
<g id="Dismiss_User_2">
</g>
<g id="User_Speed_2">
</g>
<g id="User_Settings_2">
</g>
<g id="Refresh_2">
</g>
<g id="Time_2">
</g>
<g id="Dollar_2">
</g>
<g id="Euro_2">
</g>
<g id="Pound_2">
</g>
<g id="Bitcoin_2">
</g>
<g id="Global_User_2">
</g>
<g id="Waiting_User_2">
</g>
<g id="Writing_User">
</g>
<g id="Search_User_2">
</g>
<g id="Lock_User_2">
</g>
<g id="Mark_User_2">
</g>
<g id="Share_User_2">
	<g>
		<g>
			<g>
				<path d="M13.5,20c-1.103,0-2-0.897-2-2s0.897-2,2-2s2,0.897,2,2S14.603,20,13.5,20z M13.5,17c-0.551,0-1,0.448-1,1s0.449,1,1,1
					s1-0.448,1-1S14.051,17,13.5,17z"/>
			</g>
			<g>
				<path d="M21.5,16c-1.103,0-2-0.897-2-2s0.897-2,2-2s2,0.897,2,2S22.603,16,21.5,16z M21.5,13c-0.551,0-1,0.448-1,1s0.449,1,1,1
					s1-0.448,1-1S22.051,13,21.5,13z"/>
			</g>
			<g>
				<path d="M21.5,24c-1.103,0-2-0.897-2-2s0.897-2,2-2s2,0.897,2,2S22.603,24,21.5,24z M21.5,21c-0.551,0-1,0.448-1,1s0.449,1,1,1
					s1-0.448,1-1S22.051,21,21.5,21z"/>
			</g>
			<g>
				<path d="M15,17.5c-0.184,0-0.36-0.102-0.448-0.276c-0.124-0.247-0.023-0.547,0.224-0.671l5-2.5
					c0.247-0.124,0.547-0.022,0.671,0.224c0.124,0.247,0.023,0.547-0.224,0.671l-5,2.5C15.151,17.483,15.075,17.5,15,17.5z"/>
			</g>
			<g>
				<g>
					<path d="M18.356,24H1c-0.276,0-0.5-0.224-0.5-0.5v-2.402c0-0.041,0.005-0.082,0.015-0.121c0.261-1.044,0.67-2.065,1.889-2.472
						l4.438-1.479c1.043-0.436,1.531-2.162,1.636-2.817C7.713,13.506,7,12.449,7,11.5c0-0.354-0.105-0.5-0.161-0.527
						c-0.156-0.039-0.244-0.138-0.304-0.287C6.481,10.549,6,9.322,6,8.5c0-0.041,0.005-0.082,0.015-0.121
						C6.07,8.159,6.223,7.839,6.5,7.651V5c0-2.088,1.902-5,5-5c3.06,0,3.892,1.569,3.99,2.345C16.008,2.729,16.5,3.389,16.5,5v2.651
						c0.277,0.188,0.43,0.508,0.485,0.728C16.996,8.418,17,8.459,17,8.5c0,0.822-0.481,2.049-0.536,2.186
						c-0.06,0.149-0.188,0.261-0.343,0.3C16.105,11,16,11.146,16,11.5c0,0.949-0.711,2.004-1.476,2.706
						c0.011,0.067,0.026,0.151,0.048,0.253c0.058,0.271-0.114,0.536-0.384,0.594c-0.27,0.051-0.536-0.115-0.593-0.385
						C13.56,14.502,13.5,14.195,13.5,14c0-0.149,0.066-0.29,0.182-0.386C14.337,13.073,15,12.173,15,11.5
						c0-0.747,0.309-1.161,0.601-1.357c0.144-0.392,0.373-1.104,0.397-1.567c-0.017-0.039-0.041-0.08-0.057-0.094
						C15.666,8.481,15.5,8.276,15.5,8V5c0-1.472-0.473-1.771-0.675-1.9c-0.122-0.077-0.325-0.206-0.355-0.48
						c-0.006-0.06,0.002-0.127,0.022-0.195C14.422,2.027,13.822,1,11.5,1c-2.442,0-4,2.369-4,4v3c0,0.276-0.224,0.5-0.5,0.5
						c0.024,0,0.015,0.034,0.002,0.072c0.023,0.466,0.253,1.179,0.397,1.57C7.691,10.338,8,10.753,8,11.5
						c0,0.673,0.663,1.573,1.318,2.114C9.434,13.71,9.5,13.851,9.5,14c0,0.635-0.577,3.24-2.308,3.962l-4.472,1.492
						C2.012,19.69,1.731,20.259,1.5,21.16V23h16.855c0.276,0,0.5,0.224,0.5,0.5S18.632,24,18.356,24z"/>
				</g>
			</g>
			<g>
				<path d="M19.999,22c-0.075,0-0.151-0.017-0.223-0.053l-5-2.5c-0.247-0.124-0.347-0.424-0.224-0.671
					c0.124-0.246,0.424-0.348,0.671-0.224l5,2.5c0.247,0.124,0.347,0.424,0.224,0.671C20.359,21.898,20.183,22,19.999,22z"/>
			</g>
		</g>
	</g>
</g>
<g id="Shopping_2">
</g>
<g id="Download_2">
</g>
<g id="Upload_2">
</g>
<g id="User_Statistics_2">
</g>
<g id="User_Defense_2">
</g>
<g id="Car_2">
</g>
<g id="Home_2">
</g>
<g id="Park_2">
</g>
<g id="Recicle_User_2">
</g>
<g id="User_Wifi">
</g>
<g id="Attach_2">
</g>
<g id="Disabled_User_2">
</g>
<g id="User_Card_2">
</g>
<g id="Gaming_2">
</g>
<g id="Cloud_2">
</g>
<g id="Database_2">
</g>
<g id="Copyright_2">
</g>
<g id="No_Copyright_2">
</g>
<g id="Creative_Commun_2">
</g>
<g id="Eco-Friendly_2">
</g>
<g id="Percentage_2">
</g>
<g id="User_Love_2">
</g>
<g id="User_Rate_2">
</g>
<g id="User_Key_2">
</g>
<g id="Sleeping_2">
</g>
</svg>
