<?xml version="1.0" encoding="iso-8859-1"?>
<!-- Generator: Adobe Illustrator 19.2.1, SVG Export Plug-In . SVG Version: 6.00 Build 0)  -->
<svg version="1.1" xmlns="http://www.w3.org/2000/svg" xmlns:xlink="http://www.w3.org/1999/xlink" x="0px" y="0px"
	 viewBox="0 0 24 24" style="enable-background:new 0 0 24 24;" xml:space="preserve">
<g id="Add_Users">
</g>
<g id="Remove_Users">
</g>
<g id="Delete_Users">
</g>
<g id="Done_3">
</g>
<g id="At_Symbol_3">
</g>
<g id="Question_3">
</g>
<g id="Answer_3">
</g>
<g id="Bring_Up_3">
</g>
<g id="Bring_Down_3">
</g>
<g id="Dismiss_Users">
</g>
<g id="Users_Speed_3">
</g>
<g id="Users_Settings">
</g>
<g id="Refresh_Users">
</g>
<g id="Time_3">
</g>
<g id="Dollar_3">
</g>
<g id="Euro_3">
</g>
<g id="Pound_3">
</g>
<g id="Bitcoin_3">
</g>
<g id="Global_Users">
</g>
<g id="Waiting_Users">
</g>
<g id="Writing_Users">
</g>
<g id="Search_Users">
</g>
<g id="Lock_Users">
</g>
<g id="Mark_Users">
</g>
<g id="Share_Users">
	<g>
		<g>
			<g>
				<g>
					<path d="M13.5,20c-1.103,0-2-0.897-2-2s0.897-2,2-2s2,0.897,2,2S14.603,20,13.5,20z M13.5,17c-0.551,0-1,0.448-1,1s0.449,1,1,1
						s1-0.448,1-1S14.051,17,13.5,17z"/>
				</g>
				<g>
					<path d="M21.5,16c-1.103,0-2-0.897-2-2c0-1.103,0.897-2,2-2s2,0.897,2,2C23.5,15.103,22.603,16,21.5,16z M21.5,13
						c-0.551,0-1,0.448-1,1s0.449,1,1,1s1-0.448,1-1S22.051,13,21.5,13z"/>
				</g>
				<g>
					<path d="M21.5,24c-1.103,0-2-0.897-2-2s0.897-2,2-2s2,0.897,2,2S22.603,24,21.5,24z M21.5,21c-0.551,0-1,0.448-1,1s0.449,1,1,1
						s1-0.448,1-1S22.051,21,21.5,21z"/>
				</g>
				<g>
					<path d="M15,17.5c-0.184,0-0.36-0.102-0.448-0.276c-0.124-0.247-0.023-0.547,0.224-0.671l5-2.5
						c0.247-0.125,0.547-0.022,0.671,0.224c0.124,0.247,0.023,0.547-0.224,0.671l-5,2.5C15.151,17.483,15.075,17.5,15,17.5z"/>
				</g>
				<g>
					<path d="M19.999,22c-0.075,0-0.151-0.017-0.223-0.053l-5-2.5c-0.247-0.124-0.347-0.424-0.224-0.671
						c0.124-0.246,0.424-0.349,0.671-0.224l5,2.5c0.247,0.124,0.347,0.424,0.224,0.671C20.359,21.898,20.183,22,19.999,22z"/>
				</g>
			</g>
		</g>
		<g>
			<g>
				<path d="M17.801,12.11c-0.133,0-0.267-0.053-0.365-0.158c-0.188-0.202-0.178-0.518,0.023-0.707
					c0.73-0.683,1.211-1.675,1.289-2.654c0.021-0.26,0.238-0.46,0.499-0.46c0.061,0,0.093-0.009,0.135-0.029
					c0.036-0.017,0.125-0.069,0.139-0.18l0.185-1.479c0.011-0.092-0.031-0.155-0.057-0.185c-0.026-0.03-0.084-0.081-0.178-0.082
					c-0.136-0.001-0.266-0.058-0.358-0.157c-0.093-0.099-0.142-0.231-0.136-0.367l0.09-1.85c0.006-0.124,0.058-0.241,0.146-0.329
					l0.37-0.37c0.208-0.222,0.374-0.551-0.065-1.22C19.134,1.297,18.437,1,17.445,1c-0.419,0-0.973,0.025-1.544,0.218
					c-0.262,0.09-0.544-0.051-0.634-0.313c-0.088-0.261,0.052-0.545,0.313-0.634C16.29,0.031,16.949,0,17.445,0
					c1.351,0,2.329,0.449,2.909,1.335c0.768,1.172,0.394,1.987-0.054,2.464l-0.244,0.244l-0.061,1.25
					c0.154,0.072,0.292,0.176,0.407,0.307c0.231,0.265,0.339,0.617,0.295,0.967l-0.185,1.478c-0.052,0.421-0.318,0.781-0.71,0.964
					c-0.035,0.016-0.069,0.031-0.103,0.043c-0.179,1.092-0.744,2.163-1.556,2.923C18.046,12.065,17.923,12.11,17.801,12.11z"/>
			</g>
		</g>
		<g>
			<path d="M1,17.998c-0.276,0-0.5-0.224-0.5-0.5c0-1.97,1.334-3.679,3.246-4.156l2.755-0.688l0.221-0.884
				c-0.685-0.73-1.163-1.694-1.33-2.683c-0.473-0.129-0.84-0.534-0.903-1.042L4.304,6.567C4.26,6.214,4.37,5.859,4.605,5.593
				C4.73,5.45,4.886,5.34,5.058,5.269C5.005,4.81,4.936,4.144,4.936,3.826c0-1.398,0.421-3.003,3.667-3.084
				C9.729,0,10.923,0,11.445,0c1.351,0,2.329,0.449,2.909,1.335c0.768,1.172,0.394,1.987-0.054,2.464l-0.244,0.244l-0.061,1.25
				c0.154,0.072,0.292,0.176,0.407,0.307c0.231,0.265,0.339,0.617,0.295,0.967l-0.185,1.478c-0.059,0.475-0.384,0.86-0.814,1.014
				c-0.168,1.032-0.672,2.033-1.403,2.778l0.204,0.816l1.668,0.417c0.268,0.067,0.431,0.339,0.364,0.606
				c-0.067,0.268-0.341,0.428-0.606,0.364l-1.959-0.489c-0.179-0.045-0.319-0.185-0.364-0.364l-0.347-1.389
				c-0.045-0.18,0.013-0.37,0.151-0.494c0.76-0.681,1.261-1.695,1.341-2.712c0.021-0.26,0.238-0.461,0.499-0.461
				c0.157,0,0.259-0.09,0.273-0.209l0.185-1.479c0.011-0.092-0.031-0.155-0.057-0.185c-0.026-0.03-0.084-0.081-0.178-0.082
				c-0.136-0.001-0.266-0.058-0.358-0.157c-0.093-0.099-0.142-0.231-0.136-0.367l0.09-1.85c0.006-0.124,0.058-0.241,0.146-0.329
				l0.37-0.37c0.208-0.222,0.374-0.551-0.065-1.22C13.134,1.297,12.437,1,11.445,1c-0.737,0-1.597,0.077-2.392,0.646
				c-0.083,0.06-0.184,0.092-0.286,0.093C5.936,1.767,5.936,2.909,5.936,3.826c0,0.354,0.123,1.409,0.17,1.785
				C6.124,5.754,6.08,5.897,5.985,6.004C5.89,6.112,5.753,6.174,5.61,6.174c-0.17,0-0.229,0.051-0.255,0.081
				c-0.027,0.03-0.07,0.095-0.058,0.188l0.185,1.478C5.496,8.04,5.598,8.13,5.718,8.13h0.12c0.261,0,0.478,0.2,0.499,0.46
				c0.079,0.987,0.558,1.981,1.281,2.66c0.132,0.124,0.187,0.31,0.143,0.486l-0.362,1.45c-0.044,0.18-0.185,0.319-0.364,0.364
				l-3.046,0.762C2.523,14.679,1.5,15.988,1.5,17.498C1.5,17.774,1.277,17.998,1,17.998z"/>
		</g>
	</g>
</g>
<g id="Shopping_3">
</g>
<g id="Download_3">
</g>
<g id="Upload_3">
</g>
<g id="Users_Statistics">
</g>
<g id="Users_Defense">
</g>
<g id="Car_3">
</g>
<g id="Home_3">
</g>
<g id="Park_3">
</g>
<g id="Recicle_Users">
</g>
<g id="Wifi_3">
</g>
<g id="Attach_3">
</g>
<g id="Disabled_Users">
</g>
<g id="Users_Card">
</g>
<g id="Gaming_3">
</g>
<g id="Cloud_3">
</g>
<g id="Database_3">
</g>
<g id="Copyright_3">
</g>
<g id="No_Copzright_3">
</g>
<g id="Creative_Commun_3">
</g>
<g id="Eco-Friendly_3">
</g>
<g id="Percentage_3">
</g>
<g id="Users_Love">
</g>
<g id="Users_Place">
</g>
<g id="Users_Key">
</g>
<g id="Sleeping_3">
</g>
</svg>
