<?xml version="1.0" encoding="iso-8859-1"?>
<!-- Generator: Adobe Illustrator 19.2.1, SVG Export Plug-In . SVG Version: 6.00 Build 0)  -->
<svg version="1.1" xmlns="http://www.w3.org/2000/svg" xmlns:xlink="http://www.w3.org/1999/xlink" x="0px" y="0px"
	 viewBox="0 0 24 24" style="enable-background:new 0 0 24 24;" xml:space="preserve">
<g id="Add_User">
</g>
<g id="Remove_User">
</g>
<g id="Delete_User">
</g>
<g id="Done">
</g>
<g id="At_Symbol">
</g>
<g id="Question">
</g>
<g id="Answer">
</g>
<g id="Bring_Up">
</g>
<g id="Bring_Down">
</g>
<g id="Dismiss_User">
</g>
<g id="User_Speed">
</g>
<g id="User_Settings">
</g>
<g id="User_Refresh">
</g>
<g id="User_Time">
</g>
<g id="Dollar">
</g>
<g id="Euro">
</g>
<g id="Pound">
</g>
<g id="Bitcoin">
</g>
<g id="Global_User">
</g>
<g id="Waiting_User">
</g>
<g id="Writing_User_2">
</g>
<g id="Search_User">
</g>
<g id="Lock_User">
</g>
<g id="Mark_User">
</g>
<g id="Share_User">
</g>
<g id="Shopping">
	<g>
		<g>
			<path d="M0.5,24c-0.133,0-0.26-0.053-0.354-0.146S0,23.633,0,23.5c0-3.123,1.065-4.907,3.258-5.455l3.83-0.958l0.348-1.393
				c-0.966-0.998-1.631-2.348-1.839-3.722c-0.625-0.122-1.121-0.634-1.202-1.287l-0.25-2c-0.053-0.427,0.08-0.857,0.364-1.179
				C4.69,7.301,4.924,7.151,5.181,7.07C5.109,6.46,5,5.449,5,5c0-1.93,0.579-3.909,4.84-3.998C11.333,0,12.936,0,13.631,0
				c1.764,0,3.038,0.581,3.787,1.726c0.977,1.49,0.51,2.517-0.054,3.117L16.99,5.217L16.898,7.1c0.229,0.087,0.436,0.229,0.6,0.417
				c0.28,0.321,0.41,0.747,0.357,1.169l-0.25,2c-0.075,0.602-0.503,1.084-1.06,1.251c-0.013,0.258-0.029,0.544-0.044,0.641
				c-0.043,0.272-0.29,0.456-0.57,0.415c-0.272-0.042-0.459-0.298-0.418-0.57c0.015-0.095,0.026-0.388,0.038-0.623
				c0.007-0.151,0.014-0.282,0.019-0.34C15.591,11.2,15.808,11,16.068,11c0.301,0,0.514-0.188,0.545-0.438l0.25-2
				c0.018-0.142-0.024-0.28-0.118-0.388c-0.096-0.109-0.228-0.17-0.373-0.172c-0.136-0.001-0.265-0.059-0.358-0.157
				c-0.093-0.099-0.142-0.231-0.135-0.367l0.122-2.502c0.006-0.124,0.058-0.241,0.146-0.329l0.5-0.5
				c0.313-0.333,0.6-0.858-0.064-1.873C16.028,1.429,15.035,1,13.631,1c-1.024,0-2.223,0.108-3.34,0.907
				C10.207,1.966,10.107,1.999,10.005,2C6.307,2.037,6,3.44,6,5c0,0.489,0.168,1.925,0.232,2.438C6.25,7.58,6.206,7.723,6.111,7.831
				C6.017,7.938,5.88,8,5.736,8H5.633C5.487,8,5.354,8.06,5.259,8.169c-0.097,0.109-0.14,0.249-0.122,0.394l0.25,2
				C5.418,10.812,5.631,11,5.883,11h0.162c0.261,0,0.478,0.2,0.498,0.46c0.11,1.378,0.779,2.767,1.789,3.714
				c0.133,0.124,0.188,0.31,0.144,0.486l-0.49,1.961C7.94,17.8,7.801,17.94,7.621,17.985L3.5,19.015
				C1.905,19.414,1.107,20.685,1.01,23l12.594-0.001c0.276,0,0.5,0.224,0.5,0.5c0,0.276-0.224,0.5-0.5,0.5L0.5,24z"/>
		</g>
		<g>
			<g>
				<path d="M14.5,22c-0.225,0-0.429-0.151-0.485-0.379L12.109,14H10.5c-0.276,0-0.5-0.224-0.5-0.5s0.224-0.5,0.5-0.5h2
					c0.229,0,0.43,0.156,0.485,0.379l2,8c0.066,0.268-0.096,0.539-0.364,0.606C14.581,21.995,14.54,22,14.5,22z"/>
			</g>
			<g>
				<path d="M13.999,20c-0.25,0-0.466-0.187-0.495-0.441c-0.033-0.274,0.163-0.523,0.438-0.555l8.157-0.959L22.859,15H13
					c-0.276,0-0.5-0.224-0.5-0.5S12.724,14,13,14h10.5c0.154,0,0.3,0.071,0.395,0.192c0.095,0.121,0.128,0.279,0.091,0.429l-1,4
					c-0.051,0.202-0.221,0.351-0.427,0.375l-8.5,1C14.039,19.999,14.019,20,13.999,20z"/>
			</g>
			<g>
				<path d="M16.5,24c-0.827,0-1.5-0.673-1.5-1.5s0.673-1.5,1.5-1.5s1.5,0.673,1.5,1.5S17.327,24,16.5,24z M16.5,22
					c-0.275,0-0.5,0.224-0.5,0.5s0.225,0.5,0.5,0.5s0.5-0.224,0.5-0.5S16.775,22,16.5,22z"/>
			</g>
			<g>
				<path d="M20.5,24c-0.827,0-1.5-0.673-1.5-1.5s0.673-1.5,1.5-1.5s1.5,0.673,1.5,1.5S21.327,24,20.5,24z M20.5,22
					c-0.275,0-0.5,0.224-0.5,0.5s0.225,0.5,0.5,0.5s0.5-0.224,0.5-0.5S20.775,22,20.5,22z"/>
			</g>
		</g>
	</g>
</g>
<g id="User_Download">
</g>
<g id="User_Upload">
</g>
<g id="User_Statistics">
</g>
<g id="User_Defense">
</g>
<g id="User_Car">
</g>
<g id="User_Home">
</g>
<g id="Park">
</g>
<g id="Recicle_User">
</g>
<g id="Wifi">
</g>
<g id="Attach_User">
</g>
<g id="Disabled_User">
</g>
<g id="User_Card">
</g>
<g id="Gaming">
</g>
<g id="User_Cloud">
</g>
<g id="User_Database">
</g>
<g id="Copyright">
</g>
<g id="No_Copyright">
</g>
<g id="Creative_Commun">
</g>
<g id="Eco-Friendly">
</g>
<g id="Percentage">
</g>
<g id="User_Love">
</g>
<g id="User_Place">
</g>
<g id="User_Key">
</g>
<g id="Sleeping">
</g>
<g id="Add_User_2">
</g>
<g id="Remove_User_2">
</g>
<g id="Delete_User_2">
</g>
<g id="Done_2">
</g>
<g id="At_Symbol_2">
</g>
<g id="Question_2">
</g>
<g id="Answer_2">
</g>
<g id="Bring_Up_2">
</g>
<g id="Bring_Down_2">
</g>
<g id="Dismiss_User_2">
</g>
<g id="User_Speed_2">
</g>
<g id="User_Settings_2">
</g>
<g id="Refresh_2">
</g>
<g id="Time_2">
</g>
<g id="Dollar_2">
</g>
<g id="Euro_2">
</g>
<g id="Pound_2">
</g>
<g id="Bitcoin_2">
</g>
<g id="Global_User_2">
</g>
<g id="Waiting_User_2">
</g>
<g id="Writing_User">
</g>
<g id="Search_User_2">
</g>
<g id="Lock_User_2">
</g>
<g id="Mark_User_2">
</g>
<g id="Share_User_2">
</g>
<g id="Shopping_2">
</g>
<g id="Download_2">
</g>
<g id="Upload_2">
</g>
<g id="User_Statistics_2">
</g>
<g id="User_Defense_2">
</g>
<g id="Car_2">
</g>
<g id="Home_2">
</g>
<g id="Park_2">
</g>
<g id="Recicle_User_2">
</g>
<g id="User_Wifi">
</g>
<g id="Attach_2">
</g>
<g id="Disabled_User_2">
</g>
<g id="User_Card_2">
</g>
<g id="Gaming_2">
</g>
<g id="Cloud_2">
</g>
<g id="Database_2">
</g>
<g id="Copyright_2">
</g>
<g id="No_Copyright_2">
</g>
<g id="Creative_Commun_2">
</g>
<g id="Eco-Friendly_2">
</g>
<g id="Percentage_2">
</g>
<g id="User_Love_2">
</g>
<g id="User_Rate_2">
</g>
<g id="User_Key_2">
</g>
<g id="Sleeping_2">
</g>
</svg>
