<?xml version="1.0" encoding="iso-8859-1"?>
<!-- Generator: Adobe Illustrator 19.2.1, SVG Export Plug-In . SVG Version: 6.00 Build 0)  -->
<svg version="1.1" xmlns="http://www.w3.org/2000/svg" xmlns:xlink="http://www.w3.org/1999/xlink" x="0px" y="0px"
	 viewBox="0 0 24 24" style="enable-background:new 0 0 24 24;" xml:space="preserve">
<g id="Add_Users">
</g>
<g id="Remove_Users">
</g>
<g id="Delete_Users">
</g>
<g id="Done_3">
</g>
<g id="At_Symbol_3">
</g>
<g id="Question_3">
</g>
<g id="Answer_3">
</g>
<g id="Bring_Up_3">
</g>
<g id="Bring_Down_3">
</g>
<g id="Dismiss_Users">
</g>
<g id="Users_Speed_3">
</g>
<g id="Users_Settings">
</g>
<g id="Refresh_Users">
</g>
<g id="Time_3">
</g>
<g id="Dollar_3">
</g>
<g id="Euro_3">
</g>
<g id="Pound_3">
</g>
<g id="Bitcoin_3">
</g>
<g id="Global_Users">
</g>
<g id="Waiting_Users">
</g>
<g id="Writing_Users">
</g>
<g id="Search_Users">
</g>
<g id="Lock_Users">
</g>
<g id="Mark_Users">
</g>
<g id="Share_Users">
</g>
<g id="Shopping_3">
	<g>
		<g>
			<g>
				<path d="M14.5,22c-0.225,0-0.429-0.151-0.485-0.379L12.109,14H10.5c-0.276,0-0.5-0.224-0.5-0.5s0.224-0.5,0.5-0.5h2
					c0.229,0,0.43,0.156,0.485,0.379l2,8c0.066,0.268-0.096,0.539-0.364,0.606C14.581,21.995,14.54,22,14.5,22z"/>
			</g>
			<g>
				<path d="M13.999,20c-0.25,0-0.466-0.188-0.495-0.441c-0.033-0.274,0.163-0.522,0.438-0.555l8.157-0.96L22.859,15H13
					c-0.276,0-0.5-0.224-0.5-0.5S12.724,14,13,14h10.5c0.154,0,0.3,0.071,0.395,0.192s0.128,0.279,0.091,0.429l-1,4
					c-0.051,0.202-0.221,0.352-0.427,0.375l-8.5,1C14.039,19.999,14.019,20,13.999,20z"/>
			</g>
			<g>
				<path d="M16.5,24c-0.827,0-1.5-0.673-1.5-1.5s0.673-1.5,1.5-1.5s1.5,0.673,1.5,1.5S17.327,24,16.5,24z M16.5,22
					c-0.275,0-0.5,0.225-0.5,0.5s0.225,0.5,0.5,0.5s0.5-0.225,0.5-0.5S16.775,22,16.5,22z"/>
			</g>
			<g>
				<path d="M20.5,24c-0.827,0-1.5-0.673-1.5-1.5s0.673-1.5,1.5-1.5s1.5,0.673,1.5,1.5S21.327,24,20.5,24z M20.5,22
					c-0.275,0-0.5,0.225-0.5,0.5s0.225,0.5,0.5,0.5s0.5-0.225,0.5-0.5S20.775,22,20.5,22z"/>
			</g>
		</g>
		<g>
			<g>
				<path d="M17.301,12.11c-0.134,0-0.267-0.053-0.365-0.158c-0.188-0.202-0.178-0.518,0.023-0.707
					c0.729-0.684,1.211-1.676,1.289-2.654c0.021-0.26,0.237-0.46,0.498-0.46c0.061,0,0.093-0.009,0.134-0.028
					c0.077-0.036,0.13-0.104,0.14-0.181l0.185-1.479c0.012-0.092-0.03-0.156-0.057-0.186c-0.026-0.03-0.084-0.081-0.178-0.082
					c-0.136-0.001-0.265-0.058-0.358-0.157c-0.093-0.099-0.142-0.231-0.135-0.367l0.09-1.85c0.006-0.124,0.058-0.241,0.146-0.329
					l0.369-0.37c0.209-0.222,0.374-0.551-0.064-1.22C18.633,1.297,17.937,1,16.944,1c-0.419,0-0.973,0.025-1.545,0.218
					c-0.261,0.09-0.546-0.052-0.634-0.313c-0.089-0.262,0.052-0.545,0.313-0.634C15.789,0.031,16.449,0,16.944,0
					c1.351,0,2.329,0.449,2.909,1.335c0.768,1.171,0.395,1.986-0.055,2.464l-0.243,0.244l-0.061,1.25
					C19.648,5.366,19.787,5.469,19.9,5.6c0.231,0.265,0.34,0.618,0.296,0.967l-0.185,1.478c-0.052,0.421-0.318,0.781-0.711,0.964
					c-0.034,0.016-0.068,0.031-0.103,0.043c-0.179,1.092-0.744,2.162-1.556,2.922C17.546,12.065,17.424,12.11,17.301,12.11z"/>
			</g>
		</g>
		<g>
			<path d="M0.5,17.998c-0.276,0-0.5-0.224-0.5-0.5c0-1.97,1.334-3.679,3.245-4.156l2.756-0.688l0.221-0.884
				c-0.686-0.73-1.163-1.695-1.33-2.683C4.418,8.957,4.051,8.552,3.988,8.044L3.804,6.567c-0.045-0.352,0.064-0.707,0.3-0.974
				C4.229,5.451,4.385,5.34,4.557,5.269C4.504,4.81,4.435,4.144,4.435,3.826c0-1.398,0.421-3.003,3.667-3.084
				C9.228,0,10.423,0,10.944,0c1.351,0,2.329,0.449,2.909,1.335c0.768,1.171,0.395,1.986-0.055,2.464l-0.243,0.244l-0.061,1.25
				C13.648,5.366,13.787,5.469,13.9,5.6c0.231,0.265,0.34,0.618,0.296,0.967l-0.185,1.478c-0.059,0.475-0.384,0.86-0.814,1.014
				c-0.184,1.133-0.774,2.229-1.623,2.99c-0.206,0.184-0.521,0.167-0.706-0.038c-0.185-0.206-0.167-0.522,0.038-0.706
				c0.76-0.681,1.261-1.695,1.342-2.713c0.021-0.26,0.237-0.461,0.498-0.461c0.156,0,0.259-0.09,0.273-0.209l0.185-1.479
				c0.012-0.092-0.03-0.156-0.057-0.186c-0.026-0.03-0.084-0.081-0.178-0.082c-0.136-0.001-0.265-0.058-0.358-0.157
				c-0.093-0.099-0.142-0.231-0.135-0.367l0.09-1.85c0.006-0.124,0.058-0.241,0.146-0.329l0.369-0.37
				c0.209-0.222,0.374-0.551-0.064-1.22C12.633,1.297,11.937,1,10.944,1c-0.737,0-1.598,0.077-2.393,0.646
				c-0.084,0.06-0.184,0.092-0.286,0.093C5.435,1.767,5.435,2.909,5.435,3.826c0,0.354,0.123,1.409,0.171,1.785
				c0.018,0.142-0.026,0.286-0.121,0.393C5.39,6.112,5.253,6.174,5.109,6.174c-0.171,0-0.229,0.051-0.256,0.081
				c-0.026,0.03-0.069,0.094-0.058,0.188L4.98,7.921C4.995,8.041,5.098,8.13,5.218,8.13h0.12c0.261,0,0.478,0.201,0.498,0.46
				c0.078,0.987,0.558,1.981,1.281,2.66c0.133,0.124,0.188,0.31,0.144,0.486l-0.362,1.45c-0.045,0.18-0.185,0.319-0.364,0.364
				l-3.047,0.762C2.022,14.678,1,15.988,1,17.498C1,17.774,0.776,17.998,0.5,17.998z"/>
		</g>
	</g>
</g>
<g id="Download_3">
</g>
<g id="Upload_3">
</g>
<g id="Users_Statistics">
</g>
<g id="Users_Defense">
</g>
<g id="Car_3">
</g>
<g id="Home_3">
</g>
<g id="Park_3">
</g>
<g id="Recicle_Users">
</g>
<g id="Wifi_3">
</g>
<g id="Attach_3">
</g>
<g id="Disabled_Users">
</g>
<g id="Users_Card">
</g>
<g id="Gaming_3">
</g>
<g id="Cloud_3">
</g>
<g id="Database_3">
</g>
<g id="Copyright_3">
</g>
<g id="No_Copzright_3">
</g>
<g id="Creative_Commun_3">
</g>
<g id="Eco-Friendly_3">
</g>
<g id="Percentage_3">
</g>
<g id="Users_Love">
</g>
<g id="Users_Place">
</g>
<g id="Users_Key">
</g>
<g id="Sleeping_3">
</g>
</svg>
