<?xml version="1.0" encoding="iso-8859-1"?>
<!-- Generator: Adobe Illustrator 19.2.1, SVG Export Plug-In . SVG Version: 6.00 Build 0)  -->
<svg version="1.1" xmlns="http://www.w3.org/2000/svg" xmlns:xlink="http://www.w3.org/1999/xlink" x="0px" y="0px"
	 viewBox="0 0 24 24" style="enable-background:new 0 0 24 24;" xml:space="preserve">
<g id="Add_Users">
</g>
<g id="Remove_Users">
</g>
<g id="Delete_Users">
</g>
<g id="Done_3">
</g>
<g id="At_Symbol_3">
</g>
<g id="Question_3">
</g>
<g id="Answer_3">
</g>
<g id="Bring_Up_3">
</g>
<g id="Bring_Down_3">
</g>
<g id="Dismiss_Users">
</g>
<g id="Users_Speed_3">
</g>
<g id="Users_Settings">
</g>
<g id="Refresh_Users">
</g>
<g id="Time_3">
</g>
<g id="Dollar_3">
</g>
<g id="Euro_3">
</g>
<g id="Pound_3">
</g>
<g id="Bitcoin_3">
</g>
<g id="Global_Users">
</g>
<g id="Waiting_Users">
</g>
<g id="Writing_Users">
</g>
<g id="Search_Users">
</g>
<g id="Lock_Users">
</g>
<g id="Mark_Users">
</g>
<g id="Share_Users">
</g>
<g id="Shopping_3">
</g>
<g id="Download_3">
</g>
<g id="Upload_3">
</g>
<g id="Users_Statistics">
</g>
<g id="Users_Defense">
</g>
<g id="Car_3">
</g>
<g id="Home_3">
</g>
<g id="Park_3">
</g>
<g id="Recicle_Users">
</g>
<g id="Wifi_3">
</g>
<g id="Attach_3">
</g>
<g id="Disabled_Users">
</g>
<g id="Users_Card">
</g>
<g id="Gaming_3">
</g>
<g id="Cloud_3">
</g>
<g id="Database_3">
</g>
<g id="Copyright_3">
</g>
<g id="No_Copzright_3">
</g>
<g id="Creative_Commun_3">
</g>
<g id="Eco-Friendly_3">
</g>
<g id="Percentage_3">
</g>
<g id="Users_Love">
</g>
<g id="Users_Place">
</g>
<g id="Users_Key">
</g>
<g id="Sleeping_3">
	<g>
		<g>
			<path d="M23.5,20h-2c-0.185,0-0.354-0.102-0.44-0.264c-0.088-0.163-0.078-0.36,0.024-0.514L22.565,17H21.5
				c-0.276,0-0.5-0.224-0.5-0.5s0.224-0.5,0.5-0.5h2c0.185,0,0.354,0.102,0.44,0.264c0.088,0.163,0.078,0.36-0.024,0.514L22.435,19
				H23.5c0.276,0,0.5,0.224,0.5,0.5S23.776,20,23.5,20z"/>
		</g>
		<g>
			<path d="M20.5,24h-4c-0.192,0-0.367-0.11-0.45-0.283c-0.084-0.174-0.061-0.379,0.06-0.529L19.46,19H16.5
				c-0.276,0-0.5-0.224-0.5-0.5s0.224-0.5,0.5-0.5h4c0.192,0,0.367,0.11,0.45,0.283c0.084,0.174,0.061,0.379-0.06,0.529L17.54,23
				h2.96c0.276,0,0.5,0.224,0.5,0.5S20.776,24,20.5,24z"/>
		</g>
		<g>
			<g>
				<path d="M0.5,17.998c-0.276,0-0.5-0.224-0.5-0.5c0-1.97,1.334-3.68,3.245-4.157l2.756-0.688l0.221-0.884
					c-0.686-0.73-1.163-1.695-1.33-2.683c-0.474-0.13-0.841-0.534-0.903-1.042L3.804,6.565c-0.045-0.351,0.064-0.706,0.3-0.972
					C4.229,5.45,4.385,5.341,4.557,5.269C4.504,4.81,4.435,4.144,4.435,3.825c0-1.397,0.421-3.003,3.667-3.084
					C9.228,0,10.423,0,10.944,0c1.351,0,2.329,0.449,2.908,1.335c0.769,1.172,0.395,1.986-0.054,2.464l-0.243,0.243l-0.061,1.251
					c0.153,0.072,0.293,0.177,0.406,0.308c0.231,0.265,0.339,0.617,0.295,0.966l-0.185,1.478c-0.059,0.476-0.384,0.86-0.814,1.015
					c-0.167,1.031-0.672,2.032-1.401,2.777l0.203,0.816l2.756,0.688c1.503,0.376,2.688,1.537,3.095,3.031
					c0.072,0.267-0.085,0.541-0.352,0.613c-0.269,0.073-0.541-0.085-0.613-0.352c-0.312-1.145-1.221-2.035-2.372-2.322l-3.047-0.762
					c-0.18-0.045-0.319-0.185-0.364-0.364l-0.347-1.389c-0.045-0.18,0.014-0.37,0.151-0.493c0.76-0.681,1.261-1.695,1.342-2.713
					c0.021-0.261,0.237-0.461,0.498-0.461c0.156,0,0.259-0.09,0.273-0.209l0.185-1.479c0.012-0.092-0.03-0.155-0.057-0.186
					s-0.084-0.081-0.179-0.082c-0.136-0.002-0.265-0.059-0.357-0.157c-0.093-0.1-0.142-0.231-0.135-0.367l0.09-1.85
					c0.006-0.124,0.058-0.241,0.146-0.329l0.369-0.369c0.209-0.223,0.374-0.551-0.064-1.22C12.633,1.297,11.937,1,10.944,1
					C10.46,1,9.453,1,8.552,1.645C8.468,1.705,8.368,1.737,8.266,1.738c-2.831,0.028-2.831,1.17-2.831,2.087
					c0,0.355,0.123,1.41,0.171,1.786c0.018,0.143-0.026,0.285-0.121,0.394C5.39,6.112,5.253,6.174,5.109,6.174
					c-0.171,0-0.229,0.051-0.256,0.081S4.784,6.349,4.796,6.441L4.98,7.921C4.995,8.04,5.098,8.13,5.218,8.13h0.12
					c0.261,0,0.478,0.2,0.498,0.461c0.078,0.985,0.558,1.98,1.281,2.66c0.133,0.124,0.188,0.31,0.144,0.485l-0.362,1.449
					c-0.045,0.18-0.185,0.319-0.364,0.364l-3.047,0.762C2.022,14.677,1,15.987,1,17.498C1,17.774,0.776,17.998,0.5,17.998z"/>
			</g>
		</g>
		<g>
			<path d="M22.021,14.998c-0.106,0-0.214-0.034-0.305-0.104c-0.359-0.276-0.765-0.473-1.204-0.582l-3.047-0.762
				c-0.18-0.045-0.319-0.185-0.364-0.364l-0.347-1.389c-0.045-0.18,0.014-0.37,0.151-0.493c0.76-0.681,1.261-1.695,1.342-2.713
				c0.021-0.261,0.237-0.461,0.498-0.461c0.156,0,0.259-0.09,0.273-0.209l0.185-1.479c0.012-0.092-0.03-0.155-0.057-0.186
				c-0.025-0.03-0.084-0.081-0.179-0.082c-0.136-0.002-0.265-0.059-0.357-0.157c-0.093-0.1-0.142-0.231-0.135-0.367l0.09-1.85
				c0.006-0.124,0.058-0.241,0.146-0.329l0.369-0.369c0.209-0.223,0.374-0.551-0.064-1.22C18.633,1.297,17.936,1,16.944,1
				c-0.418,0-0.972,0.024-1.545,0.219c-0.261,0.087-0.546-0.052-0.634-0.313c-0.089-0.262,0.052-0.545,0.313-0.634
				C15.79,0.031,16.449,0,16.944,0c1.351,0,2.329,0.449,2.908,1.336c0.769,1.172,0.395,1.986-0.054,2.464l-0.243,0.243l-0.061,1.251
				c0.153,0.072,0.293,0.177,0.407,0.308c0.23,0.265,0.338,0.616,0.294,0.965l-0.185,1.479c-0.059,0.476-0.384,0.86-0.814,1.015
				c-0.167,1.031-0.672,2.032-1.401,2.777l0.203,0.816l2.756,0.688c0.573,0.144,1.103,0.399,1.571,0.76
				c0.219,0.169,0.26,0.482,0.092,0.701C22.319,14.931,22.171,14.998,22.021,14.998z"/>
		</g>
	</g>
</g>
</svg>
