<?xml version="1.0" encoding="iso-8859-1"?>
<!-- Generator: Adobe Illustrator 19.2.1, SVG Export Plug-In . SVG Version: 6.00 Build 0)  -->
<svg version="1.1" xmlns="http://www.w3.org/2000/svg" xmlns:xlink="http://www.w3.org/1999/xlink" x="0px" y="0px"
	 viewBox="0 0 24 24" style="enable-background:new 0 0 24 24;" xml:space="preserve">
<g id="Add_Users">
</g>
<g id="Remove_Users">
</g>
<g id="Delete_Users">
</g>
<g id="Done_3">
</g>
<g id="At_Symbol_3">
</g>
<g id="Question_3">
</g>
<g id="Answer_3">
</g>
<g id="Bring_Up_3">
</g>
<g id="Bring_Down_3">
</g>
<g id="Dismiss_Users">
</g>
<g id="Users_Speed_3">
</g>
<g id="Users_Settings">
</g>
<g id="Refresh_Users">
</g>
<g id="Time_3">
</g>
<g id="Dollar_3">
</g>
<g id="Euro_3">
</g>
<g id="Pound_3">
</g>
<g id="Bitcoin_3">
</g>
<g id="Global_Users">
</g>
<g id="Waiting_Users">
</g>
<g id="Writing_Users">
</g>
<g id="Search_Users">
</g>
<g id="Lock_Users">
</g>
<g id="Mark_Users">
</g>
<g id="Share_Users">
</g>
<g id="Shopping_3">
</g>
<g id="Download_3">
</g>
<g id="Upload_3">
</g>
<g id="Users_Statistics">
</g>
<g id="Users_Defense">
</g>
<g id="Car_3">
</g>
<g id="Home_3">
</g>
<g id="Park_3">
</g>
<g id="Recicle_Users">
</g>
<g id="Wifi_3">
</g>
<g id="Attach_3">
</g>
<g id="Disabled_Users">
</g>
<g id="Users_Card">
</g>
<g id="Gaming_3">
</g>
<g id="Cloud_3">
</g>
<g id="Database_3">
</g>
<g id="Copyright_3">
</g>
<g id="No_Copzright_3">
</g>
<g id="Creative_Commun_3">
</g>
<g id="Eco-Friendly_3">
</g>
<g id="Percentage_3">
</g>
<g id="Users_Love">
</g>
<g id="Users_Place">
	<g>
		<g>
			<g>
				<path d="M19.997,23.998c-0.155,0-0.303-0.072-0.396-0.196c-0.369-0.48-3.604-4.761-3.604-6.804c0-2.206,1.794-4,4-4s4,1.794,4,4
					c0,2.043-3.234,6.323-3.604,6.804C20.3,23.926,20.152,23.998,19.997,23.998z M19.997,13.998c-1.654,0-3,1.346-3,3
					c0,1.273,1.9,4.151,3,5.663c1.1-1.512,3-4.391,3-5.663C22.997,15.344,21.651,13.998,19.997,13.998z"/>
			</g>
			<g>
				<path d="M19.997,18.998c-1.103,0-2-0.897-2-2s0.897-2,2-2s2,0.897,2,2S21.1,18.998,19.997,18.998z M19.997,15.998
					c-0.552,0-1,0.448-1,1s0.448,1,1,1s1-0.448,1-1S20.549,15.998,19.997,15.998z"/>
			</g>
		</g>
		<g>
			<g>
				<path d="M0.503,18.001c-0.276,0-0.5-0.224-0.5-0.5c0-1.97,1.334-3.68,3.245-4.157l2.756-0.688l0.221-0.884
					c-0.686-0.73-1.163-1.695-1.33-2.683c-0.474-0.13-0.841-0.534-0.903-1.042L3.807,6.568c-0.045-0.351,0.064-0.706,0.3-0.972
					C4.232,5.453,4.388,5.344,4.56,5.271C4.507,4.813,4.438,4.146,4.438,3.828c0-1.397,0.421-3.003,3.667-3.084
					c1.127-0.742,2.321-0.742,2.843-0.742c1.351,0,2.329,0.449,2.908,1.336c0.769,1.172,0.395,1.986-0.054,2.464l-0.243,0.243
					l-0.061,1.251c0.153,0.072,0.293,0.177,0.406,0.308c0.231,0.265,0.339,0.617,0.295,0.966l-0.185,1.478
					c-0.059,0.476-0.384,0.86-0.814,1.015c-0.168,1.031-0.672,2.032-1.402,2.777l0.204,0.816l2.756,0.688
					c0.269,0.067,0.431,0.339,0.364,0.606s-0.336,0.427-0.606,0.364l-3.047-0.762c-0.18-0.045-0.319-0.185-0.364-0.364L10.757,11.8
					c-0.045-0.18,0.014-0.37,0.151-0.493c0.761-0.681,1.262-1.695,1.343-2.713c0.021-0.261,0.237-0.461,0.498-0.461
					c0.156,0,0.259-0.09,0.273-0.209l0.185-1.479c0.012-0.092-0.03-0.155-0.057-0.186s-0.084-0.081-0.179-0.082
					c-0.136-0.002-0.265-0.059-0.357-0.157c-0.093-0.1-0.142-0.231-0.135-0.367l0.09-1.85c0.006-0.124,0.058-0.241,0.146-0.329
					l0.369-0.369c0.209-0.223,0.374-0.551-0.064-1.22c-0.384-0.587-1.081-0.884-2.072-0.884c-0.736,0-1.597,0.077-2.393,0.646
					C8.471,1.708,8.371,1.74,8.269,1.741C5.438,1.77,5.438,2.911,5.438,3.828c0,0.355,0.123,1.41,0.171,1.786
					c0.018,0.143-0.026,0.285-0.121,0.394C5.393,6.115,5.256,6.177,5.112,6.177c-0.171,0-0.229,0.051-0.256,0.081
					S4.787,6.352,4.799,6.444l0.185,1.479c0.015,0.119,0.117,0.209,0.237,0.209h0.12c0.261,0,0.478,0.2,0.498,0.461
					c0.078,0.985,0.558,1.98,1.281,2.66c0.133,0.124,0.188,0.31,0.144,0.485l-0.362,1.449c-0.045,0.18-0.185,0.319-0.364,0.364
					L3.49,14.314c-1.465,0.365-2.487,1.676-2.487,3.187C1.003,17.777,0.779,18.001,0.503,18.001z"/>
			</g>
		</g>
		<g>
			<path d="M17.242,12.179c-0.137,0-0.273-0.057-0.372-0.166c-0.185-0.206-0.167-0.522,0.038-0.706
				c0.761-0.681,1.262-1.695,1.343-2.713c0.021-0.261,0.237-0.461,0.498-0.461c0.156,0,0.259-0.09,0.273-0.209l0.185-1.479
				c0.012-0.092-0.03-0.155-0.057-0.185c-0.026-0.03-0.085-0.082-0.179-0.083c-0.136-0.002-0.265-0.059-0.357-0.157
				c-0.093-0.1-0.142-0.231-0.135-0.367l0.09-1.85c0.006-0.124,0.058-0.241,0.146-0.329l0.369-0.369
				c0.209-0.223,0.374-0.551-0.064-1.22c-0.384-0.587-1.081-0.884-2.072-0.884c-0.418,0-0.972,0.024-1.545,0.219
				c-0.262,0.087-0.545-0.052-0.634-0.313s0.052-0.545,0.313-0.634c0.711-0.24,1.37-0.271,1.865-0.271
				c1.351,0,2.329,0.449,2.908,1.336c0.769,1.172,0.395,1.986-0.054,2.464l-0.243,0.243l-0.061,1.251
				c0.153,0.073,0.293,0.177,0.406,0.308c0.231,0.266,0.339,0.617,0.295,0.966l-0.185,1.478c-0.059,0.476-0.384,0.86-0.814,1.015
				c-0.184,1.133-0.774,2.229-1.624,2.989C17.48,12.137,17.361,12.179,17.242,12.179z"/>
		</g>
	</g>
</g>
<g id="Users_Key">
</g>
<g id="Sleeping_3">
</g>
</svg>
