<?xml version="1.0" encoding="iso-8859-1"?>
<!-- Generator: Adobe Illustrator 19.2.1, SVG Export Plug-In . SVG Version: 6.00 Build 0)  -->
<svg version="1.1" xmlns="http://www.w3.org/2000/svg" xmlns:xlink="http://www.w3.org/1999/xlink" x="0px" y="0px"
	 viewBox="0 0 24 24" style="enable-background:new 0 0 24 24;" xml:space="preserve">
<g id="Add_User">
</g>
<g id="Remove_User">
</g>
<g id="Delete_User">
</g>
<g id="Done">
</g>
<g id="At_Symbol">
</g>
<g id="Question">
</g>
<g id="Answer">
</g>
<g id="Bring_Up">
</g>
<g id="Bring_Down">
</g>
<g id="Dismiss_User">
</g>
<g id="User_Speed">
</g>
<g id="User_Settings">
</g>
<g id="User_Refresh">
</g>
<g id="User_Time">
</g>
<g id="Dollar">
</g>
<g id="Euro">
</g>
<g id="Pound">
</g>
<g id="Bitcoin">
</g>
<g id="Global_User">
</g>
<g id="Waiting_User">
</g>
<g id="Writing_User_2">
</g>
<g id="Search_User">
</g>
<g id="Lock_User">
</g>
<g id="Mark_User">
</g>
<g id="Share_User">
</g>
<g id="Shopping">
</g>
<g id="User_Download">
</g>
<g id="User_Upload">
</g>
<g id="User_Statistics">
</g>
<g id="User_Defense">
</g>
<g id="User_Car">
</g>
<g id="User_Home">
</g>
<g id="Park">
</g>
<g id="Recicle_User">
</g>
<g id="Wifi">
</g>
<g id="Attach_User">
</g>
<g id="Disabled_User">
</g>
<g id="User_Card">
</g>
<g id="Gaming">
</g>
<g id="User_Cloud">
</g>
<g id="User_Database">
</g>
<g id="Copyright">
</g>
<g id="No_Copyright">
</g>
<g id="Creative_Commun">
</g>
<g id="Eco-Friendly">
</g>
<g id="Percentage">
</g>
<g id="User_Love">
</g>
<g id="User_Place">
</g>
<g id="User_Key">
</g>
<g id="Sleeping">
</g>
<g id="Add_User_2">
</g>
<g id="Remove_User_2">
</g>
<g id="Delete_User_2">
</g>
<g id="Done_2">
</g>
<g id="At_Symbol_2">
</g>
<g id="Question_2">
</g>
<g id="Answer_2">
</g>
<g id="Bring_Up_2">
</g>
<g id="Bring_Down_2">
</g>
<g id="Dismiss_User_2">
</g>
<g id="User_Speed_2">
</g>
<g id="User_Settings_2">
</g>
<g id="Refresh_2">
</g>
<g id="Time_2">
</g>
<g id="Dollar_2">
</g>
<g id="Euro_2">
</g>
<g id="Pound_2">
</g>
<g id="Bitcoin_2">
</g>
<g id="Global_User_2">
</g>
<g id="Waiting_User_2">
</g>
<g id="Writing_User">
</g>
<g id="Search_User_2">
</g>
<g id="Lock_User_2">
</g>
<g id="Mark_User_2">
</g>
<g id="Share_User_2">
</g>
<g id="Shopping_2">
</g>
<g id="Download_2">
</g>
<g id="Upload_2">
</g>
<g id="User_Statistics_2">
</g>
<g id="User_Defense_2">
</g>
<g id="Car_2">
</g>
<g id="Home_2">
</g>
<g id="Park_2">
</g>
<g id="Recicle_User_2">
</g>
<g id="User_Wifi">
	<g>
		<g>
			<path d="M20.543,21.586c-0.128,0-0.256-0.049-0.354-0.146c-0.584-0.583-1.536-0.585-2.122,0c-0.195,0.195-0.512,0.195-0.707,0
				s-0.195-0.512,0-0.707c0.975-0.974,2.561-0.976,3.536,0c0.195,0.195,0.195,0.512,0,0.707
				C20.799,21.537,20.671,21.586,20.543,21.586z"/>
		</g>
		<g>
			<path d="M21.957,20.172c-0.128,0-0.256-0.049-0.354-0.146c-1.323-1.323-3.628-1.321-4.95,0c-0.195,0.195-0.512,0.195-0.707,0
				s-0.195-0.512,0-0.707c0.85-0.851,1.98-1.318,3.182-1.318c1.202,0,2.332,0.468,3.182,1.318c0.195,0.195,0.195,0.512,0,0.707
				C22.213,20.123,22.085,20.172,21.957,20.172z"/>
		</g>
		<g>
			<path d="M23.371,18.758c-0.128,0-0.256-0.049-0.354-0.146C21.979,17.572,20.598,17,19.129,17c-1.469,0-2.851,0.572-3.889,1.611
				c-0.195,0.195-0.512,0.195-0.707,0s-0.195-0.512,0-0.707C15.76,16.677,17.393,16,19.129,16c1.736,0,3.368,0.677,4.596,1.904
				c0.195,0.195,0.195,0.512,0,0.707C23.627,18.709,23.499,18.758,23.371,18.758z"/>
		</g>
		<g>
			<g>
				<path d="M16.679,24H0.629c-0.276,0-0.5-0.224-0.5-0.5v-2.402c0-0.041,0.005-0.081,0.015-0.121
					c0.26-1.044,0.669-2.065,1.889-2.472l4.438-1.479c1.043-0.436,1.531-2.162,1.636-2.817c-0.765-0.702-1.478-1.759-1.478-2.708
					c0-0.354-0.105-0.5-0.161-0.527c-0.156-0.039-0.244-0.138-0.304-0.287C6.11,10.549,5.629,9.322,5.629,8.5
					c0-0.041,0.005-0.082,0.015-0.121c0.055-0.22,0.208-0.54,0.485-0.728V5c0-2.088,1.902-5,5-5c3.06,0,3.892,1.569,3.99,2.345
					c0.518,0.384,1.01,1.044,1.01,2.655v2.651c0.277,0.188,0.43,0.508,0.485,0.728c0.01,0.039,0.015,0.08,0.015,0.121
					c0,0.822-0.481,2.049-0.536,2.186c-0.06,0.149-0.188,0.261-0.343,0.3C15.734,11,15.629,11.146,15.629,11.5
					c0,0.949-0.712,2.006-1.477,2.707c0.057,0.353,0.225,1.046,0.575,1.696c0.131,0.243,0.041,0.547-0.203,0.678
					c-0.244,0.129-0.546,0.04-0.677-0.203c-0.508-0.941-0.718-2.014-0.718-2.378c0-0.149,0.066-0.29,0.182-0.386
					c0.655-0.541,1.318-1.441,1.318-2.114c0-0.747,0.309-1.161,0.601-1.357c0.144-0.392,0.373-1.104,0.397-1.567
					c-0.017-0.039-0.041-0.08-0.057-0.094c-0.276,0-0.441-0.205-0.441-0.481V5c0-1.472-0.473-1.771-0.675-1.9
					c-0.122-0.077-0.325-0.206-0.355-0.48c-0.006-0.06,0.002-0.127,0.022-0.195C14.05,2.027,13.45,1,11.129,1c-2.442,0-4,2.369-4,4
					v3c0,0.276-0.224,0.5-0.5,0.5c0.024,0,0.015,0.034,0.002,0.072c0.023,0.466,0.253,1.179,0.397,1.57
					c0.292,0.195,0.601,0.61,0.601,1.357c0,0.673,0.663,1.573,1.318,2.114C9.063,13.71,9.129,13.851,9.129,14
					c0,0.635-0.577,3.24-2.308,3.962l-4.472,1.492c-0.709,0.236-0.99,0.805-1.22,1.706V23h15.55c0.276,0,0.5,0.224,0.5,0.5
					S16.956,24,16.679,24z"/>
			</g>
		</g>
		<g>
			<path d="M19.129,24c-0.551,0-1-0.448-1-1s0.449-1,1-1s1,0.448,1,1S19.68,24,19.129,24z M19.129,22.999
				C19.129,23,19.129,23,19.129,22.999l0.5,0.001L19.129,22.999z"/>
		</g>
	</g>
</g>
<g id="Attach_2">
</g>
<g id="Disabled_User_2">
</g>
<g id="User_Card_2">
</g>
<g id="Gaming_2">
</g>
<g id="Cloud_2">
</g>
<g id="Database_2">
</g>
<g id="Copyright_2">
</g>
<g id="No_Copyright_2">
</g>
<g id="Creative_Commun_2">
</g>
<g id="Eco-Friendly_2">
</g>
<g id="Percentage_2">
</g>
<g id="User_Love_2">
</g>
<g id="User_Rate_2">
</g>
<g id="User_Key_2">
</g>
<g id="Sleeping_2">
</g>
</svg>
