<?xml version="1.0" encoding="iso-8859-1"?>
<!-- Generator: Adobe Illustrator 19.2.1, SVG Export Plug-In . SVG Version: 6.00 Build 0)  -->
<svg version="1.1" xmlns="http://www.w3.org/2000/svg" xmlns:xlink="http://www.w3.org/1999/xlink" x="0px" y="0px"
	 viewBox="0 0 24 24" style="enable-background:new 0 0 24 24;" xml:space="preserve">
<g id="Add_Users">
</g>
<g id="Remove_Users">
</g>
<g id="Delete_Users">
</g>
<g id="Done_3">
</g>
<g id="At_Symbol_3">
</g>
<g id="Question_3">
</g>
<g id="Answer_3">
</g>
<g id="Bring_Up_3">
</g>
<g id="Bring_Down_3">
</g>
<g id="Dismiss_Users">
</g>
<g id="Users_Speed_3">
</g>
<g id="Users_Settings">
</g>
<g id="Refresh_Users">
</g>
<g id="Time_3">
</g>
<g id="Dollar_3">
</g>
<g id="Euro_3">
</g>
<g id="Pound_3">
</g>
<g id="Bitcoin_3">
</g>
<g id="Global_Users">
</g>
<g id="Waiting_Users">
</g>
<g id="Writing_Users">
</g>
<g id="Search_Users">
</g>
<g id="Lock_Users">
</g>
<g id="Mark_Users">
</g>
<g id="Share_Users">
</g>
<g id="Shopping_3">
</g>
<g id="Download_3">
</g>
<g id="Upload_3">
</g>
<g id="Users_Statistics">
</g>
<g id="Users_Defense">
</g>
<g id="Car_3">
</g>
<g id="Home_3">
</g>
<g id="Park_3">
</g>
<g id="Recicle_Users">
</g>
<g id="Wifi_3">
</g>
<g id="Attach_3">
</g>
<g id="Disabled_Users">
</g>
<g id="Users_Card">
</g>
<g id="Gaming_3">
</g>
<g id="Cloud_3">
</g>
<g id="Database_3">
</g>
<g id="Copyright_3">
</g>
<g id="No_Copzright_3">
</g>
<g id="Creative_Commun_3">
</g>
<g id="Eco-Friendly_3">
</g>
<g id="Percentage_3">
</g>
<g id="Users_Love">
</g>
<g id="Users_Place">
</g>
<g id="Users_Key">
	<g>
		<g>
			<g>
				<path d="M16.574,23.998h-2.077c-0.276,0-0.5-0.224-0.5-0.5v-2.077c0-0.133,0.053-0.26,0.146-0.354l3.35-3.35
					c-0.022-0.155-0.034-0.305-0.034-0.451c0-1.803,1.466-3.269,3.269-3.269s3.27,1.466,3.27,3.269c0,1.95-1.681,3.53-3.72,3.235
					l-3.35,3.35C16.834,23.945,16.707,23.998,16.574,23.998z M14.997,22.998h1.37l3.39-3.391c0.121-0.122,0.297-0.174,0.466-0.134
					c0.183,0.042,0.348,0.063,0.505,0.063c1.251,0,2.27-1.019,2.27-2.27s-1.019-2.269-2.27-2.269s-2.269,1.018-2.269,2.269
					c0,0.157,0.021,0.323,0.062,0.508c0.038,0.168-0.013,0.343-0.134,0.464l-3.39,3.39V22.998z"/>
			</g>
			<g>
				<circle cx="21.497" cy="16.498" r="0.5"/>
			</g>
		</g>
		<g>
			<g>
				<path d="M0.503,18.001c-0.276,0-0.5-0.224-0.5-0.5c0-1.97,1.334-3.68,3.245-4.157l2.756-0.688l0.221-0.884
					c-0.686-0.73-1.163-1.695-1.33-2.683c-0.474-0.13-0.841-0.534-0.903-1.042L3.807,6.568c-0.045-0.351,0.064-0.706,0.3-0.972
					C4.232,5.453,4.388,5.344,4.56,5.271C4.507,4.813,4.438,4.146,4.438,3.828c0-1.397,0.421-3.003,3.667-3.084
					c1.127-0.742,2.321-0.742,2.843-0.742c1.351,0,2.329,0.449,2.908,1.336c0.769,1.172,0.395,1.986-0.054,2.464l-0.243,0.243
					l-0.061,1.251c0.153,0.072,0.293,0.177,0.406,0.308c0.231,0.265,0.339,0.617,0.295,0.966l-0.185,1.478
					c-0.059,0.476-0.384,0.86-0.814,1.015c-0.168,1.031-0.672,2.032-1.402,2.777l0.204,0.816l2.756,0.688
					c0.705,0.177,1.358,0.532,1.889,1.03c0.202,0.188,0.212,0.505,0.022,0.706c-0.188,0.204-0.507,0.212-0.706,0.022
					c-0.406-0.381-0.907-0.653-1.447-0.788l-3.047-0.762c-0.18-0.045-0.319-0.185-0.364-0.364L10.757,11.8
					c-0.045-0.18,0.014-0.37,0.151-0.493c0.761-0.681,1.262-1.695,1.343-2.713c0.021-0.261,0.237-0.461,0.498-0.461
					c0.156,0,0.259-0.09,0.273-0.209l0.185-1.479c0.012-0.092-0.03-0.155-0.057-0.186s-0.084-0.081-0.179-0.082
					c-0.136-0.002-0.265-0.059-0.357-0.157c-0.093-0.1-0.142-0.231-0.135-0.367l0.09-1.85c0.006-0.124,0.058-0.241,0.146-0.329
					l0.369-0.369c0.209-0.223,0.374-0.551-0.064-1.22c-0.384-0.587-1.081-0.884-2.072-0.884c-0.736,0-1.597,0.077-2.393,0.646
					C8.471,1.708,8.371,1.74,8.269,1.741C5.438,1.77,5.438,2.911,5.438,3.828c0,0.355,0.123,1.41,0.171,1.786
					c0.018,0.143-0.026,0.285-0.121,0.394C5.393,6.115,5.256,6.177,5.112,6.177c-0.171,0-0.229,0.051-0.256,0.081
					S4.787,6.352,4.799,6.444l0.185,1.479c0.015,0.119,0.117,0.209,0.237,0.209h0.12c0.261,0,0.478,0.2,0.498,0.461
					c0.078,0.985,0.558,1.98,1.281,2.66c0.133,0.124,0.188,0.31,0.144,0.485l-0.362,1.449c-0.045,0.18-0.185,0.319-0.364,0.364
					L3.49,14.314c-1.465,0.365-2.487,1.676-2.487,3.187C1.003,17.777,0.779,18.001,0.503,18.001z"/>
			</g>
		</g>
		<g>
			<path d="M17.59,13.567c-0.225,0-0.428-0.151-0.485-0.379L16.757,11.8c-0.045-0.18,0.014-0.37,0.151-0.493
				c0.761-0.681,1.262-1.695,1.343-2.713c0.021-0.261,0.237-0.461,0.498-0.461c0.156,0,0.259-0.09,0.273-0.209l0.185-1.479
				c0.012-0.092-0.03-0.155-0.057-0.185c-0.026-0.03-0.085-0.082-0.179-0.083c-0.136-0.002-0.265-0.059-0.357-0.157
				c-0.093-0.1-0.142-0.231-0.135-0.367l0.09-1.85c0.006-0.124,0.058-0.241,0.146-0.329l0.369-0.369
				c0.209-0.223,0.374-0.551-0.064-1.22c-0.384-0.587-1.081-0.884-2.072-0.884c-0.418,0-0.972,0.024-1.545,0.219
				c-0.261,0.087-0.546-0.052-0.634-0.313c-0.089-0.262,0.052-0.545,0.313-0.634c0.711-0.24,1.37-0.271,1.865-0.271
				c1.351,0,2.329,0.449,2.908,1.336c0.769,1.172,0.395,1.986-0.054,2.464l-0.243,0.243l-0.061,1.251
				c0.153,0.073,0.293,0.177,0.406,0.308c0.231,0.266,0.339,0.617,0.295,0.966l-0.185,1.478c-0.059,0.476-0.384,0.86-0.814,1.015
				c-0.168,1.031-0.672,2.032-1.402,2.777l0.277,1.107c0.066,0.268-0.096,0.539-0.364,0.606
				C17.671,13.563,17.63,13.567,17.59,13.567z"/>
		</g>
	</g>
</g>
<g id="Sleeping_3">
</g>
</svg>
