<?xml version="1.0" encoding="iso-8859-1"?>
<!-- Generator: Adobe Illustrator 19.2.1, SVG Export Plug-In . SVG Version: 6.00 Build 0)  -->
<svg version="1.1" xmlns="http://www.w3.org/2000/svg" xmlns:xlink="http://www.w3.org/1999/xlink" x="0px" y="0px"
	 viewBox="0 0 24 24" style="enable-background:new 0 0 24 24;" xml:space="preserve">
<g id="Add_Users">
</g>
<g id="Remove_Users">
</g>
<g id="Delete_Users">
</g>
<g id="Done_3">
</g>
<g id="At_Symbol_3">
</g>
<g id="Question_3">
</g>
<g id="Answer_3">
</g>
<g id="Bring_Up_3">
</g>
<g id="Bring_Down_3">
</g>
<g id="Dismiss_Users">
</g>
<g id="Users_Speed_3">
</g>
<g id="Users_Settings">
</g>
<g id="Refresh_Users">
</g>
<g id="Time_3">
</g>
<g id="Dollar_3">
</g>
<g id="Euro_3">
</g>
<g id="Pound_3">
</g>
<g id="Bitcoin_3">
</g>
<g id="Global_Users">
</g>
<g id="Waiting_Users">
</g>
<g id="Writing_Users">
</g>
<g id="Search_Users">
</g>
<g id="Lock_Users">
</g>
<g id="Mark_Users">
</g>
<g id="Share_Users">
</g>
<g id="Shopping_3">
</g>
<g id="Download_3">
</g>
<g id="Upload_3">
</g>
<g id="Users_Statistics">
</g>
<g id="Users_Defense">
</g>
<g id="Car_3">
</g>
<g id="Home_3">
</g>
<g id="Park_3">
</g>
<g id="Recicle_Users">
</g>
<g id="Wifi_3">
</g>
<g id="Attach_3">
</g>
<g id="Disabled_Users">
</g>
<g id="Users_Card">
	<g>
		<g>
			<path d="M22.495,24h-8c-0.827,0-1.5-0.673-1.5-1.5v-5c0-0.827,0.673-1.5,1.5-1.5h8c0.827,0,1.5,0.673,1.5,1.5v5
				C23.995,23.327,23.322,24,22.495,24z M14.495,17c-0.275,0-0.5,0.225-0.5,0.5v5c0,0.275,0.225,0.5,0.5,0.5h8
				c0.275,0,0.5-0.225,0.5-0.5v-5c0-0.275-0.225-0.5-0.5-0.5H14.495z"/>
		</g>
		<g>
			<path d="M23.495,19h-10c-0.276,0-0.5-0.224-0.5-0.5s0.224-0.5,0.5-0.5h10c0.276,0,0.5,0.224,0.5,0.5S23.771,19,23.495,19z"/>
		</g>
		<g>
			<path d="M20.995,22c-0.552,0-1-0.448-1-1s0.448-1,1-1s1,0.448,1,1S21.547,22,20.995,22z M20.995,21
				C20.995,21,20.995,21,20.995,21h0.5H20.995z"/>
		</g>
		<g>
			<path d="M19.995,22c-0.552,0-1-0.448-1-1s0.448-1,1-1s1,0.448,1,1S20.547,22,19.995,22z M19.995,21
				C19.995,21,19.995,21,19.995,21h0.5H19.995z"/>
		</g>
		<g>
			<g>
				<path d="M0.505,17.998c-0.276,0-0.5-0.224-0.5-0.5c0-1.97,1.334-3.68,3.245-4.157l2.756-0.688l0.221-0.884
					c-0.686-0.729-1.163-1.694-1.33-2.683c-0.474-0.13-0.841-0.534-0.903-1.042L3.808,6.566C3.764,6.213,3.873,5.858,4.108,5.593
					C4.234,5.45,4.39,5.34,4.562,5.269C4.509,4.811,4.439,4.144,4.439,3.825c0-1.397,0.421-3.003,3.667-3.084
					C9.232,0,10.428,0,10.949,0c1.351,0,2.329,0.449,2.908,1.335c0.769,1.172,0.395,1.986-0.054,2.464l-0.243,0.243l-0.062,1.251
					c0.154,0.072,0.293,0.177,0.407,0.308c0.231,0.266,0.339,0.617,0.295,0.966l-0.185,1.478c-0.059,0.476-0.384,0.861-0.814,1.015
					c-0.169,1.031-0.673,2.032-1.402,2.777l0.204,0.816l2.755,0.688c0.574,0.144,1.104,0.399,1.572,0.76
					c0.219,0.169,0.26,0.482,0.092,0.701c-0.169,0.22-0.482,0.259-0.701,0.092c-0.359-0.276-0.765-0.473-1.205-0.582l-3.046-0.762
					c-0.18-0.045-0.319-0.185-0.364-0.364l-0.348-1.389c-0.045-0.18,0.014-0.369,0.151-0.493c0.76-0.681,1.262-1.695,1.343-2.714
					c0.021-0.26,0.237-0.46,0.498-0.46c0.156,0,0.259-0.09,0.273-0.209l0.185-1.479c0.012-0.092-0.03-0.155-0.057-0.185
					c-0.026-0.03-0.085-0.082-0.18-0.083c-0.136-0.002-0.265-0.059-0.357-0.157c-0.093-0.1-0.142-0.231-0.135-0.367l0.091-1.85
					c0.006-0.124,0.058-0.241,0.146-0.329l0.369-0.369c0.209-0.223,0.374-0.551-0.064-1.22C12.638,1.297,11.941,1,10.949,1
					c-0.484,0-1.491,0-2.393,0.645C8.473,1.705,8.373,1.737,8.271,1.738c-2.831,0.028-2.831,1.17-2.831,2.087
					c0,0.355,0.123,1.41,0.171,1.786c0.018,0.143-0.026,0.285-0.121,0.394C5.395,6.112,5.258,6.174,5.114,6.174
					c-0.171,0-0.229,0.051-0.256,0.081C4.831,6.285,4.788,6.35,4.8,6.442L4.985,7.92C5,8.04,5.103,8.13,5.223,8.13h0.12
					c0.261,0,0.478,0.2,0.498,0.461c0.078,0.986,0.558,1.981,1.281,2.659c0.133,0.125,0.188,0.311,0.144,0.486l-0.362,1.449
					c-0.045,0.18-0.185,0.319-0.364,0.364l-3.047,0.762c-1.465,0.365-2.487,1.676-2.487,3.187
					C1.005,17.774,0.781,17.998,0.505,17.998z"/>
			</g>
		</g>
		<g>
			<path d="M22.026,14.997c-0.106,0-0.214-0.034-0.305-0.104c-0.359-0.276-0.765-0.473-1.205-0.582l-3.046-0.762
				c-0.18-0.045-0.319-0.185-0.364-0.364l-0.348-1.389c-0.045-0.18,0.014-0.369,0.151-0.493c0.76-0.681,1.262-1.695,1.343-2.714
				c0.021-0.26,0.237-0.46,0.498-0.46c0.156,0,0.259-0.09,0.273-0.209l0.185-1.479c0.012-0.092-0.03-0.155-0.057-0.185
				c-0.026-0.03-0.085-0.082-0.18-0.083c-0.136-0.002-0.265-0.059-0.357-0.157c-0.093-0.1-0.142-0.231-0.135-0.367l0.091-1.85
				c0.006-0.124,0.058-0.241,0.146-0.329l0.369-0.369c0.209-0.223,0.374-0.551-0.064-1.22C18.638,1.297,17.941,1,16.949,1
				c-0.42,0-0.975,0.024-1.545,0.218c-0.261,0.089-0.546-0.052-0.634-0.313c-0.089-0.262,0.052-0.545,0.313-0.634
				C15.793,0.03,16.453,0,16.949,0c1.351,0,2.329,0.449,2.908,1.335c0.769,1.172,0.395,1.986-0.054,2.464l-0.243,0.243l-0.062,1.251
				c0.154,0.072,0.293,0.177,0.407,0.308c0.231,0.266,0.339,0.617,0.295,0.966l-0.185,1.478c-0.059,0.476-0.384,0.861-0.814,1.015
				c-0.169,1.031-0.673,2.032-1.402,2.777l0.204,0.816l2.755,0.688c0.574,0.144,1.104,0.399,1.572,0.76
				c0.219,0.169,0.26,0.482,0.092,0.701C22.324,14.93,22.176,14.997,22.026,14.997z"/>
		</g>
	</g>
</g>
<g id="Gaming_3">
</g>
<g id="Cloud_3">
</g>
<g id="Database_3">
</g>
<g id="Copyright_3">
</g>
<g id="No_Copzright_3">
</g>
<g id="Creative_Commun_3">
</g>
<g id="Eco-Friendly_3">
</g>
<g id="Percentage_3">
</g>
<g id="Users_Love">
</g>
<g id="Users_Place">
</g>
<g id="Users_Key">
</g>
<g id="Sleeping_3">
</g>
</svg>
