<?xml version="1.0" encoding="iso-8859-1"?>
<!-- Generator: Adobe Illustrator 19.2.1, SVG Export Plug-In . SVG Version: 6.00 Build 0)  -->
<svg version="1.1" xmlns="http://www.w3.org/2000/svg" xmlns:xlink="http://www.w3.org/1999/xlink" x="0px" y="0px"
	 viewBox="0 0 24 24" style="enable-background:new 0 0 24 24;" xml:space="preserve">
<g id="Add_User">
</g>
<g id="Remove_User">
</g>
<g id="Delete_User">
</g>
<g id="Done">
</g>
<g id="At_Symbol">
</g>
<g id="Question">
</g>
<g id="Answer">
</g>
<g id="Bring_Up">
</g>
<g id="Bring_Down">
</g>
<g id="Dismiss_User">
</g>
<g id="User_Speed">
</g>
<g id="User_Settings">
</g>
<g id="User_Refresh">
</g>
<g id="User_Time">
</g>
<g id="Dollar">
</g>
<g id="Euro">
</g>
<g id="Pound">
</g>
<g id="Bitcoin">
</g>
<g id="Global_User">
</g>
<g id="Waiting_User">
</g>
<g id="Writing_User_2">
</g>
<g id="Search_User">
</g>
<g id="Lock_User">
</g>
<g id="Mark_User">
</g>
<g id="Share_User">
</g>
<g id="Shopping">
</g>
<g id="User_Download">
</g>
<g id="User_Upload">
</g>
<g id="User_Statistics">
</g>
<g id="User_Defense">
</g>
<g id="User_Car">
	<g>
		<g>
			<g>
				<path d="M22.5,23h-6c-0.827,0-1.5-0.673-1.5-1.5V20c0-0.189,0.107-0.362,0.276-0.447l0.815-0.407l0.707-2.12
					C17.002,16.412,17.574,16,18.221,16h2.559c0.646,0,1.218,0.412,1.423,1.025l0.707,2.12l0.815,0.407
					C23.893,19.638,24,19.811,24,20v1.5C24,22.327,23.327,23,22.5,23z M16,20.309V21.5c0,0.276,0.224,0.5,0.5,0.5h6
					c0.276,0,0.5-0.224,0.5-0.5v-1.191l-0.724-0.362c-0.119-0.06-0.209-0.164-0.25-0.289l-0.772-2.316
					C21.186,17.137,20.995,17,20.779,17h-2.559c-0.215,0-0.406,0.137-0.475,0.342l-0.772,2.316c-0.042,0.125-0.132,0.229-0.25,0.289
					L16,20.309z M16.5,19.5h0.01H16.5z"/>
			</g>
			<g>
				<path d="M22.5,20h-6c-0.276,0-0.5-0.224-0.5-0.5s0.224-0.5,0.5-0.5h6c0.276,0,0.5,0.224,0.5,0.5S22.776,20,22.5,20z"/>
			</g>
			<g>
				<path d="M16.5,24c-0.276,0-0.5-0.224-0.5-0.5v-1c0-0.276,0.224-0.5,0.5-0.5s0.5,0.224,0.5,0.5v1C17,23.776,16.776,24,16.5,24z"
					/>
			</g>
			<g>
				<path d="M22.5,24c-0.276,0-0.5-0.224-0.5-0.5v-1c0-0.276,0.224-0.5,0.5-0.5s0.5,0.224,0.5,0.5v1C23,23.776,22.776,24,22.5,24z"
					/>
			</g>
			<g>
				<path d="M17.5,21.5h-2c-0.276,0-0.5-0.224-0.5-0.5s0.224-0.5,0.5-0.5h2c0.276,0,0.5,0.224,0.5,0.5S17.776,21.5,17.5,21.5z"/>
			</g>
			<g>
				<path d="M23.5,21.5h-2c-0.276,0-0.5-0.224-0.5-0.5s0.224-0.5,0.5-0.5h2c0.276,0,0.5,0.224,0.5,0.5S23.776,21.5,23.5,21.5z"/>
			</g>
		</g>
		<g>
			<path d="M0.5,24c-0.132,0-0.26-0.053-0.354-0.146S0,23.633,0,23.5c0-3.123,1.066-4.907,3.258-5.455l3.83-0.958l0.348-1.393
				c-0.966-0.998-1.632-2.347-1.839-3.722c-0.625-0.122-1.121-0.634-1.203-1.287l-0.25-2C4.091,8.259,4.224,7.83,4.508,7.507
				C4.69,7.301,4.924,7.151,5.181,7.07C5.109,6.46,5,5.449,5,5c0-1.93,0.58-3.909,4.84-3.998C11.332,0,12.935,0,13.63,0
				c1.764,0,3.038,0.581,3.788,1.726c0.976,1.49,0.509,2.517-0.054,3.116L16.99,5.217L16.898,7.1c0.229,0.087,0.436,0.229,0.6,0.417
				c0.28,0.321,0.41,0.747,0.357,1.169l-0.25,2c-0.076,0.611-0.516,1.099-1.084,1.258c-0.208,1.431-0.91,2.824-1.935,3.839
				l0.326,1.304l0.225,0.056c0.268,0.067,0.431,0.338,0.364,0.606c-0.067,0.268-0.34,0.429-0.606,0.364l-0.516-0.129
				C14.2,17.94,14.06,17.8,14.015,17.621l-0.47-1.879c-0.045-0.18,0.013-0.37,0.151-0.493c1.061-0.951,1.761-2.367,1.874-3.789
				c0.021-0.26,0.238-0.46,0.499-0.46c0.3,0,0.514-0.188,0.545-0.438l0.25-2c0.018-0.143-0.024-0.28-0.119-0.388
				c-0.095-0.109-0.227-0.17-0.372-0.171c-0.136-0.001-0.265-0.058-0.358-0.157c-0.093-0.099-0.142-0.231-0.136-0.367L16,4.976
				c0.006-0.124,0.058-0.241,0.146-0.329l0.5-0.5c0.313-0.333,0.599-0.858-0.065-1.873C16.028,1.429,15.036,1,13.63,1
				c-1.025,0-2.223,0.108-3.339,0.907C10.208,1.966,10.107,1.999,10.005,2C6.306,2.037,6,3.44,6,5c0,0.489,0.168,1.925,0.232,2.438
				C6.25,7.58,6.206,7.723,6.111,7.831C6.017,7.938,5.88,8,5.736,8H5.633C5.487,8,5.354,8.06,5.258,8.169
				C5.162,8.278,5.119,8.417,5.137,8.562l0.25,2C5.418,10.812,5.631,11,5.883,11h0.163c0.261,0,0.478,0.2,0.499,0.46
				c0.11,1.378,0.778,2.767,1.788,3.714c0.132,0.124,0.188,0.31,0.143,0.486l-0.49,1.961C7.94,17.8,7.8,17.94,7.621,17.985
				L3.5,19.015C1.906,19.414,1.107,20.685,1.01,23l13.269-0.001c0.276,0,0.5,0.224,0.5,0.5c0,0.276-0.224,0.5-0.5,0.5L0.5,24z"/>
		</g>
	</g>
</g>
<g id="User_Home">
</g>
<g id="Park">
</g>
<g id="Recicle_User">
</g>
<g id="Wifi">
</g>
<g id="Attach_User">
</g>
<g id="Disabled_User">
</g>
<g id="User_Card">
</g>
<g id="Gaming">
</g>
<g id="User_Cloud">
</g>
<g id="User_Database">
</g>
<g id="Copyright">
</g>
<g id="No_Copyright">
</g>
<g id="Creative_Commun">
</g>
<g id="Eco-Friendly">
</g>
<g id="Percentage">
</g>
<g id="User_Love">
</g>
<g id="User_Place">
</g>
<g id="User_Key">
</g>
<g id="Sleeping">
</g>
<g id="Add_User_2">
</g>
<g id="Remove_User_2">
</g>
<g id="Delete_User_2">
</g>
<g id="Done_2">
</g>
<g id="At_Symbol_2">
</g>
<g id="Question_2">
</g>
<g id="Answer_2">
</g>
<g id="Bring_Up_2">
</g>
<g id="Bring_Down_2">
</g>
<g id="Dismiss_User_2">
</g>
<g id="User_Speed_2">
</g>
<g id="User_Settings_2">
</g>
<g id="Refresh_2">
</g>
<g id="Time_2">
</g>
<g id="Dollar_2">
</g>
<g id="Euro_2">
</g>
<g id="Pound_2">
</g>
<g id="Bitcoin_2">
</g>
<g id="Global_User_2">
</g>
<g id="Waiting_User_2">
</g>
<g id="Writing_User">
</g>
<g id="Search_User_2">
</g>
<g id="Lock_User_2">
</g>
<g id="Mark_User_2">
</g>
<g id="Share_User_2">
</g>
<g id="Shopping_2">
</g>
<g id="Download_2">
</g>
<g id="Upload_2">
</g>
<g id="User_Statistics_2">
</g>
<g id="User_Defense_2">
</g>
<g id="Car_2">
</g>
<g id="Home_2">
</g>
<g id="Park_2">
</g>
<g id="Recicle_User_2">
</g>
<g id="User_Wifi">
</g>
<g id="Attach_2">
</g>
<g id="Disabled_User_2">
</g>
<g id="User_Card_2">
</g>
<g id="Gaming_2">
</g>
<g id="Cloud_2">
</g>
<g id="Database_2">
</g>
<g id="Copyright_2">
</g>
<g id="No_Copyright_2">
</g>
<g id="Creative_Commun_2">
</g>
<g id="Eco-Friendly_2">
</g>
<g id="Percentage_2">
</g>
<g id="User_Love_2">
</g>
<g id="User_Rate_2">
</g>
<g id="User_Key_2">
</g>
<g id="Sleeping_2">
</g>
</svg>
