<?xml version="1.0" encoding="iso-8859-1"?>
<!-- Generator: Adobe Illustrator 19.2.1, SVG Export Plug-In . SVG Version: 6.00 Build 0)  -->
<svg version="1.1" xmlns="http://www.w3.org/2000/svg" xmlns:xlink="http://www.w3.org/1999/xlink" x="0px" y="0px"
	 viewBox="0 0 24 24" style="enable-background:new 0 0 24 24;" xml:space="preserve">
<g id="Add_User">
</g>
<g id="Remove_User">
</g>
<g id="Delete_User">
</g>
<g id="Done">
</g>
<g id="At_Symbol">
</g>
<g id="Question">
</g>
<g id="Answer">
</g>
<g id="Bring_Up">
</g>
<g id="Bring_Down">
</g>
<g id="Dismiss_User">
</g>
<g id="User_Speed">
</g>
<g id="User_Settings">
	<g>
		<g>
			<path d="M0.5,24c-0.132,0-0.26-0.053-0.354-0.146S0,23.633,0,23.5c0-3.123,1.066-4.907,3.258-5.455l3.83-0.958l0.348-1.393
				c-0.966-0.998-1.632-2.347-1.839-3.722c-0.625-0.122-1.121-0.634-1.203-1.287l-0.25-2C4.091,8.259,4.224,7.83,4.508,7.507
				C4.69,7.301,4.924,7.151,5.181,7.07C5.109,6.46,5,5.449,5,5c0-1.93,0.58-3.909,4.84-3.998C11.332,0,12.935,0,13.63,0
				c1.764,0,3.038,0.581,3.788,1.726c0.976,1.49,0.509,2.517-0.054,3.116L16.99,5.217L16.898,7.1c0.229,0.087,0.436,0.229,0.6,0.417
				c0.28,0.321,0.41,0.747,0.357,1.169l-0.25,2c-0.076,0.612-0.518,1.102-1.089,1.26c-0.005,0.033-0.01,0.066-0.016,0.1
				c-0.045,0.272-0.302,0.46-0.574,0.412c-0.272-0.044-0.457-0.302-0.412-0.574c0.023-0.141,0.044-0.282,0.056-0.423
				C15.59,11.201,15.808,11,16.068,11c0.3,0,0.514-0.188,0.545-0.438l0.25-2c0.018-0.143-0.024-0.28-0.119-0.388
				c-0.095-0.109-0.227-0.17-0.372-0.171c-0.136-0.001-0.265-0.058-0.358-0.157c-0.093-0.099-0.142-0.231-0.136-0.367L16,4.976
				c0.006-0.124,0.058-0.241,0.146-0.329l0.5-0.5c0.313-0.333,0.599-0.858-0.065-1.873C16.028,1.429,15.036,1,13.63,1
				c-1.025,0-2.223,0.108-3.339,0.907C10.208,1.966,10.107,1.999,10.005,2C6.306,2.037,6,3.44,6,5c0,0.489,0.168,1.925,0.232,2.438
				C6.25,7.58,6.206,7.723,6.111,7.831C6.017,7.938,5.88,8,5.736,8H5.633C5.487,8,5.354,8.06,5.258,8.169
				C5.162,8.278,5.119,8.417,5.137,8.562l0.25,2C5.418,10.812,5.631,11,5.883,11h0.163c0.261,0,0.478,0.2,0.499,0.46
				c0.11,1.378,0.778,2.767,1.788,3.714c0.132,0.124,0.188,0.31,0.143,0.486l-0.49,1.961C7.94,17.8,7.8,17.94,7.621,17.985
				L3.5,19.015C1.906,19.414,1.107,20.685,1.01,23l12.594-0.001c0.276,0,0.5,0.224,0.5,0.5c0,0.276-0.224,0.5-0.5,0.5L0.5,24z"/>
		</g>
		<g>
			<g>
				<g>
					<g>
						<g>
							<g>
								<g>
									<path d="M19.48,23.901c-0.106,0-0.21-0.034-0.297-0.098c-0.113-0.083-0.186-0.211-0.201-0.351
										C18.956,23.194,18.749,23,18.5,23s-0.456,0.194-0.482,0.453c-0.015,0.14-0.087,0.268-0.201,0.351
										c-0.114,0.083-0.258,0.115-0.395,0.088c-1.172-0.233-2.223-0.847-3.039-1.774c-0.092-0.104-0.136-0.243-0.122-0.381
										c0.014-0.139,0.085-0.265,0.197-0.349c0.207-0.156,0.268-0.424,0.145-0.638c-0.123-0.213-0.386-0.295-0.624-0.194
										c-0.128,0.055-0.273,0.053-0.4-0.004c-0.127-0.057-0.224-0.164-0.269-0.295C13.102,19.64,13,19.065,13,18.5
										s0.102-1.14,0.311-1.756c0.045-0.132,0.142-0.239,0.269-0.295c0.126-0.058,0.271-0.059,0.4-0.004
										c0.237,0.102,0.5,0.02,0.624-0.194c0.124-0.214,0.063-0.482-0.145-0.638c-0.111-0.083-0.183-0.21-0.197-0.349
										c-0.014-0.138,0.03-0.276,0.122-0.381c0.816-0.928,1.867-1.542,3.039-1.774c0.137-0.03,0.282,0.004,0.395,0.088
										c0.113,0.083,0.186,0.211,0.201,0.351C18.044,13.806,18.251,14,18.5,14s0.456-0.194,0.482-0.453
										c0.015-0.14,0.087-0.268,0.201-0.351c0.113-0.084,0.257-0.119,0.395-0.088c1.172,0.233,2.223,0.847,3.039,1.774
										c0.092,0.104,0.136,0.243,0.122,0.381c-0.014,0.139-0.085,0.265-0.197,0.349c-0.207,0.156-0.268,0.424-0.145,0.638
										c0.124,0.214,0.389,0.296,0.624,0.194c0.128-0.054,0.273-0.053,0.4,0.004c0.127,0.057,0.224,0.164,0.269,0.295
										C23.898,17.36,24,17.935,24,18.5s-0.102,1.14-0.311,1.756c-0.045,0.132-0.142,0.239-0.269,0.295
										c-0.126,0.057-0.272,0.059-0.4,0.004c-0.236-0.102-0.5-0.02-0.624,0.194c-0.124,0.214-0.063,0.482,0.145,0.638
										c0.111,0.083,0.183,0.21,0.197,0.349c0.014,0.138-0.03,0.276-0.122,0.381c-0.816,0.928-1.867,1.542-3.039,1.774
										C19.545,23.898,19.513,23.901,19.48,23.901z M18.5,22c0.567,0,1.064,0.321,1.314,0.802c0.647-0.2,1.241-0.549,1.748-1.029
										c-0.282-0.456-0.309-1.041-0.031-1.522l0,0c0.279-0.482,0.78-0.761,1.336-0.735C22.956,19.162,23,18.827,23,18.5
										s-0.044-0.662-0.133-1.015c-0.556,0.01-1.058-0.253-1.336-0.735c-0.278-0.482-0.251-1.067,0.031-1.522
										c-0.507-0.48-1.1-0.83-1.748-1.029C19.564,14.679,19.067,15,18.5,15s-1.064-0.321-1.314-0.802
										c-0.647,0.2-1.241,0.549-1.748,1.029c0.282,0.456,0.309,1.041,0.031,1.522c-0.279,0.482-0.797,0.744-1.336,0.735
										C14.044,17.837,14,18.173,14,18.5s0.044,0.662,0.133,1.015c0.541-0.025,1.057,0.252,1.336,0.735
										c0.278,0.482,0.251,1.067-0.031,1.522c0.507,0.48,1.1,0.83,1.748,1.029C17.436,22.321,17.933,22,18.5,22z"/>
								</g>
							</g>
						</g>
						<g>
							<path d="M18.5,21c-1.378,0-2.5-1.122-2.5-2.5s1.122-2.5,2.5-2.5s2.5,1.122,2.5,2.5S19.878,21,18.5,21z M18.5,17
								c-0.827,0-1.5,0.673-1.5,1.5s0.673,1.5,1.5,1.5s1.5-0.673,1.5-1.5S19.327,17,18.5,17z"/>
						</g>
					</g>
				</g>
			</g>
		</g>
	</g>
</g>
<g id="User_Refresh">
</g>
<g id="User_Time">
</g>
<g id="Dollar">
</g>
<g id="Euro">
</g>
<g id="Pound">
</g>
<g id="Bitcoin">
</g>
<g id="Global_User">
</g>
<g id="Waiting_User">
</g>
<g id="Writing_User_2">
</g>
<g id="Search_User">
</g>
<g id="Lock_User">
</g>
<g id="Mark_User">
</g>
<g id="Share_User">
</g>
<g id="Shopping">
</g>
<g id="User_Download">
</g>
<g id="User_Upload">
</g>
<g id="User_Statistics">
</g>
<g id="User_Defense">
</g>
<g id="User_Car">
</g>
<g id="User_Home">
</g>
<g id="Park">
</g>
<g id="Recicle_User">
</g>
<g id="Wifi">
</g>
<g id="Attach_User">
</g>
<g id="Disabled_User">
</g>
<g id="User_Card">
</g>
<g id="Gaming">
</g>
<g id="User_Cloud">
</g>
<g id="User_Database">
</g>
<g id="Copyright">
</g>
<g id="No_Copyright">
</g>
<g id="Creative_Commun">
</g>
<g id="Eco-Friendly">
</g>
<g id="Percentage">
</g>
<g id="User_Love">
</g>
<g id="User_Place">
</g>
<g id="User_Key">
</g>
<g id="Sleeping">
</g>
<g id="Add_User_2">
</g>
<g id="Remove_User_2">
</g>
<g id="Delete_User_2">
</g>
<g id="Done_2">
</g>
<g id="At_Symbol_2">
</g>
<g id="Question_2">
</g>
<g id="Answer_2">
</g>
<g id="Bring_Up_2">
</g>
<g id="Bring_Down_2">
</g>
<g id="Dismiss_User_2">
</g>
<g id="User_Speed_2">
</g>
<g id="User_Settings_2">
</g>
<g id="Refresh_2">
</g>
<g id="Time_2">
</g>
<g id="Dollar_2">
</g>
<g id="Euro_2">
</g>
<g id="Pound_2">
</g>
<g id="Bitcoin_2">
</g>
<g id="Global_User_2">
</g>
<g id="Waiting_User_2">
</g>
<g id="Writing_User">
</g>
<g id="Search_User_2">
</g>
<g id="Lock_User_2">
</g>
<g id="Mark_User_2">
</g>
<g id="Share_User_2">
</g>
<g id="Shopping_2">
</g>
<g id="Download_2">
</g>
<g id="Upload_2">
</g>
<g id="User_Statistics_2">
</g>
<g id="User_Defense_2">
</g>
<g id="Car_2">
</g>
<g id="Home_2">
</g>
<g id="Park_2">
</g>
<g id="Recicle_User_2">
</g>
<g id="User_Wifi">
</g>
<g id="Attach_2">
</g>
<g id="Disabled_User_2">
</g>
<g id="User_Card_2">
</g>
<g id="Gaming_2">
</g>
<g id="Cloud_2">
</g>
<g id="Database_2">
</g>
<g id="Copyright_2">
</g>
<g id="No_Copyright_2">
</g>
<g id="Creative_Commun_2">
</g>
<g id="Eco-Friendly_2">
</g>
<g id="Percentage_2">
</g>
<g id="User_Love_2">
</g>
<g id="User_Rate_2">
</g>
<g id="User_Key_2">
</g>
<g id="Sleeping_2">
</g>
</svg>
