<?xml version="1.0" encoding="iso-8859-1"?>
<!-- Generator: Adobe Illustrator 19.2.1, SVG Export Plug-In . SVG Version: 6.00 Build 0)  -->
<svg version="1.1" xmlns="http://www.w3.org/2000/svg" xmlns:xlink="http://www.w3.org/1999/xlink" x="0px" y="0px"
	 viewBox="0 0 24 24" style="enable-background:new 0 0 24 24;" xml:space="preserve">
<g id="Add_Users">
</g>
<g id="Remove_Users">
</g>
<g id="Delete_Users">
</g>
<g id="Done_3">
</g>
<g id="At_Symbol_3">
</g>
<g id="Question_3">
</g>
<g id="Answer_3">
</g>
<g id="Bring_Up_3">
</g>
<g id="Bring_Down_3">
</g>
<g id="Dismiss_Users">
</g>
<g id="Users_Speed_3">
</g>
<g id="Users_Settings">
	<g>
		<g>
			<g>
				<g>
					<g>
						<g>
							<g>
								<g>
									<path d="M19.48,23.951c-0.106,0-0.21-0.034-0.297-0.098c-0.113-0.083-0.186-0.211-0.201-0.351
										c-0.026-0.258-0.234-0.453-0.482-0.453s-0.456,0.194-0.482,0.453c-0.015,0.14-0.087,0.268-0.201,0.351
										c-0.114,0.083-0.258,0.116-0.395,0.088c-1.172-0.233-2.223-0.847-3.039-1.774c-0.092-0.104-0.136-0.243-0.122-0.381
										c0.014-0.139,0.085-0.265,0.197-0.349c0.207-0.156,0.268-0.424,0.145-0.638c-0.123-0.213-0.386-0.294-0.624-0.194
										c-0.128,0.054-0.273,0.052-0.4-0.004c-0.127-0.057-0.224-0.164-0.269-0.295C13.102,19.689,13,19.115,13,18.549
										s0.102-1.14,0.311-1.756c0.045-0.132,0.142-0.239,0.269-0.295c0.126-0.058,0.271-0.06,0.4-0.004
										c0.237,0.102,0.5,0.02,0.624-0.194c0.124-0.214,0.063-0.482-0.145-0.638c-0.111-0.083-0.183-0.21-0.197-0.349
										c-0.014-0.138,0.03-0.276,0.122-0.381c0.816-0.928,1.867-1.542,3.039-1.774c0.138-0.027,0.282,0.005,0.394,0.088
										c0.113,0.084,0.186,0.211,0.201,0.351c0.026,0.258,0.234,0.452,0.482,0.452s0.456-0.194,0.482-0.452
										c0.015-0.14,0.087-0.267,0.201-0.351c0.113-0.083,0.256-0.116,0.394-0.088c1.172,0.232,2.223,0.846,3.039,1.774
										c0.092,0.104,0.136,0.243,0.122,0.381c-0.014,0.139-0.085,0.265-0.197,0.349c-0.207,0.156-0.268,0.424-0.145,0.638
										c0.124,0.214,0.389,0.297,0.624,0.194c0.128-0.055,0.273-0.053,0.4,0.004c0.127,0.057,0.224,0.164,0.269,0.295
										C23.898,17.41,24,17.984,24,18.549s-0.102,1.14-0.311,1.756c-0.045,0.132-0.142,0.239-0.269,0.295
										c-0.126,0.057-0.272,0.058-0.4,0.004c-0.236-0.102-0.5-0.019-0.624,0.194c-0.124,0.214-0.063,0.482,0.145,0.638
										c0.111,0.083,0.183,0.21,0.197,0.349c0.014,0.138-0.03,0.276-0.122,0.381c-0.816,0.928-1.867,1.542-3.039,1.774
										C19.545,23.948,19.513,23.951,19.48,23.951z M18.5,22.049c0.567,0,1.064,0.321,1.314,0.802
										c0.647-0.2,1.241-0.549,1.748-1.029c-0.282-0.456-0.309-1.041-0.031-1.522l0,0c0.279-0.483,0.78-0.757,1.336-0.735
										C22.956,19.211,23,18.876,23,18.549s-0.044-0.662-0.133-1.015c-0.552,0.018-1.058-0.253-1.336-0.735
										c-0.278-0.482-0.251-1.067,0.031-1.522c-0.507-0.48-1.1-0.83-1.748-1.029c-0.25,0.481-0.747,0.802-1.314,0.802
										s-1.064-0.321-1.314-0.802c-0.647,0.2-1.24,0.549-1.748,1.029c0.282,0.456,0.309,1.041,0.031,1.522
										c-0.279,0.482-0.797,0.748-1.336,0.735C14.044,17.887,14,18.222,14,18.549s0.044,0.662,0.133,1.015
										c0.541-0.021,1.057,0.252,1.336,0.735c0.278,0.482,0.251,1.067-0.031,1.522c0.507,0.48,1.1,0.83,1.748,1.029
										C17.436,22.37,17.933,22.049,18.5,22.049z"/>
								</g>
							</g>
						</g>
						<g>
							<path d="M18.5,21.049c-1.378,0-2.5-1.122-2.5-2.5s1.122-2.5,2.5-2.5s2.5,1.122,2.5,2.5S19.878,21.049,18.5,21.049z
								 M18.5,17.049c-0.827,0-1.5,0.673-1.5,1.5s0.673,1.5,1.5,1.5s1.5-0.673,1.5-1.5S19.327,17.049,18.5,17.049z"/>
						</g>
					</g>
				</g>
			</g>
		</g>
		<g>
			<g>
				<path d="M17.3,12.159c-0.133,0-0.267-0.053-0.365-0.158c-0.188-0.202-0.178-0.518,0.023-0.707
					c0.73-0.683,1.212-1.675,1.289-2.654c0.021-0.26,0.238-0.46,0.499-0.46c0.06,0,0.093-0.01,0.135-0.029
					c0.077-0.036,0.129-0.104,0.139-0.18l0.185-1.479c0.011-0.092-0.031-0.155-0.057-0.185c-0.026-0.03-0.084-0.081-0.178-0.082
					c-0.136-0.001-0.266-0.058-0.358-0.157c-0.093-0.099-0.142-0.231-0.136-0.367l0.09-1.85c0.006-0.124,0.058-0.241,0.146-0.329
					l0.369-0.37c0.209-0.222,0.374-0.551-0.064-1.22c-0.383-0.586-1.08-0.883-2.072-0.883c-0.419,0-0.973,0.025-1.545,0.218
					c-0.261,0.09-0.545-0.052-0.634-0.313s0.052-0.545,0.313-0.634c0.71-0.24,1.37-0.271,1.865-0.271
					c1.351,0,2.329,0.449,2.909,1.335c0.768,1.172,0.395,1.987-0.054,2.464l-0.243,0.244l-0.062,1.25
					c0.154,0.072,0.293,0.176,0.407,0.307c0.231,0.265,0.339,0.617,0.295,0.967l-0.185,1.478c-0.052,0.42-0.317,0.781-0.71,0.964
					c-0.035,0.016-0.069,0.031-0.104,0.043c-0.179,1.092-0.744,2.162-1.556,2.923C17.545,12.114,17.423,12.159,17.3,12.159z"/>
			</g>
		</g>
		<g>
			<path d="M0.5,18.047c-0.276,0-0.5-0.224-0.5-0.5c0-1.97,1.334-3.679,3.246-4.156l2.755-0.689l0.221-0.884
				c-0.685-0.729-1.163-1.694-1.33-2.682c-0.474-0.13-0.84-0.535-0.903-1.042L3.803,6.616C3.759,6.264,3.869,5.909,4.104,5.643
				C4.229,5.5,4.385,5.39,4.557,5.318C4.504,4.859,4.435,4.193,4.435,3.875c0-1.397,0.421-3.003,3.667-3.084
				c1.126-0.742,2.321-0.742,2.843-0.742c1.351,0,2.329,0.449,2.909,1.335c0.768,1.172,0.395,1.987-0.054,2.464l-0.243,0.244
				l-0.062,1.25c0.154,0.072,0.293,0.176,0.407,0.307c0.231,0.265,0.339,0.617,0.295,0.967l-0.185,1.478
				c-0.059,0.475-0.384,0.86-0.814,1.014c-0.168,1.032-0.672,2.033-1.402,2.778l0.204,0.817l1.668,0.417
				c0.268,0.067,0.431,0.338,0.364,0.606c-0.067,0.268-0.339,0.43-0.606,0.364l-1.959-0.49c-0.179-0.044-0.319-0.185-0.364-0.364
				l-0.347-1.389c-0.045-0.18,0.013-0.37,0.151-0.493c0.76-0.681,1.261-1.695,1.342-2.713c0.021-0.26,0.238-0.46,0.499-0.46
				c0.157,0,0.259-0.09,0.273-0.209l0.185-1.479c0.011-0.092-0.031-0.155-0.057-0.185c-0.026-0.03-0.084-0.081-0.178-0.082
				c-0.136-0.001-0.266-0.058-0.358-0.157c-0.093-0.099-0.142-0.231-0.136-0.367l0.09-1.85c0.006-0.124,0.058-0.241,0.146-0.329
				l0.369-0.37c0.209-0.222,0.374-0.551-0.064-1.22c-0.383-0.586-1.08-0.883-2.072-0.883c-0.737,0-1.597,0.077-2.393,0.646
				c-0.083,0.06-0.184,0.092-0.286,0.093c-2.831,0.028-2.831,1.17-2.831,2.087c0,0.354,0.124,1.409,0.171,1.785
				c0.018,0.142-0.026,0.286-0.121,0.393C5.39,6.162,5.253,6.223,5.109,6.223c-0.17,0-0.229,0.051-0.256,0.081
				s-0.07,0.095-0.058,0.188L4.98,7.97C4.995,8.09,5.097,8.18,5.218,8.18h0.12c0.261,0,0.478,0.2,0.499,0.46
				c0.079,0.987,0.558,1.982,1.281,2.66c0.132,0.124,0.188,0.31,0.143,0.486l-0.362,1.45c-0.044,0.179-0.185,0.319-0.364,0.364
				l-3.046,0.762C2.023,14.728,1,16.038,1,17.547C1,17.824,0.776,18.047,0.5,18.047z"/>
		</g>
	</g>
</g>
<g id="Refresh_Users">
</g>
<g id="Time_3">
</g>
<g id="Dollar_3">
</g>
<g id="Euro_3">
</g>
<g id="Pound_3">
</g>
<g id="Bitcoin_3">
</g>
<g id="Global_Users">
</g>
<g id="Waiting_Users">
</g>
<g id="Writing_Users">
</g>
<g id="Search_Users">
</g>
<g id="Lock_Users">
</g>
<g id="Mark_Users">
</g>
<g id="Share_Users">
</g>
<g id="Shopping_3">
</g>
<g id="Download_3">
</g>
<g id="Upload_3">
</g>
<g id="Users_Statistics">
</g>
<g id="Users_Defense">
</g>
<g id="Car_3">
</g>
<g id="Home_3">
</g>
<g id="Park_3">
</g>
<g id="Recicle_Users">
</g>
<g id="Wifi_3">
</g>
<g id="Attach_3">
</g>
<g id="Disabled_Users">
</g>
<g id="Users_Card">
</g>
<g id="Gaming_3">
</g>
<g id="Cloud_3">
</g>
<g id="Database_3">
</g>
<g id="Copyright_3">
</g>
<g id="No_Copzright_3">
</g>
<g id="Creative_Commun_3">
</g>
<g id="Eco-Friendly_3">
</g>
<g id="Percentage_3">
</g>
<g id="Users_Love">
</g>
<g id="Users_Place">
</g>
<g id="Users_Key">
</g>
<g id="Sleeping_3">
</g>
</svg>
