<?xml version="1.0" encoding="iso-8859-1"?>
<!-- Generator: Adobe Illustrator 19.2.1, SVG Export Plug-In . SVG Version: 6.00 Build 0)  -->
<svg version="1.1" xmlns="http://www.w3.org/2000/svg" xmlns:xlink="http://www.w3.org/1999/xlink" x="0px" y="0px"
	 viewBox="0 0 24 24" style="enable-background:new 0 0 24 24;" xml:space="preserve">
<g id="Add_User">
</g>
<g id="Remove_User">
</g>
<g id="Delete_User">
</g>
<g id="Done">
</g>
<g id="At_Symbol">
</g>
<g id="Question">
</g>
<g id="Answer">
</g>
<g id="Bring_Up">
</g>
<g id="Bring_Down">
</g>
<g id="Dismiss_User">
</g>
<g id="User_Speed">
</g>
<g id="User_Settings">
</g>
<g id="User_Refresh">
</g>
<g id="User_Time">
	<g>
		<g>
			<path d="M0.5,24c-0.132,0-0.26-0.053-0.354-0.146S0,23.633,0,23.5c0-3.123,1.066-4.907,3.258-5.455l3.83-0.958l0.348-1.393
				c-0.966-0.998-1.632-2.347-1.839-3.722c-0.625-0.122-1.121-0.634-1.203-1.287l-0.25-2C4.091,8.259,4.224,7.83,4.508,7.507
				C4.69,7.301,4.924,7.151,5.181,7.07C5.109,6.46,5,5.449,5,5c0-1.93,0.58-3.909,4.84-3.998C11.332,0,12.935,0,13.63,0
				c1.764,0,3.038,0.581,3.788,1.726c0.976,1.49,0.509,2.517-0.054,3.116L16.99,5.217L16.898,7.1c0.229,0.087,0.436,0.229,0.6,0.417
				c0.28,0.321,0.41,0.747,0.357,1.169l-0.25,2c-0.034,0.273-0.283,0.464-0.558,0.434c-0.274-0.034-0.468-0.284-0.434-0.558l0.25-2
				c0.018-0.143-0.024-0.28-0.119-0.388c-0.095-0.109-0.227-0.17-0.372-0.171c-0.136-0.001-0.265-0.058-0.358-0.157
				c-0.093-0.099-0.142-0.231-0.136-0.367L16,4.976c0.006-0.124,0.058-0.241,0.146-0.329l0.5-0.5
				c0.313-0.333,0.599-0.858-0.065-1.873C16.028,1.429,15.036,1,13.63,1c-1.025,0-2.223,0.108-3.339,0.907
				C10.208,1.966,10.107,1.999,10.005,2C6.306,2.037,6,3.44,6,5c0,0.489,0.168,1.925,0.232,2.438C6.25,7.58,6.206,7.723,6.111,7.831
				C6.017,7.938,5.88,8,5.736,8H5.633C5.487,8,5.354,8.06,5.258,8.169C5.162,8.278,5.119,8.417,5.137,8.562l0.25,2
				C5.418,10.812,5.631,11,5.883,11h0.163c0.261,0,0.478,0.2,0.499,0.46c0.11,1.378,0.778,2.767,1.788,3.714
				c0.132,0.124,0.188,0.31,0.143,0.486l-0.49,1.961C7.94,17.8,7.8,17.94,7.621,17.985L3.5,19.015
				C1.906,19.414,1.107,20.685,1.01,23l12.594-0.001c0.276,0,0.5,0.224,0.5,0.5c0,0.276-0.224,0.5-0.5,0.5L0.5,24z"/>
		</g>
		<g>
			<g>
				<path d="M18.5,24c-3.033,0-5.5-2.467-5.5-5.5s2.467-5.5,5.5-5.5s5.5,2.467,5.5,5.5S21.533,24,18.5,24z M18.5,14
					c-2.481,0-4.5,2.019-4.5,4.5s2.019,4.5,4.5,4.5s4.5-2.019,4.5-4.5S20.981,14,18.5,14z"/>
			</g>
			<g>
				<path d="M23.5,14c-0.104,0-0.209-0.033-0.299-0.1l-2-1.5c-0.221-0.166-0.266-0.479-0.1-0.7c0.166-0.221,0.48-0.265,0.7-0.1
					l2,1.5c0.221,0.166,0.266,0.479,0.1,0.7C23.802,13.931,23.652,14,23.5,14z"/>
			</g>
			<g>
				<path d="M13.5,14c-0.152,0-0.302-0.069-0.4-0.2c-0.166-0.221-0.121-0.534,0.1-0.7l2-1.5c0.221-0.167,0.534-0.122,0.7,0.1
					c0.166,0.221,0.121,0.534-0.1,0.7l-2,1.5C13.71,13.967,13.605,14,13.5,14z"/>
			</g>
			<g>
				<path d="M20.5,21c-0.128,0-0.256-0.049-0.354-0.146l-2-2C18.053,18.76,18,18.633,18,18.5v-3c0-0.276,0.224-0.5,0.5-0.5
					s0.5,0.224,0.5,0.5v2.793l1.854,1.854c0.195,0.195,0.195,0.512,0,0.707C20.756,20.951,20.628,21,20.5,21z"/>
			</g>
		</g>
	</g>
</g>
<g id="Dollar">
</g>
<g id="Euro">
</g>
<g id="Pound">
</g>
<g id="Bitcoin">
</g>
<g id="Global_User">
</g>
<g id="Waiting_User">
</g>
<g id="Writing_User_2">
</g>
<g id="Search_User">
</g>
<g id="Lock_User">
</g>
<g id="Mark_User">
</g>
<g id="Share_User">
</g>
<g id="Shopping">
</g>
<g id="User_Download">
</g>
<g id="User_Upload">
</g>
<g id="User_Statistics">
</g>
<g id="User_Defense">
</g>
<g id="User_Car">
</g>
<g id="User_Home">
</g>
<g id="Park">
</g>
<g id="Recicle_User">
</g>
<g id="Wifi">
</g>
<g id="Attach_User">
</g>
<g id="Disabled_User">
</g>
<g id="User_Card">
</g>
<g id="Gaming">
</g>
<g id="User_Cloud">
</g>
<g id="User_Database">
</g>
<g id="Copyright">
</g>
<g id="No_Copyright">
</g>
<g id="Creative_Commun">
</g>
<g id="Eco-Friendly">
</g>
<g id="Percentage">
</g>
<g id="User_Love">
</g>
<g id="User_Place">
</g>
<g id="User_Key">
</g>
<g id="Sleeping">
</g>
<g id="Add_User_2">
</g>
<g id="Remove_User_2">
</g>
<g id="Delete_User_2">
</g>
<g id="Done_2">
</g>
<g id="At_Symbol_2">
</g>
<g id="Question_2">
</g>
<g id="Answer_2">
</g>
<g id="Bring_Up_2">
</g>
<g id="Bring_Down_2">
</g>
<g id="Dismiss_User_2">
</g>
<g id="User_Speed_2">
</g>
<g id="User_Settings_2">
</g>
<g id="Refresh_2">
</g>
<g id="Time_2">
</g>
<g id="Dollar_2">
</g>
<g id="Euro_2">
</g>
<g id="Pound_2">
</g>
<g id="Bitcoin_2">
</g>
<g id="Global_User_2">
</g>
<g id="Waiting_User_2">
</g>
<g id="Writing_User">
</g>
<g id="Search_User_2">
</g>
<g id="Lock_User_2">
</g>
<g id="Mark_User_2">
</g>
<g id="Share_User_2">
</g>
<g id="Shopping_2">
</g>
<g id="Download_2">
</g>
<g id="Upload_2">
</g>
<g id="User_Statistics_2">
</g>
<g id="User_Defense_2">
</g>
<g id="Car_2">
</g>
<g id="Home_2">
</g>
<g id="Park_2">
</g>
<g id="Recicle_User_2">
</g>
<g id="User_Wifi">
</g>
<g id="Attach_2">
</g>
<g id="Disabled_User_2">
</g>
<g id="User_Card_2">
</g>
<g id="Gaming_2">
</g>
<g id="Cloud_2">
</g>
<g id="Database_2">
</g>
<g id="Copyright_2">
</g>
<g id="No_Copyright_2">
</g>
<g id="Creative_Commun_2">
</g>
<g id="Eco-Friendly_2">
</g>
<g id="Percentage_2">
</g>
<g id="User_Love_2">
</g>
<g id="User_Rate_2">
</g>
<g id="User_Key_2">
</g>
<g id="Sleeping_2">
</g>
</svg>
