<?xml version="1.0" encoding="iso-8859-1"?>
<!-- Generator: Adobe Illustrator 19.2.1, SVG Export Plug-In . SVG Version: 6.00 Build 0)  -->
<svg version="1.1" xmlns="http://www.w3.org/2000/svg" xmlns:xlink="http://www.w3.org/1999/xlink" x="0px" y="0px"
	 viewBox="0 0 24 24" style="enable-background:new 0 0 24 24;" xml:space="preserve">
<g id="Add_User">
</g>
<g id="Remove_User">
</g>
<g id="Delete_User">
</g>
<g id="Done">
</g>
<g id="At_Symbol">
</g>
<g id="Question">
</g>
<g id="Answer">
</g>
<g id="Bring_Up">
</g>
<g id="Bring_Down">
</g>
<g id="Dismiss_User">
</g>
<g id="User_Speed">
</g>
<g id="User_Settings">
</g>
<g id="User_Refresh">
</g>
<g id="User_Time">
</g>
<g id="Dollar">
</g>
<g id="Euro">
</g>
<g id="Pound">
</g>
<g id="Bitcoin">
</g>
<g id="Global_User">
</g>
<g id="Waiting_User">
</g>
<g id="Writing_User_2">
</g>
<g id="Search_User">
</g>
<g id="Lock_User">
</g>
<g id="Mark_User">
</g>
<g id="Share_User">
</g>
<g id="Shopping">
</g>
<g id="User_Download">
</g>
<g id="User_Upload">
</g>
<g id="User_Statistics">
</g>
<g id="User_Defense">
</g>
<g id="User_Car">
</g>
<g id="User_Home">
</g>
<g id="Park">
</g>
<g id="Recicle_User">
</g>
<g id="Wifi">
</g>
<g id="Attach_User">
</g>
<g id="Disabled_User">
</g>
<g id="User_Card">
</g>
<g id="Gaming">
</g>
<g id="User_Cloud">
</g>
<g id="User_Database">
</g>
<g id="Copyright">
</g>
<g id="No_Copyright">
</g>
<g id="Creative_Commun">
</g>
<g id="Eco-Friendly">
</g>
<g id="Percentage">
</g>
<g id="User_Love">
</g>
<g id="User_Place">
</g>
<g id="User_Key">
</g>
<g id="Sleeping">
</g>
<g id="Add_User_2">
</g>
<g id="Remove_User_2">
</g>
<g id="Delete_User_2">
</g>
<g id="Done_2">
</g>
<g id="At_Symbol_2">
</g>
<g id="Question_2">
</g>
<g id="Answer_2">
</g>
<g id="Bring_Up_2">
</g>
<g id="Bring_Down_2">
</g>
<g id="Dismiss_User_2">
</g>
<g id="User_Speed_2">
</g>
<g id="User_Settings_2">
	<g>
		<g>
			<g>
				<g>
					<g>
						<g>
							<g>
								<g>
									<path d="M19.48,23.901c-0.106,0-0.21-0.034-0.297-0.098c-0.113-0.084-0.186-0.211-0.201-0.352
										C18.956,23.194,18.749,23,18.5,23s-0.456,0.194-0.482,0.452c-0.015,0.141-0.087,0.268-0.201,0.352
										c-0.114,0.083-0.258,0.115-0.395,0.088c-1.172-0.233-2.222-0.847-3.039-1.774c-0.092-0.104-0.136-0.242-0.122-0.381
										s0.085-0.265,0.197-0.349c0.207-0.156,0.268-0.424,0.145-0.638c-0.123-0.214-0.384-0.292-0.624-0.194
										c-0.128,0.054-0.273,0.054-0.4-0.004c-0.127-0.057-0.224-0.164-0.269-0.296C13.102,19.64,13,19.065,13,18.5
										s0.102-1.14,0.311-1.756c0.045-0.132,0.142-0.239,0.269-0.296c0.126-0.058,0.271-0.059,0.4-0.004
										c0.239,0.099,0.5,0.02,0.624-0.194c0.124-0.214,0.063-0.481-0.145-0.638c-0.111-0.084-0.183-0.21-0.197-0.349
										s0.03-0.276,0.122-0.381c0.816-0.928,1.867-1.541,3.039-1.774c0.137-0.028,0.282,0.005,0.395,0.088
										c0.113,0.084,0.186,0.211,0.201,0.352C18.044,13.806,18.251,14,18.5,14s0.456-0.194,0.482-0.452
										c0.015-0.141,0.087-0.268,0.201-0.352c0.113-0.084,0.257-0.117,0.395-0.088c1.172,0.233,2.222,0.847,3.039,1.774
										c0.092,0.104,0.136,0.242,0.122,0.381s-0.085,0.265-0.197,0.349c-0.207,0.156-0.268,0.424-0.145,0.638
										c0.123,0.214,0.385,0.293,0.624,0.194c0.128-0.054,0.273-0.054,0.4,0.004c0.127,0.057,0.224,0.164,0.269,0.296
										C23.898,17.36,24,17.935,24,18.5s-0.102,1.14-0.311,1.756c-0.045,0.132-0.142,0.239-0.269,0.296
										c-0.126,0.058-0.272,0.058-0.4,0.004c-0.238-0.098-0.5-0.02-0.624,0.194c-0.124,0.214-0.063,0.481,0.145,0.638
										c0.111,0.084,0.183,0.21,0.197,0.349s-0.03,0.276-0.122,0.381c-0.816,0.928-1.867,1.541-3.039,1.774
										C19.545,23.898,19.513,23.901,19.48,23.901z M18.5,22c0.567,0,1.064,0.32,1.314,0.802c0.647-0.2,1.24-0.549,1.747-1.029
										c-0.282-0.456-0.309-1.04-0.03-1.522c0.279-0.482,0.814-0.757,1.336-0.734C22.956,19.162,23,18.827,23,18.5
										s-0.044-0.662-0.133-1.016c-0.522,0.04-1.058-0.252-1.336-0.734c-0.278-0.482-0.251-1.066,0.03-1.522
										c-0.507-0.48-1.1-0.829-1.747-1.029C19.564,14.68,19.067,15,18.5,15s-1.064-0.32-1.314-0.802
										c-0.647,0.2-1.24,0.549-1.747,1.029c0.282,0.456,0.309,1.04,0.03,1.522c-0.279,0.482-0.797,0.774-1.336,0.734
										C14.044,17.838,14,18.173,14,18.5s0.044,0.662,0.133,1.016c0.54-0.022,1.058,0.252,1.336,0.734
										c0.278,0.482,0.251,1.066-0.03,1.522c0.507,0.48,1.1,0.829,1.747,1.029C17.436,22.32,17.933,22,18.5,22z"/>
								</g>
							</g>
						</g>
						<g>
							<path d="M18.5,21c-1.378,0-2.5-1.121-2.5-2.5s1.122-2.5,2.5-2.5s2.5,1.121,2.5,2.5S19.878,21,18.5,21z M18.5,17
								c-0.827,0-1.5,0.673-1.5,1.5s0.673,1.5,1.5,1.5s1.5-0.673,1.5-1.5S19.327,17,18.5,17z"/>
						</g>
					</g>
				</g>
			</g>
		</g>
		<g>
			<path d="M13.605,24H0.5C0.224,24,0,23.776,0,23.5v-2.402c0-0.041,0.005-0.082,0.015-0.121c0.261-1.044,0.67-2.065,1.889-2.472
				l4.438-1.479c1.043-0.436,1.531-2.162,1.636-2.817C7.213,13.506,6.5,12.449,6.5,11.5c0-0.354-0.105-0.5-0.161-0.527
				c-0.156-0.039-0.244-0.138-0.304-0.287C5.981,10.549,5.5,9.322,5.5,8.5c0-0.041,0.005-0.082,0.015-0.121
				C5.57,8.159,5.723,7.839,6,7.651V5c0-2.088,1.902-5,5-5c3.06,0,3.892,1.569,3.99,2.345C15.508,2.729,16,3.389,16,5v2.651
				c0.277,0.188,0.43,0.508,0.485,0.728C16.495,8.418,16.5,8.459,16.5,8.5c0,0.822-0.481,2.049-0.536,2.186
				c-0.06,0.149-0.188,0.261-0.343,0.3C15.605,11,15.5,11.146,15.5,11.5c0,0.435-0.148,0.912-0.439,1.42
				c-0.138,0.239-0.443,0.32-0.683,0.185c-0.239-0.138-0.322-0.443-0.185-0.683c0.201-0.35,0.307-0.668,0.307-0.922
				c0-0.747,0.309-1.161,0.601-1.357c0.144-0.392,0.373-1.104,0.397-1.567c-0.017-0.039-0.041-0.08-0.057-0.094
				C15.165,8.481,15,8.276,15,8V5c0-1.472-0.473-1.771-0.675-1.9C14.204,3.022,14,2.894,13.97,2.619
				c-0.006-0.06,0.002-0.127,0.022-0.195C13.921,2.027,13.321,1,11,1C8.558,1,7,3.369,7,5v3c0,0.276-0.224,0.5-0.5,0.5
				c0.024,0,0.015,0.034,0.002,0.072c0.023,0.466,0.253,1.179,0.397,1.57C7.191,10.338,7.5,10.753,7.5,11.5
				c0,0.673,0.663,1.573,1.318,2.114C8.934,13.71,9,13.851,9,14c0,0.635-0.577,3.24-2.308,3.962l-4.472,1.492
				C1.512,19.69,1.231,20.259,1,21.16V23h12.605c0.276,0,0.5,0.224,0.5,0.5S13.882,24,13.605,24z"/>
		</g>
	</g>
</g>
<g id="Refresh_2">
</g>
<g id="Time_2">
</g>
<g id="Dollar_2">
</g>
<g id="Euro_2">
</g>
<g id="Pound_2">
</g>
<g id="Bitcoin_2">
</g>
<g id="Global_User_2">
</g>
<g id="Waiting_User_2">
</g>
<g id="Writing_User">
</g>
<g id="Search_User_2">
</g>
<g id="Lock_User_2">
</g>
<g id="Mark_User_2">
</g>
<g id="Share_User_2">
</g>
<g id="Shopping_2">
</g>
<g id="Download_2">
</g>
<g id="Upload_2">
</g>
<g id="User_Statistics_2">
</g>
<g id="User_Defense_2">
</g>
<g id="Car_2">
</g>
<g id="Home_2">
</g>
<g id="Park_2">
</g>
<g id="Recicle_User_2">
</g>
<g id="User_Wifi">
</g>
<g id="Attach_2">
</g>
<g id="Disabled_User_2">
</g>
<g id="User_Card_2">
</g>
<g id="Gaming_2">
</g>
<g id="Cloud_2">
</g>
<g id="Database_2">
</g>
<g id="Copyright_2">
</g>
<g id="No_Copyright_2">
</g>
<g id="Creative_Commun_2">
</g>
<g id="Eco-Friendly_2">
</g>
<g id="Percentage_2">
</g>
<g id="User_Love_2">
</g>
<g id="User_Rate_2">
</g>
<g id="User_Key_2">
</g>
<g id="Sleeping_2">
</g>
</svg>
