<?xml version="1.0" encoding="iso-8859-1"?>
<!-- Generator: Adobe Illustrator 19.2.1, SVG Export Plug-In . SVG Version: 6.00 Build 0)  -->
<svg version="1.1" xmlns="http://www.w3.org/2000/svg" xmlns:xlink="http://www.w3.org/1999/xlink" x="0px" y="0px"
	 viewBox="0 0 24 24" style="enable-background:new 0 0 24 24;" xml:space="preserve">
<g id="Add_User">
</g>
<g id="Remove_User">
</g>
<g id="Delete_User">
</g>
<g id="Done">
</g>
<g id="At_Symbol">
</g>
<g id="Question">
</g>
<g id="Answer">
</g>
<g id="Bring_Up">
</g>
<g id="Bring_Down">
</g>
<g id="Dismiss_User">
</g>
<g id="User_Speed">
</g>
<g id="User_Settings">
</g>
<g id="User_Refresh">
</g>
<g id="User_Time">
</g>
<g id="Dollar">
</g>
<g id="Euro">
</g>
<g id="Pound">
</g>
<g id="Bitcoin">
</g>
<g id="Global_User">
</g>
<g id="Waiting_User">
</g>
<g id="Writing_User_2">
</g>
<g id="Search_User">
</g>
<g id="Lock_User">
</g>
<g id="Mark_User">
</g>
<g id="Share_User">
</g>
<g id="Shopping">
</g>
<g id="User_Download">
</g>
<g id="User_Upload">
</g>
<g id="User_Statistics">
</g>
<g id="User_Defense">
</g>
<g id="User_Car">
</g>
<g id="User_Home">
</g>
<g id="Park">
</g>
<g id="Recicle_User">
</g>
<g id="Wifi">
</g>
<g id="Attach_User">
</g>
<g id="Disabled_User">
</g>
<g id="User_Card">
</g>
<g id="Gaming">
</g>
<g id="User_Cloud">
</g>
<g id="User_Database">
</g>
<g id="Copyright">
</g>
<g id="No_Copyright">
</g>
<g id="Creative_Commun">
</g>
<g id="Eco-Friendly">
</g>
<g id="Percentage">
</g>
<g id="User_Love">
</g>
<g id="User_Place">
</g>
<g id="User_Key">
</g>
<g id="Sleeping">
</g>
<g id="Add_User_2">
</g>
<g id="Remove_User_2">
</g>
<g id="Delete_User_2">
</g>
<g id="Done_2">
</g>
<g id="At_Symbol_2">
</g>
<g id="Question_2">
</g>
<g id="Answer_2">
</g>
<g id="Bring_Up_2">
</g>
<g id="Bring_Down_2">
</g>
<g id="Dismiss_User_2">
</g>
<g id="User_Speed_2">
</g>
<g id="User_Settings_2">
</g>
<g id="Refresh_2">
</g>
<g id="Time_2">
</g>
<g id="Dollar_2">
</g>
<g id="Euro_2">
</g>
<g id="Pound_2">
</g>
<g id="Bitcoin_2">
</g>
<g id="Global_User_2">
</g>
<g id="Waiting_User_2">
</g>
<g id="Writing_User">
</g>
<g id="Search_User_2">
</g>
<g id="Lock_User_2">
</g>
<g id="Mark_User_2">
</g>
<g id="Share_User_2">
</g>
<g id="Shopping_2">
</g>
<g id="Download_2">
</g>
<g id="Upload_2">
</g>
<g id="User_Statistics_2">
	<g>
		<g>
			<g>
				<path d="M23.5,20h-4c-0.276,0-0.5-0.224-0.5-0.5v-4c0-0.276,0.224-0.5,0.5-0.5c2.481,0,4.5,2.019,4.5,4.5
					C24,19.776,23.776,20,23.5,20z M20,19h2.965c-0.221-1.53-1.435-2.744-2.965-2.965V19z"/>
			</g>
			<g>
				<path d="M14.761,24H0.5C0.224,24,0,23.776,0,23.5S0.224,23,0.5,23h14.261c0.276,0,0.5,0.224,0.5,0.5S15.037,24,14.761,24z"/>
			</g>
			<g>
				<path d="M0.5,24C0.224,24,0,23.776,0,23.5v-2.402c0-0.041,0.005-0.082,0.015-0.121c0.262-1.044,0.671-2.065,1.89-2.472
					c0.263-0.087,0.545,0.055,0.633,0.316c0.087,0.263-0.055,0.545-0.316,0.633C1.512,19.689,1.231,20.259,1,21.16v2.34
					C1,23.776,0.776,24,0.5,24z"/>
			</g>
			<g>
				<path d="M2.063,19.479c-0.209,0-0.404-0.133-0.475-0.342c-0.087-0.262,0.055-0.545,0.316-0.633l4.438-1.479
					c0.263-0.086,0.545,0.055,0.633,0.316c0.087,0.262-0.055,0.545-0.316,0.633l-4.438,1.479
					C2.168,19.472,2.115,19.479,2.063,19.479z"/>
			</g>
			<g>
				<path d="M6.5,18c-0.195,0-0.382-0.115-0.462-0.308c-0.105-0.255,0.015-0.548,0.27-0.654C7.533,16.527,8,14.346,8,14
					c0-0.276,0.224-0.5,0.5-0.5S9,13.724,9,14c0,0.635-0.577,3.24-2.308,3.962C6.63,17.987,6.564,18,6.5,18z"/>
			</g>
			<g>
				<path d="M8.5,14.5c-0.112,0-0.226-0.037-0.318-0.114C7.345,13.694,6.5,12.533,6.5,11.5C6.5,11.224,6.724,11,7,11
					s0.5,0.224,0.5,0.5c0,0.673,0.663,1.573,1.318,2.114c0.213,0.176,0.243,0.491,0.067,0.704C8.786,14.438,8.644,14.5,8.5,14.5z"/>
			</g>
			<g>
				<path d="M7,12c-0.276,0-0.5-0.224-0.5-0.5c0-0.354-0.105-0.5-0.16-0.527c-0.269-0.067-0.411-0.332-0.345-0.601
					c0.067-0.268,0.354-0.421,0.626-0.357C6.947,10.097,7.5,10.501,7.5,11.5C7.5,11.776,7.276,12,7,12z"/>
			</g>
			<g>
				<path d="M6.5,11c-0.198,0-0.386-0.119-0.464-0.314C5.98,10.549,5.5,9.322,5.5,8.5C5.5,8.224,5.724,8,6,8s0.5,0.224,0.5,0.5
					c0,0.536,0.335,1.491,0.464,1.814c0.103,0.256-0.021,0.547-0.278,0.649C6.625,10.988,6.562,11,6.5,11z"/>
			</g>
			<g>
				<path d="M6,8.996c-0.042,0-0.085-0.005-0.127-0.016C5.608,8.91,5.448,8.645,5.515,8.379C5.597,8.053,5.896,7.5,6.5,7.5
					C6.776,7.5,7,7.724,7,8c0,0.261-0.2,0.476-0.455,0.498c-0.022,0.03-0.05,0.086-0.062,0.129C6.422,8.849,6.22,8.996,6,8.996z"/>
			</g>
			<g>
				<path d="M6.5,8.5C6.224,8.5,6,8.276,6,8V5c0-0.276,0.224-0.5,0.5-0.5S7,4.724,7,5v3C7,8.276,6.776,8.5,6.5,8.5z"/>
			</g>
			<g>
				<path d="M6.5,5.5C6.224,5.5,6,5.276,6,5c0-2.088,1.902-5,5-5c0.276,0,0.5,0.224,0.5,0.5S11.276,1,11,1C8.559,1,7,3.369,7,5
					C7,5.276,6.776,5.5,6.5,5.5z"/>
			</g>
			<g>
				<path d="M14.5,3C14.224,3,14,2.776,14,2.5C14,2.184,13.491,1,11,1c-0.276,0-0.5-0.224-0.5-0.5S10.724,0,11,0
					c3.281,0,4,1.805,4,2.5C15,2.776,14.776,3,14.5,3z"/>
			</g>
			<g>
				<path d="M15.5,5.5C15.224,5.5,15,5.276,15,5c0-1.472-0.473-1.771-0.675-1.9C14.204,3.022,14,2.894,13.97,2.619
					c-0.017-0.151,0.069-0.365,0.177-0.473c0.195-0.195,0.512-0.195,0.707,0c0.054,0.054,0.093,0.117,0.117,0.185
					C15.496,2.713,16,3.369,16,5C16,5.276,15.776,5.5,15.5,5.5z"/>
			</g>
			<g>
				<path d="M15.5,8.5C15.224,8.5,15,8.276,15,8V5c0-0.276,0.224-0.5,0.5-0.5S16,4.724,16,5v3C16,8.276,15.776,8.5,15.5,8.5z"/>
			</g>
			<g>
				<path d="M16,9c-0.223,0-0.426-0.149-0.483-0.374c-0.016-0.053-0.053-0.125-0.075-0.145c-0.276,0-0.471-0.215-0.471-0.49
					c0-0.276,0.253-0.491,0.529-0.491c0.604,0,0.903,0.553,0.985,0.879c0.066,0.268-0.096,0.539-0.364,0.606
					C16.081,8.995,16.04,9,16,9z"/>
			</g>
			<g>
				<path d="M15.5,11c-0.062,0-0.125-0.012-0.186-0.036c-0.256-0.103-0.381-0.393-0.278-0.649C15.165,9.991,15.5,9.034,15.5,8.5
					C15.5,8.224,15.724,8,16,8s0.5,0.224,0.5,0.5c0,0.822-0.48,2.049-0.536,2.186C15.886,10.881,15.698,11,15.5,11z"/>
			</g>
			<g>
				<path d="M15,12c-0.276,0-0.5-0.224-0.5-0.5c0-0.999,0.553-1.403,0.879-1.485c0.263-0.067,0.539,0.096,0.606,0.364
					c0.066,0.268-0.096,0.539-0.364,0.606C15.605,11,15.5,11.146,15.5,11.5C15.5,11.776,15.276,12,15,12z"/>
			</g>
			<g>
				<path d="M13.5,14.5c-0.144,0-0.286-0.062-0.386-0.182c-0.176-0.213-0.146-0.528,0.067-0.704
					c0.655-0.541,1.318-1.441,1.318-2.114c0-0.276,0.224-0.5,0.5-0.5s0.5,0.224,0.5,0.5c0,1.033-0.845,2.194-1.682,2.886
					C13.726,14.463,13.612,14.5,13.5,14.5z"/>
			</g>
			<g>
				<path d="M14.566,17.268c-0.146,0-0.289-0.063-0.389-0.185C13.29,15.988,13,14.418,13,14c0-0.276,0.224-0.5,0.5-0.5
					S14,13.724,14,14c0,0.308,0.287,1.63,0.955,2.452c0.174,0.215,0.141,0.529-0.073,0.704
					C14.789,17.231,14.678,17.268,14.566,17.268z"/>
			</g>
			<g>
				<path d="M19,24c-2.206,0-4-1.794-4-4s1.794-4,4-4c0.276,0,0.5,0.224,0.5,0.5S19.276,17,19,17c-1.654,0-3,1.346-3,3s1.346,3,3,3
					s3-1.346,3-3c0-0.276,0.224-0.5,0.5-0.5S23,19.724,23,20C23,22.206,21.206,24,19,24z"/>
			</g>
		</g>
	</g>
</g>
<g id="User_Defense_2">
</g>
<g id="Car_2">
</g>
<g id="Home_2">
</g>
<g id="Park_2">
</g>
<g id="Recicle_User_2">
</g>
<g id="User_Wifi">
</g>
<g id="Attach_2">
</g>
<g id="Disabled_User_2">
</g>
<g id="User_Card_2">
</g>
<g id="Gaming_2">
</g>
<g id="Cloud_2">
</g>
<g id="Database_2">
</g>
<g id="Copyright_2">
</g>
<g id="No_Copyright_2">
</g>
<g id="Creative_Commun_2">
</g>
<g id="Eco-Friendly_2">
</g>
<g id="Percentage_2">
</g>
<g id="User_Love_2">
</g>
<g id="User_Rate_2">
</g>
<g id="User_Key_2">
</g>
<g id="Sleeping_2">
</g>
</svg>
