<?xml version="1.0" encoding="iso-8859-1"?>
<!-- Generator: Adobe Illustrator 19.2.1, SVG Export Plug-In . SVG Version: 6.00 Build 0)  -->
<svg version="1.1" xmlns="http://www.w3.org/2000/svg" xmlns:xlink="http://www.w3.org/1999/xlink" x="0px" y="0px"
	 viewBox="0 0 24 24" style="enable-background:new 0 0 24 24;" xml:space="preserve">
<g id="Add_User">
</g>
<g id="Remove_User">
</g>
<g id="Delete_User">
</g>
<g id="Done">
</g>
<g id="At_Symbol">
</g>
<g id="Question">
</g>
<g id="Answer">
</g>
<g id="Bring_Up">
</g>
<g id="Bring_Down">
</g>
<g id="Dismiss_User">
</g>
<g id="User_Speed">
	<g>
		<g>
			<g>
				<path d="M0.5,24c-0.132,0-0.259-0.053-0.353-0.146C0.053,23.76,0,23.633,0,23.5c0-3.123,1.066-4.907,3.258-5.455l3.83-0.958
					l0.348-1.393c-0.966-0.998-1.632-2.347-1.839-3.722c-0.625-0.122-1.121-0.634-1.203-1.287l-0.25-2
					C4.091,8.259,4.224,7.83,4.508,7.507C4.69,7.301,4.924,7.151,5.181,7.07C5.109,6.46,5,5.449,5,5c0-1.93,0.58-3.909,4.84-3.998
					C11.332,0,12.935,0,13.63,0c1.764,0,3.038,0.581,3.788,1.726c0.976,1.49,0.509,2.517-0.054,3.116L16.99,5.217L16.898,7.1
					c0.229,0.087,0.436,0.229,0.6,0.417c0.28,0.321,0.41,0.747,0.357,1.169l-0.25,2c-0.082,0.658-0.586,1.174-1.219,1.29
					c-0.214,1.36-0.876,2.692-1.833,3.68l0.348,1.393l0.926,0.231c0.268,0.067,0.431,0.338,0.364,0.606
					c-0.067,0.268-0.339,0.432-0.606,0.364l-1.217-0.304c-0.179-0.044-0.319-0.185-0.364-0.364l-0.49-1.961
					c-0.044-0.176,0.011-0.362,0.143-0.486c1.01-0.947,1.678-2.335,1.788-3.714c0.021-0.26,0.238-0.46,0.499-0.46h0.163
					c0.049,0,0.098,0.007,0.143,0.021c0.19-0.053,0.337-0.216,0.363-0.42l0.25-2c0.018-0.143-0.024-0.28-0.119-0.388
					c-0.095-0.109-0.227-0.17-0.372-0.171c-0.136-0.001-0.265-0.058-0.358-0.157c-0.093-0.099-0.142-0.231-0.136-0.367L16,4.976
					c0.006-0.124,0.058-0.241,0.146-0.329l0.5-0.5c0.313-0.333,0.599-0.858-0.065-1.873C16.028,1.429,15.036,1,13.63,1
					c-1.025,0-2.223,0.108-3.339,0.907C10.208,1.966,10.107,1.999,10.005,2C6.306,2.037,6,3.44,6,5c0,0.489,0.168,1.925,0.232,2.438
					C6.25,7.58,6.206,7.723,6.111,7.831C6.017,7.938,5.88,8,5.736,8H5.633C5.487,8,5.354,8.06,5.258,8.169
					C5.162,8.278,5.119,8.417,5.137,8.562l0.25,2C5.418,10.812,5.631,11,5.883,11h0.163c0.261,0,0.478,0.2,0.499,0.46
					c0.11,1.378,0.778,2.767,1.788,3.714c0.132,0.124,0.188,0.31,0.143,0.486l-0.49,1.961C7.94,17.8,7.8,17.94,7.621,17.985
					L3.5,19.015c-1.594,0.399-2.393,1.669-2.49,3.984l13.555-0.025c0,0,0,0,0.001,0c0.276,0,0.5,0.223,0.5,0.499
					c0,0.276-0.223,0.5-0.499,0.501L0.5,24C0.5,24,0.5,24,0.5,24z"/>
			</g>
		</g>
		<g>
			<path d="M16.5,24c-0.064,0-0.129-0.012-0.191-0.038c-0.221-0.091-0.346-0.326-0.299-0.56l1.5-7.5
				c0.03-0.153,0.13-0.283,0.271-0.351c0.14-0.068,0.304-0.068,0.443,0.002l1.358,0.679l0.421-3.787
				c0.017-0.15,0.101-0.285,0.228-0.366c0.127-0.081,0.284-0.101,0.428-0.053l3,1c0.258,0.085,0.399,0.361,0.32,0.621l-2,6.5
				c-0.043,0.141-0.146,0.255-0.281,0.313c-0.135,0.06-0.289,0.055-0.42-0.012l-1.605-0.803l-2.755,4.133
				C16.821,23.92,16.663,24,16.5,24z M18.362,16.74l-0.876,4.38l1.598-2.397c0.141-0.209,0.414-0.282,0.64-0.17l1.472,0.736
				l1.683-5.469l-1.95-0.65l-0.432,3.885c-0.018,0.163-0.115,0.306-0.258,0.384c-0.144,0.077-0.317,0.081-0.462,0.008L18.362,16.74z
				"/>
		</g>
	</g>
</g>
<g id="User_Settings">
</g>
<g id="User_Refresh">
</g>
<g id="User_Time">
</g>
<g id="Dollar">
</g>
<g id="Euro">
</g>
<g id="Pound">
</g>
<g id="Bitcoin">
</g>
<g id="Global_User">
</g>
<g id="Waiting_User">
</g>
<g id="Writing_User_2">
</g>
<g id="Search_User">
</g>
<g id="Lock_User">
</g>
<g id="Mark_User">
</g>
<g id="Share_User">
</g>
<g id="Shopping">
</g>
<g id="User_Download">
</g>
<g id="User_Upload">
</g>
<g id="User_Statistics">
</g>
<g id="User_Defense">
</g>
<g id="User_Car">
</g>
<g id="User_Home">
</g>
<g id="Park">
</g>
<g id="Recicle_User">
</g>
<g id="Wifi">
</g>
<g id="Attach_User">
</g>
<g id="Disabled_User">
</g>
<g id="User_Card">
</g>
<g id="Gaming">
</g>
<g id="User_Cloud">
</g>
<g id="User_Database">
</g>
<g id="Copyright">
</g>
<g id="No_Copyright">
</g>
<g id="Creative_Commun">
</g>
<g id="Eco-Friendly">
</g>
<g id="Percentage">
</g>
<g id="User_Love">
</g>
<g id="User_Place">
</g>
<g id="User_Key">
</g>
<g id="Sleeping">
</g>
<g id="Add_User_2">
</g>
<g id="Remove_User_2">
</g>
<g id="Delete_User_2">
</g>
<g id="Done_2">
</g>
<g id="At_Symbol_2">
</g>
<g id="Question_2">
</g>
<g id="Answer_2">
</g>
<g id="Bring_Up_2">
</g>
<g id="Bring_Down_2">
</g>
<g id="Dismiss_User_2">
</g>
<g id="User_Speed_2">
</g>
<g id="User_Settings_2">
</g>
<g id="Refresh_2">
</g>
<g id="Time_2">
</g>
<g id="Dollar_2">
</g>
<g id="Euro_2">
</g>
<g id="Pound_2">
</g>
<g id="Bitcoin_2">
</g>
<g id="Global_User_2">
</g>
<g id="Waiting_User_2">
</g>
<g id="Writing_User">
</g>
<g id="Search_User_2">
</g>
<g id="Lock_User_2">
</g>
<g id="Mark_User_2">
</g>
<g id="Share_User_2">
</g>
<g id="Shopping_2">
</g>
<g id="Download_2">
</g>
<g id="Upload_2">
</g>
<g id="User_Statistics_2">
</g>
<g id="User_Defense_2">
</g>
<g id="Car_2">
</g>
<g id="Home_2">
</g>
<g id="Park_2">
</g>
<g id="Recicle_User_2">
</g>
<g id="User_Wifi">
</g>
<g id="Attach_2">
</g>
<g id="Disabled_User_2">
</g>
<g id="User_Card_2">
</g>
<g id="Gaming_2">
</g>
<g id="Cloud_2">
</g>
<g id="Database_2">
</g>
<g id="Copyright_2">
</g>
<g id="No_Copyright_2">
</g>
<g id="Creative_Commun_2">
</g>
<g id="Eco-Friendly_2">
</g>
<g id="Percentage_2">
</g>
<g id="User_Love_2">
</g>
<g id="User_Rate_2">
</g>
<g id="User_Key_2">
</g>
<g id="Sleeping_2">
</g>
</svg>
