<?xml version="1.0" encoding="iso-8859-1"?>
<!-- Generator: Adobe Illustrator 19.2.1, SVG Export Plug-In . SVG Version: 6.00 Build 0)  -->
<svg version="1.1" xmlns="http://www.w3.org/2000/svg" xmlns:xlink="http://www.w3.org/1999/xlink" x="0px" y="0px"
	 viewBox="0 0 24 24" style="enable-background:new 0 0 24 24;" xml:space="preserve">
<g id="Add_Users">
</g>
<g id="Remove_Users">
</g>
<g id="Delete_Users">
</g>
<g id="Done_3">
</g>
<g id="At_Symbol_3">
</g>
<g id="Question_3">
</g>
<g id="Answer_3">
</g>
<g id="Bring_Up_3">
</g>
<g id="Bring_Down_3">
</g>
<g id="Dismiss_Users">
</g>
<g id="Users_Speed_3">
</g>
<g id="Users_Settings">
</g>
<g id="Refresh_Users">
</g>
<g id="Time_3">
</g>
<g id="Dollar_3">
</g>
<g id="Euro_3">
</g>
<g id="Pound_3">
</g>
<g id="Bitcoin_3">
</g>
<g id="Global_Users">
</g>
<g id="Waiting_Users">
</g>
<g id="Writing_Users">
</g>
<g id="Search_Users">
</g>
<g id="Lock_Users">
</g>
<g id="Mark_Users">
</g>
<g id="Share_Users">
</g>
<g id="Shopping_3">
</g>
<g id="Download_3">
</g>
<g id="Upload_3">
</g>
<g id="Users_Statistics">
</g>
<g id="Users_Defense">
</g>
<g id="Car_3">
</g>
<g id="Home_3">
</g>
<g id="Park_3">
</g>
<g id="Recicle_Users">
</g>
<g id="Wifi_3">
	<g>
		<g>
			<g>
				<path d="M20.543,21.586c-0.128,0-0.256-0.049-0.354-0.146c-0.584-0.583-1.536-0.585-2.122,0c-0.195,0.195-0.512,0.195-0.708,0
					c-0.195-0.195-0.195-0.512,0-0.707c0.975-0.974,2.561-0.976,3.536,0c0.195,0.195,0.195,0.512,0,0.707
					C20.799,21.537,20.671,21.586,20.543,21.586z"/>
			</g>
			<g>
				<path d="M21.957,20.172c-0.128,0-0.256-0.049-0.354-0.146c-1.364-1.363-3.585-1.363-4.95,0c-0.195,0.195-0.512,0.195-0.707,0
					s-0.195-0.512,0-0.707c1.754-1.753,4.608-1.755,6.364,0c0.195,0.195,0.195,0.512,0,0.707
					C22.213,20.123,22.085,20.172,21.957,20.172z"/>
			</g>
			<g>
				<path d="M23.371,18.758c-0.128,0-0.256-0.049-0.354-0.146c-2.144-2.144-5.632-2.145-7.778,0c-0.195,0.195-0.512,0.195-0.707,0
					s-0.195-0.512,0-0.707c1.228-1.228,2.86-1.903,4.596-1.903c1.736,0,3.368,0.676,4.596,1.903c0.195,0.195,0.195,0.512,0,0.707
					C23.627,18.709,23.499,18.758,23.371,18.758z"/>
			</g>
			<g>
				<path d="M19.129,24c-0.551,0-1-0.448-1-1s0.449-1,1-1s1,0.448,1,1S19.68,24,19.129,24z M19.129,23
					C19.129,23,19.129,23.001,19.129,23h0.5H19.129z"/>
			</g>
		</g>
		<g>
			<g>
				<path d="M0.629,17.998c-0.276,0-0.5-0.224-0.5-0.5c0-1.97,1.334-3.68,3.245-4.157l2.755-0.688l0.221-0.884
					c-0.686-0.73-1.163-1.694-1.33-2.683C4.547,8.957,4.18,8.552,4.117,8.045L3.932,6.565c-0.044-0.352,0.065-0.706,0.3-0.973
					C4.358,5.45,4.514,5.341,4.686,5.269C4.633,4.811,4.563,4.144,4.563,3.825c0-1.397,0.421-3.003,3.667-3.084
					C9.356,0,10.551,0,11.073,0c1.351,0,2.329,0.449,2.909,1.334c0.767,1.173,0.394,1.987-0.054,2.465l-0.244,0.243l-0.061,1.251
					c0.154,0.072,0.293,0.177,0.408,0.308c0.23,0.265,0.338,0.617,0.294,0.966l-0.185,1.478c-0.06,0.476-0.385,0.86-0.814,1.014
					c-0.168,1.032-0.672,2.033-1.402,2.778l0.204,0.816l2.755,0.688c0.574,0.144,1.103,0.399,1.572,0.76
					c0.219,0.169,0.26,0.482,0.092,0.701c-0.169,0.218-0.483,0.259-0.701,0.092c-0.359-0.276-0.765-0.473-1.205-0.582l-3.046-0.762
					c-0.179-0.045-0.319-0.185-0.364-0.364l-0.347-1.389c-0.045-0.18,0.013-0.37,0.151-0.493c0.76-0.681,1.261-1.695,1.342-2.713
					c0.021-0.261,0.238-0.461,0.499-0.461c0.156,0,0.258-0.09,0.273-0.21l0.185-1.478c0.011-0.092-0.03-0.155-0.056-0.185
					c-0.027-0.03-0.085-0.082-0.18-0.083c-0.135-0.002-0.265-0.059-0.357-0.157c-0.093-0.1-0.142-0.231-0.135-0.367l0.09-1.85
					c0.006-0.124,0.058-0.241,0.146-0.329l0.37-0.369c0.208-0.222,0.373-0.551-0.065-1.221C12.762,1.297,12.064,1,11.073,1
					c-0.484,0-1.491,0-2.392,0.645C8.597,1.705,8.498,1.737,8.395,1.738c-2.831,0.028-2.831,1.17-2.831,2.087
					c0,0.355,0.123,1.41,0.17,1.786c0.018,0.143-0.026,0.285-0.121,0.394C5.518,6.112,5.381,6.174,5.238,6.174
					c-0.17,0-0.229,0.051-0.256,0.081C4.956,6.285,4.913,6.35,4.924,6.441l0.185,1.479C5.124,8.04,5.226,8.13,5.346,8.13h0.121
					c0.261,0,0.478,0.2,0.499,0.461c0.078,0.986,0.557,1.98,1.281,2.66c0.132,0.124,0.187,0.31,0.143,0.485l-0.363,1.449
					c-0.044,0.18-0.185,0.319-0.364,0.364l-3.046,0.762c-1.464,0.365-2.487,1.676-2.487,3.187
					C1.129,17.774,0.905,17.998,0.629,17.998z"/>
			</g>
		</g>
		<g>
			<path d="M22.134,14.997c-0.106,0-0.213-0.034-0.304-0.104c-0.359-0.276-0.765-0.473-1.205-0.582l-3.046-0.762
				c-0.179-0.045-0.319-0.185-0.364-0.364l-0.348-1.389c-0.045-0.18,0.013-0.37,0.151-0.493c0.759-0.681,1.261-1.695,1.342-2.713
				c0.021-0.261,0.238-0.461,0.499-0.461c0.156,0,0.258-0.09,0.273-0.21l0.185-1.478c0.011-0.092-0.03-0.155-0.056-0.185
				c-0.027-0.03-0.085-0.082-0.18-0.083c-0.135-0.002-0.265-0.059-0.357-0.157c-0.093-0.1-0.142-0.231-0.135-0.367l0.09-1.85
				c0.006-0.124,0.058-0.241,0.146-0.329l0.37-0.369c0.208-0.222,0.373-0.551-0.065-1.221C18.746,1.297,18.049,1,17.057,1
				c-0.419,0-0.974,0.024-1.544,0.218c-0.261,0.088-0.544-0.051-0.634-0.313c-0.088-0.262,0.052-0.545,0.313-0.634
				C15.901,0.03,16.561,0,17.057,0c1.351,0,2.329,0.449,2.909,1.334c0.767,1.173,0.394,1.987-0.054,2.465l-0.244,0.243l-0.061,1.251
				c0.154,0.072,0.293,0.177,0.408,0.308c0.23,0.265,0.338,0.617,0.294,0.966l-0.185,1.478c-0.06,0.476-0.385,0.86-0.814,1.014
				c-0.168,1.032-0.672,2.033-1.402,2.778l0.204,0.816l2.755,0.688c0.574,0.144,1.103,0.399,1.572,0.76
				c0.219,0.169,0.26,0.482,0.092,0.701C22.433,14.93,22.284,14.997,22.134,14.997z"/>
		</g>
	</g>
</g>
<g id="Attach_3">
</g>
<g id="Disabled_Users">
</g>
<g id="Users_Card">
</g>
<g id="Gaming_3">
</g>
<g id="Cloud_3">
</g>
<g id="Database_3">
</g>
<g id="Copyright_3">
</g>
<g id="No_Copzright_3">
</g>
<g id="Creative_Commun_3">
</g>
<g id="Eco-Friendly_3">
</g>
<g id="Percentage_3">
</g>
<g id="Users_Love">
</g>
<g id="Users_Place">
</g>
<g id="Users_Key">
</g>
<g id="Sleeping_3">
</g>
</svg>
