<?xml version="1.0" encoding="iso-8859-1"?>
<!-- Generator: Adobe Illustrator 19.2.1, SVG Export Plug-In . SVG Version: 6.00 Build 0)  -->
<svg version="1.1" xmlns="http://www.w3.org/2000/svg" xmlns:xlink="http://www.w3.org/1999/xlink" x="0px" y="0px"
	 viewBox="0 0 24 24" style="enable-background:new 0 0 24 24;" xml:space="preserve">
<g id="Add_User">
</g>
<g id="Remove_User">
</g>
<g id="Delete_User">
</g>
<g id="Done">
</g>
<g id="At_Symbol">
</g>
<g id="Question">
</g>
<g id="Answer">
</g>
<g id="Bring_Up">
</g>
<g id="Bring_Down">
</g>
<g id="Dismiss_User">
</g>
<g id="User_Speed">
</g>
<g id="User_Settings">
</g>
<g id="User_Refresh">
</g>
<g id="User_Time">
</g>
<g id="Dollar">
</g>
<g id="Euro">
</g>
<g id="Pound">
</g>
<g id="Bitcoin">
</g>
<g id="Global_User">
</g>
<g id="Waiting_User">
</g>
<g id="Writing_User_2">
</g>
<g id="Search_User">
</g>
<g id="Lock_User">
</g>
<g id="Mark_User">
</g>
<g id="Share_User">
</g>
<g id="Shopping">
</g>
<g id="User_Download">
</g>
<g id="User_Upload">
</g>
<g id="User_Statistics">
</g>
<g id="User_Defense">
</g>
<g id="User_Car">
</g>
<g id="User_Home">
</g>
<g id="Park">
</g>
<g id="Recicle_User">
</g>
<g id="Wifi">
	<g>
		<g>
			<g>
				<path d="M20.543,21.586c-0.128,0-0.256-0.049-0.354-0.146c-0.584-0.584-1.536-0.585-2.122,0c-0.195,0.195-0.512,0.195-0.707,0
					s-0.195-0.512,0-0.707c0.975-0.974,2.561-0.975,3.536,0c0.195,0.195,0.195,0.512,0,0.707
					C20.799,21.537,20.671,21.586,20.543,21.586z"/>
			</g>
			<g>
				<path d="M21.957,20.171c-0.128,0-0.256-0.049-0.354-0.146c-1.364-1.364-3.585-1.365-4.95,0c-0.195,0.195-0.512,0.195-0.707,0
					s-0.195-0.512,0-0.707c1.756-1.755,4.61-1.754,6.364,0c0.195,0.195,0.195,0.512,0,0.707
					C22.213,20.123,22.085,20.171,21.957,20.171z"/>
			</g>
			<g>
				<path d="M23.371,18.757c-0.128,0-0.256-0.049-0.354-0.146C21.979,17.572,20.598,17,19.129,17c-1.469,0-2.851,0.572-3.889,1.611
					c-0.195,0.195-0.512,0.195-0.707,0s-0.195-0.512,0-0.707C15.76,16.676,17.393,16,19.129,16c1.736,0,3.368,0.676,4.596,1.904
					c0.195,0.195,0.195,0.512,0,0.707C23.627,18.708,23.499,18.757,23.371,18.757z"/>
			</g>
			<g>
				<path d="M19.129,24c-0.551,0-1-0.449-1-1s0.449-1,1-1s1,0.449,1,1S19.68,24,19.129,24z M19.129,23
					C19.129,23,19.129,23,19.129,23l0.5,0L19.129,23z"/>
			</g>
		</g>
		<g>
			<g>
				<path d="M0.629,24c-0.132,0-0.26-0.053-0.354-0.146S0.129,23.633,0.129,23.5c0-3.123,1.065-4.907,3.258-5.455l3.83-0.958
					l0.348-1.393c-0.967-0.998-1.632-2.348-1.839-3.722c-0.625-0.122-1.121-0.634-1.203-1.287l-0.25-2
					C4.22,8.259,4.353,7.83,4.637,7.507C4.819,7.301,5.052,7.151,5.309,7.07C5.238,6.46,5.129,5.449,5.129,5
					c0-1.93,0.58-3.909,4.84-3.998C11.461,0,13.063,0,13.759,0c1.763,0,3.038,0.581,3.788,1.726c0.976,1.49,0.509,2.517-0.054,3.116
					l-0.374,0.375L17.027,7.1c0.229,0.087,0.436,0.229,0.601,0.417c0.28,0.321,0.41,0.747,0.357,1.169l-0.25,2
					c-0.076,0.611-0.516,1.099-1.084,1.258c-0.208,1.431-0.91,2.824-1.935,3.839l0.059,0.236c0.067,0.268-0.096,0.539-0.364,0.606
					c-0.267,0.066-0.54-0.096-0.606-0.364l-0.13-0.52c-0.045-0.18,0.013-0.37,0.151-0.493c1.06-0.951,1.761-2.368,1.874-3.789
					C15.72,11.2,15.937,11,16.197,11c0.3,0,0.514-0.188,0.545-0.438l0.25-2c0.018-0.142-0.024-0.28-0.119-0.388
					c-0.095-0.109-0.228-0.17-0.373-0.172c-0.136-0.001-0.265-0.059-0.358-0.157c-0.093-0.099-0.142-0.231-0.135-0.367l0.122-2.502
					c0.006-0.124,0.058-0.241,0.146-0.329l0.5-0.5c0.313-0.333,0.599-0.858-0.065-1.873C16.157,1.429,15.164,1,13.759,1
					c-1.025,0-2.223,0.108-3.339,0.907C10.336,1.966,10.236,1.999,10.134,2C6.435,2.037,6.129,3.44,6.129,5
					c0,0.489,0.167,1.925,0.232,2.438C6.379,7.58,6.334,7.723,6.24,7.831C6.145,7.938,6.008,8,5.865,8H5.762
					C5.616,8,5.483,8.06,5.387,8.169c-0.096,0.109-0.14,0.249-0.122,0.394l0.25,2C5.546,10.812,5.76,11,6.012,11h0.163
					c0.261,0,0.478,0.201,0.499,0.46c0.109,1.378,0.778,2.767,1.788,3.714c0.132,0.124,0.188,0.31,0.143,0.486l-0.49,1.961
					C8.069,17.8,7.929,17.94,7.75,17.985l-4.121,1.03c-1.594,0.399-2.393,1.67-2.49,3.985l15.54-0.002c0.276,0,0.5,0.224,0.5,0.5
					c0,0.276-0.224,0.5-0.5,0.5L0.629,24z"/>
			</g>
		</g>
	</g>
</g>
<g id="Attach_User">
</g>
<g id="Disabled_User">
</g>
<g id="User_Card">
</g>
<g id="Gaming">
</g>
<g id="User_Cloud">
</g>
<g id="User_Database">
</g>
<g id="Copyright">
</g>
<g id="No_Copyright">
</g>
<g id="Creative_Commun">
</g>
<g id="Eco-Friendly">
</g>
<g id="Percentage">
</g>
<g id="User_Love">
</g>
<g id="User_Place">
</g>
<g id="User_Key">
</g>
<g id="Sleeping">
</g>
<g id="Add_User_2">
</g>
<g id="Remove_User_2">
</g>
<g id="Delete_User_2">
</g>
<g id="Done_2">
</g>
<g id="At_Symbol_2">
</g>
<g id="Question_2">
</g>
<g id="Answer_2">
</g>
<g id="Bring_Up_2">
</g>
<g id="Bring_Down_2">
</g>
<g id="Dismiss_User_2">
</g>
<g id="User_Speed_2">
</g>
<g id="User_Settings_2">
</g>
<g id="Refresh_2">
</g>
<g id="Time_2">
</g>
<g id="Dollar_2">
</g>
<g id="Euro_2">
</g>
<g id="Pound_2">
</g>
<g id="Bitcoin_2">
</g>
<g id="Global_User_2">
</g>
<g id="Waiting_User_2">
</g>
<g id="Writing_User">
</g>
<g id="Search_User_2">
</g>
<g id="Lock_User_2">
</g>
<g id="Mark_User_2">
</g>
<g id="Share_User_2">
</g>
<g id="Shopping_2">
</g>
<g id="Download_2">
</g>
<g id="Upload_2">
</g>
<g id="User_Statistics_2">
</g>
<g id="User_Defense_2">
</g>
<g id="Car_2">
</g>
<g id="Home_2">
</g>
<g id="Park_2">
</g>
<g id="Recicle_User_2">
</g>
<g id="User_Wifi">
</g>
<g id="Attach_2">
</g>
<g id="Disabled_User_2">
</g>
<g id="User_Card_2">
</g>
<g id="Gaming_2">
</g>
<g id="Cloud_2">
</g>
<g id="Database_2">
</g>
<g id="Copyright_2">
</g>
<g id="No_Copyright_2">
</g>
<g id="Creative_Commun_2">
</g>
<g id="Eco-Friendly_2">
</g>
<g id="Percentage_2">
</g>
<g id="User_Love_2">
</g>
<g id="User_Rate_2">
</g>
<g id="User_Key_2">
</g>
<g id="Sleeping_2">
</g>
</svg>
