<?xml version="1.0" encoding="iso-8859-1"?>
<!-- Generator: Adobe Illustrator 19.2.1, SVG Export Plug-In . SVG Version: 6.00 Build 0)  -->
<svg version="1.1" xmlns="http://www.w3.org/2000/svg" xmlns:xlink="http://www.w3.org/1999/xlink" x="0px" y="0px"
	 viewBox="0 0 24 24" style="enable-background:new 0 0 24 24;" xml:space="preserve">
<g id="Add_User">
</g>
<g id="Remove_User">
</g>
<g id="Delete_User">
</g>
<g id="Done">
</g>
<g id="At_Symbol">
</g>
<g id="Question">
</g>
<g id="Answer">
</g>
<g id="Bring_Up">
</g>
<g id="Bring_Down">
</g>
<g id="Dismiss_User">
</g>
<g id="User_Speed">
</g>
<g id="User_Settings">
</g>
<g id="User_Refresh">
</g>
<g id="User_Time">
</g>
<g id="Dollar">
</g>
<g id="Euro">
</g>
<g id="Pound">
</g>
<g id="Bitcoin">
</g>
<g id="Global_User">
</g>
<g id="Waiting_User">
</g>
<g id="Writing_User_2">
</g>
<g id="Search_User">
</g>
<g id="Lock_User">
</g>
<g id="Mark_User">
</g>
<g id="Share_User">
</g>
<g id="Shopping">
</g>
<g id="User_Download">
</g>
<g id="User_Upload">
</g>
<g id="User_Statistics">
</g>
<g id="User_Defense">
</g>
<g id="User_Car">
</g>
<g id="User_Home">
</g>
<g id="Park">
</g>
<g id="Recicle_User">
</g>
<g id="Wifi">
</g>
<g id="Attach_User">
</g>
<g id="Disabled_User">
</g>
<g id="User_Card">
</g>
<g id="Gaming">
</g>
<g id="User_Cloud">
</g>
<g id="User_Database">
</g>
<g id="Copyright">
</g>
<g id="No_Copyright">
</g>
<g id="Creative_Commun">
</g>
<g id="Eco-Friendly">
</g>
<g id="Percentage">
</g>
<g id="User_Love">
</g>
<g id="User_Place">
</g>
<g id="User_Key">
</g>
<g id="Sleeping">
</g>
<g id="Add_User_2">
</g>
<g id="Remove_User_2">
</g>
<g id="Delete_User_2">
</g>
<g id="Done_2">
</g>
<g id="At_Symbol_2">
</g>
<g id="Question_2">
</g>
<g id="Answer_2">
</g>
<g id="Bring_Up_2">
</g>
<g id="Bring_Down_2">
</g>
<g id="Dismiss_User_2">
</g>
<g id="User_Speed_2">
</g>
<g id="User_Settings_2">
</g>
<g id="Refresh_2">
</g>
<g id="Time_2">
</g>
<g id="Dollar_2">
</g>
<g id="Euro_2">
</g>
<g id="Pound_2">
</g>
<g id="Bitcoin_2">
</g>
<g id="Global_User_2">
</g>
<g id="Waiting_User_2">
</g>
<g id="Writing_User">
	<g>
		<g>
			<g>
				<g>
					<path d="M15.5,24h-2c-0.276,0-0.5-0.224-0.5-0.5v-2c0-0.133,0.053-0.26,0.146-0.354l8-8c0.195-0.195,0.512-0.195,0.707,0l2,2
						c0.195,0.195,0.195,0.512,0,0.707l-8,8C15.76,23.947,15.633,24,15.5,24z M14,23h1.293l7.5-7.5L21.5,14.207l-7.5,7.5V23z"/>
				</g>
				<g>
					<g>
						<path d="M11.5,24h-11C0.224,24,0,23.776,0,23.5v-2.402c0-0.041,0.005-0.082,0.015-0.121c0.261-1.044,0.67-2.065,1.889-2.472
							l4.438-1.479c1.043-0.436,1.531-2.162,1.636-2.817C7.213,13.506,6.5,12.449,6.5,11.5c0-0.354-0.105-0.5-0.161-0.527
							c-0.156-0.039-0.244-0.138-0.304-0.287C5.981,10.549,5.5,9.322,5.5,8.5c0-0.041,0.005-0.082,0.015-0.121
							C5.57,8.159,5.723,7.839,6,7.651V5c0-2.088,1.902-5,5-5c3.06,0,3.892,1.569,3.99,2.345C15.508,2.729,16,3.389,16,5v2.651
							c0.277,0.188,0.43,0.508,0.485,0.728C16.495,8.418,16.5,8.459,16.5,8.5c0,0.822-0.481,2.049-0.536,2.186
							c-0.06,0.149-0.188,0.261-0.343,0.3C15.605,11,15.5,11.146,15.5,11.5c0,0.949-0.713,2.006-1.478,2.708
							c0.09,0.565,0.465,1.939,1.274,2.591c0.215,0.174,0.249,0.488,0.076,0.703c-0.173,0.217-0.487,0.25-0.703,0.076
							C13.4,16.556,13,14.492,13,14c0-0.149,0.066-0.29,0.182-0.386c0.655-0.541,1.318-1.441,1.318-2.114
							c0-0.747,0.309-1.161,0.601-1.357c0.144-0.392,0.373-1.104,0.397-1.567c-0.017-0.039-0.041-0.08-0.057-0.094
							C15.165,8.481,15,8.276,15,8V5c0-1.472-0.473-1.771-0.675-1.9C14.204,3.022,14,2.894,13.97,2.619
							c-0.006-0.06,0.002-0.127,0.022-0.195C13.921,2.027,13.321,1,11,1C8.558,1,7,3.369,7,5v3c0,0.276-0.224,0.5-0.5,0.5
							c0.024,0,0.015,0.034,0.002,0.072c0.023,0.466,0.253,1.179,0.397,1.57C7.191,10.338,7.5,10.753,7.5,11.5
							c0,0.673,0.663,1.573,1.318,2.114C8.934,13.71,9,13.851,9,14c0,0.635-0.577,3.24-2.308,3.962l-4.472,1.492
							C1.512,19.69,1.231,20.259,1,21.16V23h10.5c0.276,0,0.5,0.224,0.5,0.5S11.776,24,11.5,24z"/>
					</g>
				</g>
				<g>
					<path d="M21.5,18c-0.128,0-0.256-0.049-0.354-0.146l-2-2c-0.195-0.195-0.195-0.512,0-0.707s0.512-0.195,0.707,0l2,2
						c0.195,0.195,0.195,0.512,0,0.707C21.756,17.951,21.628,18,21.5,18z"/>
				</g>
			</g>
		</g>
	</g>
</g>
<g id="Search_User_2">
</g>
<g id="Lock_User_2">
</g>
<g id="Mark_User_2">
</g>
<g id="Share_User_2">
</g>
<g id="Shopping_2">
</g>
<g id="Download_2">
</g>
<g id="Upload_2">
</g>
<g id="User_Statistics_2">
</g>
<g id="User_Defense_2">
</g>
<g id="Car_2">
</g>
<g id="Home_2">
</g>
<g id="Park_2">
</g>
<g id="Recicle_User_2">
</g>
<g id="User_Wifi">
</g>
<g id="Attach_2">
</g>
<g id="Disabled_User_2">
</g>
<g id="User_Card_2">
</g>
<g id="Gaming_2">
</g>
<g id="Cloud_2">
</g>
<g id="Database_2">
</g>
<g id="Copyright_2">
</g>
<g id="No_Copyright_2">
</g>
<g id="Creative_Commun_2">
</g>
<g id="Eco-Friendly_2">
</g>
<g id="Percentage_2">
</g>
<g id="User_Love_2">
</g>
<g id="User_Rate_2">
</g>
<g id="User_Key_2">
</g>
<g id="Sleeping_2">
</g>
</svg>
