<?xml version="1.0" encoding="iso-8859-1"?>
<!-- Generator: Adobe Illustrator 19.2.1, SVG Export Plug-In . SVG Version: 6.00 Build 0)  -->
<svg version="1.1" xmlns="http://www.w3.org/2000/svg" xmlns:xlink="http://www.w3.org/1999/xlink" x="0px" y="0px"
	 viewBox="0 0 24 24" style="enable-background:new 0 0 24 24;" xml:space="preserve">
<g id="Egg_1_">
</g>
<g id="Easter_Egg_1_1_">
</g>
<g id="Easter_Egg_2_1_">
</g>
<g id="Easter_Egg_3_1_">
</g>
<g id="Eggs_1_1_">
</g>
<g id="Eggs_2_1_">
</g>
<g id="Bunny_1_">
</g>
<g id="Sheep_1_">
</g>
<g id="Bell_Alarm">
</g>
<g id="Calendar">
</g>
<g id="Tulip_1_">
</g>
<g id="Chicken_1_">
</g>
<g id="Chicken_2_1_">
</g>
<g id="Baguette_1_">
	<g id="Baguette">
		<g>
			<path d="M4.084,23.974c-1.205,0-2.204-0.378-2.941-1.123c-1.718-1.737-1.421-4.823,0.834-8.689
				c3.531-6.053,11.584-13.36,17.076-14.08c1.598-0.211,2.876,0.147,3.798,1.063c1.104,1.096,1.395,2.774,0.84,4.851
				c-1.714,6.413-11.312,16.013-17.706,17.71C5.307,23.884,4.671,23.974,4.084,23.974z M19.896,1.023
				c-0.227,0-0.465,0.017-0.714,0.049C14.501,1.687,6.559,8.292,2.84,14.665c-1.162,1.992-2.835,5.612-0.986,7.482
				c0.842,0.85,2.145,1.049,3.875,0.59c6.138-1.629,15.35-10.845,16.996-17.001c0.464-1.735,0.27-3.042-0.578-3.883l0,0
				C21.59,1.301,20.835,1.023,19.896,1.023z"/>
		</g>
		<g>
			<path d="M8.499,15.999c-0.274,0-0.498-0.222-0.5-0.496c-0.008-1.087-1.267-2.005-2.75-2.005c-0.992,0-1.912,0.442-2.4,1.155
				c-0.157,0.226-0.467,0.287-0.695,0.129c-0.228-0.156-0.286-0.467-0.13-0.695c0.672-0.979,1.908-1.588,3.225-1.588
				c2.056,0,3.738,1.344,3.75,2.997c0.002,0.276-0.22,0.502-0.496,0.504C8.501,15.999,8.5,15.999,8.499,15.999z"/>
		</g>
		<g>
			<path d="M17.562,6.999c-0.274,0-0.498-0.221-0.5-0.496c-0.008-1.067-1.432-2.004-3.047-2.004c-1.269,0-2.162,0.236-2.812,0.742
				c-0.218,0.168-0.533,0.13-0.702-0.087c-0.169-0.218-0.13-0.532,0.087-0.702c0.834-0.65,1.923-0.953,3.426-0.953
				c2.181,0,4.035,1.372,4.047,2.996c0.002,0.276-0.22,0.502-0.496,0.504C17.564,6.999,17.563,6.999,17.562,6.999z"/>
		</g>
		<g>
			<path d="M13.499,10.999c-0.274,0-0.498-0.221-0.5-0.496c-0.008-1.067-1.444-2.004-3.073-2.004c-1.513,0-2.506,0.284-3.125,0.894
				C6.611,9.596,6.264,9.639,6.062,9.451C5.859,9.263,5.816,8.979,6.004,8.776l0.095-0.097c0.817-0.805,2.034-1.181,3.827-1.181
				c2.196,0,4.062,1.372,4.073,2.996c0.002,0.276-0.22,0.502-0.496,0.504C13.501,10.999,13.5,10.999,13.499,10.999z"/>
		</g>
	</g>
</g>
<g id="Ham_1_">
</g>
<g id="Bell_2">
</g>
<g id="Bell_3">
</g>
<g id="Bell_4">
</g>
<g id="Easter_celebration">
</g>
<g id="Egg_painting">
</g>
<g id="Easter_willow">
</g>
<g id="Daffodil">
</g>
<g id="Easter_message">
</g>
<g id="Bunny_2">
</g>
<g id="Chicken_3">
</g>
<g id="Tulip_2">
</g>
<g id="Easter_basket">
</g>
<g id="Bread_and_wine">
</g>
<g id="Sheep_2">
</g>
<g id="Candle_Light">
</g>
</svg>
