<?xml version="1.0" encoding="iso-8859-1"?>
<!-- Generator: Adobe Illustrator 19.2.1, SVG Export Plug-In . SVG Version: 6.00 Build 0)  -->
<svg version="1.1" xmlns="http://www.w3.org/2000/svg" xmlns:xlink="http://www.w3.org/1999/xlink" x="0px" y="0px"
	 viewBox="0 0 24 24" style="enable-background:new 0 0 24 24;" xml:space="preserve">
<g id="Egg_1_">
</g>
<g id="Easter_Egg_1_1_">
</g>
<g id="Easter_Egg_2_1_">
</g>
<g id="Easter_Egg_3_1_">
</g>
<g id="Eggs_1_1_">
</g>
<g id="Eggs_2_1_">
</g>
<g id="Bunny_1_">
</g>
<g id="Sheep_1_">
</g>
<g id="Bell_Alarm">
	<g id="Bell">
		<g>
			<path d="M5,22c-1.654,0-3-1.346-3-3c0-1.134,0.636-2.157,1.658-2.672c0.244-0.125,0.546-0.026,0.671,0.222
				c0.124,0.247,0.025,0.547-0.222,0.671C3.425,17.565,3,18.247,3,19c0,1.103,0.897,2,2,2c0.754,0,1.436-0.424,1.779-1.107
				c0.124-0.249,0.424-0.346,0.671-0.222c0.247,0.125,0.346,0.425,0.222,0.671C7.157,21.365,6.134,22,5,22z"/>
		</g>
		<g>
			<path d="M17.5,9c-0.149,0-0.298-0.067-0.396-0.195c-0.169-0.219-0.129-0.533,0.09-0.701C19.981,5.955,22.979,3.19,23,2.5
				C23,1.407,22.594,1,21.5,1c-0.69,0.021-3.455,3.018-5.604,5.805c-0.169,0.22-0.481,0.26-0.702,0.091
				c-0.219-0.168-0.259-0.482-0.091-0.701C16.225,4.742,19.996,0,21.5,0C23.159,0,24,0.841,24,2.5c0,1.504-4.741,5.276-6.194,6.396
				C17.714,8.966,17.606,9,17.5,9z"/>
		</g>
		<g>
			<path d="M11.5,24C9.995,24,0,14.005,0,12.5c0-0.398,0.137-0.741,0.395-0.992c0.586-0.571,1.648-0.543,2.588-0.518
				C3.162,10.995,3.336,11,3.5,11c0.578,0,0.99-0.44,1.949-1.526c0.441-0.499,0.989-1.12,1.697-1.828
				c0.949-0.949,2.474-2.148,4.348-2.468c1.924-0.326,3.726,0.333,5.359,1.968c2.882,2.882,2.695,6.511-0.5,9.707
				c-0.709,0.709-1.33,1.258-1.829,1.699C13.44,19.51,13,19.922,13,20.5c0,0.164,0.005,0.338,0.01,0.518
				c0.025,0.938,0.054,2.001-0.518,2.588C12.241,23.864,11.898,24,11.5,24z M2.393,11.98c-0.542,0-1.092,0.041-1.301,0.244
				C1.049,12.266,1,12.335,1,12.5c0.279,1.261,9.239,10.221,10.533,10.502c0.132-0.002,0.201-0.052,0.242-0.094
				c0.277-0.285,0.253-1.197,0.234-1.864C12.005,20.856,12,20.672,12,20.5c0-1.052,0.701-1.671,1.862-2.697
				c0.488-0.432,1.098-0.97,1.784-1.657c1.642-1.642,3.89-4.903,0.5-8.293c-1.391-1.392-2.903-1.957-4.484-1.689
				C10.048,6.44,8.7,7.507,7.854,8.354C7.168,9.04,6.631,9.647,6.199,10.136C5.172,11.298,4.552,12,3.5,12
				c-0.172,0-0.355-0.005-0.545-0.01C2.779,11.985,2.587,11.98,2.393,11.98z"/>
		</g>
		<g>
			<path d="M3.597,13.999c-0.271,0-0.493-0.216-0.5-0.488c-0.007-0.276,0.212-0.505,0.488-0.512c1.449-0.035,2.292-0.989,3.36-2.197
				c0.421-0.478,0.942-1.068,1.615-1.742c0.733-0.733,2.212-1.962,3.867-1.962c1.043,0,2.028,0.478,3.012,1.462
				c0.195,0.195,0.195,0.512,0,0.707s-0.512,0.195-0.707,0c-0.787-0.787-1.54-1.169-2.305-1.169c-1.295,0-2.536,1.046-3.16,1.669
				c-0.65,0.65-1.16,1.229-1.57,1.693c-1.134,1.284-2.203,2.493-4.089,2.538C3.604,13.999,3.601,13.999,3.597,13.999z"/>
		</g>
	</g>
</g>
<g id="Calendar">
</g>
<g id="Tulip_1_">
</g>
<g id="Chicken_1_">
</g>
<g id="Chicken_2_1_">
</g>
<g id="Baguette_1_">
</g>
<g id="Ham_1_">
</g>
<g id="Bell_2">
</g>
<g id="Bell_3">
</g>
<g id="Bell_4">
</g>
<g id="Easter_celebration">
</g>
<g id="Egg_painting">
</g>
<g id="Easter_willow">
</g>
<g id="Daffodil">
</g>
<g id="Easter_message">
</g>
<g id="Bunny_2">
</g>
<g id="Chicken_3">
</g>
<g id="Tulip_2">
</g>
<g id="Easter_basket">
</g>
<g id="Bread_and_wine">
</g>
<g id="Sheep_2">
</g>
<g id="Candle_Light">
</g>
</svg>
