<?xml version="1.0" encoding="iso-8859-1"?>
<!-- Generator: Adobe Illustrator 19.2.1, SVG Export Plug-In . SVG Version: 6.00 Build 0)  -->
<svg version="1.1" xmlns="http://www.w3.org/2000/svg" xmlns:xlink="http://www.w3.org/1999/xlink" x="0px" y="0px"
	 viewBox="0 0 24 24" style="enable-background:new 0 0 24 24;" xml:space="preserve">
<g id="Egg_1_">
</g>
<g id="Easter_Egg_1_1_">
</g>
<g id="Easter_Egg_2_1_">
</g>
<g id="Easter_Egg_3_1_">
</g>
<g id="Eggs_1_1_">
</g>
<g id="Eggs_2_1_">
</g>
<g id="Bunny_1_">
</g>
<g id="Sheep_1_">
</g>
<g id="Bell_Alarm">
</g>
<g id="Calendar">
</g>
<g id="Tulip_1_">
</g>
<g id="Chicken_1_">
</g>
<g id="Chicken_2_1_">
</g>
<g id="Baguette_1_">
</g>
<g id="Ham_1_">
</g>
<g id="Bell_2">
</g>
<g id="Bell_3">
</g>
<g id="Bell_4">
	<g>
		<g>
			<path d="M18.5,22c-0.049,0-0.097-0.007-0.143-0.021c-4.277-1.275-8.438-1.275-12.715,0C5.597,21.993,5.549,22,5.5,22
				C4.168,22,3,20.832,3,19.5c0-1.162,0.889-2.199,2-2.445V11c0-1.91,0.755-3.694,2.125-5.024c1.37-1.33,3.182-2.035,5.09-1.973
				C15.956,4.116,19,7.376,19,11.272v5.782c1.111,0.246,2,1.283,2,2.445C21,20.832,19.832,22,18.5,22z M12,20.021
				c2.179,0,4.357,0.326,6.566,0.977C19.244,20.958,20,20.318,20,19.5c0-0.845-0.807-1.5-1.5-1.5c-0.276,0-0.5-0.224-0.5-0.5v-6.228
				c0-3.361-2.608-6.173-5.814-6.27c-1.657-0.048-3.19,0.551-4.363,1.691C6.647,7.834,6,9.363,6,11v6.5C6,17.776,5.776,18,5.5,18
				C4.807,18,4,18.655,4,19.5c0,0.818,0.756,1.458,1.434,1.498C7.643,20.348,9.821,20.021,12,20.021z"/>
		</g>
		<g>
			<path d="M16.5,11.772c-0.276,0-0.5-0.224-0.5-0.5c0-2.291-1.738-4.207-3.874-4.271L11.993,7
				c-0.276-0.004-0.497-0.231-0.493-0.507C11.504,6.217,11.731,5.947,12.007,6l0.141,0.002C14.827,6.083,17,8.447,17,11.272
				C17,11.549,16.776,11.772,16.5,11.772z"/>
		</g>
		<g>
			<path d="M12,5c-0.276,0-0.5-0.224-0.5-0.5v-4C11.5,0.224,11.724,0,12,0s0.5,0.224,0.5,0.5v4C12.5,4.776,12.276,5,12,5z"/>
		</g>
		<g>
			<path d="M12,24c-1.103,0-2-0.897-2-2s0.897-2,2-2s2,0.897,2,2S13.103,24,12,24z M12,21c-0.552,0-1,0.448-1,1s0.448,1,1,1
				s1-0.448,1-1S12.552,21,12,21z"/>
		</g>
		<g>
			<path d="M12,4H9.5C8.673,4,8,3.327,8,2.5S8.673,1,9.5,1c0.48,0,0.867,0.16,1.146,0.439l1.707,1.707
				c0.143,0.143,0.186,0.358,0.108,0.545S12.202,4,12,4z M9.586,2C9.225,2,9,2.224,9,2.5S9.225,3,9.5,3h1.293L9.939,2.146
				C9.847,2.053,9.718,2,9.586,2z"/>
		</g>
		<g>
			<path d="M14.5,4H12c-0.202,0-0.385-0.122-0.462-0.309s-0.034-0.402,0.108-0.545l1.707-1.707C13.633,1.16,14.02,1,14.414,1
				C15.327,1,16,1.673,16,2.5S15.327,4,14.5,4z M13.207,3H14.5C14.775,3,15,2.776,15,2.5S14.775,2,14.5,2
				c-0.218,0-0.347,0.053-0.439,0.146L13.207,3z"/>
		</g>
	</g>
</g>
<g id="Easter_celebration">
</g>
<g id="Egg_painting">
</g>
<g id="Easter_willow">
</g>
<g id="Daffodil">
</g>
<g id="Easter_message">
</g>
<g id="Bunny_2">
</g>
<g id="Chicken_3">
</g>
<g id="Tulip_2">
</g>
<g id="Easter_basket">
</g>
<g id="Bread_and_wine">
</g>
<g id="Sheep_2">
</g>
<g id="Candle_Light">
</g>
</svg>
