<?xml version="1.0" encoding="iso-8859-1"?>
<!-- Generator: Adobe Illustrator 19.2.1, SVG Export Plug-In . SVG Version: 6.00 Build 0)  -->
<svg version="1.1" xmlns="http://www.w3.org/2000/svg" xmlns:xlink="http://www.w3.org/1999/xlink" x="0px" y="0px"
	 viewBox="0 0 24 24" style="enable-background:new 0 0 24 24;" xml:space="preserve">
<g id="Egg_1_">
</g>
<g id="Easter_Egg_1_1_">
</g>
<g id="Easter_Egg_2_1_">
</g>
<g id="Easter_Egg_3_1_">
</g>
<g id="Eggs_1_1_">
</g>
<g id="Eggs_2_1_">
</g>
<g id="Bunny_1_">
</g>
<g id="Sheep_1_">
</g>
<g id="Bell_Alarm">
</g>
<g id="Calendar">
</g>
<g id="Tulip_1_">
</g>
<g id="Chicken_1_">
</g>
<g id="Chicken_2_1_">
</g>
<g id="Baguette_1_">
</g>
<g id="Ham_1_">
</g>
<g id="Bell_2">
	<g>
		<g>
			<path d="M20.419,21H3.581c-0.582,0-1.1-0.325-1.352-0.85c-0.253-0.524-0.184-1.133,0.18-1.588l1.604-2.006
				C4.649,15.763,5,14.764,5,13.746V9c0-3.589,2.813-6,7-6s7,2.411,7,6v4.746c0,1.018,0.351,2.017,0.986,2.811l1.604,2.006
				c0.363,0.455,0.433,1.063,0.18,1.588C21.519,20.675,21.001,21,20.419,21z M12,4C9.232,4,6,5.31,6,9v4.746
				c0,1.244-0.428,2.465-1.205,3.436L3.19,19.188c-0.123,0.153-0.146,0.352-0.061,0.529C3.216,19.895,3.384,20,3.581,20h16.838
				c0.197,0,0.365-0.105,0.451-0.283c0.085-0.178,0.063-0.376-0.061-0.529l-1.604-2.006C18.428,16.211,18,14.99,18,13.746V9
				C18,5.31,14.768,4,12,4z"/>
		</g>
		<g>
			<path d="M12,24c-1.103,0-2-0.897-2-2s0.897-2,2-2s2,0.897,2,2S13.103,24,12,24z M12,21c-0.552,0-1,0.448-1,1s0.448,1,1,1
				s1-0.448,1-1S12.552,21,12,21z"/>
		</g>
		<g>
			<path d="M6.937,4C6.55,4,6.168,3.88,5.838,3.645C5.313,3.271,5,2.656,5,2s0.313-1.271,0.838-1.645
				c0.509-0.362,1.137-0.452,1.724-0.25l4.103,1.421C11.865,1.597,12,1.787,12,2s-0.135,0.403-0.336,0.473L7.562,3.895
				C7.355,3.965,7.146,4,6.937,4z M6.939,1C6.756,1,6.575,1.058,6.418,1.17C6.152,1.359,6,1.662,6,2s0.152,0.641,0.418,0.83
				C6.66,3.002,6.957,3.046,7.233,2.95L9.974,2l-2.74-0.949C7.137,1.017,7.038,1,6.939,1z"/>
		</g>
		<g>
			<path d="M17.063,4c-0.209,0-0.419-0.035-0.625-0.106l-4.103-1.421C12.135,2.403,12,2.213,12,2s0.135-0.403,0.336-0.473
				l4.103-1.422c0.587-0.202,1.215-0.112,1.724,0.25C18.687,0.729,19,1.344,19,2s-0.313,1.271-0.838,1.645
				C17.832,3.88,17.45,4,17.063,4z M14.026,2l2.74,0.949c0.277,0.096,0.574,0.053,0.815-0.119C17.848,2.641,18,2.338,18,2
				s-0.152-0.641-0.418-0.83c-0.241-0.172-0.537-0.214-0.815-0.12L14.026,2z"/>
		</g>
		<g>
			<path d="M12,4c-0.276,0-0.5-0.224-0.5-0.5v-3C11.5,0.224,11.724,0,12,0s0.5,0.224,0.5,0.5v3C12.5,3.776,12.276,4,12,4z"/>
		</g>
	</g>
</g>
<g id="Bell_3">
</g>
<g id="Bell_4">
</g>
<g id="Easter_celebration">
</g>
<g id="Egg_painting">
</g>
<g id="Easter_willow">
</g>
<g id="Daffodil">
</g>
<g id="Easter_message">
</g>
<g id="Bunny_2">
</g>
<g id="Chicken_3">
</g>
<g id="Tulip_2">
</g>
<g id="Easter_basket">
</g>
<g id="Bread_and_wine">
</g>
<g id="Sheep_2">
</g>
<g id="Candle_Light">
</g>
</svg>
