<?xml version="1.0" encoding="iso-8859-1"?>
<!-- Generator: Adobe Illustrator 19.2.1, SVG Export Plug-In . SVG Version: 6.00 Build 0)  -->
<svg version="1.1" xmlns="http://www.w3.org/2000/svg" xmlns:xlink="http://www.w3.org/1999/xlink" x="0px" y="0px"
	 viewBox="0 0 24 24" style="enable-background:new 0 0 24 24;" xml:space="preserve">
<g id="Egg_1_">
</g>
<g id="Easter_Egg_1_1_">
</g>
<g id="Easter_Egg_2_1_">
</g>
<g id="Easter_Egg_3_1_">
</g>
<g id="Eggs_1_1_">
</g>
<g id="Eggs_2_1_">
</g>
<g id="Bunny_1_">
</g>
<g id="Sheep_1_">
</g>
<g id="Bell_Alarm">
</g>
<g id="Calendar">
</g>
<g id="Tulip_1_">
</g>
<g id="Chicken_1_">
</g>
<g id="Chicken_2_1_">
</g>
<g id="Baguette_1_">
</g>
<g id="Ham_1_">
</g>
<g id="Bell_2">
</g>
<g id="Bell_3">
	<g>
		<g>
			<path d="M4.5,17c-0.096,0-0.192-0.027-0.277-0.084c-0.229-0.153-0.292-0.464-0.139-0.693l1.328-1.992
				C5.797,13.654,6,12.982,6,12.289V9c0-3.309,2.691-6,6-6s6,2.691,6,6v3.597c0,0.792,0.272,1.568,0.768,2.187l1.123,1.404
				c0.172,0.216,0.138,0.53-0.078,0.703c-0.216,0.172-0.53,0.137-0.703-0.078l-1.123-1.404C17.351,14.613,17,13.614,17,12.597V9
				c0-2.757-2.243-5-5-5S7,6.243,7,9v3.289c0,0.892-0.262,1.755-0.756,2.496l-1.328,1.992C4.819,16.922,4.661,17,4.5,17z"/>
		</g>
		<g>
			<path d="M16.5,15c-0.128,0-0.256-0.049-0.354-0.146C15.407,14.114,15,13.132,15,12.086V7.914c0-0.779-0.303-1.51-0.854-2.061
				c-0.195-0.195-0.195-0.512,0-0.707s0.512-0.195,0.707,0C15.593,5.885,16,6.868,16,7.914v4.172c0,0.778,0.303,1.51,0.854,2.061
				c0.195,0.195,0.195,0.512,0,0.707C16.756,14.951,16.628,15,16.5,15z"/>
		</g>
		<g>
			<path d="M12,24c-1.379,0-2.5-1.121-2.5-2.5c0-0.169,0.018-0.336,0.052-0.5H4.5C3.121,21,2,19.879,2,18.5S3.121,16,4.5,16h15
				c1.379,0,2.5,1.121,2.5,2.5S20.879,21,19.5,21h-5.052c0.034,0.164,0.052,0.331,0.052,0.5C14.5,22.879,13.379,24,12,24z M4.5,17
				C3.673,17,3,17.673,3,18.5S3.673,20,4.5,20h5.777c0.179,0,0.345,0.096,0.434,0.251s0.089,0.346-0.002,0.501
				C10.57,20.99,10.5,21.242,10.5,21.5c0,0.827,0.673,1.5,1.5,1.5s1.5-0.673,1.5-1.5c0-0.258-0.07-0.51-0.209-0.748
				c-0.091-0.155-0.091-0.346-0.002-0.501S13.544,20,13.723,20H19.5c0.827,0,1.5-0.673,1.5-1.5S20.327,17,19.5,17H4.5z"/>
		</g>
		<g>
			<path d="M13.5,21h-3c-0.276,0-0.5-0.224-0.5-0.5s0.224-0.5,0.5-0.5h3c0.276,0,0.5,0.224,0.5,0.5S13.776,21,13.5,21z"/>
		</g>
		<g>
			<path d="M12,3c-0.827,0-1.5-0.673-1.5-1.5S11.173,0,12,0s1.5,0.673,1.5,1.5S12.827,3,12,3z M12,1c-0.275,0-0.5,0.224-0.5,0.5
				S11.725,2,12,2s0.5-0.224,0.5-0.5S12.275,1,12,1z"/>
		</g>
	</g>
</g>
<g id="Bell_4">
</g>
<g id="Easter_celebration">
</g>
<g id="Egg_painting">
</g>
<g id="Easter_willow">
</g>
<g id="Daffodil">
</g>
<g id="Easter_message">
</g>
<g id="Bunny_2">
</g>
<g id="Chicken_3">
</g>
<g id="Tulip_2">
</g>
<g id="Easter_basket">
</g>
<g id="Bread_and_wine">
</g>
<g id="Sheep_2">
</g>
<g id="Candle_Light">
</g>
</svg>
