<?xml version="1.0" encoding="iso-8859-1"?>
<!-- Generator: Adobe Illustrator 19.2.1, SVG Export Plug-In . SVG Version: 6.00 Build 0)  -->
<svg version="1.1" xmlns="http://www.w3.org/2000/svg" xmlns:xlink="http://www.w3.org/1999/xlink" x="0px" y="0px"
	 viewBox="0 0 24 24" style="enable-background:new 0 0 24 24;" xml:space="preserve">
<g id="Egg_1_">
</g>
<g id="Easter_Egg_1_1_">
</g>
<g id="Easter_Egg_2_1_">
</g>
<g id="Easter_Egg_3_1_">
</g>
<g id="Eggs_1_1_">
</g>
<g id="Eggs_2_1_">
</g>
<g id="Bunny_1_">
</g>
<g id="Sheep_1_">
</g>
<g id="Bell_Alarm">
</g>
<g id="Calendar">
</g>
<g id="Tulip_1_">
</g>
<g id="Chicken_1_">
</g>
<g id="Chicken_2_1_">
</g>
<g id="Baguette_1_">
</g>
<g id="Ham_1_">
</g>
<g id="Bell_2">
</g>
<g id="Bell_3">
</g>
<g id="Bell_4">
</g>
<g id="Easter_celebration">
</g>
<g id="Egg_painting">
</g>
<g id="Easter_willow">
</g>
<g id="Daffodil">
</g>
<g id="Easter_message">
</g>
<g id="Bunny_2">
</g>
<g id="Chicken_3">
</g>
<g id="Tulip_2">
</g>
<g id="Easter_basket">
</g>
<g id="Bread_and_wine">
	<g>
		<g>
			<g>
				<g>
					<path d="M12.5,23c-0.276,0-0.5-0.224-0.5-0.5s0.224-0.5,0.5-0.5c5.986,0,10.5-1.935,10.5-4.5c0-2.557-2.938-4.493-3.5-4.5
						c-0.6,0-1.505,0.332-1.803,0.46c-0.188,0.078-0.406,0.038-0.551-0.106C16.147,12.354,15.097,12,14.5,12
						c-0.513,0-1.984,0.586-2.792,0.955c-0.25,0.111-0.548,0.005-0.663-0.247c-0.114-0.251-0.004-0.548,0.247-0.663
						C11.674,11.871,13.623,11,14.5,11c0.972,0,2.141,0.537,3.114,1.418C18.046,12.259,18.847,12,19.5,12c1.055,0,4.5,2.344,4.5,5.5
						C24,20.738,19.271,23,12.5,23z"/>
				</g>
				<g>
					<path d="M13.5,21c-0.276,0-0.5-0.224-0.5-0.5s0.224-0.5,0.5-0.5c4.406,0,6.757-1.461,7.146-1.853
						c0.194-0.193,0.511-0.198,0.707-0.002c0.195,0.194,0.197,0.511,0.002,0.707C20.762,19.449,18.195,21,13.5,21z"/>
				</g>
				<g>
					<path d="M15.683,15.95c-0.328,0-0.681-0.205-1.052-0.613l-2.484-2.483c-0.195-0.195-0.195-0.512,0-0.707s0.512-0.195,0.707,0
						l2.5,2.5c0.05,0.055,0.095,0.1,0.134,0.137c-0.054-1.067-0.639-2.668-1.12-2.801c-0.267-0.074-0.423-0.35-0.35-0.615
						c0.074-0.267,0.351-0.421,0.615-0.35c1.308,0.361,1.909,3.003,1.867,4.004c-0.02,0.439-0.22,0.761-0.551,0.881
						C15.862,15.935,15.773,15.95,15.683,15.95z"/>
				</g>
				<g>
					<path d="M19,16c-0.756,0-1.054-0.818-1.315-1.54c-0.151-0.418-0.324-0.893-0.538-1.106c-0.195-0.195-0.195-0.512,0-0.707
						s0.512-0.195,0.707,0c0.371,0.371,0.574,0.931,0.771,1.472c0.077,0.213,0.19,0.526,0.295,0.723
						c0.108-0.447,0.147-1.394,0.081-2.305c-0.02-0.275,0.188-0.515,0.463-0.535c0.267-0.024,0.515,0.187,0.535,0.463
						c0.057,0.785,0.129,2.676-0.434,3.281C19.413,15.909,19.212,16,19,16z"/>
				</g>
			</g>
		</g>
		<g>
			<g>
				<path d="M5.5,16C2.468,16,0,13.532,0,10.5l1.003-9.056C1.031,1.191,1.245,1,1.5,1h8c0.255,0,0.469,0.191,0.497,0.444l1,9
					C10.999,10.463,11,10.481,11,10.5C11,13.532,8.532,16,5.5,16z M1.947,2l-0.95,8.556C1,12.981,3.019,15,5.5,15
					c2.473,0,4.485-2.004,4.5-4.473L9.053,2H1.947z"/>
			</g>
			<g>
				<path d="M5.5,23C5.224,23,5,22.776,5,22.5v-7C5,15.224,5.224,15,5.5,15S6,15.224,6,15.5v7C6,22.776,5.776,23,5.5,23z"/>
			</g>
			<g>
				<path d="M10,23H1.5C1.224,23,1,22.776,1,22.5S1.224,22,1.5,22H10c0.276,0,0.5,0.224,0.5,0.5S10.276,23,10,23z"/>
			</g>
			<g>
				<path d="M10,9H1C0.724,9,0.5,8.776,0.5,8.5S0.724,8,1,8h9c0.276,0,0.5,0.224,0.5,0.5S10.276,9,10,9z"/>
			</g>
		</g>
	</g>
</g>
<g id="Sheep_2">
</g>
<g id="Candle_Light">
</g>
</svg>
