<?xml version="1.0" encoding="iso-8859-1"?>
<!-- Generator: Adobe Illustrator 19.2.1, SVG Export Plug-In . SVG Version: 6.00 Build 0)  -->
<svg version="1.1" xmlns="http://www.w3.org/2000/svg" xmlns:xlink="http://www.w3.org/1999/xlink" x="0px" y="0px"
	 viewBox="0 0 24 24" style="enable-background:new 0 0 24 24;" xml:space="preserve">
<g id="Egg_1_">
</g>
<g id="Easter_Egg_1_1_">
</g>
<g id="Easter_Egg_2_1_">
</g>
<g id="Easter_Egg_3_1_">
</g>
<g id="Eggs_1_1_">
</g>
<g id="Eggs_2_1_">
</g>
<g id="Bunny_1_">
</g>
<g id="Sheep_1_">
</g>
<g id="Bell_Alarm">
</g>
<g id="Calendar">
</g>
<g id="Tulip_1_">
</g>
<g id="Chicken_1_">
</g>
<g id="Chicken_2_1_">
</g>
<g id="Baguette_1_">
</g>
<g id="Ham_1_">
</g>
<g id="Bell_2">
</g>
<g id="Bell_3">
</g>
<g id="Bell_4">
</g>
<g id="Easter_celebration">
</g>
<g id="Egg_painting">
</g>
<g id="Easter_willow">
</g>
<g id="Daffodil">
</g>
<g id="Easter_message">
</g>
<g id="Bunny_2">
	<g>
		<g>
			<path d="M12,24c-4.136,0-7.5-3.364-7.5-7.5S7.864,9,12,9s7.5,3.364,7.5,7.5S16.136,24,12,24z M12,10c-3.584,0-6.5,2.916-6.5,6.5
				S8.416,23,12,23s6.5-2.916,6.5-6.5S15.584,10,12,10z"/>
		</g>
		<g>
			<path d="M17,11.5c-0.122,0-0.243-0.044-0.339-0.133c-0.203-0.188-0.215-0.503-0.028-0.706l5.332-5.776
				C22.31,4.511,22.5,4.024,22.5,3.516V3.019C22.5,1.905,21.595,1,20.482,1c-0.732,0-1.409,0.397-1.765,1.038l-4.28,7.705
				c-0.134,0.24-0.438,0.326-0.68,0.194c-0.242-0.135-0.329-0.438-0.194-0.681l4.28-7.705C18.376,0.595,19.387,0,20.482,0
				C22.146,0,23.5,1.354,23.5,3.019v0.497c0,0.762-0.284,1.488-0.801,2.048l-5.332,5.775C17.269,11.446,17.135,11.5,17,11.5z"/>
		</g>
		<g>
			<path d="M7,11.5c-0.135,0-0.269-0.054-0.367-0.161L1.301,5.563C0.784,5.004,0.5,4.277,0.5,3.516V3.019C0.5,1.354,1.854,0,3.518,0
				c1.095,0,2.106,0.595,2.639,1.552l4.28,7.705c0.134,0.242,0.047,0.546-0.194,0.681c-0.242,0.132-0.546,0.046-0.68-0.194
				l-4.28-7.705C4.927,1.397,4.25,1,3.518,1C2.405,1,1.5,1.905,1.5,3.019v0.497c0,0.509,0.19,0.995,0.535,1.368l5.332,5.777
				c0.188,0.203,0.175,0.519-0.028,0.706C7.243,11.456,7.122,11.5,7,11.5z"/>
		</g>
		<g>
			<path d="M10.696,21.081c-0.413,0-0.75-0.079-0.817-0.096c-0.268-0.067-0.43-0.338-0.364-0.605
				c0.066-0.267,0.334-0.432,0.605-0.365c0.275,0.066,0.938,0.135,1.222-0.089C11.41,19.873,11.5,19.771,11.5,19.5
				c0-0.276,0.224-0.5,0.5-0.5s0.5,0.224,0.5,0.5c0,0.653-0.295,1.021-0.543,1.215C11.587,21.004,11.104,21.081,10.696,21.081z"/>
		</g>
		<g>
			<path d="M13.304,21.081c-0.408,0-0.891-0.077-1.26-0.366C11.795,20.521,11.5,20.153,11.5,19.5c0-0.276,0.224-0.5,0.5-0.5
				s0.5,0.224,0.5,0.5c0,0.271,0.09,0.373,0.158,0.426c0.283,0.224,0.946,0.155,1.222,0.089c0.271-0.066,0.539,0.098,0.605,0.365
				c0.066,0.268-0.096,0.538-0.364,0.605C14.054,21.002,13.717,21.081,13.304,21.081z"/>
		</g>
		<g>
			<path d="M12,20c-0.128,0-0.256-0.049-0.354-0.146l-1-1c-0.143-0.143-0.186-0.358-0.108-0.545C10.615,18.122,10.798,18,11,18h2
				c0.202,0,0.385,0.122,0.462,0.309c0.078,0.187,0.035,0.402-0.108,0.545l-1,1C12.256,19.951,12.128,20,12,20z"/>
		</g>
		<g>
			<path d="M7,18H3c-0.276,0-0.5-0.224-0.5-0.5S2.724,17,3,17h4c0.276,0,0.5,0.224,0.5,0.5S7.276,18,7,18z"/>
		</g>
		<g>
			<path d="M3,21c-0.224,0-0.428-0.151-0.484-0.379c-0.067-0.268,0.096-0.539,0.364-0.606l4-1c0.267-0.065,0.539,0.096,0.606,0.364
				c0.067,0.268-0.096,0.539-0.364,0.606l-4,1C3.081,20.995,3.04,21,3,21z"/>
		</g>
		<g>
			<path d="M5,23c-0.162,0-0.32-0.078-0.417-0.223c-0.153-0.229-0.091-0.54,0.139-0.693l3-2c0.23-0.153,0.54-0.092,0.693,0.139
				c0.153,0.229,0.091,0.54-0.139,0.693l-3,2C5.192,22.973,5.096,23,5,23z"/>
		</g>
		<g>
			<path d="M21,18h-4c-0.276,0-0.5-0.224-0.5-0.5S16.724,17,17,17h4c0.276,0,0.5,0.224,0.5,0.5S21.276,18,21,18z"/>
		</g>
		<g>
			<path d="M21,21c-0.04,0-0.081-0.005-0.122-0.015l-4-1c-0.268-0.067-0.431-0.339-0.364-0.606c0.067-0.269,0.336-0.431,0.606-0.364
				l4,1c0.268,0.067,0.431,0.339,0.364,0.606C21.428,20.849,21.225,21,21,21z"/>
		</g>
		<g>
			<path d="M19,23c-0.095,0-0.191-0.027-0.277-0.084l-3-2c-0.23-0.153-0.292-0.464-0.139-0.693c0.152-0.23,0.462-0.292,0.693-0.139
				l3,2c0.23,0.153,0.292,0.464,0.139,0.693C19.32,22.922,19.161,23,19,23z"/>
		</g>
		<g>
			<path d="M9,10.5c-0.17,0-0.335-0.087-0.429-0.243c-0.03-0.05-3.005-5.007-3.987-6.479C3.873,2.712,3.276,2.925,3.211,2.953
				c-0.25,0.104-0.544-0.002-0.657-0.247S2.535,2.174,2.776,2.053c0.057-0.028,1.409-0.677,2.64,1.17
				c0.995,1.493,3.89,6.315,4.013,6.521c0.142,0.236,0.065,0.544-0.171,0.686C9.177,10.478,9.088,10.5,9,10.5z"/>
		</g>
		<g>
			<path d="M15,10.5c-0.087,0-0.176-0.022-0.257-0.071c-0.237-0.142-0.313-0.449-0.171-0.686c0.123-0.205,3.018-5.027,4.013-6.521
				c1.23-1.847,2.582-1.198,2.64-1.17c0.247,0.124,0.347,0.424,0.224,0.671c-0.122,0.242-0.415,0.342-0.66,0.229
				c-0.073-0.029-0.666-0.232-1.371,0.825c-0.982,1.473-3.958,6.43-3.987,6.479C15.335,10.413,15.169,10.5,15,10.5z"/>
		</g>
		<g>
			<path d="M15,15.5c-0.371,0-0.742-0.123-1.031-0.369l-0.293-0.251c-0.21-0.179-0.235-0.494-0.056-0.704
				c0.18-0.211,0.496-0.236,0.705-0.056l0.293,0.25c0.203,0.172,0.561,0.173,0.765-0.001l0.292-0.249
				c0.209-0.181,0.525-0.155,0.705,0.056c0.179,0.21,0.154,0.525-0.056,0.704l-0.293,0.25C15.742,15.377,15.371,15.5,15,15.5z"/>
		</g>
		<g>
			<path d="M9,15.5c-0.371,0-0.742-0.123-1.031-0.369L7.675,14.88c-0.21-0.179-0.235-0.494-0.056-0.704
				c0.18-0.211,0.496-0.236,0.705-0.056l0.293,0.25c0.203,0.172,0.561,0.173,0.765-0.001l0.292-0.249
				c0.209-0.181,0.524-0.155,0.705,0.056c0.179,0.21,0.154,0.525-0.056,0.704l-0.293,0.25C9.742,15.377,9.371,15.5,9,15.5z"/>
		</g>
	</g>
</g>
<g id="Chicken_3">
</g>
<g id="Tulip_2">
</g>
<g id="Easter_basket">
</g>
<g id="Bread_and_wine">
</g>
<g id="Sheep_2">
</g>
<g id="Candle_Light">
</g>
</svg>
