<?xml version="1.0" encoding="iso-8859-1"?>
<!-- Generator: Adobe Illustrator 19.2.1, SVG Export Plug-In . SVG Version: 6.00 Build 0)  -->
<svg version="1.1" xmlns="http://www.w3.org/2000/svg" xmlns:xlink="http://www.w3.org/1999/xlink" x="0px" y="0px"
	 viewBox="0 0 24 24" style="enable-background:new 0 0 24 24;" xml:space="preserve">
<g id="Egg_1_">
</g>
<g id="Easter_Egg_1_1_">
</g>
<g id="Easter_Egg_2_1_">
</g>
<g id="Easter_Egg_3_1_">
</g>
<g id="Eggs_1_1_">
</g>
<g id="Eggs_2_1_">
</g>
<g id="Bunny_1_">
	<g id="Bunny">
		<g>
			<path d="M11.5,21c-0.171,0-0.337-0.087-0.431-0.246l-0.203-0.334C10.44,19.729,10,19.015,10,18c0.01-1.672,1.375-3,3.045-3H14.5
				c0.276,0,0.5,0.224,0.5,0.5S14.776,16,14.5,16h-1.455c-1.121,0-2.039,0.882-2.045,1.965c0,0.766,0.333,1.306,0.718,1.931
				l0.213,0.35c0.141,0.237,0.062,0.544-0.176,0.685C11.675,20.978,11.587,21,11.5,21z"/>
		</g>
		<g>
			<path d="M19.28,23H6c-0.276,0-0.5-0.224-0.5-0.5C5.5,21.122,6.621,20,8,20h3.5c0.276,0,0.5,0.224,0.5,0.5S11.776,21,11.5,21H8
				c-0.652,0-1.208,0.418-1.414,1H19.28c0.15,0,0.291-0.067,0.387-0.183s0.133-0.268,0.104-0.415l-0.279-1.394
				c-0.055-0.271,0.121-0.534,0.392-0.588c0.266-0.057,0.534,0.12,0.589,0.392l0.279,1.394c0.089,0.442-0.024,0.896-0.311,1.245
				C20.154,22.8,19.731,23,19.28,23z"/>
		</g>
		<g>
			<path d="M6,23H3.5c-0.264,0-0.482-0.205-0.499-0.468c-0.101-1.551,0.46-1.918,1.093-2.184c0.494-0.207,1.17-0.491,0.492-4.815
				c-0.043-0.273,0.144-0.529,0.417-0.572c0.264-0.041,0.527,0.143,0.571,0.417c0.74,4.723-0.021,5.443-1.094,5.893
				C4.188,21.394,4.014,21.467,3.989,22H6c0.276,0,0.5,0.224,0.5,0.5S6.276,23,6,23z"/>
		</g>
		<g>
			<path d="M7.85,21.002c-0.076,0-0.153-0.017-0.226-0.054c-0.246-0.124-0.345-0.425-0.221-0.671
				c0.293-0.582,0.253-2.086-0.121-4.472c-0.036-0.233-0.144-0.702-0.208-0.93c-0.076-0.266,0.077-0.542,0.343-0.618
				C7.684,14.18,7.96,14.335,8.035,14.6c0.074,0.257,0.193,0.786,0.235,1.05c0.543,3.469,0.299,4.535,0.025,5.077
				C8.208,20.901,8.032,21.002,7.85,21.002z"/>
		</g>
		<g>
			<path d="M19.954,20.389c-0.11,0-0.221-0.036-0.313-0.11c-0.215-0.173-0.249-0.488-0.076-0.703C20.504,18.409,21,17,21,15.5
				c0-2.646-1.579-5.046-3.93-5.972c-0.258-0.099-0.44-0.41-0.342-0.668c0.1-0.257,0.331-0.408,0.592-0.309l0.098,0.039
				C20.166,9.672,22,12.447,22,15.5c0,1.706-0.588,3.375-1.656,4.702C20.245,20.325,20.1,20.389,19.954,20.389z"/>
		</g>
		<g>
			<path d="M12.914,8.239c-0.028,0-0.058-0.002-0.086-0.007c-0.519-0.089-1.031-0.151-1.568-0.19
				c-0.275-0.02-0.483-0.259-0.464-0.534c0.021-0.276,0.279-0.486,0.534-0.463c0.571,0.041,1.116,0.106,1.668,0.202
				c0.272,0.047,0.455,0.306,0.408,0.578C13.364,8.067,13.152,8.239,12.914,8.239z"/>
		</g>
		<g>
			<path d="M8.067,18.672c-0.073,0-0.146-0.016-0.216-0.049l-0.561-0.269C5.257,17.319,4,15.269,4,13
				c0-0.771,0.146-1.522,0.436-2.232c0.104-0.255,0.396-0.38,0.651-0.275c0.256,0.104,0.379,0.396,0.274,0.652
				C5.122,11.735,5,12.359,5,13c0,1.891,1.048,3.6,2.733,4.458l0.55,0.263c0.249,0.119,0.354,0.417,0.235,0.667
				C8.433,18.568,8.254,18.672,8.067,18.672z"/>
		</g>
		<g>
			<path d="M22,18.5c-0.415,0-0.813-0.126-1.151-0.364c-0.226-0.159-0.279-0.471-0.121-0.696c0.16-0.227,0.472-0.28,0.697-0.121
				C21.594,17.437,21.792,17.5,22,17.5c0.552,0,1-0.449,1-1c0-0.668-0.719-1.17-1.342-0.94c-0.26,0.093-0.547-0.04-0.641-0.3
				c-0.095-0.259,0.04-0.546,0.299-0.641c0.22-0.079,0.449-0.12,0.684-0.12c1.103,0,2,0.897,2,2S23.103,18.5,22,18.5z"/>
		</g>
		<g>
			<path d="M5.511,11.664c-0.048,0-0.098-0.007-0.146-0.022C3.208,10.984,0,9.169,0,6.869C0,4.109,4.799,1,7.355,1
				c0.413,0,0.822,0.052,1.217,0.154c1.041,0.27,1.704,1.004,2.348,1.797c0.174,0.214,0.141,0.529-0.074,0.703
				c-0.212,0.173-0.529,0.142-0.703-0.073C9.589,2.897,9.069,2.316,8.321,2.122C8.009,2.041,7.684,2,7.355,2C5.11,2,1,4.862,1,6.869
				c0,1.5,2.368,3.118,4.657,3.817c0.264,0.081,0.412,0.36,0.332,0.624C5.923,11.525,5.725,11.664,5.511,11.664z"/>
		</g>
		<g>
			<path d="M10.99,8.971c-0.063,0-0.127-0.012-0.188-0.037c-0.256-0.104-0.379-0.396-0.274-0.651
				c0.289-0.712,0.457-1.487,0.472-2.183c0.006-0.276,0.233-0.48,0.511-0.489c0.276,0.006,0.495,0.235,0.489,0.511
				c-0.019,0.826-0.207,1.704-0.546,2.537C11.375,8.854,11.188,8.971,10.99,8.971z"/>
		</g>
		<g>
			<path d="M15.895,14.601c-0.432,0-0.863-0.118-1.247-0.348c-0.612-0.367-1.028-0.976-1.141-1.672l-0.582-3.328
				c-0.104-0.644-0.43-1.41-0.829-1.958C11.566,6.569,10.426,6,9.5,6C9.224,6,9,5.776,9,5.5S9.224,5,9.5,5
				c1.251,0,2.683,0.717,3.404,1.705c0.492,0.676,0.878,1.589,1.006,2.381l0.582,3.328c0.067,0.411,0.311,0.766,0.669,0.98
				c0.361,0.217,0.79,0.266,1.177,0.132C16.885,13.339,17,12.638,17,12.083c0-2.014-0.42-3.68-1.405-5.65
				c-0.415-0.83-1.149-1.572-1.156-1.579c-1.118-1.235-2.454-1.644-3.676-1.141L8.67,4.47c-0.257,0.095-0.546-0.04-0.64-0.3
				c-0.095-0.259,0.04-0.546,0.3-0.64l2.072-0.75c1.593-0.657,3.38-0.141,4.761,1.385c0.018,0.017,0.837,0.842,1.326,1.82
				C17.534,8.076,18,9.931,18,12c0,1.328-0.476,2.177-1.338,2.473C16.413,14.559,16.153,14.601,15.895,14.601z"/>
		</g>
		<g>
			<circle cx="6.5" cy="5.5" r="0.5"/>
		</g>
		<g>
			<path d="M1,8C0.811,8,0.638,7.893,0.553,7.724l-0.5-1c-0.077-0.155-0.069-0.339,0.021-0.486C0.166,6.09,0.327,6,0.5,6h1
				c0.173,0,0.334,0.09,0.426,0.237c0.091,0.147,0.099,0.332,0.021,0.486l-0.5,1C1.362,7.893,1.189,8,1,8z"/>
		</g>
	</g>
</g>
<g id="Sheep_1_">
</g>
<g id="Bell_Alarm">
</g>
<g id="Calendar">
</g>
<g id="Tulip_1_">
</g>
<g id="Chicken_1_">
</g>
<g id="Chicken_2_1_">
</g>
<g id="Baguette_1_">
</g>
<g id="Ham_1_">
</g>
<g id="Bell_2">
</g>
<g id="Bell_3">
</g>
<g id="Bell_4">
</g>
<g id="Easter_celebration">
</g>
<g id="Egg_painting">
</g>
<g id="Easter_willow">
</g>
<g id="Daffodil">
</g>
<g id="Easter_message">
</g>
<g id="Bunny_2">
</g>
<g id="Chicken_3">
</g>
<g id="Tulip_2">
</g>
<g id="Easter_basket">
</g>
<g id="Bread_and_wine">
</g>
<g id="Sheep_2">
</g>
<g id="Candle_Light">
</g>
</svg>
