<?xml version="1.0" encoding="iso-8859-1"?>
<!-- Generator: Adobe Illustrator 19.2.1, SVG Export Plug-In . SVG Version: 6.00 Build 0)  -->
<svg version="1.1" xmlns="http://www.w3.org/2000/svg" xmlns:xlink="http://www.w3.org/1999/xlink" x="0px" y="0px"
	 viewBox="0 0 24 24" style="enable-background:new 0 0 24 24;" xml:space="preserve">
<g id="Egg_1_">
</g>
<g id="Easter_Egg_1_1_">
</g>
<g id="Easter_Egg_2_1_">
</g>
<g id="Easter_Egg_3_1_">
</g>
<g id="Eggs_1_1_">
</g>
<g id="Eggs_2_1_">
</g>
<g id="Bunny_1_">
</g>
<g id="Sheep_1_">
</g>
<g id="Bell_Alarm">
</g>
<g id="Calendar">
	<g>
		<g>
			<path d="M11.5,20C9.57,20,8,18.43,8,16.5c0-1.883,1.478-5.5,3.5-5.5s3.5,3.617,3.5,5.5C15,18.43,13.43,20,11.5,20z M11.5,12
				C10.285,12,9,14.926,9,16.5c0,1.378,1.121,2.5,2.5,2.5s2.5-1.122,2.5-2.5C14,14.926,12.715,12,11.5,12z"/>
		</g>
		<g>
			<path d="M20.5,24h-17C1.57,24,0,22.43,0,20.5v-15C0,3.57,1.57,2,3.5,2h1C4.776,2,5,2.224,5,2.5S4.776,3,4.5,3h-1
				C2.121,3,1,4.122,1,5.5v15C1,21.878,2.121,23,3.5,23h17c1.379,0,2.5-1.122,2.5-2.5v-15C23,4.122,21.879,3,20.5,3h-1
				C19.224,3,19,2.776,19,2.5S19.224,2,19.5,2h1C22.43,2,24,3.57,24,5.5v15C24,22.43,22.43,24,20.5,24z"/>
		</g>
		<g>
			<path d="M15.5,3h-7C8.224,3,8,2.776,8,2.5S8.224,2,8.5,2h7C15.776,2,16,2.224,16,2.5S15.776,3,15.5,3z"/>
		</g>
		<g>
			<path d="M23.5,8h-23C0.224,8,0,7.776,0,7.5S0.224,7,0.5,7h23C23.776,7,24,7.224,24,7.5S23.776,8,23.5,8z"/>
		</g>
		<g>
			<path d="M6.5,5C6.224,5,6,4.776,6,4.5v-4C6,0.224,6.224,0,6.5,0S7,0.224,7,0.5v4C7,4.776,6.776,5,6.5,5z"/>
		</g>
		<g>
			<path d="M17.5,5C17.224,5,17,4.776,17,4.5v-4C17,0.224,17.224,0,17.5,0S18,0.224,18,0.5v4C18,4.776,17.776,5,17.5,5z"/>
		</g>
		<g>
			<path d="M12.5,18c-0.128,0-0.256-0.049-0.354-0.146L11.5,17.207l-0.646,0.646c-0.195,0.195-0.512,0.195-0.707,0L9.5,17.207
				l-0.53,0.53c-0.195,0.195-0.512,0.195-0.707,0s-0.195-0.512,0-0.707l0.884-0.884c0.195-0.195,0.512-0.195,0.707,0l0.646,0.646
				l0.646-0.646c0.195-0.195,0.512-0.195,0.707,0l0.646,0.646l0.646-0.646c0.195-0.195,0.512-0.195,0.707,0l0.86,0.86
				c0.195,0.195,0.195,0.512,0,0.707s-0.512,0.195-0.707,0L13.5,17.207l-0.646,0.646C12.756,17.951,12.628,18,12.5,18z"/>
		</g>
		<g>
			<path d="M12.5,15c-0.133,0-0.26-0.053-0.354-0.146L11.5,14.207l-0.646,0.646C10.76,14.947,10.633,15,10.5,15l0,0
				c-0.133,0-0.26-0.053-0.354-0.146l-1.121-1.122c-0.195-0.195-0.195-0.512,0-0.707s0.512-0.195,0.707,0l0.768,0.768l0.646-0.646
				c0.195-0.195,0.512-0.195,0.707,0l0.646,0.646l0.76-0.76c0.195-0.195,0.512-0.195,0.707,0s0.195,0.512,0,0.707l-1.113,1.114
				C12.76,14.947,12.633,15,12.5,15z"/>
		</g>
	</g>
</g>
<g id="Tulip_1_">
</g>
<g id="Chicken_1_">
</g>
<g id="Chicken_2_1_">
</g>
<g id="Baguette_1_">
</g>
<g id="Ham_1_">
</g>
<g id="Bell_2">
</g>
<g id="Bell_3">
</g>
<g id="Bell_4">
</g>
<g id="Easter_celebration">
</g>
<g id="Egg_painting">
</g>
<g id="Easter_willow">
</g>
<g id="Daffodil">
</g>
<g id="Easter_message">
</g>
<g id="Bunny_2">
</g>
<g id="Chicken_3">
</g>
<g id="Tulip_2">
</g>
<g id="Easter_basket">
</g>
<g id="Bread_and_wine">
</g>
<g id="Sheep_2">
</g>
<g id="Candle_Light">
</g>
</svg>
