<?xml version="1.0" encoding="iso-8859-1"?>
<!-- Generator: Adobe Illustrator 19.2.1, SVG Export Plug-In . SVG Version: 6.00 Build 0)  -->
<svg version="1.1" xmlns="http://www.w3.org/2000/svg" xmlns:xlink="http://www.w3.org/1999/xlink" x="0px" y="0px"
	 viewBox="0 0 24 24" style="enable-background:new 0 0 24 24;" xml:space="preserve">
<g id="Egg_1_">
</g>
<g id="Easter_Egg_1_1_">
</g>
<g id="Easter_Egg_2_1_">
</g>
<g id="Easter_Egg_3_1_">
</g>
<g id="Eggs_1_1_">
</g>
<g id="Eggs_2_1_">
</g>
<g id="Bunny_1_">
</g>
<g id="Sheep_1_">
</g>
<g id="Bell_Alarm">
</g>
<g id="Calendar">
</g>
<g id="Tulip_1_">
</g>
<g id="Chicken_1_">
</g>
<g id="Chicken_2_1_">
</g>
<g id="Baguette_1_">
</g>
<g id="Ham_1_">
</g>
<g id="Bell_2">
</g>
<g id="Bell_3">
</g>
<g id="Bell_4">
</g>
<g id="Easter_celebration">
</g>
<g id="Egg_painting">
</g>
<g id="Easter_willow">
</g>
<g id="Daffodil">
</g>
<g id="Easter_message">
</g>
<g id="Bunny_2">
</g>
<g id="Chicken_3">
</g>
<g id="Tulip_2">
</g>
<g id="Easter_basket">
</g>
<g id="Bread_and_wine">
</g>
<g id="Sheep_2">
</g>
<g id="Candle_Light">
	<g>
		<g>
			<path d="M13.5,21h-6C7.224,21,7,20.776,7,20.5v-12C7,8.224,7.224,8,7.5,8h6C13.776,8,14,8.224,14,8.5v12
				C14,20.776,13.776,21,13.5,21z M8,20h5V9H8V20z"/>
		</g>
		<g>
			<path d="M10.5,9C10.224,9,10,8.776,10,8.5v-2C10,6.224,10.224,6,10.5,6S11,6.224,11,6.5v2C11,8.776,10.776,9,10.5,9z"/>
		</g>
		<g>
			<path d="M10.5,7C9.121,7,8,5.879,8,4.5c0-1.199,1.74-3.779,2.089-4.284c0.186-0.27,0.637-0.27,0.822,0
				C11.26,0.721,13,3.301,13,4.5C13,5.879,11.879,7,10.5,7z M10.5,1.404C9.78,2.528,9,3.954,9,4.5C9,5.327,9.673,6,10.5,6
				S12,5.327,12,4.5C12,3.953,11.22,2.528,10.5,1.404z"/>
		</g>
		<g>
			<path d="M11.661,14.5c-0.037,0-0.075-0.002-0.112-0.006c-0.421-0.046-0.759-0.341-0.862-0.751l-0.344-1.377l-0.01,0.02
				c-0.162,0.322-0.474,0.528-0.833,0.551c-0.362,0.01-0.694-0.144-0.894-0.443L7.084,10.21C6.931,9.98,6.993,9.67,7.223,9.517
				C7.45,9.364,7.761,9.425,7.916,9.655l1.522,2.283l0.614-1.229c0.093-0.187,0.285-0.296,0.502-0.273
				c0.208,0.022,0.38,0.173,0.431,0.376l0.672,2.688l1.396-2.791c0.124-0.246,0.424-0.347,0.671-0.224
				c0.247,0.124,0.347,0.424,0.224,0.671l-1.396,2.791C12.379,14.291,12.037,14.5,11.661,14.5z"/>
		</g>
		<g>
			<path d="M13.5,24h-6C5.57,24,4,22.43,4,20.5C4,20.224,4.224,20,4.5,20h12c0.276,0,0.5,0.224,0.5,0.5C17,22.43,15.43,24,13.5,24z
				 M5.05,21c0.232,1.14,1.243,2,2.45,2h6c1.207,0,2.218-0.86,2.45-2H5.05z"/>
		</g>
		<g>
			<path d="M17.5,22c-0.827,0-1.5-0.673-1.5-1.5s0.673-1.5,1.5-1.5s1.5,0.673,1.5,1.5S18.327,22,17.5,22z M17.5,20
				c-0.275,0-0.5,0.225-0.5,0.5s0.225,0.5,0.5,0.5s0.5-0.225,0.5-0.5S17.775,20,17.5,20z"/>
		</g>
	</g>
</g>
</svg>
