<?xml version="1.0" encoding="iso-8859-1"?>
<!-- Generator: Adobe Illustrator 19.2.1, SVG Export Plug-In . SVG Version: 6.00 Build 0)  -->
<svg version="1.1" xmlns="http://www.w3.org/2000/svg" xmlns:xlink="http://www.w3.org/1999/xlink" x="0px" y="0px"
	 viewBox="0 0 24 24" style="enable-background:new 0 0 24 24;" xml:space="preserve">
<g id="Egg_1_">
</g>
<g id="Easter_Egg_1_1_">
</g>
<g id="Easter_Egg_2_1_">
</g>
<g id="Easter_Egg_3_1_">
</g>
<g id="Eggs_1_1_">
</g>
<g id="Eggs_2_1_">
</g>
<g id="Bunny_1_">
</g>
<g id="Sheep_1_">
</g>
<g id="Bell_Alarm">
</g>
<g id="Calendar">
</g>
<g id="Tulip_1_">
</g>
<g id="Chicken_1_">
</g>
<g id="Chicken_2_1_">
	<g id="Chicken_2">
		<g>
			<path d="M11.5,23.998c-4.136,0-7.5-3.364-7.5-7.5c0-0.795,0.082-1.578,0.244-2.331c0.058-0.27,0.326-0.436,0.594-0.384
				c0.27,0.059,0.442,0.324,0.384,0.595C5.074,15.061,5,15.774,5,16.498c0,3.584,2.916,6.5,6.5,6.5s6.5-2.916,6.5-6.5
				c0-0.712-0.072-1.417-0.215-2.093c-0.057-0.271,0.116-0.536,0.386-0.593c0.273-0.054,0.536,0.115,0.593,0.386
				C18.92,14.942,19,15.717,19,16.498C19,20.634,15.636,23.998,11.5,23.998z"/>
		</g>
		<g>
			<path d="M7.5,16.998c-0.112,0-0.224-0.037-0.316-0.112l-2.727-2.227c-0.214-0.175-0.246-0.49-0.071-0.704
				c0.174-0.214,0.489-0.245,0.704-0.071l2.376,1.941l1.68-1.681c0.195-0.195,0.512-0.195,0.707,0l1.646,1.646l1.646-1.646
				c0.195-0.195,0.512-0.195,0.707,0l1.685,1.685l2.424-1.92c0.216-0.173,0.531-0.137,0.703,0.081
				c0.171,0.217,0.135,0.531-0.082,0.702l-2.773,2.197c-0.199,0.156-0.484,0.141-0.664-0.038L13.5,15.205l-1.646,1.646
				c-0.195,0.195-0.512,0.195-0.707,0L9.5,15.205l-1.646,1.646C7.756,16.948,7.628,16.998,7.5,16.998z"/>
		</g>
		<g>
			<path d="M16.5,9.499c-0.167,0-0.323-0.083-0.416-0.223l-0.805-1.207l-1.658,0.415c-0.193,0.049-0.4-0.024-0.521-0.185l-1.35-1.8
				H9c-0.215,0-0.406-0.138-0.474-0.342L8.14,4.999H6.5c-0.17,0-0.328-0.086-0.42-0.229C5.988,4.627,5.975,4.447,6.044,4.292
				c0.802-1.773,2.366-3.23,4.183-3.897c1.532-0.563,3.125-0.517,4.487,0.127c3.181,1.505,3.638,5.597,2.242,8.683
				c-0.075,0.166-0.234,0.277-0.415,0.292C16.527,9.498,16.514,9.499,16.5,9.499z M15.5,6.999c0.165,0,0.322,0.082,0.416,0.223
				l0.458,0.688c0.739-2.458,0.217-5.392-2.088-6.483c-1.434-0.679-2.811-0.425-3.714-0.093C9.25,1.819,8.083,2.789,7.333,3.999H8.5
				c0.215,0,0.406,0.138,0.474,0.342L9.36,5.499H12c0.157,0,0.306,0.074,0.4,0.2l1.301,1.734l1.678-0.419
				C15.419,7.003,15.46,6.999,15.5,6.999z"/>
		</g>
		<g>
			<g>
				<circle cx="13.468" cy="10.89" r="0.5"/>
			</g>
			<g>
				<path d="M15.478,8.222c-0.252,0-0.468-0.157-0.498-0.408l-0.037-0.309c-0.03-0.25,0.132-0.483,0.376-0.544l0.059-0.015
					c0.149-0.038,0.309-0.003,0.43,0.093C15.93,7.134,16,7.281,15.999,7.436c-0.001,0.101-0.009,0.2-0.019,0.298
					c-0.023,0.255-0.239,0.484-0.495,0.488C15.483,8.222,15.48,8.222,15.478,8.222z M15.619,7.917h0.01H15.619z"/>
			</g>
			<g>
				<path d="M16.703,15.654c-0.227,0-0.432-0.155-0.486-0.385c-0.363-1.534-1.671-3.263-2.978-3.936
					c-0.163-0.084-0.267-0.251-0.271-0.435c-0.003-0.184,0.094-0.354,0.254-0.445c1-0.566,1.656-1.591,1.756-2.743
					c0.024-0.275,0.265-0.481,0.542-0.455c0.275,0.024,0.479,0.266,0.455,0.542c-0.105,1.209-0.688,2.31-1.6,3.07
					c1.3,0.954,2.448,2.621,2.815,4.171c0.063,0.269-0.103,0.538-0.372,0.602C16.78,15.65,16.741,15.654,16.703,15.654z"/>
			</g>
		</g>
		<g>
			<g>
				<path d="M8.036,9.873c-0.172,0-0.34-0.089-0.433-0.249C7.208,8.945,7,8.179,7,7.406c0-1.149,0.434-2.243,1.223-3.082
					c0.19-0.201,0.506-0.211,0.707-0.021S9.14,4.809,8.951,5.01C8.338,5.662,8,6.513,8,7.406c0,0.596,0.162,1.189,0.467,1.715
					C8.606,9.36,8.525,9.666,8.287,9.805C8.208,9.851,8.121,9.873,8.036,9.873z"/>
			</g>
			<g>
				<path d="M6.422,15.654c-0.039,0-0.078-0.004-0.117-0.014c-0.269-0.064-0.434-0.334-0.37-0.603
					c0.386-1.613,1.47-3.251,2.712-4.18c-0.417-0.345-0.771-0.763-1.045-1.235C7.464,9.384,7.545,9.079,7.784,8.94
					c0.24-0.138,0.545-0.057,0.684,0.182c0.319,0.551,0.78,1.008,1.333,1.321c0.16,0.091,0.257,0.263,0.253,0.447
					c-0.004,0.184-0.109,0.351-0.273,0.434c-1.251,0.635-2.486,2.333-2.872,3.947C6.854,15.5,6.648,15.654,6.422,15.654z"/>
			</g>
		</g>
		<g>
			<path d="M11.5,10.999c-0.128,0-0.256-0.049-0.354-0.146l-1-1c-0.195-0.195-0.195-0.512,0-0.707s0.512-0.195,0.707,0L11.5,9.792
				l0.646-0.646c0.195-0.195,0.512-0.195,0.707,0s0.195,0.512,0,0.707l-1,1C11.756,10.95,11.628,10.999,11.5,10.999z"/>
		</g>
		<g>
			<circle cx="9.5" cy="7.406" r="0.5"/>
		</g>
	</g>
</g>
<g id="Baguette_1_">
</g>
<g id="Ham_1_">
</g>
<g id="Bell_2">
</g>
<g id="Bell_3">
</g>
<g id="Bell_4">
</g>
<g id="Easter_celebration">
</g>
<g id="Egg_painting">
</g>
<g id="Easter_willow">
</g>
<g id="Daffodil">
</g>
<g id="Easter_message">
</g>
<g id="Bunny_2">
</g>
<g id="Chicken_3">
</g>
<g id="Tulip_2">
</g>
<g id="Easter_basket">
</g>
<g id="Bread_and_wine">
</g>
<g id="Sheep_2">
</g>
<g id="Candle_Light">
</g>
</svg>
