<?xml version="1.0" encoding="iso-8859-1"?>
<!-- Generator: Adobe Illustrator 19.2.1, SVG Export Plug-In . SVG Version: 6.00 Build 0)  -->
<svg version="1.1" xmlns="http://www.w3.org/2000/svg" xmlns:xlink="http://www.w3.org/1999/xlink" x="0px" y="0px"
	 viewBox="0 0 24 24" style="enable-background:new 0 0 24 24;" xml:space="preserve">
<g id="Egg_1_">
</g>
<g id="Easter_Egg_1_1_">
</g>
<g id="Easter_Egg_2_1_">
</g>
<g id="Easter_Egg_3_1_">
</g>
<g id="Eggs_1_1_">
</g>
<g id="Eggs_2_1_">
</g>
<g id="Bunny_1_">
</g>
<g id="Sheep_1_">
</g>
<g id="Bell_Alarm">
</g>
<g id="Calendar">
</g>
<g id="Tulip_1_">
</g>
<g id="Chicken_1_">
	<g id="Chicken">
		<g>
			<path d="M8,5.5c-0.113,0-0.226-0.038-0.32-0.116l-3-2.5C4.528,2.758,4.465,2.554,4.519,2.364c0.054-0.19,0.215-0.331,0.41-0.359
				l3.5-0.5c0.274-0.043,0.527,0.15,0.566,0.424c0.039,0.273-0.151,0.527-0.424,0.566L6.184,2.836l2.136,1.78
				C8.532,4.792,8.561,5.108,8.384,5.32C8.285,5.439,8.143,5.5,8,5.5z"/>
		</g>
		<g>
			<path d="M12,24c-4.136,0-7.5-3.364-7.5-7.5c0-4.018,2.048-6.249,2.135-6.342c0.179-0.189,0.475-0.21,0.677-0.049L9.5,11.86
				l2.188-1.75c0.183-0.146,0.442-0.146,0.625,0l2.188,1.75l2.188-1.75c0.204-0.162,0.499-0.142,0.677,0.049
				c0.087,0.093,2.135,2.324,2.135,6.342C19.5,20.636,16.136,24,12,24z M7.082,11.206C6.559,11.942,5.5,13.771,5.5,16.5
				c0,3.584,2.916,6.5,6.5,6.5s6.5-2.916,6.5-6.5c0-2.729-1.059-4.558-1.582-5.294l-2.106,1.685c-0.183,0.146-0.442,0.146-0.625,0
				L12,11.14l-2.188,1.75c-0.183,0.146-0.442,0.146-0.625,0L7.082,11.206z"/>
		</g>
		<g>
			<path d="M8.044,11.835c-0.021,0-0.043-0.001-0.066-0.004c-0.273-0.036-0.466-0.287-0.43-0.561
				c0.168-1.276,0.783-2.431,1.689-3.217C8.15,7.208,7.5,5.905,7.5,4.5C7.5,2.019,9.519,0,12,0s4.5,2.019,4.5,4.5
				c0,1.405-0.65,2.708-1.737,3.553c0.906,0.786,1.521,1.941,1.689,3.217c0.036,0.274-0.157,0.525-0.43,0.561
				c-0.282,0.033-0.525-0.157-0.561-0.43c-0.163-1.24-0.839-2.333-1.811-2.928c-0.117-0.063-0.209-0.169-0.248-0.304
				c-0.065-0.227,0.034-0.467,0.242-0.578C14.789,6.98,15.5,5.795,15.5,4.5C15.5,2.57,13.93,1,12,1S8.5,2.57,8.5,4.5
				c0,1.292,0.707,2.472,1.845,3.084c0.004,0.002,0.009,0.005,0.014,0.008c0.24,0.133,0.33,0.437,0.199,0.677
				c-0.053,0.097-0.133,0.17-0.226,0.214C9.37,9.082,8.702,10.168,8.539,11.4C8.506,11.652,8.291,11.835,8.044,11.835z"/>
		</g>
		<g>
			<circle cx="11" cy="3.5" r="0.5"/>
		</g>
	</g>
</g>
<g id="Chicken_2_1_">
</g>
<g id="Baguette_1_">
</g>
<g id="Ham_1_">
</g>
<g id="Bell_2">
</g>
<g id="Bell_3">
</g>
<g id="Bell_4">
</g>
<g id="Easter_celebration">
</g>
<g id="Egg_painting">
</g>
<g id="Easter_willow">
</g>
<g id="Daffodil">
</g>
<g id="Easter_message">
</g>
<g id="Bunny_2">
</g>
<g id="Chicken_3">
</g>
<g id="Tulip_2">
</g>
<g id="Easter_basket">
</g>
<g id="Bread_and_wine">
</g>
<g id="Sheep_2">
</g>
<g id="Candle_Light">
</g>
</svg>
