<?xml version="1.0" encoding="iso-8859-1"?>
<!-- Generator: Adobe Illustrator 19.2.1, SVG Export Plug-In . SVG Version: 6.00 Build 0)  -->
<svg version="1.1" xmlns="http://www.w3.org/2000/svg" xmlns:xlink="http://www.w3.org/1999/xlink" x="0px" y="0px"
	 viewBox="0 0 24 24" style="enable-background:new 0 0 24 24;" xml:space="preserve">
<g id="Egg_1_">
</g>
<g id="Easter_Egg_1_1_">
</g>
<g id="Easter_Egg_2_1_">
</g>
<g id="Easter_Egg_3_1_">
</g>
<g id="Eggs_1_1_">
</g>
<g id="Eggs_2_1_">
</g>
<g id="Bunny_1_">
</g>
<g id="Sheep_1_">
</g>
<g id="Bell_Alarm">
</g>
<g id="Calendar">
</g>
<g id="Tulip_1_">
</g>
<g id="Chicken_1_">
</g>
<g id="Chicken_2_1_">
</g>
<g id="Baguette_1_">
</g>
<g id="Ham_1_">
</g>
<g id="Bell_2">
</g>
<g id="Bell_3">
</g>
<g id="Bell_4">
</g>
<g id="Easter_celebration">
</g>
<g id="Egg_painting">
</g>
<g id="Easter_willow">
</g>
<g id="Daffodil">
</g>
<g id="Easter_message">
</g>
<g id="Bunny_2">
</g>
<g id="Chicken_3">
	<g>
		<g id="Easter_Egg_3_2_">
			<g>
				<path d="M12,24c-5.238,0-9.5-4.262-9.5-9.5C2.5,9.536,6.512,0,12,0s9.5,9.536,9.5,14.5C21.5,19.738,17.238,24,12,24z M12,1
					C7.348,1,3.5,9.938,3.5,14.5c0,4.687,3.813,8.5,8.5,8.5s8.5-3.813,8.5-8.5C20.5,9.938,16.652,1,12,1z"/>
			</g>
			<g>
				<path d="M7,15c-0.084,0-0.169-0.021-0.247-0.064c-0.195-0.111-0.293-0.339-0.238-0.557l0.946-3.785L5.584,7.777
					C5.482,7.624,5.472,7.427,5.559,7.264C5.646,7.102,5.815,7,6,7h2.75l2.85-3.8c0.116-0.155,0.307-0.23,0.499-0.19
					c0.189,0.038,0.339,0.182,0.386,0.369l0.849,3.396l1.442-0.722c0.129-0.065,0.28-0.07,0.415-0.015
					c0.134,0.056,0.237,0.166,0.283,0.304l0.818,2.453l1.484-0.742c0.18-0.09,0.398-0.063,0.551,0.069
					c0.153,0.133,0.21,0.344,0.146,0.536l-0.934,2.804l0.907,1.814c0.09,0.181,0.063,0.398-0.069,0.551
					c-0.132,0.154-0.344,0.21-0.536,0.147l-2.768-0.923l-2.796,1.864c-0.168,0.111-0.387,0.111-0.555,0l-2.659-1.772l-1.71,1.71
					C7.257,14.95,7.129,15,7,15z M9,12c0.096,0,0.193,0.027,0.277,0.084L12,13.899l2.723-1.815c0.129-0.086,0.29-0.104,0.436-0.059
					l1.855,0.618l-0.46-0.92c-0.059-0.118-0.069-0.256-0.027-0.382l0.618-1.854l-0.92,0.46c-0.13,0.064-0.281,0.069-0.415,0.015
					c-0.134-0.056-0.237-0.166-0.283-0.304l-0.818-2.453l-1.484,0.742c-0.136,0.068-0.295,0.069-0.433,0.007
					c-0.138-0.063-0.239-0.186-0.276-0.333l-0.746-2.98L9.4,7.8C9.306,7.926,9.157,8,9,8H6.934l1.482,2.223
					c0.078,0.117,0.103,0.262,0.069,0.398L7.923,12.87l0.724-0.724C8.743,12.05,8.871,12,9,12z"/>
			</g>
			<g>
				<circle cx="14" cy="9.5" r="0.5"/>
			</g>
			<g>
				<circle cx="10" cy="9.5" r="0.5"/>
			</g>
			<g>
				<path d="M12,12c-0.128,0-0.256-0.049-0.354-0.146l-1-1c-0.195-0.195-0.195-0.512,0-0.707s0.512-0.195,0.707,0L12,10.793
					l0.646-0.646c0.195-0.195,0.512-0.195,0.707,0s0.195,0.512,0,0.707l-1,1C12.256,11.951,12.128,12,12,12z"/>
			</g>
		</g>
	</g>
</g>
<g id="Tulip_2">
</g>
<g id="Easter_basket">
</g>
<g id="Bread_and_wine">
</g>
<g id="Sheep_2">
</g>
<g id="Candle_Light">
</g>
</svg>
