<?xml version="1.0" encoding="iso-8859-1"?>
<!-- Generator: Adobe Illustrator 19.2.1, SVG Export Plug-In . SVG Version: 6.00 Build 0)  -->
<svg version="1.1" xmlns="http://www.w3.org/2000/svg" xmlns:xlink="http://www.w3.org/1999/xlink" x="0px" y="0px"
	 viewBox="0 0 24 24" style="enable-background:new 0 0 24 24;" xml:space="preserve">
<g id="Egg_1_">
</g>
<g id="Easter_Egg_1_1_">
</g>
<g id="Easter_Egg_2_1_">
</g>
<g id="Easter_Egg_3_1_">
</g>
<g id="Eggs_1_1_">
</g>
<g id="Eggs_2_1_">
</g>
<g id="Bunny_1_">
</g>
<g id="Sheep_1_">
</g>
<g id="Bell_Alarm">
</g>
<g id="Calendar">
</g>
<g id="Tulip_1_">
</g>
<g id="Chicken_1_">
</g>
<g id="Chicken_2_1_">
</g>
<g id="Baguette_1_">
</g>
<g id="Ham_1_">
</g>
<g id="Bell_2">
</g>
<g id="Bell_3">
</g>
<g id="Bell_4">
</g>
<g id="Easter_celebration">
</g>
<g id="Egg_painting">
</g>
<g id="Easter_willow">
</g>
<g id="Daffodil">
	<g>
		<g>
			<path d="M12,13.18c-0.341,0-0.575-0.212-0.747-0.366c-0.044-0.04-0.111-0.101-0.139-0.115c0.014,0.012-0.08,0.031-0.141,0.044
				c-0.222,0.049-0.525,0.112-0.815-0.056c-0.291-0.169-0.387-0.466-0.458-0.684c-0.019-0.059-0.047-0.146-0.064-0.174
				c0.007,0.019-0.082-0.011-0.141-0.031c-0.217-0.07-0.515-0.167-0.683-0.457c-0.167-0.288-0.103-0.593-0.056-0.815
				c0.013-0.062,0.033-0.154,0.031-0.187c-0.003,0.02-0.063-0.049-0.103-0.093C8.531,10.075,8.32,9.841,8.32,9.5
				s0.211-0.575,0.366-0.746c0.04-0.044,0.101-0.111,0.115-0.139C8.797,8.645,8.771,8.534,8.758,8.473
				C8.71,8.251,8.646,7.947,8.813,7.659c0.168-0.292,0.466-0.388,0.684-0.458c0.059-0.019,0.147-0.048,0.174-0.064
				c-0.024-0.003,0.011-0.082,0.03-0.141c0.07-0.217,0.166-0.515,0.458-0.684c0.291-0.166,0.595-0.101,0.814-0.056
				c0.062,0.013,0.147,0.029,0.188,0.031c-0.019-0.001,0.048-0.062,0.092-0.102C11.425,6.032,11.659,5.82,12,5.82
				s0.575,0.212,0.747,0.366c0.044,0.04,0.111,0.101,0.139,0.115c-0.014-0.012,0.08-0.031,0.141-0.044
				c0.222-0.048,0.526-0.111,0.815,0.056c0.291,0.169,0.387,0.466,0.458,0.684c0.019,0.059,0.047,0.146,0.064,0.174
				c-0.007-0.018,0.082,0.012,0.141,0.031c0.217,0.07,0.515,0.167,0.683,0.457c0.167,0.288,0.103,0.593,0.056,0.815
				c-0.013,0.062-0.033,0.154-0.031,0.187c0.004-0.017,0.064,0.05,0.103,0.093C15.469,8.925,15.68,9.159,15.68,9.5
				s-0.211,0.575-0.366,0.746c-0.04,0.044-0.101,0.111-0.115,0.139c0.02-0.018,0.031,0.081,0.043,0.143
				c0.047,0.222,0.111,0.525-0.056,0.813c-0.168,0.292-0.466,0.388-0.684,0.458c-0.059,0.019-0.147,0.048-0.174,0.064
				c0.021,0.001-0.012,0.082-0.03,0.141c-0.07,0.217-0.166,0.515-0.458,0.684c-0.29,0.166-0.594,0.103-0.814,0.056
				c-0.062-0.014-0.161-0.037-0.188-0.031c0.019,0.001-0.048,0.062-0.092,0.102C12.575,12.968,12.341,13.18,12,13.18z
				 M11.159,11.712c0.078,0,0.158,0.008,0.239,0.029c0.227,0.062,0.393,0.21,0.525,0.33c0.022,0.021,0.05,0.046,0.076,0.067
				c0.026-0.021,0.054-0.047,0.076-0.067c0.133-0.119,0.298-0.269,0.525-0.33c0.233-0.061,0.455-0.014,0.633,0.023
				c0.025,0.005,0.056,0.012,0.085,0.018c0.01-0.029,0.02-0.061,0.028-0.086c0.056-0.172,0.125-0.387,0.293-0.556
				c0.169-0.169,0.383-0.238,0.556-0.293c0.025-0.009,0.057-0.019,0.085-0.028c-0.005-0.029-0.012-0.061-0.017-0.085
				c-0.038-0.179-0.085-0.4-0.022-0.634c0.06-0.227,0.21-0.393,0.331-0.525c0.02-0.022,0.045-0.05,0.067-0.075
				c-0.022-0.026-0.047-0.054-0.067-0.075c-0.12-0.133-0.27-0.299-0.331-0.526c-0.062-0.231-0.015-0.453,0.023-0.632
				c0.005-0.025,0.012-0.056,0.017-0.085c-0.029-0.01-0.061-0.021-0.086-0.028c-0.172-0.057-0.387-0.126-0.555-0.294
				c-0.168-0.168-0.238-0.383-0.293-0.556c-0.008-0.025-0.018-0.056-0.028-0.085c-0.03,0.005-0.061,0.012-0.086,0.018
				c-0.177,0.038-0.398,0.084-0.631,0.022c-0.227-0.062-0.393-0.21-0.525-0.33C12.054,6.908,12.026,6.883,12,6.861
				c-0.026,0.021-0.054,0.047-0.076,0.067c-0.133,0.119-0.298,0.269-0.525,0.33c-0.232,0.062-0.454,0.015-0.633-0.023
				c-0.025-0.005-0.056-0.012-0.085-0.018c-0.01,0.029-0.02,0.061-0.028,0.086c-0.056,0.172-0.125,0.387-0.293,0.556
				c-0.169,0.169-0.383,0.238-0.556,0.293C9.779,8.161,9.748,8.171,9.719,8.181C9.724,8.21,9.73,8.241,9.736,8.266
				c0.038,0.179,0.085,0.4,0.022,0.634c-0.06,0.227-0.21,0.393-0.331,0.525C9.408,9.447,9.383,9.475,9.361,9.5
				c0.022,0.026,0.047,0.054,0.067,0.075c0.12,0.133,0.27,0.299,0.331,0.526c0.062,0.231,0.015,0.453-0.023,0.632
				c-0.005,0.025-0.012,0.056-0.017,0.085c0.029,0.01,0.061,0.021,0.086,0.028c0.172,0.057,0.387,0.126,0.555,0.294
				c0.168,0.168,0.238,0.383,0.293,0.556c0.008,0.025,0.018,0.056,0.028,0.085c0.03-0.005,0.061-0.012,0.086-0.018
				C10.882,11.739,11.016,11.712,11.159,11.712z M14.693,9.571h0.01H14.693z"/>
		</g>
		<g>
			<path d="M14,7c-0.071,0-0.144-0.016-0.213-0.048c-0.25-0.118-0.356-0.416-0.239-0.666l0.862-1.825l-2.418-3.46L9.594,4.409
				l0.858,1.877c0.118,0.25,0.011,0.548-0.239,0.666c-0.25,0.117-0.548,0.011-0.666-0.238L8.686,4.889
				C8.524,4.546,8.559,4.141,8.777,3.832l2.415-3.409c0.375-0.529,1.241-0.529,1.616,0l2.415,3.408
				c0.218,0.31,0.253,0.715,0.091,1.058l-0.862,1.825C14.367,6.895,14.187,7,14,7z"/>
		</g>
		<g>
			<path d="M9,10H6.338C5.926,10,5.562,9.753,5.41,9.37l-1.6-3.999C3.687,5.063,3.724,4.715,3.911,4.439
				C4.097,4.164,4.406,4,4.738,4h3.953c0.381,0,0.724,0.212,0.895,0.553l0.862,1.724c0.124,0.247,0.023,0.547-0.224,0.671
				C9.978,7.071,9.677,6.97,9.553,6.724L8.691,5H4.738l1.601,4H9c0.276,0,0.5,0.224,0.5,0.5S9.276,10,9,10z"/>
		</g>
		<g>
			<path d="M17.662,10H15c-0.276,0-0.5-0.224-0.5-0.5S14.724,9,15,9h2.662l1.6-4h-3.952l-0.862,1.724
				c-0.124,0.246-0.423,0.348-0.671,0.224c-0.247-0.124-0.347-0.424-0.224-0.671l0.862-1.724C14.585,4.212,14.928,4,15.309,4h3.953
				c0.332,0,0.642,0.164,0.828,0.439c0.187,0.275,0.224,0.623,0.101,0.932l-1.6,4C18.438,9.753,18.074,10,17.662,10z"/>
		</g>
		<g>
			<path d="M12,19c-0.319,0-0.621-0.158-0.808-0.423l-2.415-3.408c-0.218-0.31-0.253-0.715-0.091-1.058l0.862-1.825
				c0.118-0.249,0.416-0.354,0.666-0.238c0.25,0.118,0.356,0.416,0.239,0.666L9.59,14.539l2.418,3.46l2.398-3.408l-0.858-1.877
				c-0.118-0.25-0.011-0.548,0.239-0.666c0.25-0.116,0.548-0.011,0.666,0.238l0.862,1.825c0.162,0.343,0.127,0.748-0.091,1.057
				l-2.415,3.409C12.621,18.842,12.319,19,12,19z"/>
		</g>
		<g>
			<path d="M8.691,15H4.738c-0.332,0-0.642-0.164-0.828-0.439c-0.187-0.275-0.224-0.623-0.101-0.932l1.6-4
				C5.562,9.247,5.926,9,6.338,9H9c0.276,0,0.5,0.224,0.5,0.5S9.276,10,9,10H6.338l-1.6,4h3.952l0.862-1.724
				c0.124-0.246,0.425-0.349,0.671-0.224c0.247,0.124,0.347,0.424,0.224,0.671l-0.862,1.724C9.415,14.788,9.072,15,8.691,15z"/>
		</g>
		<g>
			<path d="M19.23,15h-3.921c-0.384,0-0.739-0.236-0.903-0.602l-0.862-1.916c-0.113-0.252-0.001-0.548,0.251-0.661
				c0.252-0.115,0.547-0.002,0.661,0.251l0.862,1.916L19.23,14c-0.012-0.001,0.014-0.044-0.007-0.096l-1.556-3.889L15,10
				c-0.276,0-0.5-0.224-0.5-0.5S14.724,9,15,9h2.675c0.403,0,0.765,0.253,0.921,0.646l1.556,3.888
				c0.136,0.341,0.096,0.725-0.108,1.025C19.857,14.835,19.553,15,19.23,15z"/>
		</g>
		<g>
			<path d="M12,24c-0.117,0-0.234-0.041-0.329-0.124c-0.208-0.182-0.229-0.497-0.047-0.705c3.319-3.793,2.884-8.573,2.879-8.621
				c-0.027-0.274,0.173-0.52,0.448-0.547c0.279-0.03,0.52,0.173,0.547,0.447c0.021,0.213,0.48,5.263-3.121,9.379
				C12.277,23.942,12.139,24,12,24z"/>
		</g>
		<g>
			<path d="M12,24c-0.099,0-0.199-0.029-0.286-0.091c-0.227-0.158-0.281-0.47-0.123-0.696c0.145-0.206,3.57-5.082,6.097-7.104
				c0.216-0.172,0.53-0.137,0.703,0.078c0.172,0.216,0.137,0.53-0.078,0.703c-2.415,1.932-5.868,6.847-5.903,6.896
				C12.313,23.926,12.157,24,12,24z"/>
		</g>
		<g>
			<path d="M12,11c-0.827,0-1.5-0.673-1.5-1.5S11.173,8,12,8s1.5,0.673,1.5,1.5S12.827,11,12,11z M12,9c-0.276,0-0.5,0.225-0.5,0.5
				S11.724,10,12,10s0.5-0.225,0.5-0.5S12.276,9,12,9z"/>
		</g>
	</g>
</g>
<g id="Easter_message">
</g>
<g id="Bunny_2">
</g>
<g id="Chicken_3">
</g>
<g id="Tulip_2">
</g>
<g id="Easter_basket">
</g>
<g id="Bread_and_wine">
</g>
<g id="Sheep_2">
</g>
<g id="Candle_Light">
</g>
</svg>
