<?xml version="1.0" encoding="iso-8859-1"?>
<!-- Generator: Adobe Illustrator 19.2.1, SVG Export Plug-In . SVG Version: 6.00 Build 0)  -->
<svg version="1.1" xmlns="http://www.w3.org/2000/svg" xmlns:xlink="http://www.w3.org/1999/xlink" x="0px" y="0px"
	 viewBox="0 0 24 24" style="enable-background:new 0 0 24 24;" xml:space="preserve">
<g id="Egg_1_">
</g>
<g id="Easter_Egg_1_1_">
</g>
<g id="Easter_Egg_2_1_">
</g>
<g id="Easter_Egg_3_1_">
</g>
<g id="Eggs_1_1_">
</g>
<g id="Eggs_2_1_">
</g>
<g id="Bunny_1_">
</g>
<g id="Sheep_1_">
</g>
<g id="Bell_Alarm">
</g>
<g id="Calendar">
</g>
<g id="Tulip_1_">
</g>
<g id="Chicken_1_">
</g>
<g id="Chicken_2_1_">
</g>
<g id="Baguette_1_">
</g>
<g id="Ham_1_">
</g>
<g id="Bell_2">
</g>
<g id="Bell_3">
</g>
<g id="Bell_4">
</g>
<g id="Easter_celebration">
	<g>
		<g>
			<path d="M5.5,3.5C5.224,3.5,5,3.276,5,3V1c0-0.276,0.224-0.5,0.5-0.5S6,0.724,6,1v2C6,3.276,5.776,3.5,5.5,3.5z"/>
		</g>
		<g>
			<path d="M13.5,3.5C13.224,3.5,13,3.276,13,3V1c0-0.276,0.224-0.5,0.5-0.5S14,0.724,14,1v2C14,3.276,13.776,3.5,13.5,3.5z"/>
		</g>
		<g>
			<path d="M11.5,2.5h-4C7.224,2.5,7,2.276,7,2s0.224-0.5,0.5-0.5h4C11.776,1.5,12,1.724,12,2S11.776,2.5,11.5,2.5z"/>
		</g>
		<g>
			<path d="M18.5,5.5h-18C0.224,5.5,0,5.276,0,5s0.224-0.5,0.5-0.5h18C18.776,4.5,19,4.724,19,5S18.776,5.5,18.5,5.5z"/>
		</g>
		<g>
			<path d="M11.5,19.5h-8C1.57,19.5,0,17.93,0,16V5c0-1.93,1.57-3.5,3.5-3.5h12C17.43,1.5,19,3.07,19,5v7c0,0.276-0.224,0.5-0.5,0.5
				S18,12.276,18,12V5c0-1.378-1.121-2.5-2.5-2.5h-12C2.121,2.5,1,3.622,1,5v11c0,1.379,1.121,2.5,2.5,2.5h8
				c0.276,0,0.5,0.224,0.5,0.5S11.776,19.5,11.5,19.5z"/>
		</g>
		<g>
			<path d="M23.5,23.5h-8c-0.231,0-0.432-0.159-0.485-0.384c-0.054-0.226,0.054-0.458,0.261-0.563C15.428,22.477,19,20.615,19,16
				c0-0.227,0.152-0.425,0.372-0.483c0.214-0.055,0.45,0.038,0.563,0.235l4,7c0.088,0.154,0.087,0.345-0.002,0.499
				C23.843,23.405,23.679,23.5,23.5,23.5z M17.081,22.5h5.558l-2.779-4.864C19.432,20.037,18.115,21.604,17.081,22.5z"/>
		</g>
		<g>
			<path d="M15.5,23.5c-0.276,0-0.5-0.224-0.5-0.5c0-5.78,4.147-7.402,4.324-7.468c0.255-0.101,0.544,0.032,0.643,0.291
				c0.098,0.258-0.032,0.546-0.289,0.645C19.527,16.525,16,17.936,16,23C16,23.276,15.776,23.5,15.5,23.5z"/>
		</g>
		<g>
			<path d="M13.5,21.5h-1c-0.276,0-0.5-0.224-0.5-0.5s0.224-0.5,0.5-0.5h1c0.276,0,0.5,0.224,0.5,0.5S13.776,21.5,13.5,21.5z"/>
		</g>
		<g>
			<path d="M17.5,15.5c-0.276,0-0.5-0.224-0.5-0.5v-1c0-0.276,0.224-0.5,0.5-0.5S18,13.724,18,14v1C18,15.276,17.776,15.5,17.5,15.5
				z"/>
		</g>
		<g>
			<path d="M15.5,18.5c-0.128,0-0.256-0.049-0.354-0.146l-1-1c-0.195-0.195-0.195-0.512,0-0.707s0.512-0.195,0.707,0l1,1
				c0.195,0.195,0.195,0.512,0,0.707C15.756,18.451,15.628,18.5,15.5,18.5z"/>
		</g>
		<g>
			<circle cx="15.5" cy="15" r="0.5"/>
		</g>
		<g>
			<circle cx="13.5" cy="19" r="0.5"/>
		</g>
	</g>
	<g>
		<path d="M9.5,15.5C8.121,15.5,7,14.379,7,13c0-1.12,0.887-4.5,2.5-4.5S12,11.88,12,13C12,14.379,10.879,15.5,9.5,15.5z M9.5,9.5
			C8.911,9.5,8,11.825,8,13c0,0.827,0.673,1.5,1.5,1.5S11,13.827,11,13C11,11.825,10.089,9.5,9.5,9.5z"/>
	</g>
</g>
<g id="Egg_painting">
</g>
<g id="Easter_willow">
</g>
<g id="Daffodil">
</g>
<g id="Easter_message">
</g>
<g id="Bunny_2">
</g>
<g id="Chicken_3">
</g>
<g id="Tulip_2">
</g>
<g id="Easter_basket">
</g>
<g id="Bread_and_wine">
</g>
<g id="Sheep_2">
</g>
<g id="Candle_Light">
</g>
</svg>
