<?xml version="1.0" encoding="iso-8859-1"?>
<!-- Generator: Adobe Illustrator 19.2.1, SVG Export Plug-In . SVG Version: 6.00 Build 0)  -->
<svg version="1.1" xmlns="http://www.w3.org/2000/svg" xmlns:xlink="http://www.w3.org/1999/xlink" x="0px" y="0px"
	 viewBox="0 0 24 24" style="enable-background:new 0 0 24 24;" xml:space="preserve">
<g id="Egg_1_">
</g>
<g id="Easter_Egg_1_1_">
</g>
<g id="Easter_Egg_2_1_">
	<g id="Easter_Egg_2">
		<g>
			<path d="M12,24c-5.238,0-9.5-4.262-9.5-9.5C2.5,9.536,6.512,0,12,0s9.5,9.536,9.5,14.5C21.5,19.738,17.238,24,12,24z M12,1
				C7.348,1,3.5,9.938,3.5,14.5c0,4.687,3.813,8.5,8.5,8.5s8.5-3.813,8.5-8.5C20.5,9.938,16.652,1,12,1z"/>
		</g>
		<g>
			<path d="M20,19H4c-0.276,0-0.5-0.224-0.5-0.5S3.724,18,4,18h16c0.276,0,0.5,0.224,0.5,0.5S20.276,19,20,19z"/>
		</g>
		<g>
			<path d="M20.5,13h-17C3.224,13,3,12.776,3,12.5S3.224,12,3.5,12h17c0.276,0,0.5,0.224,0.5,0.5S20.776,13,20.5,13z"/>
		</g>
		<g>
			<path d="M18.5,7h-13C5.224,7,5,6.776,5,6.5S5.224,6,5.5,6h13C18.776,6,19,6.224,19,6.5S18.776,7,18.5,7z"/>
		</g>
		<g>
			<circle cx="6" cy="15.5" r="0.5"/>
		</g>
		<g>
			<circle cx="10" cy="15.5" r="0.5"/>
		</g>
		<g>
			<circle cx="14" cy="15.5" r="0.5"/>
		</g>
		<g>
			<circle cx="18" cy="15.5" r="0.5"/>
		</g>
		<g>
			<circle cx="12" cy="9.5" r="0.5"/>
		</g>
		<g>
			<circle cx="16" cy="9.5" r="0.5"/>
		</g>
		<g>
			<circle cx="8" cy="9.5" r="0.5"/>
		</g>
	</g>
</g>
<g id="Easter_Egg_3_1_">
</g>
<g id="Eggs_1_1_">
</g>
<g id="Eggs_2_1_">
</g>
<g id="Bunny_1_">
</g>
<g id="Sheep_1_">
</g>
<g id="Bell_Alarm">
</g>
<g id="Calendar">
</g>
<g id="Tulip_1_">
</g>
<g id="Chicken_1_">
</g>
<g id="Chicken_2_1_">
</g>
<g id="Baguette_1_">
</g>
<g id="Ham_1_">
</g>
<g id="Bell_2">
</g>
<g id="Bell_3">
</g>
<g id="Bell_4">
</g>
<g id="Easter_celebration">
</g>
<g id="Egg_painting">
</g>
<g id="Easter_willow">
</g>
<g id="Daffodil">
</g>
<g id="Easter_message">
</g>
<g id="Bunny_2">
</g>
<g id="Chicken_3">
</g>
<g id="Tulip_2">
</g>
<g id="Easter_basket">
</g>
<g id="Bread_and_wine">
</g>
<g id="Sheep_2">
</g>
<g id="Candle_Light">
</g>
</svg>
