<?xml version="1.0" encoding="iso-8859-1"?>
<!-- Generator: Adobe Illustrator 19.2.1, SVG Export Plug-In . SVG Version: 6.00 Build 0)  -->
<svg version="1.1" xmlns="http://www.w3.org/2000/svg" xmlns:xlink="http://www.w3.org/1999/xlink" x="0px" y="0px"
	 viewBox="0 0 24 24" style="enable-background:new 0 0 24 24;" xml:space="preserve">
<g id="Egg_1_">
</g>
<g id="Easter_Egg_1_1_">
</g>
<g id="Easter_Egg_2_1_">
</g>
<g id="Easter_Egg_3_1_">
</g>
<g id="Eggs_1_1_">
</g>
<g id="Eggs_2_1_">
</g>
<g id="Bunny_1_">
</g>
<g id="Sheep_1_">
</g>
<g id="Bell_Alarm">
</g>
<g id="Calendar">
</g>
<g id="Tulip_1_">
</g>
<g id="Chicken_1_">
</g>
<g id="Chicken_2_1_">
</g>
<g id="Baguette_1_">
</g>
<g id="Ham_1_">
</g>
<g id="Bell_2">
</g>
<g id="Bell_3">
</g>
<g id="Bell_4">
</g>
<g id="Easter_celebration">
</g>
<g id="Egg_painting">
</g>
<g id="Easter_willow">
</g>
<g id="Daffodil">
</g>
<g id="Easter_message">
	<g>
		<g>
			<path d="M11.5,14C9.57,14,8,12.43,8,10.5C8,8.617,9.478,5,11.5,5S15,8.617,15,10.5C15,12.43,13.43,14,11.5,14z M11.5,6
				C10.285,6,9,8.927,9,10.5c0,1.379,1.122,2.5,2.5,2.5s2.5-1.121,2.5-2.5C14,8.927,12.715,6,11.5,6z"/>
		</g>
		<g>
			<path d="M12.5,12c-0.128,0-0.256-0.049-0.354-0.146L11.5,11.207l-0.646,0.646c-0.195,0.195-0.512,0.195-0.707,0L9.5,11.207
				l-0.53,0.53c-0.195,0.195-0.512,0.195-0.707,0s-0.195-0.512,0-0.707l0.884-0.884c0.195-0.195,0.512-0.195,0.707,0l0.646,0.646
				l0.646-0.646c0.195-0.195,0.512-0.195,0.707,0l0.646,0.646l0.646-0.646c0.195-0.195,0.512-0.195,0.707,0l0.86,0.86
				c0.195,0.195,0.195,0.512,0,0.707s-0.512,0.195-0.707,0L13.5,11.207l-0.646,0.646C12.756,11.951,12.628,12,12.5,12z"/>
		</g>
		<g>
			<path d="M12.5,9c-0.128,0-0.256-0.049-0.354-0.146L11.5,8.207l-0.646,0.646c-0.195,0.195-0.512,0.195-0.707,0L9.025,7.732
				c-0.195-0.195-0.195-0.512,0-0.707s0.512-0.195,0.707,0L10.5,7.793l0.646-0.646c0.195-0.195,0.512-0.195,0.707,0L12.5,7.793
				l0.76-0.76c0.195-0.195,0.512-0.195,0.707,0s0.195,0.512,0,0.707l-1.114,1.113C12.756,8.951,12.628,9,12.5,9z"/>
		</g>
		<g>
			<g id="XMLID_8_">
				<path d="M0.5,24c-0.057,0-0.115-0.01-0.17-0.03C0.132,23.898,0,23.711,0,23.5v-19C0,2.019,2.019,0,4.5,0h14
					C20.981,0,23,2.019,23,4.5v9c0,2.481-2.019,4.5-4.5,4.5H5.734l-4.85,5.82C0.787,23.937,0.646,24,0.5,24z M4.5,1
					C2.57,1,1,2.57,1,4.5v17.619l4.116-4.939C5.211,17.065,5.352,17,5.5,17h13c1.93,0,3.5-1.57,3.5-3.5v-9C22,2.57,20.43,1,18.5,1
					H4.5z"/>
			</g>
		</g>
	</g>
</g>
<g id="Bunny_2">
</g>
<g id="Chicken_3">
</g>
<g id="Tulip_2">
</g>
<g id="Easter_basket">
</g>
<g id="Bread_and_wine">
</g>
<g id="Sheep_2">
</g>
<g id="Candle_Light">
</g>
</svg>
