<?xml version="1.0" encoding="iso-8859-1"?>
<!-- Generator: Adobe Illustrator 19.2.1, SVG Export Plug-In . SVG Version: 6.00 Build 0)  -->
<svg version="1.1" xmlns="http://www.w3.org/2000/svg" xmlns:xlink="http://www.w3.org/1999/xlink" x="0px" y="0px"
	 viewBox="0 0 24 24" style="enable-background:new 0 0 24 24;" xml:space="preserve">
<g id="Egg_1_">
</g>
<g id="Easter_Egg_1_1_">
</g>
<g id="Easter_Egg_2_1_">
</g>
<g id="Easter_Egg_3_1_">
</g>
<g id="Eggs_1_1_">
</g>
<g id="Eggs_2_1_">
</g>
<g id="Bunny_1_">
</g>
<g id="Sheep_1_">
</g>
<g id="Bell_Alarm">
</g>
<g id="Calendar">
</g>
<g id="Tulip_1_">
</g>
<g id="Chicken_1_">
</g>
<g id="Chicken_2_1_">
</g>
<g id="Baguette_1_">
</g>
<g id="Ham_1_">
</g>
<g id="Bell_2">
</g>
<g id="Bell_3">
</g>
<g id="Bell_4">
</g>
<g id="Easter_celebration">
</g>
<g id="Egg_painting">
</g>
<g id="Easter_willow">
</g>
<g id="Daffodil">
</g>
<g id="Easter_message">
</g>
<g id="Bunny_2">
</g>
<g id="Chicken_3">
</g>
<g id="Tulip_2">
</g>
<g id="Easter_basket">
	<g>
		<g>
			<path d="M12,23.757c-5.149,0-9.5-4.579-9.5-10c0-0.276,0.224-0.5,0.5-0.5s0.5,0.224,0.5,0.5c0,4.794,3.972,9,8.5,9
				s8.5-4.206,8.5-9c0-0.276,0.224-0.5,0.5-0.5s0.5,0.224,0.5,0.5C21.5,19.178,17.149,23.757,12,23.757z"/>
		</g>
		<g>
			<path d="M12,15.757c-3.528,0-9.5-0.526-9.5-2.5s5.972-2.5,9.5-2.5s9.5,0.526,9.5,2.5S15.528,15.757,12,15.757z M12,11.757
				c-5.303,0-8.353,0.982-8.501,1.509c0.147,0.509,3.196,1.491,8.501,1.491c5.275,0,8.32-0.972,8.498-1.5
				C20.319,12.729,17.273,11.757,12,11.757z M20.501,13.266h0.01H20.501z"/>
		</g>
		<g>
			<path d="M3,13.757L3,13.757c-0.276-0.001-0.5-0.224-0.5-0.5S2.56,6.455,7.713,2.848C7.939,2.689,8.251,2.743,8.409,2.97
				c0.159,0.227,0.104,0.538-0.122,0.696C3.566,6.971,3.5,13.195,3.5,13.257C3.499,13.533,3.275,13.757,3,13.757z"/>
		</g>
		<g>
			<path d="M21,13.757c-0.275,0-0.499-0.224-0.5-0.5c0-0.062-0.066-6.286-4.787-9.591c-0.226-0.158-0.281-0.47-0.122-0.696
				c0.158-0.227,0.47-0.28,0.696-0.122C21.44,6.455,21.5,12.98,21.5,13.257S21.276,13.756,21,13.757L21,13.757z"/>
		</g>
		<g>
			<path d="M12,18.757c-4.519,0-7.992-0.978-8.138-1.02c-0.265-0.075-0.419-0.353-0.343-0.617c0.075-0.266,0.352-0.425,0.617-0.344
				c0.035,0.01,3.492,0.98,7.863,0.98s7.828-0.971,7.863-0.98c0.262-0.08,0.541,0.078,0.617,0.344
				c0.076,0.265-0.078,0.542-0.343,0.617C19.992,17.779,16.519,18.757,12,18.757z"/>
		</g>
		<g>
			<path d="M12,21.757c-4.05,0-6.58-0.993-6.686-1.036c-0.256-0.103-0.381-0.393-0.278-0.648c0.102-0.257,0.392-0.381,0.649-0.28
				c0.023,0.01,2.472,0.965,6.314,0.965s6.291-0.955,6.314-0.965c0.256-0.101,0.547,0.023,0.649,0.28
				c0.103,0.256-0.022,0.546-0.278,0.648C18.58,20.764,16.05,21.757,12,21.757z"/>
		</g>
		<g>
			<g>
				<path d="M12,5.757c-0.855,0-1.5-1.075-1.5-2.5s0.645-2.5,1.5-2.5s1.5,1.075,1.5,2.5S12.855,5.757,12,5.757z M12,1.757
					c-0.124,0-0.5,0.532-0.5,1.5s0.376,1.5,0.5,1.5s0.5-0.532,0.5-1.5S12.124,1.757,12,1.757z"/>
			</g>
			<g>
				<path d="M16.144,6.271c-0.151,0-0.305-0.035-0.447-0.106l-2.92-1.461C12.607,4.619,12.5,4.446,12.5,4.257v-2
					c0-0.189,0.107-0.362,0.276-0.447l2.92-1.46c0.362-0.182,0.795-0.127,1.103,0.139c0.307,0.266,0.422,0.687,0.294,1.072
					l-0.565,1.696l0,0l0.565,1.697c0.128,0.385,0.013,0.806-0.294,1.071C16.612,6.188,16.379,6.271,16.144,6.271z M13.5,3.948
					l2.644,1.322l-0.565-1.697c-0.068-0.206-0.068-0.425,0-0.632l0.565-1.697L13.5,2.565V3.948z"/>
			</g>
			<g>
				<path d="M7.856,6.271c-0.236,0-0.469-0.084-0.655-0.246C6.895,5.76,6.779,5.339,6.907,4.954l0.565-1.697L6.907,1.561
					C6.779,1.175,6.895,0.754,7.201,0.488S7.94,0.168,8.304,0.35l2.92,1.46C11.393,1.895,11.5,2.067,11.5,2.257v2
					c0,0.189-0.107,0.362-0.276,0.447l-2.92,1.461C8.161,6.236,8.008,6.271,7.856,6.271z M7.853,1.242L8.422,2.94
					c0.068,0.208,0.068,0.427,0,0.633L7.856,5.271L10.5,3.948V2.565L7.856,1.244C7.854,1.242,7.853,1.242,7.853,1.242z"/>
			</g>
		</g>
	</g>
</g>
<g id="Bread_and_wine">
</g>
<g id="Sheep_2">
</g>
<g id="Candle_Light">
</g>
</svg>
