<?xml version="1.0" encoding="iso-8859-1"?>
<!-- Generator: Adobe Illustrator 19.2.1, SVG Export Plug-In . SVG Version: 6.00 Build 0)  -->
<svg version="1.1" xmlns="http://www.w3.org/2000/svg" xmlns:xlink="http://www.w3.org/1999/xlink" x="0px" y="0px"
	 viewBox="0 0 24 24" style="enable-background:new 0 0 24 24;" xml:space="preserve">
<g id="Egg_1_">
</g>
<g id="Easter_Egg_1_1_">
	<g id="Easter_Egg_1">
		<g>
			<path d="M12,24c-5.238,0-9.5-4.262-9.5-9.5C2.5,9.536,6.512,0,12,0s9.5,9.536,9.5,14.5C21.5,19.738,17.238,24,12,24z M12,1
				C7.348,1,3.5,9.938,3.5,14.5c0,4.687,3.813,8.5,8.5,8.5s8.5-3.813,8.5-8.5C20.5,9.938,16.652,1,12,1z"/>
		</g>
		<g>
			<path d="M15,19c-0.128,0-0.256-0.049-0.354-0.146L12,16.207l-2.646,2.646c-0.195,0.195-0.512,0.195-0.707,0L6,16.207
				l-1.646,1.646c-0.195,0.195-0.512,0.195-0.707,0s-0.195-0.512,0-0.707l2-2c0.195-0.195,0.512-0.195,0.707,0L9,17.793l2.646-2.646
				c0.195-0.195,0.512-0.195,0.707,0L15,17.793l2.646-2.646c0.195-0.195,0.512-0.195,0.707,0l2,2c0.195,0.195,0.195,0.512,0,0.707
				s-0.512,0.195-0.707,0L18,16.207l-2.646,2.646C15.256,18.951,15.128,19,15,19z"/>
		</g>
		<g>
			<path d="M15,13c-0.128,0-0.256-0.049-0.354-0.146L12,10.207l-2.646,2.646c-0.195,0.195-0.512,0.195-0.707,0L6,10.207
				l-2.146,2.146c-0.195,0.195-0.512,0.195-0.707,0s-0.195-0.512,0-0.707l2.5-2.5c0.195-0.195,0.512-0.195,0.707,0L9,11.793
				l2.646-2.646c0.195-0.195,0.512-0.195,0.707,0L15,11.793l2.646-2.646c0.195-0.195,0.512-0.195,0.707,0l2.5,2.5
				c0.195,0.195,0.195,0.512,0,0.707s-0.512,0.195-0.707,0L18,10.207l-2.646,2.646C15.256,12.951,15.128,13,15,13z"/>
		</g>
	</g>
</g>
<g id="Easter_Egg_2_1_">
</g>
<g id="Easter_Egg_3_1_">
</g>
<g id="Eggs_1_1_">
</g>
<g id="Eggs_2_1_">
</g>
<g id="Bunny_1_">
</g>
<g id="Sheep_1_">
</g>
<g id="Bell_Alarm">
</g>
<g id="Calendar">
</g>
<g id="Tulip_1_">
</g>
<g id="Chicken_1_">
</g>
<g id="Chicken_2_1_">
</g>
<g id="Baguette_1_">
</g>
<g id="Ham_1_">
</g>
<g id="Bell_2">
</g>
<g id="Bell_3">
</g>
<g id="Bell_4">
</g>
<g id="Easter_celebration">
</g>
<g id="Egg_painting">
</g>
<g id="Easter_willow">
</g>
<g id="Daffodil">
</g>
<g id="Easter_message">
</g>
<g id="Bunny_2">
</g>
<g id="Chicken_3">
</g>
<g id="Tulip_2">
</g>
<g id="Easter_basket">
</g>
<g id="Bread_and_wine">
</g>
<g id="Sheep_2">
</g>
<g id="Candle_Light">
</g>
</svg>
