<?xml version="1.0" encoding="iso-8859-1"?>
<!-- Generator: Adobe Illustrator 19.2.1, SVG Export Plug-In . SVG Version: 6.00 Build 0)  -->
<svg version="1.1" xmlns="http://www.w3.org/2000/svg" xmlns:xlink="http://www.w3.org/1999/xlink" x="0px" y="0px"
	 viewBox="0 0 24 24" style="enable-background:new 0 0 24 24;" xml:space="preserve">
<g id="Egg_1_">
</g>
<g id="Easter_Egg_1_1_">
</g>
<g id="Easter_Egg_2_1_">
</g>
<g id="Easter_Egg_3_1_">
</g>
<g id="Eggs_1_1_">
</g>
<g id="Eggs_2_1_">
</g>
<g id="Bunny_1_">
</g>
<g id="Sheep_1_">
</g>
<g id="Bell_Alarm">
</g>
<g id="Calendar">
</g>
<g id="Tulip_1_">
</g>
<g id="Chicken_1_">
</g>
<g id="Chicken_2_1_">
</g>
<g id="Baguette_1_">
</g>
<g id="Ham_1_">
</g>
<g id="Bell_2">
</g>
<g id="Bell_3">
</g>
<g id="Bell_4">
</g>
<g id="Easter_celebration">
</g>
<g id="Egg_painting">
</g>
<g id="Easter_willow">
	<g>
		<g>
			<path d="M9.5,24c-0.259,0-0.478-0.199-0.498-0.462C8.045,11.112,4.308,8.964,4.27,8.943c-0.241-0.129-0.336-0.43-0.21-0.672
				s0.421-0.338,0.664-0.219C4.897,8.14,8.988,10.33,9.999,23.462c0.021,0.275-0.185,0.516-0.46,0.536C9.525,24,9.512,24,9.5,24z"/>
		</g>
		<g>
			<path d="M9.5,24c-0.251,0-0.468-0.189-0.497-0.444c-0.501-4.51,1.899-22.365,2.001-23.123c0.037-0.273,0.287-0.474,0.563-0.428
				c0.274,0.036,0.466,0.288,0.429,0.563c-0.025,0.184-2.486,18.489-1.999,22.877c0.03,0.275-0.167,0.522-0.442,0.553
				C9.537,23.999,9.518,24,9.5,24z"/>
		</g>
		<g>
			<path d="M9.5,24c-0.03,0-0.06-0.003-0.09-0.008c-0.272-0.05-0.452-0.31-0.402-0.582c1.006-5.533,8.742-17.666,9.071-18.18
				c0.148-0.233,0.458-0.303,0.69-0.151c0.232,0.148,0.3,0.458,0.151,0.69c-0.079,0.124-7.958,12.479-8.929,17.82
				C9.948,23.831,9.738,24,9.5,24z"/>
		</g>
		<g>
			<path d="M6.036,13.996c-0.608,0-1.355-0.357-2.015-1.017c-1.008-1.008-1.312-2.225-0.707-2.829
				c0.604-0.604,1.819-0.3,2.828,0.707c1.008,1.008,1.312,2.225,0.707,2.829C6.64,13.896,6.357,13.996,6.036,13.996z M4.125,10.832
				c-0.052,0-0.088,0.009-0.104,0.025c-0.088,0.088,0.022,0.73,0.707,1.415s1.325,0.794,1.414,0.707
				c0.012-0.013,0.056-0.132-0.035-0.403C6,12.253,5.754,11.884,5.435,11.564C4.879,11.009,4.351,10.832,4.125,10.832z"/>
		</g>
		<g>
			<path d="M7.5,12C6.645,12,6,10.925,6,9.5S6.645,7,7.5,7S9,8.075,9,9.5S8.355,12,7.5,12z M7.5,8C7.375,8,7,8.532,7,9.5
				S7.375,11,7.5,11S8,10.468,8,9.5S7.625,8,7.5,8z"/>
		</g>
		<g>
			<path d="M13.5,14c-0.855,0-1.5-1.075-1.5-2.5S12.645,9,13.5,9s1.5,1.075,1.5,2.5S14.355,14,13.5,14z M13.5,10
				c-0.125,0-0.5,0.532-0.5,1.5s0.375,1.5,0.5,1.5s0.5-0.532,0.5-1.5S13.625,10,13.5,10z"/>
		</g>
		<g>
			<path d="M13.964,15.996c-0.322,0-0.604-0.101-0.813-0.31c-0.605-0.604-0.301-1.821,0.707-2.829
				c1.008-1.006,2.223-1.312,2.828-0.707c0.605,0.604,0.301,1.821-0.707,2.829C15.32,15.638,14.572,15.996,13.964,15.996z
				 M15.875,12.832c-0.226,0-0.753,0.177-1.31,0.732c-0.319,0.319-0.564,0.688-0.672,1.012c-0.091,0.271-0.047,0.391-0.035,0.403
				c0.086,0.087,0.729-0.022,1.414-0.707c0.685-0.685,0.795-1.327,0.707-1.415C15.962,12.841,15.927,12.832,15.875,12.832z"/>
		</g>
		<g>
			<path d="M18.5,11c-1.425,0-2.5-0.645-2.5-1.5S17.075,8,18.5,8S21,8.645,21,9.5S19.925,11,18.5,11z M18.5,9
				C17.532,9,17,9.376,17,9.5s0.532,0.5,1.5,0.5S20,9.624,20,9.5S19.468,9,18.5,9z"/>
		</g>
		<g>
			<path d="M12.127,4.159c-0.321,0-0.604-0.101-0.813-0.31l0,0c-0.605-0.604-0.301-1.821,0.707-2.829
				c1.008-1.007,2.224-1.311,2.828-0.707c0.605,0.604,0.301,1.821-0.707,2.829C13.483,3.801,12.735,4.159,12.127,4.159z
				 M12.021,3.143c0.085,0.089,0.729-0.023,1.414-0.707C13.754,2.116,14,1.747,14.107,1.424c0.091-0.271,0.047-0.391,0.035-0.403
				c-0.089-0.09-0.729,0.022-1.414,0.707C12.044,2.412,11.933,3.054,12.021,3.143L12.021,3.143z"/>
		</g>
		<g>
			<path d="M10.036,6.996c-0.608,0-1.355-0.357-2.015-1.017C7.013,4.972,6.709,3.755,7.314,3.15
				c0.602-0.604,1.819-0.301,2.828,0.707c1.008,1.008,1.312,2.225,0.707,2.829C10.64,6.896,10.357,6.996,10.036,6.996z M8.125,3.832
				c-0.052,0-0.088,0.009-0.104,0.025c-0.088,0.088,0.022,0.73,0.707,1.415c0.685,0.685,1.324,0.794,1.414,0.707
				c0.012-0.013,0.056-0.132-0.035-0.403C10,5.253,9.754,4.884,9.435,4.564C8.879,4.009,8.351,3.832,8.125,3.832z"/>
		</g>
	</g>
</g>
<g id="Daffodil">
</g>
<g id="Easter_message">
</g>
<g id="Bunny_2">
</g>
<g id="Chicken_3">
</g>
<g id="Tulip_2">
</g>
<g id="Easter_basket">
</g>
<g id="Bread_and_wine">
</g>
<g id="Sheep_2">
</g>
<g id="Candle_Light">
</g>
</svg>
