<?xml version="1.0" encoding="iso-8859-1"?>
<!-- Generator: Adobe Illustrator 19.2.1, SVG Export Plug-In . SVG Version: 6.00 Build 0)  -->
<svg version="1.1" xmlns="http://www.w3.org/2000/svg" xmlns:xlink="http://www.w3.org/1999/xlink" x="0px" y="0px"
	 viewBox="0 0 24 24" style="enable-background:new 0 0 24 24;" xml:space="preserve">
<g id="Egg_1_">
</g>
<g id="Easter_Egg_1_1_">
</g>
<g id="Easter_Egg_2_1_">
</g>
<g id="Easter_Egg_3_1_">
</g>
<g id="Eggs_1_1_">
</g>
<g id="Eggs_2_1_">
</g>
<g id="Bunny_1_">
</g>
<g id="Sheep_1_">
</g>
<g id="Bell_Alarm">
</g>
<g id="Calendar">
</g>
<g id="Tulip_1_">
</g>
<g id="Chicken_1_">
</g>
<g id="Chicken_2_1_">
</g>
<g id="Baguette_1_">
</g>
<g id="Ham_1_">
</g>
<g id="Bell_2">
</g>
<g id="Bell_3">
</g>
<g id="Bell_4">
</g>
<g id="Easter_celebration">
</g>
<g id="Egg_painting">
	<g>
		<g>
			<path d="M7.5,24C3.364,24,0,20.636,0,16.5C0,12.331,3.242,4,7.5,4c1.895,0,3.556,1.264,4.938,3.758
				c0.134,0.241,0.047,0.545-0.195,0.68c-0.239,0.134-0.545,0.047-0.68-0.195C10.37,6.091,9.003,5,7.5,5C4.075,5,1,12.811,1,16.5
				C1,20.084,3.916,23,7.5,23s6.5-2.916,6.5-6.5c0-0.146,0.008-0.336,0.017-0.546c0.02-0.455,0.044-1.021-0.011-1.378
				c-0.042-0.272,0.145-0.528,0.418-0.57c0.269-0.042,0.528,0.146,0.57,0.418c0.07,0.454,0.043,1.074,0.021,1.573
				C15.008,16.19,15,16.365,15,16.5C15,20.636,11.636,24,7.5,24z"/>
		</g>
		<g>
			<path d="M9.5,15c-0.185,0-0.354-0.102-0.44-0.264s-0.078-0.359,0.024-0.513C9.093,14.209,10,12.826,10,11.5
				c0-0.934,0.632-1.823,1.573-2.213c0.838-0.348,1.711-0.209,2.28,0.359c1.234,1.234,0.665,3.042,0,3.707
				c-0.052,0.052-0.104,0.11-0.16,0.173C13.168,14.113,12.374,15,9.5,15z M12.499,10.098c-0.24,0-0.451,0.075-0.543,0.113
				C11.48,10.408,11,10.883,11,11.5c0,0.93-0.338,1.843-0.636,2.468c1.715-0.138,2.21-0.69,2.585-1.108
				c0.068-0.077,0.133-0.148,0.197-0.213c0.315-0.316,0.794-1.499,0-2.293C12.95,10.157,12.713,10.098,12.499,10.098z"/>
		</g>
		<g>
			<path d="M14,11.5c-0.132,0-0.264-0.052-0.361-0.155c-0.191-0.2-0.184-0.516,0.016-0.707l9.207-8.793
				c0.188-0.187,0.188-0.504-0.008-0.699c-0.195-0.195-0.512-0.195-0.707,0l-8.795,8.709c-0.196,0.194-0.513,0.192-0.707-0.003
				c-0.194-0.196-0.192-0.513,0.004-0.708l8.793-8.707c0.583-0.583,1.534-0.581,2.119,0.002c0.585,0.585,0.585,1.536,0,2.121
				l-9.215,8.801C14.248,11.454,14.124,11.5,14,11.5z"/>
		</g>
		<g>
			<path d="M17.5,8c-0.128,0-0.256-0.049-0.354-0.146l-1-1c-0.195-0.195-0.195-0.512,0-0.707s0.512-0.195,0.707,0l1,1
				c0.195,0.195,0.195,0.512,0,0.707C17.756,7.951,17.628,8,17.5,8z"/>
		</g>
		<g>
			<path style="fill:#FFFFFF;" d="M11,11c0,0,1,0,1,1s1,1,1,1"/>
			<path d="M13,13.5c-0.603,0-1.5-0.399-1.5-1.5c0-0.403-0.275-0.494-0.506-0.5c-0.273-0.007-0.494-0.232-0.49-0.506
				C10.507,10.72,10.727,10.5,11,10.5c0.603,0,1.5,0.399,1.5,1.5c0,0.403,0.275,0.494,0.506,0.5c0.273,0.007,0.494,0.232,0.49,0.506
				C13.493,13.28,13.273,13.5,13,13.5z"/>
		</g>
		<g>
			<path style="fill:#FFFFFF;" d="M3.5,7.5l0.646,0.646c0.195,0.195,0.512,0.195,0.707,0l0.293-0.293
				c0.195-0.195,0.512-0.195,0.707,0l0.293,0.293c0.195,0.195,0.512,0.195,0.707,0l0.293-0.293c0.195-0.195,0.512-0.195,0.707,0
				l0.293,0.293c0.195,0.195,0.512,0.195,0.707,0l0.293-0.293c0.195-0.195,0.512-0.195,0.707,0l0.293,0.293
				c0.195,0.195,0.512,0.195,0.707,0L11.5,7.5"/>
			<path d="M10.5,8.792c-0.256,0-0.512-0.098-0.707-0.292L9.5,8.207L9.207,8.5c-0.391,0.39-1.023,0.39-1.414,0L7.5,8.207L7.207,8.5
				c-0.391,0.39-1.023,0.39-1.414,0L5.5,8.207L5.207,8.5c-0.391,0.39-1.023,0.39-1.414,0L3.146,7.854
				c-0.195-0.195-0.195-0.512,0-0.707s0.512-0.195,0.707,0L4.5,7.793L4.793,7.5c0.391-0.39,1.023-0.39,1.414,0L6.5,7.793L6.793,7.5
				c0.391-0.39,1.023-0.39,1.414,0L8.5,7.793L8.793,7.5c0.391-0.39,1.023-0.39,1.414,0L10.5,7.793l0.646-0.646
				c0.195-0.195,0.512-0.195,0.707,0s0.195,0.512,0,0.707L11.207,8.5C11.012,8.695,10.756,8.792,10.5,8.792z"/>
		</g>
		<g>
			<path d="M8.5,15c-0.128,0-0.256-0.049-0.354-0.146L7.5,14.207L7.207,14.5c-0.391,0.391-1.023,0.391-1.414,0L5.5,14.207
				L5.207,14.5c-0.391,0.391-1.023,0.391-1.414,0L3.5,14.207L3.207,14.5c-0.391,0.391-1.023,0.391-1.414,0l-0.646-0.646
				c-0.195-0.195-0.195-0.512,0-0.707s0.512-0.195,0.707,0L2.5,13.793L2.793,13.5c0.391-0.391,1.023-0.391,1.414,0L4.5,13.793
				L4.793,13.5c0.391-0.391,1.023-0.391,1.414,0L6.5,13.793L6.793,13.5c0.391-0.391,1.023-0.391,1.414,0l0.646,0.646
				c0.195,0.195,0.195,0.512,0,0.707C8.756,14.951,8.628,15,8.5,15z"/>
		</g>
	</g>
</g>
<g id="Easter_willow">
</g>
<g id="Daffodil">
</g>
<g id="Easter_message">
</g>
<g id="Bunny_2">
</g>
<g id="Chicken_3">
</g>
<g id="Tulip_2">
</g>
<g id="Easter_basket">
</g>
<g id="Bread_and_wine">
</g>
<g id="Sheep_2">
</g>
<g id="Candle_Light">
</g>
</svg>
