<?xml version="1.0" encoding="iso-8859-1"?>
<!-- Generator: Adobe Illustrator 19.2.1, SVG Export Plug-In . SVG Version: 6.00 Build 0)  -->
<svg version="1.1" xmlns="http://www.w3.org/2000/svg" xmlns:xlink="http://www.w3.org/1999/xlink" x="0px" y="0px"
	 viewBox="0 0 24 24" style="enable-background:new 0 0 24 24;" xml:space="preserve">
<g id="Egg_1_">
	<g id="Egg">
		<g>
			<path d="M15.5,24h-7C7.673,24,7,23.327,7,22.5c0-0.969,0.409-1.883,1.104-2.535C5.653,18.587,4,16.032,4,13.5
				C4,13.224,4.224,13,4.5,13h15c0.276,0,0.5,0.224,0.5,0.5c0,2.532-1.653,5.087-4.104,6.465C16.591,20.617,17,21.531,17,22.5
				C17,23.327,16.327,24,15.5,24z M5.025,14c0.222,2.231,1.901,4.411,4.236,5.424c0.175,0.076,0.291,0.245,0.3,0.435
				c0.009,0.19-0.091,0.369-0.258,0.461C8.5,20.763,8,21.599,8,22.5C8,22.776,8.224,23,8.5,23h7c0.276,0,0.5-0.224,0.5-0.5
				c0-0.901-0.5-1.737-1.303-2.18c-0.167-0.092-0.267-0.271-0.258-0.461c0.009-0.19,0.125-0.359,0.3-0.435
				c2.335-1.013,4.014-3.193,4.236-5.424H5.025z"/>
		</g>
		<g>
			<path d="M9.857,18.547c-0.066,0-0.134-0.013-0.199-0.042c-1.284-0.557-2.396-1.565-3.049-2.767
				c-0.132-0.242-0.042-0.546,0.2-0.678c0.243-0.133,0.546-0.042,0.678,0.2c0.549,1.009,1.486,1.857,2.57,2.328
				c0.253,0.11,0.369,0.404,0.259,0.658C10.234,18.435,10.05,18.547,9.857,18.547z"/>
		</g>
		<g>
			<path d="M18.5,14c-0.276,0-0.5-0.224-0.5-0.5V12c0-3.528-2.839-11-6-11S6,8.472,6,12v1.5C6,13.776,5.776,14,5.5,14
				S5,13.776,5,13.5V12C5,8.421,7.956,0,12,0s7,8.421,7,12v1.5C19,13.776,18.776,14,18.5,14z"/>
		</g>
	</g>
</g>
<g id="Easter_Egg_1_1_">
</g>
<g id="Easter_Egg_2_1_">
</g>
<g id="Easter_Egg_3_1_">
</g>
<g id="Eggs_1_1_">
</g>
<g id="Eggs_2_1_">
</g>
<g id="Bunny_1_">
</g>
<g id="Sheep_1_">
</g>
<g id="Bell_Alarm">
</g>
<g id="Calendar">
</g>
<g id="Tulip_1_">
</g>
<g id="Chicken_1_">
</g>
<g id="Chicken_2_1_">
</g>
<g id="Baguette_1_">
</g>
<g id="Ham_1_">
</g>
<g id="Bell_2">
</g>
<g id="Bell_3">
</g>
<g id="Bell_4">
</g>
<g id="Easter_celebration">
</g>
<g id="Egg_painting">
</g>
<g id="Easter_willow">
</g>
<g id="Daffodil">
</g>
<g id="Easter_message">
</g>
<g id="Bunny_2">
</g>
<g id="Chicken_3">
</g>
<g id="Tulip_2">
</g>
<g id="Easter_basket">
</g>
<g id="Bread_and_wine">
</g>
<g id="Sheep_2">
</g>
<g id="Candle_Light">
</g>
</svg>
