<?xml version="1.0" encoding="iso-8859-1"?>
<!-- Generator: Adobe Illustrator 19.2.1, SVG Export Plug-In . SVG Version: 6.00 Build 0)  -->
<svg version="1.1" xmlns="http://www.w3.org/2000/svg" xmlns:xlink="http://www.w3.org/1999/xlink" x="0px" y="0px"
	 viewBox="0 0 24 24" style="enable-background:new 0 0 24 24;" xml:space="preserve">
<g id="Egg_1_">
</g>
<g id="Easter_Egg_1_1_">
</g>
<g id="Easter_Egg_2_1_">
</g>
<g id="Easter_Egg_3_1_">
</g>
<g id="Eggs_1_1_">
	<g id="Eggs_1">
		<g>
			<path d="M9.969,11.959c-0.276,0-0.5-0.224-0.5-0.5c0-0.134-0.011-0.271-0.033-0.408C9.313,10.29,8.789,9.171,8.163,8.33
				C7.483,7.419,6.766,6.928,6.249,7.01c-0.9,0.146-1.644,2.047-1.773,3.731c-0.021,0.275-0.265,0.481-0.537,0.46
				c-0.275-0.021-0.481-0.261-0.46-0.537c0.113-1.478,0.805-4.35,2.61-4.643c0.924-0.145,1.942,0.458,2.875,1.71
				c0.735,0.986,1.308,2.227,1.459,3.159c0.031,0.191,0.045,0.38,0.045,0.567C10.469,11.736,10.245,11.959,9.969,11.959z"/>
		</g>
		<g>
			<path d="M13.957,11.959c-0.276,0-0.5-0.224-0.5-0.5c0-0.187,0.015-0.376,0.045-0.567c0.151-0.933,0.724-2.173,1.459-3.16
				c0.933-1.252,1.953-1.855,2.875-1.71c1.806,0.292,2.498,3.167,2.61,4.645c0.021,0.275-0.185,0.516-0.46,0.537
				c-0.268,0.02-0.516-0.186-0.537-0.46c-0.129-1.686-0.872-3.588-1.773-3.734c-0.512-0.081-1.234,0.409-1.914,1.32
				c-0.626,0.841-1.15,1.96-1.273,2.722c-0.022,0.136-0.033,0.273-0.033,0.407C14.457,11.736,14.233,11.959,13.957,11.959z"/>
		</g>
		<g>
			<path d="M9.396,9.916c-0.056,0-0.113-0.009-0.169-0.029c-0.26-0.093-0.395-0.379-0.302-0.64C9.199,8.485,10.225,6,11.969,6
				c1.739,0,2.765,2.476,3.039,3.235c0.093,0.26-0.042,0.546-0.301,0.64c-0.262,0.093-0.546-0.042-0.64-0.301
				C13.521,8.058,12.659,7,11.969,7c-0.692,0-1.556,1.063-2.102,2.585C9.794,9.789,9.602,9.916,9.396,9.916z"/>
		</g>
		<g>
			<path d="M11.252,7.208c-0.189,0-0.37-0.107-0.455-0.29C10.251,5.735,9.55,5,8.969,5C8.408,5,7.75,5.664,7.207,6.775
				c-0.12,0.248-0.419,0.353-0.668,0.23c-0.248-0.121-0.351-0.42-0.23-0.668C7.043,4.83,7.988,4,8.969,4
				c1.377,0,2.306,1.565,2.737,2.499c0.116,0.251,0.006,0.548-0.244,0.664C11.394,7.194,11.322,7.208,11.252,7.208z"/>
		</g>
		<g>
			<path d="M12.685,7.208c-0.07,0-0.141-0.015-0.209-0.046c-0.25-0.116-0.36-0.413-0.244-0.664C12.663,5.565,13.592,4,14.969,4
				c0.979,0,1.923,0.828,2.658,2.332c0.121,0.249,0.019,0.548-0.229,0.669c-0.249,0.121-0.547,0.018-0.669-0.229
				C16.186,5.662,15.528,5,14.969,5c-0.582,0-1.283,0.735-1.829,1.918C13.055,7.101,12.874,7.208,12.685,7.208z"/>
		</g>
		<g>
			<path d="M12,21C5.659,21,0.5,15.841,0.5,9.5C0.5,9.224,0.724,9,1,9s0.5,0.224,0.5,0.5C1.5,15.29,6.21,20,12,20
				s10.5-4.71,10.5-10.5C22.5,9.224,22.724,9,23,9s0.5,0.224,0.5,0.5C23.5,15.841,18.341,21,12,21z"/>
		</g>
		<g>
			<path d="M12,12c-0.47,0-11.5-0.028-11.5-2.5c0-0.565,0.422-1.386,4.069-1.981c0.274-0.042,0.53,0.141,0.574,0.413
				S5.003,8.461,4.73,8.506C2.296,8.903,1.568,9.387,1.493,9.54C1.765,10.013,5.509,11,12,11s10.235-0.987,10.507-1.54
				c-0.077-0.076-0.822-0.568-3.318-0.967c-0.272-0.043-0.458-0.3-0.415-0.573c0.043-0.272,0.301-0.461,0.573-0.415
				C23.069,8.101,23.5,8.929,23.5,9.5C23.5,11.972,12.47,12,12,12z"/>
		</g>
		<g>
			<path d="M12,15c-4.807,0-8.97-0.546-10.607-1.391c-0.245-0.126-0.341-0.428-0.215-0.674c0.126-0.245,0.427-0.34,0.674-0.215
				C3.311,13.474,7.484,14,12,14c4.511,0,8.683-0.525,10.146-1.278c0.247-0.126,0.547-0.029,0.674,0.216
				c0.126,0.246,0.029,0.547-0.216,0.674C20.963,14.455,16.802,15,12,15z"/>
		</g>
		<g>
			<path d="M12,18c-3.158,0-6.183-0.247-8.299-0.676c-0.271-0.055-0.445-0.319-0.391-0.59c0.055-0.27,0.32-0.44,0.59-0.391
				C5.954,16.761,8.906,17,12,17s6.046-0.239,8.1-0.657c0.275-0.049,0.535,0.121,0.59,0.391c0.055,0.271-0.12,0.535-0.391,0.59
				C18.183,17.753,15.158,18,12,18z"/>
		</g>
	</g>
</g>
<g id="Eggs_2_1_">
</g>
<g id="Bunny_1_">
</g>
<g id="Sheep_1_">
</g>
<g id="Bell_Alarm">
</g>
<g id="Calendar">
</g>
<g id="Tulip_1_">
</g>
<g id="Chicken_1_">
</g>
<g id="Chicken_2_1_">
</g>
<g id="Baguette_1_">
</g>
<g id="Ham_1_">
</g>
<g id="Bell_2">
</g>
<g id="Bell_3">
</g>
<g id="Bell_4">
</g>
<g id="Easter_celebration">
</g>
<g id="Egg_painting">
</g>
<g id="Easter_willow">
</g>
<g id="Daffodil">
</g>
<g id="Easter_message">
</g>
<g id="Bunny_2">
</g>
<g id="Chicken_3">
</g>
<g id="Tulip_2">
</g>
<g id="Easter_basket">
</g>
<g id="Bread_and_wine">
</g>
<g id="Sheep_2">
</g>
<g id="Candle_Light">
</g>
</svg>
