<?xml version="1.0" encoding="iso-8859-1"?>
<!-- Generator: Adobe Illustrator 19.2.1, SVG Export Plug-In . SVG Version: 6.00 Build 0)  -->
<svg version="1.1" xmlns="http://www.w3.org/2000/svg" xmlns:xlink="http://www.w3.org/1999/xlink" x="0px" y="0px"
	 viewBox="0 0 24 24" style="enable-background:new 0 0 24 24;" xml:space="preserve">
<g id="Egg_1_">
</g>
<g id="Easter_Egg_1_1_">
</g>
<g id="Easter_Egg_2_1_">
</g>
<g id="Easter_Egg_3_1_">
</g>
<g id="Eggs_1_1_">
</g>
<g id="Eggs_2_1_">
	<g id="Eggs_2">
		<g>
			<path d="M9.127,15.866c-0.215,0-0.413-0.139-0.479-0.355C8.55,15.186,8.5,14.846,8.5,14.5C8.5,12.617,9.978,9,12,9
				s3.5,3.617,3.5,5.5c0,0.337-0.048,0.669-0.142,0.987c-0.078,0.265-0.356,0.417-0.621,0.338c-0.265-0.078-0.416-0.356-0.338-0.621
				c0.066-0.226,0.101-0.463,0.101-0.704c0-1.574-1.285-4.5-2.5-4.5s-2.5,2.926-2.5,4.5c0,0.247,0.035,0.49,0.105,0.721
				c0.08,0.264-0.069,0.543-0.334,0.624C9.224,15.859,9.175,15.866,9.127,15.866z"/>
		</g>
		<g>
			<path d="M18.999,15.344c-0.003,0-0.006,0-0.009,0c-0.275-0.005-0.496-0.232-0.491-0.508c0.028-1.645-0.488-3.568-1.372-3.809
				c-0.511-0.138-1.271,0.278-2.041,1.111c-0.187,0.202-0.503,0.216-0.707,0.028c-0.202-0.188-0.215-0.504-0.027-0.707
				c1.061-1.148,2.142-1.641,3.039-1.397c1.497,0.408,2.143,2.77,2.108,4.79C19.494,15.125,19.271,15.344,18.999,15.344z"/>
		</g>
		<g>
			<path d="M5.002,15.375c-0.271,0-0.494-0.217-0.5-0.49c-0.042-2.035,0.6-4.412,2.107-4.823c0.902-0.246,1.979,0.251,3.039,1.397
				c0.188,0.203,0.175,0.519-0.027,0.707c-0.203,0.188-0.52,0.174-0.707-0.028c-0.77-0.833-1.526-1.249-2.041-1.111
				c-0.892,0.243-1.405,2.181-1.371,3.838c0.006,0.276-0.214,0.504-0.489,0.51C5.009,15.375,5.005,15.375,5.002,15.375z"/>
		</g>
		<g>
			<path d="M12,16c-1.586,0-9.5-0.096-9.5-2c0-0.678,0.769-1.117,2.57-1.467c0.265-0.051,0.533,0.124,0.587,0.396
				c0.053,0.271-0.125,0.533-0.396,0.586c-0.975,0.189-1.432,0.376-1.637,0.49C4.338,14.397,7.164,15,12,15s7.662-0.603,8.375-0.996
				c-0.205-0.113-0.662-0.301-1.637-0.49c-0.271-0.053-0.448-0.315-0.396-0.586c0.053-0.272,0.317-0.448,0.587-0.396
				c1.802,0.35,2.57,0.789,2.57,1.467C21.5,15.904,13.586,16,12,16z M20.53,14.112h0.01H20.53z"/>
		</g>
		<g>
			<path d="M12,19.976c-3.242,0-6.184-0.28-7.867-0.75c-0.266-0.074-0.421-0.35-0.347-0.616c0.074-0.265,0.35-0.422,0.616-0.347
				c1.577,0.44,4.488,0.713,7.598,0.713c3.107,0,6.019-0.273,7.597-0.713c0.26-0.078,0.541,0.081,0.615,0.347
				s-0.081,0.542-0.348,0.616C18.181,19.696,15.24,19.976,12,19.976z"/>
		</g>
		<g>
			<path d="M12,24c-5.149,0-9.5-4.58-9.5-10c0-0.276,0.224-0.5,0.5-0.5s0.5,0.224,0.5,0.5c0,4.794,3.972,9,8.5,9s8.5-4.206,8.5-9
				c0-0.276,0.224-0.5,0.5-0.5s0.5,0.224,0.5,0.5C21.5,19.42,17.149,24,12,24z"/>
		</g>
		<g>
			<path d="M3,14.5c-0.183,0-0.359-0.101-0.447-0.276C1.845,12.812,1.5,11.43,1.5,10C1.5,4.486,6.21,0,12,0s10.5,4.486,10.5,10
				c0,1.427-0.345,2.809-1.053,4.224c-0.123,0.248-0.426,0.346-0.671,0.224c-0.247-0.124-0.347-0.424-0.224-0.671
				C21.19,12.503,21.5,11.268,21.5,10c0-4.962-4.262-9-9.5-9s-9.5,4.038-9.5,9c0,1.271,0.31,2.506,0.947,3.776
				c0.123,0.247,0.023,0.547-0.223,0.671C3.152,14.483,3.076,14.5,3,14.5z"/>
		</g>
	</g>
</g>
<g id="Bunny_1_">
</g>
<g id="Sheep_1_">
</g>
<g id="Bell_Alarm">
</g>
<g id="Calendar">
</g>
<g id="Tulip_1_">
</g>
<g id="Chicken_1_">
</g>
<g id="Chicken_2_1_">
</g>
<g id="Baguette_1_">
</g>
<g id="Ham_1_">
</g>
<g id="Bell_2">
</g>
<g id="Bell_3">
</g>
<g id="Bell_4">
</g>
<g id="Easter_celebration">
</g>
<g id="Egg_painting">
</g>
<g id="Easter_willow">
</g>
<g id="Daffodil">
</g>
<g id="Easter_message">
</g>
<g id="Bunny_2">
</g>
<g id="Chicken_3">
</g>
<g id="Tulip_2">
</g>
<g id="Easter_basket">
</g>
<g id="Bread_and_wine">
</g>
<g id="Sheep_2">
</g>
<g id="Candle_Light">
</g>
</svg>
