<?xml version="1.0" encoding="iso-8859-1"?>
<!-- Generator: Adobe Illustrator 19.2.1, SVG Export Plug-In . SVG Version: 6.00 Build 0)  -->
<svg version="1.1" xmlns="http://www.w3.org/2000/svg" xmlns:xlink="http://www.w3.org/1999/xlink" x="0px" y="0px"
	 viewBox="0 0 24 24" style="enable-background:new 0 0 24 24;" xml:space="preserve">
<g id="Egg_1_">
</g>
<g id="Easter_Egg_1_1_">
</g>
<g id="Easter_Egg_2_1_">
</g>
<g id="Easter_Egg_3_1_">
</g>
<g id="Eggs_1_1_">
</g>
<g id="Eggs_2_1_">
</g>
<g id="Bunny_1_">
</g>
<g id="Sheep_1_">
</g>
<g id="Bell_Alarm">
</g>
<g id="Calendar">
</g>
<g id="Tulip_1_">
</g>
<g id="Chicken_1_">
</g>
<g id="Chicken_2_1_">
</g>
<g id="Baguette_1_">
</g>
<g id="Ham_1_">
	<g id="Ham">
		<g>
			<path d="M11.5,9C11.224,9,11,8.776,11,8.5S11.224,8,11.5,8c1.861,0,3.065-1.223,5.463-3.658c0.366-0.372,0.758-0.77,1.184-1.195
				C18.965,2.328,19,2.05,19,1.5C19,0.477,20.193,0,21,0c1.327,0,2,0.673,2,2c0,0.276-0.224,0.5-0.5,0.5S22,2.276,22,2
				c0-0.928-0.415-1-1-1c-0.351,0-1,0.206-1,0.5c0,0.851-0.159,1.366-1.146,2.354c-0.423,0.423-0.814,0.82-1.178,1.19
				C15.164,7.595,13.78,9,11.5,9z"/>
		</g>
		<g>
			<path d="M17.5,14c-0.276,0-0.5-0.224-0.5-0.5l-0.004-0.559c-0.023-2.26-0.048-4.596,3.15-7.794C20.89,4.403,21.406,4,22,4
				c0.041,0,1-0.006,1-0.5c0-0.598-0.258-1-0.5-1c-0.073,0-0.073,0-0.168,0.103C22.192,2.751,21.959,3,21.5,3
				C21.224,3,21,2.776,21,2.5S21.224,2,21.5,2c0.018,0,0.024-0.002,0.024-0.002c0.009-0.006,0.048-0.048,0.077-0.079
				C21.748,1.763,21.994,1.5,22.5,1.5c0.855,0,1.5,0.86,1.5,2C24,4.536,22.996,5,22,5c-0.293,0-0.891,0.598-1.146,0.854
				c-2.901,2.901-2.88,4.93-2.857,7.077L18,13.5C18,13.776,17.776,14,17.5,14z"/>
		</g>
		<g>
			<path d="M10.198,23.998c-0.637,0-1.286-0.05-1.888-0.132C5.813,23.526,3.641,22.642,2.5,21.5
				c-1.198-1.198-2.035-2.624-2.357-4.015c-0.341-1.476-0.07-2.747,0.763-3.58c0.833-0.835,2.104-1.107,3.58-0.763
				C5.876,13.464,7.302,14.302,8.5,15.5l0,0c0.495,0.495,1.075,1.023,1.666,1.563c1.976,1.802,3.843,3.504,3.875,4.925
				c0.01,0.423-0.145,0.806-0.447,1.107C12.931,23.759,11.593,23.998,10.198,23.998z M3.295,13.999
				c-0.697,0-1.278,0.208-1.683,0.613c-0.581,0.581-0.757,1.521-0.496,2.647c0.281,1.211,1.023,2.466,2.09,3.533
				c0.978,0.978,2.985,1.775,5.238,2.082c2.048,0.277,3.877,0.078,4.443-0.487c0.11-0.11,0.158-0.227,0.154-0.377
				c-0.023-0.994-1.978-2.776-3.549-4.21c-0.603-0.55-1.194-1.089-1.699-1.594l0,0c-1.067-1.067-2.322-1.811-3.534-2.091
				C3.92,14.038,3.597,13.999,3.295,13.999z"/>
		</g>
		<g>
			<path d="M5.5,20C4.673,20,4,19.327,4,18.5S4.673,17,5.5,17S7,17.673,7,18.5S6.327,20,5.5,20z M5.5,18C5.224,18,5,18.225,5,18.5
				S5.224,19,5.5,19S6,18.775,6,18.5S5.776,18,5.5,18z"/>
		</g>
		<g>
			<path d="M13,23.5c-0.179,0-0.352-0.096-0.442-0.265c-0.13-0.244-0.038-0.547,0.206-0.677c6.199-3.306,4.826-7.227,4.375-8.515
				c-0.051-0.146-0.089-0.254-0.112-0.347C16.036,12.307,13.295,9,11.5,9c-4.658,0-8.887,2.857-9.769,5.422
				c-0.09,0.261-0.376,0.399-0.635,0.31c-0.261-0.09-0.4-0.374-0.31-0.636C1.798,11.152,6.345,8,11.5,8
				c2.683,0,6.036,4.68,6.41,5.213C17.968,13.297,18,13.397,18,13.5c0.008,0.007,0.042,0.096,0.083,0.213
				c1.399,3.994-0.232,7.267-4.848,9.729C13.16,23.481,13.08,23.5,13,23.5z"/>
		</g>
	</g>
</g>
<g id="Bell_2">
</g>
<g id="Bell_3">
</g>
<g id="Bell_4">
</g>
<g id="Easter_celebration">
</g>
<g id="Egg_painting">
</g>
<g id="Easter_willow">
</g>
<g id="Daffodil">
</g>
<g id="Easter_message">
</g>
<g id="Bunny_2">
</g>
<g id="Chicken_3">
</g>
<g id="Tulip_2">
</g>
<g id="Easter_basket">
</g>
<g id="Bread_and_wine">
</g>
<g id="Sheep_2">
</g>
<g id="Candle_Light">
</g>
</svg>
