<?xml version="1.0" encoding="iso-8859-1"?>
<!-- Generator: Adobe Illustrator 19.2.1, SVG Export Plug-In . SVG Version: 6.00 Build 0)  -->
<svg version="1.1" xmlns="http://www.w3.org/2000/svg" xmlns:xlink="http://www.w3.org/1999/xlink" x="0px" y="0px"
	 viewBox="0 0 24 24" style="enable-background:new 0 0 24 24;" xml:space="preserve">
<g id="Egg_1_">
</g>
<g id="Easter_Egg_1_1_">
</g>
<g id="Easter_Egg_2_1_">
</g>
<g id="Easter_Egg_3_1_">
</g>
<g id="Eggs_1_1_">
</g>
<g id="Eggs_2_1_">
</g>
<g id="Bunny_1_">
</g>
<g id="Sheep_1_">
	<g id="Sheep">
		<g>
			<path d="M14.5,20.999h-1.095c-0.774,0-1.416-0.581-1.492-1.352l-0.41-4.099c-0.028-0.275,0.173-0.52,0.447-0.547
				c0.268-0.022,0.52,0.173,0.547,0.448l0.41,4.099c0.026,0.257,0.24,0.451,0.498,0.451H14v-4.5c0-0.276,0.224-0.5,0.5-0.5
				s0.5,0.224,0.5,0.5v5C15,20.775,14.776,20.999,14.5,20.999z"/>
		</g>
		<g>
			<path d="M6.5,20.999H5.588c-0.544,0-1.046-0.295-1.311-0.77l-0.496-0.892c-0.135-0.241-0.048-0.546,0.193-0.68
				c0.239-0.131,0.546-0.049,0.68,0.194l0.496,0.891c0.089,0.158,0.256,0.256,0.438,0.256h0.271L5.015,16.62
				c-0.066-0.268,0.096-0.539,0.364-0.606c0.263-0.07,0.54,0.096,0.606,0.364l1,4c0.037,0.149,0.004,0.308-0.091,0.429
				C6.8,20.928,6.654,20.999,6.5,20.999z"/>
		</g>
		<g>
			<path d="M10.13,20.999H9.218c-0.154,0-0.301-0.071-0.396-0.193s-0.127-0.281-0.089-0.431l1.282-5
				c0.068-0.267,0.344-0.429,0.608-0.36c0.268,0.069,0.429,0.341,0.36,0.608l-1.122,4.376h0.268c0.182,0,0.349-0.098,0.436-0.256
				l1.171-1.773c0.15-0.231,0.461-0.294,0.692-0.141c0.23,0.152,0.294,0.462,0.142,0.693l-1.15,1.74
				C11.177,20.704,10.675,20.999,10.13,20.999z"/>
		</g>
		<g>
			<path d="M3.095,20.999H2c-0.141,0-0.274-0.059-0.369-0.163c-0.095-0.104-0.142-0.243-0.129-0.383l0.5-5.5
				c0.025-0.275,0.293-0.48,0.543-0.453c0.275,0.025,0.479,0.268,0.453,0.543l-0.45,4.955h0.547c0.258,0,0.472-0.193,0.498-0.45
				l0.923-3.672c0.066-0.267,0.329-0.432,0.607-0.362c0.268,0.068,0.43,0.34,0.361,0.607l-0.91,3.599
				C4.511,20.418,3.869,20.999,3.095,20.999z"/>
		</g>
		<g>
			<circle cx="19.5" cy="6.499" r="0.5"/>
		</g>
		<g>
			<path d="M19.5,10.999c-0.613,0-1.223-0.169-1.763-0.491c-0.157-0.093-0.251-0.265-0.245-0.448c0.008-0.6-0.291-1.101-0.771-1.368
				c-0.151-0.083-0.249-0.24-0.257-0.413c-0.009-0.173,0.072-0.337,0.215-0.436C16.883,7.704,17,7.486,17,7.249
				c0-0.27-0.152-0.513-0.406-0.649c-0.244-0.13-0.336-0.433-0.206-0.677c0.132-0.245,0.438-0.334,0.677-0.205
				C17.642,6.027,18,6.613,18,7.249c0,0.338-0.102,0.665-0.285,0.942c0.44,0.416,0.72,0.979,0.775,1.585
				c0.321,0.148,0.659,0.223,1.01,0.223c1.382,0,3.5-1.609,3.5-3c0-1.288-2.069-2-3.5-2c-0.42,0-1.076,0.147-1.404,0.316
				c-0.243,0.125-0.547,0.03-0.674-0.216c-0.126-0.246-0.028-0.547,0.217-0.673c0.466-0.239,1.283-0.426,1.861-0.426
				c1.814,0,4.5,0.954,4.5,3C24,8.983,21.382,10.999,19.5,10.999z"/>
		</g>
		<g>
			<path d="M16.446,5.863c-0.128,0-0.256-0.049-0.354-0.146c-0.918-0.918-0.808-1.682-0.398-2.091
				c0.912-0.912,1.545-0.663,1.914-0.293c0.328,0.329,0.693,1.134,0.775,1.582c0.051,0.271-0.129,0.532-0.4,0.583
				c-0.266,0.05-0.533-0.129-0.582-0.401c-0.054-0.287-0.343-0.899-0.5-1.057c-0.05-0.039-0.171-0.037-0.5,0.293
				c-0.047,0.047,0.051,0.329,0.398,0.677c0.195,0.195,0.195,0.512,0,0.707C16.702,5.814,16.574,5.863,16.446,5.863z"/>
		</g>
		<g>
			<path d="M6.74,16.999c-0.819,0-1.568-0.418-2.009-1.083c-0.803,0.326-1.785-0.072-2.146-0.844C1.19,15.197,0,14.048,0,12.659
				c0-0.663,0.276-1.288,0.747-1.738C0.267,10.325,0,9.585,0,8.819c0-1.864,1.517-3.38,3.38-3.38c0.361,0,0.719,0.061,1.067,0.181
				C4.992,4.907,5.836,4.479,6.74,4.479c0.701,0,1.364,0.252,1.883,0.697c0.484-0.719,1.304-1.177,2.197-1.177
				c0.805,0,1.563,0.374,2.064,0.997c0.271-0.06,0.541-0.048,0.811,0.041c0.383-0.339,0.885-0.538,1.426-0.558
				c0.583-0.021,1.159,0.134,1.561,0.413c0.027,0.02,0.053,0.042,0.076,0.066c0.037,0.021,0.115,0.085,0.146,0.115
				c0.303,0.301,0.45,0.687,0.425,1.115c-0.016,0.275-0.251,0.48-0.528,0.469c-0.276-0.016-0.486-0.253-0.47-0.529
				c0.007-0.122-0.021-0.216-0.092-0.303c-0.044-0.026-0.092-0.058-0.14-0.104c-0.008-0.008-0.022-0.024-0.037-0.041
				c-0.227-0.137-0.573-0.213-0.903-0.203c-0.392,0.015-0.729,0.18-0.949,0.465c-0.153,0.2-0.433,0.254-0.648,0.126
				c-0.247-0.147-0.409-0.147-0.647-0.027c-0.237,0.118-0.526,0.031-0.658-0.199c-0.297-0.521-0.847-0.845-1.435-0.845
				c-0.733,0-1.387,0.498-1.589,1.211C9.178,6.399,9.019,6.539,8.825,6.568c-0.2,0.029-0.388-0.058-0.494-0.222
				C7.978,5.803,7.383,5.479,6.74,5.479c-0.689,0-1.326,0.383-1.661,1C4.95,6.714,4.658,6.807,4.42,6.689
				c-0.339-0.167-0.689-0.25-1.04-0.25C2.067,6.439,1,7.506,1,8.819c0,0.679,0.302,1.331,0.827,1.788
				c0.123,0.107,0.187,0.268,0.169,0.43c-0.018,0.163-0.112,0.306-0.256,0.385C1.283,11.673,1,12.147,1,12.659
				c0,0.783,0.637,1.42,1.42,1.42c0.112,0,0.232-0.019,0.379-0.06c0.138-0.039,0.288-0.016,0.408,0.064
				c0.12,0.079,0.2,0.206,0.221,0.348c0.075,0.538,0.771,0.781,1.156,0.408c0.122-0.119,0.302-0.167,0.464-0.127
				c0.167,0.04,0.301,0.162,0.356,0.324c0.198,0.576,0.734,0.962,1.336,0.962c0.545,0,1.033-0.309,1.273-0.807
				c0.113-0.233,0.382-0.342,0.627-0.25c0.66,0.25,1.31,0,1.668-0.519c0.102-0.147,0.259-0.234,0.453-0.214
				c0.178,0.015,0.335,0.124,0.411,0.286c0.154,0.33,0.487,0.543,0.847,0.543c0.396,0,0.74-0.242,0.879-0.618
				c0.06-0.163,0.2-0.283,0.371-0.317c0.17-0.036,0.347,0.023,0.465,0.15c0.182,0.196,0.425,0.304,0.686,0.304
				c0.519,0,0.94-0.422,0.94-0.94c-0.016-0.225,0.114-0.483,0.327-0.558c0.378-0.132,0.633-0.486,0.633-0.882
				c-0.014-0.162,0.049-0.334,0.174-0.438c0.123-0.104,0.288-0.156,0.444-0.115c0.546,0.142,0.896-0.022,1.023-0.367
				c0.098-0.261-0.011-0.553-0.297-0.801c-0.209-0.181-0.231-0.497-0.051-0.706c0.181-0.208,0.497-0.231,0.705-0.05
				c0.611,0.529,0.828,1.242,0.58,1.907c-0.248,0.665-0.917,1.083-1.646,1.071c-0.133,0.494-0.459,0.919-0.908,1.177
				c-0.116,0.959-0.936,1.704-1.926,1.704c-0.317,0-0.629-0.081-0.907-0.229c-0.678,0.822-2.073,0.903-2.84,0.159
				c-0.54,0.442-1.259,0.648-1.977,0.506C8.246,16.623,7.528,16.999,6.74,16.999z"/>
		</g>
	</g>
</g>
<g id="Bell_Alarm">
</g>
<g id="Calendar">
</g>
<g id="Tulip_1_">
</g>
<g id="Chicken_1_">
</g>
<g id="Chicken_2_1_">
</g>
<g id="Baguette_1_">
</g>
<g id="Ham_1_">
</g>
<g id="Bell_2">
</g>
<g id="Bell_3">
</g>
<g id="Bell_4">
</g>
<g id="Easter_celebration">
</g>
<g id="Egg_painting">
</g>
<g id="Easter_willow">
</g>
<g id="Daffodil">
</g>
<g id="Easter_message">
</g>
<g id="Bunny_2">
</g>
<g id="Chicken_3">
</g>
<g id="Tulip_2">
</g>
<g id="Easter_basket">
</g>
<g id="Bread_and_wine">
</g>
<g id="Sheep_2">
</g>
<g id="Candle_Light">
</g>
</svg>
