<?xml version="1.0" encoding="iso-8859-1"?>
<!-- Generator: Adobe Illustrator 19.2.1, SVG Export Plug-In . SVG Version: 6.00 Build 0)  -->
<svg version="1.1" xmlns="http://www.w3.org/2000/svg" xmlns:xlink="http://www.w3.org/1999/xlink" x="0px" y="0px"
	 viewBox="0 0 24 24" style="enable-background:new 0 0 24 24;" xml:space="preserve">
<g id="Egg_1_">
</g>
<g id="Easter_Egg_1_1_">
</g>
<g id="Easter_Egg_2_1_">
</g>
<g id="Easter_Egg_3_1_">
</g>
<g id="Eggs_1_1_">
</g>
<g id="Eggs_2_1_">
</g>
<g id="Bunny_1_">
</g>
<g id="Sheep_1_">
</g>
<g id="Bell_Alarm">
</g>
<g id="Calendar">
</g>
<g id="Tulip_1_">
</g>
<g id="Chicken_1_">
</g>
<g id="Chicken_2_1_">
</g>
<g id="Baguette_1_">
</g>
<g id="Ham_1_">
</g>
<g id="Bell_2">
</g>
<g id="Bell_3">
</g>
<g id="Bell_4">
</g>
<g id="Easter_celebration">
</g>
<g id="Egg_painting">
</g>
<g id="Easter_willow">
</g>
<g id="Daffodil">
</g>
<g id="Easter_message">
</g>
<g id="Bunny_2">
</g>
<g id="Chicken_3">
</g>
<g id="Tulip_2">
</g>
<g id="Easter_basket">
</g>
<g id="Bread_and_wine">
</g>
<g id="Sheep_2">
	<g>
		<g>
			<path d="M9.242,14.5c-0.819,0-1.568-0.418-2.009-1.083c-0.806,0.327-1.784-0.072-2.145-0.844
				c-1.41,0.124-2.586-1.024-2.586-2.413c0-0.663,0.276-1.288,0.747-1.738C2.77,7.826,2.503,7.086,2.503,6.32
				c0-1.863,1.517-3.38,3.38-3.38c0.36,0,0.718,0.061,1.066,0.181C7.494,2.408,8.338,1.98,9.242,1.98
				c0.701,0,1.365,0.252,1.883,0.696C11.609,1.958,12.429,1.5,13.322,1.5c0.805,0,1.564,0.374,2.065,0.997
				c0.267-0.06,0.54-0.049,0.81,0.041C16.581,2.199,17.083,2,17.625,1.98c0.556-0.015,1.156,0.133,1.559,0.413
				c0.028,0.02,0.054,0.041,0.077,0.065c0.036,0.021,0.113,0.086,0.144,0.115c0.14,0.138,0.245,0.293,0.317,0.462
				c0.648,0.159,1.14,0.525,1.425,1.063c0.594,1.121,0.166,2.681-0.071,3.358c0.413,0.491,0.536,1.088,0.327,1.65
				c-0.25,0.669-0.902,1.105-1.661,1.07c-0.137,0.51-0.457,0.926-0.894,1.177c-0.116,0.959-0.936,1.704-1.925,1.704
				c-0.323,0-0.633-0.078-0.908-0.227c-0.677,0.818-2.073,0.9-2.839,0.157c-0.539,0.443-1.265,0.646-1.978,0.506
				C10.748,14.124,10.03,14.5,9.242,14.5z M7.434,12.2c0.039,0,0.078,0.005,0.117,0.014c0.166,0.04,0.3,0.162,0.355,0.324
				C8.104,13.113,8.641,13.5,9.242,13.5c0.545,0,1.033-0.309,1.273-0.807c0.113-0.233,0.386-0.339,0.628-0.25
				c0.647,0.247,1.307,0.002,1.667-0.519c0.102-0.146,0.271-0.23,0.452-0.214c0.178,0.015,0.335,0.123,0.411,0.285
				c0.158,0.335,0.483,0.544,0.849,0.544c0.389,0,0.742-0.248,0.877-0.617c0.061-0.163,0.201-0.283,0.371-0.317
				c0.177-0.036,0.347,0.023,0.465,0.15c0.183,0.195,0.426,0.304,0.688,0.304c0.518,0,0.939-0.422,0.939-0.939
				c-0.015-0.225,0.114-0.484,0.327-0.559c0.379-0.131,0.633-0.485,0.633-0.882c-0.007-0.158,0.06-0.335,0.183-0.435
				c0.124-0.101,0.287-0.158,0.438-0.118c0.526,0.139,0.895-0.021,1.022-0.368c0.098-0.261-0.012-0.553-0.298-0.801
				c-0.163-0.142-0.218-0.372-0.134-0.571c0.212-0.506,0.666-1.998,0.229-2.819c-0.13-0.244-0.334-0.413-0.623-0.514
				c-0.092,0.072-0.214,0.117-0.338,0.105c-0.276-0.017-0.486-0.253-0.47-0.528c0.007-0.123-0.021-0.217-0.092-0.303
				c-0.046-0.027-0.1-0.064-0.15-0.117c-0.2-0.151-0.559-0.242-0.929-0.23c-0.393,0.014-0.729,0.179-0.948,0.464
				c-0.154,0.2-0.432,0.253-0.648,0.127c-0.253-0.147-0.412-0.146-0.647-0.028c-0.237,0.119-0.527,0.033-0.659-0.198
				C14.456,2.815,13.92,2.5,13.322,2.5c-0.734,0-1.387,0.498-1.588,1.211c-0.054,0.188-0.212,0.329-0.406,0.358
				c-0.203,0.029-0.388-0.058-0.494-0.222C10.48,3.305,9.886,2.98,9.242,2.98c-0.689,0-1.326,0.383-1.661,1
				C7.452,4.216,7.163,4.307,6.922,4.19c-0.34-0.166-0.689-0.25-1.039-0.25c-1.313,0-2.38,1.067-2.38,2.38
				c0,0.679,0.302,1.33,0.827,1.788c0.123,0.106,0.187,0.268,0.169,0.43C4.481,8.701,4.386,8.845,4.243,8.924
				c-0.457,0.251-0.74,0.725-0.74,1.236c0,0.783,0.637,1.42,1.42,1.42c0.111,0,0.231-0.019,0.379-0.06
				c0.139-0.04,0.286-0.015,0.408,0.063c0.12,0.079,0.2,0.206,0.221,0.349c0.076,0.536,0.767,0.781,1.156,0.407
				C7.181,12.249,7.306,12.2,7.434,12.2z"/>
		</g>
		<g>
			<path d="M1,18.5c-0.276,0-0.5-0.224-0.5-0.5c0-4.159,2.059-6.266,2.146-6.354c0.195-0.193,0.51-0.194,0.705-0.001
				c0.195,0.194,0.196,0.511,0.003,0.707c-0.018,0.018-1.685,1.75-1.843,5.133c1.1-0.061,2.604-0.308,3.135-0.839
				c0.195-0.195,0.512-0.195,0.707,0s0.195,0.512,0,0.707C4.239,18.468,1.328,18.5,1,18.5z"/>
		</g>
		<g>
			<path d="M23,18.5c-0.328,0-3.239-0.032-4.354-1.146c-0.195-0.195-0.195-0.512,0-0.707s0.512-0.195,0.707,0
				c0.531,0.531,2.033,0.777,3.133,0.838c-0.206-3.713-2.605-4.983-2.712-5.038c-0.245-0.126-0.344-0.426-0.22-0.672
				c0.124-0.245,0.426-0.344,0.669-0.222C20.357,11.62,23.5,13.246,23.5,18C23.5,18.276,23.276,18.5,23,18.5z"/>
		</g>
		<g>
			<path d="M16,16.5c-0.115,0-0.23-0.039-0.324-0.12l-0.293-0.25c-0.205-0.172-0.561-0.173-0.766,0.001l-0.293,0.249
				c-0.207,0.181-0.523,0.156-0.704-0.056c-0.18-0.21-0.154-0.525,0.056-0.704l0.293-0.25c0.578-0.494,1.484-0.493,2.063-0.001
				l0.293,0.251c0.21,0.179,0.235,0.494,0.056,0.704C16.281,16.44,16.141,16.5,16,16.5z"/>
		</g>
		<g>
			<path d="M13,20.5c-0.276,0-0.5-0.224-0.5-0.5c0-0.827,0.673-1.5,1.5-1.5c0.276,0,0.5,0.224,0.5,0.5s-0.224,0.5-0.5,0.5
				c-0.275,0-0.5,0.225-0.5,0.5C13.5,20.276,13.276,20.5,13,20.5z"/>
		</g>
		<g>
			<path d="M11,20.5c-0.276,0-0.5-0.224-0.5-0.5c0-0.275-0.225-0.5-0.5-0.5c-0.276,0-0.5-0.224-0.5-0.5s0.224-0.5,0.5-0.5
				c0.827,0,1.5,0.673,1.5,1.5C11.5,20.276,11.276,20.5,11,20.5z"/>
		</g>
		<g>
			<path d="M10,16.5c-0.115,0-0.23-0.039-0.324-0.12l-0.293-0.25c-0.205-0.172-0.561-0.173-0.766,0.001L8.324,16.38
				c-0.208,0.181-0.523,0.156-0.704-0.056c-0.18-0.21-0.154-0.525,0.056-0.704l0.293-0.25c0.578-0.494,1.484-0.493,2.063-0.001
				l0.293,0.251c0.21,0.179,0.235,0.494,0.056,0.704C10.281,16.44,10.141,16.5,10,16.5z"/>
		</g>
		<g>
			<path d="M11.997,22.5c-4.865,0-8.5-5.016-8.5-9.5L3.5,11.999C3.501,11.723,3.725,11.5,4,11.5c0,0,0.001,0,0.002,0
				c0.275,0.001,0.499,0.226,0.498,0.501l-0.003,1c0,3.93,3.276,8.499,7.5,8.499s7.5-4.569,7.5-8.5L19.5,9.999
				C19.5,9.724,19.724,9.5,20,9.5l0,0c0.276,0,0.5,0.225,0.5,0.501l-0.003,3C20.497,17.484,16.862,22.5,11.997,22.5z"/>
		</g>
		<g>
			<path d="M1,18.5c-0.053,0-0.105-0.008-0.158-0.025c-0.262-0.088-0.403-0.371-0.316-0.633c1.054-3.16,3.162-4.244,3.251-4.289
				c0.247-0.124,0.547-0.023,0.671,0.224c0.123,0.246,0.023,0.546-0.222,0.67l0,0c-0.019,0.009-1.836,0.967-2.751,3.712
				C1.404,18.367,1.209,18.5,1,18.5z"/>
		</g>
		<g>
			<path d="M23,18.5c-0.209,0-0.404-0.133-0.475-0.342c-0.915-2.745-2.732-3.703-2.751-3.712c-0.245-0.126-0.344-0.426-0.22-0.672
				c0.124-0.245,0.426-0.345,0.669-0.222c0.089,0.045,2.197,1.129,3.251,4.289c0.087,0.262-0.055,0.545-0.316,0.633
				C23.105,18.492,23.053,18.5,23,18.5z"/>
		</g>
	</g>
</g>
<g id="Candle_Light">
</g>
</svg>
