<?xml version="1.0" encoding="iso-8859-1"?>
<!-- Generator: Adobe Illustrator 19.2.1, SVG Export Plug-In . SVG Version: 6.00 Build 0)  -->
<svg version="1.1" xmlns="http://www.w3.org/2000/svg" xmlns:xlink="http://www.w3.org/1999/xlink" x="0px" y="0px"
	 viewBox="0 0 24 24" style="enable-background:new 0 0 24 24;" xml:space="preserve">
<g id="Egg_1_">
</g>
<g id="Easter_Egg_1_1_">
</g>
<g id="Easter_Egg_2_1_">
</g>
<g id="Easter_Egg_3_1_">
</g>
<g id="Eggs_1_1_">
</g>
<g id="Eggs_2_1_">
</g>
<g id="Bunny_1_">
</g>
<g id="Sheep_1_">
</g>
<g id="Bell_Alarm">
</g>
<g id="Calendar">
</g>
<g id="Tulip_1_">
</g>
<g id="Chicken_1_">
</g>
<g id="Chicken_2_1_">
</g>
<g id="Baguette_1_">
</g>
<g id="Ham_1_">
</g>
<g id="Bell_2">
</g>
<g id="Bell_3">
</g>
<g id="Bell_4">
</g>
<g id="Easter_celebration">
</g>
<g id="Egg_painting">
</g>
<g id="Easter_willow">
</g>
<g id="Daffodil">
</g>
<g id="Easter_message">
</g>
<g id="Bunny_2">
</g>
<g id="Chicken_3">
</g>
<g id="Tulip_2">
	<g>
		<g>
			<path d="M11.416,23.607c-0.276,0-0.5-0.224-0.5-0.5v-6c0-0.276,0.224-0.5,0.5-0.5s0.5,0.224,0.5,0.5v6
				C11.916,23.384,11.692,23.607,11.416,23.607z"/>
		</g>
		<g>
			<path d="M11.416,23.607c-0.162,0-0.315-0.079-0.409-0.213c-0.101-0.144-0.119-0.33-0.048-0.49
				c0.021-0.049,2.219-4.835,7.507-4.294c0.256,0.025,0.45,0.24,0.45,0.497c0,0.162-0.085,3.972-7.465,4.499
				C11.439,23.607,11.428,23.607,11.416,23.607z M17.663,19.569c-2.882,0-4.573,1.849-5.324,2.947
				c4.109-0.503,5.191-2.136,5.476-2.945C17.764,19.57,17.714,19.569,17.663,19.569z"/>
		</g>
		<g>
			<path d="M11.416,23.607c-4.867,0-5.487-3.384-5.493-3.418c-0.024-0.145,0.017-0.293,0.111-0.405
				c0.096-0.112,0.234-0.177,0.382-0.177c4.311,0,5.429,3.205,5.475,3.342c0.051,0.152,0.025,0.32-0.069,0.45
				C11.728,23.53,11.577,23.607,11.416,23.607z M7.146,20.646c0.367,0.682,1.271,1.707,3.425,1.922
				C10.092,21.861,9.081,20.852,7.146,20.646z"/>
		</g>
		<g>
			<path d="M11.416,17.607c-4.977,0-7.5-1.851-7.5-5.5c0-4.024,6.852-11.053,7.144-11.351l0.356-0.363l0.356,0.363
				c0.292,0.298,7.144,7.326,7.144,11.351C18.916,15.757,16.393,17.607,11.416,17.607z M11.416,1.832
				c-1.408,1.501-6.5,7.143-6.5,10.275c0,3.028,2.126,4.5,6.5,4.5s6.5-1.472,6.5-4.5C17.916,8.973,12.825,3.332,11.416,1.832z"/>
		</g>
		<g>
			<path d="M16.416,16.607c-0.146,0-0.289-0.063-0.388-0.185c-0.175-0.215-0.142-0.529,0.072-0.703
				c1.834-1.49,2.753-3.21,2.73-5.109c-0.047-3.994-4.16-7.788-5.383-8.828L12.77,2.461c-0.195,0.195-0.512,0.195-0.707,0
				s-0.195-0.512,0-0.707l1.312-1.312l0.348,0.27c0.247,0.19,6.047,4.73,6.109,9.884c0.027,2.222-1.016,4.207-3.1,5.899
				C16.639,16.57,16.527,16.607,16.416,16.607z"/>
		</g>
		<g>
			<path d="M6.416,16.607c-0.111,0-0.223-0.036-0.315-0.112c-2.084-1.692-3.127-3.678-3.1-5.899C3.063,5.442,8.863,0.902,9.11,0.712
				l0.348-0.27l1.312,1.312c0.195,0.195,0.195,0.512,0,0.707s-0.512,0.195-0.707,0L9.384,1.782c-1.223,1.04-5.336,4.834-5.383,8.828
				c-0.022,1.899,0.896,3.619,2.73,5.109c0.214,0.174,0.247,0.488,0.072,0.703C6.705,16.544,6.562,16.607,6.416,16.607z"/>
		</g>
	</g>
</g>
<g id="Easter_basket">
</g>
<g id="Bread_and_wine">
</g>
<g id="Sheep_2">
</g>
<g id="Candle_Light">
</g>
</svg>
