<?xml version="1.0" encoding="iso-8859-1"?>
<!-- Generator: Adobe Illustrator 19.2.1, SVG Export Plug-In . SVG Version: 6.00 Build 0)  -->
<svg version="1.1" xmlns="http://www.w3.org/2000/svg" xmlns:xlink="http://www.w3.org/1999/xlink" x="0px" y="0px"
	 viewBox="0 0 24 24" style="enable-background:new 0 0 24 24;" xml:space="preserve">
<g id="Egg_1_">
</g>
<g id="Easter_Egg_1_1_">
</g>
<g id="Easter_Egg_2_1_">
</g>
<g id="Easter_Egg_3_1_">
</g>
<g id="Eggs_1_1_">
</g>
<g id="Eggs_2_1_">
</g>
<g id="Bunny_1_">
</g>
<g id="Sheep_1_">
</g>
<g id="Bell_Alarm">
</g>
<g id="Calendar">
</g>
<g id="Tulip_1_">
	<g id="Tulip">
		<g>
			<path d="M11.715,4.164c-0.158,0-0.313-0.074-0.41-0.213L9.5,1.372L7.699,3.944c-0.158,0.227-0.47,0.281-0.696,0.123
				C6.776,3.909,6.722,3.597,6.88,3.371l2.21-3.158c0.188-0.268,0.632-0.268,0.819,0l2.215,3.164
				c0.158,0.226,0.104,0.538-0.123,0.696C11.915,4.135,11.814,4.164,11.715,4.164z"/>
		</g>
		<g>
			<path d="M9.5,18C5.364,18,2,14.636,2,10.5C2,10.224,2.224,10,2.5,10S3,10.224,3,10.5C3,14.084,5.916,17,9.5,17s6.5-2.916,6.5-6.5
				c0-0.276,0.224-0.5,0.5-0.5s0.5,0.224,0.5,0.5C17,14.636,13.636,18,9.5,18z"/>
		</g>
		<g>
			<path d="M9.5,18C5.364,18,2,14.636,2,10.5C2,6.563,4.926,0.535,5.051,0.28C5.132,0.114,5.299,0.006,5.485,0
				c0.191,0.012,0.359,0.093,0.45,0.253l4,7.059c0.136,0.24,0.052,0.545-0.188,0.682C9.505,8.129,9.202,8.044,9.065,7.805
				l-3.519-6.21C4.738,3.408,3,7.642,3,10.5C3,14.084,5.916,17,9.5,17s6.5-2.916,6.5-6.5c0-0.276,0.224-0.5,0.5-0.5
				s0.5,0.224,0.5,0.5C17,14.636,13.636,18,9.5,18z"/>
		</g>
		<g>
			<path d="M9.5,18C5.364,18,2,14.636,2,10.5C2,10.224,2.224,10,2.5,10S3,10.224,3,10.5c0,1.71,0.664,3.269,1.748,4.431
				l8.317-14.677c0.091-0.161,0.266-0.246,0.45-0.253c0.186,0.006,0.353,0.114,0.434,0.28C14.074,0.535,17,6.563,17,10.5
				C17,14.636,13.636,18,9.5,18z M5.504,15.624C6.607,16.485,7.995,17,9.5,17c3.584,0,6.5-2.916,6.5-6.5
				c0-2.86-1.738-7.093-2.545-8.905L5.504,15.624z"/>
		</g>
		<g>
			<path d="M9.5,24c-0.041,0-0.081-0.005-0.121-0.015c-0.06-0.016-0.115-0.041-0.164-0.075c-0.06-0.041-0.108-0.094-0.144-0.153
				s-0.06-0.128-0.068-0.201C9,23.534,9,23.512,9,23.49V17.5C9,17.224,9.224,17,9.5,17s0.5,0.224,0.5,0.5v4.239
				c4.321-6.11,11.455-5.744,11.531-5.738c0.167,0.011,0.318,0.104,0.402,0.25c0.084,0.145,0.089,0.322,0.014,0.473
				C21.911,16.796,18.211,23.995,9.509,24C9.506,24,9.503,24,9.5,24z M20.612,17.004c-2.015,0.101-7.08,0.878-10.231,5.97
				C16.277,22.61,19.506,18.664,20.612,17.004z"/>
		</g>
	</g>
</g>
<g id="Chicken_1_">
</g>
<g id="Chicken_2_1_">
</g>
<g id="Baguette_1_">
</g>
<g id="Ham_1_">
</g>
<g id="Bell_2">
</g>
<g id="Bell_3">
</g>
<g id="Bell_4">
</g>
<g id="Easter_celebration">
</g>
<g id="Egg_painting">
</g>
<g id="Easter_willow">
</g>
<g id="Daffodil">
</g>
<g id="Easter_message">
</g>
<g id="Bunny_2">
</g>
<g id="Chicken_3">
</g>
<g id="Tulip_2">
</g>
<g id="Easter_basket">
</g>
<g id="Bread_and_wine">
</g>
<g id="Sheep_2">
</g>
<g id="Candle_Light">
</g>
</svg>
