<?xml version="1.0" encoding="iso-8859-1"?>
<!-- Generator: Adobe Illustrator 19.2.1, SVG Export Plug-In . SVG Version: 6.00 Build 0)  -->
<svg version="1.1" xmlns="http://www.w3.org/2000/svg" xmlns:xlink="http://www.w3.org/1999/xlink" x="0px" y="0px"
	 viewBox="0 0 24 24" style="enable-background:new 0 0 24 24;" xml:space="preserve">
<g id="Engagement_1">
</g>
<g id="Engagement_2">
</g>
<g id="Wedding_Ring">
</g>
<g id="Church">
</g>
<g id="Church_Bells">
</g>
<g id="Wedding_Altar_1">
</g>
<g id="Wedding_Altar_2">
</g>
<g id="Bow-Tie">
	<g>
		<g>
			<path d="M2.494,17.004c-0.513,0-1.02-0.161-1.456-0.476C0.378,16.053,0,15.313,0,14.5v-5c0-0.813,0.378-1.553,1.038-2.028
				c0.66-0.477,1.48-0.6,2.253-0.344l6.352,1.893C9.907,9.1,10.058,9.378,9.979,9.643C9.9,9.907,9.627,10.059,9.357,9.979
				L2.99,8.082C2.51,7.923,2.018,7.997,1.623,8.283C1.227,8.568,1,9.012,1,9.5v5c0,0.488,0.227,0.932,0.623,1.217
				c0.396,0.286,0.888,0.359,1.352,0.206l6.383-1.902c0.269-0.08,0.543,0.072,0.622,0.336c0.078,0.265-0.072,0.543-0.337,0.622
				l-6.367,1.897C3.02,16.962,2.756,17.004,2.494,17.004z"/>
		</g>
		<g>
			<path d="M21.508,17.003c-0.267,0-0.535-0.043-0.799-0.131l-6.352-1.893c-0.265-0.079-0.415-0.357-0.337-0.622
				c0.08-0.264,0.354-0.416,0.622-0.336l6.367,1.897c0.48,0.158,0.972,0.083,1.367-0.202C22.773,15.432,23,14.988,23,14.5v-5
				c0-0.488-0.227-0.932-0.623-1.217c-0.396-0.286-0.889-0.36-1.352-0.206l-6.383,1.902c-0.27,0.079-0.542-0.072-0.622-0.336
				c-0.078-0.265,0.072-0.543,0.337-0.622l6.367-1.897c0.758-0.252,1.578-0.127,2.237,0.349C23.622,7.947,24,8.687,24,9.5v5
				c0,0.813-0.378,1.553-1.038,2.028C22.527,16.841,22.022,17.003,21.508,17.003z"/>
		</g>
		<g>
			<path d="M12.5,16h-1C10.121,16,9,14.878,9,13.5v-3C9,9.122,10.121,8,11.5,8h1c1.379,0,2.5,1.122,2.5,2.5v3
				C15,14.878,13.879,16,12.5,16z M11.5,9C10.673,9,10,9.673,10,10.5v3c0,0.827,0.673,1.5,1.5,1.5h1c0.827,0,1.5-0.673,1.5-1.5v-3
				C14,9.673,13.327,9,12.5,9H11.5z"/>
		</g>
		<g>
			<path d="M14.5,12c-0.229,0-0.434-0.156-0.487-0.388c-0.062-0.269,0.106-0.538,0.375-0.6c0.142-0.033,3.479-0.799,5.046-1.008
				c0.264-0.039,0.525,0.155,0.563,0.43c0.036,0.273-0.156,0.525-0.43,0.562c-1.521,0.203-4.92,0.984-4.954,0.992
				C14.574,11.996,14.537,12,14.5,12z"/>
		</g>
		<g>
			<path d="M19.501,14c-0.022,0-0.045-0.001-0.067-0.004c-1.567-0.209-4.904-0.976-5.046-1.008c-0.269-0.062-0.437-0.331-0.375-0.6
				c0.063-0.269,0.327-0.437,0.6-0.375c0.034,0.008,3.433,0.789,4.954,0.992c0.273,0.037,0.466,0.288,0.43,0.562
				C19.962,13.817,19.747,14,19.501,14z"/>
		</g>
		<g>
			<path d="M4.499,14c-0.246,0-0.461-0.183-0.495-0.434c-0.036-0.273,0.156-0.525,0.43-0.562c1.521-0.203,4.92-0.984,4.954-0.992
				c0.275-0.062,0.537,0.106,0.6,0.375c0.062,0.269-0.106,0.538-0.375,0.6c-0.142,0.033-3.479,0.799-5.046,1.008
				C4.544,13.999,4.521,14,4.499,14z"/>
		</g>
		<g>
			<path d="M9.5,12c-0.037,0-0.074-0.004-0.112-0.013c-0.034-0.008-3.433-0.789-4.954-0.992c-0.273-0.037-0.466-0.288-0.43-0.562
				c0.037-0.274,0.294-0.467,0.563-0.43c1.567,0.209,4.904,0.976,5.046,1.008c0.269,0.062,0.437,0.331,0.375,0.6
				C9.934,11.844,9.729,12,9.5,12z"/>
		</g>
	</g>
</g>
<g id="Wedding_Tiara">
</g>
<g id="Wedding_Bouquet">
</g>
<g id="Wedding_Decoration_1">
</g>
<g id="Wedding_Decoration_2">
</g>
<g id="Wedding_Way_Sign">
</g>
<g id="Wedding_Date">
</g>
<g id="Wedding_Invitation">
</g>
<g id="Wedding_Invitation_2">
</g>
<g id="Bride">
</g>
<g id="Groom">
</g>
<g id="Mariage_Couple">
</g>
<g id="Wedding_Planner_Book">
</g>
<g id="Wedding_Cake_1">
</g>
<g id="Wedding_Cake_2">
</g>
<g id="Wedding_Cake_3">
</g>
<g id="Cake_Slice">
</g>
<g id="Marriage_Settlement">
</g>
<g id="Glass_Decoration">
</g>
<g id="Cutlery_Decoration">
</g>
<g id="Celebration_Glasses">
</g>
<g id="Wedding_Photo">
</g>
<g id="Wedding_Present_1">
</g>
<g id="Wedding_Present_2">
</g>
<g id="Wedding_Bouquet_2">
</g>
<g id="Hands_with_rings">
</g>
<g id="Wedding_Car">
</g>
<g id="Wedding_music">
</g>
<g id="wedding_party">
</g>
<g id="Confetti_1">
</g>
<g id="Confetti_2">
</g>
</svg>
