<?xml version="1.0" encoding="iso-8859-1"?>
<!-- Generator: Adobe Illustrator 19.2.1, SVG Export Plug-In . SVG Version: 6.00 Build 0)  -->
<svg version="1.1" xmlns="http://www.w3.org/2000/svg" xmlns:xlink="http://www.w3.org/1999/xlink" x="0px" y="0px"
	 viewBox="0 0 24 24" style="enable-background:new 0 0 24 24;" xml:space="preserve">
<g id="Engagement_1">
</g>
<g id="Engagement_2">
</g>
<g id="Wedding_Ring">
</g>
<g id="Church">
</g>
<g id="Church_Bells">
</g>
<g id="Wedding_Altar_1">
</g>
<g id="Wedding_Altar_2">
</g>
<g id="Bow-Tie">
</g>
<g id="Wedding_Tiara">
</g>
<g id="Wedding_Bouquet">
</g>
<g id="Wedding_Decoration_1">
</g>
<g id="Wedding_Decoration_2">
</g>
<g id="Wedding_Way_Sign">
</g>
<g id="Wedding_Date">
</g>
<g id="Wedding_Invitation">
</g>
<g id="Wedding_Invitation_2">
</g>
<g id="Bride">
</g>
<g id="Groom">
</g>
<g id="Mariage_Couple">
</g>
<g id="Wedding_Planner_Book">
</g>
<g id="Wedding_Cake_1">
</g>
<g id="Wedding_Cake_2">
</g>
<g id="Wedding_Cake_3">
</g>
<g id="Cake_Slice">
	<g>
		<g id="XMLID_255_">
			<path d="M22.5,17c-0.024,0-0.049-0.002-0.075-0.006c-1.248-0.187-1.81-0.841-2.305-1.419c-0.455-0.53-0.814-0.948-1.695-1.081
				c-0.859-0.13-1.303,0.217-1.872,0.652c-0.603,0.464-1.354,1.046-2.628,0.848c-1.278-0.191-1.84-0.997-2.336-1.708
				c-0.453-0.65-0.812-1.163-1.664-1.292c-0.857-0.129-1.304,0.217-1.871,0.652c-0.602,0.464-1.348,1.045-2.629,0.848
				c-1.248-0.188-1.808-0.827-2.302-1.393c-0.454-0.52-0.813-0.93-1.698-1.063c-0.273-0.041-0.461-0.295-0.42-0.568
				c0.042-0.272,0.295-0.46,0.569-0.42c1.248,0.188,1.808,0.827,2.302,1.393c0.454,0.52,0.813,0.93,1.698,1.063
				c0.858,0.129,1.304-0.216,1.871-0.652c0.603-0.463,1.351-1.039,2.629-0.848c1.278,0.191,1.84,0.997,2.336,1.708
				c0.453,0.65,0.812,1.163,1.664,1.292c0.858,0.129,1.303-0.217,1.872-0.652c0.604-0.463,1.355-1.041,2.628-0.848
				c1.248,0.187,1.81,0.841,2.305,1.419c0.455,0.53,0.814,0.948,1.695,1.081c0.273,0.041,0.461,0.295,0.42,0.568
				C22.957,16.822,22.744,17,22.5,17z"/>
		</g>
		<g>
			<path d="M22.5,21c-0.025,0-0.05-0.002-0.075-0.006l-21-3.2C1.181,17.757,1,17.547,1,17.3V8.5c0-0.167,0.083-0.323,0.223-0.416
				c0.236-0.157,0.465-0.316,0.693-0.475c1.218-0.846,2.478-1.72,4.492-2.101l0.638-0.085C7.318,5.385,7.57,5.581,7.605,5.854
				C7.642,6.129,7.449,6.38,7.175,6.416l-0.61,0.08C4.789,6.833,3.67,7.609,2.486,8.431C2.325,8.543,2.164,8.654,2,8.766v8.104
				l20,3.048v-8.164L12.362,6l-2.084,0.035c-0.277,0.033-0.526-0.154-0.563-0.427c-0.038-0.273,0.153-0.526,0.427-0.563l0.29-0.04
				L12.5,5c0.09,0,0.179,0.024,0.256,0.07l10,5.97C22.907,11.131,23,11.294,23,11.47v9.03c0,0.146-0.063,0.284-0.174,0.379
				C22.734,20.958,22.619,21,22.5,21z"/>
		</g>
		<g id="XMLID_256_">
			<path d="M22.5,11.967c-0.023,0-0.047-0.002-0.07-0.005l-21-2.967C1.157,8.956,0.966,8.703,1.005,8.43
				c0.039-0.272,0.29-0.46,0.565-0.425l21,2.967c0.273,0.039,0.464,0.292,0.425,0.565C22.96,11.786,22.746,11.967,22.5,11.967z"/>
		</g>
		<g>
			<path d="M8.5,7C7.122,7,6,5.879,6,4.5C6,1.252,7.148,1,7.5,1C7.774,1,7.998,1.222,8,1.495C8.006,1.726,8.098,2,8.5,2
				c1.318,0,2.411,1.035,2.487,2.355l0.012,0.109C11,5.879,9.878,7,8.5,7z M7.285,2.406C7.143,2.753,7,3.38,7,4.5
				C7,5.327,7.673,6,8.5,6S10,5.327,10,4.5C9.943,3.621,9.289,3,8.5,3C7.908,3,7.519,2.74,7.285,2.406z M8,1.5h0.01H8z"/>
		</g>
	</g>
</g>
<g id="Marriage_Settlement">
</g>
<g id="Glass_Decoration">
</g>
<g id="Cutlery_Decoration">
</g>
<g id="Celebration_Glasses">
</g>
<g id="Wedding_Photo">
</g>
<g id="Wedding_Present_1">
</g>
<g id="Wedding_Present_2">
</g>
<g id="Wedding_Bouquet_2">
</g>
<g id="Hands_with_rings">
</g>
<g id="Wedding_Car">
</g>
<g id="Wedding_music">
</g>
<g id="wedding_party">
</g>
<g id="Confetti_1">
</g>
<g id="Confetti_2">
</g>
</svg>
