<?xml version="1.0" encoding="iso-8859-1"?>
<!-- Generator: Adobe Illustrator 19.2.1, SVG Export Plug-In . SVG Version: 6.00 Build 0)  -->
<svg version="1.1" xmlns="http://www.w3.org/2000/svg" xmlns:xlink="http://www.w3.org/1999/xlink" x="0px" y="0px"
	 viewBox="0 0 24 24" style="enable-background:new 0 0 24 24;" xml:space="preserve">
<g id="Engagement_1">
</g>
<g id="Engagement_2">
</g>
<g id="Wedding_Ring">
</g>
<g id="Church">
</g>
<g id="Church_Bells">
</g>
<g id="Wedding_Altar_1">
</g>
<g id="Wedding_Altar_2">
</g>
<g id="Bow-Tie">
</g>
<g id="Wedding_Tiara">
</g>
<g id="Wedding_Bouquet">
</g>
<g id="Wedding_Decoration_1">
</g>
<g id="Wedding_Decoration_2">
</g>
<g id="Wedding_Way_Sign">
</g>
<g id="Wedding_Date">
</g>
<g id="Wedding_Invitation">
</g>
<g id="Wedding_Invitation_2">
</g>
<g id="Bride">
</g>
<g id="Groom">
</g>
<g id="Mariage_Couple">
</g>
<g id="Wedding_Planner_Book">
</g>
<g id="Wedding_Cake_1">
</g>
<g id="Wedding_Cake_2">
</g>
<g id="Wedding_Cake_3">
</g>
<g id="Cake_Slice">
</g>
<g id="Marriage_Settlement">
</g>
<g id="Glass_Decoration">
</g>
<g id="Cutlery_Decoration">
</g>
<g id="Celebration_Glasses">
	<g>
		<g>
			<path d="M6.5,14.012c-1.654,0-3-1.346-3-3c0-0.676,0.231-1.339,0.651-1.867c0.175-0.217,0.488-0.251,0.703-0.08
				c0.216,0.173,0.252,0.487,0.08,0.703C4.65,10.124,4.5,10.555,4.5,11.012c0,1.103,0.897,2,2,2c0.777,0,1.49-0.456,1.816-1.162
				c0.117-0.25,0.413-0.358,0.664-0.244c0.251,0.116,0.359,0.413,0.244,0.664C8.735,13.328,7.666,14.012,6.5,14.012z"/>
		</g>
		<g>
			<path d="M8.771,12.56c-0.074,0-0.149-0.017-0.22-0.051c-0.248-0.122-0.351-0.421-0.229-0.669l2.026-4.135L7.631,6.082
				l-2.686,3.67C4.783,9.976,4.47,10.023,4.247,9.86C4.023,9.697,3.976,9.385,4.139,9.162l2.954-4.038
				c0.152-0.21,0.439-0.266,0.66-0.135l3.504,2.093c0.223,0.134,0.307,0.416,0.192,0.649l-2.229,4.548
				C9.134,12.457,8.956,12.56,8.771,12.56z"/>
		</g>
		<g>
			<path d="M20.59,16.926c-0.172,0-0.34-0.09-0.433-0.25l-1.869-3.232c-0.139-0.238-0.057-0.545,0.183-0.683
				c0.235-0.14,0.543-0.057,0.683,0.183l1.869,3.232c0.139,0.238,0.057,0.545-0.183,0.683C20.762,16.904,20.675,16.926,20.59,16.926
				z"/>
		</g>
		<g>
			<path d="M17.5,14.011c-1.166,0-2.235-0.684-2.725-1.742L12.551,7.73c-0.114-0.233-0.03-0.516,0.193-0.649l3.504-2.092
				c0.221-0.132,0.508-0.075,0.659,0.135l2.949,4.029C20.271,9.68,20.5,10.34,20.5,11.011C20.5,12.665,19.154,14.011,17.5,14.011z
				 M13.651,7.704l2.026,4.135c0.332,0.716,1.045,1.172,1.822,1.172c1.103,0,2-0.897,2-2c0-0.456-0.15-0.887-0.435-1.244
				c-0.004-0.006-0.007-0.01-0.011-0.016l-2.686-3.669L13.651,7.704z"/>
		</g>
		<g>
			<path d="M19.5,11.012c-3.621,0-5.644-1.012-5.728-1.055c-0.245-0.125-0.343-0.426-0.218-0.671
				c0.124-0.247,0.425-0.344,0.672-0.221c0.019,0.01,1.914,0.946,5.273,0.946c0.276,0,0.5,0.224,0.5,0.5S19.776,11.012,19.5,11.012z
				"/>
		</g>
		<g>
			<path d="M4.5,11.012c-0.276,0-0.5-0.224-0.5-0.5s0.224-0.5,0.5-0.5c3.359,0,5.255-0.937,5.273-0.946
				c0.245-0.123,0.547-0.026,0.672,0.221c0.125,0.245,0.027,0.546-0.218,0.671C10.144,10,8.121,11.012,4.5,11.012z"/>
		</g>
		<g>
			<path d="M19.5,19.081c-0.164,0-0.325-0.081-0.42-0.229c-0.029-0.045-0.05-0.092-0.063-0.141
				c-0.399-0.858,0.155-2.024,1.318-2.715c0.546-0.324,1.149-0.491,1.696-0.476c0.613,0.021,1.115,0.279,1.381,0.711
				c0.062,0.094,0.093,0.207,0.083,0.32c-0.015,0.16-0.102,0.308-0.24,0.39l-3.5,2.07C19.675,19.059,19.587,19.081,19.5,19.081z
				 M21.952,16.52c-0.345,0-0.745,0.121-1.107,0.336c-0.408,0.243-0.696,0.559-0.844,0.849l2.001-1.184
				C21.983,16.522,21.969,16.52,21.952,16.52z"/>
		</g>
		<g>
			<path d="M3.41,16.926c-0.085,0-0.172-0.021-0.25-0.067c-0.239-0.138-0.321-0.444-0.183-0.683l1.869-3.232
				c0.139-0.238,0.447-0.321,0.683-0.183c0.239,0.138,0.321,0.444,0.183,0.683l-1.869,3.232C3.75,16.836,3.582,16.926,3.41,16.926z"
				/>
		</g>
		<g>
			<path d="M4.5,19.081c-0.087,0-0.175-0.022-0.255-0.069l-3.5-2.07c-0.139-0.082-0.229-0.227-0.243-0.387
				c-0.011-0.128,0.026-0.253,0.104-0.352c0.271-0.415,0.764-0.663,1.363-0.683c0.559-0.016,1.151,0.151,1.696,0.476
				c1.163,0.69,1.718,1.856,1.318,2.715C4.97,18.76,4.949,18.807,4.92,18.852C4.825,19,4.664,19.081,4.5,19.081z M1.998,16.521
				l2.001,1.184c-0.147-0.29-0.436-0.605-0.844-0.849c-0.379-0.225-0.79-0.357-1.154-0.335C2,16.521,1.999,16.521,1.998,16.521z"/>
		</g>
	</g>
</g>
<g id="Wedding_Photo">
</g>
<g id="Wedding_Present_1">
</g>
<g id="Wedding_Present_2">
</g>
<g id="Wedding_Bouquet_2">
</g>
<g id="Hands_with_rings">
</g>
<g id="Wedding_Car">
</g>
<g id="Wedding_music">
</g>
<g id="wedding_party">
</g>
<g id="Confetti_1">
</g>
<g id="Confetti_2">
</g>
</svg>
