<?xml version="1.0" encoding="iso-8859-1"?>
<!-- Generator: Adobe Illustrator 19.2.1, SVG Export Plug-In . SVG Version: 6.00 Build 0)  -->
<svg version="1.1" xmlns="http://www.w3.org/2000/svg" xmlns:xlink="http://www.w3.org/1999/xlink" x="0px" y="0px"
	 viewBox="0 0 24 24" style="enable-background:new 0 0 24 24;" xml:space="preserve">
<g id="Engagement_1">
</g>
<g id="Engagement_2">
</g>
<g id="Wedding_Ring">
</g>
<g id="Church">
	<g>
		<g>
			<path d="M16.5,24h-9C7.224,24,7,23.776,7,23.5V9.609c0-0.276,0.224-0.5,0.5-0.5S8,9.333,8,9.609V23h8V9.638
				c0-0.276,0.224-0.5,0.5-0.5s0.5,0.224,0.5,0.5V23.5C17,23.776,16.776,24,16.5,24z"/>
		</g>
		<g>
			<path d="M14.5,24h-5C9.224,24,9,23.776,9,23.5V18c0-1.654,1.346-3,3-3s3,1.346,3,3v5.5C15,23.776,14.776,24,14.5,24z M10,23h4v-5
				c0-1.103-0.897-2-2-2s-2,0.897-2,2V23z"/>
		</g>
		<g>
			<path d="M23.5,18c-0.101,0-0.202-0.03-0.29-0.093l-7-5c-0.225-0.16-0.277-0.473-0.116-0.697c0.161-0.224,0.473-0.276,0.697-0.116
				l7,5c0.225,0.16,0.277,0.473,0.116,0.697C23.809,17.927,23.656,18,23.5,18z"/>
		</g>
		<g>
			<path d="M22.5,24h-6c-0.276,0-0.5-0.224-0.5-0.5s0.224-0.5,0.5-0.5H22v-6.214c0-0.276,0.224-0.5,0.5-0.5s0.5,0.224,0.5,0.5V23.5
				C23,23.776,22.776,24,22.5,24z"/>
		</g>
		<g>
			<path d="M0.5,18c-0.156,0-0.31-0.073-0.407-0.209c-0.161-0.225-0.108-0.537,0.116-0.697l7-5c0.225-0.161,0.537-0.108,0.697,0.116
				s0.108,0.537-0.116,0.697l-7,5C0.703,17.97,0.601,18,0.5,18z"/>
		</g>
		<g>
			<path d="M7.5,24h-6C1.224,24,1,23.776,1,23.5v-6.714c0-0.276,0.224-0.5,0.5-0.5s0.5,0.224,0.5,0.5V23h5.5
				C7.776,23,8,23.224,8,23.5S7.776,24,7.5,24z"/>
		</g>
		<g>
			<path d="M17.5,11c-0.12,0-0.241-0.043-0.336-0.13L12,6.176L6.836,10.87c-0.204,0.186-0.521,0.171-0.707-0.034
				c-0.186-0.205-0.17-0.521,0.034-0.707l5.5-5c0.19-0.173,0.482-0.173,0.673,0l5.5,5c0.204,0.186,0.219,0.502,0.034,0.707
				C17.771,10.945,17.636,11,17.5,11z"/>
		</g>
		<g>
			<path d="M20.5,22h-2c-0.276,0-0.5-0.224-0.5-0.5v-3c0-0.827,0.673-1.5,1.5-1.5s1.5,0.673,1.5,1.5v3C21,21.776,20.776,22,20.5,22z
				 M19,21h1v-2.5c0-0.276-0.224-0.5-0.5-0.5S19,18.224,19,18.5V21z"/>
		</g>
		<g>
			<path d="M5.5,22h-2C3.224,22,3,21.776,3,21.5v-3C3,17.673,3.673,17,4.5,17S6,17.673,6,18.5v3C6,21.776,5.776,22,5.5,22z M4,21h1
				v-2.5C5,18.224,4.776,18,4.5,18S4,18.224,4,18.5V21z"/>
		</g>
		<g>
			<path d="M12,11c-0.551,0-1-0.449-1-1s0.449-1,1-1s1,0.449,1,1S12.551,11,12,11z M12,9.999C12,10,12,10,12,9.999L12.5,10L12,9.999
				z"/>
		</g>
		<g>
			<path d="M13.5,4h-3c-0.173,0-0.334-0.09-0.425-0.237s-0.1-0.332-0.022-0.486l1.5-3c0.17-0.339,0.725-0.339,0.895,0l1.5,3
				c0.078,0.155,0.069,0.339-0.022,0.486S13.673,4,13.5,4z M11.309,3h1.382L12,1.618L11.309,3z"/>
		</g>
		<g>
			<path d="M12,5c-0.189,0-0.362-0.107-0.447-0.276l-1.5-3c-0.078-0.155-0.069-0.339,0.022-0.486S10.327,1,10.5,1h3
				c0.173,0,0.334,0.09,0.425,0.237s0.1,0.332,0.022,0.486l-1.5,3C12.362,4.893,12.189,5,12,5z M11.309,2L12,3.382L12.691,2H11.309z
				"/>
		</g>
		<g>
			<path d="M13.5,4c-0.184,0-0.36-0.101-0.448-0.276L12,1.618l-1.053,2.105c-0.124,0.247-0.423,0.346-0.671,0.224
				c-0.247-0.124-0.347-0.424-0.224-0.671l1.5-3c0.17-0.339,0.725-0.339,0.895,0l1.5,3c0.124,0.247,0.023,0.547-0.224,0.671
				C13.652,3.983,13.576,4,13.5,4z"/>
		</g>
	</g>
</g>
<g id="Church_Bells">
</g>
<g id="Wedding_Altar_1">
</g>
<g id="Wedding_Altar_2">
</g>
<g id="Bow-Tie">
</g>
<g id="Wedding_Tiara">
</g>
<g id="Wedding_Bouquet">
</g>
<g id="Wedding_Decoration_1">
</g>
<g id="Wedding_Decoration_2">
</g>
<g id="Wedding_Way_Sign">
</g>
<g id="Wedding_Date">
</g>
<g id="Wedding_Invitation">
</g>
<g id="Wedding_Invitation_2">
</g>
<g id="Bride">
</g>
<g id="Groom">
</g>
<g id="Mariage_Couple">
</g>
<g id="Wedding_Planner_Book">
</g>
<g id="Wedding_Cake_1">
</g>
<g id="Wedding_Cake_2">
</g>
<g id="Wedding_Cake_3">
</g>
<g id="Cake_Slice">
</g>
<g id="Marriage_Settlement">
</g>
<g id="Glass_Decoration">
</g>
<g id="Cutlery_Decoration">
</g>
<g id="Celebration_Glasses">
</g>
<g id="Wedding_Photo">
</g>
<g id="Wedding_Present_1">
</g>
<g id="Wedding_Present_2">
</g>
<g id="Wedding_Bouquet_2">
</g>
<g id="Hands_with_rings">
</g>
<g id="Wedding_Car">
</g>
<g id="Wedding_music">
</g>
<g id="wedding_party">
</g>
<g id="Confetti_1">
</g>
<g id="Confetti_2">
</g>
</svg>
