<?xml version="1.0" encoding="iso-8859-1"?>
<!-- Generator: Adobe Illustrator 19.2.1, SVG Export Plug-In . SVG Version: 6.00 Build 0)  -->
<svg version="1.1" xmlns="http://www.w3.org/2000/svg" xmlns:xlink="http://www.w3.org/1999/xlink" x="0px" y="0px"
	 viewBox="0 0 24 24" style="enable-background:new 0 0 24 24;" xml:space="preserve">
<g id="Engagement_1">
</g>
<g id="Engagement_2">
</g>
<g id="Wedding_Ring">
</g>
<g id="Church">
</g>
<g id="Church_Bells">
	<g>
		<g>
			<path d="M14.499,21.5c-0.069,0-0.138-0.014-0.203-0.043c-0.137-0.061-0.239-0.18-0.279-0.324l-0.622-2.249
				c-0.281-1.015-0.829-1.952-1.585-2.708l-1.257-1.257c-1.197-1.197-1.752-2.877-1.485-4.493c0.045-0.272,0.304-0.461,0.575-0.412
				c0.272,0.045,0.457,0.302,0.412,0.575c-0.215,1.298,0.236,2.653,1.206,3.623l1.257,1.257c0.878,0.878,1.516,1.967,1.842,3.149
				l0.448,1.621c0.772-0.488,2.331-1.588,4.335-3.593s3.105-3.564,3.593-4.336l-1.621-0.448c-1.137-0.314-2.194-0.919-3.056-1.75
				c-0.199-0.191-0.205-0.508-0.013-0.707c0.192-0.197,0.508-0.204,0.707-0.013c0.742,0.715,1.651,1.236,2.628,1.506l2.249,0.622
				c0.144,0.04,0.263,0.142,0.324,0.279c0.061,0.137,0.057,0.293-0.01,0.427c-0.042,0.084-1.078,2.111-4.094,5.127
				s-5.042,4.051-5.127,4.093C14.653,21.483,14.576,21.5,14.499,21.5z"/>
		</g>
		<g>
			<path d="M9.501,21.5c-0.077,0-0.154-0.018-0.225-0.053c-0.084-0.042-2.111-1.078-5.127-4.094s-4.051-5.042-4.093-5.127
				c-0.067-0.133-0.071-0.29-0.01-0.427c0.061-0.137,0.18-0.239,0.324-0.279l2.248-0.622c0.984-0.272,1.897-0.797,2.641-1.519
				c0.198-0.192,0.514-0.187,0.707,0.011c0.192,0.198,0.188,0.515-0.011,0.707c-0.864,0.838-1.926,1.448-3.071,1.765l-1.621,0.448
				c0.488,0.772,1.588,2.331,3.593,4.335s3.564,3.105,4.336,3.593l0.448-1.621c0.327-1.182,0.964-2.271,1.842-3.149l0.164-0.164
				c0.195-0.195,0.512-0.195,0.707,0s0.195,0.512,0,0.707l-0.164,0.164c-0.756,0.757-1.305,1.693-1.585,2.708l-0.622,2.249
				c-0.04,0.144-0.142,0.263-0.279,0.324C9.639,21.486,9.57,21.5,9.501,21.5z"/>
		</g>
		<g>
			<path d="M4.502,19.5c-1.378,0-2.5-1.122-2.5-2.5c0-0.692,0.281-1.338,0.791-1.818c0.201-0.188,0.517-0.18,0.707,0.021
				c0.189,0.201,0.18,0.518-0.021,0.707C3.171,16.199,3.002,16.586,3.002,17c0,0.827,0.673,1.5,1.5,1.5
				c0.414,0,0.801-0.169,1.089-0.476c0.189-0.202,0.506-0.21,0.707-0.021c0.201,0.189,0.21,0.506,0.021,0.707
				C5.84,19.219,5.195,19.5,4.502,19.5z"/>
		</g>
		<g>
			<path d="M19.502,19.5c-0.692,0-1.338-0.281-1.818-0.791c-0.189-0.201-0.18-0.518,0.021-0.707c0.201-0.188,0.517-0.18,0.707,0.021
				c0.289,0.307,0.676,0.476,1.089,0.476c0.827,0,1.5-0.673,1.5-1.5c0-0.414-0.169-0.801-0.476-1.089
				c-0.201-0.189-0.211-0.505-0.022-0.707c0.189-0.203,0.506-0.211,0.707-0.022c0.51,0.479,0.792,1.125,0.792,1.818
				C22.002,18.378,20.881,19.5,19.502,19.5z"/>
		</g>
		<g>
			<path d="M7.599,11.5c-1.784,0-2.597-1.296-2.597-2.5c0-0.656,0.216-1.177,0.373-1.558C5.443,7.28,5.526,7.078,5.526,7
				s-0.083-0.28-0.151-0.442C5.218,6.177,5.002,5.656,5.002,5c0-1.204,0.813-2.5,2.597-2.5c1.835,0,3.309,1.141,4.076,2.208
				c0.161,0.225,0.11,0.537-0.114,0.698c-0.226,0.161-0.537,0.109-0.698-0.114C10.081,4.203,8.799,3.5,7.599,3.5
				c-1.52,0-1.597,1.25-1.597,1.5c0,0.458,0.158,0.839,0.297,1.175C6.416,6.457,6.526,6.723,6.526,7s-0.11,0.543-0.227,0.825
				C6.16,8.161,6.002,8.542,6.002,9c0,0.25,0.077,1.5,1.597,1.5c1.2,0,2.481-0.703,3.264-1.792c0.161-0.224,0.473-0.276,0.698-0.114
				c0.224,0.162,0.275,0.474,0.114,0.698C10.908,10.359,9.434,11.5,7.599,11.5z"/>
		</g>
		<g>
			<path d="M12.002,9.5c-1.103,0-2-1.122-2-2.5s0.897-2.5,2-2.5s2,1.122,2,2.5S13.105,9.5,12.002,9.5z M12.002,5.5
				c-0.542,0-1,0.687-1,1.5s0.458,1.5,1,1.5s1-0.687,1-1.5S12.544,5.5,12.002,5.5z"/>
		</g>
		<g>
			<path d="M16.405,11.5c-1.834,0-3.308-1.141-4.076-2.208c-0.161-0.225-0.11-0.537,0.114-0.698
				c0.224-0.162,0.536-0.109,0.698,0.114c0.782,1.089,2.063,1.792,3.263,1.792c1.52,0,1.597-1.25,1.597-1.5
				c0-0.458-0.158-0.838-0.297-1.175C17.588,7.543,17.478,7.276,17.478,7s0.11-0.543,0.227-0.825
				c0.14-0.336,0.297-0.717,0.297-1.175c0-0.25-0.077-1.5-1.597-1.5c-1.2,0-2.481,0.703-3.263,1.792
				c-0.162,0.223-0.474,0.275-0.698,0.114c-0.224-0.162-0.275-0.474-0.114-0.698C13.097,3.64,14.571,2.5,16.405,2.5
				c1.785,0,2.597,1.296,2.597,2.5c0,0.657-0.216,1.177-0.374,1.558C18.562,6.72,18.478,6.921,18.478,7s0.083,0.28,0.151,0.442
				c0.158,0.38,0.374,0.901,0.374,1.558C19.002,10.204,18.19,11.5,16.405,11.5z"/>
		</g>
	</g>
</g>
<g id="Wedding_Altar_1">
</g>
<g id="Wedding_Altar_2">
</g>
<g id="Bow-Tie">
</g>
<g id="Wedding_Tiara">
</g>
<g id="Wedding_Bouquet">
</g>
<g id="Wedding_Decoration_1">
</g>
<g id="Wedding_Decoration_2">
</g>
<g id="Wedding_Way_Sign">
</g>
<g id="Wedding_Date">
</g>
<g id="Wedding_Invitation">
</g>
<g id="Wedding_Invitation_2">
</g>
<g id="Bride">
</g>
<g id="Groom">
</g>
<g id="Mariage_Couple">
</g>
<g id="Wedding_Planner_Book">
</g>
<g id="Wedding_Cake_1">
</g>
<g id="Wedding_Cake_2">
</g>
<g id="Wedding_Cake_3">
</g>
<g id="Cake_Slice">
</g>
<g id="Marriage_Settlement">
</g>
<g id="Glass_Decoration">
</g>
<g id="Cutlery_Decoration">
</g>
<g id="Celebration_Glasses">
</g>
<g id="Wedding_Photo">
</g>
<g id="Wedding_Present_1">
</g>
<g id="Wedding_Present_2">
</g>
<g id="Wedding_Bouquet_2">
</g>
<g id="Hands_with_rings">
</g>
<g id="Wedding_Car">
</g>
<g id="Wedding_music">
</g>
<g id="wedding_party">
</g>
<g id="Confetti_1">
</g>
<g id="Confetti_2">
</g>
</svg>
