<?xml version="1.0" encoding="iso-8859-1"?>
<!-- Generator: Adobe Illustrator 19.2.1, SVG Export Plug-In . SVG Version: 6.00 Build 0)  -->
<svg version="1.1" xmlns="http://www.w3.org/2000/svg" xmlns:xlink="http://www.w3.org/1999/xlink" x="0px" y="0px"
	 viewBox="0 0 24 24" style="enable-background:new 0 0 24 24;" xml:space="preserve">
<g id="Engagement_1">
</g>
<g id="Engagement_2">
</g>
<g id="Wedding_Ring">
</g>
<g id="Church">
</g>
<g id="Church_Bells">
</g>
<g id="Wedding_Altar_1">
</g>
<g id="Wedding_Altar_2">
</g>
<g id="Bow-Tie">
</g>
<g id="Wedding_Tiara">
</g>
<g id="Wedding_Bouquet">
</g>
<g id="Wedding_Decoration_1">
</g>
<g id="Wedding_Decoration_2">
</g>
<g id="Wedding_Way_Sign">
</g>
<g id="Wedding_Date">
</g>
<g id="Wedding_Invitation">
</g>
<g id="Wedding_Invitation_2">
</g>
<g id="Bride">
</g>
<g id="Groom">
</g>
<g id="Mariage_Couple">
</g>
<g id="Wedding_Planner_Book">
</g>
<g id="Wedding_Cake_1">
</g>
<g id="Wedding_Cake_2">
</g>
<g id="Wedding_Cake_3">
</g>
<g id="Cake_Slice">
</g>
<g id="Marriage_Settlement">
</g>
<g id="Glass_Decoration">
</g>
<g id="Cutlery_Decoration">
</g>
<g id="Celebration_Glasses">
</g>
<g id="Wedding_Photo">
</g>
<g id="Wedding_Present_1">
</g>
<g id="Wedding_Present_2">
</g>
<g id="Wedding_Bouquet_2">
</g>
<g id="Hands_with_rings">
</g>
<g id="Wedding_Car">
</g>
<g id="Wedding_music">
</g>
<g id="wedding_party">
</g>
<g id="Confetti_1">
</g>
<g id="Confetti_2">
	<g>
		<g>
			<path d="M22.5,14h-4c-0.185,0-0.354-0.102-0.44-0.264c-0.088-0.163-0.078-0.36,0.024-0.514l2-3c0.186-0.277,0.646-0.277,0.832,0
				l2,3c0.103,0.153,0.112,0.351,0.024,0.514C22.854,13.898,22.685,14,22.5,14z M19.435,13h2.131L20.5,11.401L19.435,13z"/>
		</g>
		<g>
			<path d="M3.5,5C2.121,5,1,3.879,1,2.5S2.121,0,3.5,0S6,1.121,6,2.5S4.879,5,3.5,5z M3.5,1C2.673,1,2,1.673,2,2.5S2.673,4,3.5,4
				S5,3.327,5,2.5S4.327,1,3.5,1z"/>
		</g>
		<g>
			<path d="M9.5,19c-0.169,0-0.335-0.087-0.429-0.243c-0.143-0.236-0.065-0.544,0.172-0.686l4.012-2.407L7.362,13.98
				c-0.203-0.058-0.348-0.237-0.361-0.449c-0.014-0.211,0.107-0.407,0.302-0.491l5.708-2.445L7.362,8.98
				C7.159,8.923,7.015,8.743,7.001,8.531C6.987,8.32,7.108,8.124,7.303,8.04l5.891-2.524L9.314,3.964
				C9.058,3.861,8.934,3.57,9.036,3.314s0.395-0.381,0.649-0.278l5,2C14.873,5.111,14.997,5.292,15,5.494
				c0.002,0.202-0.117,0.386-0.303,0.466L8.989,8.405l5.648,1.614c0.203,0.058,0.348,0.237,0.361,0.449
				c0.014,0.211-0.107,0.407-0.302,0.491l-5.708,2.445l5.648,1.614c0.191,0.055,0.332,0.218,0.358,0.415
				c0.025,0.197-0.068,0.392-0.239,0.494l-5,3C9.677,18.978,9.588,19,9.5,19z"/>
		</g>
		<g>
			<path d="M18.5,5c-0.274,0-0.496-0.221-0.5-0.494l0,0V4.505c0,0,0,0,0-0.001c0,0,0,0,0-0.001c0,0,0,0,0-0.001l0,0
				c0-0.001,0-0.001,0-0.002c0-0.337-0.617-0.514-0.624-0.516c-0.243-0.063-0.402-0.299-0.37-0.548S17.249,3,17.5,3
				c0.402,0,0.494-0.274,0.5-0.505C18.003,2.222,18.226,2,18.5,2c0.272,0,0.494,0.218,0.5,0.489l0,0V2.49l0,0
				c0,0.001,0,0.001,0,0.002l0,0v0.001c0,0.001,0,0.001,0,0.001v0.001l0,0c0,0.001,0,0.001,0,0.002c0,0,0,0,0,0.001l0,0
				c0,0.001,0,0.001,0,0.002c0,0.402,0.275,0.494,0.506,0.5c0.25,0.007,0.46,0.196,0.487,0.445c0.028,0.248-0.129,0.479-0.372,0.54
				C19.061,4.125,19.005,4.444,19,4.513C18.993,4.783,18.771,5,18.5,5z"/>
		</g>
		<g>
			<path d="M5.5,24c-0.271,0-0.491-0.215-0.5-0.484l0,0v-0.001l0,0c0-0.001,0-0.001,0-0.002c0,0,0,0,0-0.001l0,0
				c0-0.001,0-0.001,0-0.001c0-0.001,0-0.001,0-0.001s0,0,0-0.001c0,0,0,0,0-0.001l0,0c0-0.001,0-0.001,0-0.001v-0.001
				c0-0.001,0-0.002,0-0.003l0,0c0-0.001,0-0.002,0-0.003c0-2.385-1.346-2.495-1.505-2.5C3.221,20.997,3,20.774,3,20.5
				c0-0.271,0.217-0.493,0.487-0.5l0,0c0,0,0.001,0,0.002,0l0,0H3.49l0,0c0.001,0,0.001,0,0.002,0l0,0c0.001,0,0.001,0,0.001,0
				c0.001,0,0.001,0,0.001,0c0.001,0,0.002,0,0.003,0c0,0,0,0,0.001,0l0,0c0.001,0,0.001,0,0.002,0C4.975,20,5,17.524,5,17.499l0,0
				C5.001,17.224,5.225,17,5.5,17c0.271,0,0.493,0.217,0.5,0.487l0,0v0.001c0,0.001,0,0.001,0,0.001v0.001l0,0
				c0,0.003,0,0.007,0,0.01c0,2.391,1.353,2.496,1.507,2.5c0.249,0.007,0.46,0.197,0.486,0.445c0.027,0.249-0.13,0.479-0.372,0.54
				C6.03,21.383,6,23.415,6,23.501c0,0.001,0,0.001,0,0.001C5.999,23.777,5.775,24,5.5,24z M4.854,20.523
				c0.26,0.204,0.514,0.487,0.716,0.881c0.18-0.307,0.41-0.596,0.701-0.836c-0.276-0.19-0.555-0.466-0.78-0.862
				C5.327,20.018,5.118,20.302,4.854,20.523z"/>
		</g>
		<g>
			<path d="M3.5,13c-0.209,0-0.404-0.133-0.475-0.342l-1-3C1.938,9.396,2.08,9.113,2.342,9.025C2.605,8.938,2.887,9.08,2.975,9.342
				l1,3c0.087,0.262-0.055,0.545-0.316,0.633C3.605,12.992,3.553,13,3.5,13z"/>
		</g>
		<g>
			<path d="M16.5,21c-0.075,0-0.151-0.017-0.224-0.053c-0.247-0.124-0.347-0.424-0.224-0.671l2-4
				c0.125-0.247,0.424-0.346,0.671-0.224c0.247,0.124,0.347,0.424,0.224,0.671l-2,4C16.859,20.898,16.683,21,16.5,21z"/>
		</g>
	</g>
</g>
</svg>
