<?xml version="1.0" encoding="iso-8859-1"?>
<!-- Generator: Adobe Illustrator 19.2.1, SVG Export Plug-In . SVG Version: 6.00 Build 0)  -->
<svg version="1.1" xmlns="http://www.w3.org/2000/svg" xmlns:xlink="http://www.w3.org/1999/xlink" x="0px" y="0px"
	 viewBox="0 0 24 24" style="enable-background:new 0 0 24 24;" xml:space="preserve">
<g id="Engagement_1">
</g>
<g id="Engagement_2">
</g>
<g id="Wedding_Ring">
</g>
<g id="Church">
</g>
<g id="Church_Bells">
</g>
<g id="Wedding_Altar_1">
</g>
<g id="Wedding_Altar_2">
</g>
<g id="Bow-Tie">
</g>
<g id="Wedding_Tiara">
</g>
<g id="Wedding_Bouquet">
</g>
<g id="Wedding_Decoration_1">
</g>
<g id="Wedding_Decoration_2">
</g>
<g id="Wedding_Way_Sign">
</g>
<g id="Wedding_Date">
</g>
<g id="Wedding_Invitation">
</g>
<g id="Wedding_Invitation_2">
</g>
<g id="Bride">
</g>
<g id="Groom">
</g>
<g id="Mariage_Couple">
</g>
<g id="Wedding_Planner_Book">
</g>
<g id="Wedding_Cake_1">
</g>
<g id="Wedding_Cake_2">
</g>
<g id="Wedding_Cake_3">
</g>
<g id="Cake_Slice">
</g>
<g id="Marriage_Settlement">
</g>
<g id="Glass_Decoration">
</g>
<g id="Cutlery_Decoration">
</g>
<g id="Celebration_Glasses">
</g>
<g id="Wedding_Photo">
</g>
<g id="Wedding_Present_1">
</g>
<g id="Wedding_Present_2">
</g>
<g id="Wedding_Bouquet_2">
</g>
<g id="Hands_with_rings">
</g>
<g id="Wedding_Car">
</g>
<g id="Wedding_music">
</g>
<g id="wedding_party">
</g>
<g id="Confetti_1">
	<g>
		<g>
			<path d="M3.5,11c-0.096,0-0.192-0.027-0.277-0.084l-3-2C0.084,8.823,0,8.667,0,8.5s0.084-0.323,0.223-0.416L2.599,6.5
				L0.223,4.916C0.084,4.823,0,4.667,0,4.5s0.084-0.323,0.223-0.416L2.599,2.5L0.223,0.916c-0.229-0.153-0.292-0.464-0.139-0.693
				c0.154-0.23,0.465-0.291,0.693-0.139l3,2C3.916,2.177,4,2.333,4,2.5S3.916,2.823,3.777,2.916L1.401,4.5l2.376,1.584
				C3.916,6.177,4,6.333,4,6.5S3.916,6.823,3.777,6.916L1.401,8.5l2.376,1.584c0.229,0.153,0.292,0.464,0.139,0.693
				C3.819,10.922,3.661,11,3.5,11z"/>
		</g>
		<g>
			<path d="M13.5,14.5c-0.161,0-0.319-0.078-0.416-0.223c-0.153-0.229-0.091-0.54,0.139-0.693L15.599,12l-2.376-1.584
				C13.084,10.323,13,10.167,13,10s0.084-0.323,0.223-0.416L15.599,8l-2.376-1.584C13.084,6.323,13,6.167,13,6
				s0.084-0.323,0.223-0.416l3-2c0.228-0.152,0.539-0.092,0.693,0.139c0.153,0.229,0.091,0.54-0.139,0.693L14.401,6l2.376,1.584
				C16.916,7.677,17,7.833,17,8s-0.084,0.323-0.223,0.416L14.401,10l2.376,1.584C16.916,11.677,17,11.833,17,12
				s-0.084,0.323-0.223,0.416l-3,2C13.692,14.473,13.596,14.5,13.5,14.5z"/>
		</g>
		<g>
			<path d="M5.5,24c-0.161,0-0.319-0.078-0.416-0.223c-0.153-0.229-0.091-0.54,0.139-0.693l1.752-1.168
				c0.142-0.095,0.223-0.246,0.223-0.416s-0.081-0.321-0.223-0.416l-0.504-0.336C6.053,20.47,5.803,20.003,5.803,19.5
				s0.25-0.97,0.668-1.248l0.504-0.336c0.142-0.095,0.223-0.246,0.223-0.416s-0.081-0.321-0.223-0.416l-0.504-0.336
				C6.053,16.47,5.803,16.003,5.803,15.5s0.25-0.97,0.668-1.248l0.504-0.336c0.142-0.095,0.223-0.246,0.223-0.416
				s-0.081-0.321-0.223-0.416l-0.504-0.336C6.053,12.47,5.803,12.003,5.803,11.5s0.25-0.97,0.668-1.248l1.752-1.168
				C8.45,8.931,8.761,8.991,8.916,9.223c0.153,0.229,0.091,0.54-0.139,0.693l-1.752,1.168C6.884,11.179,6.803,11.33,6.803,11.5
				s0.081,0.321,0.223,0.416l0.504,0.336c0.418,0.278,0.668,0.745,0.668,1.248s-0.25,0.97-0.668,1.248l-0.504,0.336
				C6.884,15.179,6.803,15.33,6.803,15.5s0.081,0.321,0.223,0.416l0.504,0.336c0.418,0.278,0.668,0.745,0.668,1.248
				s-0.25,0.97-0.668,1.248l-0.504,0.336C6.884,19.179,6.803,19.33,6.803,19.5s0.081,0.321,0.223,0.416l0.504,0.336
				c0.418,0.278,0.668,0.745,0.668,1.248s-0.25,0.97-0.668,1.248l-1.752,1.168C5.692,23.973,5.596,24,5.5,24z"/>
		</g>
		<g>
			<path d="M23.5,22c-0.096,0-0.192-0.027-0.277-0.084l-1.752-1.168c-0.418-0.278-0.668-0.745-0.668-1.248s0.25-0.97,0.668-1.248
				l0.504-0.336c0.142-0.095,0.223-0.246,0.223-0.416s-0.081-0.321-0.223-0.416l-0.504-0.336c-0.418-0.278-0.668-0.745-0.668-1.248
				s0.25-0.97,0.668-1.248l0.504-0.336c0.142-0.095,0.223-0.246,0.223-0.416s-0.081-0.321-0.223-0.416l-0.504-0.336
				c-0.418-0.278-0.668-0.745-0.668-1.248s0.25-0.97,0.668-1.248l0.504-0.336c0.142-0.095,0.223-0.246,0.223-0.416
				s-0.081-0.321-0.223-0.416l-1.752-1.168c-0.229-0.153-0.292-0.464-0.139-0.693s0.466-0.29,0.693-0.139l1.752,1.168
				c0.418,0.278,0.668,0.745,0.668,1.248s-0.25,0.97-0.668,1.248l-0.504,0.336c-0.142,0.095-0.223,0.246-0.223,0.416
				s0.081,0.321,0.223,0.416l0.504,0.336c0.418,0.278,0.668,0.745,0.668,1.248s-0.25,0.97-0.668,1.248l-0.504,0.336
				c-0.142,0.095-0.223,0.246-0.223,0.416s0.081,0.321,0.223,0.416l0.504,0.336c0.418,0.278,0.668,0.745,0.668,1.248
				s-0.25,0.97-0.668,1.248l-0.504,0.336c-0.142,0.095-0.223,0.246-0.223,0.416s0.081,0.321,0.223,0.416l1.752,1.168
				c0.229,0.153,0.292,0.464,0.139,0.693C23.819,21.922,23.661,22,23.5,22z"/>
		</g>
		<g>
			<path d="M8.5,6C7.121,6,6,4.879,6,3.5S7.121,1,8.5,1S11,2.121,11,3.5S9.879,6,8.5,6z M8.5,2C7.673,2,7,2.673,7,3.5S7.673,5,8.5,5
				S10,4.327,10,3.5S9.327,2,8.5,2z"/>
		</g>
		<g>
			<path d="M15.5,22c-1.379,0-2.5-1.121-2.5-2.5s1.121-2.5,2.5-2.5s2.5,1.121,2.5,2.5S16.879,22,15.5,22z M15.5,18
				c-0.827,0-1.5,0.673-1.5,1.5s0.673,1.5,1.5,1.5s1.5-0.673,1.5-1.5S16.327,18,15.5,18z"/>
		</g>
		<g>
			<path d="M2.5,17C1.673,17,1,16.327,1,15.5S1.673,14,2.5,14S4,14.673,4,15.5S3.327,17,2.5,17z M2.5,15C2.225,15,2,15.225,2,15.5
				S2.225,16,2.5,16S3,15.775,3,15.5S2.775,15,2.5,15z"/>
		</g>
		<g>
			<path d="M21.5,4C20.673,4,20,3.327,20,2.5S20.673,1,21.5,1S23,1.673,23,2.5S22.327,4,21.5,4z M21.5,2C21.225,2,21,2.225,21,2.5
				S21.225,3,21.5,3S22,2.775,22,2.5S21.775,2,21.5,2z"/>
		</g>
	</g>
</g>
<g id="Confetti_2">
</g>
</svg>
