<?xml version="1.0" encoding="iso-8859-1"?>
<!-- Generator: Adobe Illustrator 19.2.1, SVG Export Plug-In . SVG Version: 6.00 Build 0)  -->
<svg version="1.1" xmlns="http://www.w3.org/2000/svg" xmlns:xlink="http://www.w3.org/1999/xlink" x="0px" y="0px"
	 viewBox="0 0 24 24" style="enable-background:new 0 0 24 24;" xml:space="preserve">
<g id="Engagement_1">
</g>
<g id="Engagement_2">
</g>
<g id="Wedding_Ring">
</g>
<g id="Church">
</g>
<g id="Church_Bells">
</g>
<g id="Wedding_Altar_1">
</g>
<g id="Wedding_Altar_2">
</g>
<g id="Bow-Tie">
</g>
<g id="Wedding_Tiara">
</g>
<g id="Wedding_Bouquet">
</g>
<g id="Wedding_Decoration_1">
</g>
<g id="Wedding_Decoration_2">
</g>
<g id="Wedding_Way_Sign">
</g>
<g id="Wedding_Date">
</g>
<g id="Wedding_Invitation">
</g>
<g id="Wedding_Invitation_2">
</g>
<g id="Bride">
</g>
<g id="Groom">
</g>
<g id="Mariage_Couple">
</g>
<g id="Wedding_Planner_Book">
</g>
<g id="Wedding_Cake_1">
</g>
<g id="Wedding_Cake_2">
</g>
<g id="Wedding_Cake_3">
</g>
<g id="Cake_Slice">
</g>
<g id="Marriage_Settlement">
</g>
<g id="Glass_Decoration">
</g>
<g id="Cutlery_Decoration">
	<g>
		<g>
			<path d="M14.5,13.903c-0.276,0-0.5-0.224-0.5-0.5V9.5c0-0.22,0.144-0.414,0.354-0.478C15.37,8.71,16,8.18,16,6.5
				C16,3.981,14.645,1,13.5,1S11,3.981,11,6.5c0,1.68,0.63,2.21,1.646,2.522C12.856,9.086,13,9.28,13,9.5v3.021
				c0,0.276-0.224,0.5-0.5,0.5s-0.5-0.224-0.5-0.5V9.855c-1.38-0.543-2-1.593-2-3.355C10,3.912,11.396,0,13.5,0S17,3.912,17,6.5
				c0,1.763-0.62,2.813-2,3.355v3.548C15,13.68,14.776,13.903,14.5,13.903z"/>
		</g>
		<g>
			<path d="M13.5,24c-0.827,0-1.5-0.673-1.5-1.5v-1.021c0-0.276,0.224-0.5,0.5-0.5s0.5,0.224,0.5,0.5V22.5
				c0,0.275,0.225,0.5,0.5,0.5s0.5-0.225,0.5-0.5v-1.897c0-0.276,0.224-0.5,0.5-0.5s0.5,0.224,0.5,0.5V22.5
				C15,23.327,14.327,24,13.5,24z"/>
		</g>
		<g>
			<path d="M10.5,12.372c-0.276,0-0.5-0.224-0.5-0.5V1.467C9.187,2.147,8,3.486,8,5.5c0,3.275,0.957,5.795,0.967,5.82
				c0.099,0.258-0.029,0.547-0.287,0.646c-0.255,0.098-0.546-0.029-0.646-0.287C7.991,11.57,7,8.96,7,5.5
				c0-3.598,3.125-5.364,3.259-5.438c0.155-0.086,0.345-0.081,0.495,0.007C10.906,0.159,11,0.323,11,0.5v11.372
				C11,12.148,10.776,12.372,10.5,12.372z"/>
		</g>
		<g>
			<path d="M9.5,24C8.673,24,8,23.327,8,22.5C8,22.224,8.224,22,8.5,22S9,22.224,9,22.5C9,22.775,9.225,23,9.5,23s0.5-0.225,0.5-0.5
				v-0.358c0-0.276,0.224-0.5,0.5-0.5s0.5,0.224,0.5,0.5V22.5C11,23.327,10.327,24,9.5,24z"/>
		</g>
		<g>
			<path d="M8.502,23.001c-0.368,0-0.726-0.135-1.002-0.382C7.183,22.335,7,21.928,7,21.5v-8.999c0-0.431,0.185-0.84,0.505-1.124
				c0.322-0.285,0.751-0.422,1.179-0.365c0.939,0.114,3.406,0.54,6.011,2.024c0.24,0.137,0.324,0.442,0.188,0.682
				c-0.138,0.241-0.443,0.322-0.682,0.188c-2.447-1.395-4.758-1.794-5.638-1.901c-0.144-0.013-0.285,0.025-0.395,0.122
				C8.06,12.222,8,12.354,8,12.501V21.5c0,0.145,0.059,0.277,0.166,0.373c0.108,0.096,0.245,0.143,0.393,0.124
				c1.097-0.124,3.287-0.536,5.635-1.897c0.237-0.138,0.544-0.059,0.684,0.182c0.139,0.239,0.057,0.545-0.182,0.684
				c-2.505,1.452-4.85,1.893-6.023,2.026C8.615,22.997,8.559,23.001,8.502,23.001z"/>
		</g>
		<g>
			<path d="M15.5,23c-0.221,0-0.418-0.146-0.48-0.362c-0.92-3.201-5.659-5.155-5.707-5.174C9.123,17.387,9,17.203,9,16.999
				c0.001-0.204,0.125-0.388,0.315-0.464c0.047-0.019,4.765-1.934,5.704-5.175c0.069-0.239,0.307-0.385,0.551-0.355
				C15.816,11.04,16,11.251,16,11.5v11c0,0.249-0.184,0.46-0.431,0.495C15.546,22.998,15.522,23,15.5,23z M10.683,17.003
				c1.164,0.6,3.084,1.764,4.317,3.43v-6.86C13.765,15.251,11.847,16.408,10.683,17.003z"/>
		</g>
	</g>
</g>
<g id="Celebration_Glasses">
</g>
<g id="Wedding_Photo">
</g>
<g id="Wedding_Present_1">
</g>
<g id="Wedding_Present_2">
</g>
<g id="Wedding_Bouquet_2">
</g>
<g id="Hands_with_rings">
</g>
<g id="Wedding_Car">
</g>
<g id="Wedding_music">
</g>
<g id="wedding_party">
</g>
<g id="Confetti_1">
</g>
<g id="Confetti_2">
</g>
</svg>
