<?xml version="1.0" encoding="iso-8859-1"?>
<!-- Generator: Adobe Illustrator 19.2.1, SVG Export Plug-In . SVG Version: 6.00 Build 0)  -->
<svg version="1.1" xmlns="http://www.w3.org/2000/svg" xmlns:xlink="http://www.w3.org/1999/xlink" x="0px" y="0px"
	 viewBox="0 0 24 24" style="enable-background:new 0 0 24 24;" xml:space="preserve">
<g id="Engagement_1">
</g>
<g id="Engagement_2">
	<g>
		<g>
			<path d="M7.5,19C3.364,19,0,15.636,0,11.5S3.364,4,7.5,4c1.017,0,2.002,0.2,2.93,0.594c0.254,0.108,0.373,0.401,0.264,0.656
				c-0.108,0.254-0.401,0.372-0.656,0.264C9.236,5.173,8.381,5,7.5,5C3.916,5,1,7.916,1,11.5S3.916,18,7.5,18s6.5-2.916,6.5-6.5
				c0-1.285-0.375-2.528-1.083-3.593c-0.153-0.23-0.09-0.541,0.14-0.693c0.23-0.154,0.541-0.09,0.693,0.14
				C14.568,8.583,15,10.018,15,11.5C15,15.636,11.636,19,7.5,19z"/>
		</g>
		<g>
			<path d="M16.5,19c-1.011,0-1.993-0.198-2.917-0.588c-0.254-0.107-0.374-0.4-0.266-0.655c0.107-0.254,0.401-0.374,0.655-0.266
				C14.772,17.829,15.623,18,16.5,18c3.584,0,6.5-2.916,6.5-6.5S20.084,5,16.5,5S10,7.916,10,11.5c0,1.285,0.374,2.527,1.082,3.592
				c0.153,0.23,0.09,0.541-0.14,0.693c-0.231,0.152-0.541,0.089-0.693-0.14C9.432,14.416,9,12.982,9,11.5C9,7.364,12.364,4,16.5,4
				S24,7.364,24,11.5S20.636,19,16.5,19z"/>
		</g>
	</g>
</g>
<g id="Wedding_Ring">
</g>
<g id="Church">
</g>
<g id="Church_Bells">
</g>
<g id="Wedding_Altar_1">
</g>
<g id="Wedding_Altar_2">
</g>
<g id="Bow-Tie">
</g>
<g id="Wedding_Tiara">
</g>
<g id="Wedding_Bouquet">
</g>
<g id="Wedding_Decoration_1">
</g>
<g id="Wedding_Decoration_2">
</g>
<g id="Wedding_Way_Sign">
</g>
<g id="Wedding_Date">
</g>
<g id="Wedding_Invitation">
</g>
<g id="Wedding_Invitation_2">
</g>
<g id="Bride">
</g>
<g id="Groom">
</g>
<g id="Mariage_Couple">
</g>
<g id="Wedding_Planner_Book">
</g>
<g id="Wedding_Cake_1">
</g>
<g id="Wedding_Cake_2">
</g>
<g id="Wedding_Cake_3">
</g>
<g id="Cake_Slice">
</g>
<g id="Marriage_Settlement">
</g>
<g id="Glass_Decoration">
</g>
<g id="Cutlery_Decoration">
</g>
<g id="Celebration_Glasses">
</g>
<g id="Wedding_Photo">
</g>
<g id="Wedding_Present_1">
</g>
<g id="Wedding_Present_2">
</g>
<g id="Wedding_Bouquet_2">
</g>
<g id="Hands_with_rings">
</g>
<g id="Wedding_Car">
</g>
<g id="Wedding_music">
</g>
<g id="wedding_party">
</g>
<g id="Confetti_1">
</g>
<g id="Confetti_2">
</g>
</svg>
