<?xml version="1.0" encoding="iso-8859-1"?>
<!-- Generator: Adobe Illustrator 19.2.1, SVG Export Plug-In . SVG Version: 6.00 Build 0)  -->
<svg version="1.1" xmlns="http://www.w3.org/2000/svg" xmlns:xlink="http://www.w3.org/1999/xlink" x="0px" y="0px"
	 viewBox="0 0 24 24" style="enable-background:new 0 0 24 24;" xml:space="preserve">
<g id="Engagement_1">
	<g>
		<g>
			<path d="M7.5,24C3.364,24,0,20.636,0,16.5S3.364,9,7.5,9c1.017,0,2.002,0.2,2.93,0.594c0.254,0.108,0.373,0.401,0.264,0.656
				c-0.107,0.254-0.401,0.374-0.656,0.264C9.236,10.173,8.381,10,7.5,10C3.916,10,1,12.916,1,16.5S3.916,23,7.5,23
				s6.5-2.916,6.5-6.5c0-1.285-0.375-2.528-1.083-3.593c-0.153-0.23-0.09-0.541,0.14-0.693c0.23-0.154,0.541-0.09,0.693,0.14
				C14.568,13.583,15,15.018,15,16.5C15,20.636,11.636,24,7.5,24z"/>
		</g>
		<g>
			<path d="M16.5,24c-1.011,0-1.993-0.198-2.917-0.588c-0.254-0.107-0.374-0.4-0.266-0.655c0.107-0.254,0.401-0.374,0.655-0.266
				C14.772,22.829,15.623,23,16.5,23c3.584,0,6.5-2.916,6.5-6.5S20.084,10,16.5,10S10,12.916,10,16.5
				c0,1.285,0.374,2.527,1.082,3.592c0.153,0.23,0.09,0.541-0.14,0.693c-0.232,0.152-0.541,0.089-0.693-0.14
				C9.432,19.416,9,17.982,9,16.5C9,12.364,12.364,9,16.5,9s7.5,3.364,7.5,7.5S20.636,24,16.5,24z"/>
		</g>
		<g>
			<path d="M12,8c-0.141,0-0.275-0.06-0.37-0.164c-0.091-0.1-2.236-2.463-2.938-3.321C8.239,3.961,8,3.322,8,2.667
				C8,1.196,9.112,0,10.478,0C11.037,0,11.569,0.2,12,0.561C12.431,0.2,12.963,0,13.522,0C14.888,0,16,1.196,16,2.667
				c0,0.656-0.239,1.295-0.692,1.849c-0.702,0.857-2.847,3.221-2.938,3.321C12.275,7.94,12.141,8,12,8z M10.478,1
				C9.663,1,9,1.748,9,2.667C9,3.2,9.254,3.622,9.467,3.882C9.979,4.509,11.339,6.023,12,6.755c0.661-0.732,2.021-2.246,2.533-2.873
				C14.746,3.622,15,3.2,15,2.667C15,1.748,14.337,1,13.522,1c-0.432,0-0.841,0.213-1.124,0.585c-0.189,0.249-0.607,0.249-0.797,0
				C11.319,1.213,10.91,1,10.478,1z"/>
		</g>
	</g>
</g>
<g id="Engagement_2">
</g>
<g id="Wedding_Ring">
</g>
<g id="Church">
</g>
<g id="Church_Bells">
</g>
<g id="Wedding_Altar_1">
</g>
<g id="Wedding_Altar_2">
</g>
<g id="Bow-Tie">
</g>
<g id="Wedding_Tiara">
</g>
<g id="Wedding_Bouquet">
</g>
<g id="Wedding_Decoration_1">
</g>
<g id="Wedding_Decoration_2">
</g>
<g id="Wedding_Way_Sign">
</g>
<g id="Wedding_Date">
</g>
<g id="Wedding_Invitation">
</g>
<g id="Wedding_Invitation_2">
</g>
<g id="Bride">
</g>
<g id="Groom">
</g>
<g id="Mariage_Couple">
</g>
<g id="Wedding_Planner_Book">
</g>
<g id="Wedding_Cake_1">
</g>
<g id="Wedding_Cake_2">
</g>
<g id="Wedding_Cake_3">
</g>
<g id="Cake_Slice">
</g>
<g id="Marriage_Settlement">
</g>
<g id="Glass_Decoration">
</g>
<g id="Cutlery_Decoration">
</g>
<g id="Celebration_Glasses">
</g>
<g id="Wedding_Photo">
</g>
<g id="Wedding_Present_1">
</g>
<g id="Wedding_Present_2">
</g>
<g id="Wedding_Bouquet_2">
</g>
<g id="Hands_with_rings">
</g>
<g id="Wedding_Car">
</g>
<g id="Wedding_music">
</g>
<g id="wedding_party">
</g>
<g id="Confetti_1">
</g>
<g id="Confetti_2">
</g>
</svg>
