<?xml version="1.0" encoding="iso-8859-1"?>
<!-- Generator: Adobe Illustrator 19.2.1, SVG Export Plug-In . SVG Version: 6.00 Build 0)  -->
<svg version="1.1" xmlns="http://www.w3.org/2000/svg" xmlns:xlink="http://www.w3.org/1999/xlink" x="0px" y="0px"
	 viewBox="0 0 24 24" style="enable-background:new 0 0 24 24;" xml:space="preserve">
<g id="Engagement_1">
</g>
<g id="Engagement_2">
</g>
<g id="Wedding_Ring">
</g>
<g id="Church">
</g>
<g id="Church_Bells">
</g>
<g id="Wedding_Altar_1">
</g>
<g id="Wedding_Altar_2">
</g>
<g id="Bow-Tie">
</g>
<g id="Wedding_Tiara">
</g>
<g id="Wedding_Bouquet">
</g>
<g id="Wedding_Decoration_1">
</g>
<g id="Wedding_Decoration_2">
</g>
<g id="Wedding_Way_Sign">
</g>
<g id="Wedding_Date">
</g>
<g id="Wedding_Invitation">
</g>
<g id="Wedding_Invitation_2">
</g>
<g id="Bride">
</g>
<g id="Groom">
</g>
<g id="Mariage_Couple">
</g>
<g id="Wedding_Planner_Book">
</g>
<g id="Wedding_Cake_1">
</g>
<g id="Wedding_Cake_2">
</g>
<g id="Wedding_Cake_3">
</g>
<g id="Cake_Slice">
</g>
<g id="Marriage_Settlement">
</g>
<g id="Glass_Decoration">
	<g>
		<g>
			<path d="M13.5,24h-4C9.224,24,9,23.776,9,23.5S9.224,23,9.5,23h4c0.276,0,0.5,0.224,0.5,0.5S13.776,24,13.5,24z"/>
		</g>
		<g>
			<path d="M11.5,24c-0.276,0-0.5-0.224-0.5-0.5v-6c0-0.276,0.224-0.5,0.5-0.5s0.5,0.224,0.5,0.5v6C12,23.776,11.776,24,11.5,24z"/>
		</g>
		<g>
			<path d="M9.499,8C9.255,8,9.041,7.82,9.005,7.57l-1-7C7.979,0.385,8.059,0.2,8.212,0.092c0.153-0.107,0.354-0.124,0.521-0.034
				l2.572,1.351c1.063,0.558,2.23,1.805,2.657,2.839c0.105,0.255-0.016,0.547-0.271,0.652c-0.256,0.109-0.548-0.015-0.652-0.271
				c-0.344-0.831-1.329-1.879-2.198-2.335L9.133,1.397L9.995,7.43c0.039,0.273-0.151,0.526-0.425,0.565C9.547,7.998,9.522,8,9.499,8
				z"/>
		</g>
		<g>
			<path d="M10.5,8c-0.104,0-0.21-0.032-0.3-0.1C9.979,7.734,9.935,7.421,10.1,7.2l3-4c0.13-0.173,0.356-0.24,0.559-0.175
				C13.862,3.094,14,3.285,14,3.5v4C14,7.776,13.776,8,13.5,8S13,7.776,13,7.5V5l-2.1,2.8C10.802,7.931,10.651,8,10.5,8z"/>
		</g>
		<g>
			<path d="M11.5,18C9.57,18,8,16.43,8,14.5l0.501-7.035C8.52,7.203,8.737,7,9,7h5c0.263,0,0.48,0.203,0.499,0.465l0.5,7
				C15,14.477,15,14.488,15,14.5C15,16.43,13.43,18,11.5,18z M9.466,8l-0.467,6.535C9,15.879,10.121,17,11.5,17
				c1.373,0,2.49-1.112,2.5-2.483L13.534,8H9.466z"/>
		</g>
	</g>
</g>
<g id="Cutlery_Decoration">
</g>
<g id="Celebration_Glasses">
</g>
<g id="Wedding_Photo">
</g>
<g id="Wedding_Present_1">
</g>
<g id="Wedding_Present_2">
</g>
<g id="Wedding_Bouquet_2">
</g>
<g id="Hands_with_rings">
</g>
<g id="Wedding_Car">
</g>
<g id="Wedding_music">
</g>
<g id="wedding_party">
</g>
<g id="Confetti_1">
</g>
<g id="Confetti_2">
</g>
</svg>
