<?xml version="1.0" encoding="iso-8859-1"?>
<!-- Generator: Adobe Illustrator 19.2.1, SVG Export Plug-In . SVG Version: 6.00 Build 0)  -->
<svg version="1.1" xmlns="http://www.w3.org/2000/svg" xmlns:xlink="http://www.w3.org/1999/xlink" x="0px" y="0px"
	 viewBox="0 0 24 24" style="enable-background:new 0 0 24 24;" xml:space="preserve">
<g id="Engagement_1">
</g>
<g id="Engagement_2">
</g>
<g id="Wedding_Ring">
</g>
<g id="Church">
</g>
<g id="Church_Bells">
</g>
<g id="Wedding_Altar_1">
</g>
<g id="Wedding_Altar_2">
</g>
<g id="Bow-Tie">
</g>
<g id="Wedding_Tiara">
</g>
<g id="Wedding_Bouquet">
</g>
<g id="Wedding_Decoration_1">
</g>
<g id="Wedding_Decoration_2">
</g>
<g id="Wedding_Way_Sign">
</g>
<g id="Wedding_Date">
</g>
<g id="Wedding_Invitation">
</g>
<g id="Wedding_Invitation_2">
</g>
<g id="Bride">
</g>
<g id="Groom">
	<g>
		<g>
			<path d="M11.5,5.5C10.121,5.5,9,4.378,9,3s1.121-2.5,2.5-2.5S14,1.622,14,3S12.879,5.5,11.5,5.5z M11.5,1.5
				C10.673,1.5,10,2.173,10,3s0.673,1.5,1.5,1.5S13,3.827,13,3S12.327,1.5,11.5,1.5z"/>
		</g>
		<g>
			<path d="M12.5,7.5c-0.076,0-0.153-0.018-0.224-0.053L11.5,7.059l-0.776,0.388c-0.155,0.077-0.34,0.069-0.486-0.022
				C10.09,7.334,10,7.173,10,7V6c0-0.173,0.09-0.334,0.237-0.425c0.146-0.091,0.331-0.099,0.486-0.022L11.5,5.941l0.776-0.388
				c0.154-0.078,0.339-0.07,0.486,0.022C12.91,5.666,13,5.827,13,6v1c0,0.173-0.09,0.334-0.237,0.425
				C12.683,7.475,12.592,7.5,12.5,7.5z"/>
		</g>
		<g>
			<path d="M12.5,23.5c-0.384,0-0.734-0.145-1-0.383c-0.266,0.238-0.616,0.383-1,0.383C9.673,23.5,9,22.827,9,22v-6.585
				C8.844,15.47,8.675,15.5,8.5,15.5C7.673,15.5,7,14.827,7,14V8c0-0.881,0.479-1.707,1.248-2.155
				c0.236-0.138,0.543-0.059,0.685,0.181C9.071,6.265,8.99,6.571,8.752,6.709C8.281,6.983,8,7.466,8,8v6c0,0.276,0.225,0.5,0.5,0.5
				S9,14.276,9,14c0-0.276,0.224-0.5,0.5-0.5S10,13.724,10,14v8c0,0.276,0.225,0.5,0.5,0.5S11,22.276,11,22
				c0-0.276,0.224-0.5,0.5-0.5S12,21.724,12,22c0,0.276,0.225,0.5,0.5,0.5S13,22.276,13,22v-8c0-0.276,0.224-0.5,0.5-0.5
				S14,13.724,14,14c0,0.276,0.225,0.5,0.5,0.5S15,14.276,15,14V8c0-0.534-0.281-1.017-0.752-1.291
				c-0.238-0.139-0.319-0.445-0.181-0.684c0.141-0.239,0.446-0.318,0.685-0.181C15.521,6.293,16,7.119,16,8v6
				c0,0.827-0.673,1.5-1.5,1.5c-0.175,0-0.344-0.03-0.5-0.085V22C14,22.827,13.327,23.5,12.5,23.5z"/>
		</g>
		<g>
			<path d="M13.5,14.5c-0.276,0-0.5-0.224-0.5-0.5v-4c0-0.276,0.224-0.5,0.5-0.5S14,9.724,14,10v4C14,14.276,13.776,14.5,13.5,14.5z
				"/>
		</g>
		<g>
			<path d="M9.5,14.5C9.224,14.5,9,14.276,9,14v-4c0-0.276,0.224-0.5,0.5-0.5S10,9.724,10,10v4C10,14.276,9.776,14.5,9.5,14.5z"/>
		</g>
		<g>
			<path d="M11.5,22.5c-0.276,0-0.5-0.224-0.5-0.5v-6c0-0.276,0.224-0.5,0.5-0.5S12,15.724,12,16v6C12,22.276,11.776,22.5,11.5,22.5
				z"/>
		</g>
	</g>
</g>
<g id="Mariage_Couple">
</g>
<g id="Wedding_Planner_Book">
</g>
<g id="Wedding_Cake_1">
</g>
<g id="Wedding_Cake_2">
</g>
<g id="Wedding_Cake_3">
</g>
<g id="Cake_Slice">
</g>
<g id="Marriage_Settlement">
</g>
<g id="Glass_Decoration">
</g>
<g id="Cutlery_Decoration">
</g>
<g id="Celebration_Glasses">
</g>
<g id="Wedding_Photo">
</g>
<g id="Wedding_Present_1">
</g>
<g id="Wedding_Present_2">
</g>
<g id="Wedding_Bouquet_2">
</g>
<g id="Hands_with_rings">
</g>
<g id="Wedding_Car">
</g>
<g id="Wedding_music">
</g>
<g id="wedding_party">
</g>
<g id="Confetti_1">
</g>
<g id="Confetti_2">
</g>
</svg>
