<?xml version="1.0" encoding="iso-8859-1"?>
<!-- Generator: Adobe Illustrator 19.2.1, SVG Export Plug-In . SVG Version: 6.00 Build 0)  -->
<svg version="1.1" xmlns="http://www.w3.org/2000/svg" xmlns:xlink="http://www.w3.org/1999/xlink" x="0px" y="0px"
	 viewBox="0 0 24 24" style="enable-background:new 0 0 24 24;" xml:space="preserve">
<g id="Engagement_1">
</g>
<g id="Engagement_2">
</g>
<g id="Wedding_Ring">
</g>
<g id="Church">
</g>
<g id="Church_Bells">
</g>
<g id="Wedding_Altar_1">
</g>
<g id="Wedding_Altar_2">
</g>
<g id="Bow-Tie">
</g>
<g id="Wedding_Tiara">
</g>
<g id="Wedding_Bouquet">
</g>
<g id="Wedding_Decoration_1">
</g>
<g id="Wedding_Decoration_2">
</g>
<g id="Wedding_Way_Sign">
</g>
<g id="Wedding_Date">
</g>
<g id="Wedding_Invitation">
</g>
<g id="Wedding_Invitation_2">
</g>
<g id="Bride">
</g>
<g id="Groom">
</g>
<g id="Mariage_Couple">
</g>
<g id="Wedding_Planner_Book">
</g>
<g id="Wedding_Cake_1">
</g>
<g id="Wedding_Cake_2">
</g>
<g id="Wedding_Cake_3">
</g>
<g id="Cake_Slice">
</g>
<g id="Marriage_Settlement">
</g>
<g id="Glass_Decoration">
</g>
<g id="Cutlery_Decoration">
</g>
<g id="Celebration_Glasses">
</g>
<g id="Wedding_Photo">
</g>
<g id="Wedding_Present_1">
</g>
<g id="Wedding_Present_2">
</g>
<g id="Wedding_Bouquet_2">
</g>
<g id="Hands_with_rings">
	<g>
		<g>
			<path d="M13.157,21.907c-0.534,0-1.036-0.208-1.414-0.586l-8.839-8.839C1.676,11.255,1,9.622,1,7.886S1.676,4.518,2.904,3.29
				S5.764,1.386,7.5,1.386s3.369,0.677,4.596,1.904c0.195,0.195,0.195,0.512,0,0.707s-0.512,0.195-0.707,0
				C10.35,2.958,8.969,2.386,7.5,2.386S4.65,2.958,3.611,3.997S2,6.417,2,7.886s0.572,2.851,1.611,3.89l8.839,8.839
				c0.378,0.377,1.036,0.377,1.414,0c0.189-0.189,0.293-0.44,0.293-0.707c0-0.268-0.104-0.519-0.292-0.707l-1.061-1.062
				c-0.098-0.098-0.146-0.226-0.146-0.354s0.049-0.256,0.146-0.354c0.195-0.195,0.512-0.195,0.707,0l1.061,1.062
				c0.39,0.389,1.025,0.389,1.415,0c0.39-0.391,0.39-1.024,0-1.415l-1.061-1.061c-0.098-0.098-0.146-0.226-0.146-0.354
				s0.049-0.256,0.146-0.354c0.195-0.195,0.512-0.195,0.707,0l1.061,1.061c0.378,0.377,1.036,0.377,1.414,0
				c0.39-0.39,0.39-1.024,0-1.414l-1.061-1.061c-0.098-0.098-0.146-0.226-0.146-0.354s0.049-0.256,0.146-0.354
				c0.195-0.195,0.512-0.195,0.707,0l1.061,1.061c0.39,0.391,1.025,0.391,1.415,0c0.39-0.39,0.39-1.024,0-1.414l-6.597-6.598
				c-0.195-0.195-0.195-0.512,0-0.707s0.512-0.195,0.707,0l6.597,6.598c0.78,0.779,0.78,2.049,0,2.828
				c-0.408,0.407-0.974,0.622-1.54,0.582c0.002,0.041,0.004,0.083,0.004,0.125c0,0.534-0.208,1.036-0.586,1.414
				c-0.407,0.407-0.963,0.626-1.54,0.582c0.035,0.554-0.159,1.118-0.581,1.54c-0.422,0.421-0.991,0.619-1.54,0.58
				c0.002,0.042,0.004,0.084,0.004,0.127c0,0.534-0.208,1.036-0.586,1.414C14.193,21.699,13.691,21.907,13.157,21.907z"/>
		</g>
		<g>
			<path d="M9.621,22.613c-0.512,0-1.024-0.195-1.414-0.585l0,0c-0.377-0.378-0.585-0.88-0.585-1.414
				c0-0.535,0.208-1.037,0.585-1.414c0.781-0.779,2.049-0.779,2.829,0c0.377,0.377,0.585,0.879,0.585,1.414
				c0,0.534-0.208,1.036-0.585,1.414C10.646,22.418,10.133,22.613,9.621,22.613z M8.914,21.321c0.389,0.39,1.024,0.391,1.415,0
				c0.188-0.188,0.292-0.44,0.292-0.707c0-0.268-0.104-0.519-0.292-0.707c-0.39-0.391-1.025-0.392-1.415,0
				c-0.189,0.188-0.292,0.439-0.292,0.707C8.622,20.881,8.726,21.132,8.914,21.321L8.914,21.321z"/>
		</g>
		<g>
			<path d="M7.5,20.491c-0.512,0-1.024-0.194-1.414-0.584l0,0c-0.78-0.78-0.78-2.049,0-2.829c0.779-0.779,2.048-0.779,2.828,0
				c0.78,0.78,0.78,2.049,0,2.829C8.524,20.297,8.012,20.491,7.5,20.491z M6.793,19.2c0.39,0.389,1.024,0.389,1.414,0
				c0.39-0.391,0.39-1.024,0-1.415c-0.39-0.389-1.024-0.389-1.414,0C6.403,18.175,6.403,18.81,6.793,19.2z"/>
		</g>
		<g>
			<path d="M5.379,18.37c-0.512,0-1.024-0.195-1.415-0.585l0,0l0,0l0,0c-0.377-0.377-0.585-0.879-0.585-1.414
				c0-0.534,0.208-1.036,0.585-1.414c0.779-0.779,2.048-0.779,2.829,0c0.377,0.378,0.585,0.88,0.585,1.414
				c0,0.535-0.208,1.037-0.585,1.414C6.403,18.175,5.891,18.37,5.379,18.37z M5.379,15.372c-0.256,0-0.513,0.097-0.708,0.292
				c-0.188,0.188-0.292,0.44-0.292,0.707c0,0.268,0.104,0.519,0.292,0.707l0,0c0.39,0.392,1.025,0.39,1.415,0
				c0.189-0.188,0.292-0.439,0.292-0.707c0-0.267-0.104-0.519-0.292-0.707C5.891,15.469,5.635,15.372,5.379,15.372z"/>
		</g>
		<g>
			<path d="M3.257,16.25c-0.534,0-1.036-0.208-1.414-0.586c-0.78-0.779-0.78-2.049,0-2.828c0.756-0.757,2.074-0.755,2.828,0
				c0.78,0.779,0.78,2.049,0,2.828C4.294,16.042,3.792,16.25,3.257,16.25z M3.257,13.25c-0.267,0-0.518,0.104-0.707,0.293
				c-0.39,0.39-0.39,1.024,0,1.414c0.378,0.377,1.036,0.377,1.414,0c0.39-0.39,0.39-1.024,0-1.414
				C3.775,13.354,3.524,13.25,3.257,13.25z"/>
		</g>
		<g>
			<path d="M20.228,12.629c-0.128,0-0.256-0.049-0.354-0.146c-0.195-0.195-0.195-0.512,0-0.707c1.039-1.039,1.611-2.421,1.611-3.89
				s-0.572-2.85-1.611-3.889s-2.42-1.611-3.889-1.611s-2.85,0.572-3.889,1.611L8.421,7.672C8.156,7.938,8.063,8.311,8.171,8.67
				c0.109,0.358,0.393,0.616,0.76,0.689c0.331,0.064,0.667-0.036,0.904-0.273l3.675-3.675c0.195-0.195,0.512-0.195,0.707,0
				s0.195,0.512,0,0.707l-3.675,3.675c-0.475,0.475-1.15,0.679-1.807,0.547c-0.735-0.146-1.304-0.662-1.521-1.38
				C7,8.252,7.191,7.488,7.714,6.965l3.675-3.675c1.228-1.228,2.86-1.904,4.596-1.904s3.369,0.677,4.596,1.904
				s1.904,2.859,1.904,4.596s-0.676,3.369-1.904,4.597C20.484,12.58,20.356,12.629,20.228,12.629z"/>
		</g>
		<g>
			<line style="fill:#FFFFFF;" x1="14" y1="17.386" x2="14.971" y2="16.386"/>
			<path d="M14,17.886c-0.125,0-0.251-0.047-0.348-0.142c-0.198-0.192-0.203-0.509-0.011-0.707l0.971-1
				c0.193-0.198,0.509-0.203,0.707-0.01c0.198,0.192,0.203,0.509,0.011,0.707l-0.971,1C14.261,17.835,14.13,17.886,14,17.886z"/>
		</g>
	</g>
</g>
<g id="Wedding_Car">
</g>
<g id="Wedding_music">
</g>
<g id="wedding_party">
</g>
<g id="Confetti_1">
</g>
<g id="Confetti_2">
</g>
</svg>
