<?xml version="1.0" encoding="iso-8859-1"?>
<!-- Generator: Adobe Illustrator 19.2.1, SVG Export Plug-In . SVG Version: 6.00 Build 0)  -->
<svg version="1.1" xmlns="http://www.w3.org/2000/svg" xmlns:xlink="http://www.w3.org/1999/xlink" x="0px" y="0px"
	 viewBox="0 0 24 24" style="enable-background:new 0 0 24 24;" xml:space="preserve">
<g id="Engagement_1">
</g>
<g id="Engagement_2">
</g>
<g id="Wedding_Ring">
</g>
<g id="Church">
</g>
<g id="Church_Bells">
</g>
<g id="Wedding_Altar_1">
</g>
<g id="Wedding_Altar_2">
</g>
<g id="Bow-Tie">
</g>
<g id="Wedding_Tiara">
</g>
<g id="Wedding_Bouquet">
</g>
<g id="Wedding_Decoration_1">
</g>
<g id="Wedding_Decoration_2">
</g>
<g id="Wedding_Way_Sign">
</g>
<g id="Wedding_Date">
</g>
<g id="Wedding_Invitation">
</g>
<g id="Wedding_Invitation_2">
</g>
<g id="Bride">
</g>
<g id="Groom">
</g>
<g id="Mariage_Couple">
	<g>
		<g>
			<path d="M15.499,23.5c-0.827,0-1.5-0.673-1.5-1.5L14,21c0-0.276,0.224-0.5,0.5-0.5c0,0,0,0,0.001,0C14.776,20.5,15,20.724,15,21
				l-0.001,1c0,0.275,0.225,0.5,0.5,0.5s0.5-0.224,0.5-0.5L16,21c0-0.276,0.224-0.5,0.5-0.5c0,0,0,0,0.001,0
				C16.776,20.5,17,20.724,17,21l-0.001,1C16.999,22.827,16.326,23.5,15.499,23.5z"/>
		</g>
		<g>
			<path d="M17.499,23.5c-0.827,0-1.5-0.673-1.5-1.5L16,21c0-0.276,0.224-0.5,0.5-0.5c0,0,0,0,0.001,0C16.776,20.5,17,20.724,17,21
				l-0.001,1c0,0.275,0.225,0.5,0.5,0.5s0.5-0.224,0.5-0.5L18,21c0-0.276,0.224-0.5,0.5-0.5c0,0,0,0,0.001,0
				C18.776,20.5,19,20.724,19,21l-0.001,1C18.999,22.827,18.326,23.5,17.499,23.5z"/>
		</g>
		<g>
			<path d="M16.5,5.5C15.121,5.5,14,4.378,14,3s1.121-2.5,2.5-2.5S19,1.622,19,3S17.879,5.5,16.5,5.5z M16.5,1.5
				C15.673,1.5,15,2.173,15,3s0.673,1.5,1.5,1.5S18,3.827,18,3S17.327,1.5,16.5,1.5z"/>
		</g>
		<g>
			<path d="M4.5,5.5C3.121,5.5,2,4.378,2,3s1.121-2.5,2.5-2.5S7,1.622,7,3S5.879,5.5,4.5,5.5z M4.5,1.5C3.673,1.5,3,2.173,3,3
				s0.673,1.5,1.5,1.5S6,3.827,6,3S5.327,1.5,4.5,1.5z"/>
		</g>
		<g>
			<path d="M5.5,7.5c-0.076,0-0.153-0.018-0.224-0.053L4.5,7.059L3.724,7.447c-0.155,0.077-0.34,0.069-0.486-0.022
				C3.09,7.334,3,7.173,3,7V6c0-0.173,0.09-0.334,0.237-0.425c0.146-0.091,0.332-0.099,0.486-0.022L4.5,5.941l0.776-0.388
				c0.154-0.078,0.339-0.07,0.486,0.022C5.91,5.666,6,5.827,6,6v1c0,0.173-0.09,0.334-0.237,0.425C5.683,7.475,5.592,7.5,5.5,7.5z"
				/>
		</g>
		<g>
			<path d="M2.5,14.5C2.224,14.5,2,14.276,2,14v-4c0-0.276,0.224-0.5,0.5-0.5S3,9.724,3,10v4C3,14.276,2.776,14.5,2.5,14.5z"/>
		</g>
		<g>
			<path d="M4.5,22.5C4.224,22.5,4,22.276,4,22v-6c0-0.276,0.224-0.5,0.5-0.5S5,15.724,5,16v6C5,22.276,4.776,22.5,4.5,22.5z"/>
		</g>
		<g>
			<path d="M5.5,23.5c-0.384,0-0.734-0.145-1-0.383c-0.266,0.238-0.616,0.383-1,0.383C2.673,23.5,2,22.827,2,22v-6.585
				C1.844,15.47,1.675,15.5,1.5,15.5C0.673,15.5,0,14.827,0,14V8c0-0.881,0.479-1.707,1.248-2.155
				c0.236-0.138,0.544-0.059,0.685,0.181C2.071,6.265,1.99,6.571,1.752,6.709C1.281,6.983,1,7.466,1,8v6c0,0.276,0.225,0.5,0.5,0.5
				S2,14.276,2,14c0-0.276,0.224-0.5,0.5-0.5S3,13.724,3,14v8c0,0.276,0.225,0.5,0.5,0.5S4,22.276,4,22c0-0.276,0.224-0.5,0.5-0.5
				S5,21.724,5,22c0,0.276,0.225,0.5,0.5,0.5S6,22.276,6,22V10.117c0-0.551,0.448-1,1-1c0.357,0,0.689,0.192,0.867,0.502
				l2.182,3.598C10.297,13.673,10.999,13.46,11,13c0-0.083-0.021-0.164-0.059-0.235c-0.006-0.009-0.011-0.018-0.017-0.027
				L7.843,7.337C7.837,7.326,7.831,7.314,7.825,7.303C7.692,7.057,7.493,6.852,7.249,6.71C7.01,6.571,6.929,6.265,7.067,6.026
				c0.139-0.24,0.446-0.319,0.684-0.182c0.415,0.241,0.751,0.592,0.972,1.016l3.052,5.347c0.001,0.002,0.002,0.004,0.004,0.006
				C11.923,12.449,12,12.721,12,13c0,0.827-0.673,1.5-1.5,1.5c-0.551,0-1.056-0.301-1.318-0.785l-2.176-3.588L7,22
				C7,22.827,6.327,23.5,5.5,23.5z"/>
		</g>
		<g>
			<path d="M16.499,21.5c-4.092,0-6.257-2.054-6.347-2.141c-0.112-0.109-0.167-0.264-0.148-0.418
				c0.019-0.155,0.108-0.292,0.243-0.372C11.763,17.679,14,14.066,14,12c0-0.812-0.055-1.393-0.123-1.801l-2.09,3.571
				c-0.14,0.239-0.445,0.317-0.685,0.179c-0.238-0.14-0.318-0.446-0.179-0.684l2.644-4.517c0.078-0.134,0.214-0.224,0.367-0.244
				c0.151-0.02,0.308,0.032,0.418,0.142C14.504,8.798,15,9.488,15,12c0,2.193-1.98,5.58-3.67,7.014
				c0.792,0.543,2.546,1.486,5.169,1.486c2.637,0,4.378-0.937,5.167-1.479C19.976,17.612,18,14.234,18,12
				c0-2.512,0.494-3.202,0.646-3.353c0.11-0.111,0.268-0.165,0.424-0.142c0.155,0.022,0.291,0.116,0.367,0.253l2.5,4.531
				c0.141,0.197,0.467,0.279,0.731,0.147c0.159-0.08,0.271-0.219,0.313-0.392c0.044-0.173,0.01-0.348-0.094-0.493l-3.222-5.46
				c-0.129-0.178-0.328-0.336-0.563-0.444c-1.545,1.117-3.659,1.118-5.206,0c-0.237,0.109-0.441,0.275-0.589,0.481L10.909,11.2
				c-0.14,0.239-0.447,0.315-0.685,0.177c-0.238-0.14-0.317-0.447-0.177-0.685l2.422-4.109c0.348-0.489,0.828-0.825,1.377-0.981
				c0.158-0.043,0.327-0.009,0.453,0.094c1.285,1.052,3.114,1.051,4.399,0.001c0.126-0.104,0.294-0.139,0.454-0.094
				c0.549,0.157,1.028,0.492,1.351,0.944l3.222,5.459c0.248,0.345,0.34,0.824,0.227,1.279c-0.112,0.455-0.418,0.836-0.837,1.045
				c-0.705,0.352-1.575,0.13-2.026-0.514l-1.975-3.575C19.051,10.647,19,11.216,19,12c0,2.066,2.267,5.732,3.745,6.564
				c0.137,0.077,0.229,0.214,0.251,0.37c0.021,0.156-0.033,0.312-0.146,0.422C22.762,19.444,20.626,21.5,16.499,21.5z"/>
		</g>
	</g>
</g>
<g id="Wedding_Planner_Book">
</g>
<g id="Wedding_Cake_1">
</g>
<g id="Wedding_Cake_2">
</g>
<g id="Wedding_Cake_3">
</g>
<g id="Cake_Slice">
</g>
<g id="Marriage_Settlement">
</g>
<g id="Glass_Decoration">
</g>
<g id="Cutlery_Decoration">
</g>
<g id="Celebration_Glasses">
</g>
<g id="Wedding_Photo">
</g>
<g id="Wedding_Present_1">
</g>
<g id="Wedding_Present_2">
</g>
<g id="Wedding_Bouquet_2">
</g>
<g id="Hands_with_rings">
</g>
<g id="Wedding_Car">
</g>
<g id="Wedding_music">
</g>
<g id="wedding_party">
</g>
<g id="Confetti_1">
</g>
<g id="Confetti_2">
</g>
</svg>
