<?xml version="1.0" encoding="iso-8859-1"?>
<!-- Generator: Adobe Illustrator 19.2.1, SVG Export Plug-In . SVG Version: 6.00 Build 0)  -->
<svg version="1.1" xmlns="http://www.w3.org/2000/svg" xmlns:xlink="http://www.w3.org/1999/xlink" x="0px" y="0px"
	 viewBox="0 0 24 24" style="enable-background:new 0 0 24 24;" xml:space="preserve">
<g id="Engagement_1">
</g>
<g id="Engagement_2">
</g>
<g id="Wedding_Ring">
</g>
<g id="Church">
</g>
<g id="Church_Bells">
</g>
<g id="Wedding_Altar_1">
</g>
<g id="Wedding_Altar_2">
</g>
<g id="Bow-Tie">
</g>
<g id="Wedding_Tiara">
</g>
<g id="Wedding_Bouquet">
</g>
<g id="Wedding_Decoration_1">
</g>
<g id="Wedding_Decoration_2">
</g>
<g id="Wedding_Way_Sign">
</g>
<g id="Wedding_Date">
</g>
<g id="Wedding_Invitation">
</g>
<g id="Wedding_Invitation_2">
</g>
<g id="Bride">
</g>
<g id="Groom">
</g>
<g id="Mariage_Couple">
</g>
<g id="Wedding_Planner_Book">
</g>
<g id="Wedding_Cake_1">
</g>
<g id="Wedding_Cake_2">
</g>
<g id="Wedding_Cake_3">
</g>
<g id="Cake_Slice">
</g>
<g id="Marriage_Settlement">
	<g>
		<g>
			<path d="M19.5,10C19.224,10,19,9.776,19,9.5v-7C19,1.673,18.327,1,17.5,1h-15C2.224,1,2,0.776,2,0.5S2.224,0,2.5,0h15
				C18.878,0,20,1.121,20,2.5v7C20,9.776,19.776,10,19.5,10z"/>
		</g>
		<g>
			<path d="M19.5,21c-0.276,0-0.5-0.224-0.5-0.5v-7c0-0.276,0.224-0.5,0.5-0.5s0.5,0.224,0.5,0.5v7C20,20.776,19.776,21,19.5,21z"/>
		</g>
		<g>
			<path d="M21.5,24h-15C5.122,24,4,22.879,4,21.5V4H0.5C0.224,4,0,3.776,0,3.5v-1C0,1.121,1.122,0,2.5,0S5,1.121,5,2.5v19
				C5,22.327,5.673,23,6.5,23S8,22.327,8,21.5v-1C8,20.224,8.224,20,8.5,20h15c0.276,0,0.5,0.224,0.5,0.5v1
				C24,22.879,22.878,24,21.5,24z M8.499,23H21.5c0.827,0,1.5-0.673,1.5-1.5V21H9v0.5C9,22.063,8.813,22.582,8.499,23z M1,3h3V2.5
				C4,1.673,3.327,1,2.5,1S1,1.673,1,2.5V3z"/>
		</g>
		<g>
			<path d="M14.5,17c-0.13,0-0.258-0.051-0.354-0.146c-0.134-0.134-0.181-0.332-0.121-0.512l1-3
				c0.024-0.073,0.066-0.141,0.121-0.195l5.586-5.586c0.722-0.724,1.98-0.721,2.701,0c0.75,0.751,0.75,1.962,0.006,2.707
				l-5.586,5.586c-0.055,0.055-0.122,0.097-0.195,0.121l-3,1C14.606,16.991,14.553,17,14.5,17z M15.937,13.771l-0.646,1.938
				l1.939-0.646l5.502-5.502c0.355-0.354,0.355-0.933,0-1.287c-0.355-0.355-0.949-0.35-1.293-0.006L15.937,13.771z M17.5,15.5h0.01
				H17.5z"/>
		</g>
		<g>
			<path d="M17.5,16c-0.128,0-0.256-0.049-0.354-0.146l-2-2c-0.195-0.195-0.195-0.512,0-0.707s0.512-0.195,0.707,0l2,2
				c0.195,0.195,0.195,0.512,0,0.707C17.756,15.951,17.628,16,17.5,16z"/>
		</g>
		<g>
			<path d="M14.5,5h-5C9.224,5,9,4.776,9,4.5S9.224,4,9.5,4h5C14.776,4,15,4.224,15,4.5S14.776,5,14.5,5z"/>
		</g>
		<g>
			<path d="M16.5,8h-9C7.224,8,7,7.776,7,7.5S7.224,7,7.5,7h9C16.776,7,17,7.224,17,7.5S16.776,8,16.5,8z"/>
		</g>
		<g>
			<path d="M15.5,11h-8C7.224,11,7,10.776,7,10.5S7.224,10,7.5,10h8c0.276,0,0.5,0.224,0.5,0.5S15.776,11,15.5,11z"/>
		</g>
		<g>
			<path d="M13.5,14h-6C7.224,14,7,13.776,7,13.5S7.224,13,7.5,13h6c0.276,0,0.5,0.224,0.5,0.5S13.776,14,13.5,14z"/>
		</g>
	</g>
</g>
<g id="Glass_Decoration">
</g>
<g id="Cutlery_Decoration">
</g>
<g id="Celebration_Glasses">
</g>
<g id="Wedding_Photo">
</g>
<g id="Wedding_Present_1">
</g>
<g id="Wedding_Present_2">
</g>
<g id="Wedding_Bouquet_2">
</g>
<g id="Hands_with_rings">
</g>
<g id="Wedding_Car">
</g>
<g id="Wedding_music">
</g>
<g id="wedding_party">
</g>
<g id="Confetti_1">
</g>
<g id="Confetti_2">
</g>
</svg>
