<?xml version="1.0" encoding="iso-8859-1"?>
<!-- Generator: Adobe Illustrator 19.2.1, SVG Export Plug-In . SVG Version: 6.00 Build 0)  -->
<svg version="1.1" xmlns="http://www.w3.org/2000/svg" xmlns:xlink="http://www.w3.org/1999/xlink" x="0px" y="0px"
	 viewBox="0 0 24 24" style="enable-background:new 0 0 24 24;" xml:space="preserve">
<g id="Engagement_1">
</g>
<g id="Engagement_2">
</g>
<g id="Wedding_Ring">
</g>
<g id="Church">
</g>
<g id="Church_Bells">
</g>
<g id="Wedding_Altar_1">
</g>
<g id="Wedding_Altar_2">
</g>
<g id="Bow-Tie">
</g>
<g id="Wedding_Tiara">
</g>
<g id="Wedding_Bouquet">
	<g>
		<g>
			<g>
				<path d="M10.133,14.089c-0.153,0-0.309-0.03-0.459-0.091c-0.447-0.182-0.734-0.595-0.748-1.078L8.902,12.1
					c-0.002-0.088-0.061-0.164-0.146-0.188l-0.789-0.225c-0.465-0.133-0.794-0.513-0.86-0.992c-0.065-0.479,0.149-0.934,0.562-1.187
					l0.696-0.43c0.076-0.047,0.112-0.135,0.091-0.221L8.257,8.062C8.14,7.593,8.304,7.117,8.686,6.821
					c0.383-0.297,0.884-0.337,1.309-0.108l0.721,0.389c0.076,0.041,0.173,0.03,0.236-0.032l0.59-0.57
					c0.347-0.336,0.843-0.432,1.288-0.25c0.448,0.182,0.735,0.596,0.749,1.079l0.023,0.82c0.002,0.088,0.061,0.164,0.146,0.188
					l0.789,0.226C15,8.694,15.33,9.074,15.396,9.553c0.065,0.479-0.149,0.934-0.562,1.188l-0.696,0.43
					c-0.076,0.047-0.112,0.136-0.091,0.222l0.199,0.795c0.117,0.469-0.047,0.944-0.429,1.241s-0.885,0.338-1.308,0.109l-0.722-0.39
					c-0.077-0.042-0.172-0.029-0.236,0.032l-0.59,0.57C10.732,13.972,10.437,14.089,10.133,14.089z M9.421,7.566
					c-0.054,0-0.097,0.025-0.122,0.044c-0.038,0.03-0.1,0.098-0.071,0.208l0.199,0.795C9.555,9.125,9.339,9.654,8.89,9.93
					l-0.696,0.429c-0.099,0.061-0.102,0.151-0.095,0.2c0.007,0.048,0.034,0.135,0.145,0.167l0.788,0.225
					c0.506,0.144,0.855,0.595,0.871,1.122l0.023,0.82c0.003,0.114,0.08,0.162,0.125,0.181c0.046,0.019,0.136,0.038,0.217-0.042
					l0.59-0.57c0.379-0.367,0.944-0.444,1.406-0.194l0.722,0.39l0,0c0.101,0.054,0.181,0.011,0.22-0.019
					c0.038-0.03,0.1-0.097,0.071-0.208l-0.199-0.795c-0.127-0.511,0.088-1.039,0.536-1.315l0.697-0.43
					c0.099-0.061,0.102-0.151,0.095-0.2c-0.007-0.048-0.034-0.134-0.144-0.166l-0.789-0.226c-0.506-0.144-0.855-0.594-0.871-1.121
					l-0.023-0.819c-0.003-0.114-0.08-0.163-0.126-0.181c-0.045-0.019-0.134-0.038-0.216,0.042l-0.59,0.57
					c-0.379,0.366-0.944,0.443-1.406,0.193L9.519,7.592C9.483,7.573,9.45,7.566,9.421,7.566z"/>
			</g>
			<g>
				<path d="M16.989,11.964c-0.313,0-0.615-0.124-0.848-0.358l-0.577-0.583c-0.062-0.063-0.158-0.077-0.234-0.038l-0.729,0.374
					c-0.368,0.188-0.785,0.176-1.147-0.034c-0.128-0.074-0.216-0.2-0.241-0.345s0.014-0.293,0.107-0.407
					c0.084-0.101,0.183-0.187,0.294-0.255l0.697-0.43c0.098-0.061,0.102-0.151,0.095-0.2c-0.007-0.048-0.034-0.135-0.145-0.166
					l-0.788-0.226c-0.034-0.01-0.141-0.055-0.172-0.072c-0.078-0.042-0.177-0.121-0.224-0.197l-0.152-0.13
					C12.856,8.854,12.8,8.793,12.76,8.722c-0.102-0.182-0.153-0.361-0.158-0.547l-0.023-0.818c-0.002-0.06-0.025-0.108-0.071-0.146
					c-0.146-0.119-0.212-0.31-0.172-0.493c0.04-0.184,0.18-0.33,0.361-0.377l0.777-0.204c0.085-0.022,0.146-0.098,0.15-0.186
					l0.041-0.818c0.023-0.483,0.319-0.89,0.771-1.063c0.448-0.174,0.942-0.067,1.283,0.276l0.577,0.583
					c0.062,0.063,0.155,0.078,0.234,0.038l0.729-0.374c0.43-0.22,0.93-0.17,1.307,0.137c0.375,0.305,0.529,0.783,0.401,1.249
					l-0.216,0.791c-0.023,0.084,0.012,0.174,0.086,0.223l0.688,0.445c0.004,0.003,0.008,0.005,0.013,0.008
					c0.331,0.229,0.501,0.633,0.453,1.082c-0.051,0.483-0.337,0.889-0.747,1.06l-0.858,0.231c-0.085,0.022-0.146,0.097-0.15,0.186
					l-0.041,0.818c-0.023,0.483-0.319,0.89-0.771,1.063C17.282,11.938,17.135,11.964,16.989,11.964z M15.423,9.963
					c0.313,0,0.621,0.123,0.853,0.357l0.577,0.582c0.08,0.081,0.171,0.066,0.215,0.047c0.046-0.018,0.124-0.064,0.13-0.179
					l0.041-0.819c0.026-0.526,0.386-0.969,0.895-1.102l0.793-0.209c0.003-0.006,0.061-0.108,0.072-0.219
					c0.009-0.086-0.014-0.141-0.025-0.153l-0.678-0.438c-0.441-0.285-0.646-0.818-0.508-1.325l0.216-0.792
					c0.03-0.11-0.029-0.179-0.067-0.209c-0.039-0.031-0.117-0.077-0.219-0.023l-0.729,0.374c-0.471,0.24-1.033,0.151-1.402-0.224
					L15.008,5.05c-0.08-0.08-0.17-0.064-0.215-0.047c-0.046,0.018-0.124,0.064-0.13,0.179L14.622,6
					c-0.026,0.525-0.386,0.968-0.894,1.103L13.56,7.147c0.01,0.059,0.017,0.119,0.019,0.18l0.023,0.818
					c0.078,0.055,0.149,0.122,0.214,0.2l0.721,0.217C15,8.694,15.33,9.074,15.396,9.553c0.02,0.14,0.015,0.278-0.012,0.41
					C15.396,9.963,15.41,9.963,15.423,9.963z"/>
			</g>
			<g>
				<path d="M7.619,10.875c-0.132,0-0.26-0.052-0.355-0.148l-0.496-0.501c-0.062-0.063-0.154-0.081-0.234-0.038l-0.731,0.374
					c-0.427,0.222-0.927,0.169-1.304-0.135c-0.376-0.304-0.53-0.783-0.403-1.25l0.216-0.792C4.334,8.299,4.3,8.21,4.226,8.162
					L3.536,7.717C3.13,7.455,2.926,6.995,3.002,6.518s0.414-0.85,0.882-0.972l0.793-0.208c0.085-0.022,0.146-0.098,0.15-0.186
					l0.04-0.818c0.023-0.483,0.319-0.89,0.771-1.063C6.09,3.097,6.581,3.204,6.922,3.547l0.577,0.583
					C7.56,4.192,7.655,4.207,7.733,4.167l0.729-0.374c0.43-0.22,0.93-0.17,1.307,0.137c0.375,0.305,0.528,0.783,0.401,1.249
					L9.955,5.97c-0.023,0.084,0.012,0.174,0.086,0.223l0.688,0.445c0.331,0.214,0.529,0.564,0.544,0.961
					c0.005,0.141-0.049,0.276-0.149,0.375c-0.1,0.099-0.236,0.151-0.377,0.143c-0.193-0.01-0.359-0.055-0.508-0.135L9.519,7.592
					C9.418,7.538,9.338,7.58,9.299,7.61c-0.038,0.03-0.1,0.097-0.071,0.208l0.199,0.795C9.555,9.125,9.339,9.654,8.89,9.93
					l-0.696,0.429c-0.029,0.018-0.07,0.051-0.086,0.124c-0.04,0.178-0.174,0.321-0.35,0.372C7.712,10.868,7.665,10.875,7.619,10.875
					z M6.072,4.189c-0.031,0-0.058,0.007-0.077,0.015c-0.046,0.018-0.124,0.064-0.13,0.179l-0.04,0.818
					C5.799,5.727,5.439,6.17,4.932,6.304L4.138,6.513C4.026,6.542,3.997,6.627,3.989,6.676c-0.008,0.048-0.006,0.139,0.09,0.201
					l0.689,0.445c0.442,0.286,0.646,0.819,0.507,1.327L5.06,9.439c-0.03,0.11,0.029,0.179,0.068,0.21
					C5.166,9.68,5.244,9.723,5.346,9.672l0.731-0.374c0.466-0.241,1.029-0.15,1.4,0.223l0.07,0.071
					c0.038-0.03,0.078-0.058,0.12-0.084l0,0l0.697-0.43c0.076-0.047,0.112-0.135,0.091-0.221L8.257,8.062
					C8.14,7.593,8.304,7.117,8.686,6.82c0.128-0.099,0.269-0.169,0.415-0.211C8.95,6.342,8.905,6.02,8.99,5.707l0.216-0.792
					c0.03-0.11-0.029-0.178-0.067-0.209C9.1,4.675,9.022,4.629,8.92,4.683L8.19,5.057C7.72,5.297,7.157,5.208,6.788,4.833
					L6.211,4.251C6.164,4.204,6.114,4.189,6.072,4.189z"/>
			</g>
			<g>
				<path d="M10.458,7.557c-0.049,0-0.1-0.007-0.149-0.023c-0.264-0.082-0.41-0.363-0.328-0.626c1.23-3.936-0.754-5.967-0.839-6.051
					C8.946,0.663,8.943,0.347,9.137,0.15C9.33-0.047,9.646-0.049,9.841,0.142c0.104,0.101,2.517,2.517,1.095,7.065
					C10.868,7.42,10.671,7.557,10.458,7.557z"/>
			</g>
			<g>
				<path d="M11.492,7.5c-0.035,0-0.072-0.004-0.108-0.012c-0.27-0.06-0.439-0.327-0.38-0.597c0.943-4.227,0.988-6.377,0.988-6.399
					C11.998,0.216,12.225-0.043,12.5,0c0.275,0.004,0.496,0.231,0.492,0.507c-0.001,0.09-0.043,2.257-1.012,6.602
					C11.929,7.342,11.722,7.5,11.492,7.5z"/>
			</g>
			<g>
				<path d="M12.493,7c-0.025,0-0.052-0.002-0.078-0.006c-0.272-0.042-0.459-0.298-0.417-0.571c0.581-3.747,3.041-6.18,3.146-6.281
					c0.197-0.192,0.515-0.189,0.706,0.009c0.192,0.197,0.189,0.514-0.008,0.707c-0.023,0.023-2.327,2.313-2.855,5.719
					C12.948,6.824,12.735,7,12.493,7z"/>
			</g>
			<g>
				<circle cx="10.992" cy="10" r="0.5"/>
				<path d="M10.992,11c-0.552,0-1-0.449-1-1s0.448-1,1-1s1,0.449,1,1S11.544,11,10.992,11z M10.992,9.999
					C10.992,10,10.992,10,10.992,9.999l0.5,0.001L10.992,9.999z"/>
			</g>
			<g>
				<circle cx="6.492" cy="6.5" r="0.5"/>
				<path d="M6.492,7.5c-0.552,0-1-0.449-1-1s0.448-1,1-1s1,0.449,1,1S7.044,7.5,6.492,7.5z M6.492,6.499
					C6.492,6.5,6.492,6.5,6.492,6.499l0.5,0.001L6.492,6.499z"/>
			</g>
			<g>
				<circle cx="16.492" cy="7.5" r="0.5"/>
				<path d="M16.492,8.5c-0.552,0-1-0.449-1-1s0.448-1,1-1s1,0.449,1,1S17.044,8.5,16.492,8.5z M16.492,7.5h-0.5H16.492
					C16.492,7.5,16.492,7.5,16.492,7.5z"/>
			</g>
		</g>
		<g>
			<path d="M12.492,24h-3c-0.276,0-0.5-0.224-0.5-0.5v-4.499c0-2.145-0.738-4.248-2.078-5.922l-1.813-2.266
				c-0.172-0.216-0.138-0.53,0.078-0.703c0.217-0.171,0.531-0.136,0.703,0.078l1.813,2.266c1.481,1.851,2.297,4.176,2.297,6.547V23
				h2v-3.018c0-2.991,1.282-5.846,3.518-7.833l1.15-1.022c0.205-0.185,0.522-0.166,0.706,0.042c0.184,0.206,0.164,0.522-0.042,0.706
				l-1.15,1.022c-2.021,1.797-3.182,4.38-3.182,7.086V23.5C12.992,23.776,12.769,24,12.492,24z"/>
		</g>
	</g>
</g>
<g id="Wedding_Decoration_1">
</g>
<g id="Wedding_Decoration_2">
</g>
<g id="Wedding_Way_Sign">
</g>
<g id="Wedding_Date">
</g>
<g id="Wedding_Invitation">
</g>
<g id="Wedding_Invitation_2">
</g>
<g id="Bride">
</g>
<g id="Groom">
</g>
<g id="Mariage_Couple">
</g>
<g id="Wedding_Planner_Book">
</g>
<g id="Wedding_Cake_1">
</g>
<g id="Wedding_Cake_2">
</g>
<g id="Wedding_Cake_3">
</g>
<g id="Cake_Slice">
</g>
<g id="Marriage_Settlement">
</g>
<g id="Glass_Decoration">
</g>
<g id="Cutlery_Decoration">
</g>
<g id="Celebration_Glasses">
</g>
<g id="Wedding_Photo">
</g>
<g id="Wedding_Present_1">
</g>
<g id="Wedding_Present_2">
</g>
<g id="Wedding_Bouquet_2">
</g>
<g id="Hands_with_rings">
</g>
<g id="Wedding_Car">
</g>
<g id="Wedding_music">
</g>
<g id="wedding_party">
</g>
<g id="Confetti_1">
</g>
<g id="Confetti_2">
</g>
</svg>
