<?xml version="1.0" encoding="iso-8859-1"?>
<!-- Generator: Adobe Illustrator 19.2.1, SVG Export Plug-In . SVG Version: 6.00 Build 0)  -->
<svg version="1.1" xmlns="http://www.w3.org/2000/svg" xmlns:xlink="http://www.w3.org/1999/xlink" x="0px" y="0px"
	 viewBox="0 0 24 24" style="enable-background:new 0 0 24 24;" xml:space="preserve">
<g id="Engagement_1">
</g>
<g id="Engagement_2">
</g>
<g id="Wedding_Ring">
</g>
<g id="Church">
</g>
<g id="Church_Bells">
</g>
<g id="Wedding_Altar_1">
</g>
<g id="Wedding_Altar_2">
</g>
<g id="Bow-Tie">
</g>
<g id="Wedding_Tiara">
</g>
<g id="Wedding_Bouquet">
</g>
<g id="Wedding_Decoration_1">
</g>
<g id="Wedding_Decoration_2">
</g>
<g id="Wedding_Way_Sign">
</g>
<g id="Wedding_Date">
</g>
<g id="Wedding_Invitation">
</g>
<g id="Wedding_Invitation_2">
	<g>
		<g>
			<path d="M23.5,19h-15C8.224,19,8,18.776,8,18.5v-8C8,10.224,8.224,10,8.5,10h15c0.276,0,0.5,0.224,0.5,0.5v8
				C24,18.776,23.776,19,23.5,19z M9,18h14v-7H9V18z"/>
		</g>
		<g>
			<path d="M8.5,19c-0.106,0-0.212-0.034-0.3-0.1l-8-6C0.074,12.806,0,12.657,0,12.5v-8c0-0.189,0.107-0.362,0.276-0.447
				C0.445,3.969,0.649,3.986,0.8,4.1l8,6C8.926,10.194,9,10.343,9,10.5v8c0,0.189-0.107,0.362-0.276,0.447
				C8.653,18.982,8.576,19,8.5,19z M1,12.25l7,5.25v-6.75L1,5.5V12.25z"/>
		</g>
		<g>
			<path d="M20.5,17h-2c-0.276,0-0.5-0.224-0.5-0.5V15c0-0.189,0.107-0.362,0.276-0.447l1-0.5c0.141-0.07,0.307-0.07,0.447,0l1,0.5
				C20.893,14.638,21,14.811,21,15v1.5C21,16.776,20.776,17,20.5,17z M19,16h1v-0.691l-0.5-0.25l-0.5,0.25V16z"/>
		</g>
		<g>
			<path d="M18.5,17h-1c-0.276,0-0.5-0.224-0.5-0.5V16c0-0.189,0.107-0.362,0.276-0.447l1-0.5c0.154-0.078,0.34-0.069,0.486,0.022
				C18.91,15.166,19,15.327,19,15.5v1C19,16.776,18.776,17,18.5,17z"/>
		</g>
		<g>
			<path d="M21.5,17h-1c-0.276,0-0.5-0.224-0.5-0.5v-1c0-0.173,0.09-0.334,0.237-0.425c0.146-0.091,0.331-0.099,0.486-0.022l1,0.5
				C21.893,15.638,22,15.811,22,16v0.5C22,16.776,21.776,17,21.5,17z"/>
		</g>
		<g>
			<path d="M19.5,15c-0.276,0-0.5-0.224-0.5-0.5v-2c0-0.276,0.224-0.5,0.5-0.5s0.5,0.224,0.5,0.5v2C20,14.776,19.776,15,19.5,15z"/>
		</g>
		<g>
			<path d="M20,13.5h-1c-0.276,0-0.5-0.224-0.5-0.5s0.224-0.5,0.5-0.5h1c0.276,0,0.5,0.224,0.5,0.5S20.276,13.5,20,13.5z"/>
		</g>
		<g>
			<path d="M13.5,14h-3c-0.276,0-0.5-0.224-0.5-0.5s0.224-0.5,0.5-0.5h3c0.276,0,0.5,0.224,0.5,0.5S13.776,14,13.5,14z"/>
		</g>
		<g>
			<path d="M15.5,16h-5c-0.276,0-0.5-0.224-0.5-0.5s0.224-0.5,0.5-0.5h5c0.276,0,0.5,0.224,0.5,0.5S15.776,16,15.5,16z"/>
		</g>
	</g>
</g>
<g id="Bride">
</g>
<g id="Groom">
</g>
<g id="Mariage_Couple">
</g>
<g id="Wedding_Planner_Book">
</g>
<g id="Wedding_Cake_1">
</g>
<g id="Wedding_Cake_2">
</g>
<g id="Wedding_Cake_3">
</g>
<g id="Cake_Slice">
</g>
<g id="Marriage_Settlement">
</g>
<g id="Glass_Decoration">
</g>
<g id="Cutlery_Decoration">
</g>
<g id="Celebration_Glasses">
</g>
<g id="Wedding_Photo">
</g>
<g id="Wedding_Present_1">
</g>
<g id="Wedding_Present_2">
</g>
<g id="Wedding_Bouquet_2">
</g>
<g id="Hands_with_rings">
</g>
<g id="Wedding_Car">
</g>
<g id="Wedding_music">
</g>
<g id="wedding_party">
</g>
<g id="Confetti_1">
</g>
<g id="Confetti_2">
</g>
</svg>
