<?xml version="1.0" encoding="iso-8859-1"?>
<!-- Generator: Adobe Illustrator 19.2.1, SVG Export Plug-In . SVG Version: 6.00 Build 0)  -->
<svg version="1.1" xmlns="http://www.w3.org/2000/svg" xmlns:xlink="http://www.w3.org/1999/xlink" x="0px" y="0px"
	 viewBox="0 0 24 24" style="enable-background:new 0 0 24 24;" xml:space="preserve">
<g id="Engagement_1">
</g>
<g id="Engagement_2">
</g>
<g id="Wedding_Ring">
</g>
<g id="Church">
</g>
<g id="Church_Bells">
</g>
<g id="Wedding_Altar_1">
</g>
<g id="Wedding_Altar_2">
</g>
<g id="Bow-Tie">
</g>
<g id="Wedding_Tiara">
</g>
<g id="Wedding_Bouquet">
</g>
<g id="Wedding_Decoration_1">
</g>
<g id="Wedding_Decoration_2">
</g>
<g id="Wedding_Way_Sign">
</g>
<g id="Wedding_Date">
</g>
<g id="Wedding_Invitation">
</g>
<g id="Wedding_Invitation_2">
</g>
<g id="Bride">
</g>
<g id="Groom">
</g>
<g id="Mariage_Couple">
</g>
<g id="Wedding_Planner_Book">
</g>
<g id="Wedding_Cake_1">
</g>
<g id="Wedding_Cake_2">
</g>
<g id="Wedding_Cake_3">
</g>
<g id="Cake_Slice">
</g>
<g id="Marriage_Settlement">
</g>
<g id="Glass_Decoration">
</g>
<g id="Cutlery_Decoration">
</g>
<g id="Celebration_Glasses">
</g>
<g id="Wedding_Photo">
</g>
<g id="Wedding_Present_1">
</g>
<g id="Wedding_Present_2">
</g>
<g id="Wedding_Bouquet_2">
	<g>
		<g>
			<path d="M11.5,12.5c-0.653,0-1.209-0.419-1.416-1.003C9.241,11.56,8.5,10.855,8.5,10c0-0.265,0.074-0.522,0.21-0.75
				C8.574,9.022,8.5,8.765,8.5,8.5c0-0.855,0.743-1.555,1.584-1.497C10.291,6.419,10.847,6,11.5,6s1.209,0.419,1.416,1.003
				C13.754,6.943,14.5,7.645,14.5,8.5c0,0.265-0.074,0.522-0.21,0.75C14.426,9.478,14.5,9.735,14.5,10
				c0,0.855-0.743,1.563-1.584,1.497C12.709,12.081,12.153,12.5,11.5,12.5z M10.536,10.322c0.096,0,0.192,0.027,0.275,0.083
				c0.167,0.109,0.252,0.309,0.217,0.506c-0.003,0.015-0.021,0.093-0.025,0.106C11,11.275,11.224,11.5,11.5,11.5S12,11.275,12,11
				c-0.036-0.197,0.036-0.44,0.203-0.551c0.167-0.109,0.37-0.154,0.537-0.044C12.869,10.49,12.95,10.5,13,10.5
				c0.276,0,0.5-0.225,0.5-0.5c0-0.187-0.114-0.313-0.182-0.371c-0.111-0.095-0.174-0.233-0.174-0.379s0.063-0.284,0.174-0.379
				C13.386,8.813,13.5,8.687,13.5,8.5C13.5,8.225,13.276,8,13,8c-0.05,0-0.131,0.01-0.26,0.095c-0.167,0.111-0.383,0.111-0.551,0
				c-0.167-0.109-0.252-0.309-0.217-0.506c0.003-0.015,0.021-0.093,0.025-0.106C12,7.225,11.776,7,11.5,7S11,7.225,11,7.5
				c0.036,0.197-0.036,0.44-0.203,0.551c-0.167,0.109-0.37,0.154-0.537,0.044C10.131,8.01,10.05,8,10,8C9.724,8,9.5,8.225,9.5,8.5
				c0,0.187,0.114,0.313,0.182,0.371C9.793,8.966,9.856,9.104,9.856,9.25S9.793,9.534,9.682,9.629C9.614,9.688,9.5,9.813,9.5,10
				c0,0.275,0.224,0.5,0.5,0.5c0.05,0,0.131-0.01,0.26-0.095C10.344,10.35,10.439,10.322,10.536,10.322z"/>
		</g>
		<g>
			<path d="M16,9.5c-0.653,0-1.209-0.419-1.416-1.003C13.739,8.551,13,7.855,13,7c0-0.265,0.074-0.522,0.21-0.75
				C13.074,6.022,13,5.765,13,5.5c0-0.855,0.742-1.549,1.584-1.497C14.791,3.419,15.347,3,16,3s1.209,0.419,1.416,1.003
				C18.252,3.949,19,4.645,19,5.5c0,0.265-0.074,0.522-0.21,0.75C18.926,6.478,19,6.735,19,7c0,0.855-0.745,1.554-1.584,1.497
				C17.209,9.081,16.653,9.5,16,9.5z M15.036,7.322c0.096,0,0.192,0.027,0.275,0.083c0.167,0.109,0.252,0.309,0.217,0.506
				c-0.003,0.015-0.021,0.093-0.025,0.106C15.5,8.275,15.724,8.5,16,8.5s0.5-0.225,0.5-0.5c-0.036-0.197,0.036-0.44,0.203-0.551
				c0.167-0.109,0.371-0.154,0.537-0.044C17.369,7.49,17.45,7.5,17.5,7.5C17.776,7.5,18,7.275,18,7c0-0.187-0.114-0.313-0.182-0.371
				c-0.111-0.095-0.174-0.233-0.174-0.379s0.063-0.284,0.174-0.379C17.886,5.813,18,5.687,18,5.5C18,5.225,17.776,5,17.5,5
				c-0.05,0-0.131,0.01-0.26,0.095c-0.167,0.111-0.383,0.111-0.551,0c-0.167-0.109-0.252-0.309-0.217-0.506
				c0.003-0.015,0.021-0.093,0.025-0.106C16.5,4.225,16.276,4,16,4s-0.5,0.225-0.5,0.5c0.036,0.197-0.036,0.44-0.203,0.551
				c-0.167,0.11-0.37,0.154-0.537,0.044C14.631,5.01,14.55,5,14.5,5C14.224,5,14,5.225,14,5.5c0,0.187,0.114,0.313,0.182,0.371
				c0.111,0.095,0.174,0.233,0.174,0.379s-0.063,0.284-0.174,0.379C14.114,6.688,14,6.813,14,7c0,0.275,0.224,0.5,0.5,0.5
				c0.05,0,0.131-0.01,0.26-0.095C14.844,7.35,14.939,7.322,15.036,7.322z"/>
		</g>
		<g>
			<path d="M7,9.5c-0.653,0-1.209-0.419-1.416-1.003C4.742,8.551,4,7.855,4,7c0-0.265,0.074-0.522,0.21-0.75
				C4.074,6.022,4,5.765,4,5.5c0-0.855,0.745-1.549,1.584-1.497C5.791,3.419,6.347,3,7,3s1.209,0.419,1.416,1.003
				C9.255,3.949,10,4.645,10,5.5c0,0.265-0.074,0.522-0.21,0.75C9.926,6.478,10,6.735,10,7c0,0.855-0.742,1.554-1.584,1.497
				C8.209,9.081,7.653,9.5,7,9.5z M6.036,7.322c0.096,0,0.192,0.027,0.275,0.083c0.167,0.109,0.252,0.309,0.217,0.506
				C6.525,7.926,6.506,8.004,6.502,8.018C6.5,8.275,6.724,8.5,7,8.5S7.5,8.275,7.5,8C7.464,7.803,7.536,7.56,7.703,7.449
				C7.871,7.34,8.073,7.295,8.24,7.405C8.369,7.49,8.45,7.5,8.5,7.5C8.776,7.5,9,7.275,9,7c0-0.187-0.114-0.313-0.182-0.371
				C8.707,6.534,8.644,6.396,8.644,6.25s0.063-0.284,0.174-0.379C8.886,5.813,9,5.687,9,5.5C9,5.225,8.776,5,8.5,5
				C8.45,5,8.369,5.01,8.24,5.095c-0.167,0.111-0.383,0.111-0.551,0C7.522,4.985,7.437,4.786,7.472,4.589
				c0.003-0.015,0.021-0.093,0.025-0.106C7.5,4.225,7.276,4,7,4S6.5,4.225,6.5,4.5c0.036,0.197-0.036,0.44-0.203,0.551
				c-0.168,0.11-0.37,0.154-0.537,0.044C5.631,5.01,5.55,5,5.5,5C5.224,5,5,5.225,5,5.5c0,0.187,0.114,0.313,0.182,0.371
				C5.293,5.966,5.356,6.104,5.356,6.25S5.293,6.534,5.182,6.629C5.114,6.688,5,6.813,5,7c0,0.275,0.224,0.5,0.5,0.5
				c0.05,0,0.131-0.01,0.26-0.095C5.844,7.35,5.939,7.322,6.036,7.322z"/>
		</g>
		<g>
			<path d="M11.5,7C11.224,7,11,6.776,11,6.5v-6C11,0.224,11.224,0,11.5,0S12,0.224,12,0.5v6C12,6.776,11.776,7,11.5,7z"/>
		</g>
		<g>
			<path d="M12.5,7.5c-0.017,0-0.033-0.001-0.05-0.003c-0.275-0.027-0.475-0.272-0.448-0.547c0.053-0.53,0.563-5.224,2.144-6.804
				c0.195-0.195,0.512-0.195,0.707,0s0.195,0.512,0,0.707c-1.125,1.126-1.721,4.854-1.856,6.196C12.972,7.308,12.754,7.5,12.5,7.5z"
				/>
		</g>
		<g>
			<path d="M10.5,7.5c-0.254,0-0.471-0.192-0.497-0.45c-0.135-1.342-0.73-5.07-1.856-6.196c-0.195-0.195-0.195-0.512,0-0.707
				s0.512-0.195,0.707,0c1.581,1.58,2.091,6.273,2.144,6.804c0.027,0.274-0.173,0.52-0.448,0.547C10.533,7.499,10.516,7.5,10.5,7.5z
				"/>
		</g>
		<g>
			<circle cx="7.5" cy="6.5" r="0.5"/>
		</g>
		<g>
			<circle cx="11.5" cy="9.5" r="0.5"/>
		</g>
		<g>
			<circle cx="16.5" cy="6.5" r="0.5"/>
		</g>
		<g>
			<path d="M10.5,24c-0.255,0-0.473-0.194-0.497-0.453C9.991,23.43,8.878,11.767,7.532,8.176C7.435,7.917,7.566,7.629,7.824,7.532
				c0.258-0.1,0.547,0.034,0.644,0.292c1.393,3.715,2.484,15.145,2.529,15.629c0.026,0.274-0.176,0.519-0.451,0.545
				C10.531,23.999,10.515,24,10.5,24z"/>
		</g>
		<g>
			<path d="M12.5,24c-0.016,0-0.031-0.001-0.047-0.002c-0.275-0.026-0.477-0.271-0.451-0.545c0.045-0.484,1.136-11.914,2.529-15.629
				c0.097-0.259,0.386-0.392,0.644-0.292c0.258,0.097,0.389,0.385,0.292,0.644c-1.347,3.591-2.459,15.254-2.471,15.371
				C12.973,23.806,12.755,24,12.5,24z"/>
		</g>
		<g>
			<path d="M11.5,24c-0.276,0-0.5-0.224-0.5-0.5V12c0-0.276,0.224-0.5,0.5-0.5S12,11.724,12,12v11.5C12,23.776,11.776,24,11.5,24z"
				/>
		</g>
	</g>
</g>
<g id="Hands_with_rings">
</g>
<g id="Wedding_Car">
</g>
<g id="Wedding_music">
</g>
<g id="wedding_party">
</g>
<g id="Confetti_1">
</g>
<g id="Confetti_2">
</g>
</svg>
