<?xml version="1.0" encoding="iso-8859-1"?>
<!-- Generator: Adobe Illustrator 19.2.1, SVG Export Plug-In . SVG Version: 6.00 Build 0)  -->
<svg version="1.1" xmlns="http://www.w3.org/2000/svg" xmlns:xlink="http://www.w3.org/1999/xlink" x="0px" y="0px"
	 viewBox="0 0 24 24" style="enable-background:new 0 0 24 24;" xml:space="preserve">
<g id="Engagement_1">
</g>
<g id="Engagement_2">
</g>
<g id="Wedding_Ring">
</g>
<g id="Church">
</g>
<g id="Church_Bells">
</g>
<g id="Wedding_Altar_1">
</g>
<g id="Wedding_Altar_2">
</g>
<g id="Bow-Tie">
</g>
<g id="Wedding_Tiara">
</g>
<g id="Wedding_Bouquet">
</g>
<g id="Wedding_Decoration_1">
</g>
<g id="Wedding_Decoration_2">
</g>
<g id="Wedding_Way_Sign">
	<g>
		<g>
			<path d="M7.508,15c-0.141,0-0.275-0.06-0.37-0.164c-0.104-0.114-2.559-2.814-3.361-3.792C3.269,10.425,3,9.71,3,8.976
				C3,7.335,4.24,6,5.765,6C6.408,6,7.02,6.237,7.508,6.665C7.801,6.407,8.141,6.218,8.51,6.108c0.264-0.08,0.543,0.072,0.622,0.336
				c0.079,0.265-0.071,0.543-0.336,0.622C8.449,7.17,8.141,7.388,7.906,7.697c-0.189,0.248-0.606,0.248-0.796,0
				C6.773,7.254,6.283,7,5.765,7C4.792,7,4,7.886,4,8.976c0,0.631,0.299,1.128,0.55,1.434c0.603,0.735,2.224,2.535,2.958,3.346
				c0.734-0.811,2.355-2.61,2.958-3.345c0.251-0.306,0.55-0.803,0.55-1.434c0-0.276,0.224-0.5,0.5-0.5s0.5,0.224,0.5,0.5
				c0,0.734-0.269,1.449-0.777,2.068c-0.802,0.978-3.256,3.678-3.361,3.792C7.783,14.94,7.648,15,7.508,15z"/>
		</g>
		<g>
			<path d="M13.508,15c-0.141,0-0.276-0.06-0.371-0.164c0,0-0.991-1.094-1.929-2.153c-0.183-0.207-0.164-0.522,0.042-0.706
				c0.207-0.183,0.522-0.165,0.706,0.042c0.58,0.654,1.18,1.322,1.552,1.734c0.732-0.812,2.344-2.609,2.944-3.343
				C16.702,10.104,17,9.607,17,8.976C17,7.886,16.212,7,15.244,7c-0.515,0-1.002,0.254-1.337,0.696c-0.188,0.25-0.608,0.25-0.797,0
				C12.774,7.254,12.287,7,11.772,7c-0.968,0-1.756,0.886-1.756,1.976c0,0.276-0.224,0.5-0.5,0.5s-0.5-0.224-0.5-0.5
				C9.016,7.335,10.252,6,11.772,6c0.64,0,1.25,0.237,1.736,0.664C13.994,6.237,14.604,6,15.244,6C16.764,6,18,7.335,18,8.976
				c0,0.733-0.268,1.448-0.774,2.067c-0.799,0.978-3.244,3.678-3.348,3.792C13.784,14.94,13.649,15,13.508,15z"/>
		</g>
		<g>
			<path d="M17.5,19h-17C0.224,19,0,18.776,0,18.5v-16C0,2.224,0.224,2,0.5,2h17c0.157,0,0.306,0.074,0.4,0.2l6,8
				c0.133,0.178,0.133,0.422,0,0.6l-6,8C17.806,18.926,17.657,19,17.5,19z M1,18h16.25l5.625-7.5L17.25,3H1V18z"/>
		</g>
		<g>
			<path d="M12.5,3h-5C7.224,3,7,2.776,7,2.5v-2C7,0.224,7.224,0,7.5,0h5C12.776,0,13,0.224,13,0.5v2C13,2.776,12.776,3,12.5,3z
				 M8,2h4V1H8V2z"/>
		</g>
		<g>
			<path d="M12.5,24h-5C7.224,24,7,23.776,7,23.5v-5C7,18.224,7.224,18,7.5,18h5c0.276,0,0.5,0.224,0.5,0.5v5
				C13,23.776,12.776,24,12.5,24z M8,23h4v-4H8V23z"/>
		</g>
	</g>
</g>
<g id="Wedding_Date">
</g>
<g id="Wedding_Invitation">
</g>
<g id="Wedding_Invitation_2">
</g>
<g id="Bride">
</g>
<g id="Groom">
</g>
<g id="Mariage_Couple">
</g>
<g id="Wedding_Planner_Book">
</g>
<g id="Wedding_Cake_1">
</g>
<g id="Wedding_Cake_2">
</g>
<g id="Wedding_Cake_3">
</g>
<g id="Cake_Slice">
</g>
<g id="Marriage_Settlement">
</g>
<g id="Glass_Decoration">
</g>
<g id="Cutlery_Decoration">
</g>
<g id="Celebration_Glasses">
</g>
<g id="Wedding_Photo">
</g>
<g id="Wedding_Present_1">
</g>
<g id="Wedding_Present_2">
</g>
<g id="Wedding_Bouquet_2">
</g>
<g id="Hands_with_rings">
</g>
<g id="Wedding_Car">
</g>
<g id="Wedding_music">
</g>
<g id="wedding_party">
</g>
<g id="Confetti_1">
</g>
<g id="Confetti_2">
</g>
</svg>
