<?xml version="1.0" encoding="iso-8859-1"?>
<!-- Generator: Adobe Illustrator 19.2.1, SVG Export Plug-In . SVG Version: 6.00 Build 0)  -->
<svg version="1.1" xmlns="http://www.w3.org/2000/svg" xmlns:xlink="http://www.w3.org/1999/xlink" x="0px" y="0px"
	 viewBox="0 0 24 24" style="enable-background:new 0 0 24 24;" xml:space="preserve">
<g id="Engagement_1">
</g>
<g id="Engagement_2">
</g>
<g id="Wedding_Ring">
</g>
<g id="Church">
</g>
<g id="Church_Bells">
</g>
<g id="Wedding_Altar_1">
</g>
<g id="Wedding_Altar_2">
	<g>
		<g>
			<path d="M12,6c-0.141,0-0.275-0.06-0.37-0.164c-0.065-0.072-1.6-1.763-2.103-2.377C9.183,3.037,9,2.549,9,2.048
				C9,0.918,9.858,0,10.913,0C11.308,0,11.685,0.128,12,0.362C12.315,0.128,12.692,0,13.087,0C14.142,0,15,0.918,15,2.048
				c0,0.501-0.183,0.989-0.527,1.411c-0.503,0.615-2.037,2.306-2.103,2.377C12.275,5.94,12.141,6,12,6z M10.913,1
				C10.409,1,10,1.47,10,2.048c0,0.272,0.102,0.533,0.301,0.778C10.64,3.24,11.502,4.202,12,4.754
				c0.498-0.553,1.36-1.515,1.699-1.929C13.898,2.581,14,2.32,14,2.048C14,1.47,13.591,1,13.087,1c-0.264,0-0.515,0.132-0.688,0.361
				c-0.189,0.249-0.607,0.249-0.797,0C11.428,1.132,11.177,1,10.913,1z"/>
		</g>
		<g>
			<path d="M16.5,7C14.264,7,12,6.313,12,5c0-0.276,0.224-0.5,0.5-0.5S13,4.724,13,5c0,0.29,1.227,1,3.5,1
				c0.87,0,1.715-0.112,2.378-0.314c0.267-0.083,0.544,0.069,0.625,0.332c0.08,0.264-0.068,0.543-0.332,0.624
				C18.404,6.876,17.48,7,16.5,7z"/>
		</g>
		<g>
			<path d="M7.5,7C6.52,7,5.596,6.876,4.829,6.642c-0.264-0.081-0.412-0.36-0.332-0.624c0.081-0.263,0.356-0.415,0.625-0.332
				C5.785,5.888,6.63,6,7.5,6C9.773,6,11,5.29,11,5c0-0.276,0.224-0.5,0.5-0.5S12,4.724,12,5C12,6.313,9.736,7,7.5,7z"/>
		</g>
		<g>
			<path d="M21.5,15h-1c-0.827,0-1.5-0.673-1.5-1.5s0.673-1.5,1.5-1.5h1c0.827,0,1.5,0.673,1.5,1.5S22.327,15,21.5,15z M20.5,13
				c-0.275,0-0.5,0.224-0.5,0.5s0.225,0.5,0.5,0.5h1c0.275,0,0.5-0.224,0.5-0.5S21.775,13,21.5,13H20.5z"/>
		</g>
		<g>
			<path d="M22.5,22h-3c-0.145,0-0.283-0.063-0.378-0.172s-0.138-0.255-0.117-0.398l1-7c0.039-0.274,0.297-0.467,0.565-0.424
				c0.247,0.035,0.426,0.245,0.43,0.487c0.004-0.242,0.183-0.452,0.43-0.487c0.267-0.042,0.525,0.15,0.565,0.424l1,7
				c0.021,0.144-0.022,0.289-0.117,0.398S22.645,22,22.5,22z M20.076,21h1.848l-0.919-6.429C21.002,14.549,21,14.528,21,14.507
				c0,0.021-0.002,0.042-0.005,0.063L20.076,21z"/>
		</g>
		<g>
			<path d="M21.5,13H21c-1.494,0-4-0.844-4-6.5C17,6.224,17.224,6,17.5,6S18,6.224,18,6.5c0,2.509,0.521,5.5,3,5.5V5.5
				c0-1.415-2.542-2.785-6.007-3.287c-0.035,0.443-0.214,0.87-0.521,1.245c-0.503,0.615-2.037,2.306-2.103,2.377
				c-0.189,0.209-0.551,0.209-0.74,0c-0.065-0.072-1.6-1.763-2.103-2.377C9.221,3.083,9.042,2.656,9.007,2.213
				C5.542,2.715,3,4.085,3,5.5V12c2.479,0,3-2.991,3-5.5C6,6.224,6.224,6,6.5,6S7,6.224,7,6.5C7,12.156,4.494,13,3,13H2.5
				C2.224,13,2,12.776,2,12.5v-7c0-2.104,3.015-3.856,7.501-4.358C9.663,1.126,9.826,1.187,9.934,1.31
				c0.107,0.124,0.148,0.292,0.107,0.452C10.013,1.873,10,1.963,10,2.047c0,0.272,0.102,0.534,0.301,0.778
				C10.64,3.24,11.502,4.202,12,4.754c0.498-0.553,1.36-1.515,1.699-1.929C13.898,2.581,14,2.319,14,2.047
				c0-0.084-0.013-0.175-0.041-0.286c-0.041-0.159,0-0.328,0.107-0.452c0.108-0.124,0.272-0.184,0.433-0.168
				C18.985,1.644,22,3.396,22,5.5v7C22,12.776,21.776,13,21.5,13z"/>
		</g>
		<g>
			<path d="M3.5,15h-1C1.673,15,1,14.327,1,13.5S1.673,12,2.5,12h1C4.327,12,5,12.673,5,13.5S4.327,15,3.5,15z M2.5,13
				C2.225,13,2,13.224,2,13.5S2.225,14,2.5,14h1C3.775,14,4,13.776,4,13.5S3.775,13,3.5,13H2.5z"/>
		</g>
		<g>
			<path d="M4.5,22h-3c-0.145,0-0.283-0.063-0.378-0.172s-0.138-0.255-0.117-0.398l1-7c0.039-0.274,0.297-0.467,0.565-0.424
				C2.817,14.04,2.996,14.25,3,14.492c0.004-0.242,0.183-0.452,0.43-0.487c0.267-0.042,0.525,0.15,0.565,0.424l1,7
				c0.021,0.144-0.022,0.289-0.117,0.398S4.645,22,4.5,22z M2.076,21h1.848l-0.919-6.429C3.002,14.549,3,14.528,3,14.507
				c0,0.021-0.002,0.042-0.005,0.063L2.076,21z"/>
		</g>
		<g>
			<path d="M23.5,24h-23C0.224,24,0,23.776,0,23.5v-2C0,21.224,0.224,21,0.5,21h23c0.276,0,0.5,0.224,0.5,0.5v2
				C24,23.776,23.776,24,23.5,24z M1,23h22v-1H1V23z"/>
		</g>
		<g>
			<path d="M13.5,22h-3c-0.276,0-0.5-0.224-0.5-0.5v-5c0-0.276,0.224-0.5,0.5-0.5h3c0.276,0,0.5,0.224,0.5,0.5v5
				C14,21.776,13.776,22,13.5,22z M11,21h2v-4h-2V21z"/>
		</g>
		<g>
			<path d="M14.5,18h-1c-0.276,0-0.5-0.224-0.5-0.5s0.224-0.5,0.5-0.5h0.64l0.667-2H9.193l0.667,2h0.64c0.276,0,0.5,0.224,0.5,0.5
				S10.776,18,10.5,18h-1c-0.215,0-0.406-0.138-0.475-0.342l-1-3C7.975,14.506,8,14.338,8.095,14.208C8.188,14.077,8.339,14,8.5,14
				h7c0.161,0,0.312,0.077,0.405,0.208c0.095,0.13,0.12,0.298,0.069,0.451l-1,3C14.906,17.862,14.715,18,14.5,18z"/>
		</g>
	</g>
</g>
<g id="Bow-Tie">
</g>
<g id="Wedding_Tiara">
</g>
<g id="Wedding_Bouquet">
</g>
<g id="Wedding_Decoration_1">
</g>
<g id="Wedding_Decoration_2">
</g>
<g id="Wedding_Way_Sign">
</g>
<g id="Wedding_Date">
</g>
<g id="Wedding_Invitation">
</g>
<g id="Wedding_Invitation_2">
</g>
<g id="Bride">
</g>
<g id="Groom">
</g>
<g id="Mariage_Couple">
</g>
<g id="Wedding_Planner_Book">
</g>
<g id="Wedding_Cake_1">
</g>
<g id="Wedding_Cake_2">
</g>
<g id="Wedding_Cake_3">
</g>
<g id="Cake_Slice">
</g>
<g id="Marriage_Settlement">
</g>
<g id="Glass_Decoration">
</g>
<g id="Cutlery_Decoration">
</g>
<g id="Celebration_Glasses">
</g>
<g id="Wedding_Photo">
</g>
<g id="Wedding_Present_1">
</g>
<g id="Wedding_Present_2">
</g>
<g id="Wedding_Bouquet_2">
</g>
<g id="Hands_with_rings">
</g>
<g id="Wedding_Car">
</g>
<g id="Wedding_music">
</g>
<g id="wedding_party">
</g>
<g id="Confetti_1">
</g>
<g id="Confetti_2">
</g>
</svg>
