<?xml version="1.0" encoding="iso-8859-1"?>
<!-- Generator: Adobe Illustrator 19.2.1, SVG Export Plug-In . SVG Version: 6.00 Build 0)  -->
<svg version="1.1" xmlns="http://www.w3.org/2000/svg" xmlns:xlink="http://www.w3.org/1999/xlink" x="0px" y="0px"
	 viewBox="0 0 24 24" style="enable-background:new 0 0 24 24;" xml:space="preserve">
<g id="Engagement_1">
</g>
<g id="Engagement_2">
</g>
<g id="Wedding_Ring">
</g>
<g id="Church">
</g>
<g id="Church_Bells">
</g>
<g id="Wedding_Altar_1">
</g>
<g id="Wedding_Altar_2">
</g>
<g id="Bow-Tie">
</g>
<g id="Wedding_Tiara">
</g>
<g id="Wedding_Bouquet">
</g>
<g id="Wedding_Decoration_1">
</g>
<g id="Wedding_Decoration_2">
</g>
<g id="Wedding_Way_Sign">
</g>
<g id="Wedding_Date">
</g>
<g id="Wedding_Invitation">
</g>
<g id="Wedding_Invitation_2">
</g>
<g id="Bride">
</g>
<g id="Groom">
</g>
<g id="Mariage_Couple">
</g>
<g id="Wedding_Planner_Book">
	<g>
		<g>
			<path d="M17.5,24h-12C4.121,24,3,22.878,3,21.5V3.57c0-0.838,0.416-1.615,1.113-2.08l1.605-1.07C6.13,0.146,6.609,0,7.105,0H19.5
				C20.879,0,22,1.122,22,2.5v17c0,1.222-0.882,2.242-2.042,2.458C19.742,23.119,18.722,24,17.5,24z M4,5.5v16
				C4,22.327,4.673,23,5.5,23h12c0.827,0,1.5-0.673,1.5-1.5v-17C19,3.673,18.327,3,17.5,3H4.7C4.314,3,4,3.314,4,3.7V5.5z M5.151,2
				H17.5C18.879,2,20,3.122,20,4.5v16.415c0.582-0.207,1-0.763,1-1.415v-17C21,1.673,20.327,1,19.5,1H7.105
				C6.808,1,6.521,1.087,6.273,1.251L5.151,2z"/>
		</g>
		<g>
			<path d="M9.5,19C7.57,19,6,17.43,6,15.5S7.57,12,9.5,12c0.276,0,0.5,0.224,0.5,0.5S9.776,13,9.5,13C8.121,13,7,14.122,7,15.5
				S8.121,18,9.5,18s2.5-1.122,2.5-2.5c0-0.276,0.224-0.5,0.5-0.5s0.5,0.224,0.5,0.5C13,17.43,11.43,19,9.5,19z"/>
		</g>
		<g>
			<path d="M13.5,19c-0.276,0-0.5-0.224-0.5-0.5s0.224-0.5,0.5-0.5c1.379,0,2.5-1.122,2.5-2.5S14.879,13,13.5,13S11,14.122,11,15.5
				c0,0.276-0.224,0.5-0.5,0.5S10,15.776,10,15.5c0-1.93,1.57-3.5,3.5-3.5s3.5,1.57,3.5,3.5S15.43,19,13.5,19z"/>
		</g>
		<g>
			<path d="M11.5,11c-0.141,0-0.275-0.06-0.37-0.164c0,0-1.281-1.411-1.686-1.905C9.153,8.575,9,8.163,9,7.738
				C9,6.78,9.731,6,10.631,6c0.313,0,0.612,0.094,0.869,0.267C11.757,6.094,12.057,6,12.369,6C13.269,6,14,6.78,14,7.738
				c0,0.425-0.153,0.837-0.444,1.192c-0.404,0.495-1.686,1.906-1.686,1.906C11.775,10.94,11.641,11,11.5,11z M10.631,7
				C10.283,7,10,7.331,10,7.738c0,0.194,0.073,0.382,0.218,0.559c0.258,0.315,0.879,1.01,1.282,1.457
				c0.403-0.447,1.024-1.142,1.282-1.458C12.927,8.12,13,7.932,13,7.738C13,7.331,12.717,7,12.369,7
				c-0.179,0-0.351,0.091-0.471,0.249c-0.189,0.25-0.607,0.25-0.797,0C10.981,7.091,10.81,7,10.631,7z"/>
		</g>
	</g>
</g>
<g id="Wedding_Cake_1">
</g>
<g id="Wedding_Cake_2">
</g>
<g id="Wedding_Cake_3">
</g>
<g id="Cake_Slice">
</g>
<g id="Marriage_Settlement">
</g>
<g id="Glass_Decoration">
</g>
<g id="Cutlery_Decoration">
</g>
<g id="Celebration_Glasses">
</g>
<g id="Wedding_Photo">
</g>
<g id="Wedding_Present_1">
</g>
<g id="Wedding_Present_2">
</g>
<g id="Wedding_Bouquet_2">
</g>
<g id="Hands_with_rings">
</g>
<g id="Wedding_Car">
</g>
<g id="Wedding_music">
</g>
<g id="wedding_party">
</g>
<g id="Confetti_1">
</g>
<g id="Confetti_2">
</g>
</svg>
