<?xml version="1.0" encoding="iso-8859-1"?>
<!-- Generator: Adobe Illustrator 19.2.1, SVG Export Plug-In . SVG Version: 6.00 Build 0)  -->
<svg version="1.1" xmlns="http://www.w3.org/2000/svg" xmlns:xlink="http://www.w3.org/1999/xlink" x="0px" y="0px"
	 viewBox="0 0 24 24" style="enable-background:new 0 0 24 24;" xml:space="preserve">
<g id="Engagement_1">
</g>
<g id="Engagement_2">
</g>
<g id="Wedding_Ring">
</g>
<g id="Church">
</g>
<g id="Church_Bells">
</g>
<g id="Wedding_Altar_1">
	<g>
		<g>
			<path d="M12,6c-0.141,0-0.275-0.06-0.37-0.164c-0.065-0.072-1.6-1.763-2.103-2.377C9.183,3.037,9,2.549,9,2.048
				C9,0.918,9.858,0,10.913,0C11.308,0,11.685,0.128,12,0.362C12.315,0.128,12.692,0,13.087,0C14.142,0,15,0.918,15,2.048
				c0,0.501-0.183,0.989-0.527,1.411c-0.503,0.615-2.037,2.306-2.103,2.377C12.275,5.94,12.141,6,12,6z M10.913,1
				C10.409,1,10,1.47,10,2.048c0,0.272,0.102,0.533,0.301,0.778C10.64,3.24,11.502,4.202,12,4.754
				c0.498-0.553,1.36-1.515,1.699-1.929C13.898,2.581,14,2.32,14,2.048C14,1.47,13.591,1,13.087,1c-0.264,0-0.515,0.132-0.688,0.361
				c-0.189,0.249-0.607,0.249-0.797,0C11.428,1.132,11.177,1,10.913,1z"/>
		</g>
		<g>
			<path d="M5.5,13h-2C2.673,13,2,12.327,2,11.5S2.673,10,3.5,10h2C6.327,10,7,10.673,7,11.5S6.327,13,5.5,13z M3.5,11
				C3.225,11,3,11.224,3,11.5S3.225,12,3.5,12h2C5.775,12,6,11.776,6,11.5S5.775,11,5.5,11H3.5z"/>
		</g>
		<g>
			<path d="M5.523,11.004c-0.02,0-0.042-0.001-0.064-0.004H3.521c-0.138,0-0.27-0.057-0.363-0.157
				c-0.095-0.1-0.144-0.235-0.136-0.372c0.223-3.828,2.854-7.096,6.548-8.13c0.191-0.053,0.394,0.01,0.519,0.161l1.449,1.739
				c0.117,0.14,0.148,0.333,0.082,0.502c-0.066,0.17-0.221,0.29-0.401,0.313C8.42,5.421,6.234,7.729,6.022,10.542
				C6.002,10.803,5.785,11.004,5.523,11.004z M4.069,10h1.007c0.4-2.781,2.458-5.061,5.154-5.767L9.533,3.396
				C6.58,4.353,4.452,6.935,4.069,10z"/>
		</g>
		<g>
			<path d="M20.5,13h-2c-0.827,0-1.5-0.673-1.5-1.5s0.673-1.5,1.5-1.5h2c0.827,0,1.5,0.673,1.5,1.5S21.327,13,20.5,13z M18.5,11
				c-0.275,0-0.5,0.224-0.5,0.5s0.225,0.5,0.5,0.5h2c0.275,0,0.5-0.224,0.5-0.5S20.775,11,20.5,11H18.5z"/>
		</g>
		<g>
			<path d="M18.477,11.004c-0.262,0-0.479-0.202-0.499-0.462c-0.212-2.813-2.397-5.121-5.196-5.485
				c-0.181-0.023-0.335-0.144-0.401-0.313c-0.066-0.169-0.035-0.362,0.082-0.502l1.449-1.739c0.125-0.151,0.328-0.214,0.519-0.161
				c3.694,1.035,6.325,4.302,6.548,8.13c0.008,0.137-0.041,0.272-0.136,0.372C20.748,10.943,20.616,11,20.479,11H18.54
				C18.519,11.003,18.496,11.004,18.477,11.004z M18.924,10h1.007c-0.383-3.065-2.511-5.647-5.464-6.604L13.77,4.233
				C16.466,4.939,18.523,7.22,18.924,10z"/>
		</g>
		<g>
			<path d="M5.5,22h-3c-0.143,0-0.277-0.061-0.373-0.167c-0.095-0.106-0.14-0.248-0.124-0.389l1-9C3.031,12.191,3.245,12,3.5,12h2
				C5.776,12,6,12.224,6,12.5v9C6,21.776,5.776,22,5.5,22z M3.059,21H5v-8H3.947L3.059,21z"/>
		</g>
		<g>
			<path d="M21.5,22h-3c-0.276,0-0.5-0.224-0.5-0.5v-9c0-0.276,0.224-0.5,0.5-0.5h2c0.255,0,0.469,0.191,0.497,0.445l1,9
				c0.016,0.141-0.029,0.283-0.124,0.389C21.777,21.939,21.643,22,21.5,22z M19,21h1.941l-0.889-8H19V21z"/>
		</g>
		<g>
			<path d="M23.5,24h-23C0.224,24,0,23.776,0,23.5v-2C0,21.224,0.224,21,0.5,21h23c0.276,0,0.5,0.224,0.5,0.5v2
				C24,23.776,23.776,24,23.5,24z M1,23h22v-1H1V23z"/>
		</g>
	</g>
</g>
<g id="Wedding_Altar_2">
</g>
<g id="Bow-Tie">
</g>
<g id="Wedding_Tiara">
</g>
<g id="Wedding_Bouquet">
</g>
<g id="Wedding_Decoration_1">
</g>
<g id="Wedding_Decoration_2">
</g>
<g id="Wedding_Way_Sign">
</g>
<g id="Wedding_Date">
</g>
<g id="Wedding_Invitation">
</g>
<g id="Wedding_Invitation_2">
</g>
<g id="Bride">
</g>
<g id="Groom">
</g>
<g id="Mariage_Couple">
</g>
<g id="Wedding_Planner_Book">
</g>
<g id="Wedding_Cake_1">
</g>
<g id="Wedding_Cake_2">
</g>
<g id="Wedding_Cake_3">
</g>
<g id="Cake_Slice">
</g>
<g id="Marriage_Settlement">
</g>
<g id="Glass_Decoration">
</g>
<g id="Cutlery_Decoration">
</g>
<g id="Celebration_Glasses">
</g>
<g id="Wedding_Photo">
</g>
<g id="Wedding_Present_1">
</g>
<g id="Wedding_Present_2">
</g>
<g id="Wedding_Bouquet_2">
</g>
<g id="Hands_with_rings">
</g>
<g id="Wedding_Car">
</g>
<g id="Wedding_music">
</g>
<g id="wedding_party">
</g>
<g id="Confetti_1">
</g>
<g id="Confetti_2">
</g>
</svg>
