<?xml version="1.0" encoding="iso-8859-1"?>
<!-- Generator: Adobe Illustrator 19.2.1, SVG Export Plug-In . SVG Version: 6.00 Build 0)  -->
<svg version="1.1" xmlns="http://www.w3.org/2000/svg" xmlns:xlink="http://www.w3.org/1999/xlink" x="0px" y="0px"
	 viewBox="0 0 24 24" style="enable-background:new 0 0 24 24;" xml:space="preserve">
<g id="Engagement_1">
</g>
<g id="Engagement_2">
</g>
<g id="Wedding_Ring">
	<g>
		<g>
			<path d="M10,22c-4.411,0-8-3.589-8-8s3.589-8,8-8s8,3.589,8,8S14.411,22,10,22z M10,7c-3.86,0-7,3.14-7,7s3.14,7,7,7s7-3.14,7-7
				S13.86,7,10,7z"/>
		</g>
		<g>
			<path d="M23.5,7c-0.128,0-0.256-0.049-0.354-0.146l-6-6c-0.195-0.195-0.195-0.512,0-0.707s0.512-0.195,0.707,0l6,6
				c0.195,0.195,0.195,0.512,0,0.707C23.756,6.951,23.628,7,23.5,7z"/>
		</g>
		<g>
			<path d="M16.5,9.5c-1.103,0-2-0.897-2-2s0.897-2,2-2s2,0.897,2,2S17.603,9.5,16.5,9.5z M16.5,6.5c-0.551,0-1,0.449-1,1
				s0.449,1,1,1s1-0.449,1-1S17.051,6.5,16.5,6.5z"/>
		</g>
		<g>
			<path d="M17.951,7.64c-0.25,0-0.467-0.188-0.496-0.443c-0.032-0.274,0.165-0.522,0.439-0.554L23,6.054V3.707l-2.686-2.686
				c-0.375,0.021-1.055,0.014-2.37-0.012l-0.588,5.096c-0.032,0.274-0.273,0.478-0.554,0.439c-0.274-0.032-0.471-0.28-0.439-0.554
				l0.64-5.548C17.032,0.186,17.235-0.018,17.51,0c1.213,0.025,2.572,0.039,2.858,0.018c0.173-0.046,0.357,0,0.485,0.129l3,3
				C23.947,3.24,24,3.367,24,3.5v3c0,0.254-0.19,0.468-0.443,0.497l-5.548,0.64C17.99,7.639,17.97,7.64,17.951,7.64z"/>
		</g>
		<g>
			<path d="M10,24C4.486,24,0,19.514,0,14S4.486,4,10,4c2.119,0,4.15,0.664,5.875,1.919c0.223,0.163,0.272,0.476,0.11,0.699
				s-0.475,0.272-0.699,0.11C13.734,5.597,11.906,5,10,5c-4.962,0-9,4.038-9,9s4.038,9,9,9s9-4.038,9-9
				c0-1.906-0.597-3.734-1.728-5.286c-0.163-0.223-0.113-0.536,0.11-0.699c0.223-0.162,0.536-0.113,0.699,0.11
				C19.336,9.85,20,11.881,20,14C20,19.514,15.514,24,10,24z"/>
		</g>
	</g>
</g>
<g id="Church">
</g>
<g id="Church_Bells">
</g>
<g id="Wedding_Altar_1">
</g>
<g id="Wedding_Altar_2">
</g>
<g id="Bow-Tie">
</g>
<g id="Wedding_Tiara">
</g>
<g id="Wedding_Bouquet">
</g>
<g id="Wedding_Decoration_1">
</g>
<g id="Wedding_Decoration_2">
</g>
<g id="Wedding_Way_Sign">
</g>
<g id="Wedding_Date">
</g>
<g id="Wedding_Invitation">
</g>
<g id="Wedding_Invitation_2">
</g>
<g id="Bride">
</g>
<g id="Groom">
</g>
<g id="Mariage_Couple">
</g>
<g id="Wedding_Planner_Book">
</g>
<g id="Wedding_Cake_1">
</g>
<g id="Wedding_Cake_2">
</g>
<g id="Wedding_Cake_3">
</g>
<g id="Cake_Slice">
</g>
<g id="Marriage_Settlement">
</g>
<g id="Glass_Decoration">
</g>
<g id="Cutlery_Decoration">
</g>
<g id="Celebration_Glasses">
</g>
<g id="Wedding_Photo">
</g>
<g id="Wedding_Present_1">
</g>
<g id="Wedding_Present_2">
</g>
<g id="Wedding_Bouquet_2">
</g>
<g id="Hands_with_rings">
</g>
<g id="Wedding_Car">
</g>
<g id="Wedding_music">
</g>
<g id="wedding_party">
</g>
<g id="Confetti_1">
</g>
<g id="Confetti_2">
</g>
</svg>
