<?xml version="1.0" encoding="iso-8859-1"?>
<!-- Generator: Adobe Illustrator 19.2.1, SVG Export Plug-In . SVG Version: 6.00 Build 0)  -->
<svg version="1.1" xmlns="http://www.w3.org/2000/svg" xmlns:xlink="http://www.w3.org/1999/xlink" x="0px" y="0px"
	 viewBox="0 0 24 24" style="enable-background:new 0 0 24 24;" xml:space="preserve">
<g id="Engagement_1">
</g>
<g id="Engagement_2">
</g>
<g id="Wedding_Ring">
</g>
<g id="Church">
</g>
<g id="Church_Bells">
</g>
<g id="Wedding_Altar_1">
</g>
<g id="Wedding_Altar_2">
</g>
<g id="Bow-Tie">
</g>
<g id="Wedding_Tiara">
</g>
<g id="Wedding_Bouquet">
</g>
<g id="Wedding_Decoration_1">
</g>
<g id="Wedding_Decoration_2">
</g>
<g id="Wedding_Way_Sign">
</g>
<g id="Wedding_Date">
</g>
<g id="Wedding_Invitation">
</g>
<g id="Wedding_Invitation_2">
</g>
<g id="Bride">
</g>
<g id="Groom">
</g>
<g id="Mariage_Couple">
</g>
<g id="Wedding_Planner_Book">
</g>
<g id="Wedding_Cake_1">
</g>
<g id="Wedding_Cake_2">
</g>
<g id="Wedding_Cake_3">
</g>
<g id="Cake_Slice">
</g>
<g id="Marriage_Settlement">
</g>
<g id="Glass_Decoration">
</g>
<g id="Cutlery_Decoration">
</g>
<g id="Celebration_Glasses">
</g>
<g id="Wedding_Photo">
</g>
<g id="Wedding_Present_1">
</g>
<g id="Wedding_Present_2">
</g>
<g id="Wedding_Bouquet_2">
</g>
<g id="Hands_with_rings">
</g>
<g id="Wedding_Car">
	<g>
		<g>
			<path d="M9.5,20c-0.087,0-0.176-0.022-0.257-0.071c-0.237-0.142-0.313-0.449-0.171-0.686c1.05-1.751,1.019-2.377,1.004-2.479
				c-0.12-0.192-0.096-0.449,0.071-0.617c0.195-0.195,0.512-0.195,0.707,0c0.29,0.29,0.555,1.145-0.925,3.61
				C9.835,19.913,9.669,20,9.5,20z M10.146,16.853C10.146,16.853,10.146,16.854,10.146,16.853
				C10.146,16.854,10.146,16.853,10.146,16.853z M10.144,16.852C10.145,16.852,10.145,16.852,10.144,16.852
				C10.145,16.852,10.145,16.852,10.144,16.852z M10.144,16.851C10.144,16.851,10.144,16.851,10.144,16.851
				S10.144,16.851,10.144,16.851z"/>
		</g>
		<g>
			<path d="M11.5,21c-0.276,0-0.5-0.224-0.5-0.5c0-2.094,1.01-4.138,1.053-4.224c0.123-0.246,0.423-0.348,0.67-0.224
				c0.247,0.123,0.347,0.424,0.224,0.671C12.938,16.742,12,18.646,12,20.5C12,20.776,11.776,21,11.5,21z"/>
		</g>
		<g>
			<path d="M15.5,20c-0.128,0-0.256-0.049-0.354-0.146c-1.699-1.699-1.145-3.438-1.121-3.512c0.087-0.262,0.369-0.404,0.632-0.316
				c0.26,0.087,0.402,0.367,0.317,0.628c-0.017,0.055-0.366,1.249,0.878,2.493c0.195,0.195,0.195,0.512,0,0.707
				C15.756,19.951,15.628,20,15.5,20z"/>
		</g>
		<g>
			<path d="M18.086,24c-0.128,0-0.256-0.049-0.354-0.146l-2.475-2.475c-0.39-0.39-0.39-1.024,0-1.414l0.707-0.707
				c0.189-0.188,0.44-0.293,0.707-0.293c0,0,0,0,0.001,0c0.267,0,0.518,0.104,0.707,0.293l2.475,2.475
				C19.947,21.826,20,21.953,20,22.086s-0.053,0.26-0.146,0.354l-1.414,1.414C18.342,23.951,18.214,24,18.086,24z M16.671,19.965
				l-0.707,0.707l2.122,2.121l0.707-0.707L16.671,19.965z"/>
		</g>
		<g>
			<path d="M12.5,24h-2c-0.276,0-0.5-0.224-0.5-0.5v-2.625C10,20.385,10.439,20,11,20h1c0.561,0,1,0.385,1,0.875V23.5
				C13,23.776,12.776,24,12.5,24z M11,23h1v-1.99L11,21V23z"/>
		</g>
		<g>
			<path d="M16.671,22.586c-0.128,0-0.256-0.049-0.354-0.146c-0.195-0.195-0.195-0.512,0-0.707l1.415-1.414
				c0.195-0.195,0.512-0.195,0.707,0s0.195,0.512,0,0.707l-1.415,1.414C16.927,22.537,16.799,22.586,16.671,22.586z"/>
		</g>
		<g>
			<path d="M6.914,24c-0.128,0-0.256-0.049-0.354-0.146l-1.414-1.414C5.053,22.346,5,22.219,5,22.086s0.053-0.26,0.146-0.354
				l2.475-2.475c0.188-0.188,0.439-0.293,0.706-0.293c0,0,0,0,0.001,0c0.267,0,0.518,0.104,0.707,0.293l0.707,0.707
				c0.39,0.39,0.39,1.024,0,1.414l-2.475,2.475C7.17,23.951,7.042,24,6.914,24z M6.207,22.086l0.707,0.707l2.122-2.121l-0.707-0.707
				L6.207,22.086z"/>
		</g>
		<g>
			<path d="M8.329,22.586c-0.128,0-0.256-0.049-0.354-0.146l-1.415-1.414c-0.195-0.195-0.195-0.512,0-0.707s0.512-0.195,0.707,0
				l1.415,1.414c0.195,0.195,0.195,0.512,0,0.707C8.584,22.537,8.457,22.586,8.329,22.586z"/>
		</g>
		<g>
			<path d="M5.5,11h-5C0.224,11,0,10.776,0,10.5S0.224,10,0.5,10h3.793L3.732,9.439C3.449,9.156,3.072,9,2.671,9H1.5
				C1.224,9,1,8.776,1,8.5S1.224,8,1.5,8h1.171c0.668,0,1.296,0.26,1.768,0.732l1.414,1.414c0.143,0.143,0.186,0.358,0.108,0.545
				C5.885,10.878,5.702,11,5.5,11z"/>
		</g>
		<g>
			<path d="M5.5,19h-3C1.673,19,1,18.327,1,17.5v-2C1,15.224,1.224,15,1.5,15S2,15.224,2,15.5v2C2,17.775,2.224,18,2.5,18h3
				C5.776,18,6,17.775,6,17.5V16c0-0.276,0.224-0.5,0.5-0.5S7,15.724,7,16v1.5C7,18.327,6.327,19,5.5,19z"/>
		</g>
		<g>
			<path d="M16.5,17h-9c-0.078,0-0.154-0.019-0.224-0.053L5.382,16H1c-0.227,0-0.425-0.152-0.483-0.371C0.496,15.55,0,13.666,0,11.5
				c0-2.253,0.7-3.623,2.269-4.443C3.648,6.336,6.74,6,12,6s8.352,0.336,9.731,1.057C23.3,7.877,24,9.247,24,11.5
				c0,2.166-0.496,4.05-0.517,4.129C23.425,15.848,23.227,16,23,16h-4.382l-1.895,0.947C16.654,16.981,16.578,17,16.5,17z M7.618,16
				h8.764l1.895-0.947C18.346,15.019,18.422,15,18.5,15h4.104C22.743,14.363,23,12.987,23,11.5c0-1.884-0.501-2.914-1.731-3.557
				C20.071,7.317,16.953,7,12,7S3.929,7.317,2.731,7.943C1.501,8.586,1,9.616,1,11.5c0,1.487,0.257,2.863,0.396,3.5H5.5
				c0.078,0,0.154,0.019,0.224,0.053L7.618,16z"/>
		</g>
		<g>
			<path d="M23.5,11h-5c-0.202,0-0.385-0.122-0.462-0.309c-0.078-0.187-0.035-0.402,0.108-0.545l1.414-1.414
				C20.033,8.26,20.661,8,21.329,8H22.5C22.776,8,23,8.224,23,8.5S22.776,9,22.5,9h-1.171c-0.401,0-0.777,0.156-1.061,0.439
				L19.707,10H23.5c0.276,0,0.5,0.224,0.5,0.5S23.776,11,23.5,11z"/>
		</g>
		<g>
			<path d="M15.5,15h-7C8.224,15,8,14.776,8,14.5v-2C8,12.224,8.224,12,8.5,12h7c0.276,0,0.5,0.224,0.5,0.5v2
				C16,14.776,15.776,15,15.5,15z M9,14h6v-1H9V14z"/>
		</g>
		<g>
			<path d="M21.5,8c-0.193,0-0.377-0.112-0.459-0.301c-1.129-2.6-2.51-5.487-2.868-5.82C17.791,1.554,16.163,1,12.5,1h-1
				C7.837,1,6.209,1.554,5.824,1.881C5.469,2.212,4.087,5.1,2.958,7.699c-0.11,0.253-0.404,0.365-0.658,0.26
				c-0.253-0.11-0.37-0.405-0.259-0.658c0.568-1.308,2.473-5.619,3.135-6.182C6,0.418,8.365,0,11.5,0h1
				c3.135,0,5.5,0.418,6.324,1.119c0.662,0.563,2.567,4.874,3.135,6.182c0.11,0.253-0.006,0.548-0.259,0.658
				C21.634,7.986,21.567,8,21.5,8z"/>
		</g>
		<g>
			<path d="M21.5,19h-3c-0.827,0-1.5-0.673-1.5-1.5V16c0-0.276,0.224-0.5,0.5-0.5S18,15.724,18,16v1.5c0,0.275,0.224,0.5,0.5,0.5h3
				c0.276,0,0.5-0.225,0.5-0.5v-2c0-0.276,0.224-0.5,0.5-0.5s0.5,0.224,0.5,0.5v2C23,18.327,22.327,19,21.5,19z"/>
		</g>
		<g>
			<path d="M8.5,13H7c-0.157,0-0.306-0.074-0.4-0.2l-1.5-2c-0.166-0.221-0.121-0.534,0.1-0.7c0.22-0.166,0.534-0.12,0.7,0.101
				L7.25,12H8.5C8.776,12,9,12.224,9,12.5S8.776,13,8.5,13z"/>
		</g>
		<g>
			<path d="M17,13h-1.5c-0.276,0-0.5-0.224-0.5-0.5s0.224-0.5,0.5-0.5h1.25l1.35-1.8c0.166-0.22,0.479-0.266,0.7-0.101
				c0.221,0.166,0.266,0.479,0.1,0.7l-1.5,2C17.306,12.926,17.157,13,17,13z"/>
		</g>
		<g>
			<path d="M13.5,11h-3c-0.276,0-0.5-0.224-0.5-0.5s0.224-0.5,0.5-0.5h3c0.276,0,0.5,0.224,0.5,0.5S13.776,11,13.5,11z"/>
		</g>
	</g>
</g>
<g id="Wedding_music">
</g>
<g id="wedding_party">
</g>
<g id="Confetti_1">
</g>
<g id="Confetti_2">
</g>
</svg>
