<?xml version="1.0" encoding="iso-8859-1"?>
<!-- Generator: Adobe Illustrator 19.2.1, SVG Export Plug-In . SVG Version: 6.00 Build 0)  -->
<svg version="1.1" xmlns="http://www.w3.org/2000/svg" xmlns:xlink="http://www.w3.org/1999/xlink" x="0px" y="0px"
	 viewBox="0 0 24 24" style="enable-background:new 0 0 24 24;" xml:space="preserve">
<g id="Engagement_1">
</g>
<g id="Engagement_2">
</g>
<g id="Wedding_Ring">
</g>
<g id="Church">
</g>
<g id="Church_Bells">
</g>
<g id="Wedding_Altar_1">
</g>
<g id="Wedding_Altar_2">
</g>
<g id="Bow-Tie">
</g>
<g id="Wedding_Tiara">
</g>
<g id="Wedding_Bouquet">
</g>
<g id="Wedding_Decoration_1">
</g>
<g id="Wedding_Decoration_2">
	<g>
		<g>
			<path d="M12,19.499c-0.141,0-0.275-0.06-0.37-0.164c-0.117-0.128-2.872-3.165-3.771-4.263C7.297,14.385,7,13.594,7,12.785
				c0-1.812,1.365-3.286,3.043-3.286c0.724,0,1.413,0.275,1.957,0.769c0.544-0.494,1.232-0.769,1.957-0.769
				c1.678,0,3.043,1.474,3.043,3.286c0,0.81-0.297,1.601-0.858,2.287c-0.9,1.099-3.655,4.135-3.772,4.264
				C12.275,19.439,12.141,19.499,12,19.499z M10.043,10.499C8.917,10.499,8,11.524,8,12.785c0,0.728,0.344,1.301,0.632,1.654
				c0.69,0.843,2.567,2.929,3.368,3.815c0.801-0.887,2.678-2.973,3.368-3.816C15.656,14.086,16,13.513,16,12.785
				c0-1.26-0.917-2.286-2.043-2.286c-0.6,0-1.168,0.295-1.558,0.809c-0.189,0.249-0.607,0.249-0.797,0
				C11.211,10.794,10.644,10.499,10.043,10.499z"/>
		</g>
		<g>
			<g>
				<path d="M12.475,18.974c-0.266,0-0.488-0.21-0.499-0.479c-0.012-0.276,0.202-0.509,0.478-0.521
					c5.635-0.241,10.107-4.829,10.516-10.609c-1.601,1.736-4.819,2.925-7.871,3.392c-0.281,0.04-0.528-0.146-0.57-0.418
					c-0.042-0.273,0.146-0.528,0.418-0.57C19.538,9.067,23,7.017,23,5.001c0-0.276,0.224-0.5,0.5-0.5s0.5,0.224,0.5,0.5v1.498
					c0,6.72-5.053,12.199-11.503,12.475C12.489,18.974,12.482,18.974,12.475,18.974z"/>
			</g>
			<g>
				<path d="M11.525,18.974c-0.007,0-0.015,0-0.022,0C5.053,18.698,0,13.219,0,6.499V5.001c0-0.276,0.224-0.5,0.5-0.5
					S1,4.725,1,5.001C1,7.02,4.461,9.069,9.051,9.77c0.273,0.042,0.461,0.296,0.419,0.569c-0.042,0.273-0.296,0.458-0.569,0.419
					c-3.052-0.465-6.27-1.654-7.87-3.391c0.41,5.78,4.881,10.367,10.516,10.607c0.276,0.012,0.49,0.245,0.478,0.521
					C12.013,18.764,11.792,18.974,11.525,18.974z"/>
			</g>
		</g>
		<g>
			<path d="M18.5,13.499c-0.162,0-0.32-0.078-0.417-0.223c-0.153-0.23-0.091-0.54,0.139-0.693C21.393,10.47,23,8.086,23,5.499
				c0-0.276,0.224-0.5,0.5-0.5s0.5,0.224,0.5,0.5c0,2.942-1.757,5.605-5.223,7.916C18.692,13.472,18.596,13.499,18.5,13.499z"/>
		</g>
		<g>
			<path d="M5.5,13.499c-0.095,0-0.191-0.027-0.277-0.084C1.757,11.104,0,8.441,0,5.499c0-0.276,0.224-0.5,0.5-0.5S1,5.223,1,5.499
				c0,2.587,1.607,4.971,4.777,7.084c0.23,0.153,0.292,0.463,0.139,0.693C5.82,13.421,5.661,13.499,5.5,13.499z"/>
		</g>
	</g>
</g>
<g id="Wedding_Way_Sign">
</g>
<g id="Wedding_Date">
</g>
<g id="Wedding_Invitation">
</g>
<g id="Wedding_Invitation_2">
</g>
<g id="Bride">
</g>
<g id="Groom">
</g>
<g id="Mariage_Couple">
</g>
<g id="Wedding_Planner_Book">
</g>
<g id="Wedding_Cake_1">
</g>
<g id="Wedding_Cake_2">
</g>
<g id="Wedding_Cake_3">
</g>
<g id="Cake_Slice">
</g>
<g id="Marriage_Settlement">
</g>
<g id="Glass_Decoration">
</g>
<g id="Cutlery_Decoration">
</g>
<g id="Celebration_Glasses">
</g>
<g id="Wedding_Photo">
</g>
<g id="Wedding_Present_1">
</g>
<g id="Wedding_Present_2">
</g>
<g id="Wedding_Bouquet_2">
</g>
<g id="Hands_with_rings">
</g>
<g id="Wedding_Car">
</g>
<g id="Wedding_music">
</g>
<g id="wedding_party">
</g>
<g id="Confetti_1">
</g>
<g id="Confetti_2">
</g>
</svg>
