<?xml version="1.0" encoding="iso-8859-1"?>
<!-- Generator: Adobe Illustrator 19.2.1, SVG Export Plug-In . SVG Version: 6.00 Build 0)  -->
<svg version="1.1" xmlns="http://www.w3.org/2000/svg" xmlns:xlink="http://www.w3.org/1999/xlink" x="0px" y="0px"
	 viewBox="0 0 24 24" style="enable-background:new 0 0 24 24;" xml:space="preserve">
<g id="Engagement_1">
</g>
<g id="Engagement_2">
</g>
<g id="Wedding_Ring">
</g>
<g id="Church">
</g>
<g id="Church_Bells">
</g>
<g id="Wedding_Altar_1">
</g>
<g id="Wedding_Altar_2">
</g>
<g id="Bow-Tie">
</g>
<g id="Wedding_Tiara">
	<g>
		<g>
			<path d="M23.5,17.5c-0.089,0-0.178-0.023-0.256-0.071C23.194,17.4,18.256,14.5,12,14.5c-6.295,0-11.193,2.899-11.242,2.928
				c-0.155,0.094-0.349,0.096-0.504,0.007C0.097,17.346,0,17.18,0,17v-1c0-0.172,0.088-0.332,0.233-0.423
				c4.173-2.627,3.777-5.47,3.772-5.499c-0.023-0.147,0.021-0.298,0.12-0.41C4.225,9.557,4.368,9.478,4.518,9.5
				C8.88,9.629,8.996,7.092,9,6.983c0.012-0.268,0.232-0.481,0.5-0.481c0.003,0,0.007,0,0.011,0C9.782,6.508,10,6.728,10,7
				c0,0.249,0.618,0.5,2,0.5s2-0.251,2-0.5c0-0.274,0.22-0.497,0.494-0.5C14.719,6.506,14.993,6.714,15,6.988
				c0.004,0.104,0.157,2.638,4.482,2.513c0.16-0.012,0.293,0.056,0.392,0.168c0.1,0.112,0.144,0.262,0.12,0.41
				c-0.017,0.113-0.358,2.897,3.772,5.499C23.912,15.668,24,15.828,24,16v1c0,0.18-0.097,0.346-0.253,0.435
				C23.67,17.478,23.585,17.5,23.5,17.5z M12,13.5c4.653,0,8.529,1.49,10.454,2.396c-2.925-2.13-3.413-4.358-3.466-5.39
				c-1.707-0.021-3.02-0.453-3.906-1.289c-0.387-0.364-0.635-0.754-0.794-1.105C13.561,8.5,12.473,8.5,12,8.5s-1.561,0-2.288-0.388
				C9.553,8.463,9.305,8.854,8.918,9.217c-0.887,0.835-2.199,1.268-3.906,1.289c-0.053,1.03-0.539,3.252-3.451,5.379
				C3.484,14.979,7.336,13.5,12,13.5z"/>
		</g>
		<g>
			<path d="M12,14.5c-1.654,0-3-1.346-3-3s1.346-3,3-3s3,1.346,3,3S13.654,14.5,12,14.5z M12,9.5c-1.103,0-2,0.897-2,2s0.897,2,2,2
				s2-0.897,2-2S13.103,9.5,12,9.5z"/>
		</g>
		<g>
			<path d="M17,14.5c-1.103,0-2-0.897-2-2s0.897-2,2-2s2,0.897,2,2S18.103,14.5,17,14.5z M17,11.5c-0.552,0-1,0.449-1,1s0.448,1,1,1
				s1-0.449,1-1S17.552,11.5,17,11.5z"/>
		</g>
		<g>
			<path d="M7,14.5c-1.103,0-2-0.897-2-2s0.897-2,2-2s2,0.897,2,2S8.103,14.5,7,14.5z M7,11.5c-0.552,0-1,0.449-1,1s0.448,1,1,1
				s1-0.449,1-1S7.552,11.5,7,11.5z"/>
		</g>
	</g>
</g>
<g id="Wedding_Bouquet">
</g>
<g id="Wedding_Decoration_1">
</g>
<g id="Wedding_Decoration_2">
</g>
<g id="Wedding_Way_Sign">
</g>
<g id="Wedding_Date">
</g>
<g id="Wedding_Invitation">
</g>
<g id="Wedding_Invitation_2">
</g>
<g id="Bride">
</g>
<g id="Groom">
</g>
<g id="Mariage_Couple">
</g>
<g id="Wedding_Planner_Book">
</g>
<g id="Wedding_Cake_1">
</g>
<g id="Wedding_Cake_2">
</g>
<g id="Wedding_Cake_3">
</g>
<g id="Cake_Slice">
</g>
<g id="Marriage_Settlement">
</g>
<g id="Glass_Decoration">
</g>
<g id="Cutlery_Decoration">
</g>
<g id="Celebration_Glasses">
</g>
<g id="Wedding_Photo">
</g>
<g id="Wedding_Present_1">
</g>
<g id="Wedding_Present_2">
</g>
<g id="Wedding_Bouquet_2">
</g>
<g id="Hands_with_rings">
</g>
<g id="Wedding_Car">
</g>
<g id="Wedding_music">
</g>
<g id="wedding_party">
</g>
<g id="Confetti_1">
</g>
<g id="Confetti_2">
</g>
</svg>
