<?xml version="1.0" encoding="iso-8859-1"?>
<!-- Generator: Adobe Illustrator 19.2.1, SVG Export Plug-In . SVG Version: 6.00 Build 0)  -->
<svg version="1.1" xmlns="http://www.w3.org/2000/svg" xmlns:xlink="http://www.w3.org/1999/xlink" x="0px" y="0px"
	 viewBox="0 0 24 24" style="enable-background:new 0 0 24 24;" xml:space="preserve">
<g id="Engagement_1">
</g>
<g id="Engagement_2">
</g>
<g id="Wedding_Ring">
</g>
<g id="Church">
</g>
<g id="Church_Bells">
</g>
<g id="Wedding_Altar_1">
</g>
<g id="Wedding_Altar_2">
</g>
<g id="Bow-Tie">
</g>
<g id="Wedding_Tiara">
</g>
<g id="Wedding_Bouquet">
</g>
<g id="Wedding_Decoration_1">
</g>
<g id="Wedding_Decoration_2">
</g>
<g id="Wedding_Way_Sign">
</g>
<g id="Wedding_Date">
</g>
<g id="Wedding_Invitation">
</g>
<g id="Wedding_Invitation_2">
</g>
<g id="Bride">
</g>
<g id="Groom">
</g>
<g id="Mariage_Couple">
</g>
<g id="Wedding_Planner_Book">
</g>
<g id="Wedding_Cake_1">
</g>
<g id="Wedding_Cake_2">
</g>
<g id="Wedding_Cake_3">
	<g>
		<g>
			<path d="M20.505,24h-17c-0.276,0-0.5-0.224-0.5-0.5v-5c0-1.93,1.57-3.5,3.5-3.5h11c1.93,0,3.5,1.57,3.5,3.5v5
				C21.005,23.776,20.781,24,20.505,24z M4.005,23h16v-4.5c0-1.379-1.122-2.5-2.5-2.5h-11c-1.378,0-2.5,1.121-2.5,2.5V23z"/>
		</g>
		<g>
			<path d="M17.505,16h-11c-0.276,0-0.5-0.224-0.5-0.5l0-4c0-1.379,1.122-2.5,2.5-2.5h7c1.378,0,2.5,1.121,2.5,2.5l0,4
				c0,0.133-0.053,0.26-0.146,0.354S17.638,16,17.505,16z M7.005,15h10l0-3.5c0-0.827-0.673-1.5-1.5-1.5h-7
				c-0.827,0-1.5,0.673-1.5,1.5L7.005,15z"/>
		</g>
		<g>
			<path d="M15.505,10h-7c-0.276,0-0.5-0.224-0.5-0.5v-4c0-0.827,0.673-1.5,1.5-1.5h5c0.827,0,1.5,0.673,1.5,1.5v4
				C16.005,9.776,15.781,10,15.505,10z M9.005,9h6V5.5c0-0.275-0.224-0.5-0.5-0.5h-5c-0.276,0-0.5,0.225-0.5,0.5V9z"/>
		</g>
		<g>
			<path d="M4.007,19.002c-0.246,0-0.493-0.06-0.734-0.179C3.025,18.7,2.924,18.4,3.047,18.152c0.123-0.248,0.423-0.348,0.67-0.226
				c0.113,0.056,0.456,0.228,0.925-0.271c0.811-0.859,1.916-0.86,2.727,0.001C7.517,17.813,7.747,18,8.005,18
				s0.488-0.187,0.636-0.343c0.812-0.861,1.916-0.861,2.728,0C11.517,17.813,11.747,18,12.005,18s0.488-0.187,0.636-0.343
				c0.812-0.861,1.916-0.861,2.728,0C15.517,17.813,15.747,18,16.005,18s0.488-0.187,0.636-0.343c0.812-0.861,1.916-0.861,2.728,0
				c0.466,0.494,0.807,0.327,0.918,0.272c0.249-0.12,0.547-0.017,0.668,0.231c0.121,0.249,0.017,0.548-0.231,0.669
				c-0.705,0.343-1.465,0.166-2.083-0.487C18.493,18.187,18.263,18,18.005,18s-0.488,0.187-0.636,0.343
				c-0.812,0.861-1.916,0.861-2.728,0C14.493,18.187,14.263,18,14.005,18s-0.488,0.187-0.636,0.343
				c-0.812,0.861-1.916,0.861-2.728,0C10.493,18.187,10.263,18,10.005,18s-0.488,0.187-0.636,0.343
				c-0.812,0.861-1.916,0.861-2.728,0C6.493,18.187,6.263,18,6.005,18s-0.488,0.187-0.636,0.343
				C4.958,18.777,4.485,19.002,4.007,19.002z"/>
		</g>
		<g>
			<path d="M16.005,13c-0.486,0-0.958-0.227-1.364-0.657C14.493,12.187,14.263,12,14.005,12s-0.488,0.187-0.636,0.343
				c-0.812,0.861-1.916,0.861-2.728,0C10.493,12.187,10.263,12,10.005,12s-0.488,0.187-0.636,0.343
				c-0.812,0.861-1.916,0.861-2.728,0c-0.117-0.124-0.236-0.215-0.352-0.271c-0.249-0.121-0.352-0.42-0.231-0.669
				c0.12-0.248,0.418-0.352,0.668-0.231c0.226,0.11,0.442,0.273,0.643,0.485C7.517,11.813,7.747,12,8.005,12
				s0.488-0.187,0.636-0.343c0.812-0.861,1.916-0.861,2.728,0C11.517,11.813,11.747,12,12.005,12s0.488-0.187,0.636-0.343
				c0.812-0.861,1.916-0.861,2.728,0C15.517,11.813,15.747,12,16.005,12s0.488-0.187,0.636-0.343c0.196-0.209,0.409-0.37,0.632-0.48
				c0.249-0.122,0.548-0.021,0.67,0.227c0.123,0.248,0.021,0.548-0.227,0.67c-0.116,0.058-0.233,0.148-0.347,0.27
				C16.963,12.773,16.491,13,16.005,13z"/>
		</g>
		<g>
			<path d="M12.005,8c-0.486,0-0.958-0.227-1.364-0.657C10.493,7.187,10.263,7,10.005,7S9.517,7.187,9.369,7.343
				C9.167,7.557,8.95,7.72,8.723,7.83C8.477,7.953,8.175,7.846,8.055,7.598S8.039,7.05,8.288,6.93
				c0.117-0.057,0.236-0.148,0.354-0.273c0.811-0.859,1.916-0.86,2.727,0.001C11.517,6.813,11.747,7,12.005,7
				s0.488-0.187,0.636-0.343c0.812-0.861,1.916-0.861,2.728,0c0.115,0.121,0.231,0.212,0.348,0.27
				c0.248,0.122,0.349,0.422,0.227,0.67c-0.122,0.246-0.42,0.351-0.67,0.227c-0.223-0.11-0.436-0.271-0.632-0.48
				C14.493,7.187,14.263,7,14.005,7s-0.488,0.187-0.636,0.343C12.963,7.773,12.491,8,12.005,8z"/>
		</g>
		<g>
			<path d="M10.505,4.5L10.505,4.5c-0.276,0-0.5-0.224-0.5-0.5l0-2.5c0-0.276,0.224-0.5,0.5-0.5l0,0c0.276,0,0.5,0.224,0.5,0.5
				l0,2.5C11.005,4.276,10.781,4.5,10.505,4.5z"/>
		</g>
		<g>
			<circle cx="10.505" cy="0.5" r="0.5"/>
		</g>
		<g>
			<circle cx="13.505" cy="0.5" r="0.5"/>
		</g>
		<g>
			<path d="M14.005,3.5h-1c-0.161,0-0.312-0.077-0.406-0.208c-0.094-0.13-0.12-0.298-0.068-0.45l0.5-1.5
				C13.099,1.138,13.29,1,13.505,1l0,0c0.215,0,0.406,0.138,0.475,0.342l0.5,1.5c0.051,0.152,0.025,0.32-0.069,0.45
				C14.316,3.423,14.166,3.5,14.005,3.5z"/>
		</g>
		<g>
			<path d="M11.005,3h-1c-0.276,0-0.5-0.224-0.5-0.5v-1c0-0.276,0.224-0.5,0.5-0.5h1c0.276,0,0.5,0.224,0.5,0.5v1
				C11.505,2.776,11.282,3,11.005,3z"/>
		</g>
		<g>
			<path d="M13.505,5c-0.276,0-0.5-0.224-0.5-0.5V3c0-0.276,0.224-0.5,0.5-0.5s0.5,0.224,0.5,0.5v1.5
				C14.005,4.776,13.782,5,13.505,5z"/>
		</g>
	</g>
</g>
<g id="Cake_Slice">
</g>
<g id="Marriage_Settlement">
</g>
<g id="Glass_Decoration">
</g>
<g id="Cutlery_Decoration">
</g>
<g id="Celebration_Glasses">
</g>
<g id="Wedding_Photo">
</g>
<g id="Wedding_Present_1">
</g>
<g id="Wedding_Present_2">
</g>
<g id="Wedding_Bouquet_2">
</g>
<g id="Hands_with_rings">
</g>
<g id="Wedding_Car">
</g>
<g id="Wedding_music">
</g>
<g id="wedding_party">
</g>
<g id="Confetti_1">
</g>
<g id="Confetti_2">
</g>
</svg>
