<?xml version="1.0" encoding="iso-8859-1"?>
<!-- Generator: Adobe Illustrator 19.2.1, SVG Export Plug-In . SVG Version: 6.00 Build 0)  -->
<svg version="1.1" xmlns="http://www.w3.org/2000/svg" xmlns:xlink="http://www.w3.org/1999/xlink" x="0px" y="0px"
	 viewBox="0 0 24 24" style="enable-background:new 0 0 24 24;" xml:space="preserve">
<g id="Engagement_1">
</g>
<g id="Engagement_2">
</g>
<g id="Wedding_Ring">
</g>
<g id="Church">
</g>
<g id="Church_Bells">
</g>
<g id="Wedding_Altar_1">
</g>
<g id="Wedding_Altar_2">
</g>
<g id="Bow-Tie">
</g>
<g id="Wedding_Tiara">
</g>
<g id="Wedding_Bouquet">
</g>
<g id="Wedding_Decoration_1">
</g>
<g id="Wedding_Decoration_2">
</g>
<g id="Wedding_Way_Sign">
</g>
<g id="Wedding_Date">
</g>
<g id="Wedding_Invitation">
</g>
<g id="Wedding_Invitation_2">
</g>
<g id="Bride">
</g>
<g id="Groom">
</g>
<g id="Mariage_Couple">
</g>
<g id="Wedding_Planner_Book">
</g>
<g id="Wedding_Cake_1">
</g>
<g id="Wedding_Cake_2">
</g>
<g id="Wedding_Cake_3">
</g>
<g id="Cake_Slice">
</g>
<g id="Marriage_Settlement">
</g>
<g id="Glass_Decoration">
</g>
<g id="Cutlery_Decoration">
</g>
<g id="Celebration_Glasses">
</g>
<g id="Wedding_Photo">
</g>
<g id="Wedding_Present_1">
	<g>
		<g>
			<path d="M21.5,24h-20C1.224,24,1,23.776,1,23.5v-14C1,9.224,1.224,9,1.5,9h20C21.776,9,22,9.224,22,9.5v14
				C22,23.776,21.776,24,21.5,24z M2,23h19V10H2V23z"/>
		</g>
		<g>
			<path d="M22.5,10h-22C0.224,10,0,9.776,0,9.5v-4C0,5.224,0.224,5,0.5,5h22C22.776,5,23,5.224,23,5.5v4
				C23,9.776,22.776,10,22.5,10z M1,9h21V6H1V9z"/>
		</g>
		<g>
			<path d="M11.5,6c-0.138,0-0.271-0.057-0.366-0.159c-0.11-0.119-0.157-0.285-0.123-0.444c0.492-2.316,2.732-4.959,5.628-5.371
				c0.642-0.092,1.24,0.069,1.682,0.452C18.752,0.853,19,1.406,19,1.996c0,0.463-0.161,0.913-0.453,1.271
				c-0.006,0.006-0.011,0.013-0.017,0.02c-1.492,1.896-6.402,2.631-6.961,2.709C11.546,5.998,11.523,6,11.5,6z M16.99,1
				c-0.068,0-0.139,0.005-0.211,0.016c-2.131,0.303-3.892,2.113-4.57,3.86c1.731-0.322,4.684-1.081,5.554-2.232
				c0.011-0.014,0.021-0.027,0.033-0.04C17.93,2.429,18,2.219,18,1.996c0-0.296-0.125-0.581-0.336-0.764
				C17.488,1.079,17.258,1,16.99,1z"/>
		</g>
		<g>
			<path d="M11.5,6c-0.023,0-0.046-0.002-0.069-0.005C10.872,5.917,5.962,5.182,4.47,3.286c-0.006-0.007-0.011-0.014-0.017-0.02
				C4.161,2.909,4,2.459,4,1.996c0-0.591,0.248-1.145,0.68-1.519c0.44-0.382,1.039-0.542,1.682-0.452
				c2.896,0.412,5.136,3.055,5.628,5.371c0.034,0.159-0.013,0.325-0.123,0.444C11.771,5.943,11.638,6,11.5,6z M5.204,2.604
				c0.012,0.013,0.023,0.026,0.033,0.04c0.871,1.152,3.822,1.911,5.554,2.232c-0.679-1.747-2.439-3.558-4.57-3.86
				C5.859,0.96,5.556,1.04,5.335,1.232C5.125,1.414,5,1.7,5,1.996C5,2.219,5.07,2.429,5.204,2.604z"/>
		</g>
		<g>
			<path d="M8.508,21c-0.141,0-0.275-0.06-0.37-0.164c-0.104-0.114-2.559-2.814-3.361-3.791C4.269,16.424,4,15.709,4,14.977
				C4,13.335,5.24,12,6.766,12c0.642,0,1.253,0.237,1.742,0.665c0.293-0.258,0.633-0.447,1.003-0.558
				c0.262-0.078,0.542,0.071,0.622,0.337c0.078,0.265-0.072,0.543-0.337,0.622c-0.347,0.104-0.654,0.321-0.891,0.631
				c-0.188,0.248-0.605,0.248-0.795,0C7.772,13.254,7.282,13,6.766,13C5.792,13,5,13.887,5,14.977c0,0.63,0.299,1.128,0.55,1.435
				c0.604,0.733,2.224,2.533,2.958,3.345c0.734-0.812,2.355-2.611,2.958-3.346c0.251-0.306,0.55-0.804,0.55-1.434
				c0-0.276,0.224-0.5,0.5-0.5s0.5,0.224,0.5,0.5c0,0.732-0.269,1.447-0.776,2.067c-0.803,0.978-3.258,3.678-3.361,3.792
				C8.783,20.94,8.648,21,8.508,21z"/>
		</g>
		<g>
			<path d="M14.508,21c-0.141,0-0.275-0.06-0.37-0.164c0,0-0.991-1.093-1.93-2.153c-0.184-0.206-0.164-0.522,0.043-0.705
				c0.204-0.185,0.521-0.166,0.705,0.043c0.58,0.654,1.18,1.321,1.552,1.733c0.731-0.812,2.344-2.609,2.944-3.343
				C17.702,16.104,18,15.607,18,14.977C18,13.887,17.212,13,16.243,13c-0.514,0-1.001,0.254-1.337,0.696
				c-0.189,0.25-0.607,0.25-0.797,0C13.773,13.254,13.286,13,12.772,13c-0.969,0-1.757,0.887-1.757,1.977c0,0.276-0.224,0.5-0.5,0.5
				s-0.5-0.224-0.5-0.5c0-1.642,1.236-2.977,2.757-2.977c0.64,0,1.249,0.237,1.735,0.664C14.994,12.237,15.604,12,16.243,12
				C17.764,12,19,13.335,19,14.977c0,0.732-0.268,1.447-0.773,2.067c-0.799,0.978-3.244,3.678-3.349,3.792
				C14.783,20.94,14.649,21,14.508,21z"/>
		</g>
	</g>
</g>
<g id="Wedding_Present_2">
</g>
<g id="Wedding_Bouquet_2">
</g>
<g id="Hands_with_rings">
</g>
<g id="Wedding_Car">
</g>
<g id="Wedding_music">
</g>
<g id="wedding_party">
</g>
<g id="Confetti_1">
</g>
<g id="Confetti_2">
</g>
</svg>
