<?xml version="1.0" encoding="iso-8859-1"?>
<!-- Generator: Adobe Illustrator 19.2.1, SVG Export Plug-In . SVG Version: 6.00 Build 0)  -->
<svg version="1.1" xmlns="http://www.w3.org/2000/svg" xmlns:xlink="http://www.w3.org/1999/xlink" x="0px" y="0px"
	 viewBox="0 0 24 24" style="enable-background:new 0 0 24 24;" xml:space="preserve">
<g id="Engagement_1">
</g>
<g id="Engagement_2">
</g>
<g id="Wedding_Ring">
</g>
<g id="Church">
</g>
<g id="Church_Bells">
</g>
<g id="Wedding_Altar_1">
</g>
<g id="Wedding_Altar_2">
</g>
<g id="Bow-Tie">
</g>
<g id="Wedding_Tiara">
</g>
<g id="Wedding_Bouquet">
</g>
<g id="Wedding_Decoration_1">
</g>
<g id="Wedding_Decoration_2">
</g>
<g id="Wedding_Way_Sign">
</g>
<g id="Wedding_Date">
</g>
<g id="Wedding_Invitation">
</g>
<g id="Wedding_Invitation_2">
</g>
<g id="Bride">
</g>
<g id="Groom">
</g>
<g id="Mariage_Couple">
</g>
<g id="Wedding_Planner_Book">
</g>
<g id="Wedding_Cake_1">
</g>
<g id="Wedding_Cake_2">
</g>
<g id="Wedding_Cake_3">
</g>
<g id="Cake_Slice">
</g>
<g id="Marriage_Settlement">
</g>
<g id="Glass_Decoration">
</g>
<g id="Cutlery_Decoration">
</g>
<g id="Celebration_Glasses">
</g>
<g id="Wedding_Photo">
	<g>
		<g>
			<path d="M21.5,24h-20C1.224,24,1,23.776,1,23.5v-23C1,0.224,1.224,0,1.5,0h20C21.776,0,22,0.224,22,0.5v23
				C22,23.776,21.776,24,21.5,24z M2,23h19V1H2V23z"/>
		</g>
		<g>
			<path d="M19.5,18h-16C3.224,18,3,17.776,3,17.5v-15C3,2.224,3.224,2,3.5,2h16C19.776,2,20,2.224,20,2.5v15
				C20,17.776,19.776,18,19.5,18z M4,17h15V3H4V17z"/>
		</g>
		<g>
			<path d="M10.5,18c-0.276,0-0.5-0.224-0.5-0.5v-4c0-0.088-0.023-0.175-0.067-0.251C9.843,13.096,9.678,13,9.5,13h-3
				C6.225,13,6,13.225,6,13.5v4C6,17.776,5.776,18,5.5,18S5,17.776,5,17.5v-4C5,12.673,5.673,12,6.5,12h3
				c0.532,0,1.028,0.286,1.296,0.745C10.93,12.974,11,13.235,11,13.5v4C11,17.776,10.776,18,10.5,18z"/>
		</g>
		<g>
			<path d="M8.5,14c-0.076,0-0.153-0.018-0.224-0.053L8,13.809l-0.276,0.139c-0.155,0.077-0.341,0.067-0.486-0.021
				C7.09,13.834,7,13.673,7,13.5V13c0-0.173,0.09-0.334,0.237-0.426c0.146-0.089,0.332-0.1,0.486-0.021L8,12.691l0.276-0.139
				c0.154-0.078,0.34-0.068,0.486,0.021C8.91,12.666,9,12.827,9,13v0.5c0,0.173-0.09,0.334-0.237,0.426
				C8.683,13.975,8.592,14,8.5,14z"/>
		</g>
		<g>
			<path d="M8,12c-1.103,0-2-0.897-2-2s0.897-2,2-2s2,0.897,2,2S9.103,12,8,12z M8,9c-0.552,0-1,0.448-1,1s0.448,1,1,1s1-0.448,1-1
				S8.552,9,8,9z"/>
		</g>
		<g>
			<path d="M17.5,18h-5c-0.276,0-0.5-0.224-0.5-0.5v-3c0-0.724,0.32-1.413,0.879-1.892c0.164-0.139,0.397-0.159,0.583-0.049
				c0.971,0.584,2.105,0.584,3.076,0c0.185-0.11,0.42-0.09,0.583,0.049C17.68,13.087,18,13.776,18,14.5v3
				C18,17.776,17.776,18,17.5,18z M13,17h4v-2.5c0-0.322-0.107-0.635-0.303-0.892c-1.076,0.514-2.318,0.514-3.395,0
				C13.107,13.865,13,14.178,13,14.5V17z"/>
		</g>
		<g>
			<path d="M15,12c-1.103,0-2-0.897-2-2s0.897-2,2-2s2,0.897,2,2S16.103,12,15,12z M15,9c-0.552,0-1,0.448-1,1s0.448,1,1,1
				s1-0.448,1-1S15.552,9,15,9z"/>
		</g>
	</g>
</g>
<g id="Wedding_Present_1">
</g>
<g id="Wedding_Present_2">
</g>
<g id="Wedding_Bouquet_2">
</g>
<g id="Hands_with_rings">
</g>
<g id="Wedding_Car">
</g>
<g id="Wedding_music">
</g>
<g id="wedding_party">
</g>
<g id="Confetti_1">
</g>
<g id="Confetti_2">
</g>
</svg>
