<?xml version="1.0" encoding="iso-8859-1"?>
<!-- Generator: Adobe Illustrator 19.2.1, SVG Export Plug-In . SVG Version: 6.00 Build 0)  -->
<svg version="1.1" xmlns="http://www.w3.org/2000/svg" xmlns:xlink="http://www.w3.org/1999/xlink" x="0px" y="0px"
	 viewBox="0 0 24 24" style="enable-background:new 0 0 24 24;" xml:space="preserve">
<g id="Engagement_1">
</g>
<g id="Engagement_2">
</g>
<g id="Wedding_Ring">
</g>
<g id="Church">
</g>
<g id="Church_Bells">
</g>
<g id="Wedding_Altar_1">
</g>
<g id="Wedding_Altar_2">
</g>
<g id="Bow-Tie">
</g>
<g id="Wedding_Tiara">
</g>
<g id="Wedding_Bouquet">
</g>
<g id="Wedding_Decoration_1">
</g>
<g id="Wedding_Decoration_2">
</g>
<g id="Wedding_Way_Sign">
</g>
<g id="Wedding_Date">
</g>
<g id="Wedding_Invitation">
</g>
<g id="Wedding_Invitation_2">
</g>
<g id="Bride">
</g>
<g id="Groom">
</g>
<g id="Mariage_Couple">
</g>
<g id="Wedding_Planner_Book">
</g>
<g id="Wedding_Cake_1">
	<g>
		<g>
			<path d="M11.5,24c-0.276,0-0.5-0.224-0.5-0.5v-3c0-0.276,0.224-0.5,0.5-0.5s0.5,0.224,0.5,0.5v3C12,23.776,11.776,24,11.5,24z"/>
		</g>
		<g>
			<path d="M14.5,24h-6C8.224,24,8,23.776,8,23.5S8.224,23,8.5,23h6c0.276,0,0.5,0.224,0.5,0.5S14.776,24,14.5,24z"/>
		</g>
		<g>
			<path d="M18.671,21H4.329c-0.668,0-1.296-0.26-1.768-0.732l-0.414-0.414c-0.195-0.195-0.195-0.512,0-0.707s0.512-0.195,0.707,0
				l0.414,0.414C3.551,19.844,3.928,20,4.329,20h14.343c0.401,0,0.777-0.156,1.061-0.439l0.414-0.414
				c0.195-0.195,0.512-0.195,0.707,0s0.195,0.512,0,0.707l-0.414,0.414C19.967,20.74,19.339,21,18.671,21z"/>
		</g>
		<g>
			<path d="M18.5,21h-14C4.224,21,4,20.776,4,20.5v-3C4,15.57,5.57,14,7.5,14h8c1.93,0,3.5,1.57,3.5,3.5v3
				C19,20.776,18.776,21,18.5,21z M5,20h13v-2.5c0-1.379-1.122-2.5-2.5-2.5h-8C6.122,15,5,16.121,5,17.5V20z"/>
		</g>
		<g>
			<path d="M11.5,15c-0.276,0-0.5-0.224-0.5-0.5v-3c0-0.276,0.224-0.5,0.5-0.5s0.5,0.224,0.5,0.5v3C12,14.776,11.776,15,11.5,15z"/>
		</g>
		<g>
			<path d="M15.671,12H7.329c-0.668,0-1.296-0.26-1.768-0.732l-0.414-0.414c-0.195-0.195-0.195-0.512,0-0.707s0.512-0.195,0.707,0
				l0.414,0.414C6.551,10.844,6.928,11,7.329,11h8.343c0.401,0,0.777-0.156,1.061-0.439l0.414-0.414
				c0.195-0.195,0.512-0.195,0.707,0s0.195,0.512,0,0.707l-0.414,0.414C16.967,11.74,16.339,12,15.671,12z"/>
		</g>
		<g>
			<path d="M11.5,7C11.224,7,11,6.776,11,6.5v-3C11,3.224,11.224,3,11.5,3S12,3.224,12,3.5v3C12,6.776,11.776,7,11.5,7z"/>
		</g>
		<g>
			<path d="M13.671,4H9.329C8.661,4,8.033,3.74,7.561,3.268L7.146,2.854c-0.195-0.195-0.195-0.512,0-0.707s0.512-0.195,0.707,0
				l0.414,0.414C8.551,2.844,8.928,3,9.329,3h4.343c0.401,0,0.777-0.156,1.061-0.439l0.414-0.414c0.195-0.195,0.512-0.195,0.707,0
				s0.195,0.512,0,0.707l-0.414,0.414C14.967,3.74,14.339,4,13.671,4z"/>
		</g>
		<g>
			<path d="M15.5,12h-8C7.224,12,7,11.776,7,11.5v-3C7,7.121,8.122,6,9.5,6h4C14.878,6,16,7.121,16,8.5v3
				C16,11.776,15.776,12,15.5,12z M8,11h7V8.5C15,7.673,14.327,7,13.5,7h-4C8.673,7,8,7.673,8,8.5V11z"/>
		</g>
		<g>
			<path d="M13.5,4h-4C9.224,4,9,3.776,9,3.5v-2C9,0.673,9.673,0,10.5,0h2C13.327,0,14,0.673,14,1.5v2C14,3.776,13.776,4,13.5,4z
				 M10,3h3V1.5C13,1.225,12.776,1,12.5,1h-2C10.224,1,10,1.225,10,1.5V3z"/>
		</g>
		<g>
			<path d="M15.5,18c-0.486,0-0.958-0.227-1.364-0.657C13.988,17.187,13.758,17,13.5,17s-0.488,0.187-0.636,0.343
				c-0.812,0.861-1.916,0.861-2.728,0C9.988,17.187,9.758,17,9.5,17s-0.488,0.187-0.636,0.343c-0.812,0.861-1.916,0.861-2.728,0
				C5.988,17.187,5.758,17,5.5,17s-0.488,0.187-0.636,0.343c-0.19,0.2-0.506,0.211-0.707,0.021c-0.201-0.189-0.21-0.506-0.021-0.706
				c0.812-0.861,1.916-0.861,2.728,0C7.012,16.813,7.242,17,7.5,17s0.488-0.187,0.636-0.343c0.812-0.861,1.916-0.861,2.728,0
				C11.012,16.813,11.242,17,11.5,17s0.488-0.187,0.636-0.343c0.812-0.861,1.916-0.861,2.728,0C15.012,16.813,15.242,17,15.5,17
				s0.488-0.187,0.636-0.343c0.812-0.861,1.916-0.861,2.728,0c0.189,0.2,0.18,0.517-0.021,0.706c-0.201,0.19-0.517,0.18-0.707-0.021
				C17.988,17.187,17.758,17,17.5,17s-0.488,0.187-0.636,0.343C16.458,17.773,15.986,18,15.5,18z"/>
		</g>
		<g>
			<path d="M11.5,10c-0.486,0-0.958-0.227-1.364-0.657C9.988,9.187,9.758,9,9.5,9S9.011,9.187,8.863,9.343
				C8.457,9.773,7.985,10,7.5,10C7.223,10,7,9.776,7,9.5S7.223,9,7.5,9c0.258,0,0.488-0.187,0.637-0.344
				c0.811-0.859,1.916-0.86,2.727,0.001C11.011,8.813,11.241,9,11.5,9s0.488-0.187,0.636-0.343c0.812-0.861,1.916-0.861,2.728,0
				C15.011,8.813,15.242,9,15.5,9C15.776,9,16,9.224,16,9.5S15.776,10,15.5,10c-0.486,0-0.957-0.227-1.363-0.656
				C13.988,9.187,13.758,9,13.5,9s-0.488,0.187-0.636,0.343C12.458,9.773,11.986,10,11.5,10z"/>
		</g>
		<g>
			<path d="M11.5,2.5c-0.486,0-0.958-0.227-1.364-0.657C9.949,1.645,9.753,1.527,9.571,1.505C9.297,1.471,9.103,1.221,9.137,0.947
				s0.285-0.475,0.558-0.435c0.421,0.053,0.814,0.27,1.168,0.644C11.012,1.313,11.242,1.5,11.5,1.5s0.488-0.187,0.636-0.343
				c0.351-0.372,0.757-0.596,1.175-0.646c0.275-0.038,0.523,0.162,0.557,0.437c0.033,0.273-0.163,0.522-0.437,0.556
				c-0.183,0.022-0.38,0.14-0.568,0.339C12.458,2.273,11.986,2.5,11.5,2.5z"/>
		</g>
	</g>
</g>
<g id="Wedding_Cake_2">
</g>
<g id="Wedding_Cake_3">
</g>
<g id="Cake_Slice">
</g>
<g id="Marriage_Settlement">
</g>
<g id="Glass_Decoration">
</g>
<g id="Cutlery_Decoration">
</g>
<g id="Celebration_Glasses">
</g>
<g id="Wedding_Photo">
</g>
<g id="Wedding_Present_1">
</g>
<g id="Wedding_Present_2">
</g>
<g id="Wedding_Bouquet_2">
</g>
<g id="Hands_with_rings">
</g>
<g id="Wedding_Car">
</g>
<g id="Wedding_music">
</g>
<g id="wedding_party">
</g>
<g id="Confetti_1">
</g>
<g id="Confetti_2">
</g>
</svg>
