<?xml version="1.0" encoding="iso-8859-1"?>
<!-- Generator: Adobe Illustrator 19.2.1, SVG Export Plug-In . SVG Version: 6.00 Build 0)  -->
<svg version="1.1" xmlns="http://www.w3.org/2000/svg" xmlns:xlink="http://www.w3.org/1999/xlink" x="0px" y="0px"
	 viewBox="0 0 24 24" style="enable-background:new 0 0 24 24;" xml:space="preserve">
<g id="Engagement_1">
</g>
<g id="Engagement_2">
</g>
<g id="Wedding_Ring">
</g>
<g id="Church">
</g>
<g id="Church_Bells">
</g>
<g id="Wedding_Altar_1">
</g>
<g id="Wedding_Altar_2">
</g>
<g id="Bow-Tie">
</g>
<g id="Wedding_Tiara">
</g>
<g id="Wedding_Bouquet">
</g>
<g id="Wedding_Decoration_1">
</g>
<g id="Wedding_Decoration_2">
</g>
<g id="Wedding_Way_Sign">
</g>
<g id="Wedding_Date">
</g>
<g id="Wedding_Invitation">
</g>
<g id="Wedding_Invitation_2">
</g>
<g id="Bride">
</g>
<g id="Groom">
</g>
<g id="Mariage_Couple">
</g>
<g id="Wedding_Planner_Book">
</g>
<g id="Wedding_Cake_1">
</g>
<g id="Wedding_Cake_2">
</g>
<g id="Wedding_Cake_3">
</g>
<g id="Cake_Slice">
</g>
<g id="Marriage_Settlement">
</g>
<g id="Glass_Decoration">
</g>
<g id="Cutlery_Decoration">
</g>
<g id="Celebration_Glasses">
</g>
<g id="Wedding_Photo">
</g>
<g id="Wedding_Present_1">
</g>
<g id="Wedding_Present_2">
	<g>
		<g>
			<g>
				<path d="M22.5,21h-21C0.673,21,0,20.327,0,19.5v-13C0,5.673,0.673,5,1.5,5h12.013c0.276,0,0.5,0.224,0.5,0.5S13.79,6,13.513,6
					H1.5C1.224,6,1,6.225,1,6.5v13C1,19.775,1.224,20,1.5,20h21c0.276,0,0.5-0.225,0.5-0.5v-13C23,6.225,22.776,6,22.5,6h-1.025
					c-0.276,0-0.5-0.224-0.5-0.5s0.224-0.5,0.5-0.5H22.5C23.327,5,24,5.673,24,6.5v13C24,20.327,23.327,21,22.5,21z"/>
			</g>
			<g>
				<path d="M12,14.002c-0.516,0-1.032-0.16-1.473-0.48L0.46,6.242C0.237,6.08,0.187,5.768,0.348,5.544s0.475-0.273,0.698-0.112
					l10.069,7.28c0.529,0.385,1.238,0.386,1.766,0.001l2.33-1.643c0.226-0.16,0.537-0.106,0.697,0.12
					c0.159,0.226,0.105,0.537-0.121,0.696l-2.323,1.639C13.027,13.844,12.514,14.002,12,14.002z"/>
			</g>
			<g>
				<path d="M21.144,7.999c-0.157,0-0.312-0.074-0.409-0.212c-0.159-0.226-0.105-0.537,0.121-0.696l2.193-1.547
					c0.225-0.161,0.537-0.104,0.697,0.12c0.159,0.226,0.105,0.537-0.121,0.696l-2.193,1.547C21.344,7.97,21.243,7.999,21.144,7.999z
					"/>
			</g>
			<g>
				<path d="M0.767,20.682c-0.155,0-0.307-0.071-0.405-0.206C0.2,20.252,0.25,19.939,0.473,19.777l9.894-7.182
					c0.224-0.162,0.536-0.112,0.699,0.11c0.162,0.224,0.112,0.536-0.111,0.698l-9.894,7.182C0.972,20.65,0.869,20.682,0.767,20.682z
					"/>
			</g>
			<g>
				<path d="M15.498,15.069c-0.102,0-0.205-0.031-0.293-0.096l-2.161-1.569c-0.223-0.162-0.273-0.475-0.111-0.698
					s0.474-0.273,0.699-0.11l2.161,1.569c0.223,0.162,0.273,0.475,0.111,0.698C15.805,14.998,15.653,15.069,15.498,15.069z"/>
			</g>
			<g>
				<path d="M23.229,20.682c-0.102,0-0.205-0.031-0.293-0.096l-3.731-2.709c-0.223-0.162-0.273-0.475-0.111-0.698
					s0.473-0.273,0.699-0.11l3.731,2.709c0.223,0.162,0.273,0.475,0.111,0.698C23.536,20.61,23.384,20.682,23.229,20.682z"/>
			</g>
			<g>
				<path d="M17.496,9c-0.841,0-1.5-0.878-1.5-1.999s0.659-1.999,1.5-1.999s1.5,0.878,1.5,1.999S18.337,9,17.496,9z M17.496,6.002
					c-0.199,0-0.5,0.398-0.5,0.999c0,0.609,0.296,0.999,0.5,0.999s0.5-0.39,0.5-0.999C17.996,6.4,17.695,6.002,17.496,6.002z"/>
			</g>
			<g>
				<path d="M20.498,9.996c-0.189,0-0.38-0.031-0.562-0.097l-2.15-1.193c-0.241-0.135-0.328-0.439-0.193-0.681
					c0.135-0.241,0.438-0.327,0.68-0.192l2.075,1.159c0.174,0.054,0.416-0.02,0.545-0.131c0.084-0.072,0.118-0.152,0.101-0.237
					l-0.445-1.328c-0.047-0.216-0.047-0.374-0.016-0.529l0.477-1.452c0.001-0.025-0.033-0.105-0.117-0.178
					c-0.129-0.112-0.374-0.185-0.621-0.097l-1.998,1.129c-0.239,0.137-0.545,0.05-0.681-0.19c-0.135-0.241-0.049-0.546,0.191-0.681
					l2.074-1.164c0.628-0.234,1.261-0.123,1.688,0.246c0.355,0.307,0.516,0.752,0.428,1.189l-0.477,1.453l0.461,1.347
					c0.104,0.497-0.057,0.942-0.412,1.249C21.261,9.865,20.882,9.996,20.498,9.996z"/>
			</g>
			<g>
				<path d="M14.478,9.986c-0.391,0-0.752-0.13-1.027-0.368c-0.355-0.308-0.515-0.752-0.427-1.19l0.476-1.452l-0.46-1.347
					c-0.104-0.496,0.056-0.941,0.411-1.248c0.426-0.369,1.06-0.482,1.611-0.283l2.151,1.193c0.241,0.135,0.328,0.439,0.193,0.681
					c-0.136,0.241-0.44,0.326-0.68,0.192l-2.075-1.159c-0.171-0.053-0.415,0.019-0.545,0.132c-0.083,0.072-0.118,0.152-0.101,0.236
					l0.445,1.329c0.047,0.215,0.047,0.373,0.016,0.528l-0.476,1.453c-0.001,0.025,0.033,0.105,0.116,0.178
					c0.13,0.112,0.373,0.186,0.621,0.097l1.993-1.126c0.242-0.135,0.546-0.049,0.681,0.192c0.135,0.24,0.049,0.545-0.191,0.681
					l-2.069,1.16C14.915,9.947,14.692,9.986,14.478,9.986z"/>
			</g>
		</g>
		<g>
			<path d="M15.499,21c-0.276,0-0.5-0.224-0.5-0.5V9.091c0-0.276,0.224-0.5,0.5-0.5s0.5,0.224,0.5,0.5V20.5
				C15.999,20.776,15.775,21,15.499,21z"/>
		</g>
		<g>
			<path d="M19.499,21c-0.276,0-0.5-0.224-0.5-0.5V9.091c0-0.276,0.224-0.5,0.5-0.5s0.5,0.224,0.5,0.5V20.5
				C19.999,20.776,19.775,21,19.499,21z"/>
		</g>
	</g>
</g>
<g id="Wedding_Bouquet_2">
</g>
<g id="Hands_with_rings">
</g>
<g id="Wedding_Car">
</g>
<g id="Wedding_music">
</g>
<g id="wedding_party">
</g>
<g id="Confetti_1">
</g>
<g id="Confetti_2">
</g>
</svg>
