<?xml version="1.0" encoding="iso-8859-1"?>
<!-- Generator: Adobe Illustrator 19.2.1, SVG Export Plug-In . SVG Version: 6.00 Build 0)  -->
<svg version="1.1" xmlns="http://www.w3.org/2000/svg" xmlns:xlink="http://www.w3.org/1999/xlink" x="0px" y="0px"
	 viewBox="0 0 24 24" style="enable-background:new 0 0 24 24;" xml:space="preserve">
<g id="Engagement_1">
</g>
<g id="Engagement_2">
</g>
<g id="Wedding_Ring">
</g>
<g id="Church">
</g>
<g id="Church_Bells">
</g>
<g id="Wedding_Altar_1">
</g>
<g id="Wedding_Altar_2">
</g>
<g id="Bow-Tie">
</g>
<g id="Wedding_Tiara">
</g>
<g id="Wedding_Bouquet">
</g>
<g id="Wedding_Decoration_1">
</g>
<g id="Wedding_Decoration_2">
</g>
<g id="Wedding_Way_Sign">
</g>
<g id="Wedding_Date">
</g>
<g id="Wedding_Invitation">
	<g>
		<g>
			<path d="M23.236,23.675c-0.102,0-0.204-0.031-0.293-0.095l-10.061-7.292c-0.529-0.384-1.238-0.384-1.765,0L1.058,23.58
				c-0.225,0.163-0.537,0.112-0.698-0.111c-0.162-0.224-0.112-0.536,0.111-0.698l10.06-7.292c0.879-0.639,2.06-0.639,2.94,0
				l10.06,7.292c0.224,0.162,0.273,0.475,0.111,0.698C23.544,23.603,23.391,23.675,23.236,23.675z"/>
		</g>
		<g>
			<path d="M13.339,16.5c-0.155,0-0.308-0.072-0.406-0.207c-0.162-0.224-0.112-0.536,0.112-0.698l10.116-7.322
				c0.223-0.161,0.536-0.112,0.698,0.112c0.162,0.224,0.112,0.536-0.112,0.698l-10.116,7.322C13.543,16.469,13.441,16.5,13.339,16.5
				z"/>
		</g>
		<g>
			<path d="M10.661,16.5c-0.102,0-0.204-0.031-0.292-0.095L0.252,9.083C0.028,8.921-0.021,8.608,0.141,8.385
				C0.302,8.161,0.615,8.11,0.838,8.273l10.116,7.322c0.224,0.162,0.274,0.474,0.112,0.698C10.968,16.428,10.815,16.5,10.661,16.5z"
				/>
		</g>
		<g>
			<path d="M22.5,24h-21C0.673,24,0,23.327,0,22.5V8.968c0-0.446,0.197-0.867,0.54-1.152l1.64-1.367
				c0.213-0.177,0.528-0.147,0.705,0.064C3.061,6.726,3.032,7.041,2.82,7.218L1.18,8.584C1.065,8.68,1,8.819,1,8.968V22.5
				C1,22.776,1.224,23,1.5,23h21c0.276,0,0.5-0.224,0.5-0.5V8.968c0-0.149-0.065-0.289-0.18-0.384L21.18,7.218
				c-0.212-0.177-0.241-0.492-0.064-0.705c0.176-0.211,0.491-0.241,0.705-0.064l1.64,1.367C23.803,8.102,24,8.522,24,8.968V22.5
				C24,23.327,23.327,24,22.5,24z"/>
		</g>
		<g>
			<path d="M21.5,10.593c-0.276,0-0.5-0.224-0.5-0.5V1H3v9.087c0,0.276-0.224,0.5-0.5,0.5S2,10.364,2,10.087V0.5
				C2,0.224,2.224,0,2.5,0h19C21.776,0,22,0.224,22,0.5v9.593C22,10.37,21.776,10.593,21.5,10.593z"/>
		</g>
		<g>
			<path d="M9.5,12C7.019,12,5,9.981,5,7.5S7.019,3,9.5,3c0.191,0,0.38,0.012,0.565,0.035c0.274,0.034,0.469,0.284,0.435,0.558
				c-0.034,0.274-0.276,0.476-0.558,0.435C9.797,4.009,9.649,4,9.5,4C7.57,4,6,5.57,6,7.5S7.57,11,9.5,11S13,9.43,13,7.5
				c0-0.46-0.088-0.908-0.261-1.33c-0.105-0.255,0.017-0.548,0.272-0.652c0.253-0.106,0.548,0.017,0.652,0.272
				C13.887,6.334,14,6.909,14,7.5C14,9.981,11.981,12,9.5,12z"/>
		</g>
		<g>
			<path d="M14.5,12c-0.191,0-0.38-0.012-0.565-0.035c-0.274-0.034-0.469-0.284-0.435-0.558c0.034-0.274,0.285-0.472,0.558-0.435
				C14.203,10.991,14.351,11,14.5,11c1.93,0,3.5-1.57,3.5-3.5S16.43,4,14.5,4S11,5.57,11,7.5c0,0.46,0.088,0.907,0.261,1.329
				c0.105,0.255-0.017,0.547-0.272,0.652c-0.254,0.104-0.548-0.017-0.652-0.272C10.113,8.666,10,8.091,10,7.5
				C10,5.019,12.019,3,14.5,3S19,5.019,19,7.5S16.981,12,14.5,12z"/>
		</g>
	</g>
</g>
<g id="Wedding_Invitation_2">
</g>
<g id="Bride">
</g>
<g id="Groom">
</g>
<g id="Mariage_Couple">
</g>
<g id="Wedding_Planner_Book">
</g>
<g id="Wedding_Cake_1">
</g>
<g id="Wedding_Cake_2">
</g>
<g id="Wedding_Cake_3">
</g>
<g id="Cake_Slice">
</g>
<g id="Marriage_Settlement">
</g>
<g id="Glass_Decoration">
</g>
<g id="Cutlery_Decoration">
</g>
<g id="Celebration_Glasses">
</g>
<g id="Wedding_Photo">
</g>
<g id="Wedding_Present_1">
</g>
<g id="Wedding_Present_2">
</g>
<g id="Wedding_Bouquet_2">
</g>
<g id="Hands_with_rings">
</g>
<g id="Wedding_Car">
</g>
<g id="Wedding_music">
</g>
<g id="wedding_party">
</g>
<g id="Confetti_1">
</g>
<g id="Confetti_2">
</g>
</svg>
