<?xml version="1.0" encoding="iso-8859-1"?>
<!-- Generator: Adobe Illustrator 19.2.1, SVG Export Plug-In . SVG Version: 6.00 Build 0)  -->
<svg version="1.1" xmlns="http://www.w3.org/2000/svg" xmlns:xlink="http://www.w3.org/1999/xlink" x="0px" y="0px"
	 viewBox="0 0 24 24" style="enable-background:new 0 0 24 24;" xml:space="preserve">
<g id="Engagement_1">
</g>
<g id="Engagement_2">
</g>
<g id="Wedding_Ring">
</g>
<g id="Church">
</g>
<g id="Church_Bells">
</g>
<g id="Wedding_Altar_1">
</g>
<g id="Wedding_Altar_2">
</g>
<g id="Bow-Tie">
</g>
<g id="Wedding_Tiara">
</g>
<g id="Wedding_Bouquet">
</g>
<g id="Wedding_Decoration_1">
</g>
<g id="Wedding_Decoration_2">
</g>
<g id="Wedding_Way_Sign">
</g>
<g id="Wedding_Date">
</g>
<g id="Wedding_Invitation">
</g>
<g id="Wedding_Invitation_2">
</g>
<g id="Bride">
</g>
<g id="Groom">
</g>
<g id="Mariage_Couple">
</g>
<g id="Wedding_Planner_Book">
</g>
<g id="Wedding_Cake_1">
</g>
<g id="Wedding_Cake_2">
</g>
<g id="Wedding_Cake_3">
</g>
<g id="Cake_Slice">
</g>
<g id="Marriage_Settlement">
</g>
<g id="Glass_Decoration">
</g>
<g id="Cutlery_Decoration">
</g>
<g id="Celebration_Glasses">
</g>
<g id="Wedding_Photo">
</g>
<g id="Wedding_Present_1">
</g>
<g id="Wedding_Present_2">
</g>
<g id="Wedding_Bouquet_2">
</g>
<g id="Hands_with_rings">
</g>
<g id="Wedding_Car">
</g>
<g id="Wedding_music">
</g>
<g id="wedding_party">
	<g>
		<g>
			<path d="M5.5,3.5C5.224,3.5,5,3.276,5,3V1c0-0.276,0.224-0.5,0.5-0.5S6,0.724,6,1v2C6,3.276,5.776,3.5,5.5,3.5z"/>
		</g>
		<g>
			<path d="M13.5,3.5C13.224,3.5,13,3.276,13,3V1c0-0.276,0.224-0.5,0.5-0.5S14,0.724,14,1v2C14,3.276,13.776,3.5,13.5,3.5z"/>
		</g>
		<g>
			<path d="M11.5,2.5h-4C7.224,2.5,7,2.276,7,2s0.224-0.5,0.5-0.5h4C11.776,1.5,12,1.724,12,2S11.776,2.5,11.5,2.5z"/>
		</g>
		<g>
			<path d="M18.5,5.5h-18C0.224,5.5,0,5.276,0,5s0.224-0.5,0.5-0.5h18C18.776,4.5,19,4.724,19,5S18.776,5.5,18.5,5.5z"/>
		</g>
		<g>
			<path d="M11.5,19.5h-8C1.57,19.5,0,17.93,0,16V5c0-1.93,1.57-3.5,3.5-3.5h12C17.43,1.5,19,3.07,19,5v7c0,0.276-0.224,0.5-0.5,0.5
				S18,12.276,18,12V5c0-1.379-1.121-2.5-2.5-2.5h-12C2.121,2.5,1,3.621,1,5v11c0,1.379,1.121,2.5,2.5,2.5h8
				c0.276,0,0.5,0.224,0.5,0.5S11.776,19.5,11.5,19.5z"/>
		</g>
		<g>
			<path d="M15.5,10.5h-2c-0.276,0-0.5-0.224-0.5-0.5V8c0-0.276,0.224-0.5,0.5-0.5S14,7.724,14,8v1.5h1.5c0.276,0,0.5,0.224,0.5,0.5
				S15.776,10.5,15.5,10.5z"/>
		</g>
		<g>
			<path d="M15.5,10.5c-0.276,0-0.5-0.224-0.5-0.5V9.207L14.293,8.5H13.5C13.224,8.5,13,8.276,13,8s0.224-0.5,0.5-0.5h1
				c0.133,0,0.26,0.053,0.354,0.146l1,1C15.947,8.74,16,8.867,16,9v1C16,10.276,15.776,10.5,15.5,10.5z"/>
		</g>
		<g>
			<path d="M7.5,15.5C5.57,15.5,4,13.93,4,12s1.57-3.5,3.5-3.5C7.776,8.5,8,8.724,8,9S7.776,9.5,7.5,9.5C6.121,9.5,5,10.621,5,12
				s1.121,2.5,2.5,2.5S10,13.379,10,12c0-0.276,0.224-0.5,0.5-0.5S11,11.724,11,12C11,13.93,9.43,15.5,7.5,15.5z"/>
		</g>
		<g>
			<path d="M11.5,15.5c-0.276,0-0.5-0.224-0.5-0.5s0.224-0.5,0.5-0.5c1.379,0,2.5-1.121,2.5-2.5s-1.121-2.5-2.5-2.5S9,10.621,9,12
				c0,0.276-0.224,0.5-0.5,0.5S8,12.276,8,12c0-1.93,1.57-3.5,3.5-3.5S15,10.07,15,12S13.43,15.5,11.5,15.5z"/>
		</g>
		<g>
			<path d="M23.5,23.5h-8c-0.231,0-0.432-0.159-0.485-0.384c-0.054-0.226,0.054-0.458,0.261-0.563C15.428,22.477,19,20.615,19,16
				c0-0.227,0.152-0.425,0.372-0.483c0.215-0.054,0.45,0.039,0.563,0.235l4,7c0.088,0.154,0.087,0.345-0.002,0.499
				C23.843,23.405,23.679,23.5,23.5,23.5z M17.081,22.5h5.558l-2.779-4.864C19.432,20.037,18.115,21.604,17.081,22.5z"/>
		</g>
		<g>
			<path d="M15.5,23.5c-0.276,0-0.5-0.224-0.5-0.5c0-5.78,4.147-7.402,4.324-7.468c0.254-0.1,0.544,0.032,0.643,0.291
				c0.098,0.258-0.032,0.546-0.289,0.645C19.527,16.525,16,17.936,16,23C16,23.276,15.776,23.5,15.5,23.5z"/>
		</g>
		<g>
			<path d="M13.5,21.5h-1c-0.276,0-0.5-0.224-0.5-0.5s0.224-0.5,0.5-0.5h1c0.276,0,0.5,0.224,0.5,0.5S13.776,21.5,13.5,21.5z"/>
		</g>
		<g>
			<path d="M17.5,15.5c-0.276,0-0.5-0.224-0.5-0.5v-1c0-0.276,0.224-0.5,0.5-0.5S18,13.724,18,14v1C18,15.276,17.776,15.5,17.5,15.5
				z"/>
		</g>
		<g>
			<path d="M15.5,18.5c-0.128,0-0.256-0.049-0.354-0.146l-1-1c-0.195-0.195-0.195-0.512,0-0.707s0.512-0.195,0.707,0l1,1
				c0.195,0.195,0.195,0.512,0,0.707C15.756,18.451,15.628,18.5,15.5,18.5z"/>
		</g>
		<g>
			<circle cx="15.5" cy="15" r="0.5"/>
		</g>
		<g>
			<circle cx="13.5" cy="19" r="0.5"/>
		</g>
	</g>
</g>
<g id="Confetti_1">
</g>
<g id="Confetti_2">
</g>
</svg>
