<?xml version="1.0" encoding="iso-8859-1"?>
<!-- Generator: Adobe Illustrator 19.2.1, SVG Export Plug-In . SVG Version: 6.00 Build 0)  -->
<svg version="1.1" xmlns="http://www.w3.org/2000/svg" xmlns:xlink="http://www.w3.org/1999/xlink" x="0px" y="0px"
	 viewBox="0 0 24 24" style="enable-background:new 0 0 24 24;" xml:space="preserve">
<g id="Engagement_1">
</g>
<g id="Engagement_2">
</g>
<g id="Wedding_Ring">
</g>
<g id="Church">
</g>
<g id="Church_Bells">
</g>
<g id="Wedding_Altar_1">
</g>
<g id="Wedding_Altar_2">
</g>
<g id="Bow-Tie">
</g>
<g id="Wedding_Tiara">
</g>
<g id="Wedding_Bouquet">
</g>
<g id="Wedding_Decoration_1">
</g>
<g id="Wedding_Decoration_2">
</g>
<g id="Wedding_Way_Sign">
</g>
<g id="Wedding_Date">
</g>
<g id="Wedding_Invitation">
</g>
<g id="Wedding_Invitation_2">
</g>
<g id="Bride">
</g>
<g id="Groom">
</g>
<g id="Mariage_Couple">
</g>
<g id="Wedding_Planner_Book">
</g>
<g id="Wedding_Cake_1">
</g>
<g id="Wedding_Cake_2">
	<g>
		<g>
			<path d="M21.5,24h-19C2.224,24,2,23.776,2,23.5v-4.486c0-0.276,0.224-0.5,0.5-0.5s0.5,0.224,0.5,0.5V23h18v-3.986
				c0-0.276,0.224-0.5,0.5-0.5s0.5,0.224,0.5,0.5V23.5C22,23.776,21.776,24,21.5,24z"/>
		</g>
		<g>
			<path d="M4.006,20.015c-0.262,0-0.528-0.034-0.795-0.103C1.909,19.573,1,18.327,1,16.883C1,15.844,1.843,15,2.88,15h18.252
				C22.162,15,23,15.838,23,16.868c0,1.577-1.119,2.913-2.603,3.106c-0.88,0.111-1.76-0.169-2.405-0.755
				c-0.443,0.42-0.989,0.687-1.584,0.767c-0.898,0.121-1.76-0.154-2.408-0.744c-1.092,0.99-2.909,0.99-4,0
				c-1.091,0.99-2.909,0.992-4,0C5.45,19.744,4.748,20.015,4.006,20.015z M14,18c0.158,0,0.307,0.074,0.401,0.201
				c0.443,0.596,1.142,0.894,1.874,0.794c0.513-0.068,0.976-0.359,1.303-0.817c0.093-0.131,0.244-0.209,0.404-0.21
				c0.001,0,0.001,0,0.002,0c0.16,0,0.31,0.076,0.404,0.205c0.439,0.603,1.144,0.906,1.88,0.81C21.239,18.856,22,17.928,22,16.868
				C22,16.39,21.61,16,21.132,16H2.88C2.395,16,2,16.395,2,16.88c0,0.977,0.615,1.844,1.462,2.064
				c0.821,0.211,1.638-0.072,2.137-0.743C5.693,18.074,5.842,18,6,18l0,0c0.158,0,0.307,0.075,0.401,0.201
				c0.768,1.033,2.43,1.033,3.197,0c0.189-0.252,0.613-0.252,0.803,0c0.768,1.033,2.43,1.033,3.197,0C13.693,18.075,13.842,18,14,18
				z"/>
		</g>
		<g>
			<path d="M6.002,12c-0.135,0-0.272-0.009-0.41-0.026C4.114,11.775,3,10.441,3,8.869C3,7.839,3.838,7,4.869,7h14.262
				C20.162,7,21,7.839,21,8.869c0,1.572-1.114,2.906-2.592,3.104c-0.895,0.12-1.76-0.154-2.408-0.744c-1.092,0.99-2.909,0.99-4,0
				c-1.091,0.99-2.908,0.99-4,0C7.452,11.728,6.748,12,6.002,12z M4.869,8C4.39,8,4,8.39,4,8.869c0,1.073,0.742,1.981,1.725,2.113
				c0.729,0.093,1.431-0.199,1.874-0.795C7.693,10.061,7.842,9.986,8,9.986l0,0c0.158,0,0.307,0.075,0.401,0.201
				c0.768,1.033,2.43,1.033,3.197,0c0.189-0.252,0.613-0.252,0.803,0c0.768,1.033,2.43,1.033,3.197,0
				c0.189-0.251,0.614-0.254,0.802,0c0.443,0.596,1.145,0.896,1.875,0.794C19.258,10.851,20,9.942,20,8.869
				C20,8.39,19.61,8,19.131,8H4.869z"/>
		</g>
		<g>
			<path d="M8.002,5C7.867,5,7.73,4.991,7.593,4.974C6.114,4.775,5,3.441,5,1.869C5,0.839,5.838,0,6.869,0h10.262
				C18.162,0,19,0.839,19,1.869c0,1.572-1.114,2.906-2.592,3.104c-0.895,0.12-1.76-0.154-2.408-0.744c-1.092,0.99-2.908,0.99-4,0
				C9.452,4.728,8.748,5,8.002,5z M6.869,1C6.39,1,6,1.39,6,1.869c0,1.073,0.742,1.981,1.725,2.113
				c0.728,0.094,1.431-0.2,1.874-0.795C9.693,3.061,9.842,2.986,10,2.986l0,0c0.158,0,0.307,0.075,0.401,0.201
				c0.768,1.033,2.43,1.033,3.197,0c0.189-0.251,0.614-0.253,0.802,0c0.443,0.595,1.145,0.896,1.875,0.794
				C17.258,3.851,18,2.942,18,1.869C18,1.39,17.61,1,17.131,1H6.869z"/>
		</g>
		<g>
			<path d="M4.5,16C4.224,16,4,15.776,4,15.5V11c0-0.276,0.224-0.5,0.5-0.5S5,10.724,5,11v4.5C5,15.776,4.776,16,4.5,16z"/>
		</g>
		<g>
			<path d="M19.5,16c-0.276,0-0.5-0.224-0.5-0.5V11c0-0.276,0.224-0.5,0.5-0.5S20,10.724,20,11v4.5C20,15.776,19.776,16,19.5,16z"/>
		</g>
		<g>
			<path d="M6.5,8C6.224,8,6,7.776,6,7.5V4c0-0.276,0.224-0.5,0.5-0.5S7,3.724,7,4v3.5C7,7.776,6.776,8,6.5,8z"/>
		</g>
		<g>
			<path d="M17.5,8C17.224,8,17,7.776,17,7.5V4c0-0.276,0.224-0.5,0.5-0.5S18,3.724,18,4v3.5C18,7.776,17.776,8,17.5,8z"/>
		</g>
	</g>
</g>
<g id="Wedding_Cake_3">
</g>
<g id="Cake_Slice">
</g>
<g id="Marriage_Settlement">
</g>
<g id="Glass_Decoration">
</g>
<g id="Cutlery_Decoration">
</g>
<g id="Celebration_Glasses">
</g>
<g id="Wedding_Photo">
</g>
<g id="Wedding_Present_1">
</g>
<g id="Wedding_Present_2">
</g>
<g id="Wedding_Bouquet_2">
</g>
<g id="Hands_with_rings">
</g>
<g id="Wedding_Car">
</g>
<g id="Wedding_music">
</g>
<g id="wedding_party">
</g>
<g id="Confetti_1">
</g>
<g id="Confetti_2">
</g>
</svg>
