<?xml version="1.0" encoding="iso-8859-1"?>
<!-- Generator: Adobe Illustrator 19.2.1, SVG Export Plug-In . SVG Version: 6.00 Build 0)  -->
<svg version="1.1" xmlns="http://www.w3.org/2000/svg" xmlns:xlink="http://www.w3.org/1999/xlink" x="0px" y="0px"
	 viewBox="0 0 24 24" style="enable-background:new 0 0 24 24;" xml:space="preserve">
<g id="Engagement_1">
</g>
<g id="Engagement_2">
</g>
<g id="Wedding_Ring">
</g>
<g id="Church">
</g>
<g id="Church_Bells">
</g>
<g id="Wedding_Altar_1">
</g>
<g id="Wedding_Altar_2">
</g>
<g id="Bow-Tie">
</g>
<g id="Wedding_Tiara">
</g>
<g id="Wedding_Bouquet">
</g>
<g id="Wedding_Decoration_1">
	<g>
		<g>
			<path d="M6.5,13.25c-0.052,0-0.105-0.008-0.158-0.025C2.548,11.965,0,8.084,0,5.25c0-0.276,0.224-0.5,0.5-0.5S1,4.974,1,5.25
				c0,2.435,2.323,5.918,5.658,7.025c0.262,0.087,0.404,0.37,0.317,0.632C6.905,13.117,6.709,13.25,6.5,13.25z"/>
		</g>
		<g>
			<path d="M17.5,13.25c-0.209,0-0.405-0.133-0.475-0.342c-0.087-0.262,0.055-0.545,0.317-0.632C20.677,11.168,23,7.685,23,5.25
				c0-0.276,0.224-0.5,0.5-0.5S24,4.974,24,5.25c0,2.834-2.548,6.715-6.342,7.975C17.605,13.242,17.552,13.25,17.5,13.25z"/>
		</g>
		<g>
			<path d="M12,11.75c-0.827,0-1.5-0.673-1.5-1.5s0.673-1.5,1.5-1.5s1.5,0.673,1.5,1.5S12.827,11.75,12,11.75z M12,9.75
				c-0.276,0-0.5,0.224-0.5,0.5s0.224,0.5,0.5,0.5s0.5-0.224,0.5-0.5S12.276,9.75,12,9.75z"/>
		</g>
		<g>
			<path d="M8.721,18.249c-0.049,0-0.099-0.007-0.148-0.022C3.525,16.66,0,11.736,0,6.25v-1.5c0-0.276,0.224-0.5,0.5-0.5
				S1,4.474,1,4.75c0,2.331,4.781,4.701,10.031,4.973c0.266,0.014,0.474,0.233,0.474,0.5c0,0.034-0.005,0.075-0.013,0.113
				c-0.051,0.3-0.408,0.49-0.683,0.377c-3.868-0.233-7.925-1.576-9.778-3.595c0.346,4.696,3.471,8.799,7.837,10.153
				c0.264,0.082,0.412,0.362,0.33,0.625C9.132,18.111,8.935,18.249,8.721,18.249z"/>
		</g>
		<g>
			<path d="M15.303,18.242c-0.213,0-0.41-0.137-0.477-0.351c-0.083-0.264,0.064-0.544,0.328-0.626
				c4.354-1.361,7.47-5.462,7.815-10.148c-1.852,2.018-5.91,3.361-9.778,3.596c-0.274,0.113-0.632-0.078-0.683-0.378
				c-0.008-0.038-0.013-0.078-0.013-0.112c0-0.266,0.208-0.485,0.474-0.5C18.219,9.449,23,7.079,23,4.75c0-0.276,0.224-0.5,0.5-0.5
				S24,4.474,24,4.75v1.5c0,5.474-3.515,10.396-8.548,11.969C15.402,18.235,15.352,18.242,15.303,18.242z"/>
		</g>
		<g>
			<path d="M12.01,19.75c-0.52,0-0.931-0.307-1.26-0.553c-0.165-0.124-0.321-0.24-0.455-0.295c-0.146-0.061-0.346-0.091-0.559-0.123
				c-0.422-0.064-0.9-0.136-1.254-0.49s-0.426-0.832-0.49-1.253c-0.032-0.212-0.063-0.414-0.123-0.559
				c-0.056-0.134-0.172-0.29-0.295-0.456c-0.246-0.33-0.553-0.74-0.553-1.261c0-0.52,0.307-0.931,0.553-1.26
				c0.124-0.165,0.24-0.321,0.295-0.455c0.061-0.146,0.091-0.347,0.123-0.56c0.064-0.422,0.136-0.899,0.49-1.253
				s0.832-0.426,1.253-0.49c0.212-0.032,0.414-0.063,0.559-0.123c0.136-0.056,0.294-0.174,0.462-0.3l0.351,0.362l0.248,0.439
				c-0.209,0.156-0.426,0.318-0.677,0.422c-0.258,0.107-0.53,0.148-0.792,0.188c-0.283,0.043-0.575,0.087-0.696,0.208
				c-0.121,0.122-0.166,0.414-0.208,0.696c-0.04,0.262-0.081,0.534-0.188,0.793c-0.104,0.249-0.263,0.463-0.418,0.67
				C8.192,14.342,8.02,14.572,8.02,14.76c0,0.188,0.172,0.418,0.354,0.663c0.155,0.207,0.314,0.421,0.418,0.67
				c0.107,0.258,0.148,0.53,0.188,0.792c0.043,0.283,0.087,0.575,0.208,0.696c0.122,0.122,0.414,0.166,0.697,0.208
				c0.262,0.04,0.533,0.081,0.792,0.188c0.25,0.104,0.464,0.264,0.671,0.418c0.244,0.182,0.474,0.354,0.662,0.354
				c0.188,0,0.419-0.172,0.663-0.354c0.207-0.155,0.42-0.314,0.669-0.418c0.259-0.107,0.53-0.148,0.792-0.188
				c0.283-0.043,0.575-0.087,0.697-0.208s0.166-0.414,0.208-0.697c0.04-0.262,0.081-0.533,0.188-0.792
				c0.104-0.25,0.263-0.463,0.418-0.67C15.828,15.179,16,14.948,16,14.76c0-0.188-0.172-0.418-0.354-0.662
				c-0.154-0.207-0.314-0.421-0.418-0.67c-0.107-0.259-0.148-0.53-0.188-0.792c-0.043-0.283-0.087-0.575-0.208-0.697
				c-0.122-0.121-0.414-0.166-0.696-0.208c-0.262-0.04-0.534-0.081-0.793-0.188c-0.25-0.104-0.465-0.265-0.674-0.42
				c-0.221-0.165-0.3-0.503-0.136-0.724c0.165-0.222,0.443-0.292,0.665-0.129c0.235,0.176,0.393,0.293,0.528,0.349
				c0.146,0.061,0.347,0.091,0.56,0.123c0.422,0.064,0.899,0.136,1.253,0.49s0.426,0.832,0.49,1.254
				c0.032,0.212,0.062,0.413,0.123,0.559c0.056,0.133,0.172,0.29,0.295,0.455C16.693,13.829,17,14.239,17,14.76
				s-0.307,0.931-0.553,1.261c-0.124,0.165-0.24,0.321-0.295,0.455c-0.061,0.146-0.091,0.346-0.123,0.558
				c-0.064,0.422-0.136,0.9-0.49,1.254s-0.832,0.426-1.254,0.49c-0.212,0.032-0.413,0.062-0.559,0.123
				c-0.133,0.056-0.29,0.172-0.455,0.295C12.941,19.443,12.53,19.75,12.01,19.75z"/>
		</g>
		<g>
			<path d="M11.994,16.772c-0.101,0-0.202-0.03-0.288-0.091c-0.094-0.066-0.238-0.162-0.409-0.233
				c-0.131-0.055-0.276-0.095-0.456-0.127c-0.206-0.037-0.367-0.199-0.403-0.404c-0.032-0.178-0.072-0.323-0.127-0.456
				c-0.069-0.167-0.164-0.31-0.229-0.403c-0.122-0.173-0.121-0.405,0.002-0.577c0.069-0.097,0.168-0.245,0.241-0.419
				c0.055-0.133,0.095-0.278,0.127-0.455c0.037-0.206,0.197-0.367,0.403-0.404c0.114-0.021,0.286-0.056,0.457-0.127
				c0.169-0.07,0.314-0.167,0.409-0.233c0.173-0.121,0.402-0.121,0.575,0c0.103,0.072,0.242,0.164,0.41,0.234
				c0.171,0.071,0.342,0.106,0.456,0.127c0.206,0.038,0.366,0.199,0.403,0.404c0.032,0.178,0.072,0.323,0.127,0.455
				c0.069,0.168,0.164,0.311,0.229,0.404c0.122,0.174,0.121,0.405-0.002,0.578c-0.068,0.096-0.167,0.243-0.241,0.42
				c-0.055,0.132-0.095,0.277-0.126,0.454c-0.037,0.206-0.197,0.367-0.403,0.404c-0.18,0.032-0.325,0.073-0.457,0.127
				c-0.171,0.07-0.314,0.167-0.408,0.232C12.196,16.742,12.095,16.772,11.994,16.772z M11.347,15.411
				c0.117,0.032,0.226,0.07,0.333,0.114c0.116,0.048,0.221,0.102,0.313,0.155c0.105-0.061,0.209-0.111,0.315-0.155
				c0.105-0.043,0.214-0.081,0.332-0.113c0.032-0.116,0.069-0.226,0.112-0.33c0.046-0.112,0.101-0.221,0.165-0.331
				c-0.052-0.091-0.104-0.193-0.15-0.305c-0.043-0.105-0.082-0.215-0.114-0.333c-0.103-0.028-0.215-0.065-0.332-0.113
				c-0.116-0.048-0.221-0.102-0.314-0.155c-0.093,0.053-0.198,0.107-0.313,0.155c-0.117,0.048-0.23,0.085-0.333,0.114
				c-0.032,0.117-0.07,0.227-0.113,0.332c-0.05,0.122-0.107,0.232-0.164,0.33c0.051,0.09,0.104,0.192,0.15,0.304
				C11.277,15.183,11.315,15.293,11.347,15.411z"/>
		</g>
	</g>
</g>
<g id="Wedding_Decoration_2">
</g>
<g id="Wedding_Way_Sign">
</g>
<g id="Wedding_Date">
</g>
<g id="Wedding_Invitation">
</g>
<g id="Wedding_Invitation_2">
</g>
<g id="Bride">
</g>
<g id="Groom">
</g>
<g id="Mariage_Couple">
</g>
<g id="Wedding_Planner_Book">
</g>
<g id="Wedding_Cake_1">
</g>
<g id="Wedding_Cake_2">
</g>
<g id="Wedding_Cake_3">
</g>
<g id="Cake_Slice">
</g>
<g id="Marriage_Settlement">
</g>
<g id="Glass_Decoration">
</g>
<g id="Cutlery_Decoration">
</g>
<g id="Celebration_Glasses">
</g>
<g id="Wedding_Photo">
</g>
<g id="Wedding_Present_1">
</g>
<g id="Wedding_Present_2">
</g>
<g id="Wedding_Bouquet_2">
</g>
<g id="Hands_with_rings">
</g>
<g id="Wedding_Car">
</g>
<g id="Wedding_music">
</g>
<g id="wedding_party">
</g>
<g id="Confetti_1">
</g>
<g id="Confetti_2">
</g>
</svg>
