<?xml version="1.0" encoding="iso-8859-1"?>
<!-- Generator: Adobe Illustrator 19.2.1, SVG Export Plug-In . SVG Version: 6.00 Build 0)  -->
<svg version="1.1" xmlns="http://www.w3.org/2000/svg" xmlns:xlink="http://www.w3.org/1999/xlink" x="0px" y="0px"
	 viewBox="0 0 24 24" style="enable-background:new 0 0 24 24;" xml:space="preserve">
<g id="Engagement_1">
</g>
<g id="Engagement_2">
</g>
<g id="Wedding_Ring">
</g>
<g id="Church">
</g>
<g id="Church_Bells">
</g>
<g id="Wedding_Altar_1">
</g>
<g id="Wedding_Altar_2">
</g>
<g id="Bow-Tie">
</g>
<g id="Wedding_Tiara">
</g>
<g id="Wedding_Bouquet">
</g>
<g id="Wedding_Decoration_1">
</g>
<g id="Wedding_Decoration_2">
</g>
<g id="Wedding_Way_Sign">
</g>
<g id="Wedding_Date">
</g>
<g id="Wedding_Invitation">
</g>
<g id="Wedding_Invitation_2">
</g>
<g id="Bride">
</g>
<g id="Groom">
</g>
<g id="Mariage_Couple">
</g>
<g id="Wedding_Planner_Book">
</g>
<g id="Wedding_Cake_1">
</g>
<g id="Wedding_Cake_2">
</g>
<g id="Wedding_Cake_3">
</g>
<g id="Cake_Slice">
</g>
<g id="Marriage_Settlement">
</g>
<g id="Glass_Decoration">
</g>
<g id="Cutlery_Decoration">
</g>
<g id="Celebration_Glasses">
</g>
<g id="Wedding_Photo">
</g>
<g id="Wedding_Present_1">
</g>
<g id="Wedding_Present_2">
</g>
<g id="Wedding_Bouquet_2">
</g>
<g id="Hands_with_rings">
</g>
<g id="Wedding_Car">
</g>
<g id="Wedding_music">
	<g>
		<g>
			<path d="M6.5,4C6.224,4,6,3.776,6,3.5v-2C6,1.224,6.224,1,6.5,1S7,1.224,7,1.5v2C7,3.776,6.776,4,6.5,4z"/>
		</g>
		<g>
			<path d="M14.5,4C14.224,4,14,3.776,14,3.5v-2C14,1.224,14.224,1,14.5,1S15,1.224,15,1.5v2C15,3.776,14.776,4,14.5,4z"/>
		</g>
		<g>
			<path d="M12.5,3h-4C8.224,3,8,2.776,8,2.5S8.224,2,8.5,2h4C12.776,2,13,2.224,13,2.5S12.776,3,12.5,3z"/>
		</g>
		<g>
			<path d="M19.5,6h-18C1.224,6,1,5.776,1,5.5S1.224,5,1.5,5h18C19.776,5,20,5.224,20,5.5S19.776,6,19.5,6z"/>
		</g>
		<g>
			<path d="M12.5,20h-8C2.57,20,1,18.43,1,16.5v-11C1,3.57,2.57,2,4.5,2h12C18.43,2,20,3.57,20,5.5v7c0,0.276-0.224,0.5-0.5,0.5
				S19,12.776,19,12.5v-7C19,4.121,17.878,3,16.5,3h-12C3.122,3,2,4.121,2,5.5v11C2,17.879,3.122,19,4.5,19h8
				c0.276,0,0.5,0.224,0.5,0.5S12.776,20,12.5,20z"/>
		</g>
		<g>
			<path d="M17.5,23c-0.869,0-1.5-0.421-1.5-1s0.631-1,1.5-1s1.5,0.421,1.5,1S18.369,23,17.5,23z M18.042,22.13h0.01H18.042z
				 M17.5,22h0.01H17.5z"/>
		</g>
		<g>
			<path d="M21.5,22c-0.869,0-1.5-0.421-1.5-1s0.631-1,1.5-1s1.5,0.421,1.5,1S22.369,22,21.5,22z M22.042,21.13h0.01H22.042z
				 M21.5,21h0.01H21.5z"/>
		</g>
		<g>
			<path d="M18.5,22.5c-0.276,0-0.5-0.224-0.5-0.5v-5.5c0-0.229,0.156-0.43,0.379-0.485l4-1c0.148-0.038,0.307-0.005,0.429,0.091
				C22.929,15.2,23,15.346,23,15.5V21c0,0.276-0.224,0.5-0.5,0.5S22,21.276,22,21v-4.859l-3,0.75V22
				C19,22.276,18.776,22.5,18.5,22.5z"/>
		</g>
		<g>
			<path d="M16.5,11h-2c-0.276,0-0.5-0.224-0.5-0.5v-2C14,8.224,14.224,8,14.5,8S15,8.224,15,8.5V10h1.5c0.276,0,0.5,0.224,0.5,0.5
				S16.776,11,16.5,11z"/>
		</g>
		<g>
			<path d="M16.5,11c-0.276,0-0.5-0.224-0.5-0.5V9.707L15.293,9H14.5C14.224,9,14,8.776,14,8.5S14.224,8,14.5,8h1
				c0.133,0,0.26,0.053,0.354,0.146l1,1C16.947,9.24,17,9.367,17,9.5v1C17,10.776,16.776,11,16.5,11z"/>
		</g>
		<g>
			<path d="M8.5,16C6.57,16,5,14.43,5,12.5S6.57,9,8.5,9C8.776,9,9,9.224,9,9.5S8.776,10,8.5,10C7.122,10,6,11.121,6,12.5
				S7.122,15,8.5,15s2.5-1.121,2.5-2.5c0-0.276,0.224-0.5,0.5-0.5s0.5,0.224,0.5,0.5C12,14.43,10.43,16,8.5,16z"/>
		</g>
		<g>
			<path d="M12.5,16c-0.276,0-0.5-0.224-0.5-0.5s0.224-0.5,0.5-0.5c1.378,0,2.5-1.121,2.5-2.5S13.878,10,12.5,10S10,11.121,10,12.5
				c0,0.276-0.224,0.5-0.5,0.5S9,12.776,9,12.5C9,10.57,10.57,9,12.5,9s3.5,1.57,3.5,3.5S14.43,16,12.5,16z"/>
		</g>
	</g>
</g>
<g id="wedding_party">
</g>
<g id="Confetti_1">
</g>
<g id="Confetti_2">
</g>
</svg>
