<?xml version="1.0" encoding="iso-8859-1"?>
<!-- Generator: Adobe Illustrator 19.2.1, SVG Export Plug-In . SVG Version: 6.00 Build 0)  -->
<svg version="1.1" xmlns="http://www.w3.org/2000/svg" xmlns:xlink="http://www.w3.org/1999/xlink" x="0px" y="0px"
	 viewBox="0 0 24 24" style="enable-background:new 0 0 24 24;" xml:space="preserve">
<g id="Restaurant_sign_1">
</g>
<g id="Restaurant_Sign_2">
</g>
<g id="Restaurant_Sign_3">
</g>
<g id="Hot_Drink_1">
</g>
<g id="Hot_Drink_2">
</g>
<g id="Cocktail">
</g>
<g id="Shot_Glasses">
</g>
<g id="Chilled_Champagne">
</g>
<g id="Wine">
</g>
<g id="Wine_List">
</g>
<g id="Menu">
</g>
<g id="Menu_2">
</g>
<g id="Salver">
</g>
<g id="Soup">
</g>
<g id="Sushi">
</g>
<g id="Pizza">
</g>
<g id="Pizza_Slice">
</g>
<g id="Fish">
</g>
<g id="Sausage">
</g>
<g id="Course">
</g>
<g id="Dessert">
</g>
<g id="Cutlery">
</g>
<g id="Napkin">
</g>
<g id="Table">
</g>
<g id="Spices">
</g>
<g id="Hot_Sauce">
</g>
<g id="Reserved_1">
</g>
<g id="Reserved_2">
</g>
<g id="Open">
</g>
<g id="Food_Photo">
</g>
<g id="Chef">
</g>
<g id="Bill">
</g>
<g id="Bill_2">
	<g>
		<g>
			<path d="M18.5,24c-0.097,0-0.194-0.028-0.277-0.084L17,23.101l-1.223,0.815c-0.168,0.111-0.387,0.111-0.555,0L14,23.101
				l-1.223,0.815c-0.168,0.111-0.387,0.111-0.555,0L11,23.101l-1.223,0.815c-0.168,0.111-0.387,0.111-0.555,0L8,23.101l-1.223,0.815
				c-0.153,0.102-0.351,0.112-0.513,0.024C6.102,23.854,6,23.685,6,23.5V10H4.5C4.224,10,4,9.776,4,9.5v-7C4,1.121,5.122,0,6.5,0
				h10.154C17.947,0,19,1.121,19,2.5v21c0,0.185-0.102,0.354-0.264,0.44C18.662,23.98,18.581,24,18.5,24z M14,22
				c0.097,0,0.193,0.028,0.277,0.084l1.223,0.815l1.223-0.815c0.168-0.111,0.387-0.111,0.555,0L18,22.565V2.5
				C18,1.673,17.396,1,16.654,1H6.502C6.822,1.426,7,1.947,7,2.5v20.065l0.723-0.481c0.168-0.111,0.387-0.111,0.555,0L9.5,22.899
				l1.223-0.815c0.168-0.111,0.387-0.111,0.555,0l1.223,0.815l1.223-0.815C13.807,22.028,13.903,22,14,22z M5,9h1V2.5
				c0-0.434-0.183-0.836-0.499-1.118C5.194,1.657,5,2.057,5,2.5V9z"/>
		</g>
		<g>
			<path d="M16.5,6h-8C8.224,6,8,5.776,8,5.5S8.224,5,8.5,5h8C16.776,5,17,5.224,17,5.5S16.776,6,16.5,6z"/>
		</g>
		<g>
			<path d="M16.5,9h-8C8.224,9,8,8.776,8,8.5S8.224,8,8.5,8h8C16.776,8,17,8.224,17,8.5S16.776,9,16.5,9z"/>
		</g>
		<g>
			<path d="M16.5,12h-8C8.224,12,8,11.776,8,11.5S8.224,11,8.5,11h8c0.276,0,0.5,0.224,0.5,0.5S16.776,12,16.5,12z"/>
		</g>
		<g>
			<path d="M16.5,20h-3c-0.276,0-0.5-0.224-0.5-0.5s0.224-0.5,0.5-0.5h3c0.276,0,0.5,0.224,0.5,0.5S16.776,20,16.5,20z"/>
		</g>
		<g>
			<path d="M15,18h-0.5c-0.276,0-0.5-0.224-0.5-0.5s0.224-0.5,0.5-0.5H15c-0.551,0-1-0.448-1-1s0.449-1,1-1h0.5
				c0.276,0,0.5,0.224,0.5,0.5S15.776,16,15.5,16H15c0.551,0,1,0.448,1,1S15.551,18,15,18z"/>
		</g>
		<g>
			<path d="M15,18.5c-0.276,0-0.5-0.224-0.5-0.5v-3c0-0.276,0.224-0.5,0.5-0.5s0.5,0.224,0.5,0.5v3C15.5,18.276,15.276,18.5,15,18.5
				z"/>
		</g>
	</g>
</g>
<g id="Paying_1">
</g>
<g id="Paying_2">
</g>
<g id="Restaurant_Place">
</g>
</svg>
