<?xml version="1.0" encoding="iso-8859-1"?>
<!-- Generator: Adobe Illustrator 19.2.1, SVG Export Plug-In . SVG Version: 6.00 Build 0)  -->
<svg version="1.1" xmlns="http://www.w3.org/2000/svg" xmlns:xlink="http://www.w3.org/1999/xlink" x="0px" y="0px"
	 viewBox="0 0 24 24" style="enable-background:new 0 0 24 24;" xml:space="preserve">
<g id="Restaurant_sign_1">
</g>
<g id="Restaurant_Sign_2">
</g>
<g id="Restaurant_Sign_3">
</g>
<g id="Hot_Drink_1">
</g>
<g id="Hot_Drink_2">
</g>
<g id="Cocktail">
</g>
<g id="Shot_Glasses">
</g>
<g id="Chilled_Champagne">
</g>
<g id="Wine">
</g>
<g id="Wine_List">
</g>
<g id="Menu">
</g>
<g id="Menu_2">
</g>
<g id="Salver">
</g>
<g id="Soup">
</g>
<g id="Sushi">
</g>
<g id="Pizza">
</g>
<g id="Pizza_Slice">
</g>
<g id="Fish">
</g>
<g id="Sausage">
</g>
<g id="Course">
</g>
<g id="Dessert">
</g>
<g id="Cutlery">
</g>
<g id="Napkin">
</g>
<g id="Table">
</g>
<g id="Spices">
</g>
<g id="Hot_Sauce">
</g>
<g id="Reserved_1">
</g>
<g id="Reserved_2">
</g>
<g id="Open">
</g>
<g id="Food_Photo">
</g>
<g id="Chef">
	<g id="XMLID_350_">
		<g id="XMLID_363_">
			<path d="M15.5,24c-0.276,0-0.5-0.224-0.5-0.5v-6.878C14.237,16.774,12.877,17,11.5,17c-1.345,0-2.727-0.229-3.5-0.381V23.5
				C8,23.776,7.776,24,7.5,24S7,23.776,7,23.5V16c0-0.153,0.07-0.298,0.191-0.393c0.121-0.096,0.278-0.127,0.427-0.094
				C7.638,15.519,9.647,16,11.5,16c1.917,0,3.859-0.48,3.879-0.485c0.148-0.038,0.307-0.004,0.429,0.091S16,15.846,16,16v7.5
				C16,23.776,15.776,24,15.5,24z"/>
		</g>
		<g id="XMLID_362_">
			<circle cx="9.5" cy="18.5" r="0.5"/>
		</g>
		<g id="XMLID_361_">
			<circle cx="13.5" cy="18.5" r="0.5"/>
		</g>
		<g id="XMLID_360_">
			<circle cx="9.5" cy="20.5" r="0.5"/>
		</g>
		<g id="XMLID_359_">
			<circle cx="13.5" cy="20.5" r="0.5"/>
		</g>
		<g id="XMLID_358_">
			<circle cx="9.5" cy="22.5" r="0.5"/>
		</g>
		<g id="XMLID_357_">
			<circle cx="13.5" cy="22.5" r="0.5"/>
		</g>
		<g id="XMLID_356_">
			<path d="M5.5,24C5.224,24,5,23.776,5,23.5v-8c0-1.089,2.087-1.759,4-2.144v-0.64c0-0.276,0.224-0.5,0.5-0.5s0.5,0.224,0.5,0.5
				v1.053c0,0.241-0.172,0.448-0.41,0.492c-2.154,0.396-3.473,0.994-3.596,1.274L6,23.5C6,23.776,5.776,24,5.5,24z"/>
		</g>
		<g id="XMLID_355_">
			<path d="M17.5,24c-0.276,0-0.5-0.224-0.5-0.5v-8c-0.111-0.229-1.305-0.798-3.595-1.239C13.17,14.215,13,14.009,13,13.77v-1.053
				c0-0.276,0.224-0.5,0.5-0.5s0.5,0.224,0.5,0.5v0.643c4,0.834,4,1.813,4,2.141v8C18,23.776,17.776,24,17.5,24z"/>
		</g>
		<g id="XMLID_354_">
			<path d="M11.5,14C10.004,14,8,12.022,8,10c0-1.219,0.553-2.282,1.518-2.918c0.23-0.15,0.541-0.087,0.692,0.143
				c0.152,0.23,0.088,0.541-0.143,0.693C9.379,8.371,9,9.11,9,10c0,1.518,1.582,3,2.5,3s2.5-1.482,2.5-3
				c0-0.89-0.379-1.629-1.067-2.082c-0.231-0.152-0.294-0.463-0.143-0.693c0.152-0.229,0.463-0.293,0.692-0.143
				C14.447,7.718,15,8.781,15,10C15,12.022,12.996,14,11.5,14z"/>
		</g>
		<g id="XMLID_353_">
			<path d="M13.5,5c-0.207,0-0.411-0.025-0.609-0.074c-0.268-0.067-0.431-0.339-0.364-0.606c0.066-0.269,0.336-0.432,0.606-0.364
				C13.252,3.985,13.375,4,13.5,4C14.327,4,15,3.327,15,2.5S14.327,1,13.5,1S12,1.673,12,2.5C12,2.776,11.776,3,11.5,3
				S11,2.776,11,2.5C11,1.673,10.327,1,9.5,1S8,1.673,8,2.5c0,0.955,0.96,1.689,1.88,1.451c0.267-0.068,0.54,0.092,0.61,0.358
				c0.069,0.268-0.091,0.54-0.358,0.61C9.926,4.973,9.713,5,9.5,5C8.122,5,7,3.879,7,2.5S8.122,0,9.5,0c0.817,0,1.543,0.394,2,1.002
				C11.957,0.394,12.683,0,13.5,0C14.878,0,16,1.121,16,2.5S14.878,5,13.5,5z"/>
		</g>
		<g id="XMLID_352_">
			<path d="M11.5,8.159c-1.03,0-2.037-0.158-2.079-0.165C9.179,7.955,9,7.746,9,7.5v-3C9,4.224,9.224,4,9.5,4S10,4.224,10,4.5v2.563
				c0.74,0.088,2.252,0.086,3,0V4.5C13,4.224,13.224,4,13.5,4S14,4.224,14,4.5v3c0,0.246-0.179,0.456-0.422,0.494
				C13.535,8.001,12.518,8.159,11.5,8.159z"/>
		</g>
		<g id="XMLID_351_">
			<path d="M12.5,12c-0.387,0-0.746-0.184-0.998-0.356C11.251,11.816,10.894,12,10.5,12c-0.276,0-0.5-0.224-0.5-0.5
				s0.224-0.5,0.5-0.5c0.213,0,0.523-0.228,0.642-0.35c0.094-0.096,0.221-0.149,0.355-0.15c0.001,0,0.002,0,0.003,0
				c0.132,0,0.26,0.053,0.354,0.146C11.998,10.788,12.304,11,12.5,11c0.276,0,0.5,0.224,0.5,0.5S12.776,12,12.5,12z"/>
		</g>
	</g>
</g>
<g id="Bill">
</g>
<g id="Bill_2">
</g>
<g id="Paying_1">
</g>
<g id="Paying_2">
</g>
<g id="Restaurant_Place">
</g>
</svg>
