<?xml version="1.0" encoding="iso-8859-1"?>
<!-- Generator: Adobe Illustrator 19.2.1, SVG Export Plug-In . SVG Version: 6.00 Build 0)  -->
<svg version="1.1" xmlns="http://www.w3.org/2000/svg" xmlns:xlink="http://www.w3.org/1999/xlink" x="0px" y="0px"
	 viewBox="0 0 24 24" style="enable-background:new 0 0 24 24;" xml:space="preserve">
<g id="Restaurant_sign_1">
</g>
<g id="Restaurant_Sign_2">
</g>
<g id="Restaurant_Sign_3">
</g>
<g id="Hot_Drink_1">
</g>
<g id="Hot_Drink_2">
</g>
<g id="Cocktail">
</g>
<g id="Shot_Glasses">
</g>
<g id="Chilled_Champagne">
	<g id="XMLID_104_">
		<g id="XMLID_100_">
			<path d="M15.512,24.001H7.488c-0.823,0-1.481-0.65-1.498-1.48C5.839,15.199,4.044,9.713,4.025,9.659
				c-0.051-0.152-0.024-0.32,0.069-0.45S4.34,9.001,4.5,9.001h14c0.161,0,0.312,0.077,0.405,0.208s0.12,0.298,0.069,0.451
				c-0.019,0.054-1.815,5.533-1.965,12.862C16.993,23.337,16.321,24.001,15.512,24.001z M5.172,10.001
				c0.483,1.696,1.694,6.505,1.818,12.5c0.006,0.281,0.225,0.5,0.498,0.5h8.023c0.273,0,0.492-0.22,0.498-0.5
				c0.123-6.007,1.333-10.806,1.817-12.5H5.172z"/>
		</g>
		<g id="XMLID_102_">
			<path d="M16.599,21.001H6.415c-0.276,0-0.5-0.224-0.5-0.5s0.224-0.5,0.5-0.5h10.184c0.276,0,0.5,0.224,0.5,0.5
				S16.875,21.001,16.599,21.001z"/>
		</g>
		<g id="XMLID_103_">
			<path d="M16.753,19.001H6.246c-0.276,0-0.5-0.224-0.5-0.5s0.224-0.5,0.5-0.5h10.507c0.276,0,0.5,0.224,0.5,0.5
				S17.029,19.001,16.753,19.001z"/>
		</g>
		<g id="XMLID_101_">
			<path d="M6.155,10.001c-0.241,0-0.454-0.175-0.493-0.421L5.615,9.278c-0.225-1.427-0.456-2.903-1.39-4.803L3.14,2.265
				C2.984,1.948,2.961,1.59,3.075,1.256s0.352-0.604,0.668-0.759l0.736-0.362c0.317-0.156,0.676-0.179,1.01-0.064
				c0.334,0.114,0.604,0.351,0.759,0.668l1.086,2.209c0.922,1.876,1.949,2.967,2.942,4.021c0.671,0.711,1.304,1.383,1.88,2.256
				c0.152,0.23,0.089,0.541-0.142,0.692c-0.231,0.151-0.541,0.089-0.692-0.142c-0.529-0.801-1.134-1.442-1.773-2.121
				C8.553,6.598,7.425,5.4,6.437,3.389L5.35,1.179C5.313,1.102,5.247,1.044,5.166,1.017S4.999,0.995,4.921,1.032L4.185,1.394
				C4.107,1.432,4.05,1.498,4.021,1.579C3.994,1.66,4,1.747,4.037,1.823l1.087,2.21c1,2.036,1.254,3.658,1.479,5.089l0.048,0.3
				c0.043,0.273-0.143,0.529-0.416,0.572C6.208,9.999,6.182,10.001,6.155,10.001z"/>
		</g>
		<g id="XMLID_105_">
			<path d="M4.5,10.001h-1c-0.276,0-0.5-0.224-0.5-0.5s0.224-0.5,0.5-0.5h1c0.276,0,0.5,0.224,0.5,0.5S4.776,10.001,4.5,10.001z"/>
		</g>
		<g id="XMLID_106_">
			<path d="M19.5,10.001h-1c-0.276,0-0.5-0.224-0.5-0.5s0.224-0.5,0.5-0.5h1c0.276,0,0.5,0.224,0.5,0.5S19.776,10.001,19.5,10.001z"
				/>
		</g>
	</g>
</g>
<g id="Wine">
</g>
<g id="Wine_List">
</g>
<g id="Menu">
</g>
<g id="Menu_2">
</g>
<g id="Salver">
</g>
<g id="Soup">
</g>
<g id="Sushi">
</g>
<g id="Pizza">
</g>
<g id="Pizza_Slice">
</g>
<g id="Fish">
</g>
<g id="Sausage">
</g>
<g id="Course">
</g>
<g id="Dessert">
</g>
<g id="Cutlery">
</g>
<g id="Napkin">
</g>
<g id="Table">
</g>
<g id="Spices">
</g>
<g id="Hot_Sauce">
</g>
<g id="Reserved_1">
</g>
<g id="Reserved_2">
</g>
<g id="Open">
</g>
<g id="Food_Photo">
</g>
<g id="Chef">
</g>
<g id="Bill">
</g>
<g id="Bill_2">
</g>
<g id="Paying_1">
</g>
<g id="Paying_2">
</g>
<g id="Restaurant_Place">
</g>
</svg>
