<?xml version="1.0" encoding="iso-8859-1"?>
<!-- Generator: Adobe Illustrator 19.2.1, SVG Export Plug-In . SVG Version: 6.00 Build 0)  -->
<svg version="1.1" xmlns="http://www.w3.org/2000/svg" xmlns:xlink="http://www.w3.org/1999/xlink" x="0px" y="0px"
	 viewBox="0 0 24 24" style="enable-background:new 0 0 24 24;" xml:space="preserve">
<g id="Restaurant_sign_1">
</g>
<g id="Restaurant_Sign_2">
</g>
<g id="Restaurant_Sign_3">
</g>
<g id="Hot_Drink_1">
</g>
<g id="Hot_Drink_2">
</g>
<g id="Cocktail">
	<g id="XMLID_147_">
		<g id="XMLID_140_">
			<path d="M11.5,13L11.5,13c-0.136,0-0.267-0.055-0.36-0.153L1.238,2.551C1.047,2.352,1.053,2.035,1.252,1.844
				C1.45,1.653,1.77,1.659,1.959,1.857l9.541,9.921l9.548-9.921c0.193-0.199,0.51-0.204,0.707-0.014
				c0.199,0.191,0.205,0.508,0.014,0.707L11.86,12.847C11.766,12.945,11.636,13,11.5,13z"/>
		</g>
		<g id="XMLID_144_">
			<path d="M11.5,4C9.037,4,1,3.856,1,2s8.037-2,10.5-2S22,0.144,22,2S13.963,4,11.5,4z M2.151,2C3.039,2.448,6.488,3,11.5,3
				s8.461-0.552,9.349-1c-0.888-0.448-4.337-1-9.349-1S3.039,1.552,2.151,2z M21.038,2.132h0.01H21.038z"/>
		</g>
		<g id="XMLID_146_">
			<path d="M11.5,21c-0.276,0-0.5-0.224-0.5-0.5v-8c0-0.276,0.224-0.5,0.5-0.5s0.5,0.224,0.5,0.5v8C12,20.776,11.776,21,11.5,21z"/>
		</g>
		<g id="XMLID_148_">
			<path d="M11.5,24C10.21,24,6,23.892,6,22.5c0-0.205,0.124-0.388,0.314-0.464l5-2c0.119-0.048,0.252-0.048,0.371,0l5,2
				C16.876,22.112,17,22.295,17,22.5C17,23.892,12.79,24,11.5,24z M7.579,22.607C8.305,22.804,9.625,23,11.5,23
				s3.195-0.196,3.921-0.393L11.5,21.039L7.579,22.607z"/>
		</g>
		<g id="XMLID_145_">
			<path d="M11.5,9c-1.231,0-5.25-0.108-5.25-1.5S10.269,6,11.5,6s5.25,0.108,5.25,1.5S12.731,9,11.5,9z M7.471,7.5
				C8.038,7.722,9.423,8,11.5,8s3.462-0.278,4.029-0.5C14.962,7.278,13.577,7,11.5,7S8.038,7.278,7.471,7.5z M15.795,7.647h0.011
				H15.795z"/>
		</g>
	</g>
</g>
<g id="Shot_Glasses">
</g>
<g id="Chilled_Champagne">
</g>
<g id="Wine">
</g>
<g id="Wine_List">
</g>
<g id="Menu">
</g>
<g id="Menu_2">
</g>
<g id="Salver">
</g>
<g id="Soup">
</g>
<g id="Sushi">
</g>
<g id="Pizza">
</g>
<g id="Pizza_Slice">
</g>
<g id="Fish">
</g>
<g id="Sausage">
</g>
<g id="Course">
</g>
<g id="Dessert">
</g>
<g id="Cutlery">
</g>
<g id="Napkin">
</g>
<g id="Table">
</g>
<g id="Spices">
</g>
<g id="Hot_Sauce">
</g>
<g id="Reserved_1">
</g>
<g id="Reserved_2">
</g>
<g id="Open">
</g>
<g id="Food_Photo">
</g>
<g id="Chef">
</g>
<g id="Bill">
</g>
<g id="Bill_2">
</g>
<g id="Paying_1">
</g>
<g id="Paying_2">
</g>
<g id="Restaurant_Place">
</g>
</svg>
