<?xml version="1.0" encoding="iso-8859-1"?>
<!-- Generator: Adobe Illustrator 19.2.1, SVG Export Plug-In . SVG Version: 6.00 Build 0)  -->
<svg version="1.1" xmlns="http://www.w3.org/2000/svg" xmlns:xlink="http://www.w3.org/1999/xlink" x="0px" y="0px"
	 viewBox="0 0 24 24" style="enable-background:new 0 0 24 24;" xml:space="preserve">
<g id="Restaurant_sign_1">
</g>
<g id="Restaurant_Sign_2">
</g>
<g id="Restaurant_Sign_3">
</g>
<g id="Hot_Drink_1">
</g>
<g id="Hot_Drink_2">
</g>
<g id="Cocktail">
</g>
<g id="Shot_Glasses">
</g>
<g id="Chilled_Champagne">
</g>
<g id="Wine">
</g>
<g id="Wine_List">
</g>
<g id="Menu">
</g>
<g id="Menu_2">
</g>
<g id="Salver">
</g>
<g id="Soup">
</g>
<g id="Sushi">
</g>
<g id="Pizza">
</g>
<g id="Pizza_Slice">
</g>
<g id="Fish">
</g>
<g id="Sausage">
</g>
<g id="Course">
	<g id="XMLID_214_">
		<g id="XMLID_222_">
			<g id="XMLID_224_">
				<path d="M18.979,18c-0.696,0-1.437-0.38-1.437-1.085c0-0.317,0-0.449-0.439-0.887c-1.882-1.883-3.116-3.026-4.383-3.026
					c-1.869,0-6.72-1.051-6.72-5.85C6,5.588,7.94,3,10.152,3c4.799,0,5.85,4.889,5.85,6.772c0,1.244,1.082,2.387,2.994,4.3
					c0.383,0.382,0.519,0.454,0.566,0.462h0.001c0.711,0,1.437,0.391,1.437,1.139c0,0.686-0.287,1.108-0.644,1.297
					C20.262,17.459,19.939,18,18.979,18z M10.152,4C8.491,4,7,6.141,7,7.152c0,4.718,5.662,4.85,5.72,4.85
					c1.653,0,3.025,1.253,5.09,3.318c0.623,0.622,0.732,1.01,0.732,1.595C18.575,16.925,18.803,17,18.979,17
					c0.309,0,0.413,0,0.413-0.413c0-0.268,0.229-0.488,0.496-0.5C19.921,16.065,20,15.936,20,15.674
					c-0.035-0.064-0.262-0.14-0.444-0.14c-0.473,0-0.869-0.357-1.267-0.755c-2.1-2.1-3.287-3.369-3.287-5.007
					C15.002,9.715,14.87,4,10.152,4z"/>
			</g>
			<g id="XMLID_223_">
				<path d="M14.718,13.711c-0.012,0-0.023,0-0.035-0.001c-0.269-0.02-0.474-0.237-0.465-0.506c0.017-0.46,0.387-1.146,1.341-1.146
					c0.268,0,0.344-0.05,0.344-0.05c0-0.276,0.214-0.521,0.49-0.521c0.275,0,0.489,0.203,0.489,0.479
					c0,0.408-0.172,1.092-1.323,1.092c-0.219,0-0.327,0.063-0.342,0.196C15.188,13.511,14.971,13.711,14.718,13.711z"/>
			</g>
		</g>
		<g id="XMLID_221_">
			<path d="M12,24C5.383,24,0,18.617,0,12S5.383,0,12,0s12,5.383,12,12S18.617,24,12,24z M12,1C5.935,1,1,5.935,1,12s4.935,11,11,11
				s11-4.935,11-11S18.065,1,12,1z"/>
		</g>
		<g id="XMLID_220_">
			<path d="M18.978,15.236c-0.061,0-0.123-0.011-0.183-0.035c-0.257-0.101-0.384-0.391-0.283-0.648C18.836,13.729,19,12.87,19,12
				c0-3.38-2.412-6.273-5.736-6.88c-0.271-0.049-0.451-0.31-0.402-0.582c0.05-0.272,0.313-0.457,0.582-0.402
				C17.242,4.83,20,8.137,20,12c0,0.995-0.188,1.977-0.557,2.918C19.365,15.116,19.177,15.236,18.978,15.236z"/>
		</g>
		<g id="XMLID_219_">
			<path d="M10.75,21c-0.26,0-0.511-0.062-0.75-0.185C9.761,20.938,9.51,21,9.25,21c-0.645,0-1.249-0.588-1.611-0.939
				c-0.025-0.025-0.05-0.049-0.071-0.07C6.688,19.899,6,19.153,6,18.25c0-0.323,0.095-0.638,0.269-0.912
				C6.095,17.094,6,16.806,6,16.5c0-0.914,0.862-1.65,1.757-1.475C8.104,14.408,8.768,14,9.5,14c0.716,0,1.367,0.395,1.719,1.012
				c0.738,0.082,1.375,0.574,1.643,1.271c0.398,0.28,0.639,0.729,0.639,1.216c0,0.664-0.434,1.228-1.031,1.425
				c0.021,0.106,0.031,0.215,0.031,0.325C12.5,20.215,11.715,21,10.75,21z M10,19.724c0.107,0,0.215,0.035,0.306,0.104
				c0.562,0.435,1.194-0.015,1.194-0.578c0-0.216-0.106-0.383-0.195-0.485c-0.149-0.17-0.165-0.42-0.039-0.608
				c0.126-0.188,0.362-0.268,0.576-0.195C11.899,17.982,11.958,18,12,18c0.275,0,0.5-0.224,0.5-0.5c0-0.218-0.146-0.37-0.281-0.438
				c-0.127-0.064-0.221-0.18-0.258-0.317C11.845,16.306,11.449,16,11,16c0.025,0.004-0.019,0.013-0.064,0.016
				c-0.23,0.014-0.434-0.122-0.508-0.335C10.285,15.267,9.921,15,9.5,15c-0.465,0-0.875,0.33-0.975,0.785
				c-0.035,0.161-0.146,0.293-0.299,0.356c-0.149,0.063-0.324,0.046-0.462-0.044C7.631,16.01,7.55,16,7.5,16
				C7.225,16,7,16.224,7,16.5c0,0.21,0.144,0.34,0.229,0.399c0.128,0.087,0.209,0.23,0.217,0.386
				c0.009,0.155-0.056,0.306-0.174,0.407C7.171,17.778,7,17.967,7,18.25C7,18.664,7.337,19,7.75,19c0.232,0,0.365,0.129,0.586,0.344
				C8.503,19.506,9.012,20,9.25,20c0.149,0,0.295-0.056,0.444-0.172C9.785,19.759,9.893,19.724,10,19.724z"/>
		</g>
		<g id="XMLID_218_">
			<path d="M10.75,21c-0.26,0-0.511-0.062-0.75-0.185C9.761,20.938,9.51,21,9.25,21c-0.645,0-1.249-0.588-1.611-0.939
				c-0.025-0.025-0.05-0.049-0.071-0.07C6.688,19.899,6,19.153,6,18.25c0-0.323,0.095-0.638,0.269-0.912
				C6.095,17.094,6,16.806,6,16.5c0-0.914,0.862-1.65,1.757-1.475C8.104,14.408,8.768,14,9.5,14c0.716,0,1.367,0.395,1.719,1.012
				c0.738,0.082,1.375,0.574,1.643,1.271c0.398,0.28,0.639,0.729,0.639,1.216c0,0.664-0.434,1.228-1.031,1.425
				c0.021,0.106,0.031,0.215,0.031,0.325C12.5,20.215,11.715,21,10.75,21z M10,19.724c0.107,0,0.215,0.035,0.306,0.104
				c0.562,0.435,1.194-0.015,1.194-0.578c0-0.216-0.106-0.383-0.195-0.485c-0.149-0.17-0.165-0.42-0.039-0.608
				c0.126-0.188,0.362-0.268,0.576-0.195C11.899,17.982,11.958,18,12,18c0.275,0,0.5-0.224,0.5-0.5c0-0.218-0.146-0.37-0.281-0.438
				c-0.127-0.064-0.221-0.18-0.258-0.317C11.845,16.306,11.449,16,11,16c0.025,0.004-0.019,0.013-0.064,0.016
				c-0.23,0.014-0.434-0.122-0.508-0.335C10.285,15.267,9.921,15,9.5,15c-0.465,0-0.875,0.33-0.975,0.785
				c-0.035,0.161-0.146,0.293-0.299,0.356c-0.149,0.063-0.324,0.046-0.462-0.044C7.631,16.01,7.55,16,7.5,16
				C7.225,16,7,16.224,7,16.5c0,0.21,0.144,0.34,0.229,0.399c0.128,0.087,0.209,0.23,0.217,0.386
				c0.009,0.155-0.056,0.306-0.174,0.407C7.171,17.778,7,17.967,7,18.25C7,18.664,7.337,19,7.75,19c0.232,0,0.365,0.129,0.586,0.344
				C8.503,19.506,9.012,20,9.25,20c0.149,0,0.295-0.056,0.444-0.172C9.785,19.759,9.893,19.724,10,19.724z"/>
		</g>
		<g id="XMLID_217_">
			<path d="M10.75,21c-0.26,0-0.511-0.062-0.75-0.185C9.761,20.938,9.51,21,9.25,21c-0.645,0-1.249-0.588-1.611-0.939
				c-0.025-0.025-0.05-0.049-0.071-0.07C6.688,19.899,6,19.153,6,18.25c0-0.323,0.095-0.638,0.269-0.912
				C6.095,17.094,6,16.806,6,16.5c0-0.914,0.862-1.65,1.757-1.475C8.104,14.408,8.768,14,9.5,14c0.716,0,1.367,0.395,1.719,1.012
				c0.738,0.082,1.375,0.574,1.643,1.271c0.398,0.28,0.639,0.729,0.639,1.216c0,0.664-0.434,1.228-1.031,1.425
				c0.021,0.106,0.031,0.215,0.031,0.325C12.5,20.215,11.715,21,10.75,21z M10,19.724c0.107,0,0.215,0.035,0.306,0.104
				c0.562,0.435,1.194-0.015,1.194-0.578c0-0.216-0.106-0.383-0.195-0.485c-0.149-0.17-0.165-0.42-0.039-0.608
				c0.126-0.188,0.362-0.268,0.576-0.195C11.899,17.982,11.958,18,12,18c0.275,0,0.5-0.224,0.5-0.5c0-0.218-0.146-0.37-0.281-0.438
				c-0.127-0.064-0.221-0.18-0.258-0.317C11.845,16.306,11.449,16,11,16c0.025,0.004-0.019,0.013-0.064,0.016
				c-0.23,0.014-0.434-0.122-0.508-0.335C10.285,15.267,9.921,15,9.5,15c-0.465,0-0.875,0.33-0.975,0.785
				c-0.035,0.161-0.146,0.293-0.299,0.356c-0.149,0.063-0.324,0.046-0.462-0.044C7.631,16.01,7.55,16,7.5,16
				C7.225,16,7,16.224,7,16.5c0,0.21,0.144,0.34,0.229,0.399c0.128,0.087,0.209,0.23,0.217,0.386
				c0.009,0.155-0.056,0.306-0.174,0.407C7.171,17.778,7,17.967,7,18.25C7,18.664,7.337,19,7.75,19c0.232,0,0.365,0.129,0.586,0.344
				C8.503,19.506,9.012,20,9.25,20c0.149,0,0.295-0.056,0.444-0.172C9.785,19.759,9.893,19.724,10,19.724z"/>
		</g>
		<g id="XMLID_216_">
			<path d="M12,20c-0.276,0-0.525-0.225-0.525-0.501c0-0.289,0.265-0.521,0.537-0.499c2.205,0,4.244-1.023,5.584-2.807
				c0.166-0.221,0.479-0.264,0.699-0.1c0.222,0.166,0.266,0.479,0.1,0.7C16.865,18.831,14.534,20,12,20z"/>
		</g>
		<g id="XMLID_215_">
			<path d="M6.834,17.929c-0.124,0-0.248-0.046-0.345-0.138C4.884,16.262,4,14.206,4,12c0-2.027,0.767-3.964,2.159-5.455
				c0.188-0.201,0.506-0.213,0.706-0.024C7.067,6.709,7.078,7.026,6.89,7.228C5.671,8.532,5,10.227,5,12
				c0,1.929,0.773,3.729,2.179,5.066c0.2,0.19,0.208,0.507,0.018,0.707C7.098,17.877,6.966,17.929,6.834,17.929z"/>
		</g>
	</g>
</g>
<g id="Dessert">
</g>
<g id="Cutlery">
</g>
<g id="Napkin">
</g>
<g id="Table">
</g>
<g id="Spices">
</g>
<g id="Hot_Sauce">
</g>
<g id="Reserved_1">
</g>
<g id="Reserved_2">
</g>
<g id="Open">
</g>
<g id="Food_Photo">
</g>
<g id="Chef">
</g>
<g id="Bill">
</g>
<g id="Bill_2">
</g>
<g id="Paying_1">
</g>
<g id="Paying_2">
</g>
<g id="Restaurant_Place">
</g>
</svg>
