<?xml version="1.0" encoding="iso-8859-1"?>
<!-- Generator: Adobe Illustrator 19.2.1, SVG Export Plug-In . SVG Version: 6.00 Build 0)  -->
<svg version="1.1" xmlns="http://www.w3.org/2000/svg" xmlns:xlink="http://www.w3.org/1999/xlink" x="0px" y="0px"
	 viewBox="0 0 24 24" style="enable-background:new 0 0 24 24;" xml:space="preserve">
<g id="Restaurant_sign_1">
</g>
<g id="Restaurant_Sign_2">
</g>
<g id="Restaurant_Sign_3">
</g>
<g id="Hot_Drink_1">
</g>
<g id="Hot_Drink_2">
</g>
<g id="Cocktail">
</g>
<g id="Shot_Glasses">
</g>
<g id="Chilled_Champagne">
</g>
<g id="Wine">
</g>
<g id="Wine_List">
</g>
<g id="Menu">
</g>
<g id="Menu_2">
</g>
<g id="Salver">
</g>
<g id="Soup">
</g>
<g id="Sushi">
</g>
<g id="Pizza">
</g>
<g id="Pizza_Slice">
</g>
<g id="Fish">
</g>
<g id="Sausage">
</g>
<g id="Course">
</g>
<g id="Dessert">
</g>
<g id="Cutlery">
	<g id="XMLID_155_">
		<g id="XMLID_156_">
			<path d="M12.5,19.5C8.364,19.5,5,16.136,5,12s3.364-7.5,7.5-7.5S20,7.864,20,12S16.636,19.5,12.5,19.5z M12.5,5.5
				C8.916,5.5,6,8.416,6,12s2.916,6.5,6.5,6.5S19,15.584,19,12S16.084,5.5,12.5,5.5z"/>
		</g>
		<g id="XMLID_157_">
			<path d="M12.5,17.5C9.467,17.5,7,15.032,7,12s2.467-5.5,5.5-5.5S18,8.968,18,12S15.533,17.5,12.5,17.5z M12.5,7.5
				C10.019,7.5,8,9.519,8,12s2.019,4.5,4.5,4.5S17,14.481,17,12S14.981,7.5,12.5,7.5z"/>
		</g>
		<g id="XMLID_159_">
			<path d="M2.5,19.5C2.224,19.5,2,19.276,2,19V5c0-0.276,0.224-0.5,0.5-0.5S3,4.724,3,5v14C3,19.276,2.776,19.5,2.5,19.5z"/>
		</g>
		<g id="XMLID_161_">
			<path d="M3.5,9.5h-2C0.673,9.5,0,8.827,0,8V5c0-0.276,0.224-0.5,0.5-0.5S1,4.724,1,5v3c0,0.275,0.224,0.5,0.5,0.5h2
				C3.776,8.5,4,8.275,4,8V5c0-0.276,0.224-0.5,0.5-0.5S5,4.724,5,5v3C5,8.827,4.327,9.5,3.5,9.5z"/>
		</g>
		<g id="XMLID_158_">
			<path d="M2.5,19.5c-0.551,0-1-0.448-1-1s0.449-1,1-1s1,0.448,1,1S3.051,19.5,2.5,19.5z M2.5,18.499
				C2.5,18.499,2.5,18.5,2.5,18.499L3,18.5L2.5,18.499z"/>
		</g>
		<g id="XMLID_160_">
			<path d="M22.5,19.5c-0.551,0-1-0.448-1-1s0.449-1,1-1s1,0.448,1,1S23.051,19.5,22.5,19.5z M22.5,18.499
				C22.5,18.499,22.5,18.5,22.5,18.499L23,18.5L22.5,18.499z"/>
		</g>
		<g id="XMLID_163_">
			<path d="M22.5,18.5c-0.276,0-0.5-0.224-0.5-0.5v-5.285c-0.51-0.5-2-2.099-2-3.715c0-1.24,1.741-3.789,2.09-4.287
				c0.126-0.178,0.353-0.253,0.56-0.189C22.858,4.589,23,4.782,23,5v7.498c0,0.001,0,0.003,0,0.004V18
				C23,18.276,22.776,18.5,22.5,18.5z M22,6.703C21.469,7.602,21,8.545,21,9c0,0.747,0.498,1.582,1,2.222V6.703z"/>
		</g>
	</g>
</g>
<g id="Napkin">
</g>
<g id="Table">
</g>
<g id="Spices">
</g>
<g id="Hot_Sauce">
</g>
<g id="Reserved_1">
</g>
<g id="Reserved_2">
</g>
<g id="Open">
</g>
<g id="Food_Photo">
</g>
<g id="Chef">
</g>
<g id="Bill">
</g>
<g id="Bill_2">
</g>
<g id="Paying_1">
</g>
<g id="Paying_2">
</g>
<g id="Restaurant_Place">
</g>
</svg>
