<?xml version="1.0" encoding="iso-8859-1"?>
<!-- Generator: Adobe Illustrator 19.2.1, SVG Export Plug-In . SVG Version: 6.00 Build 0)  -->
<svg version="1.1" xmlns="http://www.w3.org/2000/svg" xmlns:xlink="http://www.w3.org/1999/xlink" x="0px" y="0px"
	 viewBox="0 0 24 24" style="enable-background:new 0 0 24 24;" xml:space="preserve">
<g id="Restaurant_sign_1">
</g>
<g id="Restaurant_Sign_2">
</g>
<g id="Restaurant_Sign_3">
</g>
<g id="Hot_Drink_1">
</g>
<g id="Hot_Drink_2">
</g>
<g id="Cocktail">
</g>
<g id="Shot_Glasses">
</g>
<g id="Chilled_Champagne">
</g>
<g id="Wine">
</g>
<g id="Wine_List">
</g>
<g id="Menu">
</g>
<g id="Menu_2">
</g>
<g id="Salver">
</g>
<g id="Soup">
</g>
<g id="Sushi">
</g>
<g id="Pizza">
</g>
<g id="Pizza_Slice">
</g>
<g id="Fish">
</g>
<g id="Sausage">
</g>
<g id="Course">
</g>
<g id="Dessert">
	<g id="XMLID_252_">
		<g id="XMLID_255_">
			<path d="M3.5,14.5c-0.238,0-0.449-0.171-0.492-0.413c-0.048-0.271,0.133-0.531,0.405-0.579l17-3
				c0.269-0.056,0.532,0.134,0.579,0.405c0.048,0.271-0.133,0.531-0.405,0.579l-17,3C3.558,14.498,3.528,14.5,3.5,14.5z"/>
		</g>
		<g id="XMLID_253_">
			<path d="M14,6.5c-1.103,0-2-0.897-2-2s0.897-2,2-2s2,0.897,2,2S15.103,6.5,14,6.5z M14,3.5c-0.551,0-1,0.448-1,1s0.449,1,1,1
				s1-0.448,1-1S14.551,3.5,14,3.5z"/>
		</g>
		<g id="XMLID_254_">
			<path d="M3.5,18.5c-0.117,0-0.23-0.041-0.321-0.117C3.065,18.288,3,18.147,3,18v-8c0-0.161,0.078-0.313,0.209-0.407l7-5
				C10.294,4.532,10.396,4.5,10.5,4.5c0.668,0,1.357,0.032,2.167,0.101c0.275,0.023,0.479,0.265,0.456,0.54
				c-0.023,0.275-0.268,0.48-0.54,0.456c-0.717-0.061-1.333-0.092-1.924-0.096L4,10.257v7.147l16-2.824V7.345
				c-1.269-0.479-2.931-1.042-4.929-1.418c-0.271-0.051-0.45-0.313-0.399-0.584s0.316-0.446,0.583-0.398
				c2.25,0.423,4.081,1.071,5.424,1.589C20.873,6.607,21,6.793,21,7v8c0,0.242-0.174,0.45-0.413,0.492l-17,3
				C3.558,18.497,3.529,18.5,3.5,18.5z"/>
		</g>
		<g id="XMLID_256_">
			<path d="M3.5,10.5c-0.238,0-0.449-0.171-0.492-0.413C2.959,9.815,3.141,9.556,3.413,9.508l17-3
				c0.269-0.058,0.532,0.134,0.579,0.405c0.048,0.271-0.133,0.531-0.405,0.579l-17,3C3.558,10.498,3.528,10.5,3.5,10.5z"/>
		</g>
		<g id="XMLID_257_">
			<path d="M12,21.5c-6.729,0-12-2.416-12-5.5c0-1.445,1.167-2.799,3.285-3.811c0.248-0.12,0.547-0.015,0.667,0.235
				c0.119,0.249,0.014,0.548-0.236,0.667C1.964,13.929,1,14.961,1,16c0,2.439,5.038,4.5,11,4.5s11-2.061,11-4.5
				c0-1.039-0.964-2.071-2.715-2.908c-0.25-0.119-0.355-0.418-0.236-0.667s0.418-0.354,0.667-0.235C22.833,13.201,24,14.555,24,16
				C24,19.084,18.729,21.5,12,21.5z"/>
		</g>
		<g id="XMLID_258_">
			<path d="M12,18.5c-2.083,0-4.015-0.223-5.303-0.611c-0.264-0.079-0.414-0.358-0.334-0.623c0.08-0.264,0.36-0.414,0.623-0.334
				C8.166,17.287,10.041,17.5,12,17.5c3.449,0,5.595-0.611,5.968-0.995c-0.085-0.079-0.327-0.247-0.954-0.437
				c-0.264-0.08-0.414-0.358-0.334-0.623c0.08-0.264,0.358-0.414,0.623-0.334C17.723,15.238,19,15.623,19,16.5
				C19,18.444,12.716,18.5,12,18.5z"/>
		</g>
	</g>
</g>
<g id="Cutlery">
</g>
<g id="Napkin">
</g>
<g id="Table">
</g>
<g id="Spices">
</g>
<g id="Hot_Sauce">
</g>
<g id="Reserved_1">
</g>
<g id="Reserved_2">
</g>
<g id="Open">
</g>
<g id="Food_Photo">
</g>
<g id="Chef">
</g>
<g id="Bill">
</g>
<g id="Bill_2">
</g>
<g id="Paying_1">
</g>
<g id="Paying_2">
</g>
<g id="Restaurant_Place">
</g>
</svg>
