<?xml version="1.0" encoding="iso-8859-1"?>
<!-- Generator: Adobe Illustrator 19.2.1, SVG Export Plug-In . SVG Version: 6.00 Build 0)  -->
<svg version="1.1" xmlns="http://www.w3.org/2000/svg" xmlns:xlink="http://www.w3.org/1999/xlink" x="0px" y="0px"
	 viewBox="0 0 24 24" style="enable-background:new 0 0 24 24;" xml:space="preserve">
<g id="Restaurant_sign_1">
</g>
<g id="Restaurant_Sign_2">
</g>
<g id="Restaurant_Sign_3">
</g>
<g id="Hot_Drink_1">
</g>
<g id="Hot_Drink_2">
</g>
<g id="Cocktail">
</g>
<g id="Shot_Glasses">
</g>
<g id="Chilled_Champagne">
</g>
<g id="Wine">
</g>
<g id="Wine_List">
</g>
<g id="Menu">
</g>
<g id="Menu_2">
</g>
<g id="Salver">
</g>
<g id="Soup">
</g>
<g id="Sushi">
</g>
<g id="Pizza">
</g>
<g id="Pizza_Slice">
</g>
<g id="Fish">
	<g id="XMLID_240_">
		<g id="XMLID_282_">
			<path d="M23.5,20c-2.043,0-3.502-1.33-4.283-2.726C17.087,18.461,12.81,20,8.326,20C2.86,20,0,17.736,0,15.5
				C0,14.568,3.454,11,9.195,11c3.963,0,7.968,1.541,10.031,2.733C20.019,12.333,21.479,11,23.5,11c0.156,0,0.305,0.073,0.398,0.198
				c0.095,0.125,0.125,0.287,0.083,0.438c0,0-0.692,2.445-0.908,3.264c-0.104,0.393-0.104,0.808,0,1.2
				c0.216,0.819,0.908,3.264,0.908,3.264c0.042,0.151,0.012,0.313-0.083,0.438C23.805,19.927,23.656,20,23.5,20z M9.195,12
				c-5.096,0-8.03,3.038-8.203,3.567C1,16.853,2.989,19,8.326,19c4.633,0,9.015-1.705,10.83-2.852
				c0.122-0.078,0.272-0.098,0.412-0.056c0.139,0.042,0.253,0.143,0.312,0.275c0.245,0.553,1.129,2.224,2.942,2.569
				c-0.223-0.791-0.573-2.04-0.716-2.582c-0.148-0.559-0.148-1.151,0-1.71c0.143-0.541,0.491-1.785,0.714-2.576
				c-1.426,0.292-2.437,1.468-2.938,2.578c-0.061,0.133-0.176,0.233-0.315,0.274c-0.14,0.041-0.29,0.019-0.413-0.061
				C17.384,13.71,13.271,12,9.195,12z"/>
		</g>
		<g id="XMLID_281_">
			<path d="M15.001,9c-0.113,0-0.227-0.038-0.32-0.116c-0.437-0.364-0.677-0.855-0.677-1.384c0-0.528,0.24-1.02,0.677-1.384
				c0.005-0.004,0.011-0.008,0.016-0.012C14.893,5.936,15,5.721,15,5.5c0-0.227-0.112-0.445-0.317-0.616
				c-0.212-0.177-0.24-0.492-0.063-0.704c0.178-0.212,0.492-0.24,0.704-0.064C15.76,4.479,16,4.971,16,5.5
				c0,0.528-0.24,1.02-0.677,1.384c-0.005,0.004-0.011,0.008-0.016,0.012c-0.196,0.168-0.304,0.383-0.304,0.604
				c0,0.227,0.112,0.445,0.317,0.616c0.212,0.177,0.24,0.492,0.063,0.704C15.286,8.938,15.144,9,15.001,9z M15.003,6.5h0.01H15.003z
				"/>
		</g>
		<g id="XMLID_280_">
			<path d="M11.997,9c-0.113,0-0.227-0.038-0.32-0.116C11.24,8.521,11,8.029,11,7.5c0-0.528,0.24-1.02,0.677-1.384
				c0.005-0.004,0.011-0.008,0.016-0.012c0.196-0.168,0.304-0.383,0.304-0.604c0-0.227-0.112-0.445-0.317-0.616
				c-0.212-0.177-0.24-0.492-0.063-0.704c0.178-0.212,0.493-0.24,0.704-0.064c0.437,0.364,0.677,0.855,0.677,1.384
				c0,0.528-0.24,1.02-0.677,1.384c-0.005,0.004-0.011,0.008-0.016,0.012C12.107,7.064,12,7.279,12,7.5
				c0,0.227,0.112,0.445,0.317,0.616c0.212,0.177,0.24,0.492,0.063,0.704C12.282,8.938,12.14,9,11.997,9z M11.999,6.5h0.01H11.999z"
				/>
		</g>
		<g id="XMLID_279_">
			<path d="M9.001,9c-0.113,0-0.227-0.038-0.32-0.116C8.244,8.521,8.004,8.029,8.004,7.5c0-0.528,0.24-1.02,0.677-1.384
				c0.005-0.004,0.011-0.008,0.016-0.012C8.893,5.936,9,5.721,9,5.5c0-0.227-0.112-0.445-0.317-0.616
				C8.471,4.708,8.442,4.392,8.619,4.18c0.178-0.212,0.493-0.24,0.704-0.064C9.76,4.479,10,4.971,10,5.5
				c0,0.528-0.24,1.02-0.677,1.384C9.318,6.888,9.313,6.892,9.308,6.896C9.111,7.064,9.004,7.279,9.004,7.5
				c0,0.227,0.112,0.445,0.317,0.616c0.212,0.177,0.24,0.492,0.063,0.704C9.286,8.938,9.144,9,9.001,9z M9.003,6.5h0.01H9.003z"/>
		</g>
		<g id="XMLID_278_">
			<path d="M5.138,19.702c-0.094,0-0.189-0.026-0.273-0.082c-0.231-0.151-0.296-0.46-0.146-0.692
				c1.484-2.272,1.284-7.076,1.282-7.125c-0.013-0.276,0.2-0.51,0.477-0.522c0.318-0.005,0.51,0.202,0.521,0.477
				c0.01,0.21,0.219,5.174-1.442,7.717C5.46,19.623,5.301,19.702,5.138,19.702z"/>
		</g>
		<g id="XMLID_277_">
			<path d="M8,17c-0.063,0-0.127-0.012-0.188-0.037c-0.256-0.104-0.379-0.396-0.274-0.651C7.666,15.994,8,15.05,8,14.5
				C8,14.224,8.224,14,8.5,14S9,14.224,9,14.5c0,0.844-0.481,2.053-0.537,2.188C8.384,16.882,8.197,17,8,17z"/>
		</g>
		<g id="XMLID_276_">
			<path d="M10,17c-0.063,0-0.127-0.012-0.188-0.037c-0.256-0.104-0.379-0.396-0.274-0.651C9.666,15.994,10,15.05,10,14.5
				c0-0.276,0.224-0.5,0.5-0.5s0.5,0.224,0.5,0.5c0,0.844-0.481,2.053-0.537,2.188C10.384,16.882,10.197,17,10,17z"/>
		</g>
		<g id="XMLID_272_">
			<path d="M2.5,17c-0.075,0-0.151-0.017-0.224-0.053l-2-1c-0.247-0.124-0.347-0.424-0.224-0.671
				c0.125-0.248,0.424-0.345,0.671-0.224l2,1c0.247,0.124,0.347,0.424,0.224,0.671C2.859,16.899,2.683,17,2.5,17z"/>
		</g>
		<g id="XMLID_271_">
			<circle cx="4.5" cy="14.5" r="0.5"/>
		</g>
	</g>
</g>
<g id="Sausage">
</g>
<g id="Course">
</g>
<g id="Dessert">
</g>
<g id="Cutlery">
</g>
<g id="Napkin">
</g>
<g id="Table">
</g>
<g id="Spices">
</g>
<g id="Hot_Sauce">
</g>
<g id="Reserved_1">
</g>
<g id="Reserved_2">
</g>
<g id="Open">
</g>
<g id="Food_Photo">
</g>
<g id="Chef">
</g>
<g id="Bill">
</g>
<g id="Bill_2">
</g>
<g id="Paying_1">
</g>
<g id="Paying_2">
</g>
<g id="Restaurant_Place">
</g>
</svg>
