<?xml version="1.0" encoding="iso-8859-1"?>
<!-- Generator: Adobe Illustrator 19.2.1, SVG Export Plug-In . SVG Version: 6.00 Build 0)  -->
<svg version="1.1" xmlns="http://www.w3.org/2000/svg" xmlns:xlink="http://www.w3.org/1999/xlink" x="0px" y="0px"
	 viewBox="0 0 24 24" style="enable-background:new 0 0 24 24;" xml:space="preserve">
<g id="Restaurant_sign_1">
</g>
<g id="Restaurant_Sign_2">
</g>
<g id="Restaurant_Sign_3">
</g>
<g id="Hot_Drink_1">
</g>
<g id="Hot_Drink_2">
</g>
<g id="Cocktail">
</g>
<g id="Shot_Glasses">
</g>
<g id="Chilled_Champagne">
</g>
<g id="Wine">
</g>
<g id="Wine_List">
</g>
<g id="Menu">
</g>
<g id="Menu_2">
</g>
<g id="Salver">
</g>
<g id="Soup">
</g>
<g id="Sushi">
</g>
<g id="Pizza">
</g>
<g id="Pizza_Slice">
</g>
<g id="Fish">
</g>
<g id="Sausage">
</g>
<g id="Course">
</g>
<g id="Dessert">
</g>
<g id="Cutlery">
</g>
<g id="Napkin">
</g>
<g id="Table">
</g>
<g id="Spices">
</g>
<g id="Hot_Sauce">
</g>
<g id="Reserved_1">
</g>
<g id="Reserved_2">
</g>
<g id="Open">
</g>
<g id="Food_Photo">
	<g id="XMLID_248_">
		<g id="XMLID_376_">
			<path d="M22.5,24h-21C1.224,24,1,23.776,1,23.5v-23C1,0.224,1.224,0,1.5,0h21C22.776,0,23,0.224,23,0.5v23
				C23,23.776,22.776,24,22.5,24z M2,23h20V1H2V23z"/>
		</g>
		<g id="XMLID_375_">
			<path d="M20.5,18h-17C3.224,18,3,17.776,3,17.5v-15C3,2.224,3.224,2,3.5,2h17C20.776,2,21,2.224,21,2.5v15
				C21,17.776,20.776,18,20.5,18z M4,17h16V3H4V17z"/>
		</g>
		<g id="XMLID_251_">
			<path d="M7.5,15c-0.131,0-0.259-0.052-0.354-0.146c-0.128-0.127-0.177-0.313-0.128-0.487l2.5-9
				c0.036-0.131,0.124-0.241,0.243-0.306c0.12-0.064,0.26-0.078,0.39-0.037c3.244,1.029,5.796,3.581,6.825,6.825
				c0.041,0.13,0.027,0.271-0.037,0.39s-0.175,0.207-0.306,0.243l-9,2.5C7.59,14.994,7.545,15,7.5,15z M10.339,6.147l-2.12,7.634
				l7.634-2.12C14.891,9.122,12.878,7.109,10.339,6.147z"/>
		</g>
		<g id="XMLID_250_">
			<path d="M12,11.5c-0.827,0-1.5-0.673-1.5-1.5s0.673-1.5,1.5-1.5s1.5,0.673,1.5,1.5S12.827,11.5,12,11.5z M12,9.5
				c-0.275,0-0.5,0.225-0.5,0.5s0.225,0.5,0.5,0.5s0.5-0.225,0.5-0.5S12.275,9.5,12,9.5z"/>
		</g>
		<g id="XMLID_249_">
			<path d="M9.5,12h-1C8.224,12,8,11.776,8,11.5S8.224,11,8.5,11h1c0.276,0,0.5,0.224,0.5,0.5S9.776,12,9.5,12z"/>
		</g>
	</g>
</g>
<g id="Chef">
</g>
<g id="Bill">
</g>
<g id="Bill_2">
</g>
<g id="Paying_1">
</g>
<g id="Paying_2">
</g>
<g id="Restaurant_Place">
</g>
</svg>
