<?xml version="1.0" encoding="iso-8859-1"?>
<!-- Generator: Adobe Illustrator 19.2.1, SVG Export Plug-In . SVG Version: 6.00 Build 0)  -->
<svg version="1.1" xmlns="http://www.w3.org/2000/svg" xmlns:xlink="http://www.w3.org/1999/xlink" x="0px" y="0px"
	 viewBox="0 0 24 24" style="enable-background:new 0 0 24 24;" xml:space="preserve">
<g id="Restaurant_sign_1">
</g>
<g id="Restaurant_Sign_2">
</g>
<g id="Restaurant_Sign_3">
</g>
<g id="Hot_Drink_1">
	<g id="XMLID_110_">
		<g id="XMLID_109_">
			<path d="M19.5,22H3.354c-1.334,0-2.533-0.741-3.13-1.935l-0.171-0.342c-0.078-0.155-0.069-0.339,0.022-0.486S0.327,19,0.5,19
				h21.854c0.173,0,0.334,0.09,0.425,0.237s0.1,0.332,0.022,0.486l-0.171,0.342C22.034,21.259,20.834,22,19.5,22z M1.353,20
				c0.467,0.626,1.2,1,2.001,1H19.5c0.801,0,1.535-0.375,2.001-1H1.353z"/>
		</g>
		<g id="XMLID_111_">
			<path d="M16.399,20H6.601c-0.083,0-0.166-0.021-0.239-0.061C4.905,19.146,4,17.637,4,16V9.5C4,8.673,4.673,8,5.5,8h12
				C18.327,8,19,8.673,19,9.5v0.845c0.688-0.333,1.469-0.43,2.245-0.266h0c1.38,0.293,2.466,1.421,2.703,2.809
				c0.176,1.033-0.105,2.078-0.772,2.868c-1.015,1.203-2.822,1.578-4.221,0.876c-0.2,1.386-1.05,2.618-2.317,3.307
				C16.564,19.979,16.482,20,16.399,20z M6.733,19h9.534C17.339,18.368,18,17.23,18,16v-0.278c0-0.197,0.116-0.376,0.296-0.457
				c0.181-0.082,0.391-0.047,0.538,0.085c1.031,0.928,2.708,0.792,3.577-0.239c0.483-0.573,0.679-1.302,0.551-2.055
				c-0.166-0.972-0.958-1.793-1.925-1.999h0c-0.794-0.169-1.598,0.047-2.202,0.593c-0.146,0.132-0.358,0.167-0.538,0.085
				C18.116,11.655,18,11.477,18,11.279V9.5C18,9.224,17.776,9,17.5,9h-12C5.224,9,5,9.224,5,9.5V16C5,17.23,5.661,18.368,6.733,19z"
				/>
		</g>
		<g id="XMLID_115_">
			<path d="M14.997,7c-0.113,0-0.226-0.038-0.32-0.116C14.241,6.521,14,6.029,14,5.5c0-0.528,0.241-1.02,0.677-1.384
				c0.206-0.171,0.319-0.39,0.319-0.617s-0.112-0.445-0.317-0.615c-0.212-0.177-0.241-0.492-0.064-0.704
				c0.177-0.211,0.492-0.241,0.704-0.064c0.437,0.364,0.677,0.855,0.677,1.384c0,0.528-0.24,1.02-0.677,1.384
				C15.113,5.055,15,5.274,15,5.5s0.112,0.445,0.317,0.615c0.212,0.177,0.241,0.492,0.064,0.705C15.282,6.939,15.14,7,14.997,7z"/>
		</g>
		<g id="XMLID_114_">
			<path d="M11.993,7c-0.113,0-0.226-0.038-0.319-0.116c-0.437-0.364-0.677-0.855-0.677-1.384c0-0.528,0.24-1.02,0.677-1.384
				c0.205-0.171,0.318-0.39,0.318-0.617s-0.112-0.445-0.317-0.615c-0.212-0.177-0.241-0.492-0.064-0.704
				c0.177-0.211,0.493-0.241,0.704-0.064c0.437,0.364,0.677,0.855,0.677,1.384c0,0.528-0.24,1.02-0.677,1.384
				c-0.205,0.171-0.318,0.39-0.318,0.617s0.112,0.445,0.317,0.615c0.212,0.177,0.241,0.492,0.064,0.704
				C12.278,6.938,12.136,7,11.993,7z"/>
		</g>
		<g id="XMLID_112_">
			<path d="M8.997,7c-0.113,0-0.226-0.038-0.32-0.116C8.241,6.521,8,6.029,8,5.5c0-0.528,0.241-1.02,0.677-1.384
				C8.882,3.945,8.996,3.726,8.996,3.5S8.883,3.055,8.679,2.884C8.466,2.708,8.438,2.392,8.614,2.18
				c0.176-0.211,0.492-0.241,0.704-0.064C9.755,2.479,9.996,2.971,9.996,3.5c0,0.528-0.24,1.02-0.677,1.384
				C9.113,5.055,9,5.274,9,5.5s0.112,0.445,0.317,0.615C9.529,6.292,9.558,6.608,9.381,6.82C9.282,6.939,9.14,7,8.997,7z"/>
		</g>
		<g id="XMLID_108_">
			<path d="M20.5,14.5c-0.551,0-1-0.449-1-1s0.449-1,1-1s1,0.449,1,1S21.051,14.5,20.5,14.5z M20.5,13.499
				C20.5,13.5,20.5,13.5,20.5,13.499L21,13.5L20.5,13.499z"/>
		</g>
	</g>
</g>
<g id="Hot_Drink_2">
</g>
<g id="Cocktail">
</g>
<g id="Shot_Glasses">
</g>
<g id="Chilled_Champagne">
</g>
<g id="Wine">
</g>
<g id="Wine_List">
</g>
<g id="Menu">
</g>
<g id="Menu_2">
</g>
<g id="Salver">
</g>
<g id="Soup">
</g>
<g id="Sushi">
</g>
<g id="Pizza">
</g>
<g id="Pizza_Slice">
</g>
<g id="Fish">
</g>
<g id="Sausage">
</g>
<g id="Course">
</g>
<g id="Dessert">
</g>
<g id="Cutlery">
</g>
<g id="Napkin">
</g>
<g id="Table">
</g>
<g id="Spices">
</g>
<g id="Hot_Sauce">
</g>
<g id="Reserved_1">
</g>
<g id="Reserved_2">
</g>
<g id="Open">
</g>
<g id="Food_Photo">
</g>
<g id="Chef">
</g>
<g id="Bill">
</g>
<g id="Bill_2">
</g>
<g id="Paying_1">
</g>
<g id="Paying_2">
</g>
<g id="Restaurant_Place">
</g>
</svg>
