<?xml version="1.0" encoding="iso-8859-1"?>
<!-- Generator: Adobe Illustrator 19.2.1, SVG Export Plug-In . SVG Version: 6.00 Build 0)  -->
<svg version="1.1" xmlns="http://www.w3.org/2000/svg" xmlns:xlink="http://www.w3.org/1999/xlink" x="0px" y="0px"
	 viewBox="0 0 24 24" style="enable-background:new 0 0 24 24;" xml:space="preserve">
<g id="Restaurant_sign_1">
</g>
<g id="Restaurant_Sign_2">
</g>
<g id="Restaurant_Sign_3">
</g>
<g id="Hot_Drink_1">
</g>
<g id="Hot_Drink_2">
</g>
<g id="Cocktail">
</g>
<g id="Shot_Glasses">
</g>
<g id="Chilled_Champagne">
</g>
<g id="Wine">
</g>
<g id="Wine_List">
</g>
<g id="Menu">
</g>
<g id="Menu_2">
</g>
<g id="Salver">
</g>
<g id="Soup">
</g>
<g id="Sushi">
</g>
<g id="Pizza">
</g>
<g id="Pizza_Slice">
</g>
<g id="Fish">
</g>
<g id="Sausage">
</g>
<g id="Course">
</g>
<g id="Dessert">
</g>
<g id="Cutlery">
</g>
<g id="Napkin">
</g>
<g id="Table">
</g>
<g id="Spices">
</g>
<g id="Hot_Sauce">
	<g id="XMLID_321_">
		<g id="XMLID_316_">
			<path d="M11.5,24C10.21,24,6,23.892,6,22.5v-14C6,7.121,7.121,6,8.5,6h6C15.879,6,17,7.121,17,8.5v14C17,23.892,12.79,24,11.5,24
				z M7,22.384C7.348,22.619,8.884,23,11.5,23s4.152-0.381,4.5-0.616V8.5C16,7.673,15.327,7,14.5,7h-6C7.673,7,7,7.673,7,8.5V22.384
				z"/>
		</g>
		<g id="XMLID_322_">
			<path d="M14.5,7h-6C8.224,7,8,6.776,8,6.5v-1c0-0.868,0.567-1.116,0.942-1.281c0.097-0.042,0.198-0.085,0.297-0.146
				C9.876,3.685,10,2.469,10,0.5C10,0.224,10.224,0,10.5,0h2C12.776,0,13,0.224,13,0.5c0,1.916,0.128,3.182,0.763,3.574
				c0.099,0.062,0.202,0.104,0.299,0.145C14.413,4.367,15,4.615,15,5.5v1C15,6.776,14.776,7,14.5,7z M9,6h5V5.5
				c0-0.222-0.013-0.228-0.327-0.36c-0.143-0.061-0.291-0.125-0.436-0.214l0,0C12.189,4.278,12.023,2.785,12.003,1h-1.006
				c-0.021,1.789-0.187,3.285-1.236,3.927C9.622,5.012,9.479,5.075,9.343,5.135C9.01,5.281,9,5.291,9,5.5V6z"/>
		</g>
		<g id="XMLID_315_">
			<path d="M11.5,20C9.57,20,8,18.43,8,16.5c0-0.949,0.7-1.956,1.441-3.021c0.705-1.015,1.436-2.064,1.563-3.043
				c0.034-0.262,0.265-0.459,0.528-0.435C11.795,10.019,12,10.236,12,10.5c0,3.194,0.996,3.775,1.796,4.243
				C14.36,15.072,15,15.445,15,16.5C15,18.43,13.43,20,11.5,20z M11.191,12.639c-0.288,0.489-0.617,0.963-0.929,1.41
				C9.642,14.941,9,15.864,9,16.5c0,1.379,1.121,2.5,2.5,2.5s2.5-1.121,2.5-2.5c0-0.459-0.17-0.58-0.708-0.894
				C12.586,15.194,11.602,14.62,11.191,12.639z"/>
		</g>
		<g id="XMLID_320_">
			<path d="M11.5,20c-1.305,0-1.5-0.739-1.5-1.181c0-0.916,1.212-2.177,1.806-1.715C12.086,17.321,13,18.086,13,18.825
				C13,19.264,12.805,20,11.5,20z M11.412,18.079C11.258,18.245,11,18.613,11,18.819C11,18.899,11,19,11.5,19
				c0.498,0,0.5-0.096,0.5-0.174C11.99,18.692,11.725,18.362,11.412,18.079z"/>
		</g>
	</g>
</g>
<g id="Reserved_1">
</g>
<g id="Reserved_2">
</g>
<g id="Open">
</g>
<g id="Food_Photo">
</g>
<g id="Chef">
</g>
<g id="Bill">
</g>
<g id="Bill_2">
</g>
<g id="Paying_1">
</g>
<g id="Paying_2">
</g>
<g id="Restaurant_Place">
</g>
</svg>
