<?xml version="1.0" encoding="iso-8859-1"?>
<!-- Generator: Adobe Illustrator 19.2.1, SVG Export Plug-In . SVG Version: 6.00 Build 0)  -->
<svg version="1.1" xmlns="http://www.w3.org/2000/svg" xmlns:xlink="http://www.w3.org/1999/xlink" x="0px" y="0px"
	 viewBox="0 0 24 24" style="enable-background:new 0 0 24 24;" xml:space="preserve">
<g id="Restaurant_sign_1">
</g>
<g id="Restaurant_Sign_2">
</g>
<g id="Restaurant_Sign_3">
</g>
<g id="Hot_Drink_1">
</g>
<g id="Hot_Drink_2">
	<g id="XMLID_76_">
		<g id="XMLID_138_">
			<path d="M17,24H5c-0.782,0-1.53-0.374-2-1L2.1,21.8c-0.114-0.151-0.132-0.354-0.047-0.523C2.138,21.107,2.311,21,2.5,21h17
				c0.189,0,0.362,0.107,0.447,0.276c0.084,0.169,0.066,0.372-0.047,0.523L19,23C18.53,23.626,17.782,24,17,24z M3.5,22l0.3,0.4
				C4.082,22.776,4.53,23,5,23h12c0.47,0,0.918-0.224,1.2-0.6l0.3-0.4H3.5z"/>
		</g>
		<g id="XMLID_131_">
			<path d="M16.904,14.971c-0.103,0-0.205-0.032-0.292-0.094c-0.152-0.109-0.23-0.295-0.202-0.481
				c0.126-0.828,0.22-1.578,0.298-2.385c0.018-0.182,0.133-0.34,0.301-0.412c0.131-0.056,0.246-0.097,0.356-0.136l0.198-0.073
				c0.625-0.25,1.47-0.421,1.963-0.391C19.792,11.014,20,11.233,20,11.499c0,1.61-1.559,2.745-2.867,3.417
				C17.061,14.953,16.982,14.971,16.904,14.971z M17.673,12.415c-0.039,0.37-0.081,0.732-0.128,1.095
				c0.543-0.372,1.118-0.877,1.35-1.458c-0.306,0.055-0.659,0.147-0.961,0.268c0,0,0,0,0,0l-0.234,0.086
				C17.69,12.409,17.682,12.412,17.673,12.415z M17.748,11.855h0.01H17.748z"/>
		</g>
		<g id="XMLID_81_">
			<path d="M14.467,22H7.533c-0.145,0-0.283-0.063-0.377-0.172C4.379,18.628,4.022,10.669,3.998,7.396
				c-0.003-0.375,0.14-0.729,0.403-0.993C4.659,6.143,5.001,6,5.365,6h11.271c0.364,0,0.706,0.143,0.964,0.403
				c0.263,0.265,0.406,0.618,0.403,0.993c-0.005,0.621-0.022,0.907-0.073,1.708l-0.005,0.088c0.986-0.236,2.293-0.36,3.177,0.281
				C21.697,9.905,22,10.596,22,11.526c0,3.28-3.401,5.022-5.125,5.694c-0.515,2.099-1.198,3.648-2.031,4.607
				C14.75,21.937,14.612,22,14.467,22z M7.768,21h6.463c0.696-0.893,1.278-2.326,1.733-4.267c0.039-0.164,0.157-0.298,0.315-0.356
				C17.386,15.972,21,14.424,21,11.526c0-0.6-0.159-1.007-0.486-1.245c-0.544-0.395-1.658-0.373-2.978,0.058
				c-0.158,0.051-0.331,0.021-0.461-0.08c-0.131-0.101-0.204-0.261-0.193-0.426l0.049-0.794c0.049-0.774,0.066-1.051,0.071-1.652
				c0.001-0.107-0.039-0.207-0.112-0.281C16.821,7.038,16.73,7,16.635,7H5.365C5.27,7,5.179,7.038,5.11,7.107
				C5.037,7.181,4.997,7.281,4.998,7.388C5.021,10.491,5.34,17.936,7.768,21z"/>
		</g>
		<g id="XMLID_80_">
			<path d="M13.997,5c-0.113,0-0.226-0.038-0.32-0.116C13.241,4.521,13,4.029,13,3.5c0-0.528,0.241-1.02,0.677-1.384
				c0.206-0.171,0.319-0.39,0.319-0.617s-0.112-0.445-0.317-0.615c-0.212-0.177-0.241-0.492-0.064-0.704
				c0.178-0.212,0.492-0.241,0.704-0.064c0.437,0.364,0.677,0.855,0.677,1.384c0,0.528-0.24,1.02-0.677,1.384
				C14.113,3.055,14,3.274,14,3.5s0.112,0.445,0.317,0.615c0.212,0.177,0.241,0.492,0.064,0.705C14.282,4.939,14.14,5,13.997,5z"/>
		</g>
		<g id="XMLID_79_">
			<path d="M10.993,5c-0.113,0-0.226-0.038-0.319-0.116C10.236,4.521,9.996,4.029,9.996,3.5c0-0.528,0.24-1.02,0.677-1.384
				c0.205-0.171,0.318-0.39,0.318-0.617s-0.112-0.445-0.317-0.615c-0.212-0.177-0.241-0.492-0.064-0.704s0.492-0.241,0.704-0.064
				c0.437,0.364,0.677,0.855,0.677,1.384c0,0.528-0.24,1.02-0.677,1.384c-0.205,0.171-0.318,0.39-0.318,0.617
				s0.112,0.445,0.317,0.615c0.212,0.177,0.241,0.492,0.064,0.704C11.278,4.938,11.136,5,10.993,5z"/>
		</g>
		<g id="XMLID_78_">
			<path d="M7.997,5c-0.113,0-0.226-0.038-0.32-0.116C7.241,4.521,7,4.029,7,3.5c0-0.528,0.241-1.02,0.677-1.384
				C7.882,1.945,7.996,1.726,7.996,1.5S7.883,1.055,7.679,0.884C7.466,0.708,7.438,0.392,7.614,0.18s0.492-0.241,0.704-0.064
				C8.755,0.479,8.996,0.971,8.996,1.5c0,0.528-0.24,1.02-0.677,1.384C8.113,3.055,8,3.274,8,3.5s0.112,0.445,0.317,0.615
				C8.529,4.292,8.558,4.608,8.381,4.82C8.282,4.939,8.14,5,7.997,5z"/>
		</g>
	</g>
</g>
<g id="Cocktail">
</g>
<g id="Shot_Glasses">
</g>
<g id="Chilled_Champagne">
</g>
<g id="Wine">
</g>
<g id="Wine_List">
</g>
<g id="Menu">
</g>
<g id="Menu_2">
</g>
<g id="Salver">
</g>
<g id="Soup">
</g>
<g id="Sushi">
</g>
<g id="Pizza">
</g>
<g id="Pizza_Slice">
</g>
<g id="Fish">
</g>
<g id="Sausage">
</g>
<g id="Course">
</g>
<g id="Dessert">
</g>
<g id="Cutlery">
</g>
<g id="Napkin">
</g>
<g id="Table">
</g>
<g id="Spices">
</g>
<g id="Hot_Sauce">
</g>
<g id="Reserved_1">
</g>
<g id="Reserved_2">
</g>
<g id="Open">
</g>
<g id="Food_Photo">
</g>
<g id="Chef">
</g>
<g id="Bill">
</g>
<g id="Bill_2">
</g>
<g id="Paying_1">
</g>
<g id="Paying_2">
</g>
<g id="Restaurant_Place">
</g>
</svg>
