<?xml version="1.0" encoding="iso-8859-1"?>
<!-- Generator: Adobe Illustrator 19.2.1, SVG Export Plug-In . SVG Version: 6.00 Build 0)  -->
<svg version="1.1" xmlns="http://www.w3.org/2000/svg" xmlns:xlink="http://www.w3.org/1999/xlink" x="0px" y="0px"
	 viewBox="0 0 24 24" style="enable-background:new 0 0 24 24;" xml:space="preserve">
<g id="Restaurant_sign_1">
</g>
<g id="Restaurant_Sign_2">
</g>
<g id="Restaurant_Sign_3">
</g>
<g id="Hot_Drink_1">
</g>
<g id="Hot_Drink_2">
</g>
<g id="Cocktail">
</g>
<g id="Shot_Glasses">
</g>
<g id="Chilled_Champagne">
</g>
<g id="Wine">
</g>
<g id="Wine_List">
</g>
<g id="Menu">
</g>
<g id="Menu_2">
	<g id="XMLID_75_">
		<g id="XMLID_85_">
			<path d="M5.126,11.5c-0.258,0-0.509-0.056-0.74-0.168c-0.465-0.225-0.838-0.669-1.081-1.284c-0.517-1.309-0.377-3.05,0.648-3.456
				c1.028-0.408,2.32,0.771,2.836,2.08c0.243,0.615,0.273,1.194,0.087,1.676c-0.176,0.458-0.545,0.817-1.04,1.012
				C5.602,11.454,5.361,11.5,5.126,11.5z M4.4,7.509c-0.029,0-0.056,0.004-0.079,0.014c-0.305,0.121-0.46,1.211-0.086,2.159
				c0.149,0.377,0.352,0.637,0.587,0.751c0.191,0.093,0.409,0.092,0.647-0.001c0.239-0.094,0.398-0.243,0.475-0.441
				C6.038,9.746,6.009,9.417,5.86,9.04C5.514,8.164,4.755,7.509,4.4,7.509z"/>
		</g>
		<g id="XMLID_124_">
			<path d="M11.494,20.532C11.217,20.532,11,20.276,11,20c-0.111-0.152-1.044-0.5-1.5-0.5l-8.945,0.997
				c-0.138,0.016-0.282-0.029-0.389-0.125C0.061,20.278,0,20.142,0,20V5c0-0.255,0.191-0.469,0.445-0.497l9-1
				c0.412-0.014,1.44,0.209,2.054,0.664C12.109,3.712,13.107,3.5,13.5,3.5l9.055,1.003C22.809,4.531,23,4.745,23,5v15
				c0,0.142-0.061,0.278-0.167,0.373c-0.106,0.095-0.247,0.141-0.389,0.125l-9-1c-0.391,0.003-1.288,0.333-1.447,0.55
				c-0.002,0.029-0.008,0.057-0.015,0.084C11.95,20.371,11.747,20.532,11.494,20.532z M13.5,18.5l8.5,0.941V5.448l-8.555-0.951
				c-0.391,0.003-1.288,0.333-1.447,0.55c-0.002,0.029-0.008,0.057-0.015,0.084c-0.032,0.24-0.236,0.4-0.489,0.4
				C11.217,5.532,11,5.276,11,5c-0.111-0.152-1.044-0.5-1.5-0.5L1,5.447v13.994l8.445-0.938c0.002,0,0.004,0,0.006,0
				c0.433,0,1.437,0.212,2.048,0.664C12.109,18.712,13.107,18.5,13.5,18.5z"/>
		</g>
		<g id="XMLID_123_">
			<path d="M11.5,20.5c-0.276,0-0.5-0.224-0.5-0.5V5c0-0.276,0.224-0.5,0.5-0.5S12,4.724,12,5v15C12,20.276,11.776,20.5,11.5,20.5z"
				/>
		</g>
		<g id="XMLID_125_">
			<path d="M20.5,17.5c-0.041,0-0.082-0.005-0.122-0.015c-0.217-0.054-0.552-0.117-0.96-0.185c-0.272-0.045-0.457-0.302-0.412-0.575
				c0.045-0.272,0.296-0.463,0.575-0.412c0.442,0.073,0.806,0.142,1.041,0.201c0.268,0.067,0.431,0.339,0.363,0.606
				C20.928,17.349,20.724,17.5,20.5,17.5z"/>
		</g>
		<g id="XMLID_88_">
			<path d="M17.5,17.01c-0.022,0-0.046-0.001-0.069-0.005c-1.926-0.266-3.988-0.508-3.99-0.508c-0.274-0.032-0.47-0.281-0.438-0.555
				s0.281-0.47,0.555-0.438c0,0,2.073,0.244,4.01,0.511c0.273,0.038,0.465,0.29,0.427,0.563C17.961,16.829,17.747,17.01,17.5,17.01z
				"/>
		</g>
		<g id="XMLID_122_">
			<path d="M20.5,14.5c-0.04,0-0.081-0.005-0.121-0.015c-0.217-0.054-0.553-0.117-0.961-0.185c-0.272-0.045-0.457-0.303-0.411-0.575
				c0.045-0.272,0.304-0.459,0.575-0.411c0.441,0.074,0.804,0.143,1.039,0.201c0.268,0.067,0.431,0.338,0.365,0.606
				C20.929,14.348,20.725,14.5,20.5,14.5z"/>
		</g>
		<g id="XMLID_87_">
			<path d="M17.5,14.009c-0.022,0-0.045-0.001-0.069-0.005c-1.926-0.265-3.988-0.508-3.99-0.508
				c-0.274-0.032-0.47-0.281-0.438-0.555s0.281-0.469,0.555-0.438c0,0,2.073,0.244,4.009,0.511c0.273,0.038,0.465,0.29,0.427,0.563
				C17.96,13.828,17.746,14.009,17.5,14.009z"/>
		</g>
		<g id="XMLID_107_">
			<path d="M20.5,11.5c-0.04,0-0.081-0.005-0.121-0.015c-0.217-0.054-0.553-0.117-0.961-0.185c-0.272-0.045-0.457-0.302-0.412-0.575
				c0.045-0.272,0.296-0.46,0.575-0.412c0.442,0.073,0.805,0.143,1.04,0.201c0.268,0.067,0.431,0.338,0.365,0.606
				C20.929,11.348,20.725,11.5,20.5,11.5z"/>
		</g>
		<g id="XMLID_86_">
			<path d="M17.499,11.009c-0.022,0-0.045-0.001-0.069-0.005c-1.926-0.265-3.987-0.508-3.989-0.508
				c-0.274-0.032-0.47-0.281-0.438-0.555c0.032-0.274,0.281-0.474,0.555-0.438c0,0,2.072,0.244,4.008,0.511
				c0.273,0.038,0.465,0.29,0.427,0.563C17.959,10.828,17.745,11.009,17.499,11.009z"/>
		</g>
		<g id="XMLID_91_">
			<path d="M20.5,8.5c-0.04,0-0.081-0.005-0.121-0.015c-0.217-0.054-0.553-0.117-0.961-0.185c-0.272-0.045-0.457-0.302-0.412-0.575
				c0.045-0.272,0.296-0.461,0.575-0.412c0.442,0.073,0.805,0.143,1.04,0.201c0.268,0.067,0.431,0.338,0.365,0.606
				C20.929,8.348,20.725,8.5,20.5,8.5z"/>
		</g>
		<g id="XMLID_90_">
			<path d="M17.499,8.009c-0.022,0-0.045-0.001-0.069-0.005c-1.926-0.265-3.987-0.508-3.989-0.508
				c-0.274-0.032-0.47-0.281-0.438-0.555s0.281-0.473,0.555-0.438c0,0,2.072,0.244,4.008,0.511c0.273,0.038,0.465,0.29,0.427,0.563
				C17.959,7.828,17.745,8.009,17.499,8.009z"/>
		</g>
		<g id="XMLID_84_">
			<path d="M8,17c-0.195,0-0.381-0.115-0.461-0.307l-2.347-5.604c-0.106-0.255,0.014-0.548,0.269-0.655
				c0.255-0.105,0.547,0.013,0.654,0.269l2.347,5.604c0.106,0.255-0.014,0.548-0.269,0.655C8.13,16.988,8.064,17,8,17z"/>
		</g>
	</g>
</g>
<g id="Salver">
</g>
<g id="Soup">
</g>
<g id="Sushi">
</g>
<g id="Pizza">
</g>
<g id="Pizza_Slice">
</g>
<g id="Fish">
</g>
<g id="Sausage">
</g>
<g id="Course">
</g>
<g id="Dessert">
</g>
<g id="Cutlery">
</g>
<g id="Napkin">
</g>
<g id="Table">
</g>
<g id="Spices">
</g>
<g id="Hot_Sauce">
</g>
<g id="Reserved_1">
</g>
<g id="Reserved_2">
</g>
<g id="Open">
</g>
<g id="Food_Photo">
</g>
<g id="Chef">
</g>
<g id="Bill">
</g>
<g id="Bill_2">
</g>
<g id="Paying_1">
</g>
<g id="Paying_2">
</g>
<g id="Restaurant_Place">
</g>
</svg>
