<?xml version="1.0" encoding="iso-8859-1"?>
<!-- Generator: Adobe Illustrator 19.2.1, SVG Export Plug-In . SVG Version: 6.00 Build 0)  -->
<svg version="1.1" xmlns="http://www.w3.org/2000/svg" xmlns:xlink="http://www.w3.org/1999/xlink" x="0px" y="0px"
	 viewBox="0 0 24 24" style="enable-background:new 0 0 24 24;" xml:space="preserve">
<g id="Restaurant_sign_1">
</g>
<g id="Restaurant_Sign_2">
</g>
<g id="Restaurant_Sign_3">
</g>
<g id="Hot_Drink_1">
</g>
<g id="Hot_Drink_2">
</g>
<g id="Cocktail">
</g>
<g id="Shot_Glasses">
</g>
<g id="Chilled_Champagne">
</g>
<g id="Wine">
</g>
<g id="Wine_List">
</g>
<g id="Menu">
	<g id="XMLID_113_">
		<g id="XMLID_139_">
			<path d="M3.5,4h-2C1.224,4,1,3.776,1,3.5S1.224,3,1.5,3h2C3.776,3,4,3.224,4,3.5S3.776,4,3.5,4z"/>
		</g>
		<g id="XMLID_121_">
			<path d="M3.5,8h-2C1.224,8,1,7.776,1,7.5S1.224,7,1.5,7h2C3.776,7,4,7.224,4,7.5S3.776,8,3.5,8z"/>
		</g>
		<g id="XMLID_120_">
			<path d="M3.5,12h-2C1.224,12,1,11.776,1,11.5S1.224,11,1.5,11h2C3.776,11,4,11.224,4,11.5S3.776,12,3.5,12z"/>
		</g>
		<g id="XMLID_119_">
			<path d="M3.5,16h-2C1.224,16,1,15.776,1,15.5S1.224,15,1.5,15h2C3.776,15,4,15.224,4,15.5S3.776,16,3.5,16z"/>
		</g>
		<g id="XMLID_118_">
			<path d="M3.5,20h-2C1.224,20,1,19.776,1,19.5S1.224,19,1.5,19h2C3.776,19,4,19.224,4,19.5S3.776,20,3.5,20z"/>
		</g>
		<g id="XMLID_83_">
			<path d="M19.5,23h-15C3.122,23,2,21.878,2,20.5v-18C2,1.122,3.122,0,4.5,0h15C20.878,0,22,1.122,22,2.5v18
				C22,21.878,20.878,23,19.5,23z M4.5,1C3.673,1,3,1.673,3,2.5v18C3,21.327,3.673,22,4.5,22h15c0.827,0,1.5-0.673,1.5-1.5v-18
				C21,1.673,20.327,1,19.5,1H4.5z"/>
		</g>
		<g id="XMLID_116_">
			<path d="M7.5,12C7.224,12,7,11.776,7,11.5V9.618L6.947,9.724c-0.17,0.339-0.725,0.339-0.895,0L6,9.618V11.5
				C6,11.776,5.776,12,5.5,12S5,11.776,5,11.5v-4c0-0.232,0.16-0.434,0.385-0.487c0.223-0.052,0.458,0.055,0.562,0.263L6.5,8.382
				l0.553-1.105C7.156,7.068,7.389,6.96,7.615,7.013C7.84,7.066,8,7.268,8,7.5v4C8,11.776,7.776,12,7.5,12z"/>
		</g>
		<g id="XMLID_117_">
			<path d="M11.5,12h-2C9.224,12,9,11.776,9,11.5v-4C9,7.224,9.224,7,9.5,7h2C11.776,7,12,7.224,12,7.5S11.776,8,11.5,8H10v3h1.5
				c0.276,0,0.5,0.224,0.5,0.5S11.776,12,11.5,12z"/>
		</g>
		<g id="XMLID_141_">
			<path d="M11,10H9.5C9.224,10,9,9.776,9,9.5S9.224,9,9.5,9H11c0.276,0,0.5,0.224,0.5,0.5S11.276,10,11,10z"/>
		</g>
		<g id="XMLID_142_">
			<path d="M15.5,12c-0.186,0-0.361-0.104-0.447-0.276L14,9.618V11.5c0,0.276-0.224,0.5-0.5,0.5S13,11.776,13,11.5v-4
				c0-0.232,0.16-0.434,0.385-0.487c0.222-0.052,0.458,0.055,0.562,0.263L15,9.382V7.5C15,7.224,15.224,7,15.5,7S16,7.224,16,7.5v4
				c0,0.232-0.16,0.434-0.385,0.487C15.577,11.996,15.538,12,15.5,12z"/>
		</g>
		<g id="XMLID_143_">
			<path d="M18.5,12c-0.827,0-1.5-0.673-1.5-1.5v-3C17,7.224,17.224,7,17.5,7S18,7.224,18,7.5v3c0,0.276,0.224,0.5,0.5,0.5
				s0.5-0.224,0.5-0.5v-3C19,7.224,19.224,7,19.5,7S20,7.224,20,7.5v3C20,11.327,19.327,12,18.5,12z"/>
		</g>
	</g>
</g>
<g id="Menu_2">
</g>
<g id="Salver">
</g>
<g id="Soup">
</g>
<g id="Sushi">
</g>
<g id="Pizza">
</g>
<g id="Pizza_Slice">
</g>
<g id="Fish">
</g>
<g id="Sausage">
</g>
<g id="Course">
</g>
<g id="Dessert">
</g>
<g id="Cutlery">
</g>
<g id="Napkin">
</g>
<g id="Table">
</g>
<g id="Spices">
</g>
<g id="Hot_Sauce">
</g>
<g id="Reserved_1">
</g>
<g id="Reserved_2">
</g>
<g id="Open">
</g>
<g id="Food_Photo">
</g>
<g id="Chef">
</g>
<g id="Bill">
</g>
<g id="Bill_2">
</g>
<g id="Paying_1">
</g>
<g id="Paying_2">
</g>
<g id="Restaurant_Place">
</g>
</svg>
