<?xml version="1.0" encoding="iso-8859-1"?>
<!-- Generator: Adobe Illustrator 19.2.1, SVG Export Plug-In . SVG Version: 6.00 Build 0)  -->
<svg version="1.1" xmlns="http://www.w3.org/2000/svg" xmlns:xlink="http://www.w3.org/1999/xlink" x="0px" y="0px"
	 viewBox="0 0 24 24" style="enable-background:new 0 0 24 24;" xml:space="preserve">
<g id="Restaurant_sign_1">
</g>
<g id="Restaurant_Sign_2">
</g>
<g id="Restaurant_Sign_3">
</g>
<g id="Hot_Drink_1">
</g>
<g id="Hot_Drink_2">
</g>
<g id="Cocktail">
</g>
<g id="Shot_Glasses">
</g>
<g id="Chilled_Champagne">
</g>
<g id="Wine">
</g>
<g id="Wine_List">
</g>
<g id="Menu">
</g>
<g id="Menu_2">
</g>
<g id="Salver">
</g>
<g id="Soup">
</g>
<g id="Sushi">
</g>
<g id="Pizza">
</g>
<g id="Pizza_Slice">
</g>
<g id="Fish">
</g>
<g id="Sausage">
</g>
<g id="Course">
</g>
<g id="Dessert">
</g>
<g id="Cutlery">
</g>
<g id="Napkin">
	<g id="XMLID_317_">
		<g id="XMLID_318_">
			<path d="M6.505,23.996c-0.185,0-0.372-0.034-0.552-0.105c-0.577-0.228-0.95-0.775-0.95-1.396V1.497
				c0-0.59,0.327-1.108,0.854-1.354C6.401-0.108,7.032-0.02,7.501,0.378L18.49,9.095c0.328,0.299,0.498,0.675,0.506,1.081
				c0.009,0.42-0.16,0.835-0.463,1.139L7.607,23.512C7.311,23.828,6.913,23.996,6.505,23.996z M6.492,1.003
				c-0.073,0-0.145,0.016-0.213,0.048C6.196,1.089,6.003,1.21,6.003,1.497v20.998c0,0.315,0.242,0.436,0.316,0.465
				c0.075,0.03,0.333,0.107,0.549-0.124l10.938-12.209c0.131-0.131,0.193-0.28,0.19-0.43c-0.002-0.093-0.031-0.229-0.155-0.343
				L6.869,1.151C6.751,1.053,6.621,1.003,6.492,1.003z"/>
		</g>
		<g id="XMLID_319_">
			<path d="M6.505,23.996c-0.185,0-0.372-0.034-0.552-0.105c-0.577-0.228-0.95-0.775-0.95-1.396V5.501
				c0-0.591,0.294-1.093,0.788-1.343c0.523-0.263,1.152-0.188,1.684,0.203l9.021,6.939c0.342,0.312,0.52,0.715,0.52,1.134
				s-0.177,0.822-0.486,1.105l-8.922,9.971C7.311,23.828,6.913,23.996,6.505,23.996z M6.448,5.004c-0.073,0-0.143,0.016-0.205,0.047
				C6.09,5.128,6.003,5.292,6.003,5.501v16.994c0,0.315,0.242,0.436,0.316,0.465c0.075,0.03,0.333,0.107,0.549-0.124l8.95-9.997
				c0.139-0.132,0.197-0.263,0.197-0.404s-0.058-0.272-0.162-0.369L6.874,5.16C6.735,5.058,6.585,5.004,6.448,5.004z"/>
		</g>
	</g>
</g>
<g id="Table">
</g>
<g id="Spices">
</g>
<g id="Hot_Sauce">
</g>
<g id="Reserved_1">
</g>
<g id="Reserved_2">
</g>
<g id="Open">
</g>
<g id="Food_Photo">
</g>
<g id="Chef">
</g>
<g id="Bill">
</g>
<g id="Bill_2">
</g>
<g id="Paying_1">
</g>
<g id="Paying_2">
</g>
<g id="Restaurant_Place">
</g>
</svg>
