<?xml version="1.0" encoding="iso-8859-1"?>
<!-- Generator: Adobe Illustrator 19.2.1, SVG Export Plug-In . SVG Version: 6.00 Build 0)  -->
<svg version="1.1" xmlns="http://www.w3.org/2000/svg" xmlns:xlink="http://www.w3.org/1999/xlink" x="0px" y="0px"
	 viewBox="0 0 24 24" style="enable-background:new 0 0 24 24;" xml:space="preserve">
<g id="Restaurant_sign_1">
</g>
<g id="Restaurant_Sign_2">
</g>
<g id="Restaurant_Sign_3">
</g>
<g id="Hot_Drink_1">
</g>
<g id="Hot_Drink_2">
</g>
<g id="Cocktail">
</g>
<g id="Shot_Glasses">
</g>
<g id="Chilled_Champagne">
</g>
<g id="Wine">
</g>
<g id="Wine_List">
</g>
<g id="Menu">
</g>
<g id="Menu_2">
</g>
<g id="Salver">
</g>
<g id="Soup">
</g>
<g id="Sushi">
</g>
<g id="Pizza">
</g>
<g id="Pizza_Slice">
</g>
<g id="Fish">
</g>
<g id="Sausage">
</g>
<g id="Course">
</g>
<g id="Dessert">
</g>
<g id="Cutlery">
</g>
<g id="Napkin">
</g>
<g id="Table">
</g>
<g id="Spices">
</g>
<g id="Hot_Sauce">
</g>
<g id="Reserved_1">
</g>
<g id="Reserved_2">
</g>
<g id="Open">
	<g id="XMLID_324_">
		<g id="XMLID_334_">
			<path d="M5.5,11C4.673,11,4,10.327,4,9.5v-2C4,6.673,4.673,6,5.5,6S7,6.673,7,7.5v2C7,10.327,6.327,11,5.5,11z M5.5,7
				C5.225,7,5,7.225,5,7.5v2C5,9.775,5.225,10,5.5,10S6,9.775,6,9.5v-2C6,7.225,5.775,7,5.5,7z"/>
		</g>
		<g id="XMLID_333_">
			<path d="M8.5,11C8.224,11,8,10.776,8,10.5v-4C8,6.224,8.224,6,8.5,6h1C10.327,6,11,6.673,11,7.5S10.327,9,9.5,9H9v1.5
				C9,10.776,8.776,11,8.5,11z M9,8h0.5C9.775,8,10,7.775,10,7.5S9.775,7,9.5,7H9V8z"/>
		</g>
		<g id="XMLID_332_">
			<path d="M14.5,11h-2c-0.276,0-0.5-0.224-0.5-0.5v-4C12,6.224,12.224,6,12.5,6h2C14.776,6,15,6.224,15,6.5S14.776,7,14.5,7H13v3
				h1.5c0.276,0,0.5,0.224,0.5,0.5S14.776,11,14.5,11z"/>
		</g>
		<g id="XMLID_331_">
			<path d="M14,9h-1.5C12.224,9,12,8.776,12,8.5S12.224,8,12.5,8H14c0.276,0,0.5,0.224,0.5,0.5S14.276,9,14,9z"/>
		</g>
		<g id="XMLID_330_">
			<path d="M18.5,11c-0.187,0-0.361-0.104-0.447-0.276L17,8.618V10.5c0,0.276-0.224,0.5-0.5,0.5S16,10.776,16,10.5v-4
				c0-0.231,0.159-0.434,0.385-0.486c0.23-0.06,0.459,0.056,0.563,0.263L18,8.382V6.5C18,6.224,18.224,6,18.5,6S19,6.224,19,6.5v4
				c0,0.231-0.159,0.434-0.385,0.486C18.576,10.996,18.538,11,18.5,11z"/>
		</g>
		<g id="XMLID_329_">
			<path d="M9.071,16.616c-0.405,0-0.81-0.147-1.104-0.441c-0.358-0.358-1.456-2.165-0.707-2.914s2.556,0.349,2.914,0.707
				c0.588,0.588,0.588,1.619,0,2.207C9.881,16.469,9.477,16.616,9.071,16.616z M7.997,13.997c0.011,0.338,0.39,1.183,0.678,1.471
				c0.197,0.197,0.596,0.197,0.793,0c0.196-0.196,0.196-0.597,0-0.793C9.18,14.387,8.335,14.008,7.997,13.997z"/>
		</g>
		<g id="XMLID_328_">
			<path d="M14.5,21c-0.128,0-0.256-0.049-0.354-0.146l-4.5-4.5c-0.195-0.195-0.195-0.512,0-0.707s0.512-0.195,0.707,0l4.5,4.5
				c0.195,0.195,0.195,0.512,0,0.707C14.756,20.951,14.628,21,14.5,21z"/>
		</g>
		<g id="XMLID_327_">
			<path d="M8.5,21c-0.128,0-0.256-0.049-0.354-0.146c-0.195-0.195-0.195-0.512,0-0.707l7-7c0.153-0.154,0.392-0.192,0.586-0.089
				c0.193,0.102,0.299,0.317,0.26,0.532c-0.037,0.203-0.385,2.01-1.139,2.764c-0.382,0.383-1.142,0.316-1.698,0.198l-4.302,4.302
				C8.756,20.951,8.628,21,8.5,21z M14.397,15.31l-0.33,0.33c0.052-0.004,0.092-0.012,0.118-0.022
				C14.258,15.543,14.329,15.437,14.397,15.31z"/>
		</g>
		<g id="XMLID_326_">
			<path d="M19.5,24h-16C1.57,24,0,22.43,0,20.5v-14C0,4.57,1.57,3,3.5,3h16C21.43,3,23,4.57,23,6.5v14C23,22.43,21.43,24,19.5,24z
				 M3.5,4C2.121,4,1,5.121,1,6.5v14C1,21.879,2.121,23,3.5,23h16c1.379,0,2.5-1.121,2.5-2.5v-14C22,5.121,20.879,4,19.5,4H3.5z"/>
		</g>
		<g id="XMLID_325_">
			<path d="M18.5,4c-0.066,0-0.133-0.013-0.197-0.04L11.5,1.044L4.697,3.96C4.444,4.066,4.15,3.952,4.04,3.697
				C3.932,3.443,4.049,3.149,4.303,3.04l7-3c0.127-0.053,0.268-0.053,0.395,0l7,3c0.254,0.109,0.371,0.403,0.263,0.657
				C18.878,3.887,18.693,4,18.5,4z"/>
		</g>
	</g>
</g>
<g id="Food_Photo">
</g>
<g id="Chef">
</g>
<g id="Bill">
</g>
<g id="Bill_2">
</g>
<g id="Paying_1">
</g>
<g id="Paying_2">
</g>
<g id="Restaurant_Place">
</g>
</svg>
