<?xml version="1.0" encoding="iso-8859-1"?>
<!-- Generator: Adobe Illustrator 19.2.1, SVG Export Plug-In . SVG Version: 6.00 Build 0)  -->
<svg version="1.1" xmlns="http://www.w3.org/2000/svg" xmlns:xlink="http://www.w3.org/1999/xlink" x="0px" y="0px"
	 viewBox="0 0 24 24" style="enable-background:new 0 0 24 24;" xml:space="preserve">
<g id="Restaurant_sign_1">
</g>
<g id="Restaurant_Sign_2">
</g>
<g id="Restaurant_Sign_3">
</g>
<g id="Hot_Drink_1">
</g>
<g id="Hot_Drink_2">
</g>
<g id="Cocktail">
</g>
<g id="Shot_Glasses">
</g>
<g id="Chilled_Champagne">
</g>
<g id="Wine">
</g>
<g id="Wine_List">
</g>
<g id="Menu">
</g>
<g id="Menu_2">
</g>
<g id="Salver">
</g>
<g id="Soup">
</g>
<g id="Sushi">
</g>
<g id="Pizza">
</g>
<g id="Pizza_Slice">
</g>
<g id="Fish">
</g>
<g id="Sausage">
</g>
<g id="Course">
</g>
<g id="Dessert">
</g>
<g id="Cutlery">
</g>
<g id="Napkin">
</g>
<g id="Table">
</g>
<g id="Spices">
</g>
<g id="Hot_Sauce">
</g>
<g id="Reserved_1">
</g>
<g id="Reserved_2">
</g>
<g id="Open">
</g>
<g id="Food_Photo">
</g>
<g id="Chef">
</g>
<g id="Bill">
</g>
<g id="Bill_2">
</g>
<g id="Paying_1">
</g>
<g id="Paying_2">
	<g id="XMLID_290_">
		<g id="XMLID_284_">
			<path d="M8.5,24c-0.128,0-0.256-0.049-0.354-0.146l-8-8c-0.195-0.195-0.195-0.512,0-0.707l15-15c0.195-0.195,0.512-0.195,0.707,0
				l8,8c0.195,0.195,0.195,0.512,0,0.707l-15,15C8.756,23.951,8.628,24,8.5,24z M1.207,15.5L8.5,22.793L22.793,8.5L15.5,1.207
				L1.207,15.5z"/>
		</g>
		<g id="XMLID_286_">
			<path d="M4.5,24c-0.072,0-0.144-0.016-0.21-0.047c-0.121-0.056-0.214-0.157-0.259-0.282l-2.286-6.286
				c-0.095-0.26,0.04-0.547,0.299-0.641c0.26-0.095,0.547,0.039,0.641,0.299l2.114,5.814l2.452-0.903
				c0.259-0.098,0.546,0.037,0.642,0.296c0.095,0.259-0.037,0.547-0.296,0.642l-2.923,1.077C4.617,23.99,4.559,24,4.5,24z"/>
		</g>
		<g id="XMLID_285_">
			<path d="M1.3,15.2c-0.204,0-0.396-0.126-0.47-0.329l-0.8-2.2c-0.094-0.259,0.039-0.545,0.297-0.64l4.75-1.75
				c0.258-0.098,0.546,0.036,0.642,0.296c0.095,0.259-0.037,0.547-0.296,0.642L1.14,12.797l0.629,1.732
				c0.095,0.26-0.04,0.547-0.299,0.641C1.414,15.19,1.356,15.2,1.3,15.2z"/>
		</g>
		<g id="XMLID_288_">
			<path d="M10.833,21.667c-0.204,0-0.395-0.125-0.469-0.327c-0.095-0.259,0.037-0.547,0.296-0.642l12.199-4.495l-1.963-5.398
				c-0.095-0.26,0.04-0.547,0.299-0.641c0.261-0.095,0.546,0.039,0.641,0.299l2.133,5.866c0.094,0.259-0.039,0.545-0.297,0.64
				l-12.667,4.667C10.949,21.657,10.891,21.667,10.833,21.667z"/>
		</g>
		<g id="XMLID_287_">
			<path d="M18.01,16.918c-0.204,0-0.395-0.125-0.469-0.327c-0.095-0.259,0.037-0.547,0.296-0.642l2.49-0.918
				c0.259-0.097,0.546,0.036,0.642,0.296c0.095,0.259-0.037,0.547-0.296,0.642l-2.49,0.918
				C18.125,16.908,18.067,16.918,18.01,16.918z"/>
		</g>
		<g id="XMLID_289_">
			<path d="M13.119,15.014c-0.883,0-1.917-0.463-2.781-1.328c-0.632-0.632-1.076-1.388-1.249-2.128
				c-0.192-0.825-0.034-1.544,0.445-2.022c0.938-0.939,2.762-0.586,4.151,0.803s1.742,3.213,0.803,4.151
				C14.134,14.844,13.654,15.014,13.119,15.014z M10.907,10.015c-0.282,0-0.515,0.078-0.665,0.228
				c-0.305,0.305-0.243,0.813-0.178,1.088c0.129,0.553,0.487,1.153,0.981,1.648c1.042,1.043,2.279,1.261,2.737,0.804
				c0.458-0.458,0.24-1.694-0.803-2.737C12.277,10.343,11.487,10.015,10.907,10.015z"/>
		</g>
		<g id="XMLID_291_">
			<path d="M18.5,11c-0.128,0-0.256-0.049-0.354-0.146c-0.195-0.195-0.195-0.512,0-0.707l2-2c0.195-0.195,0.512-0.195,0.707,0
				s0.195,0.512,0,0.707l-2,2C18.756,10.951,18.628,11,18.5,11z"/>
		</g>
		<g id="XMLID_292_">
			<path d="M3.5,16c-0.128,0-0.256-0.049-0.354-0.146c-0.195-0.195-0.195-0.512,0-0.707l2-2c0.195-0.195,0.512-0.195,0.707,0
				s0.195,0.512,0,0.707l-2,2C3.756,15.951,3.628,16,3.5,16z"/>
		</g>
	</g>
</g>
<g id="Restaurant_Place">
</g>
</svg>
