<?xml version="1.0" encoding="iso-8859-1"?>
<!-- Generator: Adobe Illustrator 19.2.1, SVG Export Plug-In . SVG Version: 6.00 Build 0)  -->
<svg version="1.1" xmlns="http://www.w3.org/2000/svg" xmlns:xlink="http://www.w3.org/1999/xlink" x="0px" y="0px"
	 viewBox="0 0 24 24" style="enable-background:new 0 0 24 24;" xml:space="preserve">
<g id="Restaurant_sign_1">
</g>
<g id="Restaurant_Sign_2">
</g>
<g id="Restaurant_Sign_3">
</g>
<g id="Hot_Drink_1">
</g>
<g id="Hot_Drink_2">
</g>
<g id="Cocktail">
</g>
<g id="Shot_Glasses">
</g>
<g id="Chilled_Champagne">
</g>
<g id="Wine">
</g>
<g id="Wine_List">
</g>
<g id="Menu">
</g>
<g id="Menu_2">
</g>
<g id="Salver">
</g>
<g id="Soup">
</g>
<g id="Sushi">
</g>
<g id="Pizza">
</g>
<g id="Pizza_Slice">
</g>
<g id="Fish">
</g>
<g id="Sausage">
</g>
<g id="Course">
</g>
<g id="Dessert">
</g>
<g id="Cutlery">
</g>
<g id="Napkin">
</g>
<g id="Table">
</g>
<g id="Spices">
</g>
<g id="Hot_Sauce">
</g>
<g id="Reserved_1">
</g>
<g id="Reserved_2">
</g>
<g id="Open">
</g>
<g id="Food_Photo">
</g>
<g id="Chef">
</g>
<g id="Bill">
</g>
<g id="Bill_2">
</g>
<g id="Paying_1">
	<g id="XMLID_227_">
		<g id="XMLID_241_">
			<path d="M19.5,24h-10C9.224,24,9,23.776,9,23.5v-19C9,4.224,9.224,4,9.5,4h10C19.776,4,20,4.224,20,4.5v19
				C20,23.776,19.776,24,19.5,24z M10,23h9V5h-9V23z"/>
		</g>
		<g id="XMLID_231_">
			<path d="M9.5,24c-0.109,0-0.22-0.036-0.312-0.109l-5-4C4.069,19.796,4,19.652,4,19.5v-19c0-0.192,0.11-0.367,0.283-0.45
				c0.173-0.084,0.378-0.062,0.529,0.06l5,4c0.215,0.173,0.25,0.487,0.078,0.703s-0.486,0.25-0.703,0.078L5,1.54v17.72l4.813,3.85
				c0.215,0.173,0.25,0.487,0.078,0.703C9.792,23.936,9.646,24,9.5,24z"/>
		</g>
		<g id="XMLID_230_">
			<path d="M9.5,21c-0.164,0-0.324-0.08-0.42-0.228c-0.15-0.231-0.084-0.541,0.147-0.691l10-6.5c0.231-0.15,0.541-0.085,0.692,0.146
				c0.15,0.231,0.084,0.541-0.147,0.691l-10,6.5C9.688,20.974,9.594,21,9.5,21z"/>
		</g>
		<g id="XMLID_229_">
			<path d="M11.5,19.7c-0.276,0-0.5-0.224-0.5-0.5v-6.7c0-0.827,0.673-1.5,1.5-1.5h4c0.827,0,1.5,0.673,1.5,1.5v2.8
				c0,0.276-0.224,0.5-0.5,0.5S17,15.576,17,15.3v-2.8c0-0.275-0.224-0.5-0.5-0.5h-4c-0.276,0-0.5,0.225-0.5,0.5v6.7
				C12,19.477,11.776,19.7,11.5,19.7z"/>
		</g>
		<g id="XMLID_228_">
			<path d="M13.5,18.4c-0.276,0-0.5-0.224-0.5-0.5v-6.4c0-0.276,0.224-0.5,0.5-0.5s0.5,0.224,0.5,0.5v6.4
				C14,18.177,13.776,18.4,13.5,18.4z"/>
		</g>
	</g>
</g>
<g id="Paying_2">
</g>
<g id="Restaurant_Place">
</g>
</svg>
