<?xml version="1.0" encoding="iso-8859-1"?>
<!-- Generator: Adobe Illustrator 19.2.1, SVG Export Plug-In . SVG Version: 6.00 Build 0)  -->
<svg version="1.1" xmlns="http://www.w3.org/2000/svg" xmlns:xlink="http://www.w3.org/1999/xlink" x="0px" y="0px"
	 viewBox="0 0 24 24" style="enable-background:new 0 0 24 24;" xml:space="preserve">
<g id="Restaurant_sign_1">
</g>
<g id="Restaurant_Sign_2">
</g>
<g id="Restaurant_Sign_3">
</g>
<g id="Hot_Drink_1">
</g>
<g id="Hot_Drink_2">
</g>
<g id="Cocktail">
</g>
<g id="Shot_Glasses">
</g>
<g id="Chilled_Champagne">
</g>
<g id="Wine">
</g>
<g id="Wine_List">
</g>
<g id="Menu">
</g>
<g id="Menu_2">
</g>
<g id="Salver">
</g>
<g id="Soup">
</g>
<g id="Sushi">
</g>
<g id="Pizza">
</g>
<g id="Pizza_Slice">
	<g id="XMLID_126_">
		<g id="XMLID_149_">
			<path d="M0.533,23.967c-0.131,0-0.258-0.051-0.354-0.146c-0.136-0.136-0.182-0.337-0.119-0.518L7.567,1.72
				c0.382-1.095,1.447-1.791,2.6-1.676c7.534,0.713,13.075,6.254,13.789,13.789c0.108,1.149-0.58,2.218-1.676,2.599L0.697,23.939
				C0.644,23.958,0.588,23.967,0.533,23.967z M9.931,1.033c-0.634,0-1.205,0.402-1.418,1.015L1.345,22.656l20.607-7.168
				c0.659-0.229,1.073-0.871,1.008-1.561l0,0C22.294,6.885,17.114,1.706,10.073,1.039C10.025,1.035,9.978,1.033,9.931,1.033z"/>
		</g>
		<g id="XMLID_137_">
			<path d="M20.492,14.985c-0.258,0-0.477-0.198-0.497-0.459C19.539,8.909,15.135,4.486,9.521,4.009
				C9.246,3.985,9.042,3.744,9.065,3.468c0.024-0.275,0.289-0.482,0.54-0.456c6.103,0.519,10.891,5.327,11.386,11.432
				c0.022,0.275-0.183,0.517-0.458,0.539C20.52,14.984,20.506,14.985,20.492,14.985z"/>
		</g>
		<g id="XMLID_136_">
			<path d="M10.47,20.511c-0.144,0-0.286-0.062-0.385-0.181c-0.688-0.828-1.052-1.818-1.052-2.863c0-2.481,2.019-4.5,4.5-4.5
				s4.5,2.019,4.5,4.5c0,0.026-0.007,0.1-0.011,0.125c-0.009,0.276-0.23,0.497-0.516,0.474c-0.276-0.009-0.492-0.25-0.483-0.525
				c0.001-0.021,0.008-0.083,0.011-0.104c-0.001-1.9-1.571-3.47-3.501-3.47s-3.5,1.57-3.5,3.5c0,0.809,0.284,1.578,0.821,2.225
				c0.177,0.212,0.147,0.527-0.065,0.704C10.696,20.473,10.583,20.511,10.47,20.511z"/>
		</g>
		<g id="XMLID_135_">
			<path d="M5.533,21.967c-0.276,0-0.5-0.224-0.5-0.5c0-1.378-1.121-2.5-2.5-2.5c-0.276,0-0.5-0.224-0.5-0.5s0.224-0.5,0.5-0.5
				c1.93,0,3.5,1.57,3.5,3.5C6.033,21.744,5.81,21.967,5.533,21.967z"/>
		</g>
		<g id="XMLID_127_">
			<path d="M6.033,13.967c-0.733,0-1.46-0.21-2.101-0.608c-0.234-0.146-0.307-0.454-0.161-0.688
				c0.146-0.235,0.456-0.305,0.688-0.161c0.482,0.299,1.026,0.458,1.573,0.458c1.654,0,3-1.346,3-3c0-1.515-1.143-2.789-2.659-2.963
				C6.101,6.973,5.903,6.725,5.935,6.45C5.966,6.175,6.22,5.977,6.489,6.011c2.021,0.232,3.544,1.934,3.544,3.957
				C10.033,12.173,8.239,13.967,6.033,13.967z"/>
		</g>
	</g>
</g>
<g id="Fish">
</g>
<g id="Sausage">
</g>
<g id="Course">
</g>
<g id="Dessert">
</g>
<g id="Cutlery">
</g>
<g id="Napkin">
</g>
<g id="Table">
</g>
<g id="Spices">
</g>
<g id="Hot_Sauce">
</g>
<g id="Reserved_1">
</g>
<g id="Reserved_2">
</g>
<g id="Open">
</g>
<g id="Food_Photo">
</g>
<g id="Chef">
</g>
<g id="Bill">
</g>
<g id="Bill_2">
</g>
<g id="Paying_1">
</g>
<g id="Paying_2">
</g>
<g id="Restaurant_Place">
</g>
</svg>
