<?xml version="1.0" encoding="iso-8859-1"?>
<!-- Generator: Adobe Illustrator 19.2.1, SVG Export Plug-In . SVG Version: 6.00 Build 0)  -->
<svg version="1.1" xmlns="http://www.w3.org/2000/svg" xmlns:xlink="http://www.w3.org/1999/xlink" x="0px" y="0px"
	 viewBox="0 0 24 24" style="enable-background:new 0 0 24 24;" xml:space="preserve">
<g id="Restaurant_sign_1">
</g>
<g id="Restaurant_Sign_2">
</g>
<g id="Restaurant_Sign_3">
</g>
<g id="Hot_Drink_1">
</g>
<g id="Hot_Drink_2">
</g>
<g id="Cocktail">
</g>
<g id="Shot_Glasses">
</g>
<g id="Chilled_Champagne">
</g>
<g id="Wine">
</g>
<g id="Wine_List">
</g>
<g id="Menu">
</g>
<g id="Menu_2">
</g>
<g id="Salver">
</g>
<g id="Soup">
</g>
<g id="Sushi">
</g>
<g id="Pizza">
	<g id="XMLID_300_">
		<g id="XMLID_387_">
			<path d="M14.5,10c-0.131,0-0.259-0.051-0.354-0.146c-0.128-0.127-0.177-0.313-0.128-0.487l2.5-9
				c0.036-0.131,0.124-0.241,0.243-0.306c0.12-0.064,0.259-0.078,0.39-0.037c3.244,1.03,5.796,3.582,6.825,6.825
				c0.041,0.129,0.027,0.27-0.037,0.39c-0.064,0.119-0.175,0.207-0.306,0.244l-9,2.5C14.59,9.994,14.545,10,14.5,10z M17.339,1.147
				l-2.12,7.634l7.634-2.121C21.891,4.122,19.878,2.11,17.339,1.147z"/>
		</g>
		<g id="XMLID_386_">
			<path d="M10.5,24C4.71,24,0,19.29,0,13.5S4.71,3,10.5,3c1.081,0,2.15,0.166,3.18,0.493c0.257,0.082,0.402,0.352,0.33,0.611
				l-2.289,8.174l8.175-2.289c0.261-0.076,0.529,0.074,0.611,0.33C20.834,11.35,21,12.42,21,13.5C21,19.29,16.29,24,10.5,24z
				 M10.5,4C5.262,4,1,8.262,1,13.5S5.262,23,10.5,23s9.5-4.262,9.5-9.5c0-0.816-0.104-1.626-0.312-2.414l-8.554,2.395
				c-0.176,0.05-0.361,0-0.488-0.128c-0.128-0.128-0.177-0.314-0.128-0.488l2.395-8.554C12.126,4.104,11.316,4,10.5,4z"/>
		</g>
		<g id="XMLID_385_">
			<path d="M10.5,15C9.673,15,9,14.327,9,13.5S9.673,12,10.5,12c0.222,0,0.44,0.051,0.647,0.15c0.169,0.082,0.271,0.246,0.282,0.42
				c0.176,0.011,0.34,0.114,0.421,0.284C11.95,13.062,12,13.279,12,13.5C12,14.327,11.327,15,10.5,15z M10.5,13
				c-0.275,0-0.5,0.224-0.5,0.5s0.225,0.5,0.5,0.5s0.5-0.224,0.5-0.5c0-0.07-0.018-0.143-0.052-0.215
				c-0.028-0.06-0.044-0.123-0.048-0.185c-0.063-0.003-0.126-0.02-0.187-0.048C10.643,13.018,10.57,13,10.5,13z"/>
		</g>
		<g id="XMLID_384_">
			<path d="M10.5,22C9.673,22,9,21.327,9,20.5S9.673,19,10.5,19s1.5,0.673,1.5,1.5S11.327,22,10.5,22z M10.5,20
				c-0.275,0-0.5,0.224-0.5,0.5s0.225,0.5,0.5,0.5s0.5-0.224,0.5-0.5S10.775,20,10.5,20z"/>
		</g>
		<g id="XMLID_383_">
			<path d="M10.5,8C9.673,8,9,7.327,9,6.5S9.673,5,10.5,5S12,5.673,12,6.5S11.327,8,10.5,8z M10.5,6C10.225,6,10,6.224,10,6.5
				S10.225,7,10.5,7S11,6.776,11,6.5S10.775,6,10.5,6z"/>
		</g>
		<g id="XMLID_382_">
			<path d="M3.5,15C2.673,15,2,14.327,2,13.5S2.673,12,3.5,12S5,12.673,5,13.5S4.327,15,3.5,15z M3.5,13C3.225,13,3,13.224,3,13.5
				S3.225,14,3.5,14S4,13.776,4,13.5S3.775,13,3.5,13z"/>
		</g>
		<g id="XMLID_369_">
			<path d="M17.5,15c-0.827,0-1.5-0.673-1.5-1.5s0.673-1.5,1.5-1.5s1.5,0.673,1.5,1.5S18.327,15,17.5,15z M17.5,13
				c-0.275,0-0.5,0.224-0.5,0.5s0.225,0.5,0.5,0.5s0.5-0.224,0.5-0.5S17.775,13,17.5,13z"/>
		</g>
		<g id="XMLID_368_">
			<path d="M5.5,10C4.673,10,4,9.327,4,8.5S4.673,7,5.5,7S7,7.673,7,8.5S6.327,10,5.5,10z M5.5,8C5.225,8,5,8.224,5,8.5
				S5.225,9,5.5,9S6,8.776,6,8.5S5.775,8,5.5,8z"/>
		</g>
		<g id="XMLID_367_">
			<path d="M15.5,20c-0.827,0-1.5-0.673-1.5-1.5s0.673-1.5,1.5-1.5s1.5,0.673,1.5,1.5S16.327,20,15.5,20z M15.5,18
				c-0.275,0-0.5,0.224-0.5,0.5s0.225,0.5,0.5,0.5s0.5-0.224,0.5-0.5S15.775,18,15.5,18z"/>
		</g>
		<g id="XMLID_366_">
			<path d="M19,6.5c-0.827,0-1.5-0.673-1.5-1.5s0.673-1.5,1.5-1.5s1.5,0.673,1.5,1.5S19.827,6.5,19,6.5z M19,4.5
				c-0.275,0-0.5,0.224-0.5,0.5s0.225,0.5,0.5,0.5s0.5-0.224,0.5-0.5S19.275,4.5,19,4.5z"/>
		</g>
		<g id="XMLID_365_">
			<path d="M5.5,20C4.673,20,4,19.327,4,18.5S4.673,17,5.5,17S7,17.673,7,18.5S6.327,20,5.5,20z M5.5,18C5.225,18,5,18.224,5,18.5
				S5.225,19,5.5,19S6,18.776,6,18.5S5.775,18,5.5,18z"/>
		</g>
		<g id="XMLID_364_">
			<path d="M8,12.5c-0.075,0-0.151-0.017-0.224-0.053l-1-0.5c-0.247-0.124-0.347-0.424-0.224-0.671
				c0.124-0.247,0.425-0.345,0.671-0.224l1,0.5c0.247,0.124,0.347,0.424,0.224,0.671C8.359,12.399,8.183,12.5,8,12.5z"/>
		</g>
		<g id="XMLID_349_">
			<path d="M5.5,16c-0.183,0-0.359-0.101-0.447-0.276c-0.123-0.247-0.023-0.547,0.224-0.671l1-0.5
				c0.248-0.123,0.547-0.024,0.671,0.224c0.123,0.247,0.023,0.547-0.224,0.671l-1,0.5C5.651,15.983,5.575,16,5.5,16z"/>
		</g>
		<g id="XMLID_323_">
			<path d="M10.5,18h-1C9.224,18,9,17.776,9,17.5S9.224,17,9.5,17h1c0.276,0,0.5,0.224,0.5,0.5S10.776,18,10.5,18z"/>
		</g>
		<g id="XMLID_304_">
			<circle cx="7.5" cy="20.5" r="0.5"/>
		</g>
		<g id="XMLID_303_">
			<circle cx="14.5" cy="15.5" r="0.5"/>
		</g>
		<g id="XMLID_302_">
			<circle cx="7.5" cy="6.5" r="0.5"/>
		</g>
		<g id="XMLID_301_">
			<path d="M16.5,7h-1C15.224,7,15,6.776,15,6.5S15.224,6,15.5,6h1C16.776,6,17,6.224,17,6.5S16.776,7,16.5,7z"/>
		</g>
	</g>
</g>
<g id="Pizza_Slice">
</g>
<g id="Fish">
</g>
<g id="Sausage">
</g>
<g id="Course">
</g>
<g id="Dessert">
</g>
<g id="Cutlery">
</g>
<g id="Napkin">
</g>
<g id="Table">
</g>
<g id="Spices">
</g>
<g id="Hot_Sauce">
</g>
<g id="Reserved_1">
</g>
<g id="Reserved_2">
</g>
<g id="Open">
</g>
<g id="Food_Photo">
</g>
<g id="Chef">
</g>
<g id="Bill">
</g>
<g id="Bill_2">
</g>
<g id="Paying_1">
</g>
<g id="Paying_2">
</g>
<g id="Restaurant_Place">
</g>
</svg>
