<?xml version="1.0" encoding="iso-8859-1"?>
<!-- Generator: Adobe Illustrator 19.2.1, SVG Export Plug-In . SVG Version: 6.00 Build 0)  -->
<svg version="1.1" xmlns="http://www.w3.org/2000/svg" xmlns:xlink="http://www.w3.org/1999/xlink" x="0px" y="0px"
	 viewBox="0 0 24 24" style="enable-background:new 0 0 24 24;" xml:space="preserve">
<g id="Restaurant_sign_1">
</g>
<g id="Restaurant_Sign_2">
</g>
<g id="Restaurant_Sign_3">
</g>
<g id="Hot_Drink_1">
</g>
<g id="Hot_Drink_2">
</g>
<g id="Cocktail">
</g>
<g id="Shot_Glasses">
</g>
<g id="Chilled_Champagne">
</g>
<g id="Wine">
</g>
<g id="Wine_List">
</g>
<g id="Menu">
</g>
<g id="Menu_2">
</g>
<g id="Salver">
</g>
<g id="Soup">
</g>
<g id="Sushi">
</g>
<g id="Pizza">
</g>
<g id="Pizza_Slice">
</g>
<g id="Fish">
</g>
<g id="Sausage">
</g>
<g id="Course">
</g>
<g id="Dessert">
</g>
<g id="Cutlery">
</g>
<g id="Napkin">
</g>
<g id="Table">
</g>
<g id="Spices">
</g>
<g id="Hot_Sauce">
</g>
<g id="Reserved_1">
</g>
<g id="Reserved_2">
	<g id="XMLID_232_">
		<g id="XMLID_336_">
			<path d="M11.5,13C10.121,13,9,11.879,9,10.5S10.121,8,11.5,8S14,9.121,14,10.5S12.879,13,11.5,13z M11.5,9
				C10.673,9,10,9.673,10,10.5s0.673,1.5,1.5,1.5s1.5-0.673,1.5-1.5S12.327,9,11.5,9z"/>
		</g>
		<g id="XMLID_335_">
			<path d="M18.5,11h-5c-0.276,0-0.5-0.224-0.5-0.5s0.224-0.5,0.5-0.5h5c0.827,0,1.5-0.673,1.5-1.5v-6C20,1.673,19.327,1,18.5,1h-14
				C3.673,1,3,1.673,3,2.5v6C3,9.327,3.673,10,4.5,10h5c0.276,0,0.5,0.224,0.5,0.5S9.776,11,9.5,11h-5C3.121,11,2,9.879,2,8.5v-6
				C2,1.121,3.121,0,4.5,0h14C19.879,0,21,1.121,21,2.5v6C21,9.879,19.879,11,18.5,11z"/>
		</g>
		<g id="XMLID_269_">
			<path d="M11.5,22c-0.276,0-0.5-0.224-0.5-0.5v-9c0-0.276,0.224-0.5,0.5-0.5s0.5,0.224,0.5,0.5v9C12,21.776,11.776,22,11.5,22z"/>
		</g>
		<g id="XMLID_235_">
			<path d="M15.5,24h-8C7.224,24,7,23.776,7,23.5c0-1.425,1.935-2.5,4.5-2.5s4.5,1.075,4.5,2.5C16,23.776,15.776,24,15.5,24z
				 M8.233,23h6.533c-0.495-0.535-1.732-1-3.267-1S8.729,22.465,8.233,23z"/>
		</g>
		<g id="XMLID_234_">
			<path d="M17.5,4h-12C5.224,4,5,3.776,5,3.5S5.224,3,5.5,3h12C17.776,3,18,3.224,18,3.5S17.776,4,17.5,4z"/>
		</g>
		<g id="XMLID_233_">
			<path d="M15.5,6h-8C7.224,6,7,5.776,7,5.5S7.224,5,7.5,5h8C15.776,5,16,5.224,16,5.5S15.776,6,15.5,6z"/>
		</g>
	</g>
</g>
<g id="Open">
</g>
<g id="Food_Photo">
</g>
<g id="Chef">
</g>
<g id="Bill">
</g>
<g id="Bill_2">
</g>
<g id="Paying_1">
</g>
<g id="Paying_2">
</g>
<g id="Restaurant_Place">
</g>
</svg>
