<?xml version="1.0" encoding="iso-8859-1"?>
<!-- Generator: Adobe Illustrator 19.2.1, SVG Export Plug-In . SVG Version: 6.00 Build 0)  -->
<svg version="1.1" xmlns="http://www.w3.org/2000/svg" xmlns:xlink="http://www.w3.org/1999/xlink" x="0px" y="0px"
	 viewBox="0 0 24 24" style="enable-background:new 0 0 24 24;" xml:space="preserve">
<g id="Restaurant_sign_1">
</g>
<g id="Restaurant_Sign_2">
</g>
<g id="Restaurant_Sign_3">
</g>
<g id="Hot_Drink_1">
</g>
<g id="Hot_Drink_2">
</g>
<g id="Cocktail">
</g>
<g id="Shot_Glasses">
</g>
<g id="Chilled_Champagne">
</g>
<g id="Wine">
</g>
<g id="Wine_List">
</g>
<g id="Menu">
</g>
<g id="Menu_2">
</g>
<g id="Salver">
</g>
<g id="Soup">
</g>
<g id="Sushi">
</g>
<g id="Pizza">
</g>
<g id="Pizza_Slice">
</g>
<g id="Fish">
</g>
<g id="Sausage">
</g>
<g id="Course">
</g>
<g id="Dessert">
</g>
<g id="Cutlery">
</g>
<g id="Napkin">
</g>
<g id="Table">
</g>
<g id="Spices">
</g>
<g id="Hot_Sauce">
</g>
<g id="Reserved_1">
	<g id="XMLID_236_">
		<g id="XMLID_237_">
			<path d="M0.5,18c-0.075,0-0.151-0.017-0.224-0.053c-0.247-0.124-0.347-0.424-0.224-0.671l3.998-7.995
				c0.006-0.013,0.013-0.025,0.02-0.037c0-0.001,0.001-0.001,0.001-0.001s0,0,0-0.001C4.085,9.221,4.1,9.2,4.115,9.181l0,0
				C4.116,9.18,4.116,9.18,4.116,9.18c0.064-0.077,0.152-0.136,0.255-0.163c0.012-0.003,0.023-0.006,0.034-0.008L19.402,6.01
				c0.217-0.049,0.444,0.064,0.545,0.267l4,8c0.069,0.14,0.07,0.304,0.002,0.443s-0.198,0.24-0.352,0.271l-15,3
				c-0.221,0.046-0.444-0.065-0.545-0.267L4.5,10.618l-3.553,7.105C0.859,17.898,0.683,18,0.5,18z M5.24,9.862l3.536,7.072
				l13.983-2.797l-3.536-7.072L5.24,9.862z"/>
		</g>
		<g id="XMLID_238_">
			<path d="M8.499,12c-0.233,0-0.441-0.164-0.489-0.402c-0.055-0.271,0.121-0.534,0.393-0.588l10-2
				c0.257-0.055,0.533,0.12,0.588,0.393c0.055,0.271-0.121,0.534-0.393,0.588l-10,2C8.565,11.997,8.532,12,8.499,12z"/>
		</g>
		<g id="XMLID_242_">
			<path d="M9.499,14c-0.233,0-0.441-0.164-0.489-0.402c-0.055-0.271,0.121-0.534,0.393-0.588l5-1
				c0.258-0.055,0.533,0.12,0.588,0.393c0.055,0.271-0.121,0.534-0.393,0.588l-5,1C9.565,13.997,9.532,14,9.499,14z"/>
		</g>
		<g id="XMLID_239_">
			<path d="M0.499,18c-0.233,0-0.441-0.164-0.489-0.402c-0.055-0.271,0.121-0.534,0.393-0.588l7.272-1.454
				c0.258-0.057,0.533,0.12,0.588,0.393c0.055,0.271-0.121,0.534-0.393,0.588L0.598,17.99C0.565,17.997,0.532,18,0.499,18z"/>
		</g>
	</g>
</g>
<g id="Reserved_2">
</g>
<g id="Open">
</g>
<g id="Food_Photo">
</g>
<g id="Chef">
</g>
<g id="Bill">
</g>
<g id="Bill_2">
</g>
<g id="Paying_1">
</g>
<g id="Paying_2">
</g>
<g id="Restaurant_Place">
</g>
</svg>
