<?xml version="1.0" encoding="iso-8859-1"?>
<!-- Generator: Adobe Illustrator 19.2.1, SVG Export Plug-In . SVG Version: 6.00 Build 0)  -->
<svg version="1.1" xmlns="http://www.w3.org/2000/svg" xmlns:xlink="http://www.w3.org/1999/xlink" x="0px" y="0px"
	 viewBox="0 0 24 24" style="enable-background:new 0 0 24 24;" xml:space="preserve">
<g id="Restaurant_sign_1">
</g>
<g id="Restaurant_Sign_2">
	<g id="XMLID_55_">
		<g id="XMLID_65_">
			<path d="M20.5,24h-17C3.224,24,3,23.776,3,23.5V12H0.5c-0.204,0-0.388-0.124-0.464-0.314c-0.076-0.189-0.029-0.406,0.118-0.547
				l11.5-11c0.193-0.185,0.498-0.185,0.691,0l11.5,11c0.147,0.141,0.194,0.358,0.118,0.547C23.888,11.876,23.704,12,23.5,12H21v11.5
				C21,23.776,20.776,24,20.5,24z M4,23h16V11.5c0-0.276,0.224-0.5,0.5-0.5h1.754L12,1.192L1.746,11H3.5C3.776,11,4,11.224,4,11.5
				V23z"/>
		</g>
		<g id="XMLID_61_">
			<path d="M16.671,19H7.329c-0.668,0-1.296-0.26-1.768-0.732l-0.414-0.414c-0.195-0.195-0.195-0.512,0-0.707s0.512-0.195,0.707,0
				l0.414,0.414C6.551,17.844,6.928,18,7.329,18h9.343c0.401,0,0.777-0.156,1.061-0.439l0.414-0.414
				c0.195-0.195,0.512-0.195,0.707,0s0.195,0.512,0,0.707l-0.414,0.414C17.967,18.74,17.339,19,16.671,19z"/>
		</g>
		<g id="XMLID_67_">
			<path d="M8.836,17.003c-0.072,0-0.145-0.016-0.214-0.048c-0.249-0.119-0.355-0.417-0.237-0.667
				c0.576-1.211,1.708-2.051,3.029-2.246c0.272-0.042,0.527,0.149,0.567,0.422c0.041,0.273-0.148,0.527-0.422,0.567
				c-0.99,0.146-1.839,0.776-2.271,1.686C9.203,16.898,9.023,17.003,8.836,17.003z"/>
		</g>
		<g id="XMLID_64_">
			<path d="M17.5,18.5c-0.276,0-0.5-0.224-0.5-0.5c0-2.757-2.243-5-5-5s-5,2.243-5,5c0,0.276-0.224,0.5-0.5,0.5S6,18.276,6,18
				c0-3.309,2.691-6,6-6s6,2.691,6,6C18,18.276,17.776,18.5,17.5,18.5z"/>
		</g>
		<g id="XMLID_66_">
			<path d="M12,13c-0.551,0-1-0.449-1-1s0.449-1,1-1s1,0.449,1,1S12.551,13,12,13z M12,11.999C12,12,12,12,12,11.999L12.5,12
				L12,11.999z"/>
		</g>
	</g>
</g>
<g id="Restaurant_Sign_3">
</g>
<g id="Hot_Drink_1">
</g>
<g id="Hot_Drink_2">
</g>
<g id="Cocktail">
</g>
<g id="Shot_Glasses">
</g>
<g id="Chilled_Champagne">
</g>
<g id="Wine">
</g>
<g id="Wine_List">
</g>
<g id="Menu">
</g>
<g id="Menu_2">
</g>
<g id="Salver">
</g>
<g id="Soup">
</g>
<g id="Sushi">
</g>
<g id="Pizza">
</g>
<g id="Pizza_Slice">
</g>
<g id="Fish">
</g>
<g id="Sausage">
</g>
<g id="Course">
</g>
<g id="Dessert">
</g>
<g id="Cutlery">
</g>
<g id="Napkin">
</g>
<g id="Table">
</g>
<g id="Spices">
</g>
<g id="Hot_Sauce">
</g>
<g id="Reserved_1">
</g>
<g id="Reserved_2">
</g>
<g id="Open">
</g>
<g id="Food_Photo">
</g>
<g id="Chef">
</g>
<g id="Bill">
</g>
<g id="Bill_2">
</g>
<g id="Paying_1">
</g>
<g id="Paying_2">
</g>
<g id="Restaurant_Place">
</g>
</svg>
