<?xml version="1.0" encoding="iso-8859-1"?>
<!-- Generator: Adobe Illustrator 19.2.1, SVG Export Plug-In . SVG Version: 6.00 Build 0)  -->
<svg version="1.1" xmlns="http://www.w3.org/2000/svg" xmlns:xlink="http://www.w3.org/1999/xlink" x="0px" y="0px"
	 viewBox="0 0 24 24" style="enable-background:new 0 0 24 24;" xml:space="preserve">
<g id="Restaurant_sign_1">
</g>
<g id="Restaurant_Sign_2">
</g>
<g id="Restaurant_Sign_3">
	<g id="XMLID_69_">
		<g id="XMLID_77_">
			<path d="M21.5,24h-19C1.122,24,0,22.878,0,21.5v-13C0,7.122,1.122,6,2.5,6h19C22.878,6,24,7.122,24,8.5v13
				C24,22.878,22.878,24,21.5,24z M2.5,7C1.673,7,1,7.673,1,8.5v13C1,22.327,1.673,23,2.5,23h19c0.827,0,1.5-0.673,1.5-1.5v-13
				C23,7.673,22.327,7,21.5,7H2.5z"/>
		</g>
		<g id="XMLID_71_">
			<path d="M19.5,7c-0.109,0-0.22-0.036-0.312-0.109L12,1.14l-7.188,5.75C4.596,7.063,4.282,7.027,4.109,6.813
				c-0.172-0.216-0.137-0.53,0.078-0.703l7.5-6c0.183-0.146,0.442-0.146,0.625,0l7.5,6c0.215,0.173,0.25,0.487,0.078,0.703
				C19.792,6.936,19.646,7,19.5,7z"/>
		</g>
		<g id="XMLID_70_">
			<path d="M17.264,20H6.736c-0.953,0-1.809-0.529-2.236-1.382l-0.447-0.895c-0.078-0.155-0.069-0.339,0.022-0.486S4.327,17,4.5,17
				h15c0.173,0,0.334,0.09,0.425,0.237s0.1,0.332,0.022,0.486L19.5,18.618C19.073,19.471,18.217,20,17.264,20z M5.309,18
				l0.085,0.171C5.65,18.682,6.165,19,6.736,19h10.528c0.571,0,1.085-0.318,1.341-0.829L18.691,18H5.309z"/>
		</g>
		<g id="XMLID_74_">
			<path d="M8.25,16.011c-0.096,0-0.193-0.028-0.279-0.085c-0.229-0.155-0.289-0.465-0.135-0.694
				c0.849-1.257,2.165-2.069,3.61-2.229c0.278-0.034,0.521,0.168,0.552,0.442c0.03,0.274-0.168,0.521-0.442,0.552
				c-1.153,0.127-2.207,0.781-2.89,1.794C8.568,15.934,8.41,16.011,8.25,16.011z"/>
		</g>
		<g id="XMLID_73_">
			<path d="M18.5,18c-0.258,0-0.477-0.198-0.498-0.46C17.75,14.434,15.114,12,12,12c-3.112,0-5.749,2.434-6.001,5.541
				c-0.022,0.275-0.265,0.481-0.539,0.458c-0.275-0.022-0.48-0.264-0.458-0.539C5.296,13.837,8.371,11,12,11
				c3.632,0,6.706,2.837,6.999,6.46c0.022,0.275-0.183,0.516-0.458,0.539C18.526,18,18.513,18,18.5,18z"/>
		</g>
		<g id="XMLID_72_">
			<path d="M12,12c-0.551,0-1-0.449-1-1s0.449-1,1-1s1,0.449,1,1S12.551,12,12,12z M12,10.999C12,11,12,11,12,10.999L12.5,11
				L12,10.999z"/>
		</g>
	</g>
</g>
<g id="Hot_Drink_1">
</g>
<g id="Hot_Drink_2">
</g>
<g id="Cocktail">
</g>
<g id="Shot_Glasses">
</g>
<g id="Chilled_Champagne">
</g>
<g id="Wine">
</g>
<g id="Wine_List">
</g>
<g id="Menu">
</g>
<g id="Menu_2">
</g>
<g id="Salver">
</g>
<g id="Soup">
</g>
<g id="Sushi">
</g>
<g id="Pizza">
</g>
<g id="Pizza_Slice">
</g>
<g id="Fish">
</g>
<g id="Sausage">
</g>
<g id="Course">
</g>
<g id="Dessert">
</g>
<g id="Cutlery">
</g>
<g id="Napkin">
</g>
<g id="Table">
</g>
<g id="Spices">
</g>
<g id="Hot_Sauce">
</g>
<g id="Reserved_1">
</g>
<g id="Reserved_2">
</g>
<g id="Open">
</g>
<g id="Food_Photo">
</g>
<g id="Chef">
</g>
<g id="Bill">
</g>
<g id="Bill_2">
</g>
<g id="Paying_1">
</g>
<g id="Paying_2">
</g>
<g id="Restaurant_Place">
</g>
</svg>
