<?xml version="1.0" encoding="iso-8859-1"?>
<!-- Generator: Adobe Illustrator 19.2.1, SVG Export Plug-In . SVG Version: 6.00 Build 0)  -->
<svg version="1.1" xmlns="http://www.w3.org/2000/svg" xmlns:xlink="http://www.w3.org/1999/xlink" x="0px" y="0px"
	 viewBox="0 0 24 24" style="enable-background:new 0 0 24 24;" xml:space="preserve">
<g id="Restaurant_sign_1">
	<g id="XMLID_68_">
		<g id="XMLID_56_">
			<path d="M20.5,24h-18C1.122,24,0,22.878,0,21.5v-13C0,7.122,1.122,6,2.5,6h18C21.878,6,23,7.122,23,8.5v13
				C23,22.878,21.878,24,20.5,24z M2.5,7C1.673,7,1,7.673,1,8.5v13C1,22.327,1.673,23,2.5,23h18c0.827,0,1.5-0.673,1.5-1.5v-13
				C22,7.673,21.327,7,20.5,7H2.5z"/>
		</g>
		<g id="XMLID_57_">
			<path d="M8.716,15.035c-0.728,0-1.554-0.33-2.37-1.146C5.305,12.848,4.437,10.569,5.5,9.507c1.061-1.063,3.34-0.195,4.381,0.846
				c0.671,0.671,1.065,1.406,1.139,2.126c0.073,0.707-0.165,1.374-0.67,1.878C9.935,14.772,9.365,15.035,8.716,15.035z
				 M6.821,10.024c-0.266,0-0.483,0.06-0.614,0.19c-0.466,0.466,0.008,2.13,0.846,2.967c0.942,0.942,1.935,1.125,2.59,0.469
				c0.654-0.654,0.474-1.646-0.469-2.59C8.554,10.439,7.522,10.024,6.821,10.024z"/>
		</g>
		<g id="XMLID_58_">
			<path d="M16.497,21.003c-0.128,0-0.256-0.049-0.354-0.146l-6.5-6.5c-0.195-0.195-0.195-0.512,0-0.707s0.512-0.195,0.707,0
				l6.5,6.5c0.195,0.195,0.195,0.512,0,0.707C16.752,20.955,16.625,21.003,16.497,21.003z"/>
		</g>
		<g id="XMLID_59_">
			<path d="M6.5,21c-0.128,0-0.256-0.049-0.354-0.146c-0.195-0.195-0.195-0.512,0-0.707l11-11c0.145-0.145,0.361-0.187,0.549-0.106
				C17.883,9.12,18.004,9.306,18,9.509c-0.002,0.133-0.08,3.278-1.715,4.913c-0.931,0.932-2.53,0.493-3.234,0.234l-6.198,6.198
				C6.756,20.951,6.628,21,6.5,21z M13.851,13.856c0.597,0.155,1.354,0.233,1.727-0.141c0.737-0.737,1.093-1.922,1.264-2.85
				L13.851,13.856z"/>
		</g>
		<g id="XMLID_63_">
			<path d="M18.5,7c-0.101,0-0.202-0.03-0.29-0.093l-6.187-4.419c-0.225-0.16-0.277-0.473-0.116-0.697s0.474-0.276,0.697-0.116
				l6.187,4.419c0.225,0.16,0.277,0.473,0.116,0.697C18.809,6.927,18.656,7,18.5,7z"/>
		</g>
		<g id="XMLID_62_">
			<path d="M4.5,7c-0.156,0-0.31-0.073-0.407-0.209C3.933,6.566,3.985,6.253,4.209,6.093l6.187-4.419
				c0.225-0.161,0.537-0.108,0.697,0.116s0.108,0.537-0.116,0.697L4.791,6.907C4.703,6.97,4.601,7,4.5,7z"/>
		</g>
		<g id="XMLID_60_">
			<path d="M11.5,3C10.673,3,10,2.327,10,1.5S10.673,0,11.5,0S13,0.673,13,1.5S12.327,3,11.5,3z M11.5,1C11.224,1,11,1.224,11,1.5
				S11.224,2,11.5,2S12,1.776,12,1.5S11.776,1,11.5,1z"/>
		</g>
	</g>
</g>
<g id="Restaurant_Sign_2">
</g>
<g id="Restaurant_Sign_3">
</g>
<g id="Hot_Drink_1">
</g>
<g id="Hot_Drink_2">
</g>
<g id="Cocktail">
</g>
<g id="Shot_Glasses">
</g>
<g id="Chilled_Champagne">
</g>
<g id="Wine">
</g>
<g id="Wine_List">
</g>
<g id="Menu">
</g>
<g id="Menu_2">
</g>
<g id="Salver">
</g>
<g id="Soup">
</g>
<g id="Sushi">
</g>
<g id="Pizza">
</g>
<g id="Pizza_Slice">
</g>
<g id="Fish">
</g>
<g id="Sausage">
</g>
<g id="Course">
</g>
<g id="Dessert">
</g>
<g id="Cutlery">
</g>
<g id="Napkin">
</g>
<g id="Table">
</g>
<g id="Spices">
</g>
<g id="Hot_Sauce">
</g>
<g id="Reserved_1">
</g>
<g id="Reserved_2">
</g>
<g id="Open">
</g>
<g id="Food_Photo">
</g>
<g id="Chef">
</g>
<g id="Bill">
</g>
<g id="Bill_2">
</g>
<g id="Paying_1">
</g>
<g id="Paying_2">
</g>
<g id="Restaurant_Place">
</g>
</svg>
