<?xml version="1.0" encoding="iso-8859-1"?>
<!-- Generator: Adobe Illustrator 19.2.1, SVG Export Plug-In . SVG Version: 6.00 Build 0)  -->
<svg version="1.1" xmlns="http://www.w3.org/2000/svg" xmlns:xlink="http://www.w3.org/1999/xlink" x="0px" y="0px"
	 viewBox="0 0 24 24" style="enable-background:new 0 0 24 24;" xml:space="preserve">
<g id="Restaurant_sign_1">
</g>
<g id="Restaurant_Sign_2">
</g>
<g id="Restaurant_Sign_3">
</g>
<g id="Hot_Drink_1">
</g>
<g id="Hot_Drink_2">
</g>
<g id="Cocktail">
</g>
<g id="Shot_Glasses">
</g>
<g id="Chilled_Champagne">
</g>
<g id="Wine">
</g>
<g id="Wine_List">
</g>
<g id="Menu">
</g>
<g id="Menu_2">
</g>
<g id="Salver">
</g>
<g id="Soup">
</g>
<g id="Sushi">
</g>
<g id="Pizza">
</g>
<g id="Pizza_Slice">
</g>
<g id="Fish">
</g>
<g id="Sausage">
</g>
<g id="Course">
</g>
<g id="Dessert">
</g>
<g id="Cutlery">
</g>
<g id="Napkin">
</g>
<g id="Table">
</g>
<g id="Spices">
</g>
<g id="Hot_Sauce">
</g>
<g id="Reserved_1">
</g>
<g id="Reserved_2">
</g>
<g id="Open">
</g>
<g id="Food_Photo">
</g>
<g id="Chef">
</g>
<g id="Bill">
</g>
<g id="Bill_2">
</g>
<g id="Paying_1">
</g>
<g id="Paying_2">
</g>
<g id="Restaurant_Place">
	<g id="XMLID_133_">
		<g id="XMLID_154_">
			<path d="M20.264,24H3.736c-1.569,0-2.98-0.872-3.684-2.276c-0.077-0.155-0.069-0.339,0.021-0.486C0.166,21.09,0.327,21,0.5,21h23
				c0.173,0,0.334,0.09,0.426,0.237c0.091,0.147,0.099,0.331,0.021,0.486C23.244,23.128,21.833,24,20.264,24z M1.445,22
				c0.581,0.631,1.402,1,2.291,1h16.527c0.889,0,1.71-0.369,2.291-1H1.445z"/>
		</g>
		<g id="XMLID_153_">
			<path d="M4.927,19.985c-0.055,0-0.111-0.009-0.166-0.028C4.5,19.865,4.363,19.58,4.455,19.319
				c1.062-3.019,3.813-5.106,7.012-5.318c0.292-0.035,0.514,0.191,0.532,0.466c0.019,0.275-0.19,0.514-0.466,0.532
				c-2.799,0.185-5.206,2.011-6.135,4.652C5.326,19.856,5.133,19.985,4.927,19.985z"/>
		</g>
		<g id="XMLID_152_">
			<path d="M12,13c-0.827,0-1.5-0.673-1.5-1.5S11.173,10,12,10s1.5,0.673,1.5,1.5S12.827,13,12,13z M12,11
				c-0.275,0-0.5,0.225-0.5,0.5S11.725,12,12,12s0.5-0.225,0.5-0.5S12.275,11,12,11z"/>
		</g>
		<g id="XMLID_151_">
			<path d="M2.513,22.011c-0.137,0-0.268-0.057-0.362-0.155c-0.095-0.1-0.144-0.233-0.137-0.37C2.282,16.167,6.669,12,12,12
				c1.014,0,2.025,0.156,3.006,0.466c0.264,0.083,0.409,0.363,0.326,0.627c-0.082,0.263-0.363,0.409-0.627,0.326
				C13.822,13.141,12.912,13,12,13c-4.621,0-8.453,3.478-8.946,8.011L20.945,21c-0.182-1.627-0.806-3.169-1.822-4.487
				c-0.169-0.219-0.129-0.533,0.09-0.701c0.217-0.169,0.533-0.129,0.701,0.09c1.251,1.621,1.967,3.549,2.072,5.572
				c0.008,0.138-0.042,0.271-0.137,0.37C21.756,21.943,21.625,22,21.487,22L2.513,22.011L2.513,22.011z"/>
		</g>
		<g id="XMLID_150_">
			<path d="M18.5,15c-0.151,0-0.295-0.069-0.391-0.188C17.901,14.553,13,8.404,13,5.5C13,2.468,15.468,0,18.5,0S24,2.468,24,5.5
				c0,2.904-4.901,9.053-5.109,9.313C18.795,14.931,18.651,15,18.5,15z M18.5,1C16.019,1,14,3.019,14,5.5
				c0,1.941,2.956,6.183,4.5,8.189C20.044,11.683,23,7.44,23,5.5C23,3.019,20.981,1,18.5,1z"/>
		</g>
		<g id="XMLID_134_">
			<path d="M18.5,8C17.121,8,16,6.879,16,5.5S17.121,3,18.5,3S21,4.121,21,5.5S19.879,8,18.5,8z M18.5,4C17.673,4,17,4.673,17,5.5
				S17.673,7,18.5,7S20,6.327,20,5.5S19.327,4,18.5,4z"/>
		</g>
	</g>
</g>
</svg>
