<?xml version="1.0" encoding="iso-8859-1"?>
<!-- Generator: Adobe Illustrator 19.2.1, SVG Export Plug-In . SVG Version: 6.00 Build 0)  -->
<svg version="1.1" xmlns="http://www.w3.org/2000/svg" xmlns:xlink="http://www.w3.org/1999/xlink" x="0px" y="0px"
	 viewBox="0 0 24 24" style="enable-background:new 0 0 24 24;" xml:space="preserve">
<g id="Restaurant_sign_1">
</g>
<g id="Restaurant_Sign_2">
</g>
<g id="Restaurant_Sign_3">
</g>
<g id="Hot_Drink_1">
</g>
<g id="Hot_Drink_2">
</g>
<g id="Cocktail">
</g>
<g id="Shot_Glasses">
</g>
<g id="Chilled_Champagne">
</g>
<g id="Wine">
</g>
<g id="Wine_List">
</g>
<g id="Menu">
</g>
<g id="Menu_2">
</g>
<g id="Salver">
	<g id="XMLID_89_">
		<g id="XMLID_128_">
			<path d="M20.264,19H3.736c-1.57,0-2.981-0.872-3.683-2.276c-0.078-0.155-0.069-0.339,0.022-0.486S0.327,16,0.5,16h23
				c0.173,0,0.334,0.09,0.425,0.237s0.1,0.332,0.022,0.486C23.245,18.128,21.834,19,20.264,19z M1.445,17
				c0.58,0.631,1.402,1,2.291,1h16.528c0.889,0,1.71-0.369,2.291-1H1.445z"/>
		</g>
		<g id="XMLID_130_">
			<path d="M4.926,14.986c-0.055,0-0.111-0.009-0.166-0.028c-0.26-0.092-0.397-0.377-0.306-0.638
				c1.062-3.02,3.814-5.107,7.013-5.319c0.264-0.017,0.513,0.19,0.532,0.466c0.018,0.275-0.19,0.514-0.466,0.532
				c-2.797,0.185-5.206,2.011-6.135,4.653C5.326,14.857,5.132,14.986,4.926,14.986z"/>
		</g>
		<g id="XMLID_129_">
			<path d="M2.513,17.011c-0.009,0-0.017,0-0.026,0c-0.276-0.014-0.488-0.249-0.474-0.525C2.282,11.167,6.669,7,12,7
				c5.325,0,9.711,4.161,9.986,9.474c0.014,0.276-0.198,0.511-0.474,0.525c-0.276,0.009-0.511-0.198-0.525-0.474
				C20.74,11.745,16.792,8,12,8c-4.798,0-8.746,3.75-8.988,8.537C2.998,16.804,2.777,17.011,2.513,17.011z"/>
		</g>
		<g id="XMLID_132_">
			<path d="M12,8c-0.827,0-1.5-0.673-1.5-1.5S11.173,5,12,5s1.5,0.673,1.5,1.5S12.827,8,12,8z M12,6c-0.276,0-0.5,0.224-0.5,0.5
				S11.724,7,12,7s0.5-0.224,0.5-0.5S12.276,6,12,6z"/>
		</g>
	</g>
</g>
<g id="Soup">
</g>
<g id="Sushi">
</g>
<g id="Pizza">
</g>
<g id="Pizza_Slice">
</g>
<g id="Fish">
</g>
<g id="Sausage">
</g>
<g id="Course">
</g>
<g id="Dessert">
</g>
<g id="Cutlery">
</g>
<g id="Napkin">
</g>
<g id="Table">
</g>
<g id="Spices">
</g>
<g id="Hot_Sauce">
</g>
<g id="Reserved_1">
</g>
<g id="Reserved_2">
</g>
<g id="Open">
</g>
<g id="Food_Photo">
</g>
<g id="Chef">
</g>
<g id="Bill">
</g>
<g id="Bill_2">
</g>
<g id="Paying_1">
</g>
<g id="Paying_2">
</g>
<g id="Restaurant_Place">
</g>
</svg>
