<?xml version="1.0" encoding="iso-8859-1"?>
<!-- Generator: Adobe Illustrator 19.2.1, SVG Export Plug-In . SVG Version: 6.00 Build 0)  -->
<svg version="1.1" xmlns="http://www.w3.org/2000/svg" xmlns:xlink="http://www.w3.org/1999/xlink" x="0px" y="0px"
	 viewBox="0 0 24 24" style="enable-background:new 0 0 24 24;" xml:space="preserve">
<g id="Restaurant_sign_1">
</g>
<g id="Restaurant_Sign_2">
</g>
<g id="Restaurant_Sign_3">
</g>
<g id="Hot_Drink_1">
</g>
<g id="Hot_Drink_2">
</g>
<g id="Cocktail">
</g>
<g id="Shot_Glasses">
</g>
<g id="Chilled_Champagne">
</g>
<g id="Wine">
</g>
<g id="Wine_List">
</g>
<g id="Menu">
</g>
<g id="Menu_2">
</g>
<g id="Salver">
</g>
<g id="Soup">
</g>
<g id="Sushi">
</g>
<g id="Pizza">
</g>
<g id="Pizza_Slice">
</g>
<g id="Fish">
</g>
<g id="Sausage">
	<g id="XMLID_206_">
		<g id="XMLID_213_">
			<path d="M11.5,7.008C5.023,7.008,0,4.051,0,1.508C0,0.931,0.174,0.51,0.518,0.256c0.715-0.525,1.882-0.163,3.644,0.384
				C6.02,1.218,8.564,2.008,11.5,2.008c2.938,0,5.484-0.787,7.344-1.361c1.766-0.545,2.932-0.905,3.642-0.381
				C22.827,0.518,23,0.936,23,1.508C23,4.051,17.977,7.008,11.5,7.008z M1.411,0.995c-0.135,0-0.237,0.021-0.301,0.067
				C1.04,1.113,1,1.276,1,1.508c0,1.77,4.509,4.5,10.5,4.5S22,3.278,22,1.508c0-0.227-0.039-0.387-0.108-0.438
				c-0.304-0.227-1.55,0.16-2.752,0.531c-1.921,0.594-4.551,1.406-7.64,1.406c-3.087,0-5.716-0.816-7.636-1.412
				C2.909,1.299,1.929,0.995,1.411,0.995z"/>
		</g>
		<g id="XMLID_212_">
			<path d="M11.5,24c-0.827,0-1.5-0.673-1.5-1.5V11.95c-1.14-0.232-2-1.242-2-2.45v-1C8,8.224,8.224,8,8.5,8h6
				C14.776,8,15,8.224,15,8.5v1c0,1.208-0.86,2.217-2,2.45V22.5C13,23.327,12.327,24,11.5,24z M9,9v0.5c0,0.827,0.673,1.5,1.5,1.5
				c0.276,0,0.5,0.224,0.5,0.5v11c0,0.276,0.225,0.5,0.5,0.5s0.5-0.224,0.5-0.5v-11c0-0.276,0.224-0.5,0.5-0.5
				c0.827,0,1.5-0.673,1.5-1.5V9H9z"/>
		</g>
		<g id="XMLID_211_">
			<path d="M8.5,9C8.224,9,8,8.776,8,8.5v-3C8,5.224,8.224,5,8.5,5S9,5.224,9,5.5v3C9,8.776,8.776,9,8.5,9z"/>
		</g>
		<g id="XMLID_210_">
			<path d="M10.5,9C10.224,9,10,8.776,10,8.5V6c0-0.276,0.224-0.5,0.5-0.5S11,5.724,11,6v2.5C11,8.776,10.776,9,10.5,9z"/>
		</g>
		<g id="XMLID_209_">
			<path d="M12.5,9C12.224,9,12,8.776,12,8.5V6c0-0.276,0.224-0.5,0.5-0.5S13,5.724,13,6v2.5C13,8.776,12.776,9,12.5,9z"/>
		</g>
		<g id="XMLID_207_">
			<path d="M14.5,9C14.224,9,14,8.776,14,8.5v-3C14,5.224,14.224,5,14.5,5S15,5.224,15,5.5v3C15,8.776,14.776,9,14.5,9z"/>
		</g>
	</g>
</g>
<g id="Course">
</g>
<g id="Dessert">
</g>
<g id="Cutlery">
</g>
<g id="Napkin">
</g>
<g id="Table">
</g>
<g id="Spices">
</g>
<g id="Hot_Sauce">
</g>
<g id="Reserved_1">
</g>
<g id="Reserved_2">
</g>
<g id="Open">
</g>
<g id="Food_Photo">
</g>
<g id="Chef">
</g>
<g id="Bill">
</g>
<g id="Bill_2">
</g>
<g id="Paying_1">
</g>
<g id="Paying_2">
</g>
<g id="Restaurant_Place">
</g>
</svg>
