<?xml version="1.0" encoding="iso-8859-1"?>
<!-- Generator: Adobe Illustrator 19.2.1, SVG Export Plug-In . SVG Version: 6.00 Build 0)  -->
<svg version="1.1" xmlns="http://www.w3.org/2000/svg" xmlns:xlink="http://www.w3.org/1999/xlink" x="0px" y="0px"
	 viewBox="0 0 24 24" style="enable-background:new 0 0 24 24;" xml:space="preserve">
<g id="Restaurant_sign_1">
</g>
<g id="Restaurant_Sign_2">
</g>
<g id="Restaurant_Sign_3">
</g>
<g id="Hot_Drink_1">
</g>
<g id="Hot_Drink_2">
</g>
<g id="Cocktail">
</g>
<g id="Shot_Glasses">
</g>
<g id="Chilled_Champagne">
</g>
<g id="Wine">
</g>
<g id="Wine_List">
</g>
<g id="Menu">
</g>
<g id="Menu_2">
</g>
<g id="Salver">
</g>
<g id="Soup">
	<g id="XMLID_312_">
		<g id="XMLID_311_">
			<path d="M12,12C6.183,12,0,10.423,0,7.5S6.183,3,12,3s12,1.577,12,4.5S17.817,12,12,12z M12,4C5.518,4,1,5.845,1,7.5
				S5.518,11,12,11s11-1.845,11-3.5S18.482,4,12,4z"/>
		</g>
		<g id="XMLID_313_">
			<path d="M18.896,11.202c-0.214,0-0.412-0.138-0.478-0.353c-0.082-0.264,0.066-0.544,0.33-0.625
				c1.25-0.386,1.376-0.725,1.377-0.728C20.016,8.994,17.049,8,12,8S3.984,8.994,3.875,9.504l0,0c0.002,0,0.135,0.336,1.377,0.72
				c0.264,0.081,0.412,0.361,0.33,0.625c-0.081,0.263-0.361,0.413-0.625,0.33C3.556,10.747,2.875,10.198,2.875,9.5
				C2.875,7.526,8.611,7,12,7s9.125,0.526,9.125,2.5c0,0.698-0.681,1.247-2.082,1.679C18.994,11.194,18.945,11.202,18.896,11.202z"
				/>
		</g>
		<g id="XMLID_314_">
			<path d="M12,20c-0.374,0-3.406-0.035-3.925-1.154C4.304,16.906,0,12.822,0,7.5C0,7.224,0.224,7,0.5,7S1,7.224,1,7.5
				c0,4.959,4.16,8.784,7.722,10.552C8.893,18.137,9,18.31,9,18.5c0.121,0.109,1.187,0.5,3,0.5s2.879-0.391,3.022-0.59
				c0-0.189,0.085-0.273,0.255-0.358C18.84,16.281,23,12.456,23,7.5C23,7.224,23.224,7,23.5,7S24,7.224,24,7.5
				c0,5.317-4.303,9.404-8.075,11.346C15.406,19.965,12.374,20,12,20z"/>
		</g>
	</g>
</g>
<g id="Sushi">
</g>
<g id="Pizza">
</g>
<g id="Pizza_Slice">
</g>
<g id="Fish">
</g>
<g id="Sausage">
</g>
<g id="Course">
</g>
<g id="Dessert">
</g>
<g id="Cutlery">
</g>
<g id="Napkin">
</g>
<g id="Table">
</g>
<g id="Spices">
</g>
<g id="Hot_Sauce">
</g>
<g id="Reserved_1">
</g>
<g id="Reserved_2">
</g>
<g id="Open">
</g>
<g id="Food_Photo">
</g>
<g id="Chef">
</g>
<g id="Bill">
</g>
<g id="Bill_2">
</g>
<g id="Paying_1">
</g>
<g id="Paying_2">
</g>
<g id="Restaurant_Place">
</g>
</svg>
