<?xml version="1.0" encoding="iso-8859-1"?>
<!-- Generator: Adobe Illustrator 19.2.1, SVG Export Plug-In . SVG Version: 6.00 Build 0)  -->
<svg version="1.1" xmlns="http://www.w3.org/2000/svg" xmlns:xlink="http://www.w3.org/1999/xlink" x="0px" y="0px"
	 viewBox="0 0 24 24" style="enable-background:new 0 0 24 24;" xml:space="preserve">
<g id="Restaurant_sign_1">
</g>
<g id="Restaurant_Sign_2">
</g>
<g id="Restaurant_Sign_3">
</g>
<g id="Hot_Drink_1">
</g>
<g id="Hot_Drink_2">
</g>
<g id="Cocktail">
</g>
<g id="Shot_Glasses">
</g>
<g id="Chilled_Champagne">
</g>
<g id="Wine">
</g>
<g id="Wine_List">
</g>
<g id="Menu">
</g>
<g id="Menu_2">
</g>
<g id="Salver">
</g>
<g id="Soup">
</g>
<g id="Sushi">
</g>
<g id="Pizza">
</g>
<g id="Pizza_Slice">
</g>
<g id="Fish">
</g>
<g id="Sausage">
</g>
<g id="Course">
</g>
<g id="Dessert">
</g>
<g id="Cutlery">
</g>
<g id="Napkin">
</g>
<g id="Table">
</g>
<g id="Spices">
	<g id="XMLID_310_">
		<g id="XMLID_305_">
			<path d="M11.5,24c-0.276,0-0.5-0.224-0.5-0.5v-19C11,4.224,11.224,4,11.5,4S12,4.224,12,4.5v19C12,23.776,11.776,24,11.5,24z"/>
		</g>
		<g id="XMLID_293_">
			<path d="M11.5,5C10.122,5,9,3.879,9,2.5S10.122,0,11.5,0S14,1.121,14,2.5S12.878,5,11.5,5z M11.5,1C10.673,1,10,1.673,10,2.5
				S10.673,4,11.5,4S13,3.327,13,2.5S12.327,1,11.5,1z"/>
		</g>
		<g id="XMLID_307_">
			<path d="M9.5,24h-8C1.224,24,1,23.776,1,23.5v-2.919c0-2.253,0.678-4.448,1.268-6.109l0.188-0.53C2.817,12.928,3,11.859,3,10.767
				V10.5C3,9.673,3.623,9,4.389,9h2.223C7.377,9,8,9.673,8,10.5v0.267c0,1.093,0.183,2.161,0.543,3.176l0.188,0.528
				C9.322,16.133,10,18.328,10,20.581V23.5C10,23.776,9.776,24,9.5,24z M2,23h7v-2.419c0-2.1-0.647-4.189-1.21-5.775l-0.188-0.528
				C7.202,13.154,7,11.974,7,10.767V10.5C7,10.229,6.822,10,6.611,10H4.389C4.178,10,4,10.229,4,10.5v0.267
				c0,1.207-0.202,2.388-0.601,3.51l-0.188,0.53C2.647,16.392,2,18.481,2,20.581V23z"/>
		</g>
		<g id="XMLID_306_">
			<path d="M21.5,24h-8c-0.276,0-0.5-0.224-0.5-0.5v-2.919c0-2.253,0.678-4.448,1.268-6.109l0.188-0.53
				C14.817,12.928,15,11.859,15,10.767V10.5C15,9.673,15.623,9,16.389,9h2.223C19.377,9,20,9.673,20,10.5v0.267
				c0,1.093,0.183,2.161,0.543,3.176l0.188,0.528c0.59,1.662,1.268,3.857,1.268,6.11V23.5C22,23.776,21.776,24,21.5,24z M14,23h7
				v-2.419c0-2.1-0.647-4.189-1.21-5.775l-0.188-0.528C19.202,13.154,19,11.974,19,10.767V10.5c0-0.271-0.178-0.5-0.389-0.5h-2.223
				C16.178,10,16,10.229,16,10.5v0.267c0,1.207-0.202,2.388-0.601,3.51l-0.188,0.53C14.647,16.392,14,18.481,14,20.581V23z"/>
		</g>
		<g id="XMLID_308_">
			<path d="M22.5,24h-22C0.224,24,0,23.776,0,23.5S0.224,23,0.5,23h22c0.276,0,0.5,0.224,0.5,0.5S22.776,24,22.5,24z"/>
		</g>
		<g id="XMLID_294_">
			<path d="M16.5,21c-0.276,0-0.5-0.224-0.5-0.5v-4c0-0.276,0.224-0.5,0.5-0.5h1c0.827,0,1.5,0.673,1.5,1.5S18.327,19,17.5,19H17
				v1.5C17,20.776,16.776,21,16.5,21z M17,18h0.5c0.276,0,0.5-0.225,0.5-0.5S17.776,17,17.5,17H17V18z"/>
		</g>
		<g id="XMLID_309_">
			<path d="M5.5,21C4.673,21,4,20.327,4,19.5C4,19.224,4.224,19,4.5,19S5,19.224,5,19.5C5,19.775,5.224,20,5.5,20S6,19.775,6,19.5
				c0-0.267-0.198-0.438-0.588-0.508C4.505,18.781,4,18.239,4,17.5C4,16.673,4.673,16,5.5,16S7,16.673,7,17.5
				C7,17.776,6.776,18,6.5,18S6,17.776,6,17.5C6,17.225,5.776,17,5.5,17S5,17.225,5,17.5c0,0.102,0,0.37,0.613,0.513
				C6.459,18.164,7,18.735,7,19.5C7,20.327,6.327,21,5.5,21z"/>
		</g>
	</g>
</g>
<g id="Hot_Sauce">
</g>
<g id="Reserved_1">
</g>
<g id="Reserved_2">
</g>
<g id="Open">
</g>
<g id="Food_Photo">
</g>
<g id="Chef">
</g>
<g id="Bill">
</g>
<g id="Bill_2">
</g>
<g id="Paying_1">
</g>
<g id="Paying_2">
</g>
<g id="Restaurant_Place">
</g>
</svg>
