<?xml version="1.0" encoding="iso-8859-1"?>
<!-- Generator: Adobe Illustrator 19.2.1, SVG Export Plug-In . SVG Version: 6.00 Build 0)  -->
<svg version="1.1" xmlns="http://www.w3.org/2000/svg" xmlns:xlink="http://www.w3.org/1999/xlink" x="0px" y="0px"
	 viewBox="0 0 24 24" style="enable-background:new 0 0 24 24;" xml:space="preserve">
<g id="Restaurant_sign_1">
</g>
<g id="Restaurant_Sign_2">
</g>
<g id="Restaurant_Sign_3">
</g>
<g id="Hot_Drink_1">
</g>
<g id="Hot_Drink_2">
</g>
<g id="Cocktail">
</g>
<g id="Shot_Glasses">
</g>
<g id="Chilled_Champagne">
</g>
<g id="Wine">
</g>
<g id="Wine_List">
</g>
<g id="Menu">
</g>
<g id="Menu_2">
</g>
<g id="Salver">
</g>
<g id="Soup">
</g>
<g id="Sushi">
	<g id="XMLID_190_">
		<g id="XMLID_198_">
			<path d="M5.5,9.5C2.416,9.5,0,8.182,0,6.5s2.416-3,5.5-3s5.5,1.318,5.5,3S8.584,9.5,5.5,9.5z M5.5,4.5C2.848,4.5,1,5.554,1,6.5
				s1.848,2,4.5,2s4.5-1.054,4.5-2S8.152,4.5,5.5,4.5z"/>
		</g>
		<g id="XMLID_197_">
			<path d="M5.5,15.5c-3.084,0-5.5-1.318-5.5-3v-6C0,6.224,0.224,6,0.5,6S1,6.224,1,6.5v6c0,0.946,1.848,2,4.5,2s4.5-1.054,4.5-2v-6
				C10,6.224,10.224,6,10.5,6S11,6.224,11,6.5v6C11,14.182,8.584,15.5,5.5,15.5z"/>
		</g>
		<g id="XMLID_196_">
			<path d="M5.5,7.5C4.566,7.5,3,7.37,3,6.5s1.566-1,2.5-1S8,5.63,8,6.5S6.434,7.5,5.5,7.5z M7.098,6.742h0.01H7.098z M5.5,6.5h0.01
				H5.5z"/>
		</g>
		<g id="XMLID_195_">
			<path d="M18.5,7.5c-3.084,0-5.5-1.318-5.5-3s2.416-3,5.5-3s5.5,1.318,5.5,3S21.584,7.5,18.5,7.5z M18.5,2.5
				c-2.652,0-4.5,1.054-4.5,2s1.848,2,4.5,2s4.5-1.054,4.5-2S21.152,2.5,18.5,2.5z"/>
		</g>
		<g id="XMLID_194_">
			<path d="M18.5,13.5c-3.084,0-5.5-1.318-5.5-3v-6C13,4.224,13.224,4,13.5,4S14,4.224,14,4.5v6c0,0.946,1.848,2,4.5,2
				s4.5-1.054,4.5-2v-6C23,4.224,23.224,4,23.5,4S24,4.224,24,4.5v6C24,12.182,21.584,13.5,18.5,13.5z"/>
		</g>
		<g id="XMLID_193_">
			<path d="M18.5,5.5c-0.934,0-2.5-0.13-2.5-1s1.566-1,2.5-1s2.5,0.13,2.5,1S19.434,5.5,18.5,5.5z M20.098,4.742h0.01H20.098z
				 M18.5,4.5h0.01H18.5z"/>
		</g>
		<g id="XMLID_192_">
			<path d="M1.5,22.5c-0.207,0-0.4-0.129-0.472-0.335c-0.091-0.261,0.046-0.546,0.307-0.637l20-7
				c0.263-0.09,0.546,0.047,0.637,0.307c0.091,0.261-0.046,0.546-0.307,0.637l-20,7C1.61,22.491,1.555,22.5,1.5,22.5z"/>
		</g>
		<g id="XMLID_191_">
			<path d="M23.5,20.5h-23C0.224,20.5,0,20.276,0,20s0.224-0.5,0.5-0.5h23c0.276,0,0.5,0.224,0.5,0.5S23.776,20.5,23.5,20.5z"/>
		</g>
	</g>
</g>
<g id="Pizza">
</g>
<g id="Pizza_Slice">
</g>
<g id="Fish">
</g>
<g id="Sausage">
</g>
<g id="Course">
</g>
<g id="Dessert">
</g>
<g id="Cutlery">
</g>
<g id="Napkin">
</g>
<g id="Table">
</g>
<g id="Spices">
</g>
<g id="Hot_Sauce">
</g>
<g id="Reserved_1">
</g>
<g id="Reserved_2">
</g>
<g id="Open">
</g>
<g id="Food_Photo">
</g>
<g id="Chef">
</g>
<g id="Bill">
</g>
<g id="Bill_2">
</g>
<g id="Paying_1">
</g>
<g id="Paying_2">
</g>
<g id="Restaurant_Place">
</g>
</svg>
