<?xml version="1.0" encoding="iso-8859-1"?>
<!-- Generator: Adobe Illustrator 19.2.1, SVG Export Plug-In . SVG Version: 6.00 Build 0)  -->
<svg version="1.1" xmlns="http://www.w3.org/2000/svg" xmlns:xlink="http://www.w3.org/1999/xlink" x="0px" y="0px"
	 viewBox="0 0 24 24" style="enable-background:new 0 0 24 24;" xml:space="preserve">
<g id="Restaurant_sign_1">
</g>
<g id="Restaurant_Sign_2">
</g>
<g id="Restaurant_Sign_3">
</g>
<g id="Hot_Drink_1">
</g>
<g id="Hot_Drink_2">
</g>
<g id="Cocktail">
</g>
<g id="Shot_Glasses">
</g>
<g id="Chilled_Champagne">
</g>
<g id="Wine">
</g>
<g id="Wine_List">
</g>
<g id="Menu">
</g>
<g id="Menu_2">
</g>
<g id="Salver">
</g>
<g id="Soup">
</g>
<g id="Sushi">
</g>
<g id="Pizza">
</g>
<g id="Pizza_Slice">
</g>
<g id="Fish">
</g>
<g id="Sausage">
</g>
<g id="Course">
</g>
<g id="Dessert">
</g>
<g id="Cutlery">
</g>
<g id="Napkin">
</g>
<g id="Table">
	<g id="XMLID_162_">
		<g id="XMLID_164_">
			<path d="M18,10H6c-0.276,0-0.5-0.224-0.5-0.5S5.724,9,6,9h12c0.276,0,0.5,0.224,0.5,0.5S18.276,10,18,10z"/>
		</g>
		<g id="XMLID_189_">
			<path d="M10,18c-0.184,0-0.36-0.102-0.448-0.276c-0.124-0.247-0.023-0.547,0.224-0.671l1.724-0.861V9.5C11.5,9.224,11.724,9,12,9
				s0.5,0.224,0.5,0.5v7c0,0.189-0.107,0.362-0.276,0.447l-2,1C10.152,17.983,10.076,18,10,18z"/>
		</g>
		<g id="XMLID_199_">
			<path d="M14,18c-0.075,0-0.151-0.017-0.223-0.053l-2-1c-0.247-0.124-0.347-0.424-0.224-0.671
				c0.124-0.246,0.423-0.348,0.671-0.224l2,1c0.247,0.124,0.347,0.424,0.224,0.671C14.359,17.898,14.183,18,14,18z"/>
		</g>
		<g id="XMLID_200_">
			<path d="M23,18c-0.224,0-0.428-0.151-0.484-0.379L21.609,14h-3.668l-0.445,3.563c-0.034,0.273-0.282,0.475-0.558,0.434
				c-0.274-0.034-0.468-0.284-0.434-0.559l0.5-4C17.035,13.188,17.248,13,17.5,13H22c0.229,0,0.429,0.156,0.485,0.379l1,4
				c0.067,0.268-0.096,0.539-0.364,0.606C23.081,17.995,23.04,18,23,18z"/>
		</g>
		<g id="XMLID_201_">
			<path d="M22,14c-0.027,0-0.055-0.002-0.083-0.007c-0.272-0.045-0.457-0.303-0.411-0.575l1-6c0.045-0.273,0.305-0.457,0.575-0.411
				c0.272,0.045,0.457,0.303,0.411,0.575l-1,6C22.453,13.827,22.241,14,22,14z"/>
		</g>
		<g id="XMLID_203_">
			<path d="M1,18c-0.04,0-0.081-0.005-0.122-0.015c-0.268-0.067-0.431-0.339-0.364-0.606l1-4C1.571,13.156,1.771,13,2,13h4.5
				c0.252,0,0.465,0.188,0.496,0.438l0.5,4c0.034,0.274-0.16,0.524-0.434,0.559c-0.277,0.041-0.524-0.16-0.558-0.434L6.059,14H2.391
				l-0.906,3.621C1.428,17.849,1.225,18,1,18z"/>
		</g>
		<g id="XMLID_202_">
			<path d="M2,14c-0.24,0-0.452-0.173-0.493-0.418l-1-6C0.461,7.31,0.646,7.052,0.918,7.007c0.273-0.046,0.53,0.138,0.575,0.411l1,6
				c0.045,0.272-0.139,0.53-0.411,0.575C2.054,13.998,2.027,14,2,14z"/>
		</g>
		<g id="XMLID_204_">
			<path d="M6.75,16H1.5C1.224,16,1,15.776,1,15.5S1.224,15,1.5,15h5.25c0.276,0,0.5,0.224,0.5,0.5S7.026,16,6.75,16z"/>
		</g>
		<g id="XMLID_208_">
			<path d="M22.5,16h-5.25c-0.276,0-0.5-0.224-0.5-0.5s0.224-0.5,0.5-0.5h5.25c0.276,0,0.5,0.224,0.5,0.5S22.776,16,22.5,16z"/>
		</g>
	</g>
</g>
<g id="Spices">
</g>
<g id="Hot_Sauce">
</g>
<g id="Reserved_1">
</g>
<g id="Reserved_2">
</g>
<g id="Open">
</g>
<g id="Food_Photo">
</g>
<g id="Chef">
</g>
<g id="Bill">
</g>
<g id="Bill_2">
</g>
<g id="Paying_1">
</g>
<g id="Paying_2">
</g>
<g id="Restaurant_Place">
</g>
</svg>
