<?xml version="1.0" encoding="iso-8859-1"?>
<!-- Generator: Adobe Illustrator 19.2.1, SVG Export Plug-In . SVG Version: 6.00 Build 0)  -->
<svg version="1.1" xmlns="http://www.w3.org/2000/svg" xmlns:xlink="http://www.w3.org/1999/xlink" x="0px" y="0px"
	 viewBox="0 0 24 24" style="enable-background:new 0 0 24 24;" xml:space="preserve">
<g id="Restaurant_sign_1">
</g>
<g id="Restaurant_Sign_2">
</g>
<g id="Restaurant_Sign_3">
</g>
<g id="Hot_Drink_1">
</g>
<g id="Hot_Drink_2">
</g>
<g id="Cocktail">
</g>
<g id="Shot_Glasses">
</g>
<g id="Chilled_Champagne">
</g>
<g id="Wine">
	<g id="XMLID_167_">
		<g id="XMLID_168_">
			<path d="M13.5,24h-4C8.673,24,8,23.327,8,22.5V8.854C8,7.9,8.529,7.044,9.382,6.618l0.342-0.171C9.895,6.362,10,6.191,10,6V0.5
				C10,0.224,10.224,0,10.5,0h2C12.776,0,13,0.224,13,0.5V6c0,0.191,0.105,0.362,0.276,0.447l0.342,0.171
				C14.471,7.044,15,7.9,15,8.854V22.5C15,23.327,14.327,24,13.5,24z M11,1v5c0,0.572-0.317,1.086-0.829,1.342L9.829,7.513
				C9.317,7.768,9,8.282,9,8.854V22.5C9,22.776,9.225,23,9.5,23h4c0.275,0,0.5-0.224,0.5-0.5V8.854c0-0.572-0.317-1.086-0.829-1.341
				l-0.342-0.171C12.317,7.086,12,6.572,12,6V1H11z"/>
		</g>
		<g id="XMLID_166_">
			<path d="M12.5,3h-2C10.224,3,10,2.776,10,2.5S10.224,2,10.5,2h2C12.776,2,13,2.224,13,2.5S12.776,3,12.5,3z"/>
		</g>
		<g id="XMLID_165_">
			<path d="M14.5,18h-6C8.224,18,8,17.776,8,17.5V13c0-0.224,0.148-0.42,0.364-0.481C8.439,12.498,10.216,12,11.5,12
				c1.296,0,3.063,0.498,3.137,0.519C14.852,12.58,15,12.776,15,13v4.5C15,17.776,14.776,18,14.5,18z M9,17h5v-3.614
				C13.437,13.246,12.33,13,11.5,13c-0.823,0-1.934,0.246-2.5,0.386V17z"/>
		</g>
		<g id="XMLID_169_">
			<path d="M19.5,20c-1.93,0-3.5-1.57-3.5-3.5v-1c0-0.276,0.224-0.5,0.5-0.5h6c0.276,0,0.5,0.224,0.5,0.5v1
				C23,18.43,21.43,20,19.5,20z M17,16v0.5c0,1.378,1.121,2.5,2.5,2.5s2.5-1.122,2.5-2.5V16H17z"/>
		</g>
		<g id="XMLID_170_">
			<path d="M19.5,24c-0.276,0-0.5-0.224-0.5-0.5v-4c0-0.276,0.224-0.5,0.5-0.5s0.5,0.224,0.5,0.5v4C20,23.776,19.776,24,19.5,24z"/>
		</g>
		<g id="XMLID_171_">
			<path d="M21.5,24h-4c-0.276,0-0.5-0.224-0.5-0.5s0.224-0.5,0.5-0.5h4c0.276,0,0.5,0.224,0.5,0.5S21.776,24,21.5,24z"/>
		</g>
		<g id="XMLID_174_">
			<path d="M3.5,20C1.57,20,0,18.43,0,16.5v-1C0,15.224,0.224,15,0.5,15h6C6.776,15,7,15.224,7,15.5v1C7,18.43,5.43,20,3.5,20z
				 M1,16v0.5C1,17.878,2.121,19,3.5,19S6,17.878,6,16.5V16H1z"/>
		</g>
		<g id="XMLID_173_">
			<path d="M3.5,24C3.224,24,3,23.776,3,23.5v-4C3,19.224,3.224,19,3.5,19S4,19.224,4,19.5v4C4,23.776,3.776,24,3.5,24z"/>
		</g>
		<g id="XMLID_172_">
			<path d="M5.5,24h-4C1.224,24,1,23.776,1,23.5S1.224,23,1.5,23h4C5.776,23,6,23.224,6,23.5S5.776,24,5.5,24z"/>
		</g>
	</g>
</g>
<g id="Wine_List">
</g>
<g id="Menu">
</g>
<g id="Menu_2">
</g>
<g id="Salver">
</g>
<g id="Soup">
</g>
<g id="Sushi">
</g>
<g id="Pizza">
</g>
<g id="Pizza_Slice">
</g>
<g id="Fish">
</g>
<g id="Sausage">
</g>
<g id="Course">
</g>
<g id="Dessert">
</g>
<g id="Cutlery">
</g>
<g id="Napkin">
</g>
<g id="Table">
</g>
<g id="Spices">
</g>
<g id="Hot_Sauce">
</g>
<g id="Reserved_1">
</g>
<g id="Reserved_2">
</g>
<g id="Open">
</g>
<g id="Food_Photo">
</g>
<g id="Chef">
</g>
<g id="Bill">
</g>
<g id="Bill_2">
</g>
<g id="Paying_1">
</g>
<g id="Paying_2">
</g>
<g id="Restaurant_Place">
</g>
</svg>
