<?xml version="1.0" encoding="iso-8859-1"?>
<!-- Generator: Adobe Illustrator 19.2.1, SVG Export Plug-In . SVG Version: 6.00 Build 0)  -->
<svg version="1.1" xmlns="http://www.w3.org/2000/svg" xmlns:xlink="http://www.w3.org/1999/xlink" x="0px" y="0px"
	 viewBox="0 0 24 24" style="enable-background:new 0 0 24 24;" xml:space="preserve">
<g id="Restaurant_sign_1">
</g>
<g id="Restaurant_Sign_2">
</g>
<g id="Restaurant_Sign_3">
</g>
<g id="Hot_Drink_1">
</g>
<g id="Hot_Drink_2">
</g>
<g id="Cocktail">
</g>
<g id="Shot_Glasses">
</g>
<g id="Chilled_Champagne">
</g>
<g id="Wine">
</g>
<g id="Wine_List">
	<g id="XMLID_178_">
		<g id="XMLID_175_">
			<path d="M21.5,24h-19C2.224,24,2,23.776,2,23.5v-23C2,0.224,2.224,0,2.5,0h19C21.776,0,22,0.224,22,0.5v23
				C22,23.776,21.776,24,21.5,24z M3,23h18V1H3V23z"/>
		</g>
		<g id="XMLID_176_">
			<path d="M12,6c-1.654,0-3-1.122-3-2.5C9,3.224,9.224,3,9.5,3h5C14.776,3,15,3.224,15,3.5C15,4.878,13.654,6,12,6z M10.114,4
				C10.39,4.582,11.131,5,12,5s1.61-0.418,1.886-1H10.114z"/>
		</g>
		<g id="XMLID_179_">
			<path d="M12,8c-0.276,0-0.5-0.224-0.5-0.5v-2C11.5,5.224,11.724,5,12,5s0.5,0.224,0.5,0.5v2C12.5,7.776,12.276,8,12,8z"/>
		</g>
		<g id="XMLID_180_">
			<path d="M13.5,8h-3C10.224,8,10,7.776,10,7.5S10.224,7,10.5,7h3C13.776,7,14,7.224,14,7.5S13.776,8,13.5,8z"/>
		</g>
		<g id="XMLID_181_">
			<path d="M13.5,12h-7C6.224,12,6,11.776,6,11.5S6.224,11,6.5,11h7c0.276,0,0.5,0.224,0.5,0.5S13.776,12,13.5,12z"/>
		</g>
		<g id="XMLID_182_">
			<path d="M17.5,12h-1c-0.276,0-0.5-0.224-0.5-0.5s0.224-0.5,0.5-0.5h1c0.276,0,0.5,0.224,0.5,0.5S17.776,12,17.5,12z"/>
		</g>
		<g id="XMLID_184_">
			<path d="M13.5,15h-7C6.224,15,6,14.776,6,14.5S6.224,14,6.5,14h7c0.276,0,0.5,0.224,0.5,0.5S13.776,15,13.5,15z"/>
		</g>
		<g id="XMLID_183_">
			<path d="M17.5,15h-1c-0.276,0-0.5-0.224-0.5-0.5s0.224-0.5,0.5-0.5h1c0.276,0,0.5,0.224,0.5,0.5S17.776,15,17.5,15z"/>
		</g>
		<g id="XMLID_186_">
			<path d="M13.5,18h-7C6.224,18,6,17.776,6,17.5S6.224,17,6.5,17h7c0.276,0,0.5,0.224,0.5,0.5S13.776,18,13.5,18z"/>
		</g>
		<g id="XMLID_185_">
			<path d="M17.5,18h-1c-0.276,0-0.5-0.224-0.5-0.5s0.224-0.5,0.5-0.5h1c0.276,0,0.5,0.224,0.5,0.5S17.776,18,17.5,18z"/>
		</g>
		<g id="XMLID_188_">
			<path d="M13.5,21h-7C6.224,21,6,20.776,6,20.5S6.224,20,6.5,20h7c0.276,0,0.5,0.224,0.5,0.5S13.776,21,13.5,21z"/>
		</g>
		<g id="XMLID_187_">
			<path d="M17.5,21h-1c-0.276,0-0.5-0.224-0.5-0.5s0.224-0.5,0.5-0.5h1c0.276,0,0.5,0.224,0.5,0.5S17.776,21,17.5,21z"/>
		</g>
	</g>
</g>
<g id="Menu">
</g>
<g id="Menu_2">
</g>
<g id="Salver">
</g>
<g id="Soup">
</g>
<g id="Sushi">
</g>
<g id="Pizza">
</g>
<g id="Pizza_Slice">
</g>
<g id="Fish">
</g>
<g id="Sausage">
</g>
<g id="Course">
</g>
<g id="Dessert">
</g>
<g id="Cutlery">
</g>
<g id="Napkin">
</g>
<g id="Table">
</g>
<g id="Spices">
</g>
<g id="Hot_Sauce">
</g>
<g id="Reserved_1">
</g>
<g id="Reserved_2">
</g>
<g id="Open">
</g>
<g id="Food_Photo">
</g>
<g id="Chef">
</g>
<g id="Bill">
</g>
<g id="Bill_2">
</g>
<g id="Paying_1">
</g>
<g id="Paying_2">
</g>
<g id="Restaurant_Place">
</g>
</svg>
