<?xml version="1.0" encoding="iso-8859-1"?>
<!-- Generator: Adobe Illustrator 19.0.0, SVG Export Plug-In . SVG Version: 6.00 Build 0)  -->
<svg version="1.1" id="Layer_1" xmlns="http://www.w3.org/2000/svg" xmlns:xlink="http://www.w3.org/1999/xlink" x="0px" y="0px"
	 viewBox="0 0 24 24" style="enable-background:new 0 0 24 24;" xml:space="preserve">
<g>
	<g>
		<path d="M8,14c-0.276,0-0.5-0.224-0.5-0.5S7.276,13,7,13s-0.5,0.224-0.5,0.5C6.5,14.327,7.173,15,8,15c0.827,0,1.5-0.673,1.5-1.5
			C9.5,12.673,8.827,12,8,12c-0.276,0-0.5-0.224-0.5-0.5S7.724,11,8,11s0.5,0.224,0.5,0.5S8.724,12,9,12s0.5-0.224,0.5-0.5
			C9.5,10.673,8.827,10,8,10c-0.827,0-1.5,0.673-1.5,1.5C6.5,12.327,7.173,13,8,13c0.276,0,0.5,0.224,0.5,0.5S8.276,14,8,14z M20,3
			h-0.5V2.5C19.5,1.673,18.827,1,18,1c-0.827,0-1.5,0.673-1.5,1.5V3h-9V2.5C7.5,1.673,6.827,1,6,1C5.173,1,4.5,1.673,4.5,2.5V3H4
			C2.07,3,0.5,4.57,0.5,6.5v13C0.5,21.43,2.07,23,4,23h16c1.93,0,3.5-1.57,3.5-3.5v-13C23.5,4.57,21.93,3,20,3z M17.5,2.5
			C17.5,2.224,17.724,2,18,2s0.5,0.224,0.5,0.5v2C18.5,4.776,18.276,5,18,5s-0.5-0.224-0.5-0.5V2.5z M5.5,2.5C5.5,2.224,5.724,2,6,2
			s0.5,0.224,0.5,0.5v2C6.5,4.776,6.276,5,6,5S5.5,4.776,5.5,4.5V2.5z M22.5,19.5c0,1.378-1.122,2.5-2.5,2.5H4
			c-1.378,0-2.5-1.122-2.5-2.5V9h21V19.5z M22.5,8h-21V6.5C1.5,5.122,2.622,4,4,4h0.5v0.5C4.5,5.327,5.173,6,6,6
			c0.827,0,1.5-0.673,1.5-1.5V4h9v0.5C16.5,5.327,17.173,6,18,6c0.827,0,1.5-0.673,1.5-1.5V4H20c1.378,0,2.5,1.122,2.5,2.5V8z
			 M11,21h2c0.276,0,0.501-0.224,0.501-0.5s-0.224-0.5-0.5-0.5h-0.5v-3.5c0-0.202-0.122-0.385-0.309-0.462
			c-0.187-0.079-0.402-0.036-0.545,0.108l-1,1c-0.195,0.195-0.195,0.512,0,0.707c0.195,0.195,0.512,0.195,0.707,0l0.146-0.146V20H11
			c-0.276,0-0.5,0.224-0.5,0.5S10.724,21,11,21z M11,15h2c0.276,0,0.5-0.224,0.5-0.5S13.276,14,13,14h-1.5v-1h1
			c0.276,0,0.5-0.224,0.5-0.5S12.776,12,12.5,12h-1v-1H13c0.276,0,0.5-0.224,0.5-0.5S13.276,10,13,10h-2c-0.276,0-0.5,0.224-0.5,0.5
			v4C10.5,14.776,10.724,15,11,15z M15,15c0.276,0,0.5-0.224,0.5-0.5V13H16c0.827,0,1.5-0.673,1.5-1.5c0-0.827-0.673-1.5-1.5-1.5h-1
			c-0.276,0-0.5,0.224-0.5,0.5v4C14.5,14.776,14.724,15,15,15z M15.5,11H16c0.276,0,0.5,0.224,0.5,0.5S16.276,12,16,12h-0.5V11z"/>
	</g>
</g>
</svg>
